<?xml version="1.0" encoding="UTF-8" standalone="no"?>
<!DOCTYPE svg PUBLIC "-//W3C//DTD SVG 1.1//EN"
 "http://www.w3.org/Graphics/SVG/1.1/DTD/svg11.dtd">
<!-- Generated by graphviz version 2.38.0 (20140413.2041)
 -->
<!-- Title: ActiveText.h Pages: 1 -->
<svg width="1059pt" height="84pt"
 viewBox="0.00 0.00 1058.50 84.00" xmlns="http://www.w3.org/2000/svg" xmlns:xlink="http://www.w3.org/1999/xlink">
<g id="graph0" class="graph" transform="scale(1 1) rotate(0) translate(4 80)">
<title>ActiveText.h</title>
<!-- Node1 -->
<g id="node1" class="node"><title>Node1</title>
<polygon fill="#bfbfbf" stroke="black" points="498,-56.5 498,-75.5 570,-75.5 570,-56.5 498,-56.5"/>
<text text-anchor="middle" x="534" y="-63.5" font-family="Helvetica,sans-Serif" font-size="10.00">ActiveText.h</text>
</g>
<!-- Node2 -->
<g id="node2" class="node"><title>Node2</title>
<g id="a_node2"><a xlink:href="_client_app_8cpp.html" target="_top" xlink:title="ClientApp.cpp">
<polygon fill="none" stroke="black" points="0,-0.5 0,-19.5 78,-19.5 78,-0.5 0,-0.5"/>
<text text-anchor="middle" x="39" y="-7.5" font-family="Helvetica,sans-Serif" font-size="10.00">ClientApp.cpp</text>
</a>
</g>
</g>
<!-- Node1&#45;&gt;Node2 -->
<g id="edge1" class="edge"><title>Node1&#45;&gt;Node2</title>
<path fill="none" stroke="midnightblue" d="M487.556,-61.6329C406.161,-55.4405 232.553,-40.9334 87,-20 84.1467,-19.5896 81.2045,-19.1295 78.2476,-18.6401"/>
<polygon fill="midnightblue" stroke="midnightblue" points="487.716,-65.1548 497.95,-62.4166 488.242,-58.1746 487.716,-65.1548"/>
</g>
<!-- Node3 -->
<g id="node3" class="node"><title>Node3</title>
<g id="a_node3"><a xlink:href="_debug_scene_8cpp.html" target="_top" xlink:title="DebugScene.cpp">
<polygon fill="none" stroke="black" points="96,-0.5 96,-19.5 188,-19.5 188,-0.5 96,-0.5"/>
<text text-anchor="middle" x="142" y="-7.5" font-family="Helvetica,sans-Serif" font-size="10.00">DebugScene.cpp</text>
</a>
</g>
</g>
<!-- Node1&#45;&gt;Node3 -->
<g id="edge2" class="edge"><title>Node1&#45;&gt;Node3</title>
<path fill="none" stroke="midnightblue" d="M487.609,-59.2444C422.574,-51.0758 300.637,-35.3953 197,-20 194.129,-19.5735 191.175,-19.1233 188.198,-18.661"/>
<polygon fill="midnightblue" stroke="midnightblue" points="487.189,-62.719 497.546,-60.4897 488.059,-55.7733 487.189,-62.719"/>
</g>
<!-- Node4 -->
<g id="node4" class="node"><title>Node4</title>
<g id="a_node4"><a xlink:href="_test_lab_scene_8cpp.html" target="_top" xlink:title="TestLabScene.cpp">
<polygon fill="none" stroke="black" points="206,-0.5 206,-19.5 304,-19.5 304,-0.5 206,-0.5"/>
<text text-anchor="middle" x="255" y="-7.5" font-family="Helvetica,sans-Serif" font-size="10.00">TestLabScene.cpp</text>
</a>
</g>
</g>
<!-- Node1&#45;&gt;Node4 -->
<g id="edge3" class="edge"><title>Node1&#45;&gt;Node4</title>
<path fill="none" stroke="midnightblue" d="M487.774,-56.0531C435.326,-45.9018 350.412,-29.4669 298.933,-19.5032"/>
<polygon fill="midnightblue" stroke="midnightblue" points="487.329,-59.5317 497.812,-57.9958 488.659,-52.6593 487.329,-59.5317"/>
</g>
<!-- Node5 -->
<g id="node5" class="node"><title>Node5</title>
<g id="a_node5"><a xlink:href="_console_scene_8cpp.html" target="_top" xlink:title="ConsoleScene.cpp">
<polygon fill="none" stroke="black" points="322.5,-0.5 322.5,-19.5 421.5,-19.5 421.5,-0.5 322.5,-0.5"/>
<text text-anchor="middle" x="372" y="-7.5" font-family="Helvetica,sans-Serif" font-size="10.00">ConsoleScene.cpp</text>
</a>
</g>
</g>
<!-- Node1&#45;&gt;Node5 -->
<g id="edge4" class="edge"><title>Node1&#45;&gt;Node5</title>
<path fill="none" stroke="midnightblue" d="M498.516,-53.172C468.012,-43.0039 424.755,-28.5852 397.549,-19.5164"/>
<polygon fill="midnightblue" stroke="midnightblue" points="497.737,-56.6016 508.331,-56.4435 499.951,-49.9608 497.737,-56.6016"/>
</g>
<!-- Node6 -->
<g id="node6" class="node"><title>Node6</title>
<g id="a_node6"><a xlink:href="_active_text_8cpp.html" target="_top" xlink:title="ActiveText.cpp">
<polygon fill="none" stroke="black" points="439.5,-0.5 439.5,-19.5 522.5,-19.5 522.5,-0.5 439.5,-0.5"/>
<text text-anchor="middle" x="481" y="-7.5" font-family="Helvetica,sans-Serif" font-size="10.00">ActiveText.cpp</text>
</a>
</g>
</g>
<!-- Node1&#45;&gt;Node6 -->
<g id="edge5" class="edge"><title>Node1&#45;&gt;Node6</title>
<path fill="none" stroke="midnightblue" d="M518.019,-48.7175C508.678,-39.1997 497.254,-27.5608 489.589,-19.7511"/>
<polygon fill="midnightblue" stroke="midnightblue" points="515.746,-51.3978 525.248,-56.083 520.741,-46.4945 515.746,-51.3978"/>
</g>
<!-- Node7 -->
<g id="node7" class="node"><title>Node7</title>
<g id="a_node7"><a xlink:href="_chronometer_8cpp.html" target="_top" xlink:title="Chronometer.cpp">
<polygon fill="none" stroke="black" points="541,-0.5 541,-19.5 633,-19.5 633,-0.5 541,-0.5"/>
<text text-anchor="middle" x="587" y="-7.5" font-family="Helvetica,sans-Serif" font-size="10.00">Chronometer.cpp</text>
</a>
</g>
</g>
<!-- Node1&#45;&gt;Node7 -->
<g id="edge6" class="edge"><title>Node1&#45;&gt;Node7</title>
<path fill="none" stroke="midnightblue" d="M549.981,-48.7175C559.322,-39.1997 570.746,-27.5608 578.411,-19.7511"/>
<polygon fill="midnightblue" stroke="midnightblue" points="547.259,-46.4945 542.752,-56.083 552.254,-51.3978 547.259,-46.4945"/>
</g>
<!-- Node8 -->
<g id="node8" class="node"><title>Node8</title>
<g id="a_node8"><a xlink:href="_counter_8cpp.html" target="_top" xlink:title="Counter.cpp">
<polygon fill="none" stroke="black" points="651,-0.5 651,-19.5 721,-19.5 721,-0.5 651,-0.5"/>
<text text-anchor="middle" x="686" y="-7.5" font-family="Helvetica,sans-Serif" font-size="10.00">Counter.cpp</text>
</a>
</g>
</g>
<!-- Node1&#45;&gt;Node8 -->
<g id="edge7" class="edge"><title>Node1&#45;&gt;Node8</title>
<path fill="none" stroke="midnightblue" d="M567.668,-53.0392C596.268,-42.8786 636.612,-28.5457 662.028,-19.5164"/>
<polygon fill="midnightblue" stroke="midnightblue" points="566.336,-49.7978 558.085,-56.4435 568.68,-56.3939 566.336,-49.7978"/>
</g>
<!-- Node9 -->
<g id="node9" class="node"><title>Node9</title>
<g id="a_node9"><a xlink:href="_hud_text_8cpp.html" target="_top" xlink:title="HudText.cpp">
<polygon fill="none" stroke="black" points="739.5,-0.5 739.5,-19.5 812.5,-19.5 812.5,-0.5 739.5,-0.5"/>
<text text-anchor="middle" x="776" y="-7.5" font-family="Helvetica,sans-Serif" font-size="10.00">HudText.cpp</text>
</a>
</g>
</g>
<!-- Node1&#45;&gt;Node9 -->
<g id="edge8" class="edge"><title>Node1&#45;&gt;Node9</title>
<path fill="none" stroke="midnightblue" d="M580.28,-54.6731C626.477,-44.3646 696.553,-28.7277 739.125,-19.2283"/>
<polygon fill="midnightblue" stroke="midnightblue" points="579.228,-51.3217 570.23,-56.9157 580.752,-58.1537 579.228,-51.3217"/>
</g>
<!-- Node10 -->
<g id="node10" class="node"><title>Node10</title>
<g id="a_node10"><a xlink:href="_sdl_active_text_view_8cpp.html" target="_top" xlink:title="SdlActiveTextView.cpp">
<polygon fill="none" stroke="black" points="830.5,-0.5 830.5,-19.5 949.5,-19.5 949.5,-0.5 830.5,-0.5"/>
<text text-anchor="middle" x="890" y="-7.5" font-family="Helvetica,sans-Serif" font-size="10.00">SdlActiveTextView.cpp</text>
</a>
</g>
</g>
<!-- Node1&#45;&gt;Node10 -->
<g id="edge9" class="edge"><title>Node1&#45;&gt;Node10</title>
<path fill="none" stroke="midnightblue" d="M580.051,-58.0148C645.049,-48.1555 763.578,-30.1764 833.717,-19.5373"/>
<polygon fill="midnightblue" stroke="midnightblue" points="579.456,-54.5648 570.094,-59.525 580.506,-61.4857 579.456,-54.5648"/>
</g>
<!-- Node11 -->
<g id="node11" class="node"><title>Node11</title>
<g id="a_node11"><a xlink:href="_sdl_display_8cpp.html" target="_top" xlink:title="SdlDisplay.cpp">
<polygon fill="none" stroke="black" points="967.5,-0.5 967.5,-19.5 1050.5,-19.5 1050.5,-0.5 967.5,-0.5"/>
<text text-anchor="middle" x="1009" y="-7.5" font-family="Helvetica,sans-Serif" font-size="10.00">SdlDisplay.cpp</text>
</a>
</g>
</g>
<!-- Node1&#45;&gt;Node11 -->
<g id="edge10" class="edge"><title>Node1&#45;&gt;Node11</title>
<path fill="none" stroke="midnightblue" d="M580.221,-61.2133C658.427,-54.5586 821.746,-39.5928 959,-20 961.707,-19.6136 964.491,-19.1888 967.295,-18.7406"/>
<polygon fill="midnightblue" stroke="midnightblue" points="579.882,-57.7294 570.212,-62.059 580.471,-64.7045 579.882,-57.7294"/>
</g>
</g>
</svg>
