<?xml version="1.0" encoding="UTF-8" standalone="no"?>
<!DOCTYPE svg PUBLIC "-//W3C//DTD SVG 1.1//EN"
 "http://www.w3.org/Graphics/SVG/1.1/DTD/svg11.dtd">
<!-- Generated by graphviz version 2.26.3 (20100126.1600)
 -->
<!-- Title: Action.h Pages: 1 -->
<svg width="1782pt" height="204pt"
 viewBox="0.00 0.00 1781.99 204.00" xmlns="http://www.w3.org/2000/svg" xmlns:xlink="http://www.w3.org/1999/xlink">
<g id="graph1" class="graph" transform="scale(1 1) rotate(0) translate(4 200)">
<title>Action.h</title>
<!-- Node1 -->
<g id="node1" class="node"><title>Node1</title>
<polygon fill="#bfbfbf" stroke="black" points="886,-175 886,-195 938,-195 938,-175 886,-175"/>
<text text-anchor="middle" x="912" y="-182" font-family="FreeSans" font-size="10.00">Action.h</text>
</g>
<!-- Node2 -->
<g id="node3" class="node"><title>Node2</title>
<a xlink:href="_controller_8h.html" target="_top" xlink:title="Controller.h">
<polygon fill="none" stroke="black" points="839.5,-117 839.5,-137 904.5,-137 904.5,-117 839.5,-117"/>
<text text-anchor="middle" x="872" y="-124" font-family="FreeSans" font-size="10.00">Controller.h</text>
</a>
</g>
<!-- Node1&#45;&gt;Node2 -->
<g id="edge2" class="edge"><title>Node1&#45;&gt;Node2</title>
<path fill="none" stroke="midnightblue" d="M899.165,-166.389C892.54,-156.782 884.706,-145.423 879.157,-137.378"/>
<polygon fill="midnightblue" stroke="midnightblue" points="896.474,-168.652 905.033,-174.897 902.236,-164.678 896.474,-168.652"/>
</g>
<!-- Node23 -->
<g id="node48" class="node"><title>Node23</title>
<a xlink:href="_console_scene_8h.html" target="_top" xlink:title="ConsoleScene.h">
<polygon fill="none" stroke="black" points="110.5,-117 110.5,-137 197.5,-137 197.5,-117 110.5,-117"/>
<text text-anchor="middle" x="154" y="-124" font-family="FreeSans" font-size="10.00">ConsoleScene.h</text>
</a>
</g>
<!-- Node1&#45;&gt;Node23 -->
<g id="edge50" class="edge"><title>Node1&#45;&gt;Node23</title>
<path fill="none" stroke="midnightblue" d="M875.673,-182.22C749.997,-172.604 333.925,-140.767 197.64,-130.339"/>
<polygon fill="midnightblue" stroke="midnightblue" points="875.67,-185.73 885.908,-183.004 876.204,-178.751 875.67,-185.73"/>
</g>
<!-- Node24 -->
<g id="node52" class="node"><title>Node24</title>
<a xlink:href="_button_8cpp.html" target="_top" xlink:title="Button.cpp">
<polygon fill="none" stroke="black" points="921.5,-117 921.5,-137 984.5,-137 984.5,-117 921.5,-117"/>
<text text-anchor="middle" x="953" y="-124" font-family="FreeSans" font-size="10.00">Button.cpp</text>
</a>
</g>
<!-- Node1&#45;&gt;Node24 -->
<g id="edge56" class="edge"><title>Node1&#45;&gt;Node24</title>
<path fill="none" stroke="midnightblue" d="M924.946,-166.686C931.781,-157.017 939.918,-145.506 945.664,-137.378"/>
<polygon fill="midnightblue" stroke="midnightblue" points="922.056,-164.711 919.142,-174.897 927.772,-168.752 922.056,-164.711"/>
</g>
<!-- Node25 -->
<g id="node54" class="node"><title>Node25</title>
<a xlink:href="_click_region_8cpp.html" target="_top" xlink:title="ClickRegion.cpp">
<polygon fill="none" stroke="black" points="1002,-117 1002,-137 1088,-137 1088,-117 1002,-117"/>
<text text-anchor="middle" x="1045" y="-124" font-family="FreeSans" font-size="10.00">ClickRegion.cpp</text>
</a>
</g>
<!-- Node1&#45;&gt;Node25 -->
<g id="edge58" class="edge"><title>Node1&#45;&gt;Node25</title>
<path fill="none" stroke="midnightblue" d="M944.532,-170.813C968.408,-160.401 1000.27,-146.507 1021.65,-137.182"/>
<polygon fill="midnightblue" stroke="midnightblue" points="942.934,-167.692 935.167,-174.897 945.732,-174.108 942.934,-167.692"/>
</g>
<!-- Node3 -->
<g id="node5" class="node"><title>Node3</title>
<a xlink:href="_client_app_8cpp.html" target="_top" xlink:title="ClientApp.cpp">
<polygon fill="none" stroke="black" points="115.5,-59 115.5,-79 192.5,-79 192.5,-59 115.5,-59"/>
<text text-anchor="middle" x="154" y="-66" font-family="FreeSans" font-size="10.00">ClientApp.cpp</text>
</a>
</g>
<!-- Node2&#45;&gt;Node3 -->
<g id="edge4" class="edge"><title>Node2&#45;&gt;Node3</title>
<path fill="none" stroke="midnightblue" d="M828.948,-126.018C722.685,-123.149 439.604,-112.791 206,-80 201.614,-79.3843 197.044,-78.6128 192.514,-77.7655"/>
<polygon fill="midnightblue" stroke="midnightblue" points="829.173,-129.525 839.261,-126.288 829.356,-122.528 829.173,-129.525"/>
</g>
<!-- Node4 -->
<g id="node7" class="node"><title>Node4</title>
<a xlink:href="_control_prefs_page_8cpp.html" target="_top" xlink:title="ControlPrefsPage.cpp">
<polygon fill="none" stroke="black" points="1221.5,-59 1221.5,-79 1332.5,-79 1332.5,-59 1221.5,-59"/>
<text text-anchor="middle" x="1277" y="-66" font-family="FreeSans" font-size="10.00">ControlPrefsPage.cpp</text>
</a>
</g>
<!-- Node2&#45;&gt;Node4 -->
<g id="edge6" class="edge"><title>Node2&#45;&gt;Node4</title>
<path fill="none" stroke="midnightblue" d="M914.666,-115.876C1046.63,-90.9511 1083.36,-98.9069 1213,-80 1215.68,-79.6095 1218.42,-79.1956 1221.18,-78.766"/>
<polygon fill="midnightblue" stroke="midnightblue" points="913.738,-112.49 904.576,-117.81 915.056,-119.365 913.738,-112.49"/>
</g>
<!-- Node5 -->
<g id="node9" class="node"><title>Node5</title>
<a xlink:href="_form_scene_8cpp.html" target="_top" xlink:title="FormScene.cpp">
<polygon fill="none" stroke="black" points="1349.5,-59 1349.5,-79 1434.5,-79 1434.5,-59 1349.5,-59"/>
<text text-anchor="middle" x="1392" y="-66" font-family="FreeSans" font-size="10.00">FormScene.cpp</text>
</a>
</g>
<!-- Node2&#45;&gt;Node5 -->
<g id="edge8" class="edge"><title>Node2&#45;&gt;Node5</title>
<path fill="none" stroke="midnightblue" d="M914.504,-115.983C1102.83,-83.9771 1155.42,-107.7 1341,-80 1343.78,-79.5855 1346.63,-79.11 1349.5,-78.5945"/>
<polygon fill="midnightblue" stroke="midnightblue" points="913.814,-112.551 904.557,-117.704 915.007,-119.448 913.814,-112.551"/>
</g>
<!-- Node6 -->
<g id="node11" class="node"><title>Node6</title>
<a xlink:href="_game_app_8cpp.html" target="_top" xlink:title="GameApp.cpp">
<polygon fill="none" stroke="black" points="1452,-59 1452,-79 1530,-79 1530,-59 1452,-59"/>
<text text-anchor="middle" x="1491" y="-66" font-family="FreeSans" font-size="10.00">GameApp.cpp</text>
</a>
</g>
<!-- Node2&#45;&gt;Node6 -->
<g id="edge10" class="edge"><title>Node2&#45;&gt;Node6</title>
<path fill="none" stroke="midnightblue" d="M914.695,-115.985C1147.73,-78.2678 1212.74,-113.988 1443,-80 1445.88,-79.5755 1448.83,-79.0698 1451.8,-78.5118"/>
<polygon fill="midnightblue" stroke="midnightblue" points="913.847,-112.577 904.548,-117.656 914.984,-119.484 913.847,-112.577"/>
</g>
<!-- Node7 -->
<g id="node13" class="node"><title>Node7</title>
<a xlink:href="_game_scene_8cpp.html" target="_top" xlink:title="GameScene.cpp">
<polygon fill="none" stroke="black" points="1547.5,-59 1547.5,-79 1636.5,-79 1636.5,-59 1547.5,-59"/>
<text text-anchor="middle" x="1592" y="-66" font-family="FreeSans" font-size="10.00">GameScene.cpp</text>
</a>
</g>
<!-- Node2&#45;&gt;Node7 -->
<g id="edge12" class="edge"><title>Node2&#45;&gt;Node7</title>
<path fill="none" stroke="midnightblue" d="M914.428,-116.046C1189.91,-72.6986 1265.95,-115.988 1539,-80 1541.7,-79.6439 1544.47,-79.2273 1547.26,-78.7685"/>
<polygon fill="midnightblue" stroke="midnightblue" points="913.866,-112.591 904.543,-117.624 914.97,-119.503 913.866,-112.591"/>
</g>
<!-- Node8 -->
<g id="node15" class="node"><title>Node8</title>
<a xlink:href="_main_menu_scene_8cpp.html" target="_top" xlink:title="MainMenuScene.cpp">
<polygon fill="none" stroke="black" points="1653.5,-59 1653.5,-79 1760.5,-79 1760.5,-59 1653.5,-59"/>
<text text-anchor="middle" x="1707" y="-66" font-family="FreeSans" font-size="10.00">MainMenuScene.cpp</text>
</a>
</g>
<!-- Node2&#45;&gt;Node8 -->
<g id="edge14" class="edge"><title>Node2&#45;&gt;Node8</title>
<path fill="none" stroke="midnightblue" d="M914.622,-116.03C1236.59,-66.5484 1324.65,-116.149 1645,-80 1647.72,-79.6935 1650.49,-79.342 1653.29,-78.9572"/>
<polygon fill="midnightblue" stroke="midnightblue" points="913.882,-112.603 904.539,-117.6 914.959,-119.519 913.882,-112.603"/>
</g>
<!-- Node9 -->
<g id="node17" class="node"><title>Node9</title>
<a xlink:href="_message_scene_8cpp.html" target="_top" xlink:title="MessageScene.cpp">
<polygon fill="none" stroke="black" points="585,-1 585,-21 687,-21 687,-1 585,-1"/>
<text text-anchor="middle" x="636" y="-8" font-family="FreeSans" font-size="10.00">MessageScene.cpp</text>
</a>
</g>
<!-- Node2&#45;&gt;Node9 -->
<g id="edge16" class="edge"><title>Node2&#45;&gt;Node9</title>
<path fill="none" stroke="midnightblue" d="M871.802,-106.779C870.531,-91.2851 866.219,-70.5057 853,-58 829.514,-35.7803 743.631,-22.4995 687.21,-15.9836"/>
<polygon fill="midnightblue" stroke="midnightblue" points="868.313,-107.106 872.273,-116.933 875.305,-106.781 868.313,-107.106"/>
</g>
<!-- Node10 -->
<g id="node19" class="node"><title>Node10</title>
<a xlink:href="_action_button_8h.html" target="_top" xlink:title="ActionButton.h">
<polygon fill="none" stroke="black" points="248,-59 248,-79 328,-79 328,-59 248,-59"/>
<text text-anchor="middle" x="288" y="-66" font-family="FreeSans" font-size="10.00">ActionButton.h</text>
</a>
</g>
<!-- Node2&#45;&gt;Node10 -->
<g id="edge18" class="edge"><title>Node2&#45;&gt;Node10</title>
<path fill="none" stroke="midnightblue" d="M829.037,-125.17C737.904,-120.863 518.679,-108.244 337,-80 334.071,-79.5446 331.055,-79.0162 328.028,-78.4421"/>
<polygon fill="midnightblue" stroke="midnightblue" points="829.097,-128.677 839.249,-125.643 829.421,-121.684 829.097,-128.677"/>
</g>
<!-- Node11 -->
<g id="node22" class="node"><title>Node11</title>
<a xlink:href="_test_lab_scene_8cpp.html" target="_top" xlink:title="TestLabScene.cpp">
<polygon fill="none" stroke="black" points="171,-1 171,-21 269,-21 269,-1 171,-1"/>
<text text-anchor="middle" x="220" y="-8" font-family="FreeSans" font-size="10.00">TestLabScene.cpp</text>
</a>
</g>
<!-- Node2&#45;&gt;Node11 -->
<g id="edge32" class="edge"><title>Node2&#45;&gt;Node11</title>
<path fill="none" stroke="midnightblue" d="M829.152,-126.632C694.237,-125.09 284.428,-117.349 239,-80 221.436,-65.5598 219.274,-36.5055 219.469,-21.1096"/>
<polygon fill="midnightblue" stroke="midnightblue" points="829.458,-130.135 839.495,-126.744 829.534,-123.136 829.458,-130.135"/>
</g>
<!-- Node13 -->
<g id="node26" class="node"><title>Node13</title>
<a xlink:href="_palette_scene_8cpp.html" target="_top" xlink:title="PaletteScene.cpp">
<polygon fill="none" stroke="black" points="345.5,-59 345.5,-79 438.5,-79 438.5,-59 345.5,-59"/>
<text text-anchor="middle" x="392" y="-66" font-family="FreeSans" font-size="10.00">PaletteScene.cpp</text>
</a>
</g>
<!-- Node2&#45;&gt;Node13 -->
<g id="edge26" class="edge"><title>Node2&#45;&gt;Node13</title>
<path fill="none" stroke="midnightblue" d="M829.107,-123.504C752.245,-116.961 586.076,-101.556 447,-80 444.306,-79.5824 441.543,-79.1245 438.758,-78.6403"/>
<polygon fill="midnightblue" stroke="midnightblue" points="829.089,-127.014 839.348,-124.368 829.677,-120.039 829.089,-127.014"/>
</g>
<!-- Node14 -->
<g id="node28" class="node"><title>Node14</title>
<a xlink:href="_pause_menu_scene_8cpp.html" target="_top" xlink:title="PauseMenuScene.cpp">
<polygon fill="none" stroke="black" points="456,-59 456,-79 570,-79 570,-59 456,-59"/>
<text text-anchor="middle" x="513" y="-66" font-family="FreeSans" font-size="10.00">PauseMenuScene.cpp</text>
</a>
</g>
<!-- Node2&#45;&gt;Node14 -->
<g id="edge28" class="edge"><title>Node2&#45;&gt;Node14</title>
<path fill="none" stroke="midnightblue" d="M829.385,-120.248C772.345,-111.19 668.027,-94.5591 579,-80 576.134,-79.5313 573.198,-79.0492 570.234,-78.5609"/>
<polygon fill="midnightblue" stroke="midnightblue" points="829.046,-123.738 839.471,-121.848 830.144,-116.824 829.046,-123.738"/>
</g>
<!-- Node15 -->
<g id="node30" class="node"><title>Node15</title>
<a xlink:href="_practice_setup_scene_8cpp.html" target="_top" xlink:title="PracticeSetupScene.cpp">
<polygon fill="none" stroke="black" points="588,-59 588,-79 712,-79 712,-59 588,-59"/>
<text text-anchor="middle" x="650" y="-66" font-family="FreeSans" font-size="10.00">PracticeSetupScene.cpp</text>
</a>
</g>
<!-- Node2&#45;&gt;Node15 -->
<g id="edge30" class="edge"><title>Node2&#45;&gt;Node15</title>
<path fill="none" stroke="midnightblue" d="M829.346,-115.856C788.614,-105.214 727.779,-89.3207 688.491,-79.0563"/>
<polygon fill="midnightblue" stroke="midnightblue" points="828.683,-119.3 839.243,-118.442 830.453,-112.528 828.683,-119.3"/>
</g>
<!-- Node16 -->
<g id="node33" class="node"><title>Node16</title>
<a xlink:href="_track_select_scene_8cpp.html" target="_top" xlink:title="TrackSelectScene.cpp">
<polygon fill="none" stroke="black" points="729.5,-59 729.5,-79 844.5,-79 844.5,-59 729.5,-59"/>
<text text-anchor="middle" x="787" y="-66" font-family="FreeSans" font-size="10.00">TrackSelectScene.cpp</text>
</a>
</g>
<!-- Node2&#45;&gt;Node16 -->
<g id="edge34" class="edge"><title>Node2&#45;&gt;Node16</title>
<path fill="none" stroke="midnightblue" d="M848.515,-110.975C833.619,-100.811 814.798,-87.9681 801.921,-79.1817"/>
<polygon fill="midnightblue" stroke="midnightblue" points="846.961,-114.152 857.194,-116.897 850.907,-108.37 846.961,-114.152"/>
</g>
<!-- Node17 -->
<g id="node35" class="node"><title>Node17</title>
<a xlink:href="_console_scene_8cpp.html" target="_top" xlink:title="ConsoleScene.cpp">
<polygon fill="none" stroke="black" points="0,-59 0,-79 98,-79 98,-59 0,-59"/>
<text text-anchor="middle" x="49" y="-66" font-family="FreeSans" font-size="10.00">ConsoleScene.cpp</text>
</a>
</g>
<!-- Node2&#45;&gt;Node17 -->
<g id="edge36" class="edge"><title>Node2&#45;&gt;Node17</title>
<path fill="none" stroke="midnightblue" d="M829.16,-126.259C712.696,-123.838 380.68,-114.221 107,-80 104.152,-79.6439 101.234,-79.2342 98.2941,-78.7867"/>
<polygon fill="midnightblue" stroke="midnightblue" points="829.36,-129.764 839.428,-126.466 829.501,-122.765 829.36,-129.764"/>
</g>
<!-- Node18 -->
<g id="node37" class="node"><title>Node18</title>
<a xlink:href="_action_performers_8h.html" target="_top" xlink:title="ActionPerformers.h">
<polygon fill="none" stroke="black" points="900,-59 900,-79 1000,-79 1000,-59 900,-59"/>
<text text-anchor="middle" x="950" y="-66" font-family="FreeSans" font-size="10.00">ActionPerformers.h</text>
</a>
</g>
<!-- Node2&#45;&gt;Node18 -->
<g id="edge38" class="edge"><title>Node2&#45;&gt;Node18</title>
<path fill="none" stroke="midnightblue" d="M893.939,-110.687C907.545,-100.569 924.603,-87.8852 936.307,-79.1817"/>
<polygon fill="midnightblue" stroke="midnightblue" points="891.523,-108.121 885.587,-116.897 895.7,-113.739 891.523,-108.121"/>
</g>
<!-- Node20 -->
<g id="node41" class="node"><title>Node20</title>
<a xlink:href="_controller_8cpp.html" target="_top" xlink:title="Controller.cpp">
<polygon fill="none" stroke="black" points="1386,-1 1386,-21 1462,-21 1462,-1 1386,-1"/>
<text text-anchor="middle" x="1424" y="-8" font-family="FreeSans" font-size="10.00">Controller.cpp</text>
</a>
</g>
<!-- Node2&#45;&gt;Node20 -->
<g id="edge44" class="edge"><title>Node2&#45;&gt;Node20</title>
<path fill="none" stroke="midnightblue" d="M914.575,-116.588C1021,-109.171 1737.38,-112.981 1769,-80 1775.77,-72.9423 1775.43,-65.3658 1769,-58 1749.02,-35.1174 1547.73,-19.1935 1462.16,-13.4074"/>
<polygon fill="midnightblue" stroke="midnightblue" points="914.144,-113.113 904.536,-117.578 914.831,-120.08 914.144,-113.113"/>
</g>
<!-- Node21 -->
<g id="node44" class="node"><title>Node21</title>
<a xlink:href="_controller_strings_8cpp.html" target="_top" xlink:title="ControllerStrings.cpp">
<polygon fill="none" stroke="black" points="1017.5,-59 1017.5,-79 1124.5,-79 1124.5,-59 1017.5,-59"/>
<text text-anchor="middle" x="1071" y="-66" font-family="FreeSans" font-size="10.00">ControllerStrings.cpp</text>
</a>
</g>
<!-- Node2&#45;&gt;Node21 -->
<g id="edge46" class="edge"><title>Node2&#45;&gt;Node21</title>
<path fill="none" stroke="midnightblue" d="M914.683,-114.56C951.034,-103.965 1002.6,-88.9349 1036.42,-79.079"/>
<polygon fill="midnightblue" stroke="midnightblue" points="913.482,-111.264 904.861,-117.422 915.441,-117.984 913.482,-111.264"/>
</g>
<!-- Node22 -->
<g id="node46" class="node"><title>Node22</title>
<a xlink:href="_config_8cpp.html" target="_top" xlink:title="Config.cpp">
<polygon fill="none" stroke="black" points="1142,-59 1142,-79 1204,-79 1204,-59 1142,-59"/>
<text text-anchor="middle" x="1173" y="-66" font-family="FreeSans" font-size="10.00">Config.cpp</text>
</a>
</g>
<!-- Node2&#45;&gt;Node22 -->
<g id="edge48" class="edge"><title>Node2&#45;&gt;Node22</title>
<path fill="none" stroke="midnightblue" d="M914.537,-115.822C1011.63,-95.4973 1039.33,-100.483 1133,-80 1135.81,-79.3846 1138.73,-78.6929 1141.64,-77.9639"/>
<polygon fill="midnightblue" stroke="midnightblue" points="913.653,-112.431 904.602,-117.938 915.112,-119.278 913.653,-112.431"/>
</g>
<!-- Node10&#45;&gt;Node9 -->
<g id="edge20" class="edge"><title>Node10&#45;&gt;Node9</title>
<path fill="none" stroke="midnightblue" d="M338.162,-57.8661C430.673,-40.4431 527.183,-26.1426 584.771,-18.0204"/>
<polygon fill="midnightblue" stroke="midnightblue" points="337.239,-54.4787 328.067,-59.7829 338.545,-61.3558 337.239,-54.4787"/>
</g>
<!-- Node10&#45;&gt;Node11 -->
<g id="edge22" class="edge"><title>Node10&#45;&gt;Node11</title>
<path fill="none" stroke="midnightblue" d="M268.245,-52.1504C256.58,-42.2003 242.183,-29.9207 232.167,-21.3776"/>
<polygon fill="midnightblue" stroke="midnightblue" points="266.276,-55.0706 276.155,-58.8972 270.818,-49.7447 266.276,-55.0706"/>
</g>
<!-- Node12 -->
<g id="node24" class="node"><title>Node12</title>
<a xlink:href="_action_button_8cpp.html" target="_top" xlink:title="ActionButton.cpp">
<polygon fill="none" stroke="black" points="286.5,-1 286.5,-21 377.5,-21 377.5,-1 286.5,-1"/>
<text text-anchor="middle" x="332" y="-8" font-family="FreeSans" font-size="10.00">ActionButton.cpp</text>
</a>
</g>
<!-- Node10&#45;&gt;Node12 -->
<g id="edge24" class="edge"><title>Node10&#45;&gt;Node12</title>
<path fill="none" stroke="midnightblue" d="M301.894,-50.6856C309.229,-41.0169 317.961,-29.5059 324.127,-21.3776"/>
<polygon fill="midnightblue" stroke="midnightblue" points="298.92,-48.8149 295.664,-58.8972 304.497,-53.0456 298.92,-48.8149"/>
</g>
<!-- Node19 -->
<g id="node39" class="node"><title>Node19</title>
<a xlink:href="_action_performers_8cpp.html" target="_top" xlink:title="ActionPerformers.cpp">
<polygon fill="none" stroke="black" points="895,-1 895,-21 1005,-21 1005,-1 895,-1"/>
<text text-anchor="middle" x="950" y="-8" font-family="FreeSans" font-size="10.00">ActionPerformers.cpp</text>
</a>
</g>
<!-- Node18&#45;&gt;Node19 -->
<g id="edge40" class="edge"><title>Node18&#45;&gt;Node19</title>
<path fill="none" stroke="midnightblue" d="M950,-48.8902C950,-39.6201 950,-29.0083 950,-21.3776"/>
<polygon fill="midnightblue" stroke="midnightblue" points="946.5,-48.8971 950,-58.8972 953.5,-48.8972 946.5,-48.8971"/>
</g>
<!-- Node18&#45;&gt;Node20 -->
<g id="edge42" class="edge"><title>Node18&#45;&gt;Node20</title>
<path fill="none" stroke="midnightblue" d="M1010.11,-57.9148C1154.6,-36.5928 1314.21,-20.983 1385.83,-14.4014"/>
<polygon fill="midnightblue" stroke="midnightblue" points="1009.55,-54.4594 1000.17,-59.3935 1010.58,-61.3831 1009.55,-54.4594"/>
</g>
<!-- Node23&#45;&gt;Node3 -->
<g id="edge52" class="edge"><title>Node23&#45;&gt;Node3</title>
<path fill="none" stroke="midnightblue" d="M154,-106.89C154,-97.6201 154,-87.0083 154,-79.3776"/>
<polygon fill="midnightblue" stroke="midnightblue" points="150.5,-106.897 154,-116.897 157.5,-106.897 150.5,-106.897"/>
</g>
<!-- Node23&#45;&gt;Node17 -->
<g id="edge54" class="edge"><title>Node23&#45;&gt;Node17</title>
<path fill="none" stroke="midnightblue" d="M126.796,-111.973C108.132,-101.663 83.864,-88.2582 67.4323,-79.1817"/>
<polygon fill="midnightblue" stroke="midnightblue" points="125.265,-115.126 135.71,-116.897 128.649,-108.998 125.265,-115.126"/>
</g>
</g>
</svg>
