<?xml version="1.0" encoding="UTF-8" standalone="no"?>
<!DOCTYPE svg PUBLIC "-//W3C//DTD SVG 1.1//EN"
 "http://www.w3.org/Graphics/SVG/1.1/DTD/svg11.dtd">
<!-- Generated by graphviz version 2.26.3 (20100126.1600)
 -->
<!-- Title: ActionPerformers.h Pages: 1 -->
<svg width="502pt" height="262pt"
 viewBox="0.00 0.00 502.00 262.00" xmlns="http://www.w3.org/2000/svg" xmlns:xlink="http://www.w3.org/1999/xlink">
<g id="graph1" class="graph" transform="scale(1 1) rotate(0) translate(4 258)">
<title>ActionPerformers.h</title>
<!-- Node1 -->
<g id="node1" class="node"><title>Node1</title>
<polygon fill="#bfbfbf" stroke="black" points="354,-233 354,-253 454,-253 454,-233 354,-233"/>
<text text-anchor="middle" x="404" y="-240" font-family="FreeSans" font-size="10.00">ActionPerformers.h</text>
</g>
<!-- Node2 -->
<g id="node3" class="node"><title>Node2</title>
<a xlink:href="_controller_8h.html" target="_top" xlink:title="Controller.h">
<polygon fill="none" stroke="black" points="284.5,-175 284.5,-195 349.5,-195 349.5,-175 284.5,-175"/>
<text text-anchor="middle" x="317" y="-182" font-family="FreeSans" font-size="10.00">Controller.h</text>
</a>
</g>
<!-- Node1&#45;&gt;Node2 -->
<g id="edge2" class="edge"><title>Node1&#45;&gt;Node2</title>
<path fill="none" stroke="midnightblue" d="M388.846,-232.897C375.579,-224.052 356.081,-211.054 340.744,-200.829"/>
<polygon fill="midnightblue" stroke="midnightblue" points="342.534,-197.817 332.272,-195.182 338.652,-203.641 342.534,-197.817"/>
</g>
<!-- Node12 -->
<g id="node23" class="node"><title>Node12</title>
<a xlink:href="_control_action_8h.html" target="_top" xlink:title="ControlAction.h">
<polygon fill="none" stroke="black" points="411.5,-59 411.5,-79 494.5,-79 494.5,-59 411.5,-59"/>
<text text-anchor="middle" x="453" y="-66" font-family="FreeSans" font-size="10.00">ControlAction.h</text>
</a>
</g>
<!-- Node1&#45;&gt;Node12 -->
<g id="edge26" class="edge"><title>Node1&#45;&gt;Node12</title>
<path fill="none" stroke="midnightblue" d="M406.846,-232.893C414.729,-204.903 436.949,-125.999 447.415,-88.8322"/>
<polygon fill="midnightblue" stroke="midnightblue" points="450.804,-89.7093 450.146,-79.135 444.066,-87.8118 450.804,-89.7093"/>
</g>
<!-- Node3 -->
<g id="node5" class="node"><title>Node3</title>
<polygon fill="none" stroke="#bfbfbf" points="123,-117 123,-137 167,-137 167,-117 123,-117"/>
<text text-anchor="middle" x="145" y="-124" font-family="FreeSans" font-size="10.00">vector</text>
</g>
<!-- Node2&#45;&gt;Node3 -->
<g id="edge4" class="edge"><title>Node2&#45;&gt;Node3</title>
<path fill="none" stroke="midnightblue" d="M286.412,-174.992C259.768,-166.233 219.868,-153.017 176.849,-138.256"/>
<polygon fill="midnightblue" stroke="midnightblue" points="177.928,-134.925 167.333,-134.982 175.651,-141.545 177.928,-134.925"/>
</g>
<!-- Node4 -->
<g id="node7" class="node"><title>Node4</title>
<polygon fill="none" stroke="#bfbfbf" points="184.5,-117 184.5,-137 225.5,-137 225.5,-117 184.5,-117"/>
<text text-anchor="middle" x="205" y="-124" font-family="FreeSans" font-size="10.00">string</text>
</g>
<!-- Node2&#45;&gt;Node4 -->
<g id="edge6" class="edge"><title>Node2&#45;&gt;Node4</title>
<path fill="none" stroke="midnightblue" d="M297.491,-174.897C279.853,-165.763 253.66,-152.199 233.647,-141.835"/>
<polygon fill="midnightblue" stroke="midnightblue" points="235.151,-138.672 224.661,-137.182 231.932,-144.888 235.151,-138.672"/>
</g>
<!-- Node5 -->
<g id="node9" class="node"><title>Node5</title>
<polygon fill="none" stroke="#bfbfbf" points="242.5,-117 242.5,-137 313.5,-137 313.5,-117 242.5,-117"/>
<text text-anchor="middle" x="278" y="-124" font-family="FreeSans" font-size="10.00">SDL2/SDL.h</text>
</g>
<!-- Node2&#45;&gt;Node5 -->
<g id="edge8" class="edge"><title>Node2&#45;&gt;Node5</title>
<path fill="none" stroke="midnightblue" d="M310.207,-174.897C304.848,-166.928 297.223,-155.587 290.736,-145.941"/>
<polygon fill="midnightblue" stroke="midnightblue" points="293.463,-143.723 284.978,-137.378 287.654,-147.629 293.463,-143.723"/>
</g>
<!-- Node6 -->
<g id="node11" class="node"><title>Node6</title>
<a xlink:href="_action_8h.html" target="_top" xlink:title="Action.h">
<polygon fill="none" stroke="black" points="331,-117 331,-137 383,-137 383,-117 331,-117"/>
<text text-anchor="middle" x="357" y="-124" font-family="FreeSans" font-size="10.00">Action.h</text>
</a>
</g>
<!-- Node2&#45;&gt;Node6 -->
<g id="edge10" class="edge"><title>Node2&#45;&gt;Node6</title>
<path fill="none" stroke="midnightblue" d="M323.967,-174.897C329.52,-166.846 337.446,-155.353 344.142,-145.643"/>
<polygon fill="midnightblue" stroke="midnightblue" points="347.047,-147.597 349.843,-137.378 341.284,-143.623 347.047,-147.597"/>
</g>
<!-- Node2&#45;&gt;Node12 -->
<g id="edge24" class="edge"><title>Node2&#45;&gt;Node12</title>
<path fill="none" stroke="midnightblue" d="M336.202,-174.992C351.995,-166.3 374.538,-152.808 392,-138 409.976,-122.756 427.475,-102.19 439.087,-87.4854"/>
<polygon fill="midnightblue" stroke="midnightblue" points="442.156,-89.2378 445.508,-79.1868 436.62,-84.9542 442.156,-89.2378"/>
</g>
<!-- Node7 -->
<g id="node13" class="node"><title>Node7</title>
<polygon fill="none" stroke="#bfbfbf" points="-0.5,-59 -0.5,-79 112.5,-79 112.5,-59 -0.5,-59"/>
<text text-anchor="middle" x="56" y="-66" font-family="FreeSans" font-size="10.00">SDL2/SDL_keycode.h</text>
</g>
<!-- Node6&#45;&gt;Node7 -->
<g id="edge12" class="edge"><title>Node6&#45;&gt;Node7</title>
<path fill="none" stroke="midnightblue" d="M330.73,-118.342C327.8,-117.496 324.846,-116.696 322,-116 302.938,-111.341 195.093,-92.683 122.709,-80.323"/>
<polygon fill="midnightblue" stroke="midnightblue" points="123.19,-76.8545 112.744,-78.6228 122.013,-83.7548 123.19,-76.8545"/>
</g>
<!-- Node8 -->
<g id="node15" class="node"><title>Node8</title>
<polygon fill="none" stroke="#bfbfbf" points="130,-59 130,-79 236,-79 236,-59 130,-59"/>
<text text-anchor="middle" x="183" y="-66" font-family="FreeSans" font-size="10.00">SDL2/SDL_mouse.h</text>
</g>
<!-- Node6&#45;&gt;Node8 -->
<g id="edge14" class="edge"><title>Node6&#45;&gt;Node8</title>
<path fill="none" stroke="midnightblue" d="M330.95,-118.317C302.34,-108.78 256.057,-93.3523 222.874,-82.2912"/>
<polygon fill="midnightblue" stroke="midnightblue" points="223.624,-78.852 213.03,-79.01 221.41,-85.4928 223.624,-78.852"/>
</g>
<!-- Node9 -->
<g id="node17" class="node"><title>Node9</title>
<a xlink:href="_vec_8h.html" target="_top" xlink:title="../Vec.h">
<polygon fill="none" stroke="black" points="253.5,-59 253.5,-79 302.5,-79 302.5,-59 253.5,-59"/>
<text text-anchor="middle" x="278" y="-66" font-family="FreeSans" font-size="10.00">../Vec.h</text>
</a>
</g>
<!-- Node6&#45;&gt;Node9 -->
<g id="edge16" class="edge"><title>Node6&#45;&gt;Node9</title>
<path fill="none" stroke="midnightblue" d="M343.239,-116.897C331.305,-108.135 313.818,-95.2965 299.952,-85.1164"/>
<polygon fill="midnightblue" stroke="midnightblue" points="302,-82.2785 291.868,-79.1817 297.858,-87.921 302,-82.2785"/>
</g>
<!-- Node10 -->
<g id="node19" class="node"><title>Node10</title>
<a xlink:href="_exception_8h.html" target="_top" xlink:title="../Exception.h">
<polygon fill="none" stroke="black" points="320,-59 320,-79 394,-79 394,-59 320,-59"/>
<text text-anchor="middle" x="357" y="-66" font-family="FreeSans" font-size="10.00">../Exception.h</text>
</a>
</g>
<!-- Node6&#45;&gt;Node10 -->
<g id="edge18" class="edge"><title>Node6&#45;&gt;Node10</title>
<path fill="none" stroke="midnightblue" d="M357,-116.897C357,-109.339 357,-98.7476 357,-89.4458"/>
<polygon fill="midnightblue" stroke="midnightblue" points="360.5,-89.3776 357,-79.3776 353.5,-89.3776 360.5,-89.3776"/>
</g>
<!-- Node6&#45;&gt;Node12 -->
<g id="edge22" class="edge"><title>Node6&#45;&gt;Node12</title>
<path fill="none" stroke="midnightblue" d="M373.722,-116.897C388.498,-107.97 410.279,-94.8106 427.274,-84.5431"/>
<polygon fill="midnightblue" stroke="midnightblue" points="429.398,-87.3486 436.148,-79.1817 425.779,-81.3572 429.398,-87.3486"/>
</g>
<!-- Node11 -->
<g id="node21" class="node"><title>Node11</title>
<polygon fill="none" stroke="#bfbfbf" points="328,-1 328,-21 386,-21 386,-1 328,-1"/>
<text text-anchor="middle" x="357" y="-8" font-family="FreeSans" font-size="10.00">exception</text>
</g>
<!-- Node10&#45;&gt;Node11 -->
<g id="edge20" class="edge"><title>Node10&#45;&gt;Node11</title>
<path fill="none" stroke="midnightblue" d="M357,-58.8972C357,-51.339 357,-40.7476 357,-31.4458"/>
<polygon fill="midnightblue" stroke="midnightblue" points="360.5,-31.3776 357,-21.3776 353.5,-31.3776 360.5,-31.3776"/>
</g>
</g>
</svg>
