<?xml version="1.0" encoding="UTF-8" standalone="no"?>
<!DOCTYPE svg PUBLIC "-//W3C//DTD SVG 1.1//EN"
 "http://www.w3.org/Graphics/SVG/1.1/DTD/svg11.dtd">
<!-- Generated by graphviz version 2.38.0 (20140413.2041)
 -->
<!-- Title: AvatarGallery.cpp Pages: 1 -->
<svg width="708pt" height="308pt"
 viewBox="0.00 0.00 708.00 308.00" xmlns="http://www.w3.org/2000/svg" xmlns:xlink="http://www.w3.org/1999/xlink">
<g id="graph0" class="graph" transform="scale(1 1) rotate(0) translate(4 304)">
<title>AvatarGallery.cpp</title>
<!-- Node1 -->
<g id="node1" class="node"><title>Node1</title>
<polygon fill="#bfbfbf" stroke="black" points="269,-280.5 269,-299.5 364,-299.5 364,-280.5 269,-280.5"/>
<text text-anchor="middle" x="316.5" y="-287.5" font-family="Helvetica,sans-Serif" font-size="10.00">AvatarGallery.cpp</text>
</g>
<!-- Node2 -->
<g id="node2" class="node"><title>Node2</title>
<polygon fill="none" stroke="#bfbfbf" points="0,-224.5 0,-243.5 165,-243.5 165,-224.5 0,-224.5"/>
<text text-anchor="middle" x="82.5" y="-231.5" font-family="Helvetica,sans-Serif" font-size="10.00">boost/filesystem/convenience.hpp</text>
</g>
<!-- Node1&#45;&gt;Node2 -->
<g id="edge1" class="edge"><title>Node1&#45;&gt;Node2</title>
<path fill="none" stroke="midnightblue" d="M279.422,-280.444C238.772,-271.063 173.468,-255.993 129.316,-245.804"/>
<polygon fill="midnightblue" stroke="midnightblue" points="129.935,-242.355 119.405,-243.516 128.361,-249.175 129.935,-242.355"/>
</g>
<!-- Node3 -->
<g id="node3" class="node"><title>Node3</title>
<g id="a_node3"><a xlink:href="_media_res_8h.html" target="_top" xlink:title="../Display/MediaRes.h">
<polygon fill="none" stroke="black" points="259.5,-224.5 259.5,-243.5 373.5,-243.5 373.5,-224.5 259.5,-224.5"/>
<text text-anchor="middle" x="316.5" y="-231.5" font-family="Helvetica,sans-Serif" font-size="10.00">../Display/MediaRes.h</text>
</a>
</g>
</g>
<!-- Node1&#45;&gt;Node3 -->
<g id="edge2" class="edge"><title>Node1&#45;&gt;Node3</title>
<path fill="none" stroke="midnightblue" d="M316.5,-280.083C316.5,-273.006 316.5,-262.861 316.5,-253.986"/>
<polygon fill="midnightblue" stroke="midnightblue" points="320,-253.751 316.5,-243.751 313,-253.751 320,-253.751"/>
</g>
<!-- Node5 -->
<g id="node5" class="node"><title>Node5</title>
<g id="a_node5"><a xlink:href="_config_8h.html" target="_top" xlink:title="../Util/Config.h">
<polygon fill="none" stroke="black" points="63.5,-168.5 63.5,-187.5 143.5,-187.5 143.5,-168.5 63.5,-168.5"/>
<text text-anchor="middle" x="103.5" y="-175.5" font-family="Helvetica,sans-Serif" font-size="10.00">../Util/Config.h</text>
</a>
</g>
</g>
<!-- Node1&#45;&gt;Node5 -->
<g id="edge22" class="edge"><title>Node1&#45;&gt;Node5</title>
<path fill="none" stroke="midnightblue" d="M299.4,-280.447C281.454,-271.449 252.438,-256.84 227.5,-244 193.2,-226.34 153.765,-205.592 128.749,-192.374"/>
<polygon fill="midnightblue" stroke="midnightblue" points="130.384,-189.279 119.908,-187.699 127.112,-195.467 130.384,-189.279"/>
</g>
<!-- Node15 -->
<g id="node15" class="node"><title>Node15</title>
<g id="a_node15"><a xlink:href="_str_8h.html" target="_top" xlink:title="../Util/Str.h">
<polygon fill="none" stroke="black" points="162,-168.5 162,-187.5 227,-187.5 227,-168.5 162,-168.5"/>
<text text-anchor="middle" x="194.5" y="-175.5" font-family="Helvetica,sans-Serif" font-size="10.00">../Util/Str.h</text>
</a>
</g>
</g>
<!-- Node1&#45;&gt;Node15 -->
<g id="edge25" class="edge"><title>Node1&#45;&gt;Node15</title>
<path fill="none" stroke="midnightblue" d="M301.542,-280.362C287.614,-271.969 266.635,-258.412 250.5,-244 233.914,-229.186 217.628,-209.544 206.932,-195.743"/>
<polygon fill="midnightblue" stroke="midnightblue" points="209.602,-193.471 200.764,-187.627 204.028,-197.706 209.602,-193.471"/>
</g>
<!-- Node19 -->
<g id="node19" class="node"><title>Node19</title>
<g id="a_node19"><a xlink:href="_texture_8h.html" target="_top" xlink:title="../Display/Texture.h">
<polygon fill="none" stroke="black" points="494,-224.5 494,-243.5 597,-243.5 597,-224.5 494,-224.5"/>
<text text-anchor="middle" x="545.5" y="-231.5" font-family="Helvetica,sans-Serif" font-size="10.00">../Display/Texture.h</text>
</a>
</g>
</g>
<!-- Node1&#45;&gt;Node19 -->
<g id="edge21" class="edge"><title>Node1&#45;&gt;Node19</title>
<path fill="none" stroke="midnightblue" d="M352.786,-280.444C392.483,-271.083 456.207,-256.056 499.412,-245.868"/>
<polygon fill="midnightblue" stroke="midnightblue" points="500.454,-249.218 509.384,-243.516 498.848,-242.405 500.454,-249.218"/>
</g>
<!-- Node20 -->
<g id="node20" class="node"><title>Node20</title>
<g id="a_node20"><a xlink:href="_log_8h.html" target="_top" xlink:title="../Util/Log.h">
<polygon fill="none" stroke="black" points="615.5,-224.5 615.5,-243.5 683.5,-243.5 683.5,-224.5 615.5,-224.5"/>
<text text-anchor="middle" x="649.5" y="-231.5" font-family="Helvetica,sans-Serif" font-size="10.00">../Util/Log.h</text>
</a>
</g>
</g>
<!-- Node1&#45;&gt;Node20 -->
<g id="edge23" class="edge"><title>Node1&#45;&gt;Node20</title>
<path fill="none" stroke="midnightblue" d="M364.098,-282.395C419.634,-274.514 514.45,-260.523 605.346,-244.135"/>
<polygon fill="midnightblue" stroke="midnightblue" points="606.05,-247.564 615.264,-242.334 604.8,-240.677 606.05,-247.564"/>
</g>
<!-- Node22 -->
<g id="node22" class="node"><title>Node22</title>
<g id="a_node22"><a xlink:href="_avatar_gallery_8h.html" target="_top" xlink:title="AvatarGallery.h">
<polygon fill="none" stroke="black" points="391.5,-224.5 391.5,-243.5 475.5,-243.5 475.5,-224.5 391.5,-224.5"/>
<text text-anchor="middle" x="433.5" y="-231.5" font-family="Helvetica,sans-Serif" font-size="10.00">AvatarGallery.h</text>
</a>
</g>
</g>
<!-- Node1&#45;&gt;Node22 -->
<g id="edge26" class="edge"><title>Node1&#45;&gt;Node22</title>
<path fill="none" stroke="midnightblue" d="M335.039,-280.444C354.123,-271.636 384.075,-257.812 405.936,-247.722"/>
<polygon fill="midnightblue" stroke="midnightblue" points="407.435,-250.885 415.048,-243.516 404.501,-244.529 407.435,-250.885"/>
</g>
<!-- Node4 -->
<g id="node4" class="node"><title>Node4</title>
<polygon fill="none" stroke="#bfbfbf" points="245,-168.5 245,-187.5 388,-187.5 388,-168.5 245,-168.5"/>
<text text-anchor="middle" x="316.5" y="-175.5" font-family="Helvetica,sans-Serif" font-size="10.00">boost/filesystem/fstream.hpp</text>
</g>
<!-- Node3&#45;&gt;Node4 -->
<g id="edge3" class="edge"><title>Node3&#45;&gt;Node4</title>
<path fill="none" stroke="midnightblue" d="M316.5,-224.083C316.5,-217.006 316.5,-206.861 316.5,-197.986"/>
<polygon fill="midnightblue" stroke="midnightblue" points="320,-197.751 316.5,-187.751 313,-197.751 320,-197.751"/>
</g>
<!-- Node3&#45;&gt;Node5 -->
<g id="edge4" class="edge"><title>Node3&#45;&gt;Node5</title>
<path fill="none" stroke="midnightblue" d="M282.75,-224.444C245.982,-215.122 187.054,-200.183 146.878,-189.997"/>
<polygon fill="midnightblue" stroke="midnightblue" points="147.646,-186.581 137.093,-187.516 145.926,-193.367 147.646,-186.581"/>
</g>
<!-- Node7 -->
<g id="node7" class="node"><title>Node7</title>
<g id="a_node7"><a xlink:href="_o_s_8h.html" target="_top" xlink:title="OS.h">
<polygon fill="none" stroke="black" points="205,-112.5 205,-131.5 244,-131.5 244,-112.5 205,-112.5"/>
<text text-anchor="middle" x="224.5" y="-119.5" font-family="Helvetica,sans-Serif" font-size="10.00">OS.h</text>
</a>
</g>
</g>
<!-- Node3&#45;&gt;Node7 -->
<g id="edge14" class="edge"><title>Node3&#45;&gt;Node7</title>
<path fill="none" stroke="midnightblue" d="M343.331,-224.425C373.634,-213.321 416.414,-192.463 397.5,-168 380.102,-145.498 298.921,-132.149 254.219,-126.382"/>
<polygon fill="midnightblue" stroke="midnightblue" points="254.578,-122.899 244.223,-125.14 253.715,-129.846 254.578,-122.899"/>
</g>
<!-- Node3&#45;&gt;Node15 -->
<g id="edge15" class="edge"><title>Node3&#45;&gt;Node15</title>
<path fill="none" stroke="midnightblue" d="M297.169,-224.444C277.18,-215.596 245.757,-201.687 222.936,-191.586"/>
<polygon fill="midnightblue" stroke="midnightblue" points="224.302,-188.363 213.741,-187.516 221.468,-194.764 224.302,-188.363"/>
</g>
<!-- Node16 -->
<g id="node16" class="node"><title>Node16</title>
<g id="a_node16"><a xlink:href="_res_8h.html" target="_top" xlink:title="Res.h">
<polygon fill="none" stroke="black" points="483,-168.5 483,-187.5 526,-187.5 526,-168.5 483,-168.5"/>
<text text-anchor="middle" x="504.5" y="-175.5" font-family="Helvetica,sans-Serif" font-size="10.00">Res.h</text>
</a>
</g>
</g>
<!-- Node3&#45;&gt;Node16 -->
<g id="edge17" class="edge"><title>Node3&#45;&gt;Node16</title>
<path fill="none" stroke="midnightblue" d="M346.289,-224.444C380.873,-214.51 437.67,-198.196 472.977,-188.054"/>
<polygon fill="midnightblue" stroke="midnightblue" points="474.117,-191.368 482.763,-185.244 472.185,-184.641 474.117,-191.368"/>
</g>
<!-- Node6 -->
<g id="node6" class="node"><title>Node6</title>
<polygon fill="none" stroke="#bfbfbf" points="75.5,-112.5 75.5,-131.5 131.5,-131.5 131.5,-112.5 75.5,-112.5"/>
<text text-anchor="middle" x="103.5" y="-119.5" font-family="Helvetica,sans-Serif" font-size="10.00">basedir.h</text>
</g>
<!-- Node5&#45;&gt;Node6 -->
<g id="edge5" class="edge"><title>Node5&#45;&gt;Node6</title>
<path fill="none" stroke="midnightblue" d="M103.5,-168.083C103.5,-161.006 103.5,-150.861 103.5,-141.986"/>
<polygon fill="midnightblue" stroke="midnightblue" points="107,-141.751 103.5,-131.751 100,-141.751 107,-141.751"/>
</g>
<!-- Node5&#45;&gt;Node7 -->
<g id="edge6" class="edge"><title>Node5&#45;&gt;Node7</title>
<path fill="none" stroke="midnightblue" d="M122.673,-168.444C142.409,-159.636 173.385,-145.812 195.993,-135.722"/>
<polygon fill="midnightblue" stroke="midnightblue" points="197.711,-138.788 205.417,-131.516 194.859,-132.396 197.711,-138.788"/>
</g>
<!-- Node8 -->
<g id="node8" class="node"><title>Node8</title>
<polygon fill="none" stroke="#bfbfbf" points="373.5,-56.5 373.5,-75.5 415.5,-75.5 415.5,-56.5 373.5,-56.5"/>
<text text-anchor="middle" x="394.5" y="-63.5" font-family="Helvetica,sans-Serif" font-size="10.00">locale</text>
</g>
<!-- Node7&#45;&gt;Node8 -->
<g id="edge7" class="edge"><title>Node7&#45;&gt;Node8</title>
<path fill="none" stroke="midnightblue" d="M244.001,-114.806C273.292,-105.501 328.912,-87.834 363.716,-76.7784"/>
<polygon fill="midnightblue" stroke="midnightblue" points="364.898,-80.0753 373.369,-73.7121 362.779,-73.4038 364.898,-80.0753"/>
</g>
<!-- Node9 -->
<g id="node9" class="node"><title>Node9</title>
<polygon fill="none" stroke="#bfbfbf" points="79.5,-56.5 79.5,-75.5 109.5,-75.5 109.5,-56.5 79.5,-56.5"/>
<text text-anchor="middle" x="94.5" y="-63.5" font-family="Helvetica,sans-Serif" font-size="10.00">set</text>
</g>
<!-- Node7&#45;&gt;Node9 -->
<g id="edge8" class="edge"><title>Node7&#45;&gt;Node9</title>
<path fill="none" stroke="midnightblue" d="M204.756,-112.799C181.782,-103.256 143.835,-87.4931 119,-77.1771"/>
<polygon fill="midnightblue" stroke="midnightblue" points="120.133,-73.8577 109.556,-73.2538 117.448,-80.3222 120.133,-73.8577"/>
</g>
<!-- Node10 -->
<g id="node10" class="node"><title>Node10</title>
<polygon fill="none" stroke="#bfbfbf" points="128,-56.5 128,-75.5 169,-75.5 169,-56.5 128,-56.5"/>
<text text-anchor="middle" x="148.5" y="-63.5" font-family="Helvetica,sans-Serif" font-size="10.00">string</text>
</g>
<!-- Node7&#45;&gt;Node10 -->
<g id="edge9" class="edge"><title>Node7&#45;&gt;Node10</title>
<path fill="none" stroke="midnightblue" d="M212.289,-112.324C200.724,-104.107 183.125,-91.6017 169.339,-81.8069"/>
<polygon fill="midnightblue" stroke="midnightblue" points="171.112,-78.7729 160.933,-75.8339 167.057,-84.4791 171.112,-78.7729"/>
</g>
<!-- Node11 -->
<g id="node11" class="node"><title>Node11</title>
<polygon fill="none" stroke="#bfbfbf" points="187.5,-56.5 187.5,-75.5 231.5,-75.5 231.5,-56.5 187.5,-56.5"/>
<text text-anchor="middle" x="209.5" y="-63.5" font-family="Helvetica,sans-Serif" font-size="10.00">vector</text>
</g>
<!-- Node7&#45;&gt;Node11 -->
<g id="edge10" class="edge"><title>Node7&#45;&gt;Node11</title>
<path fill="none" stroke="midnightblue" d="M222.023,-112.083C220.014,-104.849 217.114,-94.4087 214.61,-85.3968"/>
<polygon fill="midnightblue" stroke="midnightblue" points="217.98,-84.4495 211.931,-75.7511 211.235,-86.323 217.98,-84.4495"/>
</g>
<!-- Node12 -->
<g id="node12" class="node"><title>Node12</title>
<polygon fill="none" stroke="#bfbfbf" points="249,-56.5 249,-75.5 356,-75.5 356,-56.5 249,-56.5"/>
<text text-anchor="middle" x="302.5" y="-63.5" font-family="Helvetica,sans-Serif" font-size="10.00">boost/filesystem.hpp</text>
</g>
<!-- Node7&#45;&gt;Node12 -->
<g id="edge11" class="edge"><title>Node7&#45;&gt;Node12</title>
<path fill="none" stroke="midnightblue" d="M237.032,-112.324C249.086,-103.979 267.527,-91.2122 281.769,-81.3524"/>
<polygon fill="midnightblue" stroke="midnightblue" points="283.769,-84.2243 289.999,-75.6545 279.785,-78.469 283.769,-84.2243"/>
</g>
<!-- Node13 -->
<g id="node13" class="node"><title>Node13</title>
<g id="a_node13"><a xlink:href="_m_r___types_8h.html" target="_top" xlink:title="MR_Types.h">
<polygon fill="none" stroke="black" points="434,-56.5 434,-75.5 507,-75.5 507,-56.5 434,-56.5"/>
<text text-anchor="middle" x="470.5" y="-63.5" font-family="Helvetica,sans-Serif" font-size="10.00">MR_Types.h</text>
</a>
</g>
</g>
<!-- Node7&#45;&gt;Node13 -->
<g id="edge12" class="edge"><title>Node7&#45;&gt;Node13</title>
<path fill="none" stroke="midnightblue" d="M244.215,-116.672C282.882,-108.184 369.608,-89.147 423.76,-77.2599"/>
<polygon fill="midnightblue" stroke="midnightblue" points="424.786,-80.6182 433.803,-75.0554 423.285,-73.7809 424.786,-80.6182"/>
</g>
<!-- Node14 -->
<g id="node14" class="node"><title>Node14</title>
<polygon fill="none" stroke="#bfbfbf" points="441,-0.5 441,-19.5 500,-19.5 500,-0.5 441,-0.5"/>
<text text-anchor="middle" x="470.5" y="-7.5" font-family="Helvetica,sans-Serif" font-size="10.00">inttypes.h</text>
</g>
<!-- Node13&#45;&gt;Node14 -->
<g id="edge13" class="edge"><title>Node13&#45;&gt;Node14</title>
<path fill="none" stroke="midnightblue" d="M470.5,-56.083C470.5,-49.0059 470.5,-38.8611 470.5,-29.9865"/>
<polygon fill="midnightblue" stroke="midnightblue" points="474,-29.751 470.5,-19.7511 467,-29.7511 474,-29.751"/>
</g>
<!-- Node15&#45;&gt;Node7 -->
<g id="edge16" class="edge"><title>Node15&#45;&gt;Node7</title>
<path fill="none" stroke="midnightblue" d="M199.454,-168.083C203.604,-160.613 209.653,-149.724 214.767,-140.52"/>
<polygon fill="midnightblue" stroke="midnightblue" points="217.841,-142.192 219.638,-131.751 211.722,-138.793 217.841,-142.192"/>
</g>
<!-- Node16&#45;&gt;Node13 -->
<g id="edge18" class="edge"><title>Node16&#45;&gt;Node13</title>
<path fill="none" stroke="midnightblue" d="M501.832,-168.368C496.32,-150.537 483.573,-109.295 476.148,-85.2717"/>
<polygon fill="midnightblue" stroke="midnightblue" points="479.453,-84.1119 473.156,-75.5914 472.765,-86.179 479.453,-84.1119"/>
</g>
<!-- Node17 -->
<g id="node17" class="node"><title>Node17</title>
<g id="a_node17"><a xlink:href="_exception_8h.html" target="_top" xlink:title="../Exception.h">
<polygon fill="none" stroke="black" points="511,-112.5 511,-131.5 588,-131.5 588,-112.5 511,-112.5"/>
<text text-anchor="middle" x="549.5" y="-119.5" font-family="Helvetica,sans-Serif" font-size="10.00">../Exception.h</text>
</a>
</g>
</g>
<!-- Node16&#45;&gt;Node17 -->
<g id="edge19" class="edge"><title>Node16&#45;&gt;Node17</title>
<path fill="none" stroke="midnightblue" d="M511.931,-168.083C518.353,-160.377 527.806,-149.033 535.622,-139.653"/>
<polygon fill="midnightblue" stroke="midnightblue" points="538.494,-141.674 542.207,-131.751 533.117,-137.193 538.494,-141.674"/>
</g>
<!-- Node18 -->
<g id="node18" class="node"><title>Node18</title>
<polygon fill="none" stroke="#bfbfbf" points="525,-56.5 525,-75.5 584,-75.5 584,-56.5 525,-56.5"/>
<text text-anchor="middle" x="554.5" y="-63.5" font-family="Helvetica,sans-Serif" font-size="10.00">exception</text>
</g>
<!-- Node17&#45;&gt;Node18 -->
<g id="edge20" class="edge"><title>Node17&#45;&gt;Node18</title>
<path fill="none" stroke="midnightblue" d="M550.326,-112.083C550.981,-105.006 551.92,-94.8611 552.742,-85.9865"/>
<polygon fill="midnightblue" stroke="midnightblue" points="556.253,-86.0312 553.69,-75.7511 549.283,-85.3858 556.253,-86.0312"/>
</g>
<!-- Node21 -->
<g id="node21" class="node"><title>Node21</title>
<polygon fill="none" stroke="#bfbfbf" points="599,-168.5 599,-187.5 700,-187.5 700,-168.5 599,-168.5"/>
<text text-anchor="middle" x="649.5" y="-175.5" font-family="Helvetica,sans-Serif" font-size="10.00">boost/log/trivial.hpp</text>
</g>
<!-- Node20&#45;&gt;Node21 -->
<g id="edge24" class="edge"><title>Node20&#45;&gt;Node21</title>
<path fill="none" stroke="midnightblue" d="M649.5,-224.083C649.5,-217.006 649.5,-206.861 649.5,-197.986"/>
<polygon fill="midnightblue" stroke="midnightblue" points="653,-197.751 649.5,-187.751 646,-197.751 653,-197.751"/>
</g>
<!-- Node22&#45;&gt;Node7 -->
<g id="edge28" class="edge"><title>Node22&#45;&gt;Node7</title>
<path fill="none" stroke="midnightblue" d="M433.426,-224.447C432.821,-210.526 429.523,-183.018 413.5,-168 390.62,-146.556 301.272,-132.523 254.079,-126.448"/>
<polygon fill="midnightblue" stroke="midnightblue" points="254.499,-122.974 244.142,-125.207 253.631,-129.919 254.499,-122.974"/>
</g>
<!-- Node22&#45;&gt;Node16 -->
<g id="edge27" class="edge"><title>Node22&#45;&gt;Node16</title>
<path fill="none" stroke="midnightblue" d="M444.907,-224.324C455.609,-216.185 471.841,-203.839 484.663,-194.087"/>
<polygon fill="midnightblue" stroke="midnightblue" points="487.044,-196.673 492.885,-187.834 482.807,-191.102 487.044,-196.673"/>
</g>
</g>
</svg>
