<?xml version="1.0" encoding="UTF-8" standalone="no"?>
<!DOCTYPE svg PUBLIC "-//W3C//DTD SVG 1.1//EN"
 "http://www.w3.org/Graphics/SVG/1.1/DTD/svg11.dtd">
<!-- Generated by graphviz version 2.38.0 (20140413.2041)
 -->
<!-- Title: AvatarGallery.cpp Pages: 1 -->
<svg width="708pt" height="308pt"
 viewBox="0.00 0.00 708.00 308.00" xmlns="http://www.w3.org/2000/svg" xmlns:xlink="http://www.w3.org/1999/xlink">
<g id="graph0" class="graph" transform="scale(1 1) rotate(0) translate(4 304)">
<title>AvatarGallery.cpp</title>
<!-- Node1 -->
<g id="node1" class="node"><title>Node1</title>
<polygon fill="#bfbfbf" stroke="black" points="316,-280.5 316,-299.5 411,-299.5 411,-280.5 316,-280.5"/>
<text text-anchor="middle" x="363.5" y="-287.5" font-family="Helvetica,sans-Serif" font-size="10.00">AvatarGallery.cpp</text>
</g>
<!-- Node2 -->
<g id="node2" class="node"><title>Node2</title>
<polygon fill="none" stroke="#bfbfbf" points="0,-224.5 0,-243.5 165,-243.5 165,-224.5 0,-224.5"/>
<text text-anchor="middle" x="82.5" y="-231.5" font-family="Helvetica,sans-Serif" font-size="10.00">boost/filesystem/convenience.hpp</text>
</g>
<!-- Node1&#45;&gt;Node2 -->
<g id="edge1" class="edge"><title>Node1&#45;&gt;Node2</title>
<path fill="none" stroke="midnightblue" d="M318.975,-280.444C269.544,-270.944 189.754,-255.611 136.722,-245.42"/>
<polygon fill="midnightblue" stroke="midnightblue" points="137.298,-241.967 126.817,-243.516 135.977,-248.841 137.298,-241.967"/>
</g>
<!-- Node3 -->
<g id="node3" class="node"><title>Node3</title>
<g id="a_node3"><a xlink:href="_media_res_8h.html" target="_top" xlink:title="../Display/MediaRes.h">
<polygon fill="none" stroke="black" points="221.5,-224.5 221.5,-243.5 335.5,-243.5 335.5,-224.5 221.5,-224.5"/>
<text text-anchor="middle" x="278.5" y="-231.5" font-family="Helvetica,sans-Serif" font-size="10.00">../Display/MediaRes.h</text>
</a>
</g>
</g>
<!-- Node1&#45;&gt;Node3 -->
<g id="edge2" class="edge"><title>Node1&#45;&gt;Node3</title>
<path fill="none" stroke="midnightblue" d="M349.843,-280.324C336.584,-271.9 316.232,-258.971 300.654,-249.074"/>
<polygon fill="midnightblue" stroke="midnightblue" points="302.44,-246.063 292.123,-243.655 298.687,-251.971 302.44,-246.063"/>
</g>
<!-- Node5 -->
<g id="node5" class="node"><title>Node5</title>
<g id="a_node5"><a xlink:href="_config_8h.html" target="_top" xlink:title="../Util/Config.h">
<polygon fill="none" stroke="black" points="31.5,-168.5 31.5,-187.5 111.5,-187.5 111.5,-168.5 31.5,-168.5"/>
<text text-anchor="middle" x="71.5" y="-175.5" font-family="Helvetica,sans-Serif" font-size="10.00">../Util/Config.h</text>
</a>
</g>
</g>
<!-- Node1&#45;&gt;Node5 -->
<g id="edge22" class="edge"><title>Node1&#45;&gt;Node5</title>
<path fill="none" stroke="midnightblue" d="M328.09,-280.423C297.085,-272.45 251.086,-259.49 212.5,-244 194.423,-236.743 191.085,-232.379 173.5,-224 149.475,-212.552 121.832,-200.42 101.389,-191.641"/>
<polygon fill="midnightblue" stroke="midnightblue" points="102.55,-188.331 91.9793,-187.618 99.7986,-194.767 102.55,-188.331"/>
</g>
<!-- Node15 -->
<g id="node15" class="node"><title>Node15</title>
<g id="a_node15"><a xlink:href="_str_8h.html" target="_top" xlink:title="../Util/Str.h">
<polygon fill="none" stroke="black" points="330,-168.5 330,-187.5 395,-187.5 395,-168.5 330,-168.5"/>
<text text-anchor="middle" x="362.5" y="-175.5" font-family="Helvetica,sans-Serif" font-size="10.00">../Util/Str.h</text>
</a>
</g>
</g>
<!-- Node1&#45;&gt;Node15 -->
<g id="edge25" class="edge"><title>Node1&#45;&gt;Node15</title>
<path fill="none" stroke="midnightblue" d="M363.422,-280.368C363.26,-262.617 362.888,-221.666 362.669,-197.597"/>
<polygon fill="midnightblue" stroke="midnightblue" points="366.169,-197.559 362.578,-187.591 359.169,-197.623 366.169,-197.559"/>
</g>
<!-- Node19 -->
<g id="node19" class="node"><title>Node19</title>
<g id="a_node19"><a xlink:href="_texture_8h.html" target="_top" xlink:title="../Display/Texture.h">
<polygon fill="none" stroke="black" points="494,-224.5 494,-243.5 597,-243.5 597,-224.5 494,-224.5"/>
<text text-anchor="middle" x="545.5" y="-231.5" font-family="Helvetica,sans-Serif" font-size="10.00">../Display/Texture.h</text>
</a>
</g>
</g>
<!-- Node1&#45;&gt;Node19 -->
<g id="edge21" class="edge"><title>Node1&#45;&gt;Node19</title>
<path fill="none" stroke="midnightblue" d="M392.338,-280.444C423.356,-271.241 472.829,-256.562 507.118,-246.388"/>
<polygon fill="midnightblue" stroke="midnightblue" points="508.205,-249.716 516.796,-243.516 506.214,-243.006 508.205,-249.716"/>
</g>
<!-- Node20 -->
<g id="node20" class="node"><title>Node20</title>
<g id="a_node20"><a xlink:href="_log_8h.html" target="_top" xlink:title="../Util/Log.h">
<polygon fill="none" stroke="black" points="615.5,-224.5 615.5,-243.5 683.5,-243.5 683.5,-224.5 615.5,-224.5"/>
<text text-anchor="middle" x="649.5" y="-231.5" font-family="Helvetica,sans-Serif" font-size="10.00">../Util/Log.h</text>
</a>
</g>
</g>
<!-- Node1&#45;&gt;Node20 -->
<g id="edge23" class="edge"><title>Node1&#45;&gt;Node20</title>
<path fill="none" stroke="midnightblue" d="M411.056,-280.53C457.982,-272.097 532.025,-258.589 605.374,-244.189"/>
<polygon fill="midnightblue" stroke="midnightblue" points="606.112,-247.611 615.247,-242.244 604.759,-240.743 606.112,-247.611"/>
</g>
<!-- Node22 -->
<g id="node22" class="node"><title>Node22</title>
<g id="a_node22"><a xlink:href="_avatar_gallery_8h.html" target="_top" xlink:title="AvatarGallery.h">
<polygon fill="none" stroke="black" points="391.5,-224.5 391.5,-243.5 475.5,-243.5 475.5,-224.5 391.5,-224.5"/>
<text text-anchor="middle" x="433.5" y="-231.5" font-family="Helvetica,sans-Serif" font-size="10.00">AvatarGallery.h</text>
</a>
</g>
</g>
<!-- Node1&#45;&gt;Node22 -->
<g id="edge26" class="edge"><title>Node1&#45;&gt;Node22</title>
<path fill="none" stroke="midnightblue" d="M374.747,-280.324C385.297,-272.185 401.301,-259.839 413.942,-250.087"/>
<polygon fill="midnightblue" stroke="midnightblue" points="416.269,-252.713 422.049,-243.834 411.993,-247.171 416.269,-252.713"/>
</g>
<!-- Node4 -->
<g id="node4" class="node"><title>Node4</title>
<polygon fill="none" stroke="#bfbfbf" points="130,-168.5 130,-187.5 273,-187.5 273,-168.5 130,-168.5"/>
<text text-anchor="middle" x="201.5" y="-175.5" font-family="Helvetica,sans-Serif" font-size="10.00">boost/filesystem/fstream.hpp</text>
</g>
<!-- Node3&#45;&gt;Node4 -->
<g id="edge3" class="edge"><title>Node3&#45;&gt;Node4</title>
<path fill="none" stroke="midnightblue" d="M266.129,-224.324C254.342,-216.058 236.368,-203.453 222.364,-193.632"/>
<polygon fill="midnightblue" stroke="midnightblue" points="224.038,-190.531 213.841,-187.655 220.018,-196.262 224.038,-190.531"/>
</g>
<!-- Node3&#45;&gt;Node5 -->
<g id="edge4" class="edge"><title>Node3&#45;&gt;Node5</title>
<path fill="none" stroke="midnightblue" d="M245.7,-224.444C210.12,-215.162 153.186,-200.309 114.153,-190.127"/>
<polygon fill="midnightblue" stroke="midnightblue" points="114.706,-186.654 104.146,-187.516 112.939,-193.427 114.706,-186.654"/>
</g>
<!-- Node7 -->
<g id="node7" class="node"><title>Node7</title>
<g id="a_node7"><a xlink:href="_o_s_8h.html" target="_top" xlink:title="OS.h">
<polygon fill="none" stroke="black" points="247,-112.5 247,-131.5 286,-131.5 286,-112.5 247,-112.5"/>
<text text-anchor="middle" x="266.5" y="-119.5" font-family="Helvetica,sans-Serif" font-size="10.00">OS.h</text>
</a>
</g>
</g>
<!-- Node3&#45;&gt;Node7 -->
<g id="edge14" class="edge"><title>Node3&#45;&gt;Node7</title>
<path fill="none" stroke="midnightblue" d="M280.063,-224.102C282.012,-211.52 284.721,-187.849 281.5,-168 280.032,-158.957 277.008,-149.275 274.056,-141.218"/>
<polygon fill="midnightblue" stroke="midnightblue" points="277.256,-139.791 270.356,-131.751 270.737,-142.339 277.256,-139.791"/>
</g>
<!-- Node3&#45;&gt;Node15 -->
<g id="edge15" class="edge"><title>Node3&#45;&gt;Node15</title>
<path fill="none" stroke="midnightblue" d="M291.996,-224.324C305.1,-215.9 325.212,-202.971 340.607,-193.074"/>
<polygon fill="midnightblue" stroke="midnightblue" points="342.518,-196.006 349.037,-187.655 338.733,-190.118 342.518,-196.006"/>
</g>
<!-- Node16 -->
<g id="node16" class="node"><title>Node16</title>
<g id="a_node16"><a xlink:href="_res_8h.html" target="_top" xlink:title="Res.h">
<polygon fill="none" stroke="black" points="413,-168.5 413,-187.5 456,-187.5 456,-168.5 413,-168.5"/>
<text text-anchor="middle" x="434.5" y="-175.5" font-family="Helvetica,sans-Serif" font-size="10.00">Res.h</text>
</a>
</g>
</g>
<!-- Node3&#45;&gt;Node16 -->
<g id="edge17" class="edge"><title>Node3&#45;&gt;Node16</title>
<path fill="none" stroke="midnightblue" d="M303.219,-224.444C330.271,-215.079 373.702,-200.046 403.134,-189.857"/>
<polygon fill="midnightblue" stroke="midnightblue" points="404.606,-193.052 412.911,-186.473 402.317,-186.437 404.606,-193.052"/>
</g>
<!-- Node6 -->
<g id="node6" class="node"><title>Node6</title>
<polygon fill="none" stroke="#bfbfbf" points="43.5,-112.5 43.5,-131.5 99.5,-131.5 99.5,-112.5 43.5,-112.5"/>
<text text-anchor="middle" x="71.5" y="-119.5" font-family="Helvetica,sans-Serif" font-size="10.00">basedir.h</text>
</g>
<!-- Node5&#45;&gt;Node6 -->
<g id="edge5" class="edge"><title>Node5&#45;&gt;Node6</title>
<path fill="none" stroke="midnightblue" d="M71.5,-168.083C71.5,-161.006 71.5,-150.861 71.5,-141.986"/>
<polygon fill="midnightblue" stroke="midnightblue" points="75.0001,-141.751 71.5,-131.751 68.0001,-141.751 75.0001,-141.751"/>
</g>
<!-- Node5&#45;&gt;Node7 -->
<g id="edge6" class="edge"><title>Node5&#45;&gt;Node7</title>
<path fill="none" stroke="midnightblue" d="M102.398,-168.444C139.248,-158.239 200.41,-141.302 236.746,-131.239"/>
<polygon fill="midnightblue" stroke="midnightblue" points="238.031,-134.516 246.734,-128.474 236.163,-127.769 238.031,-134.516"/>
</g>
<!-- Node8 -->
<g id="node8" class="node"><title>Node8</title>
<polygon fill="none" stroke="#bfbfbf" points="337.5,-56.5 337.5,-75.5 379.5,-75.5 379.5,-56.5 337.5,-56.5"/>
<text text-anchor="middle" x="358.5" y="-63.5" font-family="Helvetica,sans-Serif" font-size="10.00">locale</text>
</g>
<!-- Node7&#45;&gt;Node8 -->
<g id="edge7" class="edge"><title>Node7&#45;&gt;Node8</title>
<path fill="none" stroke="midnightblue" d="M281.281,-112.324C295.767,-103.822 318.073,-90.7288 334.993,-80.7975"/>
<polygon fill="midnightblue" stroke="midnightblue" points="336.903,-83.735 343.755,-75.6545 333.359,-77.6981 336.903,-83.735"/>
</g>
<!-- Node9 -->
<g id="node9" class="node"><title>Node9</title>
<polygon fill="none" stroke="#bfbfbf" points="43.5,-56.5 43.5,-75.5 73.5,-75.5 73.5,-56.5 43.5,-56.5"/>
<text text-anchor="middle" x="58.5" y="-63.5" font-family="Helvetica,sans-Serif" font-size="10.00">set</text>
</g>
<!-- Node7&#45;&gt;Node9 -->
<g id="edge8" class="edge"><title>Node7&#45;&gt;Node9</title>
<path fill="none" stroke="midnightblue" d="M246.954,-117.02C214.703,-110.285 148.201,-95.6852 83.2143,-75.9391"/>
<polygon fill="midnightblue" stroke="midnightblue" points="84.2287,-72.5893 73.6414,-72.9887 82.1669,-79.2788 84.2287,-72.5893"/>
</g>
<!-- Node10 -->
<g id="node10" class="node"><title>Node10</title>
<polygon fill="none" stroke="#bfbfbf" points="92,-56.5 92,-75.5 133,-75.5 133,-56.5 92,-56.5"/>
<text text-anchor="middle" x="112.5" y="-63.5" font-family="Helvetica,sans-Serif" font-size="10.00">string</text>
</g>
<!-- Node7&#45;&gt;Node10 -->
<g id="edge9" class="edge"><title>Node7&#45;&gt;Node10</title>
<path fill="none" stroke="midnightblue" d="M246.996,-114.161C220.818,-104.982 174.042,-88.5796 143.138,-77.7433"/>
<polygon fill="midnightblue" stroke="midnightblue" points="143.914,-74.3064 133.319,-74.3002 141.598,-80.9121 143.914,-74.3064"/>
</g>
<!-- Node11 -->
<g id="node11" class="node"><title>Node11</title>
<polygon fill="none" stroke="#bfbfbf" points="151.5,-56.5 151.5,-75.5 195.5,-75.5 195.5,-56.5 151.5,-56.5"/>
<text text-anchor="middle" x="173.5" y="-63.5" font-family="Helvetica,sans-Serif" font-size="10.00">vector</text>
</g>
<!-- Node7&#45;&gt;Node11 -->
<g id="edge10" class="edge"><title>Node7&#45;&gt;Node11</title>
<path fill="none" stroke="midnightblue" d="M251.558,-112.324C236.915,-103.822 214.366,-90.7288 197.262,-80.7975"/>
<polygon fill="midnightblue" stroke="midnightblue" points="198.81,-77.6491 188.405,-75.6545 195.295,-83.7027 198.81,-77.6491"/>
</g>
<!-- Node12 -->
<g id="node12" class="node"><title>Node12</title>
<polygon fill="none" stroke="#bfbfbf" points="213,-56.5 213,-75.5 320,-75.5 320,-56.5 213,-56.5"/>
<text text-anchor="middle" x="266.5" y="-63.5" font-family="Helvetica,sans-Serif" font-size="10.00">boost/filesystem.hpp</text>
</g>
<!-- Node7&#45;&gt;Node12 -->
<g id="edge11" class="edge"><title>Node7&#45;&gt;Node12</title>
<path fill="none" stroke="midnightblue" d="M266.5,-112.083C266.5,-105.006 266.5,-94.8611 266.5,-85.9865"/>
<polygon fill="midnightblue" stroke="midnightblue" points="270,-85.751 266.5,-75.7511 263,-85.7511 270,-85.751"/>
</g>
<!-- Node13 -->
<g id="node13" class="node"><title>Node13</title>
<g id="a_node13"><a xlink:href="_m_r___types_8h.html" target="_top" xlink:title="MR_Types.h">
<polygon fill="none" stroke="black" points="398,-56.5 398,-75.5 471,-75.5 471,-56.5 398,-56.5"/>
<text text-anchor="middle" x="434.5" y="-63.5" font-family="Helvetica,sans-Serif" font-size="10.00">MR_Types.h</text>
</a>
</g>
</g>
<!-- Node7&#45;&gt;Node13 -->
<g id="edge12" class="edge"><title>Node7&#45;&gt;Node13</title>
<path fill="none" stroke="midnightblue" d="M286.101,-114.7C313.516,-105.888 363.803,-89.724 398.173,-78.6767"/>
<polygon fill="midnightblue" stroke="midnightblue" points="399.399,-81.959 407.848,-75.5667 397.257,-75.2948 399.399,-81.959"/>
</g>
<!-- Node14 -->
<g id="node14" class="node"><title>Node14</title>
<polygon fill="none" stroke="#bfbfbf" points="405,-0.5 405,-19.5 464,-19.5 464,-0.5 405,-0.5"/>
<text text-anchor="middle" x="434.5" y="-7.5" font-family="Helvetica,sans-Serif" font-size="10.00">inttypes.h</text>
</g>
<!-- Node13&#45;&gt;Node14 -->
<g id="edge13" class="edge"><title>Node13&#45;&gt;Node14</title>
<path fill="none" stroke="midnightblue" d="M434.5,-56.083C434.5,-49.0059 434.5,-38.8611 434.5,-29.9865"/>
<polygon fill="midnightblue" stroke="midnightblue" points="438,-29.751 434.5,-19.7511 431,-29.7511 438,-29.751"/>
</g>
<!-- Node15&#45;&gt;Node7 -->
<g id="edge16" class="edge"><title>Node15&#45;&gt;Node7</title>
<path fill="none" stroke="midnightblue" d="M347.076,-168.324C331.96,-159.822 308.685,-146.729 291.029,-136.797"/>
<polygon fill="midnightblue" stroke="midnightblue" points="292.317,-133.507 281.886,-131.655 288.886,-139.608 292.317,-133.507"/>
</g>
<!-- Node16&#45;&gt;Node13 -->
<g id="edge18" class="edge"><title>Node16&#45;&gt;Node13</title>
<path fill="none" stroke="midnightblue" d="M434.5,-168.368C434.5,-150.617 434.5,-109.666 434.5,-85.5974"/>
<polygon fill="midnightblue" stroke="midnightblue" points="438,-85.5914 434.5,-75.5914 431,-85.5915 438,-85.5914"/>
</g>
<!-- Node17 -->
<g id="node17" class="node"><title>Node17</title>
<g id="a_node17"><a xlink:href="_exception_8h.html" target="_top" xlink:title="../Exception.h">
<polygon fill="none" stroke="black" points="471,-112.5 471,-131.5 548,-131.5 548,-112.5 471,-112.5"/>
<text text-anchor="middle" x="509.5" y="-119.5" font-family="Helvetica,sans-Serif" font-size="10.00">../Exception.h</text>
</a>
</g>
</g>
<!-- Node16&#45;&gt;Node17 -->
<g id="edge19" class="edge"><title>Node16&#45;&gt;Node17</title>
<path fill="none" stroke="midnightblue" d="M446.55,-168.324C457.963,-160.107 475.331,-147.602 488.935,-137.807"/>
<polygon fill="midnightblue" stroke="midnightblue" points="491.16,-140.517 497.231,-131.834 487.07,-134.837 491.16,-140.517"/>
</g>
<!-- Node18 -->
<g id="node18" class="node"><title>Node18</title>
<polygon fill="none" stroke="#bfbfbf" points="489,-56.5 489,-75.5 548,-75.5 548,-56.5 489,-56.5"/>
<text text-anchor="middle" x="518.5" y="-63.5" font-family="Helvetica,sans-Serif" font-size="10.00">exception</text>
</g>
<!-- Node17&#45;&gt;Node18 -->
<g id="edge20" class="edge"><title>Node17&#45;&gt;Node18</title>
<path fill="none" stroke="midnightblue" d="M510.986,-112.083C512.179,-104.927 513.894,-94.6353 515.385,-85.6911"/>
<polygon fill="midnightblue" stroke="midnightblue" points="518.85,-86.1904 517.041,-75.7511 511.945,-85.0396 518.85,-86.1904"/>
</g>
<!-- Node21 -->
<g id="node21" class="node"><title>Node21</title>
<polygon fill="none" stroke="#bfbfbf" points="599,-168.5 599,-187.5 700,-187.5 700,-168.5 599,-168.5"/>
<text text-anchor="middle" x="649.5" y="-175.5" font-family="Helvetica,sans-Serif" font-size="10.00">boost/log/trivial.hpp</text>
</g>
<!-- Node20&#45;&gt;Node21 -->
<g id="edge24" class="edge"><title>Node20&#45;&gt;Node21</title>
<path fill="none" stroke="midnightblue" d="M649.5,-224.083C649.5,-217.006 649.5,-206.861 649.5,-197.986"/>
<polygon fill="midnightblue" stroke="midnightblue" points="653,-197.751 649.5,-187.751 646,-197.751 653,-197.751"/>
</g>
<!-- Node22&#45;&gt;Node16 -->
<g id="edge27" class="edge"><title>Node22&#45;&gt;Node16</title>
<path fill="none" stroke="midnightblue" d="M433.665,-224.083C433.796,-217.006 433.984,-206.861 434.148,-197.986"/>
<polygon fill="midnightblue" stroke="midnightblue" points="437.652,-197.814 434.338,-187.751 430.653,-197.685 437.652,-197.814"/>
</g>
</g>
</svg>
