<?xml version="1.0" encoding="UTF-8" standalone="no"?>
<!DOCTYPE svg PUBLIC "-//W3C//DTD SVG 1.1//EN"
 "http://www.w3.org/Graphics/SVG/1.1/DTD/svg11.dtd">
<!-- Generated by graphviz version 2.26.3 (20100126.1600)
 -->
<!-- Title: AvatarTextureRes.cpp Pages: 1 -->
<!--zoomable 262 -->
<svg id="main" version="1.1" xmlns="http://www.w3.org/2000/svg" xmlns:xlink="http://www.w3.org/1999/xlink" xml:space="preserve" onload="init(evt)">
<style type="text/css"><![CDATA[
.edge:hover path { stroke: red; }
.edge:hover polygon { stroke: red; fill: red; }
]]></style>
<script type="text/javascript"><![CDATA[
var edges = document.getElementsByTagName('g');
if (edges && edges.length) {
  for (var i=0;i<edges.length;i++) {
    if (edges[i].id.substr(0,4)=='edge') {
      edges[i].setAttribute('class','edge');
    }
  }
}
]]></script>
        <defs>
                <circle id="rim" cx="0" cy="0" r="7"/>
                <circle id="rim2" cx="0" cy="0" r="3.5"/>
                <g id="zoomPlus">
                        <use xlink:href="#rim" fill="#404040">
                                <set attributeName="fill" to="#808080" begin="zoomplus.mouseover" end="zoomplus.mouseout"/>
                        </use>
                        <path d="M-4,0h8M0,-4v8" fill="none" stroke="white" stroke-width="1.5" pointer-events="none"/>
                </g>
                <g id="zoomMin">
                        <use xlink:href="#rim" fill="#404040">
                                <set attributeName="fill" to="#808080" begin="zoomminus.mouseover" end="zoomminus.mouseout"/>
                        </use>
                        <path d="M-4,0h8" fill="none" stroke="white" stroke-width="1.5" pointer-events="none"/>
                </g>
                <g id="dirArrow">
                        <path fill="none" stroke="white" stroke-width="1.5" d="M0,-3.0v7 M-2.5,-0.5L0,-3.0L2.5,-0.5"/>
                </g>
               <g id="resetDef">
                       <use xlink:href="#rim2" fill="#404040">
                               <set attributeName="fill" to="#808080" begin="reset.mouseover" end="reset.mouseout"/>
                       </use>
               </g>
        </defs>

<script type="text/javascript">
var viewWidth = 684;
var viewHeight = 262;
var sectionId = 'dynsection-0';
</script>
<script xlink:href="svgpan.js"/>
<svg id="graph" class="graph">
<g id="viewport">
<title>AvatarTextureRes.cpp</title>
<!-- Node1 -->
<g id="node1" class="node"><title>Node1</title>
<polygon fill="#bfbfbf" stroke="black" points="250.5,-233 250.5,-253 363.5,-253 363.5,-233 250.5,-233"/>
<text text-anchor="middle" x="307" y="-240" font-family="FreeSans" font-size="10.00">AvatarTextureRes.cpp</text>
</g>
<!-- Node2 -->
<g id="node3" class="node"><title>Node2</title>
<polygon fill="none" stroke="#bfbfbf" points="-0.5,-175 -0.5,-195 60.5,-195 60.5,-175 -0.5,-175"/>
<text text-anchor="middle" x="30" y="-182" font-family="FreeSans" font-size="10.00">../StdAfx.h</text>
</g>
<!-- Node1&#45;&gt;Node2 -->
<g id="edge2" class="edge"><title>Node1&#45;&gt;Node2</title>
<path fill="none" stroke="midnightblue" d="M250.462,-233.15C204.334,-224.816 137.29,-212.024 70.4534,-196.231"/>
<polygon fill="midnightblue" stroke="midnightblue" points="71.1355,-192.796 60.5962,-193.879 69.5109,-199.604 71.1355,-192.796"/>
</g>
<!-- Node3 -->
<g id="node5" class="node"><title>Node3</title>
<polygon fill="none" stroke="#bfbfbf" points="77.5,-175 77.5,-195 218.5,-195 218.5,-175 77.5,-175"/>
<text text-anchor="middle" x="148" y="-182" font-family="FreeSans" font-size="10.00">boost/filesystem/fstream.hpp</text>
</g>
<!-- Node1&#45;&gt;Node3 -->
<g id="edge4" class="edge"><title>Node1&#45;&gt;Node3</title>
<path fill="none" stroke="midnightblue" d="M279.304,-232.897C253.278,-223.403 214.133,-209.124 185.353,-198.626"/>
<polygon fill="midnightblue" stroke="midnightblue" points="186.239,-195.223 175.645,-195.084 183.84,-201.799 186.239,-195.223"/>
</g>
<!-- Node4 -->
<g id="node7" class="node"><title>Node4</title>
<a xlink:href="_config_8h.html" target="_top" xlink:title="../Util/Config.h">
<polygon fill="none" stroke="black" points="235.5,-175 235.5,-195 312.5,-195 312.5,-175 235.5,-175"/>
<text text-anchor="middle" x="274" y="-182" font-family="FreeSans" font-size="10.00">../Util/Config.h</text>
</a>
</g>
<!-- Node1&#45;&gt;Node4 -->
<g id="edge6" class="edge"><title>Node1&#45;&gt;Node4</title>
<path fill="none" stroke="midnightblue" d="M301.252,-232.897C296.765,-225.01 290.398,-213.821 284.947,-204.24"/>
<polygon fill="midnightblue" stroke="midnightblue" points="287.892,-202.338 279.904,-195.378 281.808,-205.8 287.892,-202.338"/>
</g>
<!-- Node7 -->
<g id="node13" class="node"><title>Node7</title>
<a xlink:href="_o_s_8h.html" target="_top" xlink:title="OS.h">
<polygon fill="none" stroke="black" points="321,-117 321,-137 359,-137 359,-117 321,-117"/>
<text text-anchor="middle" x="340" y="-124" font-family="FreeSans" font-size="10.00">OS.h</text>
</a>
</g>
<!-- Node1&#45;&gt;Node7 -->
<g id="edge28" class="edge"><title>Node1&#45;&gt;Node7</title>
<path fill="none" stroke="midnightblue" d="M310.065,-232.933C312.943,-223.428 317.341,-208.768 321,-196 325.7,-179.601 330.823,-160.945 334.565,-147.17"/>
<polygon fill="midnightblue" stroke="midnightblue" points="338,-147.873 337.234,-137.306 331.243,-146.045 338,-147.873"/>
</g>
<!-- Node14 -->
<g id="node29" class="node"><title>Node14</title>
<a xlink:href="_str_8h.html" target="_top" xlink:title="../Util/Str.h">
<polygon fill="none" stroke="black" points="368,-175 368,-195 430,-195 430,-175 368,-175"/>
<text text-anchor="middle" x="399" y="-182" font-family="FreeSans" font-size="10.00">../Util/Str.h</text>
</a>
</g>
<!-- Node1&#45;&gt;Node14 -->
<g id="edge30" class="edge"><title>Node1&#45;&gt;Node14</title>
<path fill="none" stroke="midnightblue" d="M323.025,-232.897C337.186,-223.97 358.059,-210.811 374.345,-200.543"/>
<polygon fill="midnightblue" stroke="midnightblue" points="376.257,-203.475 382.85,-195.182 372.524,-197.554 376.257,-203.475"/>
</g>
<!-- Node15 -->
<g id="node32" class="node"><title>Node15</title>
<a xlink:href="_avatar_texture_res_8h.html" target="_top" xlink:title="AvatarTextureRes.h">
<polygon fill="none" stroke="black" points="473,-175 473,-195 575,-195 575,-175 473,-175"/>
<text text-anchor="middle" x="524" y="-182" font-family="FreeSans" font-size="10.00">AvatarTextureRes.h</text>
</a>
</g>
<!-- Node1&#45;&gt;Node15 -->
<g id="edge34" class="edge"><title>Node1&#45;&gt;Node15</title>
<path fill="none" stroke="midnightblue" d="M344.799,-232.897C381.404,-223.113 437.026,-208.247 476.582,-197.674"/>
<polygon fill="midnightblue" stroke="midnightblue" points="477.514,-201.048 486.271,-195.084 475.707,-194.285 477.514,-201.048"/>
</g>
<!-- Node5 -->
<g id="node9" class="node"><title>Node5</title>
<polygon fill="none" stroke="#bfbfbf" points="163.5,-59 163.5,-79 204.5,-79 204.5,-59 163.5,-59"/>
<text text-anchor="middle" x="184" y="-66" font-family="FreeSans" font-size="10.00">string</text>
</g>
<!-- Node4&#45;&gt;Node5 -->
<g id="edge8" class="edge"><title>Node4&#45;&gt;Node5</title>
<path fill="none" stroke="midnightblue" d="M266.026,-174.942C258.509,-165.444 246.945,-150.789 237,-138 223.765,-120.98 208.812,-101.489 198.172,-87.574"/>
<polygon fill="midnightblue" stroke="midnightblue" points="200.716,-85.1384 191.864,-79.3167 195.153,-89.388 200.716,-85.1384"/>
</g>
<!-- Node6 -->
<g id="node11" class="node"><title>Node6</title>
<polygon fill="none" stroke="#bfbfbf" points="246,-117 246,-137 302,-137 302,-117 246,-117"/>
<text text-anchor="middle" x="274" y="-124" font-family="FreeSans" font-size="10.00">basedir.h</text>
</g>
<!-- Node4&#45;&gt;Node6 -->
<g id="edge10" class="edge"><title>Node4&#45;&gt;Node6</title>
<path fill="none" stroke="midnightblue" d="M274,-174.897C274,-167.339 274,-156.748 274,-147.446"/>
<polygon fill="midnightblue" stroke="midnightblue" points="277.5,-147.378 274,-137.378 270.5,-147.378 277.5,-147.378"/>
</g>
<!-- Node4&#45;&gt;Node7 -->
<g id="edge12" class="edge"><title>Node4&#45;&gt;Node7</title>
<path fill="none" stroke="midnightblue" d="M285.496,-174.897C295.125,-166.435 309.081,-154.172 320.46,-144.172"/>
<polygon fill="midnightblue" stroke="midnightblue" points="322.99,-146.608 328.191,-137.378 318.369,-141.35 322.99,-146.608"/>
</g>
<!-- Node7&#45;&gt;Node5 -->
<g id="edge18" class="edge"><title>Node7&#45;&gt;Node5</title>
<path fill="none" stroke="midnightblue" d="M320.98,-119.753C317.655,-118.495 314.229,-117.205 311,-116 270.331,-100.818 258.031,-96.7379 214.128,-80.398"/>
<polygon fill="midnightblue" stroke="midnightblue" points="215.178,-77.0538 204.585,-76.8386 212.732,-83.6125 215.178,-77.0538"/>
</g>
<!-- Node8 -->
<g id="node15" class="node"><title>Node8</title>
<polygon fill="none" stroke="#bfbfbf" points="222,-59 222,-79 264,-79 264,-59 222,-59"/>
<text text-anchor="middle" x="243" y="-66" font-family="FreeSans" font-size="10.00">locale</text>
</g>
<!-- Node7&#45;&gt;Node8 -->
<g id="edge14" class="edge"><title>Node7&#45;&gt;Node8</title>
<path fill="none" stroke="midnightblue" d="M323.104,-116.897C308.174,-107.97 286.166,-94.8106 268.994,-84.5431"/>
<polygon fill="midnightblue" stroke="midnightblue" points="270.407,-81.3097 260.028,-79.1817 266.814,-87.3176 270.407,-81.3097"/>
</g>
<!-- Node9 -->
<g id="node17" class="node"><title>Node9</title>
<polygon fill="none" stroke="#bfbfbf" points="282,-59 282,-79 312,-79 312,-59 282,-59"/>
<text text-anchor="middle" x="297" y="-66" font-family="FreeSans" font-size="10.00">set</text>
</g>
<!-- Node7&#45;&gt;Node9 -->
<g id="edge16" class="edge"><title>Node7&#45;&gt;Node9</title>
<path fill="none" stroke="midnightblue" d="M332.51,-116.897C326.541,-108.846 318.02,-97.3532 310.822,-87.6435"/>
<polygon fill="midnightblue" stroke="midnightblue" points="313.461,-85.3263 304.694,-79.3776 307.838,-89.4952 313.461,-85.3263"/>
</g>
<!-- Node10 -->
<g id="node20" class="node"><title>Node10</title>
<polygon fill="none" stroke="#bfbfbf" points="330,-59 330,-79 374,-79 374,-59 330,-59"/>
<text text-anchor="middle" x="352" y="-66" font-family="FreeSans" font-size="10.00">vector</text>
</g>
<!-- Node7&#45;&gt;Node10 -->
<g id="edge20" class="edge"><title>Node7&#45;&gt;Node10</title>
<path fill="none" stroke="midnightblue" d="M342.09,-116.897C343.654,-109.339 345.845,-98.7476 347.77,-89.4458"/>
<polygon fill="midnightblue" stroke="midnightblue" points="351.254,-89.8794 349.853,-79.3776 344.399,-88.4611 351.254,-89.8794"/>
</g>
<!-- Node11 -->
<g id="node22" class="node"><title>Node11</title>
<polygon fill="none" stroke="#bfbfbf" points="391.5,-59 391.5,-79 496.5,-79 496.5,-59 391.5,-59"/>
<text text-anchor="middle" x="444" y="-66" font-family="FreeSans" font-size="10.00">boost/filesystem.hpp</text>
</g>
<!-- Node7&#45;&gt;Node11 -->
<g id="edge22" class="edge"><title>Node7&#45;&gt;Node11</title>
<path fill="none" stroke="midnightblue" d="M358.115,-116.897C374.345,-107.846 398.376,-94.4442 416.894,-84.117"/>
<polygon fill="midnightblue" stroke="midnightblue" points="418.714,-87.1092 425.743,-79.1817 415.305,-80.9956 418.714,-87.1092"/>
</g>
<!-- Node12 -->
<g id="node24" class="node"><title>Node12</title>
<a xlink:href="_m_r___types_8h.html" target="_top" xlink:title="MR_Types.h">
<polygon fill="none" stroke="black" points="513.5,-59 513.5,-79 584.5,-79 584.5,-59 513.5,-59"/>
<text text-anchor="middle" x="549" y="-66" font-family="FreeSans" font-size="10.00">MR_Types.h</text>
</a>
</g>
<!-- Node7&#45;&gt;Node12 -->
<g id="edge24" class="edge"><title>Node7&#45;&gt;Node12</title>
<path fill="none" stroke="midnightblue" d="M359.288,-121.647C391.794,-112.627 458.338,-94.1598 503.319,-81.677"/>
<polygon fill="midnightblue" stroke="midnightblue" points="504.431,-85.0007 513.131,-78.9541 502.559,-78.2557 504.431,-85.0007"/>
</g>
<!-- Node13 -->
<g id="node26" class="node"><title>Node13</title>
<polygon fill="none" stroke="#bfbfbf" points="520,-1 520,-21 578,-21 578,-1 520,-1"/>
<text text-anchor="middle" x="549" y="-8" font-family="FreeSans" font-size="10.00">inttypes.h</text>
</g>
<!-- Node12&#45;&gt;Node13 -->
<g id="edge26" class="edge"><title>Node12&#45;&gt;Node13</title>
<path fill="none" stroke="midnightblue" d="M549,-58.8972C549,-51.339 549,-40.7476 549,-31.4458"/>
<polygon fill="midnightblue" stroke="midnightblue" points="552.5,-31.3776 549,-21.3776 545.5,-31.3776 552.5,-31.3776"/>
</g>
<!-- Node14&#45;&gt;Node7 -->
<g id="edge32" class="edge"><title>Node14&#45;&gt;Node7</title>
<path fill="none" stroke="midnightblue" d="M388.723,-174.897C380.199,-166.517 367.882,-154.409 357.765,-144.464"/>
<polygon fill="midnightblue" stroke="midnightblue" points="360.141,-141.892 350.557,-137.378 355.234,-146.884 360.141,-141.892"/>
</g>
<!-- Node16 -->
<g id="node34" class="node"><title>Node16</title>
<a xlink:href="_res_8h.html" target="_top" xlink:title="Res.h">
<polygon fill="none" stroke="black" points="528.5,-117 528.5,-137 569.5,-137 569.5,-117 528.5,-117"/>
<text text-anchor="middle" x="549" y="-124" font-family="FreeSans" font-size="10.00">Res.h</text>
</a>
</g>
<!-- Node15&#45;&gt;Node16 -->
<g id="edge36" class="edge"><title>Node15&#45;&gt;Node16</title>
<path fill="none" stroke="midnightblue" d="M528.355,-174.897C531.683,-167.175 536.377,-156.286 540.448,-146.841"/>
<polygon fill="midnightblue" stroke="midnightblue" points="543.783,-147.946 544.527,-137.378 537.354,-145.175 543.783,-147.946"/>
</g>
<!-- Node16&#45;&gt;Node12 -->
<g id="edge38" class="edge"><title>Node16&#45;&gt;Node12</title>
<path fill="none" stroke="midnightblue" d="M549,-116.897C549,-109.339 549,-98.7476 549,-89.4458"/>
<polygon fill="midnightblue" stroke="midnightblue" points="552.5,-89.3776 549,-79.3776 545.5,-89.3776 552.5,-89.3776"/>
</g>
<!-- Node17 -->
<g id="node37" class="node"><title>Node17</title>
<a xlink:href="_exception_8h.html" target="_top" xlink:title="../Exception.h">
<polygon fill="none" stroke="black" points="602,-59 602,-79 676,-79 676,-59 602,-59"/>
<text text-anchor="middle" x="639" y="-66" font-family="FreeSans" font-size="10.00">../Exception.h</text>
</a>
</g>
<!-- Node16&#45;&gt;Node17 -->
<g id="edge40" class="edge"><title>Node16&#45;&gt;Node17</title>
<path fill="none" stroke="midnightblue" d="M564.677,-116.897C578.401,-108.052 598.572,-95.0539 614.438,-84.829"/>
<polygon fill="midnightblue" stroke="midnightblue" points="616.691,-87.5407 623.201,-79.1817 612.899,-81.6567 616.691,-87.5407"/>
</g>
<!-- Node18 -->
<g id="node39" class="node"><title>Node18</title>
<polygon fill="none" stroke="#bfbfbf" points="610,-1 610,-21 668,-21 668,-1 610,-1"/>
<text text-anchor="middle" x="639" y="-8" font-family="FreeSans" font-size="10.00">exception</text>
</g>
<!-- Node17&#45;&gt;Node18 -->
<g id="edge42" class="edge"><title>Node17&#45;&gt;Node18</title>
<path fill="none" stroke="midnightblue" d="M639,-58.8972C639,-51.339 639,-40.7476 639,-31.4458"/>
<polygon fill="midnightblue" stroke="midnightblue" points="642.5,-31.3776 639,-21.3776 635.5,-31.3776 642.5,-31.3776"/>
</g>
</g>
</svg>
        <g id="navigator" transform="translate(0 0)" fill="#404254">
                <rect fill="#f2f5e9" fill-opacity="0.5" stroke="#606060" stroke-width=".5" x="0" y="0" width="60" height="60"/>
                <use id="zoomplus" xlink:href="#zoomPlus" x="17" y="9" onmousedown="handleZoom(evt,'in')"/>
                <use id="zoomminus" xlink:href="#zoomMin" x="42" y="9" onmousedown="handleZoom(evt,'out')"/>
                <use id="reset" xlink:href="#resetDef" x="30" y="36" onmousedown="handleReset()"/>
                <g id="arrowUp" xlink:href="#dirArrow" transform="translate(30 24)" onmousedown="handlePan(0,-1)">
                  <use xlink:href="#rim" fill="#404040">
                        <set attributeName="fill" to="#808080" begin="arrowUp.mouseover" end="arrowUp.mouseout"/>
                  </use>
                  <path fill="none" stroke="white" stroke-width="1.5" d="M0,-3.0v7 M-2.5,-0.5L0,-3.0L2.5,-0.5"/>
                </g>
                <g id="arrowRight" xlink:href="#dirArrow" transform="rotate(90) translate(36 -43)" onmousedown="handlePan(1,0)">
                  <use xlink:href="#rim" fill="#404040">
                        <set attributeName="fill" to="#808080" begin="arrowRight.mouseover" end="arrowRight.mouseout"/>
                  </use>
                  <path fill="none" stroke="white" stroke-width="1.5" d="M0,-3.0v7 M-2.5,-0.5L0,-3.0L2.5,-0.5"/>
                </g>
                <g id="arrowDown" xlink:href="#dirArrow" transform="rotate(180) translate(-30 -48)" onmousedown="handlePan(0,1)">
                  <use xlink:href="#rim" fill="#404040">
                        <set attributeName="fill" to="#808080" begin="arrowDown.mouseover" end="arrowDown.mouseout"/>
                  </use>
                  <path fill="none" stroke="white" stroke-width="1.5" d="M0,-3.0v7 M-2.5,-0.5L0,-3.0L2.5,-0.5"/>
                </g>
                <g id="arrowLeft" xlink:href="#dirArrow" transform="rotate(270) translate(-36 17)" onmousedown="handlePan(-1,0)">
                  <use xlink:href="#rim" fill="#404040">
                        <set attributeName="fill" to="#808080" begin="arrowLeft.mouseover" end="arrowLeft.mouseout"/>
                  </use>
                  <path fill="none" stroke="white" stroke-width="1.5" d="M0,-3.0v7 M-2.5,-0.5L0,-3.0L2.5,-0.5"/>
                </g>
        </g>
        <svg viewBox="0 0 15 15" width="100%" height="30px" preserveAspectRatio="xMaxYMin meet">
         <g id="arrow_out" transform="scale(0.3 0.3)">
          <a xlink:href="_avatar_texture_res_8cpp__incl_org.svg" target="_base">
           <rect id="button" ry="5" rx="5" y="6" x="6" height="38" width="38"
                fill="#f2f5e9" fill-opacity="0.5" stroke="#606060" stroke-width="1.0"/>
           <path id="arrow"
             d="M 11.500037,31.436501 C 11.940474,20.09759 22.043105,11.32322 32.158766,21.979434 L 37.068811,17.246167 C 37.068811,17.246167 37.088388,32 37.088388,32 L 22.160133,31.978069 C 22.160133,31.978069 26.997745,27.140456 26.997745,27.140456 C 18.528582,18.264221 13.291696,25.230495 11.500037,31.436501 z"
             style="fill:#404040;"/>
          </a>
         </g>
        </svg>
</svg>
