<?xml version="1.0" encoding="UTF-8" standalone="no"?>
<!DOCTYPE svg PUBLIC "-//W3C//DTD SVG 1.1//EN"
 "http://www.w3.org/Graphics/SVG/1.1/DTD/svg11.dtd">
<!-- Generated by graphviz version 2.38.0 (20140413.2041)
 -->
<!-- Title: BallElement.h Pages: 1 -->
<svg width="793pt" height="431pt"
 viewBox="0.00 0.00 792.50 431.00" xmlns="http://www.w3.org/2000/svg" xmlns:xlink="http://www.w3.org/1999/xlink">
<g id="graph0" class="graph" transform="scale(1 1) rotate(0) translate(4 427)">
<title>BallElement.h</title>
<!-- Node1 -->
<g id="node1" class="node"><title>Node1</title>
<polygon fill="#bfbfbf" stroke="black" points="460,-403.5 460,-422.5 537,-422.5 537,-403.5 460,-403.5"/>
<text text-anchor="middle" x="498.5" y="-410.5" font-family="Helvetica,sans-Serif" font-size="10.00">BallElement.h</text>
</g>
<!-- Node2 -->
<g id="node2" class="node"><title>Node2</title>
<g id="a_node2"><a xlink:href="_free_element_base_8h.html" target="_top" xlink:title="../ObjFacTools/FreeElement\lBase.h">
<polygon fill="none" stroke="black" points="428.5,-336.5 428.5,-366.5 568.5,-366.5 568.5,-336.5 428.5,-336.5"/>
<text text-anchor="start" x="436.5" y="-354.5" font-family="Helvetica,sans-Serif" font-size="10.00">../ObjFacTools/FreeElement</text>
<text text-anchor="middle" x="498.5" y="-343.5" font-family="Helvetica,sans-Serif" font-size="10.00">Base.h</text>
</a>
</g>
</g>
<!-- Node1&#45;&gt;Node2 -->
<g id="edge1" class="edge"><title>Node1&#45;&gt;Node2</title>
<path fill="none" stroke="midnightblue" d="M498.5,-403.475C498.5,-396.471 498.5,-386.192 498.5,-376.696"/>
<polygon fill="midnightblue" stroke="midnightblue" points="502,-376.523 498.5,-366.523 495,-376.523 502,-376.523"/>
</g>
<!-- Node3 -->
<g id="node3" class="node"><title>Node3</title>
<g id="a_node3"><a xlink:href="_maze_element_8h.html" target="_top" xlink:title="../Model/MazeElement.h">
<polygon fill="none" stroke="black" points="437,-280.5 437,-299.5 560,-299.5 560,-280.5 437,-280.5"/>
<text text-anchor="middle" x="498.5" y="-287.5" font-family="Helvetica,sans-Serif" font-size="10.00">../Model/MazeElement.h</text>
</a>
</g>
</g>
<!-- Node2&#45;&gt;Node3 -->
<g id="edge2" class="edge"><title>Node2&#45;&gt;Node3</title>
<path fill="none" stroke="midnightblue" d="M498.5,-336.399C498.5,-328.466 498.5,-318.458 498.5,-309.858"/>
<polygon fill="midnightblue" stroke="midnightblue" points="502,-309.658 498.5,-299.658 495,-309.658 502,-309.658"/>
</g>
<!-- Node4 -->
<g id="node4" class="node"><title>Node4</title>
<g id="a_node4"><a xlink:href="_dll_object_factory_8h.html" target="_top" xlink:title="../Util/DllObjectFactory.h">
<polygon fill="none" stroke="black" points="266,-224.5 266,-243.5 391,-243.5 391,-224.5 266,-224.5"/>
<text text-anchor="middle" x="328.5" y="-231.5" font-family="Helvetica,sans-Serif" font-size="10.00">../Util/DllObjectFactory.h</text>
</a>
</g>
</g>
<!-- Node3&#45;&gt;Node4 -->
<g id="edge3" class="edge"><title>Node3&#45;&gt;Node4</title>
<path fill="none" stroke="midnightblue" d="M471.563,-280.444C442.84,-271.32 397.171,-256.813 365.179,-246.651"/>
<polygon fill="midnightblue" stroke="midnightblue" points="365.901,-243.208 355.311,-243.516 363.782,-249.88 365.901,-243.208"/>
</g>
<!-- Node17 -->
<g id="node17" class="node"><title>Node17</title>
<g id="a_node17"><a xlink:href="_viewport3_d_8h.html" target="_top" xlink:title="../VideoServices/Viewport3D.h">
<polygon fill="none" stroke="black" points="485,-224.5 485,-243.5 636,-243.5 636,-224.5 485,-224.5"/>
<text text-anchor="middle" x="560.5" y="-231.5" font-family="Helvetica,sans-Serif" font-size="10.00">../VideoServices/Viewport3D.h</text>
</a>
</g>
</g>
<!-- Node3&#45;&gt;Node17 -->
<g id="edge19" class="edge"><title>Node3&#45;&gt;Node17</title>
<path fill="none" stroke="midnightblue" d="M508.461,-280.324C517.627,-272.341 531.437,-260.313 542.528,-250.653"/>
<polygon fill="midnightblue" stroke="midnightblue" points="545.115,-253.041 550.357,-243.834 540.518,-247.762 545.115,-253.041"/>
</g>
<!-- Node24 -->
<g id="node24" class="node"><title>Node24</title>
<g id="a_node24"><a xlink:href="_contact_effect_8h.html" target="_top" xlink:title="ContactEffect.h">
<polygon fill="none" stroke="black" points="698.5,-224.5 698.5,-243.5 784.5,-243.5 784.5,-224.5 698.5,-224.5"/>
<text text-anchor="middle" x="741.5" y="-231.5" font-family="Helvetica,sans-Serif" font-size="10.00">ContactEffect.h</text>
</a>
</g>
</g>
<!-- Node3&#45;&gt;Node24 -->
<g id="edge30" class="edge"><title>Node3&#45;&gt;Node24</title>
<path fill="none" stroke="midnightblue" d="M537.004,-280.444C579.306,-271.043 647.319,-255.929 693.173,-245.739"/>
<polygon fill="midnightblue" stroke="midnightblue" points="694.173,-249.102 703.176,-243.516 692.655,-242.269 694.173,-249.102"/>
</g>
<!-- Node25 -->
<g id="node25" class="node"><title>Node25</title>
<g id="a_node25"><a xlink:href="_shapes_8h.html" target="_top" xlink:title="Shapes.h">
<polygon fill="none" stroke="black" points="408.5,-224.5 408.5,-243.5 466.5,-243.5 466.5,-224.5 408.5,-224.5"/>
<text text-anchor="middle" x="437.5" y="-231.5" font-family="Helvetica,sans-Serif" font-size="10.00">Shapes.h</text>
</a>
</g>
</g>
<!-- Node3&#45;&gt;Node25 -->
<g id="edge32" class="edge"><title>Node3&#45;&gt;Node25</title>
<path fill="none" stroke="midnightblue" d="M488.699,-280.324C479.682,-272.341 466.094,-260.313 455.182,-250.653"/>
<polygon fill="midnightblue" stroke="midnightblue" points="457.287,-247.842 447.479,-243.834 452.647,-253.083 457.287,-247.842"/>
</g>
<!-- Node5 -->
<g id="node5" class="node"><title>Node5</title>
<g id="a_node5"><a xlink:href="_obj_stream_8h.html" target="_top" xlink:title="../Parcel/ObjStream.h">
<polygon fill="none" stroke="black" points="180,-168.5 180,-187.5 291,-187.5 291,-168.5 180,-168.5"/>
<text text-anchor="middle" x="235.5" y="-175.5" font-family="Helvetica,sans-Serif" font-size="10.00">../Parcel/ObjStream.h</text>
</a>
</g>
</g>
<!-- Node4&#45;&gt;Node5 -->
<g id="edge4" class="edge"><title>Node4&#45;&gt;Node5</title>
<path fill="none" stroke="midnightblue" d="M313.558,-224.324C298.915,-215.822 276.366,-202.729 259.262,-192.797"/>
<polygon fill="midnightblue" stroke="midnightblue" points="260.81,-189.649 250.405,-187.655 257.295,-195.703 260.81,-189.649"/>
</g>
<!-- Node9 -->
<g id="node9" class="node"><title>Node9</title>
<g id="a_node9"><a xlink:href="_m_r___types_8h.html" target="_top" xlink:title="../Util/MR_Types.h">
<polygon fill="none" stroke="black" points="434.5,-56.5 434.5,-75.5 534.5,-75.5 534.5,-56.5 434.5,-56.5"/>
<text text-anchor="middle" x="484.5" y="-63.5" font-family="Helvetica,sans-Serif" font-size="10.00">../Util/MR_Types.h</text>
</a>
</g>
</g>
<!-- Node4&#45;&gt;Node9 -->
<g id="edge18" class="edge"><title>Node4&#45;&gt;Node9</title>
<path fill="none" stroke="midnightblue" d="M327.622,-224.437C325.892,-202.742 324.444,-145.007 353.5,-112 364.84,-99.1182 404.258,-86.612 436.919,-78.067"/>
<polygon fill="midnightblue" stroke="midnightblue" points="437.976,-81.4098 446.8,-75.5463 436.245,-74.627 437.976,-81.4098"/>
</g>
<!-- Node6 -->
<g id="node6" class="node"><title>Node6</title>
<polygon fill="none" stroke="#bfbfbf" points="77,-56.5 77,-75.5 118,-75.5 118,-56.5 77,-56.5"/>
<text text-anchor="middle" x="97.5" y="-63.5" font-family="Helvetica,sans-Serif" font-size="10.00">string</text>
</g>
<!-- Node5&#45;&gt;Node6 -->
<g id="edge5" class="edge"><title>Node5&#45;&gt;Node6</title>
<path fill="none" stroke="midnightblue" d="M224.671,-168.368C201.192,-149.653 145.362,-105.151 116.108,-81.8324"/>
<polygon fill="midnightblue" stroke="midnightblue" points="118.28,-79.0877 108.278,-75.5914 113.916,-84.5615 118.28,-79.0877"/>
</g>
<!-- Node7 -->
<g id="node7" class="node"><title>Node7</title>
<g id="a_node7"><a xlink:href="_exception_8h.html" target="_top" xlink:title="../Exception.h">
<polygon fill="none" stroke="black" points="30,-112.5 30,-131.5 107,-131.5 107,-112.5 30,-112.5"/>
<text text-anchor="middle" x="68.5" y="-119.5" font-family="Helvetica,sans-Serif" font-size="10.00">../Exception.h</text>
</a>
</g>
</g>
<!-- Node5&#45;&gt;Node7 -->
<g id="edge6" class="edge"><title>Node5&#45;&gt;Node7</title>
<path fill="none" stroke="midnightblue" d="M209.038,-168.444C180.822,-159.32 135.96,-144.813 104.532,-134.651"/>
<polygon fill="midnightblue" stroke="midnightblue" points="105.43,-131.263 94.8378,-131.516 103.276,-137.923 105.43,-131.263"/>
</g>
<!-- Node5&#45;&gt;Node9 -->
<g id="edge8" class="edge"><title>Node5&#45;&gt;Node9</title>
<path fill="none" stroke="midnightblue" d="M244.622,-168.071C259.363,-154.121 289.876,-127.185 320.5,-112 353.08,-95.8451 392.274,-84.8185 424.175,-77.7251"/>
<polygon fill="midnightblue" stroke="midnightblue" points="425.217,-81.0812 434.258,-75.5588 423.746,-74.2374 425.217,-81.0812"/>
</g>
<!-- Node11 -->
<g id="node11" class="node"><title>Node11</title>
<g id="a_node11"><a xlink:href="_o_s_8h.html" target="_top" xlink:title="../Util/OS.h">
<polygon fill="none" stroke="black" points="202.5,-112.5 202.5,-131.5 268.5,-131.5 268.5,-112.5 202.5,-112.5"/>
<text text-anchor="middle" x="235.5" y="-119.5" font-family="Helvetica,sans-Serif" font-size="10.00">../Util/OS.h</text>
</a>
</g>
</g>
<!-- Node5&#45;&gt;Node11 -->
<g id="edge10" class="edge"><title>Node5&#45;&gt;Node11</title>
<path fill="none" stroke="midnightblue" d="M235.5,-168.083C235.5,-161.006 235.5,-150.861 235.5,-141.986"/>
<polygon fill="midnightblue" stroke="midnightblue" points="239,-141.751 235.5,-131.751 232,-141.751 239,-141.751"/>
</g>
<!-- Node8 -->
<g id="node8" class="node"><title>Node8</title>
<polygon fill="none" stroke="#bfbfbf" points="0,-56.5 0,-75.5 59,-75.5 59,-56.5 0,-56.5"/>
<text text-anchor="middle" x="29.5" y="-63.5" font-family="Helvetica,sans-Serif" font-size="10.00">exception</text>
</g>
<!-- Node7&#45;&gt;Node8 -->
<g id="edge7" class="edge"><title>Node7&#45;&gt;Node8</title>
<path fill="none" stroke="midnightblue" d="M62.0599,-112.083C56.5511,-104.455 48.4688,-93.2645 41.735,-83.9408"/>
<polygon fill="midnightblue" stroke="midnightblue" points="44.5126,-81.8087 35.8202,-75.7511 38.8378,-85.9071 44.5126,-81.8087"/>
</g>
<!-- Node10 -->
<g id="node10" class="node"><title>Node10</title>
<polygon fill="none" stroke="#bfbfbf" points="455,-0.5 455,-19.5 514,-19.5 514,-0.5 455,-0.5"/>
<text text-anchor="middle" x="484.5" y="-7.5" font-family="Helvetica,sans-Serif" font-size="10.00">inttypes.h</text>
</g>
<!-- Node9&#45;&gt;Node10 -->
<g id="edge9" class="edge"><title>Node9&#45;&gt;Node10</title>
<path fill="none" stroke="midnightblue" d="M484.5,-56.083C484.5,-49.0059 484.5,-38.8611 484.5,-29.9865"/>
<polygon fill="midnightblue" stroke="midnightblue" points="488,-29.751 484.5,-19.7511 481,-29.7511 488,-29.751"/>
</g>
<!-- Node11&#45;&gt;Node6 -->
<g id="edge14" class="edge"><title>Node11&#45;&gt;Node6</title>
<path fill="none" stroke="midnightblue" d="M213.633,-112.444C190.451,-103.372 153.671,-88.98 127.724,-78.8268"/>
<polygon fill="midnightblue" stroke="midnightblue" points="128.949,-75.5477 118.361,-75.1629 126.398,-82.0664 128.949,-75.5477"/>
</g>
<!-- Node11&#45;&gt;Node9 -->
<g id="edge17" class="edge"><title>Node11&#45;&gt;Node9</title>
<path fill="none" stroke="midnightblue" d="M268.565,-113.829C311.264,-104.569 385.941,-88.3742 435.31,-77.6677"/>
<polygon fill="midnightblue" stroke="midnightblue" points="436.103,-81.0771 445.134,-75.5371 434.62,-74.2361 436.103,-81.0771"/>
</g>
<!-- Node12 -->
<g id="node12" class="node"><title>Node12</title>
<polygon fill="none" stroke="#bfbfbf" points="260.5,-56.5 260.5,-75.5 302.5,-75.5 302.5,-56.5 260.5,-56.5"/>
<text text-anchor="middle" x="281.5" y="-63.5" font-family="Helvetica,sans-Serif" font-size="10.00">locale</text>
</g>
<!-- Node11&#45;&gt;Node12 -->
<g id="edge11" class="edge"><title>Node11&#45;&gt;Node12</title>
<path fill="none" stroke="midnightblue" d="M243.096,-112.083C249.727,-104.298 259.521,-92.8015 267.558,-83.3665"/>
<polygon fill="midnightblue" stroke="midnightblue" points="270.225,-85.6332 274.045,-75.7511 264.896,-81.0939 270.225,-85.6332"/>
</g>
<!-- Node13 -->
<g id="node13" class="node"><title>Node13</title>
<polygon fill="none" stroke="#bfbfbf" points="320,-56.5 320,-75.5 369,-75.5 369,-56.5 320,-56.5"/>
<text text-anchor="middle" x="344.5" y="-63.5" font-family="Helvetica,sans-Serif" font-size="10.00">random</text>
</g>
<!-- Node11&#45;&gt;Node13 -->
<g id="edge12" class="edge"><title>Node11&#45;&gt;Node13</title>
<path fill="none" stroke="midnightblue" d="M253.013,-112.324C270.572,-103.625 297.831,-90.1202 318.031,-80.113"/>
<polygon fill="midnightblue" stroke="midnightblue" points="319.624,-83.23 327.031,-75.6545 316.516,-76.9575 319.624,-83.23"/>
</g>
<!-- Node14 -->
<g id="node14" class="node"><title>Node14</title>
<polygon fill="none" stroke="#bfbfbf" points="386.5,-56.5 386.5,-75.5 416.5,-75.5 416.5,-56.5 386.5,-56.5"/>
<text text-anchor="middle" x="401.5" y="-63.5" font-family="Helvetica,sans-Serif" font-size="10.00">set</text>
</g>
<!-- Node11&#45;&gt;Node14 -->
<g id="edge13" class="edge"><title>Node11&#45;&gt;Node14</title>
<path fill="none" stroke="midnightblue" d="M263.931,-112.465C290.791,-104.298 332.399,-91.3806 376.796,-76.1232"/>
<polygon fill="midnightblue" stroke="midnightblue" points="378.001,-79.4097 386.308,-72.8328 375.713,-72.7944 378.001,-79.4097"/>
</g>
<!-- Node15 -->
<g id="node15" class="node"><title>Node15</title>
<polygon fill="none" stroke="#bfbfbf" points="655.5,-56.5 655.5,-75.5 699.5,-75.5 699.5,-56.5 655.5,-56.5"/>
<text text-anchor="middle" x="677.5" y="-63.5" font-family="Helvetica,sans-Serif" font-size="10.00">vector</text>
</g>
<!-- Node11&#45;&gt;Node15 -->
<g id="edge15" class="edge"><title>Node11&#45;&gt;Node15</title>
<path fill="none" stroke="midnightblue" d="M268.722,-116.941C351.054,-106.883 563.739,-80.8984 645.146,-70.9527"/>
<polygon fill="midnightblue" stroke="midnightblue" points="645.792,-74.3999 655.294,-69.713 644.943,-67.4516 645.792,-74.3999"/>
</g>
<!-- Node16 -->
<g id="node16" class="node"><title>Node16</title>
<polygon fill="none" stroke="#bfbfbf" points="136,-56.5 136,-75.5 243,-75.5 243,-56.5 136,-56.5"/>
<text text-anchor="middle" x="189.5" y="-63.5" font-family="Helvetica,sans-Serif" font-size="10.00">boost/filesystem.hpp</text>
</g>
<!-- Node11&#45;&gt;Node16 -->
<g id="edge16" class="edge"><title>Node11&#45;&gt;Node16</title>
<path fill="none" stroke="midnightblue" d="M227.904,-112.083C221.273,-104.298 211.479,-92.8015 203.442,-83.3665"/>
<polygon fill="midnightblue" stroke="midnightblue" points="206.104,-81.0939 196.955,-75.7511 200.775,-85.6332 206.104,-81.0939"/>
</g>
<!-- Node18 -->
<g id="node18" class="node"><title>Node18</title>
<g id="a_node18"><a xlink:href="_viewport2_d_8h.html" target="_top" xlink:title="Viewport2D.h">
<polygon fill="none" stroke="black" points="510.5,-112.5 510.5,-131.5 586.5,-131.5 586.5,-112.5 510.5,-112.5"/>
<text text-anchor="middle" x="548.5" y="-119.5" font-family="Helvetica,sans-Serif" font-size="10.00">Viewport2D.h</text>
</a>
</g>
</g>
<!-- Node17&#45;&gt;Node18 -->
<g id="edge20" class="edge"><title>Node17&#45;&gt;Node18</title>
<path fill="none" stroke="midnightblue" d="M559.558,-224.368C557.622,-206.617 553.155,-165.666 550.529,-141.597"/>
<polygon fill="midnightblue" stroke="midnightblue" points="554.001,-141.153 549.437,-131.591 547.042,-141.912 554.001,-141.153"/>
</g>
<!-- Node19 -->
<g id="node19" class="node"><title>Node19</title>
<g id="a_node19"><a xlink:href="_color_palette_8h.html" target="_top" xlink:title="ColorPalette.h">
<polygon fill="none" stroke="black" points="577,-168.5 577,-187.5 656,-187.5 656,-168.5 577,-168.5"/>
<text text-anchor="middle" x="616.5" y="-175.5" font-family="Helvetica,sans-Serif" font-size="10.00">ColorPalette.h</text>
</a>
</g>
</g>
<!-- Node17&#45;&gt;Node19 -->
<g id="edge22" class="edge"><title>Node17&#45;&gt;Node19</title>
<path fill="none" stroke="midnightblue" d="M569.497,-224.324C577.694,-216.42 590.006,-204.548 599.972,-194.938"/>
<polygon fill="midnightblue" stroke="midnightblue" points="602.57,-197.295 607.339,-187.834 597.711,-192.256 602.57,-197.295"/>
</g>
<!-- Node21 -->
<g id="node21" class="node"><title>Node21</title>
<g id="a_node21"><a xlink:href="_bitmap_8h.html" target="_top" xlink:title="Bitmap.h">
<polygon fill="none" stroke="black" points="685.5,-168.5 685.5,-187.5 741.5,-187.5 741.5,-168.5 685.5,-168.5"/>
<text text-anchor="middle" x="713.5" y="-175.5" font-family="Helvetica,sans-Serif" font-size="10.00">Bitmap.h</text>
</a>
</g>
</g>
<!-- Node17&#45;&gt;Node21 -->
<g id="edge25" class="edge"><title>Node17&#45;&gt;Node21</title>
<path fill="none" stroke="midnightblue" d="M584.743,-224.444C610.371,-215.399 650.985,-201.064 679.738,-190.916"/>
<polygon fill="midnightblue" stroke="midnightblue" points="681.105,-194.145 689.37,-187.516 678.775,-187.544 681.105,-194.145"/>
</g>
<!-- Node22 -->
<g id="node22" class="node"><title>Node22</title>
<g id="a_node22"><a xlink:href="_patch_8h.html" target="_top" xlink:title="Patch.h">
<polygon fill="none" stroke="black" points="466.5,-168.5 466.5,-187.5 516.5,-187.5 516.5,-168.5 466.5,-168.5"/>
<text text-anchor="middle" x="491.5" y="-175.5" font-family="Helvetica,sans-Serif" font-size="10.00">Patch.h</text>
</a>
</g>
</g>
<!-- Node17&#45;&gt;Node22 -->
<g id="edge27" class="edge"><title>Node17&#45;&gt;Node22</title>
<path fill="none" stroke="midnightblue" d="M549.414,-224.324C539.014,-216.185 523.239,-203.839 510.778,-194.087"/>
<polygon fill="midnightblue" stroke="midnightblue" points="512.82,-191.241 502.788,-187.834 508.506,-196.753 512.82,-191.241"/>
</g>
<!-- Node18&#45;&gt;Node9 -->
<g id="edge21" class="edge"><title>Node18&#45;&gt;Node9</title>
<path fill="none" stroke="midnightblue" d="M538.217,-112.324C528.664,-104.263 514.22,-92.0765 502.716,-82.3695"/>
<polygon fill="midnightblue" stroke="midnightblue" points="504.87,-79.6076 494.97,-75.8339 500.356,-84.9577 504.87,-79.6076"/>
</g>
<!-- Node19&#45;&gt;Node9 -->
<g id="edge24" class="edge"><title>Node19&#45;&gt;Node9</title>
<path fill="none" stroke="midnightblue" d="M615.977,-168.259C614.707,-154.568 610.359,-127.98 595.5,-112 580.472,-95.8379 558.826,-85.3424 538.633,-78.5927"/>
<polygon fill="midnightblue" stroke="midnightblue" points="539.459,-75.1849 528.872,-75.5718 537.39,-81.8719 539.459,-75.1849"/>
</g>
<!-- Node20 -->
<g id="node20" class="node"><title>Node20</title>
<polygon fill="none" stroke="#bfbfbf" points="642.5,-112.5 642.5,-131.5 714.5,-131.5 714.5,-112.5 642.5,-112.5"/>
<text text-anchor="middle" x="678.5" y="-119.5" font-family="Helvetica,sans-Serif" font-size="10.00">SDL2/SDL.h</text>
</g>
<!-- Node19&#45;&gt;Node20 -->
<g id="edge23" class="edge"><title>Node19&#45;&gt;Node20</title>
<path fill="none" stroke="midnightblue" d="M626.461,-168.324C635.627,-160.341 649.437,-148.313 660.528,-138.653"/>
<polygon fill="midnightblue" stroke="midnightblue" points="663.115,-141.041 668.357,-131.834 658.518,-135.762 663.115,-141.041"/>
</g>
<!-- Node21&#45;&gt;Node9 -->
<g id="edge26" class="edge"><title>Node21&#45;&gt;Node9</title>
<path fill="none" stroke="midnightblue" d="M718.61,-168.305C725.877,-154.675 736.91,-128.171 723.5,-112 701.224,-85.1387 608.071,-74.2043 544.858,-69.8281"/>
<polygon fill="midnightblue" stroke="midnightblue" points="544.804,-66.3171 534.596,-69.1565 544.346,-73.3022 544.804,-66.3171"/>
</g>
<!-- Node23 -->
<g id="node23" class="node"><title>Node23</title>
<g id="a_node23"><a xlink:href="_world_coordinates_8h.html" target="_top" xlink:title="../Util/WorldCoordinates.h">
<polygon fill="none" stroke="black" points="362.5,-112.5 362.5,-131.5 492.5,-131.5 492.5,-112.5 362.5,-112.5"/>
<text text-anchor="middle" x="427.5" y="-119.5" font-family="Helvetica,sans-Serif" font-size="10.00">../Util/WorldCoordinates.h</text>
</a>
</g>
</g>
<!-- Node22&#45;&gt;Node23 -->
<g id="edge28" class="edge"><title>Node22&#45;&gt;Node23</title>
<path fill="none" stroke="midnightblue" d="M481.217,-168.324C471.664,-160.263 457.22,-148.077 445.716,-138.369"/>
<polygon fill="midnightblue" stroke="midnightblue" points="447.87,-135.608 437.97,-131.834 443.356,-140.958 447.87,-135.608"/>
</g>
<!-- Node23&#45;&gt;Node9 -->
<g id="edge29" class="edge"><title>Node23&#45;&gt;Node9</title>
<path fill="none" stroke="midnightblue" d="M436.658,-112.324C445.001,-104.42 457.532,-92.5482 467.677,-82.9377"/>
<polygon fill="midnightblue" stroke="midnightblue" points="470.323,-85.2522 475.175,-75.8339 465.509,-80.1705 470.323,-85.2522"/>
</g>
<!-- Node24&#45;&gt;Node15 -->
<g id="edge31" class="edge"><title>Node24&#45;&gt;Node15</title>
<path fill="none" stroke="midnightblue" d="M744.319,-224.224C750.563,-203.011 763.284,-148.049 740.5,-112 732.063,-98.6513 718.102,-88.0772 705.463,-80.5424"/>
<polygon fill="midnightblue" stroke="midnightblue" points="707.031,-77.4092 696.592,-75.5968 703.622,-83.5233 707.031,-77.4092"/>
</g>
<!-- Node25&#45;&gt;Node23 -->
<g id="edge33" class="edge"><title>Node25&#45;&gt;Node23</title>
<path fill="none" stroke="midnightblue" d="M436.715,-224.368C435.102,-206.617 431.379,-165.666 429.191,-141.597"/>
<polygon fill="midnightblue" stroke="midnightblue" points="432.672,-141.233 428.281,-131.591 425.701,-141.867 432.672,-141.233"/>
</g>
</g>
</svg>
