<?xml version="1.0" encoding="UTF-8" standalone="no"?>
<!DOCTYPE svg PUBLIC "-//W3C//DTD SVG 1.1//EN"
 "http://www.w3.org/Graphics/SVG/1.1/DTD/svg11.dtd">
<!-- Generated by graphviz version 2.26.3 (20100126.1600)
 -->
<!-- Title: BallElement.h Pages: 1 -->
<svg width="182pt" height="88pt"
 viewBox="0.00 0.00 182.00 88.00" xmlns="http://www.w3.org/2000/svg" xmlns:xlink="http://www.w3.org/1999/xlink">
<g id="graph1" class="graph" transform="scale(1 1) rotate(0) translate(4 84)">
<title>BallElement.h</title>
<!-- Node1 -->
<g id="node1" class="node"><title>Node1</title>
<polygon fill="#bfbfbf" stroke="black" points="53,-59 53,-79 129,-79 129,-59 53,-59"/>
<text text-anchor="middle" x="91" y="-66" font-family="FreeSans" font-size="10.00">BallElement.h</text>
</g>
<!-- Node2 -->
<g id="node3" class="node"><title>Node2</title>
<a xlink:href="_ball_element_8cpp.html" target="_top" xlink:title="BallElement.cpp">
<polygon fill="none" stroke="black" points="0,-1 0,-21 86,-21 86,-1 0,-1"/>
<text text-anchor="middle" x="43" y="-8" font-family="FreeSans" font-size="10.00">BallElement.cpp</text>
</a>
</g>
<!-- Node1&#45;&gt;Node2 -->
<g id="edge2" class="edge"><title>Node1&#45;&gt;Node2</title>
<path fill="none" stroke="midnightblue" d="M76.0877,-50.981C68.0363,-41.2522 58.3839,-29.5889 51.5884,-21.3776"/>
<polygon fill="midnightblue" stroke="midnightblue" points="73.5669,-53.4247 82.639,-58.8972 78.9597,-48.9617 73.5669,-53.4247"/>
</g>
<!-- Node3 -->
<g id="node5" class="node"><title>Node3</title>
<a xlink:href="_obj_fac1_8cpp.html" target="_top" xlink:title="ObjFac1.cpp">
<polygon fill="none" stroke="black" points="103.5,-1 103.5,-21 174.5,-21 174.5,-1 103.5,-1"/>
<text text-anchor="middle" x="139" y="-8" font-family="FreeSans" font-size="10.00">ObjFac1.cpp</text>
</a>
</g>
<!-- Node1&#45;&gt;Node3 -->
<g id="edge4" class="edge"><title>Node1&#45;&gt;Node3</title>
<path fill="none" stroke="midnightblue" d="M105.912,-50.981C113.964,-41.2522 123.616,-29.5889 130.412,-21.3776"/>
<polygon fill="midnightblue" stroke="midnightblue" points="103.04,-48.9617 99.361,-58.8972 108.433,-53.4247 103.04,-48.9617"/>
</g>
</g>
</svg>
