<?xml version="1.0" encoding="UTF-8" standalone="no"?>
<!DOCTYPE svg PUBLIC "-//W3C//DTD SVG 1.1//EN"
 "http://www.w3.org/Graphics/SVG/1.1/DTD/svg11.dtd">
<!-- Generated by graphviz version 2.38.0 (20140413.2041)
 -->
<!-- Title: BaseContainer.cpp Pages: 1 -->
<svg width="777pt" height="532pt"
 viewBox="0.00 0.00 776.50 532.00" xmlns="http://www.w3.org/2000/svg" xmlns:xlink="http://www.w3.org/1999/xlink">
<g id="graph0" class="graph" transform="scale(1 1) rotate(0) translate(4 528)">
<title>BaseContainer.cpp</title>
<!-- Node1 -->
<g id="node1" class="node"><title>Node1</title>
<polygon fill="#bfbfbf" stroke="black" points="338,-504.5 338,-523.5 445,-523.5 445,-504.5 338,-504.5"/>
<text text-anchor="middle" x="391.5" y="-511.5" font-family="FreeSans" font-size="10.00">BaseContainer.cpp</text>
</g>
<!-- Node2 -->
<g id="node2" class="node"><title>Node2</title>
<g id="a_node2"><a xlink:href="_action_8h.html" target="_top" xlink:title="../Control/Action.h">
<polygon fill="none" stroke="black" points="231.5,-448.5 231.5,-467.5 333.5,-467.5 333.5,-448.5 231.5,-448.5"/>
<text text-anchor="middle" x="282.5" y="-455.5" font-family="FreeSans" font-size="10.00">../Control/Action.h</text>
</a>
</g>
</g>
<!-- Node1&#45;&gt;Node2 -->
<g id="edge1" class="edge"><title>Node1&#45;&gt;Node2</title>
<path fill="none" stroke="midnightblue" d="M373.987,-504.324C356.428,-495.625 329.169,-482.12 308.969,-472.113"/>
<polygon fill="midnightblue" stroke="midnightblue" points="310.484,-468.958 299.969,-467.655 307.376,-475.23 310.484,-468.958"/>
</g>
<!-- Node9 -->
<g id="node9" class="node"><title>Node9</title>
<g id="a_node9"><a xlink:href="_base_container_8h.html" target="_top" xlink:title="BaseContainer.h">
<polygon fill="none" stroke="black" points="453,-448.5 453,-467.5 548,-467.5 548,-448.5 453,-448.5"/>
<text text-anchor="middle" x="500.5" y="-455.5" font-family="FreeSans" font-size="10.00">BaseContainer.h</text>
</a>
</g>
</g>
<!-- Node1&#45;&gt;Node9 -->
<g id="edge8" class="edge"><title>Node1&#45;&gt;Node9</title>
<path fill="none" stroke="midnightblue" d="M409.013,-504.324C426.572,-495.625 453.831,-482.12 474.031,-472.113"/>
<polygon fill="midnightblue" stroke="midnightblue" points="475.624,-475.23 483.031,-467.655 472.516,-468.958 475.624,-475.23"/>
</g>
<!-- Node3 -->
<g id="node3" class="node"><title>Node3</title>
<polygon fill="none" stroke="#bfbfbf" points="99,-392.5 99,-411.5 218,-411.5 218,-392.5 99,-392.5"/>
<text text-anchor="middle" x="158.5" y="-399.5" font-family="FreeSans" font-size="10.00">SDL2/SDL_keycode.h</text>
</g>
<!-- Node2&#45;&gt;Node3 -->
<g id="edge2" class="edge"><title>Node2&#45;&gt;Node3</title>
<path fill="none" stroke="midnightblue" d="M262.852,-448.444C242.535,-439.596 210.597,-425.687 187.402,-415.586"/>
<polygon fill="midnightblue" stroke="midnightblue" points="188.622,-412.3 178.056,-411.516 185.827,-418.718 188.622,-412.3"/>
</g>
<!-- Node4 -->
<g id="node4" class="node"><title>Node4</title>
<polygon fill="none" stroke="#bfbfbf" points="382.5,-392.5 382.5,-411.5 494.5,-411.5 494.5,-392.5 382.5,-392.5"/>
<text text-anchor="middle" x="438.5" y="-399.5" font-family="FreeSans" font-size="10.00">SDL2/SDL_mouse.h</text>
</g>
<!-- Node2&#45;&gt;Node4 -->
<g id="edge3" class="edge"><title>Node2&#45;&gt;Node4</title>
<path fill="none" stroke="midnightblue" d="M307.219,-448.444C333.348,-439.399 374.759,-425.064 404.076,-414.916"/>
<polygon fill="midnightblue" stroke="midnightblue" points="405.592,-418.095 413.897,-411.516 403.302,-411.48 405.592,-418.095"/>
</g>
<!-- Node5 -->
<g id="node5" class="node"><title>Node5</title>
<g id="a_node5"><a xlink:href="_vec_8h.html" target="_top" xlink:title="../Vec.h">
<polygon fill="none" stroke="black" points="277.5,-168.5 277.5,-187.5 329.5,-187.5 329.5,-168.5 277.5,-168.5"/>
<text text-anchor="middle" x="303.5" y="-175.5" font-family="FreeSans" font-size="10.00">../Vec.h</text>
</a>
</g>
</g>
<!-- Node2&#45;&gt;Node5 -->
<g id="edge4" class="edge"><title>Node2&#45;&gt;Node5</title>
<path fill="none" stroke="midnightblue" d="M277.645,-448.473C267.818,-430.386 246.5,-386.585 246.5,-347 246.5,-347 246.5,-347 246.5,-289 246.5,-252.3 271.821,-215.657 288.71,-195.297"/>
<polygon fill="midnightblue" stroke="midnightblue" points="291.454,-197.475 295.333,-187.616 286.152,-192.904 291.454,-197.475"/>
</g>
<!-- Node6 -->
<g id="node6" class="node"><title>Node6</title>
<g id="a_node6"><a xlink:href="_exception_8h.html" target="_top" xlink:title="../Exception.h">
<polygon fill="none" stroke="black" points="0,-392.5 0,-411.5 81,-411.5 81,-392.5 0,-392.5"/>
<text text-anchor="middle" x="40.5" y="-399.5" font-family="FreeSans" font-size="10.00">../Exception.h</text>
</a>
</g>
</g>
<!-- Node2&#45;&gt;Node6 -->
<g id="edge5" class="edge"><title>Node2&#45;&gt;Node6</title>
<path fill="none" stroke="midnightblue" d="M244.154,-448.444C202.027,-439.043 134.294,-423.929 88.628,-413.739"/>
<polygon fill="midnightblue" stroke="midnightblue" points="89.1885,-410.278 78.6662,-411.516 87.6639,-417.11 89.1885,-410.278"/>
</g>
<!-- Node8 -->
<g id="node8" class="node"><title>Node8</title>
<g id="a_node8"><a xlink:href="_control_action_8h.html" target="_top" xlink:title="ControlAction.h">
<polygon fill="none" stroke="black" points="274.5,-392.5 274.5,-411.5 364.5,-411.5 364.5,-392.5 274.5,-392.5"/>
<text text-anchor="middle" x="319.5" y="-399.5" font-family="FreeSans" font-size="10.00">ControlAction.h</text>
</a>
</g>
</g>
<!-- Node2&#45;&gt;Node8 -->
<g id="edge7" class="edge"><title>Node2&#45;&gt;Node8</title>
<path fill="none" stroke="midnightblue" d="M288.61,-448.083C293.782,-440.534 301.346,-429.495 307.694,-420.23"/>
<polygon fill="midnightblue" stroke="midnightblue" points="310.739,-421.979 313.504,-411.751 304.964,-418.022 310.739,-421.979"/>
</g>
<!-- Node7 -->
<g id="node7" class="node"><title>Node7</title>
<polygon fill="none" stroke="#bfbfbf" points="9,-336.5 9,-355.5 72,-355.5 72,-336.5 9,-336.5"/>
<text text-anchor="middle" x="40.5" y="-343.5" font-family="FreeSans" font-size="10.00">exception</text>
</g>
<!-- Node6&#45;&gt;Node7 -->
<g id="edge6" class="edge"><title>Node6&#45;&gt;Node7</title>
<path fill="none" stroke="midnightblue" d="M40.5,-392.083C40.5,-385.006 40.5,-374.861 40.5,-365.986"/>
<polygon fill="midnightblue" stroke="midnightblue" points="44.0001,-365.751 40.5,-355.751 37.0001,-365.751 44.0001,-365.751"/>
</g>
<!-- Node10 -->
<g id="node10" class="node"><title>Node10</title>
<g id="a_node10"><a xlink:href="_ui_view_model_8h.html" target="_top" xlink:title="UiViewModel.h">
<polygon fill="none" stroke="black" points="518.5,-392.5 518.5,-411.5 604.5,-411.5 604.5,-392.5 518.5,-392.5"/>
<text text-anchor="middle" x="561.5" y="-399.5" font-family="FreeSans" font-size="10.00">UiViewModel.h</text>
</a>
</g>
</g>
<!-- Node9&#45;&gt;Node10 -->
<g id="edge9" class="edge"><title>Node9&#45;&gt;Node10</title>
<path fill="none" stroke="midnightblue" d="M510.301,-448.324C519.318,-440.341 532.906,-428.313 543.818,-418.653"/>
<polygon fill="midnightblue" stroke="midnightblue" points="546.353,-421.083 551.521,-411.834 541.713,-415.842 546.353,-421.083"/>
</g>
<!-- Node10&#45;&gt;Node5 -->
<g id="edge13" class="edge"><title>Node10&#45;&gt;Node5</title>
<path fill="none" stroke="midnightblue" d="M520.463,-392.471C479.392,-383.43 419.511,-368.73 399.5,-356 344.183,-320.811 326.246,-305.489 303.5,-244 297.994,-229.117 298.537,-210.971 300.145,-197.638"/>
<polygon fill="midnightblue" stroke="midnightblue" points="303.606,-198.158 301.637,-187.748 296.684,-197.114 303.606,-198.158"/>
</g>
<!-- Node11 -->
<g id="node11" class="node"><title>Node11</title>
<g id="a_node11"><a xlink:href="_nav_8h.html" target="_top" xlink:title="../Control/Nav.h">
<polygon fill="none" stroke="black" points="678.5,-336.5 678.5,-355.5 768.5,-355.5 768.5,-336.5 678.5,-336.5"/>
<text text-anchor="middle" x="723.5" y="-343.5" font-family="FreeSans" font-size="10.00">../Control/Nav.h</text>
</a>
</g>
</g>
<!-- Node10&#45;&gt;Node11 -->
<g id="edge10" class="edge"><title>Node10&#45;&gt;Node11</title>
<path fill="none" stroke="midnightblue" d="M587.169,-392.444C614.423,-383.359 657.684,-368.939 688.151,-358.783"/>
<polygon fill="midnightblue" stroke="midnightblue" points="689.571,-361.999 697.951,-355.516 687.357,-355.358 689.571,-361.999"/>
</g>
<!-- Node12 -->
<g id="node12" class="node"><title>Node12</title>
<g id="a_node12"><a xlink:href="_m_r___types_8h.html" target="_top" xlink:title="../Util/MR_Types.h">
<polygon fill="none" stroke="black" points="479,-56.5 479,-75.5 578,-75.5 578,-56.5 479,-56.5"/>
<text text-anchor="middle" x="528.5" y="-63.5" font-family="FreeSans" font-size="10.00">../Util/MR_Types.h</text>
</a>
</g>
</g>
<!-- Node10&#45;&gt;Node12 -->
<g id="edge11" class="edge"><title>Node10&#45;&gt;Node12</title>
<path fill="none" stroke="midnightblue" d="M575.799,-392.401C600.958,-376.058 650.5,-337.92 650.5,-291 650.5,-291 650.5,-291 650.5,-177 650.5,-128.568 596.812,-95.986 560.666,-79.5381"/>
<polygon fill="midnightblue" stroke="midnightblue" points="562.013,-76.3069 551.447,-75.5154 559.213,-82.7227 562.013,-76.3069"/>
</g>
<!-- Node14 -->
<g id="node14" class="node"><title>Node14</title>
<g id="a_node14"><a xlink:href="_ui_layout_flags_8h.html" target="_top" xlink:title="UiLayoutFlags.h">
<polygon fill="none" stroke="black" points="530.5,-224.5 530.5,-243.5 622.5,-243.5 622.5,-224.5 530.5,-224.5"/>
<text text-anchor="middle" x="576.5" y="-231.5" font-family="FreeSans" font-size="10.00">UiLayoutFlags.h</text>
</a>
</g>
</g>
<!-- Node10&#45;&gt;Node14 -->
<g id="edge14" class="edge"><title>Node10&#45;&gt;Node14</title>
<path fill="none" stroke="midnightblue" d="M562.306,-392.075C564.668,-365.945 571.601,-289.211 574.821,-253.577"/>
<polygon fill="midnightblue" stroke="midnightblue" points="578.312,-253.843 575.726,-243.568 571.34,-253.213 578.312,-253.843"/>
</g>
<!-- Node15 -->
<g id="node15" class="node"><title>Node15</title>
<g id="a_node15"><a xlink:href="_view_model_8h.html" target="_top" xlink:title="ViewModel.h">
<polygon fill="none" stroke="black" points="408.5,-336.5 408.5,-355.5 484.5,-355.5 484.5,-336.5 408.5,-336.5"/>
<text text-anchor="middle" x="446.5" y="-343.5" font-family="FreeSans" font-size="10.00">ViewModel.h</text>
</a>
</g>
</g>
<!-- Node10&#45;&gt;Node15 -->
<g id="edge16" class="edge"><title>Node10&#45;&gt;Node15</title>
<path fill="none" stroke="midnightblue" d="M543.278,-392.444C524.604,-383.675 495.344,-369.935 473.883,-359.858"/>
<polygon fill="midnightblue" stroke="midnightblue" points="475.176,-356.599 464.637,-355.516 472.201,-362.935 475.176,-356.599"/>
</g>
<!-- Node13 -->
<g id="node13" class="node"><title>Node13</title>
<polygon fill="none" stroke="#bfbfbf" points="496.5,-0.5 496.5,-19.5 560.5,-19.5 560.5,-0.5 496.5,-0.5"/>
<text text-anchor="middle" x="528.5" y="-7.5" font-family="FreeSans" font-size="10.00">inttypes.h</text>
</g>
<!-- Node12&#45;&gt;Node13 -->
<g id="edge12" class="edge"><title>Node12&#45;&gt;Node13</title>
<path fill="none" stroke="midnightblue" d="M528.5,-56.083C528.5,-49.0059 528.5,-38.8611 528.5,-29.9865"/>
<polygon fill="midnightblue" stroke="midnightblue" points="532,-29.751 528.5,-19.7511 525,-29.7511 532,-29.751"/>
</g>
<!-- Node14&#45;&gt;Node12 -->
<g id="edge15" class="edge"><title>Node14&#45;&gt;Node12</title>
<path fill="none" stroke="midnightblue" d="M580.954,-224.493C591.086,-203.879 613.486,-150.144 593.5,-112 586.221,-98.1082 572.491,-87.6523 559.517,-80.3328"/>
<polygon fill="midnightblue" stroke="midnightblue" points="560.796,-77.0532 550.308,-75.553 557.572,-83.2662 560.796,-77.0532"/>
</g>
<!-- Node16 -->
<g id="node16" class="node"><title>Node16</title>
<g id="a_node16"><a xlink:href="_display_8h.html" target="_top" xlink:title="Display.h">
<polygon fill="none" stroke="black" points="453,-280.5 453,-299.5 512,-299.5 512,-280.5 453,-280.5"/>
<text text-anchor="middle" x="482.5" y="-287.5" font-family="FreeSans" font-size="10.00">Display.h</text>
</a>
</g>
</g>
<!-- Node15&#45;&gt;Node16 -->
<g id="edge17" class="edge"><title>Node15&#45;&gt;Node16</title>
<path fill="none" stroke="midnightblue" d="M452.445,-336.083C457.477,-328.534 464.837,-317.495 471.013,-308.23"/>
<polygon fill="midnightblue" stroke="midnightblue" points="474.031,-310.013 476.666,-299.751 468.207,-306.13 474.031,-310.013"/>
</g>
<!-- Node23 -->
<g id="node23" class="node"><title>Node23</title>
<g id="a_node23"><a xlink:href="_view_attacher_8h.html" target="_top" xlink:title="ViewAttacher.h">
<polygon fill="none" stroke="black" points="312.5,-224.5 312.5,-243.5 400.5,-243.5 400.5,-224.5 312.5,-224.5"/>
<text text-anchor="middle" x="356.5" y="-231.5" font-family="FreeSans" font-size="10.00">ViewAttacher.h</text>
</a>
</g>
</g>
<!-- Node15&#45;&gt;Node23 -->
<g id="edge32" class="edge"><title>Node15&#45;&gt;Node23</title>
<path fill="none" stroke="midnightblue" d="M426.921,-336.44C411.734,-328.878 391.198,-316.487 378.5,-300 368.061,-286.445 362.41,-267.643 359.461,-253.747"/>
<polygon fill="midnightblue" stroke="midnightblue" points="362.891,-253.047 357.636,-243.848 356.008,-254.317 362.891,-253.047"/>
</g>
<!-- Node24 -->
<g id="node24" class="node"><title>Node24</title>
<g id="a_node24"><a xlink:href="_view_8h.html" target="_top" xlink:title="View.h">
<polygon fill="none" stroke="black" points="388,-280.5 388,-299.5 435,-299.5 435,-280.5 388,-280.5"/>
<text text-anchor="middle" x="411.5" y="-287.5" font-family="FreeSans" font-size="10.00">View.h</text>
</a>
</g>
</g>
<!-- Node15&#45;&gt;Node24 -->
<g id="edge31" class="edge"><title>Node15&#45;&gt;Node24</title>
<path fill="none" stroke="midnightblue" d="M440.72,-336.083C435.828,-328.534 428.673,-317.495 422.667,-308.23"/>
<polygon fill="midnightblue" stroke="midnightblue" points="425.548,-306.239 417.172,-299.751 419.674,-310.046 425.548,-306.239"/>
</g>
<!-- Node16&#45;&gt;Node5 -->
<g id="edge18" class="edge"><title>Node16&#45;&gt;Node5</title>
<path fill="none" stroke="midnightblue" d="M474.685,-280.431C462.051,-266.975 435.88,-240.704 409.5,-224 387.628,-210.15 360.761,-198.798 339.549,-190.96"/>
<polygon fill="midnightblue" stroke="midnightblue" points="340.533,-187.595 329.939,-187.505 338.165,-194.182 340.533,-187.595"/>
</g>
<!-- Node16&#45;&gt;Node14 -->
<g id="edge29" class="edge"><title>Node16&#45;&gt;Node14</title>
<path fill="none" stroke="midnightblue" d="M497.603,-280.324C512.403,-271.822 535.194,-258.729 552.482,-248.797"/>
<polygon fill="midnightblue" stroke="midnightblue" points="554.507,-251.671 561.435,-243.655 551.02,-245.601 554.507,-251.671"/>
</g>
<!-- Node17 -->
<g id="node17" class="node"><title>Node17</title>
<g id="a_node17"><a xlink:href="_styles_8h.html" target="_top" xlink:title="Styles.h">
<polygon fill="none" stroke="black" points="457,-224.5 457,-243.5 512,-243.5 512,-224.5 457,-224.5"/>
<text text-anchor="middle" x="484.5" y="-231.5" font-family="FreeSans" font-size="10.00">Styles.h</text>
</a>
</g>
</g>
<!-- Node16&#45;&gt;Node17 -->
<g id="edge19" class="edge"><title>Node16&#45;&gt;Node17</title>
<path fill="none" stroke="midnightblue" d="M482.83,-280.083C483.092,-273.006 483.468,-262.861 483.797,-253.986"/>
<polygon fill="midnightblue" stroke="midnightblue" points="487.303,-253.874 484.176,-243.751 480.308,-253.615 487.303,-253.874"/>
</g>
<!-- Node16&#45;&gt;Node23 -->
<g id="edge30" class="edge"><title>Node16&#45;&gt;Node23</title>
<path fill="none" stroke="midnightblue" d="M462.535,-280.444C441.891,-271.596 409.437,-257.687 385.868,-247.586"/>
<polygon fill="midnightblue" stroke="midnightblue" points="386.942,-244.239 376.372,-243.516 384.184,-250.673 386.942,-244.239"/>
</g>
<!-- Node17&#45;&gt;Node5 -->
<g id="edge20" class="edge"><title>Node17&#45;&gt;Node5</title>
<path fill="none" stroke="midnightblue" d="M456.615,-224.681C425.117,-215.283 373.768,-199.964 339.323,-189.688"/>
<polygon fill="midnightblue" stroke="midnightblue" points="340.235,-186.307 329.652,-186.802 338.234,-193.015 340.235,-186.307"/>
</g>
<!-- Node18 -->
<g id="node18" class="node"><title>Node18</title>
<g id="a_node18"><a xlink:href="_ui_font_8h.html" target="_top" xlink:title="UiFont.h">
<polygon fill="none" stroke="black" points="456.5,-168.5 456.5,-187.5 512.5,-187.5 512.5,-168.5 456.5,-168.5"/>
<text text-anchor="middle" x="484.5" y="-175.5" font-family="FreeSans" font-size="10.00">UiFont.h</text>
</a>
</g>
</g>
<!-- Node17&#45;&gt;Node18 -->
<g id="edge21" class="edge"><title>Node17&#45;&gt;Node18</title>
<path fill="none" stroke="midnightblue" d="M484.5,-224.083C484.5,-217.006 484.5,-206.861 484.5,-197.986"/>
<polygon fill="midnightblue" stroke="midnightblue" points="488,-197.751 484.5,-187.751 481,-197.751 488,-197.751"/>
</g>
<!-- Node21 -->
<g id="node21" class="node"><title>Node21</title>
<g id="a_node21"><a xlink:href="_color_8h.html" target="_top" xlink:title="Color.h">
<polygon fill="none" stroke="black" points="367.5,-168.5 367.5,-187.5 417.5,-187.5 417.5,-168.5 367.5,-168.5"/>
<text text-anchor="middle" x="392.5" y="-175.5" font-family="FreeSans" font-size="10.00">Color.h</text>
</a>
</g>
</g>
<!-- Node17&#45;&gt;Node21 -->
<g id="edge25" class="edge"><title>Node17&#45;&gt;Node21</title>
<path fill="none" stroke="midnightblue" d="M469.719,-224.324C455.233,-215.822 432.927,-202.729 416.007,-192.797"/>
<polygon fill="midnightblue" stroke="midnightblue" points="417.641,-189.698 407.245,-187.655 414.097,-195.735 417.641,-189.698"/>
</g>
<!-- Node19 -->
<g id="node19" class="node"><title>Node19</title>
<g id="a_node19"><a xlink:href="_hash_8h.html" target="_top" xlink:title="../Util/Hash.h">
<polygon fill="none" stroke="black" points="506.5,-112.5 506.5,-131.5 584.5,-131.5 584.5,-112.5 506.5,-112.5"/>
<text text-anchor="middle" x="545.5" y="-119.5" font-family="FreeSans" font-size="10.00">../Util/Hash.h</text>
</a>
</g>
</g>
<!-- Node18&#45;&gt;Node19 -->
<g id="edge22" class="edge"><title>Node18&#45;&gt;Node19</title>
<path fill="none" stroke="midnightblue" d="M494.301,-168.324C503.318,-160.341 516.906,-148.313 527.818,-138.653"/>
<polygon fill="midnightblue" stroke="midnightblue" points="530.353,-141.083 535.521,-131.834 525.713,-135.842 530.353,-141.083"/>
</g>
<!-- Node20 -->
<g id="node20" class="node"><title>Node20</title>
<g id="a_node20"><a xlink:href="_sel_fmt_8h.html" target="_top" xlink:title="../Util/SelFmt.h">
<polygon fill="none" stroke="black" points="401,-112.5 401,-131.5 488,-131.5 488,-112.5 401,-112.5"/>
<text text-anchor="middle" x="444.5" y="-119.5" font-family="FreeSans" font-size="10.00">../Util/SelFmt.h</text>
</a>
</g>
</g>
<!-- Node18&#45;&gt;Node20 -->
<g id="edge23" class="edge"><title>Node18&#45;&gt;Node20</title>
<path fill="none" stroke="midnightblue" d="M477.895,-168.083C472.245,-160.455 463.955,-149.264 457.049,-139.941"/>
<polygon fill="midnightblue" stroke="midnightblue" points="459.747,-137.703 450.982,-131.751 454.122,-141.87 459.747,-137.703"/>
</g>
<!-- Node20&#45;&gt;Node12 -->
<g id="edge24" class="edge"><title>Node20&#45;&gt;Node12</title>
<path fill="none" stroke="midnightblue" d="M457.996,-112.324C471.1,-103.9 491.212,-90.9709 506.607,-81.0741"/>
<polygon fill="midnightblue" stroke="midnightblue" points="508.518,-84.0063 515.037,-75.6545 504.733,-78.118 508.518,-84.0063"/>
</g>
<!-- Node21&#45;&gt;Node12 -->
<g id="edge27" class="edge"><title>Node21&#45;&gt;Node12</title>
<path fill="none" stroke="midnightblue" d="M389.417,-168.459C385.166,-155.04 379.321,-128.82 391.5,-112 409.154,-87.6198 440.445,-76.2143 468.669,-70.9739"/>
<polygon fill="midnightblue" stroke="midnightblue" points="469.59,-74.3702 478.898,-69.3096 468.466,-67.4611 469.59,-74.3702"/>
</g>
<!-- Node21&#45;&gt;Node20 -->
<g id="edge28" class="edge"><title>Node21&#45;&gt;Node20</title>
<path fill="none" stroke="midnightblue" d="M401.087,-168.083C408.659,-160.22 419.878,-148.569 429.014,-139.081"/>
<polygon fill="midnightblue" stroke="midnightblue" points="431.658,-141.382 436.073,-131.751 426.615,-136.527 431.658,-141.382"/>
</g>
<!-- Node22 -->
<g id="node22" class="node"><title>Node22</title>
<polygon fill="none" stroke="#bfbfbf" points="244.5,-112.5 244.5,-131.5 344.5,-131.5 344.5,-112.5 244.5,-112.5"/>
<text text-anchor="middle" x="294.5" y="-119.5" font-family="FreeSans" font-size="10.00">boost/format.hpp</text>
</g>
<!-- Node21&#45;&gt;Node22 -->
<g id="edge26" class="edge"><title>Node21&#45;&gt;Node22</title>
<path fill="none" stroke="midnightblue" d="M376.755,-168.324C361.181,-159.743 337.123,-146.486 319.041,-136.522"/>
<polygon fill="midnightblue" stroke="midnightblue" points="320.654,-133.415 310.206,-131.655 317.276,-139.546 320.654,-133.415"/>
</g>
</g>
</svg>
