<?xml version="1.0" encoding="UTF-8" standalone="no"?>
<!DOCTYPE svg PUBLIC "-//W3C//DTD SVG 1.1//EN"
 "http://www.w3.org/Graphics/SVG/1.1/DTD/svg11.dtd">
<!-- Generated by graphviz version 2.26.3 (20100126.1600)
 -->
<!-- Title: BitmapSurface.h Pages: 1 -->
<!--zoomable 436 -->
<svg id="main" version="1.1" xmlns="http://www.w3.org/2000/svg" xmlns:xlink="http://www.w3.org/1999/xlink" xml:space="preserve" onload="init(evt)">
        <defs>
                <circle id="rim" cx="0" cy="0" r="7"/>
                <circle id="rim2" cx="0" cy="0" r="3.5"/>
                <g id="zoomPlus">
                        <use xlink:href="#rim" fill="#404040">
                                <set attributeName="fill" to="#808080" begin="zoomplus.mouseover" end="zoomplus.mouseout"/>
                        </use>
                        <path d="M-4,0h8M0,-4v8" fill="none" stroke="white" stroke-width="1.5" pointer-events="none"/>
                </g>
                <g id="zoomMin">
                        <use xlink:href="#rim" fill="#404040">
                                <set attributeName="fill" to="#808080" begin="zoomminus.mouseover" end="zoomminus.mouseout"/>
                        </use>
                        <path d="M-4,0h8" fill="none" stroke="white" stroke-width="1.5" pointer-events="none"/>
                </g>
                <g id="dirArrow">
                        <path fill="none" stroke="white" stroke-width="1.5" d="M0,-3.0v7 M-2.5,-0.5L0,-3.0L2.5,-0.5"/>
                </g>
               <g id="resetDef">
                       <use xlink:href="#rim2" fill="#404040">
                               <set attributeName="fill" to="#808080" begin="reset.mouseover" end="reset.mouseout"/>
                       </use>
               </g>
        </defs>

<script type="text/javascript">
var viewWidth = 961;
var viewHeight = 436;
var sectionId = 'dynsection-0';
</script>
<script xlink:href="svgpan.js"/>
<svg id="graph" class="graph">
<g id="viewport">
<title>BitmapSurface.h</title>
<!-- Node1 -->
<g id="node1" class="node"><title>Node1</title>
<polygon fill="#bfbfbf" stroke="black" points="500.5,-407 500.5,-427 589.5,-427 589.5,-407 500.5,-407"/>
<text text-anchor="middle" x="545" y="-414" font-family="FreeSans" font-size="10.00">BitmapSurface.h</text>
</g>
<!-- Node2 -->
<g id="node3" class="node"><title>Node2</title>
<a xlink:href="_resource_lib_8h.html" target="_top" xlink:title="ResourceLib.h">
<polygon fill="none" stroke="black" points="545.5,-349 545.5,-369 624.5,-369 624.5,-349 545.5,-349"/>
<text text-anchor="middle" x="585" y="-356" font-family="FreeSans" font-size="10.00">ResourceLib.h</text>
</a>
</g>
<!-- Node1&#45;&gt;Node2 -->
<g id="edge2" class="edge"><title>Node1&#45;&gt;Node2</title>
<path fill="none" stroke="midnightblue" d="M551.967,-406.897C557.52,-398.846 565.446,-387.353 572.142,-377.643"/>
<polygon fill="midnightblue" stroke="midnightblue" points="575.047,-379.597 577.843,-369.378 569.284,-375.623 575.047,-379.597"/>
</g>
<!-- Node26 -->
<g id="node58" class="node"><title>Node26</title>
<a xlink:href="_maze_element_8h.html" target="_top" xlink:title="../Model/MazeElement.h">
<polygon fill="none" stroke="black" points="438.5,-291 438.5,-311 557.5,-311 557.5,-291 438.5,-291"/>
<text text-anchor="middle" x="498" y="-298" font-family="FreeSans" font-size="10.00">../Model/MazeElement.h</text>
</a>
</g>
<!-- Node1&#45;&gt;Node26 -->
<g id="edge64" class="edge"><title>Node1&#45;&gt;Node26</title>
<path fill="none" stroke="midnightblue" d="M540.829,-406.706C533.005,-387.396 516.01,-345.451 505.94,-320.596"/>
<polygon fill="midnightblue" stroke="midnightblue" points="509.094,-319.059 502.094,-311.106 502.606,-321.688 509.094,-319.059"/>
</g>
<!-- Node3 -->
<g id="node5" class="node"><title>Node3</title>
<polygon fill="none" stroke="#bfbfbf" points="574.5,-291 574.5,-311 609.5,-311 609.5,-291 574.5,-291"/>
<text text-anchor="middle" x="592" y="-298" font-family="FreeSans" font-size="10.00">map</text>
</g>
<!-- Node2&#45;&gt;Node3 -->
<g id="edge4" class="edge"><title>Node2&#45;&gt;Node3</title>
<path fill="none" stroke="midnightblue" d="M586.219,-348.897C587.131,-341.339 588.41,-330.748 589.532,-321.446"/>
<polygon fill="midnightblue" stroke="midnightblue" points="593.024,-321.725 590.748,-311.378 586.074,-320.886 593.024,-321.725"/>
</g>
<!-- Node4 -->
<g id="node7" class="node"><title>Node4</title>
<a xlink:href="_o_s_8h.html" target="_top" xlink:title="../Util/OS.h">
<polygon fill="none" stroke="black" points="798,-233 798,-253 862,-253 862,-233 798,-233"/>
<text text-anchor="middle" x="830" y="-240" font-family="FreeSans" font-size="10.00">../Util/OS.h</text>
</a>
</g>
<!-- Node2&#45;&gt;Node4 -->
<g id="edge6" class="edge"><title>Node2&#45;&gt;Node4</title>
<path fill="none" stroke="midnightblue" d="M623.479,-348.984C652.209,-340.82 692.029,-328.034 725,-312 755.896,-296.975 788.519,-274.32 809.05,-259.111"/>
<polygon fill="midnightblue" stroke="midnightblue" points="811.171,-261.895 817.068,-253.093 806.969,-256.297 811.171,-261.895"/>
</g>
<!-- Node10 -->
<g id="node19" class="node"><title>Node10</title>
<a xlink:href="_res_actor_8h.html" target="_top" xlink:title="ResActor.h">
<polygon fill="none" stroke="black" points="356.5,-291 356.5,-311 421.5,-311 421.5,-291 356.5,-291"/>
<text text-anchor="middle" x="389" y="-298" font-family="FreeSans" font-size="10.00">ResActor.h</text>
</a>
</g>
<!-- Node2&#45;&gt;Node10 -->
<g id="edge18" class="edge"><title>Node2&#45;&gt;Node10</title>
<path fill="none" stroke="midnightblue" d="M550.859,-348.897C517.676,-339.078 467.19,-324.138 431.438,-313.558"/>
<polygon fill="midnightblue" stroke="midnightblue" points="432.354,-310.179 421.771,-310.698 430.367,-316.891 432.354,-310.179"/>
</g>
<!-- Node21 -->
<g id="node45" class="node"><title>Node21</title>
<a xlink:href="_res_sprite_8h.html" target="_top" xlink:title="ResSprite.h">
<polygon fill="none" stroke="black" points="195.5,-291 195.5,-311 262.5,-311 262.5,-291 195.5,-291"/>
<text text-anchor="middle" x="229" y="-298" font-family="FreeSans" font-size="10.00">ResSprite.h</text>
</a>
</g>
<!-- Node2&#45;&gt;Node21 -->
<g id="edge48" class="edge"><title>Node2&#45;&gt;Node21</title>
<path fill="none" stroke="midnightblue" d="M545.199,-352.515C477.979,-341.564 342.48,-319.488 272.711,-308.121"/>
<polygon fill="midnightblue" stroke="midnightblue" points="272.937,-304.612 262.504,-306.458 271.811,-311.521 272.937,-304.612"/>
</g>
<!-- Node24 -->
<g id="node53" class="node"><title>Node24</title>
<a xlink:href="_res_sound_8h.html" target="_top" xlink:title="ResSound.h">
<polygon fill="none" stroke="black" points="647.5,-291 647.5,-311 716.5,-311 716.5,-291 647.5,-291"/>
<text text-anchor="middle" x="682" y="-298" font-family="FreeSans" font-size="10.00">ResSound.h</text>
</a>
</g>
<!-- Node2&#45;&gt;Node24 -->
<g id="edge58" class="edge"><title>Node2&#45;&gt;Node24</title>
<path fill="none" stroke="midnightblue" d="M601.896,-348.897C616.826,-339.97 638.834,-326.811 656.006,-316.543"/>
<polygon fill="midnightblue" stroke="midnightblue" points="658.186,-319.318 664.972,-311.182 654.593,-313.31 658.186,-319.318"/>
</g>
<!-- Node5 -->
<g id="node9" class="node"><title>Node5</title>
<polygon fill="none" stroke="#bfbfbf" points="911,-175 911,-195 953,-195 953,-175 911,-175"/>
<text text-anchor="middle" x="932" y="-182" font-family="FreeSans" font-size="10.00">locale</text>
</g>
<!-- Node4&#45;&gt;Node5 -->
<g id="edge8" class="edge"><title>Node4&#45;&gt;Node5</title>
<path fill="none" stroke="midnightblue" d="M847.767,-232.897C863.612,-223.887 887.038,-210.567 905.166,-200.259"/>
<polygon fill="midnightblue" stroke="midnightblue" points="907.131,-203.167 914.094,-195.182 903.671,-197.082 907.131,-203.167"/>
</g>
<!-- Node6 -->
<g id="node11" class="node"><title>Node6</title>
<polygon fill="none" stroke="#bfbfbf" points="741,-175 741,-195 771,-195 771,-175 741,-175"/>
<text text-anchor="middle" x="756" y="-182" font-family="FreeSans" font-size="10.00">set</text>
</g>
<!-- Node4&#45;&gt;Node6 -->
<g id="edge10" class="edge"><title>Node4&#45;&gt;Node6</title>
<path fill="none" stroke="midnightblue" d="M817.11,-232.897C806.104,-224.271 790.058,-211.694 777.169,-201.592"/>
<polygon fill="midnightblue" stroke="midnightblue" points="779.27,-198.792 769.24,-195.378 774.952,-204.301 779.27,-198.792"/>
</g>
<!-- Node7 -->
<g id="node13" class="node"><title>Node7</title>
<polygon fill="none" stroke="#bfbfbf" points="682.5,-175 682.5,-195 723.5,-195 723.5,-175 682.5,-175"/>
<text text-anchor="middle" x="703" y="-182" font-family="FreeSans" font-size="10.00">string</text>
</g>
<!-- Node4&#45;&gt;Node7 -->
<g id="edge12" class="edge"><title>Node4&#45;&gt;Node7</title>
<path fill="none" stroke="midnightblue" d="M807.878,-232.897C787.109,-223.412 755.879,-209.15 732.898,-198.654"/>
<polygon fill="midnightblue" stroke="midnightblue" points="734.158,-195.382 723.608,-194.411 731.25,-201.749 734.158,-195.382"/>
</g>
<!-- Node8 -->
<g id="node15" class="node"><title>Node8</title>
<polygon fill="none" stroke="#bfbfbf" points="619,-175 619,-195 663,-195 663,-175 619,-175"/>
<text text-anchor="middle" x="641" y="-182" font-family="FreeSans" font-size="10.00">vector</text>
</g>
<!-- Node4&#45;&gt;Node8 -->
<g id="edge14" class="edge"><title>Node4&#45;&gt;Node8</title>
<path fill="none" stroke="midnightblue" d="M797.948,-233.64C766.352,-224.343 716.734,-209.557 674,-196 673.676,-195.897 673.351,-195.794 673.024,-195.69"/>
<polygon fill="midnightblue" stroke="midnightblue" points="673.93,-192.304 663.338,-192.544 671.768,-198.962 673.93,-192.304"/>
</g>
<!-- Node9 -->
<g id="node17" class="node"><title>Node9</title>
<polygon fill="none" stroke="#bfbfbf" points="788.5,-175 788.5,-195 893.5,-195 893.5,-175 788.5,-175"/>
<text text-anchor="middle" x="841" y="-182" font-family="FreeSans" font-size="10.00">boost/filesystem.hpp</text>
</g>
<!-- Node4&#45;&gt;Node9 -->
<g id="edge16" class="edge"><title>Node4&#45;&gt;Node9</title>
<path fill="none" stroke="midnightblue" d="M831.916,-232.897C833.349,-225.339 835.358,-214.748 837.122,-205.446"/>
<polygon fill="midnightblue" stroke="midnightblue" points="840.607,-205.855 839.032,-195.378 833.73,-204.55 840.607,-205.855"/>
</g>
<!-- Node11 -->
<g id="node21" class="node"><title>Node11</title>
<a xlink:href="_res_bitmap_8h.html" target="_top" xlink:title="ResBitmap.h">
<polygon fill="none" stroke="black" points="398,-233 398,-253 470,-253 470,-233 398,-233"/>
<text text-anchor="middle" x="434" y="-240" font-family="FreeSans" font-size="10.00">ResBitmap.h</text>
</a>
</g>
<!-- Node10&#45;&gt;Node11 -->
<g id="edge20" class="edge"><title>Node10&#45;&gt;Node11</title>
<path fill="none" stroke="midnightblue" d="M396.838,-290.897C403.149,-282.764 412.184,-271.118 419.765,-261.347"/>
<polygon fill="midnightblue" stroke="midnightblue" points="422.584,-263.424 425.948,-253.378 417.053,-259.133 422.584,-263.424"/>
</g>
<!-- Node15 -->
<g id="node29" class="node"><title>Node15</title>
<a xlink:href="_viewport3_d_8h.html" target="_top" xlink:title="../VideoServices/Viewport3D.h">
<polygon fill="none" stroke="black" points="232,-233 232,-253 380,-253 380,-233 232,-233"/>
<text text-anchor="middle" x="306" y="-240" font-family="FreeSans" font-size="10.00">../VideoServices/Viewport3D.h</text>
</a>
</g>
<!-- Node10&#45;&gt;Node15 -->
<g id="edge28" class="edge"><title>Node10&#45;&gt;Node15</title>
<path fill="none" stroke="midnightblue" d="M374.543,-290.897C362.004,-282.135 343.631,-269.297 329.063,-259.116"/>
<polygon fill="midnightblue" stroke="midnightblue" points="330.772,-256.041 320.57,-253.182 326.762,-261.779 330.772,-256.041"/>
</g>
<!-- Node12 -->
<g id="node23" class="node"><title>Node12</title>
<a xlink:href="_bitmap_8h.html" target="_top" xlink:title="../VideoServices/Bitmap.h">
<polygon fill="none" stroke="black" points="326,-175 326,-195 454,-195 454,-175 326,-175"/>
<text text-anchor="middle" x="390" y="-182" font-family="FreeSans" font-size="10.00">../VideoServices/Bitmap.h</text>
</a>
</g>
<!-- Node11&#45;&gt;Node12 -->
<g id="edge22" class="edge"><title>Node11&#45;&gt;Node12</title>
<path fill="none" stroke="midnightblue" d="M426.336,-232.897C420.166,-224.764 411.331,-213.118 403.918,-203.347"/>
<polygon fill="midnightblue" stroke="midnightblue" points="406.705,-201.229 397.873,-195.378 401.128,-205.46 406.705,-201.229"/>
</g>
<!-- Node13 -->
<g id="node25" class="node"><title>Node13</title>
<a xlink:href="_m_r___types_8h.html" target="_top" xlink:title="../Util/MR_Types.h">
<polygon fill="none" stroke="black" points="185,-59 185,-79 281,-79 281,-59 185,-59"/>
<text text-anchor="middle" x="233" y="-66" font-family="FreeSans" font-size="10.00">../Util/MR_Types.h</text>
</a>
</g>
<!-- Node12&#45;&gt;Node13 -->
<g id="edge24" class="edge"><title>Node12&#45;&gt;Node13</title>
<path fill="none" stroke="midnightblue" d="M384.876,-174.787C377.025,-160.04 360.726,-132.719 340,-116 321.596,-101.154 297.773,-90.084 277.279,-82.4294"/>
<polygon fill="midnightblue" stroke="midnightblue" points="278.422,-79.1211 267.827,-79.0481 276.064,-85.7121 278.422,-79.1211"/>
</g>
<!-- Node14 -->
<g id="node27" class="node"><title>Node14</title>
<polygon fill="none" stroke="#bfbfbf" points="204,-1 204,-21 262,-21 262,-1 204,-1"/>
<text text-anchor="middle" x="233" y="-8" font-family="FreeSans" font-size="10.00">inttypes.h</text>
</g>
<!-- Node13&#45;&gt;Node14 -->
<g id="edge26" class="edge"><title>Node13&#45;&gt;Node14</title>
<path fill="none" stroke="midnightblue" d="M233,-58.8972C233,-51.339 233,-40.7476 233,-31.4458"/>
<polygon fill="midnightblue" stroke="midnightblue" points="236.5,-31.3776 233,-21.3776 229.5,-31.3776 236.5,-31.3776"/>
</g>
<!-- Node15&#45;&gt;Node12 -->
<g id="edge40" class="edge"><title>Node15&#45;&gt;Node12</title>
<path fill="none" stroke="midnightblue" d="M320.632,-232.897C333.322,-224.135 351.915,-211.297 366.659,-201.116"/>
<polygon fill="midnightblue" stroke="midnightblue" points="369.014,-203.744 375.254,-195.182 365.036,-197.983 369.014,-203.744"/>
</g>
<!-- Node16 -->
<g id="node31" class="node"><title>Node16</title>
<a xlink:href="_viewport2_d_8h.html" target="_top" xlink:title="Viewport2D.h">
<polygon fill="none" stroke="black" points="140,-175 140,-195 214,-195 214,-175 140,-175"/>
<text text-anchor="middle" x="177" y="-182" font-family="FreeSans" font-size="10.00">Viewport2D.h</text>
</a>
</g>
<!-- Node15&#45;&gt;Node16 -->
<g id="edge30" class="edge"><title>Node15&#45;&gt;Node16</title>
<path fill="none" stroke="midnightblue" d="M283.53,-232.897C262.939,-223.639 232.225,-209.83 209.06,-199.415"/>
<polygon fill="midnightblue" stroke="midnightblue" points="210.201,-196.09 199.645,-195.182 207.331,-202.475 210.201,-196.09"/>
</g>
<!-- Node17 -->
<g id="node34" class="node"><title>Node17</title>
<a xlink:href="_color_palette_8h.html" target="_top" xlink:title="ColorPalette.h">
<polygon fill="none" stroke="black" points="231.5,-175 231.5,-195 308.5,-195 308.5,-175 231.5,-175"/>
<text text-anchor="middle" x="270" y="-182" font-family="FreeSans" font-size="10.00">ColorPalette.h</text>
</a>
</g>
<!-- Node15&#45;&gt;Node17 -->
<g id="edge34" class="edge"><title>Node15&#45;&gt;Node17</title>
<path fill="none" stroke="midnightblue" d="M299.729,-232.897C294.783,-224.928 287.744,-213.587 281.757,-203.941"/>
<polygon fill="midnightblue" stroke="midnightblue" points="284.689,-202.028 276.441,-195.378 278.741,-205.72 284.689,-202.028"/>
</g>
<!-- Node19 -->
<g id="node40" class="node"><title>Node19</title>
<a xlink:href="_patch_8h.html" target="_top" xlink:title="Patch.h">
<polygon fill="none" stroke="black" points="472,-175 472,-195 522,-195 522,-175 472,-175"/>
<text text-anchor="middle" x="497" y="-182" font-family="FreeSans" font-size="10.00">Patch.h</text>
</a>
</g>
<!-- Node15&#45;&gt;Node19 -->
<g id="edge42" class="edge"><title>Node15&#45;&gt;Node19</title>
<path fill="none" stroke="midnightblue" d="M340.368,-232.948C370.167,-224.18 414.689,-210.955 461.963,-196.283"/>
<polygon fill="midnightblue" stroke="midnightblue" points="463.261,-199.545 471.769,-193.231 461.18,-192.861 463.261,-199.545"/>
</g>
<!-- Node16&#45;&gt;Node13 -->
<g id="edge32" class="edge"><title>Node16&#45;&gt;Node13</title>
<path fill="none" stroke="midnightblue" d="M181.97,-174.706C191.333,-155.31 211.722,-113.076 223.7,-88.2637"/>
<polygon fill="midnightblue" stroke="midnightblue" points="226.926,-89.6327 228.121,-79.1055 220.622,-86.5894 226.926,-89.6327"/>
</g>
<!-- Node17&#45;&gt;Node13 -->
<g id="edge38" class="edge"><title>Node17&#45;&gt;Node13</title>
<path fill="none" stroke="midnightblue" d="M265.703,-174.65C261.859,-165.196 256.197,-150.785 252,-138 246.679,-121.792 241.6,-103.122 238.035,-89.2936"/>
<polygon fill="midnightblue" stroke="midnightblue" points="241.372,-88.215 235.524,-79.3805 234.586,-89.9338 241.372,-88.215"/>
</g>
<!-- Node18 -->
<g id="node36" class="node"><title>Node18</title>
<polygon fill="none" stroke="#bfbfbf" points="260.5,-117 260.5,-137 331.5,-137 331.5,-117 260.5,-117"/>
<text text-anchor="middle" x="296" y="-124" font-family="FreeSans" font-size="10.00">SDL2/SDL.h</text>
</g>
<!-- Node17&#45;&gt;Node18 -->
<g id="edge36" class="edge"><title>Node17&#45;&gt;Node18</title>
<path fill="none" stroke="midnightblue" d="M274.529,-174.897C278.027,-167.093 282.976,-156.054 287.241,-146.54"/>
<polygon fill="midnightblue" stroke="midnightblue" points="290.451,-147.934 291.348,-137.378 284.064,-145.071 290.451,-147.934"/>
</g>
<!-- Node20 -->
<g id="node42" class="node"><title>Node20</title>
<a xlink:href="_world_coordinates_8h.html" target="_top" xlink:title="../Util/WorldCoordinates.h">
<polygon fill="none" stroke="black" points="434,-117 434,-137 560,-137 560,-117 434,-117"/>
<text text-anchor="middle" x="497" y="-124" font-family="FreeSans" font-size="10.00">../Util/WorldCoordinates.h</text>
</a>
</g>
<!-- Node19&#45;&gt;Node20 -->
<g id="edge44" class="edge"><title>Node19&#45;&gt;Node20</title>
<path fill="none" stroke="midnightblue" d="M497,-174.897C497,-167.339 497,-156.748 497,-147.446"/>
<polygon fill="midnightblue" stroke="midnightblue" points="500.5,-147.378 497,-137.378 493.5,-147.378 500.5,-147.378"/>
</g>
<!-- Node20&#45;&gt;Node13 -->
<g id="edge46" class="edge"><title>Node20&#45;&gt;Node13</title>
<path fill="none" stroke="midnightblue" d="M451.316,-116.963C406.125,-107.035 336.897,-91.8259 288.55,-81.2042"/>
<polygon fill="midnightblue" stroke="midnightblue" points="289.084,-77.7382 278.566,-79.0108 287.582,-84.5751 289.084,-77.7382"/>
</g>
<!-- Node22 -->
<g id="node47" class="node"><title>Node22</title>
<a xlink:href="_sprite_8h.html" target="_top" xlink:title="../VideoServices/Sprite.h">
<polygon fill="none" stroke="black" points="91.5,-233 91.5,-253 214.5,-253 214.5,-233 91.5,-233"/>
<text text-anchor="middle" x="153" y="-240" font-family="FreeSans" font-size="10.00">../VideoServices/Sprite.h</text>
</a>
</g>
<!-- Node21&#45;&gt;Node22 -->
<g id="edge50" class="edge"><title>Node21&#45;&gt;Node22</title>
<path fill="none" stroke="midnightblue" d="M215.762,-290.897C204.389,-282.218 187.774,-269.538 174.497,-259.405"/>
<polygon fill="midnightblue" stroke="midnightblue" points="176.414,-256.466 166.341,-253.182 172.168,-262.031 176.414,-256.466"/>
</g>
<!-- Node22&#45;&gt;Node16 -->
<g id="edge52" class="edge"><title>Node22&#45;&gt;Node16</title>
<path fill="none" stroke="midnightblue" d="M157.18,-232.897C160.376,-225.175 164.882,-214.286 168.79,-204.841"/>
<polygon fill="midnightblue" stroke="midnightblue" points="172.116,-205.956 172.706,-195.378 165.648,-203.28 172.116,-205.956"/>
</g>
<!-- Node23 -->
<g id="node50" class="node"><title>Node23</title>
<a xlink:href="_dll_object_factory_8h.html" target="_top" xlink:title="../Util/DllObjectFactory.h">
<polygon fill="none" stroke="black" points="0,-175 0,-195 122,-195 122,-175 0,-175"/>
<text text-anchor="middle" x="61" y="-182" font-family="FreeSans" font-size="10.00">../Util/DllObjectFactory.h</text>
</a>
</g>
<!-- Node22&#45;&gt;Node23 -->
<g id="edge54" class="edge"><title>Node22&#45;&gt;Node23</title>
<path fill="none" stroke="midnightblue" d="M136.975,-232.897C122.814,-223.97 101.941,-210.811 85.6545,-200.543"/>
<polygon fill="midnightblue" stroke="midnightblue" points="87.4761,-197.554 77.1502,-195.182 83.7429,-203.475 87.4761,-197.554"/>
</g>
<!-- Node23&#45;&gt;Node13 -->
<g id="edge56" class="edge"><title>Node23&#45;&gt;Node13</title>
<path fill="none" stroke="midnightblue" d="M75.963,-174.909C105.951,-154.684 173.603,-109.058 209.539,-84.8228"/>
<polygon fill="midnightblue" stroke="midnightblue" points="211.615,-87.6438 217.949,-79.1506 207.701,-81.8403 211.615,-87.6438"/>
</g>
<!-- Node25 -->
<g id="node55" class="node"><title>Node25</title>
<a xlink:href="_sound_server_8h.html" target="_top" xlink:title="../VideoServices/SoundServer.h">
<polygon fill="none" stroke="black" points="626,-233 626,-253 780,-253 780,-233 626,-233"/>
<text text-anchor="middle" x="703" y="-240" font-family="FreeSans" font-size="10.00">../VideoServices/SoundServer.h</text>
</a>
</g>
<!-- Node24&#45;&gt;Node25 -->
<g id="edge60" class="edge"><title>Node24&#45;&gt;Node25</title>
<path fill="none" stroke="midnightblue" d="M685.658,-290.897C688.454,-283.175 692.397,-272.286 695.816,-262.841"/>
<polygon fill="midnightblue" stroke="midnightblue" points="699.129,-263.972 699.243,-253.378 692.547,-261.589 699.129,-263.972"/>
</g>
<!-- Node25&#45;&gt;Node7 -->
<g id="edge62" class="edge"><title>Node25&#45;&gt;Node7</title>
<path fill="none" stroke="midnightblue" d="M703,-232.897C703,-225.339 703,-214.748 703,-205.446"/>
<polygon fill="midnightblue" stroke="midnightblue" points="706.5,-205.378 703,-195.378 699.5,-205.378 706.5,-205.378"/>
</g>
<!-- Node26&#45;&gt;Node15 -->
<g id="edge78" class="edge"><title>Node26&#45;&gt;Node15</title>
<path fill="none" stroke="midnightblue" d="M464.556,-290.897C432.58,-281.238 384.203,-266.624 349.297,-256.079"/>
<polygon fill="midnightblue" stroke="midnightblue" points="349.967,-252.626 339.382,-253.084 347.943,-259.326 349.967,-252.626"/>
</g>
<!-- Node26&#45;&gt;Node23 -->
<g id="edge76" class="edge"><title>Node26&#45;&gt;Node23</title>
<path fill="none" stroke="midnightblue" d="M438.324,-291.149C435.512,-290.747 432.727,-290.362 430,-290 353.148,-279.806 143.146,-302.913 83,-254 68.6353,-242.318 63.517,-221.245 61.7607,-205.449"/>
<polygon fill="midnightblue" stroke="midnightblue" points="65.2225,-204.804 60.9918,-195.091 58.2417,-205.322 65.2225,-204.804"/>
</g>
<!-- Node27 -->
<g id="node60" class="node"><title>Node27</title>
<a xlink:href="_shapes_8h.html" target="_top" xlink:title="Shapes.h">
<polygon fill="none" stroke="black" points="539.5,-175 539.5,-195 596.5,-195 596.5,-175 539.5,-175"/>
<text text-anchor="middle" x="568" y="-182" font-family="FreeSans" font-size="10.00">Shapes.h</text>
</a>
</g>
<!-- Node26&#45;&gt;Node27 -->
<g id="edge66" class="edge"><title>Node26&#45;&gt;Node27</title>
<path fill="none" stroke="midnightblue" d="M499.011,-290.946C500.799,-276.866 505.488,-250.884 517,-232 524.149,-220.273 535.052,-209.666 544.944,-201.508"/>
<polygon fill="midnightblue" stroke="midnightblue" points="547.202,-204.186 552.912,-195.262 542.883,-198.677 547.202,-204.186"/>
</g>
<!-- Node28 -->
<g id="node63" class="node"><title>Node28</title>
<a xlink:href="_contact_effect_8h.html" target="_top" xlink:title="ContactEffect.h">
<polygon fill="none" stroke="black" points="525.5,-233 525.5,-253 608.5,-253 608.5,-233 525.5,-233"/>
<text text-anchor="middle" x="567" y="-240" font-family="FreeSans" font-size="10.00">ContactEffect.h</text>
</a>
</g>
<!-- Node26&#45;&gt;Node28 -->
<g id="edge70" class="edge"><title>Node26&#45;&gt;Node28</title>
<path fill="none" stroke="midnightblue" d="M510.019,-290.897C520.183,-282.353 534.959,-269.933 546.917,-259.881"/>
<polygon fill="midnightblue" stroke="midnightblue" points="549.251,-262.491 554.654,-253.378 544.747,-257.133 549.251,-262.491"/>
</g>
<!-- Node27&#45;&gt;Node20 -->
<g id="edge68" class="edge"><title>Node27&#45;&gt;Node20</title>
<path fill="none" stroke="midnightblue" d="M555.633,-174.897C545.174,-166.353 529.97,-153.933 517.665,-143.881"/>
<polygon fill="midnightblue" stroke="midnightblue" points="519.662,-140.994 509.704,-137.378 515.234,-146.415 519.662,-140.994"/>
</g>
<!-- Node28&#45;&gt;Node8 -->
<g id="edge72" class="edge"><title>Node28&#45;&gt;Node8</title>
<path fill="none" stroke="midnightblue" d="M579.89,-232.897C590.896,-224.271 606.942,-211.694 619.831,-201.592"/>
<polygon fill="midnightblue" stroke="midnightblue" points="622.048,-204.301 627.76,-195.378 617.73,-198.792 622.048,-204.301"/>
</g>
<!-- Node28&#45;&gt;Node27 -->
<g id="edge74" class="edge"><title>Node28&#45;&gt;Node27</title>
<path fill="none" stroke="midnightblue" d="M567.174,-232.897C567.304,-225.339 567.487,-214.748 567.647,-205.446"/>
<polygon fill="midnightblue" stroke="midnightblue" points="571.148,-205.436 567.821,-195.378 564.149,-205.316 571.148,-205.436"/>
</g>
</g>
</svg>
        <g id="navigator" transform="translate(0 0)" fill="#404254">
                <rect fill="#f2f5e9" fill-opacity="0.5" stroke="#606060" stroke-width=".5" x="0" y="0" width="60" height="60"/>
                <use id="zoomplus" xlink:href="#zoomPlus" x="17" y="9" onmousedown="handleZoom(evt,'in')"/>
                <use id="zoomminus" xlink:href="#zoomMin" x="42" y="9" onmousedown="handleZoom(evt,'out')"/>
                <use id="reset" xlink:href="#resetDef" x="30" y="36" onmousedown="handleReset()"/>
                <g id="arrowUp" xlink:href="#dirArrow" transform="translate(30 24)" onmousedown="handlePan(0,-1)">
                  <use xlink:href="#rim" fill="#404040">
                        <set attributeName="fill" to="#808080" begin="arrowUp.mouseover" end="arrowUp.mouseout"/>
                  </use>
                  <path fill="none" stroke="white" stroke-width="1.5" d="M0,-3.0v7 M-2.5,-0.5L0,-3.0L2.5,-0.5"/>
                </g>
                <g id="arrowRight" xlink:href="#dirArrow" transform="rotate(90) translate(36 -43)" onmousedown="handlePan(1,0)">
                  <use xlink:href="#rim" fill="#404040">
                        <set attributeName="fill" to="#808080" begin="arrowRight.mouseover" end="arrowRight.mouseout"/>
                  </use>
                  <path fill="none" stroke="white" stroke-width="1.5" d="M0,-3.0v7 M-2.5,-0.5L0,-3.0L2.5,-0.5"/>
                </g>
                <g id="arrowDown" xlink:href="#dirArrow" transform="rotate(180) translate(-30 -48)" onmousedown="handlePan(0,1)">
                  <use xlink:href="#rim" fill="#404040">
                        <set attributeName="fill" to="#808080" begin="arrowDown.mouseover" end="arrowDown.mouseout"/>
                  </use>
                  <path fill="none" stroke="white" stroke-width="1.5" d="M0,-3.0v7 M-2.5,-0.5L0,-3.0L2.5,-0.5"/>
                </g>
                <g id="arrowLeft" xlink:href="#dirArrow" transform="rotate(270) translate(-36 17)" onmousedown="handlePan(-1,0)">
                  <use xlink:href="#rim" fill="#404040">
                        <set attributeName="fill" to="#808080" begin="arrowLeft.mouseover" end="arrowLeft.mouseout"/>
                  </use>
                  <path fill="none" stroke="white" stroke-width="1.5" d="M0,-3.0v7 M-2.5,-0.5L0,-3.0L2.5,-0.5"/>
                </g>
        </g>
        <svg viewBox="0 0 15 15" width="100%" height="30px" preserveAspectRatio="xMaxYMin meet">
         <g id="arrow_out" transform="scale(0.3 0.3)">
          <a xlink:href="_bitmap_surface_8h__incl_org.svg" target="_base">
           <rect id="button" ry="5" rx="5" y="6" x="6" height="38" width="38"
                fill="#f2f5e9" fill-opacity="0.5" stroke="#606060" stroke-width="1.0"/>
           <path id="arrow"
             d="M 11.500037,31.436501 C 11.940474,20.09759 22.043105,11.32322 32.158766,21.979434 L 37.068811,17.246167 C 37.068811,17.246167 37.088388,32 37.088388,32 L 22.160133,31.978069 C 22.160133,31.978069 26.997745,27.140456 26.997745,27.140456 C 18.528582,18.264221 13.291696,25.230495 11.500037,31.436501 z"
             style="fill:#404040;"/>
          </a>
         </g>
        </svg>
</svg>
