<?xml version="1.0" encoding="UTF-8" standalone="no"?>
<!DOCTYPE svg PUBLIC "-//W3C//DTD SVG 1.1//EN"
 "http://www.w3.org/Graphics/SVG/1.1/DTD/svg11.dtd">
<!-- Generated by graphviz version 2.26.3 (20100126.1600)
 -->
<!-- Title: BitmapSurface.h Pages: 1 -->
<svg width="1068pt" height="494pt"
 viewBox="0.00 0.00 1068.00 494.00" xmlns="http://www.w3.org/2000/svg" xmlns:xlink="http://www.w3.org/1999/xlink">
<g id="graph1" class="graph" transform="scale(1 1) rotate(0) translate(4 490)">
<title>BitmapSurface.h</title>
<!-- Node1 -->
<g id="node1" class="node"><title>Node1</title>
<polygon fill="#bfbfbf" stroke="black" points="416.5,-465 416.5,-485 505.5,-485 505.5,-465 416.5,-465"/>
<text text-anchor="middle" x="461" y="-472" font-family="FreeSans" font-size="10.00">BitmapSurface.h</text>
</g>
<!-- Node2 -->
<g id="node3" class="node"><title>Node2</title>
<a xlink:href="_resource_lib_8h.html" target="_top" xlink:title="ResourceLib.h">
<polygon fill="none" stroke="black" points="359.5,-407 359.5,-427 438.5,-427 438.5,-407 359.5,-407"/>
<text text-anchor="middle" x="399" y="-414" font-family="FreeSans" font-size="10.00">ResourceLib.h</text>
</a>
</g>
<!-- Node1&#45;&gt;Node2 -->
<g id="edge2" class="edge"><title>Node1&#45;&gt;Node2</title>
<path fill="none" stroke="midnightblue" d="M450.2,-464.897C441.243,-456.517 428.3,-444.409 417.668,-434.464"/>
<polygon fill="midnightblue" stroke="midnightblue" points="419.787,-431.653 410.093,-427.378 415.005,-436.765 419.787,-431.653"/>
</g>
<!-- Node29 -->
<g id="node69" class="node"><title>Node29</title>
<a xlink:href="_maze_element_8h.html" target="_top" xlink:title="../Model/MazeElement.h">
<polygon fill="none" stroke="black" points="461.5,-291 461.5,-311 580.5,-311 580.5,-291 461.5,-291"/>
<text text-anchor="middle" x="521" y="-298" font-family="FreeSans" font-size="10.00">../Model/MazeElement.h</text>
</a>
</g>
<!-- Node1&#45;&gt;Node29 -->
<g id="edge80" class="edge"><title>Node1&#45;&gt;Node29</title>
<path fill="none" stroke="midnightblue" d="M464.485,-464.893C474.137,-436.903 501.345,-357.999 514.161,-320.832"/>
<polygon fill="midnightblue" stroke="midnightblue" points="517.554,-321.73 517.505,-311.135 510.936,-319.448 517.554,-321.73"/>
</g>
<!-- Node3 -->
<g id="node5" class="node"><title>Node3</title>
<polygon fill="none" stroke="#bfbfbf" points="285.5,-349 285.5,-369 320.5,-369 320.5,-349 285.5,-349"/>
<text text-anchor="middle" x="303" y="-356" font-family="FreeSans" font-size="10.00">map</text>
</g>
<!-- Node2&#45;&gt;Node3 -->
<g id="edge4" class="edge"><title>Node2&#45;&gt;Node3</title>
<path fill="none" stroke="midnightblue" d="M382.278,-406.897C367.502,-397.97 345.721,-384.811 328.726,-374.543"/>
<polygon fill="midnightblue" stroke="midnightblue" points="330.221,-371.357 319.852,-369.182 326.602,-377.349 330.221,-371.357"/>
</g>
<!-- Node4 -->
<g id="node7" class="node"><title>Node4</title>
<a xlink:href="_o_s_8h.html" target="_top" xlink:title="../Util/OS.h">
<polygon fill="none" stroke="black" points="854,-117 854,-137 918,-137 918,-117 854,-117"/>
<text text-anchor="middle" x="886" y="-124" font-family="FreeSans" font-size="10.00">../Util/OS.h</text>
</a>
</g>
<!-- Node2&#45;&gt;Node4 -->
<g id="edge6" class="edge"><title>Node2&#45;&gt;Node4</title>
<path fill="none" stroke="midnightblue" d="M438.75,-413.353C570.417,-400.748 984,-356.717 984,-301 984,-301 984,-301 984,-243 984,-198.561 941.512,-162.351 912.488,-142.8"/>
<polygon fill="midnightblue" stroke="midnightblue" points="914.269,-139.784 903.975,-137.277 910.459,-145.656 914.269,-139.784"/>
</g>
<!-- Node12 -->
<g id="node23" class="node"><title>Node12</title>
<a xlink:href="_res_actor_8h.html" target="_top" xlink:title="ResActor.h">
<polygon fill="none" stroke="black" points="199.5,-291 199.5,-311 264.5,-311 264.5,-291 199.5,-291"/>
<text text-anchor="middle" x="232" y="-298" font-family="FreeSans" font-size="10.00">ResActor.h</text>
</a>
</g>
<!-- Node2&#45;&gt;Node12 -->
<g id="edge22" class="edge"><title>Node2&#45;&gt;Node12</title>
<path fill="none" stroke="midnightblue" d="M359.247,-408.422C333.687,-401.38 300.909,-389.346 277,-370 260.584,-356.717 248.134,-335.802 240.537,-320.478"/>
<polygon fill="midnightblue" stroke="midnightblue" points="243.67,-318.916 236.252,-311.352 237.334,-321.891 243.67,-318.916"/>
</g>
<!-- Node21 -->
<g id="node46" class="node"><title>Node21</title>
<a xlink:href="_res_sprite_8h.html" target="_top" xlink:title="ResSprite.h">
<polygon fill="none" stroke="black" points="337.5,-349 337.5,-369 404.5,-369 404.5,-349 337.5,-349"/>
<text text-anchor="middle" x="371" y="-356" font-family="FreeSans" font-size="10.00">ResSprite.h</text>
</a>
</g>
<!-- Node2&#45;&gt;Node21 -->
<g id="edge50" class="edge"><title>Node2&#45;&gt;Node21</title>
<path fill="none" stroke="midnightblue" d="M394.123,-406.897C390.355,-399.093 385.026,-388.054 380.433,-378.54"/>
<polygon fill="midnightblue" stroke="midnightblue" points="383.509,-376.861 376.01,-369.378 377.205,-379.905 383.509,-376.861"/>
</g>
<!-- Node27 -->
<g id="node63" class="node"><title>Node27</title>
<a xlink:href="_res_sound_8h.html" target="_top" xlink:title="ResSound.h">
<polygon fill="none" stroke="black" points="513.5,-175 513.5,-195 582.5,-195 582.5,-175 513.5,-175"/>
<text text-anchor="middle" x="548" y="-182" font-family="FreeSans" font-size="10.00">ResSound.h</text>
</a>
</g>
<!-- Node2&#45;&gt;Node27 -->
<g id="edge72" class="edge"><title>Node2&#45;&gt;Node27</title>
<path fill="none" stroke="midnightblue" d="M402.065,-406.933C404.943,-397.428 409.341,-382.768 413,-370 430.526,-308.846 410.303,-280.895 451,-232 464.558,-215.71 485.106,-204.635 503.804,-197.348"/>
<polygon fill="midnightblue" stroke="midnightblue" points="505.162,-200.579 513.367,-193.876 502.773,-193.999 505.162,-200.579"/>
</g>
<!-- Node5 -->
<g id="node9" class="node"><title>Node5</title>
<polygon fill="none" stroke="#bfbfbf" points="956,-59 956,-79 998,-79 998,-59 956,-59"/>
<text text-anchor="middle" x="977" y="-66" font-family="FreeSans" font-size="10.00">locale</text>
</g>
<!-- Node4&#45;&gt;Node5 -->
<g id="edge8" class="edge"><title>Node4&#45;&gt;Node5</title>
<path fill="none" stroke="midnightblue" d="M901.851,-116.897C915.728,-108.052 936.122,-95.0539 952.165,-84.829"/>
<polygon fill="midnightblue" stroke="midnightblue" points="954.474,-87.5079 961.025,-79.1817 950.711,-81.605 954.474,-87.5079"/>
</g>
<!-- Node6 -->
<g id="node11" class="node"><title>Node6</title>
<polygon fill="none" stroke="#bfbfbf" points="786,-59 786,-79 816,-79 816,-59 786,-59"/>
<text text-anchor="middle" x="801" y="-66" font-family="FreeSans" font-size="10.00">set</text>
</g>
<!-- Node4&#45;&gt;Node6 -->
<g id="edge10" class="edge"><title>Node4&#45;&gt;Node6</title>
<path fill="none" stroke="midnightblue" d="M871.194,-116.897C858.232,-108.052 839.182,-95.0539 824.198,-84.829"/>
<polygon fill="midnightblue" stroke="midnightblue" points="826.154,-81.927 815.921,-79.1817 822.209,-87.7092 826.154,-81.927"/>
</g>
<!-- Node7 -->
<g id="node13" class="node"><title>Node7</title>
<polygon fill="none" stroke="#bfbfbf" points="727.5,-59 727.5,-79 768.5,-79 768.5,-59 727.5,-59"/>
<text text-anchor="middle" x="748" y="-66" font-family="FreeSans" font-size="10.00">string</text>
</g>
<!-- Node4&#45;&gt;Node7 -->
<g id="edge12" class="edge"><title>Node4&#45;&gt;Node7</title>
<path fill="none" stroke="midnightblue" d="M861.962,-116.897C838.647,-107.098 803.201,-92.2003 778.038,-81.6246"/>
<polygon fill="midnightblue" stroke="midnightblue" points="779.188,-78.3116 768.613,-77.6636 776.476,-84.7649 779.188,-78.3116"/>
</g>
<!-- Node8 -->
<g id="node15" class="node"><title>Node8</title>
<polygon fill="none" stroke="#bfbfbf" points="1016,-59 1016,-79 1060,-79 1060,-59 1016,-59"/>
<text text-anchor="middle" x="1038" y="-66" font-family="FreeSans" font-size="10.00">vector</text>
</g>
<!-- Node4&#45;&gt;Node8 -->
<g id="edge14" class="edge"><title>Node4&#45;&gt;Node8</title>
<path fill="none" stroke="midnightblue" d="M912.476,-116.897C938.536,-106.954 978.354,-91.7597 1006.13,-81.1595"/>
<polygon fill="midnightblue" stroke="midnightblue" points="1007.68,-84.3154 1015.78,-77.4803 1005.19,-77.7754 1007.68,-84.3154"/>
</g>
<!-- Node9 -->
<g id="node17" class="node"><title>Node9</title>
<polygon fill="none" stroke="#bfbfbf" points="833.5,-59 833.5,-79 938.5,-79 938.5,-59 833.5,-59"/>
<text text-anchor="middle" x="886" y="-66" font-family="FreeSans" font-size="10.00">boost/filesystem.hpp</text>
</g>
<!-- Node4&#45;&gt;Node9 -->
<g id="edge16" class="edge"><title>Node4&#45;&gt;Node9</title>
<path fill="none" stroke="midnightblue" d="M886,-116.897C886,-109.339 886,-98.7476 886,-89.4458"/>
<polygon fill="midnightblue" stroke="midnightblue" points="889.5,-89.3776 886,-79.3776 882.5,-89.3776 889.5,-89.3776"/>
</g>
<!-- Node10 -->
<g id="node19" class="node"><title>Node10</title>
<a xlink:href="_m_r___types_8h.html" target="_top" xlink:title="MR_Types.h">
<polygon fill="none" stroke="black" points="366.5,-59 366.5,-79 437.5,-79 437.5,-59 366.5,-59"/>
<text text-anchor="middle" x="402" y="-66" font-family="FreeSans" font-size="10.00">MR_Types.h</text>
</a>
</g>
<!-- Node4&#45;&gt;Node10 -->
<g id="edge18" class="edge"><title>Node4&#45;&gt;Node10</title>
<path fill="none" stroke="midnightblue" d="M853.736,-122.338C839.429,-120.314 822.385,-117.963 807,-116 676.735,-99.3745 522.573,-82.162 447.565,-73.9449"/>
<polygon fill="midnightblue" stroke="midnightblue" points="447.838,-70.454 437.517,-72.8461 447.077,-77.4125 447.838,-70.454"/>
</g>
<!-- Node11 -->
<g id="node21" class="node"><title>Node11</title>
<polygon fill="none" stroke="#bfbfbf" points="373,-1 373,-21 431,-21 431,-1 373,-1"/>
<text text-anchor="middle" x="402" y="-8" font-family="FreeSans" font-size="10.00">inttypes.h</text>
</g>
<!-- Node10&#45;&gt;Node11 -->
<g id="edge20" class="edge"><title>Node10&#45;&gt;Node11</title>
<path fill="none" stroke="midnightblue" d="M402,-58.8972C402,-51.339 402,-40.7476 402,-31.4458"/>
<polygon fill="midnightblue" stroke="midnightblue" points="405.5,-31.3776 402,-21.3776 398.5,-31.3776 405.5,-31.3776"/>
</g>
<!-- Node13 -->
<g id="node25" class="node"><title>Node13</title>
<a xlink:href="_res_bitmap_8h.html" target="_top" xlink:title="ResBitmap.h">
<polygon fill="none" stroke="black" points="52,-233 52,-253 124,-253 124,-233 52,-233"/>
<text text-anchor="middle" x="88" y="-240" font-family="FreeSans" font-size="10.00">ResBitmap.h</text>
</a>
</g>
<!-- Node12&#45;&gt;Node13 -->
<g id="edge24" class="edge"><title>Node12&#45;&gt;Node13</title>
<path fill="none" stroke="midnightblue" d="M206.917,-290.897C183.624,-281.515 148.727,-267.459 122.753,-256.998"/>
<polygon fill="midnightblue" stroke="midnightblue" points="123.862,-253.671 113.279,-253.182 121.247,-260.164 123.862,-253.671"/>
</g>
<!-- Node15 -->
<g id="node30" class="node"><title>Node15</title>
<a xlink:href="_viewport3_d_8h.html" target="_top" xlink:title="../VideoServices/Viewport3D.h">
<polygon fill="none" stroke="black" points="207,-233 207,-253 355,-253 355,-233 207,-233"/>
<text text-anchor="middle" x="281" y="-240" font-family="FreeSans" font-size="10.00">../VideoServices/Viewport3D.h</text>
</a>
</g>
<!-- Node12&#45;&gt;Node15 -->
<g id="edge30" class="edge"><title>Node12&#45;&gt;Node15</title>
<path fill="none" stroke="midnightblue" d="M240.535,-290.897C247.476,-282.682 257.444,-270.883 265.75,-261.051"/>
<polygon fill="midnightblue" stroke="midnightblue" points="268.453,-263.275 272.233,-253.378 263.106,-258.758 268.453,-263.275"/>
</g>
<!-- Node14 -->
<g id="node27" class="node"><title>Node14</title>
<a xlink:href="_bitmap_8h.html" target="_top" xlink:title="../VideoServices/Bitmap.h">
<polygon fill="none" stroke="black" points="0,-175 0,-195 128,-195 128,-175 0,-175"/>
<text text-anchor="middle" x="64" y="-182" font-family="FreeSans" font-size="10.00">../VideoServices/Bitmap.h</text>
</a>
</g>
<!-- Node13&#45;&gt;Node14 -->
<g id="edge26" class="edge"><title>Node13&#45;&gt;Node14</title>
<path fill="none" stroke="midnightblue" d="M83.8195,-232.897C80.624,-225.175 76.1182,-214.286 72.2101,-204.841"/>
<polygon fill="midnightblue" stroke="midnightblue" points="75.3518,-203.28 68.2942,-195.378 68.8837,-205.956 75.3518,-203.28"/>
</g>
<!-- Node14&#45;&gt;Node10 -->
<g id="edge28" class="edge"><title>Node14&#45;&gt;Node10</title>
<path fill="none" stroke="midnightblue" d="M76.9834,-174.888C97.0632,-159.757 137.378,-131.363 176,-116 235.891,-92.1759 309.734,-79.7358 356.357,-73.7792"/>
<polygon fill="midnightblue" stroke="midnightblue" points="356.953,-77.2323 366.45,-72.5368 356.098,-70.2847 356.953,-77.2323"/>
</g>
<!-- Node15&#45;&gt;Node14 -->
<g id="edge42" class="edge"><title>Node15&#45;&gt;Node14</title>
<path fill="none" stroke="midnightblue" d="M243.201,-232.897C206.596,-223.113 150.974,-208.247 111.418,-197.674"/>
<polygon fill="midnightblue" stroke="midnightblue" points="112.293,-194.285 101.729,-195.084 110.486,-201.048 112.293,-194.285"/>
</g>
<!-- Node16 -->
<g id="node32" class="node"><title>Node16</title>
<a xlink:href="_viewport2_d_8h.html" target="_top" xlink:title="Viewport2D.h">
<polygon fill="none" stroke="black" points="146,-175 146,-195 220,-195 220,-175 146,-175"/>
<text text-anchor="middle" x="183" y="-182" font-family="FreeSans" font-size="10.00">Viewport2D.h</text>
</a>
</g>
<!-- Node15&#45;&gt;Node16 -->
<g id="edge32" class="edge"><title>Node15&#45;&gt;Node16</title>
<path fill="none" stroke="midnightblue" d="M263.93,-232.897C248.846,-223.97 226.611,-210.811 209.262,-200.543"/>
<polygon fill="midnightblue" stroke="midnightblue" points="210.592,-197.263 200.203,-195.182 207.027,-203.287 210.592,-197.263"/>
</g>
<!-- Node17 -->
<g id="node35" class="node"><title>Node17</title>
<a xlink:href="_color_palette_8h.html" target="_top" xlink:title="ColorPalette.h">
<polygon fill="none" stroke="black" points="237.5,-175 237.5,-195 314.5,-195 314.5,-175 237.5,-175"/>
<text text-anchor="middle" x="276" y="-182" font-family="FreeSans" font-size="10.00">ColorPalette.h</text>
</a>
</g>
<!-- Node15&#45;&gt;Node17 -->
<g id="edge36" class="edge"><title>Node15&#45;&gt;Node17</title>
<path fill="none" stroke="midnightblue" d="M280.129,-232.897C279.478,-225.339 278.564,-214.748 277.763,-205.446"/>
<polygon fill="midnightblue" stroke="midnightblue" points="281.241,-205.04 276.895,-195.378 274.267,-205.641 281.241,-205.04"/>
</g>
<!-- Node19 -->
<g id="node41" class="node"><title>Node19</title>
<a xlink:href="_patch_8h.html" target="_top" xlink:title="Patch.h">
<polygon fill="none" stroke="black" points="332,-175 332,-195 382,-195 382,-175 332,-175"/>
<text text-anchor="middle" x="357" y="-182" font-family="FreeSans" font-size="10.00">Patch.h</text>
</a>
</g>
<!-- Node15&#45;&gt;Node19 -->
<g id="edge44" class="edge"><title>Node15&#45;&gt;Node19</title>
<path fill="none" stroke="midnightblue" d="M294.238,-232.897C305.611,-224.218 322.226,-211.538 335.503,-201.405"/>
<polygon fill="midnightblue" stroke="midnightblue" points="337.832,-204.031 343.659,-195.182 333.586,-198.466 337.832,-204.031"/>
</g>
<!-- Node16&#45;&gt;Node10 -->
<g id="edge34" class="edge"><title>Node16&#45;&gt;Node10</title>
<path fill="none" stroke="midnightblue" d="M180.498,-174.669C177.558,-159.773 174.725,-132.269 189,-116 210.631,-91.3462 300.508,-78.5374 356.373,-72.8315"/>
<polygon fill="midnightblue" stroke="midnightblue" points="356.774,-76.309 366.384,-71.8475 356.09,-69.3426 356.774,-76.309"/>
</g>
<!-- Node17&#45;&gt;Node10 -->
<g id="edge40" class="edge"><title>Node17&#45;&gt;Node10</title>
<path fill="none" stroke="midnightblue" d="M248.449,-174.959C218.635,-162.563 177.767,-140.142 197,-116 216.504,-91.5181 301.833,-78.7475 356.069,-72.9824"/>
<polygon fill="midnightblue" stroke="midnightblue" points="356.549,-76.4516 366.142,-71.9537 355.838,-69.4878 356.549,-76.4516"/>
</g>
<!-- Node18 -->
<g id="node37" class="node"><title>Node18</title>
<polygon fill="none" stroke="#bfbfbf" points="205.5,-117 205.5,-137 276.5,-137 276.5,-117 205.5,-117"/>
<text text-anchor="middle" x="241" y="-124" font-family="FreeSans" font-size="10.00">SDL2/SDL.h</text>
</g>
<!-- Node17&#45;&gt;Node18 -->
<g id="edge38" class="edge"><title>Node17&#45;&gt;Node18</title>
<path fill="none" stroke="midnightblue" d="M269.903,-174.897C265.095,-166.928 258.251,-155.587 252.43,-145.941"/>
<polygon fill="midnightblue" stroke="midnightblue" points="255.426,-144.131 247.262,-137.378 249.432,-147.748 255.426,-144.131"/>
</g>
<!-- Node20 -->
<g id="node43" class="node"><title>Node20</title>
<a xlink:href="_world_coordinates_8h.html" target="_top" xlink:title="../Util/WorldCoordinates.h">
<polygon fill="none" stroke="black" points="294,-117 294,-137 420,-137 420,-117 294,-117"/>
<text text-anchor="middle" x="357" y="-124" font-family="FreeSans" font-size="10.00">../Util/WorldCoordinates.h</text>
</a>
</g>
<!-- Node19&#45;&gt;Node20 -->
<g id="edge46" class="edge"><title>Node19&#45;&gt;Node20</title>
<path fill="none" stroke="midnightblue" d="M357,-174.897C357,-167.339 357,-156.748 357,-147.446"/>
<polygon fill="midnightblue" stroke="midnightblue" points="360.5,-147.378 357,-137.378 353.5,-147.378 360.5,-147.378"/>
</g>
<!-- Node20&#45;&gt;Node10 -->
<g id="edge48" class="edge"><title>Node20&#45;&gt;Node10</title>
<path fill="none" stroke="midnightblue" d="M364.838,-116.897C371.149,-108.764 380.184,-97.1183 387.765,-87.3468"/>
<polygon fill="midnightblue" stroke="midnightblue" points="390.584,-89.424 393.948,-79.3776 385.053,-85.133 390.584,-89.424"/>
</g>
<!-- Node22 -->
<g id="node48" class="node"><title>Node22</title>
<a xlink:href="_sprite_8h.html" target="_top" xlink:title="../VideoServices/Sprite.h">
<polygon fill="none" stroke="black" points="281.5,-291 281.5,-311 404.5,-311 404.5,-291 281.5,-291"/>
<text text-anchor="middle" x="343" y="-298" font-family="FreeSans" font-size="10.00">../VideoServices/Sprite.h</text>
</a>
</g>
<!-- Node21&#45;&gt;Node22 -->
<g id="edge52" class="edge"><title>Node21&#45;&gt;Node22</title>
<path fill="none" stroke="midnightblue" d="M366.123,-348.897C362.355,-341.093 357.026,-330.054 352.433,-320.54"/>
<polygon fill="midnightblue" stroke="midnightblue" points="355.509,-318.861 348.01,-311.378 349.205,-321.905 355.509,-318.861"/>
</g>
<!-- Node22&#45;&gt;Node16 -->
<g id="edge54" class="edge"><title>Node22&#45;&gt;Node16</title>
<path fill="none" stroke="midnightblue" d="M295.487,-290.979C258.496,-282.23 211.275,-268.665 198,-254 186.199,-240.964 182.913,-220.874 182.305,-205.728"/>
<polygon fill="midnightblue" stroke="midnightblue" points="185.804,-205.294 182.266,-195.308 178.804,-205.321 185.804,-205.294"/>
</g>
<!-- Node23 -->
<g id="node51" class="node"><title>Node23</title>
<a xlink:href="_dll_object_factory_8h.html" target="_top" xlink:title="../Util/DllObjectFactory.h">
<polygon fill="none" stroke="black" points="460,-233 460,-253 582,-253 582,-233 460,-233"/>
<text text-anchor="middle" x="521" y="-240" font-family="FreeSans" font-size="10.00">../Util/DllObjectFactory.h</text>
</a>
</g>
<!-- Node22&#45;&gt;Node23 -->
<g id="edge56" class="edge"><title>Node22&#45;&gt;Node23</title>
<path fill="none" stroke="midnightblue" d="M374.005,-290.897C403.523,-281.279 448.115,-266.749 480.443,-256.215"/>
<polygon fill="midnightblue" stroke="midnightblue" points="481.628,-259.51 490.052,-253.084 479.46,-252.855 481.628,-259.51"/>
</g>
<!-- Node23&#45;&gt;Node10 -->
<g id="edge70" class="edge"><title>Node23&#45;&gt;Node10</title>
<path fill="none" stroke="midnightblue" d="M514.088,-232.893C494.699,-204.542 439.587,-123.959 414.596,-87.4176"/>
<polygon fill="midnightblue" stroke="midnightblue" points="417.466,-85.4134 408.931,-79.135 411.688,-89.365 417.466,-85.4134"/>
</g>
<!-- Node24 -->
<g id="node53" class="node"><title>Node24</title>
<a xlink:href="_obj_stream_8h.html" target="_top" xlink:title="../Parcel/ObjStream.h">
<polygon fill="none" stroke="black" points="706.5,-175 706.5,-195 815.5,-195 815.5,-175 706.5,-175"/>
<text text-anchor="middle" x="761" y="-182" font-family="FreeSans" font-size="10.00">../Parcel/ObjStream.h</text>
</a>
</g>
<!-- Node23&#45;&gt;Node24 -->
<g id="edge58" class="edge"><title>Node23&#45;&gt;Node24</title>
<path fill="none" stroke="midnightblue" d="M562.531,-232.963C603.356,-223.097 665.759,-208.017 709.67,-197.405"/>
<polygon fill="midnightblue" stroke="midnightblue" points="710.678,-200.762 719.576,-195.011 709.034,-193.958 710.678,-200.762"/>
</g>
<!-- Node24&#45;&gt;Node4 -->
<g id="edge68" class="edge"><title>Node24&#45;&gt;Node4</title>
<path fill="none" stroke="midnightblue" d="M782.773,-174.897C802.726,-165.639 832.487,-151.83 854.934,-141.415"/>
<polygon fill="midnightblue" stroke="midnightblue" points="856.459,-144.566 864.057,-137.182 853.513,-138.216 856.459,-144.566"/>
</g>
<!-- Node24&#45;&gt;Node7 -->
<g id="edge60" class="edge"><title>Node24&#45;&gt;Node7</title>
<path fill="none" stroke="midnightblue" d="M776.08,-174.794C793.29,-161.787 817.75,-138.308 807,-116 800.657,-102.838 788.638,-92.2223 777.094,-84.4326"/>
<polygon fill="midnightblue" stroke="midnightblue" points="778.795,-81.3682 768.461,-79.0314 775.082,-87.3025 778.795,-81.3682"/>
</g>
<!-- Node24&#45;&gt;Node10 -->
<g id="edge66" class="edge"><title>Node24&#45;&gt;Node10</title>
<path fill="none" stroke="midnightblue" d="M706.246,-176.985C661.542,-169.546 597.14,-156.77 543,-138 520.817,-130.309 464.622,-101.714 430.247,-83.8381"/>
<polygon fill="midnightblue" stroke="midnightblue" points="431.662,-80.6285 421.177,-79.1067 428.424,-86.8349 431.662,-80.6285"/>
</g>
<!-- Node25 -->
<g id="node56" class="node"><title>Node25</title>
<a xlink:href="_exception_8h.html" target="_top" xlink:title="../Exception.h">
<polygon fill="none" stroke="black" points="724,-117 724,-137 798,-137 798,-117 724,-117"/>
<text text-anchor="middle" x="761" y="-124" font-family="FreeSans" font-size="10.00">../Exception.h</text>
</a>
</g>
<!-- Node24&#45;&gt;Node25 -->
<g id="edge62" class="edge"><title>Node24&#45;&gt;Node25</title>
<path fill="none" stroke="midnightblue" d="M761,-174.897C761,-167.339 761,-156.748 761,-147.446"/>
<polygon fill="midnightblue" stroke="midnightblue" points="764.5,-147.378 761,-137.378 757.5,-147.378 764.5,-147.378"/>
</g>
<!-- Node26 -->
<g id="node58" class="node"><title>Node26</title>
<polygon fill="none" stroke="#bfbfbf" points="652,-59 652,-79 710,-79 710,-59 652,-59"/>
<text text-anchor="middle" x="681" y="-66" font-family="FreeSans" font-size="10.00">exception</text>
</g>
<!-- Node25&#45;&gt;Node26 -->
<g id="edge64" class="edge"><title>Node25&#45;&gt;Node26</title>
<path fill="none" stroke="midnightblue" d="M747.065,-116.897C734.979,-108.135 717.271,-95.2965 703.23,-85.1164"/>
<polygon fill="midnightblue" stroke="midnightblue" points="705.194,-82.2177 695.044,-79.1817 701.085,-87.885 705.194,-82.2177"/>
</g>
<!-- Node27&#45;&gt;Node10 -->
<g id="edge78" class="edge"><title>Node27&#45;&gt;Node10</title>
<path fill="none" stroke="midnightblue" d="M535.503,-174.898C518.799,-161.413 488.25,-136.811 462,-116 449.11,-105.781 434.591,-94.404 423.064,-85.4031"/>
<polygon fill="midnightblue" stroke="midnightblue" points="424.946,-82.4328 414.909,-79.0418 420.641,-87.9521 424.946,-82.4328"/>
</g>
<!-- Node28 -->
<g id="node65" class="node"><title>Node28</title>
<a xlink:href="_sound_server_8h.html" target="_top" xlink:title="../VideoServices/SoundServer.h">
<polygon fill="none" stroke="black" points="552,-117 552,-137 706,-137 706,-117 552,-117"/>
<text text-anchor="middle" x="629" y="-124" font-family="FreeSans" font-size="10.00">../VideoServices/SoundServer.h</text>
</a>
</g>
<!-- Node27&#45;&gt;Node28 -->
<g id="edge74" class="edge"><title>Node27&#45;&gt;Node28</title>
<path fill="none" stroke="midnightblue" d="M562.109,-174.897C574.346,-166.135 592.276,-153.297 606.493,-143.116"/>
<polygon fill="midnightblue" stroke="midnightblue" points="608.688,-145.849 614.781,-137.182 604.613,-140.158 608.688,-145.849"/>
</g>
<!-- Node28&#45;&gt;Node7 -->
<g id="edge76" class="edge"><title>Node28&#45;&gt;Node7</title>
<path fill="none" stroke="midnightblue" d="M649.728,-116.897C668.554,-107.722 696.55,-94.0762 717.851,-83.6943"/>
<polygon fill="midnightblue" stroke="midnightblue" points="719.654,-86.7092 727.11,-79.1817 716.587,-80.4168 719.654,-86.7092"/>
</g>
<!-- Node29&#45;&gt;Node15 -->
<g id="edge92" class="edge"><title>Node29&#45;&gt;Node15</title>
<path fill="none" stroke="midnightblue" d="M479.469,-290.963C438.644,-281.097 376.241,-266.017 332.33,-255.405"/>
<polygon fill="midnightblue" stroke="midnightblue" points="332.966,-251.958 322.424,-253.011 331.322,-258.762 332.966,-251.958"/>
</g>
<!-- Node29&#45;&gt;Node23 -->
<g id="edge90" class="edge"><title>Node29&#45;&gt;Node23</title>
<path fill="none" stroke="midnightblue" d="M521,-290.897C521,-283.339 521,-272.748 521,-263.446"/>
<polygon fill="midnightblue" stroke="midnightblue" points="524.5,-263.378 521,-253.378 517.5,-263.378 524.5,-263.378"/>
</g>
<!-- Node30 -->
<g id="node71" class="node"><title>Node30</title>
<a xlink:href="_shapes_8h.html" target="_top" xlink:title="Shapes.h">
<polygon fill="none" stroke="black" points="599.5,-233 599.5,-253 656.5,-253 656.5,-233 599.5,-233"/>
<text text-anchor="middle" x="628" y="-240" font-family="FreeSans" font-size="10.00">Shapes.h</text>
</a>
</g>
<!-- Node29&#45;&gt;Node30 -->
<g id="edge82" class="edge"><title>Node29&#45;&gt;Node30</title>
<path fill="none" stroke="midnightblue" d="M539.638,-290.897C556.412,-281.804 581.286,-268.322 600.372,-257.976"/>
<polygon fill="midnightblue" stroke="midnightblue" points="602.093,-261.024 609.217,-253.182 598.757,-254.87 602.093,-261.024"/>
</g>
<!-- Node31 -->
<g id="node74" class="node"><title>Node31</title>
<a xlink:href="_contact_effect_8h.html" target="_top" xlink:title="ContactEffect.h">
<polygon fill="none" stroke="black" points="775.5,-233 775.5,-253 858.5,-253 858.5,-233 775.5,-233"/>
<text text-anchor="middle" x="817" y="-240" font-family="FreeSans" font-size="10.00">ContactEffect.h</text>
</a>
</g>
<!-- Node29&#45;&gt;Node31 -->
<g id="edge86" class="edge"><title>Node29&#45;&gt;Node31</title>
<path fill="none" stroke="midnightblue" d="M572.221,-290.963C626.317,-280.363 711.132,-263.744 765.379,-253.115"/>
<polygon fill="midnightblue" stroke="midnightblue" points="766.329,-256.495 775.47,-251.138 764.983,-249.626 766.329,-256.495"/>
</g>
<!-- Node30&#45;&gt;Node20 -->
<g id="edge84" class="edge"><title>Node30&#45;&gt;Node20</title>
<path fill="none" stroke="midnightblue" d="M599.929,-232.922C574.851,-223.764 537.206,-209.64 505,-196 463.487,-178.418 416.44,-156.054 386.752,-141.634"/>
<polygon fill="midnightblue" stroke="midnightblue" points="387.905,-138.302 377.383,-137.066 384.838,-144.594 387.905,-138.302"/>
</g>
<!-- Node31&#45;&gt;Node8 -->
<g id="edge88" class="edge"><title>Node31&#45;&gt;Node8</title>
<path fill="none" stroke="midnightblue" d="M829.837,-232.893C866.532,-204.002 972.124,-120.867 1017.2,-85.376"/>
<polygon fill="midnightblue" stroke="midnightblue" points="1019.44,-88.071 1025.13,-79.135 1015.11,-82.5711 1019.44,-88.071"/>
</g>
</g>
</svg>
