<?xml version="1.0" encoding="UTF-8" standalone="no"?>
<!DOCTYPE svg PUBLIC "-//W3C//DTD SVG 1.1//EN"
 "http://www.w3.org/Graphics/SVG/1.1/DTD/svg11.dtd">
<!-- Generated by graphviz version 2.38.0 (20140413.2041)
 -->
<!-- Title: Box.h Pages: 1 -->
<svg width="3723pt" height="196pt"
 viewBox="0.00 0.00 3722.50 196.00" xmlns="http://www.w3.org/2000/svg" xmlns:xlink="http://www.w3.org/1999/xlink">
<g id="graph0" class="graph" transform="scale(1 1) rotate(0) translate(4 192)">
<title>Box.h</title>
<!-- Node1 -->
<g id="node1" class="node"><title>Node1</title>
<polygon fill="#bfbfbf" stroke="black" points="1580,-168.5 1580,-187.5 1622,-187.5 1622,-168.5 1580,-168.5"/>
<text text-anchor="middle" x="1601" y="-175.5" font-family="Helvetica,sans-Serif" font-size="10.00">Box.h</text>
</g>
<!-- Node2 -->
<g id="node2" class="node"><title>Node2</title>
<g id="a_node2"><a xlink:href="_picture_8h.html" target="_top" xlink:title="Picture.h">
<polygon fill="none" stroke="black" points="661,-112.5 661,-131.5 717,-131.5 717,-112.5 661,-112.5"/>
<text text-anchor="middle" x="689" y="-119.5" font-family="Helvetica,sans-Serif" font-size="10.00">Picture.h</text>
</a>
</g>
</g>
<!-- Node1&#45;&gt;Node2 -->
<g id="edge1" class="edge"><title>Node1&#45;&gt;Node2</title>
<path fill="none" stroke="midnightblue" d="M1569.66,-175.145C1428.46,-166.784 852.367,-132.673 717.391,-124.681"/>
<polygon fill="midnightblue" stroke="midnightblue" points="1569.61,-178.647 1579.8,-175.745 1570.02,-171.66 1569.61,-178.647"/>
</g>
<!-- Node11 -->
<g id="node11" class="node"><title>Node11</title>
<g id="a_node11"><a xlink:href="_sdl_button_view_8cpp.html" target="_top" xlink:title="SdlButtonView.cpp">
<polygon fill="none" stroke="black" points="530,-56.5 530,-75.5 630,-75.5 630,-56.5 530,-56.5"/>
<text text-anchor="middle" x="580" y="-63.5" font-family="Helvetica,sans-Serif" font-size="10.00">SdlButtonView.cpp</text>
</a>
</g>
</g>
<!-- Node1&#45;&gt;Node11 -->
<g id="edge52" class="edge"><title>Node1&#45;&gt;Node11</title>
<path fill="none" stroke="midnightblue" d="M1569.67,-176.764C1415.16,-175.432 738.378,-167.594 652,-132 622.728,-119.938 597.619,-90.5371 586.345,-75.769"/>
<polygon fill="midnightblue" stroke="midnightblue" points="1569.84,-180.265 1579.87,-176.849 1569.9,-173.265 1569.84,-180.265"/>
</g>
<!-- Node14 -->
<g id="node14" class="node"><title>Node14</title>
<g id="a_node14"><a xlink:href="_fill_box_8h.html" target="_top" xlink:title="FillBox.h">
<polygon fill="none" stroke="black" points="1573.5,-112.5 1573.5,-131.5 1628.5,-131.5 1628.5,-112.5 1573.5,-112.5"/>
<text text-anchor="middle" x="1601" y="-119.5" font-family="Helvetica,sans-Serif" font-size="10.00">FillBox.h</text>
</a>
</g>
</g>
<!-- Node1&#45;&gt;Node14 -->
<g id="edge13" class="edge"><title>Node1&#45;&gt;Node14</title>
<path fill="none" stroke="midnightblue" d="M1601,-157.805C1601,-148.91 1601,-138.78 1601,-131.751"/>
<polygon fill="midnightblue" stroke="midnightblue" points="1597.5,-158.083 1601,-168.083 1604.5,-158.083 1597.5,-158.083"/>
</g>
<!-- Node33 -->
<g id="node33" class="node"><title>Node33</title>
<g id="a_node33"><a xlink:href="_symbol_icon_8h.html" target="_top" xlink:title="SymbolIcon.h">
<polygon fill="none" stroke="black" points="2858.5,-112.5 2858.5,-131.5 2935.5,-131.5 2935.5,-112.5 2858.5,-112.5"/>
<text text-anchor="middle" x="2897" y="-119.5" font-family="Helvetica,sans-Serif" font-size="10.00">SymbolIcon.h</text>
</a>
</g>
</g>
<!-- Node1&#45;&gt;Node33 -->
<g id="edge38" class="edge"><title>Node1&#45;&gt;Node33</title>
<path fill="none" stroke="midnightblue" d="M1632.23,-175.699C1807.23,-168.407 2665.17,-132.659 2858.33,-124.611"/>
<polygon fill="midnightblue" stroke="midnightblue" points="1631.99,-172.206 1622.15,-176.119 1632.28,-179.199 1631.99,-172.206"/>
</g>
<!-- Node41 -->
<g id="node41" class="node"><title>Node41</title>
<g id="a_node41"><a xlink:href="_box_8cpp.html" target="_top" xlink:title="Box.cpp">
<polygon fill="none" stroke="black" points="2953.5,-112.5 2953.5,-131.5 3006.5,-131.5 3006.5,-112.5 2953.5,-112.5"/>
<text text-anchor="middle" x="2980" y="-119.5" font-family="Helvetica,sans-Serif" font-size="10.00">Box.cpp</text>
</a>
</g>
</g>
<!-- Node1&#45;&gt;Node41 -->
<g id="edge51" class="edge"><title>Node1&#45;&gt;Node41</title>
<path fill="none" stroke="midnightblue" d="M1632.26,-176.879C1808.5,-176.057 2679.6,-170.1 2945,-132 2947.73,-131.608 2950.56,-131.084 2953.37,-130.487"/>
<polygon fill="midnightblue" stroke="midnightblue" points="1632.1,-173.38 1622.11,-176.924 1632.13,-180.38 1632.1,-173.38"/>
</g>
<!-- Node3 -->
<g id="node3" class="node"><title>Node3</title>
<g id="a_node3"><a xlink:href="_avatar_select_scene_8cpp.html" target="_top" xlink:title="AvatarSelectScene.cpp">
<polygon fill="none" stroke="black" points="120.5,-56.5 120.5,-75.5 239.5,-75.5 239.5,-56.5 120.5,-56.5"/>
<text text-anchor="middle" x="180" y="-63.5" font-family="Helvetica,sans-Serif" font-size="10.00">AvatarSelectScene.cpp</text>
</a>
</g>
</g>
<!-- Node2&#45;&gt;Node3 -->
<g id="edge2" class="edge"><title>Node2&#45;&gt;Node3</title>
<path fill="none" stroke="midnightblue" d="M650.989,-117.299C575.353,-109.884 400.639,-92.5007 254,-76 249.37,-75.479 244.579,-74.9266 239.764,-74.3619"/>
<polygon fill="midnightblue" stroke="midnightblue" points="650.698,-120.787 660.991,-118.278 651.38,-113.821 650.698,-120.787"/>
</g>
<!-- Node4 -->
<g id="node4" class="node"><title>Node4</title>
<g id="a_node4"><a xlink:href="_player_status_announcement_8cpp.html" target="_top" xlink:title="PlayerStatusAnnouncement.cpp">
<polygon fill="none" stroke="black" points="2185.5,-56.5 2185.5,-75.5 2342.5,-75.5 2342.5,-56.5 2185.5,-56.5"/>
<text text-anchor="middle" x="2264" y="-63.5" font-family="Helvetica,sans-Serif" font-size="10.00">PlayerStatusAnnouncement.cpp</text>
</a>
</g>
</g>
<!-- Node2&#45;&gt;Node4 -->
<g id="edge3" class="edge"><title>Node2&#45;&gt;Node4</title>
<path fill="none" stroke="midnightblue" d="M727.646,-120.866C898.299,-120.054 1601.38,-114.426 2177,-76 2179.73,-75.8179 2182.5,-75.617 2185.3,-75.4007"/>
<polygon fill="midnightblue" stroke="midnightblue" points="727.391,-117.367 717.407,-120.911 727.423,-124.366 727.391,-117.367"/>
</g>
<!-- Node5 -->
<g id="node5" class="node"><title>Node5</title>
<g id="a_node5"><a xlink:href="_session_loading_scene_8cpp.html" target="_top" xlink:title="SessionLoadingScene.cpp">
<polygon fill="none" stroke="black" points="296,-56.5 296,-75.5 428,-75.5 428,-56.5 296,-56.5"/>
<text text-anchor="middle" x="362" y="-63.5" font-family="Helvetica,sans-Serif" font-size="10.00">SessionLoadingScene.cpp</text>
</a>
</g>
</g>
<!-- Node2&#45;&gt;Node5 -->
<g id="edge4" class="edge"><title>Node2&#45;&gt;Node5</title>
<path fill="none" stroke="midnightblue" d="M650.865,-114.703C592.144,-105.005 479.485,-86.4012 413.551,-75.5131"/>
<polygon fill="midnightblue" stroke="midnightblue" points="650.4,-118.173 660.837,-116.349 651.541,-111.267 650.4,-118.173"/>
</g>
<!-- Node6 -->
<g id="node6" class="node"><title>Node6</title>
<g id="a_node6"><a xlink:href="_test_lab_scene_8cpp.html" target="_top" xlink:title="TestLabScene.cpp">
<polygon fill="none" stroke="black" points="1794,-56.5 1794,-75.5 1892,-75.5 1892,-56.5 1794,-56.5"/>
<text text-anchor="middle" x="1843" y="-63.5" font-family="Helvetica,sans-Serif" font-size="10.00">TestLabScene.cpp</text>
</a>
</g>
</g>
<!-- Node2&#45;&gt;Node6 -->
<g id="edge5" class="edge"><title>Node2&#45;&gt;Node6</title>
<path fill="none" stroke="midnightblue" d="M727.305,-120.99C868.371,-120.622 1372.15,-116.377 1785,-76 1787.84,-75.7223 1790.75,-75.3977 1793.69,-75.0397"/>
<polygon fill="midnightblue" stroke="midnightblue" points="727.019,-117.491 717.026,-121.011 727.033,-124.491 727.019,-117.491"/>
</g>
<!-- Node7 -->
<g id="node7" class="node"><title>Node7</title>
<g id="a_node7"><a xlink:href="_track_select_scene_8cpp.html" target="_top" xlink:title="TrackSelectScene.cpp">
<polygon fill="none" stroke="black" points="648,-56.5 648,-75.5 764,-75.5 764,-56.5 648,-56.5"/>
<text text-anchor="middle" x="706" y="-63.5" font-family="Helvetica,sans-Serif" font-size="10.00">TrackSelectScene.cpp</text>
</a>
</g>
</g>
<!-- Node2&#45;&gt;Node7 -->
<g id="edge6" class="edge"><title>Node2&#45;&gt;Node7</title>
<path fill="none" stroke="midnightblue" d="M694.857,-102.396C697.701,-93.362 700.983,-82.936 703.245,-75.7511"/>
<polygon fill="midnightblue" stroke="midnightblue" points="691.472,-101.493 691.807,-112.083 698.149,-103.596 691.472,-101.493"/>
</g>
<!-- Node8 -->
<g id="node8" class="node"><title>Node8</title>
<g id="a_node8"><a xlink:href="_button_8cpp.html" target="_top" xlink:title="Button.cpp">
<polygon fill="none" stroke="black" points="782,-56.5 782,-75.5 846,-75.5 846,-56.5 782,-56.5"/>
<text text-anchor="middle" x="814" y="-63.5" font-family="Helvetica,sans-Serif" font-size="10.00">Button.cpp</text>
</a>
</g>
</g>
<!-- Node2&#45;&gt;Node8 -->
<g id="edge7" class="edge"><title>Node2&#45;&gt;Node8</title>
<path fill="none" stroke="midnightblue" d="M718.241,-108.368C741.65,-98.2553 773.841,-84.3486 794.286,-75.5164"/>
<polygon fill="midnightblue" stroke="midnightblue" points="716.599,-105.265 708.807,-112.444 719.375,-111.691 716.599,-105.265"/>
</g>
<!-- Node9 -->
<g id="node9" class="node"><title>Node9</title>
<g id="a_node9"><a xlink:href="_minimap_8cpp.html" target="_top" xlink:title="Minimap.cpp">
<polygon fill="none" stroke="black" points="1704,-56.5 1704,-75.5 1776,-75.5 1776,-56.5 1704,-56.5"/>
<text text-anchor="middle" x="1740" y="-63.5" font-family="Helvetica,sans-Serif" font-size="10.00">Minimap.cpp</text>
</a>
</g>
</g>
<!-- Node2&#45;&gt;Node9 -->
<g id="edge8" class="edge"><title>Node2&#45;&gt;Node9</title>
<path fill="none" stroke="midnightblue" d="M727.278,-121.385C861.048,-122.287 1319.88,-121.631 1695,-76 1697.85,-75.6537 1700.78,-75.2267 1703.73,-74.7488"/>
<polygon fill="midnightblue" stroke="midnightblue" points="727.16,-117.885 717.134,-121.31 727.107,-124.884 727.16,-117.885"/>
</g>
<!-- Node10 -->
<g id="node10" class="node"><title>Node10</title>
<g id="a_node10"><a xlink:href="_picture_8cpp.html" target="_top" xlink:title="Picture.cpp">
<polygon fill="none" stroke="black" points="446,-56.5 446,-75.5 512,-75.5 512,-56.5 446,-56.5"/>
<text text-anchor="middle" x="479" y="-63.5" font-family="Helvetica,sans-Serif" font-size="10.00">Picture.cpp</text>
</a>
</g>
</g>
<!-- Node2&#45;&gt;Node10 -->
<g id="edge9" class="edge"><title>Node2&#45;&gt;Node10</title>
<path fill="none" stroke="midnightblue" d="M650.844,-111.188C611.174,-100.987 549.713,-85.1834 512.049,-75.4983"/>
<polygon fill="midnightblue" stroke="midnightblue" points="650.122,-114.617 660.678,-113.717 651.865,-107.837 650.122,-114.617"/>
</g>
<!-- Node2&#45;&gt;Node11 -->
<g id="edge10" class="edge"><title>Node2&#45;&gt;Node11</title>
<path fill="none" stroke="midnightblue" d="M662.481,-107.862C642.27,-97.8492 615.013,-84.3458 597.469,-75.6545"/>
<polygon fill="midnightblue" stroke="midnightblue" points="660.973,-111.021 671.487,-112.324 664.08,-104.748 660.973,-111.021"/>
</g>
<!-- Node12 -->
<g id="node12" class="node"><title>Node12</title>
<g id="a_node12"><a xlink:href="_sdl_display_8cpp.html" target="_top" xlink:title="SdlDisplay.cpp">
<polygon fill="none" stroke="black" points="1707.5,-0.5 1707.5,-19.5 1790.5,-19.5 1790.5,-0.5 1707.5,-0.5"/>
<text text-anchor="middle" x="1749" y="-7.5" font-family="Helvetica,sans-Serif" font-size="10.00">SdlDisplay.cpp</text>
</a>
</g>
</g>
<!-- Node2&#45;&gt;Node12 -->
<g id="edge11" class="edge"><title>Node2&#45;&gt;Node12</title>
<path fill="none" stroke="midnightblue" d="M650.826,-120.637C540.977,-118.955 235.15,-109.47 287,-56 312.398,-29.8081 1471.01,-14.3701 1707.22,-11.492"/>
<polygon fill="midnightblue" stroke="midnightblue" points="650.779,-124.137 660.827,-120.777 650.877,-117.138 650.779,-124.137"/>
</g>
<!-- Node13 -->
<g id="node13" class="node"><title>Node13</title>
<g id="a_node13"><a xlink:href="_sdl_picture_view_8cpp.html" target="_top" xlink:title="SdlPictureView.cpp">
<polygon fill="none" stroke="black" points="0,-56.5 0,-75.5 102,-75.5 102,-56.5 0,-56.5"/>
<text text-anchor="middle" x="51" y="-63.5" font-family="Helvetica,sans-Serif" font-size="10.00">SdlPictureView.cpp</text>
</a>
</g>
</g>
<!-- Node2&#45;&gt;Node13 -->
<g id="edge12" class="edge"><title>Node2&#45;&gt;Node13</title>
<path fill="none" stroke="midnightblue" d="M650.943,-118.977C558.335,-113.85 313.941,-99.0908 111,-76 108.07,-75.6666 105.062,-75.2984 102.03,-74.9071"/>
<polygon fill="midnightblue" stroke="midnightblue" points="650.786,-122.474 660.963,-119.527 651.17,-115.484 650.786,-122.474"/>
</g>
<!-- Node14&#45;&gt;Node6 -->
<g id="edge19" class="edge"><title>Node14&#45;&gt;Node6</title>
<path fill="none" stroke="midnightblue" d="M1638.76,-112.574C1684.02,-102.475 1759.43,-85.6478 1804.86,-75.5108"/>
<polygon fill="midnightblue" stroke="midnightblue" points="1637.76,-109.212 1628.76,-114.806 1639.28,-116.044 1637.76,-109.212"/>
</g>
<!-- Node14&#45;&gt;Node7 -->
<g id="edge20" class="edge"><title>Node14&#45;&gt;Node7</title>
<path fill="none" stroke="midnightblue" d="M1563.17,-120.011C1445.73,-116.713 1077.04,-104.637 773,-76 770.079,-75.7249 767.089,-75.4176 764.072,-75.0872"/>
<polygon fill="midnightblue" stroke="midnightblue" points="1563.33,-123.517 1573.42,-120.295 1563.52,-116.52 1563.33,-123.517"/>
</g>
<!-- Node14&#45;&gt;Node8 -->
<g id="edge26" class="edge"><title>Node14&#45;&gt;Node8</title>
<path fill="none" stroke="midnightblue" d="M1563.08,-120.469C1453.63,-118.556 1127.87,-110.185 860,-76 855.48,-75.4231 850.736,-74.668 846.082,-73.8401"/>
<polygon fill="midnightblue" stroke="midnightblue" points="1563.23,-123.972 1573.29,-120.639 1563.35,-116.973 1563.23,-123.972"/>
</g>
<!-- Node14&#45;&gt;Node11 -->
<g id="edge34" class="edge"><title>Node14&#45;&gt;Node11</title>
<path fill="none" stroke="midnightblue" d="M1563.21,-120.652C1433.91,-119.159 997.448,-111.624 639,-76 636.113,-75.7131 633.152,-75.3812 630.167,-75.0178"/>
<polygon fill="midnightblue" stroke="midnightblue" points="1563.34,-124.153 1573.37,-120.764 1563.41,-117.154 1563.34,-124.153"/>
</g>
<!-- Node14&#45;&gt;Node12 -->
<g id="edge35" class="edge"><title>Node14&#45;&gt;Node12</title>
<path fill="none" stroke="midnightblue" d="M1563.35,-120.02C1420.13,-116.11 916.126,-100.642 893,-76 886.917,-69.5183 886.882,-62.4483 893,-56 921.312,-26.1603 1539.37,-14.2955 1707.25,-11.6165"/>
<polygon fill="midnightblue" stroke="midnightblue" points="1563.32,-123.52 1573.41,-120.291 1563.51,-116.523 1563.32,-123.52"/>
</g>
<!-- Node15 -->
<g id="node15" class="node"><title>Node15</title>
<g id="a_node15"><a xlink:href="_bulletin_board_8cpp.html" target="_top" xlink:title="BulletinBoard.cpp">
<polygon fill="none" stroke="black" points="1016.5,-56.5 1016.5,-75.5 1109.5,-75.5 1109.5,-56.5 1016.5,-56.5"/>
<text text-anchor="middle" x="1063" y="-63.5" font-family="Helvetica,sans-Serif" font-size="10.00">BulletinBoard.cpp</text>
</a>
</g>
</g>
<!-- Node14&#45;&gt;Node15 -->
<g id="edge14" class="edge"><title>Node14&#45;&gt;Node15</title>
<path fill="none" stroke="midnightblue" d="M1563.24,-118.331C1481.87,-112.391 1283.97,-96.9344 1119,-76 1115.97,-75.6157 1112.86,-75.1925 1109.72,-74.7455"/>
<polygon fill="midnightblue" stroke="midnightblue" points="1563.26,-121.841 1573.49,-119.073 1563.76,-114.859 1563.26,-121.841"/>
</g>
<!-- Node16 -->
<g id="node16" class="node"><title>Node16</title>
<g id="a_node16"><a xlink:href="_debug_scene_8cpp.html" target="_top" xlink:title="DebugScene.cpp">
<polygon fill="none" stroke="black" points="1128,-56.5 1128,-75.5 1220,-75.5 1220,-56.5 1128,-56.5"/>
<text text-anchor="middle" x="1174" y="-63.5" font-family="Helvetica,sans-Serif" font-size="10.00">DebugScene.cpp</text>
</a>
</g>
</g>
<!-- Node14&#45;&gt;Node16 -->
<g id="edge15" class="edge"><title>Node14&#45;&gt;Node16</title>
<path fill="none" stroke="midnightblue" d="M1563.3,-116.967C1496.04,-109.654 1350.96,-93.3481 1229,-76 1226.13,-75.5912 1223.17,-75.1547 1220.19,-74.7025"/>
<polygon fill="midnightblue" stroke="midnightblue" points="1563.1,-120.465 1573.41,-118.062 1563.85,-113.506 1563.1,-120.465"/>
</g>
<!-- Node17 -->
<g id="node17" class="node"><title>Node17</title>
<g id="a_node17"><a xlink:href="_display_select_scene_8cpp.html" target="_top" xlink:title="DisplaySelectScene.cpp">
<polygon fill="none" stroke="black" points="1238,-56.5 1238,-75.5 1362,-75.5 1362,-56.5 1238,-56.5"/>
<text text-anchor="middle" x="1300" y="-63.5" font-family="Helvetica,sans-Serif" font-size="10.00">DisplaySelectScene.cpp</text>
</a>
</g>
</g>
<!-- Node14&#45;&gt;Node17 -->
<g id="edge16" class="edge"><title>Node14&#45;&gt;Node17</title>
<path fill="none" stroke="midnightblue" d="M1563.53,-114.277C1508.84,-104.466 1407.19,-86.2297 1347.38,-75.5004"/>
<polygon fill="midnightblue" stroke="midnightblue" points="1563.03,-117.744 1573.49,-116.065 1564.27,-110.854 1563.03,-117.744"/>
</g>
<!-- Node18 -->
<g id="node18" class="node"><title>Node18</title>
<g id="a_node18"><a xlink:href="_main_menu_scene_8cpp.html" target="_top" xlink:title="MainMenuScene.cpp">
<polygon fill="none" stroke="black" points="2669,-56.5 2669,-75.5 2777,-75.5 2777,-56.5 2669,-56.5"/>
<text text-anchor="middle" x="2723" y="-63.5" font-family="Helvetica,sans-Serif" font-size="10.00">MainMenuScene.cpp</text>
</a>
</g>
</g>
<!-- Node14&#45;&gt;Node18 -->
<g id="edge17" class="edge"><title>Node14&#45;&gt;Node18</title>
<path fill="none" stroke="midnightblue" d="M1638.92,-120.75C1776.42,-119.554 2261.75,-112.816 2660,-76 2662.86,-75.7356 2665.79,-75.432 2668.74,-75.1"/>
<polygon fill="midnightblue" stroke="midnightblue" points="1638.86,-117.25 1628.88,-120.833 1638.91,-124.25 1638.86,-117.25"/>
</g>
<!-- Node19 -->
<g id="node19" class="node"><title>Node19</title>
<g id="a_node19"><a xlink:href="_profile_edit_scene_8cpp.html" target="_top" xlink:title="ProfileEditScene.cpp">
<polygon fill="none" stroke="black" points="1380,-56.5 1380,-75.5 1488,-75.5 1488,-56.5 1380,-56.5"/>
<text text-anchor="middle" x="1434" y="-63.5" font-family="Helvetica,sans-Serif" font-size="10.00">ProfileEditScene.cpp</text>
</a>
</g>
</g>
<!-- Node14&#45;&gt;Node19 -->
<g id="edge18" class="edge"><title>Node14&#45;&gt;Node19</title>
<path fill="none" stroke="midnightblue" d="M1564.83,-109.304C1533.36,-99.1294 1488.51,-84.6246 1460.34,-75.5164"/>
<polygon fill="midnightblue" stroke="midnightblue" points="1563.95,-112.697 1574.54,-112.444 1566.1,-106.037 1563.95,-112.697"/>
</g>
<!-- Node20 -->
<g id="node20" class="node"><title>Node20</title>
<g id="a_node20"><a xlink:href="_keycap_icon_8h.html" target="_top" xlink:title="KeycapIcon.h">
<polygon fill="none" stroke="black" points="2833.5,-56.5 2833.5,-75.5 2910.5,-75.5 2910.5,-56.5 2833.5,-56.5"/>
<text text-anchor="middle" x="2872" y="-63.5" font-family="Helvetica,sans-Serif" font-size="10.00">KeycapIcon.h</text>
</a>
</g>
</g>
<!-- Node14&#45;&gt;Node20 -->
<g id="edge21" class="edge"><title>Node14&#45;&gt;Node20</title>
<path fill="none" stroke="midnightblue" d="M1638.9,-120.475C1786.25,-118.24 2335.23,-108.11 2786,-76 2801.42,-74.9013 2818.36,-73.2298 2833.09,-71.6243"/>
<polygon fill="midnightblue" stroke="midnightblue" points="1638.54,-116.98 1628.59,-120.628 1638.65,-123.979 1638.54,-116.98"/>
</g>
<!-- Node24 -->
<g id="node24" class="node"><title>Node24</title>
<g id="a_node24"><a xlink:href="_chronometer_8cpp.html" target="_top" xlink:title="Chronometer.cpp">
<polygon fill="none" stroke="black" points="1506,-56.5 1506,-75.5 1598,-75.5 1598,-56.5 1506,-56.5"/>
<text text-anchor="middle" x="1552" y="-63.5" font-family="Helvetica,sans-Serif" font-size="10.00">Chronometer.cpp</text>
</a>
</g>
</g>
<!-- Node14&#45;&gt;Node24 -->
<g id="edge27" class="edge"><title>Node14&#45;&gt;Node24</title>
<path fill="none" stroke="midnightblue" d="M1585.97,-104.431C1577.38,-94.9673 1566.96,-83.4827 1559.94,-75.7511"/>
<polygon fill="midnightblue" stroke="midnightblue" points="1583.6,-107.029 1592.91,-112.083 1588.78,-102.325 1583.6,-107.029"/>
</g>
<!-- Node25 -->
<g id="node25" class="node"><title>Node25</title>
<g id="a_node25"><a xlink:href="_counter_8cpp.html" target="_top" xlink:title="Counter.cpp">
<polygon fill="none" stroke="black" points="1616,-56.5 1616,-75.5 1686,-75.5 1686,-56.5 1616,-56.5"/>
<text text-anchor="middle" x="1651" y="-63.5" font-family="Helvetica,sans-Serif" font-size="10.00">Counter.cpp</text>
</a>
</g>
</g>
<!-- Node14&#45;&gt;Node25 -->
<g id="edge28" class="edge"><title>Node14&#45;&gt;Node25</title>
<path fill="none" stroke="midnightblue" d="M1616.08,-104.718C1624.89,-95.1997 1635.67,-83.5608 1642.9,-75.7511"/>
<polygon fill="midnightblue" stroke="midnightblue" points="1613.48,-102.367 1609.26,-112.083 1618.62,-107.123 1613.48,-102.367"/>
</g>
<!-- Node26 -->
<g id="node26" class="node"><title>Node26</title>
<g id="a_node26"><a xlink:href="_fill_box_8cpp.html" target="_top" xlink:title="FillBox.cpp">
<polygon fill="none" stroke="black" points="1910.5,-56.5 1910.5,-75.5 1975.5,-75.5 1975.5,-56.5 1910.5,-56.5"/>
<text text-anchor="middle" x="1943" y="-63.5" font-family="Helvetica,sans-Serif" font-size="10.00">FillBox.cpp</text>
</a>
</g>
</g>
<!-- Node14&#45;&gt;Node26 -->
<g id="edge29" class="edge"><title>Node14&#45;&gt;Node26</title>
<path fill="none" stroke="midnightblue" d="M1638.8,-116.098C1695.81,-108.532 1807.1,-93.0861 1901,-76 1904.08,-75.4393 1907.28,-74.8203 1910.48,-74.1773"/>
<polygon fill="midnightblue" stroke="midnightblue" points="1638.26,-112.639 1628.81,-117.417 1639.18,-119.578 1638.26,-112.639"/>
</g>
<!-- Node27 -->
<g id="node27" class="node"><title>Node27</title>
<g id="a_node27"><a xlink:href="_fuel_gauge_8cpp.html" target="_top" xlink:title="FuelGauge.cpp">
<polygon fill="none" stroke="black" points="1993.5,-56.5 1993.5,-75.5 2076.5,-75.5 2076.5,-56.5 1993.5,-56.5"/>
<text text-anchor="middle" x="2035" y="-63.5" font-family="Helvetica,sans-Serif" font-size="10.00">FuelGauge.cpp</text>
</a>
</g>
</g>
<!-- Node14&#45;&gt;Node27 -->
<g id="edge30" class="edge"><title>Node14&#45;&gt;Node27</title>
<path fill="none" stroke="midnightblue" d="M1638.91,-117.338C1707.93,-110.497 1858.64,-94.7586 1985,-76 1987.7,-75.5985 1990.49,-75.1623 1993.29,-74.7056"/>
<polygon fill="midnightblue" stroke="midnightblue" points="1638.16,-113.895 1628.55,-118.358 1638.84,-120.861 1638.16,-113.895"/>
</g>
<!-- Node28 -->
<g id="node28" class="node"><title>Node28</title>
<g id="a_node28"><a xlink:href="_hud_text_8cpp.html" target="_top" xlink:title="HudText.cpp">
<polygon fill="none" stroke="black" points="2094.5,-56.5 2094.5,-75.5 2167.5,-75.5 2167.5,-56.5 2094.5,-56.5"/>
<text text-anchor="middle" x="2131" y="-63.5" font-family="Helvetica,sans-Serif" font-size="10.00">HudText.cpp</text>
</a>
</g>
</g>
<!-- Node14&#45;&gt;Node28 -->
<g id="edge31" class="edge"><title>Node14&#45;&gt;Node28</title>
<path fill="none" stroke="midnightblue" d="M1638.81,-118.847C1720.66,-113.888 1920.26,-100.194 2086,-76 2088.68,-75.6087 2091.44,-75.1626 2094.22,-74.6831"/>
<polygon fill="midnightblue" stroke="midnightblue" points="1638.51,-115.358 1628.74,-119.448 1638.93,-122.346 1638.51,-115.358"/>
</g>
<!-- Node29 -->
<g id="node29" class="node"><title>Node29</title>
<g id="a_node29"><a xlink:href="_slider_8cpp.html" target="_top" xlink:title="Slider.cpp">
<polygon fill="none" stroke="black" points="2361,-56.5 2361,-75.5 2421,-75.5 2421,-56.5 2361,-56.5"/>
<text text-anchor="middle" x="2391" y="-63.5" font-family="Helvetica,sans-Serif" font-size="10.00">Slider.cpp</text>
</a>
</g>
</g>
<!-- Node14&#45;&gt;Node29 -->
<g id="edge32" class="edge"><title>Node14&#45;&gt;Node29</title>
<path fill="none" stroke="midnightblue" d="M1639.1,-120.956C1749.82,-120.349 2080.82,-115.134 2352,-76 2354.89,-75.5831 2357.88,-75.0608 2360.86,-74.4789"/>
<polygon fill="midnightblue" stroke="midnightblue" points="1638.77,-117.458 1628.79,-121.003 1638.8,-124.458 1638.77,-117.458"/>
</g>
<!-- Node30 -->
<g id="node30" class="node"><title>Node30</title>
<g id="a_node30"><a xlink:href="_speedometer_8cpp.html" target="_top" xlink:title="Speedometer.cpp">
<polygon fill="none" stroke="black" points="2438.5,-56.5 2438.5,-75.5 2531.5,-75.5 2531.5,-56.5 2438.5,-56.5"/>
<text text-anchor="middle" x="2485" y="-63.5" font-family="Helvetica,sans-Serif" font-size="10.00">Speedometer.cpp</text>
</a>
</g>
</g>
<!-- Node14&#45;&gt;Node30 -->
<g id="edge33" class="edge"><title>Node14&#45;&gt;Node30</title>
<path fill="none" stroke="midnightblue" d="M1638.92,-120.398C1756.61,-118.216 2126.04,-109.022 2430,-76 2432.69,-75.7074 2435.46,-75.3711 2438.24,-75.0043"/>
<polygon fill="midnightblue" stroke="midnightblue" points="1638.57,-116.903 1628.64,-120.582 1638.7,-123.902 1638.57,-116.903"/>
</g>
<!-- Node31 -->
<g id="node31" class="node"><title>Node31</title>
<g id="a_node31"><a xlink:href="_sdl_fill_box_view_8cpp.html" target="_top" xlink:title="SdlFillBoxView.cpp">
<polygon fill="none" stroke="black" points="2549.5,-56.5 2549.5,-75.5 2650.5,-75.5 2650.5,-56.5 2549.5,-56.5"/>
<text text-anchor="middle" x="2600" y="-63.5" font-family="Helvetica,sans-Serif" font-size="10.00">SdlFillBoxView.cpp</text>
</a>
</g>
</g>
<!-- Node14&#45;&gt;Node31 -->
<g id="edge36" class="edge"><title>Node14&#45;&gt;Node31</title>
<path fill="none" stroke="midnightblue" d="M1638.79,-120.594C1766.19,-118.926 2191.54,-110.924 2541,-76 2543.68,-75.7321 2546.43,-75.4258 2549.19,-75.0916"/>
<polygon fill="midnightblue" stroke="midnightblue" points="1638.72,-117.094 1628.76,-120.72 1638.8,-124.094 1638.72,-117.094"/>
</g>
<!-- Node32 -->
<g id="node32" class="node"><title>Node32</title>
<g id="a_node32"><a xlink:href="_sdl_slider_view_8cpp.html" target="_top" xlink:title="SdlSliderView.cpp">
<polygon fill="none" stroke="black" points="902,-56.5 902,-75.5 998,-75.5 998,-56.5 902,-56.5"/>
<text text-anchor="middle" x="950" y="-63.5" font-family="Helvetica,sans-Serif" font-size="10.00">SdlSliderView.cpp</text>
</a>
</g>
</g>
<!-- Node14&#45;&gt;Node32 -->
<g id="edge37" class="edge"><title>Node14&#45;&gt;Node32</title>
<path fill="none" stroke="midnightblue" d="M1563.22,-119.202C1469.06,-114.49 1216.45,-100.428 1007,-76 1004.11,-75.6634 1001.15,-75.2876 998.164,-74.8858"/>
<polygon fill="midnightblue" stroke="midnightblue" points="1563.23,-122.707 1573.39,-119.705 1563.58,-115.715 1563.23,-122.707"/>
</g>
<!-- Node20&#45;&gt;Node12 -->
<g id="edge24" class="edge"><title>Node20&#45;&gt;Node12</title>
<path fill="none" stroke="midnightblue" d="M2822.96,-56.4475C2821.63,-56.2875 2820.31,-56.1377 2819,-56 2420.54,-13.9589 1934.7,-10.81 1790.95,-10.8658"/>
<polygon fill="midnightblue" stroke="midnightblue" points="2822.91,-59.9728 2833.29,-57.847 2823.85,-53.0362 2822.91,-59.9728"/>
</g>
<!-- Node21 -->
<g id="node21" class="node"><title>Node21</title>
<g id="a_node21"><a xlink:href="_action_button_8cpp.html" target="_top" xlink:title="ActionButton.cpp">
<polygon fill="none" stroke="black" points="2826,-0.5 2826,-19.5 2918,-19.5 2918,-0.5 2826,-0.5"/>
<text text-anchor="middle" x="2872" y="-7.5" font-family="Helvetica,sans-Serif" font-size="10.00">ActionButton.cpp</text>
</a>
</g>
</g>
<!-- Node20&#45;&gt;Node21 -->
<g id="edge22" class="edge"><title>Node20&#45;&gt;Node21</title>
<path fill="none" stroke="midnightblue" d="M2872,-45.8045C2872,-36.9102 2872,-26.7798 2872,-19.7511"/>
<polygon fill="midnightblue" stroke="midnightblue" points="2868.5,-46.083 2872,-56.083 2875.5,-46.083 2868.5,-46.083"/>
</g>
<!-- Node22 -->
<g id="node22" class="node"><title>Node22</title>
<g id="a_node22"><a xlink:href="_keycap_icon_8cpp.html" target="_top" xlink:title="KeycapIcon.cpp">
<polygon fill="none" stroke="black" points="2936.5,-0.5 2936.5,-19.5 3023.5,-19.5 3023.5,-0.5 2936.5,-0.5"/>
<text text-anchor="middle" x="2980" y="-7.5" font-family="Helvetica,sans-Serif" font-size="10.00">KeycapIcon.cpp</text>
</a>
</g>
</g>
<!-- Node20&#45;&gt;Node22 -->
<g id="edge23" class="edge"><title>Node20&#45;&gt;Node22</title>
<path fill="none" stroke="midnightblue" d="M2898.55,-51.7261C2918.55,-41.7271 2945.39,-28.3065 2962.69,-19.6545"/>
<polygon fill="midnightblue" stroke="midnightblue" points="2896.73,-48.7213 2889.35,-56.324 2899.86,-54.9823 2896.73,-48.7213"/>
</g>
<!-- Node23 -->
<g id="node23" class="node"><title>Node23</title>
<g id="a_node23"><a xlink:href="_sdl_keycap_icon_view_8cpp.html" target="_top" xlink:title="SdlKeycapIconView.cpp">
<polygon fill="none" stroke="black" points="2684.5,-0.5 2684.5,-19.5 2807.5,-19.5 2807.5,-0.5 2684.5,-0.5"/>
<text text-anchor="middle" x="2746" y="-7.5" font-family="Helvetica,sans-Serif" font-size="10.00">SdlKeycapIconView.cpp</text>
</a>
</g>
</g>
<!-- Node20&#45;&gt;Node23 -->
<g id="edge25" class="edge"><title>Node20&#45;&gt;Node23</title>
<path fill="none" stroke="midnightblue" d="M2842.84,-52.503C2819.22,-42.3795 2786.57,-28.388 2765.87,-19.5164"/>
<polygon fill="midnightblue" stroke="midnightblue" points="2841.46,-55.7213 2852.03,-56.4435 2844.22,-49.2873 2841.46,-55.7213"/>
</g>
<!-- Node33&#45;&gt;Node4 -->
<g id="edge41" class="edge"><title>Node33&#45;&gt;Node4</title>
<path fill="none" stroke="midnightblue" d="M2848.11,-117.285C2752.68,-109.963 2534.93,-92.9045 2352,-76 2348.94,-75.7174 2345.82,-75.424 2342.67,-75.1232"/>
<polygon fill="midnightblue" stroke="midnightblue" points="2848.08,-120.793 2858.32,-118.067 2848.62,-113.814 2848.08,-120.793"/>
</g>
<!-- Node33&#45;&gt;Node6 -->
<g id="edge42" class="edge"><title>Node33&#45;&gt;Node6</title>
<path fill="none" stroke="midnightblue" d="M2848.17,-120.625C2703.43,-119.121 2264.21,-111.715 1902,-76 1898.8,-75.6848 1895.52,-75.314 1892.21,-74.9056"/>
<polygon fill="midnightblue" stroke="midnightblue" points="2848.44,-124.128 2858.48,-120.727 2848.51,-117.128 2848.44,-124.128"/>
</g>
<!-- Node33&#45;&gt;Node9 -->
<g id="edge44" class="edge"><title>Node33&#45;&gt;Node9</title>
<path fill="none" stroke="midnightblue" d="M2848.41,-120.05C2662.4,-116.253 1995.53,-101.155 1785,-76 1782.15,-75.6597 1779.22,-75.2372 1776.27,-74.7622"/>
<polygon fill="midnightblue" stroke="midnightblue" points="2848.37,-123.549 2858.44,-120.253 2848.51,-116.551 2848.37,-123.549"/>
</g>
<!-- Node33&#45;&gt;Node12 -->
<g id="edge49" class="edge"><title>Node33&#45;&gt;Node12</title>
<path fill="none" stroke="midnightblue" d="M2874.45,-107.005C2844.83,-88.749 2795.47,-58.7909 2786,-56 2689.47,-27.5557 1971.87,-14.4889 1790.53,-11.6204"/>
<polygon fill="midnightblue" stroke="midnightblue" points="2872.95,-110.192 2883.3,-112.472 2876.63,-104.237 2872.95,-110.192"/>
</g>
<!-- Node33&#45;&gt;Node18 -->
<g id="edge39" class="edge"><title>Node33&#45;&gt;Node18</title>
<path fill="none" stroke="midnightblue" d="M2859.74,-109.436C2826.93,-99.2551 2779.92,-84.664 2750.44,-75.5164"/>
<polygon fill="midnightblue" stroke="midnightblue" points="2858.84,-112.822 2869.43,-112.444 2860.92,-106.137 2858.84,-112.822"/>
</g>
<!-- Node34 -->
<g id="node34" class="node"><title>Node34</title>
<g id="a_node34"><a xlink:href="_message_announcement_8cpp.html" target="_top" xlink:title="MessageAnnouncement.cpp">
<polygon fill="none" stroke="black" points="3070,-56.5 3070,-75.5 3210,-75.5 3210,-56.5 3070,-56.5"/>
<text text-anchor="middle" x="3140" y="-63.5" font-family="Helvetica,sans-Serif" font-size="10.00">MessageAnnouncement.cpp</text>
</a>
</g>
</g>
<!-- Node33&#45;&gt;Node34 -->
<g id="edge40" class="edge"><title>Node33&#45;&gt;Node34</title>
<path fill="none" stroke="midnightblue" d="M2945.52,-110.217C2991.44,-100.013 3059.45,-84.9006 3101.68,-75.5164"/>
<polygon fill="midnightblue" stroke="midnightblue" points="2944.51,-106.858 2935.5,-112.444 2946.03,-113.691 2944.51,-106.858"/>
</g>
<!-- Node35 -->
<g id="node35" class="node"><title>Node35</title>
<g id="a_node35"><a xlink:href="_checkbox_8cpp.html" target="_top" xlink:title="Checkbox.cpp">
<polygon fill="none" stroke="black" points="3228,-56.5 3228,-75.5 3308,-75.5 3308,-56.5 3228,-56.5"/>
<text text-anchor="middle" x="3268" y="-63.5" font-family="Helvetica,sans-Serif" font-size="10.00">Checkbox.cpp</text>
</a>
</g>
</g>
<!-- Node33&#45;&gt;Node35 -->
<g id="edge43" class="edge"><title>Node33&#45;&gt;Node35</title>
<path fill="none" stroke="midnightblue" d="M2945.86,-111.945C3068.01,-92.7881 3100.87,-94.5968 3219,-76 3221.9,-75.5427 3224.9,-75.0481 3227.92,-74.5342"/>
<polygon fill="midnightblue" stroke="midnightblue" points="2945.07,-108.527 2935.74,-113.548 2946.17,-115.44 2945.07,-108.527"/>
</g>
<!-- Node36 -->
<g id="node36" class="node"><title>Node36</title>
<g id="a_node36"><a xlink:href="_pick_list_8cpp.html" target="_top" xlink:title="PickList.cpp">
<polygon fill="none" stroke="black" points="3326.5,-56.5 3326.5,-75.5 3397.5,-75.5 3397.5,-56.5 3326.5,-56.5"/>
<text text-anchor="middle" x="3362" y="-63.5" font-family="Helvetica,sans-Serif" font-size="10.00">PickList.cpp</text>
</a>
</g>
</g>
<!-- Node33&#45;&gt;Node36 -->
<g id="edge45" class="edge"><title>Node33&#45;&gt;Node36</title>
<path fill="none" stroke="midnightblue" d="M2945.76,-112.024C3111.19,-89.1125 3155.89,-99.844 3317,-76 3319.99,-75.5567 3323.09,-75.0468 3326.2,-74.4997"/>
<polygon fill="midnightblue" stroke="midnightblue" points="2945.14,-108.576 2935.72,-113.434 2946.11,-115.508 2945.14,-108.576"/>
</g>
<!-- Node37 -->
<g id="node37" class="node"><title>Node37</title>
<g id="a_node37"><a xlink:href="_radio_button_8cpp.html" target="_top" xlink:title="RadioButton.cpp">
<polygon fill="none" stroke="black" points="3415.5,-56.5 3415.5,-75.5 3504.5,-75.5 3504.5,-56.5 3415.5,-56.5"/>
<text text-anchor="middle" x="3460" y="-63.5" font-family="Helvetica,sans-Serif" font-size="10.00">RadioButton.cpp</text>
</a>
</g>
</g>
<!-- Node33&#45;&gt;Node37 -->
<g id="edge46" class="edge"><title>Node33&#45;&gt;Node37</title>
<path fill="none" stroke="midnightblue" d="M2945.91,-112.033C3150.94,-85.4972 3205.89,-100.859 3407,-76 3409.69,-75.668 3412.44,-75.2957 3415.22,-74.8965"/>
<polygon fill="midnightblue" stroke="midnightblue" points="2945.17,-108.6 2935.72,-113.371 2946.09,-115.54 2945.17,-108.6"/>
</g>
<!-- Node38 -->
<g id="node38" class="node"><title>Node38</title>
<g id="a_node38"><a xlink:href="_state_button_8cpp.html" target="_top" xlink:title="StateButton.cpp">
<polygon fill="none" stroke="black" points="3522.5,-56.5 3522.5,-75.5 3609.5,-75.5 3609.5,-56.5 3522.5,-56.5"/>
<text text-anchor="middle" x="3566" y="-63.5" font-family="Helvetica,sans-Serif" font-size="10.00">StateButton.cpp</text>
</a>
</g>
</g>
<!-- Node33&#45;&gt;Node38 -->
<g id="edge47" class="edge"><title>Node33&#45;&gt;Node38</title>
<path fill="none" stroke="midnightblue" d="M2945.92,-112.057C3198.21,-81.2438 3265.66,-105.26 3514,-76 3516.73,-75.6784 3519.53,-75.3085 3522.36,-74.9062"/>
<polygon fill="midnightblue" stroke="midnightblue" points="2945.2,-108.619 2935.71,-113.322 2946.06,-115.566 2945.2,-108.619"/>
</g>
<!-- Node39 -->
<g id="node39" class="node"><title>Node39</title>
<g id="a_node39"><a xlink:href="_symbol_icon_8cpp.html" target="_top" xlink:title="SymbolIcon.cpp">
<polygon fill="none" stroke="black" points="3627.5,-56.5 3627.5,-75.5 3714.5,-75.5 3714.5,-56.5 3627.5,-56.5"/>
<text text-anchor="middle" x="3671" y="-63.5" font-family="Helvetica,sans-Serif" font-size="10.00">SymbolIcon.cpp</text>
</a>
</g>
</g>
<!-- Node33&#45;&gt;Node39 -->
<g id="edge48" class="edge"><title>Node33&#45;&gt;Node39</title>
<path fill="none" stroke="midnightblue" d="M2945.97,-112.069C3244.63,-77.0214 3324.26,-109.261 3619,-76 3621.73,-75.6918 3624.54,-75.3322 3627.36,-74.9376"/>
<polygon fill="midnightblue" stroke="midnightblue" points="2945.22,-108.633 2935.7,-113.289 2946.05,-115.584 2945.22,-108.633"/>
</g>
<!-- Node40 -->
<g id="node40" class="node"><title>Node40</title>
<g id="a_node40"><a xlink:href="_sdl_symbol_icon_view_8cpp.html" target="_top" xlink:title="SdlSymbolIconView.cpp">
<polygon fill="none" stroke="black" points="2928.5,-56.5 2928.5,-75.5 3051.5,-75.5 3051.5,-56.5 2928.5,-56.5"/>
<text text-anchor="middle" x="2990" y="-63.5" font-family="Helvetica,sans-Serif" font-size="10.00">SdlSymbolIconView.cpp</text>
</a>
</g>
</g>
<!-- Node33&#45;&gt;Node40 -->
<g id="edge50" class="edge"><title>Node33&#45;&gt;Node40</title>
<path fill="none" stroke="midnightblue" d="M2920.81,-107.177C2937.92,-97.2407 2960.47,-84.1492 2975.1,-75.6545"/>
<polygon fill="midnightblue" stroke="midnightblue" points="2918.83,-104.276 2911.94,-112.324 2922.35,-110.329 2918.83,-104.276"/>
</g>
</g>
</svg>
