<?xml version="1.0" encoding="UTF-8" standalone="no"?>
<!DOCTYPE svg PUBLIC "-//W3C//DTD SVG 1.1//EN"
 "http://www.w3.org/Graphics/SVG/1.1/DTD/svg11.dtd">
<!-- Generated by graphviz version 2.38.0 (20140413.2041)
 -->
<!-- Title: Bundle.cpp Pages: 1 -->
<svg width="548pt" height="364pt"
 viewBox="0.00 0.00 548.00 364.00" xmlns="http://www.w3.org/2000/svg" xmlns:xlink="http://www.w3.org/1999/xlink">
<g id="graph0" class="graph" transform="scale(1 1) rotate(0) translate(4 360)">
<title>Bundle.cpp</title>
<!-- Node1 -->
<g id="node1" class="node"><title>Node1</title>
<polygon fill="#bfbfbf" stroke="black" points="248.5,-336.5 248.5,-355.5 313.5,-355.5 313.5,-336.5 248.5,-336.5"/>
<text text-anchor="middle" x="281" y="-343.5" font-family="Helvetica,sans-Serif" font-size="10.00">Bundle.cpp</text>
</g>
<!-- Node2 -->
<g id="node2" class="node"><title>Node2</title>
<g id="a_node2"><a xlink:href="_str_8h.html" target="_top" xlink:title="../Util/Str.h">
<polygon fill="none" stroke="black" points="307.5,-224.5 307.5,-243.5 372.5,-243.5 372.5,-224.5 307.5,-224.5"/>
<text text-anchor="middle" x="340" y="-231.5" font-family="Helvetica,sans-Serif" font-size="10.00">../Util/Str.h</text>
</a>
</g>
</g>
<!-- Node1&#45;&gt;Node2 -->
<g id="edge1" class="edge"><title>Node1&#45;&gt;Node2</title>
<path fill="none" stroke="midnightblue" d="M289.411,-336.339C297.406,-327.719 309.319,-313.816 317,-300 325.18,-285.288 331.313,-267.125 335.18,-253.742"/>
<polygon fill="midnightblue" stroke="midnightblue" points="338.636,-254.374 337.891,-243.806 331.882,-252.532 338.636,-254.374"/>
</g>
<!-- Node11 -->
<g id="node11" class="node"><title>Node11</title>
<g id="a_node11"><a xlink:href="_classic_record_file_8h.html" target="_top" xlink:title="ClassicRecordFile.h">
<polygon fill="none" stroke="black" points="130.5,-280.5 130.5,-299.5 235.5,-299.5 235.5,-280.5 130.5,-280.5"/>
<text text-anchor="middle" x="183" y="-287.5" font-family="Helvetica,sans-Serif" font-size="10.00">ClassicRecordFile.h</text>
</a>
</g>
</g>
<!-- Node1&#45;&gt;Node11 -->
<g id="edge10" class="edge"><title>Node1&#45;&gt;Node11</title>
<path fill="none" stroke="midnightblue" d="M265.255,-336.324C249.681,-327.743 225.623,-314.486 207.541,-304.522"/>
<polygon fill="midnightblue" stroke="midnightblue" points="209.154,-301.415 198.706,-299.655 205.776,-307.546 209.154,-301.415"/>
</g>
<!-- Node18 -->
<g id="node18" class="node"><title>Node18</title>
<g id="a_node18"><a xlink:href="_bundle_8h.html" target="_top" xlink:title="Bundle.h">
<polygon fill="none" stroke="black" points="253.5,-280.5 253.5,-299.5 308.5,-299.5 308.5,-280.5 253.5,-280.5"/>
<text text-anchor="middle" x="281" y="-287.5" font-family="Helvetica,sans-Serif" font-size="10.00">Bundle.h</text>
</a>
</g>
</g>
<!-- Node1&#45;&gt;Node18 -->
<g id="edge22" class="edge"><title>Node1&#45;&gt;Node18</title>
<path fill="none" stroke="midnightblue" d="M281,-336.083C281,-329.006 281,-318.861 281,-309.986"/>
<polygon fill="midnightblue" stroke="midnightblue" points="284.5,-309.751 281,-299.751 277.5,-309.751 284.5,-309.751"/>
</g>
<!-- Node3 -->
<g id="node3" class="node"><title>Node3</title>
<g id="a_node3"><a xlink:href="_o_s_8h.html" target="_top" xlink:title="OS.h">
<polygon fill="none" stroke="black" points="259.5,-112.5 259.5,-131.5 298.5,-131.5 298.5,-112.5 259.5,-112.5"/>
<text text-anchor="middle" x="279" y="-119.5" font-family="Helvetica,sans-Serif" font-size="10.00">OS.h</text>
</a>
</g>
</g>
<!-- Node2&#45;&gt;Node3 -->
<g id="edge2" class="edge"><title>Node2&#45;&gt;Node3</title>
<path fill="none" stroke="midnightblue" d="M335.213,-224.368C325.236,-206.376 302.042,-164.55 288.775,-140.627"/>
<polygon fill="midnightblue" stroke="midnightblue" points="291.675,-138.639 283.764,-131.591 285.553,-142.034 291.675,-138.639"/>
</g>
<!-- Node4 -->
<g id="node4" class="node"><title>Node4</title>
<polygon fill="none" stroke="#bfbfbf" points="498,-56.5 498,-75.5 540,-75.5 540,-56.5 498,-56.5"/>
<text text-anchor="middle" x="519" y="-63.5" font-family="Helvetica,sans-Serif" font-size="10.00">locale</text>
</g>
<!-- Node3&#45;&gt;Node4 -->
<g id="edge3" class="edge"><title>Node3&#45;&gt;Node4</title>
<path fill="none" stroke="midnightblue" d="M298.63,-117.431C334.476,-110.784 413.093,-95.6041 487.805,-76.4181"/>
<polygon fill="midnightblue" stroke="midnightblue" points="489.043,-79.7129 497.841,-73.81 487.282,-72.9379 489.043,-79.7129"/>
</g>
<!-- Node5 -->
<g id="node5" class="node"><title>Node5</title>
<polygon fill="none" stroke="#bfbfbf" points="264,-56.5 264,-75.5 294,-75.5 294,-56.5 264,-56.5"/>
<text text-anchor="middle" x="279" y="-63.5" font-family="Helvetica,sans-Serif" font-size="10.00">set</text>
</g>
<!-- Node3&#45;&gt;Node5 -->
<g id="edge4" class="edge"><title>Node3&#45;&gt;Node5</title>
<path fill="none" stroke="midnightblue" d="M279,-112.083C279,-105.006 279,-94.8611 279,-85.9865"/>
<polygon fill="midnightblue" stroke="midnightblue" points="282.5,-85.751 279,-75.7511 275.5,-85.7511 282.5,-85.751"/>
</g>
<!-- Node6 -->
<g id="node6" class="node"><title>Node6</title>
<polygon fill="none" stroke="#bfbfbf" points="113.5,-56.5 113.5,-75.5 154.5,-75.5 154.5,-56.5 113.5,-56.5"/>
<text text-anchor="middle" x="134" y="-63.5" font-family="Helvetica,sans-Serif" font-size="10.00">string</text>
</g>
<!-- Node3&#45;&gt;Node6 -->
<g id="edge5" class="edge"><title>Node3&#45;&gt;Node6</title>
<path fill="none" stroke="midnightblue" d="M259.445,-113.717C234.966,-104.601 192.781,-88.8909 164.156,-78.2304"/>
<polygon fill="midnightblue" stroke="midnightblue" points="165.24,-74.8995 154.647,-74.6894 162.797,-81.4594 165.24,-74.8995"/>
</g>
<!-- Node7 -->
<g id="node7" class="node"><title>Node7</title>
<polygon fill="none" stroke="#bfbfbf" points="312,-56.5 312,-75.5 356,-75.5 356,-56.5 312,-56.5"/>
<text text-anchor="middle" x="334" y="-63.5" font-family="Helvetica,sans-Serif" font-size="10.00">vector</text>
</g>
<!-- Node3&#45;&gt;Node7 -->
<g id="edge6" class="edge"><title>Node3&#45;&gt;Node7</title>
<path fill="none" stroke="midnightblue" d="M288.082,-112.083C296.171,-104.141 308.195,-92.3354 317.91,-82.7973"/>
<polygon fill="midnightblue" stroke="midnightblue" points="320.403,-85.2545 325.087,-75.7511 315.499,-80.2595 320.403,-85.2545"/>
</g>
<!-- Node8 -->
<g id="node8" class="node"><title>Node8</title>
<polygon fill="none" stroke="#bfbfbf" points="373.5,-56.5 373.5,-75.5 480.5,-75.5 480.5,-56.5 373.5,-56.5"/>
<text text-anchor="middle" x="427" y="-63.5" font-family="Helvetica,sans-Serif" font-size="10.00">boost/filesystem.hpp</text>
</g>
<!-- Node3&#45;&gt;Node8 -->
<g id="edge7" class="edge"><title>Node3&#45;&gt;Node8</title>
<path fill="none" stroke="midnightblue" d="M298.653,-113.829C322.955,-104.962 364.685,-89.7367 393.947,-79.0599"/>
<polygon fill="midnightblue" stroke="midnightblue" points="395.155,-82.3449 403.349,-75.6293 392.756,-75.769 395.155,-82.3449"/>
</g>
<!-- Node9 -->
<g id="node9" class="node"><title>Node9</title>
<g id="a_node9"><a xlink:href="_m_r___types_8h.html" target="_top" xlink:title="MR_Types.h">
<polygon fill="none" stroke="black" points="172.5,-56.5 172.5,-75.5 245.5,-75.5 245.5,-56.5 172.5,-56.5"/>
<text text-anchor="middle" x="209" y="-63.5" font-family="Helvetica,sans-Serif" font-size="10.00">MR_Types.h</text>
</a>
</g>
</g>
<!-- Node3&#45;&gt;Node9 -->
<g id="edge8" class="edge"><title>Node3&#45;&gt;Node9</title>
<path fill="none" stroke="midnightblue" d="M267.753,-112.324C257.203,-104.185 241.199,-91.8395 228.558,-82.0874"/>
<polygon fill="midnightblue" stroke="midnightblue" points="230.507,-79.1707 220.451,-75.8339 226.231,-84.7132 230.507,-79.1707"/>
</g>
<!-- Node10 -->
<g id="node10" class="node"><title>Node10</title>
<polygon fill="none" stroke="#bfbfbf" points="179.5,-0.5 179.5,-19.5 238.5,-19.5 238.5,-0.5 179.5,-0.5"/>
<text text-anchor="middle" x="209" y="-7.5" font-family="Helvetica,sans-Serif" font-size="10.00">inttypes.h</text>
</g>
<!-- Node9&#45;&gt;Node10 -->
<g id="edge9" class="edge"><title>Node9&#45;&gt;Node10</title>
<path fill="none" stroke="midnightblue" d="M209,-56.083C209,-49.0059 209,-38.8611 209,-29.9865"/>
<polygon fill="midnightblue" stroke="midnightblue" points="212.5,-29.751 209,-19.7511 205.5,-29.7511 212.5,-29.751"/>
</g>
<!-- Node12 -->
<g id="node12" class="node"><title>Node12</title>
<polygon fill="none" stroke="#bfbfbf" points="201,-224.5 201,-243.5 251,-243.5 251,-224.5 201,-224.5"/>
<text text-anchor="middle" x="226" y="-231.5" font-family="Helvetica,sans-Serif" font-size="10.00">fstream</text>
</g>
<!-- Node11&#45;&gt;Node12 -->
<g id="edge11" class="edge"><title>Node11&#45;&gt;Node12</title>
<path fill="none" stroke="midnightblue" d="M190.101,-280.083C196.237,-272.377 205.27,-261.033 212.739,-251.653"/>
<polygon fill="midnightblue" stroke="midnightblue" points="215.54,-253.754 219.032,-243.751 210.064,-249.394 215.54,-253.754"/>
</g>
<!-- Node13 -->
<g id="node13" class="node"><title>Node13</title>
<g id="a_node13"><a xlink:href="_record_file_8h.html" target="_top" xlink:title="RecordFile.h">
<polygon fill="none" stroke="black" points="111,-224.5 111,-243.5 183,-243.5 183,-224.5 111,-224.5"/>
<text text-anchor="middle" x="147" y="-231.5" font-family="Helvetica,sans-Serif" font-size="10.00">RecordFile.h</text>
</a>
</g>
</g>
<!-- Node11&#45;&gt;Node13 -->
<g id="edge12" class="edge"><title>Node11&#45;&gt;Node13</title>
<path fill="none" stroke="midnightblue" d="M177.055,-280.083C172.023,-272.534 164.663,-261.495 158.487,-252.23"/>
<polygon fill="midnightblue" stroke="midnightblue" points="161.293,-250.13 152.834,-243.751 155.469,-254.013 161.293,-250.13"/>
</g>
<!-- Node13&#45;&gt;Node3 -->
<g id="edge15" class="edge"><title>Node13&#45;&gt;Node3</title>
<path fill="none" stroke="midnightblue" d="M161.945,-224.354C176.154,-215.852 197.843,-202.128 215,-188 233.426,-172.827 252.339,-152.99 264.779,-139.24"/>
<polygon fill="midnightblue" stroke="midnightblue" points="267.583,-141.354 271.626,-131.561 262.359,-136.695 267.583,-141.354"/>
</g>
<!-- Node14 -->
<g id="node14" class="node"><title>Node14</title>
<g id="a_node14"><a xlink:href="_inspectable_8h.html" target="_top" xlink:title="../Util/Inspectable.h">
<polygon fill="none" stroke="black" points="0,-168.5 0,-187.5 102,-187.5 102,-168.5 0,-168.5"/>
<text text-anchor="middle" x="51" y="-175.5" font-family="Helvetica,sans-Serif" font-size="10.00">../Util/Inspectable.h</text>
</a>
</g>
</g>
<!-- Node13&#45;&gt;Node14 -->
<g id="edge13" class="edge"><title>Node13&#45;&gt;Node14</title>
<path fill="none" stroke="midnightblue" d="M131.576,-224.324C116.46,-215.822 93.1846,-202.729 75.5288,-192.797"/>
<polygon fill="midnightblue" stroke="midnightblue" points="76.8175,-189.507 66.3858,-187.655 73.3856,-195.608 76.8175,-189.507"/>
</g>
<!-- Node15 -->
<g id="node15" class="node"><title>Node15</title>
<g id="a_node15"><a xlink:href="_obj_stream_8h.html" target="_top" xlink:title="ObjStream.h">
<polygon fill="none" stroke="black" points="135.5,-168.5 135.5,-187.5 206.5,-187.5 206.5,-168.5 135.5,-168.5"/>
<text text-anchor="middle" x="171" y="-175.5" font-family="Helvetica,sans-Serif" font-size="10.00">ObjStream.h</text>
</a>
</g>
</g>
<!-- Node13&#45;&gt;Node15 -->
<g id="edge16" class="edge"><title>Node13&#45;&gt;Node15</title>
<path fill="none" stroke="midnightblue" d="M150.963,-224.083C154.213,-216.77 158.919,-206.181 162.954,-197.103"/>
<polygon fill="midnightblue" stroke="midnightblue" points="166.248,-198.311 167.111,-187.751 159.851,-195.468 166.248,-198.311"/>
</g>
<!-- Node14&#45;&gt;Node6 -->
<g id="edge14" class="edge"><title>Node14&#45;&gt;Node6</title>
<path fill="none" stroke="midnightblue" d="M49.2596,-168.215C47.1255,-154.929 45.0208,-129.429 56,-112 66.7968,-94.8606 86.6458,-83.5431 103.618,-76.5449"/>
<polygon fill="midnightblue" stroke="midnightblue" points="105.081,-79.7332 113.188,-72.9122 102.597,-73.1888 105.081,-79.7332"/>
</g>
<!-- Node15&#45;&gt;Node3 -->
<g id="edge21" class="edge"><title>Node15&#45;&gt;Node3</title>
<path fill="none" stroke="midnightblue" d="M188.352,-168.324C205.672,-159.664 232.515,-146.242 252.502,-136.249"/>
<polygon fill="midnightblue" stroke="midnightblue" points="254.312,-139.257 261.691,-131.655 251.181,-132.996 254.312,-139.257"/>
</g>
<!-- Node15&#45;&gt;Node6 -->
<g id="edge17" class="edge"><title>Node15&#45;&gt;Node6</title>
<path fill="none" stroke="midnightblue" d="M168.457,-168.112C164.817,-155.541 157.807,-131.883 151,-112 147.953,-103.1 144.296,-93.32 141.156,-85.1574"/>
<polygon fill="midnightblue" stroke="midnightblue" points="144.312,-83.616 137.42,-75.5687 137.789,-86.1571 144.312,-83.616"/>
</g>
<!-- Node15&#45;&gt;Node9 -->
<g id="edge20" class="edge"><title>Node15&#45;&gt;Node9</title>
<path fill="none" stroke="midnightblue" d="M173.982,-168.368C180.142,-150.537 194.389,-109.295 202.688,-85.2717"/>
<polygon fill="midnightblue" stroke="midnightblue" points="206.075,-86.1862 206.032,-75.5914 199.459,-83.9005 206.075,-86.1862"/>
</g>
<!-- Node16 -->
<g id="node16" class="node"><title>Node16</title>
<g id="a_node16"><a xlink:href="_exception_8h.html" target="_top" xlink:title="../Exception.h">
<polygon fill="none" stroke="black" points="65.5,-112.5 65.5,-131.5 142.5,-131.5 142.5,-112.5 65.5,-112.5"/>
<text text-anchor="middle" x="104" y="-119.5" font-family="Helvetica,sans-Serif" font-size="10.00">../Exception.h</text>
</a>
</g>
</g>
<!-- Node15&#45;&gt;Node16 -->
<g id="edge18" class="edge"><title>Node15&#45;&gt;Node16</title>
<path fill="none" stroke="midnightblue" d="M160.235,-168.324C150.234,-160.263 135.113,-148.077 123.07,-138.369"/>
<polygon fill="midnightblue" stroke="midnightblue" points="124.943,-135.384 114.961,-131.834 120.55,-140.834 124.943,-135.384"/>
</g>
<!-- Node17 -->
<g id="node17" class="node"><title>Node17</title>
<polygon fill="none" stroke="#bfbfbf" points="36.5,-56.5 36.5,-75.5 95.5,-75.5 95.5,-56.5 36.5,-56.5"/>
<text text-anchor="middle" x="66" y="-63.5" font-family="Helvetica,sans-Serif" font-size="10.00">exception</text>
</g>
<!-- Node16&#45;&gt;Node17 -->
<g id="edge19" class="edge"><title>Node16&#45;&gt;Node17</title>
<path fill="none" stroke="midnightblue" d="M97.7251,-112.083C92.3575,-104.455 84.4824,-93.2645 77.9213,-83.9408"/>
<polygon fill="midnightblue" stroke="midnightblue" points="80.7755,-81.9149 72.1582,-75.7511 75.0508,-85.9434 80.7755,-81.9149"/>
</g>
<!-- Node18&#45;&gt;Node3 -->
<g id="edge23" class="edge"><title>Node18&#45;&gt;Node3</title>
<path fill="none" stroke="midnightblue" d="M280.892,-280.075C280.578,-253.945 279.653,-177.211 279.224,-141.577"/>
<polygon fill="midnightblue" stroke="midnightblue" points="282.724,-141.525 279.103,-131.568 275.724,-141.61 282.724,-141.525"/>
</g>
</g>
</svg>
