<?xml version="1.0" encoding="UTF-8" standalone="no"?>
<!DOCTYPE svg PUBLIC "-//W3C//DTD SVG 1.1//EN"
 "http://www.w3.org/Graphics/SVG/1.1/DTD/svg11.dtd">
<!-- Generated by graphviz version 2.26.3 (20100126.1600)
 -->
<!-- Title: Bundle.h Pages: 1 -->
<svg width="740pt" height="204pt"
 viewBox="0.00 0.00 740.00 204.00" xmlns="http://www.w3.org/2000/svg" xmlns:xlink="http://www.w3.org/1999/xlink">
<g id="graph1" class="graph" transform="scale(1 1) rotate(0) translate(4 200)">
<title>Bundle.h</title>
<!-- Node1 -->
<g id="node1" class="node"><title>Node1</title>
<polygon fill="#bfbfbf" stroke="black" points="554,-175 554,-195 608,-195 608,-175 554,-175"/>
<text text-anchor="middle" x="581" y="-182" font-family="FreeSans" font-size="10.00">Bundle.h</text>
</g>
<!-- Node2 -->
<g id="node3" class="node"><title>Node2</title>
<a xlink:href="_track_bundle_8h.html" target="_top" xlink:title="TrackBundle.h">
<polygon fill="none" stroke="black" points="355.5,-117 355.5,-137 434.5,-137 434.5,-117 355.5,-117"/>
<text text-anchor="middle" x="395" y="-124" font-family="FreeSans" font-size="10.00">TrackBundle.h</text>
</a>
</g>
<!-- Node1&#45;&gt;Node2 -->
<g id="edge2" class="edge"><title>Node1&#45;&gt;Node2</title>
<path fill="none" stroke="midnightblue" d="M544.342,-173.569C510.164,-162.911 459.692,-147.173 427.075,-137.002"/>
<polygon fill="midnightblue" stroke="midnightblue" points="543.365,-176.931 553.954,-176.566 545.449,-170.248 543.365,-176.931"/>
</g>
<!-- Node12 -->
<g id="node24" class="node"><title>Node12</title>
<a xlink:href="_config_8cpp.html" target="_top" xlink:title="Config.cpp">
<polygon fill="none" stroke="black" points="670,-59 670,-79 732,-79 732,-59 670,-59"/>
<text text-anchor="middle" x="701" y="-66" font-family="FreeSans" font-size="10.00">Config.cpp</text>
</a>
</g>
<!-- Node1&#45;&gt;Node12 -->
<g id="edge28" class="edge"><title>Node1&#45;&gt;Node12</title>
<path fill="none" stroke="midnightblue" d="M582.115,-164.604C583.915,-149.629 588.492,-129.608 600,-116 609.928,-104.26 646.485,-88.9725 672.763,-79.0732"/>
<polygon fill="midnightblue" stroke="midnightblue" points="578.601,-164.614 581.211,-174.882 585.574,-165.227 578.601,-164.614"/>
</g>
<!-- Node13 -->
<g id="node26" class="node"><title>Node13</title>
<a xlink:href="_bundle_8cpp.html" target="_top" xlink:title="Bundle.cpp">
<polygon fill="none" stroke="black" points="608.5,-117 608.5,-137 673.5,-137 673.5,-117 608.5,-117"/>
<text text-anchor="middle" x="641" y="-124" font-family="FreeSans" font-size="10.00">Bundle.cpp</text>
</a>
</g>
<!-- Node1&#45;&gt;Node13 -->
<g id="edge26" class="edge"><title>Node1&#45;&gt;Node13</title>
<path fill="none" stroke="midnightblue" d="M598.731,-167.86C608.97,-157.962 621.513,-145.838 630.265,-137.378"/>
<polygon fill="midnightblue" stroke="midnightblue" points="596.209,-165.43 591.451,-174.897 601.074,-170.463 596.209,-165.43"/>
</g>
<!-- Node3 -->
<g id="node5" class="node"><title>Node3</title>
<a xlink:href="_client_app_8cpp.html" target="_top" xlink:title="ClientApp.cpp">
<polygon fill="none" stroke="black" points="-0.5,-59 -0.5,-79 76.5,-79 76.5,-59 -0.5,-59"/>
<text text-anchor="middle" x="38" y="-66" font-family="FreeSans" font-size="10.00">ClientApp.cpp</text>
</a>
</g>
<!-- Node2&#45;&gt;Node3 -->
<g id="edge4" class="edge"><title>Node2&#45;&gt;Node3</title>
<path fill="none" stroke="midnightblue" d="M345.366,-120.216C284.89,-111.751 179.68,-96.382 90,-80 85.6429,-79.2041 81.0915,-78.3199 76.572,-77.4086"/>
<polygon fill="midnightblue" stroke="midnightblue" points="345.013,-123.7 355.401,-121.615 345.98,-116.768 345.013,-123.7"/>
</g>
<!-- Node4 -->
<g id="node7" class="node"><title>Node4</title>
<a xlink:href="_game_app_8cpp.html" target="_top" xlink:title="GameApp.cpp">
<polygon fill="none" stroke="black" points="48,-1 48,-21 126,-21 126,-1 48,-1"/>
<text text-anchor="middle" x="87" y="-8" font-family="FreeSans" font-size="10.00">GameApp.cpp</text>
</a>
</g>
<!-- Node2&#45;&gt;Node4 -->
<g id="edge6" class="edge"><title>Node2&#45;&gt;Node4</title>
<path fill="none" stroke="midnightblue" d="M345.176,-123.648C276.584,-118.164 157.609,-105.261 123,-80 103.028,-65.4226 93.2136,-36.4272 89.2404,-21.0761"/>
<polygon fill="midnightblue" stroke="midnightblue" points="345.082,-127.151 355.323,-124.435 345.623,-120.172 345.082,-127.151"/>
</g>
<!-- Node5 -->
<g id="node9" class="node"><title>Node5</title>
<a xlink:href="_internet_room_8h.html" target="_top" xlink:title="InternetRoom.h">
<polygon fill="none" stroke="black" points="131.5,-59 131.5,-79 214.5,-79 214.5,-59 131.5,-59"/>
<text text-anchor="middle" x="173" y="-66" font-family="FreeSans" font-size="10.00">InternetRoom.h</text>
</a>
</g>
<!-- Node2&#45;&gt;Node5 -->
<g id="edge8" class="edge"><title>Node2&#45;&gt;Node5</title>
<path fill="none" stroke="midnightblue" d="M346.899,-114.433C306.28,-103.821 248.887,-88.8263 211.317,-79.0108"/>
<polygon fill="midnightblue" stroke="midnightblue" points="346.024,-117.822 356.584,-116.963 347.793,-111.049 346.024,-117.822"/>
</g>
<!-- Node8 -->
<g id="node16" class="node"><title>Node8</title>
<a xlink:href="_game_scene_8cpp.html" target="_top" xlink:title="GameScene.cpp">
<polygon fill="none" stroke="black" points="231.5,-59 231.5,-79 320.5,-79 320.5,-59 231.5,-59"/>
<text text-anchor="middle" x="276" y="-66" font-family="FreeSans" font-size="10.00">GameScene.cpp</text>
</a>
</g>
<!-- Node2&#45;&gt;Node8 -->
<g id="edge16" class="edge"><title>Node2&#45;&gt;Node8</title>
<path fill="none" stroke="midnightblue" d="M365.034,-112.395C343.771,-102.031 315.768,-88.3825 296.89,-79.1817"/>
<polygon fill="midnightblue" stroke="midnightblue" points="363.749,-115.662 374.272,-116.897 366.816,-109.37 363.749,-115.662"/>
</g>
<!-- Node9 -->
<g id="node18" class="node"><title>Node9</title>
<a xlink:href="_track_select_dialog_8cpp.html" target="_top" xlink:title="TrackSelectDialog.cpp">
<polygon fill="none" stroke="black" points="338,-59 338,-79 452,-79 452,-59 338,-59"/>
<text text-anchor="middle" x="395" y="-66" font-family="FreeSans" font-size="10.00">TrackSelectDialog.cpp</text>
</a>
</g>
<!-- Node2&#45;&gt;Node9 -->
<g id="edge18" class="edge"><title>Node2&#45;&gt;Node9</title>
<path fill="none" stroke="midnightblue" d="M395,-106.89C395,-97.6201 395,-87.0083 395,-79.3776"/>
<polygon fill="midnightblue" stroke="midnightblue" points="391.5,-106.897 395,-116.897 398.5,-106.897 391.5,-106.897"/>
</g>
<!-- Node10 -->
<g id="node20" class="node"><title>Node10</title>
<a xlink:href="_track_list_8cpp.html" target="_top" xlink:title="TrackList.cpp">
<polygon fill="none" stroke="black" points="470,-59 470,-79 546,-79 546,-59 470,-59"/>
<text text-anchor="middle" x="508" y="-66" font-family="FreeSans" font-size="10.00">TrackList.cpp</text>
</a>
</g>
<!-- Node2&#45;&gt;Node10 -->
<g id="edge20" class="edge"><title>Node2&#45;&gt;Node10</title>
<path fill="none" stroke="midnightblue" d="M423.728,-112.254C443.885,-101.909 470.318,-88.3411 488.163,-79.1817"/>
<polygon fill="midnightblue" stroke="midnightblue" points="421.981,-109.217 414.683,-116.897 425.178,-115.445 421.981,-109.217"/>
</g>
<!-- Node11 -->
<g id="node22" class="node"><title>Node11</title>
<a xlink:href="_track_bundle_8cpp.html" target="_top" xlink:title="TrackBundle.cpp">
<polygon fill="none" stroke="black" points="563.5,-59 563.5,-79 652.5,-79 652.5,-59 563.5,-59"/>
<text text-anchor="middle" x="608" y="-66" font-family="FreeSans" font-size="10.00">TrackBundle.cpp</text>
</a>
</g>
<!-- Node2&#45;&gt;Node11 -->
<g id="edge22" class="edge"><title>Node2&#45;&gt;Node11</title>
<path fill="none" stroke="midnightblue" d="M442.113,-114.171C480.927,-103.602 535.212,-88.8202 570.967,-79.0842"/>
<polygon fill="midnightblue" stroke="midnightblue" points="440.831,-110.893 432.102,-116.897 442.67,-117.647 440.831,-110.893"/>
</g>
<!-- Node2&#45;&gt;Node12 -->
<g id="edge24" class="edge"><title>Node2&#45;&gt;Node12</title>
<path fill="none" stroke="midnightblue" d="M444.826,-119.622C498.482,-111.345 586.217,-96.8508 661,-80 663.81,-79.3667 666.719,-78.6628 669.627,-77.9258"/>
<polygon fill="midnightblue" stroke="midnightblue" points="444.244,-116.17 434.889,-121.144 445.304,-123.089 444.244,-116.17"/>
</g>
<!-- Node5&#45;&gt;Node4 -->
<g id="edge10" class="edge"><title>Node5&#45;&gt;Node4</title>
<path fill="none" stroke="midnightblue" d="M149.664,-53.2619C134.528,-43.0535 115.248,-30.051 102.097,-21.1817"/>
<polygon fill="midnightblue" stroke="midnightblue" points="147.772,-56.2075 158.02,-58.8972 151.686,-50.404 147.772,-56.2075"/>
</g>
<!-- Node6 -->
<g id="node12" class="node"><title>Node6</title>
<a xlink:href="_internet_room_8cpp.html" target="_top" xlink:title="InternetRoom.cpp">
<polygon fill="none" stroke="black" points="143.5,-1 143.5,-21 236.5,-21 236.5,-1 143.5,-1"/>
<text text-anchor="middle" x="190" y="-8" font-family="FreeSans" font-size="10.00">InternetRoom.cpp</text>
</a>
</g>
<!-- Node5&#45;&gt;Node6 -->
<g id="edge12" class="edge"><title>Node5&#45;&gt;Node6</title>
<path fill="none" stroke="midnightblue" d="M178.806,-49.192C181.544,-39.8512 184.697,-29.0912 186.958,-21.3776"/>
<polygon fill="midnightblue" stroke="midnightblue" points="175.415,-48.3164 175.961,-58.8972 182.133,-50.2854 175.415,-48.3164"/>
</g>
<!-- Node7 -->
<g id="node14" class="node"><title>Node7</title>
<a xlink:href="_network_session_8cpp.html" target="_top" xlink:title="NetworkSession.cpp">
<polygon fill="none" stroke="black" points="253.5,-1 253.5,-21 360.5,-21 360.5,-1 253.5,-1"/>
<text text-anchor="middle" x="307" y="-8" font-family="FreeSans" font-size="10.00">NetworkSession.cpp</text>
</a>
</g>
<!-- Node5&#45;&gt;Node7 -->
<g id="edge14" class="edge"><title>Node5&#45;&gt;Node7</title>
<path fill="none" stroke="midnightblue" d="M205.777,-54.813C229.832,-44.4012 261.932,-30.5069 283.477,-21.1817"/>
<polygon fill="midnightblue" stroke="midnightblue" points="204.128,-51.7129 196.341,-58.8972 206.909,-58.1369 204.128,-51.7129"/>
</g>
</g>
</svg>
