<?xml version="1.0" encoding="UTF-8" standalone="no"?>
<!DOCTYPE svg PUBLIC "-//W3C//DTD SVG 1.1//EN"
 "http://www.w3.org/Graphics/SVG/1.1/DTD/svg11.dtd">
<!-- Generated by graphviz version 2.26.3 (20100126.1600)
 -->
<!-- Title: Bundle.h Pages: 1 -->
<!--zoomable 146 -->
<svg id="main" version="1.1" xmlns="http://www.w3.org/2000/svg" xmlns:xlink="http://www.w3.org/1999/xlink" xml:space="preserve" onload="init(evt)">
<style type="text/css"><![CDATA[
.edge:hover path { stroke: red; }
.edge:hover polygon { stroke: red; fill: red; }
]]></style>
<script type="text/javascript"><![CDATA[
var edges = document.getElementsByTagName('g');
if (edges && edges.length) {
  for (var i=0;i<edges.length;i++) {
    if (edges[i].id.substr(0,4)=='edge') {
      edges[i].setAttribute('class','edge');
    }
  }
}
]]></script>
        <defs>
                <circle id="rim" cx="0" cy="0" r="7"/>
                <circle id="rim2" cx="0" cy="0" r="3.5"/>
                <g id="zoomPlus">
                        <use xlink:href="#rim" fill="#404040">
                                <set attributeName="fill" to="#808080" begin="zoomplus.mouseover" end="zoomplus.mouseout"/>
                        </use>
                        <path d="M-4,0h8M0,-4v8" fill="none" stroke="white" stroke-width="1.5" pointer-events="none"/>
                </g>
                <g id="zoomMin">
                        <use xlink:href="#rim" fill="#404040">
                                <set attributeName="fill" to="#808080" begin="zoomminus.mouseover" end="zoomminus.mouseout"/>
                        </use>
                        <path d="M-4,0h8" fill="none" stroke="white" stroke-width="1.5" pointer-events="none"/>
                </g>
                <g id="dirArrow">
                        <path fill="none" stroke="white" stroke-width="1.5" d="M0,-3.0v7 M-2.5,-0.5L0,-3.0L2.5,-0.5"/>
                </g>
               <g id="resetDef">
                       <use xlink:href="#rim2" fill="#404040">
                               <set attributeName="fill" to="#808080" begin="reset.mouseover" end="reset.mouseout"/>
                       </use>
               </g>
        </defs>

<script type="text/javascript">
var viewWidth = 700;
var viewHeight = 146;
var sectionId = 'dynsection-1';
</script>
<script xlink:href="svgpan.js"/>
<svg id="graph" class="graph">
<g id="viewport">
<title>Bundle.h</title>
<!-- Node1 -->
<g id="node1" class="node"><title>Node1</title>
<polygon fill="#bfbfbf" stroke="black" points="571,-117 571,-137 625,-137 625,-117 571,-117"/>
<text text-anchor="middle" x="598" y="-124" font-family="FreeSans" font-size="10.00">Bundle.h</text>
</g>
<!-- Node2 -->
<g id="node3" class="node"><title>Node2</title>
<a xlink:href="_track_bundle_8h.html" target="_top" xlink:title="TrackBundle.h">
<polygon fill="none" stroke="black" points="380.5,-59 380.5,-79 459.5,-79 459.5,-59 380.5,-59"/>
<text text-anchor="middle" x="420" y="-66" font-family="FreeSans" font-size="10.00">TrackBundle.h</text>
</a>
</g>
<!-- Node1&#45;&gt;Node2 -->
<g id="edge2" class="edge"><title>Node1&#45;&gt;Node2</title>
<path fill="none" stroke="midnightblue" d="M561.349,-115.058C528.748,-104.435 481.608,-89.0744 450.885,-79.0635"/>
<polygon fill="midnightblue" stroke="midnightblue" points="560.373,-118.421 570.966,-118.191 562.542,-111.765 560.373,-118.421"/>
</g>
<!-- Node9 -->
<g id="node17" class="node"><title>Node9</title>
<a xlink:href="_config_8cpp.html" target="_top" xlink:title="Config.cpp">
<polygon fill="none" stroke="black" points="630,-1 630,-21 692,-21 692,-1 630,-1"/>
<text text-anchor="middle" x="661" y="-8" font-family="FreeSans" font-size="10.00">Config.cpp</text>
</a>
</g>
<!-- Node1&#45;&gt;Node9 -->
<g id="edge20" class="edge"><title>Node1&#45;&gt;Node9</title>
<path fill="none" stroke="midnightblue" d="M600.997,-106.34C603.693,-92.0812 608.568,-73.0546 617,-58 625.084,-43.5672 638.527,-30.1136 648.431,-21.3308"/>
<polygon fill="midnightblue" stroke="midnightblue" points="597.481,-106.145 599.276,-116.586 604.384,-107.304 597.481,-106.145"/>
</g>
<!-- Node10 -->
<g id="node19" class="node"><title>Node10</title>
<a xlink:href="_bundle_8cpp.html" target="_top" xlink:title="Bundle.cpp">
<polygon fill="none" stroke="black" points="625.5,-59 625.5,-79 690.5,-79 690.5,-59 625.5,-59"/>
<text text-anchor="middle" x="658" y="-66" font-family="FreeSans" font-size="10.00">Bundle.cpp</text>
</a>
</g>
<!-- Node1&#45;&gt;Node10 -->
<g id="edge18" class="edge"><title>Node1&#45;&gt;Node10</title>
<path fill="none" stroke="midnightblue" d="M615.731,-109.86C625.97,-99.9622 638.513,-87.8377 647.265,-79.3776"/>
<polygon fill="midnightblue" stroke="midnightblue" points="613.209,-107.43 608.451,-116.897 618.074,-112.463 613.209,-107.43"/>
</g>
<!-- Node3 -->
<g id="node5" class="node"><title>Node3</title>
<a xlink:href="_client_app_8cpp.html" target="_top" xlink:title="ClientApp.cpp">
<polygon fill="none" stroke="black" points="-0.5,-1 -0.5,-21 76.5,-21 76.5,-1 -0.5,-1"/>
<text text-anchor="middle" x="38" y="-8" font-family="FreeSans" font-size="10.00">ClientApp.cpp</text>
</a>
</g>
<!-- Node2&#45;&gt;Node3 -->
<g id="edge4" class="edge"><title>Node2&#45;&gt;Node3</title>
<path fill="none" stroke="midnightblue" d="M370.299,-63.4527C304.685,-55.8042 185.694,-40.807 85,-22 82.2815,-21.4923 79.4829,-20.9326 76.67,-20.3429"/>
<polygon fill="midnightblue" stroke="midnightblue" points="370.024,-66.9442 380.36,-64.6167 370.828,-59.9906 370.024,-66.9442"/>
</g>
<!-- Node4 -->
<g id="node7" class="node"><title>Node4</title>
<a xlink:href="_game_scene_8cpp.html" target="_top" xlink:title="GameScene.cpp">
<polygon fill="none" stroke="black" points="93.5,-1 93.5,-21 182.5,-21 182.5,-1 93.5,-1"/>
<text text-anchor="middle" x="138" y="-8" font-family="FreeSans" font-size="10.00">GameScene.cpp</text>
</a>
</g>
<!-- Node2&#45;&gt;Node4 -->
<g id="edge6" class="edge"><title>Node2&#45;&gt;Node4</title>
<path fill="none" stroke="midnightblue" d="M370.192,-58.8104C323.799,-49.3118 252.712,-34.7369 191,-22 188.239,-21.4301 185.397,-20.8428 182.532,-20.2498"/>
<polygon fill="midnightblue" stroke="midnightblue" points="369.781,-62.2988 380.279,-60.8755 371.185,-55.441 369.781,-62.2988"/>
</g>
<!-- Node5 -->
<g id="node9" class="node"><title>Node5</title>
<a xlink:href="_track_select_scene_8cpp.html" target="_top" xlink:title="TrackSelectScene.cpp">
<polygon fill="none" stroke="black" points="199.5,-1 199.5,-21 314.5,-21 314.5,-1 199.5,-1"/>
<text text-anchor="middle" x="257" y="-8" font-family="FreeSans" font-size="10.00">TrackSelectScene.cpp</text>
</a>
</g>
<!-- Node2&#45;&gt;Node5 -->
<g id="edge8" class="edge"><title>Node2&#45;&gt;Node5</title>
<path fill="none" stroke="midnightblue" d="M382.035,-55.491C352.482,-44.9752 312.119,-30.6131 285.34,-21.0842"/>
<polygon fill="midnightblue" stroke="midnightblue" points="381.013,-58.8422 391.608,-58.8972 383.36,-52.2473 381.013,-58.8422"/>
</g>
<!-- Node6 -->
<g id="node11" class="node"><title>Node6</title>
<a xlink:href="_game_peer_8cpp.html" target="_top" xlink:title="GamePeer.cpp">
<polygon fill="none" stroke="black" points="331.5,-1 331.5,-21 412.5,-21 412.5,-1 331.5,-1"/>
<text text-anchor="middle" x="372" y="-8" font-family="FreeSans" font-size="10.00">GamePeer.cpp</text>
</a>
</g>
<!-- Node2&#45;&gt;Node6 -->
<g id="edge10" class="edge"><title>Node2&#45;&gt;Node6</title>
<path fill="none" stroke="midnightblue" d="M405.088,-50.981C397.036,-41.2522 387.384,-29.5889 380.588,-21.3776"/>
<polygon fill="midnightblue" stroke="midnightblue" points="402.567,-53.4247 411.639,-58.8972 407.96,-48.9617 402.567,-53.4247"/>
</g>
<!-- Node7 -->
<g id="node13" class="node"><title>Node7</title>
<a xlink:href="_track_list_8cpp.html" target="_top" xlink:title="TrackList.cpp">
<polygon fill="none" stroke="black" points="430,-1 430,-21 506,-21 506,-1 430,-1"/>
<text text-anchor="middle" x="468" y="-8" font-family="FreeSans" font-size="10.00">TrackList.cpp</text>
</a>
</g>
<!-- Node2&#45;&gt;Node7 -->
<g id="edge12" class="edge"><title>Node2&#45;&gt;Node7</title>
<path fill="none" stroke="midnightblue" d="M434.912,-50.981C442.964,-41.2522 452.616,-29.5889 459.412,-21.3776"/>
<polygon fill="midnightblue" stroke="midnightblue" points="432.04,-48.9617 428.361,-58.8972 437.433,-53.4247 432.04,-48.9617"/>
</g>
<!-- Node8 -->
<g id="node15" class="node"><title>Node8</title>
<a xlink:href="_track_bundle_8cpp.html" target="_top" xlink:title="TrackBundle.cpp">
<polygon fill="none" stroke="black" points="523.5,-1 523.5,-21 612.5,-21 612.5,-1 523.5,-1"/>
<text text-anchor="middle" x="568" y="-8" font-family="FreeSans" font-size="10.00">TrackBundle.cpp</text>
</a>
</g>
<!-- Node2&#45;&gt;Node8 -->
<g id="edge14" class="edge"><title>Node2&#45;&gt;Node8</title>
<path fill="none" stroke="midnightblue" d="M455.143,-55.2276C481.822,-44.7725 517.907,-30.6312 542.019,-21.1817"/>
<polygon fill="midnightblue" stroke="midnightblue" points="453.813,-51.9897 445.78,-58.8972 456.367,-58.5071 453.813,-51.9897"/>
</g>
<!-- Node2&#45;&gt;Node9 -->
<g id="edge16" class="edge"><title>Node2&#45;&gt;Node9</title>
<path fill="none" stroke="midnightblue" d="M469.724,-57.9355C510.48,-48.7314 569.611,-35.069 621,-22 623.792,-21.2899 626.688,-20.5332 629.588,-19.7618"/>
<polygon fill="midnightblue" stroke="midnightblue" points="468.76,-54.5648 459.773,-60.1765 470.298,-61.3937 468.76,-54.5648"/>
</g>
</g>
</svg>
        <g id="navigator" transform="translate(0 0)" fill="#404254">
                <rect fill="#f2f5e9" fill-opacity="0.5" stroke="#606060" stroke-width=".5" x="0" y="0" width="60" height="60"/>
                <use id="zoomplus" xlink:href="#zoomPlus" x="17" y="9" onmousedown="handleZoom(evt,'in')"/>
                <use id="zoomminus" xlink:href="#zoomMin" x="42" y="9" onmousedown="handleZoom(evt,'out')"/>
                <use id="reset" xlink:href="#resetDef" x="30" y="36" onmousedown="handleReset()"/>
                <g id="arrowUp" xlink:href="#dirArrow" transform="translate(30 24)" onmousedown="handlePan(0,-1)">
                  <use xlink:href="#rim" fill="#404040">
                        <set attributeName="fill" to="#808080" begin="arrowUp.mouseover" end="arrowUp.mouseout"/>
                  </use>
                  <path fill="none" stroke="white" stroke-width="1.5" d="M0,-3.0v7 M-2.5,-0.5L0,-3.0L2.5,-0.5"/>
                </g>
                <g id="arrowRight" xlink:href="#dirArrow" transform="rotate(90) translate(36 -43)" onmousedown="handlePan(1,0)">
                  <use xlink:href="#rim" fill="#404040">
                        <set attributeName="fill" to="#808080" begin="arrowRight.mouseover" end="arrowRight.mouseout"/>
                  </use>
                  <path fill="none" stroke="white" stroke-width="1.5" d="M0,-3.0v7 M-2.5,-0.5L0,-3.0L2.5,-0.5"/>
                </g>
                <g id="arrowDown" xlink:href="#dirArrow" transform="rotate(180) translate(-30 -48)" onmousedown="handlePan(0,1)">
                  <use xlink:href="#rim" fill="#404040">
                        <set attributeName="fill" to="#808080" begin="arrowDown.mouseover" end="arrowDown.mouseout"/>
                  </use>
                  <path fill="none" stroke="white" stroke-width="1.5" d="M0,-3.0v7 M-2.5,-0.5L0,-3.0L2.5,-0.5"/>
                </g>
                <g id="arrowLeft" xlink:href="#dirArrow" transform="rotate(270) translate(-36 17)" onmousedown="handlePan(-1,0)">
                  <use xlink:href="#rim" fill="#404040">
                        <set attributeName="fill" to="#808080" begin="arrowLeft.mouseover" end="arrowLeft.mouseout"/>
                  </use>
                  <path fill="none" stroke="white" stroke-width="1.5" d="M0,-3.0v7 M-2.5,-0.5L0,-3.0L2.5,-0.5"/>
                </g>
        </g>
        <svg viewBox="0 0 15 15" width="100%" height="30px" preserveAspectRatio="xMaxYMin meet">
         <g id="arrow_out" transform="scale(0.3 0.3)">
          <a xlink:href="_bundle_8h__dep__incl_org.svg" target="_base">
           <rect id="button" ry="5" rx="5" y="6" x="6" height="38" width="38"
                fill="#f2f5e9" fill-opacity="0.5" stroke="#606060" stroke-width="1.0"/>
           <path id="arrow"
             d="M 11.500037,31.436501 C 11.940474,20.09759 22.043105,11.32322 32.158766,21.979434 L 37.068811,17.246167 C 37.068811,17.246167 37.088388,32 37.088388,32 L 22.160133,31.978069 C 22.160133,31.978069 26.997745,27.140456 26.997745,27.140456 C 18.528582,18.264221 13.291696,25.230495 11.500037,31.436501 z"
             style="fill:#404040;"/>
          </a>
         </g>
        </svg>
</svg>
