<?xml version="1.0" encoding="UTF-8" standalone="no"?>
<!DOCTYPE svg PUBLIC "-//W3C//DTD SVG 1.1//EN"
 "http://www.w3.org/Graphics/SVG/1.1/DTD/svg11.dtd">
<!-- Generated by graphviz version 2.38.0 (20140413.2041)
 -->
<!-- Title: Bundle.h Pages: 1 -->
<!--zoomable 140 -->
<svg id="main" version="1.1" xmlns="http://www.w3.org/2000/svg" xmlns:xlink="http://www.w3.org/1999/xlink" xml:space="preserve" onload="init(evt)">
<style type="text/css"><![CDATA[
.edge:hover path { stroke: red; }
.edge:hover polygon { stroke: red; fill: red; }
]]></style>
<script type="text/javascript"><![CDATA[
var edges = document.getElementsByTagName('g');
if (edges && edges.length) {
  for (var i=0;i<edges.length;i++) {
    if (edges[i].id.substr(0,4)=='edge') {
      edges[i].setAttribute('class','edge');
    }
  }
}
]]></script>
        <defs>
                <circle id="rim" cx="0" cy="0" r="7"/>
                <circle id="rim2" cx="0" cy="0" r="3.5"/>
                <g id="zoomPlus">
                        <use xlink:href="#rim" fill="#404040">
                                <set attributeName="fill" to="#808080" begin="zoomplus.mouseover" end="zoomplus.mouseout"/>
                        </use>
                        <path d="M-4,0h8M0,-4v8" fill="none" stroke="white" stroke-width="1.5" pointer-events="none"/>
                </g>
                <g id="zoomMin">
                        <use xlink:href="#rim" fill="#404040">
                                <set attributeName="fill" to="#808080" begin="zoomminus.mouseover" end="zoomminus.mouseout"/>
                        </use>
                        <path d="M-4,0h8" fill="none" stroke="white" stroke-width="1.5" pointer-events="none"/>
                </g>
                <g id="dirArrow">
                        <path fill="none" stroke="white" stroke-width="1.5" d="M0,-3.0v7 M-2.5,-0.5L0,-3.0L2.5,-0.5"/>
                </g>
               <g id="resetDef">
                       <use xlink:href="#rim2" fill="#404040">
                               <set attributeName="fill" to="#808080" begin="reset.mouseover" end="reset.mouseout"/>
                       </use>
               </g>
        </defs>

<script type="text/javascript">
var viewWidth = 1496;
var viewHeight = 140;
var sectionId = 'dynsection-1';
</script>
<script xlink:href="svgpan.js"/>
<svg id="graph" class="graph">
<g id="viewport">
<title>Bundle.h</title>
<!-- Node1 -->
<g id="node1" class="node"><title>Node1</title>
<polygon fill="#bfbfbf" stroke="black" points="919,-112.5 919,-131.5 978,-131.5 978,-112.5 919,-112.5"/>
<text text-anchor="middle" x="948.5" y="-119.5" font-family="FreeSans" font-size="10.00">Bundle.h</text>
</g>
<!-- Node2 -->
<g id="node2" class="node"><title>Node2</title>
<g id="a_node2"><a xlink:href="_res_bundle_8h.html" target="_top" xlink:title="ResBundle.h">
<polygon fill="none" stroke="black" points="990,-56.5 990,-75.5 1065,-75.5 1065,-56.5 990,-56.5"/>
<text text-anchor="middle" x="1027.5" y="-63.5" font-family="FreeSans" font-size="10.00">ResBundle.h</text>
</a>
</g>
</g>
<!-- Node1&#45;&gt;Node2 -->
<g id="edge1" class="edge"><title>Node1&#45;&gt;Node2</title>
<path fill="none" stroke="midnightblue" d="M969.534,-106.622C983.966,-96.7574 1002.64,-83.9919 1014.84,-75.6545"/>
<polygon fill="midnightblue" stroke="midnightblue" points="967.473,-103.791 961.193,-112.324 971.423,-109.57 967.473,-103.791"/>
</g>
<!-- Node10 -->
<g id="node10" class="node"><title>Node10</title>
<g id="a_node10"><a xlink:href="_config_8cpp.html" target="_top" xlink:title="Config.cpp">
<polygon fill="none" stroke="black" points="811,-0.5 811,-19.5 878,-19.5 878,-0.5 811,-0.5"/>
<text text-anchor="middle" x="844.5" y="-7.5" font-family="FreeSans" font-size="10.00">Config.cpp</text>
</a>
</g>
</g>
<!-- Node1&#45;&gt;Node10 -->
<g id="edge20" class="edge"><title>Node1&#45;&gt;Node10</title>
<path fill="none" stroke="midnightblue" d="M933.275,-104.897C910.917,-81.2486 869.979,-37.9493 852.623,-19.5914"/>
<polygon fill="midnightblue" stroke="midnightblue" points="930.926,-107.507 940.339,-112.368 936.012,-102.697 930.926,-107.507"/>
</g>
<!-- Node11 -->
<g id="node11" class="node"><title>Node11</title>
<g id="a_node11"><a xlink:href="_track_bundle_8h.html" target="_top" xlink:title="TrackBundle.h">
<polygon fill="none" stroke="black" points="485,-56.5 485,-75.5 568,-75.5 568,-56.5 485,-56.5"/>
<text text-anchor="middle" x="526.5" y="-63.5" font-family="FreeSans" font-size="10.00">TrackBundle.h</text>
</a>
</g>
</g>
<!-- Node1&#45;&gt;Node11 -->
<g id="edge10" class="edge"><title>Node1&#45;&gt;Node11</title>
<path fill="none" stroke="midnightblue" d="M908.686,-115.905C828.818,-105.685 649.746,-82.7708 568.28,-72.3462"/>
<polygon fill="midnightblue" stroke="midnightblue" points="908.462,-119.405 918.826,-117.203 909.351,-112.462 908.462,-119.405"/>
</g>
<!-- Node18 -->
<g id="node18" class="node"><title>Node18</title>
<g id="a_node18"><a xlink:href="_bundle_8cpp.html" target="_top" xlink:title="Bundle.cpp">
<polygon fill="none" stroke="black" points="1083.5,-56.5 1083.5,-75.5 1153.5,-75.5 1153.5,-56.5 1083.5,-56.5"/>
<text text-anchor="middle" x="1118.5" y="-63.5" font-family="FreeSans" font-size="10.00">Bundle.cpp</text>
</a>
</g>
</g>
<!-- Node1&#45;&gt;Node18 -->
<g id="edge19" class="edge"><title>Node1&#45;&gt;Node18</title>
<path fill="none" stroke="midnightblue" d="M985.319,-109.304C1017.35,-99.1294 1063.02,-84.6246 1091.69,-75.5164"/>
<polygon fill="midnightblue" stroke="midnightblue" points="983.908,-106.08 975.437,-112.444 986.027,-112.752 983.908,-106.08"/>
</g>
<!-- Node3 -->
<g id="node3" class="node"><title>Node3</title>
<g id="a_node3"><a xlink:href="_audio_settings_scene_8cpp.html" target="_top" xlink:title="AudioSettingsScene.cpp">
<polygon fill="none" stroke="black" points="896.5,-0.5 896.5,-19.5 1030.5,-19.5 1030.5,-0.5 896.5,-0.5"/>
<text text-anchor="middle" x="963.5" y="-7.5" font-family="FreeSans" font-size="10.00">AudioSettingsScene.cpp</text>
</a>
</g>
</g>
<!-- Node2&#45;&gt;Node3 -->
<g id="edge2" class="edge"><title>Node2&#45;&gt;Node3</title>
<path fill="none" stroke="midnightblue" d="M1009.51,-49.8197C998.042,-40.1452 983.587,-27.9481 973.97,-19.8339"/>
<polygon fill="midnightblue" stroke="midnightblue" points="1007.32,-52.5502 1017.22,-56.324 1011.83,-47.2002 1007.32,-52.5502"/>
</g>
<!-- Node4 -->
<g id="node4" class="node"><title>Node4</title>
<g id="a_node4"><a xlink:href="_client_app_8cpp.html" target="_top" xlink:title="ClientApp.cpp">
<polygon fill="none" stroke="black" points="710,-0.5 710,-19.5 793,-19.5 793,-0.5 710,-0.5"/>
<text text-anchor="middle" x="751.5" y="-7.5" font-family="FreeSans" font-size="10.00">ClientApp.cpp</text>
</a>
</g>
</g>
<!-- Node2&#45;&gt;Node4 -->
<g id="edge3" class="edge"><title>Node2&#45;&gt;Node4</title>
<path fill="none" stroke="midnightblue" d="M979.918,-55.6905C927.38,-45.4113 843.611,-29.0216 793.444,-19.2065"/>
<polygon fill="midnightblue" stroke="midnightblue" points="979.504,-59.1758 989.99,-57.6611 980.848,-52.3061 979.504,-59.1758"/>
</g>
<!-- Node5 -->
<g id="node5" class="node"><title>Node5</title>
<g id="a_node5"><a xlink:href="_res_bundle_8cpp.html" target="_top" xlink:title="ResBundle.cpp">
<polygon fill="none" stroke="black" points="1048.5,-0.5 1048.5,-19.5 1134.5,-19.5 1134.5,-0.5 1048.5,-0.5"/>
<text text-anchor="middle" x="1091.5" y="-7.5" font-family="FreeSans" font-size="10.00">ResBundle.cpp</text>
</a>
</g>
</g>
<!-- Node2&#45;&gt;Node5 -->
<g id="edge4" class="edge"><title>Node2&#45;&gt;Node5</title>
<path fill="none" stroke="midnightblue" d="M1045.49,-49.8197C1056.96,-40.1452 1071.41,-27.9481 1081.03,-19.8339"/>
<polygon fill="midnightblue" stroke="midnightblue" points="1043.17,-47.2002 1037.78,-56.324 1047.68,-52.5502 1043.17,-47.2002"/>
</g>
<!-- Node6 -->
<g id="node6" class="node"><title>Node6</title>
<g id="a_node6"><a xlink:href="_mine_8cpp.html" target="_top" xlink:title="Mine.cpp">
<polygon fill="none" stroke="black" points="1153,-0.5 1153,-19.5 1212,-19.5 1212,-0.5 1153,-0.5"/>
<text text-anchor="middle" x="1182.5" y="-7.5" font-family="FreeSans" font-size="10.00">Mine.cpp</text>
</a>
</g>
</g>
<!-- Node2&#45;&gt;Node6 -->
<g id="edge5" class="edge"><title>Node2&#45;&gt;Node6</title>
<path fill="none" stroke="midnightblue" d="M1061.83,-53.0392C1091,-42.8786 1132.14,-28.5457 1158.05,-19.5164"/>
<polygon fill="midnightblue" stroke="midnightblue" points="1060.35,-49.8484 1052.06,-56.4435 1062.66,-56.4587 1060.35,-49.8484"/>
</g>
<!-- Node7 -->
<g id="node7" class="node"><title>Node7</title>
<g id="a_node7"><a xlink:href="_missile_8cpp.html" target="_top" xlink:title="Missile.cpp">
<polygon fill="none" stroke="black" points="1230.5,-0.5 1230.5,-19.5 1298.5,-19.5 1298.5,-0.5 1230.5,-0.5"/>
<text text-anchor="middle" x="1264.5" y="-7.5" font-family="FreeSans" font-size="10.00">Missile.cpp</text>
</a>
</g>
</g>
<!-- Node2&#45;&gt;Node7 -->
<g id="edge6" class="edge"><title>Node2&#45;&gt;Node7</title>
<path fill="none" stroke="midnightblue" d="M1075.06,-54.1627C1120.98,-43.701 1189.38,-28.1163 1230.2,-18.8151"/>
<polygon fill="midnightblue" stroke="midnightblue" points="1074.03,-50.8094 1065.05,-56.4435 1075.58,-57.6345 1074.03,-50.8094"/>
</g>
<!-- Node8 -->
<g id="node8" class="node"><title>Node8</title>
<g id="a_node8"><a xlink:href="_obj_fac1_8cpp.html" target="_top" xlink:title="ObjFac1.cpp">
<polygon fill="none" stroke="black" points="1316.5,-0.5 1316.5,-19.5 1390.5,-19.5 1390.5,-0.5 1316.5,-0.5"/>
<text text-anchor="middle" x="1353.5" y="-7.5" font-family="FreeSans" font-size="10.00">ObjFac1.cpp</text>
</a>
</g>
</g>
<!-- Node2&#45;&gt;Node8 -->
<g id="edge7" class="edge"><title>Node2&#45;&gt;Node8</title>
<path fill="none" stroke="midnightblue" d="M1075.18,-55.9397C1179.43,-38.1223 1207.41,-37.5167 1307.5,-20 1310.39,-19.495 1313.37,-18.954 1316.37,-18.3972"/>
<polygon fill="midnightblue" stroke="midnightblue" points="1074.45,-52.5137 1065.19,-57.6597 1075.64,-59.4123 1074.45,-52.5137"/>
</g>
<!-- Node9 -->
<g id="node9" class="node"><title>Node9</title>
<g id="a_node9"><a xlink:href="_power_up_8cpp.html" target="_top" xlink:title="PowerUp.cpp">
<polygon fill="none" stroke="black" points="1409,-0.5 1409,-19.5 1488,-19.5 1488,-0.5 1409,-0.5"/>
<text text-anchor="middle" x="1448.5" y="-7.5" font-family="FreeSans" font-size="10.00">PowerUp.cpp</text>
</a>
</g>
</g>
<!-- Node2&#45;&gt;Node9 -->
<g id="edge8" class="edge"><title>Node2&#45;&gt;Node9</title>
<path fill="none" stroke="midnightblue" d="M1075.3,-55.9981C1219.94,-34.6095 1258.95,-40.6655 1399.5,-20 1402.58,-19.5471 1405.76,-19.0435 1408.96,-18.5126"/>
<polygon fill="midnightblue" stroke="midnightblue" points="1074.54,-52.5741 1065.17,-57.5166 1075.57,-59.4969 1074.54,-52.5741"/>
</g>
<!-- Node2&#45;&gt;Node10 -->
<g id="edge9" class="edge"><title>Node2&#45;&gt;Node10</title>
<path fill="none" stroke="midnightblue" d="M988.757,-53.5677C954.235,-43.381 904.495,-28.7034 873.361,-19.5164"/>
<polygon fill="midnightblue" stroke="midnightblue" points="987.921,-56.9702 998.503,-56.4435 989.903,-50.2564 987.921,-56.9702"/>
</g>
<!-- Node11&#45;&gt;Node4 -->
<g id="edge11" class="edge"><title>Node11&#45;&gt;Node4</title>
<path fill="none" stroke="midnightblue" d="M571.965,-54.0884C614.473,-43.8865 677.079,-28.8612 716.015,-19.5164"/>
<polygon fill="midnightblue" stroke="midnightblue" points="571.059,-50.7064 562.152,-56.4435 572.693,-57.5131 571.059,-50.7064"/>
</g>
<!-- Node11&#45;&gt;Node10 -->
<g id="edge18" class="edge"><title>Node11&#45;&gt;Node10</title>
<path fill="none" stroke="midnightblue" d="M577.977,-57.2708C633.318,-48.7995 723.82,-34.4777 801.5,-20 804.499,-19.441 807.611,-18.837 810.727,-18.2157"/>
<polygon fill="midnightblue" stroke="midnightblue" points="577.421,-53.815 568.064,-58.7833 578.477,-60.7349 577.421,-53.815"/>
</g>
<!-- Node12 -->
<g id="node12" class="node"><title>Node12</title>
<g id="a_node12"><a xlink:href="_demo_game_scene_8cpp.html" target="_top" xlink:title="DemoGameScene.cpp">
<polygon fill="none" stroke="black" points="208,-0.5 208,-19.5 333,-19.5 333,-0.5 208,-0.5"/>
<text text-anchor="middle" x="270.5" y="-7.5" font-family="FreeSans" font-size="10.00">DemoGameScene.cpp</text>
</a>
</g>
</g>
<!-- Node11&#45;&gt;Node12 -->
<g id="edge12" class="edge"><title>Node11&#45;&gt;Node12</title>
<path fill="none" stroke="midnightblue" d="M475.99,-54.3456C427.611,-44.1405 355.549,-28.94 310.874,-19.5164"/>
<polygon fill="midnightblue" stroke="midnightblue" points="475.429,-57.8041 485.936,-56.4435 476.874,-50.9549 475.429,-57.8041"/>
</g>
<!-- Node13 -->
<g id="node13" class="node"><title>Node13</title>
<g id="a_node13"><a xlink:href="_game_scene_8cpp.html" target="_top" xlink:title="GameScene.cpp">
<polygon fill="none" stroke="black" points="351.5,-0.5 351.5,-19.5 447.5,-19.5 447.5,-0.5 351.5,-0.5"/>
<text text-anchor="middle" x="399.5" y="-7.5" font-family="FreeSans" font-size="10.00">GameScene.cpp</text>
</a>
</g>
</g>
<!-- Node11&#45;&gt;Node13 -->
<g id="edge13" class="edge"><title>Node11&#45;&gt;Node13</title>
<path fill="none" stroke="midnightblue" d="M497.109,-52.503C473.3,-42.3795 440.394,-28.388 419.529,-19.5164"/>
<polygon fill="midnightblue" stroke="midnightblue" points="495.804,-55.7515 506.376,-56.4435 498.543,-49.3096 495.804,-55.7515"/>
</g>
<!-- Node14 -->
<g id="node14" class="node"><title>Node14</title>
<g id="a_node14"><a xlink:href="_track_select_scene_8cpp.html" target="_top" xlink:title="TrackSelectScene.cpp">
<polygon fill="none" stroke="black" points="466,-0.5 466,-19.5 587,-19.5 587,-0.5 466,-0.5"/>
<text text-anchor="middle" x="526.5" y="-7.5" font-family="FreeSans" font-size="10.00">TrackSelectScene.cpp</text>
</a>
</g>
</g>
<!-- Node11&#45;&gt;Node14 -->
<g id="edge14" class="edge"><title>Node11&#45;&gt;Node14</title>
<path fill="none" stroke="midnightblue" d="M526.5,-45.8045C526.5,-36.9102 526.5,-26.7798 526.5,-19.7511"/>
<polygon fill="midnightblue" stroke="midnightblue" points="523,-46.083 526.5,-56.083 530,-46.083 523,-46.083"/>
</g>
<!-- Node15 -->
<g id="node15" class="node"><title>Node15</title>
<g id="a_node15"><a xlink:href="_game_peer_8cpp.html" target="_top" xlink:title="GamePeer.cpp">
<polygon fill="none" stroke="black" points="605,-0.5 605,-19.5 692,-19.5 692,-0.5 605,-0.5"/>
<text text-anchor="middle" x="648.5" y="-7.5" font-family="FreeSans" font-size="10.00">GamePeer.cpp</text>
</a>
</g>
</g>
<!-- Node11&#45;&gt;Node15 -->
<g id="edge15" class="edge"><title>Node11&#45;&gt;Node15</title>
<path fill="none" stroke="midnightblue" d="M555.039,-52.3678C577.886,-42.2553 609.305,-28.3486 629.259,-19.5164"/>
<polygon fill="midnightblue" stroke="midnightblue" points="553.559,-49.1955 545.831,-56.4435 556.392,-55.5965 553.559,-49.1955"/>
</g>
<!-- Node16 -->
<g id="node16" class="node"><title>Node16</title>
<g id="a_node16"><a xlink:href="_track_list_8cpp.html" target="_top" xlink:title="TrackList.cpp">
<polygon fill="none" stroke="black" points="0,-0.5 0,-19.5 77,-19.5 77,-0.5 0,-0.5"/>
<text text-anchor="middle" x="38.5" y="-7.5" font-family="FreeSans" font-size="10.00">TrackList.cpp</text>
</a>
</g>
</g>
<!-- Node11&#45;&gt;Node16 -->
<g id="edge16" class="edge"><title>Node11&#45;&gt;Node16</title>
<path fill="none" stroke="midnightblue" d="M474.693,-61.1106C392.254,-54.6051 226.247,-40.2114 86.5,-20 83.4792,-19.5631 80.3587,-19.0711 77.2264,-18.5481"/>
<polygon fill="midnightblue" stroke="midnightblue" points="474.56,-64.6109 484.803,-61.9019 475.107,-57.6322 474.56,-64.6109"/>
</g>
<!-- Node17 -->
<g id="node17" class="node"><title>Node17</title>
<g id="a_node17"><a xlink:href="_track_bundle_8cpp.html" target="_top" xlink:title="TrackBundle.cpp">
<polygon fill="none" stroke="black" points="95.5,-0.5 95.5,-19.5 189.5,-19.5 189.5,-0.5 95.5,-0.5"/>
<text text-anchor="middle" x="142.5" y="-7.5" font-family="FreeSans" font-size="10.00">TrackBundle.cpp</text>
</a>
</g>
</g>
<!-- Node11&#45;&gt;Node17 -->
<g id="edge17" class="edge"><title>Node11&#45;&gt;Node17</title>
<path fill="none" stroke="midnightblue" d="M474.832,-58.285C410.164,-49.7946 296.04,-34.527 198.5,-20 195.578,-19.5648 192.572,-19.1081 189.542,-18.6407"/>
<polygon fill="midnightblue" stroke="midnightblue" points="474.406,-61.759 484.776,-59.5883 475.315,-54.8184 474.406,-61.759"/>
</g>
</g>
</svg>
        <g id="navigator" transform="translate(0 0)" fill="#404254">
                <rect fill="#f2f5e9" fill-opacity="0.5" stroke="#606060" stroke-width=".5" x="0" y="0" width="60" height="60"/>
                <use id="zoomplus" xlink:href="#zoomPlus" x="17" y="9" onmousedown="handleZoom(evt,'in')"/>
                <use id="zoomminus" xlink:href="#zoomMin" x="42" y="9" onmousedown="handleZoom(evt,'out')"/>
                <use id="reset" xlink:href="#resetDef" x="30" y="36" onmousedown="handleReset()"/>
                <g id="arrowUp" xlink:href="#dirArrow" transform="translate(30 24)" onmousedown="handlePan(0,-1)">
                  <use xlink:href="#rim" fill="#404040">
                        <set attributeName="fill" to="#808080" begin="arrowUp.mouseover" end="arrowUp.mouseout"/>
                  </use>
                  <path fill="none" stroke="white" stroke-width="1.5" d="M0,-3.0v7 M-2.5,-0.5L0,-3.0L2.5,-0.5"/>
                </g>
                <g id="arrowRight" xlink:href="#dirArrow" transform="rotate(90) translate(36 -43)" onmousedown="handlePan(1,0)">
                  <use xlink:href="#rim" fill="#404040">
                        <set attributeName="fill" to="#808080" begin="arrowRight.mouseover" end="arrowRight.mouseout"/>
                  </use>
                  <path fill="none" stroke="white" stroke-width="1.5" d="M0,-3.0v7 M-2.5,-0.5L0,-3.0L2.5,-0.5"/>
                </g>
                <g id="arrowDown" xlink:href="#dirArrow" transform="rotate(180) translate(-30 -48)" onmousedown="handlePan(0,1)">
                  <use xlink:href="#rim" fill="#404040">
                        <set attributeName="fill" to="#808080" begin="arrowDown.mouseover" end="arrowDown.mouseout"/>
                  </use>
                  <path fill="none" stroke="white" stroke-width="1.5" d="M0,-3.0v7 M-2.5,-0.5L0,-3.0L2.5,-0.5"/>
                </g>
                <g id="arrowLeft" xlink:href="#dirArrow" transform="rotate(270) translate(-36 17)" onmousedown="handlePan(-1,0)">
                  <use xlink:href="#rim" fill="#404040">
                        <set attributeName="fill" to="#808080" begin="arrowLeft.mouseover" end="arrowLeft.mouseout"/>
                  </use>
                  <path fill="none" stroke="white" stroke-width="1.5" d="M0,-3.0v7 M-2.5,-0.5L0,-3.0L2.5,-0.5"/>
                </g>
        </g>
        <svg viewBox="0 0 15 15" width="100%" height="30px" preserveAspectRatio="xMaxYMin meet">
         <g id="arrow_out" transform="scale(0.3 0.3)">
          <a xlink:href="_bundle_8h__dep__incl_org.svg" target="_base">
           <rect id="button" ry="5" rx="5" y="6" x="6" height="38" width="38"
                fill="#f2f5e9" fill-opacity="0.5" stroke="#606060" stroke-width="1.0"/>
           <path id="arrow"
             d="M 11.500037,31.436501 C 11.940474,20.09759 22.043105,11.32322 32.158766,21.979434 L 37.068811,17.246167 C 37.068811,17.246167 37.088388,32 37.088388,32 L 22.160133,31.978069 C 22.160133,31.978069 26.997745,27.140456 26.997745,27.140456 C 18.528582,18.264221 13.291696,25.230495 11.500037,31.436501 z"
             style="fill:#404040;"/>
          </a>
         </g>
        </svg>
</svg>
