<?xml version="1.0" encoding="UTF-8" standalone="no"?>
<!DOCTYPE svg PUBLIC "-//W3C//DTD SVG 1.1//EN"
 "http://www.w3.org/Graphics/SVG/1.1/DTD/svg11.dtd">
<!-- Generated by graphviz version 2.26.3 (20100126.1600)
 -->
<!-- Title: Button.cpp Pages: 1 -->
<!--zoomable 610 -->
<svg id="main" version="1.1" xmlns="http://www.w3.org/2000/svg" xmlns:xlink="http://www.w3.org/1999/xlink" xml:space="preserve" onload="init(evt)">
<style type="text/css"><![CDATA[
.edge:hover path { stroke: red; }
.edge:hover polygon { stroke: red; fill: red; }
]]></style>
<script type="text/javascript"><![CDATA[
var edges = document.getElementsByTagName('g');
if (edges && edges.length) {
  for (var i=0;i<edges.length;i++) {
    if (edges[i].id.substr(0,4)=='edge') {
      edges[i].setAttribute('class','edge');
    }
  }
}
]]></script>
        <defs>
                <circle id="rim" cx="0" cy="0" r="7"/>
                <circle id="rim2" cx="0" cy="0" r="3.5"/>
                <g id="zoomPlus">
                        <use xlink:href="#rim" fill="#404040">
                                <set attributeName="fill" to="#808080" begin="zoomplus.mouseover" end="zoomplus.mouseout"/>
                        </use>
                        <path d="M-4,0h8M0,-4v8" fill="none" stroke="white" stroke-width="1.5" pointer-events="none"/>
                </g>
                <g id="zoomMin">
                        <use xlink:href="#rim" fill="#404040">
                                <set attributeName="fill" to="#808080" begin="zoomminus.mouseover" end="zoomminus.mouseout"/>
                        </use>
                        <path d="M-4,0h8" fill="none" stroke="white" stroke-width="1.5" pointer-events="none"/>
                </g>
                <g id="dirArrow">
                        <path fill="none" stroke="white" stroke-width="1.5" d="M0,-3.0v7 M-2.5,-0.5L0,-3.0L2.5,-0.5"/>
                </g>
               <g id="resetDef">
                       <use xlink:href="#rim2" fill="#404040">
                               <set attributeName="fill" to="#808080" begin="reset.mouseover" end="reset.mouseout"/>
                       </use>
               </g>
        </defs>

<script type="text/javascript">
var viewWidth = 1391;
var viewHeight = 610;
var sectionId = 'dynsection-0';
</script>
<script xlink:href="svgpan.js"/>
<svg id="graph" class="graph">
<g id="viewport">
<title>Button.cpp</title>
<!-- Node1 -->
<g id="node1" class="node"><title>Node1</title>
<polygon fill="#bfbfbf" stroke="black" points="845.5,-581 845.5,-601 908.5,-601 908.5,-581 845.5,-581"/>
<text text-anchor="middle" x="877" y="-588" font-family="FreeSans" font-size="10.00">Button.cpp</text>
</g>
<!-- Node2 -->
<g id="node3" class="node"><title>Node2</title>
<a xlink:href="_action_8h.html" target="_top" xlink:title="../Control/Action.h">
<polygon fill="none" stroke="black" points="265.5,-523 265.5,-543 358.5,-543 358.5,-523 265.5,-523"/>
<text text-anchor="middle" x="312" y="-530" font-family="FreeSans" font-size="10.00">../Control/Action.h</text>
</a>
</g>
<!-- Node1&#45;&gt;Node2 -->
<g id="edge2" class="edge"><title>Node1&#45;&gt;Node2</title>
<path fill="none" stroke="midnightblue" d="M845.412,-587.757C753.712,-578.344 486.533,-550.917 368.818,-538.833"/>
<polygon fill="midnightblue" stroke="midnightblue" points="368.883,-535.321 358.577,-537.781 368.168,-542.284 368.883,-535.321"/>
</g>
<!-- Node9 -->
<g id="node17" class="node"><title>Node9</title>
<a xlink:href="_config_8h.html" target="_top" xlink:title="../Util/Config.h">
<polygon fill="none" stroke="black" points="1068.5,-523 1068.5,-543 1145.5,-543 1145.5,-523 1068.5,-523"/>
<text text-anchor="middle" x="1107" y="-530" font-family="FreeSans" font-size="10.00">../Util/Config.h</text>
</a>
</g>
<!-- Node1&#45;&gt;Node9 -->
<g id="edge16" class="edge"><title>Node1&#45;&gt;Node9</title>
<path fill="none" stroke="midnightblue" d="M908.981,-582.935C947.767,-573.154 1013.53,-556.57 1058.55,-545.217"/>
<polygon fill="midnightblue" stroke="midnightblue" points="1059.55,-548.576 1068.39,-542.737 1057.84,-541.788 1059.55,-548.576"/>
</g>
<!-- Node19 -->
<g id="node38" class="node"><title>Node19</title>
<a xlink:href="_ui_font_8h.html" target="_top" xlink:title="UiFont.h">
<polygon fill="none" stroke="black" points="929.5,-175 929.5,-195 982.5,-195 982.5,-175 929.5,-175"/>
<text text-anchor="middle" x="956" y="-182" font-family="FreeSans" font-size="10.00">UiFont.h</text>
</a>
</g>
<!-- Node1&#45;&gt;Node19 -->
<g id="edge38" class="edge"><title>Node1&#45;&gt;Node19</title>
<path fill="none" stroke="midnightblue" d="M899.837,-580.988C933.886,-564.33 994,-527.488 994,-475 994,-475 994,-475 994,-301 994,-265.532 977.758,-226.859 966.511,-204.332"/>
<polygon fill="midnightblue" stroke="midnightblue" points="969.48,-202.455 961.771,-195.187 963.266,-205.676 969.48,-202.455"/>
</g>
<!-- Node22 -->
<g id="node45" class="node"><title>Node22</title>
<a xlink:href="_fill_box_8h.html" target="_top" xlink:title="FillBox.h">
<polygon fill="none" stroke="black" points="815.5,-465 815.5,-485 868.5,-485 868.5,-465 815.5,-465"/>
<text text-anchor="middle" x="842" y="-472" font-family="FreeSans" font-size="10.00">FillBox.h</text>
</a>
</g>
<!-- Node1&#45;&gt;Node22 -->
<g id="edge46" class="edge"><title>Node1&#45;&gt;Node22</title>
<path fill="none" stroke="midnightblue" d="M873.894,-580.706C868.094,-561.482 855.525,-519.825 848.013,-494.929"/>
<polygon fill="midnightblue" stroke="midnightblue" points="851.289,-493.668 845.049,-485.106 844.587,-495.69 851.289,-493.668"/>
</g>
<!-- Node33 -->
<g id="node78" class="node"><title>Node33</title>
<a xlink:href="_label_8h.html" target="_top" xlink:title="Label.h">
<polygon fill="none" stroke="black" points="882,-523 882,-543 930,-543 930,-523 882,-523"/>
<text text-anchor="middle" x="906" y="-530" font-family="FreeSans" font-size="10.00">Label.h</text>
</a>
</g>
<!-- Node1&#45;&gt;Node33 -->
<g id="edge90" class="edge"><title>Node1&#45;&gt;Node33</title>
<path fill="none" stroke="midnightblue" d="M882.051,-580.897C885.954,-573.093 891.473,-562.054 896.23,-552.54"/>
<polygon fill="midnightblue" stroke="midnightblue" points="899.47,-553.887 900.811,-543.378 893.209,-550.757 899.47,-553.887"/>
</g>
<!-- Node35 -->
<g id="node85" class="node"><title>Node35</title>
<a xlink:href="_button_8h.html" target="_top" xlink:title="Button.h">
<polygon fill="none" stroke="black" points="747.5,-523 747.5,-543 800.5,-543 800.5,-523 747.5,-523"/>
<text text-anchor="middle" x="774" y="-530" font-family="FreeSans" font-size="10.00">Button.h</text>
</a>
</g>
<!-- Node1&#45;&gt;Node35 -->
<g id="edge100" class="edge"><title>Node1&#45;&gt;Node35</title>
<path fill="none" stroke="midnightblue" d="M859.059,-580.897C842.985,-571.846 819.185,-558.444 800.846,-548.117"/>
<polygon fill="midnightblue" stroke="midnightblue" points="802.512,-545.039 792.081,-543.182 799.077,-551.138 802.512,-545.039"/>
</g>
<!-- Node3 -->
<g id="node5" class="node"><title>Node3</title>
<polygon fill="none" stroke="#bfbfbf" points="191.5,-465 191.5,-485 304.5,-485 304.5,-465 191.5,-465"/>
<text text-anchor="middle" x="248" y="-472" font-family="FreeSans" font-size="10.00">SDL2/SDL_keycode.h</text>
</g>
<!-- Node2&#45;&gt;Node3 -->
<g id="edge4" class="edge"><title>Node2&#45;&gt;Node3</title>
<path fill="none" stroke="midnightblue" d="M300.852,-522.897C291.515,-514.435 277.982,-502.172 266.948,-492.172"/>
<polygon fill="midnightblue" stroke="midnightblue" points="269.211,-489.499 259.451,-485.378 264.511,-494.686 269.211,-489.499"/>
</g>
<!-- Node4 -->
<g id="node7" class="node"><title>Node4</title>
<polygon fill="none" stroke="#bfbfbf" points="322,-465 322,-485 428,-485 428,-465 322,-465"/>
<text text-anchor="middle" x="375" y="-472" font-family="FreeSans" font-size="10.00">SDL2/SDL_mouse.h</text>
</g>
<!-- Node2&#45;&gt;Node4 -->
<g id="edge6" class="edge"><title>Node2&#45;&gt;Node4</title>
<path fill="none" stroke="midnightblue" d="M322.974,-522.897C332.165,-514.435 345.486,-502.172 356.348,-492.172"/>
<polygon fill="midnightblue" stroke="midnightblue" points="358.741,-494.726 363.728,-485.378 354,-489.576 358.741,-494.726"/>
</g>
<!-- Node5 -->
<g id="node9" class="node"><title>Node5</title>
<a xlink:href="_vec_8h.html" target="_top" xlink:title="../Vec.h">
<polygon fill="none" stroke="black" points="583.5,-175 583.5,-195 632.5,-195 632.5,-175 583.5,-175"/>
<text text-anchor="middle" x="608" y="-182" font-family="FreeSans" font-size="10.00">../Vec.h</text>
</a>
</g>
<!-- Node2&#45;&gt;Node5 -->
<g id="edge8" class="edge"><title>Node2&#45;&gt;Node5</title>
<path fill="none" stroke="midnightblue" d="M358.573,-526.156C385.007,-519.941 416.757,-508.173 437,-486 458.446,-462.509 456,-448.808 456,-417 456,-417 456,-417 456,-301 456,-242.209 528.749,-209.244 573.589,-194.51"/>
<polygon fill="midnightblue" stroke="midnightblue" points="574.75,-197.814 583.24,-191.476 572.651,-191.136 574.75,-197.814"/>
</g>
<!-- Node6 -->
<g id="node11" class="node"><title>Node6</title>
<a xlink:href="_exception_8h.html" target="_top" xlink:title="../Exception.h">
<polygon fill="none" stroke="black" points="0,-465 0,-485 74,-485 74,-465 0,-465"/>
<text text-anchor="middle" x="37" y="-472" font-family="FreeSans" font-size="10.00">../Exception.h</text>
</a>
</g>
<!-- Node2&#45;&gt;Node6 -->
<g id="edge10" class="edge"><title>Node2&#45;&gt;Node6</title>
<path fill="none" stroke="midnightblue" d="M265.415,-523.897C221.25,-515.164 152.788,-501.363 84.2441,-486.23"/>
<polygon fill="midnightblue" stroke="midnightblue" points="84.6539,-482.736 74.1333,-483.988 83.1385,-489.57 84.6539,-482.736"/>
</g>
<!-- Node8 -->
<g id="node15" class="node"><title>Node8</title>
<a xlink:href="_control_action_8h.html" target="_top" xlink:title="ControlAction.h">
<polygon fill="none" stroke="black" points="91.5,-465 91.5,-485 174.5,-485 174.5,-465 91.5,-465"/>
<text text-anchor="middle" x="133" y="-472" font-family="FreeSans" font-size="10.00">ControlAction.h</text>
</a>
</g>
<!-- Node2&#45;&gt;Node8 -->
<g id="edge14" class="edge"><title>Node2&#45;&gt;Node8</title>
<path fill="none" stroke="midnightblue" d="M280.821,-522.897C251.137,-513.279 206.294,-498.749 173.785,-488.215"/>
<polygon fill="midnightblue" stroke="midnightblue" points="174.714,-484.837 164.122,-485.084 172.556,-491.496 174.714,-484.837"/>
</g>
<!-- Node7 -->
<g id="node13" class="node"><title>Node7</title>
<polygon fill="none" stroke="#bfbfbf" points="8,-407 8,-427 66,-427 66,-407 8,-407"/>
<text text-anchor="middle" x="37" y="-414" font-family="FreeSans" font-size="10.00">exception</text>
</g>
<!-- Node6&#45;&gt;Node7 -->
<g id="edge12" class="edge"><title>Node6&#45;&gt;Node7</title>
<path fill="none" stroke="midnightblue" d="M37,-464.897C37,-457.339 37,-446.748 37,-437.446"/>
<polygon fill="midnightblue" stroke="midnightblue" points="40.5001,-437.378 37,-427.378 33.5001,-437.378 40.5001,-437.378"/>
</g>
<!-- Node10 -->
<g id="node19" class="node"><title>Node10</title>
<polygon fill="none" stroke="#bfbfbf" points="1021.5,-407 1021.5,-427 1062.5,-427 1062.5,-407 1021.5,-407"/>
<text text-anchor="middle" x="1042" y="-414" font-family="FreeSans" font-size="10.00">string</text>
</g>
<!-- Node9&#45;&gt;Node10 -->
<g id="edge18" class="edge"><title>Node9&#45;&gt;Node10</title>
<path fill="none" stroke="midnightblue" d="M1101.23,-522.706C1090.31,-503.223 1066.49,-460.7 1052.61,-435.934"/>
<polygon fill="midnightblue" stroke="midnightblue" points="1055.6,-434.118 1047.66,-427.106 1049.5,-437.54 1055.6,-434.118"/>
</g>
<!-- Node11 -->
<g id="node21" class="node"><title>Node11</title>
<polygon fill="none" stroke="#bfbfbf" points="1168,-465 1168,-485 1224,-485 1224,-465 1168,-465"/>
<text text-anchor="middle" x="1196" y="-472" font-family="FreeSans" font-size="10.00">basedir.h</text>
</g>
<!-- Node9&#45;&gt;Node11 -->
<g id="edge20" class="edge"><title>Node9&#45;&gt;Node11</title>
<path fill="none" stroke="midnightblue" d="M1122.5,-522.897C1136.07,-514.052 1156.02,-501.054 1171.71,-490.829"/>
<polygon fill="midnightblue" stroke="midnightblue" points="1173.91,-493.574 1180.38,-485.182 1170.09,-487.709 1173.91,-493.574"/>
</g>
<!-- Node12 -->
<g id="node23" class="node"><title>Node12</title>
<a xlink:href="_o_s_8h.html" target="_top" xlink:title="OS.h">
<polygon fill="none" stroke="black" points="1112,-465 1112,-485 1150,-485 1150,-465 1112,-465"/>
<text text-anchor="middle" x="1131" y="-472" font-family="FreeSans" font-size="10.00">OS.h</text>
</a>
</g>
<!-- Node9&#45;&gt;Node12 -->
<g id="edge22" class="edge"><title>Node9&#45;&gt;Node12</title>
<path fill="none" stroke="midnightblue" d="M1111.18,-522.897C1114.38,-515.175 1118.88,-504.286 1122.79,-494.841"/>
<polygon fill="midnightblue" stroke="midnightblue" points="1126.12,-495.956 1126.71,-485.378 1119.65,-493.28 1126.12,-495.956"/>
</g>
<!-- Node12&#45;&gt;Node10 -->
<g id="edge28" class="edge"><title>Node12&#45;&gt;Node10</title>
<path fill="none" stroke="midnightblue" d="M1115.5,-464.897C1101.93,-456.052 1081.98,-443.054 1066.29,-432.829"/>
<polygon fill="midnightblue" stroke="midnightblue" points="1067.91,-429.709 1057.62,-427.182 1064.09,-435.574 1067.91,-429.709"/>
</g>
<!-- Node13 -->
<g id="node25" class="node"><title>Node13</title>
<polygon fill="none" stroke="#bfbfbf" points="1080,-407 1080,-427 1122,-427 1122,-407 1080,-407"/>
<text text-anchor="middle" x="1101" y="-414" font-family="FreeSans" font-size="10.00">locale</text>
</g>
<!-- Node12&#45;&gt;Node13 -->
<g id="edge24" class="edge"><title>Node12&#45;&gt;Node13</title>
<path fill="none" stroke="midnightblue" d="M1125.77,-464.897C1121.74,-457.093 1116.03,-446.054 1111.11,-436.54"/>
<polygon fill="midnightblue" stroke="midnightblue" points="1114.07,-434.652 1106.37,-427.378 1107.85,-437.868 1114.07,-434.652"/>
</g>
<!-- Node14 -->
<g id="node27" class="node"><title>Node14</title>
<polygon fill="none" stroke="#bfbfbf" points="1140,-407 1140,-427 1170,-427 1170,-407 1140,-407"/>
<text text-anchor="middle" x="1155" y="-414" font-family="FreeSans" font-size="10.00">set</text>
</g>
<!-- Node12&#45;&gt;Node14 -->
<g id="edge26" class="edge"><title>Node12&#45;&gt;Node14</title>
<path fill="none" stroke="midnightblue" d="M1135.18,-464.897C1138.38,-457.175 1142.88,-446.286 1146.79,-436.841"/>
<polygon fill="midnightblue" stroke="midnightblue" points="1150.12,-437.956 1150.71,-427.378 1143.65,-435.28 1150.12,-437.956"/>
</g>
<!-- Node15 -->
<g id="node30" class="node"><title>Node15</title>
<polygon fill="none" stroke="#bfbfbf" points="1188,-407 1188,-427 1232,-427 1232,-407 1188,-407"/>
<text text-anchor="middle" x="1210" y="-414" font-family="FreeSans" font-size="10.00">vector</text>
</g>
<!-- Node12&#45;&gt;Node15 -->
<g id="edge30" class="edge"><title>Node12&#45;&gt;Node15</title>
<path fill="none" stroke="midnightblue" d="M1144.76,-464.897C1156.7,-456.135 1174.18,-443.297 1188.05,-433.116"/>
<polygon fill="midnightblue" stroke="midnightblue" points="1190.14,-435.921 1196.13,-427.182 1186,-430.278 1190.14,-435.921"/>
</g>
<!-- Node16 -->
<g id="node32" class="node"><title>Node16</title>
<polygon fill="none" stroke="#bfbfbf" points="1249.5,-407 1249.5,-427 1354.5,-427 1354.5,-407 1249.5,-407"/>
<text text-anchor="middle" x="1302" y="-414" font-family="FreeSans" font-size="10.00">boost/filesystem.hpp</text>
</g>
<!-- Node12&#45;&gt;Node16 -->
<g id="edge32" class="edge"><title>Node12&#45;&gt;Node16</title>
<path fill="none" stroke="midnightblue" d="M1150.23,-467.281C1153.15,-466.154 1156.15,-465.027 1159,-464 1192.76,-451.833 1231.44,-439.196 1260.06,-430.094"/>
<polygon fill="midnightblue" stroke="midnightblue" points="1261.26,-433.385 1269.73,-427.029 1259.14,-426.712 1261.26,-433.385"/>
</g>
<!-- Node17 -->
<g id="node34" class="node"><title>Node17</title>
<a xlink:href="_m_r___types_8h.html" target="_top" xlink:title="MR_Types.h">
<polygon fill="none" stroke="black" points="850.5,-59 850.5,-79 921.5,-79 921.5,-59 850.5,-59"/>
<text text-anchor="middle" x="886" y="-66" font-family="FreeSans" font-size="10.00">MR_Types.h</text>
</a>
</g>
<!-- Node12&#45;&gt;Node17 -->
<g id="edge34" class="edge"><title>Node12&#45;&gt;Node17</title>
<path fill="none" stroke="midnightblue" d="M1150.11,-466.912C1153.05,-465.835 1156.08,-464.821 1159,-464 1247.62,-439.043 1294.91,-489.97 1363,-428 1386.52,-406.59 1382,-390.808 1382,-359 1382,-359 1382,-359 1382,-185 1382,-93.0547 1054.75,-73.9435 931.881,-70.0083"/>
<polygon fill="midnightblue" stroke="midnightblue" points="931.772,-66.5036 921.671,-69.7015 931.561,-73.5004 931.772,-66.5036"/>
</g>
<!-- Node18 -->
<g id="node36" class="node"><title>Node18</title>
<polygon fill="none" stroke="#bfbfbf" points="857,-1 857,-21 915,-21 915,-1 857,-1"/>
<text text-anchor="middle" x="886" y="-8" font-family="FreeSans" font-size="10.00">inttypes.h</text>
</g>
<!-- Node17&#45;&gt;Node18 -->
<g id="edge36" class="edge"><title>Node17&#45;&gt;Node18</title>
<path fill="none" stroke="midnightblue" d="M886,-58.8972C886,-51.339 886,-40.7476 886,-31.4458"/>
<polygon fill="midnightblue" stroke="midnightblue" points="889.5,-31.3776 886,-21.3776 882.5,-31.3776 889.5,-31.3776"/>
</g>
<!-- Node20 -->
<g id="node40" class="node"><title>Node20</title>
<a xlink:href="_hash_8h.html" target="_top" xlink:title="../Util/Hash.h">
<polygon fill="none" stroke="black" points="1011.5,-117 1011.5,-137 1084.5,-137 1084.5,-117 1011.5,-117"/>
<text text-anchor="middle" x="1048" y="-124" font-family="FreeSans" font-size="10.00">../Util/Hash.h</text>
</a>
</g>
<!-- Node19&#45;&gt;Node20 -->
<g id="edge40" class="edge"><title>Node19&#45;&gt;Node20</title>
<path fill="none" stroke="midnightblue" d="M972.025,-174.897C986.186,-165.97 1007.06,-152.811 1023.35,-142.543"/>
<polygon fill="midnightblue" stroke="midnightblue" points="1025.26,-145.475 1031.85,-137.182 1021.52,-139.554 1025.26,-145.475"/>
</g>
<!-- Node21 -->
<g id="node42" class="node"><title>Node21</title>
<a xlink:href="_sel_fmt_8h.html" target="_top" xlink:title="../Util/SelFmt.h">
<polygon fill="none" stroke="black" points="913.5,-117 913.5,-137 994.5,-137 994.5,-117 913.5,-117"/>
<text text-anchor="middle" x="954" y="-124" font-family="FreeSans" font-size="10.00">../Util/SelFmt.h</text>
</a>
</g>
<!-- Node19&#45;&gt;Node21 -->
<g id="edge42" class="edge"><title>Node19&#45;&gt;Node21</title>
<path fill="none" stroke="midnightblue" d="M955.652,-174.897C955.391,-167.339 955.026,-156.748 954.705,-147.446"/>
<polygon fill="midnightblue" stroke="midnightblue" points="958.2,-147.251 954.358,-137.378 951.205,-147.492 958.2,-147.251"/>
</g>
<!-- Node21&#45;&gt;Node17 -->
<g id="edge44" class="edge"><title>Node21&#45;&gt;Node17</title>
<path fill="none" stroke="midnightblue" d="M942.155,-116.897C932.138,-108.353 917.577,-95.933 905.792,-85.8813"/>
<polygon fill="midnightblue" stroke="midnightblue" points="908.047,-83.2042 898.167,-79.3776 903.504,-88.53 908.047,-83.2042"/>
</g>
<!-- Node23 -->
<g id="node47" class="node"><title>Node23</title>
<a xlink:href="_color_8h.html" target="_top" xlink:title="Color.h">
<polygon fill="none" stroke="black" points="858.5,-175 858.5,-195 905.5,-195 905.5,-175 858.5,-175"/>
<text text-anchor="middle" x="882" y="-182" font-family="FreeSans" font-size="10.00">Color.h</text>
</a>
</g>
<!-- Node22&#45;&gt;Node23 -->
<g id="edge48" class="edge"><title>Node22&#45;&gt;Node23</title>
<path fill="none" stroke="midnightblue" d="M847.771,-464.813C858.402,-445.062 880,-399.9 880,-359 880,-359 880,-359 880,-301 880,-267.572 880.841,-228.734 881.432,-205.55"/>
<polygon fill="midnightblue" stroke="midnightblue" points="884.939,-205.33 881.705,-195.24 877.941,-205.144 884.939,-205.33"/>
</g>
<!-- Node25 -->
<g id="node53" class="node"><title>Node25</title>
<a xlink:href="_ui_view_model_8h.html" target="_top" xlink:title="UiViewModel.h">
<polygon fill="none" stroke="black" points="708,-407 708,-427 790,-427 790,-407 708,-407"/>
<text text-anchor="middle" x="749" y="-414" font-family="FreeSans" font-size="10.00">UiViewModel.h</text>
</a>
</g>
<!-- Node22&#45;&gt;Node25 -->
<g id="edge56" class="edge"><title>Node22&#45;&gt;Node25</title>
<path fill="none" stroke="midnightblue" d="M825.801,-464.897C811.486,-455.97 790.386,-442.811 773.923,-432.543"/>
<polygon fill="midnightblue" stroke="midnightblue" points="775.663,-429.504 765.326,-427.182 771.959,-435.443 775.663,-429.504"/>
</g>
<!-- Node23&#45;&gt;Node17 -->
<g id="edge52" class="edge"><title>Node23&#45;&gt;Node17</title>
<path fill="none" stroke="midnightblue" d="M882.355,-174.706C883.015,-155.568 884.441,-114.198 885.301,-89.2654"/>
<polygon fill="midnightblue" stroke="midnightblue" points="888.805,-89.2202 885.652,-79.1055 881.809,-88.9789 888.805,-89.2202"/>
</g>
<!-- Node23&#45;&gt;Node21 -->
<g id="edge54" class="edge"><title>Node23&#45;&gt;Node21</title>
<path fill="none" stroke="midnightblue" d="M894.541,-174.897C905.148,-166.353 920.566,-153.933 933.044,-143.881"/>
<polygon fill="midnightblue" stroke="midnightblue" points="935.526,-146.377 941.117,-137.378 931.134,-140.925 935.526,-146.377"/>
</g>
<!-- Node24 -->
<g id="node49" class="node"><title>Node24</title>
<polygon fill="none" stroke="#bfbfbf" points="769.5,-117 769.5,-137 858.5,-137 858.5,-117 769.5,-117"/>
<text text-anchor="middle" x="814" y="-124" font-family="FreeSans" font-size="10.00">boost/format.hpp</text>
</g>
<!-- Node23&#45;&gt;Node24 -->
<g id="edge50" class="edge"><title>Node23&#45;&gt;Node24</title>
<path fill="none" stroke="midnightblue" d="M870.155,-174.897C860.138,-166.353 845.577,-153.933 833.792,-143.881"/>
<polygon fill="midnightblue" stroke="midnightblue" points="836.047,-141.204 826.167,-137.378 831.504,-146.53 836.047,-141.204"/>
</g>
<!-- Node25&#45;&gt;Node5 -->
<g id="edge62" class="edge"><title>Node25&#45;&gt;Node5</title>
<path fill="none" stroke="midnightblue" d="M707.671,-413.39C674.851,-408.506 629.69,-397.019 600,-370 551.864,-326.194 523.241,-290.868 551,-232 557.147,-218.965 568.878,-208.319 580.108,-200.475"/>
<polygon fill="midnightblue" stroke="midnightblue" points="582.014,-203.41 588.496,-195.03 578.203,-197.538 582.014,-203.41"/>
</g>
<!-- Node25&#45;&gt;Node17 -->
<g id="edge60" class="edge"><title>Node25&#45;&gt;Node17</title>
<path fill="none" stroke="midnightblue" d="M707.916,-411.467C670.945,-405.255 615.986,-392.898 573,-370 531.855,-348.083 494,-347.618 494,-301 494,-301 494,-301 494,-185 494,-113.553 736.464,-82.7381 840.012,-72.8356"/>
<polygon fill="midnightblue" stroke="midnightblue" points="840.541,-76.3015 850.173,-71.8885 839.892,-69.3317 840.541,-76.3015"/>
</g>
<!-- Node26 -->
<g id="node55" class="node"><title>Node26</title>
<a xlink:href="_nav_8h.html" target="_top" xlink:title="../Control/Nav.h">
<polygon fill="none" stroke="black" points="608.5,-349 608.5,-369 691.5,-369 691.5,-349 608.5,-349"/>
<text text-anchor="middle" x="650" y="-356" font-family="FreeSans" font-size="10.00">../Control/Nav.h</text>
</a>
</g>
<!-- Node25&#45;&gt;Node26 -->
<g id="edge58" class="edge"><title>Node25&#45;&gt;Node26</title>
<path fill="none" stroke="midnightblue" d="M731.756,-406.897C716.376,-397.887 693.639,-384.567 676.045,-374.259"/>
<polygon fill="midnightblue" stroke="midnightblue" points="677.777,-371.217 667.379,-369.182 674.238,-377.257 677.777,-371.217"/>
</g>
<!-- Node27 -->
<g id="node59" class="node"><title>Node27</title>
<a xlink:href="_ui_layout_flags_8h.html" target="_top" xlink:title="UiLayoutFlags.h">
<polygon fill="none" stroke="black" points="765.5,-233 765.5,-253 852.5,-253 852.5,-233 765.5,-233"/>
<text text-anchor="middle" x="809" y="-240" font-family="FreeSans" font-size="10.00">UiLayoutFlags.h</text>
</a>
</g>
<!-- Node25&#45;&gt;Node27 -->
<g id="edge64" class="edge"><title>Node25&#45;&gt;Node27</title>
<path fill="none" stroke="midnightblue" d="M761.145,-406.73C770.624,-397.983 783.277,-384.547 790,-370 806.213,-334.919 809.181,-289.116 809.407,-263.196"/>
<polygon fill="midnightblue" stroke="midnightblue" points="812.907,-263.079 809.362,-253.095 805.907,-263.111 812.907,-263.079"/>
</g>
<!-- Node28 -->
<g id="node62" class="node"><title>Node28</title>
<a xlink:href="_view_model_8h.html" target="_top" xlink:title="ViewModel.h">
<polygon fill="none" stroke="black" points="709,-349 709,-369 781,-369 781,-349 709,-349"/>
<text text-anchor="middle" x="745" y="-356" font-family="FreeSans" font-size="10.00">ViewModel.h</text>
</a>
</g>
<!-- Node25&#45;&gt;Node28 -->
<g id="edge68" class="edge"><title>Node25&#45;&gt;Node28</title>
<path fill="none" stroke="midnightblue" d="M748.303,-406.897C747.782,-399.339 747.052,-388.748 746.41,-379.446"/>
<polygon fill="midnightblue" stroke="midnightblue" points="749.896,-379.113 745.716,-369.378 742.912,-379.595 749.896,-379.113"/>
</g>
<!-- Node27&#45;&gt;Node17 -->
<g id="edge66" class="edge"><title>Node27&#45;&gt;Node17</title>
<path fill="none" stroke="midnightblue" d="M799.262,-232.991C778.557,-210.472 734.165,-154.759 761,-116 770.467,-102.326 808.585,-89.2163 840.265,-80.3336"/>
<polygon fill="midnightblue" stroke="midnightblue" points="841.553,-83.6102 850.28,-77.6027 839.712,-76.8567 841.553,-83.6102"/>
</g>
<!-- Node29 -->
<g id="node64" class="node"><title>Node29</title>
<a xlink:href="_display_8h.html" target="_top" xlink:title="Display.h">
<polygon fill="none" stroke="black" points="654,-291 654,-311 710,-311 710,-291 654,-291"/>
<text text-anchor="middle" x="682" y="-298" font-family="FreeSans" font-size="10.00">Display.h</text>
</a>
</g>
<!-- Node28&#45;&gt;Node29 -->
<g id="edge70" class="edge"><title>Node28&#45;&gt;Node29</title>
<path fill="none" stroke="midnightblue" d="M734.026,-348.897C724.835,-340.435 711.514,-328.172 700.652,-318.172"/>
<polygon fill="midnightblue" stroke="midnightblue" points="703,-315.576 693.272,-311.378 698.259,-320.726 703,-315.576"/>
</g>
<!-- Node31 -->
<g id="node73" class="node"><title>Node31</title>
<a xlink:href="_view_attacher_8h.html" target="_top" xlink:title="ViewAttacher.h">
<polygon fill="none" stroke="black" points="559.5,-233 559.5,-253 642.5,-253 642.5,-233 559.5,-233"/>
<text text-anchor="middle" x="601" y="-240" font-family="FreeSans" font-size="10.00">ViewAttacher.h</text>
</a>
</g>
<!-- Node28&#45;&gt;Node31 -->
<g id="edge88" class="edge"><title>Node28&#45;&gt;Node31</title>
<path fill="none" stroke="midnightblue" d="M712.132,-348.887C691.194,-341.236 664.448,-329.1 645,-312 629.396,-298.28 617.26,-277.716 609.723,-262.606"/>
<polygon fill="midnightblue" stroke="midnightblue" points="612.697,-260.708 605.253,-253.168 606.37,-263.704 612.697,-260.708"/>
</g>
<!-- Node32 -->
<g id="node75" class="node"><title>Node32</title>
<a xlink:href="_view_8h.html" target="_top" xlink:title="View.h">
<polygon fill="none" stroke="black" points="728,-291 728,-311 774,-311 774,-291 728,-291"/>
<text text-anchor="middle" x="751" y="-298" font-family="FreeSans" font-size="10.00">View.h</text>
</a>
</g>
<!-- Node28&#45;&gt;Node32 -->
<g id="edge86" class="edge"><title>Node28&#45;&gt;Node32</title>
<path fill="none" stroke="midnightblue" d="M746.045,-348.897C746.827,-341.339 747.923,-330.748 748.885,-321.446"/>
<polygon fill="midnightblue" stroke="midnightblue" points="752.379,-321.685 749.926,-311.378 745.416,-320.964 752.379,-321.685"/>
</g>
<!-- Node29&#45;&gt;Node5 -->
<g id="edge72" class="edge"><title>Node29&#45;&gt;Node5</title>
<path fill="none" stroke="midnightblue" d="M678.53,-290.655C673.589,-276.684 663.698,-251.313 651,-232 643.929,-221.246 634.401,-210.556 626.111,-202.095"/>
<polygon fill="midnightblue" stroke="midnightblue" points="628.522,-199.558 618.951,-195.014 623.6,-204.534 628.522,-199.558"/>
</g>
<!-- Node29&#45;&gt;Node27 -->
<g id="edge82" class="edge"><title>Node29&#45;&gt;Node27</title>
<path fill="none" stroke="midnightblue" d="M704.122,-290.897C724.394,-281.639 754.631,-267.83 777.437,-257.415"/>
<polygon fill="midnightblue" stroke="midnightblue" points="779.063,-260.52 786.706,-253.182 776.155,-254.152 779.063,-260.52"/>
</g>
<!-- Node30 -->
<g id="node67" class="node"><title>Node30</title>
<a xlink:href="_styles_8h.html" target="_top" xlink:title="Styles.h">
<polygon fill="none" stroke="black" points="697.5,-233 697.5,-253 748.5,-253 748.5,-233 697.5,-233"/>
<text text-anchor="middle" x="723" y="-240" font-family="FreeSans" font-size="10.00">Styles.h</text>
</a>
</g>
<!-- Node29&#45;&gt;Node30 -->
<g id="edge74" class="edge"><title>Node29&#45;&gt;Node30</title>
<path fill="none" stroke="midnightblue" d="M689.142,-290.897C694.833,-282.846 702.957,-271.353 709.821,-261.643"/>
<polygon fill="midnightblue" stroke="midnightblue" points="712.75,-263.564 715.664,-253.378 707.034,-259.523 712.75,-263.564"/>
</g>
<!-- Node29&#45;&gt;Node31 -->
<g id="edge84" class="edge"><title>Node29&#45;&gt;Node31</title>
<path fill="none" stroke="midnightblue" d="M667.891,-290.897C655.654,-282.135 637.724,-269.297 623.507,-259.116"/>
<polygon fill="midnightblue" stroke="midnightblue" points="625.387,-256.158 615.219,-253.182 621.312,-261.849 625.387,-256.158"/>
</g>
<!-- Node30&#45;&gt;Node5 -->
<g id="edge76" class="edge"><title>Node30&#45;&gt;Node5</title>
<path fill="none" stroke="midnightblue" d="M702.969,-232.897C684.776,-223.722 657.72,-210.076 637.135,-199.694"/>
<polygon fill="midnightblue" stroke="midnightblue" points="638.693,-196.56 628.188,-195.182 635.54,-202.81 638.693,-196.56"/>
</g>
<!-- Node30&#45;&gt;Node19 -->
<g id="edge78" class="edge"><title>Node30&#45;&gt;Node19</title>
<path fill="none" stroke="midnightblue" d="M748.547,-234.47C751.389,-233.6 754.249,-232.759 757,-232 826.011,-212.964 844.476,-213.071 914,-196 915.711,-195.58 917.46,-195.145 919.225,-194.701"/>
<polygon fill="midnightblue" stroke="midnightblue" points="920.548,-197.975 929.369,-192.106 918.814,-191.193 920.548,-197.975"/>
</g>
<!-- Node30&#45;&gt;Node23 -->
<g id="edge80" class="edge"><title>Node30&#45;&gt;Node23</title>
<path fill="none" stroke="midnightblue" d="M748.546,-233.681C775.756,-223.756 818.931,-208.006 848.769,-197.122"/>
<polygon fill="midnightblue" stroke="midnightblue" points="850.139,-200.348 858.334,-193.633 847.74,-193.772 850.139,-200.348"/>
</g>
<!-- Node34 -->
<g id="node80" class="node"><title>Node34</title>
<a xlink:href="_base_text_8h.html" target="_top" xlink:title="BaseText.h">
<polygon fill="none" stroke="black" points="885.5,-465 885.5,-485 950.5,-485 950.5,-465 885.5,-465"/>
<text text-anchor="middle" x="918" y="-472" font-family="FreeSans" font-size="10.00">BaseText.h</text>
</a>
</g>
<!-- Node33&#45;&gt;Node34 -->
<g id="edge92" class="edge"><title>Node33&#45;&gt;Node34</title>
<path fill="none" stroke="midnightblue" d="M908.09,-522.897C909.654,-515.339 911.845,-504.748 913.77,-495.446"/>
<polygon fill="midnightblue" stroke="midnightblue" points="917.254,-495.879 915.853,-485.378 910.399,-494.461 917.254,-495.879"/>
</g>
<!-- Node34&#45;&gt;Node19 -->
<g id="edge96" class="edge"><title>Node34&#45;&gt;Node19</title>
<path fill="none" stroke="midnightblue" d="M923.771,-464.813C934.402,-445.062 956,-399.9 956,-359 956,-359 956,-359 956,-301 956,-267.577 956,-228.738 956,-205.551"/>
<polygon fill="midnightblue" stroke="midnightblue" points="959.5,-205.241 956,-195.241 952.5,-205.241 959.5,-205.241"/>
</g>
<!-- Node34&#45;&gt;Node23 -->
<g id="edge94" class="edge"><title>Node34&#45;&gt;Node23</title>
<path fill="none" stroke="midnightblue" d="M918,-464.759C918,-444.541 918,-398.069 918,-359 918,-359 918,-359 918,-301 918,-265.708 902.613,-226.981 891.958,-204.395"/>
<polygon fill="midnightblue" stroke="midnightblue" points="895.008,-202.666 887.468,-195.224 888.721,-205.744 895.008,-202.666"/>
</g>
<!-- Node34&#45;&gt;Node25 -->
<g id="edge98" class="edge"><title>Node34&#45;&gt;Node25</title>
<path fill="none" stroke="midnightblue" d="M888.562,-464.897C860.658,-455.321 818.564,-440.874 787.904,-430.352"/>
<polygon fill="midnightblue" stroke="midnightblue" points="788.978,-427.02 778.383,-427.084 786.706,-433.641 788.978,-427.02"/>
</g>
<!-- Node36 -->
<g id="node87" class="node"><title>Node36</title>
<a xlink:href="_click_region_8h.html" target="_top" xlink:title="ClickRegion.h">
<polygon fill="none" stroke="black" points="715,-465 715,-485 791,-485 791,-465 715,-465"/>
<text text-anchor="middle" x="753" y="-472" font-family="FreeSans" font-size="10.00">ClickRegion.h</text>
</a>
</g>
<!-- Node35&#45;&gt;Node36 -->
<g id="edge102" class="edge"><title>Node35&#45;&gt;Node36</title>
<path fill="none" stroke="midnightblue" d="M770.342,-522.897C767.546,-515.175 763.603,-504.286 760.184,-494.841"/>
<polygon fill="midnightblue" stroke="midnightblue" points="763.453,-493.589 756.757,-485.378 756.871,-495.972 763.453,-493.589"/>
</g>
<!-- Node36&#45;&gt;Node25 -->
<g id="edge104" class="edge"><title>Node36&#45;&gt;Node25</title>
<path fill="none" stroke="midnightblue" d="M752.303,-464.897C751.782,-457.339 751.052,-446.748 750.41,-437.446"/>
<polygon fill="midnightblue" stroke="midnightblue" points="753.896,-437.113 749.716,-427.378 746.912,-437.595 753.896,-437.113"/>
</g>
</g>
</svg>
        <g id="navigator" transform="translate(0 0)" fill="#404254">
                <rect fill="#f2f5e9" fill-opacity="0.5" stroke="#606060" stroke-width=".5" x="0" y="0" width="60" height="60"/>
                <use id="zoomplus" xlink:href="#zoomPlus" x="17" y="9" onmousedown="handleZoom(evt,'in')"/>
                <use id="zoomminus" xlink:href="#zoomMin" x="42" y="9" onmousedown="handleZoom(evt,'out')"/>
                <use id="reset" xlink:href="#resetDef" x="30" y="36" onmousedown="handleReset()"/>
                <g id="arrowUp" xlink:href="#dirArrow" transform="translate(30 24)" onmousedown="handlePan(0,-1)">
                  <use xlink:href="#rim" fill="#404040">
                        <set attributeName="fill" to="#808080" begin="arrowUp.mouseover" end="arrowUp.mouseout"/>
                  </use>
                  <path fill="none" stroke="white" stroke-width="1.5" d="M0,-3.0v7 M-2.5,-0.5L0,-3.0L2.5,-0.5"/>
                </g>
                <g id="arrowRight" xlink:href="#dirArrow" transform="rotate(90) translate(36 -43)" onmousedown="handlePan(1,0)">
                  <use xlink:href="#rim" fill="#404040">
                        <set attributeName="fill" to="#808080" begin="arrowRight.mouseover" end="arrowRight.mouseout"/>
                  </use>
                  <path fill="none" stroke="white" stroke-width="1.5" d="M0,-3.0v7 M-2.5,-0.5L0,-3.0L2.5,-0.5"/>
                </g>
                <g id="arrowDown" xlink:href="#dirArrow" transform="rotate(180) translate(-30 -48)" onmousedown="handlePan(0,1)">
                  <use xlink:href="#rim" fill="#404040">
                        <set attributeName="fill" to="#808080" begin="arrowDown.mouseover" end="arrowDown.mouseout"/>
                  </use>
                  <path fill="none" stroke="white" stroke-width="1.5" d="M0,-3.0v7 M-2.5,-0.5L0,-3.0L2.5,-0.5"/>
                </g>
                <g id="arrowLeft" xlink:href="#dirArrow" transform="rotate(270) translate(-36 17)" onmousedown="handlePan(-1,0)">
                  <use xlink:href="#rim" fill="#404040">
                        <set attributeName="fill" to="#808080" begin="arrowLeft.mouseover" end="arrowLeft.mouseout"/>
                  </use>
                  <path fill="none" stroke="white" stroke-width="1.5" d="M0,-3.0v7 M-2.5,-0.5L0,-3.0L2.5,-0.5"/>
                </g>
        </g>
        <svg viewBox="0 0 15 15" width="100%" height="30px" preserveAspectRatio="xMaxYMin meet">
         <g id="arrow_out" transform="scale(0.3 0.3)">
          <a xlink:href="_button_8cpp__incl_org.svg" target="_base">
           <rect id="button" ry="5" rx="5" y="6" x="6" height="38" width="38"
                fill="#f2f5e9" fill-opacity="0.5" stroke="#606060" stroke-width="1.0"/>
           <path id="arrow"
             d="M 11.500037,31.436501 C 11.940474,20.09759 22.043105,11.32322 32.158766,21.979434 L 37.068811,17.246167 C 37.068811,17.246167 37.088388,32 37.088388,32 L 22.160133,31.978069 C 22.160133,31.978069 26.997745,27.140456 26.997745,27.140456 C 18.528582,18.264221 13.291696,25.230495 11.500037,31.436501 z"
             style="fill:#404040;"/>
          </a>
         </g>
        </svg>
</svg>
