<?xml version="1.0" encoding="UTF-8" standalone="no"?>
<!DOCTYPE svg PUBLIC "-//W3C//DTD SVG 1.1//EN"
 "http://www.w3.org/Graphics/SVG/1.1/DTD/svg11.dtd">
<!-- Generated by graphviz version 2.26.3 (20100126.1600)
 -->
<!-- Title: Button.cpp Pages: 1 -->
<svg width="1028pt" height="494pt"
 viewBox="0.00 0.00 1028.00 494.00" xmlns="http://www.w3.org/2000/svg" xmlns:xlink="http://www.w3.org/1999/xlink">
<g id="graph1" class="graph" transform="scale(1 1) rotate(0) translate(4 490)">
<title>Button.cpp</title>
<!-- Node1 -->
<g id="node1" class="node"><title>Node1</title>
<polygon fill="#bfbfbf" stroke="black" points="658.5,-465 658.5,-485 721.5,-485 721.5,-465 658.5,-465"/>
<text text-anchor="middle" x="690" y="-472" font-family="FreeSans" font-size="10.00">Button.cpp</text>
</g>
<!-- Node2 -->
<g id="node3" class="node"><title>Node2</title>
<polygon fill="none" stroke="#bfbfbf" points="196.5,-407 196.5,-427 249.5,-427 249.5,-407 196.5,-407"/>
<text text-anchor="middle" x="223" y="-414" font-family="FreeSans" font-size="10.00">StdAfx.h</text>
</g>
<!-- Node1&#45;&gt;Node2 -->
<g id="edge2" class="edge"><title>Node1&#45;&gt;Node2</title>
<path fill="none" stroke="midnightblue" d="M658.498,-473.69C588.276,-470.32 413.587,-459.448 259.714,-428.053"/>
<polygon fill="midnightblue" stroke="midnightblue" points="260.113,-424.561 249.61,-425.955 258.69,-431.415 260.113,-424.561"/>
</g>
<!-- Node3 -->
<g id="node5" class="node"><title>Node3</title>
<a xlink:href="_action_8h.html" target="_top" xlink:title="../Control/Action.h">
<polygon fill="none" stroke="black" points="266.5,-407 266.5,-427 359.5,-427 359.5,-407 266.5,-407"/>
<text text-anchor="middle" x="313" y="-414" font-family="FreeSans" font-size="10.00">../Control/Action.h</text>
</a>
</g>
<!-- Node1&#45;&gt;Node3 -->
<g id="edge4" class="edge"><title>Node1&#45;&gt;Node3</title>
<path fill="none" stroke="midnightblue" d="M658.182,-470.105C594.343,-460.284 449.891,-438.06 369.562,-425.702"/>
<polygon fill="midnightblue" stroke="midnightblue" points="370.034,-422.233 359.618,-424.172 368.97,-429.152 370.034,-422.233"/>
</g>
<!-- Node11 -->
<g id="node21" class="node"><title>Node11</title>
<a xlink:href="_config_8h.html" target="_top" xlink:title="../Util/Config.h">
<polygon fill="none" stroke="black" points="535.5,-407 535.5,-427 612.5,-427 612.5,-407 535.5,-407"/>
<text text-anchor="middle" x="574" y="-414" font-family="FreeSans" font-size="10.00">../Util/Config.h</text>
</a>
</g>
<!-- Node1&#45;&gt;Node11 -->
<g id="edge20" class="edge"><title>Node1&#45;&gt;Node11</title>
<path fill="none" stroke="midnightblue" d="M669.794,-464.897C651.444,-455.722 624.152,-442.076 603.389,-431.694"/>
<polygon fill="midnightblue" stroke="midnightblue" points="604.873,-428.523 594.363,-427.182 601.742,-434.784 604.873,-428.523"/>
</g>
<!-- Node18 -->
<g id="node37" class="node"><title>Node18</title>
<a xlink:href="_ui_font_8h.html" target="_top" xlink:title="UiFont.h">
<polygon fill="none" stroke="black" points="880.5,-291 880.5,-311 933.5,-311 933.5,-291 880.5,-291"/>
<text text-anchor="middle" x="907" y="-298" font-family="FreeSans" font-size="10.00">UiFont.h</text>
</a>
</g>
<!-- Node1&#45;&gt;Node18 -->
<g id="edge38" class="edge"><title>Node1&#45;&gt;Node18</title>
<path fill="none" stroke="midnightblue" d="M719.065,-464.878C758.599,-449.801 829.384,-417.969 873,-370 885.868,-355.847 894.98,-335.931 900.511,-321.132"/>
<polygon fill="midnightblue" stroke="midnightblue" points="903.912,-322.01 903.908,-311.415 897.304,-319.7 903.912,-322.01"/>
</g>
<!-- Node22 -->
<g id="node45" class="node"><title>Node22</title>
<a xlink:href="_fill_box_8h.html" target="_top" xlink:title="FillBox.h">
<polygon fill="none" stroke="black" points="745.5,-349 745.5,-369 798.5,-369 798.5,-349 745.5,-349"/>
<text text-anchor="middle" x="772" y="-356" font-family="FreeSans" font-size="10.00">FillBox.h</text>
</a>
</g>
<!-- Node1&#45;&gt;Node22 -->
<g id="edge46" class="edge"><title>Node1&#45;&gt;Node22</title>
<path fill="none" stroke="midnightblue" d="M697.912,-464.639C705.09,-455.177 715.909,-440.76 725,-428 736.89,-411.311 749.981,-392.012 759.321,-378.075"/>
<polygon fill="midnightblue" stroke="midnightblue" points="762.484,-379.641 765.127,-369.381 756.663,-375.753 762.484,-379.641"/>
</g>
<!-- Node31 -->
<g id="node71" class="node"><title>Node31</title>
<a xlink:href="_label_8h.html" target="_top" xlink:title="Label.h">
<polygon fill="none" stroke="black" points="816,-349 816,-369 864,-369 864,-349 816,-349"/>
<text text-anchor="middle" x="840" y="-356" font-family="FreeSans" font-size="10.00">Label.h</text>
</a>
</g>
<!-- Node1&#45;&gt;Node31 -->
<g id="edge80" class="edge"><title>Node1&#45;&gt;Node31</title>
<path fill="none" stroke="midnightblue" d="M703.049,-464.909C728.98,-444.856 787.203,-399.83 818.737,-375.444"/>
<polygon fill="midnightblue" stroke="midnightblue" points="821.105,-378.037 826.874,-369.151 816.823,-372.499 821.105,-378.037"/>
</g>
<!-- Node32 -->
<g id="node76" class="node"><title>Node32</title>
<a xlink:href="_button_8h.html" target="_top" xlink:title="Button.h">
<polygon fill="none" stroke="black" points="663.5,-407 663.5,-427 716.5,-427 716.5,-407 663.5,-407"/>
<text text-anchor="middle" x="690" y="-414" font-family="FreeSans" font-size="10.00">Button.h</text>
</a>
</g>
<!-- Node1&#45;&gt;Node32 -->
<g id="edge88" class="edge"><title>Node1&#45;&gt;Node32</title>
<path fill="none" stroke="midnightblue" d="M690,-464.897C690,-457.339 690,-446.748 690,-437.446"/>
<polygon fill="midnightblue" stroke="midnightblue" points="693.5,-437.378 690,-427.378 686.5,-437.378 693.5,-437.378"/>
</g>
<!-- Node4 -->
<g id="node7" class="node"><title>Node4</title>
<polygon fill="none" stroke="#bfbfbf" points="129.5,-349 129.5,-369 242.5,-369 242.5,-349 129.5,-349"/>
<text text-anchor="middle" x="186" y="-356" font-family="FreeSans" font-size="10.00">SDL2/SDL_keycode.h</text>
</g>
<!-- Node3&#45;&gt;Node4 -->
<g id="edge6" class="edge"><title>Node3&#45;&gt;Node4</title>
<path fill="none" stroke="midnightblue" d="M290.878,-406.897C270.606,-397.639 240.369,-383.83 217.563,-373.415"/>
<polygon fill="midnightblue" stroke="midnightblue" points="218.845,-370.152 208.294,-369.182 215.937,-376.52 218.845,-370.152"/>
</g>
<!-- Node5 -->
<g id="node9" class="node"><title>Node5</title>
<polygon fill="none" stroke="#bfbfbf" points="260,-349 260,-369 366,-369 366,-349 260,-349"/>
<text text-anchor="middle" x="313" y="-356" font-family="FreeSans" font-size="10.00">SDL2/SDL_mouse.h</text>
</g>
<!-- Node3&#45;&gt;Node5 -->
<g id="edge8" class="edge"><title>Node3&#45;&gt;Node5</title>
<path fill="none" stroke="midnightblue" d="M313,-406.897C313,-399.339 313,-388.748 313,-379.446"/>
<polygon fill="midnightblue" stroke="midnightblue" points="316.5,-379.378 313,-369.378 309.5,-379.378 316.5,-379.378"/>
</g>
<!-- Node6 -->
<g id="node11" class="node"><title>Node6</title>
<a xlink:href="_vec_8h.html" target="_top" xlink:title="../Display/Vec.h">
<polygon fill="none" stroke="black" points="597.5,-117 597.5,-137 680.5,-137 680.5,-117 597.5,-117"/>
<text text-anchor="middle" x="639" y="-124" font-family="FreeSans" font-size="10.00">../Display/Vec.h</text>
</a>
</g>
<!-- Node3&#45;&gt;Node6 -->
<g id="edge10" class="edge"><title>Node3&#45;&gt;Node6</title>
<path fill="none" stroke="midnightblue" d="M266.739,-406.907C211.638,-394.704 126.307,-375.157 121,-370 98.1886,-347.833 102,-332.808 102,-301 102,-301 102,-301 102,-243 102,-193.674 452.631,-148.322 587.239,-132.729"/>
<polygon fill="midnightblue" stroke="midnightblue" points="587.775,-136.191 597.309,-131.571 586.975,-129.236 587.775,-136.191"/>
</g>
<!-- Node7 -->
<g id="node13" class="node"><title>Node7</title>
<a xlink:href="_exception_8h.html" target="_top" xlink:title="../Exception.h">
<polygon fill="none" stroke="black" points="0,-349 0,-369 74,-369 74,-349 0,-349"/>
<text text-anchor="middle" x="37" y="-356" font-family="FreeSans" font-size="10.00">../Exception.h</text>
</a>
</g>
<!-- Node3&#45;&gt;Node7 -->
<g id="edge12" class="edge"><title>Node3&#45;&gt;Node7</title>
<path fill="none" stroke="midnightblue" d="M266.442,-407.367C220.928,-397.928 149.676,-383.093 88,-370 86.7291,-369.73 85.4405,-369.456 84.1402,-369.179"/>
<polygon fill="midnightblue" stroke="midnightblue" points="84.5521,-365.688 74.0412,-367.019 83.0879,-372.533 84.5521,-365.688"/>
</g>
<!-- Node9 -->
<g id="node17" class="node"><title>Node9</title>
<a xlink:href="_control_action_8h.html" target="_top" xlink:title="ControlAction.h">
<polygon fill="none" stroke="black" points="383.5,-349 383.5,-369 466.5,-369 466.5,-349 383.5,-349"/>
<text text-anchor="middle" x="425" y="-356" font-family="FreeSans" font-size="10.00">ControlAction.h</text>
</a>
</g>
<!-- Node3&#45;&gt;Node9 -->
<g id="edge16" class="edge"><title>Node3&#45;&gt;Node9</title>
<path fill="none" stroke="midnightblue" d="M332.509,-406.897C350.147,-397.763 376.34,-384.199 396.353,-373.835"/>
<polygon fill="midnightblue" stroke="midnightblue" points="398.068,-376.888 405.339,-369.182 394.849,-370.672 398.068,-376.888"/>
</g>
<!-- Node8 -->
<g id="node15" class="node"><title>Node8</title>
<polygon fill="none" stroke="#bfbfbf" points="8,-291 8,-311 66,-311 66,-291 8,-291"/>
<text text-anchor="middle" x="37" y="-298" font-family="FreeSans" font-size="10.00">exception</text>
</g>
<!-- Node7&#45;&gt;Node8 -->
<g id="edge14" class="edge"><title>Node7&#45;&gt;Node8</title>
<path fill="none" stroke="midnightblue" d="M37,-348.897C37,-341.339 37,-330.748 37,-321.446"/>
<polygon fill="midnightblue" stroke="midnightblue" points="40.5001,-321.378 37,-311.378 33.5001,-321.378 40.5001,-321.378"/>
</g>
<!-- Node10 -->
<g id="node19" class="node"><title>Node10</title>
<polygon fill="none" stroke="#bfbfbf" points="358.5,-291 358.5,-311 399.5,-311 399.5,-291 358.5,-291"/>
<text text-anchor="middle" x="379" y="-298" font-family="FreeSans" font-size="10.00">string</text>
</g>
<!-- Node9&#45;&gt;Node10 -->
<g id="edge18" class="edge"><title>Node9&#45;&gt;Node10</title>
<path fill="none" stroke="midnightblue" d="M416.987,-348.897C410.537,-340.764 401.301,-329.118 393.551,-319.347"/>
<polygon fill="midnightblue" stroke="midnightblue" points="396.187,-317.038 387.231,-311.378 390.702,-321.387 396.187,-317.038"/>
</g>
<!-- Node11&#45;&gt;Node10 -->
<g id="edge22" class="edge"><title>Node11&#45;&gt;Node10</title>
<path fill="none" stroke="midnightblue" d="M560.979,-406.955C542.446,-392.886 507.138,-366.916 475,-348 453.521,-335.358 428.155,-323.044 408.894,-314.194"/>
<polygon fill="midnightblue" stroke="midnightblue" points="410.254,-310.968 399.702,-310.02 407.36,-317.341 410.254,-310.968"/>
</g>
<!-- Node12 -->
<g id="node24" class="node"><title>Node12</title>
<polygon fill="none" stroke="#bfbfbf" points="578,-349 578,-369 634,-369 634,-349 578,-349"/>
<text text-anchor="middle" x="606" y="-356" font-family="FreeSans" font-size="10.00">basedir.h</text>
</g>
<!-- Node11&#45;&gt;Node12 -->
<g id="edge24" class="edge"><title>Node11&#45;&gt;Node12</title>
<path fill="none" stroke="midnightblue" d="M579.574,-406.897C583.925,-399.01 590.099,-387.821 595.385,-378.24"/>
<polygon fill="midnightblue" stroke="midnightblue" points="598.508,-379.824 600.274,-369.378 592.379,-376.443 598.508,-379.824"/>
</g>
<!-- Node13 -->
<g id="node26" class="node"><title>Node13</title>
<a xlink:href="_o_s_8h.html" target="_top" xlink:title="OS.h">
<polygon fill="none" stroke="black" points="522,-349 522,-369 560,-369 560,-349 522,-349"/>
<text text-anchor="middle" x="541" y="-356" font-family="FreeSans" font-size="10.00">OS.h</text>
</a>
</g>
<!-- Node11&#45;&gt;Node13 -->
<g id="edge26" class="edge"><title>Node11&#45;&gt;Node13</title>
<path fill="none" stroke="midnightblue" d="M568.252,-406.897C563.765,-399.01 557.398,-387.821 551.947,-378.24"/>
<polygon fill="midnightblue" stroke="midnightblue" points="554.892,-376.338 546.904,-369.378 548.808,-379.8 554.892,-376.338"/>
</g>
<!-- Node13&#45;&gt;Node10 -->
<g id="edge32" class="edge"><title>Node13&#45;&gt;Node10</title>
<path fill="none" stroke="midnightblue" d="M521.567,-352.289C497.34,-343.889 454.44,-328.905 409.246,-312.411"/>
<polygon fill="midnightblue" stroke="midnightblue" points="410.167,-309.021 399.573,-308.87 407.761,-315.594 410.167,-309.021"/>
</g>
<!-- Node14 -->
<g id="node28" class="node"><title>Node14</title>
<polygon fill="none" stroke="#bfbfbf" points="601,-291 601,-311 643,-311 643,-291 601,-291"/>
<text text-anchor="middle" x="622" y="-298" font-family="FreeSans" font-size="10.00">locale</text>
</g>
<!-- Node13&#45;&gt;Node14 -->
<g id="edge28" class="edge"><title>Node13&#45;&gt;Node14</title>
<path fill="none" stroke="midnightblue" d="M555.109,-348.897C567.346,-340.135 585.276,-327.297 599.493,-317.116"/>
<polygon fill="midnightblue" stroke="midnightblue" points="601.688,-319.849 607.781,-311.182 597.613,-314.158 601.688,-319.849"/>
</g>
<!-- Node15 -->
<g id="node30" class="node"><title>Node15</title>
<polygon fill="none" stroke="#bfbfbf" points="661,-291 661,-311 691,-311 691,-291 661,-291"/>
<text text-anchor="middle" x="676" y="-298" font-family="FreeSans" font-size="10.00">set</text>
</g>
<!-- Node13&#45;&gt;Node15 -->
<g id="edge30" class="edge"><title>Node13&#45;&gt;Node15</title>
<path fill="none" stroke="midnightblue" d="M560.324,-351.019C580.793,-342.522 614.255,-328.51 651.304,-312.235"/>
<polygon fill="midnightblue" stroke="midnightblue" points="653.057,-315.287 660.795,-308.05 650.233,-308.882 653.057,-315.287"/>
</g>
<!-- Node16 -->
<g id="node33" class="node"><title>Node16</title>
<polygon fill="none" stroke="#bfbfbf" points="417,-291 417,-311 461,-311 461,-291 417,-291"/>
<text text-anchor="middle" x="439" y="-298" font-family="FreeSans" font-size="10.00">vector</text>
</g>
<!-- Node13&#45;&gt;Node16 -->
<g id="edge34" class="edge"><title>Node13&#45;&gt;Node16</title>
<path fill="none" stroke="midnightblue" d="M523.233,-348.897C507.388,-339.887 483.962,-326.567 465.834,-316.259"/>
<polygon fill="midnightblue" stroke="midnightblue" points="467.329,-313.082 456.906,-311.182 463.869,-319.167 467.329,-313.082"/>
</g>
<!-- Node17 -->
<g id="node35" class="node"><title>Node17</title>
<polygon fill="none" stroke="#bfbfbf" points="478.5,-291 478.5,-311 583.5,-311 583.5,-291 478.5,-291"/>
<text text-anchor="middle" x="531" y="-298" font-family="FreeSans" font-size="10.00">boost/filesystem.hpp</text>
</g>
<!-- Node13&#45;&gt;Node17 -->
<g id="edge36" class="edge"><title>Node13&#45;&gt;Node17</title>
<path fill="none" stroke="midnightblue" d="M539.258,-348.897C537.955,-341.339 536.129,-330.748 534.525,-321.446"/>
<polygon fill="midnightblue" stroke="midnightblue" points="537.938,-320.638 532.789,-311.378 531.039,-321.827 537.938,-320.638"/>
</g>
<!-- Node19 -->
<g id="node39" class="node"><title>Node19</title>
<a xlink:href="_sel_fmt_8h.html" target="_top" xlink:title="../Util/SelFmt.h">
<polygon fill="none" stroke="black" points="939.5,-233 939.5,-253 1020.5,-253 1020.5,-233 939.5,-233"/>
<text text-anchor="middle" x="980" y="-240" font-family="FreeSans" font-size="10.00">../Util/SelFmt.h</text>
</a>
</g>
<!-- Node18&#45;&gt;Node19 -->
<g id="edge40" class="edge"><title>Node18&#45;&gt;Node19</title>
<path fill="none" stroke="midnightblue" d="M919.716,-290.897C930.469,-282.353 946.102,-269.933 958.753,-259.881"/>
<polygon fill="midnightblue" stroke="midnightblue" points="961.286,-262.339 966.939,-253.378 956.932,-256.858 961.286,-262.339"/>
</g>
<!-- Node20 -->
<g id="node41" class="node"><title>Node20</title>
<a xlink:href="_m_r___types_8h.html" target="_top" xlink:title="../Util/MR_Types.h">
<polygon fill="none" stroke="black" points="778,-59 778,-79 874,-79 874,-59 778,-59"/>
<text text-anchor="middle" x="826" y="-66" font-family="FreeSans" font-size="10.00">../Util/MR_Types.h</text>
</a>
</g>
<!-- Node19&#45;&gt;Node20 -->
<g id="edge42" class="edge"><title>Node19&#45;&gt;Node20</title>
<path fill="none" stroke="midnightblue" d="M978.22,-232.735C973.646,-209.194 959.411,-150.682 926,-116 911.38,-100.824 890.894,-90.0177 872.268,-82.6258"/>
<polygon fill="midnightblue" stroke="midnightblue" points="873.331,-79.2867 862.738,-79.0664 870.881,-85.8442 873.331,-79.2867"/>
</g>
<!-- Node21 -->
<g id="node43" class="node"><title>Node21</title>
<polygon fill="none" stroke="#bfbfbf" points="797,-1 797,-21 855,-21 855,-1 797,-1"/>
<text text-anchor="middle" x="826" y="-8" font-family="FreeSans" font-size="10.00">inttypes.h</text>
</g>
<!-- Node20&#45;&gt;Node21 -->
<g id="edge44" class="edge"><title>Node20&#45;&gt;Node21</title>
<path fill="none" stroke="midnightblue" d="M826,-58.8972C826,-51.339 826,-40.7476 826,-31.4458"/>
<polygon fill="midnightblue" stroke="midnightblue" points="829.5,-31.3776 826,-21.3776 822.5,-31.3776 829.5,-31.3776"/>
</g>
<!-- Node23 -->
<g id="node47" class="node"><title>Node23</title>
<a xlink:href="_color_8h.html" target="_top" xlink:title="Color.h">
<polygon fill="none" stroke="black" points="816.5,-291 816.5,-311 863.5,-311 863.5,-291 816.5,-291"/>
<text text-anchor="middle" x="840" y="-298" font-family="FreeSans" font-size="10.00">Color.h</text>
</a>
</g>
<!-- Node22&#45;&gt;Node23 -->
<g id="edge48" class="edge"><title>Node22&#45;&gt;Node23</title>
<path fill="none" stroke="midnightblue" d="M783.845,-348.897C793.862,-340.353 808.423,-327.933 820.208,-317.881"/>
<polygon fill="midnightblue" stroke="midnightblue" points="822.496,-320.53 827.833,-311.378 817.953,-315.204 822.496,-320.53"/>
</g>
<!-- Node25 -->
<g id="node53" class="node"><title>Node25</title>
<a xlink:href="_ui_view_model_8h.html" target="_top" xlink:title="UiViewModel.h">
<polygon fill="none" stroke="black" points="709,-291 709,-311 791,-311 791,-291 709,-291"/>
<text text-anchor="middle" x="750" y="-298" font-family="FreeSans" font-size="10.00">UiViewModel.h</text>
</a>
</g>
<!-- Node22&#45;&gt;Node25 -->
<g id="edge56" class="edge"><title>Node22&#45;&gt;Node25</title>
<path fill="none" stroke="midnightblue" d="M768.168,-348.897C765.239,-341.175 761.108,-330.286 757.526,-320.841"/>
<polygon fill="midnightblue" stroke="midnightblue" points="760.755,-319.486 753.936,-311.378 754.21,-321.969 760.755,-319.486"/>
</g>
<!-- Node23&#45;&gt;Node19 -->
<g id="edge54" class="edge"><title>Node23&#45;&gt;Node19</title>
<path fill="none" stroke="midnightblue" d="M863.749,-291.161C886.439,-281.761 920.863,-267.5 946.368,-256.933"/>
<polygon fill="midnightblue" stroke="midnightblue" points="947.765,-260.143 955.664,-253.082 945.086,-253.676 947.765,-260.143"/>
</g>
<!-- Node23&#45;&gt;Node20 -->
<g id="edge52" class="edge"><title>Node23&#45;&gt;Node20</title>
<path fill="none" stroke="midnightblue" d="M857.647,-290.987C870.094,-282.825 885.786,-270.039 893,-254 918.158,-198.064 921.297,-170.416 893,-116 885.879,-102.306 872.737,-91.7705 859.966,-84.179"/>
<polygon fill="midnightblue" stroke="midnightblue" points="861.275,-80.9055 850.824,-79.1685 857.911,-87.044 861.275,-80.9055"/>
</g>
<!-- Node24 -->
<g id="node49" class="node"><title>Node24</title>
<polygon fill="none" stroke="#bfbfbf" points="795.5,-233 795.5,-253 884.5,-253 884.5,-233 795.5,-233"/>
<text text-anchor="middle" x="840" y="-240" font-family="FreeSans" font-size="10.00">boost/format.hpp</text>
</g>
<!-- Node23&#45;&gt;Node24 -->
<g id="edge50" class="edge"><title>Node23&#45;&gt;Node24</title>
<path fill="none" stroke="midnightblue" d="M840,-290.897C840,-283.339 840,-272.748 840,-263.446"/>
<polygon fill="midnightblue" stroke="midnightblue" points="843.5,-263.378 840,-253.378 836.5,-263.378 843.5,-263.378"/>
</g>
<!-- Node25&#45;&gt;Node6 -->
<g id="edge64" class="edge"><title>Node25&#45;&gt;Node6</title>
<path fill="none" stroke="midnightblue" d="M732.111,-290.893C718.672,-282.515 700.65,-269.494 689,-254 664.08,-220.855 649.865,-173.678 643.365,-147.143"/>
<polygon fill="midnightblue" stroke="midnightblue" points="646.713,-146.085 641.043,-137.135 639.894,-147.667 646.713,-146.085"/>
</g>
<!-- Node25&#45;&gt;Node20 -->
<g id="edge58" class="edge"><title>Node25&#45;&gt;Node20</title>
<path fill="none" stroke="midnightblue" d="M728.816,-290.948C673.531,-263.413 532.933,-184.278 589,-116 611.191,-88.9767 704.995,-77.2173 767.725,-72.3019"/>
<polygon fill="midnightblue" stroke="midnightblue" points="768.183,-75.7775 777.895,-71.5431 767.662,-68.7969 768.183,-75.7775"/>
</g>
<!-- Node26 -->
<g id="node56" class="node"><title>Node26</title>
<a xlink:href="_ui_layout_flags_8h.html" target="_top" xlink:title="UiLayoutFlags.h">
<polygon fill="none" stroke="black" points="697.5,-117 697.5,-137 784.5,-137 784.5,-117 697.5,-117"/>
<text text-anchor="middle" x="741" y="-124" font-family="FreeSans" font-size="10.00">UiLayoutFlags.h</text>
</a>
</g>
<!-- Node25&#45;&gt;Node26 -->
<g id="edge60" class="edge"><title>Node25&#45;&gt;Node26</title>
<path fill="none" stroke="midnightblue" d="M732.353,-290.987C719.906,-282.825 704.214,-270.039 697,-254 690.081,-238.617 696.132,-192.953 704,-174 708.48,-163.21 716.167,-152.827 723.379,-144.577"/>
<polygon fill="midnightblue" stroke="midnightblue" points="726.073,-146.819 730.295,-137.101 720.934,-142.065 726.073,-146.819"/>
</g>
<!-- Node27 -->
<g id="node60" class="node"><title>Node27</title>
<a xlink:href="_view_model_8h.html" target="_top" xlink:title="ViewModel.h">
<polygon fill="none" stroke="black" points="706,-233 706,-253 778,-253 778,-233 706,-233"/>
<text text-anchor="middle" x="742" y="-240" font-family="FreeSans" font-size="10.00">ViewModel.h</text>
</a>
</g>
<!-- Node25&#45;&gt;Node27 -->
<g id="edge66" class="edge"><title>Node25&#45;&gt;Node27</title>
<path fill="none" stroke="midnightblue" d="M748.607,-290.897C747.564,-283.339 746.103,-272.748 744.82,-263.446"/>
<polygon fill="midnightblue" stroke="midnightblue" points="748.265,-262.806 743.431,-253.378 741.331,-263.762 748.265,-262.806"/>
</g>
<!-- Node26&#45;&gt;Node20 -->
<g id="edge62" class="edge"><title>Node26&#45;&gt;Node20</title>
<path fill="none" stroke="midnightblue" d="M755.806,-116.897C768.768,-108.052 787.818,-95.0539 802.802,-84.829"/>
<polygon fill="midnightblue" stroke="midnightblue" points="804.791,-87.7092 811.079,-79.1817 800.846,-81.927 804.791,-87.7092"/>
</g>
<!-- Node28 -->
<g id="node62" class="node"><title>Node28</title>
<a xlink:href="_display_8h.html" target="_top" xlink:title="Display.h">
<polygon fill="none" stroke="black" points="713,-175 713,-195 769,-195 769,-175 713,-175"/>
<text text-anchor="middle" x="741" y="-182" font-family="FreeSans" font-size="10.00">Display.h</text>
</a>
</g>
<!-- Node27&#45;&gt;Node28 -->
<g id="edge68" class="edge"><title>Node27&#45;&gt;Node28</title>
<path fill="none" stroke="midnightblue" d="M741.826,-232.897C741.696,-225.339 741.513,-214.748 741.353,-205.446"/>
<polygon fill="midnightblue" stroke="midnightblue" points="744.851,-205.316 741.179,-195.378 737.852,-205.436 744.851,-205.316"/>
</g>
<!-- Node29 -->
<g id="node66" class="node"><title>Node29</title>
<a xlink:href="_view_attacher_8h.html" target="_top" xlink:title="ViewAttacher.h">
<polygon fill="none" stroke="black" points="801.5,-117 801.5,-137 884.5,-137 884.5,-117 801.5,-117"/>
<text text-anchor="middle" x="843" y="-124" font-family="FreeSans" font-size="10.00">ViewAttacher.h</text>
</a>
</g>
<!-- Node27&#45;&gt;Node29 -->
<g id="edge78" class="edge"><title>Node27&#45;&gt;Node29</title>
<path fill="none" stroke="midnightblue" d="M750.963,-232.706C768.151,-212.965 805.938,-169.567 827.365,-144.957"/>
<polygon fill="midnightblue" stroke="midnightblue" points="830.274,-146.946 834.201,-137.106 824.995,-142.349 830.274,-146.946"/>
</g>
<!-- Node30 -->
<g id="node68" class="node"><title>Node30</title>
<a xlink:href="_view_8h.html" target="_top" xlink:title="View.h">
<polygon fill="none" stroke="black" points="825,-175 825,-195 871,-195 871,-175 825,-175"/>
<text text-anchor="middle" x="848" y="-182" font-family="FreeSans" font-size="10.00">View.h</text>
</a>
</g>
<!-- Node27&#45;&gt;Node30 -->
<g id="edge76" class="edge"><title>Node27&#45;&gt;Node30</title>
<path fill="none" stroke="midnightblue" d="M760.464,-232.897C777.006,-223.846 801.498,-210.444 820.372,-200.117"/>
<polygon fill="midnightblue" stroke="midnightblue" points="822.3,-203.052 829.392,-195.182 818.939,-196.911 822.3,-203.052"/>
</g>
<!-- Node28&#45;&gt;Node6 -->
<g id="edge72" class="edge"><title>Node28&#45;&gt;Node6</title>
<path fill="none" stroke="midnightblue" d="M723.233,-174.897C707.388,-165.887 683.962,-152.567 665.834,-142.259"/>
<polygon fill="midnightblue" stroke="midnightblue" points="667.329,-139.082 656.906,-137.182 663.869,-145.167 667.329,-139.082"/>
</g>
<!-- Node28&#45;&gt;Node26 -->
<g id="edge70" class="edge"><title>Node28&#45;&gt;Node26</title>
<path fill="none" stroke="midnightblue" d="M741,-174.897C741,-167.339 741,-156.748 741,-147.446"/>
<polygon fill="midnightblue" stroke="midnightblue" points="744.5,-147.378 741,-137.378 737.5,-147.378 744.5,-147.378"/>
</g>
<!-- Node28&#45;&gt;Node29 -->
<g id="edge74" class="edge"><title>Node28&#45;&gt;Node29</title>
<path fill="none" stroke="midnightblue" d="M758.767,-174.897C774.612,-165.887 798.038,-152.567 816.166,-142.259"/>
<polygon fill="midnightblue" stroke="midnightblue" points="818.131,-145.167 825.094,-137.182 814.671,-139.082 818.131,-145.167"/>
</g>
<!-- Node31&#45;&gt;Node18 -->
<g id="edge84" class="edge"><title>Node31&#45;&gt;Node18</title>
<path fill="none" stroke="midnightblue" d="M851.671,-348.897C861.445,-340.435 875.612,-328.172 887.163,-318.172"/>
<polygon fill="midnightblue" stroke="midnightblue" points="889.742,-320.569 895.012,-311.378 885.161,-315.276 889.742,-320.569"/>
</g>
<!-- Node31&#45;&gt;Node23 -->
<g id="edge82" class="edge"><title>Node31&#45;&gt;Node23</title>
<path fill="none" stroke="midnightblue" d="M840,-348.897C840,-341.339 840,-330.748 840,-321.446"/>
<polygon fill="midnightblue" stroke="midnightblue" points="843.5,-321.378 840,-311.378 836.5,-321.378 843.5,-321.378"/>
</g>
<!-- Node31&#45;&gt;Node25 -->
<g id="edge86" class="edge"><title>Node31&#45;&gt;Node25</title>
<path fill="none" stroke="midnightblue" d="M824.323,-348.897C810.599,-340.052 790.428,-327.054 774.562,-316.829"/>
<polygon fill="midnightblue" stroke="midnightblue" points="776.101,-313.657 765.799,-311.182 772.309,-319.541 776.101,-313.657"/>
</g>
<!-- Node33 -->
<g id="node78" class="node"><title>Node33</title>
<a xlink:href="_click_region_8h.html" target="_top" xlink:title="ClickRegion.h">
<polygon fill="none" stroke="black" points="652,-349 652,-369 728,-369 728,-349 652,-349"/>
<text text-anchor="middle" x="690" y="-356" font-family="FreeSans" font-size="10.00">ClickRegion.h</text>
</a>
</g>
<!-- Node32&#45;&gt;Node33 -->
<g id="edge90" class="edge"><title>Node32&#45;&gt;Node33</title>
<path fill="none" stroke="midnightblue" d="M690,-406.897C690,-399.339 690,-388.748 690,-379.446"/>
<polygon fill="midnightblue" stroke="midnightblue" points="693.5,-379.378 690,-369.378 686.5,-379.378 693.5,-379.378"/>
</g>
<!-- Node33&#45;&gt;Node25 -->
<g id="edge92" class="edge"><title>Node33&#45;&gt;Node25</title>
<path fill="none" stroke="midnightblue" d="M700.451,-348.897C709.12,-340.517 721.646,-328.409 731.934,-318.464"/>
<polygon fill="midnightblue" stroke="midnightblue" points="734.507,-320.844 739.265,-311.378 729.642,-315.811 734.507,-320.844"/>
</g>
</g>
</svg>
