<?xml version="1.0" encoding="UTF-8" standalone="no"?>
<!DOCTYPE svg PUBLIC "-//W3C//DTD SVG 1.1//EN"
 "http://www.w3.org/Graphics/SVG/1.1/DTD/svg11.dtd">
<!-- Generated by graphviz version 2.26.3 (20100126.1600)
 -->
<!-- Title: Chronometer.cpp Pages: 1 -->
<!--zoomable 610 -->
<svg id="main" version="1.1" xmlns="http://www.w3.org/2000/svg" xmlns:xlink="http://www.w3.org/1999/xlink" xml:space="preserve" onload="init(evt)">
        <defs>
                <circle id="rim" cx="0" cy="0" r="7"/>
                <circle id="rim2" cx="0" cy="0" r="3.5"/>
                <g id="zoomPlus">
                        <use xlink:href="#rim" fill="#404040">
                                <set attributeName="fill" to="#808080" begin="zoomplus.mouseover" end="zoomplus.mouseout"/>
                        </use>
                        <path d="M-4,0h8M0,-4v8" fill="none" stroke="white" stroke-width="1.5" pointer-events="none"/>
                </g>
                <g id="zoomMin">
                        <use xlink:href="#rim" fill="#404040">
                                <set attributeName="fill" to="#808080" begin="zoomminus.mouseover" end="zoomminus.mouseout"/>
                        </use>
                        <path d="M-4,0h8" fill="none" stroke="white" stroke-width="1.5" pointer-events="none"/>
                </g>
                <g id="dirArrow">
                        <path fill="none" stroke="white" stroke-width="1.5" d="M0,-3.0v7 M-2.5,-0.5L0,-3.0L2.5,-0.5"/>
                </g>
               <g id="resetDef">
                       <use xlink:href="#rim2" fill="#404040">
                               <set attributeName="fill" to="#808080" begin="reset.mouseover" end="reset.mouseout"/>
                       </use>
               </g>
        </defs>

<script type="text/javascript">
var viewWidth = 884;
var viewHeight = 610;
var sectionId = 'dynsection-0';
</script>
<script xlink:href="svgpan.js"/>
<svg id="graph" class="graph">
<g id="viewport">
<title>Chronometer.cpp</title>
<!-- Node1 -->
<g id="node1" class="node"><title>Node1</title>
<polygon fill="#bfbfbf" stroke="black" points="466,-581 466,-601 556,-601 556,-581 466,-581"/>
<text text-anchor="middle" x="511" y="-588" font-family="FreeSans" font-size="10.00">Chronometer.cpp</text>
</g>
<!-- Node2 -->
<g id="node3" class="node"><title>Node2</title>
<polygon fill="none" stroke="#bfbfbf" points="274.5,-523 274.5,-543 327.5,-543 327.5,-523 274.5,-523"/>
<text text-anchor="middle" x="301" y="-530" font-family="FreeSans" font-size="10.00">StdAfx.h</text>
</g>
<!-- Node1&#45;&gt;Node2 -->
<g id="edge2" class="edge"><title>Node1&#45;&gt;Node2</title>
<path fill="none" stroke="midnightblue" d="M471.599,-580.924C438.197,-572.27 388.796,-559.207 337.629,-544.407"/>
<polygon fill="midnightblue" stroke="midnightblue" points="338.297,-540.956 327.718,-541.524 336.343,-547.678 338.297,-540.956"/>
</g>
<!-- Node3 -->
<g id="node5" class="node"><title>Node3</title>
<a xlink:href="_clock_8h.html" target="_top" xlink:title="../Util/Clock.h">
<polygon fill="none" stroke="black" points="345,-523 345,-543 419,-543 419,-523 345,-523"/>
<text text-anchor="middle" x="382" y="-530" font-family="FreeSans" font-size="10.00">../Util/Clock.h</text>
</a>
</g>
<!-- Node1&#45;&gt;Node3 -->
<g id="edge4" class="edge"><title>Node1&#45;&gt;Node3</title>
<path fill="none" stroke="midnightblue" d="M488.53,-580.897C467.939,-571.639 437.225,-557.83 414.06,-547.415"/>
<polygon fill="midnightblue" stroke="midnightblue" points="415.201,-544.09 404.645,-543.182 412.331,-550.475 415.201,-544.09"/>
</g>
<!-- Node15 -->
<g id="node31" class="node"><title>Node15</title>
<a xlink:href="_config_8h.html" target="_top" xlink:title="../Util/Config.h">
<polygon fill="none" stroke="black" points="506.5,-465 506.5,-485 583.5,-485 583.5,-465 506.5,-465"/>
<text text-anchor="middle" x="545" y="-472" font-family="FreeSans" font-size="10.00">../Util/Config.h</text>
</a>
</g>
<!-- Node1&#45;&gt;Node15 -->
<g id="edge32" class="edge"><title>Node1&#45;&gt;Node15</title>
<path fill="none" stroke="midnightblue" d="M514.336,-580.951C517.457,-571.459 522.194,-556.808 526,-544 530.859,-527.647 535.971,-508.988 539.667,-495.2"/>
<polygon fill="midnightblue" stroke="midnightblue" points="543.106,-495.888 542.296,-485.324 536.341,-494.087 543.106,-495.888"/>
</g>
<!-- Node17 -->
<g id="node37" class="node"><title>Node17</title>
<a xlink:href="_fill_box_8h.html" target="_top" xlink:title="FillBox.h">
<polygon fill="none" stroke="black" points="628.5,-407 628.5,-427 681.5,-427 681.5,-407 628.5,-407"/>
<text text-anchor="middle" x="655" y="-414" font-family="FreeSans" font-size="10.00">FillBox.h</text>
</a>
</g>
<!-- Node1&#45;&gt;Node17 -->
<g id="edge40" class="edge"><title>Node1&#45;&gt;Node17</title>
<path fill="none" stroke="midnightblue" d="M519.364,-580.893C542.926,-552.422 610.083,-471.275 640.14,-434.955"/>
<polygon fill="midnightblue" stroke="midnightblue" points="642.933,-437.07 646.612,-427.135 637.54,-432.607 642.933,-437.07"/>
</g>
<!-- Node29 -->
<g id="node70" class="node"><title>Node29</title>
<a xlink:href="_label_8h.html" target="_top" xlink:title="Label.h">
<polygon fill="none" stroke="black" points="719,-407 719,-427 767,-427 767,-407 719,-407"/>
<text text-anchor="middle" x="743" y="-414" font-family="FreeSans" font-size="10.00">Label.h</text>
</a>
</g>
<!-- Node1&#45;&gt;Node29 -->
<g id="edge82" class="edge"><title>Node1&#45;&gt;Node29</title>
<path fill="none" stroke="midnightblue" d="M524.476,-580.893C563.078,-551.942 674.306,-468.521 721.46,-433.155"/>
<polygon fill="midnightblue" stroke="midnightblue" points="723.587,-435.935 729.487,-427.135 719.387,-430.335 723.587,-435.935"/>
</g>
<!-- Node30 -->
<g id="node75" class="node"><title>Node30</title>
<a xlink:href="_chronometer_8h.html" target="_top" xlink:title="Chronometer.h">
<polygon fill="none" stroke="black" points="437,-523 437,-543 517,-543 517,-523 437,-523"/>
<text text-anchor="middle" x="477" y="-530" font-family="FreeSans" font-size="10.00">Chronometer.h</text>
</a>
</g>
<!-- Node1&#45;&gt;Node30 -->
<g id="edge90" class="edge"><title>Node1&#45;&gt;Node30</title>
<path fill="none" stroke="midnightblue" d="M505.078,-580.897C500.454,-573.01 493.895,-561.821 488.279,-552.24"/>
<polygon fill="midnightblue" stroke="midnightblue" points="491.16,-550.235 483.083,-543.378 485.121,-553.775 491.16,-550.235"/>
</g>
<!-- Node4 -->
<g id="node7" class="node"><title>Node4</title>
<a xlink:href="_duration_8h.html" target="_top" xlink:title="Duration.h">
<polygon fill="none" stroke="black" points="168,-465 168,-485 228,-485 228,-465 168,-465"/>
<text text-anchor="middle" x="198" y="-472" font-family="FreeSans" font-size="10.00">Duration.h</text>
</a>
</g>
<!-- Node3&#45;&gt;Node4 -->
<g id="edge6" class="edge"><title>Node3&#45;&gt;Node4</title>
<path fill="none" stroke="midnightblue" d="M349.95,-522.897C318.877,-513.103 271.645,-498.214 238.097,-487.639"/>
<polygon fill="midnightblue" stroke="midnightblue" points="238.748,-484.175 228.159,-484.506 236.644,-490.851 238.748,-484.175"/>
</g>
<!-- Node9 -->
<g id="node17" class="node"><title>Node9</title>
<a xlink:href="_o_s_8h.html" target="_top" xlink:title="OS.h">
<polygon fill="none" stroke="black" points="366,-407 366,-427 404,-427 404,-407 366,-407"/>
<text text-anchor="middle" x="385" y="-414" font-family="FreeSans" font-size="10.00">OS.h</text>
</a>
</g>
<!-- Node3&#45;&gt;Node9 -->
<g id="edge30" class="edge"><title>Node3&#45;&gt;Node9</title>
<path fill="none" stroke="midnightblue" d="M382.266,-522.706C382.761,-503.568 383.831,-462.198 384.476,-437.265"/>
<polygon fill="midnightblue" stroke="midnightblue" points="387.979,-437.193 384.739,-427.106 380.981,-437.012 387.979,-437.193"/>
</g>
<!-- Node5 -->
<g id="node9" class="node"><title>Node5</title>
<polygon fill="none" stroke="#bfbfbf" points="0,-407 0,-427 50,-427 50,-407 0,-407"/>
<text text-anchor="middle" x="25" y="-414" font-family="FreeSans" font-size="10.00">iomanip</text>
</g>
<!-- Node4&#45;&gt;Node5 -->
<g id="edge8" class="edge"><title>Node4&#45;&gt;Node5</title>
<path fill="none" stroke="midnightblue" d="M167.866,-464.897C137.729,-454.793 91.4231,-439.269 59.7523,-428.651"/>
<polygon fill="midnightblue" stroke="midnightblue" points="60.6168,-425.249 50.0228,-425.389 58.3916,-431.886 60.6168,-425.249"/>
</g>
<!-- Node6 -->
<g id="node11" class="node"><title>Node6</title>
<polygon fill="none" stroke="#bfbfbf" points="68,-407 68,-427 170,-427 170,-407 68,-407"/>
<text text-anchor="middle" x="119" y="-414" font-family="FreeSans" font-size="10.00">boost/operators.hpp</text>
</g>
<!-- Node4&#45;&gt;Node6 -->
<g id="edge10" class="edge"><title>Node4&#45;&gt;Node6</title>
<path fill="none" stroke="midnightblue" d="M184.239,-464.897C172.305,-456.135 154.818,-443.297 140.952,-433.116"/>
<polygon fill="midnightblue" stroke="midnightblue" points="143,-430.278 132.868,-427.182 138.858,-435.921 143,-430.278"/>
</g>
<!-- Node7 -->
<g id="node13" class="node"><title>Node7</title>
<a xlink:href="_m_r___types_8h.html" target="_top" xlink:title="MR_Types.h">
<polygon fill="none" stroke="black" points="396.5,-59 396.5,-79 467.5,-79 467.5,-59 396.5,-59"/>
<text text-anchor="middle" x="432" y="-66" font-family="FreeSans" font-size="10.00">MR_Types.h</text>
</a>
</g>
<!-- Node4&#45;&gt;Node7 -->
<g id="edge12" class="edge"><title>Node4&#45;&gt;Node7</title>
<path fill="none" stroke="midnightblue" d="M198,-464.759C198,-444.541 198,-398.069 198,-359 198,-359 198,-359 198,-185 198,-145.783 220.139,-137.403 253,-116 293.359,-89.7136 347.83,-78.0963 386.047,-72.9819"/>
<polygon fill="midnightblue" stroke="midnightblue" points="386.875,-76.4063 396.37,-71.7051 386.015,-69.4592 386.875,-76.4063"/>
</g>
<!-- Node4&#45;&gt;Node9 -->
<g id="edge16" class="edge"><title>Node4&#45;&gt;Node9</title>
<path fill="none" stroke="midnightblue" d="M228.045,-465.681C263.377,-454.723 321.597,-436.665 356.325,-425.894"/>
<polygon fill="midnightblue" stroke="midnightblue" points="357.363,-429.236 365.877,-422.931 355.289,-422.551 357.363,-429.236"/>
</g>
<!-- Node8 -->
<g id="node15" class="node"><title>Node8</title>
<polygon fill="none" stroke="#bfbfbf" points="403,-1 403,-21 461,-21 461,-1 403,-1"/>
<text text-anchor="middle" x="432" y="-8" font-family="FreeSans" font-size="10.00">inttypes.h</text>
</g>
<!-- Node7&#45;&gt;Node8 -->
<g id="edge14" class="edge"><title>Node7&#45;&gt;Node8</title>
<path fill="none" stroke="midnightblue" d="M432,-58.8972C432,-51.339 432,-40.7476 432,-31.4458"/>
<polygon fill="midnightblue" stroke="midnightblue" points="435.5,-31.3776 432,-21.3776 428.5,-31.3776 435.5,-31.3776"/>
</g>
<!-- Node9&#45;&gt;Node7 -->
<g id="edge28" class="edge"><title>Node9&#45;&gt;Node7</title>
<path fill="none" stroke="midnightblue" d="M365.658,-415.474C337.266,-412.182 284.491,-401.893 255,-370 233.405,-346.646 236,-332.808 236,-301 236,-301 236,-301 236,-185 236,-115.62 328.078,-86.8522 386.012,-75.6184"/>
<polygon fill="midnightblue" stroke="midnightblue" points="386.845,-79.0242 396.051,-73.7796 385.584,-72.1387 386.845,-79.0242"/>
</g>
<!-- Node10 -->
<g id="node19" class="node"><title>Node10</title>
<polygon fill="none" stroke="#bfbfbf" points="264,-349 264,-369 306,-369 306,-349 264,-349"/>
<text text-anchor="middle" x="285" y="-356" font-family="FreeSans" font-size="10.00">locale</text>
</g>
<!-- Node9&#45;&gt;Node10 -->
<g id="edge18" class="edge"><title>Node9&#45;&gt;Node10</title>
<path fill="none" stroke="midnightblue" d="M367.581,-406.897C352.047,-397.887 329.08,-384.567 311.308,-374.259"/>
<polygon fill="midnightblue" stroke="midnightblue" points="312.961,-371.171 302.555,-369.182 309.449,-377.227 312.961,-371.171"/>
</g>
<!-- Node11 -->
<g id="node21" class="node"><title>Node11</title>
<polygon fill="none" stroke="#bfbfbf" points="324,-349 324,-369 354,-369 354,-349 324,-349"/>
<text text-anchor="middle" x="339" y="-356" font-family="FreeSans" font-size="10.00">set</text>
</g>
<!-- Node9&#45;&gt;Node11 -->
<g id="edge20" class="edge"><title>Node9&#45;&gt;Node11</title>
<path fill="none" stroke="midnightblue" d="M376.987,-406.897C370.537,-398.764 361.301,-387.118 353.551,-377.347"/>
<polygon fill="midnightblue" stroke="midnightblue" points="356.187,-375.038 347.231,-369.378 350.702,-379.387 356.187,-375.038"/>
</g>
<!-- Node12 -->
<g id="node23" class="node"><title>Node12</title>
<polygon fill="none" stroke="#bfbfbf" points="555.5,-349 555.5,-369 596.5,-369 596.5,-349 555.5,-349"/>
<text text-anchor="middle" x="576" y="-356" font-family="FreeSans" font-size="10.00">string</text>
</g>
<!-- Node9&#45;&gt;Node12 -->
<g id="edge22" class="edge"><title>Node9&#45;&gt;Node12</title>
<path fill="none" stroke="midnightblue" d="M404.249,-409.397C407.486,-408.205 410.824,-407.029 414,-406 469.296,-388.077 486.963,-388.756 545.701,-370.211"/>
<polygon fill="midnightblue" stroke="midnightblue" points="547.044,-373.456 555.493,-367.063 544.902,-366.791 547.044,-373.456"/>
</g>
<!-- Node13 -->
<g id="node25" class="node"><title>Node13</title>
<polygon fill="none" stroke="#bfbfbf" points="372,-349 372,-369 416,-369 416,-349 372,-349"/>
<text text-anchor="middle" x="394" y="-356" font-family="FreeSans" font-size="10.00">vector</text>
</g>
<!-- Node9&#45;&gt;Node13 -->
<g id="edge24" class="edge"><title>Node9&#45;&gt;Node13</title>
<path fill="none" stroke="midnightblue" d="M386.568,-406.897C387.74,-399.339 389.384,-388.748 390.827,-379.446"/>
<polygon fill="midnightblue" stroke="midnightblue" points="394.315,-379.796 392.39,-369.378 387.398,-378.723 394.315,-379.796"/>
</g>
<!-- Node14 -->
<g id="node27" class="node"><title>Node14</title>
<polygon fill="none" stroke="#bfbfbf" points="433.5,-349 433.5,-369 538.5,-369 538.5,-349 433.5,-349"/>
<text text-anchor="middle" x="486" y="-356" font-family="FreeSans" font-size="10.00">boost/filesystem.hpp</text>
</g>
<!-- Node9&#45;&gt;Node14 -->
<g id="edge26" class="edge"><title>Node9&#45;&gt;Node14</title>
<path fill="none" stroke="midnightblue" d="M402.593,-406.897C418.283,-397.887 441.479,-384.567 459.429,-374.259"/>
<polygon fill="midnightblue" stroke="midnightblue" points="461.341,-377.197 468.27,-369.182 457.855,-371.126 461.341,-377.197"/>
</g>
<!-- Node15&#45;&gt;Node9 -->
<g id="edge38" class="edge"><title>Node15&#45;&gt;Node9</title>
<path fill="none" stroke="midnightblue" d="M516.581,-464.971C490.01,-455.554 449.249,-441.007 414,-428 413.798,-427.925 413.595,-427.851 413.392,-427.775"/>
<polygon fill="midnightblue" stroke="midnightblue" points="414.605,-424.492 404.013,-424.268 412.153,-431.049 414.605,-424.492"/>
</g>
<!-- Node15&#45;&gt;Node12 -->
<g id="edge34" class="edge"><title>Node15&#45;&gt;Node12</title>
<path fill="none" stroke="midnightblue" d="M552.051,-464.701C557.947,-455.514 566.013,-441.47 570,-428 574.74,-411.988 576.103,-393.043 576.358,-379.059"/>
<polygon fill="midnightblue" stroke="midnightblue" points="579.858,-379.062 576.368,-369.058 572.858,-379.055 579.858,-379.062"/>
</g>
<!-- Node16 -->
<g id="node34" class="node"><title>Node16</title>
<polygon fill="none" stroke="#bfbfbf" points="505,-407 505,-427 561,-427 561,-407 505,-407"/>
<text text-anchor="middle" x="533" y="-414" font-family="FreeSans" font-size="10.00">basedir.h</text>
</g>
<!-- Node15&#45;&gt;Node16 -->
<g id="edge36" class="edge"><title>Node15&#45;&gt;Node16</title>
<path fill="none" stroke="midnightblue" d="M542.91,-464.897C541.346,-457.339 539.155,-446.748 537.23,-437.446"/>
<polygon fill="midnightblue" stroke="midnightblue" points="540.601,-436.461 535.147,-427.378 533.746,-437.879 540.601,-436.461"/>
</g>
<!-- Node18 -->
<g id="node39" class="node"><title>Node18</title>
<a xlink:href="_color_8h.html" target="_top" xlink:title="Color.h">
<polygon fill="none" stroke="black" points="772.5,-175 772.5,-195 819.5,-195 819.5,-175 772.5,-175"/>
<text text-anchor="middle" x="796" y="-182" font-family="FreeSans" font-size="10.00">Color.h</text>
</a>
</g>
<!-- Node17&#45;&gt;Node18 -->
<g id="edge42" class="edge"><title>Node17&#45;&gt;Node18</title>
<path fill="none" stroke="midnightblue" d="M668.153,-406.889C679.035,-398.035 694.375,-384.369 705,-370 745.309,-315.49 775.785,-240.37 788.913,-204.977"/>
<polygon fill="midnightblue" stroke="midnightblue" points="792.291,-205.929 792.422,-195.335 785.713,-203.535 792.291,-205.929"/>
</g>
<!-- Node21 -->
<g id="node47" class="node"><title>Node21</title>
<a xlink:href="_ui_view_model_8h.html" target="_top" xlink:title="UiViewModel.h">
<polygon fill="none" stroke="black" points="614,-349 614,-369 696,-369 696,-349 614,-349"/>
<text text-anchor="middle" x="655" y="-356" font-family="FreeSans" font-size="10.00">UiViewModel.h</text>
</a>
</g>
<!-- Node17&#45;&gt;Node21 -->
<g id="edge52" class="edge"><title>Node17&#45;&gt;Node21</title>
<path fill="none" stroke="midnightblue" d="M655,-406.897C655,-399.339 655,-388.748 655,-379.446"/>
<polygon fill="midnightblue" stroke="midnightblue" points="658.5,-379.378 655,-369.378 651.5,-379.378 658.5,-379.378"/>
</g>
<!-- Node18&#45;&gt;Node7 -->
<g id="edge46" class="edge"><title>Node18&#45;&gt;Node7</title>
<path fill="none" stroke="midnightblue" d="M791.054,-174.792C782.945,-159.264 765.267,-130.036 741,-116 697.092,-90.6034 552.515,-77.2342 477.724,-71.8702"/>
<polygon fill="midnightblue" stroke="midnightblue" points="477.871,-68.372 467.651,-71.166 477.383,-75.355 477.871,-68.372"/>
</g>
<!-- Node19 -->
<g id="node41" class="node"><title>Node19</title>
<polygon fill="none" stroke="#bfbfbf" points="787.5,-117 787.5,-137 876.5,-137 876.5,-117 787.5,-117"/>
<text text-anchor="middle" x="832" y="-124" font-family="FreeSans" font-size="10.00">boost/format.hpp</text>
</g>
<!-- Node18&#45;&gt;Node19 -->
<g id="edge44" class="edge"><title>Node18&#45;&gt;Node19</title>
<path fill="none" stroke="midnightblue" d="M802.271,-174.897C807.217,-166.928 814.256,-155.587 820.243,-145.941"/>
<polygon fill="midnightblue" stroke="midnightblue" points="823.259,-147.72 825.559,-137.378 817.311,-144.028 823.259,-147.72"/>
</g>
<!-- Node20 -->
<g id="node44" class="node"><title>Node20</title>
<a xlink:href="_sel_fmt_8h.html" target="_top" xlink:title="../Util/SelFmt.h">
<polygon fill="none" stroke="black" points="651.5,-117 651.5,-137 732.5,-137 732.5,-117 651.5,-117"/>
<text text-anchor="middle" x="692" y="-124" font-family="FreeSans" font-size="10.00">../Util/SelFmt.h</text>
</a>
</g>
<!-- Node18&#45;&gt;Node20 -->
<g id="edge48" class="edge"><title>Node18&#45;&gt;Node20</title>
<path fill="none" stroke="midnightblue" d="M777.885,-174.897C761.655,-165.846 737.624,-152.444 719.106,-142.117"/>
<polygon fill="midnightblue" stroke="midnightblue" points="720.695,-138.996 710.257,-137.182 717.286,-145.109 720.695,-138.996"/>
</g>
<!-- Node20&#45;&gt;Node7 -->
<g id="edge50" class="edge"><title>Node20&#45;&gt;Node7</title>
<path fill="none" stroke="midnightblue" d="M651.375,-117.938C604.307,-107.438 526.942,-90.1794 477.783,-79.2132"/>
<polygon fill="midnightblue" stroke="midnightblue" points="478.265,-75.7347 467.743,-76.9734 476.741,-82.5667 478.265,-75.7347"/>
</g>
<!-- Node21&#45;&gt;Node7 -->
<g id="edge54" class="edge"><title>Node21&#45;&gt;Node7</title>
<path fill="none" stroke="midnightblue" d="M613.998,-348.982C543.073,-330.446 405,-288.515 405,-243 405,-243 405,-243 405,-185 405,-150.37 416.556,-111.404 424.547,-88.5966"/>
<polygon fill="midnightblue" stroke="midnightblue" points="427.888,-89.6517 428.016,-79.0576 421.309,-87.2594 427.888,-89.6517"/>
</g>
<!-- Node22 -->
<g id="node50" class="node"><title>Node22</title>
<a xlink:href="_vec_8h.html" target="_top" xlink:title="../Vec.h">
<polygon fill="none" stroke="black" points="536.5,-175 536.5,-195 585.5,-195 585.5,-175 536.5,-175"/>
<text text-anchor="middle" x="561" y="-182" font-family="FreeSans" font-size="10.00">../Vec.h</text>
</a>
</g>
<!-- Node21&#45;&gt;Node22 -->
<g id="edge56" class="edge"><title>Node21&#45;&gt;Node22</title>
<path fill="none" stroke="midnightblue" d="M638.508,-348.928C613.571,-332.607 567.244,-297.751 549,-254 542.372,-238.106 546.751,-218.68 551.986,-204.495"/>
<polygon fill="midnightblue" stroke="midnightblue" points="555.235,-205.796 555.804,-195.217 548.761,-203.132 555.235,-205.796"/>
</g>
<!-- Node23 -->
<g id="node52" class="node"><title>Node23</title>
<a xlink:href="_ui_layout_flags_8h.html" target="_top" xlink:title="UiLayoutFlags.h">
<polygon fill="none" stroke="black" points="432.5,-175 432.5,-195 519.5,-195 519.5,-175 432.5,-175"/>
<text text-anchor="middle" x="476" y="-182" font-family="FreeSans" font-size="10.00">UiLayoutFlags.h</text>
</a>
</g>
<!-- Node21&#45;&gt;Node23 -->
<g id="edge58" class="edge"><title>Node21&#45;&gt;Node23</title>
<path fill="none" stroke="midnightblue" d="M629.192,-348.986C610.547,-340.901 585.494,-328.214 567,-312 530.648,-280.13 500.805,-231.078 486.027,-204.217"/>
<polygon fill="midnightblue" stroke="midnightblue" points="488.938,-202.24 481.119,-195.09 482.773,-205.555 488.938,-202.24"/>
</g>
<!-- Node24 -->
<g id="node55" class="node"><title>Node24</title>
<a xlink:href="_view_model_8h.html" target="_top" xlink:title="ViewModel.h">
<polygon fill="none" stroke="black" points="619,-291 619,-311 691,-311 691,-291 619,-291"/>
<text text-anchor="middle" x="655" y="-298" font-family="FreeSans" font-size="10.00">ViewModel.h</text>
</a>
</g>
<!-- Node21&#45;&gt;Node24 -->
<g id="edge62" class="edge"><title>Node21&#45;&gt;Node24</title>
<path fill="none" stroke="midnightblue" d="M655,-348.897C655,-341.339 655,-330.748 655,-321.446"/>
<polygon fill="midnightblue" stroke="midnightblue" points="658.5,-321.378 655,-311.378 651.5,-321.378 658.5,-321.378"/>
</g>
<!-- Node23&#45;&gt;Node7 -->
<g id="edge60" class="edge"><title>Node23&#45;&gt;Node7</title>
<path fill="none" stroke="midnightblue" d="M472.095,-174.706C464.771,-155.396 448.861,-113.451 439.433,-88.5955"/>
<polygon fill="midnightblue" stroke="midnightblue" points="442.652,-87.2142 435.833,-79.1055 436.107,-89.6968 442.652,-87.2142"/>
</g>
<!-- Node25 -->
<g id="node57" class="node"><title>Node25</title>
<a xlink:href="_display_8h.html" target="_top" xlink:title="Display.h">
<polygon fill="none" stroke="black" points="558,-233 558,-253 614,-253 614,-233 558,-233"/>
<text text-anchor="middle" x="586" y="-240" font-family="FreeSans" font-size="10.00">Display.h</text>
</a>
</g>
<!-- Node24&#45;&gt;Node25 -->
<g id="edge64" class="edge"><title>Node24&#45;&gt;Node25</title>
<path fill="none" stroke="midnightblue" d="M642.981,-290.897C632.817,-282.353 618.041,-269.933 606.083,-259.881"/>
<polygon fill="midnightblue" stroke="midnightblue" points="608.253,-257.133 598.346,-253.378 603.749,-262.491 608.253,-257.133"/>
</g>
<!-- Node27 -->
<g id="node65" class="node"><title>Node27</title>
<a xlink:href="_view_attacher_8h.html" target="_top" xlink:title="ViewAttacher.h">
<polygon fill="none" stroke="black" points="602.5,-175 602.5,-195 685.5,-195 685.5,-175 602.5,-175"/>
<text text-anchor="middle" x="644" y="-182" font-family="FreeSans" font-size="10.00">ViewAttacher.h</text>
</a>
</g>
<!-- Node24&#45;&gt;Node27 -->
<g id="edge80" class="edge"><title>Node24&#45;&gt;Node27</title>
<path fill="none" stroke="midnightblue" d="M665.307,-290.889C677.546,-277.597 695.319,-253.417 687,-232 682.524,-220.476 673.758,-210.055 665.303,-201.971"/>
<polygon fill="midnightblue" stroke="midnightblue" points="667.549,-199.284 657.756,-195.239 662.889,-204.508 667.549,-199.284"/>
</g>
<!-- Node28 -->
<g id="node67" class="node"><title>Node28</title>
<a xlink:href="_view_8h.html" target="_top" xlink:title="View.h">
<polygon fill="none" stroke="black" points="632,-233 632,-253 678,-253 678,-233 632,-233"/>
<text text-anchor="middle" x="655" y="-240" font-family="FreeSans" font-size="10.00">View.h</text>
</a>
</g>
<!-- Node24&#45;&gt;Node28 -->
<g id="edge78" class="edge"><title>Node24&#45;&gt;Node28</title>
<path fill="none" stroke="midnightblue" d="M655,-290.897C655,-283.339 655,-272.748 655,-263.446"/>
<polygon fill="midnightblue" stroke="midnightblue" points="658.5,-263.378 655,-253.378 651.5,-263.378 658.5,-263.378"/>
</g>
<!-- Node25&#45;&gt;Node18 -->
<g id="edge72" class="edge"><title>Node25&#45;&gt;Node18</title>
<path fill="none" stroke="midnightblue" d="M614.249,-234.478C617.2,-233.625 620.158,-232.785 623,-232 682.299,-215.622 700.295,-214.593 762.382,-196.337"/>
<polygon fill="midnightblue" stroke="midnightblue" points="763.717,-199.592 772.304,-193.385 761.721,-192.882 763.717,-199.592"/>
</g>
<!-- Node25&#45;&gt;Node22 -->
<g id="edge66" class="edge"><title>Node25&#45;&gt;Node22</title>
<path fill="none" stroke="midnightblue" d="M581.645,-232.897C578.317,-225.175 573.623,-214.286 569.552,-204.841"/>
<polygon fill="midnightblue" stroke="midnightblue" points="572.646,-203.175 565.473,-195.378 566.217,-205.946 572.646,-203.175"/>
</g>
<!-- Node25&#45;&gt;Node23 -->
<g id="edge74" class="edge"><title>Node25&#45;&gt;Node23</title>
<path fill="none" stroke="midnightblue" d="M566.839,-232.897C549.595,-223.804 524.024,-210.322 504.402,-199.976"/>
<polygon fill="midnightblue" stroke="midnightblue" points="505.788,-196.75 495.31,-195.182 502.523,-202.942 505.788,-196.75"/>
</g>
<!-- Node26 -->
<g id="node60" class="node"><title>Node26</title>
<a xlink:href="_ui_font_8h.html" target="_top" xlink:title="UiFont.h">
<polygon fill="none" stroke="black" points="702.5,-175 702.5,-195 755.5,-195 755.5,-175 702.5,-175"/>
<text text-anchor="middle" x="729" y="-182" font-family="FreeSans" font-size="10.00">UiFont.h</text>
</a>
</g>
<!-- Node25&#45;&gt;Node26 -->
<g id="edge68" class="edge"><title>Node25&#45;&gt;Node26</title>
<path fill="none" stroke="midnightblue" d="M610.909,-232.897C634.04,-223.515 668.695,-209.459 694.488,-198.998"/>
<polygon fill="midnightblue" stroke="midnightblue" points="695.946,-202.184 703.897,-195.182 693.315,-195.697 695.946,-202.184"/>
</g>
<!-- Node25&#45;&gt;Node27 -->
<g id="edge76" class="edge"><title>Node25&#45;&gt;Node27</title>
<path fill="none" stroke="midnightblue" d="M596.103,-232.897C604.483,-224.517 616.591,-212.409 626.536,-202.464"/>
<polygon fill="midnightblue" stroke="midnightblue" points="629.026,-204.924 633.622,-195.378 624.076,-199.974 629.026,-204.924"/>
</g>
<!-- Node26&#45;&gt;Node20 -->
<g id="edge70" class="edge"><title>Node26&#45;&gt;Node20</title>
<path fill="none" stroke="midnightblue" d="M722.555,-174.897C717.471,-166.928 710.237,-155.587 704.083,-145.941"/>
<polygon fill="midnightblue" stroke="midnightblue" points="706.949,-143.926 698.62,-137.378 701.048,-147.691 706.949,-143.926"/>
</g>
<!-- Node29&#45;&gt;Node18 -->
<g id="edge84" class="edge"><title>Node29&#45;&gt;Node18</title>
<path fill="none" stroke="midnightblue" d="M747.496,-406.977C758.484,-381.864 786.497,-313.956 796,-254 798.549,-237.917 798.391,-219.458 797.682,-205.682"/>
<polygon fill="midnightblue" stroke="midnightblue" points="801.152,-205.115 797.004,-195.366 794.168,-205.574 801.152,-205.115"/>
</g>
<!-- Node29&#45;&gt;Node21 -->
<g id="edge88" class="edge"><title>Node29&#45;&gt;Node21</title>
<path fill="none" stroke="midnightblue" d="M727.672,-406.897C714.252,-398.052 694.53,-385.054 679.016,-374.829"/>
<polygon fill="midnightblue" stroke="midnightblue" points="680.724,-371.762 670.448,-369.182 676.872,-377.607 680.724,-371.762"/>
</g>
<!-- Node29&#45;&gt;Node26 -->
<g id="edge86" class="edge"><title>Node29&#45;&gt;Node26</title>
<path fill="none" stroke="midnightblue" d="M742.38,-406.732C740.235,-371.173 733.095,-252.861 730.218,-205.177"/>
<polygon fill="midnightblue" stroke="midnightblue" points="733.709,-204.921 729.612,-195.15 726.721,-205.342 733.709,-204.921"/>
</g>
<!-- Node31 -->
<g id="node77" class="node"><title>Node31</title>
<a xlink:href="_hud_decor_8h.html" target="_top" xlink:title="HudDecor.h">
<polygon fill="none" stroke="black" points="421,-465 421,-485 489,-485 489,-465 421,-465"/>
<text text-anchor="middle" x="455" y="-472" font-family="FreeSans" font-size="10.00">HudDecor.h</text>
</a>
</g>
<!-- Node30&#45;&gt;Node31 -->
<g id="edge92" class="edge"><title>Node30&#45;&gt;Node31</title>
<path fill="none" stroke="midnightblue" d="M473.168,-522.897C470.239,-515.175 466.108,-504.286 462.526,-494.841"/>
<polygon fill="midnightblue" stroke="midnightblue" points="465.755,-493.486 458.936,-485.378 459.21,-495.969 465.755,-493.486"/>
</g>
<!-- Node31&#45;&gt;Node9 -->
<g id="edge94" class="edge"><title>Node31&#45;&gt;Node9</title>
<path fill="none" stroke="midnightblue" d="M442.807,-464.897C432.495,-456.353 417.505,-443.933 405.374,-433.881"/>
<polygon fill="midnightblue" stroke="midnightblue" points="407.458,-431.063 397.525,-427.378 402.992,-436.453 407.458,-431.063"/>
</g>
<!-- Node32 -->
<g id="node80" class="node"><title>Node32</title>
<a xlink:href="_container_8h.html" target="_top" xlink:title="Container.h">
<polygon fill="none" stroke="black" points="422.5,-407 422.5,-427 487.5,-427 487.5,-407 422.5,-407"/>
<text text-anchor="middle" x="455" y="-414" font-family="FreeSans" font-size="10.00">Container.h</text>
</a>
</g>
<!-- Node31&#45;&gt;Node32 -->
<g id="edge96" class="edge"><title>Node31&#45;&gt;Node32</title>
<path fill="none" stroke="midnightblue" d="M455,-464.897C455,-457.339 455,-446.748 455,-437.446"/>
<polygon fill="midnightblue" stroke="midnightblue" points="458.5,-437.378 455,-427.378 451.5,-437.378 458.5,-437.378"/>
</g>
<!-- Node32&#45;&gt;Node21 -->
<g id="edge98" class="edge"><title>Node32&#45;&gt;Node21</title>
<path fill="none" stroke="midnightblue" d="M487.579,-407.552C520.967,-397.87 573.124,-382.744 610.347,-371.949"/>
<polygon fill="midnightblue" stroke="midnightblue" points="611.792,-375.175 620.421,-369.028 609.842,-368.452 611.792,-375.175"/>
</g>
</g>
</svg>
        <g id="navigator" transform="translate(0 0)" fill="#404254">
                <rect fill="#f2f5e9" fill-opacity="0.5" stroke="#606060" stroke-width=".5" x="0" y="0" width="60" height="60"/>
                <use id="zoomplus" xlink:href="#zoomPlus" x="17" y="9" onmousedown="handleZoom(evt,'in')"/>
                <use id="zoomminus" xlink:href="#zoomMin" x="42" y="9" onmousedown="handleZoom(evt,'out')"/>
                <use id="reset" xlink:href="#resetDef" x="30" y="36" onmousedown="handleReset()"/>
                <g id="arrowUp" xlink:href="#dirArrow" transform="translate(30 24)" onmousedown="handlePan(0,-1)">
                  <use xlink:href="#rim" fill="#404040">
                        <set attributeName="fill" to="#808080" begin="arrowUp.mouseover" end="arrowUp.mouseout"/>
                  </use>
                  <path fill="none" stroke="white" stroke-width="1.5" d="M0,-3.0v7 M-2.5,-0.5L0,-3.0L2.5,-0.5"/>
                </g>
                <g id="arrowRight" xlink:href="#dirArrow" transform="rotate(90) translate(36 -43)" onmousedown="handlePan(1,0)">
                  <use xlink:href="#rim" fill="#404040">
                        <set attributeName="fill" to="#808080" begin="arrowRight.mouseover" end="arrowRight.mouseout"/>
                  </use>
                  <path fill="none" stroke="white" stroke-width="1.5" d="M0,-3.0v7 M-2.5,-0.5L0,-3.0L2.5,-0.5"/>
                </g>
                <g id="arrowDown" xlink:href="#dirArrow" transform="rotate(180) translate(-30 -48)" onmousedown="handlePan(0,1)">
                  <use xlink:href="#rim" fill="#404040">
                        <set attributeName="fill" to="#808080" begin="arrowDown.mouseover" end="arrowDown.mouseout"/>
                  </use>
                  <path fill="none" stroke="white" stroke-width="1.5" d="M0,-3.0v7 M-2.5,-0.5L0,-3.0L2.5,-0.5"/>
                </g>
                <g id="arrowLeft" xlink:href="#dirArrow" transform="rotate(270) translate(-36 17)" onmousedown="handlePan(-1,0)">
                  <use xlink:href="#rim" fill="#404040">
                        <set attributeName="fill" to="#808080" begin="arrowLeft.mouseover" end="arrowLeft.mouseout"/>
                  </use>
                  <path fill="none" stroke="white" stroke-width="1.5" d="M0,-3.0v7 M-2.5,-0.5L0,-3.0L2.5,-0.5"/>
                </g>
        </g>
        <svg viewBox="0 0 15 15" width="100%" height="30px" preserveAspectRatio="xMaxYMin meet">
         <g id="arrow_out" transform="scale(0.3 0.3)">
          <a xlink:href="_chronometer_8cpp__incl_org.svg" target="_base">
           <rect id="button" ry="5" rx="5" y="6" x="6" height="38" width="38"
                fill="#f2f5e9" fill-opacity="0.5" stroke="#606060" stroke-width="1.0"/>
           <path id="arrow"
             d="M 11.500037,31.436501 C 11.940474,20.09759 22.043105,11.32322 32.158766,21.979434 L 37.068811,17.246167 C 37.068811,17.246167 37.088388,32 37.088388,32 L 22.160133,31.978069 C 22.160133,31.978069 26.997745,27.140456 26.997745,27.140456 C 18.528582,18.264221 13.291696,25.230495 11.500037,31.436501 z"
             style="fill:#404040;"/>
          </a>
         </g>
        </svg>
</svg>
