<?xml version="1.0" encoding="UTF-8" standalone="no"?>
<!DOCTYPE svg PUBLIC "-//W3C//DTD SVG 1.1//EN"
 "http://www.w3.org/Graphics/SVG/1.1/DTD/svg11.dtd">
<!-- Generated by graphviz version 2.26.3 (20100126.1600)
 -->
<!-- Title: Chronometer.h Pages: 1 -->
<svg width="188pt" height="88pt"
 viewBox="0.00 0.00 188.00 88.00" xmlns="http://www.w3.org/2000/svg" xmlns:xlink="http://www.w3.org/1999/xlink">
<g id="graph1" class="graph" transform="scale(1 1) rotate(0) translate(4 84)">
<title>Chronometer.h</title>
<!-- Node1 -->
<g id="node1" class="node"><title>Node1</title>
<polygon fill="#bfbfbf" stroke="black" points="45,-59 45,-79 125,-79 125,-59 45,-59"/>
<text text-anchor="middle" x="85" y="-66" font-family="FreeSans" font-size="10.00">Chronometer.h</text>
</g>
<!-- Node2 -->
<g id="node3" class="node"><title>Node2</title>
<a xlink:href="_hud_peer_8cpp.html" target="_top" xlink:title="HudPeer.cpp">
<polygon fill="none" stroke="black" points="-0.5,-1 -0.5,-21 72.5,-21 72.5,-1 -0.5,-1"/>
<text text-anchor="middle" x="36" y="-8" font-family="FreeSans" font-size="10.00">HudPeer.cpp</text>
</a>
</g>
<!-- Node1&#45;&gt;Node2 -->
<g id="edge2" class="edge"><title>Node1&#45;&gt;Node2</title>
<path fill="none" stroke="midnightblue" d="M69.7771,-50.981C61.5579,-41.2522 51.7044,-29.5889 44.7673,-21.3776"/>
<polygon fill="midnightblue" stroke="midnightblue" points="67.3377,-53.517 76.4649,-58.8972 72.6849,-48.9995 67.3377,-53.517"/>
</g>
<!-- Node3 -->
<g id="node5" class="node"><title>Node3</title>
<a xlink:href="_chronometer_8cpp.html" target="_top" xlink:title="Chronometer.cpp">
<polygon fill="none" stroke="black" points="90,-1 90,-21 180,-21 180,-1 90,-1"/>
<text text-anchor="middle" x="135" y="-8" font-family="FreeSans" font-size="10.00">Chronometer.cpp</text>
</a>
</g>
<!-- Node1&#45;&gt;Node3 -->
<g id="edge4" class="edge"><title>Node1&#45;&gt;Node3</title>
<path fill="none" stroke="midnightblue" d="M100.28,-51.2752C108.717,-41.4882 118.904,-29.6718 126.054,-21.3776"/>
<polygon fill="midnightblue" stroke="midnightblue" points="97.5878,-49.0377 93.7093,-58.8972 102.89,-53.6083 97.5878,-49.0377"/>
</g>
</g>
</svg>
