<?xml version="1.0" encoding="UTF-8" standalone="no"?>
<!DOCTYPE svg PUBLIC "-//W3C//DTD SVG 1.1//EN"
 "http://www.w3.org/Graphics/SVG/1.1/DTD/svg11.dtd">
<!-- Generated by graphviz version 2.26.3 (20100126.1600)
 -->
<!-- Title: Class.cpp Pages: 1 -->
<svg width="631pt" height="262pt"
 viewBox="0.00 0.00 631.00 262.00" xmlns="http://www.w3.org/2000/svg" xmlns:xlink="http://www.w3.org/1999/xlink">
<g id="graph1" class="graph" transform="scale(1 1) rotate(0) translate(4 258)">
<title>Class.cpp</title>
<!-- Node1 -->
<g id="node1" class="node"><title>Node1</title>
<polygon fill="#bfbfbf" stroke="black" points="261.5,-233 261.5,-253 320.5,-253 320.5,-233 261.5,-233"/>
<text text-anchor="middle" x="291" y="-240" font-family="FreeSans" font-size="10.00">Class.cpp</text>
</g>
<!-- Node2 -->
<g id="node3" class="node"><title>Node2</title>
<polygon fill="none" stroke="#bfbfbf" points="0,-175 0,-195 68,-195 68,-175 0,-175"/>
<text text-anchor="middle" x="34" y="-182" font-family="FreeSans" font-size="10.00">../../StdAfx.h</text>
</g>
<!-- Node1&#45;&gt;Node2 -->
<g id="edge2" class="edge"><title>Node1&#45;&gt;Node2</title>
<path fill="none" stroke="midnightblue" d="M261.154,-236.782C221.59,-228.467 149.369,-213.034 78.2638,-196.249"/>
<polygon fill="midnightblue" stroke="midnightblue" points="78.7792,-192.774 68.2414,-193.872 77.1639,-199.585 78.7792,-192.774"/>
</g>
<!-- Node3 -->
<g id="node5" class="node"><title>Node3</title>
<a xlink:href="_map_node_8h.html" target="_top" xlink:title="../../Util/yaml/MapNode.h">
<polygon fill="none" stroke="black" points="86,-175 86,-195 208,-195 208,-175 86,-175"/>
<text text-anchor="middle" x="147" y="-182" font-family="FreeSans" font-size="10.00">../../Util/yaml/MapNode.h</text>
</a>
</g>
<!-- Node1&#45;&gt;Node3 -->
<g id="edge4" class="edge"><title>Node1&#45;&gt;Node3</title>
<path fill="none" stroke="midnightblue" d="M265.917,-232.897C242.624,-223.515 207.727,-209.459 181.753,-198.998"/>
<polygon fill="midnightblue" stroke="midnightblue" points="182.862,-195.671 172.279,-195.182 180.247,-202.164 182.862,-195.671"/>
</g>
<!-- Node8 -->
<g id="node15" class="node"><title>Node8</title>
<a xlink:href="_scalar_node_8h.html" target="_top" xlink:title="../../Util/yaml/ScalarNode.h">
<polygon fill="none" stroke="black" points="225.5,-175 225.5,-195 356.5,-195 356.5,-175 225.5,-175"/>
<text text-anchor="middle" x="291" y="-182" font-family="FreeSans" font-size="10.00">../../Util/yaml/ScalarNode.h</text>
</a>
</g>
<!-- Node1&#45;&gt;Node8 -->
<g id="edge14" class="edge"><title>Node1&#45;&gt;Node8</title>
<path fill="none" stroke="midnightblue" d="M291,-232.897C291,-225.339 291,-214.748 291,-205.446"/>
<polygon fill="midnightblue" stroke="midnightblue" points="294.5,-205.378 291,-195.378 287.5,-205.378 294.5,-205.378"/>
</g>
<!-- Node17 -->
<g id="node35" class="node"><title>Node17</title>
<a xlink:href="_event_8h.html" target="_top" xlink:title="Event.h">
<polygon fill="none" stroke="black" points="373.5,-175 373.5,-195 422.5,-195 422.5,-175 373.5,-175"/>
<text text-anchor="middle" x="398" y="-182" font-family="FreeSans" font-size="10.00">Event.h</text>
</a>
</g>
<!-- Node1&#45;&gt;Node17 -->
<g id="edge36" class="edge"><title>Node1&#45;&gt;Node17</title>
<path fill="none" stroke="midnightblue" d="M309.638,-232.897C326.412,-223.804 351.286,-210.322 370.372,-199.976"/>
<polygon fill="midnightblue" stroke="midnightblue" points="372.093,-203.024 379.217,-195.182 368.757,-196.87 372.093,-203.024"/>
</g>
<!-- Node19 -->
<g id="node39" class="node"><title>Node19</title>
<a xlink:href="_class_8h.html" target="_top" xlink:title="Class.h">
<polygon fill="none" stroke="black" points="439.5,-175 439.5,-195 488.5,-195 488.5,-175 439.5,-175"/>
<text text-anchor="middle" x="464" y="-182" font-family="FreeSans" font-size="10.00">Class.h</text>
</a>
</g>
<!-- Node1&#45;&gt;Node19 -->
<g id="edge40" class="edge"><title>Node1&#45;&gt;Node19</title>
<path fill="none" stroke="midnightblue" d="M320.74,-233.029C350.989,-222.888 397.819,-207.188 429.636,-196.521"/>
<polygon fill="midnightblue" stroke="midnightblue" points="431.03,-199.745 439.399,-193.248 428.805,-193.108 431.03,-199.745"/>
</g>
<!-- Node4 -->
<g id="node7" class="node"><title>Node4</title>
<polygon fill="none" stroke="#bfbfbf" points="129.5,-117 129.5,-137 164.5,-137 164.5,-117 129.5,-117"/>
<text text-anchor="middle" x="147" y="-124" font-family="FreeSans" font-size="10.00">map</text>
</g>
<!-- Node3&#45;&gt;Node4 -->
<g id="edge6" class="edge"><title>Node3&#45;&gt;Node4</title>
<path fill="none" stroke="midnightblue" d="M147,-174.897C147,-167.339 147,-156.748 147,-147.446"/>
<polygon fill="midnightblue" stroke="midnightblue" points="150.5,-147.378 147,-137.378 143.5,-147.378 150.5,-147.378"/>
</g>
<!-- Node5 -->
<g id="node9" class="node"><title>Node5</title>
<a xlink:href="_node_8h.html" target="_top" xlink:title="Node.h">
<polygon fill="none" stroke="black" points="186.5,-117 186.5,-137 233.5,-137 233.5,-117 186.5,-117"/>
<text text-anchor="middle" x="210" y="-124" font-family="FreeSans" font-size="10.00">Node.h</text>
</a>
</g>
<!-- Node3&#45;&gt;Node5 -->
<g id="edge8" class="edge"><title>Node3&#45;&gt;Node5</title>
<path fill="none" stroke="midnightblue" d="M157.974,-174.897C167.165,-166.435 180.486,-154.172 191.348,-144.172"/>
<polygon fill="midnightblue" stroke="midnightblue" points="193.741,-146.726 198.728,-137.378 189,-141.576 193.741,-146.726"/>
</g>
<!-- Node6 -->
<g id="node11" class="node"><title>Node6</title>
<polygon fill="none" stroke="#bfbfbf" points="141,-59 141,-79 185,-79 185,-59 141,-59"/>
<text text-anchor="middle" x="163" y="-66" font-family="FreeSans" font-size="10.00">yaml.h</text>
</g>
<!-- Node5&#45;&gt;Node6 -->
<g id="edge10" class="edge"><title>Node5&#45;&gt;Node6</title>
<path fill="none" stroke="midnightblue" d="M201.813,-116.897C195.223,-108.764 185.786,-97.1183 177.867,-87.3468"/>
<polygon fill="midnightblue" stroke="midnightblue" points="180.425,-84.9434 171.409,-79.3776 174.986,-89.3505 180.425,-84.9434"/>
</g>
<!-- Node7 -->
<g id="node13" class="node"><title>Node7</title>
<polygon fill="none" stroke="#bfbfbf" points="202.5,-59 202.5,-79 243.5,-79 243.5,-59 202.5,-59"/>
<text text-anchor="middle" x="223" y="-66" font-family="FreeSans" font-size="10.00">string</text>
</g>
<!-- Node5&#45;&gt;Node7 -->
<g id="edge12" class="edge"><title>Node5&#45;&gt;Node7</title>
<path fill="none" stroke="midnightblue" d="M212.264,-116.897C213.977,-109.257 216.384,-98.517 218.485,-89.1429"/>
<polygon fill="midnightblue" stroke="midnightblue" points="221.902,-89.901 220.674,-79.3776 215.072,-88.37 221.902,-89.901"/>
</g>
<!-- Node8&#45;&gt;Node5 -->
<g id="edge34" class="edge"><title>Node8&#45;&gt;Node5</title>
<path fill="none" stroke="midnightblue" d="M276.891,-174.897C264.654,-166.135 246.724,-153.297 232.507,-143.116"/>
<polygon fill="midnightblue" stroke="midnightblue" points="234.387,-140.158 224.219,-137.182 230.312,-145.849 234.387,-140.158"/>
</g>
<!-- Node9 -->
<g id="node17" class="node"><title>Node9</title>
<polygon fill="none" stroke="#bfbfbf" points="261.5,-117 261.5,-137 308.5,-137 308.5,-117 261.5,-117"/>
<text text-anchor="middle" x="285" y="-124" font-family="FreeSans" font-size="10.00">limits.h</text>
</g>
<!-- Node8&#45;&gt;Node9 -->
<g id="edge16" class="edge"><title>Node8&#45;&gt;Node9</title>
<path fill="none" stroke="midnightblue" d="M289.955,-174.897C289.173,-167.339 288.077,-156.748 287.115,-147.446"/>
<polygon fill="midnightblue" stroke="midnightblue" points="290.584,-146.964 286.074,-137.378 283.621,-147.685 290.584,-146.964"/>
</g>
<!-- Node10 -->
<g id="node19" class="node"><title>Node10</title>
<a xlink:href="_o_s_8h.html" target="_top" xlink:title="../OS.h">
<polygon fill="none" stroke="black" points="326,-117 326,-137 372,-137 372,-117 326,-117"/>
<text text-anchor="middle" x="349" y="-124" font-family="FreeSans" font-size="10.00">../OS.h</text>
</a>
</g>
<!-- Node8&#45;&gt;Node10 -->
<g id="edge18" class="edge"><title>Node8&#45;&gt;Node10</title>
<path fill="none" stroke="midnightblue" d="M301.103,-174.897C309.483,-166.517 321.591,-154.409 331.536,-144.464"/>
<polygon fill="midnightblue" stroke="midnightblue" points="334.026,-146.924 338.622,-137.378 329.076,-141.974 334.026,-146.924"/>
</g>
<!-- Node10&#45;&gt;Node7 -->
<g id="edge24" class="edge"><title>Node10&#45;&gt;Node7</title>
<path fill="none" stroke="midnightblue" d="M327.052,-116.897C306.57,-107.469 275.833,-93.3202 253.073,-82.8429"/>
<polygon fill="midnightblue" stroke="midnightblue" points="254.407,-79.6041 243.859,-78.6019 251.48,-85.9627 254.407,-79.6041"/>
</g>
<!-- Node11 -->
<g id="node21" class="node"><title>Node11</title>
<polygon fill="none" stroke="#bfbfbf" points="261,-59 261,-79 303,-79 303,-59 261,-59"/>
<text text-anchor="middle" x="282" y="-66" font-family="FreeSans" font-size="10.00">locale</text>
</g>
<!-- Node10&#45;&gt;Node11 -->
<g id="edge20" class="edge"><title>Node10&#45;&gt;Node11</title>
<path fill="none" stroke="midnightblue" d="M337.329,-116.897C327.555,-108.435 313.388,-96.1715 301.837,-86.1719"/>
<polygon fill="midnightblue" stroke="midnightblue" points="303.839,-83.2764 293.988,-79.3776 299.258,-88.5689 303.839,-83.2764"/>
</g>
<!-- Node12 -->
<g id="node23" class="node"><title>Node12</title>
<polygon fill="none" stroke="#bfbfbf" points="321,-59 321,-79 351,-79 351,-59 321,-59"/>
<text text-anchor="middle" x="336" y="-66" font-family="FreeSans" font-size="10.00">set</text>
</g>
<!-- Node10&#45;&gt;Node12 -->
<g id="edge22" class="edge"><title>Node10&#45;&gt;Node12</title>
<path fill="none" stroke="midnightblue" d="M346.736,-116.897C345.023,-109.257 342.616,-98.517 340.515,-89.1429"/>
<polygon fill="midnightblue" stroke="midnightblue" points="343.928,-88.37 338.326,-79.3776 337.098,-89.901 343.928,-88.37"/>
</g>
<!-- Node13 -->
<g id="node26" class="node"><title>Node13</title>
<polygon fill="none" stroke="#bfbfbf" points="369,-59 369,-79 413,-79 413,-59 369,-59"/>
<text text-anchor="middle" x="391" y="-66" font-family="FreeSans" font-size="10.00">vector</text>
</g>
<!-- Node10&#45;&gt;Node13 -->
<g id="edge26" class="edge"><title>Node10&#45;&gt;Node13</title>
<path fill="none" stroke="midnightblue" d="M356.316,-116.897C362.146,-108.846 370.468,-97.3532 377.5,-87.6435"/>
<polygon fill="midnightblue" stroke="midnightblue" points="380.455,-89.5298 383.485,-79.3776 374.785,-85.4242 380.455,-89.5298"/>
</g>
<!-- Node14 -->
<g id="node28" class="node"><title>Node14</title>
<polygon fill="none" stroke="#bfbfbf" points="430.5,-59 430.5,-79 535.5,-79 535.5,-59 430.5,-59"/>
<text text-anchor="middle" x="483" y="-66" font-family="FreeSans" font-size="10.00">boost/filesystem.hpp</text>
</g>
<!-- Node10&#45;&gt;Node14 -->
<g id="edge28" class="edge"><title>Node10&#45;&gt;Node14</title>
<path fill="none" stroke="midnightblue" d="M372.035,-117.029C393.703,-107.651 426.354,-93.5183 450.635,-83.0087"/>
<polygon fill="midnightblue" stroke="midnightblue" points="452.03,-86.2189 459.817,-79.0345 449.249,-79.7948 452.03,-86.2189"/>
</g>
<!-- Node15 -->
<g id="node30" class="node"><title>Node15</title>
<a xlink:href="_m_r___types_8h.html" target="_top" xlink:title="MR_Types.h">
<polygon fill="none" stroke="black" points="552.5,-59 552.5,-79 623.5,-79 623.5,-59 552.5,-59"/>
<text text-anchor="middle" x="588" y="-66" font-family="FreeSans" font-size="10.00">MR_Types.h</text>
</a>
</g>
<!-- Node10&#45;&gt;Node15 -->
<g id="edge30" class="edge"><title>Node10&#45;&gt;Node15</title>
<path fill="none" stroke="midnightblue" d="M372.129,-121.492C406.947,-113.187 475.152,-96.8611 542.533,-80.348"/>
<polygon fill="midnightblue" stroke="midnightblue" points="543.587,-83.6934 552.465,-77.9112 541.919,-76.895 543.587,-83.6934"/>
</g>
<!-- Node16 -->
<g id="node32" class="node"><title>Node16</title>
<polygon fill="none" stroke="#bfbfbf" points="559,-1 559,-21 617,-21 617,-1 559,-1"/>
<text text-anchor="middle" x="588" y="-8" font-family="FreeSans" font-size="10.00">inttypes.h</text>
</g>
<!-- Node15&#45;&gt;Node16 -->
<g id="edge32" class="edge"><title>Node15&#45;&gt;Node16</title>
<path fill="none" stroke="midnightblue" d="M588,-58.8972C588,-51.339 588,-40.7476 588,-31.4458"/>
<polygon fill="midnightblue" stroke="midnightblue" points="591.5,-31.3776 588,-21.3776 584.5,-31.3776 591.5,-31.3776"/>
</g>
<!-- Node18 -->
<g id="node37" class="node"><title>Node18</title>
<a xlink:href="_method_8h.html" target="_top" xlink:title="Method.h">
<polygon fill="none" stroke="black" points="421,-117 421,-137 477,-137 477,-117 421,-117"/>
<text text-anchor="middle" x="449" y="-124" font-family="FreeSans" font-size="10.00">Method.h</text>
</a>
</g>
<!-- Node17&#45;&gt;Node18 -->
<g id="edge38" class="edge"><title>Node17&#45;&gt;Node18</title>
<path fill="none" stroke="midnightblue" d="M406.884,-174.897C414.107,-166.682 424.482,-154.883 433.127,-145.051"/>
<polygon fill="midnightblue" stroke="midnightblue" points="435.9,-147.199 439.875,-137.378 430.643,-142.576 435.9,-147.199"/>
</g>
<!-- Node19&#45;&gt;Node18 -->
<g id="edge42" class="edge"><title>Node19&#45;&gt;Node18</title>
<path fill="none" stroke="midnightblue" d="M461.387,-174.897C459.411,-167.257 456.634,-156.517 454.209,-147.143"/>
<polygon fill="midnightblue" stroke="midnightblue" points="457.576,-146.183 451.684,-137.378 450.799,-147.935 457.576,-146.183"/>
</g>
</g>
</svg>
