<?xml version="1.0" encoding="UTF-8" standalone="no"?>
<!DOCTYPE svg PUBLIC "-//W3C//DTD SVG 1.1//EN"
 "http://www.w3.org/Graphics/SVG/1.1/DTD/svg11.dtd">
<!-- Generated by graphviz version 2.38.0 (20140413.2041)
 -->
<!-- Title: ClassicRecordFile.h Pages: 1 -->
<svg width="448pt" height="84pt"
 viewBox="0.00 0.00 447.50 84.00" xmlns="http://www.w3.org/2000/svg" xmlns:xlink="http://www.w3.org/1999/xlink">
<g id="graph0" class="graph" transform="scale(1 1) rotate(0) translate(4 80)">
<title>ClassicRecordFile.h</title>
<!-- Node1 -->
<g id="node1" class="node"><title>Node1</title>
<polygon fill="#bfbfbf" stroke="black" points="159.5,-56.5 159.5,-75.5 265.5,-75.5 265.5,-56.5 159.5,-56.5"/>
<text text-anchor="middle" x="212.5" y="-63.5" font-family="FreeSans" font-size="10.00">ClassicRecordFile.h</text>
</g>
<!-- Node2 -->
<g id="node2" class="node"><title>Node2</title>
<g id="a_node2"><a xlink:href="_track_compiler_8cpp.html" target="_top" xlink:title="TrackCompiler.cpp">
<polygon fill="none" stroke="black" points="0,-0.5 0,-19.5 103,-19.5 103,-0.5 0,-0.5"/>
<text text-anchor="middle" x="51.5" y="-7.5" font-family="FreeSans" font-size="10.00">TrackCompiler.cpp</text>
</a>
</g>
</g>
<!-- Node1&#45;&gt;Node2 -->
<g id="edge1" class="edge"><title>Node1&#45;&gt;Node2</title>
<path fill="none" stroke="midnightblue" d="M177.235,-53.172C146.919,-43.0039 103.93,-28.5852 76.8916,-19.5164"/>
<polygon fill="midnightblue" stroke="midnightblue" points="176.395,-56.5819 186.989,-56.4435 178.621,-49.9452 176.395,-56.5819"/>
</g>
<!-- Node3 -->
<g id="node3" class="node"><title>Node3</title>
<g id="a_node3"><a xlink:href="_bundle_8cpp.html" target="_top" xlink:title="Bundle.cpp">
<polygon fill="none" stroke="black" points="121.5,-0.5 121.5,-19.5 191.5,-19.5 191.5,-0.5 121.5,-0.5"/>
<text text-anchor="middle" x="156.5" y="-7.5" font-family="FreeSans" font-size="10.00">Bundle.cpp</text>
</a>
</g>
</g>
<!-- Node1&#45;&gt;Node3 -->
<g id="edge2" class="edge"><title>Node1&#45;&gt;Node3</title>
<path fill="none" stroke="midnightblue" d="M196.17,-49.2533C186.235,-39.6731 173.912,-27.7906 165.661,-19.8339"/>
<polygon fill="midnightblue" stroke="midnightblue" points="193.875,-51.902 203.503,-56.324 198.734,-46.8631 193.875,-51.902"/>
</g>
<!-- Node4 -->
<g id="node4" class="node"><title>Node4</title>
<g id="a_node4"><a xlink:href="_classic_record_file_8cpp.html" target="_top" xlink:title="ClassicRecordFile.cpp">
<polygon fill="none" stroke="black" points="210,-0.5 210,-19.5 327,-19.5 327,-0.5 210,-0.5"/>
<text text-anchor="middle" x="268.5" y="-7.5" font-family="FreeSans" font-size="10.00">ClassicRecordFile.cpp</text>
</a>
</g>
</g>
<!-- Node1&#45;&gt;Node4 -->
<g id="edge3" class="edge"><title>Node1&#45;&gt;Node4</title>
<path fill="none" stroke="midnightblue" d="M228.83,-49.2533C238.765,-39.6731 251.088,-27.7906 259.339,-19.8339"/>
<polygon fill="midnightblue" stroke="midnightblue" points="226.266,-46.8631 221.497,-56.324 231.125,-51.902 226.266,-46.8631"/>
</g>
<!-- Node5 -->
<g id="node5" class="node"><title>Node5</title>
<g id="a_node5"><a xlink:href="_resource_lib_8cpp.html" target="_top" xlink:title="ResourceLib.cpp">
<polygon fill="none" stroke="black" points="345.5,-0.5 345.5,-19.5 439.5,-19.5 439.5,-0.5 345.5,-0.5"/>
<text text-anchor="middle" x="392.5" y="-7.5" font-family="FreeSans" font-size="10.00">ResourceLib.cpp</text>
</a>
</g>
</g>
<!-- Node1&#45;&gt;Node5 -->
<g id="edge4" class="edge"><title>Node1&#45;&gt;Node5</title>
<path fill="none" stroke="midnightblue" d="M250.608,-53.5677C284.563,-43.381 333.489,-28.7034 364.112,-19.5164"/>
<polygon fill="midnightblue" stroke="midnightblue" points="249.594,-50.2176 241.022,-56.4435 251.606,-56.9224 249.594,-50.2176"/>
</g>
</g>
</svg>
