<?xml version="1.0" encoding="UTF-8" standalone="no"?>
<!DOCTYPE svg PUBLIC "-//W3C//DTD SVG 1.1//EN"
 "http://www.w3.org/Graphics/SVG/1.1/DTD/svg11.dtd">
<!-- Generated by graphviz version 2.26.3 (20100126.1600)
 -->
<!-- Title: ClassicRecordFile.cpp Pages: 1 -->
<!--zoomable 320 -->
<svg id="main" version="1.1" xmlns="http://www.w3.org/2000/svg" xmlns:xlink="http://www.w3.org/1999/xlink" xml:space="preserve" onload="init(evt)">
        <defs>
                <circle id="rim" cx="0" cy="0" r="7"/>
                <circle id="rim2" cx="0" cy="0" r="3.5"/>
                <g id="zoomPlus">
                        <use xlink:href="#rim" fill="#404040">
                                <set attributeName="fill" to="#808080" begin="zoomplus.mouseover" end="zoomplus.mouseout"/>
                        </use>
                        <path d="M-4,0h8M0,-4v8" fill="none" stroke="white" stroke-width="1.5" pointer-events="none"/>
                </g>
                <g id="zoomMin">
                        <use xlink:href="#rim" fill="#404040">
                                <set attributeName="fill" to="#808080" begin="zoomminus.mouseover" end="zoomminus.mouseout"/>
                        </use>
                        <path d="M-4,0h8" fill="none" stroke="white" stroke-width="1.5" pointer-events="none"/>
                </g>
                <g id="dirArrow">
                        <path fill="none" stroke="white" stroke-width="1.5" d="M0,-3.0v7 M-2.5,-0.5L0,-3.0L2.5,-0.5"/>
                </g>
               <g id="resetDef">
                       <use xlink:href="#rim2" fill="#404040">
                               <set attributeName="fill" to="#808080" begin="reset.mouseover" end="reset.mouseout"/>
                       </use>
               </g>
        </defs>

<script type="text/javascript">
var viewWidth = 575;
var viewHeight = 320;
var sectionId = 'dynsection-0';
</script>
<script xlink:href="svgpan.js"/>
<svg id="graph" class="graph">
<g id="viewport">
<title>ClassicRecordFile.cpp</title>
<!-- Node1 -->
<g id="node1" class="node"><title>Node1</title>
<polygon fill="#bfbfbf" stroke="black" points="113.5,-291 113.5,-311 226.5,-311 226.5,-291 113.5,-291"/>
<text text-anchor="middle" x="170" y="-298" font-family="FreeSans" font-size="10.00">ClassicRecordFile.cpp</text>
</g>
<!-- Node2 -->
<g id="node3" class="node"><title>Node2</title>
<polygon fill="none" stroke="#bfbfbf" points="-0.5,-233 -0.5,-253 52.5,-253 52.5,-233 -0.5,-233"/>
<text text-anchor="middle" x="26" y="-240" font-family="FreeSans" font-size="10.00">StdAfx.h</text>
</g>
<!-- Node1&#45;&gt;Node2 -->
<g id="edge2" class="edge"><title>Node1&#45;&gt;Node2</title>
<path fill="none" stroke="midnightblue" d="M144.917,-290.897C121.624,-281.515 86.7266,-267.459 60.7534,-256.998"/>
<polygon fill="midnightblue" stroke="midnightblue" points="61.8621,-253.671 51.2786,-253.182 59.2468,-260.164 61.8621,-253.671"/>
</g>
<!-- Node3 -->
<g id="node5" class="node"><title>Node3</title>
<a xlink:href="_inspect_map_node_8h.html" target="_top" xlink:title="../Util/InspectMapNode.h">
<polygon fill="none" stroke="black" points="108,-233 108,-253 232,-253 232,-233 108,-233"/>
<text text-anchor="middle" x="170" y="-240" font-family="FreeSans" font-size="10.00">../Util/InspectMapNode.h</text>
</a>
</g>
<!-- Node1&#45;&gt;Node3 -->
<g id="edge4" class="edge"><title>Node1&#45;&gt;Node3</title>
<path fill="none" stroke="midnightblue" d="M170,-290.897C170,-283.339 170,-272.748 170,-263.446"/>
<polygon fill="midnightblue" stroke="midnightblue" points="173.5,-263.378 170,-253.378 166.5,-263.378 173.5,-263.378"/>
</g>
<!-- Node8 -->
<g id="node16" class="node"><title>Node8</title>
<a xlink:href="_str_8h.html" target="_top" xlink:title="../Util/Str.h">
<polygon fill="none" stroke="black" points="46,-175 46,-195 108,-195 108,-175 46,-175"/>
<text text-anchor="middle" x="77" y="-182" font-family="FreeSans" font-size="10.00">../Util/Str.h</text>
</a>
</g>
<!-- Node1&#45;&gt;Node8 -->
<g id="edge16" class="edge"><title>Node1&#45;&gt;Node8</title>
<path fill="none" stroke="midnightblue" d="M147.165,-290.964C131.545,-283.017 111.481,-270.508 99,-254 88.2445,-239.774 82.6537,-220.129 79.8063,-205.438"/>
<polygon fill="midnightblue" stroke="midnightblue" points="83.2199,-204.63 78.1235,-195.341 76.3152,-205.781 83.2199,-204.63"/>
</g>
<!-- Node14 -->
<g id="node29" class="node"><title>Node14</title>
<a xlink:href="_classic_obj_stream_8h.html" target="_top" xlink:title="ClassicObjStream.h">
<polygon fill="none" stroke="black" points="374.5,-233 374.5,-253 477.5,-253 477.5,-233 374.5,-233"/>
<text text-anchor="middle" x="426" y="-240" font-family="FreeSans" font-size="10.00">ClassicObjStream.h</text>
</a>
</g>
<!-- Node1&#45;&gt;Node14 -->
<g id="edge30" class="edge"><title>Node1&#45;&gt;Node14</title>
<path fill="none" stroke="midnightblue" d="M214.3,-290.963C258.03,-281.056 324.97,-265.89 371.839,-255.271"/>
<polygon fill="midnightblue" stroke="midnightblue" points="372.835,-258.634 381.814,-253.011 371.288,-251.807 372.835,-258.634"/>
</g>
<!-- Node20 -->
<g id="node43" class="node"><title>Node20</title>
<a xlink:href="_classic_record_file_8h.html" target="_top" xlink:title="ClassicRecordFile.h">
<polygon fill="none" stroke="black" points="249.5,-233 249.5,-253 352.5,-253 352.5,-233 249.5,-233"/>
<text text-anchor="middle" x="301" y="-240" font-family="FreeSans" font-size="10.00">ClassicRecordFile.h</text>
</a>
</g>
<!-- Node1&#45;&gt;Node20 -->
<g id="edge46" class="edge"><title>Node1&#45;&gt;Node20</title>
<path fill="none" stroke="midnightblue" d="M192.818,-290.897C213.822,-281.598 245.197,-267.707 268.758,-257.275"/>
<polygon fill="midnightblue" stroke="midnightblue" points="270.277,-260.431 278.003,-253.182 267.443,-254.03 270.277,-260.431"/>
</g>
<!-- Node4 -->
<g id="node7" class="node"><title>Node4</title>
<polygon fill="none" stroke="#bfbfbf" points="107.5,-117 107.5,-137 220.5,-137 220.5,-117 107.5,-117"/>
<text text-anchor="middle" x="164" y="-124" font-family="FreeSans" font-size="10.00">boost/lexical_cast.hpp</text>
</g>
<!-- Node3&#45;&gt;Node4 -->
<g id="edge6" class="edge"><title>Node3&#45;&gt;Node4</title>
<path fill="none" stroke="midnightblue" d="M165.72,-232.769C162.045,-223.394 157.029,-209.033 155,-196 152.448,-179.611 155.222,-160.955 158.343,-147.177"/>
<polygon fill="midnightblue" stroke="midnightblue" points="161.78,-147.862 160.826,-137.31 154.992,-146.154 161.78,-147.862"/>
</g>
<!-- Node5 -->
<g id="node9" class="node"><title>Node5</title>
<a xlink:href="_inspect_node_8h.html" target="_top" xlink:title="InspectNode.h">
<polygon fill="none" stroke="black" points="164,-175 164,-195 244,-195 244,-175 164,-175"/>
<text text-anchor="middle" x="204" y="-182" font-family="FreeSans" font-size="10.00">InspectNode.h</text>
</a>
</g>
<!-- Node3&#45;&gt;Node5 -->
<g id="edge8" class="edge"><title>Node3&#45;&gt;Node5</title>
<path fill="none" stroke="midnightblue" d="M175.922,-232.897C180.546,-225.01 187.105,-213.821 192.721,-204.24"/>
<polygon fill="midnightblue" stroke="midnightblue" points="195.879,-205.775 197.917,-195.378 189.84,-202.235 195.879,-205.775"/>
</g>
<!-- Node5&#45;&gt;Node4 -->
<g id="edge10" class="edge"><title>Node5&#45;&gt;Node4</title>
<path fill="none" stroke="midnightblue" d="M197.033,-174.897C191.48,-166.846 183.554,-155.353 176.858,-145.643"/>
<polygon fill="midnightblue" stroke="midnightblue" points="179.716,-143.623 171.157,-137.378 173.953,-147.597 179.716,-143.623"/>
</g>
<!-- Node6 -->
<g id="node12" class="node"><title>Node6</title>
<a xlink:href="_inspectable_8h.html" target="_top" xlink:title="Inspectable.h">
<polygon fill="none" stroke="black" points="276,-117 276,-137 350,-137 350,-117 276,-117"/>
<text text-anchor="middle" x="313" y="-124" font-family="FreeSans" font-size="10.00">Inspectable.h</text>
</a>
</g>
<!-- Node5&#45;&gt;Node6 -->
<g id="edge12" class="edge"><title>Node5&#45;&gt;Node6</title>
<path fill="none" stroke="midnightblue" d="M222.986,-174.897C240.074,-165.804 265.413,-152.322 284.856,-141.976"/>
<polygon fill="midnightblue" stroke="midnightblue" points="286.682,-144.969 293.865,-137.182 283.393,-138.789 286.682,-144.969"/>
</g>
<!-- Node7 -->
<g id="node14" class="node"><title>Node7</title>
<polygon fill="none" stroke="#bfbfbf" points="330.5,-1 330.5,-21 371.5,-21 371.5,-1 330.5,-1"/>
<text text-anchor="middle" x="351" y="-8" font-family="FreeSans" font-size="10.00">string</text>
</g>
<!-- Node6&#45;&gt;Node7 -->
<g id="edge14" class="edge"><title>Node6&#45;&gt;Node7</title>
<path fill="none" stroke="midnightblue" d="M316.372,-116.706C322.67,-97.4821 336.316,-55.8247 344.471,-30.9294"/>
<polygon fill="midnightblue" stroke="midnightblue" points="347.903,-31.6982 347.69,-21.1055 341.25,-29.519 347.903,-31.6982"/>
</g>
<!-- Node9 -->
<g id="node18" class="node"><title>Node9</title>
<a xlink:href="_o_s_8h.html" target="_top" xlink:title="OS.h">
<polygon fill="none" stroke="black" points="189,-59 189,-79 227,-79 227,-59 189,-59"/>
<text text-anchor="middle" x="208" y="-66" font-family="FreeSans" font-size="10.00">OS.h</text>
</a>
</g>
<!-- Node8&#45;&gt;Node9 -->
<g id="edge18" class="edge"><title>Node8&#45;&gt;Node9</title>
<path fill="none" stroke="midnightblue" d="M77.6476,-174.801C79.1007,-160.071 83.8036,-132.771 99,-116 119.946,-92.883 154.232,-80.6712 178.759,-74.5507"/>
<polygon fill="midnightblue" stroke="midnightblue" points="179.644,-77.9386 188.605,-72.2865 178.075,-71.1166 179.644,-77.9386"/>
</g>
<!-- Node9&#45;&gt;Node7 -->
<g id="edge24" class="edge"><title>Node9&#45;&gt;Node7</title>
<path fill="none" stroke="midnightblue" d="M227.286,-61.1779C251.29,-51.4416 292.56,-34.7029 320.78,-23.2569"/>
<polygon fill="midnightblue" stroke="midnightblue" points="322.217,-26.4512 330.168,-19.4492 319.586,-19.9645 322.217,-26.4512"/>
</g>
<!-- Node10 -->
<g id="node20" class="node"><title>Node10</title>
<polygon fill="none" stroke="#bfbfbf" points="39,-1 39,-21 81,-21 81,-1 39,-1"/>
<text text-anchor="middle" x="60" y="-8" font-family="FreeSans" font-size="10.00">locale</text>
</g>
<!-- Node9&#45;&gt;Node10 -->
<g id="edge20" class="edge"><title>Node9&#45;&gt;Node10</title>
<path fill="none" stroke="midnightblue" d="M188.955,-61.5363C164.124,-51.8055 120.383,-34.6634 90.8057,-23.0725"/>
<polygon fill="midnightblue" stroke="midnightblue" points="91.9538,-19.7633 81.3661,-19.3732 89.3996,-26.2807 91.9538,-19.7633"/>
</g>
<!-- Node11 -->
<g id="node22" class="node"><title>Node11</title>
<polygon fill="none" stroke="#bfbfbf" points="99,-1 99,-21 129,-21 129,-1 99,-1"/>
<text text-anchor="middle" x="114" y="-8" font-family="FreeSans" font-size="10.00">set</text>
</g>
<!-- Node9&#45;&gt;Node11 -->
<g id="edge22" class="edge"><title>Node9&#45;&gt;Node11</title>
<path fill="none" stroke="midnightblue" d="M191.626,-58.8972C176.803,-49.7507 154.78,-36.1622 137.974,-25.7925"/>
<polygon fill="midnightblue" stroke="midnightblue" points="139.601,-22.6839 129.253,-20.4114 135.925,-28.6412 139.601,-22.6839"/>
</g>
<!-- Node12 -->
<g id="node25" class="node"><title>Node12</title>
<polygon fill="none" stroke="#bfbfbf" points="147,-1 147,-21 191,-21 191,-1 147,-1"/>
<text text-anchor="middle" x="169" y="-8" font-family="FreeSans" font-size="10.00">vector</text>
</g>
<!-- Node9&#45;&gt;Node12 -->
<g id="edge26" class="edge"><title>Node9&#45;&gt;Node12</title>
<path fill="none" stroke="midnightblue" d="M201.207,-58.8972C195.848,-50.9283 188.223,-39.5874 181.736,-29.9413"/>
<polygon fill="midnightblue" stroke="midnightblue" points="184.463,-27.723 175.978,-21.3776 178.654,-31.6291 184.463,-27.723"/>
</g>
<!-- Node13 -->
<g id="node27" class="node"><title>Node13</title>
<polygon fill="none" stroke="#bfbfbf" points="208.5,-1 208.5,-21 313.5,-21 313.5,-1 208.5,-1"/>
<text text-anchor="middle" x="261" y="-8" font-family="FreeSans" font-size="10.00">boost/filesystem.hpp</text>
</g>
<!-- Node9&#45;&gt;Node13 -->
<g id="edge28" class="edge"><title>Node9&#45;&gt;Node13</title>
<path fill="none" stroke="midnightblue" d="M217.232,-58.8972C224.739,-50.6818 235.521,-38.8827 244.505,-29.0513"/>
<polygon fill="midnightblue" stroke="midnightblue" points="247.355,-31.1207 251.517,-21.3776 242.188,-26.3987 247.355,-31.1207"/>
</g>
<!-- Node15 -->
<g id="node31" class="node"><title>Node15</title>
<a xlink:href="_obj_stream_8h.html" target="_top" xlink:title="ObjStream.h">
<polygon fill="none" stroke="black" points="379.5,-117 379.5,-137 450.5,-137 450.5,-117 379.5,-117"/>
<text text-anchor="middle" x="415" y="-124" font-family="FreeSans" font-size="10.00">ObjStream.h</text>
</a>
</g>
<!-- Node14&#45;&gt;Node15 -->
<g id="edge32" class="edge"><title>Node14&#45;&gt;Node15</title>
<path fill="none" stroke="midnightblue" d="M425.024,-232.706C423.209,-213.568 419.286,-172.198 416.922,-147.265"/>
<polygon fill="midnightblue" stroke="midnightblue" points="420.387,-146.73 415.958,-137.106 413.418,-147.391 420.387,-146.73"/>
</g>
<!-- Node15&#45;&gt;Node7 -->
<g id="edge34" class="edge"><title>Node15&#45;&gt;Node7</title>
<path fill="none" stroke="midnightblue" d="M402.137,-116.727C392.003,-107.978 378.252,-94.5408 370,-80 361.483,-64.9929 356.616,-45.9623 353.944,-31.6898"/>
<polygon fill="midnightblue" stroke="midnightblue" points="357.332,-30.725 352.245,-21.4315 350.426,-31.8691 357.332,-30.725"/>
</g>
<!-- Node15&#45;&gt;Node9 -->
<g id="edge44" class="edge"><title>Node15&#45;&gt;Node9</title>
<path fill="none" stroke="midnightblue" d="M379.415,-117.029C339.053,-105.72 274.019,-87.4981 236.737,-77.0518"/>
<polygon fill="midnightblue" stroke="midnightblue" points="237.574,-73.6517 227.001,-74.3239 235.685,-80.3922 237.574,-73.6517"/>
</g>
<!-- Node16 -->
<g id="node34" class="node"><title>Node16</title>
<a xlink:href="_exception_8h.html" target="_top" xlink:title="../Exception.h">
<polygon fill="none" stroke="black" points="493,-59 493,-79 567,-79 567,-59 493,-59"/>
<text text-anchor="middle" x="530" y="-66" font-family="FreeSans" font-size="10.00">../Exception.h</text>
</a>
</g>
<!-- Node15&#45;&gt;Node16 -->
<g id="edge36" class="edge"><title>Node15&#45;&gt;Node16</title>
<path fill="none" stroke="midnightblue" d="M435.031,-116.897C453.224,-107.722 480.28,-94.0762 500.865,-83.6943"/>
<polygon fill="midnightblue" stroke="midnightblue" points="502.46,-86.8099 509.812,-79.1817 499.307,-80.5598 502.46,-86.8099"/>
</g>
<!-- Node18 -->
<g id="node38" class="node"><title>Node18</title>
<a xlink:href="_m_r___types_8h.html" target="_top" xlink:title="../Util/MR_Types.h">
<polygon fill="none" stroke="black" points="379,-59 379,-79 475,-79 475,-59 379,-59"/>
<text text-anchor="middle" x="427" y="-66" font-family="FreeSans" font-size="10.00">../Util/MR_Types.h</text>
</a>
</g>
<!-- Node15&#45;&gt;Node18 -->
<g id="edge40" class="edge"><title>Node15&#45;&gt;Node18</title>
<path fill="none" stroke="midnightblue" d="M417.09,-116.897C418.654,-109.339 420.845,-98.7476 422.77,-89.4458"/>
<polygon fill="midnightblue" stroke="midnightblue" points="426.254,-89.8794 424.853,-79.3776 419.399,-88.4611 426.254,-89.8794"/>
</g>
<!-- Node17 -->
<g id="node36" class="node"><title>Node17</title>
<polygon fill="none" stroke="#bfbfbf" points="501,-1 501,-21 559,-21 559,-1 501,-1"/>
<text text-anchor="middle" x="530" y="-8" font-family="FreeSans" font-size="10.00">exception</text>
</g>
<!-- Node16&#45;&gt;Node17 -->
<g id="edge38" class="edge"><title>Node16&#45;&gt;Node17</title>
<path fill="none" stroke="midnightblue" d="M530,-58.8972C530,-51.339 530,-40.7476 530,-31.4458"/>
<polygon fill="midnightblue" stroke="midnightblue" points="533.5,-31.3776 530,-21.3776 526.5,-31.3776 533.5,-31.3776"/>
</g>
<!-- Node19 -->
<g id="node40" class="node"><title>Node19</title>
<polygon fill="none" stroke="#bfbfbf" points="398,-1 398,-21 456,-21 456,-1 398,-1"/>
<text text-anchor="middle" x="427" y="-8" font-family="FreeSans" font-size="10.00">inttypes.h</text>
</g>
<!-- Node18&#45;&gt;Node19 -->
<g id="edge42" class="edge"><title>Node18&#45;&gt;Node19</title>
<path fill="none" stroke="midnightblue" d="M427,-58.8972C427,-51.339 427,-40.7476 427,-31.4458"/>
<polygon fill="midnightblue" stroke="midnightblue" points="430.5,-31.3776 427,-21.3776 423.5,-31.3776 430.5,-31.3776"/>
</g>
<!-- Node21 -->
<g id="node45" class="node"><title>Node21</title>
<polygon fill="none" stroke="#bfbfbf" points="262,-175 262,-195 312,-195 312,-175 262,-175"/>
<text text-anchor="middle" x="287" y="-182" font-family="FreeSans" font-size="10.00">fstream</text>
</g>
<!-- Node20&#45;&gt;Node21 -->
<g id="edge48" class="edge"><title>Node20&#45;&gt;Node21</title>
<path fill="none" stroke="midnightblue" d="M298.561,-232.897C296.717,-225.257 294.125,-214.517 291.862,-205.143"/>
<polygon fill="midnightblue" stroke="midnightblue" points="295.254,-204.277 289.505,-195.378 288.449,-205.92 295.254,-204.277"/>
</g>
<!-- Node22 -->
<g id="node47" class="node"><title>Node22</title>
<a xlink:href="_record_file_8h.html" target="_top" xlink:title="RecordFile.h">
<polygon fill="none" stroke="black" points="329.5,-175 329.5,-195 400.5,-195 400.5,-175 329.5,-175"/>
<text text-anchor="middle" x="365" y="-182" font-family="FreeSans" font-size="10.00">RecordFile.h</text>
</a>
</g>
<!-- Node20&#45;&gt;Node22 -->
<g id="edge50" class="edge"><title>Node20&#45;&gt;Node22</title>
<path fill="none" stroke="midnightblue" d="M312.148,-232.897C321.485,-224.435 335.018,-212.172 346.052,-202.172"/>
<polygon fill="midnightblue" stroke="midnightblue" points="348.489,-204.686 353.549,-195.378 343.789,-199.499 348.489,-204.686"/>
</g>
<!-- Node22&#45;&gt;Node6 -->
<g id="edge52" class="edge"><title>Node22&#45;&gt;Node6</title>
<path fill="none" stroke="midnightblue" d="M355.942,-174.897C348.577,-166.682 337.998,-154.883 329.184,-145.051"/>
<polygon fill="midnightblue" stroke="midnightblue" points="331.586,-142.487 322.304,-137.378 326.374,-147.16 331.586,-142.487"/>
</g>
<!-- Node22&#45;&gt;Node9 -->
<g id="edge54" class="edge"><title>Node22&#45;&gt;Node9</title>
<path fill="none" stroke="midnightblue" d="M336.21,-174.883C315.682,-166.824 288.095,-154.213 267,-138 248.372,-123.683 231.434,-102.645 220.533,-87.5667"/>
<polygon fill="midnightblue" stroke="midnightblue" points="223.174,-85.2372 214.565,-79.062 217.444,-89.2581 223.174,-85.2372"/>
</g>
<!-- Node22&#45;&gt;Node15 -->
<g id="edge56" class="edge"><title>Node22&#45;&gt;Node15</title>
<path fill="none" stroke="midnightblue" d="M373.709,-174.897C380.792,-166.682 390.963,-154.883 399.439,-145.051"/>
<polygon fill="midnightblue" stroke="midnightblue" points="402.175,-147.237 406.054,-137.378 396.873,-142.666 402.175,-147.237"/>
</g>
</g>
</svg>
        <g id="navigator" transform="translate(0 0)" fill="#404254">
                <rect fill="#f2f5e9" fill-opacity="0.5" stroke="#606060" stroke-width=".5" x="0" y="0" width="60" height="60"/>
                <use id="zoomplus" xlink:href="#zoomPlus" x="17" y="9" onmousedown="handleZoom(evt,'in')"/>
                <use id="zoomminus" xlink:href="#zoomMin" x="42" y="9" onmousedown="handleZoom(evt,'out')"/>
                <use id="reset" xlink:href="#resetDef" x="30" y="36" onmousedown="handleReset()"/>
                <g id="arrowUp" xlink:href="#dirArrow" transform="translate(30 24)" onmousedown="handlePan(0,-1)">
                  <use xlink:href="#rim" fill="#404040">
                        <set attributeName="fill" to="#808080" begin="arrowUp.mouseover" end="arrowUp.mouseout"/>
                  </use>
                  <path fill="none" stroke="white" stroke-width="1.5" d="M0,-3.0v7 M-2.5,-0.5L0,-3.0L2.5,-0.5"/>
                </g>
                <g id="arrowRight" xlink:href="#dirArrow" transform="rotate(90) translate(36 -43)" onmousedown="handlePan(1,0)">
                  <use xlink:href="#rim" fill="#404040">
                        <set attributeName="fill" to="#808080" begin="arrowRight.mouseover" end="arrowRight.mouseout"/>
                  </use>
                  <path fill="none" stroke="white" stroke-width="1.5" d="M0,-3.0v7 M-2.5,-0.5L0,-3.0L2.5,-0.5"/>
                </g>
                <g id="arrowDown" xlink:href="#dirArrow" transform="rotate(180) translate(-30 -48)" onmousedown="handlePan(0,1)">
                  <use xlink:href="#rim" fill="#404040">
                        <set attributeName="fill" to="#808080" begin="arrowDown.mouseover" end="arrowDown.mouseout"/>
                  </use>
                  <path fill="none" stroke="white" stroke-width="1.5" d="M0,-3.0v7 M-2.5,-0.5L0,-3.0L2.5,-0.5"/>
                </g>
                <g id="arrowLeft" xlink:href="#dirArrow" transform="rotate(270) translate(-36 17)" onmousedown="handlePan(-1,0)">
                  <use xlink:href="#rim" fill="#404040">
                        <set attributeName="fill" to="#808080" begin="arrowLeft.mouseover" end="arrowLeft.mouseout"/>
                  </use>
                  <path fill="none" stroke="white" stroke-width="1.5" d="M0,-3.0v7 M-2.5,-0.5L0,-3.0L2.5,-0.5"/>
                </g>
        </g>
        <svg viewBox="0 0 15 15" width="100%" height="30px" preserveAspectRatio="xMaxYMin meet">
         <g id="arrow_out" transform="scale(0.3 0.3)">
          <a xlink:href="_classic_record_file_8cpp__incl_org.svg" target="_base">
           <rect id="button" ry="5" rx="5" y="6" x="6" height="38" width="38"
                fill="#f2f5e9" fill-opacity="0.5" stroke="#606060" stroke-width="1.0"/>
           <path id="arrow"
             d="M 11.500037,31.436501 C 11.940474,20.09759 22.043105,11.32322 32.158766,21.979434 L 37.068811,17.246167 C 37.068811,17.246167 37.088388,32 37.088388,32 L 22.160133,31.978069 C 22.160133,31.978069 26.997745,27.140456 26.997745,27.140456 C 18.528582,18.264221 13.291696,25.230495 11.500037,31.436501 z"
             style="fill:#404040;"/>
          </a>
         </g>
        </svg>
</svg>
