<?xml version="1.0" encoding="UTF-8" standalone="no"?>
<!DOCTYPE svg PUBLIC "-//W3C//DTD SVG 1.1//EN"
 "http://www.w3.org/Graphics/SVG/1.1/DTD/svg11.dtd">
<!-- Generated by graphviz version 2.26.3 (20100126.1600)
 -->
<!-- Title: ClientScriptCore.cpp Pages: 1 -->
<svg width="826pt" height="216pt"
 viewBox="0.00 0.00 826.00 216.00" xmlns="http://www.w3.org/2000/svg" xmlns:xlink="http://www.w3.org/1999/xlink">
<g id="graph1" class="graph" transform="scale(1 1) rotate(0) translate(4 212)">
<title>ClientScriptCore.cpp</title>
<!-- Node1 -->
<g id="node1" class="node"><title>Node1</title>
<polygon fill="#bfbfbf" stroke="black" points="322.5,-187 322.5,-207 427.5,-207 427.5,-187 322.5,-187"/>
<text text-anchor="middle" x="375" y="-194" font-family="FreeSans" font-size="10.00">ClientScriptCore.cpp</text>
</g>
<!-- Node2 -->
<g id="node3" class="node"><title>Node2</title>
<polygon fill="none" stroke="#bfbfbf" points="-0.5,-129 -0.5,-149 52.5,-149 52.5,-129 -0.5,-129"/>
<text text-anchor="middle" x="26" y="-136" font-family="FreeSans" font-size="10.00">StdAfx.h</text>
</g>
<!-- Node1&#45;&gt;Node2 -->
<g id="edge2" class="edge"><title>Node1&#45;&gt;Node2</title>
<path fill="none" stroke="midnightblue" d="M322.305,-191.655C261.625,-184.935 158.881,-171.831 62.5368,-150.11"/>
<polygon fill="midnightblue" stroke="midnightblue" points="63.1641,-146.663 52.6351,-147.842 61.6009,-153.487 63.1641,-146.663"/>
</g>
<!-- Node3 -->
<g id="node5" class="node"><title>Node3</title>
<polygon fill="none" stroke="#bfbfbf" points="69.5,-129 69.5,-149 182.5,-149 182.5,-129 69.5,-129"/>
<text text-anchor="middle" x="126" y="-136" font-family="FreeSans" font-size="10.00">luabind/class_info.hpp</text>
</g>
<!-- Node1&#45;&gt;Node3 -->
<g id="edge4" class="edge"><title>Node1&#45;&gt;Node3</title>
<path fill="none" stroke="midnightblue" d="M331.912,-186.963C289.466,-177.077 224.54,-161.953 178.967,-151.338"/>
<polygon fill="midnightblue" stroke="midnightblue" points="179.511,-147.871 168.977,-149.011 177.923,-154.688 179.511,-147.871"/>
</g>
<!-- Node4 -->
<g id="node7" class="node"><title>Node4</title>
<a xlink:href="_config_peer_8h.html" target="_top" xlink:title="ConfigPeer.h">
<polygon fill="none" stroke="black" points="199.5,-129 199.5,-149 270.5,-149 270.5,-129 199.5,-129"/>
<text text-anchor="middle" x="235" y="-136" font-family="FreeSans" font-size="10.00">ConfigPeer.h</text>
</a>
</g>
<!-- Node1&#45;&gt;Node4 -->
<g id="edge6" class="edge"><title>Node1&#45;&gt;Node4</title>
<path fill="none" stroke="midnightblue" d="M350.614,-186.897C328.067,-177.556 294.338,-163.583 269.122,-153.136"/>
<polygon fill="midnightblue" stroke="midnightblue" points="270.155,-149.776 259.576,-149.182 267.475,-156.243 270.155,-149.776"/>
</g>
<!-- Node8 -->
<g id="node15" class="node"><title>Node8</title>
<a xlink:href="_debug_peer_8h.html" target="_top" xlink:title="DebugPeer.h">
<polygon fill="none" stroke="black" points="386,-129 386,-149 458,-149 458,-129 386,-129"/>
<text text-anchor="middle" x="422" y="-136" font-family="FreeSans" font-size="10.00">DebugPeer.h</text>
</a>
</g>
<!-- Node1&#45;&gt;Node8 -->
<g id="edge14" class="edge"><title>Node1&#45;&gt;Node8</title>
<path fill="none" stroke="midnightblue" d="M383.187,-186.897C389.777,-178.764 399.214,-167.118 407.133,-157.347"/>
<polygon fill="midnightblue" stroke="midnightblue" points="410.014,-159.351 413.591,-149.378 404.575,-154.943 410.014,-159.351"/>
</g>
<!-- Node10 -->
<g id="node22" class="node"><title>Node10</title>
<a xlink:href="_game_peer_8h.html" target="_top" xlink:title="GamePeer.h">
<polygon fill="none" stroke="black" points="475.5,-129 475.5,-149 546.5,-149 546.5,-129 475.5,-129"/>
<text text-anchor="middle" x="511" y="-136" font-family="FreeSans" font-size="10.00">GamePeer.h</text>
</a>
</g>
<!-- Node1&#45;&gt;Node10 -->
<g id="edge24" class="edge"><title>Node1&#45;&gt;Node10</title>
<path fill="none" stroke="midnightblue" d="M398.689,-186.897C420.592,-177.556 453.357,-163.583 477.853,-153.136"/>
<polygon fill="midnightblue" stroke="midnightblue" points="479.3,-156.324 487.126,-149.182 476.554,-149.885 479.3,-156.324"/>
</g>
<!-- Node11 -->
<g id="node28" class="node"><title>Node11</title>
<a xlink:href="_player_peer_8h.html" target="_top" xlink:title="PlayerPeer.h">
<polygon fill="none" stroke="black" points="563.5,-129 563.5,-149 634.5,-149 634.5,-129 563.5,-129"/>
<text text-anchor="middle" x="599" y="-136" font-family="FreeSans" font-size="10.00">PlayerPeer.h</text>
</a>
</g>
<!-- Node1&#45;&gt;Node11 -->
<g id="edge34" class="edge"><title>Node1&#45;&gt;Node11</title>
<path fill="none" stroke="midnightblue" d="M413.762,-186.963C452.631,-176.899 512.455,-161.409 553.539,-150.771"/>
<polygon fill="midnightblue" stroke="midnightblue" points="554.494,-154.139 563.298,-148.244 552.739,-147.363 554.494,-154.139"/>
</g>
<!-- Node12 -->
<g id="node34" class="node"><title>Node12</title>
<a xlink:href="_session_peer_8h.html" target="_top" xlink:title="SessionPeer.h">
<polygon fill="none" stroke="black" points="288,-129 288,-149 368,-149 368,-129 288,-129"/>
<text text-anchor="middle" x="328" y="-136" font-family="FreeSans" font-size="10.00">SessionPeer.h</text>
</a>
</g>
<!-- Node1&#45;&gt;Node12 -->
<g id="edge44" class="edge"><title>Node1&#45;&gt;Node12</title>
<path fill="none" stroke="midnightblue" d="M366.813,-186.897C360.223,-178.764 350.786,-167.118 342.867,-157.347"/>
<polygon fill="midnightblue" stroke="midnightblue" points="345.425,-154.943 336.409,-149.378 339.986,-159.351 345.425,-154.943"/>
</g>
<!-- Node13 -->
<g id="node39" class="node"><title>Node13</title>
<a xlink:href="_client_script_core_8h.html" target="_top" xlink:title="ClientScriptCore.h">
<polygon fill="none" stroke="black" points="658.5,-129 658.5,-149 753.5,-149 753.5,-129 658.5,-129"/>
<text text-anchor="middle" x="706" y="-136" font-family="FreeSans" font-size="10.00">ClientScriptCore.h</text>
</a>
</g>
<!-- Node1&#45;&gt;Node13 -->
<g id="edge52" class="edge"><title>Node1&#45;&gt;Node13</title>
<path fill="none" stroke="midnightblue" d="M427.814,-187.746C488.068,-177.188 586.272,-159.98 648.438,-149.086"/>
<polygon fill="midnightblue" stroke="midnightblue" points="649.227,-152.502 658.473,-147.328 648.019,-145.607 649.227,-152.502"/>
</g>
<!-- Node5 -->
<g id="node9" class="node"><title>Node5</title>
<polygon fill="none" stroke="#bfbfbf" points="208.5,-65 208.5,-85 307.5,-85 307.5,-65 208.5,-65"/>
<text text-anchor="middle" x="258" y="-72" font-family="FreeSans" font-size="10.00">luabind/luabind.hpp</text>
</g>
<!-- Node4&#45;&gt;Node5 -->
<g id="edge8" class="edge"><title>Node4&#45;&gt;Node5</title>
<path fill="none" stroke="midnightblue" d="M238.695,-128.717C242.001,-119.519 246.935,-105.789 250.988,-94.512"/>
<polygon fill="midnightblue" stroke="midnightblue" points="254.301,-95.6407 254.39,-85.0462 247.714,-93.2732 254.301,-95.6407"/>
</g>
<!-- Node6 -->
<g id="node11" class="node"><title>Node6</title>
<polygon fill="none" stroke="#bfbfbf" points="324.5,-65 324.5,-85 419.5,-85 419.5,-65 324.5,-65"/>
<text text-anchor="middle" x="372" y="-72" font-family="FreeSans" font-size="10.00">luabind/object.hpp</text>
</g>
<!-- Node4&#45;&gt;Node6 -->
<g id="edge10" class="edge"><title>Node4&#45;&gt;Node6</title>
<path fill="none" stroke="midnightblue" d="M256.708,-128.859C279.455,-118.233 315.388,-101.446 341.092,-89.4387"/>
<polygon fill="midnightblue" stroke="midnightblue" points="342.815,-92.4971 350.394,-85.0935 339.852,-86.155 342.815,-92.4971"/>
</g>
<!-- Node7 -->
<g id="node13" class="node"><title>Node7</title>
<a xlink:href="_peer_8h.html" target="_top" xlink:title="../../../engine/Script\l/Peer.h">
<polygon fill="none" stroke="black" points="437,-59 437,-91 533,-91 533,-59 437,-59"/>
<text text-anchor="start" x="445" y="-78" font-family="FreeSans" font-size="10.00">../../../engine/Script</text>
<text text-anchor="middle" x="485" y="-66" font-family="FreeSans" font-size="10.00">/Peer.h</text>
</a>
</g>
<!-- Node4&#45;&gt;Node7 -->
<g id="edge12" class="edge"><title>Node4&#45;&gt;Node7</title>
<path fill="none" stroke="midnightblue" d="M270.536,-130.091C273.399,-129.38 276.247,-128.677 279,-128 342.186,-112.469 360.591,-109.95 427.131,-92.1686"/>
<polygon fill="midnightblue" stroke="midnightblue" points="428.101,-95.5322 436.849,-89.5554 426.283,-88.7723 428.101,-95.5322"/>
</g>
<!-- Node8&#45;&gt;Node5 -->
<g id="edge16" class="edge"><title>Node8&#45;&gt;Node5</title>
<path fill="none" stroke="midnightblue" d="M396.014,-128.859C368.304,-118.045 324.248,-100.853 293.384,-88.8085"/>
<polygon fill="midnightblue" stroke="midnightblue" points="294.453,-85.4685 283.865,-85.0935 291.908,-91.9896 294.453,-85.4685"/>
</g>
<!-- Node8&#45;&gt;Node6 -->
<g id="edge18" class="edge"><title>Node8&#45;&gt;Node6</title>
<path fill="none" stroke="midnightblue" d="M413.967,-128.717C406.487,-119.144 395.172,-104.66 386.175,-93.1439"/>
<polygon fill="midnightblue" stroke="midnightblue" points="388.763,-90.7717 379.849,-85.0462 383.247,-95.0812 388.763,-90.7717"/>
</g>
<!-- Node8&#45;&gt;Node7 -->
<g id="edge22" class="edge"><title>Node8&#45;&gt;Node7</title>
<path fill="none" stroke="midnightblue" d="M432.122,-128.717C440.183,-120.528 451.78,-108.747 462.061,-98.3033"/>
<polygon fill="midnightblue" stroke="midnightblue" points="464.724,-100.587 469.245,-91.0054 459.735,-95.6767 464.724,-100.587"/>
</g>
<!-- Node9 -->
<g id="node19" class="node"><title>Node9</title>
<a xlink:href="_handlers_8h.html" target="_top" xlink:title="../../../engine/Script\l/Handlers.h">
<polygon fill="none" stroke="black" points="551,-59 551,-91 647,-91 647,-59 551,-59"/>
<text text-anchor="start" x="559" y="-78" font-family="FreeSans" font-size="10.00">../../../engine/Script</text>
<text text-anchor="middle" x="599" y="-66" font-family="FreeSans" font-size="10.00">/Handlers.h</text>
</a>
</g>
<!-- Node8&#45;&gt;Node9 -->
<g id="edge20" class="edge"><title>Node8&#45;&gt;Node9</title>
<path fill="none" stroke="midnightblue" d="M450.046,-128.859C475.488,-119.66 513.699,-105.843 545.048,-94.508"/>
<polygon fill="midnightblue" stroke="midnightblue" points="546.321,-97.7695 554.535,-91.0776 543.941,-91.1866 546.321,-97.7695"/>
</g>
<!-- Node10&#45;&gt;Node5 -->
<g id="edge26" class="edge"><title>Node10&#45;&gt;Node5</title>
<path fill="none" stroke="midnightblue" d="M475.467,-130.081C472.603,-129.373 469.754,-128.672 467,-128 399.977,-111.633 382.681,-109.708 316,-92 311.056,-90.687 305.892,-89.2576 300.77,-87.8037"/>
<polygon fill="midnightblue" stroke="midnightblue" points="301.622,-84.4067 291.044,-85.0019 299.684,-91.1332 301.622,-84.4067"/>
</g>
<!-- Node10&#45;&gt;Node6 -->
<g id="edge28" class="edge"><title>Node10&#45;&gt;Node6</title>
<path fill="none" stroke="midnightblue" d="M488.975,-128.859C465.794,-118.186 429.116,-101.298 403.015,-89.2803"/>
<polygon fill="midnightblue" stroke="midnightblue" points="404.469,-86.0967 393.922,-85.0935 401.542,-92.4551 404.469,-86.0967"/>
</g>
<!-- Node10&#45;&gt;Node7 -->
<g id="edge32" class="edge"><title>Node10&#45;&gt;Node7</title>
<path fill="none" stroke="midnightblue" d="M506.823,-128.717C503.722,-121.085 499.354,-110.332 495.339,-100.45"/>
<polygon fill="midnightblue" stroke="midnightblue" points="498.509,-98.9528 491.502,-91.0054 492.023,-101.587 498.509,-98.9528"/>
</g>
<!-- Node10&#45;&gt;Node9 -->
<g id="edge30" class="edge"><title>Node10&#45;&gt;Node9</title>
<path fill="none" stroke="midnightblue" d="M525.139,-128.717C536.836,-120.21 553.863,-107.827 568.622,-97.0929"/>
<polygon fill="midnightblue" stroke="midnightblue" points="570.964,-99.7178 576.993,-91.0054 566.847,-94.0566 570.964,-99.7178"/>
</g>
<!-- Node11&#45;&gt;Node5 -->
<g id="edge36" class="edge"><title>Node11&#45;&gt;Node5</title>
<path fill="none" stroke="midnightblue" d="M563.045,-129.714C560.329,-129.104 557.625,-128.525 555,-128 449.662,-106.949 420.894,-115.16 316,-92 310.557,-90.7981 304.875,-89.363 299.288,-87.8431"/>
<polygon fill="midnightblue" stroke="midnightblue" points="299.981,-84.4019 289.406,-85.0481 298.076,-91.1377 299.981,-84.4019"/>
</g>
<!-- Node11&#45;&gt;Node6 -->
<g id="edge38" class="edge"><title>Node11&#45;&gt;Node6</title>
<path fill="none" stroke="midnightblue" d="M563.224,-129.463C528.573,-120.156 474.583,-105.47 428,-92 423.599,-90.7273 419.01,-89.3755 414.437,-88.012"/>
<polygon fill="midnightblue" stroke="midnightblue" points="415.114,-84.5607 404.53,-85.0343 413.099,-91.2645 415.114,-84.5607"/>
</g>
<!-- Node11&#45;&gt;Node7 -->
<g id="edge42" class="edge"><title>Node11&#45;&gt;Node7</title>
<path fill="none" stroke="midnightblue" d="M580.936,-128.859C565.256,-120.056 542.046,-107.026 522.383,-95.9871"/>
<polygon fill="midnightblue" stroke="midnightblue" points="524.071,-92.9211 513.638,-91.0776 520.645,-99.025 524.071,-92.9211"/>
</g>
<!-- Node11&#45;&gt;Node9 -->
<g id="edge40" class="edge"><title>Node11&#45;&gt;Node9</title>
<path fill="none" stroke="midnightblue" d="M599,-128.717C599,-121.244 599,-110.779 599,-101.068"/>
<polygon fill="midnightblue" stroke="midnightblue" points="602.5,-101.005 599,-91.0054 595.5,-101.005 602.5,-101.005"/>
</g>
<!-- Node12&#45;&gt;Node5 -->
<g id="edge46" class="edge"><title>Node12&#45;&gt;Node5</title>
<path fill="none" stroke="midnightblue" d="M316.753,-128.717C305.872,-118.768 289.19,-103.517 276.378,-91.8032"/>
<polygon fill="midnightblue" stroke="midnightblue" points="278.73,-89.2108 268.988,-85.0462 274.007,-94.377 278.73,-89.2108"/>
</g>
<!-- Node12&#45;&gt;Node6 -->
<g id="edge48" class="edge"><title>Node12&#45;&gt;Node6</title>
<path fill="none" stroke="midnightblue" d="M335.069,-128.717C341.587,-119.238 351.414,-104.944 359.293,-93.4835"/>
<polygon fill="midnightblue" stroke="midnightblue" points="362.312,-95.2695 365.093,-85.0462 356.544,-91.3038 362.312,-95.2695"/>
</g>
<!-- Node12&#45;&gt;Node7 -->
<g id="edge50" class="edge"><title>Node12&#45;&gt;Node7</title>
<path fill="none" stroke="midnightblue" d="M352.877,-128.859C375.152,-119.779 408.462,-106.2 436.063,-94.949"/>
<polygon fill="midnightblue" stroke="midnightblue" points="437.621,-98.0936 445.56,-91.0776 434.978,-91.6115 437.621,-98.0936"/>
</g>
<!-- Node14 -->
<g id="node41" class="node"><title>Node14</title>
<a xlink:href="_core_8h.html" target="_top" xlink:title="../../../engine/Script\l/Core.h">
<polygon fill="none" stroke="black" points="665,-59 665,-91 761,-91 761,-59 665,-59"/>
<text text-anchor="start" x="673" y="-78" font-family="FreeSans" font-size="10.00">../../../engine/Script</text>
<text text-anchor="middle" x="713" y="-66" font-family="FreeSans" font-size="10.00">/Core.h</text>
</a>
</g>
<!-- Node13&#45;&gt;Node14 -->
<g id="edge54" class="edge"><title>Node13&#45;&gt;Node14</title>
<path fill="none" stroke="midnightblue" d="M707.125,-128.717C707.942,-121.244 709.087,-110.779 710.149,-101.068"/>
<polygon fill="midnightblue" stroke="midnightblue" points="713.641,-101.327 711.249,-91.0054 706.683,-100.566 713.641,-101.327"/>
</g>
<!-- Node15 -->
<g id="node43" class="node"><title>Node15</title>
<polygon fill="none" stroke="#bfbfbf" points="643.5,-1 643.5,-21 672.5,-21 672.5,-1 643.5,-1"/>
<text text-anchor="middle" x="658" y="-8" font-family="FreeSans" font-size="10.00">list</text>
</g>
<!-- Node14&#45;&gt;Node15 -->
<g id="edge56" class="edge"><title>Node14&#45;&gt;Node15</title>
<path fill="none" stroke="midnightblue" d="M699.121,-58.8501C691.245,-49.6851 681.375,-38.1995 673.278,-28.7784"/>
<polygon fill="midnightblue" stroke="midnightblue" points="675.887,-26.444 666.715,-21.141 670.578,-31.0064 675.887,-26.444"/>
</g>
<!-- Node16 -->
<g id="node45" class="node"><title>Node16</title>
<polygon fill="none" stroke="#bfbfbf" points="689.5,-1 689.5,-21 736.5,-21 736.5,-1 689.5,-1"/>
<text text-anchor="middle" x="713" y="-8" font-family="FreeSans" font-size="10.00">lua.hpp</text>
</g>
<!-- Node14&#45;&gt;Node16 -->
<g id="edge58" class="edge"><title>Node14&#45;&gt;Node16</title>
<path fill="none" stroke="midnightblue" d="M713,-58.8501C713,-50.5183 713,-40.2686 713,-31.3957"/>
<polygon fill="midnightblue" stroke="midnightblue" points="716.5,-31.141 713,-21.141 709.5,-31.141 716.5,-31.141"/>
</g>
<!-- Node17 -->
<g id="node47" class="node"><title>Node17</title>
<a xlink:href="_script_exn_8h.html" target="_top" xlink:title="ScriptExn.h">
<polygon fill="none" stroke="black" points="753.5,-1 753.5,-21 818.5,-21 818.5,-1 753.5,-1"/>
<text text-anchor="middle" x="786" y="-8" font-family="FreeSans" font-size="10.00">ScriptExn.h</text>
</a>
</g>
<!-- Node14&#45;&gt;Node17 -->
<g id="edge60" class="edge"><title>Node14&#45;&gt;Node17</title>
<path fill="none" stroke="midnightblue" d="M731.421,-58.8501C742.192,-49.4074 755.772,-37.5013 766.692,-27.9278"/>
<polygon fill="midnightblue" stroke="midnightblue" points="769.221,-30.3652 774.433,-21.141 764.606,-25.1016 769.221,-30.3652"/>
</g>
</g>
</svg>
