<?xml version="1.0" encoding="UTF-8" standalone="no"?>
<!DOCTYPE svg PUBLIC "-//W3C//DTD SVG 1.1//EN"
 "http://www.w3.org/Graphics/SVG/1.1/DTD/svg11.dtd">
<!-- Generated by graphviz version 2.38.0 (20140413.2041)
 -->
<!-- Title: ClientApp.h Pages: 1 -->
<svg width="170pt" height="84pt"
 viewBox="0.00 0.00 170.00 84.00" xmlns="http://www.w3.org/2000/svg" xmlns:xlink="http://www.w3.org/1999/xlink">
<g id="graph0" class="graph" transform="scale(1 1) rotate(0) translate(4 80)">
<title>ClientApp.h</title>
<!-- Node1 -->
<g id="node1" class="node"><title>Node1</title>
<polygon fill="#bfbfbf" stroke="black" points="51,-56.5 51,-75.5 122,-75.5 122,-56.5 51,-56.5"/>
<text text-anchor="middle" x="86.5" y="-63.5" font-family="FreeSans" font-size="10.00">ClientApp.h</text>
</g>
<!-- Node2 -->
<g id="node2" class="node"><title>Node2</title>
<g id="a_node2"><a xlink:href="_client_app_8cpp.html" target="_top" xlink:title="ClientApp.cpp">
<polygon fill="none" stroke="black" points="0,-0.5 0,-19.5 83,-19.5 83,-0.5 0,-0.5"/>
<text text-anchor="middle" x="41.5" y="-7.5" font-family="FreeSans" font-size="10.00">ClientApp.cpp</text>
</a>
</g>
</g>
<!-- Node1&#45;&gt;Node2 -->
<g id="edge1" class="edge"><title>Node1&#45;&gt;Node2</title>
<path fill="none" stroke="midnightblue" d="M72.4533,-48.144C64.6131,-38.7357 55.1705,-27.4046 48.7926,-19.7511"/>
<polygon fill="midnightblue" stroke="midnightblue" points="69.9785,-50.6414 79.0692,-56.083 75.3561,-46.1601 69.9785,-50.6414"/>
</g>
<!-- Node3 -->
<g id="node3" class="node"><title>Node3</title>
<g id="a_node3"><a xlink:href="main_8cpp.html" target="_top" xlink:title="main.cpp">
<polygon fill="none" stroke="black" points="101,-0.5 101,-19.5 162,-19.5 162,-0.5 101,-0.5"/>
<text text-anchor="middle" x="131.5" y="-7.5" font-family="FreeSans" font-size="10.00">main.cpp</text>
</a>
</g>
</g>
<!-- Node1&#45;&gt;Node3 -->
<g id="edge2" class="edge"><title>Node1&#45;&gt;Node3</title>
<path fill="none" stroke="midnightblue" d="M100.547,-48.144C108.387,-38.7357 117.829,-27.4046 124.207,-19.7511"/>
<polygon fill="midnightblue" stroke="midnightblue" points="97.6439,-46.1601 93.9308,-56.083 103.021,-50.6414 97.6439,-46.1601"/>
</g>
</g>
</svg>
