<?xml version="1.0" encoding="UTF-8" standalone="no"?>
<!DOCTYPE svg PUBLIC "-//W3C//DTD SVG 1.1//EN"
 "http://www.w3.org/Graphics/SVG/1.1/DTD/svg11.dtd">
<!-- Generated by graphviz version 2.38.0 (20140413.2041)
 -->
<!-- Title: ClientApp.h Pages: 1 -->
<svg width="1363pt" height="621pt"
 viewBox="0.00 0.00 1362.50 621.00" xmlns="http://www.w3.org/2000/svg" xmlns:xlink="http://www.w3.org/1999/xlink">
<g id="graph0" class="graph" transform="scale(1 1) rotate(0) translate(4 617)">
<title>ClientApp.h</title>
<!-- Node1 -->
<g id="node1" class="node"><title>Node1</title>
<polygon fill="#bfbfbf" stroke="black" points="1145,-593.5 1145,-612.5 1216,-612.5 1216,-593.5 1145,-593.5"/>
<text text-anchor="middle" x="1180.5" y="-600.5" font-family="FreeSans" font-size="10.00">ClientApp.h</text>
</g>
<!-- Node2 -->
<g id="node2" class="node"><title>Node2</title>
<g id="a_node2"><a xlink:href="_o_s_8h.html" target="_top" xlink:title="../../engine/Util/OS.h">
<polygon fill="none" stroke="black" points="1135.5,-112.5 1135.5,-131.5 1247.5,-131.5 1247.5,-112.5 1135.5,-112.5"/>
<text text-anchor="middle" x="1191.5" y="-119.5" font-family="FreeSans" font-size="10.00">../../engine/Util/OS.h</text>
</a>
</g>
</g>
<!-- Node1&#45;&gt;Node2 -->
<g id="edge1" class="edge"><title>Node1&#45;&gt;Node2</title>
<path fill="none" stroke="midnightblue" d="M1180.5,-593.307C1180.5,-574.062 1180.5,-526.404 1180.5,-486.5 1180.5,-486.5 1180.5,-486.5 1180.5,-238.5 1180.5,-204.209 1185.36,-164.449 1188.62,-141.657"/>
<polygon fill="midnightblue" stroke="midnightblue" points="1192.1,-142.072 1190.11,-131.667 1185.18,-141.044 1192.1,-142.072"/>
</g>
<!-- Node10 -->
<g id="node10" class="node"><title>Node10</title>
<g id="a_node10"><a xlink:href="_observer_8h.html" target="_top" xlink:title="Observer.h">
<polygon fill="none" stroke="black" points="338.5,-537.5 338.5,-556.5 406.5,-556.5 406.5,-537.5 338.5,-537.5"/>
<text text-anchor="middle" x="372.5" y="-544.5" font-family="FreeSans" font-size="10.00">Observer.h</text>
</a>
</g>
</g>
<!-- Node1&#45;&gt;Node10 -->
<g id="edge9" class="edge"><title>Node1&#45;&gt;Node10</title>
<path fill="none" stroke="midnightblue" d="M1144.74,-599.61C1013.94,-590.868 561.617,-560.639 417.196,-550.987"/>
<polygon fill="midnightblue" stroke="midnightblue" points="417.153,-547.477 406.942,-550.302 416.686,-554.461 417.153,-547.477"/>
</g>
<!-- Node41 -->
<g id="node41" class="node"><title>Node41</title>
<g id="a_node41"><a xlink:href="_game_director_8h.html" target="_top" xlink:title="GameDirector.h">
<polygon fill="none" stroke="black" points="1208.5,-537.5 1208.5,-556.5 1300.5,-556.5 1300.5,-537.5 1208.5,-537.5"/>
<text text-anchor="middle" x="1254.5" y="-544.5" font-family="FreeSans" font-size="10.00">GameDirector.h</text>
</a>
</g>
</g>
<!-- Node1&#45;&gt;Node41 -->
<g id="edge64" class="edge"><title>Node1&#45;&gt;Node41</title>
<path fill="none" stroke="midnightblue" d="M1192.39,-593.324C1203.65,-585.107 1220.79,-572.602 1234.21,-562.807"/>
<polygon fill="midnightblue" stroke="midnightblue" points="1236.38,-565.556 1242.39,-556.834 1232.25,-559.901 1236.38,-565.556"/>
</g>
<!-- Node3 -->
<g id="node3" class="node"><title>Node3</title>
<polygon fill="none" stroke="#bfbfbf" points="1126.5,-56.5 1126.5,-75.5 1170.5,-75.5 1170.5,-56.5 1126.5,-56.5"/>
<text text-anchor="middle" x="1148.5" y="-63.5" font-family="FreeSans" font-size="10.00">locale</text>
</g>
<!-- Node2&#45;&gt;Node3 -->
<g id="edge2" class="edge"><title>Node2&#45;&gt;Node3</title>
<path fill="none" stroke="midnightblue" d="M1184.4,-112.083C1178.26,-104.377 1169.23,-93.0333 1161.76,-83.6531"/>
<polygon fill="midnightblue" stroke="midnightblue" points="1164.44,-81.3936 1155.47,-75.7511 1158.96,-85.7542 1164.44,-81.3936"/>
</g>
<!-- Node4 -->
<g id="node4" class="node"><title>Node4</title>
<polygon fill="none" stroke="#bfbfbf" points="1188.5,-56.5 1188.5,-75.5 1220.5,-75.5 1220.5,-56.5 1188.5,-56.5"/>
<text text-anchor="middle" x="1204.5" y="-63.5" font-family="FreeSans" font-size="10.00">set</text>
</g>
<!-- Node2&#45;&gt;Node4 -->
<g id="edge3" class="edge"><title>Node2&#45;&gt;Node4</title>
<path fill="none" stroke="midnightblue" d="M1193.65,-112.083C1195.37,-104.927 1197.85,-94.6353 1200,-85.6911"/>
<polygon fill="midnightblue" stroke="midnightblue" points="1203.46,-86.2925 1202.39,-75.7511 1196.65,-84.6541 1203.46,-86.2925"/>
</g>
<!-- Node5 -->
<g id="node5" class="node"><title>Node5</title>
<polygon fill="none" stroke="#bfbfbf" points="982.5,-56.5 982.5,-75.5 1026.5,-75.5 1026.5,-56.5 982.5,-56.5"/>
<text text-anchor="middle" x="1004.5" y="-63.5" font-family="FreeSans" font-size="10.00">string</text>
</g>
<!-- Node2&#45;&gt;Node5 -->
<g id="edge4" class="edge"><title>Node2&#45;&gt;Node5</title>
<path fill="none" stroke="midnightblue" d="M1161.88,-112.472C1132.46,-103.998 1085.8,-90.5485 1036.42,-76.2632"/>
<polygon fill="midnightblue" stroke="midnightblue" points="1037.09,-72.814 1026.51,-73.3962 1035.15,-79.5381 1037.09,-72.814"/>
</g>
<!-- Node6 -->
<g id="node6" class="node"><title>Node6</title>
<polygon fill="none" stroke="#bfbfbf" points="821,-56.5 821,-75.5 868,-75.5 868,-56.5 821,-56.5"/>
<text text-anchor="middle" x="844.5" y="-63.5" font-family="FreeSans" font-size="10.00">vector</text>
</g>
<!-- Node2&#45;&gt;Node6 -->
<g id="edge5" class="edge"><title>Node2&#45;&gt;Node6</title>
<path fill="none" stroke="midnightblue" d="M1136.52,-112.444C1063.86,-101.137 938.102,-81.5664 878.158,-72.2378"/>
<polygon fill="midnightblue" stroke="midnightblue" points="878.517,-68.7517 868.098,-70.6723 877.441,-75.6685 878.517,-68.7517"/>
</g>
<!-- Node7 -->
<g id="node7" class="node"><title>Node7</title>
<polygon fill="none" stroke="#bfbfbf" points="1238.5,-56.5 1238.5,-75.5 1354.5,-75.5 1354.5,-56.5 1238.5,-56.5"/>
<text text-anchor="middle" x="1296.5" y="-63.5" font-family="FreeSans" font-size="10.00">boost/filesystem.hpp</text>
</g>
<!-- Node2&#45;&gt;Node7 -->
<g id="edge6" class="edge"><title>Node2&#45;&gt;Node7</title>
<path fill="none" stroke="midnightblue" d="M1208.37,-112.324C1225.21,-103.664 1251.31,-90.2424 1270.74,-80.249"/>
<polygon fill="midnightblue" stroke="midnightblue" points="1272.38,-83.3405 1279.67,-75.6545 1269.18,-77.1155 1272.38,-83.3405"/>
</g>
<!-- Node8 -->
<g id="node8" class="node"><title>Node8</title>
<g id="a_node8"><a xlink:href="_m_r___types_8h.html" target="_top" xlink:title="MR_Types.h">
<polygon fill="none" stroke="black" points="501,-56.5 501,-75.5 572,-75.5 572,-56.5 501,-56.5"/>
<text text-anchor="middle" x="536.5" y="-63.5" font-family="FreeSans" font-size="10.00">MR_Types.h</text>
</a>
</g>
</g>
<!-- Node2&#45;&gt;Node8 -->
<g id="edge7" class="edge"><title>Node2&#45;&gt;Node8</title>
<path fill="none" stroke="midnightblue" d="M1135.36,-113.114C1132.02,-112.717 1128.72,-112.342 1125.5,-112 923.544,-90.5345 681.578,-75.3506 582.356,-69.575"/>
<polygon fill="midnightblue" stroke="midnightblue" points="582.273,-66.0645 572.087,-68.9813 581.868,-73.0528 582.273,-66.0645"/>
</g>
<!-- Node9 -->
<g id="node9" class="node"><title>Node9</title>
<polygon fill="none" stroke="#bfbfbf" points="504.5,-0.5 504.5,-19.5 568.5,-19.5 568.5,-0.5 504.5,-0.5"/>
<text text-anchor="middle" x="536.5" y="-7.5" font-family="FreeSans" font-size="10.00">inttypes.h</text>
</g>
<!-- Node8&#45;&gt;Node9 -->
<g id="edge8" class="edge"><title>Node8&#45;&gt;Node9</title>
<path fill="none" stroke="midnightblue" d="M536.5,-56.083C536.5,-49.0059 536.5,-38.8611 536.5,-29.9865"/>
<polygon fill="midnightblue" stroke="midnightblue" points="540,-29.751 536.5,-19.7511 533,-29.7511 540,-29.751"/>
</g>
<!-- Node11 -->
<g id="node11" class="node"><title>Node11</title>
<g id="a_node11"><a xlink:href="_hud_cell_8h.html" target="_top" xlink:title="../../engine/Display\l/HudCell.h">
<polygon fill="none" stroke="black" points="240.5,-470.5 240.5,-500.5 344.5,-500.5 344.5,-470.5 240.5,-470.5"/>
<text text-anchor="start" x="248.5" y="-488.5" font-family="FreeSans" font-size="10.00">../../engine/Display</text>
<text text-anchor="middle" x="292.5" y="-477.5" font-family="FreeSans" font-size="10.00">/HudCell.h</text>
</a>
</g>
</g>
<!-- Node10&#45;&gt;Node11 -->
<g id="edge10" class="edge"><title>Node10&#45;&gt;Node11</title>
<path fill="none" stroke="midnightblue" d="M361.038,-537.475C350.304,-529.492 333.85,-517.254 319.754,-506.77"/>
<polygon fill="midnightblue" stroke="midnightblue" points="321.467,-503.682 311.354,-500.523 317.29,-509.299 321.467,-503.682"/>
</g>
<!-- Node12 -->
<g id="node12" class="node"><title>Node12</title>
<g id="a_node12"><a xlink:href="_viewport3_d_8h.html" target="_top" xlink:title="../../engine/VideoServices\l/Viewport3D.h">
<polygon fill="none" stroke="black" points="408,-224.5 408,-254.5 545,-254.5 545,-224.5 408,-224.5"/>
<text text-anchor="start" x="416" y="-242.5" font-family="FreeSans" font-size="10.00">../../engine/VideoServices</text>
<text text-anchor="middle" x="476.5" y="-231.5" font-family="FreeSans" font-size="10.00">/Viewport3D.h</text>
</a>
</g>
</g>
<!-- Node10&#45;&gt;Node12 -->
<g id="edge11" class="edge"><title>Node10&#45;&gt;Node12</title>
<path fill="none" stroke="midnightblue" d="M372.5,-537.491C372.5,-517.736 372.5,-467.224 372.5,-425 372.5,-425 372.5,-425 372.5,-361.5 372.5,-329.049 371.887,-316.854 391.5,-291 401.542,-277.763 416.142,-267.316 430.418,-259.442"/>
<polygon fill="midnightblue" stroke="midnightblue" points="432.43,-262.341 439.701,-254.635 429.212,-256.125 432.43,-262.341"/>
</g>
<!-- Node19 -->
<g id="node19" class="node"><title>Node19</title>
<g id="a_node19"><a xlink:href="_main_character_8h.html" target="_top" xlink:title="../../engine/MainCharacter\l/MainCharacter.h">
<polygon fill="none" stroke="black" points="201.5,-347.5 201.5,-377.5 341.5,-377.5 341.5,-347.5 201.5,-347.5"/>
<text text-anchor="start" x="209.5" y="-365.5" font-family="FreeSans" font-size="10.00">../../engine/MainCharacter</text>
<text text-anchor="middle" x="271.5" y="-354.5" font-family="FreeSans" font-size="10.00">/MainCharacter.h</text>
</a>
</g>
</g>
<!-- Node10&#45;&gt;Node19 -->
<g id="edge22" class="edge"><title>Node10&#45;&gt;Node19</title>
<path fill="none" stroke="midnightblue" d="M338.43,-545.788C305.074,-543.534 255.828,-534.302 231.5,-501 205.982,-466.07 233.632,-415.101 253.963,-386.033"/>
<polygon fill="midnightblue" stroke="midnightblue" points="256.928,-387.906 259.97,-377.757 251.263,-383.794 256.928,-387.906"/>
</g>
<!-- Node32 -->
<g id="node32" class="node"><title>Node32</title>
<g id="a_node32"><a xlink:href="_sprite_handle_8h.html" target="_top" xlink:title="../../engine/ObjFacTools\l/SpriteHandle.h">
<polygon fill="none" stroke="black" points="896,-470.5 896,-500.5 1021,-500.5 1021,-470.5 896,-470.5"/>
<text text-anchor="start" x="904" y="-488.5" font-family="FreeSans" font-size="10.00">../../engine/ObjFacTools</text>
<text text-anchor="middle" x="958.5" y="-477.5" font-family="FreeSans" font-size="10.00">/SpriteHandle.h</text>
</a>
</g>
</g>
<!-- Node10&#45;&gt;Node32 -->
<g id="edge47" class="edge"><title>Node10&#45;&gt;Node32</title>
<path fill="none" stroke="midnightblue" d="M406.539,-542.544C499.293,-533.126 758.058,-506.852 885.579,-493.904"/>
<polygon fill="midnightblue" stroke="midnightblue" points="886.049,-497.374 895.644,-492.882 885.342,-490.41 886.049,-497.374"/>
</g>
<!-- Node13 -->
<g id="node13" class="node"><title>Node13</title>
<g id="a_node13"><a xlink:href="_viewport2_d_8h.html" target="_top" xlink:title="Viewport2D.h">
<polygon fill="none" stroke="black" points="595.5,-168.5 595.5,-187.5 675.5,-187.5 675.5,-168.5 595.5,-168.5"/>
<text text-anchor="middle" x="635.5" y="-175.5" font-family="FreeSans" font-size="10.00">Viewport2D.h</text>
</a>
</g>
</g>
<!-- Node12&#45;&gt;Node13 -->
<g id="edge12" class="edge"><title>Node12&#45;&gt;Node13</title>
<path fill="none" stroke="midnightblue" d="M514.181,-224.399C541.096,-214.327 576.952,-200.909 602.693,-191.277"/>
<polygon fill="midnightblue" stroke="midnightblue" points="604.225,-194.441 612.364,-187.658 601.772,-187.885 604.225,-194.441"/>
</g>
<!-- Node14 -->
<g id="node14" class="node"><title>Node14</title>
<g id="a_node14"><a xlink:href="_color_palette_8h.html" target="_top" xlink:title="ColorPalette.h">
<polygon fill="none" stroke="black" points="308,-168.5 308,-187.5 391,-187.5 391,-168.5 308,-168.5"/>
<text text-anchor="middle" x="349.5" y="-175.5" font-family="FreeSans" font-size="10.00">ColorPalette.h</text>
</a>
</g>
</g>
<!-- Node12&#45;&gt;Node14 -->
<g id="edge14" class="edge"><title>Node12&#45;&gt;Node14</title>
<path fill="none" stroke="midnightblue" d="M446.403,-224.399C425.38,-214.55 397.528,-201.501 377.081,-191.922"/>
<polygon fill="midnightblue" stroke="midnightblue" points="378.52,-188.731 367.98,-187.658 375.55,-195.07 378.52,-188.731"/>
</g>
<!-- Node16 -->
<g id="node16" class="node"><title>Node16</title>
<g id="a_node16"><a xlink:href="_bitmap_8h.html" target="_top" xlink:title="Bitmap.h">
<polygon fill="none" stroke="black" points="409.5,-168.5 409.5,-187.5 469.5,-187.5 469.5,-168.5 409.5,-168.5"/>
<text text-anchor="middle" x="439.5" y="-175.5" font-family="FreeSans" font-size="10.00">Bitmap.h</text>
</a>
</g>
</g>
<!-- Node12&#45;&gt;Node16 -->
<g id="edge17" class="edge"><title>Node12&#45;&gt;Node16</title>
<path fill="none" stroke="midnightblue" d="M467.732,-224.399C462.521,-216.021 455.871,-205.327 450.334,-196.423"/>
<polygon fill="midnightblue" stroke="midnightblue" points="453.137,-194.302 444.884,-187.658 447.192,-197.998 453.137,-194.302"/>
</g>
<!-- Node17 -->
<g id="node17" class="node"><title>Node17</title>
<g id="a_node17"><a xlink:href="_patch_8h.html" target="_top" xlink:title="Patch.h">
<polygon fill="none" stroke="black" points="487.5,-168.5 487.5,-187.5 539.5,-187.5 539.5,-168.5 487.5,-168.5"/>
<text text-anchor="middle" x="513.5" y="-175.5" font-family="FreeSans" font-size="10.00">Patch.h</text>
</a>
</g>
</g>
<!-- Node12&#45;&gt;Node17 -->
<g id="edge19" class="edge"><title>Node12&#45;&gt;Node17</title>
<path fill="none" stroke="midnightblue" d="M485.268,-224.399C490.479,-216.021 497.129,-205.327 502.666,-196.423"/>
<polygon fill="midnightblue" stroke="midnightblue" points="505.808,-197.998 508.116,-187.658 499.863,-194.302 505.808,-197.998"/>
</g>
<!-- Node13&#45;&gt;Node8 -->
<g id="edge13" class="edge"><title>Node13&#45;&gt;Node8</title>
<path fill="none" stroke="midnightblue" d="M634.546,-168.499C632.658,-155.135 627.354,-128.988 613.5,-112 601.912,-97.7903 584.568,-87.0977 569.273,-79.7089"/>
<polygon fill="midnightblue" stroke="midnightblue" points="570.636,-76.4841 560.084,-75.5334 567.74,-82.8569 570.636,-76.4841"/>
</g>
<!-- Node14&#45;&gt;Node8 -->
<g id="edge16" class="edge"><title>Node14&#45;&gt;Node8</title>
<path fill="none" stroke="midnightblue" d="M360.847,-168.436C378.315,-155.437 413.073,-130.308 444.5,-112 465.077,-100.013 489.304,-88.2521 507.73,-79.7612"/>
<polygon fill="midnightblue" stroke="midnightblue" points="509.398,-82.8476 517.048,-75.5178 506.496,-76.4772 509.398,-82.8476"/>
</g>
<!-- Node15 -->
<g id="node15" class="node"><title>Node15</title>
<polygon fill="none" stroke="#bfbfbf" points="299.5,-112.5 299.5,-131.5 373.5,-131.5 373.5,-112.5 299.5,-112.5"/>
<text text-anchor="middle" x="336.5" y="-119.5" font-family="FreeSans" font-size="10.00">SDL2/SDL.h</text>
</g>
<!-- Node14&#45;&gt;Node15 -->
<g id="edge15" class="edge"><title>Node14&#45;&gt;Node15</title>
<path fill="none" stroke="midnightblue" d="M347.353,-168.083C345.631,-160.927 343.153,-150.635 341,-141.691"/>
<polygon fill="midnightblue" stroke="midnightblue" points="344.35,-140.654 338.607,-131.751 337.545,-142.293 344.35,-140.654"/>
</g>
<!-- Node16&#45;&gt;Node8 -->
<g id="edge18" class="edge"><title>Node16&#45;&gt;Node8</title>
<path fill="none" stroke="midnightblue" d="M440.031,-168.064C441.254,-154.58 445.28,-128.826 458.5,-112 469.778,-97.6457 486.995,-87.024 502.387,-79.7162"/>
<polygon fill="midnightblue" stroke="midnightblue" points="503.95,-82.8516 511.666,-75.5905 501.106,-76.4554 503.95,-82.8516"/>
</g>
<!-- Node18 -->
<g id="node18" class="node"><title>Node18</title>
<g id="a_node18"><a xlink:href="_world_coordinates_8h.html" target="_top" xlink:title="../Util/WorldCoordinates.h">
<polygon fill="none" stroke="black" points="468,-112.5 468,-131.5 605,-131.5 605,-112.5 468,-112.5"/>
<text text-anchor="middle" x="536.5" y="-119.5" font-family="FreeSans" font-size="10.00">../Util/WorldCoordinates.h</text>
</a>
</g>
</g>
<!-- Node17&#45;&gt;Node18 -->
<g id="edge20" class="edge"><title>Node17&#45;&gt;Node18</title>
<path fill="none" stroke="midnightblue" d="M517.298,-168.083C520.413,-160.77 524.923,-150.181 528.789,-141.103"/>
<polygon fill="midnightblue" stroke="midnightblue" points="532.074,-142.323 532.773,-131.751 525.634,-139.58 532.074,-142.323"/>
</g>
<!-- Node18&#45;&gt;Node8 -->
<g id="edge21" class="edge"><title>Node18&#45;&gt;Node8</title>
<path fill="none" stroke="midnightblue" d="M536.5,-112.083C536.5,-105.006 536.5,-94.8611 536.5,-85.9865"/>
<polygon fill="midnightblue" stroke="midnightblue" points="540,-85.751 536.5,-75.7511 533,-85.7511 540,-85.751"/>
</g>
<!-- Node20 -->
<g id="node20" class="node"><title>Node20</title>
<g id="a_node20"><a xlink:href="_color_8h.html" target="_top" xlink:title="../Display/Color.h">
<polygon fill="none" stroke="black" points="106.5,-168.5 106.5,-187.5 202.5,-187.5 202.5,-168.5 106.5,-168.5"/>
<text text-anchor="middle" x="154.5" y="-175.5" font-family="FreeSans" font-size="10.00">../Display/Color.h</text>
</a>
</g>
</g>
<!-- Node19&#45;&gt;Node20 -->
<g id="edge23" class="edge"><title>Node19&#45;&gt;Node20</title>
<path fill="none" stroke="midnightblue" d="M253.321,-347.479C241.981,-338.063 227.662,-324.877 217.5,-311 190.468,-274.088 170.28,-223.748 160.692,-197.166"/>
<polygon fill="midnightblue" stroke="midnightblue" points="163.959,-195.904 157.343,-187.629 157.354,-198.223 163.959,-195.904"/>
</g>
<!-- Node23 -->
<g id="node23" class="node"><title>Node23</title>
<g id="a_node23"><a xlink:href="_maze_element_8h.html" target="_top" xlink:title="../Model/MazeElement.h">
<polygon fill="none" stroke="black" points="486,-291.5 486,-310.5 617,-310.5 617,-291.5 486,-291.5"/>
<text text-anchor="middle" x="551.5" y="-298.5" font-family="FreeSans" font-size="10.00">../Model/MazeElement.h</text>
</a>
</g>
</g>
<!-- Node19&#45;&gt;Node23 -->
<g id="edge28" class="edge"><title>Node19&#45;&gt;Node23</title>
<path fill="none" stroke="midnightblue" d="M337.502,-347.475C387.706,-336.806 455.726,-322.352 501.487,-312.628"/>
<polygon fill="midnightblue" stroke="midnightblue" points="502.416,-316.009 511.47,-310.506 500.961,-309.161 502.416,-316.009"/>
</g>
<!-- Node30 -->
<g id="node30" class="node"><title>Node30</title>
<g id="a_node30"><a xlink:href="_physical_collision_8h.html" target="_top" xlink:title="../Model/PhysicalCollision.h">
<polygon fill="none" stroke="black" points="635,-291.5 635,-310.5 778,-310.5 778,-291.5 635,-291.5"/>
<text text-anchor="middle" x="706.5" y="-298.5" font-family="FreeSans" font-size="10.00">../Model/PhysicalCollision.h</text>
</a>
</g>
</g>
<!-- Node19&#45;&gt;Node30 -->
<g id="edge42" class="edge"><title>Node19&#45;&gt;Node30</title>
<path fill="none" stroke="midnightblue" d="M341.874,-351.874C422.236,-340.882 553.045,-322.99 634.202,-311.889"/>
<polygon fill="midnightblue" stroke="midnightblue" points="634.902,-315.326 644.335,-310.503 633.953,-308.391 634.902,-315.326"/>
</g>
<!-- Node31 -->
<g id="node31" class="node"><title>Node31</title>
<g id="a_node31"><a xlink:href="_fast_fifo_8h.html" target="_top" xlink:title="../Util/FastFifo.h">
<polygon fill="none" stroke="black" points="227,-291.5 227,-310.5 316,-310.5 316,-291.5 227,-291.5"/>
<text text-anchor="middle" x="271.5" y="-298.5" font-family="FreeSans" font-size="10.00">../Util/FastFifo.h</text>
</a>
</g>
</g>
<!-- Node19&#45;&gt;Node31 -->
<g id="edge45" class="edge"><title>Node19&#45;&gt;Node31</title>
<path fill="none" stroke="midnightblue" d="M271.5,-347.399C271.5,-339.466 271.5,-329.458 271.5,-320.858"/>
<polygon fill="midnightblue" stroke="midnightblue" points="275,-320.658 271.5,-310.658 268,-320.658 275,-320.658"/>
</g>
<!-- Node20&#45;&gt;Node8 -->
<g id="edge25" class="edge"><title>Node20&#45;&gt;Node8</title>
<path fill="none" stroke="midnightblue" d="M147.207,-168.31C136.686,-154.688 120.018,-128.194 134.5,-112 157.927,-85.8044 390.488,-73.0619 490.817,-68.7497"/>
<polygon fill="midnightblue" stroke="midnightblue" points="491.113,-72.2405 500.957,-68.3234 490.819,-65.2467 491.113,-72.2405"/>
</g>
<!-- Node21 -->
<g id="node21" class="node"><title>Node21</title>
<polygon fill="none" stroke="#bfbfbf" points="143.5,-112.5 143.5,-131.5 243.5,-131.5 243.5,-112.5 143.5,-112.5"/>
<text text-anchor="middle" x="193.5" y="-119.5" font-family="FreeSans" font-size="10.00">boost/format.hpp</text>
</g>
<!-- Node20&#45;&gt;Node21 -->
<g id="edge24" class="edge"><title>Node20&#45;&gt;Node21</title>
<path fill="none" stroke="midnightblue" d="M160.94,-168.083C166.449,-160.455 174.531,-149.264 181.265,-139.941"/>
<polygon fill="midnightblue" stroke="midnightblue" points="184.162,-141.907 187.18,-131.751 178.487,-137.809 184.162,-141.907"/>
</g>
<!-- Node22 -->
<g id="node22" class="node"><title>Node22</title>
<g id="a_node22"><a xlink:href="_sel_fmt_8h.html" target="_top" xlink:title="../Util/SelFmt.h">
<polygon fill="none" stroke="black" points="0,-112.5 0,-131.5 87,-131.5 87,-112.5 0,-112.5"/>
<text text-anchor="middle" x="43.5" y="-119.5" font-family="FreeSans" font-size="10.00">../Util/SelFmt.h</text>
</a>
</g>
</g>
<!-- Node20&#45;&gt;Node22 -->
<g id="edge26" class="edge"><title>Node20&#45;&gt;Node22</title>
<path fill="none" stroke="midnightblue" d="M136.666,-168.324C118.784,-159.625 91.0249,-146.12 70.4544,-136.113"/>
<polygon fill="midnightblue" stroke="midnightblue" points="71.8133,-132.882 61.2898,-131.655 68.751,-139.177 71.8133,-132.882"/>
</g>
<!-- Node22&#45;&gt;Node8 -->
<g id="edge27" class="edge"><title>Node22&#45;&gt;Node8</title>
<path fill="none" stroke="midnightblue" d="M87.1704,-113.98C92.0005,-113.276 96.8513,-112.601 101.5,-112 243.102,-93.7014 411.403,-78.0035 490.764,-70.9599"/>
<polygon fill="midnightblue" stroke="midnightblue" points="491.252,-74.4306 500.906,-70.0641 490.636,-67.4577 491.252,-74.4306"/>
</g>
<!-- Node23&#45;&gt;Node12 -->
<g id="edge37" class="edge"><title>Node23&#45;&gt;Node12</title>
<path fill="none" stroke="midnightblue" d="M540.754,-291.475C530.692,-283.492 515.266,-271.254 502.051,-260.77"/>
<polygon fill="midnightblue" stroke="midnightblue" points="504.185,-257.996 494.176,-254.523 499.835,-263.48 504.185,-257.996"/>
</g>
<!-- Node24 -->
<g id="node24" class="node"><title>Node24</title>
<g id="a_node24"><a xlink:href="_dll_object_factory_8h.html" target="_top" xlink:title="../Util/DllObjectFactory.h">
<polygon fill="none" stroke="black" points="799,-230 799,-249 928,-249 928,-230 799,-230"/>
<text text-anchor="middle" x="863.5" y="-237" font-family="FreeSans" font-size="10.00">../Util/DllObjectFactory.h</text>
</a>
</g>
</g>
<!-- Node23&#45;&gt;Node24 -->
<g id="edge29" class="edge"><title>Node23&#45;&gt;Node24</title>
<path fill="none" stroke="midnightblue" d="M596.202,-291.475C652.27,-280.783 748.36,-262.458 808.769,-250.937"/>
<polygon fill="midnightblue" stroke="midnightblue" points="809.714,-254.32 818.881,-249.009 808.402,-247.444 809.714,-254.32"/>
</g>
<!-- Node28 -->
<g id="node28" class="node"><title>Node28</title>
<g id="a_node28"><a xlink:href="_contact_effect_8h.html" target="_top" xlink:title="ContactEffect.h">
<polygon fill="none" stroke="black" points="652.5,-230 652.5,-249 742.5,-249 742.5,-230 652.5,-230"/>
<text text-anchor="middle" x="697.5" y="-237" font-family="FreeSans" font-size="10.00">ContactEffect.h</text>
</a>
</g>
</g>
<!-- Node23&#45;&gt;Node28 -->
<g id="edge38" class="edge"><title>Node23&#45;&gt;Node28</title>
<path fill="none" stroke="midnightblue" d="M572.418,-291.475C597.246,-281.357 638.843,-264.405 667.194,-252.851"/>
<polygon fill="midnightblue" stroke="midnightblue" points="668.681,-256.024 676.621,-249.009 666.039,-249.542 668.681,-256.024"/>
</g>
<!-- Node29 -->
<g id="node29" class="node"><title>Node29</title>
<g id="a_node29"><a xlink:href="_shapes_8h.html" target="_top" xlink:title="Shapes.h">
<polygon fill="none" stroke="black" points="563.5,-230 563.5,-249 625.5,-249 625.5,-230 563.5,-230"/>
<text text-anchor="middle" x="594.5" y="-237" font-family="FreeSans" font-size="10.00">Shapes.h</text>
</a>
</g>
</g>
<!-- Node23&#45;&gt;Node29 -->
<g id="edge40" class="edge"><title>Node23&#45;&gt;Node29</title>
<path fill="none" stroke="midnightblue" d="M557.661,-291.475C564.111,-282.55 574.404,-268.307 582.473,-257.143"/>
<polygon fill="midnightblue" stroke="midnightblue" points="585.33,-259.164 588.351,-249.009 579.656,-255.064 585.33,-259.164"/>
</g>
<!-- Node24&#45;&gt;Node8 -->
<g id="edge36" class="edge"><title>Node24&#45;&gt;Node8</title>
<path fill="none" stroke="midnightblue" d="M848.62,-229.851C812.3,-208.843 716.038,-153.782 633.5,-112 610.829,-100.524 584.672,-88.4554 565.237,-79.7087"/>
<polygon fill="midnightblue" stroke="midnightblue" points="566.569,-76.4702 556.011,-75.5788 563.709,-82.8593 566.569,-76.4702"/>
</g>
<!-- Node25 -->
<g id="node25" class="node"><title>Node25</title>
<g id="a_node25"><a xlink:href="_obj_stream_8h.html" target="_top" xlink:title="../Parcel/ObjStream.h">
<polygon fill="none" stroke="black" points="944.5,-168.5 944.5,-187.5 1062.5,-187.5 1062.5,-168.5 944.5,-168.5"/>
<text text-anchor="middle" x="1003.5" y="-175.5" font-family="FreeSans" font-size="10.00">../Parcel/ObjStream.h</text>
</a>
</g>
</g>
<!-- Node24&#45;&gt;Node25 -->
<g id="edge30" class="edge"><title>Node24&#45;&gt;Node25</title>
<path fill="none" stroke="midnightblue" d="M883.559,-229.975C907.262,-219.901 946.906,-203.053 974.083,-191.502"/>
<polygon fill="midnightblue" stroke="midnightblue" points="975.644,-194.642 983.479,-187.509 972.906,-188.199 975.644,-194.642"/>
</g>
<!-- Node25&#45;&gt;Node2 -->
<g id="edge35" class="edge"><title>Node25&#45;&gt;Node2</title>
<path fill="none" stroke="midnightblue" d="M1033.29,-168.444C1065.33,-159.241 1116.43,-144.562 1151.85,-134.388"/>
<polygon fill="midnightblue" stroke="midnightblue" points="1153.21,-137.641 1161.85,-131.516 1151.27,-130.913 1153.21,-137.641"/>
</g>
<!-- Node25&#45;&gt;Node5 -->
<g id="edge31" class="edge"><title>Node25&#45;&gt;Node5</title>
<path fill="none" stroke="midnightblue" d="M1003.58,-168.368C1003.74,-150.617 1004.11,-109.666 1004.33,-85.5974"/>
<polygon fill="midnightblue" stroke="midnightblue" points="1007.83,-85.6229 1004.42,-75.5914 1000.83,-85.5592 1007.83,-85.6229"/>
</g>
<!-- Node25&#45;&gt;Node8 -->
<g id="edge34" class="edge"><title>Node25&#45;&gt;Node8</title>
<path fill="none" stroke="midnightblue" d="M999.36,-168.443C991.863,-153.995 974.555,-125.064 950.5,-112 887.884,-77.995 676.254,-69.6772 582.203,-67.6499"/>
<polygon fill="midnightblue" stroke="midnightblue" points="582.204,-64.1493 572.136,-67.4474 582.063,-71.1479 582.204,-64.1493"/>
</g>
<!-- Node26 -->
<g id="node26" class="node"><title>Node26</title>
<g id="a_node26"><a xlink:href="_exception_8h.html" target="_top" xlink:title="../Exception.h">
<polygon fill="none" stroke="black" points="1036,-112.5 1036,-131.5 1117,-131.5 1117,-112.5 1036,-112.5"/>
<text text-anchor="middle" x="1076.5" y="-119.5" font-family="FreeSans" font-size="10.00">../Exception.h</text>
</a>
</g>
</g>
<!-- Node25&#45;&gt;Node26 -->
<g id="edge32" class="edge"><title>Node25&#45;&gt;Node26</title>
<path fill="none" stroke="midnightblue" d="M1015.23,-168.324C1026.34,-160.107 1043.24,-147.602 1056.48,-137.807"/>
<polygon fill="midnightblue" stroke="midnightblue" points="1058.6,-140.595 1064.56,-131.834 1054.44,-134.967 1058.6,-140.595"/>
</g>
<!-- Node27 -->
<g id="node27" class="node"><title>Node27</title>
<polygon fill="none" stroke="#bfbfbf" points="1045,-56.5 1045,-75.5 1108,-75.5 1108,-56.5 1045,-56.5"/>
<text text-anchor="middle" x="1076.5" y="-63.5" font-family="FreeSans" font-size="10.00">exception</text>
</g>
<!-- Node26&#45;&gt;Node27 -->
<g id="edge33" class="edge"><title>Node26&#45;&gt;Node27</title>
<path fill="none" stroke="midnightblue" d="M1076.5,-112.083C1076.5,-105.006 1076.5,-94.8611 1076.5,-85.9865"/>
<polygon fill="midnightblue" stroke="midnightblue" points="1080,-85.751 1076.5,-75.7511 1073,-85.7511 1080,-85.751"/>
</g>
<!-- Node28&#45;&gt;Node6 -->
<g id="edge39" class="edge"><title>Node28&#45;&gt;Node6</title>
<path fill="none" stroke="midnightblue" d="M700.271,-229.795C707.672,-207.695 729.803,-148.584 765.5,-112 778.828,-98.3408 797.188,-87.5462 812.854,-79.9572"/>
<polygon fill="midnightblue" stroke="midnightblue" points="814.578,-83.0167 822.192,-75.6492 811.645,-76.6606 814.578,-83.0167"/>
</g>
<!-- Node29&#45;&gt;Node18 -->
<g id="edge41" class="edge"><title>Node29&#45;&gt;Node18</title>
<path fill="none" stroke="midnightblue" d="M590.141,-229.819C580.693,-211.006 558.167,-166.148 545.517,-140.955"/>
<polygon fill="midnightblue" stroke="midnightblue" points="548.525,-139.148 540.91,-131.782 542.27,-142.289 548.525,-139.148"/>
</g>
<!-- Node30&#45;&gt;Node28 -->
<g id="edge43" class="edge"><title>Node30&#45;&gt;Node28</title>
<path fill="none" stroke="midnightblue" d="M705.211,-291.475C703.941,-283.08 701.959,-269.981 700.323,-259.163"/>
<polygon fill="midnightblue" stroke="midnightblue" points="703.743,-258.373 698.787,-249.009 696.822,-259.42 703.743,-258.373"/>
</g>
<!-- Node30&#45;&gt;Node29 -->
<g id="edge44" class="edge"><title>Node30&#45;&gt;Node29</title>
<path fill="none" stroke="midnightblue" d="M690.453,-291.475C671.907,-281.622 641.16,-265.288 619.478,-253.77"/>
<polygon fill="midnightblue" stroke="midnightblue" points="620.99,-250.61 610.517,-249.009 617.706,-256.792 620.99,-250.61"/>
</g>
<!-- Node31&#45;&gt;Node8 -->
<g id="edge46" class="edge"><title>Node31&#45;&gt;Node8</title>
<path fill="none" stroke="midnightblue" d="M269.227,-291.479C261.956,-262.113 242.444,-164.073 290.5,-112 316.928,-83.3627 427.247,-72.7607 490.814,-68.9817"/>
<polygon fill="midnightblue" stroke="midnightblue" points="491.185,-72.4665 500.973,-68.4121 490.793,-65.4775 491.185,-72.4665"/>
</g>
<!-- Node32&#45;&gt;Node26 -->
<g id="edge48" class="edge"><title>Node32&#45;&gt;Node26</title>
<path fill="none" stroke="midnightblue" d="M993.527,-470.44C1032.63,-452.155 1090.5,-416.194 1090.5,-363.5 1090.5,-363.5 1090.5,-363.5 1090.5,-238.5 1090.5,-204.114 1084.31,-164.385 1080.16,-141.625"/>
<polygon fill="midnightblue" stroke="midnightblue" points="1083.57,-140.825 1078.27,-131.65 1076.69,-142.126 1083.57,-140.825"/>
</g>
<!-- Node33 -->
<g id="node33" class="node"><title>Node33</title>
<g id="a_node33"><a xlink:href="_resource_lib_8h.html" target="_top" xlink:title="ResourceLib.h">
<polygon fill="none" stroke="black" points="917,-414.5 917,-433.5 1000,-433.5 1000,-414.5 917,-414.5"/>
<text text-anchor="middle" x="958.5" y="-421.5" font-family="FreeSans" font-size="10.00">ResourceLib.h</text>
</a>
</g>
</g>
<!-- Node32&#45;&gt;Node33 -->
<g id="edge49" class="edge"><title>Node32&#45;&gt;Node33</title>
<path fill="none" stroke="midnightblue" d="M958.5,-470.399C958.5,-462.466 958.5,-452.458 958.5,-443.858"/>
<polygon fill="midnightblue" stroke="midnightblue" points="962,-443.658 958.5,-433.658 955,-443.658 962,-443.658"/>
</g>
<!-- Node33&#45;&gt;Node2 -->
<g id="edge51" class="edge"><title>Node33&#45;&gt;Node2</title>
<path fill="none" stroke="midnightblue" d="M978.084,-414.468C994.318,-406.692 1017.28,-393.99 1033.5,-378 1053.27,-358.51 1149.72,-194.578 1181.4,-140.344"/>
<polygon fill="midnightblue" stroke="midnightblue" points="1184.51,-141.955 1186.53,-131.553 1178.46,-138.427 1184.51,-141.955"/>
</g>
<!-- Node34 -->
<g id="node34" class="node"><title>Node34</title>
<polygon fill="none" stroke="#bfbfbf" points="986.5,-353 986.5,-372 1024.5,-372 1024.5,-353 986.5,-353"/>
<text text-anchor="middle" x="1005.5" y="-360" font-family="FreeSans" font-size="10.00">map</text>
</g>
<!-- Node33&#45;&gt;Node34 -->
<g id="edge50" class="edge"><title>Node33&#45;&gt;Node34</title>
<path fill="none" stroke="midnightblue" d="M965.234,-414.475C972.284,-405.55 983.535,-391.307 992.354,-380.143"/>
<polygon fill="midnightblue" stroke="midnightblue" points="995.326,-382.026 998.779,-372.009 989.833,-377.687 995.326,-382.026"/>
</g>
<!-- Node35 -->
<g id="node35" class="node"><title>Node35</title>
<g id="a_node35"><a xlink:href="_res_actor_8h.html" target="_top" xlink:title="ResActor.h">
<polygon fill="none" stroke="black" points="401,-291.5 401,-310.5 468,-310.5 468,-291.5 401,-291.5"/>
<text text-anchor="middle" x="434.5" y="-298.5" font-family="FreeSans" font-size="10.00">ResActor.h</text>
</a>
</g>
</g>
<!-- Node33&#45;&gt;Node35 -->
<g id="edge52" class="edge"><title>Node33&#45;&gt;Node35</title>
<path fill="none" stroke="midnightblue" d="M921.653,-414.492C827.623,-392.779 579.084,-335.387 478.092,-312.066"/>
<polygon fill="midnightblue" stroke="midnightblue" points="478.752,-308.626 468.221,-309.787 477.177,-315.447 478.752,-308.626"/>
</g>
<!-- Node37 -->
<g id="node37" class="node"><title>Node37</title>
<g id="a_node37"><a xlink:href="_res_sprite_8h.html" target="_top" xlink:title="ResSprite.h">
<polygon fill="none" stroke="black" points="844,-353 844,-372 915,-372 915,-353 844,-353"/>
<text text-anchor="middle" x="879.5" y="-360" font-family="FreeSans" font-size="10.00">ResSprite.h</text>
</a>
</g>
</g>
<!-- Node33&#45;&gt;Node37 -->
<g id="edge56" class="edge"><title>Node33&#45;&gt;Node37</title>
<path fill="none" stroke="midnightblue" d="M947.181,-414.475C934.627,-405.02 914.149,-389.596 899.001,-378.187"/>
<polygon fill="midnightblue" stroke="midnightblue" points="900.891,-375.23 890.798,-372.009 896.68,-380.821 900.891,-375.23"/>
</g>
<!-- Node39 -->
<g id="node39" class="node"><title>Node39</title>
<g id="a_node39"><a xlink:href="_res_sound_8h.html" target="_top" xlink:title="ResSound.h">
<polygon fill="none" stroke="black" points="822,-168.5 822,-187.5 895,-187.5 895,-168.5 822,-168.5"/>
<text text-anchor="middle" x="858.5" y="-175.5" font-family="FreeSans" font-size="10.00">ResSound.h</text>
</a>
</g>
</g>
<!-- Node33&#45;&gt;Node39 -->
<g id="edge60" class="edge"><title>Node33&#45;&gt;Node39</title>
<path fill="none" stroke="midnightblue" d="M960.134,-414.136C965.112,-384.401 977.381,-286.559 936.5,-224 926.797,-209.152 910.375,-198.627 895.095,-191.508"/>
<polygon fill="midnightblue" stroke="midnightblue" points="896.368,-188.246 885.798,-187.508 893.601,-194.676 896.368,-188.246"/>
</g>
<!-- Node35&#45;&gt;Node12 -->
<g id="edge55" class="edge"><title>Node35&#45;&gt;Node12</title>
<path fill="none" stroke="midnightblue" d="M440.518,-291.475C445.781,-284.019 453.663,-272.852 460.71,-262.869"/>
<polygon fill="midnightblue" stroke="midnightblue" points="463.694,-264.711 466.601,-254.523 457.975,-260.674 463.694,-264.711"/>
</g>
<!-- Node36 -->
<g id="node36" class="node"><title>Node36</title>
<g id="a_node36"><a xlink:href="_res_bitmap_8h.html" target="_top" xlink:title="ResBitmap.h">
<polygon fill="none" stroke="black" points="313,-230 313,-249 390,-249 390,-230 313,-230"/>
<text text-anchor="middle" x="351.5" y="-237" font-family="FreeSans" font-size="10.00">ResBitmap.h</text>
</a>
</g>
</g>
<!-- Node35&#45;&gt;Node36 -->
<g id="edge53" class="edge"><title>Node35&#45;&gt;Node36</title>
<path fill="none" stroke="midnightblue" d="M422.608,-291.475C409.295,-281.931 387.5,-266.307 371.543,-254.868"/>
<polygon fill="midnightblue" stroke="midnightblue" points="373.536,-251.991 363.37,-249.009 369.458,-257.68 373.536,-251.991"/>
</g>
<!-- Node36&#45;&gt;Node16 -->
<g id="edge54" class="edge"><title>Node36&#45;&gt;Node16</title>
<path fill="none" stroke="midnightblue" d="M364.108,-229.975C378.223,-220.431 401.331,-204.807 418.249,-193.368"/>
<polygon fill="midnightblue" stroke="midnightblue" points="420.591,-196.01 426.915,-187.509 416.671,-190.211 420.591,-196.01"/>
</g>
<!-- Node38 -->
<g id="node38" class="node"><title>Node38</title>
<g id="a_node38"><a xlink:href="_sprite_8h.html" target="_top" xlink:title="../VideoServices/Sprite.h">
<polygon fill="none" stroke="black" points="796.5,-291.5 796.5,-310.5 930.5,-310.5 930.5,-291.5 796.5,-291.5"/>
<text text-anchor="middle" x="863.5" y="-298.5" font-family="FreeSans" font-size="10.00">../VideoServices/Sprite.h</text>
</a>
</g>
</g>
<!-- Node37&#45;&gt;Node38 -->
<g id="edge57" class="edge"><title>Node37&#45;&gt;Node38</title>
<path fill="none" stroke="midnightblue" d="M877.208,-352.975C874.926,-344.492 871.353,-331.204 868.427,-320.322"/>
<polygon fill="midnightblue" stroke="midnightblue" points="871.765,-319.257 865.788,-310.509 865.005,-321.075 871.765,-319.257"/>
</g>
<!-- Node38&#45;&gt;Node13 -->
<g id="edge58" class="edge"><title>Node38&#45;&gt;Node13</title>
<path fill="none" stroke="midnightblue" d="M848.087,-291.458C832.84,-282.817 809.022,-268.8 789.5,-255 771.702,-242.419 770.337,-234.965 751.5,-224 727.161,-209.832 697.527,-198.423 674.303,-190.638"/>
<polygon fill="midnightblue" stroke="midnightblue" points="675.369,-187.305 664.776,-187.526 673.195,-193.958 675.369,-187.305"/>
</g>
<!-- Node38&#45;&gt;Node24 -->
<g id="edge59" class="edge"><title>Node38&#45;&gt;Node24</title>
<path fill="none" stroke="midnightblue" d="M863.5,-291.475C863.5,-283.08 863.5,-269.981 863.5,-259.163"/>
<polygon fill="midnightblue" stroke="midnightblue" points="867,-259.009 863.5,-249.009 860,-259.009 867,-259.009"/>
</g>
<!-- Node39&#45;&gt;Node8 -->
<g id="edge63" class="edge"><title>Node39&#45;&gt;Node8</title>
<path fill="none" stroke="midnightblue" d="M837.088,-168.433C804.565,-155.539 740.66,-130.669 685.5,-112 648.936,-99.6247 606.783,-87.0485 576.664,-78.349"/>
<polygon fill="midnightblue" stroke="midnightblue" points="577.514,-74.9518 566.936,-75.5533 575.58,-81.6794 577.514,-74.9518"/>
</g>
<!-- Node40 -->
<g id="node40" class="node"><title>Node40</title>
<g id="a_node40"><a xlink:href="_sound_server_8h.html" target="_top" xlink:title="../VideoServices/SoundServer.h">
<polygon fill="none" stroke="black" points="775,-112.5 775,-131.5 942,-131.5 942,-112.5 775,-112.5"/>
<text text-anchor="middle" x="858.5" y="-119.5" font-family="FreeSans" font-size="10.00">../VideoServices/SoundServer.h</text>
</a>
</g>
</g>
<!-- Node39&#45;&gt;Node40 -->
<g id="edge61" class="edge"><title>Node39&#45;&gt;Node40</title>
<path fill="none" stroke="midnightblue" d="M858.5,-168.083C858.5,-161.006 858.5,-150.861 858.5,-141.986"/>
<polygon fill="midnightblue" stroke="midnightblue" points="862,-141.751 858.5,-131.751 855,-141.751 862,-141.751"/>
</g>
<!-- Node40&#45;&gt;Node5 -->
<g id="edge62" class="edge"><title>Node40&#45;&gt;Node5</title>
<path fill="none" stroke="midnightblue" d="M881.634,-112.444C906.269,-103.332 945.416,-88.8531 972.886,-78.6929"/>
<polygon fill="midnightblue" stroke="midnightblue" points="974.265,-81.9146 982.43,-75.1629 971.837,-75.3493 974.265,-81.9146"/>
</g>
</g>
</svg>
