<?xml version="1.0" encoding="UTF-8" standalone="no"?>
<!DOCTYPE svg PUBLIC "-//W3C//DTD SVG 1.1//EN"
 "http://www.w3.org/Graphics/SVG/1.1/DTD/svg11.dtd">
<!-- Generated by graphviz version 2.38.0 (20140413.2041)
 -->
<!-- Title: Clock.h Pages: 1 -->
<svg width="523pt" height="252pt"
 viewBox="0.00 0.00 522.50 252.00" xmlns="http://www.w3.org/2000/svg" xmlns:xlink="http://www.w3.org/1999/xlink">
<g id="graph0" class="graph" transform="scale(1 1) rotate(0) translate(4 248)">
<title>Clock.h</title>
<!-- Node1 -->
<g id="node1" class="node"><title>Node1</title>
<polygon fill="#bfbfbf" stroke="black" points="198,-224.5 198,-243.5 248,-243.5 248,-224.5 198,-224.5"/>
<text text-anchor="middle" x="223" y="-231.5" font-family="Helvetica,sans-Serif" font-size="10.00">Clock.h</text>
</g>
<!-- Node2 -->
<g id="node2" class="node"><title>Node2</title>
<g id="a_node2"><a xlink:href="_duration_8h.html" target="_top" xlink:title="Duration.h">
<polygon fill="none" stroke="black" points="163,-168.5 163,-187.5 225,-187.5 225,-168.5 163,-168.5"/>
<text text-anchor="middle" x="194" y="-175.5" font-family="Helvetica,sans-Serif" font-size="10.00">Duration.h</text>
</a>
</g>
</g>
<!-- Node1&#45;&gt;Node2 -->
<g id="edge1" class="edge"><title>Node1&#45;&gt;Node2</title>
<path fill="none" stroke="midnightblue" d="M218.211,-224.083C214.242,-216.691 208.475,-205.953 203.565,-196.811"/>
<polygon fill="midnightblue" stroke="midnightblue" points="206.514,-194.905 198.7,-187.751 200.347,-198.217 206.514,-194.905"/>
</g>
<!-- Node7 -->
<g id="node7" class="node"><title>Node7</title>
<g id="a_node7"><a xlink:href="_o_s_8h.html" target="_top" xlink:title="OS.h">
<polygon fill="none" stroke="black" points="233.5,-112.5 233.5,-131.5 272.5,-131.5 272.5,-112.5 233.5,-112.5"/>
<text text-anchor="middle" x="253" y="-119.5" font-family="Helvetica,sans-Serif" font-size="10.00">OS.h</text>
</a>
</g>
</g>
<!-- Node1&#45;&gt;Node7 -->
<g id="edge13" class="edge"><title>Node1&#45;&gt;Node7</title>
<path fill="none" stroke="midnightblue" d="M225.354,-224.368C230.217,-206.537 241.465,-165.295 248.017,-141.272"/>
<polygon fill="midnightblue" stroke="midnightblue" points="251.402,-142.16 250.657,-131.591 244.649,-140.318 251.402,-142.16"/>
</g>
<!-- Node3 -->
<g id="node3" class="node"><title>Node3</title>
<polygon fill="none" stroke="#bfbfbf" points="0,-112.5 0,-131.5 50,-131.5 50,-112.5 0,-112.5"/>
<text text-anchor="middle" x="25" y="-119.5" font-family="Helvetica,sans-Serif" font-size="10.00">iomanip</text>
</g>
<!-- Node2&#45;&gt;Node3 -->
<g id="edge2" class="edge"><title>Node2&#45;&gt;Node3</title>
<path fill="none" stroke="midnightblue" d="M167.221,-168.444C138.163,-159.159 91.6598,-144.3 59.7922,-134.117"/>
<polygon fill="midnightblue" stroke="midnightblue" points="60.5913,-130.698 50.0005,-130.988 58.4607,-137.366 60.5913,-130.698"/>
</g>
<!-- Node4 -->
<g id="node4" class="node"><title>Node4</title>
<polygon fill="none" stroke="#bfbfbf" points="68.5,-112.5 68.5,-131.5 171.5,-131.5 171.5,-112.5 68.5,-112.5"/>
<text text-anchor="middle" x="120" y="-119.5" font-family="Helvetica,sans-Serif" font-size="10.00">boost/operators.hpp</text>
</g>
<!-- Node2&#45;&gt;Node4 -->
<g id="edge3" class="edge"><title>Node2&#45;&gt;Node4</title>
<path fill="none" stroke="midnightblue" d="M182.111,-168.324C170.85,-160.107 153.713,-147.602 140.291,-137.807"/>
<polygon fill="midnightblue" stroke="midnightblue" points="142.247,-134.901 132.106,-131.834 138.12,-140.556 142.247,-134.901"/>
</g>
<!-- Node5 -->
<g id="node5" class="node"><title>Node5</title>
<g id="a_node5"><a xlink:href="_m_r___types_8h.html" target="_top" xlink:title="MR_Types.h">
<polygon fill="none" stroke="black" points="86.5,-56.5 86.5,-75.5 159.5,-75.5 159.5,-56.5 86.5,-56.5"/>
<text text-anchor="middle" x="123" y="-63.5" font-family="Helvetica,sans-Serif" font-size="10.00">MR_Types.h</text>
</a>
</g>
</g>
<!-- Node2&#45;&gt;Node5 -->
<g id="edge4" class="edge"><title>Node2&#45;&gt;Node5</title>
<path fill="none" stroke="midnightblue" d="M193.952,-168.316C193.5,-155.161 191.112,-129.83 180,-112 172.107,-99.3354 159.328,-88.7624 147.869,-81.0541"/>
<polygon fill="midnightblue" stroke="midnightblue" points="149.403,-77.8835 139.08,-75.5011 145.664,-83.8013 149.403,-77.8835"/>
</g>
<!-- Node2&#45;&gt;Node7 -->
<g id="edge6" class="edge"><title>Node2&#45;&gt;Node7</title>
<path fill="none" stroke="midnightblue" d="M203.479,-168.324C212.201,-160.341 225.343,-148.313 235.898,-138.653"/>
<polygon fill="midnightblue" stroke="midnightblue" points="238.334,-141.167 243.348,-131.834 233.608,-136.004 238.334,-141.167"/>
</g>
<!-- Node6 -->
<g id="node6" class="node"><title>Node6</title>
<polygon fill="none" stroke="#bfbfbf" points="93.5,-0.5 93.5,-19.5 152.5,-19.5 152.5,-0.5 93.5,-0.5"/>
<text text-anchor="middle" x="123" y="-7.5" font-family="Helvetica,sans-Serif" font-size="10.00">inttypes.h</text>
</g>
<!-- Node5&#45;&gt;Node6 -->
<g id="edge5" class="edge"><title>Node5&#45;&gt;Node6</title>
<path fill="none" stroke="midnightblue" d="M123,-56.083C123,-49.0059 123,-38.8611 123,-29.9865"/>
<polygon fill="midnightblue" stroke="midnightblue" points="126.5,-29.751 123,-19.7511 119.5,-29.7511 126.5,-29.751"/>
</g>
<!-- Node7&#45;&gt;Node5 -->
<g id="edge12" class="edge"><title>Node7&#45;&gt;Node5</title>
<path fill="none" stroke="midnightblue" d="M233.256,-112.799C211.936,-103.943 177.72,-89.73 153.057,-79.4851"/>
<polygon fill="midnightblue" stroke="midnightblue" points="154.37,-76.2406 143.792,-75.6367 151.684,-82.7051 154.37,-76.2406"/>
</g>
<!-- Node8 -->
<g id="node8" class="node"><title>Node8</title>
<polygon fill="none" stroke="#bfbfbf" points="178,-56.5 178,-75.5 220,-75.5 220,-56.5 178,-56.5"/>
<text text-anchor="middle" x="199" y="-63.5" font-family="Helvetica,sans-Serif" font-size="10.00">locale</text>
</g>
<!-- Node7&#45;&gt;Node8 -->
<g id="edge7" class="edge"><title>Node7&#45;&gt;Node8</title>
<path fill="none" stroke="midnightblue" d="M244.083,-112.083C236.22,-104.22 224.569,-92.5688 215.081,-83.0813"/>
<polygon fill="midnightblue" stroke="midnightblue" points="217.297,-80.3473 207.751,-75.7511 212.347,-85.2971 217.297,-80.3473"/>
</g>
<!-- Node9 -->
<g id="node9" class="node"><title>Node9</title>
<polygon fill="none" stroke="#bfbfbf" points="238,-56.5 238,-75.5 268,-75.5 268,-56.5 238,-56.5"/>
<text text-anchor="middle" x="253" y="-63.5" font-family="Helvetica,sans-Serif" font-size="10.00">set</text>
</g>
<!-- Node7&#45;&gt;Node9 -->
<g id="edge8" class="edge"><title>Node7&#45;&gt;Node9</title>
<path fill="none" stroke="midnightblue" d="M253,-112.083C253,-105.006 253,-94.8611 253,-85.9865"/>
<polygon fill="midnightblue" stroke="midnightblue" points="256.5,-85.751 253,-75.7511 249.5,-85.7511 256.5,-85.751"/>
</g>
<!-- Node10 -->
<g id="node10" class="node"><title>Node10</title>
<polygon fill="none" stroke="#bfbfbf" points="286.5,-56.5 286.5,-75.5 327.5,-75.5 327.5,-56.5 286.5,-56.5"/>
<text text-anchor="middle" x="307" y="-63.5" font-family="Helvetica,sans-Serif" font-size="10.00">string</text>
</g>
<!-- Node7&#45;&gt;Node10 -->
<g id="edge9" class="edge"><title>Node7&#45;&gt;Node10</title>
<path fill="none" stroke="midnightblue" d="M261.917,-112.083C269.78,-104.22 281.431,-92.5688 290.919,-83.0813"/>
<polygon fill="midnightblue" stroke="midnightblue" points="293.653,-85.2971 298.249,-75.7511 288.703,-80.3473 293.653,-85.2971"/>
</g>
<!-- Node11 -->
<g id="node11" class="node"><title>Node11</title>
<polygon fill="none" stroke="#bfbfbf" points="346,-56.5 346,-75.5 390,-75.5 390,-56.5 346,-56.5"/>
<text text-anchor="middle" x="368" y="-63.5" font-family="Helvetica,sans-Serif" font-size="10.00">vector</text>
</g>
<!-- Node7&#45;&gt;Node11 -->
<g id="edge10" class="edge"><title>Node7&#45;&gt;Node11</title>
<path fill="none" stroke="midnightblue" d="M271.222,-112.444C289.896,-103.675 319.156,-89.9355 340.617,-79.8579"/>
<polygon fill="midnightblue" stroke="midnightblue" points="342.299,-82.935 349.863,-75.5164 339.324,-76.5988 342.299,-82.935"/>
</g>
<!-- Node12 -->
<g id="node12" class="node"><title>Node12</title>
<polygon fill="none" stroke="#bfbfbf" points="407.5,-56.5 407.5,-75.5 514.5,-75.5 514.5,-56.5 407.5,-56.5"/>
<text text-anchor="middle" x="461" y="-63.5" font-family="Helvetica,sans-Serif" font-size="10.00">boost/filesystem.hpp</text>
</g>
<!-- Node7&#45;&gt;Node12 -->
<g id="edge11" class="edge"><title>Node7&#45;&gt;Node12</title>
<path fill="none" stroke="midnightblue" d="M272.568,-115.92C305.757,-107.303 373.817,-89.6341 418.409,-78.0574"/>
<polygon fill="midnightblue" stroke="midnightblue" points="419.299,-81.4424 428.098,-75.5418 417.54,-74.667 419.299,-81.4424"/>
</g>
</g>
</svg>
