<?xml version="1.0" encoding="UTF-8" standalone="no"?>
<!DOCTYPE svg PUBLIC "-//W3C//DTD SVG 1.1//EN"
 "http://www.w3.org/Graphics/SVG/1.1/DTD/svg11.dtd">
<!-- Generated by graphviz version 2.38.0 (20140413.2041)
 -->
<!-- Title: Clock.cpp Pages: 1 -->
<svg width="557pt" height="308pt"
 viewBox="0.00 0.00 556.50 308.00" xmlns="http://www.w3.org/2000/svg" xmlns:xlink="http://www.w3.org/1999/xlink">
<g id="graph0" class="graph" transform="scale(1 1) rotate(0) translate(4 304)">
<title>Clock.cpp</title>
<!-- Node1 -->
<g id="node1" class="node"><title>Node1</title>
<polygon fill="#bfbfbf" stroke="black" points="208.5,-280.5 208.5,-299.5 270.5,-299.5 270.5,-280.5 208.5,-280.5"/>
<text text-anchor="middle" x="239.5" y="-287.5" font-family="FreeSans" font-size="10.00">Clock.cpp</text>
</g>
<!-- Node2 -->
<g id="node2" class="node"><title>Node2</title>
<g id="a_node2"><a xlink:href="_clock_8h.html" target="_top" xlink:title="Clock.h">
<polygon fill="none" stroke="black" points="214,-224.5 214,-243.5 265,-243.5 265,-224.5 214,-224.5"/>
<text text-anchor="middle" x="239.5" y="-231.5" font-family="FreeSans" font-size="10.00">Clock.h</text>
</a>
</g>
</g>
<!-- Node1&#45;&gt;Node2 -->
<g id="edge1" class="edge"><title>Node1&#45;&gt;Node2</title>
<path fill="none" stroke="midnightblue" d="M239.5,-280.083C239.5,-273.006 239.5,-262.861 239.5,-253.986"/>
<polygon fill="midnightblue" stroke="midnightblue" points="243,-253.751 239.5,-243.751 236,-253.751 243,-253.751"/>
</g>
<!-- Node3 -->
<g id="node3" class="node"><title>Node3</title>
<g id="a_node3"><a xlink:href="_duration_8h.html" target="_top" xlink:title="Duration.h">
<polygon fill="none" stroke="black" points="175,-168.5 175,-187.5 242,-187.5 242,-168.5 175,-168.5"/>
<text text-anchor="middle" x="208.5" y="-175.5" font-family="FreeSans" font-size="10.00">Duration.h</text>
</a>
</g>
</g>
<!-- Node2&#45;&gt;Node3 -->
<g id="edge2" class="edge"><title>Node2&#45;&gt;Node3</title>
<path fill="none" stroke="midnightblue" d="M234.381,-224.083C230.092,-216.613 223.842,-205.724 218.558,-196.52"/>
<polygon fill="midnightblue" stroke="midnightblue" points="221.538,-194.681 213.524,-187.751 215.467,-198.166 221.538,-194.681"/>
</g>
<!-- Node8 -->
<g id="node8" class="node"><title>Node8</title>
<g id="a_node8"><a xlink:href="_o_s_8h.html" target="_top" xlink:title="OS.h">
<polygon fill="none" stroke="black" points="250.5,-112.5 250.5,-131.5 290.5,-131.5 290.5,-112.5 250.5,-112.5"/>
<text text-anchor="middle" x="270.5" y="-119.5" font-family="FreeSans" font-size="10.00">OS.h</text>
</a>
</g>
</g>
<!-- Node2&#45;&gt;Node8 -->
<g id="edge14" class="edge"><title>Node2&#45;&gt;Node8</title>
<path fill="none" stroke="midnightblue" d="M241.933,-224.368C246.958,-206.537 258.58,-165.295 265.351,-141.272"/>
<polygon fill="midnightblue" stroke="midnightblue" points="268.735,-142.166 268.079,-131.591 261.997,-140.267 268.735,-142.166"/>
</g>
<!-- Node4 -->
<g id="node4" class="node"><title>Node4</title>
<polygon fill="none" stroke="#bfbfbf" points="0,-112.5 0,-131.5 55,-131.5 55,-112.5 0,-112.5"/>
<text text-anchor="middle" x="27.5" y="-119.5" font-family="FreeSans" font-size="10.00">iomanip</text>
</g>
<!-- Node3&#45;&gt;Node4 -->
<g id="edge3" class="edge"><title>Node3&#45;&gt;Node4</title>
<path fill="none" stroke="midnightblue" d="M179.82,-168.444C148.701,-159.159 98.9018,-144.302 64.7716,-134.12"/>
<polygon fill="midnightblue" stroke="midnightblue" points="65.7387,-130.756 55.1554,-131.251 63.7374,-137.464 65.7387,-130.756"/>
</g>
<!-- Node5 -->
<g id="node5" class="node"><title>Node5</title>
<polygon fill="none" stroke="#bfbfbf" points="73.5,-112.5 73.5,-131.5 187.5,-131.5 187.5,-112.5 73.5,-112.5"/>
<text text-anchor="middle" x="130.5" y="-119.5" font-family="FreeSans" font-size="10.00">boost/operators.hpp</text>
</g>
<!-- Node3&#45;&gt;Node5 -->
<g id="edge4" class="edge"><title>Node3&#45;&gt;Node5</title>
<path fill="none" stroke="midnightblue" d="M195.968,-168.324C183.914,-159.979 165.473,-147.212 151.231,-137.352"/>
<polygon fill="midnightblue" stroke="midnightblue" points="153.215,-134.469 143.001,-131.655 149.231,-140.224 153.215,-134.469"/>
</g>
<!-- Node6 -->
<g id="node6" class="node"><title>Node6</title>
<g id="a_node6"><a xlink:href="_m_r___types_8h.html" target="_top" xlink:title="MR_Types.h">
<polygon fill="none" stroke="black" points="103,-56.5 103,-75.5 174,-75.5 174,-56.5 103,-56.5"/>
<text text-anchor="middle" x="138.5" y="-63.5" font-family="FreeSans" font-size="10.00">MR_Types.h</text>
</a>
</g>
</g>
<!-- Node3&#45;&gt;Node6 -->
<g id="edge5" class="edge"><title>Node3&#45;&gt;Node6</title>
<path fill="none" stroke="midnightblue" d="M208.794,-168.318C208.843,-155.167 207.359,-129.841 196.5,-112 188.632,-99.0736 175.586,-88.4577 163.857,-80.7897"/>
<polygon fill="midnightblue" stroke="midnightblue" points="165.607,-77.7569 155.253,-75.5111 161.947,-83.7236 165.607,-77.7569"/>
</g>
<!-- Node3&#45;&gt;Node8 -->
<g id="edge7" class="edge"><title>Node3&#45;&gt;Node8</title>
<path fill="none" stroke="midnightblue" d="M218.461,-168.324C227.627,-160.341 241.437,-148.313 252.528,-138.653"/>
<polygon fill="midnightblue" stroke="midnightblue" points="255.115,-141.041 260.357,-131.834 250.518,-135.762 255.115,-141.041"/>
</g>
<!-- Node7 -->
<g id="node7" class="node"><title>Node7</title>
<polygon fill="none" stroke="#bfbfbf" points="106.5,-0.5 106.5,-19.5 170.5,-19.5 170.5,-0.5 106.5,-0.5"/>
<text text-anchor="middle" x="138.5" y="-7.5" font-family="FreeSans" font-size="10.00">inttypes.h</text>
</g>
<!-- Node6&#45;&gt;Node7 -->
<g id="edge6" class="edge"><title>Node6&#45;&gt;Node7</title>
<path fill="none" stroke="midnightblue" d="M138.5,-56.083C138.5,-49.0059 138.5,-38.8611 138.5,-29.9865"/>
<polygon fill="midnightblue" stroke="midnightblue" points="142,-29.751 138.5,-19.7511 135,-29.7511 142,-29.751"/>
</g>
<!-- Node8&#45;&gt;Node6 -->
<g id="edge13" class="edge"><title>Node8&#45;&gt;Node6</title>
<path fill="none" stroke="midnightblue" d="M250.452,-112.799C228.804,-103.943 194.062,-89.73 169.019,-79.4851"/>
<polygon fill="midnightblue" stroke="midnightblue" points="170.193,-76.1837 159.612,-75.6367 167.542,-82.6625 170.193,-76.1837"/>
</g>
<!-- Node9 -->
<g id="node9" class="node"><title>Node9</title>
<polygon fill="none" stroke="#bfbfbf" points="192.5,-56.5 192.5,-75.5 236.5,-75.5 236.5,-56.5 192.5,-56.5"/>
<text text-anchor="middle" x="214.5" y="-63.5" font-family="FreeSans" font-size="10.00">locale</text>
</g>
<!-- Node8&#45;&gt;Node9 -->
<g id="edge8" class="edge"><title>Node8&#45;&gt;Node9</title>
<path fill="none" stroke="midnightblue" d="M261.503,-112.324C253.306,-104.42 240.994,-92.5482 231.028,-82.9377"/>
<polygon fill="midnightblue" stroke="midnightblue" points="233.289,-80.2558 223.661,-75.8339 228.43,-85.2947 233.289,-80.2558"/>
</g>
<!-- Node10 -->
<g id="node10" class="node"><title>Node10</title>
<polygon fill="none" stroke="#bfbfbf" points="254.5,-56.5 254.5,-75.5 286.5,-75.5 286.5,-56.5 254.5,-56.5"/>
<text text-anchor="middle" x="270.5" y="-63.5" font-family="FreeSans" font-size="10.00">set</text>
</g>
<!-- Node8&#45;&gt;Node10 -->
<g id="edge9" class="edge"><title>Node8&#45;&gt;Node10</title>
<path fill="none" stroke="midnightblue" d="M270.5,-112.083C270.5,-105.006 270.5,-94.8611 270.5,-85.9865"/>
<polygon fill="midnightblue" stroke="midnightblue" points="274,-85.751 270.5,-75.7511 267,-85.7511 274,-85.751"/>
</g>
<!-- Node11 -->
<g id="node11" class="node"><title>Node11</title>
<polygon fill="none" stroke="#bfbfbf" points="304.5,-56.5 304.5,-75.5 348.5,-75.5 348.5,-56.5 304.5,-56.5"/>
<text text-anchor="middle" x="326.5" y="-63.5" font-family="FreeSans" font-size="10.00">string</text>
</g>
<!-- Node8&#45;&gt;Node11 -->
<g id="edge10" class="edge"><title>Node8&#45;&gt;Node11</title>
<path fill="none" stroke="midnightblue" d="M279.497,-112.324C287.694,-104.42 300.006,-92.5482 309.972,-82.9377"/>
<polygon fill="midnightblue" stroke="midnightblue" points="312.57,-85.2947 317.339,-75.8339 307.711,-80.2558 312.57,-85.2947"/>
</g>
<!-- Node12 -->
<g id="node12" class="node"><title>Node12</title>
<polygon fill="none" stroke="#bfbfbf" points="367,-56.5 367,-75.5 414,-75.5 414,-56.5 367,-56.5"/>
<text text-anchor="middle" x="390.5" y="-63.5" font-family="FreeSans" font-size="10.00">vector</text>
</g>
<!-- Node8&#45;&gt;Node12 -->
<g id="edge11" class="edge"><title>Node8&#45;&gt;Node12</title>
<path fill="none" stroke="midnightblue" d="M289.514,-112.444C309.088,-103.636 339.808,-89.8116 362.229,-79.722"/>
<polygon fill="midnightblue" stroke="midnightblue" points="363.892,-82.8119 371.575,-75.5164 361.019,-76.4284 363.892,-82.8119"/>
</g>
<!-- Node13 -->
<g id="node13" class="node"><title>Node13</title>
<polygon fill="none" stroke="#bfbfbf" points="432.5,-56.5 432.5,-75.5 548.5,-75.5 548.5,-56.5 432.5,-56.5"/>
<text text-anchor="middle" x="490.5" y="-63.5" font-family="FreeSans" font-size="10.00">boost/filesystem.hpp</text>
</g>
<!-- Node8&#45;&gt;Node13 -->
<g id="edge12" class="edge"><title>Node8&#45;&gt;Node13</title>
<path fill="none" stroke="midnightblue" d="M290.803,-116.017C325.785,-107.43 398.219,-89.6509 445.558,-78.0311"/>
<polygon fill="midnightblue" stroke="midnightblue" points="446.672,-81.3618 455.549,-75.5788 445.003,-74.5636 446.672,-81.3618"/>
</g>
</g>
</svg>
