<?xml version="1.0" encoding="UTF-8" standalone="no"?>
<!DOCTYPE svg PUBLIC "-//W3C//DTD SVG 1.1//EN"
 "http://www.w3.org/Graphics/SVG/1.1/DTD/svg11.dtd">
<!-- Generated by graphviz version 2.26.3 (20100126.1600)
 -->
<!-- Title: ColorTab.cpp Pages: 1 -->
<svg width="222pt" height="204pt"
 viewBox="0.00 0.00 222.00 204.00" xmlns="http://www.w3.org/2000/svg" xmlns:xlink="http://www.w3.org/1999/xlink">
<g id="graph1" class="graph" transform="scale(1 1) rotate(0) translate(4 200)">
<title>ColorTab.cpp</title>
<!-- Node1 -->
<g id="node1" class="node"><title>Node1</title>
<polygon fill="#bfbfbf" stroke="black" points="36,-175 36,-195 110,-195 110,-175 36,-175"/>
<text text-anchor="middle" x="73" y="-182" font-family="FreeSans" font-size="10.00">ColorTab.cpp</text>
</g>
<!-- Node2 -->
<g id="node3" class="node"><title>Node2</title>
<polygon fill="none" stroke="#bfbfbf" points="-0.5,-117 -0.5,-137 60.5,-137 60.5,-117 -0.5,-117"/>
<text text-anchor="middle" x="30" y="-124" font-family="FreeSans" font-size="10.00">../StdAfx.h</text>
</g>
<!-- Node1&#45;&gt;Node2 -->
<g id="edge2" class="edge"><title>Node1&#45;&gt;Node2</title>
<path fill="none" stroke="midnightblue" d="M65.51,-174.897C59.5411,-166.846 51.0205,-155.353 43.8219,-145.643"/>
<polygon fill="midnightblue" stroke="midnightblue" points="46.461,-143.326 37.6937,-137.378 40.8378,-147.495 46.461,-143.326"/>
</g>
<!-- Node3 -->
<g id="node5" class="node"><title>Node3</title>
<a xlink:href="_color_palette_8h.html" target="_top" xlink:title="ColorPalette.h">
<polygon fill="none" stroke="black" points="77.5,-117 77.5,-137 154.5,-137 154.5,-117 77.5,-117"/>
<text text-anchor="middle" x="116" y="-124" font-family="FreeSans" font-size="10.00">ColorPalette.h</text>
</a>
</g>
<!-- Node1&#45;&gt;Node3 -->
<g id="edge4" class="edge"><title>Node1&#45;&gt;Node3</title>
<path fill="none" stroke="midnightblue" d="M80.49,-174.897C86.4589,-166.846 94.9795,-155.353 102.178,-145.643"/>
<polygon fill="midnightblue" stroke="midnightblue" points="105.162,-147.495 108.306,-137.378 99.539,-143.326 105.162,-147.495"/>
</g>
<!-- Node4 -->
<g id="node7" class="node"><title>Node4</title>
<polygon fill="none" stroke="#bfbfbf" points="29.5,-59 29.5,-79 100.5,-79 100.5,-59 29.5,-59"/>
<text text-anchor="middle" x="65" y="-66" font-family="FreeSans" font-size="10.00">SDL2/SDL.h</text>
</g>
<!-- Node3&#45;&gt;Node4 -->
<g id="edge6" class="edge"><title>Node3&#45;&gt;Node4</title>
<path fill="none" stroke="midnightblue" d="M107.116,-116.897C99.8926,-108.682 89.5175,-96.8827 80.8727,-87.0513"/>
<polygon fill="midnightblue" stroke="midnightblue" points="83.3569,-84.5761 74.1251,-79.3776 78.1001,-89.1985 83.3569,-84.5761"/>
</g>
<!-- Node5 -->
<g id="node9" class="node"><title>Node5</title>
<a xlink:href="_m_r___types_8h.html" target="_top" xlink:title="../Util/MR_Types.h">
<polygon fill="none" stroke="black" points="118,-59 118,-79 214,-79 214,-59 118,-59"/>
<text text-anchor="middle" x="166" y="-66" font-family="FreeSans" font-size="10.00">../Util/MR_Types.h</text>
</a>
</g>
<!-- Node3&#45;&gt;Node5 -->
<g id="edge8" class="edge"><title>Node3&#45;&gt;Node5</title>
<path fill="none" stroke="midnightblue" d="M124.709,-116.897C131.792,-108.682 141.963,-96.8827 150.439,-87.0513"/>
<polygon fill="midnightblue" stroke="midnightblue" points="153.175,-89.237 157.054,-79.3776 147.873,-84.6664 153.175,-89.237"/>
</g>
<!-- Node6 -->
<g id="node11" class="node"><title>Node6</title>
<polygon fill="none" stroke="#bfbfbf" points="137,-1 137,-21 195,-21 195,-1 137,-1"/>
<text text-anchor="middle" x="166" y="-8" font-family="FreeSans" font-size="10.00">inttypes.h</text>
</g>
<!-- Node5&#45;&gt;Node6 -->
<g id="edge10" class="edge"><title>Node5&#45;&gt;Node6</title>
<path fill="none" stroke="midnightblue" d="M166,-58.8972C166,-51.339 166,-40.7476 166,-31.4458"/>
<polygon fill="midnightblue" stroke="midnightblue" points="169.5,-31.3776 166,-21.3776 162.5,-31.3776 169.5,-31.3776"/>
</g>
</g>
</svg>
