<?xml version="1.0" encoding="UTF-8" standalone="no"?>
<!DOCTYPE svg PUBLIC "-//W3C//DTD SVG 1.1//EN"
 "http://www.w3.org/Graphics/SVG/1.1/DTD/svg11.dtd">
<!-- Generated by graphviz version 2.38.0 (20140413.2041)
 -->
<!-- Title: Container.h Pages: 1 -->
<svg width="2337pt" height="308pt"
 viewBox="0.00 0.00 2337.00 308.00" xmlns="http://www.w3.org/2000/svg" xmlns:xlink="http://www.w3.org/1999/xlink">
<g id="graph0" class="graph" transform="scale(1 1) rotate(0) translate(4 304)">
<title>Container.h</title>
<!-- Node1 -->
<g id="node1" class="node"><title>Node1</title>
<polygon fill="#bfbfbf" stroke="black" points="1058,-280.5 1058,-299.5 1125,-299.5 1125,-280.5 1058,-280.5"/>
<text text-anchor="middle" x="1091.5" y="-287.5" font-family="Helvetica,sans-Serif" font-size="10.00">Container.h</text>
</g>
<!-- Node2 -->
<g id="node2" class="node"><title>Node2</title>
<g id="a_node2"><a xlink:href="_bulletin_board_8h.html" target="_top" xlink:title="BulletinBoard.h">
<polygon fill="none" stroke="black" points="190,-224.5 190,-243.5 273,-243.5 273,-224.5 190,-224.5"/>
<text text-anchor="middle" x="231.5" y="-231.5" font-family="Helvetica,sans-Serif" font-size="10.00">BulletinBoard.h</text>
</a>
</g>
</g>
<!-- Node1&#45;&gt;Node2 -->
<g id="edge1" class="edge"><title>Node1&#45;&gt;Node2</title>
<path fill="none" stroke="midnightblue" d="M1047.69,-288.139C926.476,-285.415 576.521,-275.228 287.5,-244 282.801,-243.492 277.895,-242.859 273.025,-242.164"/>
<polygon fill="midnightblue" stroke="midnightblue" points="1047.62,-291.639 1057.7,-288.359 1047.78,-284.64 1047.62,-291.639"/>
</g>
<!-- Node4 -->
<g id="node4" class="node"><title>Node4</title>
<g id="a_node4"><a xlink:href="_status_overlay_scene_8cpp.html" target="_top" xlink:title="StatusOverlayScene.cpp">
<polygon fill="none" stroke="black" points="239,-168.5 239,-187.5 364,-187.5 364,-168.5 239,-168.5"/>
<text text-anchor="middle" x="301.5" y="-175.5" font-family="Helvetica,sans-Serif" font-size="10.00">StatusOverlayScene.cpp</text>
</a>
</g>
</g>
<!-- Node1&#45;&gt;Node4 -->
<g id="edge58" class="edge"><title>Node1&#45;&gt;Node4</title>
<path fill="none" stroke="midnightblue" d="M1047.79,-289.337C893.043,-290.139 377.476,-289.358 320.5,-244 303.391,-230.38 301.114,-202.239 301.147,-187.867"/>
<polygon fill="midnightblue" stroke="midnightblue" points="1047.89,-292.836 1057.87,-289.279 1047.85,-285.836 1047.89,-292.836"/>
</g>
<!-- Node5 -->
<g id="node5" class="node"><title>Node5</title>
<g id="a_node5"><a xlink:href="_dialog_scene_8cpp.html" target="_top" xlink:title="DialogScene.cpp">
<polygon fill="none" stroke="black" points="416,-224.5 416,-243.5 507,-243.5 507,-224.5 416,-224.5"/>
<text text-anchor="middle" x="461.5" y="-231.5" font-family="Helvetica,sans-Serif" font-size="10.00">DialogScene.cpp</text>
</a>
</g>
</g>
<!-- Node1&#45;&gt;Node5 -->
<g id="edge4" class="edge"><title>Node1&#45;&gt;Node5</title>
<path fill="none" stroke="midnightblue" d="M1047.45,-286.819C950.986,-281.765 713.885,-267.831 516.5,-244 513.426,-243.629 510.261,-243.21 507.076,-242.761"/>
<polygon fill="midnightblue" stroke="midnightblue" points="1047.53,-290.328 1057.7,-287.35 1047.89,-283.337 1047.53,-290.328"/>
</g>
<!-- Node6 -->
<g id="node6" class="node"><title>Node6</title>
<g id="a_node6"><a xlink:href="_display_select_scene_8cpp.html" target="_top" xlink:title="DisplaySelectScene.cpp">
<polygon fill="none" stroke="black" points="525.5,-224.5 525.5,-243.5 649.5,-243.5 649.5,-224.5 525.5,-224.5"/>
<text text-anchor="middle" x="587.5" y="-231.5" font-family="Helvetica,sans-Serif" font-size="10.00">DisplaySelectScene.cpp</text>
</a>
</g>
</g>
<!-- Node1&#45;&gt;Node6 -->
<g id="edge5" class="edge"><title>Node1&#45;&gt;Node6</title>
<path fill="none" stroke="midnightblue" d="M1047.82,-284.789C969.665,-277.181 800.772,-260.408 658.5,-244 655.661,-243.673 652.759,-243.331 649.828,-242.981"/>
<polygon fill="midnightblue" stroke="midnightblue" points="1047.49,-288.274 1057.79,-285.757 1048.17,-281.306 1047.49,-288.274"/>
</g>
<!-- Node7 -->
<g id="node7" class="node"><title>Node7</title>
<g id="a_node7"><a xlink:href="_form_scene_8cpp.html" target="_top" xlink:title="FormScene.cpp">
<polygon fill="none" stroke="black" points="667.5,-224.5 667.5,-243.5 753.5,-243.5 753.5,-224.5 667.5,-224.5"/>
<text text-anchor="middle" x="710.5" y="-231.5" font-family="Helvetica,sans-Serif" font-size="10.00">FormScene.cpp</text>
</a>
</g>
</g>
<!-- Node1&#45;&gt;Node7 -->
<g id="edge6" class="edge"><title>Node1&#45;&gt;Node7</title>
<path fill="none" stroke="midnightblue" d="M1047.64,-283.172C985.326,-274.831 867.599,-258.853 767.5,-244 763.041,-243.338 758.388,-242.631 753.747,-241.915"/>
<polygon fill="midnightblue" stroke="midnightblue" points="1047.51,-286.686 1057.89,-284.541 1048.44,-279.747 1047.51,-286.686"/>
</g>
<!-- Node8 -->
<g id="node8" class="node"><title>Node8</title>
<g id="a_node8"><a xlink:href="_hud_decor_8h.html" target="_top" xlink:title="HudDecor.h">
<polygon fill="none" stroke="black" points="810,-224.5 810,-243.5 879,-243.5 879,-224.5 810,-224.5"/>
<text text-anchor="middle" x="844.5" y="-231.5" font-family="Helvetica,sans-Serif" font-size="10.00">HudDecor.h</text>
</a>
</g>
</g>
<!-- Node1&#45;&gt;Node8 -->
<g id="edge7" class="edge"><title>Node1&#45;&gt;Node8</title>
<path fill="none" stroke="midnightblue" d="M1048.13,-279.518C1000.05,-269.006 923.459,-252.262 879.189,-242.584"/>
<polygon fill="midnightblue" stroke="midnightblue" points="1047.41,-282.944 1057.93,-281.661 1048.91,-276.106 1047.41,-282.944"/>
</g>
<!-- Node19 -->
<g id="node19" class="node"><title>Node19</title>
<g id="a_node19"><a xlink:href="_test_lab_scene_8cpp.html" target="_top" xlink:title="TestLabScene.cpp">
<polygon fill="none" stroke="black" points="630.5,-112.5 630.5,-131.5 728.5,-131.5 728.5,-112.5 630.5,-112.5"/>
<text text-anchor="middle" x="679.5" y="-119.5" font-family="Helvetica,sans-Serif" font-size="10.00">TestLabScene.cpp</text>
</a>
</g>
</g>
<!-- Node1&#45;&gt;Node19 -->
<g id="edge59" class="edge"><title>Node1&#45;&gt;Node19</title>
<path fill="none" stroke="midnightblue" d="M1047.55,-287.124C989.524,-283.55 884.837,-273.275 800.5,-244 794.53,-241.928 705.528,-192.869 701.5,-188 687.526,-171.11 682.275,-144.92 680.426,-131.525"/>
<polygon fill="midnightblue" stroke="midnightblue" points="1047.64,-290.635 1057.83,-287.716 1048.05,-283.647 1047.64,-290.635"/>
</g>
<!-- Node34 -->
<g id="node34" class="node"><title>Node34</title>
<g id="a_node34"><a xlink:href="_game_select_scene_8cpp.html" target="_top" xlink:title="GameSelectScene.cpp">
<polygon fill="none" stroke="black" points="897,-224.5 897,-243.5 1014,-243.5 1014,-224.5 897,-224.5"/>
<text text-anchor="middle" x="955.5" y="-231.5" font-family="Helvetica,sans-Serif" font-size="10.00">GameSelectScene.cpp</text>
</a>
</g>
</g>
<!-- Node1&#45;&gt;Node34 -->
<g id="edge46" class="edge"><title>Node1&#45;&gt;Node34</title>
<path fill="none" stroke="midnightblue" d="M1060.37,-276.638C1034.84,-266.504 999.391,-252.427 976.949,-243.516"/>
<polygon fill="midnightblue" stroke="midnightblue" points="1059.36,-280.006 1069.95,-280.444 1061.95,-273.5 1059.36,-280.006"/>
</g>
<!-- Node35 -->
<g id="node35" class="node"><title>Node35</title>
<g id="a_node35"><a xlink:href="_locale_select_scene_8cpp.html" target="_top" xlink:title="LocaleSelectScene.cpp">
<polygon fill="none" stroke="black" points="1032,-224.5 1032,-243.5 1151,-243.5 1151,-224.5 1032,-224.5"/>
<text text-anchor="middle" x="1091.5" y="-231.5" font-family="Helvetica,sans-Serif" font-size="10.00">LocaleSelectScene.cpp</text>
</a>
</g>
</g>
<!-- Node1&#45;&gt;Node35 -->
<g id="edge47" class="edge"><title>Node1&#45;&gt;Node35</title>
<path fill="none" stroke="midnightblue" d="M1091.5,-269.805C1091.5,-260.91 1091.5,-250.78 1091.5,-243.751"/>
<polygon fill="midnightblue" stroke="midnightblue" points="1088,-270.083 1091.5,-280.083 1095,-270.083 1088,-270.083"/>
</g>
<!-- Node36 -->
<g id="node36" class="node"><title>Node36</title>
<g id="a_node36"><a xlink:href="_main_menu_scene_8cpp.html" target="_top" xlink:title="MainMenuScene.cpp">
<polygon fill="none" stroke="black" points="1169.5,-224.5 1169.5,-243.5 1277.5,-243.5 1277.5,-224.5 1169.5,-224.5"/>
<text text-anchor="middle" x="1223.5" y="-231.5" font-family="Helvetica,sans-Serif" font-size="10.00">MainMenuScene.cpp</text>
</a>
</g>
</g>
<!-- Node1&#45;&gt;Node36 -->
<g id="edge48" class="edge"><title>Node1&#45;&gt;Node36</title>
<path fill="none" stroke="midnightblue" d="M1121.72,-276.638C1146.49,-266.504 1180.9,-252.427 1202.68,-243.516"/>
<polygon fill="midnightblue" stroke="midnightblue" points="1120.35,-273.418 1112.42,-280.444 1123,-279.897 1120.35,-273.418"/>
</g>
<!-- Node37 -->
<g id="node37" class="node"><title>Node37</title>
<g id="a_node37"><a xlink:href="_message_announcement_8cpp.html" target="_top" xlink:title="MessageAnnouncement.cpp">
<polygon fill="none" stroke="black" points="1295.5,-224.5 1295.5,-243.5 1435.5,-243.5 1435.5,-224.5 1295.5,-224.5"/>
<text text-anchor="middle" x="1365.5" y="-231.5" font-family="Helvetica,sans-Serif" font-size="10.00">MessageAnnouncement.cpp</text>
</a>
</g>
</g>
<!-- Node1&#45;&gt;Node37 -->
<g id="edge49" class="edge"><title>Node1&#45;&gt;Node37</title>
<path fill="none" stroke="midnightblue" d="M1135.2,-280.387C1186.49,-270.28 1271,-253.623 1322.14,-243.545"/>
<polygon fill="midnightblue" stroke="midnightblue" points="1134.23,-277.011 1125.1,-282.379 1135.59,-283.879 1134.23,-277.011"/>
</g>
<!-- Node38 -->
<g id="node38" class="node"><title>Node38</title>
<g id="a_node38"><a xlink:href="_message_scene_8cpp.html" target="_top" xlink:title="MessageScene.cpp">
<polygon fill="none" stroke="black" points="1454,-224.5 1454,-243.5 1557,-243.5 1557,-224.5 1454,-224.5"/>
<text text-anchor="middle" x="1505.5" y="-231.5" font-family="Helvetica,sans-Serif" font-size="10.00">MessageScene.cpp</text>
</a>
</g>
</g>
<!-- Node1&#45;&gt;Node38 -->
<g id="edge50" class="edge"><title>Node1&#45;&gt;Node38</title>
<path fill="none" stroke="midnightblue" d="M1135.26,-283.703C1202.01,-275.559 1333.24,-259.297 1444.5,-244 1447.58,-243.577 1450.74,-243.135 1453.93,-242.682"/>
<polygon fill="midnightblue" stroke="midnightblue" points="1134.62,-280.255 1125.11,-284.939 1135.46,-287.204 1134.62,-280.255"/>
</g>
<!-- Node39 -->
<g id="node39" class="node"><title>Node39</title>
<g id="a_node39"><a xlink:href="_pause_menu_scene_8cpp.html" target="_top" xlink:title="PauseMenuScene.cpp">
<polygon fill="none" stroke="black" points="1575,-224.5 1575,-243.5 1690,-243.5 1690,-224.5 1575,-224.5"/>
<text text-anchor="middle" x="1632.5" y="-231.5" font-family="Helvetica,sans-Serif" font-size="10.00">PauseMenuScene.cpp</text>
</a>
</g>
</g>
<!-- Node1&#45;&gt;Node39 -->
<g id="edge51" class="edge"><title>Node1&#45;&gt;Node39</title>
<path fill="none" stroke="midnightblue" d="M1135.42,-285.446C1219.3,-278.524 1408.08,-262.297 1566.5,-244 1569.26,-243.682 1572.08,-243.344 1574.92,-242.993"/>
<polygon fill="midnightblue" stroke="midnightblue" points="1134.92,-281.975 1125.24,-286.283 1135.49,-288.952 1134.92,-281.975"/>
</g>
<!-- Node40 -->
<g id="node40" class="node"><title>Node40</title>
<g id="a_node40"><a xlink:href="_player_bar_8h.html" target="_top" xlink:title="PlayerBar.h">
<polygon fill="none" stroke="black" points="329.5,-224.5 329.5,-243.5 397.5,-243.5 397.5,-224.5 329.5,-224.5"/>
<text text-anchor="middle" x="363.5" y="-231.5" font-family="Helvetica,sans-Serif" font-size="10.00">PlayerBar.h</text>
</a>
</g>
</g>
<!-- Node1&#45;&gt;Node40 -->
<g id="edge52" class="edge"><title>Node1&#45;&gt;Node40</title>
<path fill="none" stroke="midnightblue" d="M1047.55,-288.254C938.529,-285.938 647.048,-276.908 406.5,-244 403.628,-243.607 400.662,-243.133 397.692,-242.609"/>
<polygon fill="midnightblue" stroke="midnightblue" points="1047.76,-291.758 1057.83,-288.463 1047.9,-284.76 1047.76,-291.758"/>
</g>
<!-- Node42 -->
<g id="node42" class="node"><title>Node42</title>
<g id="a_node42"><a xlink:href="_session_loading_scene_8cpp.html" target="_top" xlink:title="SessionLoadingScene.cpp">
<polygon fill="none" stroke="black" points="1708.5,-224.5 1708.5,-243.5 1840.5,-243.5 1840.5,-224.5 1708.5,-224.5"/>
<text text-anchor="middle" x="1774.5" y="-231.5" font-family="Helvetica,sans-Serif" font-size="10.00">SessionLoadingScene.cpp</text>
</a>
</g>
</g>
<!-- Node1&#45;&gt;Node42 -->
<g id="edge55" class="edge"><title>Node1&#45;&gt;Node42</title>
<path fill="none" stroke="midnightblue" d="M1135.19,-286.451C1235.19,-280.468 1488.37,-264.47 1699.5,-244 1702.37,-243.722 1705.3,-243.425 1708.26,-243.114"/>
<polygon fill="midnightblue" stroke="midnightblue" points="1134.93,-282.96 1125.16,-287.049 1135.35,-289.948 1134.93,-282.96"/>
</g>
<!-- Node43 -->
<g id="node43" class="node"><title>Node43</title>
<g id="a_node43"><a xlink:href="_settings_menu_scene_8cpp.html" target="_top" xlink:title="SettingsMenuScene.cpp">
<polygon fill="none" stroke="black" points="1859,-224.5 1859,-243.5 1982,-243.5 1982,-224.5 1859,-224.5"/>
<text text-anchor="middle" x="1920.5" y="-231.5" font-family="Helvetica,sans-Serif" font-size="10.00">SettingsMenuScene.cpp</text>
</a>
</g>
</g>
<!-- Node1&#45;&gt;Node43 -->
<g id="edge56" class="edge"><title>Node1&#45;&gt;Node43</title>
<path fill="none" stroke="midnightblue" d="M1135.48,-287.417C1252.07,-282.999 1578.69,-269.174 1849.5,-244 1852.59,-243.712 1855.76,-243.395 1858.95,-243.057"/>
<polygon fill="midnightblue" stroke="midnightblue" points="1135.04,-283.931 1125.18,-287.804 1135.31,-290.926 1135.04,-283.931"/>
</g>
<!-- Node44 -->
<g id="node44" class="node"><title>Node44</title>
<g id="a_node44"><a xlink:href="_settings_scene_8cpp.html" target="_top" xlink:title="SettingsScene.cpp">
<polygon fill="none" stroke="black" points="2000,-224.5 2000,-243.5 2099,-243.5 2099,-224.5 2000,-224.5"/>
<text text-anchor="middle" x="2049.5" y="-231.5" font-family="Helvetica,sans-Serif" font-size="10.00">SettingsScene.cpp</text>
</a>
</g>
</g>
<!-- Node1&#45;&gt;Node44 -->
<g id="edge57" class="edge"><title>Node1&#45;&gt;Node44</title>
<path fill="none" stroke="midnightblue" d="M1135.49,-288.419C1266.23,-286.346 1663.77,-277.529 1991.5,-244 1994.24,-243.72 1997.04,-243.399 1999.87,-243.049"/>
<polygon fill="midnightblue" stroke="midnightblue" points="1135.05,-284.926 1125.1,-288.579 1135.16,-291.925 1135.05,-284.926"/>
</g>
<!-- Node45 -->
<g id="node45" class="node"><title>Node45</title>
<g id="a_node45"><a xlink:href="_track_select_scene_8cpp.html" target="_top" xlink:title="TrackSelectScene.cpp">
<polygon fill="none" stroke="black" points="2117.5,-224.5 2117.5,-243.5 2233.5,-243.5 2233.5,-224.5 2117.5,-224.5"/>
<text text-anchor="middle" x="2175.5" y="-231.5" font-family="Helvetica,sans-Serif" font-size="10.00">TrackSelectScene.cpp</text>
</a>
</g>
</g>
<!-- Node1&#45;&gt;Node45 -->
<g id="edge60" class="edge"><title>Node1&#45;&gt;Node45</title>
<path fill="none" stroke="midnightblue" d="M1135.39,-288.458C1276.74,-286.411 1732.82,-277.476 2108.5,-244 2111.42,-243.74 2114.41,-243.444 2117.43,-243.123"/>
<polygon fill="midnightblue" stroke="midnightblue" points="1135.32,-284.958 1125.37,-288.599 1135.42,-291.957 1135.32,-284.958"/>
</g>
<!-- Node46 -->
<g id="node46" class="node"><title>Node46</title>
<g id="a_node46"><a xlink:href="_container_8cpp.html" target="_top" xlink:title="Container.cpp">
<polygon fill="none" stroke="black" points="2252,-224.5 2252,-243.5 2329,-243.5 2329,-224.5 2252,-224.5"/>
<text text-anchor="middle" x="2290.5" y="-231.5" font-family="Helvetica,sans-Serif" font-size="10.00">Container.cpp</text>
</a>
</g>
</g>
<!-- Node1&#45;&gt;Node46 -->
<g id="edge61" class="edge"><title>Node1&#45;&gt;Node46</title>
<path fill="none" stroke="midnightblue" d="M1135.18,-288.148C1317.93,-284.452 2021.86,-268.863 2242.5,-244 2245.53,-243.658 2248.66,-243.235 2251.8,-242.759"/>
<polygon fill="midnightblue" stroke="midnightblue" points="1135.07,-284.65 1125.14,-288.35 1135.21,-291.648 1135.07,-284.65"/>
</g>
<!-- Node3 -->
<g id="node3" class="node"><title>Node3</title>
<g id="a_node3"><a xlink:href="_bulletin_board_8cpp.html" target="_top" xlink:title="BulletinBoard.cpp">
<polygon fill="none" stroke="black" points="128,-168.5 128,-187.5 221,-187.5 221,-168.5 128,-168.5"/>
<text text-anchor="middle" x="174.5" y="-175.5" font-family="Helvetica,sans-Serif" font-size="10.00">BulletinBoard.cpp</text>
</a>
</g>
</g>
<!-- Node2&#45;&gt;Node3 -->
<g id="edge2" class="edge"><title>Node2&#45;&gt;Node3</title>
<path fill="none" stroke="midnightblue" d="M214.879,-217.253C204.766,-207.673 192.223,-195.791 183.825,-187.834"/>
<polygon fill="midnightblue" stroke="midnightblue" points="212.675,-219.987 222.342,-224.324 217.49,-214.906 212.675,-219.987"/>
</g>
<!-- Node2&#45;&gt;Node4 -->
<g id="edge3" class="edge"><title>Node2&#45;&gt;Node4</title>
<path fill="none" stroke="midnightblue" d="M250.814,-218.101C263.412,-208.382 279.428,-196.027 290.049,-187.834"/>
<polygon fill="midnightblue" stroke="midnightblue" points="248.527,-215.445 242.747,-224.324 252.802,-220.987 248.527,-215.445"/>
</g>
<!-- Node9 -->
<g id="node9" class="node"><title>Node9</title>
<g id="a_node9"><a xlink:href="_hud_8h.html" target="_top" xlink:title="Hud.h">
<polygon fill="none" stroke="black" points="554,-168.5 554,-187.5 597,-187.5 597,-168.5 554,-168.5"/>
<text text-anchor="middle" x="575.5" y="-175.5" font-family="Helvetica,sans-Serif" font-size="10.00">Hud.h</text>
</a>
</g>
</g>
<!-- Node8&#45;&gt;Node9 -->
<g id="edge8" class="edge"><title>Node8&#45;&gt;Node9</title>
<path fill="none" stroke="midnightblue" d="M799.817,-224.03C741.304,-212.284 641.024,-192.153 597.136,-183.343"/>
<polygon fill="midnightblue" stroke="midnightblue" points="799.39,-227.514 809.884,-226.051 800.768,-220.651 799.39,-227.514"/>
</g>
<!-- Node18 -->
<g id="node18" class="node"><title>Node18</title>
<g id="a_node18"><a xlink:href="_hud_peer_8cpp.html" target="_top" xlink:title="HudPeer.cpp">
<polygon fill="none" stroke="black" points="989.5,-56.5 989.5,-75.5 1063.5,-75.5 1063.5,-56.5 989.5,-56.5"/>
<text text-anchor="middle" x="1026.5" y="-63.5" font-family="Helvetica,sans-Serif" font-size="10.00">HudPeer.cpp</text>
</a>
</g>
</g>
<!-- Node8&#45;&gt;Node18 -->
<g id="edge38" class="edge"><title>Node8&#45;&gt;Node18</title>
<path fill="none" stroke="midnightblue" d="M889.286,-224.063C980.993,-213.606 1180.37,-234.361 1240.5,-188 1268.25,-166.602 1283.83,-139.009 1261.5,-112 1236.82,-82.1448 1123.38,-71.9065 1063.6,-68.5478"/>
<polygon fill="midnightblue" stroke="midnightblue" points="888.624,-220.62 879.177,-225.417 889.553,-227.559 888.624,-220.62"/>
</g>
<!-- Node21 -->
<g id="node21" class="node"><title>Node21</title>
<g id="a_node21"><a xlink:href="_fuel_gauge_8h.html" target="_top" xlink:title="FuelGauge.h">
<polygon fill="none" stroke="black" points="808.5,-168.5 808.5,-187.5 880.5,-187.5 880.5,-168.5 808.5,-168.5"/>
<text text-anchor="middle" x="844.5" y="-175.5" font-family="Helvetica,sans-Serif" font-size="10.00">FuelGauge.h</text>
</a>
</g>
</g>
<!-- Node8&#45;&gt;Node21 -->
<g id="edge24" class="edge"><title>Node8&#45;&gt;Node21</title>
<path fill="none" stroke="midnightblue" d="M844.5,-213.805C844.5,-204.91 844.5,-194.78 844.5,-187.751"/>
<polygon fill="midnightblue" stroke="midnightblue" points="841,-214.083 844.5,-224.083 848,-214.083 841,-214.083"/>
</g>
<!-- Node23 -->
<g id="node23" class="node"><title>Node23</title>
<g id="a_node23"><a xlink:href="_speedometer_8h.html" target="_top" xlink:title="Speedometer.h">
<polygon fill="none" stroke="black" points="983,-168.5 983,-187.5 1066,-187.5 1066,-168.5 983,-168.5"/>
<text text-anchor="middle" x="1024.5" y="-175.5" font-family="Helvetica,sans-Serif" font-size="10.00">Speedometer.h</text>
</a>
</g>
</g>
<!-- Node8&#45;&gt;Node23 -->
<g id="edge28" class="edge"><title>Node8&#45;&gt;Node23</title>
<path fill="none" stroke="midnightblue" d="M882.608,-221.568C916.563,-211.381 965.489,-196.703 996.112,-187.516"/>
<polygon fill="midnightblue" stroke="midnightblue" points="881.594,-218.218 873.022,-224.444 883.606,-224.922 881.594,-218.218"/>
</g>
<!-- Node25 -->
<g id="node25" class="node"><title>Node25</title>
<g id="a_node25"><a xlink:href="_chronometer_8h.html" target="_top" xlink:title="Chronometer.h">
<polygon fill="none" stroke="black" points="1331,-168.5 1331,-187.5 1412,-187.5 1412,-168.5 1331,-168.5"/>
<text text-anchor="middle" x="1371.5" y="-175.5" font-family="Helvetica,sans-Serif" font-size="10.00">Chronometer.h</text>
</a>
</g>
</g>
<!-- Node8&#45;&gt;Node25 -->
<g id="edge32" class="edge"><title>Node8&#45;&gt;Node25</title>
<path fill="none" stroke="midnightblue" d="M889.174,-223.914C1078.57,-196.855 1129.85,-211.066 1316.5,-188 1321.11,-187.43 1325.92,-186.758 1330.7,-186.041"/>
<polygon fill="midnightblue" stroke="midnightblue" points="888.564,-220.466 879.169,-225.363 889.567,-227.393 888.564,-220.466"/>
</g>
<!-- Node27 -->
<g id="node27" class="node"><title>Node27</title>
<g id="a_node27"><a xlink:href="_counter_8h.html" target="_top" xlink:title="Counter.h">
<polygon fill="none" stroke="black" points="1172,-168.5 1172,-187.5 1231,-187.5 1231,-168.5 1172,-168.5"/>
<text text-anchor="middle" x="1201.5" y="-175.5" font-family="Helvetica,sans-Serif" font-size="10.00">Counter.h</text>
</a>
</g>
</g>
<!-- Node8&#45;&gt;Node27 -->
<g id="edge35" class="edge"><title>Node8&#45;&gt;Node27</title>
<path fill="none" stroke="midnightblue" d="M889.108,-223.802C998.873,-204.722 1117.83,-189.315 1171.96,-182.592"/>
<polygon fill="midnightblue" stroke="midnightblue" points="888.442,-220.365 879.197,-225.539 889.651,-227.26 888.442,-220.365"/>
</g>
<!-- Node29 -->
<g id="node29" class="node"><title>Node29</title>
<g id="a_node29"><a xlink:href="_hud_text_8h.html" target="_top" xlink:title="HudText.h">
<polygon fill="none" stroke="black" points="898.5,-168.5 898.5,-187.5 960.5,-187.5 960.5,-168.5 898.5,-168.5"/>
<text text-anchor="middle" x="929.5" y="-175.5" font-family="Helvetica,sans-Serif" font-size="10.00">HudText.h</text>
</a>
</g>
</g>
<!-- Node8&#45;&gt;Node29 -->
<g id="edge39" class="edge"><title>Node8&#45;&gt;Node29</title>
<path fill="none" stroke="midnightblue" d="M866.694,-218.901C882.28,-208.999 902.63,-196.071 915.877,-187.655"/>
<polygon fill="midnightblue" stroke="midnightblue" points="864.721,-216.007 858.157,-224.324 868.474,-221.916 864.721,-216.007"/>
</g>
<!-- Node31 -->
<g id="node31" class="node"><title>Node31</title>
<g id="a_node31"><a xlink:href="_minimap_8h.html" target="_top" xlink:title="Minimap.h">
<polygon fill="none" stroke="black" points="1457.5,-168.5 1457.5,-187.5 1519.5,-187.5 1519.5,-168.5 1457.5,-168.5"/>
<text text-anchor="middle" x="1488.5" y="-175.5" font-family="Helvetica,sans-Serif" font-size="10.00">Minimap.h</text>
</a>
</g>
</g>
<!-- Node8&#45;&gt;Node31 -->
<g id="edge42" class="edge"><title>Node8&#45;&gt;Node31</title>
<path fill="none" stroke="midnightblue" d="M889.418,-223.912C1124.93,-192.122 1188.18,-211.51 1421.5,-188 1433.18,-186.823 1445.96,-185.193 1457.19,-183.642"/>
<polygon fill="midnightblue" stroke="midnightblue" points="888.595,-220.492 879.162,-225.314 889.543,-227.427 888.595,-220.492"/>
</g>
<!-- Node33 -->
<g id="node33" class="node"><title>Node33</title>
<g id="a_node33"><a xlink:href="_hud_decor_8cpp.html" target="_top" xlink:title="HudDecor.cpp">
<polygon fill="none" stroke="black" points="710.5,-168.5 710.5,-187.5 790.5,-187.5 790.5,-168.5 710.5,-168.5"/>
<text text-anchor="middle" x="750.5" y="-175.5" font-family="Helvetica,sans-Serif" font-size="10.00">HudDecor.cpp</text>
</a>
</g>
</g>
<!-- Node8&#45;&gt;Node33 -->
<g id="edge45" class="edge"><title>Node8&#45;&gt;Node33</title>
<path fill="none" stroke="midnightblue" d="M820.438,-219.177C803.141,-209.241 780.352,-196.149 765.565,-187.655"/>
<polygon fill="midnightblue" stroke="midnightblue" points="818.983,-222.378 829.397,-224.324 822.47,-216.308 818.983,-222.378"/>
</g>
<!-- Node10 -->
<g id="node10" class="node"><title>Node10</title>
<g id="a_node10"><a xlink:href="_game_scene_8cpp.html" target="_top" xlink:title="GameScene.cpp">
<polygon fill="none" stroke="black" points="408,-0.5 408,-19.5 497,-19.5 497,-0.5 408,-0.5"/>
<text text-anchor="middle" x="452.5" y="-7.5" font-family="Helvetica,sans-Serif" font-size="10.00">GameScene.cpp</text>
</a>
</g>
</g>
<!-- Node9&#45;&gt;Node10 -->
<g id="edge9" class="edge"><title>Node9&#45;&gt;Node10</title>
<path fill="none" stroke="midnightblue" d="M543.419,-177.261C509.157,-175.601 456.316,-167.042 430.5,-132 404.665,-96.9321 433.975,-40.9175 446.948,-19.6084"/>
<polygon fill="midnightblue" stroke="midnightblue" points="543.728,-180.772 553.832,-177.583 543.945,-173.776 543.728,-180.772"/>
</g>
<!-- Node11 -->
<g id="node11" class="node"><title>Node11</title>
<g id="a_node11"><a xlink:href="_hud_peer_8h.html" target="_top" xlink:title="HudPeer.h">
<polygon fill="none" stroke="black" points="440,-112.5 440,-131.5 503,-131.5 503,-112.5 440,-112.5"/>
<text text-anchor="middle" x="471.5" y="-119.5" font-family="Helvetica,sans-Serif" font-size="10.00">HudPeer.h</text>
</a>
</g>
</g>
<!-- Node9&#45;&gt;Node11 -->
<g id="edge10" class="edge"><title>Node9&#45;&gt;Node11</title>
<path fill="none" stroke="midnightblue" d="M549.672,-163.59C530.443,-153.605 504.755,-140.267 488.168,-131.655"/>
<polygon fill="midnightblue" stroke="midnightblue" points="548.303,-166.822 558.791,-168.324 551.529,-160.61 548.303,-166.822"/>
</g>
<!-- Node9&#45;&gt;Node18 -->
<g id="edge22" class="edge"><title>Node9&#45;&gt;Node18</title>
<path fill="none" stroke="midnightblue" d="M583.035,-159.043C590.45,-143.794 603.31,-122.726 621.5,-112 683.277,-75.5716 901.237,-68.6189 989.239,-67.3026"/>
<polygon fill="midnightblue" stroke="midnightblue" points="579.703,-157.918 578.774,-168.472 586.082,-160.801 579.703,-157.918"/>
</g>
<!-- Node9&#45;&gt;Node19 -->
<g id="edge21" class="edge"><title>Node9&#45;&gt;Node19</title>
<path fill="none" stroke="midnightblue" d="M601.328,-163.59C620.557,-153.605 646.245,-140.267 662.832,-131.655"/>
<polygon fill="midnightblue" stroke="midnightblue" points="599.471,-160.61 592.209,-168.324 602.697,-166.822 599.471,-160.61"/>
</g>
<!-- Node20 -->
<g id="node20" class="node"><title>Node20</title>
<g id="a_node20"><a xlink:href="_hud_8cpp.html" target="_top" xlink:title="Hud.cpp">
<polygon fill="none" stroke="black" points="521,-112.5 521,-131.5 574,-131.5 574,-112.5 521,-112.5"/>
<text text-anchor="middle" x="547.5" y="-119.5" font-family="Helvetica,sans-Serif" font-size="10.00">Hud.cpp</text>
</a>
</g>
</g>
<!-- Node9&#45;&gt;Node20 -->
<g id="edge23" class="edge"><title>Node9&#45;&gt;Node20</title>
<path fill="none" stroke="midnightblue" d="M566.158,-158.983C561.405,-149.817 555.844,-139.092 552.038,-131.751"/>
<polygon fill="midnightblue" stroke="midnightblue" points="563.166,-160.817 570.876,-168.083 569.38,-157.594 563.166,-160.817"/>
</g>
<!-- Node11&#45;&gt;Node10 -->
<g id="edge11" class="edge"><title>Node11&#45;&gt;Node10</title>
<path fill="none" stroke="midnightblue" d="M468.278,-102.348C464.117,-78.2538 457.044,-37.3079 453.984,-19.5914"/>
<polygon fill="midnightblue" stroke="midnightblue" points="464.858,-103.11 470.009,-112.368 471.756,-101.919 464.858,-103.11"/>
</g>
<!-- Node12 -->
<g id="node12" class="node"><title>Node12</title>
<g id="a_node12"><a xlink:href="_player_peer_8h.html" target="_top" xlink:title="PlayerPeer.h">
<polygon fill="none" stroke="black" points="308,-56.5 308,-75.5 381,-75.5 381,-56.5 308,-56.5"/>
<text text-anchor="middle" x="344.5" y="-63.5" font-family="Helvetica,sans-Serif" font-size="10.00">PlayerPeer.h</text>
</a>
</g>
</g>
<!-- Node11&#45;&gt;Node12 -->
<g id="edge12" class="edge"><title>Node11&#45;&gt;Node12</title>
<path fill="none" stroke="midnightblue" d="M442.109,-108.503C418.3,-98.3795 385.394,-84.388 364.529,-75.5164"/>
<polygon fill="midnightblue" stroke="midnightblue" points="440.804,-111.751 451.376,-112.444 443.543,-105.31 440.804,-111.751"/>
</g>
<!-- Node14 -->
<g id="node14" class="node"><title>Node14</title>
<g id="a_node14"><a xlink:href="_client_script_core_8cpp.html" target="_top" xlink:title="ClientScriptCore.cpp">
<polygon fill="none" stroke="black" points="515,-0.5 515,-19.5 622,-19.5 622,-0.5 515,-0.5"/>
<text text-anchor="middle" x="568.5" y="-7.5" font-family="Helvetica,sans-Serif" font-size="10.00">ClientScriptCore.cpp</text>
</a>
</g>
</g>
<!-- Node11&#45;&gt;Node14 -->
<g id="edge19" class="edge"><title>Node11&#45;&gt;Node14</title>
<path fill="none" stroke="midnightblue" d="M485.974,-104.586C506.887,-80.8709 544.806,-37.8691 560.924,-19.5914"/>
<polygon fill="midnightblue" stroke="midnightblue" points="483.1,-102.553 479.111,-112.368 488.351,-107.183 483.1,-102.553"/>
</g>
<!-- Node11&#45;&gt;Node18 -->
<g id="edge20" class="edge"><title>Node11&#45;&gt;Node18</title>
<path fill="none" stroke="midnightblue" d="M513.412,-111.88C697.046,-83.9263 906.038,-72.34 989.451,-68.5301"/>
<polygon fill="midnightblue" stroke="midnightblue" points="512.652,-108.456 503.303,-113.44 513.72,-115.374 512.652,-108.456"/>
</g>
<!-- Node12&#45;&gt;Node10 -->
<g id="edge13" class="edge"><title>Node12&#45;&gt;Node10</title>
<path fill="none" stroke="midnightblue" d="M371.048,-51.7261C391.046,-41.7271 417.887,-28.3065 435.191,-19.6545"/>
<polygon fill="midnightblue" stroke="midnightblue" points="369.231,-48.7213 361.852,-56.324 372.362,-54.9823 369.231,-48.7213"/>
</g>
<!-- Node13 -->
<g id="node13" class="node"><title>Node13</title>
<g id="a_node13"><a xlink:href="_rulebook_8cpp.html" target="_top" xlink:title="Rulebook.cpp">
<polygon fill="none" stroke="black" points="0,-0.5 0,-19.5 77,-19.5 77,-0.5 0,-0.5"/>
<text text-anchor="middle" x="38.5" y="-7.5" font-family="Helvetica,sans-Serif" font-size="10.00">Rulebook.cpp</text>
</a>
</g>
</g>
<!-- Node12&#45;&gt;Node13 -->
<g id="edge14" class="edge"><title>Node12&#45;&gt;Node13</title>
<path fill="none" stroke="midnightblue" d="M297.668,-57.1119C245.76,-48.3109 159.579,-33.5271 85.5,-20 82.803,-19.5075 80.0203,-18.9924 77.2188,-18.4688"/>
<polygon fill="midnightblue" stroke="midnightblue" points="297.135,-60.5714 307.579,-58.7902 298.304,-53.6697 297.135,-60.5714"/>
</g>
<!-- Node12&#45;&gt;Node14 -->
<g id="edge15" class="edge"><title>Node12&#45;&gt;Node14</title>
<path fill="none" stroke="midnightblue" d="M389.763,-54.0884C432.082,-43.8865 494.409,-28.8612 533.173,-19.5164"/>
<polygon fill="midnightblue" stroke="midnightblue" points="388.895,-50.6974 379.993,-56.4435 390.535,-57.5024 388.895,-50.6974"/>
</g>
<!-- Node15 -->
<g id="node15" class="node"><title>Node15</title>
<g id="a_node15"><a xlink:href="_meta_player_8cpp.html" target="_top" xlink:title="MetaPlayer.cpp">
<polygon fill="none" stroke="black" points="95,-0.5 95,-19.5 180,-19.5 180,-0.5 95,-0.5"/>
<text text-anchor="middle" x="137.5" y="-7.5" font-family="Helvetica,sans-Serif" font-size="10.00">MetaPlayer.cpp</text>
</a>
</g>
</g>
<!-- Node12&#45;&gt;Node15 -->
<g id="edge16" class="edge"><title>Node12&#45;&gt;Node15</title>
<path fill="none" stroke="midnightblue" d="M301.678,-53.8291C262.594,-43.6333 205.665,-28.7823 170.146,-19.5164"/>
<polygon fill="midnightblue" stroke="midnightblue" points="301.141,-57.3059 311.7,-56.4435 302.908,-50.5326 301.141,-57.3059"/>
</g>
<!-- Node16 -->
<g id="node16" class="node"><title>Node16</title>
<g id="a_node16"><a xlink:href="_player_peer_8cpp.html" target="_top" xlink:title="PlayerPeer.cpp">
<polygon fill="none" stroke="black" points="198,-0.5 198,-19.5 281,-19.5 281,-0.5 198,-0.5"/>
<text text-anchor="middle" x="239.5" y="-7.5" font-family="Helvetica,sans-Serif" font-size="10.00">PlayerPeer.cpp</text>
</a>
</g>
</g>
<!-- Node12&#45;&gt;Node16 -->
<g id="edge17" class="edge"><title>Node12&#45;&gt;Node16</title>
<path fill="none" stroke="midnightblue" d="M318.69,-51.7261C299.247,-41.7271 273.152,-28.3065 256.328,-19.6545"/>
<polygon fill="midnightblue" stroke="midnightblue" points="317.136,-54.8629 327.63,-56.324 320.338,-48.6379 317.136,-54.8629"/>
</g>
<!-- Node17 -->
<g id="node17" class="node"><title>Node17</title>
<g id="a_node17"><a xlink:href="_session_peer_8cpp.html" target="_top" xlink:title="SessionPeer.cpp">
<polygon fill="none" stroke="black" points="299,-0.5 299,-19.5 390,-19.5 390,-0.5 299,-0.5"/>
<text text-anchor="middle" x="344.5" y="-7.5" font-family="Helvetica,sans-Serif" font-size="10.00">SessionPeer.cpp</text>
</a>
</g>
</g>
<!-- Node12&#45;&gt;Node17 -->
<g id="edge18" class="edge"><title>Node12&#45;&gt;Node17</title>
<path fill="none" stroke="midnightblue" d="M344.5,-45.8045C344.5,-36.9102 344.5,-26.7798 344.5,-19.7511"/>
<polygon fill="midnightblue" stroke="midnightblue" points="341,-46.083 344.5,-56.083 348,-46.083 341,-46.083"/>
</g>
<!-- Node21&#45;&gt;Node18 -->
<g id="edge26" class="edge"><title>Node21&#45;&gt;Node18</title>
<path fill="none" stroke="midnightblue" d="M813.964,-164.187C788.534,-151.711 758.946,-131.785 775.5,-112 802.346,-79.9131 926.362,-70.6768 989.438,-68.0401"/>
<polygon fill="midnightblue" stroke="midnightblue" points="812.51,-167.371 823.051,-168.433 815.473,-161.029 812.51,-167.371"/>
</g>
<!-- Node21&#45;&gt;Node19 -->
<g id="edge25" class="edge"><title>Node21&#45;&gt;Node19</title>
<path fill="none" stroke="midnightblue" d="M808.764,-165.304C777.673,-155.129 733.353,-140.625 705.522,-131.516"/>
<polygon fill="midnightblue" stroke="midnightblue" points="807.763,-168.659 818.355,-168.444 809.94,-162.007 807.763,-168.659"/>
</g>
<!-- Node22 -->
<g id="node22" class="node"><title>Node22</title>
<g id="a_node22"><a xlink:href="_fuel_gauge_8cpp.html" target="_top" xlink:title="FuelGauge.cpp">
<polygon fill="none" stroke="black" points="785,-112.5 785,-131.5 868,-131.5 868,-112.5 785,-112.5"/>
<text text-anchor="middle" x="826.5" y="-119.5" font-family="Helvetica,sans-Serif" font-size="10.00">FuelGauge.cpp</text>
</a>
</g>
</g>
<!-- Node21&#45;&gt;Node22 -->
<g id="edge27" class="edge"><title>Node21&#45;&gt;Node22</title>
<path fill="none" stroke="midnightblue" d="M838.299,-158.396C835.287,-149.362 831.812,-138.936 829.417,-131.751"/>
<polygon fill="midnightblue" stroke="midnightblue" points="835.045,-159.703 841.528,-168.083 841.686,-157.489 835.045,-159.703"/>
</g>
<!-- Node23&#45;&gt;Node18 -->
<g id="edge30" class="edge"><title>Node23&#45;&gt;Node18</title>
<path fill="none" stroke="midnightblue" d="M1024.84,-158.348C1025.28,-134.254 1026.02,-93.3079 1026.34,-75.5914"/>
<polygon fill="midnightblue" stroke="midnightblue" points="1021.34,-158.306 1024.66,-168.368 1028.34,-158.434 1021.34,-158.306"/>
</g>
<!-- Node23&#45;&gt;Node19 -->
<g id="edge29" class="edge"><title>Node23&#45;&gt;Node19</title>
<path fill="none" stroke="midnightblue" d="M972.757,-168.52C971.662,-168.345 970.575,-168.171 969.5,-168 884.846,-154.506 786.201,-139.312 728.522,-130.481"/>
<polygon fill="midnightblue" stroke="midnightblue" points="972.334,-171.997 982.764,-170.133 973.448,-165.087 972.334,-171.997"/>
</g>
<!-- Node24 -->
<g id="node24" class="node"><title>Node24</title>
<g id="a_node24"><a xlink:href="_speedometer_8cpp.html" target="_top" xlink:title="Speedometer.cpp">
<polygon fill="none" stroke="black" points="1055,-112.5 1055,-131.5 1148,-131.5 1148,-112.5 1055,-112.5"/>
<text text-anchor="middle" x="1101.5" y="-119.5" font-family="Helvetica,sans-Serif" font-size="10.00">Speedometer.cpp</text>
</a>
</g>
</g>
<!-- Node23&#45;&gt;Node24 -->
<g id="edge31" class="edge"><title>Node23&#45;&gt;Node24</title>
<path fill="none" stroke="midnightblue" d="M1045.4,-162.342C1059.41,-152.517 1077.38,-139.913 1089.16,-131.655"/>
<polygon fill="midnightblue" stroke="midnightblue" points="1043.05,-159.717 1036.87,-168.324 1047.07,-165.448 1043.05,-159.717"/>
</g>
<!-- Node25&#45;&gt;Node18 -->
<g id="edge33" class="edge"><title>Node25&#45;&gt;Node18</title>
<path fill="none" stroke="midnightblue" d="M1361.45,-159.149C1351.93,-144.006 1336.17,-123.035 1316.5,-112 1273.79,-88.0382 1131.68,-74.6875 1063.55,-69.5241"/>
<polygon fill="midnightblue" stroke="midnightblue" points="1358.66,-161.3 1366.79,-168.095 1364.67,-157.714 1358.66,-161.3"/>
</g>
<!-- Node26 -->
<g id="node26" class="node"><title>Node26</title>
<g id="a_node26"><a xlink:href="_chronometer_8cpp.html" target="_top" xlink:title="Chronometer.cpp">
<polygon fill="none" stroke="black" points="1368.5,-112.5 1368.5,-131.5 1460.5,-131.5 1460.5,-112.5 1368.5,-112.5"/>
<text text-anchor="middle" x="1414.5" y="-119.5" font-family="Helvetica,sans-Serif" font-size="10.00">Chronometer.cpp</text>
</a>
</g>
</g>
<!-- Node25&#45;&gt;Node26 -->
<g id="edge34" class="edge"><title>Node25&#45;&gt;Node26</title>
<path fill="none" stroke="midnightblue" d="M1384.92,-160.144C1392.41,-150.736 1401.44,-139.405 1407.53,-131.751"/>
<polygon fill="midnightblue" stroke="midnightblue" points="1382.09,-158.08 1378.6,-168.083 1387.57,-162.44 1382.09,-158.08"/>
</g>
<!-- Node27&#45;&gt;Node18 -->
<g id="edge36" class="edge"><title>Node27&#45;&gt;Node18</title>
<path fill="none" stroke="midnightblue" d="M1222.7,-162.418C1239.77,-148.889 1258.9,-128.427 1245.5,-112 1222.99,-84.3997 1120.23,-73.2461 1063.83,-69.1423"/>
<polygon fill="midnightblue" stroke="midnightblue" points="1220.54,-159.66 1214.63,-168.454 1224.73,-165.264 1220.54,-159.66"/>
</g>
<!-- Node28 -->
<g id="node28" class="node"><title>Node28</title>
<g id="a_node28"><a xlink:href="_counter_8cpp.html" target="_top" xlink:title="Counter.cpp">
<polygon fill="none" stroke="black" points="1166.5,-112.5 1166.5,-131.5 1236.5,-131.5 1236.5,-112.5 1166.5,-112.5"/>
<text text-anchor="middle" x="1201.5" y="-119.5" font-family="Helvetica,sans-Serif" font-size="10.00">Counter.cpp</text>
</a>
</g>
</g>
<!-- Node27&#45;&gt;Node28 -->
<g id="edge37" class="edge"><title>Node27&#45;&gt;Node28</title>
<path fill="none" stroke="midnightblue" d="M1201.5,-157.805C1201.5,-148.91 1201.5,-138.78 1201.5,-131.751"/>
<polygon fill="midnightblue" stroke="midnightblue" points="1198,-158.083 1201.5,-168.083 1205,-158.083 1198,-158.083"/>
</g>
<!-- Node29&#45;&gt;Node18 -->
<g id="edge40" class="edge"><title>Node29&#45;&gt;Node18</title>
<path fill="none" stroke="midnightblue" d="M918.815,-159.182C911.998,-145.273 906.055,-126.021 915.5,-112 931.881,-87.683 963.89,-76.5015 989.343,-71.3627"/>
<polygon fill="midnightblue" stroke="midnightblue" points="915.873,-161.1 923.725,-168.214 922.024,-157.757 915.873,-161.1"/>
</g>
<!-- Node30 -->
<g id="node30" class="node"><title>Node30</title>
<g id="a_node30"><a xlink:href="_hud_text_8cpp.html" target="_top" xlink:title="HudText.cpp">
<polygon fill="none" stroke="black" points="925,-112.5 925,-131.5 998,-131.5 998,-112.5 925,-112.5"/>
<text text-anchor="middle" x="961.5" y="-119.5" font-family="Helvetica,sans-Serif" font-size="10.00">HudText.cpp</text>
</a>
</g>
</g>
<!-- Node29&#45;&gt;Node30 -->
<g id="edge41" class="edge"><title>Node29&#45;&gt;Node30</title>
<path fill="none" stroke="midnightblue" d="M940.004,-159.275C945.473,-150.045 951.918,-139.17 956.314,-131.751"/>
<polygon fill="midnightblue" stroke="midnightblue" points="936.871,-157.696 934.784,-168.083 942.893,-161.264 936.871,-157.696"/>
</g>
<!-- Node31&#45;&gt;Node18 -->
<g id="edge43" class="edge"><title>Node31&#45;&gt;Node18</title>
<path fill="none" stroke="midnightblue" d="M1488.36,-158.062C1487.15,-143.172 1482.9,-123.144 1469.5,-112 1438.56,-86.2627 1164.8,-72.6203 1063.76,-68.4265"/>
<polygon fill="midnightblue" stroke="midnightblue" points="1484.87,-158.372 1488.79,-168.215 1491.86,-158.076 1484.87,-158.372"/>
</g>
<!-- Node32 -->
<g id="node32" class="node"><title>Node32</title>
<g id="a_node32"><a xlink:href="_minimap_8cpp.html" target="_top" xlink:title="Minimap.cpp">
<polygon fill="none" stroke="black" points="1516.5,-112.5 1516.5,-131.5 1588.5,-131.5 1588.5,-112.5 1516.5,-112.5"/>
<text text-anchor="middle" x="1552.5" y="-119.5" font-family="Helvetica,sans-Serif" font-size="10.00">Minimap.cpp</text>
</a>
</g>
</g>
<!-- Node31&#45;&gt;Node32 -->
<g id="edge44" class="edge"><title>Node31&#45;&gt;Node32</title>
<path fill="none" stroke="midnightblue" d="M1506.49,-161.82C1517.96,-152.145 1532.41,-139.948 1542.03,-131.834"/>
<polygon fill="midnightblue" stroke="midnightblue" points="1504.17,-159.2 1498.78,-168.324 1508.68,-164.55 1504.17,-159.2"/>
</g>
<!-- Node40&#45;&gt;Node4 -->
<g id="edge54" class="edge"><title>Node40&#45;&gt;Node4</title>
<path fill="none" stroke="midnightblue" d="M345.746,-217.537C334.692,-207.909 320.869,-195.869 311.643,-187.834"/>
<polygon fill="midnightblue" stroke="midnightblue" points="343.699,-220.395 353.539,-224.324 348.297,-215.117 343.699,-220.395"/>
</g>
<!-- Node41 -->
<g id="node41" class="node"><title>Node41</title>
<g id="a_node41"><a xlink:href="_player_bar_8cpp.html" target="_top" xlink:title="PlayerBar.cpp">
<polygon fill="none" stroke="black" points="382.5,-168.5 382.5,-187.5 460.5,-187.5 460.5,-168.5 382.5,-168.5"/>
<text text-anchor="middle" x="421.5" y="-175.5" font-family="Helvetica,sans-Serif" font-size="10.00">PlayerBar.cpp</text>
</a>
</g>
</g>
<!-- Node40&#45;&gt;Node41 -->
<g id="edge53" class="edge"><title>Node40&#45;&gt;Node41</title>
<path fill="none" stroke="midnightblue" d="M380.413,-217.253C390.703,-207.673 403.466,-195.791 412.012,-187.834"/>
<polygon fill="midnightblue" stroke="midnightblue" points="377.753,-214.948 372.819,-224.324 382.523,-220.071 377.753,-214.948"/>
</g>
</g>
</svg>
