<?xml version="1.0" encoding="UTF-8" standalone="no"?>
<!DOCTYPE svg PUBLIC "-//W3C//DTD SVG 1.1//EN"
 "http://www.w3.org/Graphics/SVG/1.1/DTD/svg11.dtd">
<!-- Generated by graphviz version 2.38.0 (20140413.2041)
 -->
<!-- Title: Console.h Pages: 1 -->
<svg width="741pt" height="263pt"
 viewBox="0.00 0.00 741.00 263.00" xmlns="http://www.w3.org/2000/svg" xmlns:xlink="http://www.w3.org/1999/xlink">
<g id="graph0" class="graph" transform="scale(1 1) rotate(0) translate(4 259)">
<title>Console.h</title>
<!-- Node1 -->
<g id="node1" class="node"><title>Node1</title>
<polygon fill="#bfbfbf" stroke="black" points="422.5,-235.5 422.5,-254.5 483.5,-254.5 483.5,-235.5 422.5,-235.5"/>
<text text-anchor="middle" x="453" y="-242.5" font-family="Helvetica,sans-Serif" font-size="10.00">Console.h</text>
</g>
<!-- Node2 -->
<g id="node2" class="node"><title>Node2</title>
<g id="a_node2"><a xlink:href="_env_8h.html" target="_top" xlink:title="../../../engine/Script\l/Env.h">
<polygon fill="none" stroke="black" points="402.5,-168.5 402.5,-198.5 503.5,-198.5 503.5,-168.5 402.5,-168.5"/>
<text text-anchor="start" x="410.5" y="-186.5" font-family="Helvetica,sans-Serif" font-size="10.00">../../../engine/Script</text>
<text text-anchor="middle" x="453" y="-175.5" font-family="Helvetica,sans-Serif" font-size="10.00">/Env.h</text>
</a>
</g>
</g>
<!-- Node1&#45;&gt;Node2 -->
<g id="edge1" class="edge"><title>Node1&#45;&gt;Node2</title>
<path fill="none" stroke="midnightblue" d="M453,-235.475C453,-228.471 453,-218.192 453,-208.696"/>
<polygon fill="midnightblue" stroke="midnightblue" points="456.5,-208.523 453,-198.523 449.5,-208.523 456.5,-208.523"/>
</g>
<!-- Node3 -->
<g id="node3" class="node"><title>Node3</title>
<g id="a_node3"><a xlink:href="_o_s_8h.html" target="_top" xlink:title="../Util/OS.h">
<polygon fill="none" stroke="black" points="203,-112.5 203,-131.5 269,-131.5 269,-112.5 203,-112.5"/>
<text text-anchor="middle" x="236" y="-119.5" font-family="Helvetica,sans-Serif" font-size="10.00">../Util/OS.h</text>
</a>
</g>
</g>
<!-- Node1&#45;&gt;Node3 -->
<g id="edge19" class="edge"><title>Node1&#45;&gt;Node3</title>
<path fill="none" stroke="midnightblue" d="M437.741,-235.492C400.634,-214.8 305.422,-161.71 260.35,-136.578"/>
<polygon fill="midnightblue" stroke="midnightblue" points="261.971,-133.474 251.533,-131.661 258.562,-139.588 261.971,-133.474"/>
</g>
<!-- Node20 -->
<g id="node20" class="node"><title>Node20</title>
<g id="a_node20"><a xlink:href="_help_handler_8h.html" target="_top" xlink:title="../../../engine/Script\l/Help/HelpHandler.h">
<polygon fill="none" stroke="black" points="521.5,-168.5 521.5,-198.5 626.5,-198.5 626.5,-168.5 521.5,-168.5"/>
<text text-anchor="start" x="529.5" y="-186.5" font-family="Helvetica,sans-Serif" font-size="10.00">../../../engine/Script</text>
<text text-anchor="middle" x="574" y="-175.5" font-family="Helvetica,sans-Serif" font-size="10.00">/Help/HelpHandler.h</text>
</a>
</g>
</g>
<!-- Node1&#45;&gt;Node20 -->
<g id="edge20" class="edge"><title>Node1&#45;&gt;Node20</title>
<path fill="none" stroke="midnightblue" d="M470.336,-235.475C487.49,-227.04 514.303,-213.855 536.362,-203.008"/>
<polygon fill="midnightblue" stroke="midnightblue" points="538.053,-206.077 545.483,-198.523 534.964,-199.795 538.053,-206.077"/>
</g>
<!-- Node2&#45;&gt;Node3 -->
<g id="edge2" class="edge"><title>Node2&#45;&gt;Node3</title>
<path fill="none" stroke="midnightblue" d="M402.397,-168.625C364.326,-158.186 312.804,-144.059 277.226,-134.304"/>
<polygon fill="midnightblue" stroke="midnightblue" points="277.753,-130.819 267.184,-131.55 275.902,-137.57 277.753,-130.819"/>
</g>
<!-- Node11 -->
<g id="node11" class="node"><title>Node11</title>
<g id="a_node11"><a xlink:href="_core_8h.html" target="_top" xlink:title="Core.h">
<polygon fill="none" stroke="black" points="477,-112.5 477,-131.5 523,-131.5 523,-112.5 477,-112.5"/>
<text text-anchor="middle" x="500" y="-119.5" font-family="Helvetica,sans-Serif" font-size="10.00">Core.h</text>
</a>
</g>
</g>
<!-- Node2&#45;&gt;Node11 -->
<g id="edge10" class="edge"><title>Node2&#45;&gt;Node11</title>
<path fill="none" stroke="midnightblue" d="M464.138,-168.399C470.968,-159.753 479.745,-148.642 486.906,-139.576"/>
<polygon fill="midnightblue" stroke="midnightblue" points="489.709,-141.674 493.161,-131.658 484.216,-137.335 489.709,-141.674"/>
</g>
<!-- Node19 -->
<g id="node19" class="node"><title>Node19</title>
<g id="a_node19"><a xlink:href="_registry_ref_8h.html" target="_top" xlink:title="RegistryRef.h">
<polygon fill="none" stroke="black" points="541.5,-112.5 541.5,-131.5 618.5,-131.5 618.5,-112.5 541.5,-112.5"/>
<text text-anchor="middle" x="580" y="-119.5" font-family="Helvetica,sans-Serif" font-size="10.00">RegistryRef.h</text>
</a>
</g>
</g>
<!-- Node2&#45;&gt;Node19 -->
<g id="edge18" class="edge"><title>Node2&#45;&gt;Node19</title>
<path fill="none" stroke="midnightblue" d="M483.097,-168.399C504.12,-158.55 531.972,-145.501 552.419,-135.922"/>
<polygon fill="midnightblue" stroke="midnightblue" points="553.95,-139.07 561.52,-131.658 550.98,-132.731 553.95,-139.07"/>
</g>
<!-- Node4 -->
<g id="node4" class="node"><title>Node4</title>
<polygon fill="none" stroke="#bfbfbf" points="0,-56.5 0,-75.5 42,-75.5 42,-56.5 0,-56.5"/>
<text text-anchor="middle" x="21" y="-63.5" font-family="Helvetica,sans-Serif" font-size="10.00">locale</text>
</g>
<!-- Node3&#45;&gt;Node4 -->
<g id="edge3" class="edge"><title>Node3&#45;&gt;Node4</title>
<path fill="none" stroke="midnightblue" d="M202.78,-113.477C167.605,-105.389 110.25,-91.8535 51.9987,-76.1697"/>
<polygon fill="midnightblue" stroke="midnightblue" points="52.8329,-72.7696 42.2655,-73.5309 51.0012,-79.5257 52.8329,-72.7696"/>
</g>
<!-- Node5 -->
<g id="node5" class="node"><title>Node5</title>
<polygon fill="none" stroke="#bfbfbf" points="60,-56.5 60,-75.5 90,-75.5 90,-56.5 60,-56.5"/>
<text text-anchor="middle" x="75" y="-63.5" font-family="Helvetica,sans-Serif" font-size="10.00">set</text>
</g>
<!-- Node3&#45;&gt;Node5 -->
<g id="edge4" class="edge"><title>Node3&#45;&gt;Node5</title>
<path fill="none" stroke="midnightblue" d="M208.854,-112.449C183.028,-104.234 142.876,-91.2567 99.7399,-76.164"/>
<polygon fill="midnightblue" stroke="midnightblue" points="100.796,-72.8252 90.2008,-72.8085 98.4728,-79.4286 100.796,-72.8252"/>
</g>
<!-- Node6 -->
<g id="node6" class="node"><title>Node6</title>
<polygon fill="none" stroke="#bfbfbf" points="108.5,-56.5 108.5,-75.5 149.5,-75.5 149.5,-56.5 108.5,-56.5"/>
<text text-anchor="middle" x="129" y="-63.5" font-family="Helvetica,sans-Serif" font-size="10.00">string</text>
</g>
<!-- Node3&#45;&gt;Node6 -->
<g id="edge5" class="edge"><title>Node3&#45;&gt;Node6</title>
<path fill="none" stroke="midnightblue" d="M218.809,-112.324C201.649,-103.664 175.054,-90.2424 155.253,-80.249"/>
<polygon fill="midnightblue" stroke="midnightblue" points="156.653,-77.0354 146.149,-75.6545 153.499,-83.2847 156.653,-77.0354"/>
</g>
<!-- Node7 -->
<g id="node7" class="node"><title>Node7</title>
<polygon fill="none" stroke="#bfbfbf" points="168,-56.5 168,-75.5 212,-75.5 212,-56.5 168,-56.5"/>
<text text-anchor="middle" x="190" y="-63.5" font-family="Helvetica,sans-Serif" font-size="10.00">vector</text>
</g>
<!-- Node3&#45;&gt;Node7 -->
<g id="edge6" class="edge"><title>Node3&#45;&gt;Node7</title>
<path fill="none" stroke="midnightblue" d="M228.404,-112.083C221.773,-104.298 211.979,-92.8015 203.942,-83.3665"/>
<polygon fill="midnightblue" stroke="midnightblue" points="206.604,-81.0939 197.455,-75.7511 201.275,-85.6332 206.604,-81.0939"/>
</g>
<!-- Node8 -->
<g id="node8" class="node"><title>Node8</title>
<polygon fill="none" stroke="#bfbfbf" points="229.5,-56.5 229.5,-75.5 336.5,-75.5 336.5,-56.5 229.5,-56.5"/>
<text text-anchor="middle" x="283" y="-63.5" font-family="Helvetica,sans-Serif" font-size="10.00">boost/filesystem.hpp</text>
</g>
<!-- Node3&#45;&gt;Node8 -->
<g id="edge7" class="edge"><title>Node3&#45;&gt;Node8</title>
<path fill="none" stroke="midnightblue" d="M243.761,-112.083C250.537,-104.298 260.543,-92.8015 268.755,-83.3665"/>
<polygon fill="midnightblue" stroke="midnightblue" points="271.458,-85.592 275.383,-75.7511 266.178,-80.9963 271.458,-85.592"/>
</g>
<!-- Node9 -->
<g id="node9" class="node"><title>Node9</title>
<g id="a_node9"><a xlink:href="_m_r___types_8h.html" target="_top" xlink:title="MR_Types.h">
<polygon fill="none" stroke="black" points="354.5,-56.5 354.5,-75.5 427.5,-75.5 427.5,-56.5 354.5,-56.5"/>
<text text-anchor="middle" x="391" y="-63.5" font-family="Helvetica,sans-Serif" font-size="10.00">MR_Types.h</text>
</a>
</g>
</g>
<!-- Node3&#45;&gt;Node9 -->
<g id="edge8" class="edge"><title>Node3&#45;&gt;Node9</title>
<path fill="none" stroke="midnightblue" d="M260.56,-112.444C286.523,-103.399 327.668,-89.064 356.797,-78.9158"/>
<polygon fill="midnightblue" stroke="midnightblue" points="358.263,-82.1116 366.555,-75.5164 355.96,-75.5013 358.263,-82.1116"/>
</g>
<!-- Node10 -->
<g id="node10" class="node"><title>Node10</title>
<polygon fill="none" stroke="#bfbfbf" points="361.5,-0.5 361.5,-19.5 420.5,-19.5 420.5,-0.5 361.5,-0.5"/>
<text text-anchor="middle" x="391" y="-7.5" font-family="Helvetica,sans-Serif" font-size="10.00">inttypes.h</text>
</g>
<!-- Node9&#45;&gt;Node10 -->
<g id="edge9" class="edge"><title>Node9&#45;&gt;Node10</title>
<path fill="none" stroke="midnightblue" d="M391,-56.083C391,-49.0059 391,-38.8611 391,-29.9865"/>
<polygon fill="midnightblue" stroke="midnightblue" points="394.5,-29.751 391,-19.7511 387.5,-29.7511 394.5,-29.751"/>
</g>
<!-- Node12 -->
<g id="node12" class="node"><title>Node12</title>
<polygon fill="none" stroke="#bfbfbf" points="445.5,-56.5 445.5,-75.5 474.5,-75.5 474.5,-56.5 445.5,-56.5"/>
<text text-anchor="middle" x="460" y="-63.5" font-family="Helvetica,sans-Serif" font-size="10.00">list</text>
</g>
<!-- Node11&#45;&gt;Node12 -->
<g id="edge11" class="edge"><title>Node11&#45;&gt;Node12</title>
<path fill="none" stroke="midnightblue" d="M493.395,-112.083C487.745,-104.455 479.455,-93.2645 472.549,-83.9408"/>
<polygon fill="midnightblue" stroke="midnightblue" points="475.247,-81.7034 466.482,-75.7511 469.622,-85.87 475.247,-81.7034"/>
</g>
<!-- Node13 -->
<g id="node13" class="node"><title>Node13</title>
<polygon fill="none" stroke="#bfbfbf" points="492.5,-56.5 492.5,-75.5 587.5,-75.5 587.5,-56.5 492.5,-56.5"/>
<text text-anchor="middle" x="540" y="-63.5" font-family="Helvetica,sans-Serif" font-size="10.00">luabind/object.hpp</text>
</g>
<!-- Node11&#45;&gt;Node13 -->
<g id="edge12" class="edge"><title>Node11&#45;&gt;Node13</title>
<path fill="none" stroke="midnightblue" d="M506.605,-112.083C512.255,-104.455 520.545,-93.2645 527.451,-83.9408"/>
<polygon fill="midnightblue" stroke="midnightblue" points="530.378,-85.87 533.518,-75.7511 524.753,-81.7034 530.378,-85.87"/>
</g>
<!-- Node14 -->
<g id="node14" class="node"><title>Node14</title>
<g id="a_node14"><a xlink:href="_lua_8h.html" target="_top" xlink:title="Lua.h">
<polygon fill="none" stroke="black" points="605.5,-56.5 605.5,-75.5 646.5,-75.5 646.5,-56.5 605.5,-56.5"/>
<text text-anchor="middle" x="626" y="-63.5" font-family="Helvetica,sans-Serif" font-size="10.00">Lua.h</text>
</a>
</g>
</g>
<!-- Node11&#45;&gt;Node14 -->
<g id="edge13" class="edge"><title>Node11&#45;&gt;Node14</title>
<path fill="none" stroke="midnightblue" d="M519.965,-112.444C540.609,-103.596 573.063,-89.6875 596.632,-79.5865"/>
<polygon fill="midnightblue" stroke="midnightblue" points="598.316,-82.6727 606.128,-75.5164 595.558,-76.2387 598.316,-82.6727"/>
</g>
<!-- Node18 -->
<g id="node18" class="node"><title>Node18</title>
<g id="a_node18"><a xlink:href="_script_exn_8h.html" target="_top" xlink:title="ScriptExn.h">
<polygon fill="none" stroke="black" points="665,-56.5 665,-75.5 733,-75.5 733,-56.5 665,-56.5"/>
<text text-anchor="middle" x="699" y="-63.5" font-family="Helvetica,sans-Serif" font-size="10.00">ScriptExn.h</text>
</a>
</g>
</g>
<!-- Node11&#45;&gt;Node18 -->
<g id="edge17" class="edge"><title>Node11&#45;&gt;Node18</title>
<path fill="none" stroke="midnightblue" d="M523.064,-114.481C526.068,-113.641 529.107,-112.797 532,-112 574.502,-100.297 623.179,-87.2173 656.971,-78.1887"/>
<polygon fill="midnightblue" stroke="midnightblue" points="658.198,-81.4838 666.957,-75.5228 656.392,-74.7207 658.198,-81.4838"/>
</g>
<!-- Node15 -->
<g id="node15" class="node"><title>Node15</title>
<polygon fill="none" stroke="#bfbfbf" points="546,-0.5 546,-19.5 584,-19.5 584,-0.5 546,-0.5"/>
<text text-anchor="middle" x="565" y="-7.5" font-family="Helvetica,sans-Serif" font-size="10.00">lua.h</text>
</g>
<!-- Node14&#45;&gt;Node15 -->
<g id="edge14" class="edge"><title>Node14&#45;&gt;Node15</title>
<path fill="none" stroke="midnightblue" d="M616.199,-56.324C607.182,-48.3414 593.594,-36.3128 582.682,-26.6529"/>
<polygon fill="midnightblue" stroke="midnightblue" points="584.787,-23.8416 574.979,-19.8339 580.147,-29.083 584.787,-23.8416"/>
</g>
<!-- Node16 -->
<g id="node16" class="node"><title>Node16</title>
<polygon fill="none" stroke="#bfbfbf" points="602.5,-0.5 602.5,-19.5 649.5,-19.5 649.5,-0.5 602.5,-0.5"/>
<text text-anchor="middle" x="626" y="-7.5" font-family="Helvetica,sans-Serif" font-size="10.00">lualib.h</text>
</g>
<!-- Node14&#45;&gt;Node16 -->
<g id="edge15" class="edge"><title>Node14&#45;&gt;Node16</title>
<path fill="none" stroke="midnightblue" d="M626,-56.083C626,-49.0059 626,-38.8611 626,-29.9865"/>
<polygon fill="midnightblue" stroke="midnightblue" points="629.5,-29.751 626,-19.7511 622.5,-29.7511 629.5,-29.751"/>
</g>
<!-- Node17 -->
<g id="node17" class="node"><title>Node17</title>
<polygon fill="none" stroke="#bfbfbf" points="667.5,-0.5 667.5,-19.5 720.5,-19.5 720.5,-0.5 667.5,-0.5"/>
<text text-anchor="middle" x="694" y="-7.5" font-family="Helvetica,sans-Serif" font-size="10.00">lauxlib.h</text>
</g>
<!-- Node14&#45;&gt;Node17 -->
<g id="edge16" class="edge"><title>Node14&#45;&gt;Node17</title>
<path fill="none" stroke="midnightblue" d="M636.925,-56.324C647.175,-48.1849 662.721,-35.8395 675.001,-26.0874"/>
<polygon fill="midnightblue" stroke="midnightblue" points="677.221,-28.7937 682.876,-19.8339 672.868,-23.3119 677.221,-28.7937"/>
</g>
</g>
</svg>
