<?xml version="1.0" encoding="UTF-8" standalone="no"?>
<!DOCTYPE svg PUBLIC "-//W3C//DTD SVG 1.1//EN"
 "http://www.w3.org/Graphics/SVG/1.1/DTD/svg11.dtd">
<!-- Generated by graphviz version 2.26.3 (20100126.1600)
 -->
<!-- Title: Controller.cpp Pages: 1 -->
<svg width="1630pt" height="494pt"
 viewBox="0.00 0.00 1630.00 494.00" xmlns="http://www.w3.org/2000/svg" xmlns:xlink="http://www.w3.org/1999/xlink">
<g id="graph1" class="graph" transform="scale(1 1) rotate(0) translate(4 490)">
<title>Controller.cpp</title>
<!-- Node1 -->
<g id="node1" class="node"><title>Node1</title>
<polygon fill="#bfbfbf" stroke="black" points="855,-465 855,-485 931,-485 931,-465 855,-465"/>
<text text-anchor="middle" x="893" y="-472" font-family="FreeSans" font-size="10.00">Controller.cpp</text>
</g>
<!-- Node2 -->
<g id="node3" class="node"><title>Node2</title>
<polygon fill="none" stroke="#bfbfbf" points="685.5,-407 685.5,-427 738.5,-427 738.5,-407 685.5,-407"/>
<text text-anchor="middle" x="712" y="-414" font-family="FreeSans" font-size="10.00">StdAfx.h</text>
</g>
<!-- Node1&#45;&gt;Node2 -->
<g id="edge2" class="edge"><title>Node1&#45;&gt;Node2</title>
<path fill="none" stroke="midnightblue" d="M861.472,-464.897C829.989,-454.808 781.639,-439.315 748.508,-428.699"/>
<polygon fill="midnightblue" stroke="midnightblue" points="749.341,-425.29 738.75,-425.572 747.205,-431.956 749.341,-425.29"/>
</g>
<!-- Node3 -->
<g id="node5" class="node"><title>Node3</title>
<a xlink:href="_config_8h.html" target="_top" xlink:title="../Util/Config.h">
<polygon fill="none" stroke="black" points="154.5,-291 154.5,-311 231.5,-311 231.5,-291 154.5,-291"/>
<text text-anchor="middle" x="193" y="-298" font-family="FreeSans" font-size="10.00">../Util/Config.h</text>
</a>
</g>
<!-- Node1&#45;&gt;Node3 -->
<g id="edge4" class="edge"><title>Node1&#45;&gt;Node3</title>
<path fill="none" stroke="midnightblue" d="M875.618,-464.992C848.846,-449.997 795.523,-421.779 747,-406 565.785,-347.072 339.844,-317.05 241.969,-306.047"/>
<polygon fill="midnightblue" stroke="midnightblue" points="242.113,-302.541 231.789,-304.919 241.343,-309.499 242.113,-302.541"/>
</g>
<!-- Node13 -->
<g id="node26" class="node"><title>Node13</title>
<a xlink:href="_log_8h.html" target="_top" xlink:title="../Util/Log.h">
<polygon fill="none" stroke="black" points="999,-407 999,-427 1065,-427 1065,-407 999,-407"/>
<text text-anchor="middle" x="1032" y="-414" font-family="FreeSans" font-size="10.00">../Util/Log.h</text>
</a>
</g>
<!-- Node1&#45;&gt;Node13 -->
<g id="edge26" class="edge"><title>Node1&#45;&gt;Node13</title>
<path fill="none" stroke="midnightblue" d="M917.212,-464.897C939.597,-455.556 973.085,-441.583 998.122,-431.136"/>
<polygon fill="midnightblue" stroke="midnightblue" points="999.718,-434.263 1007.6,-427.182 997.022,-427.803 999.718,-434.263"/>
</g>
<!-- Node14 -->
<g id="node28" class="node"><title>Node14</title>
<a xlink:href="_controller_8h.html" target="_top" xlink:title="Controller.h">
<polygon fill="none" stroke="black" points="793.5,-349 793.5,-369 858.5,-369 858.5,-349 793.5,-349"/>
<text text-anchor="middle" x="826" y="-356" font-family="FreeSans" font-size="10.00">Controller.h</text>
</a>
</g>
<!-- Node1&#45;&gt;Node14 -->
<g id="edge28" class="edge"><title>Node1&#45;&gt;Node14</title>
<path fill="none" stroke="midnightblue" d="M873.404,-464.841C859.95,-456.763 842.962,-444.144 834,-428 825.779,-413.191 824.171,-393.862 824.394,-379.43"/>
<polygon fill="midnightblue" stroke="midnightblue" points="827.906,-379.238 824.874,-369.086 820.914,-378.913 827.906,-379.238"/>
</g>
<!-- Node22 -->
<g id="node46" class="node"><title>Node22</title>
<a xlink:href="_control_action_8h.html" target="_top" xlink:title="ControlAction.h">
<polygon fill="none" stroke="black" points="746.5,-233 746.5,-253 829.5,-253 829.5,-233 746.5,-233"/>
<text text-anchor="middle" x="788" y="-240" font-family="FreeSans" font-size="10.00">ControlAction.h</text>
</a>
</g>
<!-- Node1&#45;&gt;Node22 -->
<g id="edge122" class="edge"><title>Node1&#45;&gt;Node22</title>
<path fill="none" stroke="midnightblue" d="M913.461,-464.969C927.142,-457.024 944.041,-444.516 952,-428 956.245,-419.192 955.428,-415.157 952,-406 926.268,-337.26 853.633,-283.562 814.221,-258.485"/>
<polygon fill="midnightblue" stroke="midnightblue" points="815.764,-255.323 805.424,-253.013 812.066,-261.267 815.764,-255.323"/>
</g>
<!-- Node23 -->
<g id="node50" class="node"><title>Node23</title>
<a xlink:href="_action_performers_8h.html" target="_top" xlink:title="ActionPerformers.h">
<polygon fill="none" stroke="black" points="843,-407 843,-427 943,-427 943,-407 843,-407"/>
<text text-anchor="middle" x="893" y="-414" font-family="FreeSans" font-size="10.00">ActionPerformers.h</text>
</a>
</g>
<!-- Node1&#45;&gt;Node23 -->
<g id="edge54" class="edge"><title>Node1&#45;&gt;Node23</title>
<path fill="none" stroke="midnightblue" d="M893,-464.897C893,-457.339 893,-446.748 893,-437.446"/>
<polygon fill="midnightblue" stroke="midnightblue" points="896.5,-437.378 893,-427.378 889.5,-437.378 896.5,-437.378"/>
</g>
<!-- Node40 -->
<g id="node102" class="node"><title>Node40</title>
<polygon fill="none" stroke="#bfbfbf" points="1083,-407 1083,-427 1135,-427 1135,-407 1083,-407"/>
<text text-anchor="middle" x="1109" y="-414" font-family="FreeSans" font-size="10.00">sstream</text>
</g>
<!-- Node1&#45;&gt;Node40 -->
<g id="edge124" class="edge"><title>Node1&#45;&gt;Node40</title>
<path fill="none" stroke="midnightblue" d="M931.288,-465.654C965.947,-457.061 1018.61,-443.676 1072.88,-428.235"/>
<polygon fill="midnightblue" stroke="midnightblue" points="1074.02,-431.549 1082.67,-425.432 1072.09,-424.82 1074.02,-431.549"/>
</g>
<!-- Node4 -->
<g id="node7" class="node"><title>Node4</title>
<polygon fill="none" stroke="#bfbfbf" points="267.5,-175 267.5,-195 308.5,-195 308.5,-175 267.5,-175"/>
<text text-anchor="middle" x="288" y="-182" font-family="FreeSans" font-size="10.00">string</text>
</g>
<!-- Node3&#45;&gt;Node4 -->
<g id="edge6" class="edge"><title>Node3&#45;&gt;Node4</title>
<path fill="none" stroke="midnightblue" d="M201.431,-290.706C217.598,-270.965 253.139,-227.567 273.294,-202.957"/>
<polygon fill="midnightblue" stroke="midnightblue" points="276.096,-205.06 279.724,-195.106 270.68,-200.625 276.096,-205.06"/>
</g>
<!-- Node5 -->
<g id="node9" class="node"><title>Node5</title>
<polygon fill="none" stroke="#bfbfbf" points="151,-233 151,-253 207,-253 207,-233 151,-233"/>
<text text-anchor="middle" x="179" y="-240" font-family="FreeSans" font-size="10.00">basedir.h</text>
</g>
<!-- Node3&#45;&gt;Node5 -->
<g id="edge8" class="edge"><title>Node3&#45;&gt;Node5</title>
<path fill="none" stroke="midnightblue" d="M190.561,-290.897C188.717,-283.257 186.125,-272.517 183.862,-263.143"/>
<polygon fill="midnightblue" stroke="midnightblue" points="187.254,-262.277 181.505,-253.378 180.449,-263.92 187.254,-262.277"/>
</g>
<!-- Node6 -->
<g id="node11" class="node"><title>Node6</title>
<a xlink:href="_o_s_8h.html" target="_top" xlink:title="OS.h">
<polygon fill="none" stroke="black" points="95,-233 95,-253 133,-253 133,-233 95,-233"/>
<text text-anchor="middle" x="114" y="-240" font-family="FreeSans" font-size="10.00">OS.h</text>
</a>
</g>
<!-- Node3&#45;&gt;Node6 -->
<g id="edge10" class="edge"><title>Node3&#45;&gt;Node6</title>
<path fill="none" stroke="midnightblue" d="M179.239,-290.897C167.305,-282.135 149.818,-269.297 135.952,-259.116"/>
<polygon fill="midnightblue" stroke="midnightblue" points="138,-256.278 127.868,-253.182 133.858,-261.921 138,-256.278"/>
</g>
<!-- Node6&#45;&gt;Node4 -->
<g id="edge16" class="edge"><title>Node6&#45;&gt;Node4</title>
<path fill="none" stroke="midnightblue" d="M133.219,-235.265C136.149,-234.139 139.147,-233.018 142,-232 191.246,-214.432 204.237,-212.047 254,-196 255.063,-195.657 256.144,-195.308 257.236,-194.956"/>
<polygon fill="midnightblue" stroke="midnightblue" points="258.705,-198.16 267.144,-191.754 256.552,-191.499 258.705,-198.16"/>
</g>
<!-- Node7 -->
<g id="node13" class="node"><title>Node7</title>
<polygon fill="none" stroke="#bfbfbf" points="170,-175 170,-195 212,-195 212,-175 170,-175"/>
<text text-anchor="middle" x="191" y="-182" font-family="FreeSans" font-size="10.00">locale</text>
</g>
<!-- Node6&#45;&gt;Node7 -->
<g id="edge12" class="edge"><title>Node6&#45;&gt;Node7</title>
<path fill="none" stroke="midnightblue" d="M127.412,-232.897C138.935,-224.218 155.768,-211.538 169.221,-201.405"/>
<polygon fill="midnightblue" stroke="midnightblue" points="171.601,-203.994 177.483,-195.182 167.39,-198.403 171.601,-203.994"/>
</g>
<!-- Node8 -->
<g id="node15" class="node"><title>Node8</title>
<polygon fill="none" stroke="#bfbfbf" points="0,-175 0,-195 30,-195 30,-175 0,-175"/>
<text text-anchor="middle" x="15" y="-182" font-family="FreeSans" font-size="10.00">set</text>
</g>
<!-- Node6&#45;&gt;Node8 -->
<g id="edge14" class="edge"><title>Node6&#45;&gt;Node8</title>
<path fill="none" stroke="midnightblue" d="M96.7555,-232.897C80.7158,-223.5 56.673,-209.414 38.8076,-198.948"/>
<polygon fill="midnightblue" stroke="midnightblue" points="40.5008,-195.883 30.1033,-193.848 36.9623,-201.923 40.5008,-195.883"/>
</g>
<!-- Node9 -->
<g id="node18" class="node"><title>Node9</title>
<polygon fill="none" stroke="#bfbfbf" points="835,-175 835,-195 879,-195 879,-175 835,-175"/>
<text text-anchor="middle" x="857" y="-182" font-family="FreeSans" font-size="10.00">vector</text>
</g>
<!-- Node6&#45;&gt;Node9 -->
<g id="edge18" class="edge"><title>Node6&#45;&gt;Node9</title>
<path fill="none" stroke="midnightblue" d="M133.032,-234.612C135.988,-233.577 139.042,-232.654 142,-232 397.641,-175.44 468.889,-215.298 730,-196 762.251,-193.616 799.063,-190.37 824.721,-188.022"/>
<polygon fill="midnightblue" stroke="midnightblue" points="825.351,-191.479 834.988,-187.076 824.709,-184.509 825.351,-191.479"/>
</g>
<!-- Node10 -->
<g id="node20" class="node"><title>Node10</title>
<polygon fill="none" stroke="#bfbfbf" points="47.5,-175 47.5,-195 152.5,-195 152.5,-175 47.5,-175"/>
<text text-anchor="middle" x="100" y="-182" font-family="FreeSans" font-size="10.00">boost/filesystem.hpp</text>
</g>
<!-- Node6&#45;&gt;Node10 -->
<g id="edge20" class="edge"><title>Node6&#45;&gt;Node10</title>
<path fill="none" stroke="midnightblue" d="M111.561,-232.897C109.717,-225.257 107.125,-214.517 104.862,-205.143"/>
<polygon fill="midnightblue" stroke="midnightblue" points="108.254,-204.277 102.505,-195.378 101.449,-205.92 108.254,-204.277"/>
</g>
<!-- Node11 -->
<g id="node22" class="node"><title>Node11</title>
<a xlink:href="_m_r___types_8h.html" target="_top" xlink:title="MR_Types.h">
<polygon fill="none" stroke="black" points="1255.5,-59 1255.5,-79 1326.5,-79 1326.5,-59 1255.5,-59"/>
<text text-anchor="middle" x="1291" y="-66" font-family="FreeSans" font-size="10.00">MR_Types.h</text>
</a>
</g>
<!-- Node6&#45;&gt;Node11 -->
<g id="edge22" class="edge"><title>Node6&#45;&gt;Node11</title>
<path fill="none" stroke="midnightblue" d="M133.238,-235.306C154.889,-226.473 190.961,-211.234 221,-196 238.405,-187.173 240.434,-180.011 259,-174 446.95,-113.152 1070.71,-79.4801 1245.26,-71.0944"/>
<polygon fill="midnightblue" stroke="midnightblue" points="1245.56,-74.5839 1255.39,-70.6121 1245.23,-67.5919 1245.56,-74.5839"/>
</g>
<!-- Node12 -->
<g id="node24" class="node"><title>Node12</title>
<polygon fill="none" stroke="#bfbfbf" points="1262,-1 1262,-21 1320,-21 1320,-1 1262,-1"/>
<text text-anchor="middle" x="1291" y="-8" font-family="FreeSans" font-size="10.00">inttypes.h</text>
</g>
<!-- Node11&#45;&gt;Node12 -->
<g id="edge24" class="edge"><title>Node11&#45;&gt;Node12</title>
<path fill="none" stroke="midnightblue" d="M1291,-58.8972C1291,-51.339 1291,-40.7476 1291,-31.4458"/>
<polygon fill="midnightblue" stroke="midnightblue" points="1294.5,-31.3776 1291,-21.3776 1287.5,-31.3776 1294.5,-31.3776"/>
</g>
<!-- Node14&#45;&gt;Node4 -->
<g id="edge32" class="edge"><title>Node14&#45;&gt;Node4</title>
<path fill="none" stroke="midnightblue" d="M793.373,-351.009C788.887,-349.965 784.334,-348.935 780,-348 564.093,-301.415 437.51,-420.171 292,-254 280.55,-240.924 280.776,-220.556 283.131,-205.334"/>
<polygon fill="midnightblue" stroke="midnightblue" points="286.602,-205.823 285.086,-195.337 279.732,-204.479 286.602,-205.823"/>
</g>
<!-- Node14&#45;&gt;Node9 -->
<g id="edge30" class="edge"><title>Node14&#45;&gt;Node9</title>
<path fill="none" stroke="midnightblue" d="M827.801,-348.893C832.766,-321.023 846.725,-242.675 853.381,-205.313"/>
<polygon fill="midnightblue" stroke="midnightblue" points="856.886,-205.594 855.194,-195.135 849.995,-204.366 856.886,-205.594"/>
</g>
<!-- Node15 -->
<g id="node32" class="node"><title>Node15</title>
<polygon fill="none" stroke="#bfbfbf" points="1147.5,-117 1147.5,-137 1218.5,-137 1218.5,-117 1147.5,-117"/>
<text text-anchor="middle" x="1183" y="-124" font-family="FreeSans" font-size="10.00">SDL2/SDL.h</text>
</g>
<!-- Node14&#45;&gt;Node15 -->
<g id="edge34" class="edge"><title>Node14&#45;&gt;Node15</title>
<path fill="none" stroke="midnightblue" d="M832.043,-348.714C848.123,-321.623 892.213,-249.208 914,-232 950.392,-203.257 1074.67,-161.221 1140.8,-140.116"/>
<polygon fill="midnightblue" stroke="midnightblue" points="1142.04,-143.397 1150.51,-137.036 1139.92,-136.725 1142.04,-143.397"/>
</g>
<!-- Node16 -->
<g id="node34" class="node"><title>Node16</title>
<a xlink:href="_action_8h.html" target="_top" xlink:title="Action.h">
<polygon fill="none" stroke="black" points="610,-291 610,-311 662,-311 662,-291 610,-291"/>
<text text-anchor="middle" x="636" y="-298" font-family="FreeSans" font-size="10.00">Action.h</text>
</a>
</g>
<!-- Node14&#45;&gt;Node16 -->
<g id="edge36" class="edge"><title>Node14&#45;&gt;Node16</title>
<path fill="none" stroke="midnightblue" d="M793.338,-349.029C759.539,-338.712 706.892,-322.641 671.934,-311.969"/>
<polygon fill="midnightblue" stroke="midnightblue" points="672.72,-308.55 662.134,-308.978 670.676,-315.245 672.72,-308.55"/>
</g>
<!-- Node14&#45;&gt;Node22 -->
<g id="edge52" class="edge"><title>Node14&#45;&gt;Node22</title>
<path fill="none" stroke="midnightblue" d="M822.628,-348.706C816.33,-329.482 802.684,-287.825 794.529,-262.929"/>
<polygon fill="midnightblue" stroke="midnightblue" points="797.75,-261.519 791.31,-253.106 791.097,-263.698 797.75,-261.519"/>
</g>
<!-- Node17 -->
<g id="node36" class="node"><title>Node17</title>
<polygon fill="none" stroke="#bfbfbf" points="524.5,-233 524.5,-253 637.5,-253 637.5,-233 524.5,-233"/>
<text text-anchor="middle" x="581" y="-240" font-family="FreeSans" font-size="10.00">SDL2/SDL_keycode.h</text>
</g>
<!-- Node16&#45;&gt;Node17 -->
<g id="edge38" class="edge"><title>Node16&#45;&gt;Node17</title>
<path fill="none" stroke="midnightblue" d="M626.42,-290.897C618.551,-282.6 607.216,-270.646 597.838,-260.757"/>
<polygon fill="midnightblue" stroke="midnightblue" points="600.261,-258.226 590.841,-253.378 595.182,-263.042 600.261,-258.226"/>
</g>
<!-- Node18 -->
<g id="node38" class="node"><title>Node18</title>
<polygon fill="none" stroke="#bfbfbf" points="301,-233 301,-253 407,-253 407,-233 301,-233"/>
<text text-anchor="middle" x="354" y="-240" font-family="FreeSans" font-size="10.00">SDL2/SDL_mouse.h</text>
</g>
<!-- Node16&#45;&gt;Node18 -->
<g id="edge40" class="edge"><title>Node16&#45;&gt;Node18</title>
<path fill="none" stroke="midnightblue" d="M609.976,-295.647C565.351,-286.469 473.184,-267.513 412.489,-255.03"/>
<polygon fill="midnightblue" stroke="midnightblue" points="413.158,-251.594 402.658,-253.008 411.748,-258.451 413.158,-251.594"/>
</g>
<!-- Node19 -->
<g id="node40" class="node"><title>Node19</title>
<a xlink:href="_vec_8h.html" target="_top" xlink:title="../Display/Vec.h">
<polygon fill="none" stroke="black" points="424.5,-233 424.5,-253 507.5,-253 507.5,-233 424.5,-233"/>
<text text-anchor="middle" x="466" y="-240" font-family="FreeSans" font-size="10.00">../Display/Vec.h</text>
</a>
</g>
<!-- Node16&#45;&gt;Node19 -->
<g id="edge42" class="edge"><title>Node16&#45;&gt;Node19</title>
<path fill="none" stroke="midnightblue" d="M609.81,-292.065C581.787,-282.504 537.038,-267.236 504.897,-256.271"/>
<polygon fill="midnightblue" stroke="midnightblue" points="505.955,-252.934 495.36,-253.017 503.694,-259.559 505.955,-252.934"/>
</g>
<!-- Node20 -->
<g id="node42" class="node"><title>Node20</title>
<a xlink:href="_exception_8h.html" target="_top" xlink:title="../Exception.h">
<polygon fill="none" stroke="black" points="655,-233 655,-253 729,-253 729,-233 655,-233"/>
<text text-anchor="middle" x="692" y="-240" font-family="FreeSans" font-size="10.00">../Exception.h</text>
</a>
</g>
<!-- Node16&#45;&gt;Node20 -->
<g id="edge44" class="edge"><title>Node16&#45;&gt;Node20</title>
<path fill="none" stroke="midnightblue" d="M645.754,-290.897C653.766,-282.6 665.307,-270.646 674.855,-260.757"/>
<polygon fill="midnightblue" stroke="midnightblue" points="677.552,-263.003 681.98,-253.378 672.516,-258.141 677.552,-263.003"/>
</g>
<!-- Node16&#45;&gt;Node22 -->
<g id="edge48" class="edge"><title>Node16&#45;&gt;Node22</title>
<path fill="none" stroke="midnightblue" d="M662.13,-291.029C686.926,-281.568 724.402,-267.268 752.017,-256.731"/>
<polygon fill="midnightblue" stroke="midnightblue" points="753.607,-259.87 761.703,-253.035 751.112,-253.33 753.607,-259.87"/>
</g>
<!-- Node21 -->
<g id="node44" class="node"><title>Node21</title>
<polygon fill="none" stroke="#bfbfbf" points="663,-175 663,-195 721,-195 721,-175 663,-175"/>
<text text-anchor="middle" x="692" y="-182" font-family="FreeSans" font-size="10.00">exception</text>
</g>
<!-- Node20&#45;&gt;Node21 -->
<g id="edge46" class="edge"><title>Node20&#45;&gt;Node21</title>
<path fill="none" stroke="midnightblue" d="M692,-232.897C692,-225.339 692,-214.748 692,-205.446"/>
<polygon fill="midnightblue" stroke="midnightblue" points="695.5,-205.378 692,-195.378 688.5,-205.378 695.5,-205.378"/>
</g>
<!-- Node22&#45;&gt;Node4 -->
<g id="edge50" class="edge"><title>Node22&#45;&gt;Node4</title>
<path fill="none" stroke="midnightblue" d="M746.325,-233.464C743.514,-232.934 740.72,-232.44 738,-232 581.636,-206.717 392.4,-192.103 319.095,-187.037"/>
<polygon fill="midnightblue" stroke="midnightblue" points="318.957,-183.52 308.742,-186.332 318.481,-190.504 318.957,-183.52"/>
</g>
<!-- Node23&#45;&gt;Node14 -->
<g id="edge56" class="edge"><title>Node23&#45;&gt;Node14</title>
<path fill="none" stroke="midnightblue" d="M881.329,-406.897C871.555,-398.435 857.388,-386.172 845.837,-376.172"/>
<polygon fill="midnightblue" stroke="midnightblue" points="847.839,-373.276 837.988,-369.378 843.258,-378.569 847.839,-373.276"/>
</g>
<!-- Node23&#45;&gt;Node22 -->
<g id="edge58" class="edge"><title>Node23&#45;&gt;Node22</title>
<path fill="none" stroke="midnightblue" d="M890.15,-406.781C886.073,-392.953 877.855,-367.743 867,-348 848.824,-314.941 821.164,-280.776 803.858,-260.73"/>
<polygon fill="midnightblue" stroke="midnightblue" points="806.353,-258.267 797.133,-253.048 801.086,-262.878 806.353,-258.267"/>
</g>
<!-- Node24 -->
<g id="node54" class="node"><title>Node24</title>
<a xlink:href="_main_character_8h.html" target="_top" xlink:title="../MainCharacter/MainCharacter.h">
<polygon fill="none" stroke="black" points="1109.5,-349 1109.5,-369 1270.5,-369 1270.5,-349 1109.5,-349"/>
<text text-anchor="middle" x="1190" y="-356" font-family="FreeSans" font-size="10.00">../MainCharacter/MainCharacter.h</text>
</a>
</g>
<!-- Node23&#45;&gt;Node24 -->
<g id="edge60" class="edge"><title>Node23&#45;&gt;Node24</title>
<path fill="none" stroke="midnightblue" d="M943.046,-407.227C994.249,-397.228 1073.87,-381.678 1128.8,-370.952"/>
<polygon fill="midnightblue" stroke="midnightblue" points="1129.61,-374.36 1138.75,-369.008 1128.27,-367.49 1129.61,-374.36"/>
</g>
<!-- Node25 -->
<g id="node56" class="node"><title>Node25</title>
<a xlink:href="_main_character_renderer_8h.html" target="_top" xlink:title="MainCharacterRenderer.h">
<polygon fill="none" stroke="black" points="1323,-291 1323,-311 1449,-311 1449,-291 1323,-291"/>
<text text-anchor="middle" x="1386" y="-298" font-family="FreeSans" font-size="10.00">MainCharacterRenderer.h</text>
</a>
</g>
<!-- Node24&#45;&gt;Node25 -->
<g id="edge62" class="edge"><title>Node24&#45;&gt;Node25</title>
<path fill="none" stroke="midnightblue" d="M1224.14,-348.897C1256.92,-339.196 1306.59,-324.498 1342.26,-313.944"/>
<polygon fill="midnightblue" stroke="midnightblue" points="1343.33,-317.278 1351.92,-311.084 1341.34,-310.566 1343.33,-317.278"/>
</g>
<!-- Node34 -->
<g id="node81" class="node"><title>Node34</title>
<a xlink:href="_maze_element_8h.html" target="_top" xlink:title="../Model/MazeElement.h">
<polygon fill="none" stroke="black" points="1466.5,-291 1466.5,-311 1585.5,-311 1585.5,-291 1466.5,-291"/>
<text text-anchor="middle" x="1526" y="-298" font-family="FreeSans" font-size="10.00">../Model/MazeElement.h</text>
</a>
</g>
<!-- Node24&#45;&gt;Node34 -->
<g id="edge94" class="edge"><title>Node24&#45;&gt;Node34</title>
<path fill="none" stroke="midnightblue" d="M1248.14,-348.963C1306.5,-338.89 1396.35,-323.379 1457.99,-312.741"/>
<polygon fill="midnightblue" stroke="midnightblue" points="1458.75,-316.161 1468.01,-311.011 1457.56,-309.263 1458.75,-316.161"/>
</g>
<!-- Node37 -->
<g id="node92" class="node"><title>Node37</title>
<a xlink:href="_physical_collision_8h.html" target="_top" xlink:title="../Model/PhysicalCollision.h">
<polygon fill="none" stroke="black" points="1171,-291 1171,-311 1305,-311 1305,-291 1171,-291"/>
<text text-anchor="middle" x="1238" y="-298" font-family="FreeSans" font-size="10.00">../Model/PhysicalCollision.h</text>
</a>
</g>
<!-- Node24&#45;&gt;Node37 -->
<g id="edge110" class="edge"><title>Node24&#45;&gt;Node37</title>
<path fill="none" stroke="midnightblue" d="M1198.36,-348.897C1205.09,-340.764 1214.73,-329.118 1222.82,-319.347"/>
<polygon fill="midnightblue" stroke="midnightblue" points="1225.73,-321.313 1229.41,-311.378 1220.34,-316.85 1225.73,-321.313"/>
</g>
<!-- Node38 -->
<g id="node95" class="node"><title>Node38</title>
<a xlink:href="_fast_fifo_8h.html" target="_top" xlink:title="../Util/FastFifo.h">
<polygon fill="none" stroke="black" points="930,-117 930,-137 1016,-137 1016,-117 930,-117"/>
<text text-anchor="middle" x="973" y="-124" font-family="FreeSans" font-size="10.00">../Util/FastFifo.h</text>
</a>
</g>
<!-- Node24&#45;&gt;Node38 -->
<g id="edge114" class="edge"><title>Node24&#45;&gt;Node38</title>
<path fill="none" stroke="midnightblue" d="M1180.73,-348.676C1172.32,-339.238 1159.64,-324.837 1149,-312 1120.12,-277.159 1116.67,-265.281 1086,-232 1055.45,-198.85 1016.22,-163.898 992.934,-143.846"/>
<polygon fill="midnightblue" stroke="midnightblue" points="994.995,-141.004 985.121,-137.163 990.445,-146.323 994.995,-141.004"/>
</g>
<!-- Node39 -->
<g id="node98" class="node"><title>Node39</title>
<a xlink:href="_bit_packing_8h.html" target="_top" xlink:title="../Util/BitPacking.h">
<polygon fill="none" stroke="black" points="1033.5,-117 1033.5,-137 1130.5,-137 1130.5,-117 1033.5,-117"/>
<text text-anchor="middle" x="1082" y="-124" font-family="FreeSans" font-size="10.00">../Util/BitPacking.h</text>
</a>
</g>
<!-- Node24&#45;&gt;Node39 -->
<g id="edge118" class="edge"><title>Node24&#45;&gt;Node39</title>
<path fill="none" stroke="midnightblue" d="M1183.05,-348.923C1176.88,-339.653 1167.96,-325.358 1162,-312 1135.82,-253.333 1148.92,-230.849 1119,-174 1113.49,-163.524 1105.55,-153.058 1098.43,-144.67"/>
<polygon fill="midnightblue" stroke="midnightblue" points="1100.96,-142.239 1091.72,-137.052 1095.71,-146.868 1100.96,-142.239"/>
</g>
<!-- Node26 -->
<g id="node58" class="node"><title>Node26</title>
<a xlink:href="_viewport3_d_8h.html" target="_top" xlink:title="../VideoServices/Viewport3D.h">
<polygon fill="none" stroke="black" points="1334,-233 1334,-253 1482,-253 1482,-233 1334,-233"/>
<text text-anchor="middle" x="1408" y="-240" font-family="FreeSans" font-size="10.00">../VideoServices/Viewport3D.h</text>
</a>
</g>
<!-- Node25&#45;&gt;Node26 -->
<g id="edge64" class="edge"><title>Node25&#45;&gt;Node26</title>
<path fill="none" stroke="midnightblue" d="M1389.83,-290.897C1392.76,-283.175 1396.89,-272.286 1400.47,-262.841"/>
<polygon fill="midnightblue" stroke="midnightblue" points="1403.79,-263.969 1404.06,-253.378 1397.24,-261.486 1403.79,-263.969"/>
</g>
<!-- Node32 -->
<g id="node75" class="node"><title>Node32</title>
<a xlink:href="_sound_server_8h.html" target="_top" xlink:title="../VideoServices/SoundServer.h">
<polygon fill="none" stroke="black" points="923,-233 923,-253 1077,-253 1077,-233 923,-233"/>
<text text-anchor="middle" x="1000" y="-240" font-family="FreeSans" font-size="10.00">../VideoServices/SoundServer.h</text>
</a>
</g>
<!-- Node25&#45;&gt;Node32 -->
<g id="edge86" class="edge"><title>Node25&#45;&gt;Node32</title>
<path fill="none" stroke="midnightblue" d="M1322.79,-291.331C1319.82,-290.88 1316.88,-290.435 1314,-290 1233.3,-277.795 1140.9,-263.984 1077.33,-254.509"/>
<polygon fill="midnightblue" stroke="midnightblue" points="1077.79,-251.039 1067.39,-253.026 1076.76,-257.962 1077.79,-251.039"/>
</g>
<!-- Node33 -->
<g id="node78" class="node"><title>Node33</title>
<a xlink:href="_dll_object_factory_8h.html" target="_top" xlink:title="../Util/DllObjectFactory.h">
<polygon fill="none" stroke="black" points="1500,-233 1500,-253 1622,-253 1622,-233 1500,-233"/>
<text text-anchor="middle" x="1561" y="-240" font-family="FreeSans" font-size="10.00">../Util/DllObjectFactory.h</text>
</a>
</g>
<!-- Node25&#45;&gt;Node33 -->
<g id="edge90" class="edge"><title>Node25&#45;&gt;Node33</title>
<path fill="none" stroke="midnightblue" d="M1416.48,-290.897C1445.38,-281.321 1488.97,-266.874 1520.72,-256.352"/>
<polygon fill="midnightblue" stroke="midnightblue" points="1522.18,-259.553 1530.57,-253.084 1519.98,-252.908 1522.18,-259.553"/>
</g>
<!-- Node27 -->
<g id="node60" class="node"><title>Node27</title>
<a xlink:href="_viewport2_d_8h.html" target="_top" xlink:title="Viewport2D.h">
<polygon fill="none" stroke="black" points="1418,-117 1418,-137 1492,-137 1492,-117 1418,-117"/>
<text text-anchor="middle" x="1455" y="-124" font-family="FreeSans" font-size="10.00">Viewport2D.h</text>
</a>
</g>
<!-- Node26&#45;&gt;Node27 -->
<g id="edge66" class="edge"><title>Node26&#45;&gt;Node27</title>
<path fill="none" stroke="midnightblue" d="M1415.06,-232.97C1421.3,-223.73 1430.26,-209.455 1436,-196 1442.77,-180.127 1447.78,-161.17 1450.96,-147.146"/>
<polygon fill="midnightblue" stroke="midnightblue" points="1454.43,-147.621 1453.11,-137.11 1447.59,-146.156 1454.43,-147.621"/>
</g>
<!-- Node28 -->
<g id="node63" class="node"><title>Node28</title>
<a xlink:href="_color_palette_8h.html" target="_top" xlink:title="ColorPalette.h">
<polygon fill="none" stroke="black" points="1282.5,-175 1282.5,-195 1359.5,-195 1359.5,-175 1282.5,-175"/>
<text text-anchor="middle" x="1321" y="-182" font-family="FreeSans" font-size="10.00">ColorPalette.h</text>
</a>
</g>
<!-- Node26&#45;&gt;Node28 -->
<g id="edge70" class="edge"><title>Node26&#45;&gt;Node28</title>
<path fill="none" stroke="midnightblue" d="M1392.85,-232.897C1379.58,-224.052 1360.08,-211.054 1344.74,-200.829"/>
<polygon fill="midnightblue" stroke="midnightblue" points="1346.53,-197.817 1336.27,-195.182 1342.65,-203.641 1346.53,-197.817"/>
</g>
<!-- Node29 -->
<g id="node67" class="node"><title>Node29</title>
<a xlink:href="_bitmap_8h.html" target="_top" xlink:title="Bitmap.h">
<polygon fill="none" stroke="black" points="1509.5,-117 1509.5,-137 1564.5,-137 1564.5,-117 1509.5,-117"/>
<text text-anchor="middle" x="1537" y="-124" font-family="FreeSans" font-size="10.00">Bitmap.h</text>
</a>
</g>
<!-- Node26&#45;&gt;Node29 -->
<g id="edge76" class="edge"><title>Node26&#45;&gt;Node29</title>
<path fill="none" stroke="midnightblue" d="M1419.45,-232.706C1441.69,-212.706 1490.93,-168.426 1518.1,-144"/>
<polygon fill="midnightblue" stroke="midnightblue" points="1520.67,-146.395 1525.76,-137.106 1515.99,-141.189 1520.67,-146.395"/>
</g>
<!-- Node30 -->
<g id="node70" class="node"><title>Node30</title>
<a xlink:href="_patch_8h.html" target="_top" xlink:title="Patch.h">
<polygon fill="none" stroke="black" points="1377,-175 1377,-195 1427,-195 1427,-175 1377,-175"/>
<text text-anchor="middle" x="1402" y="-182" font-family="FreeSans" font-size="10.00">Patch.h</text>
</a>
</g>
<!-- Node26&#45;&gt;Node30 -->
<g id="edge80" class="edge"><title>Node26&#45;&gt;Node30</title>
<path fill="none" stroke="midnightblue" d="M1406.95,-232.897C1406.17,-225.339 1405.08,-214.748 1404.12,-205.446"/>
<polygon fill="midnightblue" stroke="midnightblue" points="1407.58,-204.964 1403.07,-195.378 1400.62,-205.685 1407.58,-204.964"/>
</g>
<!-- Node27&#45;&gt;Node11 -->
<g id="edge68" class="edge"><title>Node27&#45;&gt;Node11</title>
<path fill="none" stroke="midnightblue" d="M1426.43,-116.897C1399.47,-107.362 1358.86,-92.9992 1329.14,-82.4885"/>
<polygon fill="midnightblue" stroke="midnightblue" points="1330.11,-79.1187 1319.51,-79.0842 1327.77,-85.7182 1330.11,-79.1187"/>
</g>
<!-- Node28&#45;&gt;Node11 -->
<g id="edge74" class="edge"><title>Node28&#45;&gt;Node11</title>
<path fill="none" stroke="midnightblue" d="M1301.83,-174.887C1288.78,-166.831 1272.56,-154.22 1265,-138 1257.19,-121.249 1266.46,-101.446 1276.03,-87.3614"/>
<polygon fill="midnightblue" stroke="midnightblue" points="1279.06,-89.1457 1282.18,-79.021 1273.43,-84.9896 1279.06,-89.1457"/>
</g>
<!-- Node28&#45;&gt;Node15 -->
<g id="edge72" class="edge"><title>Node28&#45;&gt;Node15</title>
<path fill="none" stroke="midnightblue" d="M1296.96,-174.897C1274.74,-165.556 1241.49,-151.583 1216.63,-141.136"/>
<polygon fill="midnightblue" stroke="midnightblue" points="1217.8,-137.83 1207.23,-137.182 1215.09,-144.283 1217.8,-137.83"/>
</g>
<!-- Node29&#45;&gt;Node11 -->
<g id="edge78" class="edge"><title>Node29&#45;&gt;Node11</title>
<path fill="none" stroke="midnightblue" d="M1509.15,-118.261C1506.41,-117.469 1503.65,-116.701 1501,-116 1444.82,-101.154 1379.39,-86.9989 1336.69,-78.1751"/>
<polygon fill="midnightblue" stroke="midnightblue" points="1337.37,-74.7426 1326.87,-76.1582 1335.96,-81.5994 1337.37,-74.7426"/>
</g>
<!-- Node31 -->
<g id="node72" class="node"><title>Node31</title>
<a xlink:href="_world_coordinates_8h.html" target="_top" xlink:title="../Util/WorldCoordinates.h">
<polygon fill="none" stroke="black" points="1274,-117 1274,-137 1400,-137 1400,-117 1274,-117"/>
<text text-anchor="middle" x="1337" y="-124" font-family="FreeSans" font-size="10.00">../Util/WorldCoordinates.h</text>
</a>
</g>
<!-- Node30&#45;&gt;Node31 -->
<g id="edge82" class="edge"><title>Node30&#45;&gt;Node31</title>
<path fill="none" stroke="midnightblue" d="M1390.68,-174.897C1381.19,-166.435 1367.45,-154.172 1356.24,-144.172"/>
<polygon fill="midnightblue" stroke="midnightblue" points="1358.42,-141.424 1348.63,-137.378 1353.76,-146.647 1358.42,-141.424"/>
</g>
<!-- Node31&#45;&gt;Node11 -->
<g id="edge84" class="edge"><title>Node31&#45;&gt;Node11</title>
<path fill="none" stroke="midnightblue" d="M1328.99,-116.897C1322.54,-108.764 1313.3,-97.1183 1305.55,-87.3468"/>
<polygon fill="midnightblue" stroke="midnightblue" points="1308.19,-85.0377 1299.23,-79.3776 1302.7,-89.3875 1308.19,-85.0377"/>
</g>
<!-- Node32&#45;&gt;Node4 -->
<g id="edge88" class="edge"><title>Node32&#45;&gt;Node4</title>
<path fill="none" stroke="midnightblue" d="M922.788,-236.71C767.541,-224.064 423.488,-196.037 318.812,-187.51"/>
<polygon fill="midnightblue" stroke="midnightblue" points="318.868,-184.003 308.617,-186.679 318.299,-190.98 318.868,-184.003"/>
</g>
<!-- Node33&#45;&gt;Node11 -->
<g id="edge92" class="edge"><title>Node33&#45;&gt;Node11</title>
<path fill="none" stroke="midnightblue" d="M1566.24,-232.988C1577.73,-209.473 1601.92,-150.135 1573,-116 1557.91,-98.1862 1412.67,-81.1694 1336.75,-73.4005"/>
<polygon fill="midnightblue" stroke="midnightblue" points="1336.82,-69.8897 1326.51,-72.3665 1336.11,-76.8542 1336.82,-69.8897"/>
</g>
<!-- Node34&#45;&gt;Node26 -->
<g id="edge108" class="edge"><title>Node34&#45;&gt;Node26</title>
<path fill="none" stroke="midnightblue" d="M1505.45,-290.897C1486.78,-281.722 1459.02,-268.076 1437.9,-257.694"/>
<polygon fill="midnightblue" stroke="midnightblue" points="1439.23,-254.452 1428.71,-253.182 1436.14,-260.734 1439.23,-254.452"/>
</g>
<!-- Node34&#45;&gt;Node33 -->
<g id="edge106" class="edge"><title>Node34&#45;&gt;Node33</title>
<path fill="none" stroke="midnightblue" d="M1532.1,-290.897C1536.91,-282.928 1543.75,-271.587 1549.57,-261.941"/>
<polygon fill="midnightblue" stroke="midnightblue" points="1552.57,-263.748 1554.74,-253.378 1546.57,-260.131 1552.57,-263.748"/>
</g>
<!-- Node35 -->
<g id="node83" class="node"><title>Node35</title>
<a xlink:href="_shapes_8h.html" target="_top" xlink:title="Shapes.h">
<polygon fill="none" stroke="black" points="1208.5,-175 1208.5,-195 1265.5,-195 1265.5,-175 1208.5,-175"/>
<text text-anchor="middle" x="1237" y="-182" font-family="FreeSans" font-size="10.00">Shapes.h</text>
</a>
</g>
<!-- Node34&#45;&gt;Node35 -->
<g id="edge96" class="edge"><title>Node34&#45;&gt;Node35</title>
<path fill="none" stroke="midnightblue" d="M1471.41,-290.994C1421.11,-281.279 1350.53,-266.246 1325,-254 1297.62,-240.865 1270.85,-218.024 1254.16,-202.24"/>
<polygon fill="midnightblue" stroke="midnightblue" points="1256.44,-199.574 1246.82,-195.132 1251.57,-204.603 1256.44,-199.574"/>
</g>
<!-- Node36 -->
<g id="node86" class="node"><title>Node36</title>
<a xlink:href="_contact_effect_8h.html" target="_top" xlink:title="ContactEffect.h">
<polygon fill="none" stroke="black" points="1195.5,-233 1195.5,-253 1278.5,-253 1278.5,-233 1195.5,-233"/>
<text text-anchor="middle" x="1237" y="-240" font-family="FreeSans" font-size="10.00">ContactEffect.h</text>
</a>
</g>
<!-- Node34&#45;&gt;Node36 -->
<g id="edge100" class="edge"><title>Node34&#45;&gt;Node36</title>
<path fill="none" stroke="midnightblue" d="M1475.99,-290.963C1423.63,-280.455 1341.79,-264.031 1288.78,-253.391"/>
<polygon fill="midnightblue" stroke="midnightblue" points="1289.4,-249.946 1278.9,-251.409 1288.02,-256.809 1289.4,-249.946"/>
</g>
<!-- Node35&#45;&gt;Node31 -->
<g id="edge98" class="edge"><title>Node35&#45;&gt;Node31</title>
<path fill="none" stroke="midnightblue" d="M1254.42,-174.897C1269.95,-165.887 1292.92,-152.567 1310.69,-142.259"/>
<polygon fill="midnightblue" stroke="midnightblue" points="1312.55,-145.227 1319.45,-137.182 1309.04,-139.171 1312.55,-145.227"/>
</g>
<!-- Node36&#45;&gt;Node9 -->
<g id="edge102" class="edge"><title>Node36&#45;&gt;Node9</title>
<path fill="none" stroke="midnightblue" d="M1195.25,-236.627C1118.93,-224.979 958.452,-200.485 889.554,-189.969"/>
<polygon fill="midnightblue" stroke="midnightblue" points="889.724,-186.454 879.31,-188.405 888.667,-193.374 889.724,-186.454"/>
</g>
<!-- Node36&#45;&gt;Node35 -->
<g id="edge104" class="edge"><title>Node36&#45;&gt;Node35</title>
<path fill="none" stroke="midnightblue" d="M1237,-232.897C1237,-225.339 1237,-214.748 1237,-205.446"/>
<polygon fill="midnightblue" stroke="midnightblue" points="1240.5,-205.378 1237,-195.378 1233.5,-205.378 1240.5,-205.378"/>
</g>
<!-- Node37&#45;&gt;Node36 -->
<g id="edge112" class="edge"><title>Node37&#45;&gt;Node36</title>
<path fill="none" stroke="midnightblue" d="M1237.83,-290.897C1237.7,-283.339 1237.51,-272.748 1237.35,-263.446"/>
<polygon fill="midnightblue" stroke="midnightblue" points="1240.85,-263.316 1237.18,-253.378 1233.85,-263.436 1240.85,-263.316"/>
</g>
<!-- Node38&#45;&gt;Node11 -->
<g id="edge116" class="edge"><title>Node38&#45;&gt;Node11</title>
<path fill="none" stroke="midnightblue" d="M1016.11,-117.765C1019.11,-117.156 1022.1,-116.563 1025,-116 1102.04,-101.05 1192.02,-85.5616 1245.11,-76.6272"/>
<polygon fill="midnightblue" stroke="midnightblue" points="1245.94,-80.0373 1255.22,-74.9298 1244.78,-73.1339 1245.94,-80.0373"/>
</g>
<!-- Node39&#45;&gt;Node11 -->
<g id="edge120" class="edge"><title>Node39&#45;&gt;Node11</title>
<path fill="none" stroke="midnightblue" d="M1118.41,-116.897C1153.73,-107.095 1207.43,-92.1914 1245.54,-81.6152"/>
<polygon fill="midnightblue" stroke="midnightblue" points="1246.66,-84.9369 1255.36,-78.8903 1244.79,-78.1918 1246.66,-84.9369"/>
</g>
</g>
</svg>
