<?xml version="1.0" encoding="UTF-8" standalone="no"?>
<!DOCTYPE svg PUBLIC "-//W3C//DTD SVG 1.1//EN"
 "http://www.w3.org/Graphics/SVG/1.1/DTD/svg11.dtd">
<!-- Generated by graphviz version 2.38.0 (20140413.2041)
 -->
<!-- Title: Console.h Pages: 1 -->
<svg width="282pt" height="196pt"
 viewBox="0.00 0.00 281.50 196.00" xmlns="http://www.w3.org/2000/svg" xmlns:xlink="http://www.w3.org/1999/xlink">
<g id="graph0" class="graph" transform="scale(1 1) rotate(0) translate(4 192)">
<title>Console.h</title>
<!-- Node1 -->
<g id="node1" class="node"><title>Node1</title>
<polygon fill="#bfbfbf" stroke="black" points="132.5,-168.5 132.5,-187.5 196.5,-187.5 196.5,-168.5 132.5,-168.5"/>
<text text-anchor="middle" x="164.5" y="-175.5" font-family="FreeSans" font-size="10.00">Console.h</text>
</g>
<!-- Node2 -->
<g id="node2" class="node"><title>Node2</title>
<g id="a_node2"><a xlink:href="_sys_console_8h.html" target="_top" xlink:title="SysConsole.h">
<polygon fill="none" stroke="black" points="76,-112.5 76,-131.5 157,-131.5 157,-112.5 76,-112.5"/>
<text text-anchor="middle" x="116.5" y="-119.5" font-family="FreeSans" font-size="10.00">SysConsole.h</text>
</a>
</g>
</g>
<!-- Node1&#45;&gt;Node2 -->
<g id="edge1" class="edge"><title>Node1&#45;&gt;Node2</title>
<path fill="none" stroke="midnightblue" d="M149.772,-160.431C141.36,-150.967 131.151,-139.483 124.279,-131.751"/>
<polygon fill="midnightblue" stroke="midnightblue" points="147.314,-162.934 156.574,-168.083 152.546,-158.284 147.314,-162.934"/>
</g>
<!-- Node7 -->
<g id="node7" class="node"><title>Node7</title>
<g id="a_node7"><a xlink:href="_console_8cpp.html" target="_top" xlink:title="Console.cpp">
<polygon fill="none" stroke="black" points="175,-112.5 175,-131.5 250,-131.5 250,-112.5 175,-112.5"/>
<text text-anchor="middle" x="212.5" y="-119.5" font-family="FreeSans" font-size="10.00">Console.cpp</text>
</a>
</g>
</g>
<!-- Node1&#45;&gt;Node7 -->
<g id="edge7" class="edge"><title>Node1&#45;&gt;Node7</title>
<path fill="none" stroke="midnightblue" d="M179.228,-160.431C187.64,-150.967 197.849,-139.483 204.721,-131.751"/>
<polygon fill="midnightblue" stroke="midnightblue" points="176.454,-158.284 172.426,-168.083 181.686,-162.934 176.454,-158.284"/>
</g>
<!-- Node3 -->
<g id="node3" class="node"><title>Node3</title>
<g id="a_node3"><a xlink:href="_console_scene_8h.html" target="_top" xlink:title="ConsoleScene.h">
<polygon fill="none" stroke="black" points="69.5,-56.5 69.5,-75.5 163.5,-75.5 163.5,-56.5 69.5,-56.5"/>
<text text-anchor="middle" x="116.5" y="-63.5" font-family="FreeSans" font-size="10.00">ConsoleScene.h</text>
</a>
</g>
</g>
<!-- Node2&#45;&gt;Node3 -->
<g id="edge2" class="edge"><title>Node2&#45;&gt;Node3</title>
<path fill="none" stroke="midnightblue" d="M116.5,-101.805C116.5,-92.9102 116.5,-82.7798 116.5,-75.7511"/>
<polygon fill="midnightblue" stroke="midnightblue" points="113,-102.083 116.5,-112.083 120,-102.083 113,-102.083"/>
</g>
<!-- Node4 -->
<g id="node4" class="node"><title>Node4</title>
<g id="a_node4"><a xlink:href="_client_app_8cpp.html" target="_top" xlink:title="ClientApp.cpp">
<polygon fill="none" stroke="black" points="0,-0.5 0,-19.5 83,-19.5 83,-0.5 0,-0.5"/>
<text text-anchor="middle" x="41.5" y="-7.5" font-family="FreeSans" font-size="10.00">ClientApp.cpp</text>
</a>
</g>
</g>
<!-- Node2&#45;&gt;Node4 -->
<g id="edge5" class="edge"><title>Node2&#45;&gt;Node4</title>
<path fill="none" stroke="midnightblue" d="M92.6791,-106.762C81.4588,-98.9576 68.7571,-88.3553 60.5,-76 48.6106,-58.2095 44.0232,-32.8618 42.3646,-19.6942"/>
<polygon fill="midnightblue" stroke="midnightblue" points="90.9696,-109.827 101.247,-112.402 94.8183,-103.98 90.9696,-109.827"/>
</g>
<!-- Node6 -->
<g id="node6" class="node"><title>Node6</title>
<g id="a_node6"><a xlink:href="_sys_console_8cpp.html" target="_top" xlink:title="SysConsole.cpp">
<polygon fill="none" stroke="black" points="181.5,-56.5 181.5,-75.5 273.5,-75.5 273.5,-56.5 181.5,-56.5"/>
<text text-anchor="middle" x="227.5" y="-63.5" font-family="FreeSans" font-size="10.00">SysConsole.cpp</text>
</a>
</g>
</g>
<!-- Node2&#45;&gt;Node6 -->
<g id="edge6" class="edge"><title>Node2&#45;&gt;Node6</title>
<path fill="none" stroke="midnightblue" d="M143.505,-107.862C164.088,-97.8492 191.845,-84.3458 209.71,-75.6545"/>
<polygon fill="midnightblue" stroke="midnightblue" points="141.795,-104.802 134.334,-112.324 144.858,-111.097 141.795,-104.802"/>
</g>
<!-- Node3&#45;&gt;Node4 -->
<g id="edge3" class="edge"><title>Node3&#45;&gt;Node4</title>
<path fill="none" stroke="midnightblue" d="M96.1949,-50.3804C82.6394,-40.6204 65.2579,-28.1057 53.7693,-19.8339"/>
<polygon fill="midnightblue" stroke="midnightblue" points="94.2895,-53.3213 104.45,-56.324 98.3797,-47.6405 94.2895,-53.3213"/>
</g>
<!-- Node5 -->
<g id="node5" class="node"><title>Node5</title>
<g id="a_node5"><a xlink:href="_console_scene_8cpp.html" target="_top" xlink:title="ConsoleScene.cpp">
<polygon fill="none" stroke="black" points="101,-0.5 101,-19.5 206,-19.5 206,-0.5 101,-0.5"/>
<text text-anchor="middle" x="153.5" y="-7.5" font-family="FreeSans" font-size="10.00">ConsoleScene.cpp</text>
</a>
</g>
</g>
<!-- Node3&#45;&gt;Node5 -->
<g id="edge4" class="edge"><title>Node3&#45;&gt;Node5</title>
<path fill="none" stroke="midnightblue" d="M128.446,-47.5656C134.812,-38.2747 142.367,-27.2484 147.504,-19.7511"/>
<polygon fill="midnightblue" stroke="midnightblue" points="125.375,-45.8553 122.61,-56.083 131.149,-49.812 125.375,-45.8553"/>
</g>
</g>
</svg>
