<?xml version="1.0" encoding="UTF-8" standalone="no"?>
<!DOCTYPE svg PUBLIC "-//W3C//DTD SVG 1.1//EN"
 "http://www.w3.org/Graphics/SVG/1.1/DTD/svg11.dtd">
<!-- Generated by graphviz version 2.26.3 (20100126.1600)
 -->
<!-- Title: Container.h Pages: 1 -->
<!--zoomable 320 -->
<svg id="main" version="1.1" xmlns="http://www.w3.org/2000/svg" xmlns:xlink="http://www.w3.org/1999/xlink" xml:space="preserve" onload="init(evt)">
<style type="text/css"><![CDATA[
.edge:hover path { stroke: red; }
.edge:hover polygon { stroke: red; fill: red; }
]]></style>
<script type="text/javascript"><![CDATA[
var edges = document.getElementsByTagName('g');
if (edges && edges.length) {
  for (var i=0;i<edges.length;i++) {
    if (edges[i].id.substr(0,4)=='edge') {
      edges[i].setAttribute('class','edge');
    }
  }
}
]]></script>
        <defs>
                <circle id="rim" cx="0" cy="0" r="7"/>
                <circle id="rim2" cx="0" cy="0" r="3.5"/>
                <g id="zoomPlus">
                        <use xlink:href="#rim" fill="#404040">
                                <set attributeName="fill" to="#808080" begin="zoomplus.mouseover" end="zoomplus.mouseout"/>
                        </use>
                        <path d="M-4,0h8M0,-4v8" fill="none" stroke="white" stroke-width="1.5" pointer-events="none"/>
                </g>
                <g id="zoomMin">
                        <use xlink:href="#rim" fill="#404040">
                                <set attributeName="fill" to="#808080" begin="zoomminus.mouseover" end="zoomminus.mouseout"/>
                        </use>
                        <path d="M-4,0h8" fill="none" stroke="white" stroke-width="1.5" pointer-events="none"/>
                </g>
                <g id="dirArrow">
                        <path fill="none" stroke="white" stroke-width="1.5" d="M0,-3.0v7 M-2.5,-0.5L0,-3.0L2.5,-0.5"/>
                </g>
               <g id="resetDef">
                       <use xlink:href="#rim2" fill="#404040">
                               <set attributeName="fill" to="#808080" begin="reset.mouseover" end="reset.mouseout"/>
                       </use>
               </g>
        </defs>

<script type="text/javascript">
var viewWidth = 1699;
var viewHeight = 320;
var sectionId = 'dynsection-1';
</script>
<script xlink:href="svgpan.js"/>
<svg id="graph" class="graph">
<g id="viewport">
<title>Container.h</title>
<!-- Node1 -->
<g id="node1" class="node"><title>Node1</title>
<polygon fill="#bfbfbf" stroke="black" points="847.5,-291 847.5,-311 912.5,-311 912.5,-291 847.5,-291"/>
<text text-anchor="middle" x="880" y="-298" font-family="FreeSans" font-size="10.00">Container.h</text>
</g>
<!-- Node2 -->
<g id="node3" class="node"><title>Node2</title>
<a xlink:href="_flex_grid_8h.html" target="_top" xlink:title="FlexGrid.h">
<polygon fill="none" stroke="black" points="365,-233 365,-253 425,-253 425,-233 365,-233"/>
<text text-anchor="middle" x="395" y="-240" font-family="FreeSans" font-size="10.00">FlexGrid.h</text>
</a>
</g>
<!-- Node1&#45;&gt;Node2 -->
<g id="edge2" class="edge"><title>Node1&#45;&gt;Node2</title>
<path fill="none" stroke="midnightblue" d="M837.457,-295.912C741.172,-284.398 508.481,-256.571 425.241,-246.616"/>
<polygon fill="midnightblue" stroke="midnightblue" points="837.08,-299.392 847.425,-297.104 837.911,-292.442 837.08,-299.392"/>
</g>
<!-- Node4 -->
<g id="node7" class="node"><title>Node4</title>
<a xlink:href="_dialog_scene_8cpp.html" target="_top" xlink:title="DialogScene.cpp">
<polygon fill="none" stroke="black" points="-0.5,-175 -0.5,-195 88.5,-195 88.5,-175 -0.5,-175"/>
<text text-anchor="middle" x="44" y="-182" font-family="FreeSans" font-size="10.00">DialogScene.cpp</text>
</a>
</g>
<!-- Node1&#45;&gt;Node4 -->
<g id="edge16" class="edge"><title>Node1&#45;&gt;Node4</title>
<path fill="none" stroke="midnightblue" d="M837.272,-299.027C747.636,-294.48 533.557,-281.481 356,-254 256.223,-238.557 140.621,-210.197 82.1265,-195.092"/>
<polygon fill="midnightblue" stroke="midnightblue" points="837.162,-302.526 847.324,-299.528 837.511,-295.534 837.162,-302.526"/>
</g>
<!-- Node6 -->
<g id="node11" class="node"><title>Node6</title>
<a xlink:href="_test_lab_scene_8cpp.html" target="_top" xlink:title="TestLabScene.cpp">
<polygon fill="none" stroke="black" points="627,-117 627,-137 725,-137 725,-117 627,-117"/>
<text text-anchor="middle" x="676" y="-124" font-family="FreeSans" font-size="10.00">TestLabScene.cpp</text>
</a>
</g>
<!-- Node1&#45;&gt;Node6 -->
<g id="edge102" class="edge"><title>Node1&#45;&gt;Node6</title>
<path fill="none" stroke="midnightblue" d="M841.838,-287.196C822.756,-279.217 799.963,-267.977 782,-254 736.441,-218.551 697.078,-160.476 682.267,-137.159"/>
<polygon fill="midnightblue" stroke="midnightblue" points="840.568,-290.458 851.151,-290.959 843.19,-283.968 840.568,-290.458"/>
</g>
<!-- Node7 -->
<g id="node13" class="node"><title>Node7</title>
<a xlink:href="_track_select_scene_8cpp.html" target="_top" xlink:title="TrackSelectScene.cpp">
<polygon fill="none" stroke="black" points="473.5,-175 473.5,-195 588.5,-195 588.5,-175 473.5,-175"/>
<text text-anchor="middle" x="531" y="-182" font-family="FreeSans" font-size="10.00">TrackSelectScene.cpp</text>
</a>
</g>
<!-- Node1&#45;&gt;Node7 -->
<g id="edge104" class="edge"><title>Node1&#45;&gt;Node7</title>
<path fill="none" stroke="midnightblue" d="M837.078,-299.157C784.582,-295.572 693.957,-285.025 623,-254 589.524,-239.363 556.896,-210.393 541.01,-195.062"/>
<polygon fill="midnightblue" stroke="midnightblue" points="837.166,-302.669 847.366,-299.803 837.605,-295.683 837.166,-302.669"/>
</g>
<!-- Node9 -->
<g id="node18" class="node"><title>Node9</title>
<a xlink:href="_form_scene_8cpp.html" target="_top" xlink:title="FormScene.cpp">
<polygon fill="none" stroke="black" points="647.5,-233 647.5,-253 732.5,-253 732.5,-233 647.5,-233"/>
<text text-anchor="middle" x="690" y="-240" font-family="FreeSans" font-size="10.00">FormScene.cpp</text>
</a>
</g>
<!-- Node1&#45;&gt;Node9 -->
<g id="edge18" class="edge"><title>Node1&#45;&gt;Node9</title>
<path fill="none" stroke="midnightblue" d="M837.503,-288.027C802.853,-277.45 754.619,-262.726 722.872,-253.035"/>
<polygon fill="midnightblue" stroke="midnightblue" points="836.752,-291.457 847.338,-291.029 838.795,-284.762 836.752,-291.457"/>
</g>
<!-- Node10 -->
<g id="node20" class="node"><title>Node10</title>
<a xlink:href="_hud_decor_8h.html" target="_top" xlink:title="HudDecor.h">
<polygon fill="none" stroke="black" points="791,-233 791,-253 859,-253 859,-233 791,-233"/>
<text text-anchor="middle" x="825" y="-240" font-family="FreeSans" font-size="10.00">HudDecor.h</text>
</a>
</g>
<!-- Node1&#45;&gt;Node10 -->
<g id="edge20" class="edge"><title>Node1&#45;&gt;Node10</title>
<path fill="none" stroke="midnightblue" d="M863.47,-283.568C854.136,-273.725 842.785,-261.755 834.841,-253.378"/>
<polygon fill="midnightblue" stroke="midnightblue" points="860.999,-286.049 870.42,-290.897 866.078,-281.233 860.999,-286.049"/>
</g>
<!-- Node11 -->
<g id="node22" class="node"><title>Node11</title>
<a xlink:href="_hud_8h.html" target="_top" xlink:title="Hud.h">
<polygon fill="none" stroke="black" points="606,-175 606,-195 648,-195 648,-175 606,-175"/>
<text text-anchor="middle" x="627" y="-182" font-family="FreeSans" font-size="10.00">Hud.h</text>
</a>
</g>
<!-- Node1&#45;&gt;Node11 -->
<g id="edge92" class="edge"><title>Node1&#45;&gt;Node11</title>
<path fill="none" stroke="midnightblue" d="M837.045,-298.359C775.327,-293.645 666.004,-281.56 639,-254 623.513,-238.193 623.981,-209.987 625.546,-195.001"/>
<polygon fill="midnightblue" stroke="midnightblue" points="837.024,-301.867 847.253,-299.105 837.535,-294.886 837.024,-301.867"/>
</g>
<!-- Node33 -->
<g id="node80" class="node"><title>Node33</title>
<a xlink:href="_game_select_scene_8cpp.html" target="_top" xlink:title="GameSelectScene.cpp">
<polygon fill="none" stroke="black" points="877,-233 877,-253 993,-253 993,-233 877,-233"/>
<text text-anchor="middle" x="935" y="-240" font-family="FreeSans" font-size="10.00">GameSelectScene.cpp</text>
</a>
</g>
<!-- Node1&#45;&gt;Node33 -->
<g id="edge94" class="edge"><title>Node1&#45;&gt;Node33</title>
<path fill="none" stroke="midnightblue" d="M896.53,-283.568C905.864,-273.725 917.215,-261.755 925.159,-253.378"/>
<polygon fill="midnightblue" stroke="midnightblue" points="893.922,-281.233 889.58,-290.897 899.001,-286.049 893.922,-281.233"/>
</g>
<!-- Node34 -->
<g id="node82" class="node"><title>Node34</title>
<a xlink:href="_main_menu_scene_8cpp.html" target="_top" xlink:title="MainMenuScene.cpp">
<polygon fill="none" stroke="black" points="1010.5,-233 1010.5,-253 1117.5,-253 1117.5,-233 1010.5,-233"/>
<text text-anchor="middle" x="1064" y="-240" font-family="FreeSans" font-size="10.00">MainMenuScene.cpp</text>
</a>
</g>
<!-- Node1&#45;&gt;Node34 -->
<g id="edge96" class="edge"><title>Node1&#45;&gt;Node34</title>
<path fill="none" stroke="midnightblue" d="M921.989,-287.764C955.423,-277.225 1001.52,-262.696 1032.01,-253.084"/>
<polygon fill="midnightblue" stroke="midnightblue" points="920.536,-284.553 912.05,-290.897 922.64,-291.229 920.536,-284.553"/>
</g>
<!-- Node35 -->
<g id="node84" class="node"><title>Node35</title>
<a xlink:href="_message_scene_8cpp.html" target="_top" xlink:title="MessageScene.cpp">
<polygon fill="none" stroke="black" points="1135,-233 1135,-253 1237,-253 1237,-233 1135,-233"/>
<text text-anchor="middle" x="1186" y="-240" font-family="FreeSans" font-size="10.00">MessageScene.cpp</text>
</a>
</g>
<!-- Node1&#45;&gt;Node35 -->
<g id="edge98" class="edge"><title>Node1&#45;&gt;Node35</title>
<path fill="none" stroke="midnightblue" d="M922.618,-292.922C978.166,-282.393 1075.22,-263.998 1134.73,-252.718"/>
<polygon fill="midnightblue" stroke="midnightblue" points="921.921,-289.492 912.747,-294.793 923.224,-296.369 921.921,-289.492"/>
</g>
<!-- Node36 -->
<g id="node86" class="node"><title>Node36</title>
<a xlink:href="_pause_menu_scene_8cpp.html" target="_top" xlink:title="PauseMenuScene.cpp">
<polygon fill="none" stroke="black" points="1255,-233 1255,-253 1369,-253 1369,-233 1255,-233"/>
<text text-anchor="middle" x="1312" y="-240" font-family="FreeSans" font-size="10.00">PauseMenuScene.cpp</text>
</a>
</g>
<!-- Node1&#45;&gt;Node36 -->
<g id="edge100" class="edge"><title>Node1&#45;&gt;Node36</title>
<path fill="none" stroke="midnightblue" d="M922.837,-296.026C991.25,-287.964 1129.35,-271.204 1246,-254 1248.87,-253.576 1251.81,-253.13 1254.78,-252.671"/>
<polygon fill="midnightblue" stroke="midnightblue" points="922.388,-292.555 912.865,-297.198 923.205,-299.507 922.388,-292.555"/>
</g>
<!-- Node37 -->
<g id="node90" class="node"><title>Node37</title>
<a xlink:href="_container_8cpp.html" target="_top" xlink:title="Container.cpp">
<polygon fill="none" stroke="black" points="1387,-233 1387,-253 1463,-253 1463,-233 1387,-233"/>
<text text-anchor="middle" x="1425" y="-240" font-family="FreeSans" font-size="10.00">Container.cpp</text>
</a>
</g>
<!-- Node1&#45;&gt;Node37 -->
<g id="edge106" class="edge"><title>Node1&#45;&gt;Node37</title>
<path fill="none" stroke="midnightblue" d="M922.735,-298.927C1009.18,-294.302 1210.78,-281.33 1378,-254 1380.89,-253.527 1383.88,-252.978 1386.87,-252.382"/>
<polygon fill="midnightblue" stroke="midnightblue" points="922.334,-295.443 912.531,-299.462 922.701,-302.433 922.334,-295.443"/>
</g>
<!-- Node38 -->
<g id="node92" class="node"><title>Node38</title>
<a xlink:href="_sdl_container_view_8cpp.html" target="_top" xlink:title="SdlContainerView.cpp">
<polygon fill="none" stroke="black" points="1481,-233 1481,-253 1593,-253 1593,-233 1481,-233"/>
<text text-anchor="middle" x="1537" y="-240" font-family="FreeSans" font-size="10.00">SdlContainerView.cpp</text>
</a>
</g>
<!-- Node1&#45;&gt;Node38 -->
<g id="edge108" class="edge"><title>Node1&#45;&gt;Node38</title>
<path fill="none" stroke="midnightblue" d="M922.561,-298.915C1020.05,-293.858 1266.91,-279.444 1472,-254 1474.84,-253.648 1477.74,-253.259 1480.67,-252.845"/>
<polygon fill="midnightblue" stroke="midnightblue" points="922.317,-295.423 912.509,-299.431 922.676,-302.414 922.317,-295.423"/>
</g>
<!-- Node39 -->
<g id="node94" class="node"><title>Node39</title>
<a xlink:href="_sdl_display_8cpp.html" target="_top" xlink:title="SdlDisplay.cpp">
<polygon fill="none" stroke="black" points="1611,-233 1611,-253 1691,-253 1691,-233 1611,-233"/>
<text text-anchor="middle" x="1651" y="-240" font-family="FreeSans" font-size="10.00">SdlDisplay.cpp</text>
</a>
</g>
<!-- Node1&#45;&gt;Node39 -->
<g id="edge110" class="edge"><title>Node1&#45;&gt;Node39</title>
<path fill="none" stroke="midnightblue" d="M922.786,-300.536C1034.87,-298.819 1346.05,-290.831 1602,-254 1604.93,-253.578 1607.95,-253.074 1610.98,-252.517"/>
<polygon fill="midnightblue" stroke="midnightblue" points="922.518,-297.039 912.57,-300.683 922.619,-304.039 922.518,-297.039"/>
</g>
<!-- Node3 -->
<g id="node5" class="node"><title>Node3</title>
<a xlink:href="_audio_settings_scene_8cpp.html" target="_top" xlink:title="AudioSettingsScene.cpp">
<polygon fill="none" stroke="black" points="193.5,-175 193.5,-195 316.5,-195 316.5,-175 193.5,-175"/>
<text text-anchor="middle" x="255" y="-182" font-family="FreeSans" font-size="10.00">AudioSettingsScene.cpp</text>
</a>
</g>
<!-- Node2&#45;&gt;Node3 -->
<g id="edge4" class="edge"><title>Node2&#45;&gt;Node3</title>
<path fill="none" stroke="midnightblue" d="M361.09,-228.952C335.922,-218.525 302.186,-204.548 279.576,-195.182"/>
<polygon fill="midnightblue" stroke="midnightblue" points="360.036,-232.303 370.614,-232.897 362.715,-225.836 360.036,-232.303"/>
</g>
<!-- Node2&#45;&gt;Node4 -->
<g id="edge6" class="edge"><title>Node2&#45;&gt;Node4</title>
<path fill="none" stroke="midnightblue" d="M354.79,-237.287C297.441,-228.996 188.918,-212.777 97,-196 94.2266,-195.494 91.3753,-194.955 88.5026,-194.399"/>
<polygon fill="midnightblue" stroke="midnightblue" points="354.49,-240.78 364.887,-238.741 355.488,-233.851 354.49,-240.78"/>
</g>
<!-- Node5 -->
<g id="node9" class="node"><title>Node5</title>
<a xlink:href="_settings_menu_scene_8cpp.html" target="_top" xlink:title="SettingsMenuScene.cpp">
<polygon fill="none" stroke="black" points="334,-175 334,-195 456,-195 456,-175 334,-175"/>
<text text-anchor="middle" x="395" y="-182" font-family="FreeSans" font-size="10.00">SettingsMenuScene.cpp</text>
</a>
</g>
<!-- Node2&#45;&gt;Node5 -->
<g id="edge8" class="edge"><title>Node2&#45;&gt;Node5</title>
<path fill="none" stroke="midnightblue" d="M395,-222.89C395,-213.62 395,-203.008 395,-195.378"/>
<polygon fill="midnightblue" stroke="midnightblue" points="391.5,-222.897 395,-232.897 398.5,-222.897 391.5,-222.897"/>
</g>
<!-- Node2&#45;&gt;Node6 -->
<g id="edge10" class="edge"><title>Node2&#45;&gt;Node6</title>
<path fill="none" stroke="midnightblue" d="M435.79,-240.888C501.149,-236.673 625.233,-224.994 657,-196 673.702,-180.755 676.259,-152.312 676.342,-137.142"/>
<polygon fill="midnightblue" stroke="midnightblue" points="435.212,-237.416 425.446,-241.524 435.642,-244.403 435.212,-237.416"/>
</g>
<!-- Node2&#45;&gt;Node7 -->
<g id="edge12" class="edge"><title>Node2&#45;&gt;Node7</title>
<path fill="none" stroke="midnightblue" d="M427.941,-228.952C452.39,-218.525 485.163,-204.548 507.126,-195.182"/>
<polygon fill="midnightblue" stroke="midnightblue" points="426.515,-225.755 418.689,-232.897 429.261,-232.194 426.515,-225.755"/>
</g>
<!-- Node8 -->
<g id="node15" class="node"><title>Node8</title>
<a xlink:href="_flex_grid_8cpp.html" target="_top" xlink:title="FlexGrid.cpp">
<polygon fill="none" stroke="black" points="105.5,-175 105.5,-195 176.5,-195 176.5,-175 105.5,-175"/>
<text text-anchor="middle" x="141" y="-182" font-family="FreeSans" font-size="10.00">FlexGrid.cpp</text>
</a>
</g>
<!-- Node2&#45;&gt;Node8 -->
<g id="edge14" class="edge"><title>Node2&#45;&gt;Node8</title>
<path fill="none" stroke="midnightblue" d="M354.777,-234.308C312.457,-225.09 243.942,-209.961 185,-196 182.242,-195.347 179.389,-194.66 176.523,-193.961"/>
<polygon fill="midnightblue" stroke="midnightblue" points="354.175,-237.759 364.691,-236.464 355.663,-230.919 354.175,-237.759"/>
</g>
<!-- Node10&#45;&gt;Node11 -->
<g id="edge22" class="edge"><title>Node10&#45;&gt;Node11</title>
<path fill="none" stroke="midnightblue" d="M781.152,-230.155C739.828,-218.051 679.677,-200.431 648.123,-191.187"/>
<polygon fill="midnightblue" stroke="midnightblue" points="780.382,-233.577 790.963,-233.029 782.35,-226.859 780.382,-233.577"/>
</g>
<!-- Node20 -->
<g id="node43" class="node"><title>Node20</title>
<a xlink:href="_hud_peer_8cpp.html" target="_top" xlink:title="HudPeer.cpp">
<polygon fill="none" stroke="black" points="983.5,-59 983.5,-79 1056.5,-79 1056.5,-59 983.5,-59"/>
<text text-anchor="middle" x="1020" y="-66" font-family="FreeSans" font-size="10.00">HudPeer.cpp</text>
</a>
</g>
<!-- Node10&#45;&gt;Node20 -->
<g id="edge82" class="edge"><title>Node10&#45;&gt;Node20</title>
<path fill="none" stroke="midnightblue" d="M869.332,-232.412C962.334,-223.581 1364.56,-234.888 1407,-196 1433.38,-171.827 1439.76,-142.75 1416,-116 1392.32,-89.3439 1150.33,-75.1539 1056.71,-70.6278"/>
<polygon fill="midnightblue" stroke="midnightblue" points="868.648,-228.97 859.149,-233.661 869.5,-235.917 868.648,-228.97"/>
</g>
<!-- Node22 -->
<g id="node49" class="node"><title>Node22</title>
<a xlink:href="_fuel_gauge_8h.html" target="_top" xlink:title="FuelGauge.h">
<polygon fill="none" stroke="black" points="891.5,-175 891.5,-195 962.5,-195 962.5,-175 891.5,-175"/>
<text text-anchor="middle" x="927" y="-182" font-family="FreeSans" font-size="10.00">FuelGauge.h</text>
</a>
</g>
<!-- Node10&#45;&gt;Node22 -->
<g id="edge54" class="edge"><title>Node10&#45;&gt;Node22</title>
<path fill="none" stroke="midnightblue" d="M851.676,-227.831C869.773,-217.541 893.205,-204.217 909.094,-195.182"/>
<polygon fill="midnightblue" stroke="midnightblue" points="849.73,-224.912 842.767,-232.897 853.19,-230.997 849.73,-224.912"/>
</g>
<!-- Node24 -->
<g id="node55" class="node"><title>Node24</title>
<a xlink:href="_speedometer_8h.html" target="_top" xlink:title="Speedometer.h">
<polygon fill="none" stroke="black" points="786,-175 786,-195 868,-195 868,-175 786,-175"/>
<text text-anchor="middle" x="827" y="-182" font-family="FreeSans" font-size="10.00">Speedometer.h</text>
</a>
</g>
<!-- Node10&#45;&gt;Node24 -->
<g id="edge62" class="edge"><title>Node10&#45;&gt;Node24</title>
<path fill="none" stroke="midnightblue" d="M825.693,-222.89C826.013,-213.62 826.379,-203.008 826.642,-195.378"/>
<polygon fill="midnightblue" stroke="midnightblue" points="822.195,-222.782 825.348,-232.897 829.191,-223.024 822.195,-222.782"/>
</g>
<!-- Node26 -->
<g id="node61" class="node"><title>Node26</title>
<a xlink:href="_chronometer_8h.html" target="_top" xlink:title="Chronometer.h">
<polygon fill="none" stroke="black" points="999,-175 999,-195 1079,-195 1079,-175 999,-175"/>
<text text-anchor="middle" x="1039" y="-182" font-family="FreeSans" font-size="10.00">Chronometer.h</text>
</a>
</g>
<!-- Node10&#45;&gt;Node26 -->
<g id="edge70" class="edge"><title>Node10&#45;&gt;Node26</title>
<path fill="none" stroke="midnightblue" d="M869.194,-231.022C908.369,-220.405 964.93,-205.075 1001.83,-195.075"/>
<polygon fill="midnightblue" stroke="midnightblue" points="868.119,-227.687 859.383,-233.681 869.95,-234.443 868.119,-227.687"/>
</g>
<!-- Node28 -->
<g id="node66" class="node"><title>Node28</title>
<a xlink:href="_counter_8h.html" target="_top" xlink:title="Counter.h">
<polygon fill="none" stroke="black" points="1156,-175 1156,-195 1214,-195 1214,-175 1156,-175"/>
<text text-anchor="middle" x="1185" y="-182" font-family="FreeSans" font-size="10.00">Counter.h</text>
</a>
</g>
<!-- Node10&#45;&gt;Node28 -->
<g id="edge76" class="edge"><title>Node10&#45;&gt;Node28</title>
<path fill="none" stroke="midnightblue" d="M869.25,-231.9C980.627,-209.866 1101.62,-194.656 1155.98,-188.285"/>
<polygon fill="midnightblue" stroke="midnightblue" points="868.312,-228.518 859.194,-233.913 869.687,-235.382 868.312,-228.518"/>
</g>
<!-- Node30 -->
<g id="node72" class="node"><title>Node30</title>
<a xlink:href="_hud_text_8h.html" target="_top" xlink:title="HudText.h">
<polygon fill="none" stroke="black" points="1241.5,-175 1241.5,-195 1302.5,-195 1302.5,-175 1241.5,-175"/>
<text text-anchor="middle" x="1272" y="-182" font-family="FreeSans" font-size="10.00">HudText.h</text>
</a>
</g>
<!-- Node10&#45;&gt;Node30 -->
<g id="edge84" class="edge"><title>Node10&#45;&gt;Node30</title>
<path fill="none" stroke="midnightblue" d="M869.164,-232.012C1025.93,-204.956 1069.67,-220.893 1223,-196 1228.94,-195.036 1235.23,-193.792 1241.27,-192.49"/>
<polygon fill="midnightblue" stroke="midnightblue" points="868.41,-228.591 859.167,-233.769 869.622,-235.485 868.41,-228.591"/>
</g>
<!-- Node32 -->
<g id="node77" class="node"><title>Node32</title>
<a xlink:href="_hud_decor_8cpp.html" target="_top" xlink:title="HudDecor.cpp">
<polygon fill="none" stroke="black" points="1320,-175 1320,-195 1398,-195 1398,-175 1320,-175"/>
<text text-anchor="middle" x="1359" y="-182" font-family="FreeSans" font-size="10.00">HudDecor.cpp</text>
</a>
</g>
<!-- Node10&#45;&gt;Node32 -->
<g id="edge90" class="edge"><title>Node10&#45;&gt;Node32</title>
<path fill="none" stroke="midnightblue" d="M869.177,-232.048C1064.63,-200.277 1119.02,-225.641 1311,-196 1313.87,-195.556 1316.83,-195.037 1319.8,-194.469"/>
<polygon fill="midnightblue" stroke="midnightblue" points="868.45,-228.62 859.156,-233.706 869.593,-235.526 868.45,-228.62"/>
</g>
<!-- Node11&#45;&gt;Node6 -->
<g id="edge48" class="edge"><title>Node11&#45;&gt;Node6</title>
<path fill="none" stroke="midnightblue" d="M642.223,-166.981C650.442,-157.252 660.296,-145.589 667.233,-137.378"/>
<polygon fill="midnightblue" stroke="midnightblue" points="639.315,-165 635.535,-174.897 644.662,-169.517 639.315,-165"/>
</g>
<!-- Node12 -->
<g id="node24" class="node"><title>Node12</title>
<a xlink:href="_game_scene_8cpp.html" target="_top" xlink:title="GameScene.cpp">
<polygon fill="none" stroke="black" points="298.5,-1 298.5,-21 387.5,-21 387.5,-1 298.5,-1"/>
<text text-anchor="middle" x="343" y="-8" font-family="FreeSans" font-size="10.00">GameScene.cpp</text>
</a>
</g>
<!-- Node11&#45;&gt;Node12 -->
<g id="edge24" class="edge"><title>Node11&#45;&gt;Node12</title>
<path fill="none" stroke="midnightblue" d="M596.008,-174.124C521.47,-155.014 490.453,-178.586 430,-138 384.956,-107.759 356.643,-45.6208 346.851,-21.1879"/>
<polygon fill="midnightblue" stroke="midnightblue" points="595.246,-177.544 605.816,-176.818 597.1,-170.794 595.246,-177.544"/>
</g>
<!-- Node13 -->
<g id="node26" class="node"><title>Node13</title>
<a xlink:href="_hud_peer_8h.html" target="_top" xlink:title="HudPeer.h">
<polygon fill="none" stroke="black" points="439,-117 439,-137 501,-137 501,-117 439,-117"/>
<text text-anchor="middle" x="470" y="-124" font-family="FreeSans" font-size="10.00">HudPeer.h</text>
</a>
</g>
<!-- Node11&#45;&gt;Node13 -->
<g id="edge26" class="edge"><title>Node11&#45;&gt;Node13</title>
<path fill="none" stroke="midnightblue" d="M596.255,-173.642C567.428,-162.992 524.742,-147.223 497.146,-137.028"/>
<polygon fill="midnightblue" stroke="midnightblue" points="595.233,-176.996 605.826,-177.178 597.659,-170.429 595.233,-176.996"/>
</g>
<!-- Node11&#45;&gt;Node20 -->
<g id="edge50" class="edge"><title>Node11&#45;&gt;Node20</title>
<path fill="none" stroke="midnightblue" d="M617.156,-165.545C610.957,-150.234 606.142,-129.325 618,-116 642.115,-88.901 888.895,-74.9389 983.427,-70.5526"/>
<polygon fill="midnightblue" stroke="midnightblue" points="613.967,-166.986 621.269,-174.662 620.348,-164.107 613.967,-166.986"/>
</g>
<!-- Node21 -->
<g id="node47" class="node"><title>Node21</title>
<a xlink:href="_hud_8cpp.html" target="_top" xlink:title="Hud.cpp">
<polygon fill="none" stroke="black" points="518.5,-117 518.5,-137 571.5,-137 571.5,-117 518.5,-117"/>
<text text-anchor="middle" x="545" y="-124" font-family="FreeSans" font-size="10.00">Hud.cpp</text>
</a>
</g>
<!-- Node11&#45;&gt;Node21 -->
<g id="edge52" class="edge"><title>Node11&#45;&gt;Node21</title>
<path fill="none" stroke="midnightblue" d="M604.344,-168.975C589.974,-158.811 571.817,-145.968 559.395,-137.182"/>
<polygon fill="midnightblue" stroke="midnightblue" points="602.531,-171.98 612.717,-174.897 606.574,-166.265 602.531,-171.98"/>
</g>
<!-- Node13&#45;&gt;Node12 -->
<g id="edge28" class="edge"><title>Node13&#45;&gt;Node12</title>
<path fill="none" stroke="midnightblue" d="M451.134,-109.768C424.255,-85.2175 375.791,-40.9513 354.064,-21.1055"/>
<polygon fill="midnightblue" stroke="midnightblue" points="448.986,-112.546 458.73,-116.706 453.706,-107.377 448.986,-112.546"/>
</g>
<!-- Node14 -->
<g id="node29" class="node"><title>Node14</title>
<a xlink:href="_player_peer_8h.html" target="_top" xlink:title="PlayerPeer.h">
<polygon fill="none" stroke="black" points="502.5,-59 502.5,-79 573.5,-79 573.5,-59 502.5,-59"/>
<text text-anchor="middle" x="538" y="-66" font-family="FreeSans" font-size="10.00">PlayerPeer.h</text>
</a>
</g>
<!-- Node13&#45;&gt;Node14 -->
<g id="edge30" class="edge"><title>Node13&#45;&gt;Node14</title>
<path fill="none" stroke="midnightblue" d="M489.755,-110.15C501.42,-100.2 515.817,-87.9207 525.833,-79.3776"/>
<polygon fill="midnightblue" stroke="midnightblue" points="487.182,-107.745 481.845,-116.897 491.724,-113.071 487.182,-107.745"/>
</g>
<!-- Node16 -->
<g id="node34" class="node"><title>Node16</title>
<a xlink:href="_client_script_core_8cpp.html" target="_top" xlink:title="ClientScriptCore.cpp">
<polygon fill="none" stroke="black" points="804.5,-1 804.5,-21 909.5,-21 909.5,-1 804.5,-1"/>
<text text-anchor="middle" x="857" y="-8" font-family="FreeSans" font-size="10.00">ClientScriptCore.cpp</text>
</a>
</g>
<!-- Node13&#45;&gt;Node16 -->
<g id="edge44" class="edge"><title>Node13&#45;&gt;Node16</title>
<path fill="none" stroke="midnightblue" d="M510.817,-114.765C587.656,-91.7337 752.423,-42.3461 823.371,-21.0801"/>
<polygon fill="midnightblue" stroke="midnightblue" points="509.59,-111.479 501.016,-117.703 511.6,-118.185 509.59,-111.479"/>
</g>
<!-- Node13&#45;&gt;Node20 -->
<g id="edge46" class="edge"><title>Node13&#45;&gt;Node20</title>
<path fill="none" stroke="midnightblue" d="M511.327,-116.017C693.066,-83.6742 900.411,-73.2638 983.213,-70.1656"/>
<polygon fill="midnightblue" stroke="midnightblue" points="510.541,-112.602 501.322,-117.824 511.785,-119.49 510.541,-112.602"/>
</g>
<!-- Node14&#45;&gt;Node12 -->
<g id="edge32" class="edge"><title>Node14&#45;&gt;Node12</title>
<path fill="none" stroke="midnightblue" d="M494.414,-56.0361C458.912,-45.4763 409.498,-30.7788 376.904,-21.0842"/>
<polygon fill="midnightblue" stroke="midnightblue" points="493.451,-59.4009 504.034,-58.8972 495.446,-52.6914 493.451,-59.4009"/>
</g>
<!-- Node15 -->
<g id="node32" class="node"><title>Node15</title>
<a xlink:href="_rulebook_8cpp.html" target="_top" xlink:title="Rulebook.cpp">
<polygon fill="none" stroke="black" points="404.5,-1 404.5,-21 479.5,-21 479.5,-1 404.5,-1"/>
<text text-anchor="middle" x="442" y="-8" font-family="FreeSans" font-size="10.00">Rulebook.cpp</text>
</a>
</g>
<!-- Node14&#45;&gt;Node15 -->
<g id="edge34" class="edge"><title>Node14&#45;&gt;Node15</title>
<path fill="none" stroke="midnightblue" d="M512.423,-53.5474C495.457,-43.2969 473.67,-30.1339 458.852,-21.1817"/>
<polygon fill="midnightblue" stroke="midnightblue" points="510.909,-56.7217 521.278,-58.8972 514.529,-50.7303 510.909,-56.7217"/>
</g>
<!-- Node14&#45;&gt;Node16 -->
<g id="edge36" class="edge"><title>Node14&#45;&gt;Node16</title>
<path fill="none" stroke="midnightblue" d="M583.704,-60.6902C642.086,-50.0753 742.911,-31.7434 804.419,-20.5602"/>
<polygon fill="midnightblue" stroke="midnightblue" points="582.877,-57.283 573.665,-62.5155 584.13,-64.1701 582.877,-57.283"/>
</g>
<!-- Node17 -->
<g id="node36" class="node"><title>Node17</title>
<a xlink:href="_meta_player_8cpp.html" target="_top" xlink:title="MetaPlayer.cpp">
<polygon fill="none" stroke="black" points="496.5,-1 496.5,-21 579.5,-21 579.5,-1 496.5,-1"/>
<text text-anchor="middle" x="538" y="-8" font-family="FreeSans" font-size="10.00">MetaPlayer.cpp</text>
</a>
</g>
<!-- Node14&#45;&gt;Node17 -->
<g id="edge38" class="edge"><title>Node14&#45;&gt;Node17</title>
<path fill="none" stroke="midnightblue" d="M538,-48.8902C538,-39.6201 538,-29.0083 538,-21.3776"/>
<polygon fill="midnightblue" stroke="midnightblue" points="534.5,-48.8971 538,-58.8972 541.5,-48.8972 534.5,-48.8971"/>
</g>
<!-- Node18 -->
<g id="node38" class="node"><title>Node18</title>
<a xlink:href="_player_peer_8cpp.html" target="_top" xlink:title="PlayerPeer.cpp">
<polygon fill="none" stroke="black" points="597,-1 597,-21 679,-21 679,-1 597,-1"/>
<text text-anchor="middle" x="638" y="-8" font-family="FreeSans" font-size="10.00">PlayerPeer.cpp</text>
</a>
</g>
<!-- Node14&#45;&gt;Node18 -->
<g id="edge40" class="edge"><title>Node14&#45;&gt;Node18</title>
<path fill="none" stroke="midnightblue" d="M564.153,-53.8314C581.895,-43.5411 604.868,-30.2168 620.445,-21.1817"/>
<polygon fill="midnightblue" stroke="midnightblue" points="562.313,-50.8523 555.419,-58.8972 565.825,-56.9076 562.313,-50.8523"/>
</g>
<!-- Node19 -->
<g id="node40" class="node"><title>Node19</title>
<a xlink:href="_session_peer_8cpp.html" target="_top" xlink:title="SessionPeer.cpp">
<polygon fill="none" stroke="black" points="697,-1 697,-21 787,-21 787,-1 697,-1"/>
<text text-anchor="middle" x="742" y="-8" font-family="FreeSans" font-size="10.00">SessionPeer.cpp</text>
</a>
</g>
<!-- Node14&#45;&gt;Node19 -->
<g id="edge42" class="edge"><title>Node14&#45;&gt;Node19</title>
<path fill="none" stroke="midnightblue" d="M583.597,-56.0361C620.739,-45.4763 672.433,-30.7788 706.531,-21.0842"/>
<polygon fill="midnightblue" stroke="midnightblue" points="582.196,-52.7958 573.534,-58.8972 584.11,-59.5289 582.196,-52.7958"/>
</g>
<!-- Node22&#45;&gt;Node6 -->
<g id="edge56" class="edge"><title>Node22&#45;&gt;Node6</title>
<path fill="none" stroke="midnightblue" d="M881.306,-174.441C835.296,-163.809 764.827,-147.526 719.583,-137.071"/>
<polygon fill="midnightblue" stroke="midnightblue" points="880.773,-177.91 891.304,-176.752 882.349,-171.09 880.773,-177.91"/>
</g>
<!-- Node22&#45;&gt;Node20 -->
<g id="edge58" class="edge"><title>Node22&#45;&gt;Node20</title>
<path fill="none" stroke="midnightblue" d="M949.887,-168.509C960.479,-160.15 972.737,-149.373 982,-138 997.373,-119.126 1009.74,-93.14 1015.85,-79.0569"/>
<polygon fill="midnightblue" stroke="midnightblue" points="947.66,-165.806 941.839,-174.659 951.91,-171.368 947.66,-165.806"/>
</g>
<!-- Node23 -->
<g id="node53" class="node"><title>Node23</title>
<a xlink:href="_fuel_gauge_8cpp.html" target="_top" xlink:title="FuelGauge.cpp">
<polygon fill="none" stroke="black" points="891,-117 891,-137 973,-137 973,-117 891,-117"/>
<text text-anchor="middle" x="932" y="-124" font-family="FreeSans" font-size="10.00">FuelGauge.cpp</text>
</a>
</g>
<!-- Node22&#45;&gt;Node23 -->
<g id="edge60" class="edge"><title>Node22&#45;&gt;Node23</title>
<path fill="none" stroke="midnightblue" d="M928.734,-164.89C929.533,-155.62 930.448,-145.008 931.105,-137.378"/>
<polygon fill="midnightblue" stroke="midnightblue" points="925.243,-164.633 927.871,-174.897 932.217,-165.235 925.243,-164.633"/>
</g>
<!-- Node24&#45;&gt;Node6 -->
<g id="edge64" class="edge"><title>Node24&#45;&gt;Node6</title>
<path fill="none" stroke="midnightblue" d="M791.113,-171.216C763.803,-160.726 726.846,-146.53 702.254,-137.084"/>
<polygon fill="midnightblue" stroke="midnightblue" points="790.108,-174.579 800.698,-174.897 792.618,-168.044 790.108,-174.579"/>
</g>
<!-- Node24&#45;&gt;Node20 -->
<g id="edge66" class="edge"><title>Node24&#45;&gt;Node20</title>
<path fill="none" stroke="midnightblue" d="M800.244,-169.279C779.652,-155.206 757.037,-134.065 772,-116 798.416,-84.1076 921.002,-73.6885 983.358,-70.4193"/>
<polygon fill="midnightblue" stroke="midnightblue" points="798.535,-172.343 808.83,-174.849 802.345,-166.47 798.535,-172.343"/>
</g>
<!-- Node25 -->
<g id="node59" class="node"><title>Node25</title>
<a xlink:href="_speedometer_8cpp.html" target="_top" xlink:title="Speedometer.cpp">
<polygon fill="none" stroke="black" points="781,-117 781,-137 873,-137 873,-117 781,-117"/>
<text text-anchor="middle" x="827" y="-124" font-family="FreeSans" font-size="10.00">Speedometer.cpp</text>
</a>
</g>
<!-- Node24&#45;&gt;Node25 -->
<g id="edge68" class="edge"><title>Node24&#45;&gt;Node25</title>
<path fill="none" stroke="midnightblue" d="M827,-164.89C827,-155.62 827,-145.008 827,-137.378"/>
<polygon fill="midnightblue" stroke="midnightblue" points="823.5,-164.897 827,-174.897 830.5,-164.897 823.5,-164.897"/>
</g>
<!-- Node26&#45;&gt;Node20 -->
<g id="edge72" class="edge"><title>Node26&#45;&gt;Node20</title>
<path fill="none" stroke="midnightblue" d="M1035.7,-164.825C1031.6,-139.82 1024.78,-98.1814 1021.66,-79.1055"/>
<polygon fill="midnightblue" stroke="midnightblue" points="1032.24,-165.403 1037.31,-174.706 1039.15,-164.272 1032.24,-165.403"/>
</g>
<!-- Node27 -->
<g id="node64" class="node"><title>Node27</title>
<a xlink:href="_chronometer_8cpp.html" target="_top" xlink:title="Chronometer.cpp">
<polygon fill="none" stroke="black" points="1067,-117 1067,-137 1157,-137 1157,-117 1067,-117"/>
<text text-anchor="middle" x="1112" y="-124" font-family="FreeSans" font-size="10.00">Chronometer.cpp</text>
</a>
</g>
<!-- Node26&#45;&gt;Node27 -->
<g id="edge74" class="edge"><title>Node26&#45;&gt;Node27</title>
<path fill="none" stroke="midnightblue" d="M1059.84,-168.44C1072.43,-158.439 1088.08,-146.004 1098.94,-137.378"/>
<polygon fill="midnightblue" stroke="midnightblue" points="1057.37,-165.936 1051.72,-174.897 1061.72,-171.417 1057.37,-165.936"/>
</g>
<!-- Node28&#45;&gt;Node20 -->
<g id="edge78" class="edge"><title>Node28&#45;&gt;Node20</title>
<path fill="none" stroke="midnightblue" d="M1184.41,-164.62C1182.89,-149.373 1178.45,-128.995 1166,-116 1150.85,-100.186 1094.88,-85.2887 1056.81,-76.6599"/>
<polygon fill="midnightblue" stroke="midnightblue" points="1180.92,-164.886 1185.06,-174.637 1187.9,-164.43 1180.92,-164.886"/>
</g>
<!-- Node29 -->
<g id="node69" class="node"><title>Node29</title>
<a xlink:href="_counter_8cpp.html" target="_top" xlink:title="Counter.cpp">
<polygon fill="none" stroke="black" points="1213,-117 1213,-137 1281,-137 1281,-117 1213,-117"/>
<text text-anchor="middle" x="1247" y="-124" font-family="FreeSans" font-size="10.00">Counter.cpp</text>
</a>
</g>
<!-- Node28&#45;&gt;Node29 -->
<g id="edge80" class="edge"><title>Node28&#45;&gt;Node29</title>
<path fill="none" stroke="midnightblue" d="M1203.32,-167.86C1213.9,-157.962 1226.86,-145.838 1235.91,-137.378"/>
<polygon fill="midnightblue" stroke="midnightblue" points="1200.71,-165.51 1195.8,-174.897 1205.49,-170.622 1200.71,-165.51"/>
</g>
<!-- Node30&#45;&gt;Node20 -->
<g id="edge86" class="edge"><title>Node30&#45;&gt;Node20</title>
<path fill="none" stroke="midnightblue" d="M1285.02,-166.332C1293.82,-151.194 1301.88,-130.124 1290,-116 1260.6,-81.0417 1123.43,-72.0834 1056.68,-69.7891"/>
<polygon fill="midnightblue" stroke="midnightblue" points="1282,-164.554 1279.61,-174.876 1287.91,-168.298 1282,-164.554"/>
</g>
<!-- Node31 -->
<g id="node75" class="node"><title>Node31</title>
<a xlink:href="_hud_text_8cpp.html" target="_top" xlink:title="HudText.cpp">
<polygon fill="none" stroke="black" points="1336.5,-117 1336.5,-137 1407.5,-137 1407.5,-117 1336.5,-117"/>
<text text-anchor="middle" x="1372" y="-124" font-family="FreeSans" font-size="10.00">HudText.cpp</text>
</a>
</g>
<!-- Node30&#45;&gt;Node31 -->
<g id="edge88" class="edge"><title>Node30&#45;&gt;Node31</title>
<path fill="none" stroke="midnightblue" d="M1298.15,-169.831C1315.89,-159.541 1338.87,-146.217 1354.45,-137.182"/>
<polygon fill="midnightblue" stroke="midnightblue" points="1296.31,-166.852 1289.42,-174.897 1299.83,-172.908 1296.31,-166.852"/>
</g>
</g>
</svg>
        <g id="navigator" transform="translate(0 0)" fill="#404254">
                <rect fill="#f2f5e9" fill-opacity="0.5" stroke="#606060" stroke-width=".5" x="0" y="0" width="60" height="60"/>
                <use id="zoomplus" xlink:href="#zoomPlus" x="17" y="9" onmousedown="handleZoom(evt,'in')"/>
                <use id="zoomminus" xlink:href="#zoomMin" x="42" y="9" onmousedown="handleZoom(evt,'out')"/>
                <use id="reset" xlink:href="#resetDef" x="30" y="36" onmousedown="handleReset()"/>
                <g id="arrowUp" xlink:href="#dirArrow" transform="translate(30 24)" onmousedown="handlePan(0,-1)">
                  <use xlink:href="#rim" fill="#404040">
                        <set attributeName="fill" to="#808080" begin="arrowUp.mouseover" end="arrowUp.mouseout"/>
                  </use>
                  <path fill="none" stroke="white" stroke-width="1.5" d="M0,-3.0v7 M-2.5,-0.5L0,-3.0L2.5,-0.5"/>
                </g>
                <g id="arrowRight" xlink:href="#dirArrow" transform="rotate(90) translate(36 -43)" onmousedown="handlePan(1,0)">
                  <use xlink:href="#rim" fill="#404040">
                        <set attributeName="fill" to="#808080" begin="arrowRight.mouseover" end="arrowRight.mouseout"/>
                  </use>
                  <path fill="none" stroke="white" stroke-width="1.5" d="M0,-3.0v7 M-2.5,-0.5L0,-3.0L2.5,-0.5"/>
                </g>
                <g id="arrowDown" xlink:href="#dirArrow" transform="rotate(180) translate(-30 -48)" onmousedown="handlePan(0,1)">
                  <use xlink:href="#rim" fill="#404040">
                        <set attributeName="fill" to="#808080" begin="arrowDown.mouseover" end="arrowDown.mouseout"/>
                  </use>
                  <path fill="none" stroke="white" stroke-width="1.5" d="M0,-3.0v7 M-2.5,-0.5L0,-3.0L2.5,-0.5"/>
                </g>
                <g id="arrowLeft" xlink:href="#dirArrow" transform="rotate(270) translate(-36 17)" onmousedown="handlePan(-1,0)">
                  <use xlink:href="#rim" fill="#404040">
                        <set attributeName="fill" to="#808080" begin="arrowLeft.mouseover" end="arrowLeft.mouseout"/>
                  </use>
                  <path fill="none" stroke="white" stroke-width="1.5" d="M0,-3.0v7 M-2.5,-0.5L0,-3.0L2.5,-0.5"/>
                </g>
        </g>
        <svg viewBox="0 0 15 15" width="100%" height="30px" preserveAspectRatio="xMaxYMin meet">
         <g id="arrow_out" transform="scale(0.3 0.3)">
          <a xlink:href="_container_8h__dep__incl_org.svg" target="_base">
           <rect id="button" ry="5" rx="5" y="6" x="6" height="38" width="38"
                fill="#f2f5e9" fill-opacity="0.5" stroke="#606060" stroke-width="1.0"/>
           <path id="arrow"
             d="M 11.500037,31.436501 C 11.940474,20.09759 22.043105,11.32322 32.158766,21.979434 L 37.068811,17.246167 C 37.068811,17.246167 37.088388,32 37.088388,32 L 22.160133,31.978069 C 22.160133,31.978069 26.997745,27.140456 26.997745,27.140456 C 18.528582,18.264221 13.291696,25.230495 11.500037,31.436501 z"
             style="fill:#404040;"/>
          </a>
         </g>
        </svg>
</svg>
