<?xml version="1.0" encoding="UTF-8" standalone="no"?>
<!DOCTYPE svg PUBLIC "-//W3C//DTD SVG 1.1//EN"
 "http://www.w3.org/Graphics/SVG/1.1/DTD/svg11.dtd">
<!-- Generated by graphviz version 2.38.0 (20140413.2041)
 -->
<!-- Title: Counter.cpp Pages: 1 -->
<svg width="662pt" height="700pt"
 viewBox="0.00 0.00 661.99 700.00" xmlns="http://www.w3.org/2000/svg" xmlns:xlink="http://www.w3.org/1999/xlink">
<g id="graph0" class="graph" transform="scale(1 1) rotate(0) translate(4 696)">
<title>Counter.cpp</title>
<!-- Node1 -->
<g id="node1" class="node"><title>Node1</title>
<polygon fill="#bfbfbf" stroke="black" points="86.5,-672.5 86.5,-691.5 156.5,-691.5 156.5,-672.5 86.5,-672.5"/>
<text text-anchor="middle" x="121.5" y="-679.5" font-family="Helvetica,sans-Serif" font-size="10.00">Counter.cpp</text>
</g>
<!-- Node2 -->
<g id="node2" class="node"><title>Node2</title>
<g id="a_node2"><a xlink:href="_active_text_8h.html" target="_top" xlink:title="ActiveText.h">
<polygon fill="none" stroke="black" points="53.5,-616.5 53.5,-635.5 125.5,-635.5 125.5,-616.5 53.5,-616.5"/>
<text text-anchor="middle" x="89.5" y="-623.5" font-family="Helvetica,sans-Serif" font-size="10.00">ActiveText.h</text>
</a>
</g>
</g>
<!-- Node1&#45;&gt;Node2 -->
<g id="edge1" class="edge"><title>Node1&#45;&gt;Node2</title>
<path fill="none" stroke="midnightblue" d="M116.216,-672.083C111.789,-664.613 105.337,-653.724 99.8821,-644.52"/>
<polygon fill="midnightblue" stroke="midnightblue" points="102.795,-642.57 94.6858,-635.751 96.7729,-646.138 102.795,-642.57"/>
</g>
<!-- Node19 -->
<g id="node19" class="node"><title>Node19</title>
<g id="a_node19"><a xlink:href="_fill_box_8h.html" target="_top" xlink:title="FillBox.h">
<polygon fill="none" stroke="black" points="117,-504.5 117,-523.5 172,-523.5 172,-504.5 117,-504.5"/>
<text text-anchor="middle" x="144.5" y="-511.5" font-family="Helvetica,sans-Serif" font-size="10.00">FillBox.h</text>
</a>
</g>
</g>
<!-- Node1&#45;&gt;Node19 -->
<g id="edge28" class="edge"><title>Node1&#45;&gt;Node19</title>
<path fill="none" stroke="midnightblue" d="M124.507,-672.495C127.545,-663.535 132.118,-648.957 134.5,-636 141.085,-600.19 143.336,-557.617 144.104,-533.71"/>
<polygon fill="midnightblue" stroke="midnightblue" points="147.606,-533.675 144.375,-523.585 140.609,-533.488 147.606,-533.675"/>
</g>
<!-- Node21 -->
<g id="node21" class="node"><title>Node21</title>
<g id="a_node21"><a xlink:href="_label_8h.html" target="_top" xlink:title="Label.h">
<polygon fill="none" stroke="black" points="5.5,-560.5 5.5,-579.5 53.5,-579.5 53.5,-560.5 5.5,-560.5"/>
<text text-anchor="middle" x="29.5" y="-567.5" font-family="Helvetica,sans-Serif" font-size="10.00">Label.h</text>
</a>
</g>
</g>
<!-- Node1&#45;&gt;Node21 -->
<g id="edge33" class="edge"><title>Node1&#45;&gt;Node21</title>
<path fill="none" stroke="midnightblue" d="M96.3116,-672.409C79.1712,-665.281 57.3471,-653.46 44.5,-636 34.7406,-622.736 31.1949,-604.155 29.9713,-590.254"/>
<polygon fill="midnightblue" stroke="midnightblue" points="33.4458,-589.692 29.4041,-579.898 26.4563,-590.074 33.4458,-589.692"/>
</g>
<!-- Node22 -->
<g id="node22" class="node"><title>Node22</title>
<g id="a_node22"><a xlink:href="_counter_8h.html" target="_top" xlink:title="Counter.h">
<polygon fill="none" stroke="black" points="192,-616.5 192,-635.5 251,-635.5 251,-616.5 192,-616.5"/>
<text text-anchor="middle" x="221.5" y="-623.5" font-family="Helvetica,sans-Serif" font-size="10.00">Counter.h</text>
</a>
</g>
</g>
<!-- Node1&#45;&gt;Node22 -->
<g id="edge35" class="edge"><title>Node1&#45;&gt;Node22</title>
<path fill="none" stroke="midnightblue" d="M137.567,-672.324C153.458,-663.743 178.007,-650.486 196.458,-640.522"/>
<polygon fill="midnightblue" stroke="midnightblue" points="198.337,-643.486 205.473,-635.655 195.011,-637.326 198.337,-643.486"/>
</g>
<!-- Node3 -->
<g id="node3" class="node"><title>Node3</title>
<g id="a_node3"><a xlink:href="_base_text_8h.html" target="_top" xlink:title="BaseText.h">
<polygon fill="none" stroke="black" points="0,-448.5 0,-467.5 67,-467.5 67,-448.5 0,-448.5"/>
<text text-anchor="middle" x="33.5" y="-455.5" font-family="Helvetica,sans-Serif" font-size="10.00">BaseText.h</text>
</a>
</g>
</g>
<!-- Node2&#45;&gt;Node3 -->
<g id="edge2" class="edge"><title>Node2&#45;&gt;Node3</title>
<path fill="none" stroke="midnightblue" d="M86.4892,-616.075C77.6362,-589.832 51.5635,-512.545 39.6116,-477.117"/>
<polygon fill="midnightblue" stroke="midnightblue" points="42.9034,-475.925 36.3904,-467.568 36.2706,-478.162 42.9034,-475.925"/>
</g>
<!-- Node4 -->
<g id="node4" class="node"><title>Node4</title>
<g id="a_node4"><a xlink:href="_color_8h.html" target="_top" xlink:title="Color.h">
<polygon fill="none" stroke="black" points="114.5,-168.5 114.5,-187.5 162.5,-187.5 162.5,-168.5 114.5,-168.5"/>
<text text-anchor="middle" x="138.5" y="-175.5" font-family="Helvetica,sans-Serif" font-size="10.00">Color.h</text>
</a>
</g>
</g>
<!-- Node3&#45;&gt;Node4 -->
<g id="edge3" class="edge"><title>Node3&#45;&gt;Node4</title>
<path fill="none" stroke="midnightblue" d="M36.7367,-448.301C43.2877,-429.889 57.5,-385.507 57.5,-347 57.5,-347 57.5,-347 57.5,-289 57.5,-258.205 63.4043,-248.918 81.5,-224 90.3857,-211.764 103.457,-201.116 114.841,-193.254"/>
<polygon fill="midnightblue" stroke="midnightblue" points="117.06,-195.984 123.497,-187.568 113.217,-190.133 117.06,-195.984"/>
</g>
<!-- Node8 -->
<g id="node8" class="node"><title>Node8</title>
<g id="a_node8"><a xlink:href="_ui_font_8h.html" target="_top" xlink:title="UiFont.h">
<polygon fill="none" stroke="black" points="32.5,-168.5 32.5,-187.5 86.5,-187.5 86.5,-168.5 32.5,-168.5"/>
<text text-anchor="middle" x="59.5" y="-175.5" font-family="Helvetica,sans-Serif" font-size="10.00">UiFont.h</text>
</a>
</g>
</g>
<!-- Node3&#45;&gt;Node8 -->
<g id="edge8" class="edge"><title>Node3&#45;&gt;Node8</title>
<path fill="none" stroke="midnightblue" d="M31.6697,-448.489C27.8749,-430.075 19.5,-385.118 19.5,-347 19.5,-347 19.5,-347 19.5,-289 19.5,-254.617 36.9742,-217.631 48.8234,-196.503"/>
<polygon fill="midnightblue" stroke="midnightblue" points="51.9244,-198.133 53.9382,-187.731 45.8773,-194.607 51.9244,-198.133"/>
</g>
<!-- Node10 -->
<g id="node10" class="node"><title>Node10</title>
<g id="a_node10"><a xlink:href="_ui_view_model_8h.html" target="_top" xlink:title="UiViewModel.h">
<polygon fill="none" stroke="black" points="210,-392.5 210,-411.5 293,-411.5 293,-392.5 210,-392.5"/>
<text text-anchor="middle" x="251.5" y="-399.5" font-family="Helvetica,sans-Serif" font-size="10.00">UiViewModel.h</text>
</a>
</g>
</g>
<!-- Node3&#45;&gt;Node10 -->
<g id="edge11" class="edge"><title>Node3&#45;&gt;Node10</title>
<path fill="none" stroke="midnightblue" d="M67.0847,-448.681C104.71,-439.361 165.85,-424.216 207.324,-413.943"/>
<polygon fill="midnightblue" stroke="midnightblue" points="208.292,-417.309 217.157,-411.507 206.609,-410.514 208.292,-417.309"/>
</g>
<!-- Node5 -->
<g id="node5" class="node"><title>Node5</title>
<g id="a_node5"><a xlink:href="_m_r___types_8h.html" target="_top" xlink:title="../Util/MR_Types.h">
<polygon fill="none" stroke="black" points="226.5,-56.5 226.5,-75.5 326.5,-75.5 326.5,-56.5 226.5,-56.5"/>
<text text-anchor="middle" x="276.5" y="-63.5" font-family="Helvetica,sans-Serif" font-size="10.00">../Util/MR_Types.h</text>
</a>
</g>
</g>
<!-- Node4&#45;&gt;Node5 -->
<g id="edge4" class="edge"><title>Node4&#45;&gt;Node5</title>
<path fill="none" stroke="midnightblue" d="M149.329,-168.368C172.808,-149.653 228.638,-105.151 257.892,-81.8324"/>
<polygon fill="midnightblue" stroke="midnightblue" points="260.084,-84.5615 265.722,-75.5914 255.72,-79.0877 260.084,-84.5615"/>
</g>
<!-- Node7 -->
<g id="node7" class="node"><title>Node7</title>
<g id="a_node7"><a xlink:href="_sel_fmt_8h.html" target="_top" xlink:title="../Util/SelFmt.h">
<polygon fill="none" stroke="black" points="101,-112.5 101,-131.5 184,-131.5 184,-112.5 101,-112.5"/>
<text text-anchor="middle" x="142.5" y="-119.5" font-family="Helvetica,sans-Serif" font-size="10.00">../Util/SelFmt.h</text>
</a>
</g>
</g>
<!-- Node4&#45;&gt;Node7 -->
<g id="edge6" class="edge"><title>Node4&#45;&gt;Node7</title>
<path fill="none" stroke="midnightblue" d="M139.161,-168.083C139.685,-161.006 140.436,-150.861 141.094,-141.986"/>
<polygon fill="midnightblue" stroke="midnightblue" points="144.603,-141.982 141.852,-131.751 137.623,-141.465 144.603,-141.982"/>
</g>
<!-- Node6 -->
<g id="node6" class="node"><title>Node6</title>
<polygon fill="none" stroke="#bfbfbf" points="247,-0.5 247,-19.5 306,-19.5 306,-0.5 247,-0.5"/>
<text text-anchor="middle" x="276.5" y="-7.5" font-family="Helvetica,sans-Serif" font-size="10.00">inttypes.h</text>
</g>
<!-- Node5&#45;&gt;Node6 -->
<g id="edge5" class="edge"><title>Node5&#45;&gt;Node6</title>
<path fill="none" stroke="midnightblue" d="M276.5,-56.083C276.5,-49.0059 276.5,-38.8611 276.5,-29.9865"/>
<polygon fill="midnightblue" stroke="midnightblue" points="280,-29.751 276.5,-19.7511 273,-29.7511 280,-29.751"/>
</g>
<!-- Node7&#45;&gt;Node5 -->
<g id="edge7" class="edge"><title>Node7&#45;&gt;Node5</title>
<path fill="none" stroke="midnightblue" d="M163.733,-112.444C185.884,-103.517 220.819,-89.4387 245.936,-79.3168"/>
<polygon fill="midnightblue" stroke="midnightblue" points="247.4,-82.5006 255.367,-75.5164 244.783,-76.0079 247.4,-82.5006"/>
</g>
<!-- Node8&#45;&gt;Node7 -->
<g id="edge10" class="edge"><title>Node8&#45;&gt;Node7</title>
<path fill="none" stroke="midnightblue" d="M72.8354,-168.324C85.662,-159.979 105.285,-147.212 120.44,-137.352"/>
<polygon fill="midnightblue" stroke="midnightblue" points="122.724,-140.042 129.198,-131.655 118.907,-134.174 122.724,-140.042"/>
</g>
<!-- Node9 -->
<g id="node9" class="node"><title>Node9</title>
<g id="a_node9"><a xlink:href="_hash_8h.html" target="_top" xlink:title="../Util/Hash.h">
<polygon fill="none" stroke="black" points="8,-112.5 8,-131.5 83,-131.5 83,-112.5 8,-112.5"/>
<text text-anchor="middle" x="45.5" y="-119.5" font-family="Helvetica,sans-Serif" font-size="10.00">../Util/Hash.h</text>
</a>
</g>
</g>
<!-- Node8&#45;&gt;Node9 -->
<g id="edge9" class="edge"><title>Node8&#45;&gt;Node9</title>
<path fill="none" stroke="midnightblue" d="M57.1882,-168.083C55.333,-160.927 52.6647,-150.635 50.3458,-141.691"/>
<polygon fill="midnightblue" stroke="midnightblue" points="53.6665,-140.553 47.7688,-131.751 46.8905,-142.309 53.6665,-140.553"/>
</g>
<!-- Node10&#45;&gt;Node5 -->
<g id="edge13" class="edge"><title>Node10&#45;&gt;Node5</title>
<path fill="none" stroke="midnightblue" d="M293.071,-395.993C332.271,-390.145 391.942,-378.291 439.5,-356 483.204,-335.516 526.5,-339.267 526.5,-291 526.5,-291 526.5,-291 526.5,-177 526.5,-94.4621 410.923,-73.3107 336.938,-68.2264"/>
<polygon fill="midnightblue" stroke="midnightblue" points="336.984,-64.7229 326.79,-67.6109 336.56,-71.71 336.984,-64.7229"/>
</g>
<!-- Node11 -->
<g id="node11" class="node"><title>Node11</title>
<g id="a_node11"><a xlink:href="_nav_8h.html" target="_top" xlink:title="../Control/Nav.h">
<polygon fill="none" stroke="black" points="161.5,-336.5 161.5,-355.5 247.5,-355.5 247.5,-336.5 161.5,-336.5"/>
<text text-anchor="middle" x="204.5" y="-343.5" font-family="Helvetica,sans-Serif" font-size="10.00">../Control/Nav.h</text>
</a>
</g>
</g>
<!-- Node10&#45;&gt;Node11 -->
<g id="edge12" class="edge"><title>Node10&#45;&gt;Node11</title>
<path fill="none" stroke="midnightblue" d="M243.739,-392.083C236.963,-384.298 226.957,-372.801 218.745,-363.367"/>
<polygon fill="midnightblue" stroke="midnightblue" points="221.322,-360.996 212.117,-355.751 216.042,-365.592 221.322,-360.996"/>
</g>
<!-- Node12 -->
<g id="node12" class="node"><title>Node12</title>
<g id="a_node12"><a xlink:href="_vec_8h.html" target="_top" xlink:title="../Vec.h">
<polygon fill="none" stroke="black" points="323,-168.5 323,-187.5 374,-187.5 374,-168.5 323,-168.5"/>
<text text-anchor="middle" x="348.5" y="-175.5" font-family="Helvetica,sans-Serif" font-size="10.00">../Vec.h</text>
</a>
</g>
</g>
<!-- Node10&#45;&gt;Node12 -->
<g id="edge14" class="edge"><title>Node10&#45;&gt;Node12</title>
<path fill="none" stroke="midnightblue" d="M293.251,-398.267C328.74,-394.037 379.378,-383.287 414.5,-356 458.139,-322.096 458.217,-298.296 468.5,-244 470.154,-235.266 473.563,-231.306 468.5,-224 449.733,-196.919 412.525,-186.111 384.49,-181.811"/>
<polygon fill="midnightblue" stroke="midnightblue" points="384.624,-178.298 374.252,-180.461 383.709,-185.238 384.624,-178.298"/>
</g>
<!-- Node13 -->
<g id="node13" class="node"><title>Node13</title>
<g id="a_node13"><a xlink:href="_ui_layout_flags_8h.html" target="_top" xlink:title="UiLayoutFlags.h">
<polygon fill="none" stroke="black" points="232.5,-224.5 232.5,-243.5 320.5,-243.5 320.5,-224.5 232.5,-224.5"/>
<text text-anchor="middle" x="276.5" y="-231.5" font-family="Helvetica,sans-Serif" font-size="10.00">UiLayoutFlags.h</text>
</a>
</g>
</g>
<!-- Node10&#45;&gt;Node13 -->
<g id="edge15" class="edge"><title>Node10&#45;&gt;Node13</title>
<path fill="none" stroke="midnightblue" d="M252.844,-392.075C256.779,-365.945 268.336,-289.211 273.702,-253.577"/>
<polygon fill="midnightblue" stroke="midnightblue" points="277.181,-253.978 275.21,-243.568 270.259,-252.935 277.181,-253.978"/>
</g>
<!-- Node14 -->
<g id="node14" class="node"><title>Node14</title>
<g id="a_node14"><a xlink:href="_view_model_8h.html" target="_top" xlink:title="ViewModel.h">
<polygon fill="none" stroke="black" points="333,-336.5 333,-355.5 406,-355.5 406,-336.5 333,-336.5"/>
<text text-anchor="middle" x="369.5" y="-343.5" font-family="Helvetica,sans-Serif" font-size="10.00">ViewModel.h</text>
</a>
</g>
</g>
<!-- Node10&#45;&gt;Node14 -->
<g id="edge17" class="edge"><title>Node10&#45;&gt;Node14</title>
<path fill="none" stroke="midnightblue" d="M270.197,-392.444C289.444,-383.636 319.652,-369.812 341.7,-359.722"/>
<polygon fill="midnightblue" stroke="midnightblue" points="343.253,-362.86 350.89,-355.516 340.34,-356.495 343.253,-362.86"/>
</g>
<!-- Node13&#45;&gt;Node5 -->
<g id="edge16" class="edge"><title>Node13&#45;&gt;Node5</title>
<path fill="none" stroke="midnightblue" d="M276.5,-224.075C276.5,-197.945 276.5,-121.211 276.5,-85.577"/>
<polygon fill="midnightblue" stroke="midnightblue" points="280,-85.5681 276.5,-75.5681 273,-85.5681 280,-85.5681"/>
</g>
<!-- Node15 -->
<g id="node15" class="node"><title>Node15</title>
<g id="a_node15"><a xlink:href="_display_8h.html" target="_top" xlink:title="Display.h">
<polygon fill="none" stroke="black" points="298.5,-280.5 298.5,-299.5 356.5,-299.5 356.5,-280.5 298.5,-280.5"/>
<text text-anchor="middle" x="327.5" y="-287.5" font-family="Helvetica,sans-Serif" font-size="10.00">Display.h</text>
</a>
</g>
</g>
<!-- Node14&#45;&gt;Node15 -->
<g id="edge18" class="edge"><title>Node14&#45;&gt;Node15</title>
<path fill="none" stroke="midnightblue" d="M362.565,-336.083C356.571,-328.377 347.748,-317.033 340.452,-307.653"/>
<polygon fill="midnightblue" stroke="midnightblue" points="343.209,-305.496 334.306,-299.751 337.683,-309.793 343.209,-305.496"/>
</g>
<!-- Node17 -->
<g id="node17" class="node"><title>Node17</title>
<g id="a_node17"><a xlink:href="_view_attacher_8h.html" target="_top" xlink:title="ViewAttacher.h">
<polygon fill="none" stroke="black" points="377,-224.5 377,-243.5 460,-243.5 460,-224.5 377,-224.5"/>
<text text-anchor="middle" x="418.5" y="-231.5" font-family="Helvetica,sans-Serif" font-size="10.00">ViewAttacher.h</text>
</a>
</g>
</g>
<!-- Node14&#45;&gt;Node17 -->
<g id="edge27" class="edge"><title>Node14&#45;&gt;Node17</title>
<path fill="none" stroke="midnightblue" d="M389.406,-336.41C403.725,-329.04 421.958,-316.916 430.5,-300 437.919,-285.307 433.257,-266.673 427.723,-253.127"/>
<polygon fill="midnightblue" stroke="midnightblue" points="430.849,-251.547 423.507,-243.91 424.484,-254.459 430.849,-251.547"/>
</g>
<!-- Node18 -->
<g id="node18" class="node"><title>Node18</title>
<g id="a_node18"><a xlink:href="_view_8h.html" target="_top" xlink:title="View.h">
<polygon fill="none" stroke="black" points="375,-280.5 375,-299.5 422,-299.5 422,-280.5 375,-280.5"/>
<text text-anchor="middle" x="398.5" y="-287.5" font-family="Helvetica,sans-Serif" font-size="10.00">View.h</text>
</a>
</g>
</g>
<!-- Node14&#45;&gt;Node18 -->
<g id="edge26" class="edge"><title>Node14&#45;&gt;Node18</title>
<path fill="none" stroke="midnightblue" d="M374.289,-336.083C378.258,-328.691 384.025,-317.953 388.935,-308.811"/>
<polygon fill="midnightblue" stroke="midnightblue" points="392.153,-310.217 393.8,-299.751 385.986,-306.905 392.153,-310.217"/>
</g>
<!-- Node15&#45;&gt;Node12 -->
<g id="edge19" class="edge"><title>Node15&#45;&gt;Node12</title>
<path fill="none" stroke="midnightblue" d="M329.148,-280.368C332.537,-262.617 340.355,-221.666 344.95,-197.597"/>
<polygon fill="midnightblue" stroke="midnightblue" points="348.422,-198.07 346.86,-187.591 341.547,-196.758 348.422,-198.07"/>
</g>
<!-- Node15&#45;&gt;Node13 -->
<g id="edge24" class="edge"><title>Node15&#45;&gt;Node13</title>
<path fill="none" stroke="midnightblue" d="M319.078,-280.083C311.652,-272.22 300.648,-260.569 291.688,-251.081"/>
<polygon fill="midnightblue" stroke="midnightblue" points="294.176,-248.618 284.765,-243.751 289.087,-253.424 294.176,-248.618"/>
</g>
<!-- Node16 -->
<g id="node16" class="node"><title>Node16</title>
<g id="a_node16"><a xlink:href="_styles_8h.html" target="_top" xlink:title="Styles.h">
<polygon fill="none" stroke="black" points="162,-224.5 162,-243.5 215,-243.5 215,-224.5 162,-224.5"/>
<text text-anchor="middle" x="188.5" y="-231.5" font-family="Helvetica,sans-Serif" font-size="10.00">Styles.h</text>
</a>
</g>
</g>
<!-- Node15&#45;&gt;Node16 -->
<g id="edge20" class="edge"><title>Node15&#45;&gt;Node16</title>
<path fill="none" stroke="midnightblue" d="M305.475,-280.444C282.396,-271.478 245.938,-257.314 219.859,-247.183"/>
<polygon fill="midnightblue" stroke="midnightblue" points="221.011,-243.875 210.422,-243.516 218.476,-250.4 221.011,-243.875"/>
</g>
<!-- Node15&#45;&gt;Node17 -->
<g id="edge25" class="edge"><title>Node15&#45;&gt;Node17</title>
<path fill="none" stroke="midnightblue" d="M342.121,-280.324C356.449,-271.822 378.513,-258.729 395.249,-248.797"/>
<polygon fill="midnightblue" stroke="midnightblue" points="397.102,-251.768 403.916,-243.655 393.53,-245.748 397.102,-251.768"/>
</g>
<!-- Node16&#45;&gt;Node4 -->
<g id="edge23" class="edge"><title>Node16&#45;&gt;Node4</title>
<path fill="none" stroke="midnightblue" d="M180.244,-224.083C173.035,-216.298 162.39,-204.801 153.654,-195.367"/>
<polygon fill="midnightblue" stroke="midnightblue" points="155.965,-192.711 146.603,-187.751 150.829,-197.467 155.965,-192.711"/>
</g>
<!-- Node16&#45;&gt;Node8 -->
<g id="edge22" class="edge"><title>Node16&#45;&gt;Node8</title>
<path fill="none" stroke="midnightblue" d="M168.06,-224.444C146.83,-215.557 113.401,-201.563 89.245,-191.451"/>
<polygon fill="midnightblue" stroke="midnightblue" points="90.4207,-188.149 79.8448,-187.516 87.7177,-194.606 90.4207,-188.149"/>
</g>
<!-- Node16&#45;&gt;Node12 -->
<g id="edge21" class="edge"><title>Node16&#45;&gt;Node12</title>
<path fill="none" stroke="midnightblue" d="M213.852,-224.444C240.769,-215.359 283.496,-200.939 313.587,-190.783"/>
<polygon fill="midnightblue" stroke="midnightblue" points="314.91,-194.031 323.266,-187.516 312.672,-187.398 314.91,-194.031"/>
</g>
<!-- Node19&#45;&gt;Node4 -->
<g id="edge29" class="edge"><title>Node19&#45;&gt;Node4</title>
<path fill="none" stroke="midnightblue" d="M137.687,-504.458C124.223,-486.688 95.5,-443.976 95.5,-403 95.5,-403 95.5,-403 95.5,-289 95.5,-254.306 114.285,-217.42 127.023,-196.396"/>
<polygon fill="midnightblue" stroke="midnightblue" points="130.15,-197.998 132.521,-187.672 124.228,-194.266 130.15,-197.998"/>
</g>
<!-- Node20 -->
<g id="node20" class="node"><title>Node20</title>
<g id="a_node20"><a xlink:href="_box_8h.html" target="_top" xlink:title="Box.h">
<polygon fill="none" stroke="black" points="123.5,-448.5 123.5,-467.5 165.5,-467.5 165.5,-448.5 123.5,-448.5"/>
<text text-anchor="middle" x="144.5" y="-455.5" font-family="Helvetica,sans-Serif" font-size="10.00">Box.h</text>
</a>
</g>
</g>
<!-- Node19&#45;&gt;Node20 -->
<g id="edge30" class="edge"><title>Node19&#45;&gt;Node20</title>
<path fill="none" stroke="midnightblue" d="M144.5,-504.083C144.5,-497.006 144.5,-486.861 144.5,-477.986"/>
<polygon fill="midnightblue" stroke="midnightblue" points="148,-477.751 144.5,-467.751 141,-477.751 148,-477.751"/>
</g>
<!-- Node20&#45;&gt;Node4 -->
<g id="edge31" class="edge"><title>Node20&#45;&gt;Node4</title>
<path fill="none" stroke="midnightblue" d="M143.062,-448.471C140.08,-430.022 133.5,-385.001 133.5,-347 133.5,-347 133.5,-347 133.5,-289 133.5,-256.915 135.649,-219.62 137.129,-197.737"/>
<polygon fill="midnightblue" stroke="midnightblue" points="140.635,-197.773 137.846,-187.552 133.653,-197.281 140.635,-197.773"/>
</g>
<!-- Node20&#45;&gt;Node10 -->
<g id="edge32" class="edge"><title>Node20&#45;&gt;Node10</title>
<path fill="none" stroke="midnightblue" d="M161.691,-448.324C178.851,-439.664 205.446,-426.242 225.247,-416.249"/>
<polygon fill="midnightblue" stroke="midnightblue" points="227.001,-419.285 234.351,-411.655 223.847,-413.035 227.001,-419.285"/>
</g>
<!-- Node21&#45;&gt;Node3 -->
<g id="edge34" class="edge"><title>Node21&#45;&gt;Node3</title>
<path fill="none" stroke="midnightblue" d="M29.8139,-560.368C30.4594,-542.617 31.9485,-501.666 32.8237,-477.597"/>
<polygon fill="midnightblue" stroke="midnightblue" points="36.3218,-477.712 33.1876,-467.591 29.3264,-477.458 36.3218,-477.712"/>
</g>
<!-- Node23 -->
<g id="node23" class="node"><title>Node23</title>
<g id="a_node23"><a xlink:href="_hud_decor_8h.html" target="_top" xlink:title="HudDecor.h">
<polygon fill="none" stroke="black" points="193,-560.5 193,-579.5 262,-579.5 262,-560.5 193,-560.5"/>
<text text-anchor="middle" x="227.5" y="-567.5" font-family="Helvetica,sans-Serif" font-size="10.00">HudDecor.h</text>
</a>
</g>
</g>
<!-- Node22&#45;&gt;Node23 -->
<g id="edge36" class="edge"><title>Node22&#45;&gt;Node23</title>
<path fill="none" stroke="midnightblue" d="M222.491,-616.083C223.286,-608.927 224.429,-598.635 225.423,-589.691"/>
<polygon fill="midnightblue" stroke="midnightblue" points="228.902,-590.076 226.528,-579.751 221.945,-589.303 228.902,-590.076"/>
</g>
<!-- Node24 -->
<g id="node24" class="node"><title>Node24</title>
<g id="a_node24"><a xlink:href="_o_s_8h.html" target="_top" xlink:title="../Util/OS.h">
<polygon fill="none" stroke="black" points="463.5,-504.5 463.5,-523.5 529.5,-523.5 529.5,-504.5 463.5,-504.5"/>
<text text-anchor="middle" x="496.5" y="-511.5" font-family="Helvetica,sans-Serif" font-size="10.00">../Util/OS.h</text>
</a>
</g>
</g>
<!-- Node23&#45;&gt;Node24 -->
<g id="edge37" class="edge"><title>Node23&#45;&gt;Node24</title>
<path fill="none" stroke="midnightblue" d="M262.116,-562.051C310.939,-552.25 399.987,-534.374 453.151,-523.702"/>
<polygon fill="midnightblue" stroke="midnightblue" points="454.167,-527.068 463.282,-521.668 452.789,-520.205 454.167,-527.068"/>
</g>
<!-- Node30 -->
<g id="node30" class="node"><title>Node30</title>
<g id="a_node30"><a xlink:href="_container_8h.html" target="_top" xlink:title="Container.h">
<polygon fill="none" stroke="black" points="194,-504.5 194,-523.5 261,-523.5 261,-504.5 194,-504.5"/>
<text text-anchor="middle" x="227.5" y="-511.5" font-family="Helvetica,sans-Serif" font-size="10.00">Container.h</text>
</a>
</g>
</g>
<!-- Node23&#45;&gt;Node30 -->
<g id="edge44" class="edge"><title>Node23&#45;&gt;Node30</title>
<path fill="none" stroke="midnightblue" d="M227.5,-560.083C227.5,-553.006 227.5,-542.861 227.5,-533.986"/>
<polygon fill="midnightblue" stroke="midnightblue" points="231,-533.751 227.5,-523.751 224,-533.751 231,-533.751"/>
</g>
<!-- Node24&#45;&gt;Node5 -->
<g id="edge43" class="edge"><title>Node24&#45;&gt;Node5</title>
<path fill="none" stroke="midnightblue" d="M529.501,-510.832C560.712,-507.027 606.783,-496.585 634.5,-468 655.452,-446.392 653.5,-433.098 653.5,-403 653.5,-403 653.5,-403 653.5,-177 653.5,-111.776 442.919,-82.6028 336.523,-72.0257"/>
<polygon fill="midnightblue" stroke="midnightblue" points="336.854,-68.5415 326.563,-71.0596 336.178,-75.5088 336.854,-68.5415"/>
</g>
<!-- Node25 -->
<g id="node25" class="node"><title>Node25</title>
<polygon fill="none" stroke="#bfbfbf" points="475.5,-448.5 475.5,-467.5 517.5,-467.5 517.5,-448.5 475.5,-448.5"/>
<text text-anchor="middle" x="496.5" y="-455.5" font-family="Helvetica,sans-Serif" font-size="10.00">locale</text>
</g>
<!-- Node24&#45;&gt;Node25 -->
<g id="edge38" class="edge"><title>Node24&#45;&gt;Node25</title>
<path fill="none" stroke="midnightblue" d="M496.5,-504.083C496.5,-497.006 496.5,-486.861 496.5,-477.986"/>
<polygon fill="midnightblue" stroke="midnightblue" points="500,-477.751 496.5,-467.751 493,-477.751 500,-477.751"/>
</g>
<!-- Node26 -->
<g id="node26" class="node"><title>Node26</title>
<polygon fill="none" stroke="#bfbfbf" points="535.5,-448.5 535.5,-467.5 565.5,-467.5 565.5,-448.5 535.5,-448.5"/>
<text text-anchor="middle" x="550.5" y="-455.5" font-family="Helvetica,sans-Serif" font-size="10.00">set</text>
</g>
<!-- Node24&#45;&gt;Node26 -->
<g id="edge39" class="edge"><title>Node24&#45;&gt;Node26</title>
<path fill="none" stroke="midnightblue" d="M505.417,-504.083C513.28,-496.22 524.931,-484.569 534.419,-475.081"/>
<polygon fill="midnightblue" stroke="midnightblue" points="537.153,-477.297 541.749,-467.751 532.203,-472.347 537.153,-477.297"/>
</g>
<!-- Node27 -->
<g id="node27" class="node"><title>Node27</title>
<polygon fill="none" stroke="#bfbfbf" points="584,-448.5 584,-467.5 625,-467.5 625,-448.5 584,-448.5"/>
<text text-anchor="middle" x="604.5" y="-455.5" font-family="Helvetica,sans-Serif" font-size="10.00">string</text>
</g>
<!-- Node24&#45;&gt;Node27 -->
<g id="edge40" class="edge"><title>Node24&#45;&gt;Node27</title>
<path fill="none" stroke="midnightblue" d="M513.852,-504.324C531.172,-495.664 558.015,-482.242 578.002,-472.249"/>
<polygon fill="midnightblue" stroke="midnightblue" points="579.812,-475.257 587.191,-467.655 576.681,-468.996 579.812,-475.257"/>
</g>
<!-- Node28 -->
<g id="node28" class="node"><title>Node28</title>
<polygon fill="none" stroke="#bfbfbf" points="289.5,-448.5 289.5,-467.5 333.5,-467.5 333.5,-448.5 289.5,-448.5"/>
<text text-anchor="middle" x="311.5" y="-455.5" font-family="Helvetica,sans-Serif" font-size="10.00">vector</text>
</g>
<!-- Node24&#45;&gt;Node28 -->
<g id="edge41" class="edge"><title>Node24&#45;&gt;Node28</title>
<path fill="none" stroke="midnightblue" d="M466.763,-504.452C437.494,-496.019 391.275,-482.654 343.372,-468.538"/>
<polygon fill="midnightblue" stroke="midnightblue" points="344.355,-465.179 333.774,-465.706 342.374,-471.893 344.355,-465.179"/>
</g>
<!-- Node29 -->
<g id="node29" class="node"><title>Node29</title>
<polygon fill="none" stroke="#bfbfbf" points="351,-448.5 351,-467.5 458,-467.5 458,-448.5 351,-448.5"/>
<text text-anchor="middle" x="404.5" y="-455.5" font-family="Helvetica,sans-Serif" font-size="10.00">boost/filesystem.hpp</text>
</g>
<!-- Node24&#45;&gt;Node29 -->
<g id="edge42" class="edge"><title>Node24&#45;&gt;Node29</title>
<path fill="none" stroke="midnightblue" d="M481.719,-504.324C467.233,-495.822 444.927,-482.729 428.007,-472.797"/>
<polygon fill="midnightblue" stroke="midnightblue" points="429.641,-469.698 419.245,-467.655 426.097,-475.735 429.641,-469.698"/>
</g>
<!-- Node31 -->
<g id="node31" class="node"><title>Node31</title>
<g id="a_node31"><a xlink:href="_base_container_8h.html" target="_top" xlink:title="BaseContainer.h">
<polygon fill="none" stroke="black" points="183,-448.5 183,-467.5 272,-467.5 272,-448.5 183,-448.5"/>
<text text-anchor="middle" x="227.5" y="-455.5" font-family="Helvetica,sans-Serif" font-size="10.00">BaseContainer.h</text>
</a>
</g>
</g>
<!-- Node30&#45;&gt;Node31 -->
<g id="edge45" class="edge"><title>Node30&#45;&gt;Node31</title>
<path fill="none" stroke="midnightblue" d="M227.5,-504.083C227.5,-497.006 227.5,-486.861 227.5,-477.986"/>
<polygon fill="midnightblue" stroke="midnightblue" points="231,-477.751 227.5,-467.751 224,-477.751 231,-477.751"/>
</g>
<!-- Node31&#45;&gt;Node10 -->
<g id="edge46" class="edge"><title>Node31&#45;&gt;Node10</title>
<path fill="none" stroke="midnightblue" d="M231.463,-448.083C234.713,-440.77 239.419,-430.181 243.454,-421.103"/>
<polygon fill="midnightblue" stroke="midnightblue" points="246.748,-422.311 247.611,-411.751 240.351,-419.468 246.748,-422.311"/>
</g>
</g>
</svg>
