<?xml version="1.0" encoding="UTF-8" standalone="no"?>
<!DOCTYPE svg PUBLIC "-//W3C//DTD SVG 1.1//EN"
 "http://www.w3.org/Graphics/SVG/1.1/DTD/svg11.dtd">
<!-- Generated by graphviz version 2.26.3 (20100126.1600)
 -->
<!-- Title: DebugPeer.cpp Pages: 1 -->
<svg width="1576pt" height="588pt"
 viewBox="0.00 0.00 1576.00 588.00" xmlns="http://www.w3.org/2000/svg" xmlns:xlink="http://www.w3.org/1999/xlink">
<g id="graph1" class="graph" transform="scale(1 1) rotate(0) translate(4 584)">
<title>DebugPeer.cpp</title>
<!-- Node1 -->
<g id="node1" class="node"><title>Node1</title>
<polygon fill="#bfbfbf" stroke="black" points="780.5,-559 780.5,-579 863.5,-579 863.5,-559 780.5,-559"/>
<text text-anchor="middle" x="822" y="-566" font-family="FreeSans" font-size="10.00">DebugPeer.cpp</text>
</g>
<!-- Node2 -->
<g id="node3" class="node"><title>Node2</title>
<a xlink:href="_core_8h.html" target="_top" xlink:title="../../../engine/Script\l/Core.h">
<polygon fill="none" stroke="black" points="175,-489 175,-521 271,-521 271,-489 175,-489"/>
<text text-anchor="start" x="183" y="-508" font-family="FreeSans" font-size="10.00">../../../engine/Script</text>
<text text-anchor="middle" x="223" y="-496" font-family="FreeSans" font-size="10.00">/Core.h</text>
</a>
</g>
<!-- Node1&#45;&gt;Node2 -->
<g id="edge2" class="edge"><title>Node1&#45;&gt;Node2</title>
<path fill="none" stroke="midnightblue" d="M780.355,-564.55C675.818,-553.381 402.096,-524.135 281.496,-511.25"/>
<polygon fill="midnightblue" stroke="midnightblue" points="281.664,-507.748 271.349,-510.166 280.92,-514.708 281.664,-507.748"/>
</g>
<!-- Node10 -->
<g id="node19" class="node"><title>Node10</title>
<a xlink:href="_log_8h.html" target="_top" xlink:title="../../../engine/Util\l/Log.h">
<polygon fill="none" stroke="black" points="686,-489 686,-521 772,-521 772,-489 686,-489"/>
<text text-anchor="start" x="694" y="-508" font-family="FreeSans" font-size="10.00">../../../engine/Util</text>
<text text-anchor="middle" x="729" y="-496" font-family="FreeSans" font-size="10.00">/Log.h</text>
</a>
</g>
<!-- Node1&#45;&gt;Node10 -->
<g id="edge18" class="edge"><title>Node1&#45;&gt;Node10</title>
<path fill="none" stroke="midnightblue" d="M807.058,-558.717C794.581,-550.131 776.364,-537.595 760.667,-526.792"/>
<polygon fill="midnightblue" stroke="midnightblue" points="762.48,-523.791 752.258,-521.005 758.512,-529.558 762.48,-523.791"/>
</g>
<!-- Node12 -->
<g id="node23" class="node"><title>Node12</title>
<a xlink:href="_o_s_8h.html" target="_top" xlink:title="../../../engine/Util/OS.h">
<polygon fill="none" stroke="black" points="822,-233 822,-253 932,-253 932,-233 822,-233"/>
<text text-anchor="middle" x="877" y="-240" font-family="FreeSans" font-size="10.00">../../../engine/Util/OS.h</text>
</a>
</g>
<!-- Node1&#45;&gt;Node12 -->
<g id="edge22" class="edge"><title>Node1&#45;&gt;Node12</title>
<path fill="none" stroke="midnightblue" d="M818.077,-558.834C804.054,-520.738 759.792,-383.83 809,-290 816.311,-276.059 829.841,-265.437 842.918,-257.848"/>
<polygon fill="midnightblue" stroke="midnightblue" points="844.659,-260.886 851.817,-253.075 841.35,-254.717 844.659,-260.886"/>
</g>
<!-- Node20 -->
<g id="node39" class="node"><title>Node20</title>
<a xlink:href="_str_8h.html" target="_top" xlink:title="../../../engine/Util\l/Str.h">
<polygon fill="none" stroke="black" points="818,-291 818,-323 904,-323 904,-291 818,-291"/>
<text text-anchor="start" x="826" y="-310" font-family="FreeSans" font-size="10.00">../../../engine/Util</text>
<text text-anchor="middle" x="861" y="-298" font-family="FreeSans" font-size="10.00">/Str.h</text>
</a>
</g>
<!-- Node1&#45;&gt;Node20 -->
<g id="edge38" class="edge"><title>Node1&#45;&gt;Node20</title>
<path fill="none" stroke="midnightblue" d="M823.529,-558.729C829.139,-521.044 848.7,-389.634 857.109,-333.142"/>
<polygon fill="midnightblue" stroke="midnightblue" points="860.578,-333.604 858.589,-323.198 853.655,-332.573 860.578,-333.604"/>
</g>
<!-- Node21 -->
<g id="node42" class="node"><title>Node21</title>
<a xlink:href="_game_director_8h.html" target="_top" xlink:title="../GameDirector.h">
<polygon fill="none" stroke="black" points="1035,-425 1035,-445 1127,-445 1127,-425 1035,-425"/>
<text text-anchor="middle" x="1081" y="-432" font-family="FreeSans" font-size="10.00">../GameDirector.h</text>
</a>
</g>
<!-- Node1&#45;&gt;Node21 -->
<g id="edge42" class="edge"><title>Node1&#45;&gt;Node21</title>
<path fill="none" stroke="midnightblue" d="M863.652,-562.952C914.688,-554.917 997.525,-539.663 1023,-522 1047.26,-505.177 1064.11,-474.612 1073.17,-454.558"/>
<polygon fill="midnightblue" stroke="midnightblue" points="1076.47,-455.728 1077.19,-445.157 1070.04,-452.972 1076.47,-455.728"/>
</g>
<!-- Node22 -->
<g id="node44" class="node"><title>Node22</title>
<a xlink:href="_palette_scene_8h.html" target="_top" xlink:title="../PaletteScene.h">
<polygon fill="none" stroke="black" points="924,-495 924,-515 1014,-515 1014,-495 924,-495"/>
<text text-anchor="middle" x="969" y="-502" font-family="FreeSans" font-size="10.00">../PaletteScene.h</text>
</a>
</g>
<!-- Node1&#45;&gt;Node22 -->
<g id="edge44" class="edge"><title>Node1&#45;&gt;Node22</title>
<path fill="none" stroke="midnightblue" d="M845.293,-558.859C869.915,-548.139 908.937,-531.15 936.562,-519.122"/>
<polygon fill="midnightblue" stroke="midnightblue" points="938.045,-522.294 945.816,-515.094 935.251,-515.876 938.045,-522.294"/>
</g>
<!-- Node27 -->
<g id="node58" class="node"><title>Node27</title>
<a xlink:href="_test_lab_scene_8h.html" target="_top" xlink:title="../TestLabScene.h">
<polygon fill="none" stroke="black" points="1127.5,-495 1127.5,-515 1222.5,-515 1222.5,-495 1127.5,-495"/>
<text text-anchor="middle" x="1175" y="-502" font-family="FreeSans" font-size="10.00">../TestLabScene.h</text>
</a>
</g>
<!-- Node1&#45;&gt;Node27 -->
<g id="edge62" class="edge"><title>Node1&#45;&gt;Node27</title>
<path fill="none" stroke="midnightblue" d="M863.639,-561.753C915.686,-552.657 1007.49,-536.487 1086,-522 1096.2,-520.118 1107.05,-518.078 1117.54,-516.086"/>
<polygon fill="midnightblue" stroke="midnightblue" points="1118.28,-519.508 1127.45,-514.198 1116.97,-512.631 1118.28,-519.508"/>
</g>
<!-- Node43 -->
<g id="node102" class="node"><title>Node43</title>
<a xlink:href="_debug_peer_8h.html" target="_top" xlink:title="DebugPeer.h">
<polygon fill="none" stroke="black" points="458,-495 458,-515 530,-515 530,-495 458,-495"/>
<text text-anchor="middle" x="494" y="-502" font-family="FreeSans" font-size="10.00">DebugPeer.h</text>
</a>
</g>
<!-- Node1&#45;&gt;Node43 -->
<g id="edge118" class="edge"><title>Node1&#45;&gt;Node43</title>
<path fill="none" stroke="midnightblue" d="M780.459,-560.894C718.934,-548.89 603.988,-526.461 539.995,-513.975"/>
<polygon fill="midnightblue" stroke="midnightblue" points="540.663,-510.539 530.178,-512.059 539.322,-517.409 540.663,-510.539"/>
</g>
<!-- Node3 -->
<g id="node5" class="node"><title>Node3</title>
<polygon fill="none" stroke="#bfbfbf" points="208.5,-425 208.5,-445 237.5,-445 237.5,-425 208.5,-425"/>
<text text-anchor="middle" x="223" y="-432" font-family="FreeSans" font-size="10.00">list</text>
</g>
<!-- Node2&#45;&gt;Node3 -->
<g id="edge4" class="edge"><title>Node2&#45;&gt;Node3</title>
<path fill="none" stroke="midnightblue" d="M223,-488.765C223,-478.813 223,-465.987 223,-455.359"/>
<polygon fill="midnightblue" stroke="midnightblue" points="226.5,-455.291 223,-445.291 219.5,-455.291 226.5,-455.291"/>
</g>
<!-- Node4 -->
<g id="node7" class="node"><title>Node4</title>
<polygon fill="none" stroke="#bfbfbf" points="242.5,-361 242.5,-381 337.5,-381 337.5,-361 242.5,-361"/>
<text text-anchor="middle" x="290" y="-368" font-family="FreeSans" font-size="10.00">luabind/object.hpp</text>
</g>
<!-- Node2&#45;&gt;Node4 -->
<g id="edge6" class="edge"><title>Node2&#45;&gt;Node4</title>
<path fill="none" stroke="midnightblue" d="M231.082,-488.836C243.488,-464.024 267.178,-416.644 280.426,-390.147"/>
<polygon fill="midnightblue" stroke="midnightblue" points="283.606,-391.615 284.947,-381.105 277.345,-388.484 283.606,-391.615"/>
</g>
<!-- Node5 -->
<g id="node9" class="node"><title>Node5</title>
<a xlink:href="_lua_8h.html" target="_top" xlink:title="Lua.h">
<polygon fill="none" stroke="black" points="68.5,-425 68.5,-445 109.5,-445 109.5,-425 68.5,-425"/>
<text text-anchor="middle" x="89" y="-432" font-family="FreeSans" font-size="10.00">Lua.h</text>
</a>
</g>
<!-- Node2&#45;&gt;Node5 -->
<g id="edge8" class="edge"><title>Node2&#45;&gt;Node5</title>
<path fill="none" stroke="midnightblue" d="M189.62,-488.818C168.846,-478.583 141.67,-464.895 118,-452 116.876,-451.388 115.731,-450.755 114.578,-450.111"/>
<polygon fill="midnightblue" stroke="midnightblue" points="116.184,-446.997 105.766,-445.069 112.707,-453.073 116.184,-446.997"/>
</g>
<!-- Node9 -->
<g id="node17" class="node"><title>Node9</title>
<a xlink:href="_script_exn_8h.html" target="_top" xlink:title="ScriptExn.h">
<polygon fill="none" stroke="black" points="126.5,-425 126.5,-445 191.5,-445 191.5,-425 126.5,-425"/>
<text text-anchor="middle" x="159" y="-432" font-family="FreeSans" font-size="10.00">ScriptExn.h</text>
</a>
</g>
<!-- Node2&#45;&gt;Node9 -->
<g id="edge16" class="edge"><title>Node2&#45;&gt;Node9</title>
<path fill="none" stroke="midnightblue" d="M208.156,-488.765C198.291,-477.975 185.338,-463.807 175.205,-452.724"/>
<polygon fill="midnightblue" stroke="midnightblue" points="177.74,-450.31 168.409,-445.291 172.574,-455.033 177.74,-450.31"/>
</g>
<!-- Node6 -->
<g id="node11" class="node"><title>Node6</title>
<polygon fill="none" stroke="#bfbfbf" points="131.5,-361 131.5,-381 168.5,-381 168.5,-361 131.5,-361"/>
<text text-anchor="middle" x="150" y="-368" font-family="FreeSans" font-size="10.00">lua.h</text>
</g>
<!-- Node5&#45;&gt;Node6 -->
<g id="edge10" class="edge"><title>Node5&#45;&gt;Node6</title>
<path fill="none" stroke="midnightblue" d="M98.8007,-424.717C108.104,-414.956 122.273,-400.09 133.349,-388.47"/>
<polygon fill="midnightblue" stroke="midnightblue" points="136.059,-390.7 140.425,-381.046 130.992,-385.87 136.059,-390.7"/>
</g>
<!-- Node7 -->
<g id="node13" class="node"><title>Node7</title>
<polygon fill="none" stroke="#bfbfbf" points="-0.5,-361 -0.5,-381 46.5,-381 46.5,-361 -0.5,-361"/>
<text text-anchor="middle" x="23" y="-368" font-family="FreeSans" font-size="10.00">lualib.h</text>
</g>
<!-- Node5&#45;&gt;Node7 -->
<g id="edge12" class="edge"><title>Node5&#45;&gt;Node7</title>
<path fill="none" stroke="midnightblue" d="M78.396,-424.717C68.2329,-414.862 52.7041,-399.804 40.6711,-388.136"/>
<polygon fill="midnightblue" stroke="midnightblue" points="42.9757,-385.495 33.3601,-381.046 38.1026,-390.52 42.9757,-385.495"/>
</g>
<!-- Node8 -->
<g id="node15" class="node"><title>Node8</title>
<polygon fill="none" stroke="#bfbfbf" points="63.5,-361 63.5,-381 114.5,-381 114.5,-361 63.5,-361"/>
<text text-anchor="middle" x="89" y="-368" font-family="FreeSans" font-size="10.00">lauxlib.h</text>
</g>
<!-- Node5&#45;&gt;Node8 -->
<g id="edge14" class="edge"><title>Node5&#45;&gt;Node8</title>
<path fill="none" stroke="midnightblue" d="M89,-424.717C89,-415.707 89,-402.347 89,-391.205"/>
<polygon fill="midnightblue" stroke="midnightblue" points="92.5001,-391.046 89,-381.046 85.5001,-391.046 92.5001,-391.046"/>
</g>
<!-- Node11 -->
<g id="node21" class="node"><title>Node11</title>
<polygon fill="none" stroke="#bfbfbf" points="674.5,-425 674.5,-445 775.5,-445 775.5,-425 674.5,-425"/>
<text text-anchor="middle" x="725" y="-432" font-family="FreeSans" font-size="10.00">boost/log/trivial.hpp</text>
</g>
<!-- Node10&#45;&gt;Node11 -->
<g id="edge20" class="edge"><title>Node10&#45;&gt;Node11</title>
<path fill="none" stroke="midnightblue" d="M728.072,-488.765C727.504,-478.813 726.771,-465.987 726.163,-455.359"/>
<polygon fill="midnightblue" stroke="midnightblue" points="729.653,-455.075 725.588,-445.291 722.664,-455.475 729.653,-455.075"/>
</g>
<!-- Node13 -->
<g id="node25" class="node"><title>Node13</title>
<polygon fill="none" stroke="#bfbfbf" points="803,-175 803,-195 845,-195 845,-175 803,-175"/>
<text text-anchor="middle" x="824" y="-182" font-family="FreeSans" font-size="10.00">locale</text>
</g>
<!-- Node12&#45;&gt;Node13 -->
<g id="edge24" class="edge"><title>Node12&#45;&gt;Node13</title>
<path fill="none" stroke="midnightblue" d="M867.768,-232.897C860.261,-224.682 849.479,-212.883 840.495,-203.051"/>
<polygon fill="midnightblue" stroke="midnightblue" points="842.812,-200.399 833.483,-195.378 837.645,-205.121 842.812,-200.399"/>
</g>
<!-- Node14 -->
<g id="node27" class="node"><title>Node14</title>
<polygon fill="none" stroke="#bfbfbf" points="863,-175 863,-195 893,-195 893,-175 863,-175"/>
<text text-anchor="middle" x="878" y="-182" font-family="FreeSans" font-size="10.00">set</text>
</g>
<!-- Node12&#45;&gt;Node14 -->
<g id="edge26" class="edge"><title>Node12&#45;&gt;Node14</title>
<path fill="none" stroke="midnightblue" d="M877.174,-232.897C877.304,-225.339 877.487,-214.748 877.647,-205.446"/>
<polygon fill="midnightblue" stroke="midnightblue" points="881.148,-205.436 877.821,-195.378 874.149,-205.316 881.148,-205.436"/>
</g>
<!-- Node15 -->
<g id="node29" class="node"><title>Node15</title>
<polygon fill="none" stroke="#bfbfbf" points="1011.5,-175 1011.5,-195 1052.5,-195 1052.5,-175 1011.5,-175"/>
<text text-anchor="middle" x="1032" y="-182" font-family="FreeSans" font-size="10.00">string</text>
</g>
<!-- Node12&#45;&gt;Node15 -->
<g id="edge28" class="edge"><title>Node12&#45;&gt;Node15</title>
<path fill="none" stroke="midnightblue" d="M903.999,-232.897C931.31,-222.678 973.44,-206.913 1001.83,-196.288"/>
<polygon fill="midnightblue" stroke="midnightblue" points="1003.12,-199.545 1011.26,-192.762 1000.66,-192.989 1003.12,-199.545"/>
</g>
<!-- Node16 -->
<g id="node31" class="node"><title>Node16</title>
<polygon fill="none" stroke="#bfbfbf" points="911,-175 911,-195 955,-195 955,-175 911,-175"/>
<text text-anchor="middle" x="933" y="-182" font-family="FreeSans" font-size="10.00">vector</text>
</g>
<!-- Node12&#45;&gt;Node16 -->
<g id="edge30" class="edge"><title>Node12&#45;&gt;Node16</title>
<path fill="none" stroke="midnightblue" d="M886.754,-232.897C894.766,-224.6 906.307,-212.646 915.855,-202.757"/>
<polygon fill="midnightblue" stroke="midnightblue" points="918.552,-205.003 922.98,-195.378 913.516,-200.141 918.552,-205.003"/>
</g>
<!-- Node17 -->
<g id="node33" class="node"><title>Node17</title>
<polygon fill="none" stroke="#bfbfbf" points="680.5,-175 680.5,-195 785.5,-195 785.5,-175 680.5,-175"/>
<text text-anchor="middle" x="733" y="-182" font-family="FreeSans" font-size="10.00">boost/filesystem.hpp</text>
</g>
<!-- Node12&#45;&gt;Node17 -->
<g id="edge32" class="edge"><title>Node12&#45;&gt;Node17</title>
<path fill="none" stroke="midnightblue" d="M851.917,-232.897C828.624,-223.515 793.727,-209.459 767.753,-198.998"/>
<polygon fill="midnightblue" stroke="midnightblue" points="768.862,-195.671 758.279,-195.182 766.247,-202.164 768.862,-195.671"/>
</g>
<!-- Node18 -->
<g id="node35" class="node"><title>Node18</title>
<a xlink:href="_m_r___types_8h.html" target="_top" xlink:title="MR_Types.h">
<polygon fill="none" stroke="black" points="1107.5,-59 1107.5,-79 1178.5,-79 1178.5,-59 1107.5,-59"/>
<text text-anchor="middle" x="1143" y="-66" font-family="FreeSans" font-size="10.00">MR_Types.h</text>
</a>
</g>
<!-- Node12&#45;&gt;Node18 -->
<g id="edge34" class="edge"><title>Node12&#45;&gt;Node18</title>
<path fill="none" stroke="midnightblue" d="M897.437,-232.853C915.323,-223.763 941.839,-209.777 964,-196 1023.11,-159.251 1089.01,-110.281 1121.91,-85.2437"/>
<polygon fill="midnightblue" stroke="midnightblue" points="1124.09,-87.9832 1129.91,-79.1307 1119.84,-82.421 1124.09,-87.9832"/>
</g>
<!-- Node19 -->
<g id="node37" class="node"><title>Node19</title>
<polygon fill="none" stroke="#bfbfbf" points="1114,-1 1114,-21 1172,-21 1172,-1 1114,-1"/>
<text text-anchor="middle" x="1143" y="-8" font-family="FreeSans" font-size="10.00">inttypes.h</text>
</g>
<!-- Node18&#45;&gt;Node19 -->
<g id="edge36" class="edge"><title>Node18&#45;&gt;Node19</title>
<path fill="none" stroke="midnightblue" d="M1143,-58.8972C1143,-51.339 1143,-40.7476 1143,-31.4458"/>
<polygon fill="midnightblue" stroke="midnightblue" points="1146.5,-31.3776 1143,-21.3776 1139.5,-31.3776 1146.5,-31.3776"/>
</g>
<!-- Node20&#45;&gt;Node12 -->
<g id="edge40" class="edge"><title>Node20&#45;&gt;Node12</title>
<path fill="none" stroke="midnightblue" d="M865.037,-290.85C867.144,-282.426 869.74,-272.041 871.975,-263.1"/>
<polygon fill="midnightblue" stroke="midnightblue" points="875.435,-263.691 874.465,-253.141 868.644,-261.994 875.435,-263.691"/>
</g>
<!-- Node22&#45;&gt;Node21 -->
<g id="edge54" class="edge"><title>Node22&#45;&gt;Node21</title>
<path fill="none" stroke="midnightblue" d="M985.047,-494.971C1003.68,-483.327 1034.62,-463.99 1056.31,-450.429"/>
<polygon fill="midnightblue" stroke="midnightblue" points="1058.36,-453.279 1064.98,-445.011 1054.65,-447.343 1058.36,-453.279"/>
</g>
<!-- Node23 -->
<g id="node46" class="node"><title>Node23</title>
<a xlink:href="_config_8h.html" target="_top" xlink:title="../../engine/Util/Config.h">
<polygon fill="none" stroke="black" points="992,-297 992,-317 1108,-317 1108,-297 992,-297"/>
<text text-anchor="middle" x="1050" y="-304" font-family="FreeSans" font-size="10.00">../../engine/Util/Config.h</text>
</a>
</g>
<!-- Node22&#45;&gt;Node23 -->
<g id="edge46" class="edge"><title>Node22&#45;&gt;Node23</title>
<path fill="none" stroke="midnightblue" d="M973.128,-494.909C985.908,-463.67 1024.98,-368.164 1041.97,-326.632"/>
<polygon fill="midnightblue" stroke="midnightblue" points="1045.24,-327.889 1045.78,-317.308 1038.76,-325.238 1045.24,-327.889"/>
</g>
<!-- Node25 -->
<g id="node53" class="node"><title>Node25</title>
<a xlink:href="_ui_scene_8h.html" target="_top" xlink:title="UiScene.h">
<polygon fill="none" stroke="black" points="917,-361 917,-381 979,-381 979,-361 917,-361"/>
<text text-anchor="middle" x="948" y="-368" font-family="FreeSans" font-size="10.00">UiScene.h</text>
</a>
</g>
<!-- Node22&#45;&gt;Node25 -->
<g id="edge56" class="edge"><title>Node22&#45;&gt;Node25</title>
<path fill="none" stroke="midnightblue" d="M967.422,-494.928C963.986,-473.005 955.772,-420.595 951.204,-391.443"/>
<polygon fill="midnightblue" stroke="midnightblue" points="954.603,-390.526 949.597,-381.189 947.687,-391.61 954.603,-390.526"/>
</g>
<!-- Node23&#45;&gt;Node12 -->
<g id="edge52" class="edge"><title>Node23&#45;&gt;Node12</title>
<path fill="none" stroke="midnightblue" d="M1022.59,-296.859C993.231,-285.999 946.481,-268.704 913.904,-256.652"/>
<polygon fill="midnightblue" stroke="midnightblue" points="914.877,-253.281 904.284,-253.094 912.449,-259.846 914.877,-253.281"/>
</g>
<!-- Node23&#45;&gt;Node15 -->
<g id="edge48" class="edge"><title>Node23&#45;&gt;Node15</title>
<path fill="none" stroke="midnightblue" d="M1048.47,-296.598C1045.47,-276.329 1038.82,-231.238 1034.95,-204.997"/>
<polygon fill="midnightblue" stroke="midnightblue" points="1038.4,-204.414 1033.48,-195.032 1031.48,-205.436 1038.4,-204.414"/>
</g>
<!-- Node24 -->
<g id="node49" class="node"><title>Node24</title>
<polygon fill="none" stroke="#bfbfbf" points="950,-233 950,-253 1006,-253 1006,-233 950,-233"/>
<text text-anchor="middle" x="978" y="-240" font-family="FreeSans" font-size="10.00">basedir.h</text>
</g>
<!-- Node23&#45;&gt;Node24 -->
<g id="edge50" class="edge"><title>Node23&#45;&gt;Node24</title>
<path fill="none" stroke="midnightblue" d="M1038.43,-296.717C1027.24,-286.768 1010.08,-271.517 996.904,-259.803"/>
<polygon fill="midnightblue" stroke="midnightblue" points="999.101,-257.074 989.302,-253.046 994.451,-262.306 999.101,-257.074"/>
</g>
<!-- Node26 -->
<g id="node55" class="node"><title>Node26</title>
<a xlink:href="_scene_8h.html" target="_top" xlink:title="Scene.h">
<polygon fill="none" stroke="black" points="922,-297 922,-317 974,-317 974,-297 922,-297"/>
<text text-anchor="middle" x="948" y="-304" font-family="FreeSans" font-size="10.00">Scene.h</text>
</a>
</g>
<!-- Node25&#45;&gt;Node26 -->
<g id="edge58" class="edge"><title>Node25&#45;&gt;Node26</title>
<path fill="none" stroke="midnightblue" d="M948,-360.717C948,-351.707 948,-338.347 948,-327.205"/>
<polygon fill="midnightblue" stroke="midnightblue" points="951.5,-327.046 948,-317.046 944.5,-327.046 951.5,-327.046"/>
</g>
<!-- Node26&#45;&gt;Node12 -->
<g id="edge60" class="edge"><title>Node26&#45;&gt;Node12</title>
<path fill="none" stroke="midnightblue" d="M936.593,-296.717C925.556,-286.768 908.636,-271.517 895.641,-259.803"/>
<polygon fill="midnightblue" stroke="midnightblue" points="897.916,-257.142 888.145,-253.046 893.229,-262.341 897.916,-257.142"/>
</g>
<!-- Node27&#45;&gt;Node21 -->
<g id="edge110" class="edge"><title>Node27&#45;&gt;Node21</title>
<path fill="none" stroke="midnightblue" d="M1161.53,-494.971C1146.18,-483.535 1120.85,-464.678 1102.7,-451.161"/>
<polygon fill="midnightblue" stroke="midnightblue" points="1104.55,-448.176 1094.44,-445.011 1100.37,-453.791 1104.55,-448.176"/>
</g>
<!-- Node28 -->
<g id="node60" class="node"><title>Node28</title>
<a xlink:href="_ui_view_model_8h.html" target="_top" xlink:title="../../engine/Display\l/UiViewModel.h">
<polygon fill="none" stroke="black" points="1260.5,-419 1260.5,-451 1355.5,-451 1355.5,-419 1260.5,-419"/>
<text text-anchor="start" x="1268.5" y="-438" font-family="FreeSans" font-size="10.00">../../engine/Display</text>
<text text-anchor="middle" x="1308" y="-426" font-family="FreeSans" font-size="10.00">/UiViewModel.h</text>
</a>
</g>
<!-- Node27&#45;&gt;Node28 -->
<g id="edge64" class="edge"><title>Node27&#45;&gt;Node28</title>
<path fill="none" stroke="midnightblue" d="M1194.06,-494.971C1213.35,-484.814 1243.78,-468.802 1268.33,-455.878"/>
<polygon fill="midnightblue" stroke="midnightblue" points="1270.2,-458.849 1277.42,-451.094 1266.94,-452.655 1270.2,-458.849"/>
</g>
<!-- Node42 -->
<g id="node98" class="node"><title>Node42</title>
<a xlink:href="_form_scene_8h.html" target="_top" xlink:title="FormScene.h">
<polygon fill="none" stroke="black" points="1145,-425 1145,-445 1219,-445 1219,-425 1145,-425"/>
<text text-anchor="middle" x="1182" y="-432" font-family="FreeSans" font-size="10.00">FormScene.h</text>
</a>
</g>
<!-- Node27&#45;&gt;Node42 -->
<g id="edge112" class="edge"><title>Node27&#45;&gt;Node42</title>
<path fill="none" stroke="midnightblue" d="M1176,-494.971C1177.04,-484.575 1178.7,-468.045 1180,-454.971"/>
<polygon fill="midnightblue" stroke="midnightblue" points="1183.49,-455.309 1181,-445.011 1176.52,-454.613 1183.49,-455.309"/>
</g>
<!-- Node28&#45;&gt;Node18 -->
<g id="edge68" class="edge"><title>Node28&#45;&gt;Node18</title>
<path fill="none" stroke="midnightblue" d="M1295.73,-418.917C1272.94,-388.342 1223.75,-319.058 1195,-254 1169.69,-196.724 1153.54,-123.992 1146.73,-89.254"/>
<polygon fill="midnightblue" stroke="midnightblue" points="1150.15,-88.5446 1144.84,-79.3782 1143.28,-89.8571 1150.15,-88.5446"/>
</g>
<!-- Node29 -->
<g id="node62" class="node"><title>Node29</title>
<a xlink:href="_nav_8h.html" target="_top" xlink:title="../Control/Nav.h">
<polygon fill="none" stroke="black" points="1485.5,-361 1485.5,-381 1568.5,-381 1568.5,-361 1485.5,-361"/>
<text text-anchor="middle" x="1527" y="-368" font-family="FreeSans" font-size="10.00">../Control/Nav.h</text>
</a>
</g>
<!-- Node28&#45;&gt;Node29 -->
<g id="edge66" class="edge"><title>Node28&#45;&gt;Node29</title>
<path fill="none" stroke="midnightblue" d="M1355.52,-421.113C1393.24,-410.091 1445.58,-394.794 1482.49,-384.008"/>
<polygon fill="midnightblue" stroke="midnightblue" points="1483.85,-387.257 1492.46,-381.092 1481.88,-380.538 1483.85,-387.257"/>
</g>
<!-- Node30 -->
<g id="node65" class="node"><title>Node30</title>
<a xlink:href="_vec_8h.html" target="_top" xlink:title="../Vec.h">
<polygon fill="none" stroke="black" points="1339.5,-175 1339.5,-195 1388.5,-195 1388.5,-175 1339.5,-175"/>
<text text-anchor="middle" x="1364" y="-182" font-family="FreeSans" font-size="10.00">../Vec.h</text>
</a>
</g>
<!-- Node28&#45;&gt;Node30 -->
<g id="edge70" class="edge"><title>Node28&#45;&gt;Node30</title>
<path fill="none" stroke="midnightblue" d="M1335.73,-418.884C1364.87,-400.213 1409.18,-366.499 1429,-324 1446.38,-286.725 1458.92,-267.986 1439,-232 1430.19,-216.079 1413.48,-204.83 1398.07,-197.338"/>
<polygon fill="midnightblue" stroke="midnightblue" points="1399.28,-194.045 1388.72,-193.15 1396.41,-200.433 1399.28,-194.045"/>
</g>
<!-- Node31 -->
<g id="node67" class="node"><title>Node31</title>
<a xlink:href="_ui_layout_flags_8h.html" target="_top" xlink:title="UiLayoutFlags.h">
<polygon fill="none" stroke="black" points="1061.5,-233 1061.5,-253 1148.5,-253 1148.5,-233 1061.5,-233"/>
<text text-anchor="middle" x="1105" y="-240" font-family="FreeSans" font-size="10.00">UiLayoutFlags.h</text>
</a>
</g>
<!-- Node28&#45;&gt;Node31 -->
<g id="edge72" class="edge"><title>Node28&#45;&gt;Node31</title>
<path fill="none" stroke="midnightblue" d="M1273.23,-418.912C1255.11,-409.587 1233.2,-396.775 1216,-382 1173.28,-345.295 1135.09,-290.339 1116.66,-261.767"/>
<polygon fill="midnightblue" stroke="midnightblue" points="1119.5,-259.718 1111.19,-253.153 1113.6,-263.471 1119.5,-259.718"/>
</g>
<!-- Node32 -->
<g id="node70" class="node"><title>Node32</title>
<a xlink:href="_view_model_8h.html" target="_top" xlink:title="ViewModel.h">
<polygon fill="none" stroke="black" points="1296,-361 1296,-381 1368,-381 1368,-361 1296,-361"/>
<text text-anchor="middle" x="1332" y="-368" font-family="FreeSans" font-size="10.00">ViewModel.h</text>
</a>
</g>
<!-- Node28&#45;&gt;Node32 -->
<g id="edge76" class="edge"><title>Node28&#45;&gt;Node32</title>
<path fill="none" stroke="midnightblue" d="M1314.06,-418.85C1317.28,-410.241 1321.28,-399.583 1324.68,-390.513"/>
<polygon fill="midnightblue" stroke="midnightblue" points="1327.96,-391.733 1328.2,-381.141 1321.41,-389.275 1327.96,-391.733"/>
</g>
<!-- Node31&#45;&gt;Node18 -->
<g id="edge74" class="edge"><title>Node31&#45;&gt;Node18</title>
<path fill="none" stroke="midnightblue" d="M1106.58,-232.717C1109.98,-211.007 1118.57,-158.957 1129,-116 1131.2,-106.925 1134.09,-96.9979 1136.67,-88.6154"/>
<polygon fill="midnightblue" stroke="midnightblue" points="1140.03,-89.5933 1139.69,-79.0037 1133.35,-87.4901 1140.03,-89.5933"/>
</g>
<!-- Node33 -->
<g id="node72" class="node"><title>Node33</title>
<a xlink:href="_display_8h.html" target="_top" xlink:title="Display.h">
<polygon fill="none" stroke="black" points="1262,-297 1262,-317 1318,-317 1318,-297 1262,-297"/>
<text text-anchor="middle" x="1290" y="-304" font-family="FreeSans" font-size="10.00">Display.h</text>
</a>
</g>
<!-- Node32&#45;&gt;Node33 -->
<g id="edge78" class="edge"><title>Node32&#45;&gt;Node33</title>
<path fill="none" stroke="midnightblue" d="M1325.25,-360.717C1319.03,-351.238 1309.65,-336.944 1302.13,-325.483"/>
<polygon fill="midnightblue" stroke="midnightblue" points="1305.01,-323.486 1296.59,-317.046 1299.15,-327.327 1305.01,-323.486"/>
</g>
<!-- Node40 -->
<g id="node92" class="node"><title>Node40</title>
<a xlink:href="_view_attacher_8h.html" target="_top" xlink:title="ViewAttacher.h">
<polygon fill="none" stroke="black" points="1347.5,-233 1347.5,-253 1430.5,-253 1430.5,-233 1347.5,-233"/>
<text text-anchor="middle" x="1389" y="-240" font-family="FreeSans" font-size="10.00">ViewAttacher.h</text>
</a>
</g>
<!-- Node32&#45;&gt;Node40 -->
<g id="edge108" class="edge"><title>Node32&#45;&gt;Node40</title>
<path fill="none" stroke="midnightblue" d="M1335.79,-360.907C1341.67,-345.466 1353.49,-315.126 1365,-290 1369.22,-280.78 1374.28,-270.746 1378.66,-262.326"/>
<polygon fill="midnightblue" stroke="midnightblue" points="1381.84,-263.807 1383.4,-253.329 1375.65,-260.544 1381.84,-263.807"/>
</g>
<!-- Node41 -->
<g id="node94" class="node"><title>Node41</title>
<a xlink:href="_view_8h.html" target="_top" xlink:title="View.h">
<polygon fill="none" stroke="black" points="1374,-297 1374,-317 1420,-317 1420,-297 1374,-297"/>
<text text-anchor="middle" x="1397" y="-304" font-family="FreeSans" font-size="10.00">View.h</text>
</a>
</g>
<!-- Node32&#45;&gt;Node41 -->
<g id="edge106" class="edge"><title>Node32&#45;&gt;Node41</title>
<path fill="none" stroke="midnightblue" d="M1342.44,-360.717C1352.45,-350.862 1367.75,-335.804 1379.6,-324.136"/>
<polygon fill="midnightblue" stroke="midnightblue" points="1382.13,-326.556 1386.8,-317.046 1377.22,-321.568 1382.13,-326.556"/>
</g>
<!-- Node33&#45;&gt;Node30 -->
<g id="edge80" class="edge"><title>Node33&#45;&gt;Node30</title>
<path fill="none" stroke="midnightblue" d="M1296.31,-296.598C1308.82,-275.967 1336.94,-229.619 1352.71,-203.609"/>
<polygon fill="midnightblue" stroke="midnightblue" points="1355.72,-205.398 1357.91,-195.032 1349.74,-201.767 1355.72,-205.398"/>
</g>
<!-- Node33&#45;&gt;Node31 -->
<g id="edge102" class="edge"><title>Node33&#45;&gt;Node31</title>
<path fill="none" stroke="midnightblue" d="M1261.9,-297.28C1230.3,-286.348 1178.8,-268.531 1143.48,-256.311"/>
<polygon fill="midnightblue" stroke="midnightblue" points="1144.57,-252.985 1133.97,-253.023 1142.28,-259.6 1144.57,-252.985"/>
</g>
<!-- Node34 -->
<g id="node75" class="node"><title>Node34</title>
<a xlink:href="_styles_8h.html" target="_top" xlink:title="Styles.h">
<polygon fill="none" stroke="black" points="1203.5,-233 1203.5,-253 1254.5,-253 1254.5,-233 1203.5,-233"/>
<text text-anchor="middle" x="1229" y="-240" font-family="FreeSans" font-size="10.00">Styles.h</text>
</a>
</g>
<!-- Node33&#45;&gt;Node34 -->
<g id="edge82" class="edge"><title>Node33&#45;&gt;Node34</title>
<path fill="none" stroke="midnightblue" d="M1280.2,-296.717C1270.9,-286.956 1256.73,-272.09 1245.65,-260.47"/>
<polygon fill="midnightblue" stroke="midnightblue" points="1248.01,-257.87 1238.58,-253.046 1242.94,-262.7 1248.01,-257.87"/>
</g>
<!-- Node33&#45;&gt;Node40 -->
<g id="edge104" class="edge"><title>Node33&#45;&gt;Node40</title>
<path fill="none" stroke="midnightblue" d="M1305.91,-296.717C1321.88,-286.393 1346.68,-270.358 1365.03,-258.493"/>
<polygon fill="midnightblue" stroke="midnightblue" points="1366.96,-261.415 1373.46,-253.046 1363.16,-255.536 1366.96,-261.415"/>
</g>
<!-- Node34&#45;&gt;Node30 -->
<g id="edge84" class="edge"><title>Node34&#45;&gt;Node30</title>
<path fill="none" stroke="midnightblue" d="M1252.52,-232.897C1274.26,-223.556 1306.78,-209.583 1331.1,-199.136"/>
<polygon fill="midnightblue" stroke="midnightblue" points="1332.49,-202.345 1340.3,-195.182 1329.73,-195.913 1332.49,-202.345"/>
</g>
<!-- Node35 -->
<g id="node78" class="node"><title>Node35</title>
<a xlink:href="_ui_font_8h.html" target="_top" xlink:title="UiFont.h">
<polygon fill="none" stroke="black" points="1269.5,-175 1269.5,-195 1322.5,-195 1322.5,-175 1269.5,-175"/>
<text text-anchor="middle" x="1296" y="-182" font-family="FreeSans" font-size="10.00">UiFont.h</text>
</a>
</g>
<!-- Node34&#45;&gt;Node35 -->
<g id="edge86" class="edge"><title>Node34&#45;&gt;Node35</title>
<path fill="none" stroke="midnightblue" d="M1240.67,-232.897C1250.45,-224.435 1264.61,-212.172 1276.16,-202.172"/>
<polygon fill="midnightblue" stroke="midnightblue" points="1278.74,-204.569 1284.01,-195.378 1274.16,-199.276 1278.74,-204.569"/>
</g>
<!-- Node38 -->
<g id="node85" class="node"><title>Node38</title>
<a xlink:href="_color_8h.html" target="_top" xlink:title="Color.h">
<polygon fill="none" stroke="black" points="1205.5,-175 1205.5,-195 1252.5,-195 1252.5,-175 1205.5,-175"/>
<text text-anchor="middle" x="1229" y="-182" font-family="FreeSans" font-size="10.00">Color.h</text>
</a>
</g>
<!-- Node34&#45;&gt;Node38 -->
<g id="edge94" class="edge"><title>Node34&#45;&gt;Node38</title>
<path fill="none" stroke="midnightblue" d="M1229,-232.897C1229,-225.339 1229,-214.748 1229,-205.446"/>
<polygon fill="midnightblue" stroke="midnightblue" points="1232.5,-205.378 1229,-195.378 1225.5,-205.378 1232.5,-205.378"/>
</g>
<!-- Node36 -->
<g id="node80" class="node"><title>Node36</title>
<a xlink:href="_hash_8h.html" target="_top" xlink:title="../Util/Hash.h">
<polygon fill="none" stroke="black" points="1412.5,-117 1412.5,-137 1485.5,-137 1485.5,-117 1412.5,-117"/>
<text text-anchor="middle" x="1449" y="-124" font-family="FreeSans" font-size="10.00">../Util/Hash.h</text>
</a>
</g>
<!-- Node35&#45;&gt;Node36 -->
<g id="edge88" class="edge"><title>Node35&#45;&gt;Node36</title>
<path fill="none" stroke="midnightblue" d="M1322.65,-174.897C1347.58,-165.445 1385.03,-151.249 1412.69,-140.764"/>
<polygon fill="midnightblue" stroke="midnightblue" points="1414.29,-143.902 1422.4,-137.084 1411.81,-137.356 1414.29,-143.902"/>
</g>
<!-- Node37 -->
<g id="node82" class="node"><title>Node37</title>
<a xlink:href="_sel_fmt_8h.html" target="_top" xlink:title="../Util/SelFmt.h">
<polygon fill="none" stroke="black" points="1314.5,-117 1314.5,-137 1395.5,-137 1395.5,-117 1314.5,-117"/>
<text text-anchor="middle" x="1355" y="-124" font-family="FreeSans" font-size="10.00">../Util/SelFmt.h</text>
</a>
</g>
<!-- Node35&#45;&gt;Node37 -->
<g id="edge90" class="edge"><title>Node35&#45;&gt;Node37</title>
<path fill="none" stroke="midnightblue" d="M1306.28,-174.897C1314.8,-166.517 1327.12,-154.409 1337.24,-144.464"/>
<polygon fill="midnightblue" stroke="midnightblue" points="1339.77,-146.884 1344.44,-137.378 1334.86,-141.892 1339.77,-146.884"/>
</g>
<!-- Node37&#45;&gt;Node18 -->
<g id="edge92" class="edge"><title>Node37&#45;&gt;Node18</title>
<path fill="none" stroke="midnightblue" d="M1318.07,-116.897C1282.14,-107.065 1227.44,-92.1008 1188.76,-81.5189"/>
<polygon fill="midnightblue" stroke="midnightblue" points="1189.37,-78.0568 1178.8,-78.7938 1187.52,-84.8087 1189.37,-78.0568"/>
</g>
<!-- Node38&#45;&gt;Node18 -->
<g id="edge98" class="edge"><title>Node38&#45;&gt;Node18</title>
<path fill="none" stroke="midnightblue" d="M1221.37,-174.706C1206.8,-155.051 1174.84,-111.945 1156.55,-87.2806"/>
<polygon fill="midnightblue" stroke="midnightblue" points="1159.26,-85.0542 1150.49,-79.1055 1153.64,-89.2231 1159.26,-85.0542"/>
</g>
<!-- Node38&#45;&gt;Node37 -->
<g id="edge100" class="edge"><title>Node38&#45;&gt;Node37</title>
<path fill="none" stroke="midnightblue" d="M1250.95,-174.897C1271.06,-165.639 1301.06,-151.83 1323.69,-141.415"/>
<polygon fill="midnightblue" stroke="midnightblue" points="1325.26,-144.542 1332.88,-137.182 1322.33,-138.184 1325.26,-144.542"/>
</g>
<!-- Node39 -->
<g id="node87" class="node"><title>Node39</title>
<polygon fill="none" stroke="#bfbfbf" points="1208.5,-117 1208.5,-137 1297.5,-137 1297.5,-117 1208.5,-117"/>
<text text-anchor="middle" x="1253" y="-124" font-family="FreeSans" font-size="10.00">boost/format.hpp</text>
</g>
<!-- Node38&#45;&gt;Node39 -->
<g id="edge96" class="edge"><title>Node38&#45;&gt;Node39</title>
<path fill="none" stroke="midnightblue" d="M1233.18,-174.897C1236.38,-167.175 1240.88,-156.286 1244.79,-146.841"/>
<polygon fill="midnightblue" stroke="midnightblue" points="1248.12,-147.956 1248.71,-137.378 1241.65,-145.28 1248.12,-147.956"/>
</g>
<!-- Node42&#45;&gt;Node25 -->
<g id="edge116" class="edge"><title>Node42&#45;&gt;Node25</title>
<path fill="none" stroke="midnightblue" d="M1156.38,-424.97C1149.79,-422.544 1142.67,-420.06 1136,-418 1085.98,-402.556 1027.32,-388.523 988.991,-379.891"/>
<polygon fill="midnightblue" stroke="midnightblue" points="989.747,-376.474 979.225,-377.709 988.221,-383.305 989.747,-376.474"/>
</g>
<!-- Node42&#45;&gt;Node30 -->
<g id="edge114" class="edge"><title>Node42&#45;&gt;Node30</title>
<path fill="none" stroke="midnightblue" d="M1185.53,-424.822C1194.39,-400.154 1219.28,-335.834 1253,-290 1279.18,-254.413 1318.28,-220.689 1342.4,-201.466"/>
<polygon fill="midnightblue" stroke="midnightblue" points="1344.86,-203.99 1350.56,-195.063 1340.53,-198.483 1344.86,-203.99"/>
</g>
<!-- Node43&#45;&gt;Node4 -->
<g id="edge122" class="edge"><title>Node43&#45;&gt;Node4</title>
<path fill="none" stroke="midnightblue" d="M457.739,-497.688C413.412,-488.109 341.836,-470.359 322,-452 304.642,-435.935 296.549,-409.261 292.88,-390.94"/>
<polygon fill="midnightblue" stroke="midnightblue" points="296.317,-390.276 291.158,-381.022 289.42,-391.473 296.317,-390.276"/>
</g>
<!-- Node44 -->
<g id="node104" class="node"><title>Node44</title>
<polygon fill="none" stroke="#bfbfbf" points="444.5,-425 444.5,-445 543.5,-445 543.5,-425 444.5,-425"/>
<text text-anchor="middle" x="494" y="-432" font-family="FreeSans" font-size="10.00">luabind/luabind.hpp</text>
</g>
<!-- Node43&#45;&gt;Node44 -->
<g id="edge120" class="edge"><title>Node43&#45;&gt;Node44</title>
<path fill="none" stroke="midnightblue" d="M494,-494.971C494,-484.679 494,-468.375 494,-455.364"/>
<polygon fill="midnightblue" stroke="midnightblue" points="497.5,-455.011 494,-445.011 490.5,-455.011 497.5,-455.011"/>
</g>
<!-- Node45 -->
<g id="node107" class="node"><title>Node45</title>
<a xlink:href="_handlers_8h.html" target="_top" xlink:title="../../../engine/Script\l/Handlers.h">
<polygon fill="none" stroke="black" points="331,-419 331,-451 427,-451 427,-419 331,-419"/>
<text text-anchor="start" x="339" y="-438" font-family="FreeSans" font-size="10.00">../../../engine/Script</text>
<text text-anchor="middle" x="379" y="-426" font-family="FreeSans" font-size="10.00">/Handlers.h</text>
</a>
</g>
<!-- Node43&#45;&gt;Node45 -->
<g id="edge124" class="edge"><title>Node43&#45;&gt;Node45</title>
<path fill="none" stroke="midnightblue" d="M477.523,-494.971C461.112,-484.981 435.397,-469.328 414.353,-456.519"/>
<polygon fill="midnightblue" stroke="midnightblue" points="416.023,-453.438 405.661,-451.228 412.383,-459.418 416.023,-453.438"/>
</g>
<!-- Node47 -->
<g id="node112" class="node"><title>Node47</title>
<a xlink:href="_peer_8h.html" target="_top" xlink:title="../../../engine/Script\l/Peer.h">
<polygon fill="none" stroke="black" points="561,-419 561,-451 657,-451 657,-419 561,-419"/>
<text text-anchor="start" x="569" y="-438" font-family="FreeSans" font-size="10.00">../../../engine/Script</text>
<text text-anchor="middle" x="609" y="-426" font-family="FreeSans" font-size="10.00">/Peer.h</text>
</a>
</g>
<!-- Node43&#45;&gt;Node47 -->
<g id="edge130" class="edge"><title>Node43&#45;&gt;Node47</title>
<path fill="none" stroke="midnightblue" d="M510.477,-494.971C526.888,-484.981 552.603,-469.328 573.647,-456.519"/>
<polygon fill="midnightblue" stroke="midnightblue" points="575.617,-459.418 582.339,-451.228 571.977,-453.438 575.617,-459.418"/>
</g>
<!-- Node45&#45;&gt;Node4 -->
<g id="edge126" class="edge"><title>Node45&#45;&gt;Node4</title>
<path fill="none" stroke="midnightblue" d="M356.542,-418.85C343.024,-409.13 325.876,-396.799 312.374,-387.089"/>
<polygon fill="midnightblue" stroke="midnightblue" points="314.265,-384.138 304.102,-381.141 310.178,-389.821 314.265,-384.138"/>
</g>
<!-- Node46 -->
<g id="node110" class="node"><title>Node46</title>
<a xlink:href="_registry_ref_8h.html" target="_top" xlink:title="RegistryRef.h">
<polygon fill="none" stroke="black" points="355,-361 355,-381 429,-381 429,-361 355,-361"/>
<text text-anchor="middle" x="392" y="-368" font-family="FreeSans" font-size="10.00">RegistryRef.h</text>
</a>
</g>
<!-- Node45&#45;&gt;Node46 -->
<g id="edge128" class="edge"><title>Node45&#45;&gt;Node46</title>
<path fill="none" stroke="midnightblue" d="M382.28,-418.85C383.992,-410.426 386.101,-400.041 387.917,-391.1"/>
<polygon fill="midnightblue" stroke="midnightblue" points="391.379,-391.638 389.94,-381.141 384.519,-390.244 391.379,-391.638"/>
</g>
</g>
</svg>
