<?xml version="1.0" encoding="UTF-8" standalone="no"?>
<!DOCTYPE svg PUBLIC "-//W3C//DTD SVG 1.1//EN"
 "http://www.w3.org/Graphics/SVG/1.1/DTD/svg11.dtd">
<!-- Generated by graphviz version 2.38.0 (20140413.2041)
 -->
<!-- Title: DebugScene.cpp Pages: 1 -->
<svg width="1013pt" height="610pt"
 viewBox="0.00 0.00 1012.50 610.00" xmlns="http://www.w3.org/2000/svg" xmlns:xlink="http://www.w3.org/1999/xlink">
<g id="graph0" class="graph" transform="scale(1 1) rotate(0) translate(4 606)">
<title>DebugScene.cpp</title>
<!-- Node1 -->
<g id="node1" class="node"><title>Node1</title>
<polygon fill="#bfbfbf" stroke="black" points="228.5,-582.5 228.5,-601.5 320.5,-601.5 320.5,-582.5 228.5,-582.5"/>
<text text-anchor="middle" x="274.5" y="-589.5" font-family="Helvetica,sans-Serif" font-size="10.00">DebugScene.cpp</text>
</g>
<!-- Node2 -->
<g id="node2" class="node"><title>Node2</title>
<polygon fill="none" stroke="#bfbfbf" points="0,-521 0,-540 129,-540 129,-521 0,-521"/>
<text text-anchor="middle" x="64.5" y="-528" font-family="Helvetica,sans-Serif" font-size="10.00">boost/algorithm/string.hpp</text>
</g>
<!-- Node1&#45;&gt;Node2 -->
<g id="edge1" class="edge"><title>Node1&#45;&gt;Node2</title>
<path fill="none" stroke="midnightblue" d="M244.412,-582.475C207.61,-572.048 145.189,-554.362 104.406,-542.807"/>
<polygon fill="midnightblue" stroke="midnightblue" points="105.107,-539.368 94.5321,-540.009 103.199,-546.103 105.107,-539.368"/>
</g>
<!-- Node3 -->
<g id="node3" class="node"><title>Node3</title>
<g id="a_node3"><a xlink:href="_active_text_8h.html" target="_top" xlink:title="../../engine/Display\l/ActiveText.h">
<polygon fill="none" stroke="black" points="147,-515.5 147,-545.5 246,-545.5 246,-515.5 147,-515.5"/>
<text text-anchor="start" x="155" y="-533.5" font-family="Helvetica,sans-Serif" font-size="10.00">../../engine/Display</text>
<text text-anchor="middle" x="196.5" y="-522.5" font-family="Helvetica,sans-Serif" font-size="10.00">/ActiveText.h</text>
</a>
</g>
</g>
<!-- Node1&#45;&gt;Node3 -->
<g id="edge2" class="edge"><title>Node1&#45;&gt;Node3</title>
<path fill="none" stroke="midnightblue" d="M263.325,-582.475C252.859,-574.492 236.816,-562.254 223.073,-551.77"/>
<polygon fill="midnightblue" stroke="midnightblue" points="224.957,-548.805 214.883,-545.523 220.711,-554.371 224.957,-548.805"/>
</g>
<!-- Node16 -->
<g id="node16" class="node"><title>Node16</title>
<g id="a_node16"><a xlink:href="_display_8h.html" target="_top" xlink:title="Display.h">
<polygon fill="none" stroke="black" points="276.5,-280.5 276.5,-299.5 334.5,-299.5 334.5,-280.5 276.5,-280.5"/>
<text text-anchor="middle" x="305.5" y="-287.5" font-family="Helvetica,sans-Serif" font-size="10.00">Display.h</text>
</a>
</g>
</g>
<!-- Node1&#45;&gt;Node16 -->
<g id="edge32" class="edge"><title>Node1&#45;&gt;Node16</title>
<path fill="none" stroke="midnightblue" d="M274.5,-582.411C274.5,-561.977 274.5,-508.863 274.5,-464.5 274.5,-464.5 274.5,-464.5 274.5,-401 274.5,-367.41 288.058,-330.14 297.241,-308.747"/>
<polygon fill="midnightblue" stroke="midnightblue" points="300.441,-310.165 301.319,-299.607 294.048,-307.313 300.441,-310.165"/>
</g>
<!-- Node20 -->
<g id="node20" class="node"><title>Node20</title>
<g id="a_node20"><a xlink:href="_fill_box_8h.html" target="_top" xlink:title="../../engine/Display\l/FillBox.h">
<polygon fill="none" stroke="black" points="303,-448.5 303,-478.5 402,-478.5 402,-448.5 303,-448.5"/>
<text text-anchor="start" x="311" y="-466.5" font-family="Helvetica,sans-Serif" font-size="10.00">../../engine/Display</text>
<text text-anchor="middle" x="352.5" y="-455.5" font-family="Helvetica,sans-Serif" font-size="10.00">/FillBox.h</text>
</a>
</g>
</g>
<!-- Node1&#45;&gt;Node20 -->
<g id="edge29" class="edge"><title>Node1&#45;&gt;Node20</title>
<path fill="none" stroke="midnightblue" d="M279.861,-582.305C291.787,-562.963 320.84,-515.846 338.376,-487.406"/>
<polygon fill="midnightblue" stroke="midnightblue" points="341.359,-489.237 343.628,-478.888 335.401,-485.563 341.359,-489.237"/>
</g>
<!-- Node21 -->
<g id="node21" class="node"><title>Node21</title>
<g id="a_node21"><a xlink:href="_debug_scene_8h.html" target="_top" xlink:title="DebugScene.h">
<polygon fill="none" stroke="black" points="552,-521 552,-540 633,-540 633,-521 552,-521"/>
<text text-anchor="middle" x="592.5" y="-528" font-family="Helvetica,sans-Serif" font-size="10.00">DebugScene.h</text>
</a>
</g>
</g>
<!-- Node1&#45;&gt;Node21 -->
<g id="edge33" class="edge"><title>Node1&#45;&gt;Node21</title>
<path fill="none" stroke="midnightblue" d="M320.062,-582.475C378.669,-571.509 480.18,-552.516 541.367,-541.067"/>
<polygon fill="midnightblue" stroke="midnightblue" points="542.38,-544.439 551.565,-539.159 541.092,-537.558 542.38,-544.439"/>
</g>
<!-- Node4 -->
<g id="node4" class="node"><title>Node4</title>
<g id="a_node4"><a xlink:href="_base_text_8h.html" target="_top" xlink:title="BaseText.h">
<polygon fill="none" stroke="black" points="118,-454 118,-473 185,-473 185,-454 118,-454"/>
<text text-anchor="middle" x="151.5" y="-461" font-family="Helvetica,sans-Serif" font-size="10.00">BaseText.h</text>
</a>
</g>
</g>
<!-- Node3&#45;&gt;Node4 -->
<g id="edge3" class="edge"><title>Node3&#45;&gt;Node4</title>
<path fill="none" stroke="midnightblue" d="M186.736,-515.396C179.858,-505.462 170.613,-492.108 163.319,-481.572"/>
<polygon fill="midnightblue" stroke="midnightblue" points="166.089,-479.424 157.519,-473.195 160.334,-483.409 166.089,-479.424"/>
</g>
<!-- Node5 -->
<g id="node5" class="node"><title>Node5</title>
<g id="a_node5"><a xlink:href="_color_8h.html" target="_top" xlink:title="Color.h">
<polygon fill="none" stroke="black" points="270.5,-168.5 270.5,-187.5 318.5,-187.5 318.5,-168.5 270.5,-168.5"/>
<text text-anchor="middle" x="294.5" y="-175.5" font-family="Helvetica,sans-Serif" font-size="10.00">Color.h</text>
</a>
</g>
</g>
<!-- Node4&#45;&gt;Node5 -->
<g id="edge4" class="edge"><title>Node4&#45;&gt;Node5</title>
<path fill="none" stroke="midnightblue" d="M145.617,-453.962C133.419,-435.4 106.5,-389.61 106.5,-347 106.5,-347 106.5,-347 106.5,-289 106.5,-255.079 119.644,-244.721 146.5,-224 164.332,-210.242 222.331,-195.194 260.207,-186.453"/>
<polygon fill="midnightblue" stroke="midnightblue" points="261.329,-189.788 270.307,-184.162 259.78,-182.961 261.329,-189.788"/>
</g>
<!-- Node9 -->
<g id="node9" class="node"><title>Node9</title>
<g id="a_node9"><a xlink:href="_ui_font_8h.html" target="_top" xlink:title="UiFont.h">
<polygon fill="none" stroke="black" points="184.5,-168.5 184.5,-187.5 238.5,-187.5 238.5,-168.5 184.5,-168.5"/>
<text text-anchor="middle" x="211.5" y="-175.5" font-family="Helvetica,sans-Serif" font-size="10.00">UiFont.h</text>
</a>
</g>
</g>
<!-- Node4&#45;&gt;Node9 -->
<g id="edge9" class="edge"><title>Node4&#45;&gt;Node9</title>
<path fill="none" stroke="midnightblue" d="M138.033,-453.99C124.793,-445.004 104.828,-429.703 92.5,-412 74.9017,-386.729 68.5,-377.795 68.5,-347 68.5,-347 68.5,-347 68.5,-289 68.5,-258.205 70.8099,-245.861 92.5,-224 114.474,-201.853 148.428,-190.446 174.451,-184.669"/>
<polygon fill="midnightblue" stroke="midnightblue" points="175.248,-188.079 184.349,-182.655 173.851,-181.22 175.248,-188.079"/>
</g>
<!-- Node11 -->
<g id="node11" class="node"><title>Node11</title>
<g id="a_node11"><a xlink:href="_ui_view_model_8h.html" target="_top" xlink:title="UiViewModel.h">
<polygon fill="none" stroke="black" points="311,-392.5 311,-411.5 394,-411.5 394,-392.5 311,-392.5"/>
<text text-anchor="middle" x="352.5" y="-399.5" font-family="Helvetica,sans-Serif" font-size="10.00">UiViewModel.h</text>
</a>
</g>
</g>
<!-- Node4&#45;&gt;Node11 -->
<g id="edge12" class="edge"><title>Node4&#45;&gt;Node11</title>
<path fill="none" stroke="midnightblue" d="M180.298,-453.975C215.374,-443.592 274.763,-426.012 313.807,-414.454"/>
<polygon fill="midnightblue" stroke="midnightblue" points="315.16,-417.704 323.755,-411.509 313.173,-410.992 315.16,-417.704"/>
</g>
<!-- Node6 -->
<g id="node6" class="node"><title>Node6</title>
<g id="a_node6"><a xlink:href="_m_r___types_8h.html" target="_top" xlink:title="../Util/MR_Types.h">
<polygon fill="none" stroke="black" points="415.5,-56.5 415.5,-75.5 515.5,-75.5 515.5,-56.5 415.5,-56.5"/>
<text text-anchor="middle" x="465.5" y="-63.5" font-family="Helvetica,sans-Serif" font-size="10.00">../Util/MR_Types.h</text>
</a>
</g>
</g>
<!-- Node5&#45;&gt;Node6 -->
<g id="edge5" class="edge"><title>Node5&#45;&gt;Node6</title>
<path fill="none" stroke="midnightblue" d="M307.918,-168.368C337.262,-149.492 407.383,-104.385 443.368,-81.2367"/>
<polygon fill="midnightblue" stroke="midnightblue" points="445.628,-83.9451 452.144,-75.5914 441.841,-78.058 445.628,-83.9451"/>
</g>
<!-- Node8 -->
<g id="node8" class="node"><title>Node8</title>
<g id="a_node8"><a xlink:href="_sel_fmt_8h.html" target="_top" xlink:title="../Util/SelFmt.h">
<polygon fill="none" stroke="black" points="260,-112.5 260,-131.5 343,-131.5 343,-112.5 260,-112.5"/>
<text text-anchor="middle" x="301.5" y="-119.5" font-family="Helvetica,sans-Serif" font-size="10.00">../Util/SelFmt.h</text>
</a>
</g>
</g>
<!-- Node5&#45;&gt;Node8 -->
<g id="edge7" class="edge"><title>Node5&#45;&gt;Node8</title>
<path fill="none" stroke="midnightblue" d="M295.656,-168.083C296.584,-160.927 297.918,-150.635 299.077,-141.691"/>
<polygon fill="midnightblue" stroke="midnightblue" points="302.551,-142.118 300.366,-131.751 295.609,-141.218 302.551,-142.118"/>
</g>
<!-- Node7 -->
<g id="node7" class="node"><title>Node7</title>
<polygon fill="none" stroke="#bfbfbf" points="436,-0.5 436,-19.5 495,-19.5 495,-0.5 436,-0.5"/>
<text text-anchor="middle" x="465.5" y="-7.5" font-family="Helvetica,sans-Serif" font-size="10.00">inttypes.h</text>
</g>
<!-- Node6&#45;&gt;Node7 -->
<g id="edge6" class="edge"><title>Node6&#45;&gt;Node7</title>
<path fill="none" stroke="midnightblue" d="M465.5,-56.083C465.5,-49.0059 465.5,-38.8611 465.5,-29.9865"/>
<polygon fill="midnightblue" stroke="midnightblue" points="469,-29.751 465.5,-19.7511 462,-29.7511 469,-29.751"/>
</g>
<!-- Node8&#45;&gt;Node6 -->
<g id="edge8" class="edge"><title>Node8&#45;&gt;Node6</title>
<path fill="none" stroke="midnightblue" d="M327.486,-112.444C355.196,-103.32 399.252,-88.8133 430.116,-78.6509"/>
<polygon fill="midnightblue" stroke="midnightblue" points="431.232,-81.9684 439.635,-75.5164 429.042,-75.3196 431.232,-81.9684"/>
</g>
<!-- Node9&#45;&gt;Node8 -->
<g id="edge11" class="edge"><title>Node9&#45;&gt;Node8</title>
<path fill="none" stroke="midnightblue" d="M225.96,-168.324C240,-159.9 261.548,-146.971 278.043,-137.074"/>
<polygon fill="midnightblue" stroke="midnightblue" points="280.302,-139.801 287.076,-131.655 276.7,-133.798 280.302,-139.801"/>
</g>
<!-- Node10 -->
<g id="node10" class="node"><title>Node10</title>
<g id="a_node10"><a xlink:href="_hash_8h.html" target="_top" xlink:title="../Util/Hash.h">
<polygon fill="none" stroke="black" points="167,-112.5 167,-131.5 242,-131.5 242,-112.5 167,-112.5"/>
<text text-anchor="middle" x="204.5" y="-119.5" font-family="Helvetica,sans-Serif" font-size="10.00">../Util/Hash.h</text>
</a>
</g>
</g>
<!-- Node9&#45;&gt;Node10 -->
<g id="edge10" class="edge"><title>Node9&#45;&gt;Node10</title>
<path fill="none" stroke="midnightblue" d="M210.344,-168.083C209.416,-160.927 208.082,-150.635 206.923,-141.691"/>
<polygon fill="midnightblue" stroke="midnightblue" points="210.391,-141.218 205.634,-131.751 203.449,-142.118 210.391,-141.218"/>
</g>
<!-- Node11&#45;&gt;Node6 -->
<g id="edge14" class="edge"><title>Node11&#45;&gt;Node6</title>
<path fill="none" stroke="midnightblue" d="M394.018,-395.023C448.562,-384.559 537.5,-357.326 537.5,-291 537.5,-291 537.5,-291 537.5,-177 537.5,-137.939 505.323,-101.944 483.991,-82.3723"/>
<polygon fill="midnightblue" stroke="midnightblue" points="486.249,-79.6969 476.435,-75.7031 481.616,-84.9449 486.249,-79.6969"/>
</g>
<!-- Node12 -->
<g id="node12" class="node"><title>Node12</title>
<g id="a_node12"><a xlink:href="_nav_8h.html" target="_top" xlink:title="../Control/Nav.h">
<polygon fill="none" stroke="black" points="302.5,-336.5 302.5,-355.5 388.5,-355.5 388.5,-336.5 302.5,-336.5"/>
<text text-anchor="middle" x="345.5" y="-343.5" font-family="Helvetica,sans-Serif" font-size="10.00">../Control/Nav.h</text>
</a>
</g>
</g>
<!-- Node11&#45;&gt;Node12 -->
<g id="edge13" class="edge"><title>Node11&#45;&gt;Node12</title>
<path fill="none" stroke="midnightblue" d="M351.344,-392.083C350.416,-384.927 349.082,-374.635 347.923,-365.691"/>
<polygon fill="midnightblue" stroke="midnightblue" points="351.391,-365.218 346.634,-355.751 344.449,-366.118 351.391,-365.218"/>
</g>
<!-- Node13 -->
<g id="node13" class="node"><title>Node13</title>
<g id="a_node13"><a xlink:href="_vec_8h.html" target="_top" xlink:title="../Vec.h">
<polygon fill="none" stroke="black" points="337,-168.5 337,-187.5 388,-187.5 388,-168.5 337,-168.5"/>
<text text-anchor="middle" x="362.5" y="-175.5" font-family="Helvetica,sans-Serif" font-size="10.00">../Vec.h</text>
</a>
</g>
</g>
<!-- Node11&#45;&gt;Node13 -->
<g id="edge15" class="edge"><title>Node11&#45;&gt;Node13</title>
<path fill="none" stroke="midnightblue" d="M365.564,-392.436C376.414,-384.471 391.073,-371.515 397.5,-356 420.422,-300.662 389.573,-229.239 372.493,-196.636"/>
<polygon fill="midnightblue" stroke="midnightblue" points="375.556,-194.942 367.709,-187.824 369.404,-198.283 375.556,-194.942"/>
</g>
<!-- Node14 -->
<g id="node14" class="node"><title>Node14</title>
<g id="a_node14"><a xlink:href="_ui_layout_flags_8h.html" target="_top" xlink:title="UiLayoutFlags.h">
<polygon fill="none" stroke="black" points="421.5,-224.5 421.5,-243.5 509.5,-243.5 509.5,-224.5 421.5,-224.5"/>
<text text-anchor="middle" x="465.5" y="-231.5" font-family="Helvetica,sans-Serif" font-size="10.00">UiLayoutFlags.h</text>
</a>
</g>
</g>
<!-- Node11&#45;&gt;Node14 -->
<g id="edge16" class="edge"><title>Node11&#45;&gt;Node14</title>
<path fill="none" stroke="midnightblue" d="M377.349,-392.421C394.624,-385.241 416.906,-373.353 430.5,-356 454.358,-325.546 461.956,-279.4 464.374,-253.793"/>
<polygon fill="midnightblue" stroke="midnightblue" points="467.88,-253.842 465.16,-243.602 460.901,-253.303 467.88,-253.842"/>
</g>
<!-- Node15 -->
<g id="node15" class="node"><title>Node15</title>
<g id="a_node15"><a xlink:href="_view_model_8h.html" target="_top" xlink:title="ViewModel.h">
<polygon fill="none" stroke="black" points="173,-336.5 173,-355.5 246,-355.5 246,-336.5 173,-336.5"/>
<text text-anchor="middle" x="209.5" y="-343.5" font-family="Helvetica,sans-Serif" font-size="10.00">ViewModel.h</text>
</a>
</g>
</g>
<!-- Node11&#45;&gt;Node15 -->
<g id="edge18" class="edge"><title>Node11&#45;&gt;Node15</title>
<path fill="none" stroke="midnightblue" d="M329.841,-392.444C306.098,-383.478 268.591,-369.314 241.762,-359.183"/>
<polygon fill="midnightblue" stroke="midnightblue" points="242.644,-355.775 232.053,-355.516 240.171,-362.324 242.644,-355.775"/>
</g>
<!-- Node14&#45;&gt;Node6 -->
<g id="edge17" class="edge"><title>Node14&#45;&gt;Node6</title>
<path fill="none" stroke="midnightblue" d="M465.5,-224.075C465.5,-197.945 465.5,-121.211 465.5,-85.577"/>
<polygon fill="midnightblue" stroke="midnightblue" points="469,-85.5681 465.5,-75.5681 462,-85.5681 469,-85.5681"/>
</g>
<!-- Node15&#45;&gt;Node16 -->
<g id="edge19" class="edge"><title>Node15&#45;&gt;Node16</title>
<path fill="none" stroke="midnightblue" d="M224.924,-336.324C240.04,-327.822 263.315,-314.729 280.971,-304.797"/>
<polygon fill="midnightblue" stroke="midnightblue" points="283.114,-307.608 290.114,-299.655 279.683,-301.507 283.114,-307.608"/>
</g>
<!-- Node18 -->
<g id="node18" class="node"><title>Node18</title>
<g id="a_node18"><a xlink:href="_view_attacher_8h.html" target="_top" xlink:title="ViewAttacher.h">
<polygon fill="none" stroke="black" points="173,-224.5 173,-243.5 256,-243.5 256,-224.5 173,-224.5"/>
<text text-anchor="middle" x="214.5" y="-231.5" font-family="Helvetica,sans-Serif" font-size="10.00">ViewAttacher.h</text>
</a>
</g>
</g>
<!-- Node15&#45;&gt;Node18 -->
<g id="edge28" class="edge"><title>Node15&#45;&gt;Node18</title>
<path fill="none" stroke="midnightblue" d="M206.935,-336.155C203.639,-323.636 198.664,-300.039 201.5,-280 202.768,-271.042 205.389,-261.372 207.948,-253.3"/>
<polygon fill="midnightblue" stroke="midnightblue" points="211.271,-254.398 211.156,-243.803 204.639,-252.157 211.271,-254.398"/>
</g>
<!-- Node19 -->
<g id="node19" class="node"><title>Node19</title>
<g id="a_node19"><a xlink:href="_view_8h.html" target="_top" xlink:title="View.h">
<polygon fill="none" stroke="black" points="211,-280.5 211,-299.5 258,-299.5 258,-280.5 211,-280.5"/>
<text text-anchor="middle" x="234.5" y="-287.5" font-family="Helvetica,sans-Serif" font-size="10.00">View.h</text>
</a>
</g>
</g>
<!-- Node15&#45;&gt;Node19 -->
<g id="edge27" class="edge"><title>Node15&#45;&gt;Node19</title>
<path fill="none" stroke="midnightblue" d="M213.628,-336.083C217.014,-328.77 221.916,-318.181 226.119,-309.103"/>
<polygon fill="midnightblue" stroke="midnightblue" points="229.423,-310.296 230.449,-299.751 223.071,-307.355 229.423,-310.296"/>
</g>
<!-- Node16&#45;&gt;Node13 -->
<g id="edge20" class="edge"><title>Node16&#45;&gt;Node13</title>
<path fill="none" stroke="midnightblue" d="M312.005,-280.351C318.47,-271.515 328.418,-257.249 335.5,-244 343.681,-228.694 351.095,-210.364 356.075,-197.077"/>
<polygon fill="midnightblue" stroke="midnightblue" points="359.373,-198.25 359.515,-187.656 352.797,-195.849 359.373,-198.25"/>
</g>
<!-- Node16&#45;&gt;Node14 -->
<g id="edge25" class="edge"><title>Node16&#45;&gt;Node14</title>
<path fill="none" stroke="midnightblue" d="M330.852,-280.444C357.769,-271.359 400.496,-256.939 430.587,-246.783"/>
<polygon fill="midnightblue" stroke="midnightblue" points="431.91,-250.031 440.266,-243.516 429.672,-243.398 431.91,-250.031"/>
</g>
<!-- Node17 -->
<g id="node17" class="node"><title>Node17</title>
<g id="a_node17"><a xlink:href="_styles_8h.html" target="_top" xlink:title="Styles.h">
<polygon fill="none" stroke="black" points="274,-224.5 274,-243.5 327,-243.5 327,-224.5 274,-224.5"/>
<text text-anchor="middle" x="300.5" y="-231.5" font-family="Helvetica,sans-Serif" font-size="10.00">Styles.h</text>
</a>
</g>
</g>
<!-- Node16&#45;&gt;Node17 -->
<g id="edge21" class="edge"><title>Node16&#45;&gt;Node17</title>
<path fill="none" stroke="midnightblue" d="M304.674,-280.083C304.019,-273.006 303.08,-262.861 302.258,-253.986"/>
<polygon fill="midnightblue" stroke="midnightblue" points="305.717,-253.386 301.31,-243.751 298.747,-254.031 305.717,-253.386"/>
</g>
<!-- Node16&#45;&gt;Node18 -->
<g id="edge26" class="edge"><title>Node16&#45;&gt;Node18</title>
<path fill="none" stroke="midnightblue" d="M290.879,-280.324C276.551,-271.822 254.487,-258.729 237.751,-248.797"/>
<polygon fill="midnightblue" stroke="midnightblue" points="239.47,-245.748 229.084,-243.655 235.898,-251.768 239.47,-245.748"/>
</g>
<!-- Node17&#45;&gt;Node5 -->
<g id="edge24" class="edge"><title>Node17&#45;&gt;Node5</title>
<path fill="none" stroke="midnightblue" d="M299.509,-224.083C298.714,-216.927 297.571,-206.635 296.577,-197.691"/>
<polygon fill="midnightblue" stroke="midnightblue" points="300.055,-197.303 295.472,-187.751 293.098,-198.076 300.055,-197.303"/>
</g>
<!-- Node17&#45;&gt;Node9 -->
<g id="edge23" class="edge"><title>Node17&#45;&gt;Node9</title>
<path fill="none" stroke="midnightblue" d="M286.201,-224.324C272.317,-215.9 251.008,-202.971 234.696,-193.074"/>
<polygon fill="midnightblue" stroke="midnightblue" points="236.129,-189.85 225.764,-187.655 232.498,-195.834 236.129,-189.85"/>
</g>
<!-- Node17&#45;&gt;Node13 -->
<g id="edge22" class="edge"><title>Node17&#45;&gt;Node13</title>
<path fill="none" stroke="midnightblue" d="M310.461,-224.324C319.627,-216.341 333.437,-204.313 344.528,-194.653"/>
<polygon fill="midnightblue" stroke="midnightblue" points="347.115,-197.041 352.357,-187.834 342.518,-191.762 347.115,-197.041"/>
</g>
<!-- Node20&#45;&gt;Node5 -->
<g id="edge30" class="edge"><title>Node20&#45;&gt;Node5</title>
<path fill="none" stroke="midnightblue" d="M302.943,-456.794C241.421,-446.637 144.5,-419.18 144.5,-347 144.5,-347 144.5,-347 144.5,-289 144.5,-258.902 142.718,-245.771 163.5,-224 177.005,-209.852 226.242,-195.514 260.347,-186.94"/>
<polygon fill="midnightblue" stroke="midnightblue" points="261.514,-190.258 270.389,-184.471 259.843,-183.46 261.514,-190.258"/>
</g>
<!-- Node20&#45;&gt;Node11 -->
<g id="edge31" class="edge"><title>Node20&#45;&gt;Node11</title>
<path fill="none" stroke="midnightblue" d="M352.5,-448.399C352.5,-440.466 352.5,-430.458 352.5,-421.858"/>
<polygon fill="midnightblue" stroke="midnightblue" points="356,-421.658 352.5,-411.658 349,-421.658 356,-421.658"/>
</g>
<!-- Node22 -->
<g id="node22" class="node"><title>Node22</title>
<g id="a_node22"><a xlink:href="_game_director_8h.html" target="_top" xlink:title="GameDirector.h">
<polygon fill="none" stroke="black" points="641.5,-454 641.5,-473 727.5,-473 727.5,-454 641.5,-454"/>
<text text-anchor="middle" x="684.5" y="-461" font-family="Helvetica,sans-Serif" font-size="10.00">GameDirector.h</text>
</a>
</g>
</g>
<!-- Node21&#45;&gt;Node22 -->
<g id="edge34" class="edge"><title>Node21&#45;&gt;Node22</title>
<path fill="none" stroke="midnightblue" d="M604.908,-520.734C620.081,-510.013 645.978,-491.716 664.099,-478.914"/>
<polygon fill="midnightblue" stroke="midnightblue" points="666.141,-481.756 672.289,-473.127 662.102,-476.039 666.141,-481.756"/>
</g>
<!-- Node23 -->
<g id="node23" class="node"><title>Node23</title>
<g id="a_node23"><a xlink:href="_ui_scene_8h.html" target="_top" xlink:title="UiScene.h">
<polygon fill="none" stroke="black" points="561.5,-454 561.5,-473 623.5,-473 623.5,-454 561.5,-454"/>
<text text-anchor="middle" x="592.5" y="-461" font-family="Helvetica,sans-Serif" font-size="10.00">UiScene.h</text>
</a>
</g>
</g>
<!-- Node21&#45;&gt;Node23 -->
<g id="edge35" class="edge"><title>Node21&#45;&gt;Node23</title>
<path fill="none" stroke="midnightblue" d="M592.5,-520.734C592.5,-511.183 592.5,-495.618 592.5,-483.283"/>
<polygon fill="midnightblue" stroke="midnightblue" points="596,-483.127 592.5,-473.127 589,-483.127 596,-483.127"/>
</g>
<!-- Node24 -->
<g id="node24" class="node"><title>Node24</title>
<g id="a_node24"><a xlink:href="_scene_8h.html" target="_top" xlink:title="Scene.h">
<polygon fill="none" stroke="black" points="679,-392.5 679,-411.5 732,-411.5 732,-392.5 679,-392.5"/>
<text text-anchor="middle" x="705.5" y="-399.5" font-family="Helvetica,sans-Serif" font-size="10.00">Scene.h</text>
</a>
</g>
</g>
<!-- Node23&#45;&gt;Node24 -->
<g id="edge36" class="edge"><title>Node23&#45;&gt;Node24</title>
<path fill="none" stroke="midnightblue" d="M608.69,-453.975C627.402,-444.122 658.423,-427.788 680.299,-416.27"/>
<polygon fill="midnightblue" stroke="midnightblue" points="682.122,-419.265 689.34,-411.509 678.861,-413.071 682.122,-419.265"/>
</g>
<!-- Node25 -->
<g id="node25" class="node"><title>Node25</title>
<g id="a_node25"><a xlink:href="_o_s_8h.html" target="_top" xlink:title="../../engine/Util/OS.h">
<polygon fill="none" stroke="black" points="652,-336.5 652,-355.5 759,-355.5 759,-336.5 652,-336.5"/>
<text text-anchor="middle" x="705.5" y="-343.5" font-family="Helvetica,sans-Serif" font-size="10.00">../../engine/Util/OS.h</text>
</a>
</g>
</g>
<!-- Node24&#45;&gt;Node25 -->
<g id="edge37" class="edge"><title>Node24&#45;&gt;Node25</title>
<path fill="none" stroke="midnightblue" d="M705.5,-392.083C705.5,-385.006 705.5,-374.861 705.5,-365.986"/>
<polygon fill="midnightblue" stroke="midnightblue" points="709,-365.751 705.5,-355.751 702,-365.751 709,-365.751"/>
</g>
<!-- Node31 -->
<g id="node31" class="node"><title>Node31</title>
<g id="a_node31"><a xlink:href="_profiler_8h.html" target="_top" xlink:title="../../engine/Util/Profiler.h">
<polygon fill="none" stroke="black" points="862,-336.5 862,-355.5 985,-355.5 985,-336.5 862,-336.5"/>
<text text-anchor="middle" x="923.5" y="-343.5" font-family="Helvetica,sans-Serif" font-size="10.00">../../engine/Util/Profiler.h</text>
</a>
</g>
</g>
<!-- Node24&#45;&gt;Node31 -->
<g id="edge44" class="edge"><title>Node24&#45;&gt;Node31</title>
<path fill="none" stroke="midnightblue" d="M732.231,-394.379C768.832,-385.312 835.023,-368.916 879.123,-357.992"/>
<polygon fill="midnightblue" stroke="midnightblue" points="880.137,-361.347 889.002,-355.545 878.454,-354.552 880.137,-361.347"/>
</g>
<!-- Node25&#45;&gt;Node6 -->
<g id="edge43" class="edge"><title>Node25&#45;&gt;Node6</title>
<path fill="none" stroke="midnightblue" d="M660.361,-336.467C637.733,-330.012 611.582,-318.896 594.5,-300 574.317,-277.673 575.5,-265.098 575.5,-235 575.5,-235 575.5,-235 575.5,-177 575.5,-146.205 571.834,-135.127 551.5,-112 538.571,-97.2952 519.662,-86.6684 502.864,-79.4471"/>
<polygon fill="midnightblue" stroke="midnightblue" points="503.863,-76.076 493.279,-75.5838 501.246,-82.5685 503.863,-76.076"/>
</g>
<!-- Node26 -->
<g id="node26" class="node"><title>Node26</title>
<polygon fill="none" stroke="#bfbfbf" points="603.5,-280.5 603.5,-299.5 645.5,-299.5 645.5,-280.5 603.5,-280.5"/>
<text text-anchor="middle" x="624.5" y="-287.5" font-family="Helvetica,sans-Serif" font-size="10.00">locale</text>
</g>
<!-- Node25&#45;&gt;Node26 -->
<g id="edge38" class="edge"><title>Node25&#45;&gt;Node26</title>
<path fill="none" stroke="midnightblue" d="M692.486,-336.324C679.968,-327.979 660.818,-315.212 646.029,-305.352"/>
<polygon fill="midnightblue" stroke="midnightblue" points="647.744,-302.289 637.482,-299.655 643.861,-308.114 647.744,-302.289"/>
</g>
<!-- Node27 -->
<g id="node27" class="node"><title>Node27</title>
<polygon fill="none" stroke="#bfbfbf" points="663.5,-280.5 663.5,-299.5 693.5,-299.5 693.5,-280.5 663.5,-280.5"/>
<text text-anchor="middle" x="678.5" y="-287.5" font-family="Helvetica,sans-Serif" font-size="10.00">set</text>
</g>
<!-- Node25&#45;&gt;Node27 -->
<g id="edge39" class="edge"><title>Node25&#45;&gt;Node27</title>
<path fill="none" stroke="midnightblue" d="M701.041,-336.083C697.346,-328.691 691.977,-317.953 687.406,-308.811"/>
<polygon fill="midnightblue" stroke="midnightblue" points="690.478,-307.13 682.876,-299.751 684.217,-310.261 690.478,-307.13"/>
</g>
<!-- Node28 -->
<g id="node28" class="node"><title>Node28</title>
<polygon fill="none" stroke="#bfbfbf" points="712,-280.5 712,-299.5 753,-299.5 753,-280.5 712,-280.5"/>
<text text-anchor="middle" x="732.5" y="-287.5" font-family="Helvetica,sans-Serif" font-size="10.00">string</text>
</g>
<!-- Node25&#45;&gt;Node28 -->
<g id="edge40" class="edge"><title>Node25&#45;&gt;Node28</title>
<path fill="none" stroke="midnightblue" d="M709.959,-336.083C713.654,-328.691 719.023,-317.953 723.594,-308.811"/>
<polygon fill="midnightblue" stroke="midnightblue" points="726.783,-310.261 728.124,-299.751 720.522,-307.13 726.783,-310.261"/>
</g>
<!-- Node29 -->
<g id="node29" class="node"><title>Node29</title>
<polygon fill="none" stroke="#bfbfbf" points="771.5,-280.5 771.5,-299.5 815.5,-299.5 815.5,-280.5 771.5,-280.5"/>
<text text-anchor="middle" x="793.5" y="-287.5" font-family="Helvetica,sans-Serif" font-size="10.00">vector</text>
</g>
<!-- Node25&#45;&gt;Node29 -->
<g id="edge41" class="edge"><title>Node25&#45;&gt;Node29</title>
<path fill="none" stroke="midnightblue" d="M719.639,-336.324C733.366,-327.9 754.436,-314.971 770.564,-305.074"/>
<polygon fill="midnightblue" stroke="midnightblue" points="772.704,-307.868 779.396,-299.655 769.043,-301.902 772.704,-307.868"/>
</g>
<!-- Node30 -->
<g id="node30" class="node"><title>Node30</title>
<polygon fill="none" stroke="#bfbfbf" points="833,-280.5 833,-299.5 940,-299.5 940,-280.5 833,-280.5"/>
<text text-anchor="middle" x="886.5" y="-287.5" font-family="Helvetica,sans-Serif" font-size="10.00">boost/filesystem.hpp</text>
</g>
<!-- Node25&#45;&gt;Node30 -->
<g id="edge42" class="edge"><title>Node25&#45;&gt;Node30</title>
<path fill="none" stroke="midnightblue" d="M734.18,-336.444C765.027,-327.241 814.228,-312.562 848.329,-302.388"/>
<polygon fill="midnightblue" stroke="midnightblue" points="849.372,-305.729 857.954,-299.516 847.371,-299.021 849.372,-305.729"/>
</g>
<!-- Node32 -->
<g id="node32" class="node"><title>Node32</title>
<polygon fill="none" stroke="#bfbfbf" points="958.5,-280.5 958.5,-299.5 1004.5,-299.5 1004.5,-280.5 958.5,-280.5"/>
<text text-anchor="middle" x="981.5" y="-287.5" font-family="Helvetica,sans-Serif" font-size="10.00">chrono</text>
</g>
<!-- Node31&#45;&gt;Node32 -->
<g id="edge45" class="edge"><title>Node31&#45;&gt;Node32</title>
<path fill="none" stroke="midnightblue" d="M932.819,-336.324C941.393,-328.341 954.312,-316.313 964.688,-306.653"/>
<polygon fill="midnightblue" stroke="midnightblue" points="967.078,-309.21 972.012,-299.834 962.308,-304.086 967.078,-309.21"/>
</g>
</g>
</svg>
