<?xml version="1.0" encoding="UTF-8" standalone="no"?>
<!DOCTYPE svg PUBLIC "-//W3C//DTD SVG 1.1//EN"
 "http://www.w3.org/Graphics/SVG/1.1/DTD/svg11.dtd">
<!-- Generated by graphviz version 2.38.0 (20140413.2041)
 -->
<!-- Title: DialogScene.h Pages: 1 -->
<svg width="1948pt" height="196pt"
 viewBox="0.00 0.00 1948.42 196.00" xmlns="http://www.w3.org/2000/svg" xmlns:xlink="http://www.w3.org/1999/xlink">
<g id="graph0" class="graph" transform="scale(1 1) rotate(0) translate(4 192)">
<title>DialogScene.h</title>
<!-- Node1 -->
<g id="node1" class="node"><title>Node1</title>
<polygon fill="#bfbfbf" stroke="black" points="1004.42,-168.5 1004.42,-187.5 1084.42,-187.5 1084.42,-168.5 1004.42,-168.5"/>
<text text-anchor="middle" x="1044.42" y="-175.5" font-family="Helvetica,sans-Serif" font-size="10.00">DialogScene.h</text>
</g>
<!-- Node2 -->
<g id="node2" class="node"><title>Node2</title>
<g id="a_node2"><a xlink:href="_settings_scene_8h.html" target="_top" xlink:title="SettingsScene.h">
<polygon fill="none" stroke="black" points="415.921,-112.5 415.921,-131.5 504.921,-131.5 504.921,-112.5 415.921,-112.5"/>
<text text-anchor="middle" x="460.421" y="-119.5" font-family="Helvetica,sans-Serif" font-size="10.00">SettingsScene.h</text>
</a>
</g>
</g>
<!-- Node1&#45;&gt;Node2 -->
<g id="edge1" class="edge"><title>Node1&#45;&gt;Node2</title>
<path fill="none" stroke="midnightblue" d="M994.239,-172.36C882.004,-161.982 612.177,-137.032 505.203,-127.141"/>
<polygon fill="midnightblue" stroke="midnightblue" points="994.001,-175.853 1004.28,-173.288 994.645,-168.882 994.001,-175.853"/>
</g>
<!-- Node11 -->
<g id="node11" class="node"><title>Node11</title>
<g id="a_node11"><a xlink:href="_avatar_select_scene_8h.html" target="_top" xlink:title="AvatarSelectScene.h">
<polygon fill="none" stroke="black" points="1367.92,-112.5 1367.92,-131.5 1476.92,-131.5 1476.92,-112.5 1367.92,-112.5"/>
<text text-anchor="middle" x="1422.42" y="-119.5" font-family="Helvetica,sans-Serif" font-size="10.00">AvatarSelectScene.h</text>
</a>
</g>
</g>
<!-- Node1&#45;&gt;Node11 -->
<g id="edge12" class="edge"><title>Node1&#45;&gt;Node11</title>
<path fill="none" stroke="midnightblue" d="M1094.54,-169.84C1165.47,-159.707 1294.63,-141.256 1367.88,-130.791"/>
<polygon fill="midnightblue" stroke="midnightblue" points="1093.92,-166.393 1084.52,-171.272 1094.91,-173.323 1093.92,-166.393"/>
</g>
<!-- Node14 -->
<g id="node14" class="node"><title>Node14</title>
<g id="a_node14"><a xlink:href="_dialog_scene_8cpp.html" target="_top" xlink:title="DialogScene.cpp">
<polygon fill="none" stroke="black" points="629.921,-112.5 629.921,-131.5 720.921,-131.5 720.921,-112.5 629.921,-112.5"/>
<text text-anchor="middle" x="675.421" y="-119.5" font-family="Helvetica,sans-Serif" font-size="10.00">DialogScene.cpp</text>
</a>
</g>
</g>
<!-- Node1&#45;&gt;Node14 -->
<g id="edge15" class="edge"><title>Node1&#45;&gt;Node14</title>
<path fill="none" stroke="midnightblue" d="M994.156,-170.186C931.938,-161.668 822.765,-146.444 729.421,-132 726.697,-131.579 723.898,-131.137 721.074,-130.685"/>
<polygon fill="midnightblue" stroke="midnightblue" points="993.718,-173.659 1004.1,-171.545 994.666,-166.723 993.718,-173.659"/>
</g>
<!-- Node15 -->
<g id="node15" class="node"><title>Node15</title>
<g id="a_node15"><a xlink:href="_display_select_scene_8h.html" target="_top" xlink:title="DisplaySelectScene.h">
<polygon fill="none" stroke="black" points="18.9211,-112.5 18.9211,-131.5 131.921,-131.5 131.921,-112.5 18.9211,-112.5"/>
<text text-anchor="middle" x="75.4211" y="-119.5" font-family="Helvetica,sans-Serif" font-size="10.00">DisplaySelectScene.h</text>
</a>
</g>
</g>
<!-- Node1&#45;&gt;Node15 -->
<g id="edge16" class="edge"><title>Node1&#45;&gt;Node15</title>
<path fill="none" stroke="midnightblue" d="M993.979,-174.189C828.939,-164.992 305.705,-135.833 132.049,-126.156"/>
<polygon fill="midnightblue" stroke="midnightblue" points="994.145,-177.704 1004.32,-174.765 994.534,-170.714 994.145,-177.704"/>
</g>
<!-- Node17 -->
<g id="node17" class="node"><title>Node17</title>
<g id="a_node17"><a xlink:href="_track_select_scene_8h.html" target="_top" xlink:title="TrackSelectScene.h">
<polygon fill="none" stroke="black" points="738.921,-112.5 738.921,-131.5 843.921,-131.5 843.921,-112.5 738.921,-112.5"/>
<text text-anchor="middle" x="791.421" y="-119.5" font-family="Helvetica,sans-Serif" font-size="10.00">TrackSelectScene.h</text>
</a>
</g>
</g>
<!-- Node1&#45;&gt;Node17 -->
<g id="edge19" class="edge"><title>Node1&#45;&gt;Node17</title>
<path fill="none" stroke="midnightblue" d="M994.503,-166.346C946.691,-156.141 875.473,-140.94 831.322,-131.516"/>
<polygon fill="midnightblue" stroke="midnightblue" points="993.822,-169.779 1004.33,-168.444 995.283,-162.933 993.822,-169.779"/>
</g>
<!-- Node20 -->
<g id="node20" class="node"><title>Node20</title>
<g id="a_node20"><a xlink:href="_game_select_scene_8h.html" target="_top" xlink:title="GameSelectScene.h">
<polygon fill="none" stroke="black" points="861.921,-112.5 861.921,-131.5 968.921,-131.5 968.921,-112.5 861.921,-112.5"/>
<text text-anchor="middle" x="915.421" y="-119.5" font-family="Helvetica,sans-Serif" font-size="10.00">GameSelectScene.h</text>
</a>
</g>
</g>
<!-- Node1&#45;&gt;Node20 -->
<g id="edge22" class="edge"><title>Node1&#45;&gt;Node20</title>
<path fill="none" stroke="midnightblue" d="M1014.57,-164.503C990.383,-154.38 956.959,-140.388 935.766,-131.516"/>
<polygon fill="midnightblue" stroke="midnightblue" points="1013.4,-167.811 1023.98,-168.444 1016.11,-161.354 1013.4,-167.811"/>
</g>
<!-- Node22 -->
<g id="node22" class="node"><title>Node22</title>
<g id="a_node22"><a xlink:href="_locale_select_scene_8h.html" target="_top" xlink:title="LocaleSelectScene.h">
<polygon fill="none" stroke="black" points="1553.92,-112.5 1553.92,-131.5 1662.92,-131.5 1662.92,-112.5 1553.92,-112.5"/>
<text text-anchor="middle" x="1608.42" y="-119.5" font-family="Helvetica,sans-Serif" font-size="10.00">LocaleSelectScene.h</text>
</a>
</g>
</g>
<!-- Node1&#45;&gt;Node22 -->
<g id="edge25" class="edge"><title>Node1&#45;&gt;Node22</title>
<path fill="none" stroke="midnightblue" d="M1094.6,-172.196C1200.09,-162.096 1444.12,-138.731 1553.57,-128.252"/>
<polygon fill="midnightblue" stroke="midnightblue" points="1094.15,-168.722 1084.53,-173.16 1094.82,-175.691 1094.15,-168.722"/>
</g>
<!-- Node24 -->
<g id="node24" class="node"><title>Node24</title>
<g id="a_node24"><a xlink:href="_practice_setup_scene_8h.html" target="_top" xlink:title="PracticeSetupScene.h">
<polygon fill="none" stroke="black" points="987.421,-112.5 987.421,-131.5 1101.42,-131.5 1101.42,-112.5 987.421,-112.5"/>
<text text-anchor="middle" x="1044.42" y="-119.5" font-family="Helvetica,sans-Serif" font-size="10.00">PracticeSetupScene.h</text>
</a>
</g>
</g>
<!-- Node1&#45;&gt;Node24 -->
<g id="edge28" class="edge"><title>Node1&#45;&gt;Node24</title>
<path fill="none" stroke="midnightblue" d="M1044.42,-157.805C1044.42,-148.91 1044.42,-138.78 1044.42,-131.751"/>
<polygon fill="midnightblue" stroke="midnightblue" points="1040.92,-158.083 1044.42,-168.083 1047.92,-158.083 1040.92,-158.083"/>
</g>
<!-- Node26 -->
<g id="node26" class="node"><title>Node26</title>
<g id="a_node26"><a xlink:href="_settings_menu_scene_8h.html" target="_top" xlink:title="SettingsMenuScene.h">
<polygon fill="none" stroke="black" points="1119.92,-112.5 1119.92,-131.5 1232.92,-131.5 1232.92,-112.5 1119.92,-112.5"/>
<text text-anchor="middle" x="1176.42" y="-119.5" font-family="Helvetica,sans-Serif" font-size="10.00">SettingsMenuScene.h</text>
</a>
</g>
</g>
<!-- Node1&#45;&gt;Node26 -->
<g id="edge31" class="edge"><title>Node1&#45;&gt;Node26</title>
<path fill="none" stroke="midnightblue" d="M1074.64,-164.638C1099.41,-154.504 1133.82,-140.427 1155.6,-131.516"/>
<polygon fill="midnightblue" stroke="midnightblue" points="1073.27,-161.418 1065.34,-168.444 1075.92,-167.897 1073.27,-161.418"/>
</g>
<!-- Node27 -->
<g id="node27" class="node"><title>Node27</title>
<g id="a_node27"><a xlink:href="_text_edit_scene_8h.html" target="_top" xlink:title="TextEditScene.h">
<polygon fill="none" stroke="black" points="1704.92,-112.5 1704.92,-131.5 1793.92,-131.5 1793.92,-112.5 1704.92,-112.5"/>
<text text-anchor="middle" x="1749.42" y="-119.5" font-family="Helvetica,sans-Serif" font-size="10.00">TextEditScene.h</text>
</a>
</g>
</g>
<!-- Node1&#45;&gt;Node27 -->
<g id="edge34" class="edge"><title>Node1&#45;&gt;Node27</title>
<path fill="none" stroke="midnightblue" d="M1094.57,-174.139C1200.98,-167.906 1457.16,-152.04 1671.42,-132 1682.28,-130.984 1693.97,-129.725 1704.91,-128.473"/>
<polygon fill="midnightblue" stroke="midnightblue" points="1094.23,-170.653 1084.45,-174.729 1094.64,-177.641 1094.23,-170.653"/>
</g>
<!-- Node30 -->
<g id="node30" class="node"><title>Node30</title>
<g id="a_node30"><a xlink:href="_profile_edit_scene_8h.html" target="_top" xlink:title="ProfileEditScene.h">
<polygon fill="none" stroke="black" points="1251.42,-112.5 1251.42,-131.5 1349.42,-131.5 1349.42,-112.5 1251.42,-112.5"/>
<text text-anchor="middle" x="1300.42" y="-119.5" font-family="Helvetica,sans-Serif" font-size="10.00">ProfileEditScene.h</text>
</a>
</g>
</g>
<!-- Node1&#45;&gt;Node30 -->
<g id="edge38" class="edge"><title>Node1&#45;&gt;Node30</title>
<path fill="none" stroke="midnightblue" d="M1094.64,-166.407C1142.99,-156.209 1215.18,-140.981 1259.95,-131.536"/>
<polygon fill="midnightblue" stroke="midnightblue" points="1093.76,-163.014 1084.7,-168.503 1095.21,-169.864 1093.76,-163.014"/>
</g>
<!-- Node3 -->
<g id="node3" class="node"><title>Node3</title>
<g id="a_node3"><a xlink:href="_audio_settings_scene_8h.html" target="_top" xlink:title="AudioSettingsScene.h">
<polygon fill="none" stroke="black" points="403.921,-56.5 403.921,-75.5 516.921,-75.5 516.921,-56.5 403.921,-56.5"/>
<text text-anchor="middle" x="460.421" y="-63.5" font-family="Helvetica,sans-Serif" font-size="10.00">AudioSettingsScene.h</text>
</a>
</g>
</g>
<!-- Node2&#45;&gt;Node3 -->
<g id="edge2" class="edge"><title>Node2&#45;&gt;Node3</title>
<path fill="none" stroke="midnightblue" d="M460.421,-101.805C460.421,-92.9102 460.421,-82.7798 460.421,-75.7511"/>
<polygon fill="midnightblue" stroke="midnightblue" points="456.921,-102.083 460.421,-112.083 463.921,-102.083 456.921,-102.083"/>
</g>
<!-- Node6 -->
<g id="node6" class="node"><title>Node6</title>
<g id="a_node6"><a xlink:href="_locale_settings_scene_8h.html" target="_top" xlink:title="LocaleSettingsScene.h">
<polygon fill="none" stroke="black" points="534.921,-56.5 534.921,-75.5 651.921,-75.5 651.921,-56.5 534.921,-56.5"/>
<text text-anchor="middle" x="593.421" y="-63.5" font-family="Helvetica,sans-Serif" font-size="10.00">LocaleSettingsScene.h</text>
</a>
</g>
</g>
<!-- Node2&#45;&gt;Node6 -->
<g id="edge5" class="edge"><title>Node2&#45;&gt;Node6</title>
<path fill="none" stroke="midnightblue" d="M490.869,-108.638C515.828,-98.504 550.498,-84.4274 572.445,-75.5164"/>
<polygon fill="midnightblue" stroke="midnightblue" points="489.444,-105.439 481.495,-112.444 492.077,-111.924 489.444,-105.439"/>
</g>
<!-- Node8 -->
<g id="node8" class="node"><title>Node8</title>
<g id="a_node8"><a xlink:href="_video_settings_scene_8h.html" target="_top" xlink:title="VideoSettingsScene.h">
<polygon fill="none" stroke="black" points="272.921,-56.5 272.921,-75.5 385.921,-75.5 385.921,-56.5 272.921,-56.5"/>
<text text-anchor="middle" x="329.421" y="-63.5" font-family="Helvetica,sans-Serif" font-size="10.00">VideoSettingsScene.h</text>
</a>
</g>
</g>
<!-- Node2&#45;&gt;Node8 -->
<g id="edge8" class="edge"><title>Node2&#45;&gt;Node8</title>
<path fill="none" stroke="midnightblue" d="M430.104,-108.503C405.546,-98.3795 371.603,-84.388 350.081,-75.5164"/>
<polygon fill="midnightblue" stroke="midnightblue" points="429.085,-111.868 439.664,-112.444 431.752,-105.397 429.085,-111.868"/>
</g>
<!-- Node10 -->
<g id="node10" class="node"><title>Node10</title>
<g id="a_node10"><a xlink:href="_settings_scene_8cpp.html" target="_top" xlink:title="SettingsScene.cpp">
<polygon fill="none" stroke="black" points="155.921,-56.5 155.921,-75.5 254.921,-75.5 254.921,-56.5 155.921,-56.5"/>
<text text-anchor="middle" x="205.421" y="-63.5" font-family="Helvetica,sans-Serif" font-size="10.00">SettingsScene.cpp</text>
</a>
</g>
</g>
<!-- Node2&#45;&gt;Node10 -->
<g id="edge11" class="edge"><title>Node2&#45;&gt;Node10</title>
<path fill="none" stroke="midnightblue" d="M410.109,-110.346C361.918,-100.141 290.138,-84.94 245.638,-75.5164"/>
<polygon fill="midnightblue" stroke="midnightblue" points="409.507,-113.796 420.016,-112.444 410.958,-106.948 409.507,-113.796"/>
</g>
<!-- Node4 -->
<g id="node4" class="node"><title>Node4</title>
<g id="a_node4"><a xlink:href="_audio_settings_scene_8cpp.html" target="_top" xlink:title="AudioSettingsScene.cpp">
<polygon fill="none" stroke="black" points="393.421,-0.5 393.421,-19.5 517.421,-19.5 517.421,-0.5 393.421,-0.5"/>
<text text-anchor="middle" x="455.421" y="-7.5" font-family="Helvetica,sans-Serif" font-size="10.00">AudioSettingsScene.cpp</text>
</a>
</g>
</g>
<!-- Node3&#45;&gt;Node4 -->
<g id="edge3" class="edge"><title>Node3&#45;&gt;Node4</title>
<path fill="none" stroke="midnightblue" d="M458.671,-46.1005C457.841,-37.1357 456.889,-26.8579 456.231,-19.7511"/>
<polygon fill="midnightblue" stroke="midnightblue" points="455.188,-46.4483 459.595,-56.083 462.158,-45.8029 455.188,-46.4483"/>
</g>
<!-- Node5 -->
<g id="node5" class="node"><title>Node5</title>
<g id="a_node5"><a xlink:href="_settings_menu_scene_8cpp.html" target="_top" xlink:title="SettingsMenuScene.cpp">
<polygon fill="none" stroke="black" points="535.921,-0.5 535.921,-19.5 658.921,-19.5 658.921,-0.5 535.921,-0.5"/>
<text text-anchor="middle" x="597.421" y="-7.5" font-family="Helvetica,sans-Serif" font-size="10.00">SettingsMenuScene.cpp</text>
</a>
</g>
</g>
<!-- Node3&#45;&gt;Node5 -->
<g id="edge4" class="edge"><title>Node3&#45;&gt;Node5</title>
<path fill="none" stroke="midnightblue" d="M491.444,-52.772C517.178,-42.6287 553.107,-28.4669 575.815,-19.5164"/>
<polygon fill="midnightblue" stroke="midnightblue" points="490.149,-49.5203 482.129,-56.4435 492.716,-56.0326 490.149,-49.5203"/>
</g>
<!-- Node6&#45;&gt;Node5 -->
<g id="edge7" class="edge"><title>Node6&#45;&gt;Node5</title>
<path fill="none" stroke="midnightblue" d="M594.821,-46.1005C595.485,-37.1357 596.246,-26.8579 596.773,-19.7511"/>
<polygon fill="midnightblue" stroke="midnightblue" points="591.33,-45.8517 594.082,-56.083 598.311,-46.3689 591.33,-45.8517"/>
</g>
<!-- Node7 -->
<g id="node7" class="node"><title>Node7</title>
<g id="a_node7"><a xlink:href="_locale_settings_scene_8cpp.html" target="_top" xlink:title="LocaleSettingsScene.cpp">
<polygon fill="none" stroke="black" points="1156.42,-0.5 1156.42,-19.5 1284.42,-19.5 1284.42,-0.5 1156.42,-0.5"/>
<text text-anchor="middle" x="1220.42" y="-7.5" font-family="Helvetica,sans-Serif" font-size="10.00">LocaleSettingsScene.cpp</text>
</a>
</g>
</g>
<!-- Node6&#45;&gt;Node7 -->
<g id="edge6" class="edge"><title>Node6&#45;&gt;Node7</title>
<path fill="none" stroke="midnightblue" d="M661.954,-55.9986C847.704,-36.4513 1053.96,-21.8527 1156.19,-15.0962"/>
<polygon fill="midnightblue" stroke="midnightblue" points="661.579,-52.5186 652.004,-57.0526 662.317,-59.4797 661.579,-52.5186"/>
</g>
<!-- Node8&#45;&gt;Node5 -->
<g id="edge9" class="edge"><title>Node8&#45;&gt;Node5</title>
<path fill="none" stroke="midnightblue" d="M381.981,-54.4096C432.63,-44.2042 508.288,-28.9597 555.154,-19.5164"/>
<polygon fill="midnightblue" stroke="midnightblue" points="380.998,-51.0372 371.886,-56.4435 382.381,-57.8993 380.998,-51.0372"/>
</g>
<!-- Node9 -->
<g id="node9" class="node"><title>Node9</title>
<g id="a_node9"><a xlink:href="_video_settings_scene_8cpp.html" target="_top" xlink:title="VideoSettingsScene.cpp">
<polygon fill="none" stroke="black" points="89.4211,-0.5 89.4211,-19.5 213.421,-19.5 213.421,-0.5 89.4211,-0.5"/>
<text text-anchor="middle" x="151.421" y="-7.5" font-family="Helvetica,sans-Serif" font-size="10.00">VideoSettingsScene.cpp</text>
</a>
</g>
</g>
<!-- Node8&#45;&gt;Node9 -->
<g id="edge10" class="edge"><title>Node8&#45;&gt;Node9</title>
<path fill="none" stroke="midnightblue" d="M291.304,-53.4363C257.743,-43.2551 209.647,-28.664 179.494,-19.5164"/>
<polygon fill="midnightblue" stroke="midnightblue" points="290.631,-56.8897 301.216,-56.4435 292.663,-50.1911 290.631,-56.8897"/>
</g>
<!-- Node12 -->
<g id="node12" class="node"><title>Node12</title>
<g id="a_node12"><a xlink:href="_avatar_select_scene_8cpp.html" target="_top" xlink:title="AvatarSelectScene.cpp">
<polygon fill="none" stroke="black" points="1411.92,-56.5 1411.92,-75.5 1530.92,-75.5 1530.92,-56.5 1411.92,-56.5"/>
<text text-anchor="middle" x="1471.42" y="-63.5" font-family="Helvetica,sans-Serif" font-size="10.00">AvatarSelectScene.cpp</text>
</a>
</g>
</g>
<!-- Node11&#45;&gt;Node12 -->
<g id="edge13" class="edge"><title>Node11&#45;&gt;Node12</title>
<path fill="none" stroke="midnightblue" d="M1437.46,-104.431C1446.04,-94.9673 1456.46,-83.4827 1463.48,-75.7511"/>
<polygon fill="midnightblue" stroke="midnightblue" points="1434.64,-102.325 1430.51,-112.083 1439.82,-107.029 1434.64,-102.325"/>
</g>
<!-- Node13 -->
<g id="node13" class="node"><title>Node13</title>
<g id="a_node13"><a xlink:href="_profile_edit_scene_8cpp.html" target="_top" xlink:title="ProfileEditScene.cpp">
<polygon fill="none" stroke="black" points="1285.42,-56.5 1285.42,-75.5 1393.42,-75.5 1393.42,-56.5 1285.42,-56.5"/>
<text text-anchor="middle" x="1339.42" y="-63.5" font-family="Helvetica,sans-Serif" font-size="10.00">ProfileEditScene.cpp</text>
</a>
</g>
</g>
<!-- Node11&#45;&gt;Node13 -->
<g id="edge14" class="edge"><title>Node11&#45;&gt;Node13</title>
<path fill="none" stroke="midnightblue" d="M1400.32,-106.622C1385.16,-96.7574 1365.54,-83.9919 1352.72,-75.6545"/>
<polygon fill="midnightblue" stroke="midnightblue" points="1398.79,-109.804 1409.09,-112.324 1402.61,-103.937 1398.79,-109.804"/>
</g>
<!-- Node15&#45;&gt;Node9 -->
<g id="edge18" class="edge"><title>Node15&#45;&gt;Node9</title>
<path fill="none" stroke="midnightblue" d="M43.7783,-108.348C18.2825,-96.2531 -10.98,-76.8211 4.42108,-56 23.8641,-29.7144 58.3592,-18.2809 89.0491,-13.5045"/>
<polygon fill="midnightblue" stroke="midnightblue" points="42.3561,-111.546 52.9113,-112.461 45.2305,-105.163 42.3561,-111.546"/>
</g>
<!-- Node16 -->
<g id="node16" class="node"><title>Node16</title>
<g id="a_node16"><a xlink:href="_display_select_scene_8cpp.html" target="_top" xlink:title="DisplaySelectScene.cpp">
<polygon fill="none" stroke="black" points="13.4211,-56.5 13.4211,-75.5 137.421,-75.5 137.421,-56.5 13.4211,-56.5"/>
<text text-anchor="middle" x="75.4211" y="-63.5" font-family="Helvetica,sans-Serif" font-size="10.00">DisplaySelectScene.cpp</text>
</a>
</g>
</g>
<!-- Node15&#45;&gt;Node16 -->
<g id="edge17" class="edge"><title>Node15&#45;&gt;Node16</title>
<path fill="none" stroke="midnightblue" d="M75.4211,-101.805C75.4211,-92.9102 75.4211,-82.7798 75.4211,-75.7511"/>
<polygon fill="midnightblue" stroke="midnightblue" points="71.9212,-102.083 75.4211,-112.083 78.9212,-102.083 71.9212,-102.083"/>
</g>
<!-- Node18 -->
<g id="node18" class="node"><title>Node18</title>
<g id="a_node18"><a xlink:href="_game_select_scene_8cpp.html" target="_top" xlink:title="GameSelectScene.cpp">
<polygon fill="none" stroke="black" points="804.921,-56.5 804.921,-75.5 921.921,-75.5 921.921,-56.5 804.921,-56.5"/>
<text text-anchor="middle" x="863.421" y="-63.5" font-family="Helvetica,sans-Serif" font-size="10.00">GameSelectScene.cpp</text>
</a>
</g>
</g>
<!-- Node17&#45;&gt;Node18 -->
<g id="edge20" class="edge"><title>Node17&#45;&gt;Node18</title>
<path fill="none" stroke="midnightblue" d="M811.287,-106.101C824.245,-96.3824 840.719,-84.0269 851.643,-75.8339"/>
<polygon fill="midnightblue" stroke="midnightblue" points="808.889,-103.524 802.989,-112.324 813.089,-109.124 808.889,-103.524"/>
</g>
<!-- Node19 -->
<g id="node19" class="node"><title>Node19</title>
<g id="a_node19"><a xlink:href="_track_select_scene_8cpp.html" target="_top" xlink:title="TrackSelectScene.cpp">
<polygon fill="none" stroke="black" points="670.421,-56.5 670.421,-75.5 786.421,-75.5 786.421,-56.5 670.421,-56.5"/>
<text text-anchor="middle" x="728.421" y="-63.5" font-family="Helvetica,sans-Serif" font-size="10.00">TrackSelectScene.cpp</text>
</a>
</g>
</g>
<!-- Node17&#45;&gt;Node19 -->
<g id="edge21" class="edge"><title>Node17&#45;&gt;Node19</title>
<path fill="none" stroke="midnightblue" d="M773.381,-105.537C762.148,-95.9087 748.102,-83.8694 738.727,-75.8339"/>
<polygon fill="midnightblue" stroke="midnightblue" points="771.429,-108.473 781.299,-112.324 775.984,-103.159 771.429,-108.473"/>
</g>
<!-- Node20&#45;&gt;Node18 -->
<g id="edge23" class="edge"><title>Node20&#45;&gt;Node18</title>
<path fill="none" stroke="midnightblue" d="M899.742,-104.718C890.576,-95.1997 879.369,-83.5608 871.848,-75.7511"/>
<polygon fill="midnightblue" stroke="midnightblue" points="897.377,-107.308 906.834,-112.083 902.419,-102.452 897.377,-107.308"/>
</g>
<!-- Node21 -->
<g id="node21" class="node"><title>Node21</title>
<g id="a_node21"><a xlink:href="_practice_setup_scene_8cpp.html" target="_top" xlink:title="PracticeSetupScene.cpp">
<polygon fill="none" stroke="black" points="939.921,-56.5 939.921,-75.5 1064.92,-75.5 1064.92,-56.5 939.921,-56.5"/>
<text text-anchor="middle" x="1002.42" y="-63.5" font-family="Helvetica,sans-Serif" font-size="10.00">PracticeSetupScene.cpp</text>
</a>
</g>
</g>
<!-- Node20&#45;&gt;Node21 -->
<g id="edge24" class="edge"><title>Node20&#45;&gt;Node21</title>
<path fill="none" stroke="midnightblue" d="M938.137,-106.901C954.09,-96.9986 974.919,-84.0705 988.478,-75.6545"/>
<polygon fill="midnightblue" stroke="midnightblue" points="936.05,-104.077 929.399,-112.324 939.741,-110.024 936.05,-104.077"/>
</g>
<!-- Node22&#45;&gt;Node7 -->
<g id="edge27" class="edge"><title>Node22&#45;&gt;Node7</title>
<path fill="none" stroke="midnightblue" d="M1638.48,-108.036C1663.92,-95.307 1693.71,-75.0774 1676.42,-56 1650.61,-27.5204 1403.92,-16.3952 1284.53,-12.6523"/>
<polygon fill="midnightblue" stroke="midnightblue" points="1636.91,-104.904 1629.4,-112.37 1639.93,-111.222 1636.91,-104.904"/>
</g>
<!-- Node23 -->
<g id="node23" class="node"><title>Node23</title>
<g id="a_node23"><a xlink:href="_locale_select_scene_8cpp.html" target="_top" xlink:title="LocaleSelectScene.cpp">
<polygon fill="none" stroke="black" points="1548.92,-56.5 1548.92,-75.5 1667.92,-75.5 1667.92,-56.5 1548.92,-56.5"/>
<text text-anchor="middle" x="1608.42" y="-63.5" font-family="Helvetica,sans-Serif" font-size="10.00">LocaleSelectScene.cpp</text>
</a>
</g>
</g>
<!-- Node22&#45;&gt;Node23 -->
<g id="edge26" class="edge"><title>Node22&#45;&gt;Node23</title>
<path fill="none" stroke="midnightblue" d="M1608.42,-101.805C1608.42,-92.9102 1608.42,-82.7798 1608.42,-75.7511"/>
<polygon fill="midnightblue" stroke="midnightblue" points="1604.92,-102.083 1608.42,-112.083 1611.92,-102.083 1604.92,-102.083"/>
</g>
<!-- Node24&#45;&gt;Node21 -->
<g id="edge30" class="edge"><title>Node24&#45;&gt;Node21</title>
<path fill="none" stroke="midnightblue" d="M1031.31,-104.144C1023.99,-94.7357 1015.18,-83.4046 1009.23,-75.7511"/>
<polygon fill="midnightblue" stroke="midnightblue" points="1028.58,-106.338 1037.49,-112.083 1034.11,-102.041 1028.58,-106.338"/>
</g>
<!-- Node25 -->
<g id="node25" class="node"><title>Node25</title>
<g id="a_node25"><a xlink:href="_main_menu_scene_8cpp.html" target="_top" xlink:title="MainMenuScene.cpp">
<polygon fill="none" stroke="black" points="1083.42,-56.5 1083.42,-75.5 1191.42,-75.5 1191.42,-56.5 1083.42,-56.5"/>
<text text-anchor="middle" x="1137.42" y="-63.5" font-family="Helvetica,sans-Serif" font-size="10.00">MainMenuScene.cpp</text>
</a>
</g>
</g>
<!-- Node24&#45;&gt;Node25 -->
<g id="edge29" class="edge"><title>Node24&#45;&gt;Node25</title>
<path fill="none" stroke="midnightblue" d="M1068.23,-107.177C1085.34,-97.2407 1107.89,-84.1492 1122.52,-75.6545"/>
<polygon fill="midnightblue" stroke="midnightblue" points="1066.25,-104.276 1059.36,-112.324 1069.77,-110.329 1066.25,-104.276"/>
</g>
<!-- Node26&#45;&gt;Node5 -->
<g id="edge33" class="edge"><title>Node26&#45;&gt;Node5</title>
<path fill="none" stroke="midnightblue" d="M1191.16,-104.275C1202.01,-89.9046 1212.89,-69.4347 1200.42,-56 1164.13,-16.903 805.366,-11.522 659.055,-10.9645"/>
<polygon fill="midnightblue" stroke="midnightblue" points="1188.22,-102.351 1184.62,-112.317 1193.65,-106.769 1188.22,-102.351"/>
</g>
<!-- Node26&#45;&gt;Node25 -->
<g id="edge32" class="edge"><title>Node26&#45;&gt;Node25</title>
<path fill="none" stroke="midnightblue" d="M1164.04,-103.855C1157.29,-94.5048 1149.21,-83.3265 1143.74,-75.7511"/>
<polygon fill="midnightblue" stroke="midnightblue" points="1161.29,-106.025 1169.98,-112.083 1166.96,-101.927 1161.29,-106.025"/>
</g>
<!-- Node27&#45;&gt;Node13 -->
<g id="edge35" class="edge"><title>Node27&#45;&gt;Node13</title>
<path fill="none" stroke="midnightblue" d="M1694.64,-114.118C1626.23,-105.473 1505.62,-90.0621 1402.42,-76 1399.57,-75.6121 1396.66,-75.2102 1393.71,-74.8011"/>
<polygon fill="midnightblue" stroke="midnightblue" points="1694.39,-117.615 1704.75,-115.395 1695.27,-110.67 1694.39,-117.615"/>
</g>
<!-- Node28 -->
<g id="node28" class="node"><title>Node28</title>
<g id="a_node28"><a xlink:href="_test_lab_scene_8cpp.html" target="_top" xlink:title="TestLabScene.cpp">
<polygon fill="none" stroke="black" points="1724.42,-56.5 1724.42,-75.5 1822.42,-75.5 1822.42,-56.5 1724.42,-56.5"/>
<text text-anchor="middle" x="1773.42" y="-63.5" font-family="Helvetica,sans-Serif" font-size="10.00">TestLabScene.cpp</text>
</a>
</g>
</g>
<!-- Node27&#45;&gt;Node28 -->
<g id="edge36" class="edge"><title>Node27&#45;&gt;Node28</title>
<path fill="none" stroke="midnightblue" d="M1757.56,-102.69C1761.6,-93.589 1766.3,-83.0141 1769.53,-75.7511"/>
<polygon fill="midnightblue" stroke="midnightblue" points="1754.25,-101.523 1753.38,-112.083 1760.64,-104.366 1754.25,-101.523"/>
</g>
<!-- Node29 -->
<g id="node29" class="node"><title>Node29</title>
<g id="a_node29"><a xlink:href="_text_edit_scene_8cpp.html" target="_top" xlink:title="TextEditScene.cpp">
<polygon fill="none" stroke="black" points="1840.42,-56.5 1840.42,-75.5 1940.42,-75.5 1940.42,-56.5 1840.42,-56.5"/>
<text text-anchor="middle" x="1890.42" y="-63.5" font-family="Helvetica,sans-Serif" font-size="10.00">TextEditScene.cpp</text>
</a>
</g>
</g>
<!-- Node27&#45;&gt;Node29 -->
<g id="edge37" class="edge"><title>Node27&#45;&gt;Node29</title>
<path fill="none" stroke="midnightblue" d="M1781.35,-108.772C1807.84,-98.6287 1844.81,-84.4669 1868.18,-75.5164"/>
<polygon fill="midnightblue" stroke="midnightblue" points="1779.85,-105.599 1771.76,-112.444 1782.35,-112.136 1779.85,-105.599"/>
</g>
<!-- Node30&#45;&gt;Node5 -->
<g id="edge40" class="edge"><title>Node30&#45;&gt;Node5</title>
<path fill="none" stroke="midnightblue" d="M1285.71,-104.91C1270.36,-89.327 1244.76,-66.5524 1217.42,-56 1116.74,-17.1335 794.955,-11.5301 658.992,-10.9384"/>
<polygon fill="midnightblue" stroke="midnightblue" points="1283.32,-107.478 1292.76,-112.301 1288.39,-102.648 1283.32,-107.478"/>
</g>
<!-- Node30&#45;&gt;Node13 -->
<g id="edge39" class="edge"><title>Node30&#45;&gt;Node13</title>
<path fill="none" stroke="midnightblue" d="M1312.8,-103.855C1319.56,-94.5048 1327.63,-83.3265 1333.1,-75.7511"/>
<polygon fill="midnightblue" stroke="midnightblue" points="1309.88,-101.927 1306.86,-112.083 1315.55,-106.025 1309.88,-101.927"/>
</g>
</g>
</svg>
