<?xml version="1.0" encoding="UTF-8" standalone="no"?>
<!DOCTYPE svg PUBLIC "-//W3C//DTD SVG 1.1//EN"
 "http://www.w3.org/Graphics/SVG/1.1/DTD/svg11.dtd">
<!-- Generated by graphviz version 2.26.3 (20100126.1600)
 -->
<!-- Title: DialogScene.cpp Pages: 1 -->
<!--zoomable 692 -->
<svg id="main" version="1.1" xmlns="http://www.w3.org/2000/svg" xmlns:xlink="http://www.w3.org/1999/xlink" xml:space="preserve" onload="init(evt)">
<style type="text/css"><![CDATA[
.edge:hover path { stroke: red; }
.edge:hover polygon { stroke: red; fill: red; }
]]></style>
<script type="text/javascript"><![CDATA[
var edges = document.getElementsByTagName('g');
if (edges && edges.length) {
  for (var i=0;i<edges.length;i++) {
    if (edges[i].id.substr(0,4)=='edge') {
      edges[i].setAttribute('class','edge');
    }
  }
}
]]></script>
        <defs>
                <circle id="rim" cx="0" cy="0" r="7"/>
                <circle id="rim2" cx="0" cy="0" r="3.5"/>
                <g id="zoomPlus">
                        <use xlink:href="#rim" fill="#404040">
                                <set attributeName="fill" to="#808080" begin="zoomplus.mouseover" end="zoomplus.mouseout"/>
                        </use>
                        <path d="M-4,0h8M0,-4v8" fill="none" stroke="white" stroke-width="1.5" pointer-events="none"/>
                </g>
                <g id="zoomMin">
                        <use xlink:href="#rim" fill="#404040">
                                <set attributeName="fill" to="#808080" begin="zoomminus.mouseover" end="zoomminus.mouseout"/>
                        </use>
                        <path d="M-4,0h8" fill="none" stroke="white" stroke-width="1.5" pointer-events="none"/>
                </g>
                <g id="dirArrow">
                        <path fill="none" stroke="white" stroke-width="1.5" d="M0,-3.0v7 M-2.5,-0.5L0,-3.0L2.5,-0.5"/>
                </g>
               <g id="resetDef">
                       <use xlink:href="#rim2" fill="#404040">
                               <set attributeName="fill" to="#808080" begin="reset.mouseover" end="reset.mouseout"/>
                       </use>
               </g>
        </defs>

<script type="text/javascript">
var viewWidth = 1367;
var viewHeight = 692;
var sectionId = 'dynsection-0';
</script>
<script xlink:href="svgpan.js"/>
<svg id="graph" class="graph">
<g id="viewport">
<title>DialogScene.cpp</title>
<!-- Node1 -->
<g id="node1" class="node"><title>Node1</title>
<polygon fill="#bfbfbf" stroke="black" points="706.5,-663 706.5,-683 795.5,-683 795.5,-663 706.5,-663"/>
<text text-anchor="middle" x="751" y="-670" font-family="FreeSans" font-size="10.00">DialogScene.cpp</text>
</g>
<!-- Node2 -->
<g id="node3" class="node"><title>Node2</title>
<a xlink:href="_action_button_8h.html" target="_top" xlink:title="../../engine/Display\l/ActionButton.h">
<polygon fill="none" stroke="black" points="759.5,-593 759.5,-625 854.5,-625 854.5,-593 759.5,-593"/>
<text text-anchor="start" x="767.5" y="-612" font-family="FreeSans" font-size="10.00">../../engine/Display</text>
<text text-anchor="middle" x="807" y="-600" font-family="FreeSans" font-size="10.00">/ActionButton.h</text>
</a>
</g>
<!-- Node1&#45;&gt;Node2 -->
<g id="edge2" class="edge"><title>Node1&#45;&gt;Node2</title>
<path fill="none" stroke="midnightblue" d="M759.997,-662.717C767.093,-654.608 777.271,-642.976 786.343,-632.608"/>
<polygon fill="midnightblue" stroke="midnightblue" points="789.044,-634.836 792.995,-625.005 783.776,-630.226 789.044,-634.836"/>
</g>
<!-- Node31 -->
<g id="node71" class="node"><title>Node31</title>
<a xlink:href="_container_8h.html" target="_top" xlink:title="../../engine/Display\l/Container.h">
<polygon fill="none" stroke="black" points="647.5,-593 647.5,-625 742.5,-625 742.5,-593 647.5,-593"/>
<text text-anchor="start" x="655.5" y="-612" font-family="FreeSans" font-size="10.00">../../engine/Display</text>
<text text-anchor="middle" x="695" y="-600" font-family="FreeSans" font-size="10.00">/Container.h</text>
</a>
</g>
<!-- Node1&#45;&gt;Node31 -->
<g id="edge80" class="edge"><title>Node1&#45;&gt;Node31</title>
<path fill="none" stroke="midnightblue" d="M742.003,-662.717C734.907,-654.608 724.729,-642.976 715.657,-632.608"/>
<polygon fill="midnightblue" stroke="midnightblue" points="718.224,-630.226 709.005,-625.005 712.956,-634.836 718.224,-630.226"/>
</g>
<!-- Node33 -->
<g id="node76" class="node"><title>Node33</title>
<a xlink:href="_flex_grid_8h.html" target="_top" xlink:title="../../engine/Display\l/FlexGrid.h">
<polygon fill="none" stroke="black" points="535.5,-593 535.5,-625 630.5,-625 630.5,-593 535.5,-593"/>
<text text-anchor="start" x="543.5" y="-612" font-family="FreeSans" font-size="10.00">../../engine/Display</text>
<text text-anchor="middle" x="583" y="-600" font-family="FreeSans" font-size="10.00">/FlexGrid.h</text>
</a>
</g>
<!-- Node1&#45;&gt;Node33 -->
<g id="edge86" class="edge"><title>Node1&#45;&gt;Node33</title>
<path fill="none" stroke="midnightblue" d="M724.38,-662.859C700.336,-653.699 664.277,-639.962 634.594,-628.655"/>
<polygon fill="midnightblue" stroke="midnightblue" points="635.795,-625.367 625.204,-625.078 633.303,-631.908 635.795,-625.367"/>
</g>
<!-- Node35 -->
<g id="node82" class="node"><title>Node35</title>
<a xlink:href="_label_8h.html" target="_top" xlink:title="../../engine/Display\l/Label.h">
<polygon fill="none" stroke="black" points="871.5,-593 871.5,-625 966.5,-625 966.5,-593 871.5,-593"/>
<text text-anchor="start" x="879.5" y="-612" font-family="FreeSans" font-size="10.00">../../engine/Display</text>
<text text-anchor="middle" x="919" y="-600" font-family="FreeSans" font-size="10.00">/Label.h</text>
</a>
</g>
<!-- Node1&#45;&gt;Node35 -->
<g id="edge94" class="edge"><title>Node1&#45;&gt;Node35</title>
<path fill="none" stroke="midnightblue" d="M777.62,-662.859C801.664,-653.699 837.723,-639.962 867.406,-628.655"/>
<polygon fill="midnightblue" stroke="midnightblue" points="868.697,-631.908 876.796,-625.078 866.205,-625.367 868.697,-631.908"/>
</g>
<!-- Node37 -->
<g id="node89" class="node"><title>Node37</title>
<a xlink:href="_screen_fade_8h.html" target="_top" xlink:title="../../engine/Display\l/ScreenFade.h">
<polygon fill="none" stroke="black" points="1102.5,-465 1102.5,-497 1197.5,-497 1197.5,-465 1102.5,-465"/>
<text text-anchor="start" x="1110.5" y="-484" font-family="FreeSans" font-size="10.00">../../engine/Display</text>
<text text-anchor="middle" x="1150" y="-472" font-family="FreeSans" font-size="10.00">/ScreenFade.h</text>
</a>
</g>
<!-- Node1&#45;&gt;Node37 -->
<g id="edge104" class="edge"><title>Node1&#45;&gt;Node37</title>
<path fill="none" stroke="midnightblue" d="M795.99,-668.458C853.268,-661.862 948.047,-647.963 975,-626 1009.56,-597.835 982.91,-564.954 1015,-534 1026.78,-522.633 1061.43,-509.138 1092.68,-498.61"/>
<polygon fill="midnightblue" stroke="midnightblue" points="1093.84,-501.911 1102.23,-495.444 1091.64,-495.266 1093.84,-501.911"/>
</g>
<!-- Node39 -->
<g id="node95" class="node"><title>Node39</title>
<a xlink:href="_config_8h.html" target="_top" xlink:title="../../engine/Util/Config.h">
<polygon fill="none" stroke="black" points="180,-407 180,-427 296,-427 296,-407 180,-407"/>
<text text-anchor="middle" x="238" y="-414" font-family="FreeSans" font-size="10.00">../../engine/Util/Config.h</text>
</a>
</g>
<!-- Node1&#45;&gt;Node39 -->
<g id="edge112" class="edge"><title>Node1&#45;&gt;Node39</title>
<path fill="none" stroke="midnightblue" d="M706.178,-669.919C623.191,-663.755 448.969,-648.535 393,-626 344.349,-606.411 330.635,-597.055 298,-556 268.689,-519.127 251.012,-465.761 243.045,-437.064"/>
<polygon fill="midnightblue" stroke="midnightblue" points="246.331,-435.802 240.381,-427.036 239.566,-437.599 246.331,-435.802"/>
</g>
<!-- Node45 -->
<g id="node111" class="node"><title>Node45</title>
<a xlink:href="_log_8h.html" target="_top" xlink:title="../../engine/Util/Log.h">
<polygon fill="none" stroke="black" points="1021.5,-599 1021.5,-619 1126.5,-619 1126.5,-599 1021.5,-599"/>
<text text-anchor="middle" x="1074" y="-606" font-family="FreeSans" font-size="10.00">../../engine/Util/Log.h</text>
</a>
</g>
<!-- Node1&#45;&gt;Node45 -->
<g id="edge132" class="edge"><title>Node1&#45;&gt;Node45</title>
<path fill="none" stroke="midnightblue" d="M795.764,-665.808C847.194,-657.314 934.02,-642.271 1008,-626 1014.14,-624.649 1020.58,-623.126 1026.93,-621.561"/>
<polygon fill="midnightblue" stroke="midnightblue" points="1027.92,-624.92 1036.76,-619.085 1026.21,-618.131 1027.92,-624.92"/>
</g>
<!-- Node47 -->
<g id="node115" class="node"><title>Node47</title>
<a xlink:href="_dialog_scene_8h.html" target="_top" xlink:title="DialogScene.h">
<polygon fill="none" stroke="black" points="401.5,-599 401.5,-619 480.5,-619 480.5,-599 401.5,-599"/>
<text text-anchor="middle" x="441" y="-606" font-family="FreeSans" font-size="10.00">DialogScene.h</text>
</a>
</g>
<!-- Node1&#45;&gt;Node47 -->
<g id="edge136" class="edge"><title>Node1&#45;&gt;Node47</title>
<path fill="none" stroke="midnightblue" d="M706.254,-663.762C649.035,-651.949 550.252,-631.555 490.732,-619.267"/>
<polygon fill="midnightblue" stroke="midnightblue" points="491.313,-615.813 480.812,-617.219 489.897,-622.669 491.313,-615.813"/>
</g>
<!-- Node3 -->
<g id="node5" class="node"><title>Node3</title>
<a xlink:href="_controller_8h.html" target="_top" xlink:title="../Control/Controller.h">
<polygon fill="none" stroke="black" points="568.5,-349 568.5,-369 675.5,-369 675.5,-349 568.5,-349"/>
<text text-anchor="middle" x="622" y="-356" font-family="FreeSans" font-size="10.00">../Control/Controller.h</text>
</a>
</g>
<!-- Node2&#45;&gt;Node3 -->
<g id="edge4" class="edge"><title>Node2&#45;&gt;Node3</title>
<path fill="none" stroke="midnightblue" d="M795.146,-592.981C762.324,-548.627 670.391,-424.393 635.586,-377.359"/>
<polygon fill="midnightblue" stroke="midnightblue" points="638.183,-374.984 629.421,-369.028 632.556,-379.148 638.183,-374.984"/>
</g>
<!-- Node14 -->
<g id="node28" class="node"><title>Node14</title>
<a xlink:href="_button_8h.html" target="_top" xlink:title="Button.h">
<polygon fill="none" stroke="black" points="830.5,-535 830.5,-555 883.5,-555 883.5,-535 830.5,-535"/>
<text text-anchor="middle" x="857" y="-542" font-family="FreeSans" font-size="10.00">Button.h</text>
</a>
</g>
<!-- Node2&#45;&gt;Node14 -->
<g id="edge28" class="edge"><title>Node2&#45;&gt;Node14</title>
<path fill="none" stroke="midnightblue" d="M819.617,-592.85C826.705,-583.778 835.569,-572.431 842.887,-563.065"/>
<polygon fill="midnightblue" stroke="midnightblue" points="845.679,-565.176 849.077,-555.141 840.163,-560.866 845.679,-565.176"/>
</g>
<!-- Node4 -->
<g id="node7" class="node"><title>Node4</title>
<polygon fill="none" stroke="#bfbfbf" points="268,-291 268,-311 312,-311 312,-291 268,-291"/>
<text text-anchor="middle" x="290" y="-298" font-family="FreeSans" font-size="10.00">vector</text>
</g>
<!-- Node3&#45;&gt;Node4 -->
<g id="edge6" class="edge"><title>Node3&#45;&gt;Node4</title>
<path fill="none" stroke="midnightblue" d="M568.383,-353.677C509.845,-347.188 413.325,-334.511 322.142,-311.941"/>
<polygon fill="midnightblue" stroke="midnightblue" points="322.751,-308.485 312.198,-309.435 321.039,-315.273 322.751,-308.485"/>
</g>
<!-- Node5 -->
<g id="node9" class="node"><title>Node5</title>
<polygon fill="none" stroke="#bfbfbf" points="329.5,-291 329.5,-311 370.5,-311 370.5,-291 329.5,-291"/>
<text text-anchor="middle" x="350" y="-298" font-family="FreeSans" font-size="10.00">string</text>
</g>
<!-- Node3&#45;&gt;Node5 -->
<g id="edge8" class="edge"><title>Node3&#45;&gt;Node5</title>
<path fill="none" stroke="midnightblue" d="M574.932,-348.963C519.236,-337.087 428.105,-317.655 380.749,-307.557"/>
<polygon fill="midnightblue" stroke="midnightblue" points="381.299,-304.095 370.789,-305.433 379.839,-310.942 381.299,-304.095"/>
</g>
<!-- Node6 -->
<g id="node11" class="node"><title>Node6</title>
<polygon fill="none" stroke="#bfbfbf" points="538.5,-291 538.5,-311 609.5,-311 609.5,-291 538.5,-291"/>
<text text-anchor="middle" x="574" y="-298" font-family="FreeSans" font-size="10.00">SDL2/SDL.h</text>
</g>
<!-- Node3&#45;&gt;Node6 -->
<g id="edge10" class="edge"><title>Node3&#45;&gt;Node6</title>
<path fill="none" stroke="midnightblue" d="M613.639,-348.897C606.908,-340.764 597.27,-329.118 589.184,-319.347"/>
<polygon fill="midnightblue" stroke="midnightblue" points="591.66,-316.85 582.588,-311.378 586.268,-321.313 591.66,-316.85"/>
</g>
<!-- Node7 -->
<g id="node13" class="node"><title>Node7</title>
<a xlink:href="_action_8h.html" target="_top" xlink:title="Action.h">
<polygon fill="none" stroke="black" points="627,-291 627,-311 679,-311 679,-291 627,-291"/>
<text text-anchor="middle" x="653" y="-298" font-family="FreeSans" font-size="10.00">Action.h</text>
</a>
</g>
<!-- Node3&#45;&gt;Node7 -->
<g id="edge12" class="edge"><title>Node3&#45;&gt;Node7</title>
<path fill="none" stroke="midnightblue" d="M627.4,-348.897C631.615,-341.01 637.596,-329.821 642.716,-320.24"/>
<polygon fill="midnightblue" stroke="midnightblue" points="645.826,-321.847 647.453,-311.378 639.653,-318.547 645.826,-321.847"/>
</g>
<!-- Node13 -->
<g id="node25" class="node"><title>Node13</title>
<a xlink:href="_control_action_8h.html" target="_top" xlink:title="ControlAction.h">
<polygon fill="none" stroke="black" points="726.5,-233 726.5,-253 809.5,-253 809.5,-233 726.5,-233"/>
<text text-anchor="middle" x="768" y="-240" font-family="FreeSans" font-size="10.00">ControlAction.h</text>
</a>
</g>
<!-- Node3&#45;&gt;Node13 -->
<g id="edge26" class="edge"><title>Node3&#45;&gt;Node13</title>
<path fill="none" stroke="midnightblue" d="M636.967,-348.93C650.535,-339.664 670.957,-325.372 688,-312 709.627,-295.032 733.351,-274.282 749.304,-259.994"/>
<polygon fill="midnightblue" stroke="midnightblue" points="751.797,-262.459 756.886,-253.166 747.113,-257.257 751.797,-262.459"/>
</g>
<!-- Node8 -->
<g id="node15" class="node"><title>Node8</title>
<polygon fill="none" stroke="#bfbfbf" points="558.5,-233 558.5,-253 671.5,-253 671.5,-233 558.5,-233"/>
<text text-anchor="middle" x="615" y="-240" font-family="FreeSans" font-size="10.00">SDL2/SDL_keycode.h</text>
</g>
<!-- Node7&#45;&gt;Node8 -->
<g id="edge14" class="edge"><title>Node7&#45;&gt;Node8</title>
<path fill="none" stroke="midnightblue" d="M646.381,-290.897C641.16,-282.928 633.73,-271.587 627.41,-261.941"/>
<polygon fill="midnightblue" stroke="midnightblue" points="630.207,-259.824 621.799,-253.378 624.352,-263.66 630.207,-259.824"/>
</g>
<!-- Node9 -->
<g id="node17" class="node"><title>Node9</title>
<polygon fill="none" stroke="#bfbfbf" points="435,-233 435,-253 541,-253 541,-233 435,-233"/>
<text text-anchor="middle" x="488" y="-240" font-family="FreeSans" font-size="10.00">SDL2/SDL_mouse.h</text>
</g>
<!-- Node7&#45;&gt;Node9 -->
<g id="edge16" class="edge"><title>Node7&#45;&gt;Node9</title>
<path fill="none" stroke="midnightblue" d="M626.855,-291.81C599.715,-282.269 556.987,-267.25 526.093,-256.39"/>
<polygon fill="midnightblue" stroke="midnightblue" points="527.108,-253.037 516.513,-253.023 524.787,-259.641 527.108,-253.037"/>
</g>
<!-- Node10 -->
<g id="node19" class="node"><title>Node10</title>
<a xlink:href="_vec_8h.html" target="_top" xlink:title="../Vec.h">
<polygon fill="none" stroke="black" points="812.5,-175 812.5,-195 861.5,-195 861.5,-175 812.5,-175"/>
<text text-anchor="middle" x="837" y="-182" font-family="FreeSans" font-size="10.00">../Vec.h</text>
</a>
</g>
<!-- Node7&#45;&gt;Node10 -->
<g id="edge18" class="edge"><title>Node7&#45;&gt;Node10</title>
<path fill="none" stroke="midnightblue" d="M660.301,-290.762C671.306,-275.981 693.479,-248.621 718,-232 744.018,-214.364 777.631,-201.865 802.494,-194.212"/>
<polygon fill="midnightblue" stroke="midnightblue" points="803.638,-197.523 812.23,-191.324 801.647,-190.812 803.638,-197.523"/>
</g>
<!-- Node11 -->
<g id="node21" class="node"><title>Node11</title>
<a xlink:href="_exception_8h.html" target="_top" xlink:title="../Exception.h">
<polygon fill="none" stroke="black" points="343,-233 343,-253 417,-253 417,-233 343,-233"/>
<text text-anchor="middle" x="380" y="-240" font-family="FreeSans" font-size="10.00">../Exception.h</text>
</a>
</g>
<!-- Node7&#45;&gt;Node11 -->
<g id="edge20" class="edge"><title>Node7&#45;&gt;Node11</title>
<path fill="none" stroke="midnightblue" d="M626.722,-292.372C623.794,-291.521 620.842,-290.71 618,-290 536.814,-269.708 512.644,-271.905 427.017,-254.129"/>
<polygon fill="midnightblue" stroke="midnightblue" points="427.628,-250.681 417.121,-252.043 426.185,-257.53 427.628,-250.681"/>
</g>
<!-- Node7&#45;&gt;Node13 -->
<g id="edge24" class="edge"><title>Node7&#45;&gt;Node13</title>
<path fill="none" stroke="midnightblue" d="M673.031,-290.897C691.224,-281.722 718.28,-268.076 738.865,-257.694"/>
<polygon fill="midnightblue" stroke="midnightblue" points="740.46,-260.81 747.812,-253.182 737.307,-254.56 740.46,-260.81"/>
</g>
<!-- Node12 -->
<g id="node23" class="node"><title>Node12</title>
<polygon fill="none" stroke="#bfbfbf" points="351,-175 351,-195 409,-195 409,-175 351,-175"/>
<text text-anchor="middle" x="380" y="-182" font-family="FreeSans" font-size="10.00">exception</text>
</g>
<!-- Node11&#45;&gt;Node12 -->
<g id="edge22" class="edge"><title>Node11&#45;&gt;Node12</title>
<path fill="none" stroke="midnightblue" d="M380,-232.897C380,-225.339 380,-214.748 380,-205.446"/>
<polygon fill="midnightblue" stroke="midnightblue" points="383.5,-205.378 380,-195.378 376.5,-205.378 383.5,-205.378"/>
</g>
<!-- Node15 -->
<g id="node30" class="node"><title>Node15</title>
<a xlink:href="_click_region_8h.html" target="_top" xlink:title="ClickRegion.h">
<polygon fill="none" stroke="black" points="913,-471 913,-491 989,-491 989,-471 913,-471"/>
<text text-anchor="middle" x="951" y="-478" font-family="FreeSans" font-size="10.00">ClickRegion.h</text>
</a>
</g>
<!-- Node14&#45;&gt;Node15 -->
<g id="edge30" class="edge"><title>Node14&#45;&gt;Node15</title>
<path fill="none" stroke="midnightblue" d="M872.103,-534.717C887.129,-524.487 910.39,-508.649 927.768,-496.817"/>
<polygon fill="midnightblue" stroke="midnightblue" points="929.948,-499.567 936.245,-491.046 926.009,-493.781 929.948,-499.567"/>
</g>
<!-- Node16 -->
<g id="node32" class="node"><title>Node16</title>
<a xlink:href="_ui_view_model_8h.html" target="_top" xlink:title="UiViewModel.h">
<polygon fill="none" stroke="black" points="914,-407 914,-427 996,-427 996,-407 914,-407"/>
<text text-anchor="middle" x="955" y="-414" font-family="FreeSans" font-size="10.00">UiViewModel.h</text>
</a>
</g>
<!-- Node15&#45;&gt;Node16 -->
<g id="edge32" class="edge"><title>Node15&#45;&gt;Node16</title>
<path fill="none" stroke="midnightblue" d="M951.643,-470.717C952.206,-461.707 953.041,-448.347 953.737,-437.205"/>
<polygon fill="midnightblue" stroke="midnightblue" points="957.241,-437.245 954.372,-427.046 950.255,-436.808 957.241,-437.245"/>
</g>
<!-- Node16&#45;&gt;Node10 -->
<g id="edge40" class="edge"><title>Node16&#45;&gt;Node10</title>
<path fill="none" stroke="midnightblue" d="M913.785,-407.686C893.073,-400.806 869.556,-389.193 856,-370 820.551,-319.811 827.308,-242.002 833.109,-205.377"/>
<polygon fill="midnightblue" stroke="midnightblue" points="836.578,-205.858 834.831,-195.409 829.68,-204.667 836.578,-205.858"/>
</g>
<!-- Node17 -->
<g id="node34" class="node"><title>Node17</title>
<a xlink:href="_nav_8h.html" target="_top" xlink:title="../Control/Nav.h">
<polygon fill="none" stroke="black" points="864.5,-349 864.5,-369 947.5,-369 947.5,-349 864.5,-349"/>
<text text-anchor="middle" x="906" y="-356" font-family="FreeSans" font-size="10.00">../Control/Nav.h</text>
</a>
</g>
<!-- Node16&#45;&gt;Node17 -->
<g id="edge34" class="edge"><title>Node16&#45;&gt;Node17</title>
<path fill="none" stroke="midnightblue" d="M946.465,-406.897C939.524,-398.682 929.556,-386.883 921.25,-377.051"/>
<polygon fill="midnightblue" stroke="midnightblue" points="923.894,-374.758 914.767,-369.378 918.547,-379.275 923.894,-374.758"/>
</g>
<!-- Node18 -->
<g id="node36" class="node"><title>Node18</title>
<a xlink:href="_m_r___types_8h.html" target="_top" xlink:title="../Util/MR_Types.h">
<polygon fill="none" stroke="black" points="969,-59 969,-79 1065,-79 1065,-59 969,-59"/>
<text text-anchor="middle" x="1017" y="-66" font-family="FreeSans" font-size="10.00">../Util/MR_Types.h</text>
</a>
</g>
<!-- Node16&#45;&gt;Node18 -->
<g id="edge36" class="edge"><title>Node16&#45;&gt;Node18</title>
<path fill="none" stroke="midnightblue" d="M959.094,-406.703C962.697,-397.283 967.846,-382.894 971,-370 996.407,-266.128 1010.38,-138.474 1015.13,-89.4764"/>
<polygon fill="midnightblue" stroke="midnightblue" points="1018.64,-89.5463 1016.09,-79.2614 1011.67,-88.888 1018.64,-89.5463"/>
</g>
<!-- Node20 -->
<g id="node41" class="node"><title>Node20</title>
<a xlink:href="_ui_layout_flags_8h.html" target="_top" xlink:title="UiLayoutFlags.h">
<polygon fill="none" stroke="black" points="864.5,-233 864.5,-253 951.5,-253 951.5,-233 864.5,-233"/>
<text text-anchor="middle" x="908" y="-240" font-family="FreeSans" font-size="10.00">UiLayoutFlags.h</text>
</a>
</g>
<!-- Node16&#45;&gt;Node20 -->
<g id="edge42" class="edge"><title>Node16&#45;&gt;Node20</title>
<path fill="none" stroke="midnightblue" d="M956.607,-406.567C958.379,-392.925 960.435,-368.369 956,-348 949.042,-316.045 931.456,-282.171 919.615,-261.804"/>
<polygon fill="midnightblue" stroke="midnightblue" points="922.615,-260.001 914.486,-253.206 916.603,-263.587 922.615,-260.001"/>
</g>
<!-- Node21 -->
<g id="node44" class="node"><title>Node21</title>
<a xlink:href="_view_model_8h.html" target="_top" xlink:title="ViewModel.h">
<polygon fill="none" stroke="black" points="1114,-349 1114,-369 1186,-369 1186,-349 1114,-349"/>
<text text-anchor="middle" x="1150" y="-356" font-family="FreeSans" font-size="10.00">ViewModel.h</text>
</a>
</g>
<!-- Node16&#45;&gt;Node21 -->
<g id="edge46" class="edge"><title>Node16&#45;&gt;Node21</title>
<path fill="none" stroke="midnightblue" d="M988.966,-406.897C1021.58,-397.196 1071,-382.498 1106.48,-371.944"/>
<polygon fill="midnightblue" stroke="midnightblue" points="1107.51,-375.29 1116.1,-369.084 1105.51,-368.58 1107.51,-375.29"/>
</g>
<!-- Node19 -->
<g id="node38" class="node"><title>Node19</title>
<polygon fill="none" stroke="#bfbfbf" points="988,-1 988,-21 1046,-21 1046,-1 988,-1"/>
<text text-anchor="middle" x="1017" y="-8" font-family="FreeSans" font-size="10.00">inttypes.h</text>
</g>
<!-- Node18&#45;&gt;Node19 -->
<g id="edge38" class="edge"><title>Node18&#45;&gt;Node19</title>
<path fill="none" stroke="midnightblue" d="M1017,-58.8972C1017,-51.339 1017,-40.7476 1017,-31.4458"/>
<polygon fill="midnightblue" stroke="midnightblue" points="1020.5,-31.3776 1017,-21.3776 1013.5,-31.3776 1020.5,-31.3776"/>
</g>
<!-- Node20&#45;&gt;Node18 -->
<g id="edge44" class="edge"><title>Node20&#45;&gt;Node18</title>
<path fill="none" stroke="midnightblue" d="M914.331,-232.893C932.016,-204.663 982.145,-124.641 1005.17,-87.8844"/>
<polygon fill="midnightblue" stroke="midnightblue" points="1008.31,-89.4676 1010.65,-79.135 1002.38,-85.7514 1008.31,-89.4676"/>
</g>
<!-- Node22 -->
<g id="node46" class="node"><title>Node22</title>
<a xlink:href="_display_8h.html" target="_top" xlink:title="Display.h">
<polygon fill="none" stroke="black" points="1082,-291 1082,-311 1138,-311 1138,-291 1082,-291"/>
<text text-anchor="middle" x="1110" y="-298" font-family="FreeSans" font-size="10.00">Display.h</text>
</a>
</g>
<!-- Node21&#45;&gt;Node22 -->
<g id="edge48" class="edge"><title>Node21&#45;&gt;Node22</title>
<path fill="none" stroke="midnightblue" d="M1143.03,-348.897C1137.48,-340.846 1129.55,-329.353 1122.86,-319.643"/>
<polygon fill="midnightblue" stroke="midnightblue" points="1125.72,-317.623 1117.16,-311.378 1119.95,-321.597 1125.72,-317.623"/>
</g>
<!-- Node29 -->
<g id="node66" class="node"><title>Node29</title>
<a xlink:href="_view_attacher_8h.html" target="_top" xlink:title="ViewAttacher.h">
<polygon fill="none" stroke="black" points="1151.5,-233 1151.5,-253 1234.5,-253 1234.5,-233 1151.5,-233"/>
<text text-anchor="middle" x="1193" y="-240" font-family="FreeSans" font-size="10.00">ViewAttacher.h</text>
</a>
</g>
<!-- Node21&#45;&gt;Node29 -->
<g id="edge78" class="edge"><title>Node21&#45;&gt;Node29</title>
<path fill="none" stroke="midnightblue" d="M1153.82,-348.706C1160.97,-329.396 1176.52,-287.451 1185.74,-262.596"/>
<polygon fill="midnightblue" stroke="midnightblue" points="1189.06,-263.699 1189.25,-253.106 1182.5,-261.266 1189.06,-263.699"/>
</g>
<!-- Node30 -->
<g id="node68" class="node"><title>Node30</title>
<a xlink:href="_view_8h.html" target="_top" xlink:title="View.h">
<polygon fill="none" stroke="black" points="1194,-291 1194,-311 1240,-311 1240,-291 1194,-291"/>
<text text-anchor="middle" x="1217" y="-298" font-family="FreeSans" font-size="10.00">View.h</text>
</a>
</g>
<!-- Node21&#45;&gt;Node30 -->
<g id="edge76" class="edge"><title>Node21&#45;&gt;Node30</title>
<path fill="none" stroke="midnightblue" d="M1161.67,-348.897C1171.45,-340.435 1185.61,-328.172 1197.16,-318.172"/>
<polygon fill="midnightblue" stroke="midnightblue" points="1199.74,-320.569 1205.01,-311.378 1195.16,-315.276 1199.74,-320.569"/>
</g>
<!-- Node22&#45;&gt;Node10 -->
<g id="edge50" class="edge"><title>Node22&#45;&gt;Node10</title>
<path fill="none" stroke="midnightblue" d="M1089.32,-290.962C1060.57,-277.123 1006.77,-251.667 960,-232 930.367,-219.539 896.174,-206.586 871.374,-197.441"/>
<polygon fill="midnightblue" stroke="midnightblue" points="872.288,-194.048 861.694,-193.89 869.876,-200.62 872.288,-194.048"/>
</g>
<!-- Node22&#45;&gt;Node20 -->
<g id="edge72" class="edge"><title>Node22&#45;&gt;Node20</title>
<path fill="none" stroke="midnightblue" d="M1081.91,-292.935C1048.43,-283.323 992.069,-267.138 952.607,-255.808"/>
<polygon fill="midnightblue" stroke="midnightblue" points="953.54,-252.434 942.962,-253.039 951.608,-259.163 953.54,-252.434"/>
</g>
<!-- Node23 -->
<g id="node49" class="node"><title>Node23</title>
<a xlink:href="_styles_8h.html" target="_top" xlink:title="Styles.h">
<polygon fill="none" stroke="black" points="1083.5,-233 1083.5,-253 1134.5,-253 1134.5,-233 1083.5,-233"/>
<text text-anchor="middle" x="1109" y="-240" font-family="FreeSans" font-size="10.00">Styles.h</text>
</a>
</g>
<!-- Node22&#45;&gt;Node23 -->
<g id="edge52" class="edge"><title>Node22&#45;&gt;Node23</title>
<path fill="none" stroke="midnightblue" d="M1109.83,-290.897C1109.7,-283.339 1109.51,-272.748 1109.35,-263.446"/>
<polygon fill="midnightblue" stroke="midnightblue" points="1112.85,-263.316 1109.18,-253.378 1105.85,-263.436 1112.85,-263.316"/>
</g>
<!-- Node22&#45;&gt;Node29 -->
<g id="edge74" class="edge"><title>Node22&#45;&gt;Node29</title>
<path fill="none" stroke="midnightblue" d="M1124.46,-290.897C1137,-282.135 1155.37,-269.297 1169.94,-259.116"/>
<polygon fill="midnightblue" stroke="midnightblue" points="1172.24,-261.779 1178.43,-253.182 1168.23,-256.041 1172.24,-261.779"/>
</g>
<!-- Node23&#45;&gt;Node10 -->
<g id="edge54" class="edge"><title>Node23&#45;&gt;Node10</title>
<path fill="none" stroke="midnightblue" d="M1083.41,-237.544C1034.34,-227.079 926.959,-204.182 871.57,-192.372"/>
<polygon fill="midnightblue" stroke="midnightblue" points="872.048,-188.895 861.538,-190.232 870.588,-195.741 872.048,-188.895"/>
</g>
<!-- Node24 -->
<g id="node52" class="node"><title>Node24</title>
<a xlink:href="_ui_font_8h.html" target="_top" xlink:title="UiFont.h">
<polygon fill="none" stroke="black" points="1240.5,-175 1240.5,-195 1293.5,-195 1293.5,-175 1240.5,-175"/>
<text text-anchor="middle" x="1267" y="-182" font-family="FreeSans" font-size="10.00">UiFont.h</text>
</a>
</g>
<!-- Node23&#45;&gt;Node24 -->
<g id="edge56" class="edge"><title>Node23&#45;&gt;Node24</title>
<path fill="none" stroke="midnightblue" d="M1134.74,-233.552C1160.9,-223.949 1201.65,-208.99 1231,-198.215"/>
<polygon fill="midnightblue" stroke="midnightblue" points="1232.3,-201.466 1240.48,-194.734 1229.89,-194.895 1232.3,-201.466"/>
</g>
<!-- Node27 -->
<g id="node59" class="node"><title>Node27</title>
<a xlink:href="_color_8h.html" target="_top" xlink:title="Color.h">
<polygon fill="none" stroke="black" points="1094.5,-175 1094.5,-195 1141.5,-195 1141.5,-175 1094.5,-175"/>
<text text-anchor="middle" x="1118" y="-182" font-family="FreeSans" font-size="10.00">Color.h</text>
</a>
</g>
<!-- Node23&#45;&gt;Node27 -->
<g id="edge64" class="edge"><title>Node23&#45;&gt;Node27</title>
<path fill="none" stroke="midnightblue" d="M1110.57,-232.897C1111.74,-225.339 1113.38,-214.748 1114.83,-205.446"/>
<polygon fill="midnightblue" stroke="midnightblue" points="1118.31,-205.796 1116.39,-195.378 1111.4,-204.723 1118.31,-205.796"/>
</g>
<!-- Node25 -->
<g id="node54" class="node"><title>Node25</title>
<a xlink:href="_hash_8h.html" target="_top" xlink:title="../Util/Hash.h">
<polygon fill="none" stroke="black" points="1286.5,-117 1286.5,-137 1359.5,-137 1359.5,-117 1286.5,-117"/>
<text text-anchor="middle" x="1323" y="-124" font-family="FreeSans" font-size="10.00">../Util/Hash.h</text>
</a>
</g>
<!-- Node24&#45;&gt;Node25 -->
<g id="edge58" class="edge"><title>Node24&#45;&gt;Node25</title>
<path fill="none" stroke="midnightblue" d="M1276.75,-174.897C1284.77,-166.6 1296.31,-154.646 1305.86,-144.757"/>
<polygon fill="midnightblue" stroke="midnightblue" points="1308.55,-147.003 1312.98,-137.378 1303.52,-142.141 1308.55,-147.003"/>
</g>
<!-- Node26 -->
<g id="node56" class="node"><title>Node26</title>
<a xlink:href="_sel_fmt_8h.html" target="_top" xlink:title="../Util/SelFmt.h">
<polygon fill="none" stroke="black" points="1188.5,-117 1188.5,-137 1269.5,-137 1269.5,-117 1188.5,-117"/>
<text text-anchor="middle" x="1229" y="-124" font-family="FreeSans" font-size="10.00">../Util/SelFmt.h</text>
</a>
</g>
<!-- Node24&#45;&gt;Node26 -->
<g id="edge60" class="edge"><title>Node24&#45;&gt;Node26</title>
<path fill="none" stroke="midnightblue" d="M1260.38,-174.897C1255.16,-166.928 1247.73,-155.587 1241.41,-145.941"/>
<polygon fill="midnightblue" stroke="midnightblue" points="1244.21,-143.824 1235.8,-137.378 1238.35,-147.66 1244.21,-143.824"/>
</g>
<!-- Node26&#45;&gt;Node18 -->
<g id="edge62" class="edge"><title>Node26&#45;&gt;Node18</title>
<path fill="none" stroke="midnightblue" d="M1192.07,-116.897C1156.46,-107.155 1102.43,-92.3724 1063.82,-81.8085"/>
<polygon fill="midnightblue" stroke="midnightblue" points="1064.43,-78.3472 1053.86,-79.0842 1062.58,-85.0991 1064.43,-78.3472"/>
</g>
<!-- Node27&#45;&gt;Node18 -->
<g id="edge68" class="edge"><title>Node27&#45;&gt;Node18</title>
<path fill="none" stroke="midnightblue" d="M1108.03,-174.717C1098.98,-165.307 1085.37,-150.925 1074,-138 1059.21,-121.189 1043.01,-101.442 1031.68,-87.3906"/>
<polygon fill="midnightblue" stroke="midnightblue" points="1034.29,-85.0592 1025.3,-79.4546 1028.84,-89.4428 1034.29,-85.0592"/>
</g>
<!-- Node27&#45;&gt;Node26 -->
<g id="edge70" class="edge"><title>Node27&#45;&gt;Node26</title>
<path fill="none" stroke="midnightblue" d="M1137.33,-174.897C1154.82,-165.763 1180.77,-152.199 1200.61,-141.835"/>
<polygon fill="midnightblue" stroke="midnightblue" points="1202.27,-144.915 1209.51,-137.182 1199.03,-138.711 1202.27,-144.915"/>
</g>
<!-- Node28 -->
<g id="node61" class="node"><title>Node28</title>
<polygon fill="none" stroke="#bfbfbf" points="1082.5,-117 1082.5,-137 1171.5,-137 1171.5,-117 1082.5,-117"/>
<text text-anchor="middle" x="1127" y="-124" font-family="FreeSans" font-size="10.00">boost/format.hpp</text>
</g>
<!-- Node27&#45;&gt;Node28 -->
<g id="edge66" class="edge"><title>Node27&#45;&gt;Node28</title>
<path fill="none" stroke="midnightblue" d="M1119.57,-174.897C1120.74,-167.339 1122.38,-156.748 1123.83,-147.446"/>
<polygon fill="midnightblue" stroke="midnightblue" points="1127.31,-147.796 1125.39,-137.378 1120.4,-146.723 1127.31,-147.796"/>
</g>
<!-- Node32 -->
<g id="node73" class="node"><title>Node32</title>
<a xlink:href="_base_container_8h.html" target="_top" xlink:title="BaseContainer.h">
<polygon fill="none" stroke="black" points="651,-535 651,-555 739,-555 739,-535 651,-535"/>
<text text-anchor="middle" x="695" y="-542" font-family="FreeSans" font-size="10.00">BaseContainer.h</text>
</a>
</g>
<!-- Node31&#45;&gt;Node32 -->
<g id="edge82" class="edge"><title>Node31&#45;&gt;Node32</title>
<path fill="none" stroke="midnightblue" d="M695,-592.85C695,-584.518 695,-574.269 695,-565.396"/>
<polygon fill="midnightblue" stroke="midnightblue" points="698.5,-565.141 695,-555.141 691.5,-565.141 698.5,-565.141"/>
</g>
<!-- Node32&#45;&gt;Node16 -->
<g id="edge84" class="edge"><title>Node32&#45;&gt;Node16</title>
<path fill="none" stroke="midnightblue" d="M715.402,-534.956C761.044,-512.486 871.574,-458.071 925.042,-431.748"/>
<polygon fill="midnightblue" stroke="midnightblue" points="926.907,-434.731 934.333,-427.174 923.816,-428.451 926.907,-434.731"/>
</g>
<!-- Node33&#45;&gt;Node11 -->
<g id="edge88" class="edge"><title>Node33&#45;&gt;Node11</title>
<path fill="none" stroke="midnightblue" d="M566.662,-592.848C545.419,-570.043 511,-526.129 511,-481 511,-481 511,-481 511,-359 511,-308.452 455.654,-274.606 416.91,-257.107"/>
<polygon fill="midnightblue" stroke="midnightblue" points="418.029,-253.777 407.462,-253.01 415.244,-260.199 418.029,-253.777"/>
</g>
<!-- Node33&#45;&gt;Node32 -->
<g id="edge90" class="edge"><title>Node33&#45;&gt;Node32</title>
<path fill="none" stroke="midnightblue" d="M611.262,-592.85C628.759,-582.852 651.089,-570.092 668.289,-560.264"/>
<polygon fill="midnightblue" stroke="midnightblue" points="670.307,-563.141 677.253,-555.141 666.834,-557.064 670.307,-563.141"/>
</g>
<!-- Node34 -->
<g id="node80" class="node"><title>Node34</title>
<a xlink:href="_m_p_l_8h.html" target="_top" xlink:title="MPL.h">
<polygon fill="none" stroke="black" points="560.5,-535 560.5,-555 605.5,-555 605.5,-535 560.5,-535"/>
<text text-anchor="middle" x="583" y="-542" font-family="FreeSans" font-size="10.00">MPL.h</text>
</a>
</g>
<!-- Node33&#45;&gt;Node34 -->
<g id="edge92" class="edge"><title>Node33&#45;&gt;Node34</title>
<path fill="none" stroke="midnightblue" d="M583,-592.85C583,-584.518 583,-574.269 583,-565.396"/>
<polygon fill="midnightblue" stroke="midnightblue" points="586.5,-565.141 583,-555.141 579.5,-565.141 586.5,-565.141"/>
</g>
<!-- Node36 -->
<g id="node84" class="node"><title>Node36</title>
<a xlink:href="_base_text_8h.html" target="_top" xlink:title="BaseText.h">
<polygon fill="none" stroke="black" points="1014.5,-471 1014.5,-491 1079.5,-491 1079.5,-471 1014.5,-471"/>
<text text-anchor="middle" x="1047" y="-478" font-family="FreeSans" font-size="10.00">BaseText.h</text>
</a>
</g>
<!-- Node35&#45;&gt;Node36 -->
<g id="edge96" class="edge"><title>Node35&#45;&gt;Node36</title>
<path fill="none" stroke="midnightblue" d="M930.454,-592.929C942.072,-577.134 961.002,-552.742 980,-534 993.684,-520.5 1010.69,-507.084 1024.14,-497.128"/>
<polygon fill="midnightblue" stroke="midnightblue" points="1026.37,-499.833 1032.4,-491.119 1022.25,-494.173 1026.37,-499.833"/>
</g>
<!-- Node36&#45;&gt;Node16 -->
<g id="edge102" class="edge"><title>Node36&#45;&gt;Node16</title>
<path fill="none" stroke="midnightblue" d="M1032.22,-470.717C1017.51,-460.487 994.746,-444.649 977.737,-432.817"/>
<polygon fill="midnightblue" stroke="midnightblue" points="979.649,-429.884 969.441,-427.046 975.652,-435.63 979.649,-429.884"/>
</g>
<!-- Node36&#45;&gt;Node24 -->
<g id="edge100" class="edge"><title>Node36&#45;&gt;Node24</title>
<path fill="none" stroke="midnightblue" d="M1074.82,-470.882C1081.12,-468.605 1087.79,-466.209 1094,-464 1139.69,-447.753 1161.28,-460.799 1197,-428 1262.13,-368.197 1268.11,-252.097 1267.69,-205.289"/>
<polygon fill="midnightblue" stroke="midnightblue" points="1271.19,-205.122 1267.49,-195.194 1264.19,-205.262 1271.19,-205.122"/>
</g>
<!-- Node36&#45;&gt;Node27 -->
<g id="edge98" class="edge"><title>Node36&#45;&gt;Node27</title>
<path fill="none" stroke="midnightblue" d="M1045.99,-470.928C1042.92,-436 1036.13,-317.547 1075,-232 1080.18,-220.591 1089.2,-210.073 1097.65,-201.894"/>
<polygon fill="midnightblue" stroke="midnightblue" points="1100.09,-204.406 1105.11,-195.08 1095.37,-199.236 1100.09,-204.406"/>
</g>
<!-- Node37&#45;&gt;Node27 -->
<g id="edge106" class="edge"><title>Node37&#45;&gt;Node27</title>
<path fill="none" stroke="midnightblue" d="M1182.87,-464.859C1217.78,-445.133 1268,-408.21 1268,-359 1268,-359 1268,-359 1268,-301 1268,-268.383 1265.92,-255.202 1243,-232 1218.58,-207.285 1179.92,-195.4 1152.05,-189.793"/>
<polygon fill="midnightblue" stroke="midnightblue" points="1152.42,-186.303 1141.96,-187.938 1151.16,-193.187 1152.42,-186.303"/>
</g>
<!-- Node38 -->
<g id="node92" class="node"><title>Node38</title>
<a xlink:href="_background_8h.html" target="_top" xlink:title="Background.h">
<polygon fill="none" stroke="black" points="1112,-407 1112,-427 1188,-427 1188,-407 1112,-407"/>
<text text-anchor="middle" x="1150" y="-414" font-family="FreeSans" font-size="10.00">Background.h</text>
</a>
</g>
<!-- Node37&#45;&gt;Node38 -->
<g id="edge108" class="edge"><title>Node37&#45;&gt;Node38</title>
<path fill="none" stroke="midnightblue" d="M1150,-464.85C1150,-456.518 1150,-446.269 1150,-437.396"/>
<polygon fill="midnightblue" stroke="midnightblue" points="1153.5,-437.141 1150,-427.141 1146.5,-437.141 1153.5,-437.141"/>
</g>
<!-- Node38&#45;&gt;Node21 -->
<g id="edge110" class="edge"><title>Node38&#45;&gt;Node21</title>
<path fill="none" stroke="midnightblue" d="M1150,-406.897C1150,-399.339 1150,-388.748 1150,-379.446"/>
<polygon fill="midnightblue" stroke="midnightblue" points="1153.5,-379.378 1150,-369.378 1146.5,-379.378 1153.5,-379.378"/>
</g>
<!-- Node39&#45;&gt;Node5 -->
<g id="edge114" class="edge"><title>Node39&#45;&gt;Node5</title>
<path fill="none" stroke="midnightblue" d="M247.939,-406.706C267.166,-386.792 309.635,-342.807 333.28,-318.317"/>
<polygon fill="midnightblue" stroke="midnightblue" points="335.815,-320.731 340.243,-311.106 330.779,-315.868 335.815,-320.731"/>
</g>
<!-- Node40 -->
<g id="node98" class="node"><title>Node40</title>
<polygon fill="none" stroke="#bfbfbf" points="147,-349 147,-369 203,-369 203,-349 147,-349"/>
<text text-anchor="middle" x="175" y="-356" font-family="FreeSans" font-size="10.00">basedir.h</text>
</g>
<!-- Node39&#45;&gt;Node40 -->
<g id="edge116" class="edge"><title>Node39&#45;&gt;Node40</title>
<path fill="none" stroke="midnightblue" d="M227.026,-406.897C217.835,-398.435 204.514,-386.172 193.652,-376.172"/>
<polygon fill="midnightblue" stroke="midnightblue" points="196,-373.576 186.272,-369.378 191.259,-378.726 196,-373.576"/>
</g>
<!-- Node41 -->
<g id="node100" class="node"><title>Node41</title>
<a xlink:href="_o_s_8h.html" target="_top" xlink:title="OS.h">
<polygon fill="none" stroke="black" points="221,-349 221,-369 259,-369 259,-349 221,-349"/>
<text text-anchor="middle" x="240" y="-356" font-family="FreeSans" font-size="10.00">OS.h</text>
</a>
</g>
<!-- Node39&#45;&gt;Node41 -->
<g id="edge118" class="edge"><title>Node39&#45;&gt;Node41</title>
<path fill="none" stroke="midnightblue" d="M238.348,-406.897C238.609,-399.339 238.974,-388.748 239.295,-379.446"/>
<polygon fill="midnightblue" stroke="midnightblue" points="242.795,-379.492 239.642,-369.378 235.8,-379.251 242.795,-379.492"/>
</g>
<!-- Node41&#45;&gt;Node4 -->
<g id="edge126" class="edge"><title>Node41&#45;&gt;Node4</title>
<path fill="none" stroke="midnightblue" d="M248.709,-348.897C255.792,-340.682 265.963,-328.883 274.439,-319.051"/>
<polygon fill="midnightblue" stroke="midnightblue" points="277.175,-321.237 281.054,-311.378 271.873,-316.666 277.175,-321.237"/>
</g>
<!-- Node41&#45;&gt;Node5 -->
<g id="edge124" class="edge"><title>Node41&#45;&gt;Node5</title>
<path fill="none" stroke="midnightblue" d="M259.161,-348.897C276.405,-339.804 301.976,-326.322 321.598,-315.976"/>
<polygon fill="midnightblue" stroke="midnightblue" points="323.477,-318.942 330.69,-311.182 320.212,-312.75 323.477,-318.942"/>
</g>
<!-- Node41&#45;&gt;Node18 -->
<g id="edge130" class="edge"><title>Node41&#45;&gt;Node18</title>
<path fill="none" stroke="midnightblue" d="M240,-348.759C240,-328.541 240,-282.069 240,-243 240,-243 240,-243 240,-185 240,-112.333 778.469,-80.2635 958.886,-71.5577"/>
<polygon fill="midnightblue" stroke="midnightblue" points="959.159,-75.0488 968.982,-71.077 958.826,-68.0567 959.159,-75.0488"/>
</g>
<!-- Node42 -->
<g id="node102" class="node"><title>Node42</title>
<polygon fill="none" stroke="#bfbfbf" points="122,-291 122,-311 164,-311 164,-291 122,-291"/>
<text text-anchor="middle" x="143" y="-298" font-family="FreeSans" font-size="10.00">locale</text>
</g>
<!-- Node41&#45;&gt;Node42 -->
<g id="edge120" class="edge"><title>Node41&#45;&gt;Node42</title>
<path fill="none" stroke="midnightblue" d="M223.104,-348.897C208.174,-339.97 186.166,-326.811 168.994,-316.543"/>
<polygon fill="midnightblue" stroke="midnightblue" points="170.407,-313.31 160.028,-311.182 166.814,-319.318 170.407,-313.31"/>
</g>
<!-- Node43 -->
<g id="node104" class="node"><title>Node43</title>
<polygon fill="none" stroke="#bfbfbf" points="182,-291 182,-311 212,-311 212,-291 182,-291"/>
<text text-anchor="middle" x="197" y="-298" font-family="FreeSans" font-size="10.00">set</text>
</g>
<!-- Node41&#45;&gt;Node43 -->
<g id="edge122" class="edge"><title>Node41&#45;&gt;Node43</title>
<path fill="none" stroke="midnightblue" d="M232.51,-348.897C226.541,-340.846 218.02,-329.353 210.822,-319.643"/>
<polygon fill="midnightblue" stroke="midnightblue" points="213.461,-317.326 204.694,-311.378 207.838,-321.495 213.461,-317.326"/>
</g>
<!-- Node44 -->
<g id="node108" class="node"><title>Node44</title>
<polygon fill="none" stroke="#bfbfbf" points="-0.5,-291 -0.5,-311 104.5,-311 104.5,-291 -0.5,-291"/>
<text text-anchor="middle" x="52" y="-298" font-family="FreeSans" font-size="10.00">boost/filesystem.hpp</text>
</g>
<!-- Node41&#45;&gt;Node44 -->
<g id="edge128" class="edge"><title>Node41&#45;&gt;Node44</title>
<path fill="none" stroke="midnightblue" d="M220.803,-351.2C217.87,-350.083 214.866,-348.982 212,-348 174.681,-335.216 131.763,-322.727 99.777,-313.839"/>
<polygon fill="midnightblue" stroke="midnightblue" points="100.368,-310.371 89.7971,-311.084 98.5053,-317.119 100.368,-310.371"/>
</g>
<!-- Node46 -->
<g id="node113" class="node"><title>Node46</title>
<polygon fill="none" stroke="#bfbfbf" points="1023.5,-535 1023.5,-555 1124.5,-555 1124.5,-535 1023.5,-535"/>
<text text-anchor="middle" x="1074" y="-542" font-family="FreeSans" font-size="10.00">boost/log/trivial.hpp</text>
</g>
<!-- Node45&#45;&gt;Node46 -->
<g id="edge134" class="edge"><title>Node45&#45;&gt;Node46</title>
<path fill="none" stroke="midnightblue" d="M1074,-598.717C1074,-589.707 1074,-576.347 1074,-565.205"/>
<polygon fill="midnightblue" stroke="midnightblue" points="1077.5,-565.046 1074,-555.046 1070.5,-565.046 1077.5,-565.046"/>
</g>
<!-- Node48 -->
<g id="node117" class="node"><title>Node48</title>
<a xlink:href="_game_director_8h.html" target="_top" xlink:title="GameDirector.h">
<polygon fill="none" stroke="black" points="399,-535 399,-555 483,-555 483,-535 399,-535"/>
<text text-anchor="middle" x="441" y="-542" font-family="FreeSans" font-size="10.00">GameDirector.h</text>
</a>
</g>
<!-- Node47&#45;&gt;Node48 -->
<g id="edge138" class="edge"><title>Node47&#45;&gt;Node48</title>
<path fill="none" stroke="midnightblue" d="M441,-598.717C441,-589.707 441,-576.347 441,-565.205"/>
<polygon fill="midnightblue" stroke="midnightblue" points="444.5,-565.046 441,-555.046 437.5,-565.046 444.5,-565.046"/>
</g>
<!-- Node49 -->
<g id="node119" class="node"><title>Node49</title>
<a xlink:href="_form_scene_8h.html" target="_top" xlink:title="FormScene.h">
<polygon fill="none" stroke="black" points="307,-535 307,-555 381,-555 381,-535 307,-535"/>
<text text-anchor="middle" x="344" y="-542" font-family="FreeSans" font-size="10.00">FormScene.h</text>
</a>
</g>
<!-- Node47&#45;&gt;Node49 -->
<g id="edge140" class="edge"><title>Node47&#45;&gt;Node49</title>
<path fill="none" stroke="midnightblue" d="M425.415,-598.717C409.91,-588.487 385.906,-572.649 367.973,-560.817"/>
<polygon fill="midnightblue" stroke="midnightblue" points="369.501,-557.632 359.226,-555.046 365.646,-563.475 369.501,-557.632"/>
</g>
<!-- Node49&#45;&gt;Node10 -->
<g id="edge142" class="edge"><title>Node49&#45;&gt;Node10</title>
<path fill="none" stroke="midnightblue" d="M353.408,-534.975C361.364,-525.962 372.48,-512.022 379,-498 394.591,-464.47 398,-453.977 398,-417 398,-417 398,-417 398,-359 398,-327.192 396.495,-316.565 379,-290 364.913,-268.61 345.095,-277.085 334,-254 329.764,-245.187 327.416,-239.228 334,-232 365.473,-197.449 693.248,-187.851 802.089,-185.605"/>
<polygon fill="midnightblue" stroke="midnightblue" points="802.286,-189.102 812.214,-185.405 802.147,-182.104 802.286,-189.102"/>
</g>
<!-- Node50 -->
<g id="node122" class="node"><title>Node50</title>
<a xlink:href="_ui_scene_8h.html" target="_top" xlink:title="UiScene.h">
<polygon fill="none" stroke="black" points="308,-471 308,-491 370,-491 370,-471 308,-471"/>
<text text-anchor="middle" x="339" y="-478" font-family="FreeSans" font-size="10.00">UiScene.h</text>
</a>
</g>
<!-- Node49&#45;&gt;Node50 -->
<g id="edge144" class="edge"><title>Node49&#45;&gt;Node50</title>
<path fill="none" stroke="midnightblue" d="M343.197,-534.717C342.493,-525.707 341.449,-512.347 340.579,-501.205"/>
<polygon fill="midnightblue" stroke="midnightblue" points="344.053,-500.743 339.785,-491.046 337.074,-501.288 344.053,-500.743"/>
</g>
<!-- Node51 -->
<g id="node124" class="node"><title>Node51</title>
<a xlink:href="_scene_8h.html" target="_top" xlink:title="Scene.h">
<polygon fill="none" stroke="black" points="314,-407 314,-427 366,-427 366,-407 314,-407"/>
<text text-anchor="middle" x="340" y="-414" font-family="FreeSans" font-size="10.00">Scene.h</text>
</a>
</g>
<!-- Node50&#45;&gt;Node51 -->
<g id="edge146" class="edge"><title>Node50&#45;&gt;Node51</title>
<path fill="none" stroke="midnightblue" d="M339.161,-470.717C339.301,-461.707 339.51,-448.347 339.684,-437.205"/>
<polygon fill="midnightblue" stroke="midnightblue" points="343.186,-437.1 339.843,-427.046 336.187,-436.99 343.186,-437.1"/>
</g>
<!-- Node51&#45;&gt;Node41 -->
<g id="edge148" class="edge"><title>Node51&#45;&gt;Node41</title>
<path fill="none" stroke="midnightblue" d="M322.581,-406.897C307.047,-397.887 284.08,-384.567 266.308,-374.259"/>
<polygon fill="midnightblue" stroke="midnightblue" points="267.961,-371.171 257.555,-369.182 264.449,-377.227 267.961,-371.171"/>
</g>
</g>
</svg>
        <g id="navigator" transform="translate(0 0)" fill="#404254">
                <rect fill="#f2f5e9" fill-opacity="0.5" stroke="#606060" stroke-width=".5" x="0" y="0" width="60" height="60"/>
                <use id="zoomplus" xlink:href="#zoomPlus" x="17" y="9" onmousedown="handleZoom(evt,'in')"/>
                <use id="zoomminus" xlink:href="#zoomMin" x="42" y="9" onmousedown="handleZoom(evt,'out')"/>
                <use id="reset" xlink:href="#resetDef" x="30" y="36" onmousedown="handleReset()"/>
                <g id="arrowUp" xlink:href="#dirArrow" transform="translate(30 24)" onmousedown="handlePan(0,-1)">
                  <use xlink:href="#rim" fill="#404040">
                        <set attributeName="fill" to="#808080" begin="arrowUp.mouseover" end="arrowUp.mouseout"/>
                  </use>
                  <path fill="none" stroke="white" stroke-width="1.5" d="M0,-3.0v7 M-2.5,-0.5L0,-3.0L2.5,-0.5"/>
                </g>
                <g id="arrowRight" xlink:href="#dirArrow" transform="rotate(90) translate(36 -43)" onmousedown="handlePan(1,0)">
                  <use xlink:href="#rim" fill="#404040">
                        <set attributeName="fill" to="#808080" begin="arrowRight.mouseover" end="arrowRight.mouseout"/>
                  </use>
                  <path fill="none" stroke="white" stroke-width="1.5" d="M0,-3.0v7 M-2.5,-0.5L0,-3.0L2.5,-0.5"/>
                </g>
                <g id="arrowDown" xlink:href="#dirArrow" transform="rotate(180) translate(-30 -48)" onmousedown="handlePan(0,1)">
                  <use xlink:href="#rim" fill="#404040">
                        <set attributeName="fill" to="#808080" begin="arrowDown.mouseover" end="arrowDown.mouseout"/>
                  </use>
                  <path fill="none" stroke="white" stroke-width="1.5" d="M0,-3.0v7 M-2.5,-0.5L0,-3.0L2.5,-0.5"/>
                </g>
                <g id="arrowLeft" xlink:href="#dirArrow" transform="rotate(270) translate(-36 17)" onmousedown="handlePan(-1,0)">
                  <use xlink:href="#rim" fill="#404040">
                        <set attributeName="fill" to="#808080" begin="arrowLeft.mouseover" end="arrowLeft.mouseout"/>
                  </use>
                  <path fill="none" stroke="white" stroke-width="1.5" d="M0,-3.0v7 M-2.5,-0.5L0,-3.0L2.5,-0.5"/>
                </g>
        </g>
        <svg viewBox="0 0 15 15" width="100%" height="30px" preserveAspectRatio="xMaxYMin meet">
         <g id="arrow_out" transform="scale(0.3 0.3)">
          <a xlink:href="_dialog_scene_8cpp__incl_org.svg" target="_base">
           <rect id="button" ry="5" rx="5" y="6" x="6" height="38" width="38"
                fill="#f2f5e9" fill-opacity="0.5" stroke="#606060" stroke-width="1.0"/>
           <path id="arrow"
             d="M 11.500037,31.436501 C 11.940474,20.09759 22.043105,11.32322 32.158766,21.979434 L 37.068811,17.246167 C 37.068811,17.246167 37.088388,32 37.088388,32 L 22.160133,31.978069 C 22.160133,31.978069 26.997745,27.140456 26.997745,27.140456 C 18.528582,18.264221 13.291696,25.230495 11.500037,31.436501 z"
             style="fill:#404040;"/>
          </a>
         </g>
        </svg>
</svg>
