<?xml version="1.0" encoding="UTF-8" standalone="no"?>
<!DOCTYPE svg PUBLIC "-//W3C//DTD SVG 1.1//EN"
 "http://www.w3.org/Graphics/SVG/1.1/DTD/svg11.dtd">
<!-- Generated by graphviz version 2.38.0 (20140413.2041)
 -->
<!-- Title: DialogScene.cpp Pages: 1 -->
<svg width="1325pt" height="666pt"
 viewBox="0.00 0.00 1325.00 666.00" xmlns="http://www.w3.org/2000/svg" xmlns:xlink="http://www.w3.org/1999/xlink">
<g id="graph0" class="graph" transform="scale(1 1) rotate(0) translate(4 662)">
<title>DialogScene.cpp</title>
<!-- Node1 -->
<g id="node1" class="node"><title>Node1</title>
<polygon fill="#bfbfbf" stroke="black" points="830.5,-638.5 830.5,-657.5 927.5,-657.5 927.5,-638.5 830.5,-638.5"/>
<text text-anchor="middle" x="879" y="-645.5" font-family="FreeSans" font-size="10.00">DialogScene.cpp</text>
</g>
<!-- Node2 -->
<g id="node2" class="node"><title>Node2</title>
<g id="a_node2"><a xlink:href="_action_button_8h.html" target="_top" xlink:title="../../engine/Display\l/ActionButton.h">
<polygon fill="none" stroke="black" points="540,-571.5 540,-601.5 644,-601.5 644,-571.5 540,-571.5"/>
<text text-anchor="start" x="548" y="-589.5" font-family="FreeSans" font-size="10.00">../../engine/Display</text>
<text text-anchor="middle" x="592" y="-578.5" font-family="FreeSans" font-size="10.00">/ActionButton.h</text>
</a>
</g>
</g>
<!-- Node1&#45;&gt;Node2 -->
<g id="edge1" class="edge"><title>Node1&#45;&gt;Node2</title>
<path fill="none" stroke="midnightblue" d="M833.446,-638.44C789.873,-630.138 722.069,-616.923 654.222,-602.224"/>
<polygon fill="midnightblue" stroke="midnightblue" points="654.73,-598.753 644.215,-600.045 653.241,-605.593 654.73,-598.753"/>
</g>
<!-- Node31 -->
<g id="node31" class="node"><title>Node31</title>
<g id="a_node31"><a xlink:href="_container_8h.html" target="_top" xlink:title="../../engine/Display\l/Container.h">
<polygon fill="none" stroke="black" points="888,-571.5 888,-601.5 992,-601.5 992,-571.5 888,-571.5"/>
<text text-anchor="start" x="896" y="-589.5" font-family="FreeSans" font-size="10.00">../../engine/Display</text>
<text text-anchor="middle" x="940" y="-578.5" font-family="FreeSans" font-size="10.00">/Container.h</text>
</a>
</g>
</g>
<!-- Node1&#45;&gt;Node31 -->
<g id="edge40" class="edge"><title>Node1&#45;&gt;Node31</title>
<path fill="none" stroke="midnightblue" d="M887.74,-638.475C895.693,-630.718 907.764,-618.943 918.302,-608.665"/>
<polygon fill="midnightblue" stroke="midnightblue" points="920.909,-611.011 925.624,-601.523 916.021,-606 920.909,-611.011"/>
</g>
<!-- Node33 -->
<g id="node33" class="node"><title>Node33</title>
<g id="a_node33"><a xlink:href="_flex_grid_8h.html" target="_top" xlink:title="../../engine/Display\l/FlexGrid.h">
<polygon fill="none" stroke="black" points="766,-571.5 766,-601.5 870,-601.5 870,-571.5 766,-571.5"/>
<text text-anchor="start" x="774" y="-589.5" font-family="FreeSans" font-size="10.00">../../engine/Display</text>
<text text-anchor="middle" x="818" y="-578.5" font-family="FreeSans" font-size="10.00">/FlexGrid.h</text>
</a>
</g>
</g>
<!-- Node1&#45;&gt;Node33 -->
<g id="edge43" class="edge"><title>Node1&#45;&gt;Node33</title>
<path fill="none" stroke="midnightblue" d="M870.26,-638.475C862.307,-630.718 850.236,-618.943 839.698,-608.665"/>
<polygon fill="midnightblue" stroke="midnightblue" points="841.979,-606 832.376,-601.523 837.091,-611.011 841.979,-606"/>
</g>
<!-- Node35 -->
<g id="node35" class="node"><title>Node35</title>
<g id="a_node35"><a xlink:href="_label_8h.html" target="_top" xlink:title="../../engine/Display\l/Label.h">
<polygon fill="none" stroke="black" points="1010,-571.5 1010,-601.5 1114,-601.5 1114,-571.5 1010,-571.5"/>
<text text-anchor="start" x="1018" y="-589.5" font-family="FreeSans" font-size="10.00">../../engine/Display</text>
<text text-anchor="middle" x="1062" y="-578.5" font-family="FreeSans" font-size="10.00">/Label.h</text>
</a>
</g>
</g>
<!-- Node1&#45;&gt;Node35 -->
<g id="edge47" class="edge"><title>Node1&#45;&gt;Node35</title>
<path fill="none" stroke="midnightblue" d="M905.219,-638.475C932.205,-629.701 974.997,-615.788 1009.06,-604.712"/>
<polygon fill="midnightblue" stroke="midnightblue" points="1010.44,-607.944 1018.87,-601.523 1008.28,-601.287 1010.44,-607.944"/>
</g>
<!-- Node37 -->
<g id="node37" class="node"><title>Node37</title>
<g id="a_node37"><a xlink:href="_screen_fade_8h.html" target="_top" xlink:title="../../engine/Display\l/ScreenFade.h">
<polygon fill="none" stroke="black" points="1099,-448.5 1099,-478.5 1203,-478.5 1203,-448.5 1099,-448.5"/>
<text text-anchor="start" x="1107" y="-466.5" font-family="FreeSans" font-size="10.00">../../engine/Display</text>
<text text-anchor="middle" x="1151" y="-455.5" font-family="FreeSans" font-size="10.00">/ScreenFade.h</text>
</a>
</g>
</g>
<!-- Node1&#45;&gt;Node37 -->
<g id="edge52" class="edge"><title>Node1&#45;&gt;Node37</title>
<path fill="none" stroke="midnightblue" d="M927.667,-644.343C990.765,-639.866 1095.95,-628.555 1123,-602 1153.19,-572.361 1155.31,-519.654 1153.54,-488.819"/>
<polygon fill="midnightblue" stroke="midnightblue" points="1157.01,-488.239 1152.76,-478.532 1150.03,-488.768 1157.01,-488.239"/>
</g>
<!-- Node39 -->
<g id="node39" class="node"><title>Node39</title>
<g id="a_node39"><a xlink:href="_config_8h.html" target="_top" xlink:title="../../engine/Util/Config.h">
<polygon fill="none" stroke="black" points="374,-577 374,-596 502,-596 502,-577 374,-577"/>
<text text-anchor="middle" x="438" y="-584" font-family="FreeSans" font-size="10.00">../../engine/Util/Config.h</text>
</a>
</g>
</g>
<!-- Node1&#45;&gt;Node39 -->
<g id="edge56" class="edge"><title>Node1&#45;&gt;Node39</title>
<path fill="none" stroke="midnightblue" d="M830.245,-641.102C762.888,-632.862 637.597,-617.199 531,-602 521.294,-600.616 511.028,-599.084 501,-597.55"/>
<polygon fill="midnightblue" stroke="midnightblue" points="501.496,-594.085 491.079,-596.02 500.429,-601.003 501.496,-594.085"/>
</g>
<!-- Node45 -->
<g id="node45" class="node"><title>Node45</title>
<g id="a_node45"><a xlink:href="_log_8h.html" target="_top" xlink:title="../../engine/Util/Log.h">
<polygon fill="none" stroke="black" points="1170.5,-577 1170.5,-596 1285.5,-596 1285.5,-577 1170.5,-577"/>
<text text-anchor="middle" x="1228" y="-584" font-family="FreeSans" font-size="10.00">../../engine/Util/Log.h</text>
</a>
</g>
</g>
<!-- Node1&#45;&gt;Node45 -->
<g id="edge65" class="edge"><title>Node1&#45;&gt;Node45</title>
<path fill="none" stroke="midnightblue" d="M927.632,-639.667C983.021,-631.184 1076.19,-616.514 1156,-602 1162.74,-600.774 1169.83,-599.423 1176.82,-598.055"/>
<polygon fill="midnightblue" stroke="midnightblue" points="1177.8,-601.427 1186.93,-596.049 1176.44,-594.561 1177.8,-601.427"/>
</g>
<!-- Node47 -->
<g id="node47" class="node"><title>Node47</title>
<g id="a_node47"><a xlink:href="_dialog_scene_8h.html" target="_top" xlink:title="DialogScene.h">
<polygon fill="none" stroke="black" points="662,-577 662,-596 748,-596 748,-577 662,-577"/>
<text text-anchor="middle" x="705" y="-584" font-family="FreeSans" font-size="10.00">DialogScene.h</text>
</a>
</g>
</g>
<!-- Node1&#45;&gt;Node47 -->
<g id="edge67" class="edge"><title>Node1&#45;&gt;Node47</title>
<path fill="none" stroke="midnightblue" d="M854.07,-638.475C823.964,-628.18 773.168,-610.81 739.362,-599.25"/>
<polygon fill="midnightblue" stroke="midnightblue" points="740.478,-595.933 729.884,-596.009 738.213,-602.556 740.478,-595.933"/>
</g>
<!-- Node3 -->
<g id="node3" class="node"><title>Node3</title>
<g id="a_node3"><a xlink:href="_controller_8h.html" target="_top" xlink:title="../Control/Controller.h">
<polygon fill="none" stroke="black" points="162,-336.5 162,-355.5 280,-355.5 280,-336.5 162,-336.5"/>
<text text-anchor="middle" x="221" y="-343.5" font-family="FreeSans" font-size="10.00">../Control/Controller.h</text>
</a>
</g>
</g>
<!-- Node2&#45;&gt;Node3 -->
<g id="edge2" class="edge"><title>Node2&#45;&gt;Node3</title>
<path fill="none" stroke="midnightblue" d="M562.634,-571.375C543.13,-561.712 517.138,-548.29 495,-535 396.207,-475.689 284.776,-394.483 240.57,-361.655"/>
<polygon fill="midnightblue" stroke="midnightblue" points="242.527,-358.749 232.417,-355.582 238.345,-364.363 242.527,-358.749"/>
</g>
<!-- Node14 -->
<g id="node14" class="node"><title>Node14</title>
<g id="a_node14"><a xlink:href="_button_8h.html" target="_top" xlink:title="Button.h">
<polygon fill="none" stroke="black" points="602,-515.5 602,-534.5 660,-534.5 660,-515.5 602,-515.5"/>
<text text-anchor="middle" x="631" y="-522.5" font-family="FreeSans" font-size="10.00">Button.h</text>
</a>
</g>
</g>
<!-- Node2&#45;&gt;Node14 -->
<g id="edge14" class="edge"><title>Node2&#45;&gt;Node14</title>
<path fill="none" stroke="midnightblue" d="M601.242,-571.399C606.793,-562.932 613.893,-552.099 619.766,-543.139"/>
<polygon fill="midnightblue" stroke="midnightblue" points="622.77,-544.94 625.325,-534.658 616.916,-541.103 622.77,-544.94"/>
</g>
<!-- Node4 -->
<g id="node4" class="node"><title>Node4</title>
<polygon fill="none" stroke="#bfbfbf" points="232.5,-280.5 232.5,-299.5 279.5,-299.5 279.5,-280.5 232.5,-280.5"/>
<text text-anchor="middle" x="256" y="-287.5" font-family="FreeSans" font-size="10.00">vector</text>
</g>
<!-- Node3&#45;&gt;Node4 -->
<g id="edge3" class="edge"><title>Node3&#45;&gt;Node4</title>
<path fill="none" stroke="midnightblue" d="M226.78,-336.083C231.672,-328.534 238.827,-317.495 244.833,-308.23"/>
<polygon fill="midnightblue" stroke="midnightblue" points="247.826,-310.046 250.328,-299.751 241.952,-306.239 247.826,-310.046"/>
</g>
<!-- Node5 -->
<g id="node5" class="node"><title>Node5</title>
<polygon fill="none" stroke="#bfbfbf" points="298,-280.5 298,-299.5 342,-299.5 342,-280.5 298,-280.5"/>
<text text-anchor="middle" x="320" y="-287.5" font-family="FreeSans" font-size="10.00">string</text>
</g>
<!-- Node3&#45;&gt;Node5 -->
<g id="edge4" class="edge"><title>Node3&#45;&gt;Node5</title>
<path fill="none" stroke="midnightblue" d="M236.906,-336.324C252.638,-327.743 276.942,-314.486 295.209,-304.522"/>
<polygon fill="midnightblue" stroke="midnightblue" points="297.03,-307.516 304.133,-299.655 293.678,-301.37 297.03,-307.516"/>
</g>
<!-- Node6 -->
<g id="node6" class="node"><title>Node6</title>
<polygon fill="none" stroke="#bfbfbf" points="66,-280.5 66,-299.5 140,-299.5 140,-280.5 66,-280.5"/>
<text text-anchor="middle" x="103" y="-287.5" font-family="FreeSans" font-size="10.00">SDL2/SDL.h</text>
</g>
<!-- Node3&#45;&gt;Node6 -->
<g id="edge5" class="edge"><title>Node3&#45;&gt;Node6</title>
<path fill="none" stroke="midnightblue" d="M202.303,-336.444C183.056,-327.636 152.848,-313.812 130.8,-303.722"/>
<polygon fill="midnightblue" stroke="midnightblue" points="132.16,-300.495 121.61,-299.516 129.247,-306.86 132.16,-300.495"/>
</g>
<!-- Node7 -->
<g id="node7" class="node"><title>Node7</title>
<g id="a_node7"><a xlink:href="_action_8h.html" target="_top" xlink:title="Action.h">
<polygon fill="none" stroke="black" points="158,-280.5 158,-299.5 214,-299.5 214,-280.5 158,-280.5"/>
<text text-anchor="middle" x="186" y="-287.5" font-family="FreeSans" font-size="10.00">Action.h</text>
</a>
</g>
</g>
<!-- Node3&#45;&gt;Node7 -->
<g id="edge6" class="edge"><title>Node3&#45;&gt;Node7</title>
<path fill="none" stroke="midnightblue" d="M215.22,-336.083C210.328,-328.534 203.173,-317.495 197.167,-308.23"/>
<polygon fill="midnightblue" stroke="midnightblue" points="200.048,-306.239 191.672,-299.751 194.174,-310.046 200.048,-306.239"/>
</g>
<!-- Node13 -->
<g id="node13" class="node"><title>Node13</title>
<g id="a_node13"><a xlink:href="_control_action_8h.html" target="_top" xlink:title="ControlAction.h">
<polygon fill="none" stroke="black" points="0,-224.5 0,-243.5 90,-243.5 90,-224.5 0,-224.5"/>
<text text-anchor="middle" x="45" y="-231.5" font-family="FreeSans" font-size="10.00">ControlAction.h</text>
</a>
</g>
</g>
<!-- Node3&#45;&gt;Node13 -->
<g id="edge13" class="edge"><title>Node3&#45;&gt;Node13</title>
<path fill="none" stroke="midnightblue" d="M161.795,-343.805C126.462,-339.857 83.4584,-328.816 57,-300 45.7316,-287.728 43.385,-268.469 43.4647,-254.095"/>
<polygon fill="midnightblue" stroke="midnightblue" points="46.9729,-253.989 43.9248,-243.842 39.98,-253.675 46.9729,-253.989"/>
</g>
<!-- Node8 -->
<g id="node8" class="node"><title>Node8</title>
<polygon fill="none" stroke="#bfbfbf" points="114.5,-224.5 114.5,-243.5 233.5,-243.5 233.5,-224.5 114.5,-224.5"/>
<text text-anchor="middle" x="174" y="-231.5" font-family="FreeSans" font-size="10.00">SDL2/SDL_keycode.h</text>
</g>
<!-- Node7&#45;&gt;Node8 -->
<g id="edge7" class="edge"><title>Node7&#45;&gt;Node8</title>
<path fill="none" stroke="midnightblue" d="M184.018,-280.083C182.428,-272.927 180.141,-262.635 178.154,-253.691"/>
<polygon fill="midnightblue" stroke="midnightblue" points="181.531,-252.754 175.945,-243.751 174.697,-254.272 181.531,-252.754"/>
</g>
<!-- Node9 -->
<g id="node9" class="node"><title>Node9</title>
<polygon fill="none" stroke="#bfbfbf" points="252,-224.5 252,-243.5 364,-243.5 364,-224.5 252,-224.5"/>
<text text-anchor="middle" x="308" y="-231.5" font-family="FreeSans" font-size="10.00">SDL2/SDL_mouse.h</text>
</g>
<!-- Node7&#45;&gt;Node9 -->
<g id="edge8" class="edge"><title>Node7&#45;&gt;Node9</title>
<path fill="none" stroke="midnightblue" d="M205.331,-280.444C225.32,-271.596 256.743,-257.687 279.564,-247.586"/>
<polygon fill="midnightblue" stroke="midnightblue" points="281.032,-250.764 288.759,-243.516 278.198,-244.363 281.032,-250.764"/>
</g>
<!-- Node10 -->
<g id="node10" class="node"><title>Node10</title>
<g id="a_node10"><a xlink:href="_vec_8h.html" target="_top" xlink:title="../Vec.h">
<polygon fill="none" stroke="black" points="772,-168.5 772,-187.5 824,-187.5 824,-168.5 772,-168.5"/>
<text text-anchor="middle" x="798" y="-175.5" font-family="FreeSans" font-size="10.00">../Vec.h</text>
</a>
</g>
</g>
<!-- Node7&#45;&gt;Node10 -->
<g id="edge9" class="edge"><title>Node7&#45;&gt;Node10</title>
<path fill="none" stroke="midnightblue" d="M214.215,-281.809C217.172,-281.154 220.141,-280.536 223,-280 342.422,-257.61 374.277,-264.718 494,-244 591.375,-227.149 704.976,-201.151 761.776,-187.711"/>
<polygon fill="midnightblue" stroke="midnightblue" points="762.784,-191.069 771.704,-185.352 761.166,-184.258 762.784,-191.069"/>
</g>
<!-- Node11 -->
<g id="node11" class="node"><title>Node11</title>
<g id="a_node11"><a xlink:href="_exception_8h.html" target="_top" xlink:title="../Exception.h">
<polygon fill="none" stroke="black" points="404.5,-224.5 404.5,-243.5 485.5,-243.5 485.5,-224.5 404.5,-224.5"/>
<text text-anchor="middle" x="445" y="-231.5" font-family="FreeSans" font-size="10.00">../Exception.h</text>
</a>
</g>
</g>
<!-- Node7&#45;&gt;Node11 -->
<g id="edge10" class="edge"><title>Node7&#45;&gt;Node11</title>
<path fill="none" stroke="midnightblue" d="M214.256,-282.008C217.205,-281.314 220.161,-280.633 223,-280 281.701,-266.916 349.495,-253.405 394.568,-244.647"/>
<polygon fill="midnightblue" stroke="midnightblue" points="395.239,-248.082 404.391,-242.743 393.907,-241.21 395.239,-248.082"/>
</g>
<!-- Node7&#45;&gt;Node13 -->
<g id="edge12" class="edge"><title>Node7&#45;&gt;Node13</title>
<path fill="none" stroke="midnightblue" d="M163.658,-280.444C140.247,-271.478 103.264,-257.314 76.8104,-247.183"/>
<polygon fill="midnightblue" stroke="midnightblue" points="77.8277,-243.824 67.2373,-243.516 75.3241,-250.361 77.8277,-243.824"/>
</g>
<!-- Node12 -->
<g id="node12" class="node"><title>Node12</title>
<polygon fill="none" stroke="#bfbfbf" points="413.5,-168.5 413.5,-187.5 476.5,-187.5 476.5,-168.5 413.5,-168.5"/>
<text text-anchor="middle" x="445" y="-175.5" font-family="FreeSans" font-size="10.00">exception</text>
</g>
<!-- Node11&#45;&gt;Node12 -->
<g id="edge11" class="edge"><title>Node11&#45;&gt;Node12</title>
<path fill="none" stroke="midnightblue" d="M445,-224.083C445,-217.006 445,-206.861 445,-197.986"/>
<polygon fill="midnightblue" stroke="midnightblue" points="448.5,-197.751 445,-187.751 441.5,-197.751 448.5,-197.751"/>
</g>
<!-- Node15 -->
<g id="node15" class="node"><title>Node15</title>
<g id="a_node15"><a xlink:href="_click_region_8h.html" target="_top" xlink:title="ClickRegion.h">
<polygon fill="none" stroke="black" points="828.5,-454 828.5,-473 907.5,-473 907.5,-454 828.5,-454"/>
<text text-anchor="middle" x="868" y="-461" font-family="FreeSans" font-size="10.00">ClickRegion.h</text>
</a>
</g>
</g>
<!-- Node14&#45;&gt;Node15 -->
<g id="edge15" class="edge"><title>Node14&#45;&gt;Node15</title>
<path fill="none" stroke="midnightblue" d="M660.061,-516.704C701.142,-506.39 776.51,-487.469 824.34,-475.461"/>
<polygon fill="midnightblue" stroke="midnightblue" points="825.26,-478.839 834.107,-473.009 823.555,-472.049 825.26,-478.839"/>
</g>
<!-- Node16 -->
<g id="node16" class="node"><title>Node16</title>
<g id="a_node16"><a xlink:href="_ui_view_model_8h.html" target="_top" xlink:title="UiViewModel.h">
<polygon fill="none" stroke="black" points="900,-392.5 900,-411.5 986,-411.5 986,-392.5 900,-392.5"/>
<text text-anchor="middle" x="943" y="-399.5" font-family="FreeSans" font-size="10.00">UiViewModel.h</text>
</a>
</g>
</g>
<!-- Node15&#45;&gt;Node16 -->
<g id="edge16" class="edge"><title>Node15&#45;&gt;Node16</title>
<path fill="none" stroke="midnightblue" d="M878.746,-453.975C890.553,-444.608 909.743,-429.384 924.082,-418.008"/>
<polygon fill="midnightblue" stroke="midnightblue" points="926.615,-420.466 932.274,-411.509 922.265,-414.982 926.615,-420.466"/>
</g>
<!-- Node16&#45;&gt;Node10 -->
<g id="edge20" class="edge"><title>Node16&#45;&gt;Node10</title>
<path fill="none" stroke="midnightblue" d="M899.707,-397.126C871.649,-392.207 836.767,-381.087 817,-356 780.224,-309.327 787.971,-232.922 794.108,-197.771"/>
<polygon fill="midnightblue" stroke="midnightblue" points="797.625,-198.013 796.061,-187.535 790.749,-196.701 797.625,-198.013"/>
</g>
<!-- Node17 -->
<g id="node17" class="node"><title>Node17</title>
<g id="a_node17"><a xlink:href="_nav_8h.html" target="_top" xlink:title="../Control/Nav.h">
<polygon fill="none" stroke="black" points="826,-336.5 826,-355.5 916,-355.5 916,-336.5 826,-336.5"/>
<text text-anchor="middle" x="871" y="-343.5" font-family="FreeSans" font-size="10.00">../Control/Nav.h</text>
</a>
</g>
</g>
<!-- Node16&#45;&gt;Node17 -->
<g id="edge17" class="edge"><title>Node16&#45;&gt;Node17</title>
<path fill="none" stroke="midnightblue" d="M931.432,-392.324C920.58,-384.185 904.119,-371.839 891.117,-362.087"/>
<polygon fill="midnightblue" stroke="midnightblue" points="892.879,-359.034 882.779,-355.834 888.679,-364.634 892.879,-359.034"/>
</g>
<!-- Node18 -->
<g id="node18" class="node"><title>Node18</title>
<g id="a_node18"><a xlink:href="_m_r___types_8h.html" target="_top" xlink:title="../Util/MR_Types.h">
<polygon fill="none" stroke="black" points="899.5,-56.5 899.5,-75.5 998.5,-75.5 998.5,-56.5 899.5,-56.5"/>
<text text-anchor="middle" x="949" y="-63.5" font-family="FreeSans" font-size="10.00">../Util/MR_Types.h</text>
</a>
</g>
</g>
<!-- Node16&#45;&gt;Node18 -->
<g id="edge18" class="edge"><title>Node16&#45;&gt;Node18</title>
<path fill="none" stroke="midnightblue" d="M940.643,-392.237C934.411,-368.562 917.597,-301.238 912,-244 911.135,-235.153 910.974,-232.829 912,-224 917.935,-172.943 934.38,-114.39 943.213,-85.3382"/>
<polygon fill="midnightblue" stroke="midnightblue" points="946.575,-86.313 946.188,-75.7253 939.888,-84.2436 946.575,-86.313"/>
</g>
<!-- Node20 -->
<g id="node20" class="node"><title>Node20</title>
<g id="a_node20"><a xlink:href="_ui_layout_flags_8h.html" target="_top" xlink:title="UiLayoutFlags.h">
<polygon fill="none" stroke="black" points="921,-224.5 921,-243.5 1013,-243.5 1013,-224.5 921,-224.5"/>
<text text-anchor="middle" x="967" y="-231.5" font-family="FreeSans" font-size="10.00">UiLayoutFlags.h</text>
</a>
</g>
</g>
<!-- Node16&#45;&gt;Node20 -->
<g id="edge21" class="edge"><title>Node16&#45;&gt;Node20</title>
<path fill="none" stroke="midnightblue" d="M946.653,-392.212C950.197,-383.267 955.408,-368.919 958,-356 965.157,-320.324 966.754,-277.704 967.035,-253.753"/>
<polygon fill="midnightblue" stroke="midnightblue" points="970.535,-253.624 967.086,-243.607 963.535,-253.589 970.535,-253.624"/>
</g>
<!-- Node21 -->
<g id="node21" class="node"><title>Node21</title>
<g id="a_node21"><a xlink:href="_view_model_8h.html" target="_top" xlink:title="ViewModel.h">
<polygon fill="none" stroke="black" points="1113,-336.5 1113,-355.5 1189,-355.5 1189,-336.5 1113,-336.5"/>
<text text-anchor="middle" x="1151" y="-343.5" font-family="FreeSans" font-size="10.00">ViewModel.h</text>
</a>
</g>
</g>
<!-- Node16&#45;&gt;Node21 -->
<g id="edge23" class="edge"><title>Node16&#45;&gt;Node21</title>
<path fill="none" stroke="midnightblue" d="M975.958,-392.444C1011.79,-383.142 1069.16,-368.246 1108.39,-358.062"/>
<polygon fill="midnightblue" stroke="midnightblue" points="1109.4,-361.417 1118.2,-355.516 1107.64,-354.642 1109.4,-361.417"/>
</g>
<!-- Node19 -->
<g id="node19" class="node"><title>Node19</title>
<polygon fill="none" stroke="#bfbfbf" points="917,-0.5 917,-19.5 981,-19.5 981,-0.5 917,-0.5"/>
<text text-anchor="middle" x="949" y="-7.5" font-family="FreeSans" font-size="10.00">inttypes.h</text>
</g>
<!-- Node18&#45;&gt;Node19 -->
<g id="edge19" class="edge"><title>Node18&#45;&gt;Node19</title>
<path fill="none" stroke="midnightblue" d="M949,-56.083C949,-49.0059 949,-38.8611 949,-29.9865"/>
<polygon fill="midnightblue" stroke="midnightblue" points="952.5,-29.751 949,-19.7511 945.5,-29.7511 952.5,-29.751"/>
</g>
<!-- Node20&#45;&gt;Node18 -->
<g id="edge22" class="edge"><title>Node20&#45;&gt;Node18</title>
<path fill="none" stroke="midnightblue" d="M966.032,-224.075C963.199,-197.945 954.878,-121.211 951.014,-85.577"/>
<polygon fill="midnightblue" stroke="midnightblue" points="954.487,-85.1325 949.929,-75.5681 947.528,-85.8872 954.487,-85.1325"/>
</g>
<!-- Node22 -->
<g id="node22" class="node"><title>Node22</title>
<g id="a_node22"><a xlink:href="_display_8h.html" target="_top" xlink:title="Display.h">
<polygon fill="none" stroke="black" points="1067.5,-280.5 1067.5,-299.5 1126.5,-299.5 1126.5,-280.5 1067.5,-280.5"/>
<text text-anchor="middle" x="1097" y="-287.5" font-family="FreeSans" font-size="10.00">Display.h</text>
</a>
</g>
</g>
<!-- Node21&#45;&gt;Node22 -->
<g id="edge24" class="edge"><title>Node21&#45;&gt;Node22</title>
<path fill="none" stroke="midnightblue" d="M1142.08,-336.083C1134.22,-328.22 1122.57,-316.569 1113.08,-307.081"/>
<polygon fill="midnightblue" stroke="midnightblue" points="1115.3,-304.347 1105.75,-299.751 1110.35,-309.297 1115.3,-304.347"/>
</g>
<!-- Node29 -->
<g id="node29" class="node"><title>Node29</title>
<g id="a_node29"><a xlink:href="_view_attacher_8h.html" target="_top" xlink:title="ViewAttacher.h">
<polygon fill="none" stroke="black" points="1143,-224.5 1143,-243.5 1231,-243.5 1231,-224.5 1143,-224.5"/>
<text text-anchor="middle" x="1187" y="-231.5" font-family="FreeSans" font-size="10.00">ViewAttacher.h</text>
</a>
</g>
</g>
<!-- Node21&#45;&gt;Node29 -->
<g id="edge39" class="edge"><title>Node21&#45;&gt;Node29</title>
<path fill="none" stroke="midnightblue" d="M1153.82,-336.368C1159.66,-318.537 1173.16,-277.295 1181.02,-253.272"/>
<polygon fill="midnightblue" stroke="midnightblue" points="1184.4,-254.184 1184.19,-243.591 1177.75,-252.007 1184.4,-254.184"/>
</g>
<!-- Node30 -->
<g id="node30" class="node"><title>Node30</title>
<g id="a_node30"><a xlink:href="_view_8h.html" target="_top" xlink:title="View.h">
<polygon fill="none" stroke="black" points="1183.5,-280.5 1183.5,-299.5 1230.5,-299.5 1230.5,-280.5 1183.5,-280.5"/>
<text text-anchor="middle" x="1207" y="-287.5" font-family="FreeSans" font-size="10.00">View.h</text>
</a>
</g>
</g>
<!-- Node21&#45;&gt;Node30 -->
<g id="edge38" class="edge"><title>Node21&#45;&gt;Node30</title>
<path fill="none" stroke="midnightblue" d="M1160,-336.324C1168.19,-328.42 1180.51,-316.548 1190.47,-306.938"/>
<polygon fill="midnightblue" stroke="midnightblue" points="1193.07,-309.295 1197.84,-299.834 1188.21,-304.256 1193.07,-309.295"/>
</g>
<!-- Node22&#45;&gt;Node10 -->
<g id="edge25" class="edge"><title>Node22&#45;&gt;Node10</title>
<path fill="none" stroke="midnightblue" d="M1067.38,-284.429C1030.18,-278.098 964.832,-265.004 912,-244 877.729,-230.375 841.218,-207.992 819.002,-193.374"/>
<polygon fill="midnightblue" stroke="midnightblue" points="820.665,-190.275 810.405,-187.633 816.777,-196.097 820.665,-190.275"/>
</g>
<!-- Node22&#45;&gt;Node20 -->
<g id="edge36" class="edge"><title>Node22&#45;&gt;Node20</title>
<path fill="none" stroke="midnightblue" d="M1076.4,-280.444C1055.01,-271.557 1021.32,-257.563 996.976,-247.451"/>
<polygon fill="midnightblue" stroke="midnightblue" points="998.08,-244.12 987.503,-243.516 995.395,-250.585 998.08,-244.12"/>
</g>
<!-- Node23 -->
<g id="node23" class="node"><title>Node23</title>
<g id="a_node23"><a xlink:href="_styles_8h.html" target="_top" xlink:title="Styles.h">
<polygon fill="none" stroke="black" points="1069.5,-224.5 1069.5,-243.5 1124.5,-243.5 1124.5,-224.5 1069.5,-224.5"/>
<text text-anchor="middle" x="1097" y="-231.5" font-family="FreeSans" font-size="10.00">Styles.h</text>
</a>
</g>
</g>
<!-- Node22&#45;&gt;Node23 -->
<g id="edge26" class="edge"><title>Node22&#45;&gt;Node23</title>
<path fill="none" stroke="midnightblue" d="M1097,-280.083C1097,-273.006 1097,-262.861 1097,-253.986"/>
<polygon fill="midnightblue" stroke="midnightblue" points="1100.5,-253.751 1097,-243.751 1093.5,-253.751 1100.5,-253.751"/>
</g>
<!-- Node22&#45;&gt;Node29 -->
<g id="edge37" class="edge"><title>Node22&#45;&gt;Node29</title>
<path fill="none" stroke="midnightblue" d="M1111.46,-280.324C1125.5,-271.9 1147.05,-258.971 1163.54,-249.074"/>
<polygon fill="midnightblue" stroke="midnightblue" points="1165.8,-251.801 1172.58,-243.655 1162.2,-245.798 1165.8,-251.801"/>
</g>
<!-- Node23&#45;&gt;Node10 -->
<g id="edge27" class="edge"><title>Node23&#45;&gt;Node10</title>
<path fill="none" stroke="midnightblue" d="M1069.41,-228.017C1015.15,-218.218 894.614,-196.449 834.113,-185.522"/>
<polygon fill="midnightblue" stroke="midnightblue" points="834.702,-182.072 824.24,-183.739 833.458,-188.961 834.702,-182.072"/>
</g>
<!-- Node24 -->
<g id="node24" class="node"><title>Node24</title>
<g id="a_node24"><a xlink:href="_ui_font_8h.html" target="_top" xlink:title="UiFont.h">
<polygon fill="none" stroke="black" points="1041,-168.5 1041,-187.5 1097,-187.5 1097,-168.5 1041,-168.5"/>
<text text-anchor="middle" x="1069" y="-175.5" font-family="FreeSans" font-size="10.00">UiFont.h</text>
</a>
</g>
</g>
<!-- Node23&#45;&gt;Node24 -->
<g id="edge28" class="edge"><title>Node23&#45;&gt;Node24</title>
<path fill="none" stroke="midnightblue" d="M1092.38,-224.083C1088.54,-216.691 1082.98,-205.953 1078.24,-196.811"/>
<polygon fill="midnightblue" stroke="midnightblue" points="1081.25,-195.018 1073.54,-187.751 1075.03,-198.24 1081.25,-195.018"/>
</g>
<!-- Node27 -->
<g id="node27" class="node"><title>Node27</title>
<g id="a_node27"><a xlink:href="_color_8h.html" target="_top" xlink:title="Color.h">
<polygon fill="none" stroke="black" points="1199,-168.5 1199,-187.5 1249,-187.5 1249,-168.5 1199,-168.5"/>
<text text-anchor="middle" x="1224" y="-175.5" font-family="FreeSans" font-size="10.00">Color.h</text>
</a>
</g>
</g>
<!-- Node23&#45;&gt;Node27 -->
<g id="edge32" class="edge"><title>Node23&#45;&gt;Node27</title>
<path fill="none" stroke="midnightblue" d="M1117.12,-224.444C1138.02,-215.557 1170.93,-201.563 1194.72,-191.451"/>
<polygon fill="midnightblue" stroke="midnightblue" points="1196.14,-194.65 1203.97,-187.516 1193.4,-188.208 1196.14,-194.65"/>
</g>
<!-- Node25 -->
<g id="node25" class="node"><title>Node25</title>
<g id="a_node25"><a xlink:href="_hash_8h.html" target="_top" xlink:title="../Util/Hash.h">
<polygon fill="none" stroke="black" points="977,-112.5 977,-131.5 1055,-131.5 1055,-112.5 977,-112.5"/>
<text text-anchor="middle" x="1016" y="-119.5" font-family="FreeSans" font-size="10.00">../Util/Hash.h</text>
</a>
</g>
</g>
<!-- Node24&#45;&gt;Node25 -->
<g id="edge29" class="edge"><title>Node24&#45;&gt;Node25</title>
<path fill="none" stroke="midnightblue" d="M1060.25,-168.083C1052.53,-160.22 1041.1,-148.569 1031.78,-139.081"/>
<polygon fill="midnightblue" stroke="midnightblue" points="1034.09,-136.436 1024.59,-131.751 1029.1,-141.34 1034.09,-136.436"/>
</g>
<!-- Node26 -->
<g id="node26" class="node"><title>Node26</title>
<g id="a_node26"><a xlink:href="_sel_fmt_8h.html" target="_top" xlink:title="../Util/SelFmt.h">
<polygon fill="none" stroke="black" points="1073.5,-112.5 1073.5,-131.5 1160.5,-131.5 1160.5,-112.5 1073.5,-112.5"/>
<text text-anchor="middle" x="1117" y="-119.5" font-family="FreeSans" font-size="10.00">../Util/SelFmt.h</text>
</a>
</g>
</g>
<!-- Node24&#45;&gt;Node26 -->
<g id="edge30" class="edge"><title>Node24&#45;&gt;Node26</title>
<path fill="none" stroke="midnightblue" d="M1076.93,-168.083C1083.85,-160.298 1094.07,-148.801 1102.45,-139.367"/>
<polygon fill="midnightblue" stroke="midnightblue" points="1105.19,-141.55 1109.22,-131.751 1099.96,-136.9 1105.19,-141.55"/>
</g>
<!-- Node26&#45;&gt;Node18 -->
<g id="edge31" class="edge"><title>Node26&#45;&gt;Node18</title>
<path fill="none" stroke="midnightblue" d="M1090.38,-112.444C1061.99,-103.32 1016.86,-88.8133 985.247,-78.6509"/>
<polygon fill="midnightblue" stroke="midnightblue" points="986.087,-75.2445 975.496,-75.5164 983.945,-81.9087 986.087,-75.2445"/>
</g>
<!-- Node27&#45;&gt;Node18 -->
<g id="edge34" class="edge"><title>Node27&#45;&gt;Node18</title>
<path fill="none" stroke="midnightblue" d="M1219.22,-168.223C1210.97,-153.981 1192.65,-126.022 1169,-112 1120.05,-82.981 1055.4,-72.4242 1008.87,-68.7104"/>
<polygon fill="midnightblue" stroke="midnightblue" points="1008.86,-65.201 998.635,-67.9802 1008.36,-72.1832 1008.86,-65.201"/>
</g>
<!-- Node27&#45;&gt;Node26 -->
<g id="edge35" class="edge"><title>Node27&#45;&gt;Node26</title>
<path fill="none" stroke="midnightblue" d="M1206.81,-168.324C1189.65,-159.664 1163.05,-146.242 1143.25,-136.249"/>
<polygon fill="midnightblue" stroke="midnightblue" points="1144.65,-133.035 1134.15,-131.655 1141.5,-139.285 1144.65,-133.035"/>
</g>
<!-- Node28 -->
<g id="node28" class="node"><title>Node28</title>
<polygon fill="none" stroke="#bfbfbf" points="1217,-112.5 1217,-131.5 1317,-131.5 1317,-112.5 1217,-112.5"/>
<text text-anchor="middle" x="1267" y="-119.5" font-family="FreeSans" font-size="10.00">boost/format.hpp</text>
</g>
<!-- Node27&#45;&gt;Node28 -->
<g id="edge33" class="edge"><title>Node27&#45;&gt;Node28</title>
<path fill="none" stroke="midnightblue" d="M1231.1,-168.083C1237.24,-160.377 1246.27,-149.033 1253.74,-139.653"/>
<polygon fill="midnightblue" stroke="midnightblue" points="1256.54,-141.754 1260.03,-131.751 1251.06,-137.394 1256.54,-141.754"/>
</g>
<!-- Node32 -->
<g id="node32" class="node"><title>Node32</title>
<g id="a_node32"><a xlink:href="_base_container_8h.html" target="_top" xlink:title="BaseContainer.h">
<polygon fill="none" stroke="black" points="892.5,-515.5 892.5,-534.5 987.5,-534.5 987.5,-515.5 892.5,-515.5"/>
<text text-anchor="middle" x="940" y="-522.5" font-family="FreeSans" font-size="10.00">BaseContainer.h</text>
</a>
</g>
</g>
<!-- Node31&#45;&gt;Node32 -->
<g id="edge41" class="edge"><title>Node31&#45;&gt;Node32</title>
<path fill="none" stroke="midnightblue" d="M940,-571.399C940,-563.466 940,-553.458 940,-544.858"/>
<polygon fill="midnightblue" stroke="midnightblue" points="943.5,-544.658 940,-534.658 936.5,-544.658 943.5,-544.658"/>
</g>
<!-- Node32&#45;&gt;Node16 -->
<g id="edge42" class="edge"><title>Node32&#45;&gt;Node16</title>
<path fill="none" stroke="midnightblue" d="M940.216,-515.298C940.698,-495.85 941.872,-448.49 942.531,-421.904"/>
<polygon fill="midnightblue" stroke="midnightblue" points="946.037,-421.707 942.786,-411.623 939.039,-421.533 946.037,-421.707"/>
</g>
<!-- Node33&#45;&gt;Node11 -->
<g id="edge44" class="edge"><title>Node33&#45;&gt;Node11</title>
<path fill="none" stroke="midnightblue" d="M817.359,-571.174C814.331,-521.89 797.274,-358.082 703,-280 672.171,-254.466 561.695,-242.768 495.721,-237.953"/>
<polygon fill="midnightblue" stroke="midnightblue" points="495.754,-234.447 485.534,-237.238 495.264,-241.43 495.754,-234.447"/>
</g>
<!-- Node33&#45;&gt;Node32 -->
<g id="edge45" class="edge"><title>Node33&#45;&gt;Node32</title>
<path fill="none" stroke="midnightblue" d="M846.912,-571.399C867.016,-561.595 893.621,-548.619 913.238,-539.052"/>
<polygon fill="midnightblue" stroke="midnightblue" points="914.794,-542.187 922.248,-534.658 911.726,-535.896 914.794,-542.187"/>
</g>
<!-- Node34 -->
<g id="node34" class="node"><title>Node34</title>
<g id="a_node34"><a xlink:href="_m_p_l_8h.html" target="_top" xlink:title="MPL.h">
<polygon fill="none" stroke="black" points="826.5,-515.5 826.5,-534.5 871.5,-534.5 871.5,-515.5 826.5,-515.5"/>
<text text-anchor="middle" x="849" y="-522.5" font-family="FreeSans" font-size="10.00">MPL.h</text>
</a>
</g>
</g>
<!-- Node33&#45;&gt;Node34 -->
<g id="edge46" class="edge"><title>Node33&#45;&gt;Node34</title>
<path fill="none" stroke="midnightblue" d="M825.347,-571.399C829.665,-563.11 835.165,-552.554 839.774,-543.708"/>
<polygon fill="midnightblue" stroke="midnightblue" points="842.973,-545.144 844.489,-534.658 836.765,-541.909 842.973,-545.144"/>
</g>
<!-- Node36 -->
<g id="node36" class="node"><title>Node36</title>
<g id="a_node36"><a xlink:href="_base_text_8h.html" target="_top" xlink:title="BaseText.h">
<polygon fill="none" stroke="black" points="1007,-454 1007,-473 1075,-473 1075,-454 1007,-454"/>
<text text-anchor="middle" x="1041" y="-461" font-family="FreeSans" font-size="10.00">BaseText.h</text>
</a>
</g>
</g>
<!-- Node35&#45;&gt;Node36 -->
<g id="edge48" class="edge"><title>Node35&#45;&gt;Node36</title>
<path fill="none" stroke="midnightblue" d="M1059.51,-571.145C1055.7,-549.203 1048.43,-507.327 1044.23,-483.091"/>
<polygon fill="midnightblue" stroke="midnightblue" points="1047.64,-482.306 1042.48,-473.052 1040.75,-483.503 1047.64,-482.306"/>
</g>
<!-- Node36&#45;&gt;Node16 -->
<g id="edge51" class="edge"><title>Node36&#45;&gt;Node16</title>
<path fill="none" stroke="midnightblue" d="M1026.96,-453.975C1010.95,-444.255 984.55,-428.227 965.626,-416.737"/>
<polygon fill="midnightblue" stroke="midnightblue" points="967.379,-413.707 957.015,-411.509 963.746,-419.691 967.379,-413.707"/>
</g>
<!-- Node36&#45;&gt;Node24 -->
<g id="edge50" class="edge"><title>Node36&#45;&gt;Node24</title>
<path fill="none" stroke="midnightblue" d="M1041.32,-453.797C1042.56,-422.568 1047.56,-313.274 1060,-224 1061.22,-215.211 1063.09,-205.553 1064.8,-197.444"/>
<polygon fill="midnightblue" stroke="midnightblue" points="1068.24,-198.094 1066.97,-187.575 1061.4,-196.59 1068.24,-198.094"/>
</g>
<!-- Node36&#45;&gt;Node27 -->
<g id="edge49" class="edge"><title>Node36&#45;&gt;Node27</title>
<path fill="none" stroke="midnightblue" d="M1069.43,-453.954C1113.87,-440.535 1195.33,-415.667 1201,-412 1233.51,-390.977 1259,-385.718 1259,-347 1259,-347 1259,-347 1259,-289 1259,-255.072 1243.69,-217.911 1233.32,-196.631"/>
<polygon fill="midnightblue" stroke="midnightblue" points="1236.36,-194.882 1228.72,-187.544 1230.12,-198.046 1236.36,-194.882"/>
</g>
<!-- Node37&#45;&gt;Node27 -->
<g id="edge53" class="edge"><title>Node37&#45;&gt;Node27</title>
<path fill="none" stroke="midnightblue" d="M1203.09,-451.195C1227.09,-443.642 1254.33,-431.411 1273,-412 1294.35,-389.807 1297,-377.795 1297,-347 1297,-347 1297,-347 1297,-289 1297,-258.205 1290.15,-249.575 1273,-224 1265.34,-212.575 1254.2,-202.04 1244.47,-194.04"/>
<polygon fill="midnightblue" stroke="midnightblue" points="1246.44,-191.135 1236.42,-187.704 1242.12,-196.637 1246.44,-191.135"/>
</g>
<!-- Node38 -->
<g id="node38" class="node"><title>Node38</title>
<g id="a_node38"><a xlink:href="_background_8h.html" target="_top" xlink:title="Background.h">
<polygon fill="none" stroke="black" points="1109.5,-392.5 1109.5,-411.5 1192.5,-411.5 1192.5,-392.5 1109.5,-392.5"/>
<text text-anchor="middle" x="1151" y="-399.5" font-family="FreeSans" font-size="10.00">Background.h</text>
</a>
</g>
</g>
<!-- Node37&#45;&gt;Node38 -->
<g id="edge54" class="edge"><title>Node37&#45;&gt;Node38</title>
<path fill="none" stroke="midnightblue" d="M1151,-448.399C1151,-440.466 1151,-430.458 1151,-421.858"/>
<polygon fill="midnightblue" stroke="midnightblue" points="1154.5,-421.658 1151,-411.658 1147.5,-421.658 1154.5,-421.658"/>
</g>
<!-- Node38&#45;&gt;Node21 -->
<g id="edge55" class="edge"><title>Node38&#45;&gt;Node21</title>
<path fill="none" stroke="midnightblue" d="M1151,-392.083C1151,-385.006 1151,-374.861 1151,-365.986"/>
<polygon fill="midnightblue" stroke="midnightblue" points="1154.5,-365.751 1151,-355.751 1147.5,-365.751 1154.5,-365.751"/>
</g>
<!-- Node40 -->
<g id="node40" class="node"><title>Node40</title>
<polygon fill="none" stroke="#bfbfbf" points="350,-515.5 350,-534.5 410,-534.5 410,-515.5 350,-515.5"/>
<text text-anchor="middle" x="380" y="-522.5" font-family="FreeSans" font-size="10.00">basedir.h</text>
</g>
<!-- Node39&#45;&gt;Node40 -->
<g id="edge57" class="edge"><title>Node39&#45;&gt;Node40</title>
<path fill="none" stroke="midnightblue" d="M429.69,-576.975C420.818,-567.873 406.554,-553.241 395.58,-541.983"/>
<polygon fill="midnightblue" stroke="midnightblue" points="397.781,-539.227 388.295,-534.509 392.769,-544.113 397.781,-539.227"/>
</g>
<!-- Node41 -->
<g id="node41" class="node"><title>Node41</title>
<g id="a_node41"><a xlink:href="_o_s_8h.html" target="_top" xlink:title="OS.h">
<polygon fill="none" stroke="black" points="418,-336.5 418,-355.5 458,-355.5 458,-336.5 418,-336.5"/>
<text text-anchor="middle" x="438" y="-343.5" font-family="FreeSans" font-size="10.00">OS.h</text>
</a>
</g>
</g>
<!-- Node39&#45;&gt;Node41 -->
<g id="edge58" class="edge"><title>Node39&#45;&gt;Node41</title>
<path fill="none" stroke="midnightblue" d="M438,-576.729C438,-542.102 438,-414.432 438,-365.895"/>
<polygon fill="midnightblue" stroke="midnightblue" points="441.5,-365.599 438,-355.599 434.5,-365.599 441.5,-365.599"/>
</g>
<!-- Node41&#45;&gt;Node4 -->
<g id="edge62" class="edge"><title>Node41&#45;&gt;Node4</title>
<path fill="none" stroke="midnightblue" d="M417.827,-339.015C386.865,-329.828 327.273,-312.147 289.685,-300.994"/>
<polygon fill="midnightblue" stroke="midnightblue" points="290.291,-297.524 279.709,-298.034 288.3,-304.234 290.291,-297.524"/>
</g>
<!-- Node41&#45;&gt;Node5 -->
<g id="edge61" class="edge"><title>Node41&#45;&gt;Node5</title>
<path fill="none" stroke="midnightblue" d="M419.303,-336.444C400.056,-327.636 369.848,-313.812 347.8,-303.722"/>
<polygon fill="midnightblue" stroke="midnightblue" points="349.16,-300.495 338.61,-299.516 346.247,-306.86 349.16,-300.495"/>
</g>
<!-- Node41&#45;&gt;Node18 -->
<g id="edge64" class="edge"><title>Node41&#45;&gt;Node18</title>
<path fill="none" stroke="midnightblue" d="M458.279,-341.757C496.535,-335.252 577.29,-319.542 597,-300 618.373,-278.809 616,-265.098 616,-235 616,-235 616,-235 616,-177 616,-120.165 793.109,-87.7233 889,-74.324"/>
<polygon fill="midnightblue" stroke="midnightblue" points="889.714,-77.759 899.147,-72.9348 888.764,-70.8237 889.714,-77.759"/>
</g>
<!-- Node42 -->
<g id="node42" class="node"><title>Node42</title>
<polygon fill="none" stroke="#bfbfbf" points="360,-280.5 360,-299.5 404,-299.5 404,-280.5 360,-280.5"/>
<text text-anchor="middle" x="382" y="-287.5" font-family="FreeSans" font-size="10.00">locale</text>
</g>
<!-- Node41&#45;&gt;Node42 -->
<g id="edge59" class="edge"><title>Node41&#45;&gt;Node42</title>
<path fill="none" stroke="midnightblue" d="M429.003,-336.324C420.806,-328.42 408.494,-316.548 398.528,-306.938"/>
<polygon fill="midnightblue" stroke="midnightblue" points="400.789,-304.256 391.161,-299.834 395.93,-309.295 400.789,-304.256"/>
</g>
<!-- Node43 -->
<g id="node43" class="node"><title>Node43</title>
<polygon fill="none" stroke="#bfbfbf" points="422,-280.5 422,-299.5 454,-299.5 454,-280.5 422,-280.5"/>
<text text-anchor="middle" x="438" y="-287.5" font-family="FreeSans" font-size="10.00">set</text>
</g>
<!-- Node41&#45;&gt;Node43 -->
<g id="edge60" class="edge"><title>Node41&#45;&gt;Node43</title>
<path fill="none" stroke="midnightblue" d="M438,-336.083C438,-329.006 438,-318.861 438,-309.986"/>
<polygon fill="midnightblue" stroke="midnightblue" points="441.5,-309.751 438,-299.751 434.5,-309.751 441.5,-309.751"/>
</g>
<!-- Node44 -->
<g id="node44" class="node"><title>Node44</title>
<polygon fill="none" stroke="#bfbfbf" points="472,-280.5 472,-299.5 588,-299.5 588,-280.5 472,-280.5"/>
<text text-anchor="middle" x="530" y="-287.5" font-family="FreeSans" font-size="10.00">boost/filesystem.hpp</text>
</g>
<!-- Node41&#45;&gt;Node44 -->
<g id="edge63" class="edge"><title>Node41&#45;&gt;Node44</title>
<path fill="none" stroke="midnightblue" d="M452.781,-336.324C467.267,-327.822 489.573,-314.729 506.493,-304.797"/>
<polygon fill="midnightblue" stroke="midnightblue" points="508.403,-307.735 515.255,-299.655 504.859,-301.698 508.403,-307.735"/>
</g>
<!-- Node46 -->
<g id="node46" class="node"><title>Node46</title>
<polygon fill="none" stroke="#bfbfbf" points="1173,-515.5 1173,-534.5 1283,-534.5 1283,-515.5 1173,-515.5"/>
<text text-anchor="middle" x="1228" y="-522.5" font-family="FreeSans" font-size="10.00">boost/log/trivial.hpp</text>
</g>
<!-- Node45&#45;&gt;Node46 -->
<g id="edge66" class="edge"><title>Node45&#45;&gt;Node46</title>
<path fill="none" stroke="midnightblue" d="M1228,-576.975C1228,-568.58 1228,-555.481 1228,-544.663"/>
<polygon fill="midnightblue" stroke="midnightblue" points="1231.5,-544.509 1228,-534.509 1224.5,-544.509 1231.5,-544.509"/>
</g>
<!-- Node48 -->
<g id="node48" class="node"><title>Node48</title>
<g id="a_node48"><a xlink:href="_game_director_8h.html" target="_top" xlink:title="GameDirector.h">
<polygon fill="none" stroke="black" points="678,-515.5 678,-534.5 770,-534.5 770,-515.5 678,-515.5"/>
<text text-anchor="middle" x="724" y="-522.5" font-family="FreeSans" font-size="10.00">GameDirector.h</text>
</a>
</g>
</g>
<!-- Node47&#45;&gt;Node48 -->
<g id="edge68" class="edge"><title>Node47&#45;&gt;Node48</title>
<path fill="none" stroke="midnightblue" d="M707.722,-576.975C710.431,-568.492 714.674,-555.204 718.149,-544.322"/>
<polygon fill="midnightblue" stroke="midnightblue" points="721.575,-545.1 721.283,-534.509 714.907,-542.97 721.575,-545.1"/>
</g>
<!-- Node49 -->
<g id="node49" class="node"><title>Node49</title>
<g id="a_node49"><a xlink:href="_form_scene_8h.html" target="_top" xlink:title="FormScene.h">
<polygon fill="none" stroke="black" points="504,-515.5 504,-534.5 584,-534.5 584,-515.5 504,-515.5"/>
<text text-anchor="middle" x="544" y="-522.5" font-family="FreeSans" font-size="10.00">FormScene.h</text>
</a>
</g>
</g>
<!-- Node47&#45;&gt;Node49 -->
<g id="edge69" class="edge"><title>Node47&#45;&gt;Node49</title>
<path fill="none" stroke="midnightblue" d="M681.933,-576.975C654.315,-566.769 607.88,-549.608 576.604,-538.049"/>
<polygon fill="midnightblue" stroke="midnightblue" points="577.618,-534.693 567.025,-534.509 575.191,-541.259 577.618,-534.693"/>
</g>
<!-- Node49&#45;&gt;Node10 -->
<g id="edge70" class="edge"><title>Node49&#45;&gt;Node10</title>
<path fill="none" stroke="midnightblue" d="M570.055,-515.48C627.504,-495.906 760,-446.09 760,-403 760,-403 760,-403 760,-289 760,-254.813 776.6,-217.764 787.857,-196.571"/>
<polygon fill="midnightblue" stroke="midnightblue" points="790.947,-198.215 792.716,-187.769 784.819,-194.832 790.947,-198.215"/>
</g>
<!-- Node50 -->
<g id="node50" class="node"><title>Node50</title>
<g id="a_node50"><a xlink:href="_ui_scene_8h.html" target="_top" xlink:title="UiScene.h">
<polygon fill="none" stroke="black" points="511.5,-454 511.5,-473 576.5,-473 576.5,-454 511.5,-454"/>
<text text-anchor="middle" x="544" y="-461" font-family="FreeSans" font-size="10.00">UiScene.h</text>
</a>
</g>
</g>
<!-- Node49&#45;&gt;Node50 -->
<g id="edge71" class="edge"><title>Node49&#45;&gt;Node50</title>
<path fill="none" stroke="midnightblue" d="M544,-515.475C544,-507.08 544,-493.981 544,-483.163"/>
<polygon fill="midnightblue" stroke="midnightblue" points="547.5,-483.009 544,-473.009 540.5,-483.009 547.5,-483.009"/>
</g>
<!-- Node51 -->
<g id="node51" class="node"><title>Node51</title>
<g id="a_node51"><a xlink:href="_scene_8h.html" target="_top" xlink:title="Scene.h">
<polygon fill="none" stroke="black" points="516,-392.5 516,-411.5 572,-411.5 572,-392.5 516,-392.5"/>
<text text-anchor="middle" x="544" y="-399.5" font-family="FreeSans" font-size="10.00">Scene.h</text>
</a>
</g>
</g>
<!-- Node50&#45;&gt;Node51 -->
<g id="edge72" class="edge"><title>Node50&#45;&gt;Node51</title>
<path fill="none" stroke="midnightblue" d="M544,-453.975C544,-445.58 544,-432.481 544,-421.663"/>
<polygon fill="midnightblue" stroke="midnightblue" points="547.5,-421.509 544,-411.509 540.5,-421.509 547.5,-421.509"/>
</g>
<!-- Node51&#45;&gt;Node41 -->
<g id="edge73" class="edge"><title>Node51&#45;&gt;Node41</title>
<path fill="none" stroke="midnightblue" d="M526.969,-392.324C509.97,-383.664 483.624,-370.242 464.007,-360.249"/>
<polygon fill="midnightblue" stroke="midnightblue" points="465.488,-357.075 454.988,-355.655 462.31,-363.312 465.488,-357.075"/>
</g>
<!-- Node52 -->
<g id="node52" class="node"><title>Node52</title>
<g id="a_node52"><a xlink:href="_profiler_8h.html" target="_top" xlink:title="../../engine/Util/Profiler.h">
<polygon fill="none" stroke="black" points="522,-336.5 522,-355.5 652,-355.5 652,-336.5 522,-336.5"/>
<text text-anchor="middle" x="587" y="-343.5" font-family="FreeSans" font-size="10.00">../../engine/Util/Profiler.h</text>
</a>
</g>
</g>
<!-- Node51&#45;&gt;Node52 -->
<g id="edge74" class="edge"><title>Node51&#45;&gt;Node52</title>
<path fill="none" stroke="midnightblue" d="M551.101,-392.083C557.237,-384.377 566.27,-373.033 573.739,-363.653"/>
<polygon fill="midnightblue" stroke="midnightblue" points="576.54,-365.754 580.032,-355.751 571.064,-361.394 576.54,-365.754"/>
</g>
<!-- Node53 -->
<g id="node53" class="node"><title>Node53</title>
<polygon fill="none" stroke="#bfbfbf" points="644,-280.5 644,-299.5 694,-299.5 694,-280.5 644,-280.5"/>
<text text-anchor="middle" x="669" y="-287.5" font-family="FreeSans" font-size="10.00">chrono</text>
</g>
<!-- Node52&#45;&gt;Node53 -->
<g id="edge75" class="edge"><title>Node52&#45;&gt;Node53</title>
<path fill="none" stroke="midnightblue" d="M600.175,-336.324C612.847,-327.979 632.233,-315.212 647.206,-305.352"/>
<polygon fill="midnightblue" stroke="midnightblue" points="649.431,-308.078 655.858,-299.655 645.581,-302.231 649.431,-308.078"/>
</g>
</g>
</svg>
