<?xml version="1.0" encoding="UTF-8" standalone="no"?>
<!DOCTYPE svg PUBLIC "-//W3C//DTD SVG 1.1//EN"
 "http://www.w3.org/Graphics/SVG/1.1/DTD/svg11.dtd">
<!-- Generated by graphviz version 2.26.3 (20100126.1600)
 -->
<!-- Title: DialogScene.cpp Pages: 1 -->
<!--zoomable 646 -->
<svg id="main" version="1.1" xmlns="http://www.w3.org/2000/svg" xmlns:xlink="http://www.w3.org/1999/xlink" xml:space="preserve" onload="init(evt)">
<style type="text/css"><![CDATA[
.edge:hover path { stroke: red; }
.edge:hover polygon { stroke: red; fill: red; }
]]></style>
<script type="text/javascript"><![CDATA[
var edges = document.getElementsByTagName('g');
if (edges && edges.length) {
  for (var i=0;i<edges.length;i++) {
    if (edges[i].id.substr(0,4)=='edge') {
      edges[i].setAttribute('class','edge');
    }
  }
}
]]></script>
        <defs>
                <circle id="rim" cx="0" cy="0" r="7"/>
                <circle id="rim2" cx="0" cy="0" r="3.5"/>
                <g id="zoomPlus">
                        <use xlink:href="#rim" fill="#404040">
                                <set attributeName="fill" to="#808080" begin="zoomplus.mouseover" end="zoomplus.mouseout"/>
                        </use>
                        <path d="M-4,0h8M0,-4v8" fill="none" stroke="white" stroke-width="1.5" pointer-events="none"/>
                </g>
                <g id="zoomMin">
                        <use xlink:href="#rim" fill="#404040">
                                <set attributeName="fill" to="#808080" begin="zoomminus.mouseover" end="zoomminus.mouseout"/>
                        </use>
                        <path d="M-4,0h8" fill="none" stroke="white" stroke-width="1.5" pointer-events="none"/>
                </g>
                <g id="dirArrow">
                        <path fill="none" stroke="white" stroke-width="1.5" d="M0,-3.0v7 M-2.5,-0.5L0,-3.0L2.5,-0.5"/>
                </g>
               <g id="resetDef">
                       <use xlink:href="#rim2" fill="#404040">
                               <set attributeName="fill" to="#808080" begin="reset.mouseover" end="reset.mouseout"/>
                       </use>
               </g>
        </defs>

<script type="text/javascript">
var viewWidth = 1283;
var viewHeight = 646;
var sectionId = 'dynsection-0';
</script>
<script xlink:href="svgpan.js"/>
<svg id="graph" class="graph">
<g id="viewport">
<title>DialogScene.cpp</title>
<!-- Node1 -->
<g id="node1" class="node"><title>Node1</title>
<polygon fill="#bfbfbf" stroke="black" points="804.5,-617 804.5,-637 893.5,-637 893.5,-617 804.5,-617"/>
<text text-anchor="middle" x="849" y="-624" font-family="FreeSans" font-size="10.00">DialogScene.cpp</text>
</g>
<!-- Node2 -->
<g id="node3" class="node"><title>Node2</title>
<polygon fill="none" stroke="#bfbfbf" points="169.5,-553 169.5,-573 230.5,-573 230.5,-553 169.5,-553"/>
<text text-anchor="middle" x="200" y="-560" font-family="FreeSans" font-size="10.00">../StdAfx.h</text>
</g>
<!-- Node1&#45;&gt;Node2 -->
<g id="edge2" class="edge"><title>Node1&#45;&gt;Node2</title>
<path fill="none" stroke="midnightblue" d="M804.437,-625.219C683.463,-620.119 350.849,-604.243 244,-580 240.069,-579.108 236.024,-577.931 232.052,-576.611"/>
<polygon fill="midnightblue" stroke="midnightblue" points="233.037,-573.245 222.443,-573.117 230.645,-579.823 233.037,-573.245"/>
</g>
<!-- Node3 -->
<g id="node5" class="node"><title>Node3</title>
<a xlink:href="_action_button_8h.html" target="_top" xlink:title="../../engine/Display\l/ActionButton.h">
<polygon fill="none" stroke="black" points="523.5,-547 523.5,-579 618.5,-579 618.5,-547 523.5,-547"/>
<text text-anchor="start" x="531.5" y="-566" font-family="FreeSans" font-size="10.00">../../engine/Display</text>
<text text-anchor="middle" x="571" y="-554" font-family="FreeSans" font-size="10.00">/ActionButton.h</text>
</a>
</g>
<!-- Node1&#45;&gt;Node3 -->
<g id="edge4" class="edge"><title>Node1&#45;&gt;Node3</title>
<path fill="none" stroke="midnightblue" d="M805.257,-616.93C757.565,-605.95 681.047,-588.335 628.521,-576.242"/>
<polygon fill="midnightblue" stroke="midnightblue" points="629.209,-572.809 618.679,-573.976 627.639,-579.631 629.209,-572.809"/>
</g>
<!-- Node29 -->
<g id="node67" class="node"><title>Node29</title>
<a xlink:href="_container_8h.html" target="_top" xlink:title="../../engine/Display\l/Container.h">
<polygon fill="none" stroke="black" points="876.5,-477 876.5,-509 971.5,-509 971.5,-477 876.5,-477"/>
<text text-anchor="start" x="884.5" y="-496" font-family="FreeSans" font-size="10.00">../../engine/Display</text>
<text text-anchor="middle" x="924" y="-484" font-family="FreeSans" font-size="10.00">/Container.h</text>
</a>
</g>
<!-- Node1&#45;&gt;Node29 -->
<g id="edge76" class="edge"><title>Node1&#45;&gt;Node29</title>
<path fill="none" stroke="midnightblue" d="M866.347,-616.865C879.007,-608.557 895.544,-595.641 905,-580 916.114,-561.617 920.761,-537.559 922.687,-519.403"/>
<polygon fill="midnightblue" stroke="midnightblue" points="926.192,-519.483 923.551,-509.223 919.217,-518.891 926.192,-519.483"/>
</g>
<!-- Node30 -->
<g id="node70" class="node"><title>Node30</title>
<a xlink:href="_flex_grid_8h.html" target="_top" xlink:title="../../engine/Display\l/FlexGrid.h">
<polygon fill="none" stroke="black" points="801.5,-547 801.5,-579 896.5,-579 896.5,-547 801.5,-547"/>
<text text-anchor="start" x="809.5" y="-566" font-family="FreeSans" font-size="10.00">../../engine/Display</text>
<text text-anchor="middle" x="849" y="-554" font-family="FreeSans" font-size="10.00">/FlexGrid.h</text>
</a>
</g>
<!-- Node1&#45;&gt;Node30 -->
<g id="edge80" class="edge"><title>Node1&#45;&gt;Node30</title>
<path fill="none" stroke="midnightblue" d="M849,-616.717C849,-609.244 849,-598.779 849,-589.068"/>
<polygon fill="midnightblue" stroke="midnightblue" points="852.5,-589.005 849,-579.005 845.5,-589.005 852.5,-589.005"/>
</g>
<!-- Node32 -->
<g id="node75" class="node"><title>Node32</title>
<a xlink:href="_label_8h.html" target="_top" xlink:title="../../engine/Display\l/Label.h">
<polygon fill="none" stroke="black" points="952.5,-407 952.5,-439 1047.5,-439 1047.5,-407 952.5,-407"/>
<text text-anchor="start" x="960.5" y="-426" font-family="FreeSans" font-size="10.00">../../engine/Display</text>
<text text-anchor="middle" x="1000" y="-414" font-family="FreeSans" font-size="10.00">/Label.h</text>
</a>
</g>
<!-- Node1&#45;&gt;Node32 -->
<g id="edge86" class="edge"><title>Node1&#45;&gt;Node32</title>
<path fill="none" stroke="midnightblue" d="M869.353,-616.959C885.461,-608.438 907.996,-595.197 925,-580 954.501,-553.634 962.934,-545.696 980,-510 989.233,-490.688 994.325,-466.89 997.056,-449.068"/>
<polygon fill="midnightblue" stroke="midnightblue" points="1000.53,-449.477 998.437,-439.092 993.599,-448.518 1000.53,-449.477"/>
</g>
<!-- Node33 -->
<g id="node80" class="node"><title>Node33</title>
<a xlink:href="_screen_fade_8h.html" target="_top" xlink:title="../../engine/Display\l/ScreenFade.h">
<polygon fill="none" stroke="black" points="1178.5,-407 1178.5,-439 1273.5,-439 1273.5,-407 1178.5,-407"/>
<text text-anchor="start" x="1186.5" y="-426" font-family="FreeSans" font-size="10.00">../../engine/Display</text>
<text text-anchor="middle" x="1226" y="-414" font-family="FreeSans" font-size="10.00">/ScreenFade.h</text>
</a>
</g>
<!-- Node1&#45;&gt;Node33 -->
<g id="edge94" class="edge"><title>Node1&#45;&gt;Node33</title>
<path fill="none" stroke="midnightblue" d="M879.34,-616.995C901.429,-608.916 931.469,-596.23 955,-580 1008.55,-543.064 1002.47,-509.887 1058,-476 1091.86,-455.338 1134.53,-442.008 1168.4,-433.884"/>
<polygon fill="midnightblue" stroke="midnightblue" points="1169.2,-437.292 1178.15,-431.629 1167.62,-430.472 1169.2,-437.292"/>
</g>
<!-- Node35 -->
<g id="node86" class="node"><title>Node35</title>
<a xlink:href="_config_8h.html" target="_top" xlink:title="../../engine/Util/Config.h">
<polygon fill="none" stroke="black" points="0,-349 0,-369 116,-369 116,-349 0,-349"/>
<text text-anchor="middle" x="58" y="-356" font-family="FreeSans" font-size="10.00">../../engine/Util/Config.h</text>
</a>
</g>
<!-- Node1&#45;&gt;Node35 -->
<g id="edge102" class="edge"><title>Node1&#45;&gt;Node35</title>
<path fill="none" stroke="midnightblue" d="M804.29,-625.107C739.313,-621.378 615.566,-610.572 515,-580 340.647,-526.998 149.802,-415.436 82.8539,-374.492"/>
<polygon fill="midnightblue" stroke="midnightblue" points="84.5957,-371.455 74.2441,-369.197 80.9285,-377.417 84.5957,-371.455"/>
</g>
<!-- Node41 -->
<g id="node102" class="node"><title>Node41</title>
<a xlink:href="_log_8h.html" target="_top" xlink:title="../../engine/Util/Log.h">
<polygon fill="none" stroke="black" points="1064.5,-553 1064.5,-573 1169.5,-573 1169.5,-553 1064.5,-553"/>
<text text-anchor="middle" x="1117" y="-560" font-family="FreeSans" font-size="10.00">../../engine/Util/Log.h</text>
</a>
</g>
<!-- Node1&#45;&gt;Node41 -->
<g id="edge122" class="edge"><title>Node1&#45;&gt;Node41</title>
<path fill="none" stroke="midnightblue" d="M893.602,-616.939C934.581,-607.62 996.97,-593.242 1051,-580 1056.74,-578.593 1062.76,-577.087 1068.72,-575.575"/>
<polygon fill="midnightblue" stroke="midnightblue" points="1069.82,-578.905 1078.65,-573.041 1068.09,-572.123 1069.82,-578.905"/>
</g>
<!-- Node43 -->
<g id="node106" class="node"><title>Node43</title>
<a xlink:href="_dialog_scene_8h.html" target="_top" xlink:title="DialogScene.h">
<polygon fill="none" stroke="black" points="705.5,-553 705.5,-573 784.5,-573 784.5,-553 705.5,-553"/>
<text text-anchor="middle" x="745" y="-560" font-family="FreeSans" font-size="10.00">DialogScene.h</text>
</a>
</g>
<!-- Node1&#45;&gt;Node43 -->
<g id="edge126" class="edge"><title>Node1&#45;&gt;Node43</title>
<path fill="none" stroke="midnightblue" d="M832.291,-616.717C815.437,-606.346 789.22,-590.212 769.913,-578.331"/>
<polygon fill="midnightblue" stroke="midnightblue" points="771.676,-575.306 761.325,-573.046 768.007,-581.268 771.676,-575.306"/>
</g>
<!-- Node4 -->
<g id="node7" class="node"><title>Node4</title>
<a xlink:href="_controller_8h.html" target="_top" xlink:title="../Control/Controller.h">
<polygon fill="none" stroke="black" points="285.5,-413 285.5,-433 392.5,-433 392.5,-413 285.5,-413"/>
<text text-anchor="middle" x="339" y="-420" font-family="FreeSans" font-size="10.00">../Control/Controller.h</text>
</a>
</g>
<!-- Node3&#45;&gt;Node4 -->
<g id="edge6" class="edge"><title>Node3&#45;&gt;Node4</title>
<path fill="none" stroke="midnightblue" d="M544.387,-546.94C499.384,-519.783 408.839,-465.144 364.559,-438.424"/>
<polygon fill="midnightblue" stroke="midnightblue" points="366.216,-435.335 355.845,-433.165 362.599,-441.329 366.216,-435.335"/>
</g>
<!-- Node15 -->
<g id="node31" class="node"><title>Node15</title>
<a xlink:href="_button_8h.html" target="_top" xlink:title="Button.h">
<polygon fill="none" stroke="black" points="544.5,-483 544.5,-503 597.5,-503 597.5,-483 544.5,-483"/>
<text text-anchor="middle" x="571" y="-490" font-family="FreeSans" font-size="10.00">Button.h</text>
</a>
</g>
<!-- Node3&#45;&gt;Node15 -->
<g id="edge32" class="edge"><title>Node3&#45;&gt;Node15</title>
<path fill="none" stroke="midnightblue" d="M571,-546.765C571,-536.813 571,-523.987 571,-513.359"/>
<polygon fill="midnightblue" stroke="midnightblue" points="574.5,-513.291 571,-503.291 567.5,-513.291 574.5,-513.291"/>
</g>
<!-- Node5 -->
<g id="node9" class="node"><title>Node5</title>
<polygon fill="none" stroke="#bfbfbf" points="248,-233 248,-253 292,-253 292,-233 248,-233"/>
<text text-anchor="middle" x="270" y="-240" font-family="FreeSans" font-size="10.00">vector</text>
</g>
<!-- Node4&#45;&gt;Node5 -->
<g id="edge8" class="edge"><title>Node4&#45;&gt;Node5</title>
<path fill="none" stroke="midnightblue" d="M333.768,-412.814C324.006,-393.526 302.761,-350.176 289,-312 283.215,-295.952 278.17,-277.27 274.736,-263.397"/>
<polygon fill="midnightblue" stroke="midnightblue" points="278.083,-262.348 272.343,-253.443 271.277,-263.984 278.083,-262.348"/>
</g>
<!-- Node6 -->
<g id="node11" class="node"><title>Node6</title>
<polygon fill="none" stroke="#bfbfbf" points="189.5,-233 189.5,-253 230.5,-253 230.5,-233 189.5,-233"/>
<text text-anchor="middle" x="210" y="-240" font-family="FreeSans" font-size="10.00">string</text>
</g>
<!-- Node4&#45;&gt;Node6 -->
<g id="edge10" class="edge"><title>Node4&#45;&gt;Node6</title>
<path fill="none" stroke="midnightblue" d="M331.695,-412.807C310.763,-383.6 250.345,-299.295 223.329,-261.599"/>
<polygon fill="midnightblue" stroke="midnightblue" points="225.895,-259.171 217.225,-253.082 220.205,-263.249 225.895,-259.171"/>
</g>
<!-- Node7 -->
<g id="node13" class="node"><title>Node7</title>
<polygon fill="none" stroke="#bfbfbf" points="133.5,-349 133.5,-369 204.5,-369 204.5,-349 133.5,-349"/>
<text text-anchor="middle" x="169" y="-356" font-family="FreeSans" font-size="10.00">SDL2/SDL.h</text>
</g>
<!-- Node4&#45;&gt;Node7 -->
<g id="edge12" class="edge"><title>Node4&#45;&gt;Node7</title>
<path fill="none" stroke="midnightblue" d="M312.063,-412.859C283.215,-401.999 237.276,-384.704 205.264,-372.652"/>
<polygon fill="midnightblue" stroke="midnightblue" points="206.403,-369.341 195.811,-369.094 203.937,-375.892 206.403,-369.341"/>
</g>
<!-- Node8 -->
<g id="node15" class="node"><title>Node8</title>
<a xlink:href="_action_8h.html" target="_top" xlink:title="Action.h">
<polygon fill="none" stroke="black" points="498,-349 498,-369 550,-369 550,-349 498,-349"/>
<text text-anchor="middle" x="524" y="-356" font-family="FreeSans" font-size="10.00">Action.h</text>
</a>
</g>
<!-- Node4&#45;&gt;Node8 -->
<g id="edge14" class="edge"><title>Node4&#45;&gt;Node8</title>
<path fill="none" stroke="midnightblue" d="M368.314,-412.859C400.77,-401.631 453.106,-383.526 488.02,-371.447"/>
<polygon fill="midnightblue" stroke="midnightblue" points="489.508,-374.636 497.815,-368.059 487.22,-368.021 489.508,-374.636"/>
</g>
<!-- Node14 -->
<g id="node27" class="node"><title>Node14</title>
<a xlink:href="_control_action_8h.html" target="_top" xlink:title="ControlAction.h">
<polygon fill="none" stroke="black" points="297.5,-291 297.5,-311 380.5,-311 380.5,-291 297.5,-291"/>
<text text-anchor="middle" x="339" y="-298" font-family="FreeSans" font-size="10.00">ControlAction.h</text>
</a>
</g>
<!-- Node4&#45;&gt;Node14 -->
<g id="edge30" class="edge"><title>Node4&#45;&gt;Node14</title>
<path fill="none" stroke="midnightblue" d="M339,-412.598C339,-392.42 339,-347.64 339,-321.35"/>
<polygon fill="midnightblue" stroke="midnightblue" points="342.5,-321.032 339,-311.032 335.5,-321.032 342.5,-321.032"/>
</g>
<!-- Node9 -->
<g id="node17" class="node"><title>Node9</title>
<polygon fill="none" stroke="#bfbfbf" points="707.5,-291 707.5,-311 820.5,-311 820.5,-291 707.5,-291"/>
<text text-anchor="middle" x="764" y="-298" font-family="FreeSans" font-size="10.00">SDL2/SDL_keycode.h</text>
</g>
<!-- Node8&#45;&gt;Node9 -->
<g id="edge16" class="edge"><title>Node8&#45;&gt;Node9</title>
<path fill="none" stroke="midnightblue" d="M550.141,-352.683C588.899,-343.316 662.386,-325.557 712.276,-313.5"/>
<polygon fill="midnightblue" stroke="midnightblue" points="713.335,-316.845 722.233,-311.094 711.69,-310.041 713.335,-316.845"/>
</g>
<!-- Node10 -->
<g id="node19" class="node"><title>Node10</title>
<polygon fill="none" stroke="#bfbfbf" points="584,-291 584,-311 690,-311 690,-291 584,-291"/>
<text text-anchor="middle" x="637" y="-298" font-family="FreeSans" font-size="10.00">SDL2/SDL_mouse.h</text>
</g>
<!-- Node8&#45;&gt;Node10 -->
<g id="edge18" class="edge"><title>Node8&#45;&gt;Node10</title>
<path fill="none" stroke="midnightblue" d="M543.683,-348.897C561.479,-339.763 587.905,-326.199 608.098,-315.835"/>
<polygon fill="midnightblue" stroke="midnightblue" points="609.865,-318.862 617.163,-311.182 606.669,-312.634 609.865,-318.862"/>
</g>
<!-- Node11 -->
<g id="node21" class="node"><title>Node11</title>
<a xlink:href="_vec_8h.html" target="_top" xlink:title="../Vec.h">
<polygon fill="none" stroke="black" points="809.5,-175 809.5,-195 858.5,-195 858.5,-175 809.5,-175"/>
<text text-anchor="middle" x="834" y="-182" font-family="FreeSans" font-size="10.00">../Vec.h</text>
</a>
</g>
<!-- Node8&#45;&gt;Node11 -->
<g id="edge20" class="edge"><title>Node8&#45;&gt;Node11</title>
<path fill="none" stroke="midnightblue" d="M529.214,-348.712C537.207,-333.87 553.813,-306.434 575,-290 593.644,-275.539 733.484,-222.434 799.582,-197.759"/>
<polygon fill="midnightblue" stroke="midnightblue" points="801.003,-200.964 809.152,-194.193 798.559,-194.405 801.003,-200.964"/>
</g>
<!-- Node12 -->
<g id="node23" class="node"><title>Node12</title>
<a xlink:href="_exception_8h.html" target="_top" xlink:title="../Exception.h">
<polygon fill="none" stroke="black" points="454,-291 454,-311 528,-311 528,-291 454,-291"/>
<text text-anchor="middle" x="491" y="-298" font-family="FreeSans" font-size="10.00">../Exception.h</text>
</a>
</g>
<!-- Node8&#45;&gt;Node12 -->
<g id="edge22" class="edge"><title>Node8&#45;&gt;Node12</title>
<path fill="none" stroke="midnightblue" d="M518.252,-348.897C513.765,-341.01 507.398,-329.821 501.947,-320.24"/>
<polygon fill="midnightblue" stroke="midnightblue" points="504.892,-318.338 496.904,-311.378 498.808,-321.8 504.892,-318.338"/>
</g>
<!-- Node8&#45;&gt;Node14 -->
<g id="edge26" class="edge"><title>Node8&#45;&gt;Node14</title>
<path fill="none" stroke="midnightblue" d="M497.886,-350.813C467.479,-341.28 416.842,-325.404 380.912,-314.14"/>
<polygon fill="midnightblue" stroke="midnightblue" points="381.786,-310.746 371.196,-311.094 379.691,-317.425 381.786,-310.746"/>
</g>
<!-- Node13 -->
<g id="node25" class="node"><title>Node13</title>
<polygon fill="none" stroke="#bfbfbf" points="578,-233 578,-253 636,-253 636,-233 578,-233"/>
<text text-anchor="middle" x="607" y="-240" font-family="FreeSans" font-size="10.00">exception</text>
</g>
<!-- Node12&#45;&gt;Node13 -->
<g id="edge24" class="edge"><title>Node12&#45;&gt;Node13</title>
<path fill="none" stroke="midnightblue" d="M511.206,-290.897C529.556,-281.722 556.848,-268.076 577.611,-257.694"/>
<polygon fill="midnightblue" stroke="midnightblue" points="579.258,-260.784 586.637,-253.182 576.127,-254.523 579.258,-260.784"/>
</g>
<!-- Node14&#45;&gt;Node6 -->
<g id="edge28" class="edge"><title>Node14&#45;&gt;Node6</title>
<path fill="none" stroke="midnightblue" d="M316.53,-290.897C295.212,-281.313 263.046,-266.85 239.637,-256.325"/>
<polygon fill="midnightblue" stroke="midnightblue" points="241.068,-253.131 230.512,-252.222 238.197,-259.515 241.068,-253.131"/>
</g>
<!-- Node16 -->
<g id="node33" class="node"><title>Node16</title>
<a xlink:href="_click_region_8h.html" target="_top" xlink:title="ClickRegion.h">
<polygon fill="none" stroke="black" points="533,-413 533,-433 609,-433 609,-413 533,-413"/>
<text text-anchor="middle" x="571" y="-420" font-family="FreeSans" font-size="10.00">ClickRegion.h</text>
</a>
</g>
<!-- Node15&#45;&gt;Node16 -->
<g id="edge34" class="edge"><title>Node15&#45;&gt;Node16</title>
<path fill="none" stroke="midnightblue" d="M571,-482.971C571,-472.679 571,-456.375 571,-443.364"/>
<polygon fill="midnightblue" stroke="midnightblue" points="574.5,-443.011 571,-433.011 567.5,-443.011 574.5,-443.011"/>
</g>
<!-- Node17 -->
<g id="node35" class="node"><title>Node17</title>
<a xlink:href="_ui_view_model_8h.html" target="_top" xlink:title="UiViewModel.h">
<polygon fill="none" stroke="black" points="883,-349 883,-369 965,-369 965,-349 883,-349"/>
<text text-anchor="middle" x="924" y="-356" font-family="FreeSans" font-size="10.00">UiViewModel.h</text>
</a>
</g>
<!-- Node16&#45;&gt;Node17 -->
<g id="edge36" class="edge"><title>Node16&#45;&gt;Node17</title>
<path fill="none" stroke="midnightblue" d="M596.085,-412.906C603.092,-410.368 610.769,-407.844 618,-406 706.126,-383.523 811.443,-370.226 872.723,-363.793"/>
<polygon fill="midnightblue" stroke="midnightblue" points="873.315,-367.25 882.904,-362.745 872.599,-360.287 873.315,-367.25"/>
</g>
<!-- Node17&#45;&gt;Node11 -->
<g id="edge42" class="edge"><title>Node17&#45;&gt;Node11</title>
<path fill="none" stroke="midnightblue" d="M919.453,-348.977C909.56,-327.335 885.108,-274.733 862,-232 856.945,-222.652 850.96,-212.497 845.823,-204.026"/>
<polygon fill="midnightblue" stroke="midnightblue" points="848.69,-202.006 840.479,-195.311 842.723,-205.665 848.69,-202.006"/>
</g>
<!-- Node18 -->
<g id="node37" class="node"><title>Node18</title>
<a xlink:href="_m_r___types_8h.html" target="_top" xlink:title="../Util/MR_Types.h">
<polygon fill="none" stroke="black" points="912,-59 912,-79 1008,-79 1008,-59 912,-59"/>
<text text-anchor="middle" x="960" y="-66" font-family="FreeSans" font-size="10.00">../Util/MR_Types.h</text>
</a>
</g>
<!-- Node17&#45;&gt;Node18 -->
<g id="edge38" class="edge"><title>Node17&#45;&gt;Node18</title>
<path fill="none" stroke="midnightblue" d="M918.229,-348.813C907.598,-329.062 886,-283.9 886,-243 886,-243 886,-243 886,-185 886,-144.577 918.333,-106.91 940.254,-86.0172"/>
<polygon fill="midnightblue" stroke="midnightblue" points="942.783,-88.447 947.78,-79.1048 938.048,-83.2916 942.783,-88.447"/>
</g>
<!-- Node20 -->
<g id="node42" class="node"><title>Node20</title>
<a xlink:href="_ui_layout_flags_8h.html" target="_top" xlink:title="UiLayoutFlags.h">
<polygon fill="none" stroke="black" points="916.5,-175 916.5,-195 1003.5,-195 1003.5,-175 916.5,-175"/>
<text text-anchor="middle" x="960" y="-182" font-family="FreeSans" font-size="10.00">UiLayoutFlags.h</text>
</a>
</g>
<!-- Node17&#45;&gt;Node20 -->
<g id="edge44" class="edge"><title>Node17&#45;&gt;Node20</title>
<path fill="none" stroke="midnightblue" d="M927.47,-348.641C930.546,-339.18 935.004,-324.765 938,-312 946.734,-274.783 953.608,-230.682 957.216,-205.458"/>
<polygon fill="midnightblue" stroke="midnightblue" points="960.719,-205.678 958.638,-195.289 953.786,-204.708 960.719,-205.678"/>
</g>
<!-- Node21 -->
<g id="node45" class="node"><title>Node21</title>
<a xlink:href="_view_model_8h.html" target="_top" xlink:title="ViewModel.h">
<polygon fill="none" stroke="black" points="1089,-291 1089,-311 1161,-311 1161,-291 1089,-291"/>
<text text-anchor="middle" x="1125" y="-298" font-family="FreeSans" font-size="10.00">ViewModel.h</text>
</a>
</g>
<!-- Node17&#45;&gt;Node21 -->
<g id="edge48" class="edge"><title>Node17&#45;&gt;Node21</title>
<path fill="none" stroke="midnightblue" d="M959.012,-348.897C992.631,-339.196 1043.57,-324.498 1080.14,-313.944"/>
<polygon fill="midnightblue" stroke="midnightblue" points="1081.42,-317.22 1090.05,-311.084 1079.47,-310.494 1081.42,-317.22"/>
</g>
<!-- Node19 -->
<g id="node39" class="node"><title>Node19</title>
<polygon fill="none" stroke="#bfbfbf" points="931,-1 931,-21 989,-21 989,-1 931,-1"/>
<text text-anchor="middle" x="960" y="-8" font-family="FreeSans" font-size="10.00">inttypes.h</text>
</g>
<!-- Node18&#45;&gt;Node19 -->
<g id="edge40" class="edge"><title>Node18&#45;&gt;Node19</title>
<path fill="none" stroke="midnightblue" d="M960,-58.8972C960,-51.339 960,-40.7476 960,-31.4458"/>
<polygon fill="midnightblue" stroke="midnightblue" points="963.5,-31.3776 960,-21.3776 956.5,-31.3776 963.5,-31.3776"/>
</g>
<!-- Node20&#45;&gt;Node18 -->
<g id="edge46" class="edge"><title>Node20&#45;&gt;Node18</title>
<path fill="none" stroke="midnightblue" d="M960,-174.706C960,-155.568 960,-114.198 960,-89.2654"/>
<polygon fill="midnightblue" stroke="midnightblue" points="963.5,-89.1055 960,-79.1055 956.5,-89.1056 963.5,-89.1055"/>
</g>
<!-- Node22 -->
<g id="node47" class="node"><title>Node22</title>
<a xlink:href="_display_8h.html" target="_top" xlink:title="Display.h">
<polygon fill="none" stroke="black" points="1028,-233 1028,-253 1084,-253 1084,-233 1028,-233"/>
<text text-anchor="middle" x="1056" y="-240" font-family="FreeSans" font-size="10.00">Display.h</text>
</a>
</g>
<!-- Node21&#45;&gt;Node22 -->
<g id="edge50" class="edge"><title>Node21&#45;&gt;Node22</title>
<path fill="none" stroke="midnightblue" d="M1112.98,-290.897C1102.82,-282.353 1088.04,-269.933 1076.08,-259.881"/>
<polygon fill="midnightblue" stroke="midnightblue" points="1078.25,-257.133 1068.35,-253.378 1073.75,-262.491 1078.25,-257.133"/>
</g>
<!-- Node27 -->
<g id="node62" class="node"><title>Node27</title>
<a xlink:href="_view_attacher_8h.html" target="_top" xlink:title="ViewAttacher.h">
<polygon fill="none" stroke="black" points="1090.5,-175 1090.5,-195 1173.5,-195 1173.5,-175 1090.5,-175"/>
<text text-anchor="middle" x="1132" y="-182" font-family="FreeSans" font-size="10.00">ViewAttacher.h</text>
</a>
</g>
<!-- Node21&#45;&gt;Node27 -->
<g id="edge74" class="edge"><title>Node21&#45;&gt;Node27</title>
<path fill="none" stroke="midnightblue" d="M1134.67,-290.777C1142.4,-281.855 1152.64,-268.151 1157,-254 1162.3,-236.786 1154.13,-217.541 1145.74,-203.759"/>
<polygon fill="midnightblue" stroke="midnightblue" points="1148.5,-201.589 1140.06,-195.182 1142.66,-205.452 1148.5,-201.589"/>
</g>
<!-- Node28 -->
<g id="node64" class="node"><title>Node28</title>
<a xlink:href="_view_8h.html" target="_top" xlink:title="View.h">
<polygon fill="none" stroke="black" points="1102,-233 1102,-253 1148,-253 1148,-233 1102,-233"/>
<text text-anchor="middle" x="1125" y="-240" font-family="FreeSans" font-size="10.00">View.h</text>
</a>
</g>
<!-- Node21&#45;&gt;Node28 -->
<g id="edge72" class="edge"><title>Node21&#45;&gt;Node28</title>
<path fill="none" stroke="midnightblue" d="M1125,-290.897C1125,-283.339 1125,-272.748 1125,-263.446"/>
<polygon fill="midnightblue" stroke="midnightblue" points="1128.5,-263.378 1125,-253.378 1121.5,-263.378 1128.5,-263.378"/>
</g>
<!-- Node22&#45;&gt;Node11 -->
<g id="edge52" class="edge"><title>Node22&#45;&gt;Node11</title>
<path fill="none" stroke="midnightblue" d="M1027.88,-235.654C987.378,-225.072 912.661,-205.551 868.751,-194.079"/>
<polygon fill="midnightblue" stroke="midnightblue" points="869.378,-190.626 858.818,-191.484 867.609,-197.398 869.378,-190.626"/>
</g>
<!-- Node22&#45;&gt;Node20 -->
<g id="edge68" class="edge"><title>Node22&#45;&gt;Node20</title>
<path fill="none" stroke="midnightblue" d="M1039.28,-232.897C1024.5,-223.97 1002.72,-210.811 985.726,-200.543"/>
<polygon fill="midnightblue" stroke="midnightblue" points="987.221,-197.357 976.852,-195.182 983.602,-203.349 987.221,-197.357"/>
</g>
<!-- Node23 -->
<g id="node50" class="node"><title>Node23</title>
<a xlink:href="_ui_font_8h.html" target="_top" xlink:title="UiFont.h">
<polygon fill="none" stroke="black" points="1020.5,-175 1020.5,-195 1073.5,-195 1073.5,-175 1020.5,-175"/>
<text text-anchor="middle" x="1047" y="-182" font-family="FreeSans" font-size="10.00">UiFont.h</text>
</a>
</g>
<!-- Node22&#45;&gt;Node23 -->
<g id="edge54" class="edge"><title>Node22&#45;&gt;Node23</title>
<path fill="none" stroke="midnightblue" d="M1054.43,-232.897C1053.26,-225.339 1051.62,-214.748 1050.17,-205.446"/>
<polygon fill="midnightblue" stroke="midnightblue" points="1053.6,-204.723 1048.61,-195.378 1046.69,-205.796 1053.6,-204.723"/>
</g>
<!-- Node25 -->
<g id="node55" class="node"><title>Node25</title>
<a xlink:href="_color_8h.html" target="_top" xlink:title="Color.h">
<polygon fill="none" stroke="black" points="1190.5,-175 1190.5,-195 1237.5,-195 1237.5,-175 1190.5,-175"/>
<text text-anchor="middle" x="1214" y="-182" font-family="FreeSans" font-size="10.00">Color.h</text>
</a>
</g>
<!-- Node22&#45;&gt;Node25 -->
<g id="edge60" class="edge"><title>Node22&#45;&gt;Node25</title>
<path fill="none" stroke="midnightblue" d="M1083.52,-232.897C1110.57,-222.968 1151.88,-207.804 1180.75,-197.206"/>
<polygon fill="midnightblue" stroke="midnightblue" points="1182.22,-200.395 1190.4,-193.664 1179.81,-193.824 1182.22,-200.395"/>
</g>
<!-- Node22&#45;&gt;Node27 -->
<g id="edge70" class="edge"><title>Node22&#45;&gt;Node27</title>
<path fill="none" stroke="midnightblue" d="M1069.24,-232.897C1080.61,-224.218 1097.23,-211.538 1110.5,-201.405"/>
<polygon fill="midnightblue" stroke="midnightblue" points="1112.83,-204.031 1118.66,-195.182 1108.59,-198.466 1112.83,-204.031"/>
</g>
<!-- Node24 -->
<g id="node52" class="node"><title>Node24</title>
<a xlink:href="_sel_fmt_8h.html" target="_top" xlink:title="../Util/SelFmt.h">
<polygon fill="none" stroke="black" points="1006.5,-117 1006.5,-137 1087.5,-137 1087.5,-117 1006.5,-117"/>
<text text-anchor="middle" x="1047" y="-124" font-family="FreeSans" font-size="10.00">../Util/SelFmt.h</text>
</a>
</g>
<!-- Node23&#45;&gt;Node24 -->
<g id="edge56" class="edge"><title>Node23&#45;&gt;Node24</title>
<path fill="none" stroke="midnightblue" d="M1047,-174.897C1047,-167.339 1047,-156.748 1047,-147.446"/>
<polygon fill="midnightblue" stroke="midnightblue" points="1050.5,-147.378 1047,-137.378 1043.5,-147.378 1050.5,-147.378"/>
</g>
<!-- Node24&#45;&gt;Node18 -->
<g id="edge58" class="edge"><title>Node24&#45;&gt;Node18</title>
<path fill="none" stroke="midnightblue" d="M1031.85,-116.897C1018.58,-108.052 999.081,-95.0539 983.744,-84.829"/>
<polygon fill="midnightblue" stroke="midnightblue" points="985.534,-81.8165 975.272,-79.1817 981.652,-87.6409 985.534,-81.8165"/>
</g>
<!-- Node25&#45;&gt;Node18 -->
<g id="edge64" class="edge"><title>Node25&#45;&gt;Node18</title>
<path fill="none" stroke="midnightblue" d="M1198.87,-174.844C1176.91,-160.409 1134.6,-133.744 1096,-116 1066.39,-102.385 1031.63,-90.4389 1004.67,-81.9978"/>
<polygon fill="midnightblue" stroke="midnightblue" points="1005.7,-78.6529 995.11,-79.0499 1003.63,-85.3419 1005.7,-78.6529"/>
</g>
<!-- Node25&#45;&gt;Node24 -->
<g id="edge66" class="edge"><title>Node25&#45;&gt;Node24</title>
<path fill="none" stroke="midnightblue" d="M1190.43,-176.813C1163.21,-167.361 1118.05,-151.675 1085.67,-140.43"/>
<polygon fill="midnightblue" stroke="midnightblue" points="1086.66,-137.069 1076.06,-137.094 1084.36,-143.681 1086.66,-137.069"/>
</g>
<!-- Node26 -->
<g id="node57" class="node"><title>Node26</title>
<polygon fill="none" stroke="#bfbfbf" points="1169.5,-117 1169.5,-137 1258.5,-137 1258.5,-117 1169.5,-117"/>
<text text-anchor="middle" x="1214" y="-124" font-family="FreeSans" font-size="10.00">boost/format.hpp</text>
</g>
<!-- Node25&#45;&gt;Node26 -->
<g id="edge62" class="edge"><title>Node25&#45;&gt;Node26</title>
<path fill="none" stroke="midnightblue" d="M1214,-174.897C1214,-167.339 1214,-156.748 1214,-147.446"/>
<polygon fill="midnightblue" stroke="midnightblue" points="1217.5,-147.378 1214,-137.378 1210.5,-147.378 1217.5,-147.378"/>
</g>
<!-- Node29&#45;&gt;Node17 -->
<g id="edge78" class="edge"><title>Node29&#45;&gt;Node17</title>
<path fill="none" stroke="midnightblue" d="M924,-476.836C924,-452.351 924,-405.892 924,-379.209"/>
<polygon fill="midnightblue" stroke="midnightblue" points="927.5,-379.105 924,-369.105 920.5,-379.105 927.5,-379.105"/>
</g>
<!-- Node30&#45;&gt;Node29 -->
<g id="edge82" class="edge"><title>Node30&#45;&gt;Node29</title>
<path fill="none" stroke="midnightblue" d="M866.395,-546.765C876.145,-537.665 888.469,-526.162 899.214,-516.134"/>
<polygon fill="midnightblue" stroke="midnightblue" points="901.777,-518.529 906.699,-509.147 897.001,-513.412 901.777,-518.529"/>
</g>
<!-- Node31 -->
<g id="node73" class="node"><title>Node31</title>
<a xlink:href="_m_p_l_8h.html" target="_top" xlink:title="MPL.h">
<polygon fill="none" stroke="black" points="814.5,-483 814.5,-503 859.5,-503 859.5,-483 814.5,-483"/>
<text text-anchor="middle" x="837" y="-490" font-family="FreeSans" font-size="10.00">MPL.h</text>
</a>
</g>
<!-- Node30&#45;&gt;Node31 -->
<g id="edge84" class="edge"><title>Node30&#45;&gt;Node31</title>
<path fill="none" stroke="midnightblue" d="M846.217,-546.765C844.511,-536.813 842.312,-523.987 840.49,-513.359"/>
<polygon fill="midnightblue" stroke="midnightblue" points="843.904,-512.556 838.764,-503.291 837.004,-513.739 843.904,-512.556"/>
</g>
<!-- Node32&#45;&gt;Node17 -->
<g id="edge92" class="edge"><title>Node32&#45;&gt;Node17</title>
<path fill="none" stroke="midnightblue" d="M980.822,-406.85C969.499,-397.315 955.193,-385.268 943.768,-375.647"/>
<polygon fill="midnightblue" stroke="midnightblue" points="945.946,-372.905 936.042,-369.141 941.437,-378.26 945.946,-372.905"/>
</g>
<!-- Node32&#45;&gt;Node23 -->
<g id="edge90" class="edge"><title>Node32&#45;&gt;Node23</title>
<path fill="none" stroke="midnightblue" d="M999.282,-406.922C998.282,-373.443 998.513,-294.193 1019,-232 1022.28,-222.037 1027.94,-211.924 1033.32,-203.643"/>
<polygon fill="midnightblue" stroke="midnightblue" points="1036.36,-205.405 1039.13,-195.179 1030.58,-201.444 1036.36,-205.405"/>
</g>
<!-- Node32&#45;&gt;Node25 -->
<g id="edge88" class="edge"><title>Node32&#45;&gt;Node25</title>
<path fill="none" stroke="midnightblue" d="M1038.43,-406.966C1076.84,-389.101 1135.07,-356.729 1170,-312 1195.13,-279.814 1206.46,-232.285 1211.12,-205.431"/>
<polygon fill="midnightblue" stroke="midnightblue" points="1214.62,-205.717 1212.73,-195.292 1207.71,-204.621 1214.62,-205.717"/>
</g>
<!-- Node33&#45;&gt;Node25 -->
<g id="edge96" class="edge"><title>Node33&#45;&gt;Node25</title>
<path fill="none" stroke="midnightblue" d="M1246.29,-406.63C1256.39,-397.138 1267.59,-384.258 1273,-370 1276.47,-360.858 1274.69,-357.631 1273,-348 1263.56,-294.172 1237.82,-234.694 1223.66,-204.665"/>
<polygon fill="midnightblue" stroke="midnightblue" points="1226.66,-202.83 1219.18,-195.329 1220.35,-205.859 1226.66,-202.83"/>
</g>
<!-- Node34 -->
<g id="node83" class="node"><title>Node34</title>
<a xlink:href="_background_8h.html" target="_top" xlink:title="Background.h">
<polygon fill="none" stroke="black" points="1188,-349 1188,-369 1264,-369 1264,-349 1188,-349"/>
<text text-anchor="middle" x="1226" y="-356" font-family="FreeSans" font-size="10.00">Background.h</text>
</a>
</g>
<!-- Node33&#45;&gt;Node34 -->
<g id="edge98" class="edge"><title>Node33&#45;&gt;Node34</title>
<path fill="none" stroke="midnightblue" d="M1226,-406.85C1226,-398.518 1226,-388.269 1226,-379.396"/>
<polygon fill="midnightblue" stroke="midnightblue" points="1229.5,-379.141 1226,-369.141 1222.5,-379.141 1229.5,-379.141"/>
</g>
<!-- Node34&#45;&gt;Node21 -->
<g id="edge100" class="edge"><title>Node34&#45;&gt;Node21</title>
<path fill="none" stroke="midnightblue" d="M1208.41,-348.897C1192.72,-339.887 1169.52,-326.567 1151.57,-316.259"/>
<polygon fill="midnightblue" stroke="midnightblue" points="1153.14,-313.126 1142.73,-311.182 1149.66,-319.197 1153.14,-313.126"/>
</g>
<!-- Node35&#45;&gt;Node6 -->
<g id="edge104" class="edge"><title>Node35&#45;&gt;Node6</title>
<path fill="none" stroke="midnightblue" d="M71.2231,-348.909C97.4994,-328.856 156.499,-283.83 188.453,-259.444"/>
<polygon fill="midnightblue" stroke="midnightblue" points="190.873,-262 196.699,-253.151 186.626,-256.435 190.873,-262"/>
</g>
<!-- Node36 -->
<g id="node89" class="node"><title>Node36</title>
<polygon fill="none" stroke="#bfbfbf" points="30,-291 30,-311 86,-311 86,-291 30,-291"/>
<text text-anchor="middle" x="58" y="-298" font-family="FreeSans" font-size="10.00">basedir.h</text>
</g>
<!-- Node35&#45;&gt;Node36 -->
<g id="edge106" class="edge"><title>Node35&#45;&gt;Node36</title>
<path fill="none" stroke="midnightblue" d="M58,-348.897C58,-341.339 58,-330.748 58,-321.446"/>
<polygon fill="midnightblue" stroke="midnightblue" points="61.5001,-321.378 58,-311.378 54.5001,-321.378 61.5001,-321.378"/>
</g>
<!-- Node37 -->
<g id="node91" class="node"><title>Node37</title>
<a xlink:href="_o_s_8h.html" target="_top" xlink:title="OS.h">
<polygon fill="none" stroke="black" points="398,-291 398,-311 436,-311 436,-291 398,-291"/>
<text text-anchor="middle" x="417" y="-298" font-family="FreeSans" font-size="10.00">OS.h</text>
</a>
</g>
<!-- Node35&#45;&gt;Node37 -->
<g id="edge108" class="edge"><title>Node35&#45;&gt;Node37</title>
<path fill="none" stroke="midnightblue" d="M116.089,-349.364C119.102,-348.895 122.086,-348.438 125,-348 238.903,-330.887 272.578,-341.258 387.99,-311.774"/>
<polygon fill="midnightblue" stroke="midnightblue" points="389.124,-315.095 397.921,-309.191 387.362,-308.321 389.124,-315.095"/>
</g>
<!-- Node37&#45;&gt;Node5 -->
<g id="edge116" class="edge"><title>Node37&#45;&gt;Node5</title>
<path fill="none" stroke="midnightblue" d="M397.782,-293.418C373.31,-283.762 330.698,-266.949 301.459,-255.413"/>
<polygon fill="midnightblue" stroke="midnightblue" points="302.689,-252.135 292.102,-251.72 300.119,-258.646 302.689,-252.135"/>
</g>
<!-- Node37&#45;&gt;Node6 -->
<g id="edge114" class="edge"><title>Node37&#45;&gt;Node6</title>
<path fill="none" stroke="midnightblue" d="M397.846,-293.07C394.907,-291.971 391.889,-290.909 389,-290 326.541,-270.341 306.325,-273.82 240.412,-254.181"/>
<polygon fill="midnightblue" stroke="midnightblue" points="241.385,-250.818 230.799,-251.251 239.344,-257.514 241.385,-250.818"/>
</g>
<!-- Node37&#45;&gt;Node18 -->
<g id="edge120" class="edge"><title>Node37&#45;&gt;Node18</title>
<path fill="none" stroke="midnightblue" d="M418.747,-290.532C421.804,-275.466 429.545,-247.752 447,-232 578.932,-112.94 797.935,-80.8196 901.848,-72.1733"/>
<polygon fill="midnightblue" stroke="midnightblue" points="902.144,-75.6608 911.838,-71.3852 901.594,-68.6825 902.144,-75.6608"/>
</g>
<!-- Node38 -->
<g id="node93" class="node"><title>Node38</title>
<polygon fill="none" stroke="#bfbfbf" points="310,-233 310,-253 352,-253 352,-233 310,-233"/>
<text text-anchor="middle" x="331" y="-240" font-family="FreeSans" font-size="10.00">locale</text>
</g>
<!-- Node37&#45;&gt;Node38 -->
<g id="edge110" class="edge"><title>Node37&#45;&gt;Node38</title>
<path fill="none" stroke="midnightblue" d="M402.02,-290.897C388.905,-282.052 369.632,-269.054 354.471,-258.829"/>
<polygon fill="midnightblue" stroke="midnightblue" points="356.345,-255.871 346.097,-253.182 352.431,-261.675 356.345,-255.871"/>
</g>
<!-- Node39 -->
<g id="node95" class="node"><title>Node39</title>
<polygon fill="none" stroke="#bfbfbf" points="370,-233 370,-253 400,-253 400,-233 370,-233"/>
<text text-anchor="middle" x="385" y="-240" font-family="FreeSans" font-size="10.00">set</text>
</g>
<!-- Node37&#45;&gt;Node39 -->
<g id="edge112" class="edge"><title>Node37&#45;&gt;Node39</title>
<path fill="none" stroke="midnightblue" d="M411.426,-290.897C407.075,-283.01 400.901,-271.821 395.615,-262.24"/>
<polygon fill="midnightblue" stroke="midnightblue" points="398.621,-260.443 390.726,-253.378 392.492,-263.824 398.621,-260.443"/>
</g>
<!-- Node40 -->
<g id="node99" class="node"><title>Node40</title>
<polygon fill="none" stroke="#bfbfbf" points="455.5,-233 455.5,-253 560.5,-253 560.5,-233 455.5,-233"/>
<text text-anchor="middle" x="508" y="-240" font-family="FreeSans" font-size="10.00">boost/filesystem.hpp</text>
</g>
<!-- Node37&#45;&gt;Node40 -->
<g id="edge118" class="edge"><title>Node37&#45;&gt;Node40</title>
<path fill="none" stroke="midnightblue" d="M432.851,-290.897C446.728,-282.052 467.122,-269.054 483.165,-258.829"/>
<polygon fill="midnightblue" stroke="midnightblue" points="485.474,-261.508 492.025,-253.182 481.711,-255.605 485.474,-261.508"/>
</g>
<!-- Node42 -->
<g id="node104" class="node"><title>Node42</title>
<polygon fill="none" stroke="#bfbfbf" points="1066.5,-483 1066.5,-503 1167.5,-503 1167.5,-483 1066.5,-483"/>
<text text-anchor="middle" x="1117" y="-490" font-family="FreeSans" font-size="10.00">boost/log/trivial.hpp</text>
</g>
<!-- Node41&#45;&gt;Node42 -->
<g id="edge124" class="edge"><title>Node41&#45;&gt;Node42</title>
<path fill="none" stroke="midnightblue" d="M1117,-552.971C1117,-542.679 1117,-526.375 1117,-513.364"/>
<polygon fill="midnightblue" stroke="midnightblue" points="1120.5,-513.011 1117,-503.011 1113.5,-513.011 1120.5,-513.011"/>
</g>
<!-- Node44 -->
<g id="node108" class="node"><title>Node44</title>
<a xlink:href="_game_director_8h.html" target="_top" xlink:title="GameDirector.h">
<polygon fill="none" stroke="black" points="713,-483 713,-503 797,-503 797,-483 713,-483"/>
<text text-anchor="middle" x="755" y="-490" font-family="FreeSans" font-size="10.00">GameDirector.h</text>
</a>
</g>
<!-- Node43&#45;&gt;Node44 -->
<g id="edge128" class="edge"><title>Node43&#45;&gt;Node44</title>
<path fill="none" stroke="midnightblue" d="M746.433,-552.971C747.918,-542.575 750.279,-526.045 752.147,-512.971"/>
<polygon fill="midnightblue" stroke="midnightblue" points="755.62,-513.405 753.57,-503.011 748.691,-512.415 755.62,-513.405"/>
</g>
<!-- Node45 -->
<g id="node110" class="node"><title>Node45</title>
<a xlink:href="_form_scene_8h.html" target="_top" xlink:title="FormScene.h">
<polygon fill="none" stroke="black" points="621,-483 621,-503 695,-503 695,-483 621,-483"/>
<text text-anchor="middle" x="658" y="-490" font-family="FreeSans" font-size="10.00">FormScene.h</text>
</a>
</g>
<!-- Node43&#45;&gt;Node45 -->
<g id="edge130" class="edge"><title>Node43&#45;&gt;Node45</title>
<path fill="none" stroke="midnightblue" d="M732.535,-552.971C718.451,-541.639 695.311,-523.021 678.546,-509.531"/>
<polygon fill="midnightblue" stroke="midnightblue" points="680.427,-506.553 670.442,-503.011 676.039,-512.006 680.427,-506.553"/>
</g>
<!-- Node45&#45;&gt;Node11 -->
<g id="edge132" class="edge"><title>Node45&#45;&gt;Node11</title>
<path fill="none" stroke="midnightblue" d="M680.167,-482.896C730.287,-459.334 848,-399.667 848,-359 848,-359 848,-359 848,-301 848,-267.181 842.062,-228.213 837.921,-205.146"/>
<polygon fill="midnightblue" stroke="midnightblue" points="841.339,-204.381 836.066,-195.191 834.457,-205.663 841.339,-204.381"/>
</g>
<!-- Node46 -->
<g id="node113" class="node"><title>Node46</title>
<a xlink:href="_ui_scene_8h.html" target="_top" xlink:title="UiScene.h">
<polygon fill="none" stroke="black" points="627,-413 627,-433 689,-433 689,-413 627,-413"/>
<text text-anchor="middle" x="658" y="-420" font-family="FreeSans" font-size="10.00">UiScene.h</text>
</a>
</g>
<!-- Node45&#45;&gt;Node46 -->
<g id="edge134" class="edge"><title>Node45&#45;&gt;Node46</title>
<path fill="none" stroke="midnightblue" d="M658,-482.971C658,-472.679 658,-456.375 658,-443.364"/>
<polygon fill="midnightblue" stroke="midnightblue" points="661.5,-443.011 658,-433.011 654.5,-443.011 661.5,-443.011"/>
</g>
<!-- Node47 -->
<g id="node115" class="node"><title>Node47</title>
<a xlink:href="_scene_8h.html" target="_top" xlink:title="Scene.h">
<polygon fill="none" stroke="black" points="410,-349 410,-369 462,-369 462,-349 410,-349"/>
<text text-anchor="middle" x="436" y="-356" font-family="FreeSans" font-size="10.00">Scene.h</text>
</a>
</g>
<!-- Node46&#45;&gt;Node47 -->
<g id="edge136" class="edge"><title>Node46&#45;&gt;Node47</title>
<path fill="none" stroke="midnightblue" d="M635.803,-412.872C630.068,-410.448 623.859,-407.989 618,-406 568.287,-389.122 509.182,-374.896 472.121,-366.655"/>
<polygon fill="midnightblue" stroke="midnightblue" points="472.797,-363.22 462.278,-364.491 471.294,-370.056 472.797,-363.22"/>
</g>
<!-- Node47&#45;&gt;Node37 -->
<g id="edge138" class="edge"><title>Node47&#45;&gt;Node37</title>
<path fill="none" stroke="midnightblue" d="M432.69,-348.897C430.188,-341.257 426.669,-330.517 423.599,-321.143"/>
<polygon fill="midnightblue" stroke="midnightblue" points="426.839,-319.791 420.4,-311.378 420.187,-321.97 426.839,-319.791"/>
</g>
</g>
</svg>
        <g id="navigator" transform="translate(0 0)" fill="#404254">
                <rect fill="#f2f5e9" fill-opacity="0.5" stroke="#606060" stroke-width=".5" x="0" y="0" width="60" height="60"/>
                <use id="zoomplus" xlink:href="#zoomPlus" x="17" y="9" onmousedown="handleZoom(evt,'in')"/>
                <use id="zoomminus" xlink:href="#zoomMin" x="42" y="9" onmousedown="handleZoom(evt,'out')"/>
                <use id="reset" xlink:href="#resetDef" x="30" y="36" onmousedown="handleReset()"/>
                <g id="arrowUp" xlink:href="#dirArrow" transform="translate(30 24)" onmousedown="handlePan(0,-1)">
                  <use xlink:href="#rim" fill="#404040">
                        <set attributeName="fill" to="#808080" begin="arrowUp.mouseover" end="arrowUp.mouseout"/>
                  </use>
                  <path fill="none" stroke="white" stroke-width="1.5" d="M0,-3.0v7 M-2.5,-0.5L0,-3.0L2.5,-0.5"/>
                </g>
                <g id="arrowRight" xlink:href="#dirArrow" transform="rotate(90) translate(36 -43)" onmousedown="handlePan(1,0)">
                  <use xlink:href="#rim" fill="#404040">
                        <set attributeName="fill" to="#808080" begin="arrowRight.mouseover" end="arrowRight.mouseout"/>
                  </use>
                  <path fill="none" stroke="white" stroke-width="1.5" d="M0,-3.0v7 M-2.5,-0.5L0,-3.0L2.5,-0.5"/>
                </g>
                <g id="arrowDown" xlink:href="#dirArrow" transform="rotate(180) translate(-30 -48)" onmousedown="handlePan(0,1)">
                  <use xlink:href="#rim" fill="#404040">
                        <set attributeName="fill" to="#808080" begin="arrowDown.mouseover" end="arrowDown.mouseout"/>
                  </use>
                  <path fill="none" stroke="white" stroke-width="1.5" d="M0,-3.0v7 M-2.5,-0.5L0,-3.0L2.5,-0.5"/>
                </g>
                <g id="arrowLeft" xlink:href="#dirArrow" transform="rotate(270) translate(-36 17)" onmousedown="handlePan(-1,0)">
                  <use xlink:href="#rim" fill="#404040">
                        <set attributeName="fill" to="#808080" begin="arrowLeft.mouseover" end="arrowLeft.mouseout"/>
                  </use>
                  <path fill="none" stroke="white" stroke-width="1.5" d="M0,-3.0v7 M-2.5,-0.5L0,-3.0L2.5,-0.5"/>
                </g>
        </g>
        <svg viewBox="0 0 15 15" width="100%" height="30px" preserveAspectRatio="xMaxYMin meet">
         <g id="arrow_out" transform="scale(0.3 0.3)">
          <a xlink:href="_dialog_scene_8cpp__incl_org.svg" target="_base">
           <rect id="button" ry="5" rx="5" y="6" x="6" height="38" width="38"
                fill="#f2f5e9" fill-opacity="0.5" stroke="#606060" stroke-width="1.0"/>
           <path id="arrow"
             d="M 11.500037,31.436501 C 11.940474,20.09759 22.043105,11.32322 32.158766,21.979434 L 37.068811,17.246167 C 37.068811,17.246167 37.088388,32 37.088388,32 L 22.160133,31.978069 C 22.160133,31.978069 26.997745,27.140456 26.997745,27.140456 C 18.528582,18.264221 13.291696,25.230495 11.500037,31.436501 z"
             style="fill:#404040;"/>
          </a>
         </g>
        </svg>
</svg>
