<?xml version="1.0" encoding="UTF-8" standalone="no"?>
<!DOCTYPE svg PUBLIC "-//W3C//DTD SVG 1.1//EN"
 "http://www.w3.org/Graphics/SVG/1.1/DTD/svg11.dtd">
<!-- Generated by graphviz version 2.38.0 (20140413.2041)
 -->
<!-- Title: Display.h Pages: 1 -->
<svg width="392pt" height="308pt"
 viewBox="0.00 0.00 392.00 308.00" xmlns="http://www.w3.org/2000/svg" xmlns:xlink="http://www.w3.org/1999/xlink">
<g id="graph0" class="graph" transform="scale(1 1) rotate(0) translate(4 304)">
<title>Display.h</title>
<!-- Node1 -->
<g id="node1" class="node"><title>Node1</title>
<polygon fill="#bfbfbf" stroke="black" points="156.5,-280.5 156.5,-299.5 215.5,-299.5 215.5,-280.5 156.5,-280.5"/>
<text text-anchor="middle" x="186" y="-287.5" font-family="FreeSans" font-size="10.00">Display.h</text>
</g>
<!-- Node2 -->
<g id="node2" class="node"><title>Node2</title>
<g id="a_node2"><a xlink:href="_vec_8h.html" target="_top" xlink:title="../Vec.h">
<polygon fill="none" stroke="black" points="42,-168.5 42,-187.5 94,-187.5 94,-168.5 42,-168.5"/>
<text text-anchor="middle" x="68" y="-175.5" font-family="FreeSans" font-size="10.00">../Vec.h</text>
</a>
</g>
</g>
<!-- Node1&#45;&gt;Node2 -->
<g id="edge1" class="edge"><title>Node1&#45;&gt;Node2</title>
<path fill="none" stroke="midnightblue" d="M162.184,-280.448C144.181,-273.032 119.782,-260.83 103,-244 89.7308,-230.693 80.1799,-211.306 74.4409,-197.169"/>
<polygon fill="midnightblue" stroke="midnightblue" points="77.6181,-195.677 70.7969,-187.57 71.0738,-198.161 77.6181,-195.677"/>
</g>
<!-- Node3 -->
<g id="node3" class="node"><title>Node3</title>
<g id="a_node3"><a xlink:href="_styles_8h.html" target="_top" xlink:title="Styles.h">
<polygon fill="none" stroke="black" points="112.5,-224.5 112.5,-243.5 167.5,-243.5 167.5,-224.5 112.5,-224.5"/>
<text text-anchor="middle" x="140" y="-231.5" font-family="FreeSans" font-size="10.00">Styles.h</text>
</a>
</g>
</g>
<!-- Node1&#45;&gt;Node3 -->
<g id="edge2" class="edge"><title>Node1&#45;&gt;Node3</title>
<path fill="none" stroke="midnightblue" d="M178.404,-280.083C171.773,-272.298 161.979,-260.801 153.942,-251.367"/>
<polygon fill="midnightblue" stroke="midnightblue" points="156.604,-249.094 147.455,-243.751 151.275,-253.633 156.604,-249.094"/>
</g>
<!-- Node11 -->
<g id="node11" class="node"><title>Node11</title>
<g id="a_node11"><a xlink:href="_ui_layout_flags_8h.html" target="_top" xlink:title="UiLayoutFlags.h">
<polygon fill="none" stroke="black" points="186,-224.5 186,-243.5 278,-243.5 278,-224.5 186,-224.5"/>
<text text-anchor="middle" x="232" y="-231.5" font-family="FreeSans" font-size="10.00">UiLayoutFlags.h</text>
</a>
</g>
</g>
<!-- Node1&#45;&gt;Node11 -->
<g id="edge13" class="edge"><title>Node1&#45;&gt;Node11</title>
<path fill="none" stroke="midnightblue" d="M193.596,-280.083C200.227,-272.298 210.021,-260.801 218.058,-251.367"/>
<polygon fill="midnightblue" stroke="midnightblue" points="220.725,-253.633 224.545,-243.751 215.396,-249.094 220.725,-253.633"/>
</g>
<!-- Node12 -->
<g id="node12" class="node"><title>Node12</title>
<g id="a_node12"><a xlink:href="_view_attacher_8h.html" target="_top" xlink:title="ViewAttacher.h">
<polygon fill="none" stroke="black" points="296,-224.5 296,-243.5 384,-243.5 384,-224.5 296,-224.5"/>
<text text-anchor="middle" x="340" y="-231.5" font-family="FreeSans" font-size="10.00">ViewAttacher.h</text>
</a>
</g>
</g>
<!-- Node1&#45;&gt;Node12 -->
<g id="edge15" class="edge"><title>Node1&#45;&gt;Node12</title>
<path fill="none" stroke="midnightblue" d="M210.402,-280.444C236.197,-271.399 277.077,-257.064 306.018,-246.916"/>
<polygon fill="midnightblue" stroke="midnightblue" points="307.434,-250.128 315.712,-243.516 305.118,-243.523 307.434,-250.128"/>
</g>
<!-- Node3&#45;&gt;Node2 -->
<g id="edge3" class="edge"><title>Node3&#45;&gt;Node2</title>
<path fill="none" stroke="midnightblue" d="M128.432,-224.324C117.58,-216.185 101.119,-203.839 88.1166,-194.087"/>
<polygon fill="midnightblue" stroke="midnightblue" points="89.8786,-191.034 79.7785,-187.834 85.6785,-196.634 89.8786,-191.034"/>
</g>
<!-- Node4 -->
<g id="node4" class="node"><title>Node4</title>
<g id="a_node4"><a xlink:href="_ui_font_8h.html" target="_top" xlink:title="UiFont.h">
<polygon fill="none" stroke="black" points="112,-168.5 112,-187.5 168,-187.5 168,-168.5 112,-168.5"/>
<text text-anchor="middle" x="140" y="-175.5" font-family="FreeSans" font-size="10.00">UiFont.h</text>
</a>
</g>
</g>
<!-- Node3&#45;&gt;Node4 -->
<g id="edge4" class="edge"><title>Node3&#45;&gt;Node4</title>
<path fill="none" stroke="midnightblue" d="M140,-224.083C140,-217.006 140,-206.861 140,-197.986"/>
<polygon fill="midnightblue" stroke="midnightblue" points="143.5,-197.751 140,-187.751 136.5,-197.751 143.5,-197.751"/>
</g>
<!-- Node9 -->
<g id="node9" class="node"><title>Node9</title>
<g id="a_node9"><a xlink:href="_color_8h.html" target="_top" xlink:title="Color.h">
<polygon fill="none" stroke="black" points="187,-168.5 187,-187.5 237,-187.5 237,-168.5 187,-168.5"/>
<text text-anchor="middle" x="212" y="-175.5" font-family="FreeSans" font-size="10.00">Color.h</text>
</a>
</g>
</g>
<!-- Node3&#45;&gt;Node9 -->
<g id="edge9" class="edge"><title>Node3&#45;&gt;Node9</title>
<path fill="none" stroke="midnightblue" d="M151.568,-224.324C162.42,-216.185 178.881,-203.839 191.883,-194.087"/>
<polygon fill="midnightblue" stroke="midnightblue" points="194.321,-196.634 200.221,-187.834 190.121,-191.034 194.321,-196.634"/>
</g>
<!-- Node5 -->
<g id="node5" class="node"><title>Node5</title>
<g id="a_node5"><a xlink:href="_hash_8h.html" target="_top" xlink:title="../Util/Hash.h">
<polygon fill="none" stroke="black" points="0,-112.5 0,-131.5 78,-131.5 78,-112.5 0,-112.5"/>
<text text-anchor="middle" x="39" y="-119.5" font-family="FreeSans" font-size="10.00">../Util/Hash.h</text>
</a>
</g>
</g>
<!-- Node4&#45;&gt;Node5 -->
<g id="edge5" class="edge"><title>Node4&#45;&gt;Node5</title>
<path fill="none" stroke="midnightblue" d="M123.773,-168.324C107.649,-159.703 82.6998,-146.364 64.0359,-136.386"/>
<polygon fill="midnightblue" stroke="midnightblue" points="65.6561,-133.283 55.1871,-131.655 62.3556,-139.456 65.6561,-133.283"/>
</g>
<!-- Node6 -->
<g id="node6" class="node"><title>Node6</title>
<g id="a_node6"><a xlink:href="_sel_fmt_8h.html" target="_top" xlink:title="../Util/SelFmt.h">
<polygon fill="none" stroke="black" points="96.5,-112.5 96.5,-131.5 183.5,-131.5 183.5,-112.5 96.5,-112.5"/>
<text text-anchor="middle" x="140" y="-119.5" font-family="FreeSans" font-size="10.00">../Util/SelFmt.h</text>
</a>
</g>
</g>
<!-- Node4&#45;&gt;Node6 -->
<g id="edge6" class="edge"><title>Node4&#45;&gt;Node6</title>
<path fill="none" stroke="midnightblue" d="M140,-168.083C140,-161.006 140,-150.861 140,-141.986"/>
<polygon fill="midnightblue" stroke="midnightblue" points="143.5,-141.751 140,-131.751 136.5,-141.751 143.5,-141.751"/>
</g>
<!-- Node7 -->
<g id="node7" class="node"><title>Node7</title>
<g id="a_node7"><a xlink:href="_m_r___types_8h.html" target="_top" xlink:title="../Util/MR_Types.h">
<polygon fill="none" stroke="black" points="162.5,-56.5 162.5,-75.5 261.5,-75.5 261.5,-56.5 162.5,-56.5"/>
<text text-anchor="middle" x="212" y="-63.5" font-family="FreeSans" font-size="10.00">../Util/MR_Types.h</text>
</a>
</g>
</g>
<!-- Node6&#45;&gt;Node7 -->
<g id="edge7" class="edge"><title>Node6&#45;&gt;Node7</title>
<path fill="none" stroke="midnightblue" d="M151.568,-112.324C162.42,-104.185 178.881,-91.8395 191.883,-82.0874"/>
<polygon fill="midnightblue" stroke="midnightblue" points="194.321,-84.6339 200.221,-75.8339 190.121,-79.0339 194.321,-84.6339"/>
</g>
<!-- Node8 -->
<g id="node8" class="node"><title>Node8</title>
<polygon fill="none" stroke="#bfbfbf" points="180,-0.5 180,-19.5 244,-19.5 244,-0.5 180,-0.5"/>
<text text-anchor="middle" x="212" y="-7.5" font-family="FreeSans" font-size="10.00">inttypes.h</text>
</g>
<!-- Node7&#45;&gt;Node8 -->
<g id="edge8" class="edge"><title>Node7&#45;&gt;Node8</title>
<path fill="none" stroke="midnightblue" d="M212,-56.083C212,-49.0059 212,-38.8611 212,-29.9865"/>
<polygon fill="midnightblue" stroke="midnightblue" points="215.5,-29.751 212,-19.7511 208.5,-29.7511 215.5,-29.751"/>
</g>
<!-- Node9&#45;&gt;Node6 -->
<g id="edge12" class="edge"><title>Node9&#45;&gt;Node6</title>
<path fill="none" stroke="midnightblue" d="M200.432,-168.324C189.58,-160.185 173.119,-147.839 160.117,-138.087"/>
<polygon fill="midnightblue" stroke="midnightblue" points="161.879,-135.034 151.779,-131.834 157.679,-140.634 161.879,-135.034"/>
</g>
<!-- Node9&#45;&gt;Node7 -->
<g id="edge11" class="edge"><title>Node9&#45;&gt;Node7</title>
<path fill="none" stroke="midnightblue" d="M212,-168.368C212,-150.617 212,-109.666 212,-85.5974"/>
<polygon fill="midnightblue" stroke="midnightblue" points="215.5,-85.5914 212,-75.5914 208.5,-85.5915 215.5,-85.5914"/>
</g>
<!-- Node10 -->
<g id="node10" class="node"><title>Node10</title>
<polygon fill="none" stroke="#bfbfbf" points="240,-112.5 240,-131.5 340,-131.5 340,-112.5 240,-112.5"/>
<text text-anchor="middle" x="290" y="-119.5" font-family="FreeSans" font-size="10.00">boost/format.hpp</text>
</g>
<!-- Node9&#45;&gt;Node10 -->
<g id="edge10" class="edge"><title>Node9&#45;&gt;Node10</title>
<path fill="none" stroke="midnightblue" d="M224.532,-168.324C236.586,-159.979 255.027,-147.212 269.269,-137.352"/>
<polygon fill="midnightblue" stroke="midnightblue" points="271.269,-140.224 277.499,-131.655 267.285,-134.469 271.269,-140.224"/>
</g>
<!-- Node11&#45;&gt;Node7 -->
<g id="edge14" class="edge"><title>Node11&#45;&gt;Node7</title>
<path fill="none" stroke="midnightblue" d="M252.521,-224.398C294.386,-205.618 382.933,-158.863 349,-112 331.346,-87.6198 300.055,-76.2143 271.831,-70.9739"/>
<polygon fill="midnightblue" stroke="midnightblue" points="272.034,-67.4611 261.602,-69.3096 270.91,-74.3702 272.034,-67.4611"/>
</g>
</g>
</svg>
