<?xml version="1.0" encoding="UTF-8" standalone="no"?>
<!DOCTYPE svg PUBLIC "-//W3C//DTD SVG 1.1//EN"
 "http://www.w3.org/Graphics/SVG/1.1/DTD/svg11.dtd">
<!-- Generated by graphviz version 2.26.3 (20100126.1600)
 -->
<!-- Title: DisplaySelectScene.h Pages: 1 -->
<!--zoomable 738 -->
<svg id="main" version="1.1" xmlns="http://www.w3.org/2000/svg" xmlns:xlink="http://www.w3.org/1999/xlink" xml:space="preserve" onload="init(evt)">
<style type="text/css"><![CDATA[
.edge:hover path { stroke: red; }
.edge:hover polygon { stroke: red; fill: red; }
]]></style>
<script type="text/javascript"><![CDATA[
var edges = document.getElementsByTagName('g');
if (edges && edges.length) {
  for (var i=0;i<edges.length;i++) {
    if (edges[i].id.substr(0,4)=='edge') {
      edges[i].setAttribute('class','edge');
    }
  }
}
]]></script>
        <defs>
                <circle id="rim" cx="0" cy="0" r="7"/>
                <circle id="rim2" cx="0" cy="0" r="3.5"/>
                <g id="zoomPlus">
                        <use xlink:href="#rim" fill="#404040">
                                <set attributeName="fill" to="#808080" begin="zoomplus.mouseover" end="zoomplus.mouseout"/>
                        </use>
                        <path d="M-4,0h8M0,-4v8" fill="none" stroke="white" stroke-width="1.5" pointer-events="none"/>
                </g>
                <g id="zoomMin">
                        <use xlink:href="#rim" fill="#404040">
                                <set attributeName="fill" to="#808080" begin="zoomminus.mouseover" end="zoomminus.mouseout"/>
                        </use>
                        <path d="M-4,0h8" fill="none" stroke="white" stroke-width="1.5" pointer-events="none"/>
                </g>
                <g id="dirArrow">
                        <path fill="none" stroke="white" stroke-width="1.5" d="M0,-3.0v7 M-2.5,-0.5L0,-3.0L2.5,-0.5"/>
                </g>
               <g id="resetDef">
                       <use xlink:href="#rim2" fill="#404040">
                               <set attributeName="fill" to="#808080" begin="reset.mouseover" end="reset.mouseout"/>
                       </use>
               </g>
        </defs>

<script type="text/javascript">
var viewWidth = 742;
var viewHeight = 738;
var sectionId = 'dynsection-0';
</script>
<script xlink:href="svgpan.js"/>
<svg id="graph" class="graph">
<g id="viewport">
<title>DisplaySelectScene.h</title>
<!-- Node1 -->
<g id="node1" class="node"><title>Node1</title>
<polygon fill="#bfbfbf" stroke="black" points="251.5,-709 251.5,-729 362.5,-729 362.5,-709 251.5,-709"/>
<text text-anchor="middle" x="307" y="-716" font-family="FreeSans" font-size="10.00">DisplaySelectScene.h</text>
</g>
<!-- Node2 -->
<g id="node3" class="node"><title>Node2</title>
<a xlink:href="_pick_list_8h.html" target="_top" xlink:title="../../engine/Display\l/PickList.h">
<polygon fill="none" stroke="black" points="259.5,-639 259.5,-671 354.5,-671 354.5,-639 259.5,-639"/>
<text text-anchor="start" x="267.5" y="-658" font-family="FreeSans" font-size="10.00">../../engine/Display</text>
<text text-anchor="middle" x="307" y="-646" font-family="FreeSans" font-size="10.00">/PickList.h</text>
</a>
</g>
<!-- Node1&#45;&gt;Node2 -->
<g id="edge2" class="edge"><title>Node1&#45;&gt;Node2</title>
<path fill="none" stroke="midnightblue" d="M307,-708.717C307,-701.244 307,-690.779 307,-681.068"/>
<polygon fill="midnightblue" stroke="midnightblue" points="310.5,-681.005 307,-671.005 303.5,-681.005 310.5,-681.005"/>
</g>
<!-- Node25 -->
<g id="node58" class="node"><title>Node25</title>
<a xlink:href="_radio_button_8h.html" target="_top" xlink:title="../../engine/Display\l/RadioButton.h">
<polygon fill="none" stroke="black" points="147.5,-639 147.5,-671 242.5,-671 242.5,-639 147.5,-639"/>
<text text-anchor="start" x="155.5" y="-658" font-family="FreeSans" font-size="10.00">../../engine/Display</text>
<text text-anchor="middle" x="195" y="-646" font-family="FreeSans" font-size="10.00">/RadioButton.h</text>
</a>
</g>
<!-- Node1&#45;&gt;Node25 -->
<g id="edge66" class="edge"><title>Node1&#45;&gt;Node25</title>
<path fill="none" stroke="midnightblue" d="M289.005,-708.717C273.631,-699.932 251.022,-687.012 231.829,-676.045"/>
<polygon fill="midnightblue" stroke="midnightblue" points="233.428,-672.928 223.009,-671.005 229.955,-679.006 233.428,-672.928"/>
</g>
<!-- Node26 -->
<g id="node62" class="node"><title>Node26</title>
<a xlink:href="_dialog_scene_8h.html" target="_top" xlink:title="DialogScene.h">
<polygon fill="none" stroke="black" points="389.5,-349 389.5,-369 468.5,-369 468.5,-349 389.5,-349"/>
<text text-anchor="middle" x="429" y="-356" font-family="FreeSans" font-size="10.00">DialogScene.h</text>
</a>
</g>
<!-- Node1&#45;&gt;Node26 -->
<g id="edge72" class="edge"><title>Node1&#45;&gt;Node26</title>
<path fill="none" stroke="midnightblue" d="M322.879,-708.927C335.247,-700.388 352.092,-687.138 363,-672 385.629,-640.596 395,-629.708 395,-591 395,-591 395,-591 395,-475 395,-439.876 409.532,-401.097 419.595,-378.455"/>
<polygon fill="midnightblue" stroke="midnightblue" points="422.827,-379.806 423.836,-369.259 416.47,-376.874 422.827,-379.806"/>
</g>
<!-- Node3 -->
<g id="node5" class="node"><title>Node3</title>
<a xlink:href="_exception_8h.html" target="_top" xlink:title="../Exception.h">
<polygon fill="none" stroke="black" points="238,-581 238,-601 312,-601 312,-581 238,-581"/>
<text text-anchor="middle" x="275" y="-588" font-family="FreeSans" font-size="10.00">../Exception.h</text>
</a>
</g>
<!-- Node2&#45;&gt;Node3 -->
<g id="edge4" class="edge"><title>Node2&#45;&gt;Node3</title>
<path fill="none" stroke="midnightblue" d="M298.925,-638.85C294.574,-630.148 289.177,-619.354 284.611,-610.221"/>
<polygon fill="midnightblue" stroke="midnightblue" points="287.673,-608.52 280.07,-601.141 281.412,-611.651 287.673,-608.52"/>
</g>
<!-- Node5 -->
<g id="node9" class="node"><title>Node5</title>
<a xlink:href="_base_container_8h.html" target="_top" xlink:title="BaseContainer.h">
<polygon fill="none" stroke="black" points="259,-465 259,-485 347,-485 347,-465 259,-465"/>
<text text-anchor="middle" x="303" y="-472" font-family="FreeSans" font-size="10.00">BaseContainer.h</text>
</a>
</g>
<!-- Node2&#45;&gt;Node5 -->
<g id="edge8" class="edge"><title>Node2&#45;&gt;Node5</title>
<path fill="none" stroke="midnightblue" d="M312.389,-638.978C315.599,-628.575 319.358,-614.647 321,-602 325.921,-564.103 316.156,-519.946 309.183,-494.951"/>
<polygon fill="midnightblue" stroke="midnightblue" points="312.496,-493.809 306.328,-485.195 305.778,-495.776 312.496,-493.809"/>
</g>
<!-- Node22 -->
<g id="node51" class="node"><title>Node22</title>
<a xlink:href="_state_button_8h.html" target="_top" xlink:title="StateButton.h">
<polygon fill="none" stroke="black" points="144,-581 144,-601 220,-601 220,-581 144,-581"/>
<text text-anchor="middle" x="182" y="-588" font-family="FreeSans" font-size="10.00">StateButton.h</text>
</a>
</g>
<!-- Node2&#45;&gt;Node22 -->
<g id="edge58" class="edge"><title>Node2&#45;&gt;Node22</title>
<path fill="none" stroke="midnightblue" d="M275.457,-638.85C255.568,-628.667 230.083,-615.618 210.751,-605.721"/>
<polygon fill="midnightblue" stroke="midnightblue" points="212.303,-602.583 201.807,-601.141 209.113,-608.814 212.303,-602.583"/>
</g>
<!-- Node4 -->
<g id="node7" class="node"><title>Node4</title>
<polygon fill="none" stroke="#bfbfbf" points="246,-523 246,-543 304,-543 304,-523 246,-523"/>
<text text-anchor="middle" x="275" y="-530" font-family="FreeSans" font-size="10.00">exception</text>
</g>
<!-- Node3&#45;&gt;Node4 -->
<g id="edge6" class="edge"><title>Node3&#45;&gt;Node4</title>
<path fill="none" stroke="midnightblue" d="M275,-580.897C275,-573.339 275,-562.748 275,-553.446"/>
<polygon fill="midnightblue" stroke="midnightblue" points="278.5,-553.378 275,-543.378 271.5,-553.378 278.5,-553.378"/>
</g>
<!-- Node6 -->
<g id="node11" class="node"><title>Node6</title>
<a xlink:href="_ui_view_model_8h.html" target="_top" xlink:title="UiViewModel.h">
<polygon fill="none" stroke="black" points="141,-407 141,-427 223,-427 223,-407 141,-407"/>
<text text-anchor="middle" x="182" y="-414" font-family="FreeSans" font-size="10.00">UiViewModel.h</text>
</a>
</g>
<!-- Node5&#45;&gt;Node6 -->
<g id="edge10" class="edge"><title>Node5&#45;&gt;Node6</title>
<path fill="none" stroke="midnightblue" d="M281.923,-464.897C262.695,-455.68 234.058,-441.953 212.363,-431.554"/>
<polygon fill="midnightblue" stroke="midnightblue" points="213.771,-428.348 203.241,-427.182 210.746,-434.66 213.771,-428.348"/>
</g>
<!-- Node7 -->
<g id="node13" class="node"><title>Node7</title>
<a xlink:href="_nav_8h.html" target="_top" xlink:title="../Control/Nav.h">
<polygon fill="none" stroke="black" points="-0.5,-349 -0.5,-369 82.5,-369 82.5,-349 -0.5,-349"/>
<text text-anchor="middle" x="41" y="-356" font-family="FreeSans" font-size="10.00">../Control/Nav.h</text>
</a>
</g>
<!-- Node6&#45;&gt;Node7 -->
<g id="edge12" class="edge"><title>Node6&#45;&gt;Node7</title>
<path fill="none" stroke="midnightblue" d="M157.44,-406.897C134.632,-397.515 100.461,-383.459 75.0293,-372.998"/>
<polygon fill="midnightblue" stroke="midnightblue" points="76.3316,-369.749 65.752,-369.182 73.6686,-376.223 76.3316,-369.749"/>
</g>
<!-- Node8 -->
<g id="node15" class="node"><title>Node8</title>
<a xlink:href="_m_r___types_8h.html" target="_top" xlink:title="../Util/MR_Types.h">
<polygon fill="none" stroke="black" points="288,-59 288,-79 384,-79 384,-59 288,-59"/>
<text text-anchor="middle" x="336" y="-66" font-family="FreeSans" font-size="10.00">../Util/MR_Types.h</text>
</a>
</g>
<!-- Node6&#45;&gt;Node8 -->
<g id="edge14" class="edge"><title>Node6&#45;&gt;Node8</title>
<path fill="none" stroke="midnightblue" d="M170.111,-406.825C149.661,-388.119 110,-346.035 110,-301 110,-301 110,-301 110,-185 110,-152.812 108.324,-137.806 132,-116 152.99,-96.6682 224.987,-83.3684 277.518,-75.9743"/>
<polygon fill="midnightblue" stroke="midnightblue" points="278.311,-79.3985 287.743,-74.5742 277.361,-72.4632 278.311,-79.3985"/>
</g>
<!-- Node10 -->
<g id="node19" class="node"><title>Node10</title>
<a xlink:href="_vec_8h.html" target="_top" xlink:title="../Vec.h">
<polygon fill="none" stroke="black" points="217.5,-175 217.5,-195 266.5,-195 266.5,-175 217.5,-175"/>
<text text-anchor="middle" x="242" y="-182" font-family="FreeSans" font-size="10.00">../Vec.h</text>
</a>
</g>
<!-- Node6&#45;&gt;Node10 -->
<g id="edge18" class="edge"><title>Node6&#45;&gt;Node10</title>
<path fill="none" stroke="midnightblue" d="M177.547,-406.962C165.318,-377.766 134.232,-291.206 167,-232 175.812,-216.079 192.52,-204.83 207.934,-197.338"/>
<polygon fill="midnightblue" stroke="midnightblue" points="209.586,-200.433 217.281,-193.15 206.724,-194.045 209.586,-200.433"/>
</g>
<!-- Node11 -->
<g id="node21" class="node"><title>Node11</title>
<a xlink:href="_ui_layout_flags_8h.html" target="_top" xlink:title="UiLayoutFlags.h">
<polygon fill="none" stroke="black" points="419.5,-233 419.5,-253 506.5,-253 506.5,-233 419.5,-233"/>
<text text-anchor="middle" x="463" y="-240" font-family="FreeSans" font-size="10.00">UiLayoutFlags.h</text>
</a>
</g>
<!-- Node6&#45;&gt;Node11 -->
<g id="edge20" class="edge"><title>Node6&#45;&gt;Node11</title>
<path fill="none" stroke="midnightblue" d="M205.039,-406.918C224.466,-398.081 252.741,-384.424 276,-370 326.161,-338.894 332.829,-322.648 382,-290 399.323,-278.498 419.555,-266.757 435.465,-257.888"/>
<polygon fill="midnightblue" stroke="midnightblue" points="437.216,-260.919 444.278,-253.02 433.832,-254.791 437.216,-260.919"/>
</g>
<!-- Node12 -->
<g id="node24" class="node"><title>Node12</title>
<a xlink:href="_view_model_8h.html" target="_top" xlink:title="ViewModel.h">
<polygon fill="none" stroke="black" points="195,-349 195,-369 267,-369 267,-349 195,-349"/>
<text text-anchor="middle" x="231" y="-356" font-family="FreeSans" font-size="10.00">ViewModel.h</text>
</a>
</g>
<!-- Node6&#45;&gt;Node12 -->
<g id="edge24" class="edge"><title>Node6&#45;&gt;Node12</title>
<path fill="none" stroke="midnightblue" d="M190.535,-406.897C197.476,-398.682 207.444,-386.883 215.75,-377.051"/>
<polygon fill="midnightblue" stroke="midnightblue" points="218.453,-379.275 222.233,-369.378 213.106,-374.758 218.453,-379.275"/>
</g>
<!-- Node9 -->
<g id="node17" class="node"><title>Node9</title>
<polygon fill="none" stroke="#bfbfbf" points="307,-1 307,-21 365,-21 365,-1 307,-1"/>
<text text-anchor="middle" x="336" y="-8" font-family="FreeSans" font-size="10.00">inttypes.h</text>
</g>
<!-- Node8&#45;&gt;Node9 -->
<g id="edge16" class="edge"><title>Node8&#45;&gt;Node9</title>
<path fill="none" stroke="midnightblue" d="M336,-58.8972C336,-51.339 336,-40.7476 336,-31.4458"/>
<polygon fill="midnightblue" stroke="midnightblue" points="339.5,-31.3776 336,-21.3776 332.5,-31.3776 339.5,-31.3776"/>
</g>
<!-- Node11&#45;&gt;Node8 -->
<g id="edge22" class="edge"><title>Node11&#45;&gt;Node8</title>
<path fill="none" stroke="midnightblue" d="M464.212,-232.85C466.423,-209.551 468.602,-151.512 441,-116 428.684,-100.155 409.859,-89.5073 391.533,-82.4184"/>
<polygon fill="midnightblue" stroke="midnightblue" points="392.626,-79.0925 382.032,-79.0271 390.273,-85.6852 392.626,-79.0925"/>
</g>
<!-- Node13 -->
<g id="node26" class="node"><title>Node13</title>
<a xlink:href="_display_8h.html" target="_top" xlink:title="Display.h">
<polygon fill="none" stroke="black" points="278,-291 278,-311 334,-311 334,-291 278,-291"/>
<text text-anchor="middle" x="306" y="-298" font-family="FreeSans" font-size="10.00">Display.h</text>
</a>
</g>
<!-- Node12&#45;&gt;Node13 -->
<g id="edge26" class="edge"><title>Node12&#45;&gt;Node13</title>
<path fill="none" stroke="midnightblue" d="M244.064,-348.897C255.287,-340.218 271.683,-327.538 284.786,-317.405"/>
<polygon fill="midnightblue" stroke="midnightblue" points="287.065,-320.068 292.834,-311.182 282.782,-314.53 287.065,-320.068"/>
</g>
<!-- Node20 -->
<g id="node46" class="node"><title>Node20</title>
<a xlink:href="_view_attacher_8h.html" target="_top" xlink:title="ViewAttacher.h">
<polygon fill="none" stroke="black" points="175.5,-233 175.5,-253 258.5,-253 258.5,-233 175.5,-233"/>
<text text-anchor="middle" x="217" y="-240" font-family="FreeSans" font-size="10.00">ViewAttacher.h</text>
</a>
</g>
<!-- Node12&#45;&gt;Node20 -->
<g id="edge56" class="edge"><title>Node12&#45;&gt;Node20</title>
<path fill="none" stroke="midnightblue" d="M231.925,-348.646C232.926,-335.09 234.007,-310.626 231,-290 229.67,-280.877 226.961,-271.063 224.276,-262.775"/>
<polygon fill="midnightblue" stroke="midnightblue" points="227.564,-261.572 220.996,-253.259 220.946,-263.854 227.564,-261.572"/>
</g>
<!-- Node21 -->
<g id="node48" class="node"><title>Node21</title>
<a xlink:href="_view_8h.html" target="_top" xlink:title="View.h">
<polygon fill="none" stroke="black" points="176,-291 176,-311 222,-311 222,-291 176,-291"/>
<text text-anchor="middle" x="199" y="-298" font-family="FreeSans" font-size="10.00">View.h</text>
</a>
</g>
<!-- Node12&#45;&gt;Node21 -->
<g id="edge54" class="edge"><title>Node12&#45;&gt;Node21</title>
<path fill="none" stroke="midnightblue" d="M225.426,-348.897C221.075,-341.01 214.901,-329.821 209.615,-320.24"/>
<polygon fill="midnightblue" stroke="midnightblue" points="212.621,-318.443 204.726,-311.378 206.492,-321.824 212.621,-318.443"/>
</g>
<!-- Node13&#45;&gt;Node10 -->
<g id="edge28" class="edge"><title>Node13&#45;&gt;Node10</title>
<path fill="none" stroke="midnightblue" d="M300.32,-290.706C289.572,-271.223 266.11,-228.7 252.446,-203.934"/>
<polygon fill="midnightblue" stroke="midnightblue" points="255.471,-202.171 247.575,-195.106 249.342,-205.552 255.471,-202.171"/>
</g>
<!-- Node13&#45;&gt;Node11 -->
<g id="edge50" class="edge"><title>Node13&#45;&gt;Node11</title>
<path fill="none" stroke="midnightblue" d="M333.347,-290.897C359.046,-281.403 397.699,-267.124 426.116,-256.626"/>
<polygon fill="midnightblue" stroke="midnightblue" points="427.536,-259.833 435.703,-253.084 425.11,-253.266 427.536,-259.833"/>
</g>
<!-- Node14 -->
<g id="node29" class="node"><title>Node14</title>
<a xlink:href="_styles_8h.html" target="_top" xlink:title="Styles.h">
<polygon fill="none" stroke="black" points="351.5,-233 351.5,-253 402.5,-253 402.5,-233 351.5,-233"/>
<text text-anchor="middle" x="377" y="-240" font-family="FreeSans" font-size="10.00">Styles.h</text>
</a>
</g>
<!-- Node13&#45;&gt;Node14 -->
<g id="edge30" class="edge"><title>Node13&#45;&gt;Node14</title>
<path fill="none" stroke="midnightblue" d="M318.367,-290.897C328.826,-282.353 344.03,-269.933 356.335,-259.881"/>
<polygon fill="midnightblue" stroke="midnightblue" points="358.766,-262.415 364.296,-253.378 354.338,-256.994 358.766,-262.415"/>
</g>
<!-- Node13&#45;&gt;Node20 -->
<g id="edge52" class="edge"><title>Node13&#45;&gt;Node20</title>
<path fill="none" stroke="midnightblue" d="M290.497,-290.897C276.925,-282.052 256.979,-269.054 241.289,-258.829"/>
<polygon fill="midnightblue" stroke="midnightblue" points="242.913,-255.709 232.624,-253.182 239.091,-261.574 242.913,-255.709"/>
</g>
<!-- Node14&#45;&gt;Node10 -->
<g id="edge32" class="edge"><title>Node14&#45;&gt;Node10</title>
<path fill="none" stroke="midnightblue" d="M353.485,-232.897C331.744,-223.556 299.219,-209.583 274.904,-199.136"/>
<polygon fill="midnightblue" stroke="midnightblue" points="276.268,-195.913 265.699,-195.182 273.505,-202.345 276.268,-195.913"/>
</g>
<!-- Node15 -->
<g id="node32" class="node"><title>Node15</title>
<a xlink:href="_ui_font_8h.html" target="_top" xlink:title="UiFont.h">
<polygon fill="none" stroke="black" points="283.5,-175 283.5,-195 336.5,-195 336.5,-175 283.5,-175"/>
<text text-anchor="middle" x="310" y="-182" font-family="FreeSans" font-size="10.00">UiFont.h</text>
</a>
</g>
<!-- Node14&#45;&gt;Node15 -->
<g id="edge34" class="edge"><title>Node14&#45;&gt;Node15</title>
<path fill="none" stroke="midnightblue" d="M365.329,-232.897C355.555,-224.435 341.388,-212.172 329.837,-202.172"/>
<polygon fill="midnightblue" stroke="midnightblue" points="331.839,-199.276 321.988,-195.378 327.258,-204.569 331.839,-199.276"/>
</g>
<!-- Node18 -->
<g id="node39" class="node"><title>Node18</title>
<a xlink:href="_color_8h.html" target="_top" xlink:title="Color.h">
<polygon fill="none" stroke="black" points="353.5,-175 353.5,-195 400.5,-195 400.5,-175 353.5,-175"/>
<text text-anchor="middle" x="377" y="-182" font-family="FreeSans" font-size="10.00">Color.h</text>
</a>
</g>
<!-- Node14&#45;&gt;Node18 -->
<g id="edge42" class="edge"><title>Node14&#45;&gt;Node18</title>
<path fill="none" stroke="midnightblue" d="M377,-232.897C377,-225.339 377,-214.748 377,-205.446"/>
<polygon fill="midnightblue" stroke="midnightblue" points="380.5,-205.378 377,-195.378 373.5,-205.378 380.5,-205.378"/>
</g>
<!-- Node16 -->
<g id="node34" class="node"><title>Node16</title>
<a xlink:href="_hash_8h.html" target="_top" xlink:title="../Util/Hash.h">
<polygon fill="none" stroke="black" points="140.5,-117 140.5,-137 213.5,-137 213.5,-117 140.5,-117"/>
<text text-anchor="middle" x="177" y="-124" font-family="FreeSans" font-size="10.00">../Util/Hash.h</text>
</a>
</g>
<!-- Node15&#45;&gt;Node16 -->
<g id="edge36" class="edge"><title>Node15&#45;&gt;Node16</title>
<path fill="none" stroke="midnightblue" d="M286.833,-174.897C265.509,-165.598 233.655,-151.707 209.735,-141.275"/>
<polygon fill="midnightblue" stroke="midnightblue" points="210.913,-137.971 200.348,-137.182 208.115,-144.387 210.913,-137.971"/>
</g>
<!-- Node17 -->
<g id="node36" class="node"><title>Node17</title>
<a xlink:href="_sel_fmt_8h.html" target="_top" xlink:title="../Util/SelFmt.h">
<polygon fill="none" stroke="black" points="230.5,-117 230.5,-137 311.5,-137 311.5,-117 230.5,-117"/>
<text text-anchor="middle" x="271" y="-124" font-family="FreeSans" font-size="10.00">../Util/SelFmt.h</text>
</a>
</g>
<!-- Node15&#45;&gt;Node17 -->
<g id="edge38" class="edge"><title>Node15&#45;&gt;Node17</title>
<path fill="none" stroke="midnightblue" d="M303.207,-174.897C297.848,-166.928 290.223,-155.587 283.736,-145.941"/>
<polygon fill="midnightblue" stroke="midnightblue" points="286.463,-143.723 277.978,-137.378 280.654,-147.629 286.463,-143.723"/>
</g>
<!-- Node17&#45;&gt;Node8 -->
<g id="edge40" class="edge"><title>Node17&#45;&gt;Node8</title>
<path fill="none" stroke="midnightblue" d="M282.322,-116.897C291.805,-108.435 305.549,-96.1715 316.756,-86.1719"/>
<polygon fill="midnightblue" stroke="midnightblue" points="319.239,-88.647 324.37,-79.3776 314.578,-83.424 319.239,-88.647"/>
</g>
<!-- Node18&#45;&gt;Node8 -->
<g id="edge46" class="edge"><title>Node18&#45;&gt;Node8</title>
<path fill="none" stroke="midnightblue" d="M393.266,-174.799C412.164,-161.607 439.172,-137.739 426,-116 416.684,-100.625 400.507,-90.0411 384.414,-82.8709"/>
<polygon fill="midnightblue" stroke="midnightblue" points="385.583,-79.5676 375.001,-79.0333 382.94,-86.0496 385.583,-79.5676"/>
</g>
<!-- Node18&#45;&gt;Node17 -->
<g id="edge48" class="edge"><title>Node18&#45;&gt;Node17</title>
<path fill="none" stroke="midnightblue" d="M358.536,-174.897C341.994,-165.846 317.502,-152.444 298.628,-142.117"/>
<polygon fill="midnightblue" stroke="midnightblue" points="300.061,-138.911 289.608,-137.182 296.7,-145.052 300.061,-138.911"/>
</g>
<!-- Node19 -->
<g id="node41" class="node"><title>Node19</title>
<polygon fill="none" stroke="#bfbfbf" points="328.5,-117 328.5,-137 417.5,-137 417.5,-117 328.5,-117"/>
<text text-anchor="middle" x="373" y="-124" font-family="FreeSans" font-size="10.00">boost/format.hpp</text>
</g>
<!-- Node18&#45;&gt;Node19 -->
<g id="edge44" class="edge"><title>Node18&#45;&gt;Node19</title>
<path fill="none" stroke="midnightblue" d="M376.303,-174.897C375.782,-167.339 375.052,-156.748 374.41,-147.446"/>
<polygon fill="midnightblue" stroke="midnightblue" points="377.896,-147.113 373.716,-137.378 370.912,-147.595 377.896,-147.113"/>
</g>
<!-- Node23 -->
<g id="node53" class="node"><title>Node23</title>
<a xlink:href="_button_8h.html" target="_top" xlink:title="Button.h">
<polygon fill="none" stroke="black" points="155.5,-523 155.5,-543 208.5,-543 208.5,-523 155.5,-523"/>
<text text-anchor="middle" x="182" y="-530" font-family="FreeSans" font-size="10.00">Button.h</text>
</a>
</g>
<!-- Node22&#45;&gt;Node23 -->
<g id="edge60" class="edge"><title>Node22&#45;&gt;Node23</title>
<path fill="none" stroke="midnightblue" d="M182,-580.897C182,-573.339 182,-562.748 182,-553.446"/>
<polygon fill="midnightblue" stroke="midnightblue" points="185.5,-553.378 182,-543.378 178.5,-553.378 185.5,-553.378"/>
</g>
<!-- Node24 -->
<g id="node55" class="node"><title>Node24</title>
<a xlink:href="_click_region_8h.html" target="_top" xlink:title="ClickRegion.h">
<polygon fill="none" stroke="black" points="144,-465 144,-485 220,-485 220,-465 144,-465"/>
<text text-anchor="middle" x="182" y="-472" font-family="FreeSans" font-size="10.00">ClickRegion.h</text>
</a>
</g>
<!-- Node23&#45;&gt;Node24 -->
<g id="edge62" class="edge"><title>Node23&#45;&gt;Node24</title>
<path fill="none" stroke="midnightblue" d="M182,-522.897C182,-515.339 182,-504.748 182,-495.446"/>
<polygon fill="midnightblue" stroke="midnightblue" points="185.5,-495.378 182,-485.378 178.5,-495.378 185.5,-495.378"/>
</g>
<!-- Node24&#45;&gt;Node6 -->
<g id="edge64" class="edge"><title>Node24&#45;&gt;Node6</title>
<path fill="none" stroke="midnightblue" d="M182,-464.897C182,-457.339 182,-446.748 182,-437.446"/>
<polygon fill="midnightblue" stroke="midnightblue" points="185.5,-437.378 182,-427.378 178.5,-437.378 185.5,-437.378"/>
</g>
<!-- Node25&#45;&gt;Node3 -->
<g id="edge68" class="edge"><title>Node25&#45;&gt;Node3</title>
<path fill="none" stroke="midnightblue" d="M215.187,-638.85C227.106,-629.315 242.166,-617.268 254.191,-607.647"/>
<polygon fill="midnightblue" stroke="midnightblue" points="256.701,-610.121 262.324,-601.141 252.329,-604.655 256.701,-610.121"/>
</g>
<!-- Node25&#45;&gt;Node22 -->
<g id="edge70" class="edge"><title>Node25&#45;&gt;Node22</title>
<path fill="none" stroke="midnightblue" d="M191.72,-638.85C190.008,-630.426 187.899,-620.041 186.083,-611.1"/>
<polygon fill="midnightblue" stroke="midnightblue" points="189.481,-610.244 184.06,-601.141 182.621,-611.638 189.481,-610.244"/>
</g>
<!-- Node27 -->
<g id="node64" class="node"><title>Node27</title>
<a xlink:href="_game_director_8h.html" target="_top" xlink:title="GameDirector.h">
<polygon fill="none" stroke="black" points="483,-291 483,-311 567,-311 567,-291 483,-291"/>
<text text-anchor="middle" x="525" y="-298" font-family="FreeSans" font-size="10.00">GameDirector.h</text>
</a>
</g>
<!-- Node26&#45;&gt;Node27 -->
<g id="edge74" class="edge"><title>Node26&#45;&gt;Node27</title>
<path fill="none" stroke="midnightblue" d="M445.722,-348.897C460.498,-339.97 482.279,-326.811 499.274,-316.543"/>
<polygon fill="midnightblue" stroke="midnightblue" points="501.398,-319.349 508.148,-311.182 497.779,-313.357 501.398,-319.349"/>
</g>
<!-- Node28 -->
<g id="node66" class="node"><title>Node28</title>
<a xlink:href="_form_scene_8h.html" target="_top" xlink:title="FormScene.h">
<polygon fill="none" stroke="black" points="391,-291 391,-311 465,-311 465,-291 391,-291"/>
<text text-anchor="middle" x="428" y="-298" font-family="FreeSans" font-size="10.00">FormScene.h</text>
</a>
</g>
<!-- Node26&#45;&gt;Node28 -->
<g id="edge76" class="edge"><title>Node26&#45;&gt;Node28</title>
<path fill="none" stroke="midnightblue" d="M428.826,-348.897C428.696,-341.339 428.513,-330.748 428.353,-321.446"/>
<polygon fill="midnightblue" stroke="midnightblue" points="431.851,-321.316 428.179,-311.378 424.852,-321.436 431.851,-321.316"/>
</g>
<!-- Node28&#45;&gt;Node10 -->
<g id="edge78" class="edge"><title>Node28&#45;&gt;Node10</title>
<path fill="none" stroke="midnightblue" d="M408.46,-290.87C391.036,-281.679 364.965,-267.534 343,-254 315.124,-236.824 284.19,-215.308 263.993,-200.911"/>
<polygon fill="midnightblue" stroke="midnightblue" points="265.944,-198.003 255.776,-195.024 261.867,-203.693 265.944,-198.003"/>
</g>
<!-- Node29 -->
<g id="node69" class="node"><title>Node29</title>
<a xlink:href="_ui_scene_8h.html" target="_top" xlink:title="UiScene.h">
<polygon fill="none" stroke="black" points="526,-233 526,-253 588,-253 588,-233 526,-233"/>
<text text-anchor="middle" x="557" y="-240" font-family="FreeSans" font-size="10.00">UiScene.h</text>
</a>
</g>
<!-- Node28&#45;&gt;Node29 -->
<g id="edge80" class="edge"><title>Node28&#45;&gt;Node29</title>
<path fill="none" stroke="midnightblue" d="M450.47,-290.897C471.061,-281.639 501.775,-267.83 524.94,-257.415"/>
<polygon fill="midnightblue" stroke="midnightblue" points="526.669,-260.475 534.355,-253.182 523.799,-254.09 526.669,-260.475"/>
</g>
<!-- Node30 -->
<g id="node71" class="node"><title>Node30</title>
<a xlink:href="_scene_8h.html" target="_top" xlink:title="Scene.h">
<polygon fill="none" stroke="black" points="532,-175 532,-195 584,-195 584,-175 532,-175"/>
<text text-anchor="middle" x="558" y="-182" font-family="FreeSans" font-size="10.00">Scene.h</text>
</a>
</g>
<!-- Node29&#45;&gt;Node30 -->
<g id="edge82" class="edge"><title>Node29&#45;&gt;Node30</title>
<path fill="none" stroke="midnightblue" d="M557.174,-232.897C557.304,-225.339 557.487,-214.748 557.647,-205.446"/>
<polygon fill="midnightblue" stroke="midnightblue" points="561.148,-205.436 557.821,-195.378 554.149,-205.316 561.148,-205.436"/>
</g>
<!-- Node31 -->
<g id="node73" class="node"><title>Node31</title>
<a xlink:href="_o_s_8h.html" target="_top" xlink:title="../../engine/Util/OS.h">
<polygon fill="none" stroke="black" points="510.5,-117 510.5,-137 613.5,-137 613.5,-117 510.5,-117"/>
<text text-anchor="middle" x="562" y="-124" font-family="FreeSans" font-size="10.00">../../engine/Util/OS.h</text>
</a>
</g>
<!-- Node30&#45;&gt;Node31 -->
<g id="edge84" class="edge"><title>Node30&#45;&gt;Node31</title>
<path fill="none" stroke="midnightblue" d="M558.697,-174.897C559.218,-167.339 559.948,-156.748 560.59,-147.446"/>
<polygon fill="midnightblue" stroke="midnightblue" points="564.088,-147.595 561.284,-137.378 557.104,-147.113 564.088,-147.595"/>
</g>
<!-- Node31&#45;&gt;Node8 -->
<g id="edge96" class="edge"><title>Node31&#45;&gt;Node8</title>
<path fill="none" stroke="midnightblue" d="M522.892,-116.963C484.61,-107.139 426.18,-92.1435 384.859,-81.539"/>
<polygon fill="midnightblue" stroke="midnightblue" points="385.564,-78.1065 375.008,-79.0108 383.824,-84.8868 385.564,-78.1065"/>
</g>
<!-- Node32 -->
<g id="node75" class="node"><title>Node32</title>
<polygon fill="none" stroke="#bfbfbf" points="586,-59 586,-79 628,-79 628,-59 586,-59"/>
<text text-anchor="middle" x="607" y="-66" font-family="FreeSans" font-size="10.00">locale</text>
</g>
<!-- Node31&#45;&gt;Node32 -->
<g id="edge86" class="edge"><title>Node31&#45;&gt;Node32</title>
<path fill="none" stroke="midnightblue" d="M569.838,-116.897C576.149,-108.764 585.184,-97.1183 592.765,-87.3468"/>
<polygon fill="midnightblue" stroke="midnightblue" points="595.584,-89.424 598.948,-79.3776 590.053,-85.133 595.584,-89.424"/>
</g>
<!-- Node33 -->
<g id="node77" class="node"><title>Node33</title>
<polygon fill="none" stroke="#bfbfbf" points="646,-59 646,-79 676,-79 676,-59 646,-59"/>
<text text-anchor="middle" x="661" y="-66" font-family="FreeSans" font-size="10.00">set</text>
</g>
<!-- Node31&#45;&gt;Node33 -->
<g id="edge88" class="edge"><title>Node31&#45;&gt;Node33</title>
<path fill="none" stroke="midnightblue" d="M579.244,-116.897C595.284,-107.5 619.327,-93.4145 637.192,-82.9479"/>
<polygon fill="midnightblue" stroke="midnightblue" points="639.038,-85.9233 645.897,-77.8484 635.499,-79.8835 639.038,-85.9233"/>
</g>
<!-- Node34 -->
<g id="node79" class="node"><title>Node34</title>
<polygon fill="none" stroke="#bfbfbf" points="693.5,-59 693.5,-79 734.5,-79 734.5,-59 693.5,-59"/>
<text text-anchor="middle" x="714" y="-66" font-family="FreeSans" font-size="10.00">string</text>
</g>
<!-- Node31&#45;&gt;Node34 -->
<g id="edge90" class="edge"><title>Node31&#45;&gt;Node34</title>
<path fill="none" stroke="midnightblue" d="M588.476,-116.897C614.99,-106.78 655.747,-91.2281 683.576,-80.6091"/>
<polygon fill="midnightblue" stroke="midnightblue" points="685.099,-83.7744 693.194,-76.9393 682.603,-77.2344 685.099,-83.7744"/>
</g>
<!-- Node35 -->
<g id="node81" class="node"><title>Node35</title>
<polygon fill="none" stroke="#bfbfbf" points="402,-59 402,-79 446,-79 446,-59 402,-59"/>
<text text-anchor="middle" x="424" y="-66" font-family="FreeSans" font-size="10.00">vector</text>
</g>
<!-- Node31&#45;&gt;Node35 -->
<g id="edge92" class="edge"><title>Node31&#45;&gt;Node35</title>
<path fill="none" stroke="midnightblue" d="M537.962,-116.897C515.192,-107.327 480.852,-92.8945 455.82,-82.3738"/>
<polygon fill="midnightblue" stroke="midnightblue" points="456.968,-79.0595 446.393,-78.4114 454.255,-85.5127 456.968,-79.0595"/>
</g>
<!-- Node36 -->
<g id="node83" class="node"><title>Node36</title>
<polygon fill="none" stroke="#bfbfbf" points="463.5,-59 463.5,-79 568.5,-79 568.5,-59 463.5,-59"/>
<text text-anchor="middle" x="516" y="-66" font-family="FreeSans" font-size="10.00">boost/filesystem.hpp</text>
</g>
<!-- Node31&#45;&gt;Node36 -->
<g id="edge94" class="edge"><title>Node31&#45;&gt;Node36</title>
<path fill="none" stroke="midnightblue" d="M553.987,-116.897C547.537,-108.764 538.301,-97.1183 530.551,-87.3468"/>
<polygon fill="midnightblue" stroke="midnightblue" points="533.187,-85.0377 524.231,-79.3776 527.702,-89.3875 533.187,-85.0377"/>
</g>
</g>
</svg>
        <g id="navigator" transform="translate(0 0)" fill="#404254">
                <rect fill="#f2f5e9" fill-opacity="0.5" stroke="#606060" stroke-width=".5" x="0" y="0" width="60" height="60"/>
                <use id="zoomplus" xlink:href="#zoomPlus" x="17" y="9" onmousedown="handleZoom(evt,'in')"/>
                <use id="zoomminus" xlink:href="#zoomMin" x="42" y="9" onmousedown="handleZoom(evt,'out')"/>
                <use id="reset" xlink:href="#resetDef" x="30" y="36" onmousedown="handleReset()"/>
                <g id="arrowUp" xlink:href="#dirArrow" transform="translate(30 24)" onmousedown="handlePan(0,-1)">
                  <use xlink:href="#rim" fill="#404040">
                        <set attributeName="fill" to="#808080" begin="arrowUp.mouseover" end="arrowUp.mouseout"/>
                  </use>
                  <path fill="none" stroke="white" stroke-width="1.5" d="M0,-3.0v7 M-2.5,-0.5L0,-3.0L2.5,-0.5"/>
                </g>
                <g id="arrowRight" xlink:href="#dirArrow" transform="rotate(90) translate(36 -43)" onmousedown="handlePan(1,0)">
                  <use xlink:href="#rim" fill="#404040">
                        <set attributeName="fill" to="#808080" begin="arrowRight.mouseover" end="arrowRight.mouseout"/>
                  </use>
                  <path fill="none" stroke="white" stroke-width="1.5" d="M0,-3.0v7 M-2.5,-0.5L0,-3.0L2.5,-0.5"/>
                </g>
                <g id="arrowDown" xlink:href="#dirArrow" transform="rotate(180) translate(-30 -48)" onmousedown="handlePan(0,1)">
                  <use xlink:href="#rim" fill="#404040">
                        <set attributeName="fill" to="#808080" begin="arrowDown.mouseover" end="arrowDown.mouseout"/>
                  </use>
                  <path fill="none" stroke="white" stroke-width="1.5" d="M0,-3.0v7 M-2.5,-0.5L0,-3.0L2.5,-0.5"/>
                </g>
                <g id="arrowLeft" xlink:href="#dirArrow" transform="rotate(270) translate(-36 17)" onmousedown="handlePan(-1,0)">
                  <use xlink:href="#rim" fill="#404040">
                        <set attributeName="fill" to="#808080" begin="arrowLeft.mouseover" end="arrowLeft.mouseout"/>
                  </use>
                  <path fill="none" stroke="white" stroke-width="1.5" d="M0,-3.0v7 M-2.5,-0.5L0,-3.0L2.5,-0.5"/>
                </g>
        </g>
        <svg viewBox="0 0 15 15" width="100%" height="30px" preserveAspectRatio="xMaxYMin meet">
         <g id="arrow_out" transform="scale(0.3 0.3)">
          <a xlink:href="_display_select_scene_8h__incl_org.svg" target="_base">
           <rect id="button" ry="5" rx="5" y="6" x="6" height="38" width="38"
                fill="#f2f5e9" fill-opacity="0.5" stroke="#606060" stroke-width="1.0"/>
           <path id="arrow"
             d="M 11.500037,31.436501 C 11.940474,20.09759 22.043105,11.32322 32.158766,21.979434 L 37.068811,17.246167 C 37.068811,17.246167 37.088388,32 37.088388,32 L 22.160133,31.978069 C 22.160133,31.978069 26.997745,27.140456 26.997745,27.140456 C 18.528582,18.264221 13.291696,25.230495 11.500037,31.436501 z"
             style="fill:#404040;"/>
          </a>
         </g>
        </svg>
</svg>
