<?xml version="1.0" encoding="UTF-8" standalone="no"?>
<!DOCTYPE svg PUBLIC "-//W3C//DTD SVG 1.1//EN"
 "http://www.w3.org/Graphics/SVG/1.1/DTD/svg11.dtd">
<!-- Generated by graphviz version 2.38.0 (20140413.2041)
 -->
<!-- Title: DisplaySelectScene.h Pages: 1 -->
<svg width="969pt" height="711pt"
 viewBox="0.00 0.00 969.00 711.00" xmlns="http://www.w3.org/2000/svg" xmlns:xlink="http://www.w3.org/1999/xlink">
<g id="graph0" class="graph" transform="scale(1 1) rotate(0) translate(4 707)">
<title>DisplaySelectScene.h</title>
<!-- Node1 -->
<g id="node1" class="node"><title>Node1</title>
<polygon fill="#bfbfbf" stroke="black" points="653,-683.5 653,-702.5 766,-702.5 766,-683.5 653,-683.5"/>
<text text-anchor="middle" x="709.5" y="-690.5" font-family="Helvetica,sans-Serif" font-size="10.00">DisplaySelectScene.h</text>
</g>
<!-- Node2 -->
<g id="node2" class="node"><title>Node2</title>
<g id="a_node2"><a xlink:href="_pick_list_8h.html" target="_top" xlink:title="../../engine/Display\l/PickList.h">
<polygon fill="none" stroke="black" points="660,-616.5 660,-646.5 759,-646.5 759,-616.5 660,-616.5"/>
<text text-anchor="start" x="668" y="-634.5" font-family="Helvetica,sans-Serif" font-size="10.00">../../engine/Display</text>
<text text-anchor="middle" x="709.5" y="-623.5" font-family="Helvetica,sans-Serif" font-size="10.00">/PickList.h</text>
</a>
</g>
</g>
<!-- Node1&#45;&gt;Node2 -->
<g id="edge1" class="edge"><title>Node1&#45;&gt;Node2</title>
<path fill="none" stroke="midnightblue" d="M709.5,-683.475C709.5,-676.471 709.5,-666.192 709.5,-656.696"/>
<polygon fill="midnightblue" stroke="midnightblue" points="713,-656.523 709.5,-646.523 706,-656.523 713,-656.523"/>
</g>
<!-- Node25 -->
<g id="node25" class="node"><title>Node25</title>
<g id="a_node25"><a xlink:href="_radio_button_8h.html" target="_top" xlink:title="../../engine/Display\l/RadioButton.h">
<polygon fill="none" stroke="black" points="777,-616.5 777,-646.5 876,-646.5 876,-616.5 777,-616.5"/>
<text text-anchor="start" x="785" y="-634.5" font-family="Helvetica,sans-Serif" font-size="10.00">../../engine/Display</text>
<text text-anchor="middle" x="826.5" y="-623.5" font-family="Helvetica,sans-Serif" font-size="10.00">/RadioButton.h</text>
</a>
</g>
</g>
<!-- Node1&#45;&gt;Node25 -->
<g id="edge35" class="edge"><title>Node1&#45;&gt;Node25</title>
<path fill="none" stroke="midnightblue" d="M726.263,-683.475C742.776,-675.078 768.545,-661.973 789.82,-651.153"/>
<polygon fill="midnightblue" stroke="midnightblue" points="791.598,-654.176 798.925,-646.523 788.425,-647.936 791.598,-654.176"/>
</g>
<!-- Node26 -->
<g id="node26" class="node"><title>Node26</title>
<g id="a_node26"><a xlink:href="_dialog_scene_8h.html" target="_top" xlink:title="DialogScene.h">
<polygon fill="none" stroke="black" points="319.5,-336.5 319.5,-355.5 399.5,-355.5 399.5,-336.5 319.5,-336.5"/>
<text text-anchor="middle" x="359.5" y="-343.5" font-family="Helvetica,sans-Serif" font-size="10.00">DialogScene.h</text>
</a>
</g>
</g>
<!-- Node1&#45;&gt;Node26 -->
<g id="edge38" class="edge"><title>Node1&#45;&gt;Node26</title>
<path fill="none" stroke="midnightblue" d="M693.698,-683.396C680.506,-675.492 662.056,-662.648 650.5,-647 629.115,-618.043 622.5,-606.997 622.5,-571 622.5,-571 622.5,-571 622.5,-457 622.5,-365.888 486.499,-348.932 410.095,-346.595"/>
<polygon fill="midnightblue" stroke="midnightblue" points="409.808,-343.088 399.73,-346.356 409.647,-350.086 409.808,-343.088"/>
</g>
<!-- Node3 -->
<g id="node3" class="node"><title>Node3</title>
<g id="a_node3"><a xlink:href="_exception_8h.html" target="_top" xlink:title="../Exception.h">
<polygon fill="none" stroke="black" points="884,-392.5 884,-411.5 961,-411.5 961,-392.5 884,-392.5"/>
<text text-anchor="middle" x="922.5" y="-399.5" font-family="Helvetica,sans-Serif" font-size="10.00">../Exception.h</text>
</a>
</g>
</g>
<!-- Node2&#45;&gt;Node3 -->
<g id="edge2" class="edge"><title>Node2&#45;&gt;Node3</title>
<path fill="none" stroke="midnightblue" d="M757.641,-616.462C798.255,-604.249 850.965,-587.384 858.5,-580 903.565,-535.835 917.059,-457.589 920.969,-421.806"/>
<polygon fill="midnightblue" stroke="midnightblue" points="924.46,-422.065 921.93,-411.777 917.492,-421.398 924.46,-422.065"/>
</g>
<!-- Node5 -->
<g id="node5" class="node"><title>Node5</title>
<g id="a_node5"><a xlink:href="_base_container_8h.html" target="_top" xlink:title="BaseContainer.h">
<polygon fill="none" stroke="black" points="662,-504.5 662,-523.5 751,-523.5 751,-504.5 662,-504.5"/>
<text text-anchor="middle" x="706.5" y="-511.5" font-family="Helvetica,sans-Serif" font-size="10.00">BaseContainer.h</text>
</a>
</g>
</g>
<!-- Node2&#45;&gt;Node5 -->
<g id="edge4" class="edge"><title>Node2&#45;&gt;Node5</title>
<path fill="none" stroke="midnightblue" d="M709.132,-616.337C708.594,-595.622 707.591,-557.016 706.991,-533.899"/>
<polygon fill="midnightblue" stroke="midnightblue" points="710.484,-533.575 706.725,-523.669 703.486,-533.757 710.484,-533.575"/>
</g>
<!-- Node21 -->
<g id="node21" class="node"><title>Node21</title>
<g id="a_node21"><a xlink:href="_state_button_8h.html" target="_top" xlink:title="StateButton.h">
<polygon fill="none" stroke="black" points="773,-560.5 773,-579.5 850,-579.5 850,-560.5 773,-560.5"/>
<text text-anchor="middle" x="811.5" y="-567.5" font-family="Helvetica,sans-Serif" font-size="10.00">StateButton.h</text>
</a>
</g>
</g>
<!-- Node2&#45;&gt;Node21 -->
<g id="edge28" class="edge"><title>Node2&#45;&gt;Node21</title>
<path fill="none" stroke="midnightblue" d="M733.673,-616.399C750.022,-606.862 771.515,-594.325 787.77,-584.842"/>
<polygon fill="midnightblue" stroke="midnightblue" points="789.784,-587.72 796.658,-579.658 786.257,-581.673 789.784,-587.72"/>
</g>
<!-- Node4 -->
<g id="node4" class="node"><title>Node4</title>
<polygon fill="none" stroke="#bfbfbf" points="893,-336.5 893,-355.5 952,-355.5 952,-336.5 893,-336.5"/>
<text text-anchor="middle" x="922.5" y="-343.5" font-family="Helvetica,sans-Serif" font-size="10.00">exception</text>
</g>
<!-- Node3&#45;&gt;Node4 -->
<g id="edge3" class="edge"><title>Node3&#45;&gt;Node4</title>
<path fill="none" stroke="midnightblue" d="M922.5,-392.083C922.5,-385.006 922.5,-374.861 922.5,-365.986"/>
<polygon fill="midnightblue" stroke="midnightblue" points="926,-365.751 922.5,-355.751 919,-365.751 926,-365.751"/>
</g>
<!-- Node6 -->
<g id="node6" class="node"><title>Node6</title>
<g id="a_node6"><a xlink:href="_ui_view_model_8h.html" target="_top" xlink:title="UiViewModel.h">
<polygon fill="none" stroke="black" points="658,-392.5 658,-411.5 741,-411.5 741,-392.5 658,-392.5"/>
<text text-anchor="middle" x="699.5" y="-399.5" font-family="Helvetica,sans-Serif" font-size="10.00">UiViewModel.h</text>
</a>
</g>
</g>
<!-- Node5&#45;&gt;Node6 -->
<g id="edge5" class="edge"><title>Node5&#45;&gt;Node6</title>
<path fill="none" stroke="midnightblue" d="M705.951,-504.368C704.821,-486.617 702.215,-445.666 700.683,-421.597"/>
<polygon fill="midnightblue" stroke="midnightblue" points="704.175,-421.349 700.047,-411.591 697.189,-421.794 704.175,-421.349"/>
</g>
<!-- Node7 -->
<g id="node7" class="node"><title>Node7</title>
<g id="a_node7"><a xlink:href="_nav_8h.html" target="_top" xlink:title="../Control/Nav.h">
<polygon fill="none" stroke="black" points="703.5,-336.5 703.5,-355.5 789.5,-355.5 789.5,-336.5 703.5,-336.5"/>
<text text-anchor="middle" x="746.5" y="-343.5" font-family="Helvetica,sans-Serif" font-size="10.00">../Control/Nav.h</text>
</a>
</g>
</g>
<!-- Node6&#45;&gt;Node7 -->
<g id="edge6" class="edge"><title>Node6&#45;&gt;Node7</title>
<path fill="none" stroke="midnightblue" d="M707.261,-392.083C714.037,-384.298 724.043,-372.801 732.255,-363.367"/>
<polygon fill="midnightblue" stroke="midnightblue" points="734.958,-365.592 738.883,-355.751 729.678,-360.996 734.958,-365.592"/>
</g>
<!-- Node8 -->
<g id="node8" class="node"><title>Node8</title>
<g id="a_node8"><a xlink:href="_m_r___types_8h.html" target="_top" xlink:title="../Util/MR_Types.h">
<polygon fill="none" stroke="black" points="438.5,-56.5 438.5,-75.5 538.5,-75.5 538.5,-56.5 438.5,-56.5"/>
<text text-anchor="middle" x="488.5" y="-63.5" font-family="Helvetica,sans-Serif" font-size="10.00">../Util/MR_Types.h</text>
</a>
</g>
</g>
<!-- Node6&#45;&gt;Node8 -->
<g id="edge7" class="edge"><title>Node6&#45;&gt;Node8</title>
<path fill="none" stroke="midnightblue" d="M660.294,-392.49C622.227,-383.646 567.738,-369.268 550.5,-356 478.678,-300.72 463.952,-258.318 471.5,-168 473.925,-138.981 480.205,-105.756 484.415,-85.5828"/>
<polygon fill="midnightblue" stroke="midnightblue" points="487.884,-86.0966 486.556,-75.5853 481.039,-84.6303 487.884,-86.0966"/>
</g>
<!-- Node10 -->
<g id="node10" class="node"><title>Node10</title>
<g id="a_node10"><a xlink:href="_vec_8h.html" target="_top" xlink:title="../Vec.h">
<polygon fill="none" stroke="black" points="648,-168.5 648,-187.5 699,-187.5 699,-168.5 648,-168.5"/>
<text text-anchor="middle" x="673.5" y="-175.5" font-family="Helvetica,sans-Serif" font-size="10.00">../Vec.h</text>
</a>
</g>
</g>
<!-- Node6&#45;&gt;Node10 -->
<g id="edge9" class="edge"><title>Node6&#45;&gt;Node10</title>
<path fill="none" stroke="midnightblue" d="M698.325,-392.393C697.142,-383.35 695.371,-368.704 694.5,-356 692.188,-322.29 696.079,-313.599 692.5,-280 689.405,-250.944 682.494,-217.73 677.916,-197.569"/>
<polygon fill="midnightblue" stroke="midnightblue" points="681.267,-196.526 675.594,-187.578 674.449,-198.111 681.267,-196.526"/>
</g>
<!-- Node11 -->
<g id="node11" class="node"><title>Node11</title>
<g id="a_node11"><a xlink:href="_ui_layout_flags_8h.html" target="_top" xlink:title="UiLayoutFlags.h">
<polygon fill="none" stroke="black" points="739.5,-224.5 739.5,-243.5 827.5,-243.5 827.5,-224.5 739.5,-224.5"/>
<text text-anchor="middle" x="783.5" y="-231.5" font-family="Helvetica,sans-Serif" font-size="10.00">UiLayoutFlags.h</text>
</a>
</g>
</g>
<!-- Node6&#45;&gt;Node11 -->
<g id="edge10" class="edge"><title>Node6&#45;&gt;Node11</title>
<path fill="none" stroke="midnightblue" d="M741.21,-393.145C762.202,-386.856 785.826,-375.683 798.5,-356 818.947,-324.246 803.607,-277.98 792.431,-252.854"/>
<polygon fill="midnightblue" stroke="midnightblue" points="795.579,-251.323 788.154,-243.766 789.246,-254.304 795.579,-251.323"/>
</g>
<!-- Node12 -->
<g id="node12" class="node"><title>Node12</title>
<g id="a_node12"><a xlink:href="_view_model_8h.html" target="_top" xlink:title="ViewModel.h">
<polygon fill="none" stroke="black" points="560,-336.5 560,-355.5 633,-355.5 633,-336.5 560,-336.5"/>
<text text-anchor="middle" x="596.5" y="-343.5" font-family="Helvetica,sans-Serif" font-size="10.00">ViewModel.h</text>
</a>
</g>
</g>
<!-- Node6&#45;&gt;Node12 -->
<g id="edge12" class="edge"><title>Node6&#45;&gt;Node12</title>
<path fill="none" stroke="midnightblue" d="M682.951,-392.324C666.508,-383.703 641.065,-370.364 622.032,-360.386"/>
<polygon fill="midnightblue" stroke="midnightblue" points="623.489,-357.198 613.008,-355.655 620.239,-363.398 623.489,-357.198"/>
</g>
<!-- Node9 -->
<g id="node9" class="node"><title>Node9</title>
<polygon fill="none" stroke="#bfbfbf" points="459,-0.5 459,-19.5 518,-19.5 518,-0.5 459,-0.5"/>
<text text-anchor="middle" x="488.5" y="-7.5" font-family="Helvetica,sans-Serif" font-size="10.00">inttypes.h</text>
</g>
<!-- Node8&#45;&gt;Node9 -->
<g id="edge8" class="edge"><title>Node8&#45;&gt;Node9</title>
<path fill="none" stroke="midnightblue" d="M488.5,-56.083C488.5,-49.0059 488.5,-38.8611 488.5,-29.9865"/>
<polygon fill="midnightblue" stroke="midnightblue" points="492,-29.751 488.5,-19.7511 485,-29.7511 492,-29.751"/>
</g>
<!-- Node11&#45;&gt;Node8 -->
<g id="edge11" class="edge"><title>Node11&#45;&gt;Node8</title>
<path fill="none" stroke="midnightblue" d="M780.013,-224.298C770.506,-201.759 741.836,-141.205 697.5,-112 653.216,-82.829 593.265,-72.2022 548.927,-68.5067"/>
<polygon fill="midnightblue" stroke="midnightblue" points="549.095,-65.0097 538.865,-67.7638 548.58,-71.9907 549.095,-65.0097"/>
</g>
<!-- Node13 -->
<g id="node13" class="node"><title>Node13</title>
<g id="a_node13"><a xlink:href="_display_8h.html" target="_top" xlink:title="Display.h">
<polygon fill="none" stroke="black" points="625.5,-280.5 625.5,-299.5 683.5,-299.5 683.5,-280.5 625.5,-280.5"/>
<text text-anchor="middle" x="654.5" y="-287.5" font-family="Helvetica,sans-Serif" font-size="10.00">Display.h</text>
</a>
</g>
</g>
<!-- Node12&#45;&gt;Node13 -->
<g id="edge13" class="edge"><title>Node12&#45;&gt;Node13</title>
<path fill="none" stroke="midnightblue" d="M605.819,-336.324C614.393,-328.341 627.312,-316.313 637.688,-306.653"/>
<polygon fill="midnightblue" stroke="midnightblue" points="640.078,-309.21 645.012,-299.834 635.308,-304.086 640.078,-309.21"/>
</g>
<!-- Node19 -->
<g id="node19" class="node"><title>Node19</title>
<g id="a_node19"><a xlink:href="_view_attacher_8h.html" target="_top" xlink:title="ViewAttacher.h">
<polygon fill="none" stroke="black" points="491,-224.5 491,-243.5 574,-243.5 574,-224.5 491,-224.5"/>
<text text-anchor="middle" x="532.5" y="-231.5" font-family="Helvetica,sans-Serif" font-size="10.00">ViewAttacher.h</text>
</a>
</g>
</g>
<!-- Node12&#45;&gt;Node19 -->
<g id="edge27" class="edge"><title>Node12&#45;&gt;Node19</title>
<path fill="none" stroke="midnightblue" d="M584.577,-336.317C574.116,-328.091 559.246,-314.816 550.5,-300 542.036,-285.662 537.422,-267.2 534.991,-253.617"/>
<polygon fill="midnightblue" stroke="midnightblue" points="538.421,-252.897 533.427,-243.553 531.504,-253.972 538.421,-252.897"/>
</g>
<!-- Node20 -->
<g id="node20" class="node"><title>Node20</title>
<g id="a_node20"><a xlink:href="_view_8h.html" target="_top" xlink:title="View.h">
<polygon fill="none" stroke="black" points="560,-280.5 560,-299.5 607,-299.5 607,-280.5 560,-280.5"/>
<text text-anchor="middle" x="583.5" y="-287.5" font-family="Helvetica,sans-Serif" font-size="10.00">View.h</text>
</a>
</g>
</g>
<!-- Node12&#45;&gt;Node20 -->
<g id="edge26" class="edge"><title>Node12&#45;&gt;Node20</title>
<path fill="none" stroke="midnightblue" d="M594.353,-336.083C592.631,-328.927 590.153,-318.635 588,-309.691"/>
<polygon fill="midnightblue" stroke="midnightblue" points="591.35,-308.654 585.607,-299.751 584.545,-310.293 591.35,-308.654"/>
</g>
<!-- Node13&#45;&gt;Node10 -->
<g id="edge14" class="edge"><title>Node13&#45;&gt;Node10</title>
<path fill="none" stroke="midnightblue" d="M655.991,-280.368C659.057,-262.617 666.13,-221.666 670.288,-197.597"/>
<polygon fill="midnightblue" stroke="midnightblue" points="673.763,-198.041 672.016,-187.591 666.865,-196.85 673.763,-198.041"/>
</g>
<!-- Node13&#45;&gt;Node11 -->
<g id="edge24" class="edge"><title>Node13&#45;&gt;Node11</title>
<path fill="none" stroke="midnightblue" d="M674.94,-280.444C696.17,-271.557 729.599,-257.563 753.755,-247.451"/>
<polygon fill="midnightblue" stroke="midnightblue" points="755.282,-250.606 763.155,-243.516 752.579,-244.149 755.282,-250.606"/>
</g>
<!-- Node14 -->
<g id="node14" class="node"><title>Node14</title>
<g id="a_node14"><a xlink:href="_styles_8h.html" target="_top" xlink:title="Styles.h">
<polygon fill="none" stroke="black" points="592,-224.5 592,-243.5 645,-243.5 645,-224.5 592,-224.5"/>
<text text-anchor="middle" x="618.5" y="-231.5" font-family="Helvetica,sans-Serif" font-size="10.00">Styles.h</text>
</a>
</g>
</g>
<!-- Node13&#45;&gt;Node14 -->
<g id="edge15" class="edge"><title>Node13&#45;&gt;Node14</title>
<path fill="none" stroke="midnightblue" d="M648.555,-280.083C643.523,-272.534 636.163,-261.495 629.987,-252.23"/>
<polygon fill="midnightblue" stroke="midnightblue" points="632.793,-250.13 624.334,-243.751 626.969,-254.013 632.793,-250.13"/>
</g>
<!-- Node13&#45;&gt;Node19 -->
<g id="edge25" class="edge"><title>Node13&#45;&gt;Node19</title>
<path fill="none" stroke="midnightblue" d="M635.169,-280.444C615.18,-271.596 583.757,-257.687 560.936,-247.586"/>
<polygon fill="midnightblue" stroke="midnightblue" points="562.302,-244.363 551.741,-243.516 559.468,-250.764 562.302,-244.363"/>
</g>
<!-- Node14&#45;&gt;Node10 -->
<g id="edge16" class="edge"><title>Node14&#45;&gt;Node10</title>
<path fill="none" stroke="midnightblue" d="M627.582,-224.083C635.671,-216.141 647.695,-204.335 657.41,-194.797"/>
<polygon fill="midnightblue" stroke="midnightblue" points="659.903,-197.254 664.587,-187.751 654.999,-192.26 659.903,-197.254"/>
</g>
<!-- Node15 -->
<g id="node15" class="node"><title>Node15</title>
<g id="a_node15"><a xlink:href="_ui_font_8h.html" target="_top" xlink:title="UiFont.h">
<polygon fill="none" stroke="black" points="575.5,-168.5 575.5,-187.5 629.5,-187.5 629.5,-168.5 575.5,-168.5"/>
<text text-anchor="middle" x="602.5" y="-175.5" font-family="Helvetica,sans-Serif" font-size="10.00">UiFont.h</text>
</a>
</g>
</g>
<!-- Node14&#45;&gt;Node15 -->
<g id="edge17" class="edge"><title>Node14&#45;&gt;Node15</title>
<path fill="none" stroke="midnightblue" d="M615.858,-224.083C613.714,-216.849 610.621,-206.409 607.951,-197.397"/>
<polygon fill="midnightblue" stroke="midnightblue" points="611.29,-196.345 605.093,-187.751 604.578,-198.333 611.29,-196.345"/>
</g>
<!-- Node18 -->
<g id="node18" class="node"><title>Node18</title>
<g id="a_node18"><a xlink:href="_color_8h.html" target="_top" xlink:title="Color.h">
<polygon fill="none" stroke="black" points="480.5,-168.5 480.5,-187.5 528.5,-187.5 528.5,-168.5 480.5,-168.5"/>
<text text-anchor="middle" x="504.5" y="-175.5" font-family="Helvetica,sans-Serif" font-size="10.00">Color.h</text>
</a>
</g>
</g>
<!-- Node14&#45;&gt;Node18 -->
<g id="edge21" class="edge"><title>Node14&#45;&gt;Node18</title>
<path fill="none" stroke="midnightblue" d="M600.436,-224.444C581.925,-215.675 552.919,-201.935 531.645,-191.858"/>
<polygon fill="midnightblue" stroke="midnightblue" points="533.015,-188.634 522.479,-187.516 530.018,-194.96 533.015,-188.634"/>
</g>
<!-- Node16 -->
<g id="node16" class="node"><title>Node16</title>
<g id="a_node16"><a xlink:href="_hash_8h.html" target="_top" xlink:title="../Util/Hash.h">
<polygon fill="none" stroke="black" points="614,-112.5 614,-131.5 689,-131.5 689,-112.5 614,-112.5"/>
<text text-anchor="middle" x="651.5" y="-119.5" font-family="Helvetica,sans-Serif" font-size="10.00">../Util/Hash.h</text>
</a>
</g>
</g>
<!-- Node15&#45;&gt;Node16 -->
<g id="edge18" class="edge"><title>Node15&#45;&gt;Node16</title>
<path fill="none" stroke="midnightblue" d="M610.591,-168.083C617.655,-160.298 628.088,-148.801 636.649,-139.367"/>
<polygon fill="midnightblue" stroke="midnightblue" points="639.431,-141.509 643.559,-131.751 634.247,-136.805 639.431,-141.509"/>
</g>
<!-- Node17 -->
<g id="node17" class="node"><title>Node17</title>
<g id="a_node17"><a xlink:href="_sel_fmt_8h.html" target="_top" xlink:title="../Util/SelFmt.h">
<polygon fill="none" stroke="black" points="513,-112.5 513,-131.5 596,-131.5 596,-112.5 513,-112.5"/>
<text text-anchor="middle" x="554.5" y="-119.5" font-family="Helvetica,sans-Serif" font-size="10.00">../Util/SelFmt.h</text>
</a>
</g>
</g>
<!-- Node15&#45;&gt;Node17 -->
<g id="edge19" class="edge"><title>Node15&#45;&gt;Node17</title>
<path fill="none" stroke="midnightblue" d="M594.574,-168.083C587.654,-160.298 577.435,-148.801 569.048,-139.367"/>
<polygon fill="midnightblue" stroke="midnightblue" points="571.538,-136.9 562.279,-131.751 566.306,-141.55 571.538,-136.9"/>
</g>
<!-- Node17&#45;&gt;Node8 -->
<g id="edge20" class="edge"><title>Node17&#45;&gt;Node8</title>
<path fill="none" stroke="midnightblue" d="M543.896,-112.324C534.044,-104.263 519.149,-92.0765 507.285,-82.3695"/>
<polygon fill="midnightblue" stroke="midnightblue" points="509.253,-79.4575 499.297,-75.8339 504.82,-84.8752 509.253,-79.4575"/>
</g>
<!-- Node18&#45;&gt;Node8 -->
<g id="edge22" class="edge"><title>Node18&#45;&gt;Node8</title>
<path fill="none" stroke="midnightblue" d="M503.245,-168.368C500.662,-150.617 494.706,-109.666 491.205,-85.5974"/>
<polygon fill="midnightblue" stroke="midnightblue" points="494.653,-84.9835 489.75,-75.5914 487.726,-85.9911 494.653,-84.9835"/>
</g>
<!-- Node18&#45;&gt;Node17 -->
<g id="edge23" class="edge"><title>Node18&#45;&gt;Node17</title>
<path fill="none" stroke="midnightblue" d="M512.756,-168.083C519.965,-160.298 530.61,-148.801 539.346,-139.367"/>
<polygon fill="midnightblue" stroke="midnightblue" points="542.171,-141.467 546.397,-131.751 537.035,-136.711 542.171,-141.467"/>
</g>
<!-- Node22 -->
<g id="node22" class="node"><title>Node22</title>
<g id="a_node22"><a xlink:href="_button_8h.html" target="_top" xlink:title="Button.h">
<polygon fill="none" stroke="black" points="785,-504.5 785,-523.5 838,-523.5 838,-504.5 785,-504.5"/>
<text text-anchor="middle" x="811.5" y="-511.5" font-family="Helvetica,sans-Serif" font-size="10.00">Button.h</text>
</a>
</g>
</g>
<!-- Node21&#45;&gt;Node22 -->
<g id="edge29" class="edge"><title>Node21&#45;&gt;Node22</title>
<path fill="none" stroke="midnightblue" d="M811.5,-560.083C811.5,-553.006 811.5,-542.861 811.5,-533.986"/>
<polygon fill="midnightblue" stroke="midnightblue" points="815,-533.751 811.5,-523.751 808,-533.751 815,-533.751"/>
</g>
<!-- Node23 -->
<g id="node23" class="node"><title>Node23</title>
<g id="a_node23"><a xlink:href="_res_8h.html" target="_top" xlink:title="Res.h">
<polygon fill="none" stroke="black" points="824,-448.5 824,-467.5 867,-467.5 867,-448.5 824,-448.5"/>
<text text-anchor="middle" x="845.5" y="-455.5" font-family="Helvetica,sans-Serif" font-size="10.00">Res.h</text>
</a>
</g>
</g>
<!-- Node22&#45;&gt;Node23 -->
<g id="edge30" class="edge"><title>Node22&#45;&gt;Node23</title>
<path fill="none" stroke="midnightblue" d="M817.114,-504.083C821.867,-496.534 828.818,-485.495 834.652,-476.23"/>
<polygon fill="midnightblue" stroke="midnightblue" points="837.624,-478.078 839.99,-467.751 831.7,-474.349 837.624,-478.078"/>
</g>
<!-- Node24 -->
<g id="node24" class="node"><title>Node24</title>
<g id="a_node24"><a xlink:href="_click_region_8h.html" target="_top" xlink:title="ClickRegion.h">
<polygon fill="none" stroke="black" points="727.5,-448.5 727.5,-467.5 805.5,-467.5 805.5,-448.5 727.5,-448.5"/>
<text text-anchor="middle" x="766.5" y="-455.5" font-family="Helvetica,sans-Serif" font-size="10.00">ClickRegion.h</text>
</a>
</g>
</g>
<!-- Node22&#45;&gt;Node24 -->
<g id="edge33" class="edge"><title>Node22&#45;&gt;Node24</title>
<path fill="none" stroke="midnightblue" d="M804.069,-504.083C797.647,-496.377 788.194,-485.033 780.378,-475.653"/>
<polygon fill="midnightblue" stroke="midnightblue" points="782.883,-473.193 773.793,-467.751 777.506,-477.674 782.883,-473.193"/>
</g>
<!-- Node23&#45;&gt;Node3 -->
<g id="edge32" class="edge"><title>Node23&#45;&gt;Node3</title>
<path fill="none" stroke="midnightblue" d="M857.871,-448.324C869.658,-440.058 887.632,-427.453 901.636,-417.632"/>
<polygon fill="midnightblue" stroke="midnightblue" points="903.982,-420.262 910.159,-411.655 899.962,-414.531 903.982,-420.262"/>
</g>
<!-- Node23&#45;&gt;Node8 -->
<g id="edge31" class="edge"><title>Node23&#45;&gt;Node8</title>
<path fill="none" stroke="midnightblue" d="M846.807,-448.466C849.518,-430.007 855.5,-384.968 855.5,-347 855.5,-347 855.5,-347 855.5,-177 855.5,-113.754 652.984,-83.7722 548.827,-72.5343"/>
<polygon fill="midnightblue" stroke="midnightblue" points="549.072,-69.0408 538.76,-71.4735 548.338,-76.0023 549.072,-69.0408"/>
</g>
<!-- Node24&#45;&gt;Node6 -->
<g id="edge34" class="edge"><title>Node24&#45;&gt;Node6</title>
<path fill="none" stroke="midnightblue" d="M755.735,-448.324C745.734,-440.263 730.613,-428.077 718.57,-418.369"/>
<polygon fill="midnightblue" stroke="midnightblue" points="720.443,-415.384 710.461,-411.834 716.05,-420.834 720.443,-415.384"/>
</g>
<!-- Node25&#45;&gt;Node3 -->
<g id="edge36" class="edge"><title>Node25&#45;&gt;Node3</title>
<path fill="none" stroke="midnightblue" d="M865.092,-616.478C881.605,-608.421 899.382,-596.549 909.5,-580 940.257,-529.694 932.295,-455.691 926.314,-421.53"/>
<polygon fill="midnightblue" stroke="midnightblue" points="929.726,-420.735 924.42,-411.564 922.849,-422.042 929.726,-420.735"/>
</g>
<!-- Node25&#45;&gt;Node21 -->
<g id="edge37" class="edge"><title>Node25&#45;&gt;Node21</title>
<path fill="none" stroke="midnightblue" d="M822.945,-616.399C820.923,-608.377 818.365,-598.233 816.181,-589.569"/>
<polygon fill="midnightblue" stroke="midnightblue" points="819.521,-588.499 813.683,-579.658 812.733,-590.21 819.521,-588.499"/>
</g>
<!-- Node26&#45;&gt;Node18 -->
<g id="edge39" class="edge"><title>Node26&#45;&gt;Node18</title>
<path fill="none" stroke="midnightblue" d="M354.347,-336.451C347.255,-323.474 336.44,-298.371 346.5,-280 372.769,-232.031 432.597,-203.526 470.63,-189.596"/>
<polygon fill="midnightblue" stroke="midnightblue" points="471.993,-192.827 480.265,-186.207 469.67,-186.223 471.993,-192.827"/>
</g>
<!-- Node27 -->
<g id="node27" class="node"><title>Node27</title>
<g id="a_node27"><a xlink:href="_game_director_8h.html" target="_top" xlink:title="GameDirector.h">
<polygon fill="none" stroke="black" points="213.5,-280.5 213.5,-299.5 299.5,-299.5 299.5,-280.5 213.5,-280.5"/>
<text text-anchor="middle" x="256.5" y="-287.5" font-family="Helvetica,sans-Serif" font-size="10.00">GameDirector.h</text>
</a>
</g>
</g>
<!-- Node26&#45;&gt;Node27 -->
<g id="edge40" class="edge"><title>Node26&#45;&gt;Node27</title>
<path fill="none" stroke="midnightblue" d="M342.951,-336.324C326.508,-327.703 301.065,-314.364 282.032,-304.386"/>
<polygon fill="midnightblue" stroke="midnightblue" points="283.489,-301.198 273.008,-299.655 280.239,-307.398 283.489,-301.198"/>
</g>
<!-- Node28 -->
<g id="node28" class="node"><title>Node28</title>
<g id="a_node28"><a xlink:href="_form_scene_8h.html" target="_top" xlink:title="FormScene.h">
<polygon fill="none" stroke="black" points="356,-280.5 356,-299.5 431,-299.5 431,-280.5 356,-280.5"/>
<text text-anchor="middle" x="393.5" y="-287.5" font-family="Helvetica,sans-Serif" font-size="10.00">FormScene.h</text>
</a>
</g>
</g>
<!-- Node26&#45;&gt;Node28 -->
<g id="edge41" class="edge"><title>Node26&#45;&gt;Node28</title>
<path fill="none" stroke="midnightblue" d="M365.114,-336.083C369.867,-328.534 376.818,-317.495 382.652,-308.23"/>
<polygon fill="midnightblue" stroke="midnightblue" points="385.624,-310.078 387.99,-299.751 379.7,-306.349 385.624,-310.078"/>
</g>
<!-- Node28&#45;&gt;Node10 -->
<g id="edge42" class="edge"><title>Node28&#45;&gt;Node10</title>
<path fill="none" stroke="midnightblue" d="M402.44,-280.387C417.491,-266.381 449.4,-238.753 481.5,-224 543.753,-195.39 566.936,-204.062 638.031,-187.985"/>
<polygon fill="midnightblue" stroke="midnightblue" points="638.971,-191.359 647.905,-185.664 637.37,-184.545 638.971,-191.359"/>
</g>
<!-- Node29 -->
<g id="node29" class="node"><title>Node29</title>
<g id="a_node29"><a xlink:href="_ui_scene_8h.html" target="_top" xlink:title="UiScene.h">
<polygon fill="none" stroke="black" points="237.5,-224.5 237.5,-243.5 299.5,-243.5 299.5,-224.5 237.5,-224.5"/>
<text text-anchor="middle" x="268.5" y="-231.5" font-family="Helvetica,sans-Serif" font-size="10.00">UiScene.h</text>
</a>
</g>
</g>
<!-- Node28&#45;&gt;Node29 -->
<g id="edge43" class="edge"><title>Node28&#45;&gt;Node29</title>
<path fill="none" stroke="midnightblue" d="M373.693,-280.444C353.213,-271.596 321.017,-257.687 297.635,-247.586"/>
<polygon fill="midnightblue" stroke="midnightblue" points="298.782,-244.269 288.214,-243.516 296.006,-250.695 298.782,-244.269"/>
</g>
<!-- Node30 -->
<g id="node30" class="node"><title>Node30</title>
<g id="a_node30"><a xlink:href="_scene_8h.html" target="_top" xlink:title="Scene.h">
<polygon fill="none" stroke="black" points="242,-168.5 242,-187.5 295,-187.5 295,-168.5 242,-168.5"/>
<text text-anchor="middle" x="268.5" y="-175.5" font-family="Helvetica,sans-Serif" font-size="10.00">Scene.h</text>
</a>
</g>
</g>
<!-- Node29&#45;&gt;Node30 -->
<g id="edge44" class="edge"><title>Node29&#45;&gt;Node30</title>
<path fill="none" stroke="midnightblue" d="M268.5,-224.083C268.5,-217.006 268.5,-206.861 268.5,-197.986"/>
<polygon fill="midnightblue" stroke="midnightblue" points="272,-197.751 268.5,-187.751 265,-197.751 272,-197.751"/>
</g>
<!-- Node31 -->
<g id="node31" class="node"><title>Node31</title>
<g id="a_node31"><a xlink:href="_o_s_8h.html" target="_top" xlink:title="../../engine/Util/OS.h">
<polygon fill="none" stroke="black" points="148,-112.5 148,-131.5 255,-131.5 255,-112.5 148,-112.5"/>
<text text-anchor="middle" x="201.5" y="-119.5" font-family="Helvetica,sans-Serif" font-size="10.00">../../engine/Util/OS.h</text>
</a>
</g>
</g>
<!-- Node30&#45;&gt;Node31 -->
<g id="edge45" class="edge"><title>Node30&#45;&gt;Node31</title>
<path fill="none" stroke="midnightblue" d="M257.735,-168.324C247.734,-160.263 232.613,-148.077 220.57,-138.369"/>
<polygon fill="midnightblue" stroke="midnightblue" points="222.443,-135.384 212.461,-131.834 218.05,-140.834 222.443,-135.384"/>
</g>
<!-- Node37 -->
<g id="node37" class="node"><title>Node37</title>
<g id="a_node37"><a xlink:href="_profiler_8h.html" target="_top" xlink:title="../../engine/Util/Profiler.h">
<polygon fill="none" stroke="black" points="273,-112.5 273,-131.5 396,-131.5 396,-112.5 273,-112.5"/>
<text text-anchor="middle" x="334.5" y="-119.5" font-family="Helvetica,sans-Serif" font-size="10.00">../../engine/Util/Profiler.h</text>
</a>
</g>
</g>
<!-- Node30&#45;&gt;Node37 -->
<g id="edge52" class="edge"><title>Node30&#45;&gt;Node37</title>
<path fill="none" stroke="midnightblue" d="M279.104,-168.324C288.956,-160.263 303.851,-148.077 315.715,-138.369"/>
<polygon fill="midnightblue" stroke="midnightblue" points="318.18,-140.875 323.703,-131.834 313.747,-135.457 318.18,-140.875"/>
</g>
<!-- Node31&#45;&gt;Node8 -->
<g id="edge51" class="edge"><title>Node31&#45;&gt;Node8</title>
<path fill="none" stroke="midnightblue" d="M246.976,-112.444C297.462,-102.944 378.956,-87.611 433.12,-77.4198"/>
<polygon fill="midnightblue" stroke="midnightblue" points="434.056,-80.8052 443.237,-75.5164 432.762,-73.9259 434.056,-80.8052"/>
</g>
<!-- Node32 -->
<g id="node32" class="node"><title>Node32</title>
<polygon fill="none" stroke="#bfbfbf" points="124.5,-56.5 124.5,-75.5 166.5,-75.5 166.5,-56.5 124.5,-56.5"/>
<text text-anchor="middle" x="145.5" y="-63.5" font-family="Helvetica,sans-Serif" font-size="10.00">locale</text>
</g>
<!-- Node31&#45;&gt;Node32 -->
<g id="edge46" class="edge"><title>Node31&#45;&gt;Node32</title>
<path fill="none" stroke="midnightblue" d="M192.503,-112.324C184.306,-104.42 171.994,-92.5482 162.028,-82.9377"/>
<polygon fill="midnightblue" stroke="midnightblue" points="164.289,-80.2558 154.661,-75.8339 159.43,-85.2947 164.289,-80.2558"/>
</g>
<!-- Node33 -->
<g id="node33" class="node"><title>Node33</title>
<polygon fill="none" stroke="#bfbfbf" points="184.5,-56.5 184.5,-75.5 214.5,-75.5 214.5,-56.5 184.5,-56.5"/>
<text text-anchor="middle" x="199.5" y="-63.5" font-family="Helvetica,sans-Serif" font-size="10.00">set</text>
</g>
<!-- Node31&#45;&gt;Node33 -->
<g id="edge47" class="edge"><title>Node31&#45;&gt;Node33</title>
<path fill="none" stroke="midnightblue" d="M201.17,-112.083C200.908,-105.006 200.532,-94.8611 200.203,-85.9865"/>
<polygon fill="midnightblue" stroke="midnightblue" points="203.692,-85.6147 199.824,-75.7511 196.697,-85.8738 203.692,-85.6147"/>
</g>
<!-- Node34 -->
<g id="node34" class="node"><title>Node34</title>
<polygon fill="none" stroke="#bfbfbf" points="233,-56.5 233,-75.5 274,-75.5 274,-56.5 233,-56.5"/>
<text text-anchor="middle" x="253.5" y="-63.5" font-family="Helvetica,sans-Serif" font-size="10.00">string</text>
</g>
<!-- Node31&#45;&gt;Node34 -->
<g id="edge48" class="edge"><title>Node31&#45;&gt;Node34</title>
<path fill="none" stroke="midnightblue" d="M210.087,-112.083C217.659,-104.22 228.878,-92.5688 238.014,-83.0813"/>
<polygon fill="midnightblue" stroke="midnightblue" points="240.658,-85.3821 245.073,-75.7511 235.615,-80.5266 240.658,-85.3821"/>
</g>
<!-- Node35 -->
<g id="node35" class="node"><title>Node35</title>
<polygon fill="none" stroke="#bfbfbf" points="292.5,-56.5 292.5,-75.5 336.5,-75.5 336.5,-56.5 292.5,-56.5"/>
<text text-anchor="middle" x="314.5" y="-63.5" font-family="Helvetica,sans-Serif" font-size="10.00">vector</text>
</g>
<!-- Node31&#45;&gt;Node35 -->
<g id="edge49" class="edge"><title>Node31&#45;&gt;Node35</title>
<path fill="none" stroke="midnightblue" d="M219.405,-112.444C237.754,-103.675 266.505,-89.9355 287.594,-79.8579"/>
<polygon fill="midnightblue" stroke="midnightblue" points="289.165,-82.9862 296.679,-75.5164 286.147,-76.6703 289.165,-82.9862"/>
</g>
<!-- Node36 -->
<g id="node36" class="node"><title>Node36</title>
<polygon fill="none" stroke="#bfbfbf" points="0,-56.5 0,-75.5 107,-75.5 107,-56.5 0,-56.5"/>
<text text-anchor="middle" x="53.5" y="-63.5" font-family="Helvetica,sans-Serif" font-size="10.00">boost/filesystem.hpp</text>
</g>
<!-- Node31&#45;&gt;Node36 -->
<g id="edge50" class="edge"><title>Node31&#45;&gt;Node36</title>
<path fill="none" stroke="midnightblue" d="M178.049,-112.444C153.367,-103.438 114.315,-89.1891 86.5233,-79.049"/>
<polygon fill="midnightblue" stroke="midnightblue" points="87.4352,-75.6561 76.8413,-75.5164 85.0359,-82.2321 87.4352,-75.6561"/>
</g>
<!-- Node38 -->
<g id="node38" class="node"><title>Node38</title>
<polygon fill="none" stroke="#bfbfbf" points="354.5,-56.5 354.5,-75.5 400.5,-75.5 400.5,-56.5 354.5,-56.5"/>
<text text-anchor="middle" x="377.5" y="-63.5" font-family="Helvetica,sans-Serif" font-size="10.00">chrono</text>
</g>
<!-- Node37&#45;&gt;Node38 -->
<g id="edge53" class="edge"><title>Node37&#45;&gt;Node38</title>
<path fill="none" stroke="midnightblue" d="M341.601,-112.083C347.737,-104.377 356.77,-93.0333 364.239,-83.6531"/>
<polygon fill="midnightblue" stroke="midnightblue" points="367.04,-85.7542 370.532,-75.7511 361.564,-81.3936 367.04,-85.7542"/>
</g>
</g>
</svg>
