<?xml version="1.0" encoding="UTF-8" standalone="no"?>
<!DOCTYPE svg PUBLIC "-//W3C//DTD SVG 1.1//EN"
 "http://www.w3.org/Graphics/SVG/1.1/DTD/svg11.dtd">
<!-- Generated by graphviz version 2.26.3 (20100126.1600)
 -->
<!-- Title: Duration.h Pages: 1 -->
<svg width="431pt" height="204pt"
 viewBox="0.00 0.00 431.30 204.00" xmlns="http://www.w3.org/2000/svg" xmlns:xlink="http://www.w3.org/1999/xlink">
<g id="graph1" class="graph" transform="scale(1 1) rotate(0) translate(4 200)">
<title>Duration.h</title>
<!-- Node1 -->
<g id="node1" class="node"><title>Node1</title>
<polygon fill="#bfbfbf" stroke="black" points="205.302,-175 205.302,-195 265.302,-195 265.302,-175 205.302,-175"/>
<text text-anchor="middle" x="235.302" y="-182" font-family="FreeSans" font-size="10.00">Duration.h</text>
</g>
<!-- Node2 -->
<g id="node3" class="node"><title>Node2</title>
<a xlink:href="_clock_8h.html" target="_top" xlink:title="Clock.h">
<polygon fill="none" stroke="black" points="184.802,-117 184.802,-137 233.802,-137 233.802,-117 184.802,-117"/>
<text text-anchor="middle" x="209.302" y="-124" font-family="FreeSans" font-size="10.00">Clock.h</text>
</a>
</g>
<!-- Node1&#45;&gt;Node2 -->
<g id="edge2" class="edge"><title>Node1&#45;&gt;Node2</title>
<path fill="none" stroke="midnightblue" d="M226.558,-165.493C222.34,-156.083 217.449,-145.174 213.954,-137.378"/>
<polygon fill="midnightblue" stroke="midnightblue" points="223.489,-167.204 230.774,-174.897 229.877,-164.34 223.489,-167.204"/>
</g>
<!-- Node4 -->
<g id="node7" class="node"><title>Node4</title>
<a xlink:href="_client_script_core_8cpp.html" target="_top" xlink:title="ClientScriptCore.cpp">
<polygon fill="none" stroke="black" points="83.8024,-1 83.8024,-21 188.802,-21 188.802,-1 83.8024,-1"/>
<text text-anchor="middle" x="136.302" y="-8" font-family="FreeSans" font-size="10.00">ClientScriptCore.cpp</text>
</a>
</g>
<!-- Node1&#45;&gt;Node4 -->
<g id="edge18" class="edge"><title>Node1&#45;&gt;Node4</title>
<path fill="none" stroke="midnightblue" d="M195.193,-179.86C141.272,-170.557 47.3318,-145.389 5.30236,-80 -16.6575,-45.8349 38.3899,-27.5588 83.7537,-18.573"/>
<polygon fill="midnightblue" stroke="midnightblue" points="194.663,-183.319 205.095,-181.467 195.785,-176.41 194.663,-183.319"/>
</g>
<!-- Node5 -->
<g id="node9" class="node"><title>Node5</title>
<a xlink:href="_stopwatch_8h.html" target="_top" xlink:title="Stopwatch.h">
<polygon fill="none" stroke="black" points="347.802,-59 347.802,-79 418.802,-79 418.802,-59 347.802,-59"/>
<text text-anchor="middle" x="383.302" y="-66" font-family="FreeSans" font-size="10.00">Stopwatch.h</text>
</a>
</g>
<!-- Node1&#45;&gt;Node5 -->
<g id="edge20" class="edge"><title>Node1&#45;&gt;Node5</title>
<path fill="none" stroke="midnightblue" d="M244.059,-165.785C251.782,-150.613 264.295,-129.773 280.302,-116 300.268,-98.8218 327.553,-86.7496 349.024,-79.1447"/>
<polygon fill="midnightblue" stroke="midnightblue" points="240.898,-164.281 239.686,-174.806 247.197,-167.334 240.898,-164.281"/>
</g>
<!-- Node9 -->
<g id="node20" class="node"><title>Node9</title>
<a xlink:href="_duration_8cpp.html" target="_top" xlink:title="Duration.cpp">
<polygon fill="none" stroke="black" points="288.802,-117 288.802,-137 359.802,-137 359.802,-117 288.802,-117"/>
<text text-anchor="middle" x="324.302" y="-124" font-family="FreeSans" font-size="10.00">Duration.cpp</text>
</a>
</g>
<!-- Node1&#45;&gt;Node9 -->
<g id="edge22" class="edge"><title>Node1&#45;&gt;Node9</title>
<path fill="none" stroke="midnightblue" d="M259.452,-169.262C275.117,-159.054 295.069,-146.051 308.679,-137.182"/>
<polygon fill="midnightblue" stroke="midnightblue" points="257.272,-166.505 250.805,-174.897 261.094,-172.37 257.272,-166.505"/>
</g>
<!-- Node3 -->
<g id="node5" class="node"><title>Node3</title>
<a xlink:href="_client_session_8cpp.html" target="_top" xlink:title="ClientSession.cpp">
<polygon fill="none" stroke="black" points="13.8024,-59 13.8024,-79 108.802,-79 108.802,-59 13.8024,-59"/>
<text text-anchor="middle" x="61.3024" y="-66" font-family="FreeSans" font-size="10.00">ClientSession.cpp</text>
</a>
</g>
<!-- Node2&#45;&gt;Node3 -->
<g id="edge4" class="edge"><title>Node2&#45;&gt;Node3</title>
<path fill="none" stroke="midnightblue" d="M175.142,-113.613C148.324,-103.103 111.56,-88.6957 87.1507,-79.1298"/>
<polygon fill="midnightblue" stroke="midnightblue" points="173.943,-116.902 184.53,-117.292 176.497,-110.385 173.943,-116.902"/>
</g>
<!-- Node2&#45;&gt;Node4 -->
<g id="edge6" class="edge"><title>Node2&#45;&gt;Node4</title>
<path fill="none" stroke="midnightblue" d="M185.187,-110.985C174.626,-102.848 162.928,-92.1186 155.302,-80 143.523,-61.281 138.939,-35.2344 137.239,-21.1"/>
<polygon fill="midnightblue" stroke="midnightblue" points="183.176,-113.85 193.313,-116.931 187.31,-108.201 183.176,-113.85"/>
</g>
<!-- Node2&#45;&gt;Node5 -->
<g id="edge8" class="edge"><title>Node2&#45;&gt;Node5</title>
<path fill="none" stroke="midnightblue" d="M243.641,-115.554C275.517,-104.928 322.514,-89.2627 353.02,-79.094"/>
<polygon fill="midnightblue" stroke="midnightblue" points="242.243,-112.33 233.863,-118.813 244.457,-118.971 242.243,-112.33"/>
</g>
<!-- Node7 -->
<g id="node14" class="node"><title>Node7</title>
<a xlink:href="_chronometer_8cpp.html" target="_top" xlink:title="Chronometer.cpp">
<polygon fill="none" stroke="black" points="164.302,-59 164.302,-79 254.302,-79 254.302,-59 164.302,-59"/>
<text text-anchor="middle" x="209.302" y="-66" font-family="FreeSans" font-size="10.00">Chronometer.cpp</text>
</a>
</g>
<!-- Node2&#45;&gt;Node7 -->
<g id="edge14" class="edge"><title>Node2&#45;&gt;Node7</title>
<path fill="none" stroke="midnightblue" d="M209.302,-106.89C209.302,-97.6201 209.302,-87.0083 209.302,-79.3776"/>
<polygon fill="midnightblue" stroke="midnightblue" points="205.802,-106.897 209.302,-116.897 212.802,-106.897 205.802,-106.897"/>
</g>
<!-- Node8 -->
<g id="node16" class="node"><title>Node8</title>
<a xlink:href="_clock_8cpp.html" target="_top" xlink:title="Clock.cpp">
<polygon fill="none" stroke="black" points="271.802,-59 271.802,-79 330.802,-79 330.802,-59 271.802,-59"/>
<text text-anchor="middle" x="301.302" y="-66" font-family="FreeSans" font-size="10.00">Clock.cpp</text>
</a>
</g>
<!-- Node2&#45;&gt;Node8 -->
<g id="edge16" class="edge"><title>Node2&#45;&gt;Node8</title>
<path fill="none" stroke="midnightblue" d="M233.813,-111.547C250.073,-101.297 270.952,-88.1339 285.152,-79.1817"/>
<polygon fill="midnightblue" stroke="midnightblue" points="231.92,-108.603 225.328,-116.897 235.653,-114.525 231.92,-108.603"/>
</g>
<!-- Node5&#45;&gt;Node4 -->
<g id="edge10" class="edge"><title>Node5&#45;&gt;Node4</title>
<path fill="none" stroke="midnightblue" d="M337.813,-57.6657C278.213,-43.3649 219.698,-29.9205 180.707,-21.0463"/>
<polygon fill="midnightblue" stroke="midnightblue" points="337.233,-61.1258 347.774,-60.0614 338.87,-54.3199 337.233,-61.1258"/>
</g>
<!-- Node6 -->
<g id="node12" class="node"><title>Node6</title>
<a xlink:href="_stopwatch_8cpp.html" target="_top" xlink:title="Stopwatch.cpp">
<polygon fill="none" stroke="black" points="342.802,-1 342.802,-21 423.802,-21 423.802,-1 342.802,-1"/>
<text text-anchor="middle" x="383.302" y="-8" font-family="FreeSans" font-size="10.00">Stopwatch.cpp</text>
</a>
</g>
<!-- Node5&#45;&gt;Node6 -->
<g id="edge12" class="edge"><title>Node5&#45;&gt;Node6</title>
<path fill="none" stroke="midnightblue" d="M383.302,-48.8902C383.302,-39.6201 383.302,-29.0083 383.302,-21.3776"/>
<polygon fill="midnightblue" stroke="midnightblue" points="379.802,-48.8971 383.302,-58.8972 386.802,-48.8972 379.802,-48.8971"/>
</g>
</g>
</svg>
