<?xml version="1.0" encoding="UTF-8" standalone="no"?>
<!DOCTYPE svg PUBLIC "-//W3C//DTD SVG 1.1//EN"
 "http://www.w3.org/Graphics/SVG/1.1/DTD/svg11.dtd">
<!-- Generated by graphviz version 2.38.0 (20140413.2041)
 -->
<!-- Title: ElemHeap.cpp Pages: 1 -->
<svg width="865pt" height="364pt"
 viewBox="0.00 0.00 864.50 364.00" xmlns="http://www.w3.org/2000/svg" xmlns:xlink="http://www.w3.org/1999/xlink">
<g id="graph0" class="graph" transform="scale(1 1) rotate(0) translate(4 360)">
<title>ElemHeap.cpp</title>
<!-- Node1 -->
<g id="node1" class="node"><title>Node1</title>
<polygon fill="#bfbfbf" stroke="black" points="341,-336.5 341,-355.5 422,-355.5 422,-336.5 341,-336.5"/>
<text text-anchor="middle" x="381.5" y="-343.5" font-family="Helvetica,sans-Serif" font-size="10.00">ElemHeap.cpp</text>
</g>
<!-- Node2 -->
<g id="node2" class="node"><title>Node2</title>
<g id="a_node2"><a xlink:href="_obj_stream_8h.html" target="_top" xlink:title="../Parcel/ObjStream.h">
<polygon fill="none" stroke="black" points="175,-168.5 175,-187.5 286,-187.5 286,-168.5 175,-168.5"/>
<text text-anchor="middle" x="230.5" y="-175.5" font-family="Helvetica,sans-Serif" font-size="10.00">../Parcel/ObjStream.h</text>
</a>
</g>
</g>
<!-- Node1&#45;&gt;Node2 -->
<g id="edge1" class="edge"><title>Node1&#45;&gt;Node2</title>
<path fill="none" stroke="midnightblue" d="M363.893,-336.488C335.258,-321.729 278.76,-288.638 248.5,-244 239.158,-230.219 234.64,-211.694 232.47,-197.947"/>
<polygon fill="midnightblue" stroke="midnightblue" points="235.903,-197.198 231.145,-187.732 228.961,-198.099 235.903,-197.198"/>
</g>
<!-- Node14 -->
<g id="node14" class="node"><title>Node14</title>
<g id="a_node14"><a xlink:href="_dll_object_factory_8h.html" target="_top" xlink:title="../Util/DllObjectFactory.h">
<polygon fill="none" stroke="black" points="258,-224.5 258,-243.5 383,-243.5 383,-224.5 258,-224.5"/>
<text text-anchor="middle" x="320.5" y="-231.5" font-family="Helvetica,sans-Serif" font-size="10.00">../Util/DllObjectFactory.h</text>
</a>
</g>
</g>
<!-- Node1&#45;&gt;Node14 -->
<g id="edge15" class="edge"><title>Node1&#45;&gt;Node14</title>
<path fill="none" stroke="midnightblue" d="M376.713,-336.368C366.736,-318.376 343.542,-276.55 330.275,-252.627"/>
<polygon fill="midnightblue" stroke="midnightblue" points="333.175,-250.639 325.264,-243.591 327.053,-254.034 333.175,-250.639"/>
</g>
<!-- Node15 -->
<g id="node15" class="node"><title>Node15</title>
<g id="a_node15"><a xlink:href="_maze_element_8h.html" target="_top" xlink:title="MazeElement.h">
<polygon fill="none" stroke="black" points="388,-280.5 388,-299.5 473,-299.5 473,-280.5 388,-280.5"/>
<text text-anchor="middle" x="430.5" y="-287.5" font-family="Helvetica,sans-Serif" font-size="10.00">MazeElement.h</text>
</a>
</g>
</g>
<!-- Node1&#45;&gt;Node15 -->
<g id="edge18" class="edge"><title>Node1&#45;&gt;Node15</title>
<path fill="none" stroke="midnightblue" d="M389.591,-336.083C396.655,-328.298 407.088,-316.801 415.649,-307.367"/>
<polygon fill="midnightblue" stroke="midnightblue" points="418.431,-309.509 422.559,-299.751 413.247,-304.805 418.431,-309.509"/>
</g>
<!-- Node25 -->
<g id="node25" class="node"><title>Node25</title>
<g id="a_node25"><a xlink:href="_elem_heap_8h.html" target="_top" xlink:title="ElemHeap.h">
<polygon fill="none" stroke="black" points="491,-280.5 491,-299.5 562,-299.5 562,-280.5 491,-280.5"/>
<text text-anchor="middle" x="526.5" y="-287.5" font-family="Helvetica,sans-Serif" font-size="10.00">ElemHeap.h</text>
</a>
</g>
</g>
<!-- Node1&#45;&gt;Node25 -->
<g id="edge35" class="edge"><title>Node1&#45;&gt;Node25</title>
<path fill="none" stroke="midnightblue" d="M404.476,-336.444C428.657,-327.438 466.918,-313.189 494.146,-303.049"/>
<polygon fill="midnightblue" stroke="midnightblue" points="495.482,-306.286 503.632,-299.516 493.039,-299.727 495.482,-306.286"/>
</g>
<!-- Node3 -->
<g id="node3" class="node"><title>Node3</title>
<polygon fill="none" stroke="#bfbfbf" points="77,-56.5 77,-75.5 118,-75.5 118,-56.5 77,-56.5"/>
<text text-anchor="middle" x="97.5" y="-63.5" font-family="Helvetica,sans-Serif" font-size="10.00">string</text>
</g>
<!-- Node2&#45;&gt;Node3 -->
<g id="edge2" class="edge"><title>Node2&#45;&gt;Node3</title>
<path fill="none" stroke="midnightblue" d="M220.064,-168.368C197.532,-149.733 144.089,-105.532 115.798,-82.1338"/>
<polygon fill="midnightblue" stroke="midnightblue" points="117.824,-79.2677 107.888,-75.5914 113.363,-84.6618 117.824,-79.2677"/>
</g>
<!-- Node4 -->
<g id="node4" class="node"><title>Node4</title>
<g id="a_node4"><a xlink:href="_exception_8h.html" target="_top" xlink:title="../Exception.h">
<polygon fill="none" stroke="black" points="31,-112.5 31,-131.5 108,-131.5 108,-112.5 31,-112.5"/>
<text text-anchor="middle" x="69.5" y="-119.5" font-family="Helvetica,sans-Serif" font-size="10.00">../Exception.h</text>
</a>
</g>
</g>
<!-- Node2&#45;&gt;Node4 -->
<g id="edge3" class="edge"><title>Node2&#45;&gt;Node4</title>
<path fill="none" stroke="midnightblue" d="M204.989,-168.444C177.904,-159.359 134.91,-144.939 104.631,-134.783"/>
<polygon fill="midnightblue" stroke="midnightblue" points="105.486,-131.378 94.8916,-131.516 103.26,-138.015 105.486,-131.378"/>
</g>
<!-- Node6 -->
<g id="node6" class="node"><title>Node6</title>
<g id="a_node6"><a xlink:href="_m_r___types_8h.html" target="_top" xlink:title="../Util/MR_Types.h">
<polygon fill="none" stroke="black" points="496.5,-56.5 496.5,-75.5 596.5,-75.5 596.5,-56.5 496.5,-56.5"/>
<text text-anchor="middle" x="546.5" y="-63.5" font-family="Helvetica,sans-Serif" font-size="10.00">../Util/MR_Types.h</text>
</a>
</g>
</g>
<!-- Node2&#45;&gt;Node6 -->
<g id="edge5" class="edge"><title>Node2&#45;&gt;Node6</title>
<path fill="none" stroke="midnightblue" d="M250.295,-168.465C286.2,-153.041 360.816,-121.264 387.5,-112 425.65,-98.755 469.919,-86.47 502.043,-78.0941"/>
<polygon fill="midnightblue" stroke="midnightblue" points="503.217,-81.4059 512.023,-75.5157 501.466,-74.6284 503.217,-81.4059"/>
</g>
<!-- Node8 -->
<g id="node8" class="node"><title>Node8</title>
<g id="a_node8"><a xlink:href="_o_s_8h.html" target="_top" xlink:title="../Util/OS.h">
<polygon fill="none" stroke="black" points="259.5,-112.5 259.5,-131.5 325.5,-131.5 325.5,-112.5 259.5,-112.5"/>
<text text-anchor="middle" x="292.5" y="-119.5" font-family="Helvetica,sans-Serif" font-size="10.00">../Util/OS.h</text>
</a>
</g>
</g>
<!-- Node2&#45;&gt;Node8 -->
<g id="edge7" class="edge"><title>Node2&#45;&gt;Node8</title>
<path fill="none" stroke="midnightblue" d="M240.461,-168.324C249.627,-160.341 263.437,-148.313 274.528,-138.653"/>
<polygon fill="midnightblue" stroke="midnightblue" points="277.115,-141.041 282.357,-131.834 272.518,-135.762 277.115,-141.041"/>
</g>
<!-- Node5 -->
<g id="node5" class="node"><title>Node5</title>
<polygon fill="none" stroke="#bfbfbf" points="0,-56.5 0,-75.5 59,-75.5 59,-56.5 0,-56.5"/>
<text text-anchor="middle" x="29.5" y="-63.5" font-family="Helvetica,sans-Serif" font-size="10.00">exception</text>
</g>
<!-- Node4&#45;&gt;Node5 -->
<g id="edge4" class="edge"><title>Node4&#45;&gt;Node5</title>
<path fill="none" stroke="midnightblue" d="M62.8948,-112.083C57.2448,-104.455 48.9552,-93.2645 42.0488,-83.9408"/>
<polygon fill="midnightblue" stroke="midnightblue" points="44.7471,-81.7034 35.9823,-75.7511 39.1221,-85.87 44.7471,-81.7034"/>
</g>
<!-- Node7 -->
<g id="node7" class="node"><title>Node7</title>
<polygon fill="none" stroke="#bfbfbf" points="517,-0.5 517,-19.5 576,-19.5 576,-0.5 517,-0.5"/>
<text text-anchor="middle" x="546.5" y="-7.5" font-family="Helvetica,sans-Serif" font-size="10.00">inttypes.h</text>
</g>
<!-- Node6&#45;&gt;Node7 -->
<g id="edge6" class="edge"><title>Node6&#45;&gt;Node7</title>
<path fill="none" stroke="midnightblue" d="M546.5,-56.083C546.5,-49.0059 546.5,-38.8611 546.5,-29.9865"/>
<polygon fill="midnightblue" stroke="midnightblue" points="550,-29.751 546.5,-19.7511 543,-29.7511 550,-29.751"/>
</g>
<!-- Node8&#45;&gt;Node3 -->
<g id="edge11" class="edge"><title>Node8&#45;&gt;Node3</title>
<path fill="none" stroke="midnightblue" d="M259.645,-112.469C228.117,-104.199 178.934,-91.0847 127.944,-76.3516"/>
<polygon fill="midnightblue" stroke="midnightblue" points="128.647,-72.9111 118.067,-73.4837 126.695,-79.6335 128.647,-72.9111"/>
</g>
<!-- Node8&#45;&gt;Node6 -->
<g id="edge14" class="edge"><title>Node8&#45;&gt;Node6</title>
<path fill="none" stroke="midnightblue" d="M325.706,-113.94C369.109,-104.713 445.533,-88.4653 496.098,-77.7155"/>
<polygon fill="midnightblue" stroke="midnightblue" points="497.107,-81.0791 506.161,-75.576 495.652,-74.2321 497.107,-81.0791"/>
</g>
<!-- Node9 -->
<g id="node9" class="node"><title>Node9</title>
<polygon fill="none" stroke="#bfbfbf" points="260.5,-56.5 260.5,-75.5 302.5,-75.5 302.5,-56.5 260.5,-56.5"/>
<text text-anchor="middle" x="281.5" y="-63.5" font-family="Helvetica,sans-Serif" font-size="10.00">locale</text>
</g>
<!-- Node8&#45;&gt;Node9 -->
<g id="edge8" class="edge"><title>Node8&#45;&gt;Node9</title>
<path fill="none" stroke="midnightblue" d="M290.684,-112.083C289.226,-104.927 287.129,-94.6353 285.307,-85.6911"/>
<polygon fill="midnightblue" stroke="midnightblue" points="288.708,-84.8512 283.283,-75.7511 281.849,-86.2485 288.708,-84.8512"/>
</g>
<!-- Node10 -->
<g id="node10" class="node"><title>Node10</title>
<polygon fill="none" stroke="#bfbfbf" points="320,-56.5 320,-75.5 369,-75.5 369,-56.5 320,-56.5"/>
<text text-anchor="middle" x="344.5" y="-63.5" font-family="Helvetica,sans-Serif" font-size="10.00">random</text>
</g>
<!-- Node8&#45;&gt;Node10 -->
<g id="edge9" class="edge"><title>Node8&#45;&gt;Node10</title>
<path fill="none" stroke="midnightblue" d="M301.087,-112.083C308.659,-104.22 319.878,-92.5688 329.014,-83.0813"/>
<polygon fill="midnightblue" stroke="midnightblue" points="331.658,-85.3821 336.073,-75.7511 326.615,-80.5266 331.658,-85.3821"/>
</g>
<!-- Node11 -->
<g id="node11" class="node"><title>Node11</title>
<polygon fill="none" stroke="#bfbfbf" points="386.5,-56.5 386.5,-75.5 416.5,-75.5 416.5,-56.5 386.5,-56.5"/>
<text text-anchor="middle" x="401.5" y="-63.5" font-family="Helvetica,sans-Serif" font-size="10.00">set</text>
</g>
<!-- Node8&#45;&gt;Node11 -->
<g id="edge10" class="edge"><title>Node8&#45;&gt;Node11</title>
<path fill="none" stroke="midnightblue" d="M310.013,-112.324C328.3,-103.264 357.106,-88.9933 377.504,-78.8881"/>
<polygon fill="midnightblue" stroke="midnightblue" points="379.08,-82.0131 386.487,-74.4376 375.973,-75.7407 379.08,-82.0131"/>
</g>
<!-- Node12 -->
<g id="node12" class="node"><title>Node12</title>
<polygon fill="none" stroke="#bfbfbf" points="434.5,-56.5 434.5,-75.5 478.5,-75.5 478.5,-56.5 434.5,-56.5"/>
<text text-anchor="middle" x="456.5" y="-63.5" font-family="Helvetica,sans-Serif" font-size="10.00">vector</text>
</g>
<!-- Node8&#45;&gt;Node12 -->
<g id="edge12" class="edge"><title>Node8&#45;&gt;Node12</title>
<path fill="none" stroke="midnightblue" d="M318.486,-112.444C347.212,-102.985 393.505,-87.7421 424.456,-77.551"/>
<polygon fill="midnightblue" stroke="midnightblue" points="425.913,-80.7562 434.317,-74.3042 423.724,-74.1073 425.913,-80.7562"/>
</g>
<!-- Node13 -->
<g id="node13" class="node"><title>Node13</title>
<polygon fill="none" stroke="#bfbfbf" points="136,-56.5 136,-75.5 243,-75.5 243,-56.5 136,-56.5"/>
<text text-anchor="middle" x="189.5" y="-63.5" font-family="Helvetica,sans-Serif" font-size="10.00">boost/filesystem.hpp</text>
</g>
<!-- Node8&#45;&gt;Node13 -->
<g id="edge13" class="edge"><title>Node8&#45;&gt;Node13</title>
<path fill="none" stroke="midnightblue" d="M275.951,-112.324C259.508,-103.703 234.065,-90.3643 215.032,-80.3855"/>
<polygon fill="midnightblue" stroke="midnightblue" points="216.489,-77.198 206.008,-75.6545 213.239,-83.3977 216.489,-77.198"/>
</g>
<!-- Node14&#45;&gt;Node2 -->
<g id="edge16" class="edge"><title>Node14&#45;&gt;Node2</title>
<path fill="none" stroke="midnightblue" d="M306.04,-224.324C292,-215.9 270.452,-202.971 253.957,-193.074"/>
<polygon fill="midnightblue" stroke="midnightblue" points="255.3,-189.798 244.924,-187.655 251.698,-195.801 255.3,-189.798"/>
</g>
<!-- Node14&#45;&gt;Node6 -->
<g id="edge17" class="edge"><title>Node14&#45;&gt;Node6</title>
<path fill="none" stroke="midnightblue" d="M329.084,-224.306C350.142,-203.274 406.58,-148.683 460.5,-112 478.552,-99.7185 500.362,-88.3414 517.5,-80.0994"/>
<polygon fill="midnightblue" stroke="midnightblue" points="519.436,-83.0565 526.988,-75.6258 516.45,-76.725 519.436,-83.0565"/>
</g>
<!-- Node15&#45;&gt;Node14 -->
<g id="edge19" class="edge"><title>Node15&#45;&gt;Node14</title>
<path fill="none" stroke="midnightblue" d="M412.827,-280.324C395.106,-271.625 367.597,-258.12 347.212,-248.113"/>
<polygon fill="midnightblue" stroke="midnightblue" points="348.649,-244.919 338.13,-243.655 345.564,-251.203 348.649,-244.919"/>
</g>
<!-- Node16 -->
<g id="node16" class="node"><title>Node16</title>
<g id="a_node16"><a xlink:href="_viewport3_d_8h.html" target="_top" xlink:title="../VideoServices/Viewport3D.h">
<polygon fill="none" stroke="black" points="582,-224.5 582,-243.5 733,-243.5 733,-224.5 582,-224.5"/>
<text text-anchor="middle" x="657.5" y="-231.5" font-family="Helvetica,sans-Serif" font-size="10.00">../VideoServices/Viewport3D.h</text>
</a>
</g>
</g>
<!-- Node15&#45;&gt;Node16 -->
<g id="edge20" class="edge"><title>Node15&#45;&gt;Node16</title>
<path fill="none" stroke="midnightblue" d="M466.469,-280.444C505.819,-271.083 568.987,-256.056 611.814,-245.868"/>
<polygon fill="midnightblue" stroke="midnightblue" points="612.781,-249.236 621.699,-243.516 611.161,-242.426 612.781,-249.236"/>
</g>
<!-- Node23 -->
<g id="node23" class="node"><title>Node23</title>
<g id="a_node23"><a xlink:href="_contact_effect_8h.html" target="_top" xlink:title="ContactEffect.h">
<polygon fill="none" stroke="black" points="401.5,-224.5 401.5,-243.5 487.5,-243.5 487.5,-224.5 401.5,-224.5"/>
<text text-anchor="middle" x="444.5" y="-231.5" font-family="Helvetica,sans-Serif" font-size="10.00">ContactEffect.h</text>
</a>
</g>
</g>
<!-- Node15&#45;&gt;Node23 -->
<g id="edge31" class="edge"><title>Node15&#45;&gt;Node23</title>
<path fill="none" stroke="midnightblue" d="M432.812,-280.083C434.667,-272.927 437.335,-262.635 439.654,-253.691"/>
<polygon fill="midnightblue" stroke="midnightblue" points="443.109,-254.309 442.231,-243.751 436.334,-252.553 443.109,-254.309"/>
</g>
<!-- Node24 -->
<g id="node24" class="node"><title>Node24</title>
<g id="a_node24"><a xlink:href="_shapes_8h.html" target="_top" xlink:title="Shapes.h">
<polygon fill="none" stroke="black" points="505.5,-224.5 505.5,-243.5 563.5,-243.5 563.5,-224.5 505.5,-224.5"/>
<text text-anchor="middle" x="534.5" y="-231.5" font-family="Helvetica,sans-Serif" font-size="10.00">Shapes.h</text>
</a>
</g>
</g>
<!-- Node15&#45;&gt;Node24 -->
<g id="edge33" class="edge"><title>Node15&#45;&gt;Node24</title>
<path fill="none" stroke="midnightblue" d="M447.209,-280.324C463.812,-271.703 489.502,-258.364 508.72,-248.386"/>
<polygon fill="midnightblue" stroke="midnightblue" points="510.57,-251.369 517.832,-243.655 507.344,-245.156 510.57,-251.369"/>
</g>
<!-- Node17 -->
<g id="node17" class="node"><title>Node17</title>
<g id="a_node17"><a xlink:href="_viewport2_d_8h.html" target="_top" xlink:title="Viewport2D.h">
<polygon fill="none" stroke="black" points="617.5,-112.5 617.5,-131.5 693.5,-131.5 693.5,-112.5 617.5,-112.5"/>
<text text-anchor="middle" x="655.5" y="-119.5" font-family="Helvetica,sans-Serif" font-size="10.00">Viewport2D.h</text>
</a>
</g>
</g>
<!-- Node16&#45;&gt;Node17 -->
<g id="edge21" class="edge"><title>Node16&#45;&gt;Node17</title>
<path fill="none" stroke="midnightblue" d="M657.343,-224.368C657.02,-206.617 656.276,-165.666 655.838,-141.597"/>
<polygon fill="midnightblue" stroke="midnightblue" points="659.338,-141.526 655.656,-131.591 652.339,-141.653 659.338,-141.526"/>
</g>
<!-- Node18 -->
<g id="node18" class="node"><title>Node18</title>
<g id="a_node18"><a xlink:href="_color_palette_8h.html" target="_top" xlink:title="ColorPalette.h">
<polygon fill="none" stroke="black" points="684,-168.5 684,-187.5 763,-187.5 763,-168.5 684,-168.5"/>
<text text-anchor="middle" x="723.5" y="-175.5" font-family="Helvetica,sans-Serif" font-size="10.00">ColorPalette.h</text>
</a>
</g>
</g>
<!-- Node16&#45;&gt;Node18 -->
<g id="edge23" class="edge"><title>Node16&#45;&gt;Node18</title>
<path fill="none" stroke="midnightblue" d="M668.104,-224.324C677.956,-216.263 692.851,-204.077 704.715,-194.369"/>
<polygon fill="midnightblue" stroke="midnightblue" points="707.18,-196.875 712.703,-187.834 702.747,-191.457 707.18,-196.875"/>
</g>
<!-- Node20 -->
<g id="node20" class="node"><title>Node20</title>
<g id="a_node20"><a xlink:href="_bitmap_8h.html" target="_top" xlink:title="Bitmap.h">
<polygon fill="none" stroke="black" points="800.5,-168.5 800.5,-187.5 856.5,-187.5 856.5,-168.5 800.5,-168.5"/>
<text text-anchor="middle" x="828.5" y="-175.5" font-family="Helvetica,sans-Serif" font-size="10.00">Bitmap.h</text>
</a>
</g>
</g>
<!-- Node16&#45;&gt;Node20 -->
<g id="edge26" class="edge"><title>Node16&#45;&gt;Node20</title>
<path fill="none" stroke="midnightblue" d="M684.595,-224.444C713.488,-215.32 759.425,-200.813 791.605,-190.651"/>
<polygon fill="midnightblue" stroke="midnightblue" points="793.049,-193.865 801.531,-187.516 790.941,-187.19 793.049,-193.865"/>
</g>
<!-- Node21 -->
<g id="node21" class="node"><title>Node21</title>
<g id="a_node21"><a xlink:href="_patch_8h.html" target="_top" xlink:title="Patch.h">
<polygon fill="none" stroke="black" points="570.5,-168.5 570.5,-187.5 620.5,-187.5 620.5,-168.5 570.5,-168.5"/>
<text text-anchor="middle" x="595.5" y="-175.5" font-family="Helvetica,sans-Serif" font-size="10.00">Patch.h</text>
</a>
</g>
</g>
<!-- Node16&#45;&gt;Node21 -->
<g id="edge28" class="edge"><title>Node16&#45;&gt;Node21</title>
<path fill="none" stroke="midnightblue" d="M647.539,-224.324C638.373,-216.341 624.563,-204.313 613.472,-194.653"/>
<polygon fill="midnightblue" stroke="midnightblue" points="615.482,-191.762 605.643,-187.834 610.885,-197.041 615.482,-191.762"/>
</g>
<!-- Node17&#45;&gt;Node6 -->
<g id="edge22" class="edge"><title>Node17&#45;&gt;Node6</title>
<path fill="none" stroke="midnightblue" d="M637.987,-112.324C620.428,-103.625 593.169,-90.1202 572.969,-80.113"/>
<polygon fill="midnightblue" stroke="midnightblue" points="574.484,-76.9575 563.969,-75.6545 571.376,-83.23 574.484,-76.9575"/>
</g>
<!-- Node18&#45;&gt;Node6 -->
<g id="edge25" class="edge"><title>Node18&#45;&gt;Node6</title>
<path fill="none" stroke="midnightblue" d="M723.17,-168.07C722.164,-154.12 718.172,-127.183 702.5,-112 677.108,-87.3993 639.15,-76.1025 607.035,-70.9786"/>
<polygon fill="midnightblue" stroke="midnightblue" points="607.231,-67.4711 596.837,-69.5228 606.242,-74.4009 607.231,-67.4711"/>
</g>
<!-- Node19 -->
<g id="node19" class="node"><title>Node19</title>
<polygon fill="none" stroke="#bfbfbf" points="749.5,-112.5 749.5,-131.5 821.5,-131.5 821.5,-112.5 749.5,-112.5"/>
<text text-anchor="middle" x="785.5" y="-119.5" font-family="Helvetica,sans-Serif" font-size="10.00">SDL2/SDL.h</text>
</g>
<!-- Node18&#45;&gt;Node19 -->
<g id="edge24" class="edge"><title>Node18&#45;&gt;Node19</title>
<path fill="none" stroke="midnightblue" d="M733.461,-168.324C742.627,-160.341 756.437,-148.313 767.528,-138.653"/>
<polygon fill="midnightblue" stroke="midnightblue" points="770.115,-141.041 775.357,-131.834 765.518,-135.762 770.115,-141.041"/>
</g>
<!-- Node20&#45;&gt;Node6 -->
<g id="edge27" class="edge"><title>Node20&#45;&gt;Node6</title>
<path fill="none" stroke="midnightblue" d="M832.087,-168.216C837.055,-154.465 843.991,-127.797 830.5,-112 802.323,-79.0073 681.475,-70.0718 606.793,-67.7349"/>
<polygon fill="midnightblue" stroke="midnightblue" points="606.671,-64.2301 596.576,-67.4471 606.474,-71.2274 606.671,-64.2301"/>
</g>
<!-- Node22 -->
<g id="node22" class="node"><title>Node22</title>
<g id="a_node22"><a xlink:href="_world_coordinates_8h.html" target="_top" xlink:title="../Util/WorldCoordinates.h">
<polygon fill="none" stroke="black" points="469.5,-112.5 469.5,-131.5 599.5,-131.5 599.5,-112.5 469.5,-112.5"/>
<text text-anchor="middle" x="534.5" y="-119.5" font-family="Helvetica,sans-Serif" font-size="10.00">../Util/WorldCoordinates.h</text>
</a>
</g>
</g>
<!-- Node21&#45;&gt;Node22 -->
<g id="edge29" class="edge"><title>Node21&#45;&gt;Node22</title>
<path fill="none" stroke="midnightblue" d="M585.699,-168.324C576.682,-160.341 563.094,-148.313 552.182,-138.653"/>
<polygon fill="midnightblue" stroke="midnightblue" points="554.287,-135.842 544.479,-131.834 549.647,-141.083 554.287,-135.842"/>
</g>
<!-- Node22&#45;&gt;Node6 -->
<g id="edge30" class="edge"><title>Node22&#45;&gt;Node6</title>
<path fill="none" stroke="midnightblue" d="M536.482,-112.083C538.072,-104.927 540.359,-94.6353 542.346,-85.6911"/>
<polygon fill="midnightblue" stroke="midnightblue" points="545.803,-86.2722 544.555,-75.7511 538.969,-84.7537 545.803,-86.2722"/>
</g>
<!-- Node23&#45;&gt;Node12 -->
<g id="edge32" class="edge"><title>Node23&#45;&gt;Node12</title>
<path fill="none" stroke="midnightblue" d="M445.145,-224.075C447.034,-197.945 452.581,-121.211 455.157,-85.577"/>
<polygon fill="midnightblue" stroke="midnightblue" points="458.65,-85.7945 455.881,-75.5681 451.669,-85.2897 458.65,-85.7945"/>
</g>
<!-- Node24&#45;&gt;Node22 -->
<g id="edge34" class="edge"><title>Node24&#45;&gt;Node22</title>
<path fill="none" stroke="midnightblue" d="M534.5,-224.368C534.5,-206.617 534.5,-165.666 534.5,-141.597"/>
<polygon fill="midnightblue" stroke="midnightblue" points="538,-141.591 534.5,-131.591 531,-141.591 538,-141.591"/>
</g>
</g>
</svg>
