<?xml version="1.0" encoding="UTF-8" standalone="no"?>
<!DOCTYPE svg PUBLIC "-//W3C//DTD SVG 1.1//EN"
 "http://www.w3.org/Graphics/SVG/1.1/DTD/svg11.dtd">
<!-- Generated by graphviz version 2.38.0 (20140413.2041)
 -->
<!-- Title: Emitter.h Pages: 1 -->
<svg width="472pt" height="84pt"
 viewBox="0.00 0.00 471.50 84.00" xmlns="http://www.w3.org/2000/svg" xmlns:xlink="http://www.w3.org/1999/xlink">
<g id="graph0" class="graph" transform="scale(1 1) rotate(0) translate(4 80)">
<title>Emitter.h</title>
<!-- Node1 -->
<g id="node1" class="node"><title>Node1</title>
<polygon fill="#bfbfbf" stroke="black" points="213,-56.5 213,-75.5 269,-75.5 269,-56.5 213,-56.5"/>
<text text-anchor="middle" x="241" y="-63.5" font-family="Helvetica,sans-Serif" font-size="10.00">Emitter.h</text>
</g>
<!-- Node2 -->
<g id="node2" class="node"><title>Node2</title>
<g id="a_node2"><a xlink:href="_local_profile_8cpp.html" target="_top" xlink:title="LocalProfile.cpp">
<polygon fill="none" stroke="black" points="0,-0.5 0,-19.5 86,-19.5 86,-0.5 0,-0.5"/>
<text text-anchor="middle" x="43" y="-7.5" font-family="Helvetica,sans-Serif" font-size="10.00">LocalProfile.cpp</text>
</a>
</g>
</g>
<!-- Node1&#45;&gt;Node2 -->
<g id="edge1" class="edge"><title>Node1&#45;&gt;Node2</title>
<path fill="none" stroke="midnightblue" d="M202.611,-54.5303C165.201,-44.3275 109.02,-29.0056 74.2559,-19.5243"/>
<polygon fill="midnightblue" stroke="midnightblue" points="202.063,-58.0085 212.631,-57.2631 203.905,-51.2552 202.063,-58.0085"/>
</g>
<!-- Node3 -->
<g id="node3" class="node"><title>Node3</title>
<g id="a_node3"><a xlink:href="_config_8cpp.html" target="_top" xlink:title="Config.cpp">
<polygon fill="none" stroke="black" points="104,-0.5 104,-19.5 168,-19.5 168,-0.5 104,-0.5"/>
<text text-anchor="middle" x="136" y="-7.5" font-family="Helvetica,sans-Serif" font-size="10.00">Config.cpp</text>
</a>
</g>
</g>
<!-- Node1&#45;&gt;Node3 -->
<g id="edge2" class="edge"><title>Node1&#45;&gt;Node3</title>
<path fill="none" stroke="midnightblue" d="M215.19,-51.7261C195.747,-41.7271 169.652,-28.3065 152.828,-19.6545"/>
<polygon fill="midnightblue" stroke="midnightblue" points="213.636,-54.8629 224.13,-56.324 216.838,-48.6379 213.636,-54.8629"/>
</g>
<!-- Node4 -->
<g id="node4" class="node"><title>Node4</title>
<g id="a_node4"><a xlink:href="_inspect_map_node_8cpp.html" target="_top" xlink:title="InspectMapNode.cpp">
<polygon fill="none" stroke="black" points="186,-0.5 186,-19.5 296,-19.5 296,-0.5 186,-0.5"/>
<text text-anchor="middle" x="241" y="-7.5" font-family="Helvetica,sans-Serif" font-size="10.00">InspectMapNode.cpp</text>
</a>
</g>
</g>
<!-- Node1&#45;&gt;Node4 -->
<g id="edge3" class="edge"><title>Node1&#45;&gt;Node4</title>
<path fill="none" stroke="midnightblue" d="M241,-45.8045C241,-36.9102 241,-26.7798 241,-19.7511"/>
<polygon fill="midnightblue" stroke="midnightblue" points="237.5,-46.083 241,-56.083 244.5,-46.083 237.5,-46.083"/>
</g>
<!-- Node5 -->
<g id="node5" class="node"><title>Node5</title>
<g id="a_node5"><a xlink:href="_locale_8cpp.html" target="_top" xlink:title="Locale.cpp">
<polygon fill="none" stroke="black" points="314,-0.5 314,-19.5 378,-19.5 378,-0.5 314,-0.5"/>
<text text-anchor="middle" x="346" y="-7.5" font-family="Helvetica,sans-Serif" font-size="10.00">Locale.cpp</text>
</a>
</g>
</g>
<!-- Node1&#45;&gt;Node5 -->
<g id="edge4" class="edge"><title>Node1&#45;&gt;Node5</title>
<path fill="none" stroke="midnightblue" d="M266.81,-51.7261C286.253,-41.7271 312.348,-28.3065 329.172,-19.6545"/>
<polygon fill="midnightblue" stroke="midnightblue" points="265.162,-48.6379 257.87,-56.324 268.364,-54.8629 265.162,-48.6379"/>
</g>
<!-- Node6 -->
<g id="node6" class="node"><title>Node6</title>
<g id="a_node6"><a xlink:href="_emitter_8cpp.html" target="_top" xlink:title="Emitter.cpp">
<polygon fill="none" stroke="black" points="396.5,-0.5 396.5,-19.5 463.5,-19.5 463.5,-0.5 396.5,-0.5"/>
<text text-anchor="middle" x="430" y="-7.5" font-family="Helvetica,sans-Serif" font-size="10.00">Emitter.cpp</text>
</a>
</g>
</g>
<!-- Node1&#45;&gt;Node6 -->
<g id="edge5" class="edge"><title>Node1&#45;&gt;Node6</title>
<path fill="none" stroke="midnightblue" d="M279.318,-54.0519C314.933,-43.8762 367.263,-28.925 399.947,-19.5865"/>
<polygon fill="midnightblue" stroke="midnightblue" points="277.949,-50.803 269.295,-56.9157 279.872,-57.5337 277.949,-50.803"/>
</g>
</g>
</svg>
