<?xml version="1.0" encoding="UTF-8" standalone="no"?>
<!DOCTYPE svg PUBLIC "-//W3C//DTD SVG 1.1//EN"
 "http://www.w3.org/Graphics/SVG/1.1/DTD/svg11.dtd">
<!-- Generated by graphviz version 2.26.3 (20100126.1600)
 -->
<!-- Title: Env.h Pages: 1 -->
<svg width="532pt" height="146pt"
 viewBox="0.00 0.00 532.00 146.00" xmlns="http://www.w3.org/2000/svg" xmlns:xlink="http://www.w3.org/1999/xlink">
<g id="graph1" class="graph" transform="scale(1 1) rotate(0) translate(4 142)">
<title>Env.h</title>
<!-- Node1 -->
<g id="node1" class="node"><title>Node1</title>
<polygon fill="#bfbfbf" stroke="black" points="255.5,-117 255.5,-137 296.5,-137 296.5,-117 255.5,-117"/>
<text text-anchor="middle" x="276" y="-124" font-family="FreeSans" font-size="10.00">Env.h</text>
</g>
<!-- Node2 -->
<g id="node3" class="node"><title>Node2</title>
<a xlink:href="_o_s_8h.html" target="_top" xlink:title="../Util/OS.h">
<polygon fill="none" stroke="black" points="126,-59 126,-79 190,-79 190,-59 126,-59"/>
<text text-anchor="middle" x="158" y="-66" font-family="FreeSans" font-size="10.00">../Util/OS.h</text>
</a>
</g>
<!-- Node1&#45;&gt;Node2 -->
<g id="edge2" class="edge"><title>Node1&#45;&gt;Node2</title>
<path fill="none" stroke="midnightblue" d="M255.446,-116.897C236.779,-107.722 209.017,-94.0762 187.895,-83.6943"/>
<polygon fill="midnightblue" stroke="midnightblue" points="189.233,-80.4518 178.714,-79.1817 186.145,-86.734 189.233,-80.4518"/>
</g>
<!-- Node8 -->
<g id="node15" class="node"><title>Node8</title>
<a xlink:href="_core_8h.html" target="_top" xlink:title="Core.h">
<polygon fill="none" stroke="black" points="369,-59 369,-79 413,-79 413,-59 369,-59"/>
<text text-anchor="middle" x="391" y="-66" font-family="FreeSans" font-size="10.00">Core.h</text>
</a>
</g>
<!-- Node1&#45;&gt;Node8 -->
<g id="edge14" class="edge"><title>Node1&#45;&gt;Node8</title>
<path fill="none" stroke="midnightblue" d="M296.031,-116.897C314.224,-107.722 341.28,-94.0762 361.865,-83.6943"/>
<polygon fill="midnightblue" stroke="midnightblue" points="363.46,-86.8099 370.812,-79.1817 360.307,-80.5598 363.46,-86.8099"/>
</g>
<!-- Node3 -->
<g id="node5" class="node"><title>Node3</title>
<polygon fill="none" stroke="#bfbfbf" points="0,-1 0,-21 42,-21 42,-1 0,-1"/>
<text text-anchor="middle" x="21" y="-8" font-family="FreeSans" font-size="10.00">locale</text>
</g>
<!-- Node2&#45;&gt;Node3 -->
<g id="edge4" class="edge"><title>Node2&#45;&gt;Node3</title>
<path fill="none" stroke="midnightblue" d="M134.136,-58.8972C111.261,-49.2127 76.6222,-34.5481 51.7009,-23.9975"/>
<polygon fill="midnightblue" stroke="midnightblue" points="52.9137,-20.7102 42.3404,-20.0346 50.1847,-27.1564 52.9137,-20.7102"/>
</g>
<!-- Node4 -->
<g id="node7" class="node"><title>Node4</title>
<polygon fill="none" stroke="#bfbfbf" points="60,-1 60,-21 90,-21 90,-1 60,-1"/>
<text text-anchor="middle" x="75" y="-8" font-family="FreeSans" font-size="10.00">set</text>
</g>
<!-- Node2&#45;&gt;Node4 -->
<g id="edge6" class="edge"><title>Node2&#45;&gt;Node4</title>
<path fill="none" stroke="midnightblue" d="M143.543,-58.8972C131.004,-50.1351 112.631,-37.2965 98.0632,-27.1164"/>
<polygon fill="midnightblue" stroke="midnightblue" points="99.7721,-24.0408 89.5703,-21.1817 95.7625,-29.7786 99.7721,-24.0408"/>
</g>
<!-- Node5 -->
<g id="node9" class="node"><title>Node5</title>
<polygon fill="none" stroke="#bfbfbf" points="107.5,-1 107.5,-21 148.5,-21 148.5,-1 107.5,-1"/>
<text text-anchor="middle" x="128" y="-8" font-family="FreeSans" font-size="10.00">string</text>
</g>
<!-- Node2&#45;&gt;Node5 -->
<g id="edge8" class="edge"><title>Node2&#45;&gt;Node5</title>
<path fill="none" stroke="midnightblue" d="M152.774,-58.8972C148.738,-51.0926 143.028,-40.0536 138.107,-30.5401"/>
<polygon fill="midnightblue" stroke="midnightblue" points="141.071,-28.6518 133.368,-21.3776 134.853,-31.8678 141.071,-28.6518"/>
</g>
<!-- Node6 -->
<g id="node11" class="node"><title>Node6</title>
<polygon fill="none" stroke="#bfbfbf" points="166,-1 166,-21 210,-21 210,-1 166,-1"/>
<text text-anchor="middle" x="188" y="-8" font-family="FreeSans" font-size="10.00">vector</text>
</g>
<!-- Node2&#45;&gt;Node6 -->
<g id="edge10" class="edge"><title>Node2&#45;&gt;Node6</title>
<path fill="none" stroke="midnightblue" d="M163.226,-58.8972C167.262,-51.0926 172.972,-40.0536 177.893,-30.5401"/>
<polygon fill="midnightblue" stroke="midnightblue" points="181.147,-31.8678 182.632,-21.3776 174.929,-28.6518 181.147,-31.8678"/>
</g>
<!-- Node7 -->
<g id="node13" class="node"><title>Node7</title>
<polygon fill="none" stroke="#bfbfbf" points="227.5,-1 227.5,-21 332.5,-21 332.5,-1 227.5,-1"/>
<text text-anchor="middle" x="280" y="-8" font-family="FreeSans" font-size="10.00">boost/filesystem.hpp</text>
</g>
<!-- Node2&#45;&gt;Node7 -->
<g id="edge12" class="edge"><title>Node2&#45;&gt;Node7</title>
<path fill="none" stroke="midnightblue" d="M179.251,-58.8972C198.638,-49.6805 227.512,-35.9532 249.386,-25.5542"/>
<polygon fill="midnightblue" stroke="midnightblue" points="251.055,-28.6363 258.583,-21.1817 248.049,-22.3143 251.055,-28.6363"/>
</g>
<!-- Node9 -->
<g id="node17" class="node"><title>Node9</title>
<polygon fill="none" stroke="#bfbfbf" points="349.5,-1 349.5,-21 378.5,-21 378.5,-1 349.5,-1"/>
<text text-anchor="middle" x="364" y="-8" font-family="FreeSans" font-size="10.00">list</text>
</g>
<!-- Node8&#45;&gt;Node9 -->
<g id="edge16" class="edge"><title>Node8&#45;&gt;Node9</title>
<path fill="none" stroke="midnightblue" d="M386.297,-58.8972C382.664,-51.0926 377.525,-40.0536 373.096,-30.5401"/>
<polygon fill="midnightblue" stroke="midnightblue" points="376.224,-28.9663 368.831,-21.3776 369.878,-31.9206 376.224,-28.9663"/>
</g>
<!-- Node10 -->
<g id="node19" class="node"><title>Node10</title>
<polygon fill="none" stroke="#bfbfbf" points="395.5,-1 395.5,-21 442.5,-21 442.5,-1 395.5,-1"/>
<text text-anchor="middle" x="419" y="-8" font-family="FreeSans" font-size="10.00">lua.hpp</text>
</g>
<!-- Node8&#45;&gt;Node10 -->
<g id="edge18" class="edge"><title>Node8&#45;&gt;Node10</title>
<path fill="none" stroke="midnightblue" d="M395.877,-58.8972C399.645,-51.0926 404.974,-40.0536 409.567,-30.5401"/>
<polygon fill="midnightblue" stroke="midnightblue" points="412.795,-31.9048 413.99,-21.3776 406.491,-28.8615 412.795,-31.9048"/>
</g>
<!-- Node11 -->
<g id="node21" class="node"><title>Node11</title>
<a xlink:href="_script_exn_8h.html" target="_top" xlink:title="ScriptExn.h">
<polygon fill="none" stroke="black" points="459.5,-1 459.5,-21 524.5,-21 524.5,-1 459.5,-1"/>
<text text-anchor="middle" x="492" y="-8" font-family="FreeSans" font-size="10.00">ScriptExn.h</text>
</a>
</g>
<!-- Node8&#45;&gt;Node11 -->
<g id="edge20" class="edge"><title>Node8&#45;&gt;Node11</title>
<path fill="none" stroke="midnightblue" d="M408.593,-58.8972C424.283,-49.8871 447.479,-36.5665 465.429,-26.2586"/>
<polygon fill="midnightblue" stroke="midnightblue" points="467.341,-29.1967 474.27,-21.1817 463.855,-23.1264 467.341,-29.1967"/>
</g>
</g>
</svg>
