<?xml version="1.0" encoding="UTF-8" standalone="no"?>
<!DOCTYPE svg PUBLIC "-//W3C//DTD SVG 1.1//EN"
 "http://www.w3.org/Graphics/SVG/1.1/DTD/svg11.dtd">
<!-- Generated by graphviz version 2.26.3 (20100126.1600)
 -->
<!-- Title: FillBox.h Pages: 1 -->
<!--zoomable 146 -->
<svg id="main" version="1.1" xmlns="http://www.w3.org/2000/svg" xmlns:xlink="http://www.w3.org/1999/xlink" xml:space="preserve" onload="init(evt)">
<style type="text/css"><![CDATA[
.edge:hover path { stroke: red; }
.edge:hover polygon { stroke: red; fill: red; }
]]></style>
<script type="text/javascript"><![CDATA[
var edges = document.getElementsByTagName('g');
if (edges && edges.length) {
  for (var i=0;i<edges.length;i++) {
    if (edges[i].id.substr(0,4)=='edge') {
      edges[i].setAttribute('class','edge');
    }
  }
}
]]></script>
        <defs>
                <circle id="rim" cx="0" cy="0" r="7"/>
                <circle id="rim2" cx="0" cy="0" r="3.5"/>
                <g id="zoomPlus">
                        <use xlink:href="#rim" fill="#404040">
                                <set attributeName="fill" to="#808080" begin="zoomplus.mouseover" end="zoomplus.mouseout"/>
                        </use>
                        <path d="M-4,0h8M0,-4v8" fill="none" stroke="white" stroke-width="1.5" pointer-events="none"/>
                </g>
                <g id="zoomMin">
                        <use xlink:href="#rim" fill="#404040">
                                <set attributeName="fill" to="#808080" begin="zoomminus.mouseover" end="zoomminus.mouseout"/>
                        </use>
                        <path d="M-4,0h8" fill="none" stroke="white" stroke-width="1.5" pointer-events="none"/>
                </g>
                <g id="dirArrow">
                        <path fill="none" stroke="white" stroke-width="1.5" d="M0,-3.0v7 M-2.5,-0.5L0,-3.0L2.5,-0.5"/>
                </g>
               <g id="resetDef">
                       <use xlink:href="#rim2" fill="#404040">
                               <set attributeName="fill" to="#808080" begin="reset.mouseover" end="reset.mouseout"/>
                       </use>
               </g>
        </defs>

<script type="text/javascript">
var viewWidth = 2327;
var viewHeight = 146;
var sectionId = 'dynsection-1';
</script>
<script xlink:href="svgpan.js"/>
<svg id="graph" class="graph">
<g id="viewport">
<title>FillBox.h</title>
<!-- Node1 -->
<g id="node1" class="node"><title>Node1</title>
<polygon fill="#bfbfbf" stroke="black" points="1407.5,-117 1407.5,-137 1460.5,-137 1460.5,-117 1407.5,-117"/>
<text text-anchor="middle" x="1434" y="-124" font-family="FreeSans" font-size="10.00">FillBox.h</text>
</g>
<!-- Node2 -->
<g id="node3" class="node"><title>Node2</title>
<a xlink:href="_bulletin_board_8cpp.html" target="_top" xlink:title="BulletinBoard.cpp">
<polygon fill="none" stroke="black" points="498,-59 498,-79 590,-79 590,-59 498,-59"/>
<text text-anchor="middle" x="544" y="-66" font-family="FreeSans" font-size="10.00">BulletinBoard.cpp</text>
</a>
</g>
<!-- Node1&#45;&gt;Node2 -->
<g id="edge2" class="edge"><title>Node1&#45;&gt;Node2</title>
<path fill="none" stroke="midnightblue" d="M1397.21,-126.551C1280.63,-124.78 909.039,-116.454 604,-80 599.478,-79.4596 594.783,-78.7904 590.1,-78.051"/>
<polygon fill="midnightblue" stroke="midnightblue" points="1397.33,-130.053 1407.38,-126.699 1397.43,-123.054 1397.33,-130.053"/>
</g>
<!-- Node3 -->
<g id="node5" class="node"><title>Node3</title>
<a xlink:href="_main_menu_scene_8cpp.html" target="_top" xlink:title="MainMenuScene.cpp">
<polygon fill="none" stroke="black" points="-0.5,-1 -0.5,-21 106.5,-21 106.5,-1 -0.5,-1"/>
<text text-anchor="middle" x="53" y="-8" font-family="FreeSans" font-size="10.00">MainMenuScene.cpp</text>
</a>
</g>
<!-- Node1&#45;&gt;Node3 -->
<g id="edge4" class="edge"><title>Node1&#45;&gt;Node3</title>
<path fill="none" stroke="midnightblue" d="M1397.16,-125.976C1249.53,-121.716 705.059,-104.476 632,-80 615.286,-74.4004 615.67,-63.7307 599,-58 395.012,12.1269 329.025,-48.8754 115,-22 112.288,-21.6595 109.515,-21.2806 106.718,-20.874"/>
<polygon fill="midnightblue" stroke="midnightblue" points="1397.39,-129.484 1407.49,-126.271 1397.59,-122.486 1397.39,-129.484"/>
</g>
<!-- Node4 -->
<g id="node7" class="node"><title>Node4</title>
<a xlink:href="_symbol_icon_8h.html" target="_top" xlink:title="SymbolIcon.h">
<polygon fill="none" stroke="black" points="683.5,-59 683.5,-79 758.5,-79 758.5,-59 683.5,-59"/>
<text text-anchor="middle" x="721" y="-66" font-family="FreeSans" font-size="10.00">SymbolIcon.h</text>
</a>
</g>
<!-- Node1&#45;&gt;Node4 -->
<g id="edge6" class="edge"><title>Node1&#45;&gt;Node4</title>
<path fill="none" stroke="midnightblue" d="M1397.38,-124.021C1275.29,-114.089 882.898,-82.1698 758.918,-72.0845"/>
<polygon fill="midnightblue" stroke="midnightblue" points="1397.1,-127.51 1407.35,-124.832 1397.67,-120.533 1397.1,-127.51"/>
</g>
<!-- Node6 -->
<g id="node12" class="node"><title>Node6</title>
<a xlink:href="_test_lab_scene_8cpp.html" target="_top" xlink:title="TestLabScene.cpp">
<polygon fill="none" stroke="black" points="124,-1 124,-21 222,-21 222,-1 124,-1"/>
<text text-anchor="middle" x="173" y="-8" font-family="FreeSans" font-size="10.00">TestLabScene.cpp</text>
</a>
</g>
<!-- Node1&#45;&gt;Node6 -->
<g id="edge28" class="edge"><title>Node1&#45;&gt;Node6</title>
<path fill="none" stroke="midnightblue" d="M1397.25,-126.707C1264.97,-125.343 813.542,-117.951 675,-80 654.296,-74.3283 652.624,-63.9578 632,-58 460.09,-8.33925 408.226,-46.7008 231,-22 228.158,-21.6039 225.243,-21.1628 222.307,-20.6914"/>
<polygon fill="midnightblue" stroke="midnightblue" points="1397.25,-130.207 1407.29,-126.805 1397.32,-123.207 1397.25,-130.207"/>
</g>
<!-- Node12 -->
<g id="node24" class="node"><title>Node12</title>
<a xlink:href="_sdl_display_8cpp.html" target="_top" xlink:title="SdlDisplay.cpp">
<polygon fill="none" stroke="black" points="1034,-1 1034,-21 1114,-21 1114,-1 1034,-1"/>
<text text-anchor="middle" x="1074" y="-8" font-family="FreeSans" font-size="10.00">SdlDisplay.cpp</text>
</a>
</g>
<!-- Node1&#45;&gt;Node12 -->
<g id="edge60" class="edge"><title>Node1&#45;&gt;Node12</title>
<path fill="none" stroke="midnightblue" d="M1397.41,-125.491C1302.2,-121.192 1052.4,-107.384 1028,-80 1011.05,-60.9729 1039.53,-35.2718 1058.72,-21.2213"/>
<polygon fill="midnightblue" stroke="midnightblue" points="1397.3,-128.99 1407.45,-125.935 1397.61,-121.997 1397.3,-128.99"/>
</g>
<!-- Node14 -->
<g id="node29" class="node"><title>Node14</title>
<a xlink:href="_track_select_scene_8cpp.html" target="_top" xlink:title="TrackSelectScene.cpp">
<polygon fill="none" stroke="black" points="1128.5,-59 1128.5,-79 1243.5,-79 1243.5,-59 1128.5,-59"/>
<text text-anchor="middle" x="1186" y="-66" font-family="FreeSans" font-size="10.00">TrackSelectScene.cpp</text>
</a>
</g>
<!-- Node1&#45;&gt;Node14 -->
<g id="edge30" class="edge"><title>Node1&#45;&gt;Node14</title>
<path fill="none" stroke="midnightblue" d="M1397.57,-118.48C1352.69,-107.984 1276.56,-90.1787 1228.9,-79.0325"/>
<polygon fill="midnightblue" stroke="midnightblue" points="1396.93,-121.924 1407.46,-120.793 1398.52,-115.108 1396.93,-121.924"/>
</g>
<!-- Node15 -->
<g id="node31" class="node"><title>Node15</title>
<a xlink:href="_keycap_icon_8h.html" target="_top" xlink:title="KeycapIcon.h">
<polygon fill="none" stroke="black" points="1036.5,-59 1036.5,-79 1111.5,-79 1111.5,-59 1036.5,-59"/>
<text text-anchor="middle" x="1074" y="-66" font-family="FreeSans" font-size="10.00">KeycapIcon.h</text>
</a>
</g>
<!-- Node1&#45;&gt;Node15 -->
<g id="edge32" class="edge"><title>Node1&#45;&gt;Node15</title>
<path fill="none" stroke="midnightblue" d="M1397.13,-122.528C1338.28,-115.155 1219.59,-99.3237 1120,-80 1117.26,-79.4682 1114.44,-78.8837 1111.6,-78.2697"/>
<polygon fill="midnightblue" stroke="midnightblue" points="1397.05,-126.045 1407.4,-123.805 1397.91,-119.098 1397.05,-126.045"/>
</g>
<!-- Node19 -->
<g id="node40" class="node"><title>Node19</title>
<a xlink:href="_button_8cpp.html" target="_top" xlink:title="Button.cpp">
<polygon fill="none" stroke="black" points="1260.5,-59 1260.5,-79 1323.5,-79 1323.5,-59 1260.5,-59"/>
<text text-anchor="middle" x="1292" y="-66" font-family="FreeSans" font-size="10.00">Button.cpp</text>
</a>
</g>
<!-- Node1&#45;&gt;Node19 -->
<g id="edge42" class="edge"><title>Node1&#45;&gt;Node19</title>
<path fill="none" stroke="midnightblue" d="M1399.94,-113.09C1374.38,-102.649 1339.96,-88.5898 1316.93,-79.1817"/>
<polygon fill="midnightblue" stroke="midnightblue" points="1398.68,-116.356 1409.27,-116.897 1401.33,-109.876 1398.68,-116.356"/>
</g>
<!-- Node20 -->
<g id="node42" class="node"><title>Node20</title>
<a xlink:href="_chronometer_8cpp.html" target="_top" xlink:title="Chronometer.cpp">
<polygon fill="none" stroke="black" points="1341,-59 1341,-79 1431,-79 1431,-59 1341,-59"/>
<text text-anchor="middle" x="1386" y="-66" font-family="FreeSans" font-size="10.00">Chronometer.cpp</text>
</a>
</g>
<!-- Node1&#45;&gt;Node20 -->
<g id="edge44" class="edge"><title>Node1&#45;&gt;Node20</title>
<path fill="none" stroke="midnightblue" d="M1419.09,-108.981C1411.04,-99.2522 1401.38,-87.5889 1394.59,-79.3776"/>
<polygon fill="midnightblue" stroke="midnightblue" points="1416.57,-111.425 1425.64,-116.897 1421.96,-106.962 1416.57,-111.425"/>
</g>
<!-- Node21 -->
<g id="node44" class="node"><title>Node21</title>
<a xlink:href="_counter_8cpp.html" target="_top" xlink:title="Counter.cpp">
<polygon fill="none" stroke="black" points="1449,-59 1449,-79 1517,-79 1517,-59 1449,-59"/>
<text text-anchor="middle" x="1483" y="-66" font-family="FreeSans" font-size="10.00">Counter.cpp</text>
</a>
</g>
<!-- Node1&#45;&gt;Node21 -->
<g id="edge46" class="edge"><title>Node1&#45;&gt;Node21</title>
<path fill="none" stroke="midnightblue" d="M1449.22,-108.981C1457.44,-99.2522 1467.3,-87.5889 1474.23,-79.3776"/>
<polygon fill="midnightblue" stroke="midnightblue" points="1446.32,-107 1442.54,-116.897 1451.66,-111.517 1446.32,-107"/>
</g>
<!-- Node22 -->
<g id="node46" class="node"><title>Node22</title>
<a xlink:href="_fill_box_8cpp.html" target="_top" xlink:title="FillBox.cpp">
<polygon fill="none" stroke="black" points="1535,-59 1535,-79 1599,-79 1599,-59 1535,-59"/>
<text text-anchor="middle" x="1567" y="-66" font-family="FreeSans" font-size="10.00">FillBox.cpp</text>
</a>
</g>
<!-- Node1&#45;&gt;Node22 -->
<g id="edge48" class="edge"><title>Node1&#45;&gt;Node22</title>
<path fill="none" stroke="midnightblue" d="M1466.53,-112.813C1490.41,-102.401 1522.27,-88.5069 1543.65,-79.1817"/>
<polygon fill="midnightblue" stroke="midnightblue" points="1464.93,-109.692 1457.17,-116.897 1467.73,-116.108 1464.93,-109.692"/>
</g>
<!-- Node23 -->
<g id="node48" class="node"><title>Node23</title>
<a xlink:href="_fuel_gauge_8cpp.html" target="_top" xlink:title="FuelGauge.cpp">
<polygon fill="none" stroke="black" points="1617,-59 1617,-79 1699,-79 1699,-59 1617,-59"/>
<text text-anchor="middle" x="1658" y="-66" font-family="FreeSans" font-size="10.00">FuelGauge.cpp</text>
</a>
</g>
<!-- Node1&#45;&gt;Node23 -->
<g id="edge50" class="edge"><title>Node1&#45;&gt;Node23</title>
<path fill="none" stroke="midnightblue" d="M1470.39,-117.579C1511.22,-107.005 1577.22,-89.9163 1619.07,-79.0806"/>
<polygon fill="midnightblue" stroke="midnightblue" points="1469.38,-114.224 1460.58,-120.119 1471.13,-121 1469.38,-114.224"/>
</g>
<!-- Node24 -->
<g id="node50" class="node"><title>Node24</title>
<a xlink:href="_hud_text_8cpp.html" target="_top" xlink:title="HudText.cpp">
<polygon fill="none" stroke="black" points="1716.5,-59 1716.5,-79 1787.5,-79 1787.5,-59 1716.5,-59"/>
<text text-anchor="middle" x="1752" y="-66" font-family="FreeSans" font-size="10.00">HudText.cpp</text>
</a>
</g>
<!-- Node1&#45;&gt;Node24 -->
<g id="edge52" class="edge"><title>Node1&#45;&gt;Node24</title>
<path fill="none" stroke="midnightblue" d="M1470.78,-121.589C1523.53,-113.627 1623.61,-97.7613 1708,-80 1710.62,-79.4487 1713.32,-78.8497 1716.03,-78.2256"/>
<polygon fill="midnightblue" stroke="midnightblue" points="1469.95,-118.176 1460.58,-123.12 1470.98,-125.098 1469.95,-118.176"/>
</g>
<!-- Node25 -->
<g id="node52" class="node"><title>Node25</title>
<a xlink:href="_slider_8cpp.html" target="_top" xlink:title="Slider.cpp">
<polygon fill="none" stroke="black" points="1804.5,-59 1804.5,-79 1863.5,-79 1863.5,-59 1804.5,-59"/>
<text text-anchor="middle" x="1834" y="-66" font-family="FreeSans" font-size="10.00">Slider.cpp</text>
</a>
</g>
<!-- Node1&#45;&gt;Node25 -->
<g id="edge54" class="edge"><title>Node1&#45;&gt;Node25</title>
<path fill="none" stroke="midnightblue" d="M1470.84,-124.089C1536.63,-118.475 1678.46,-104.493 1796,-80 1798.69,-79.4396 1801.47,-78.7857 1804.24,-78.0813"/>
<polygon fill="midnightblue" stroke="midnightblue" points="1470.25,-120.626 1460.58,-124.949 1470.83,-127.601 1470.25,-120.626"/>
</g>
<!-- Node26 -->
<g id="node54" class="node"><title>Node26</title>
<a xlink:href="_speedometer_8cpp.html" target="_top" xlink:title="Speedometer.cpp">
<polygon fill="none" stroke="black" points="1881,-59 1881,-79 1973,-79 1973,-59 1881,-59"/>
<text text-anchor="middle" x="1927" y="-66" font-family="FreeSans" font-size="10.00">Speedometer.cpp</text>
</a>
</g>
<!-- Node1&#45;&gt;Node26 -->
<g id="edge56" class="edge"><title>Node1&#45;&gt;Node26</title>
<path fill="none" stroke="midnightblue" d="M1471.19,-124.152C1546.91,-118.103 1724.29,-102.648 1872,-80 1874.89,-79.5572 1877.85,-79.0672 1880.84,-78.547"/>
<polygon fill="midnightblue" stroke="midnightblue" points="1470.47,-120.699 1460.77,-124.976 1471.02,-127.677 1470.47,-120.699"/>
</g>
<!-- Node27 -->
<g id="node56" class="node"><title>Node27</title>
<a xlink:href="_sdl_button_view_8cpp.html" target="_top" xlink:title="SdlButtonView.cpp">
<polygon fill="none" stroke="black" points="1990.5,-59 1990.5,-79 2089.5,-79 2089.5,-59 1990.5,-59"/>
<text text-anchor="middle" x="2040" y="-66" font-family="FreeSans" font-size="10.00">SdlButtonView.cpp</text>
</a>
</g>
<!-- Node1&#45;&gt;Node27 -->
<g id="edge58" class="edge"><title>Node1&#45;&gt;Node27</title>
<path fill="none" stroke="midnightblue" d="M1470.67,-125.148C1559,-120.408 1790.42,-106.313 1982,-80 1984.74,-79.6235 1987.55,-79.204 1990.38,-78.7548"/>
<polygon fill="midnightblue" stroke="midnightblue" points="1470.43,-121.657 1460.62,-125.68 1470.8,-128.647 1470.43,-121.657"/>
</g>
<!-- Node28 -->
<g id="node59" class="node"><title>Node28</title>
<a xlink:href="_sdl_fill_box_view_8cpp.html" target="_top" xlink:title="SdlFillBoxView.cpp">
<polygon fill="none" stroke="black" points="2107,-59 2107,-79 2207,-79 2207,-59 2107,-59"/>
<text text-anchor="middle" x="2157" y="-66" font-family="FreeSans" font-size="10.00">SdlFillBoxView.cpp</text>
</a>
</g>
<!-- Node1&#45;&gt;Node28 -->
<g id="edge62" class="edge"><title>Node1&#45;&gt;Node28</title>
<path fill="none" stroke="midnightblue" d="M1470.94,-125.859C1571.8,-122.425 1860.21,-110.482 2098,-80 2100.89,-79.629 2103.86,-79.2076 2106.85,-78.7513"/>
<polygon fill="midnightblue" stroke="midnightblue" points="1470.55,-122.369 1460.68,-126.201 1470.79,-129.366 1470.55,-122.369"/>
</g>
<!-- Node29 -->
<g id="node61" class="node"><title>Node29</title>
<a xlink:href="_sdl_slider_view_8cpp.html" target="_top" xlink:title="SdlSliderView.cpp">
<polygon fill="none" stroke="black" points="2224.5,-59 2224.5,-79 2319.5,-79 2319.5,-59 2224.5,-59"/>
<text text-anchor="middle" x="2272" y="-66" font-family="FreeSans" font-size="10.00">SdlSliderView.cpp</text>
</a>
</g>
<!-- Node1&#45;&gt;Node29 -->
<g id="edge64" class="edge"><title>Node1&#45;&gt;Node29</title>
<path fill="none" stroke="midnightblue" d="M1470.92,-126.534C1583.27,-124.741 1930.75,-116.421 2216,-80 2218.75,-79.6486 2221.57,-79.2425 2224.41,-78.7979"/>
<polygon fill="midnightblue" stroke="midnightblue" points="1470.74,-123.036 1460.79,-126.688 1470.84,-130.036 1470.74,-123.036"/>
</g>
<!-- Node4&#45;&gt;Node3 -->
<g id="edge8" class="edge"><title>Node4&#45;&gt;Node3</title>
<path fill="none" stroke="midnightblue" d="M673.412,-62.6415C660.033,-60.9836 645.461,-59.2995 632,-58 402.732,-35.8655 343.607,-50.1583 115,-22 112.288,-21.6659 109.514,-21.2921 106.716,-20.8897"/>
<polygon fill="midnightblue" stroke="midnightblue" points="673.014,-66.1189 683.373,-63.8975 673.89,-59.1739 673.014,-66.1189"/>
</g>
<!-- Node5 -->
<g id="node10" class="node"><title>Node5</title>
<a xlink:href="_message_announcement_8cpp.html" target="_top" xlink:title="MessageAnnouncement.cpp">
<polygon fill="none" stroke="black" points="588,-1 588,-21 728,-21 728,-1 588,-1"/>
<text text-anchor="middle" x="658" y="-8" font-family="FreeSans" font-size="10.00">MessageAnnouncement.cpp</text>
</a>
</g>
<!-- Node4&#45;&gt;Node5 -->
<g id="edge10" class="edge"><title>Node4&#45;&gt;Node5</title>
<path fill="none" stroke="midnightblue" d="M702.382,-51.86C691.631,-41.9622 678.462,-29.8377 669.272,-21.3776"/>
<polygon fill="midnightblue" stroke="midnightblue" points="700.299,-54.699 710.026,-58.8972 705.04,-49.5491 700.299,-54.699"/>
</g>
<!-- Node4&#45;&gt;Node6 -->
<g id="edge12" class="edge"><title>Node4&#45;&gt;Node6</title>
<path fill="none" stroke="midnightblue" d="M673.256,-58.5045C672.162,-58.3279 671.075,-58.1593 670,-58 476.349,-29.3014 424.995,-48.2755 231,-22 228.156,-21.6148 225.241,-21.1823 222.303,-20.7174"/>
<polygon fill="midnightblue" stroke="midnightblue" points="672.766,-61.9722 683.224,-60.2774 673.991,-55.0803 672.766,-61.9722"/>
</g>
<!-- Node7 -->
<g id="node14" class="node"><title>Node7</title>
<a xlink:href="_checkbox_8cpp.html" target="_top" xlink:title="Checkbox.cpp">
<polygon fill="none" stroke="black" points="745.5,-1 745.5,-21 822.5,-21 822.5,-1 745.5,-1"/>
<text text-anchor="middle" x="784" y="-8" font-family="FreeSans" font-size="10.00">Checkbox.cpp</text>
</a>
</g>
<!-- Node4&#45;&gt;Node7 -->
<g id="edge14" class="edge"><title>Node4&#45;&gt;Node7</title>
<path fill="none" stroke="midnightblue" d="M739.618,-51.86C750.369,-41.9622 763.538,-29.8377 772.728,-21.3776"/>
<polygon fill="midnightblue" stroke="midnightblue" points="736.96,-49.5491 731.974,-58.8972 741.701,-54.699 736.96,-49.5491"/>
</g>
<!-- Node8 -->
<g id="node16" class="node"><title>Node8</title>
<a xlink:href="_minimap_8cpp.html" target="_top" xlink:title="Minimap.cpp">
<polygon fill="none" stroke="black" points="839.5,-1 839.5,-21 910.5,-21 910.5,-1 839.5,-1"/>
<text text-anchor="middle" x="875" y="-8" font-family="FreeSans" font-size="10.00">Minimap.cpp</text>
</a>
</g>
<!-- Node4&#45;&gt;Node8 -->
<g id="edge16" class="edge"><title>Node4&#45;&gt;Node8</title>
<path fill="none" stroke="midnightblue" d="M757.234,-55.3536C785.121,-44.8504 823.034,-30.5716 848.225,-21.0842"/>
<polygon fill="midnightblue" stroke="midnightblue" points="755.949,-52.0972 747.825,-58.8972 758.417,-58.648 755.949,-52.0972"/>
</g>
<!-- Node9 -->
<g id="node18" class="node"><title>Node9</title>
<a xlink:href="_radio_button_8cpp.html" target="_top" xlink:title="RadioButton.cpp">
<polygon fill="none" stroke="black" points="928,-1 928,-21 1016,-21 1016,-1 928,-1"/>
<text text-anchor="middle" x="972" y="-8" font-family="FreeSans" font-size="10.00">RadioButton.cpp</text>
</a>
</g>
<!-- Node4&#45;&gt;Node9 -->
<g id="edge18" class="edge"><title>Node4&#45;&gt;Node9</title>
<path fill="none" stroke="midnightblue" d="M768.333,-58.0626C814.454,-47.4049 883.98,-31.3394 928.681,-21.01"/>
<polygon fill="midnightblue" stroke="midnightblue" points="767.532,-54.6552 758.577,-60.3168 769.109,-61.4754 767.532,-54.6552"/>
</g>
<!-- Node10 -->
<g id="node20" class="node"><title>Node10</title>
<a xlink:href="_state_button_8cpp.html" target="_top" xlink:title="StateButton.cpp">
<polygon fill="none" stroke="black" points="240,-1 240,-21 326,-21 326,-1 240,-1"/>
<text text-anchor="middle" x="283" y="-8" font-family="FreeSans" font-size="10.00">StateButton.cpp</text>
</a>
</g>
<!-- Node4&#45;&gt;Node10 -->
<g id="edge20" class="edge"><title>Node4&#45;&gt;Node10</title>
<path fill="none" stroke="midnightblue" d="M673.319,-58.5532C672.203,-58.3613 671.095,-58.1765 670,-58 522.16,-34.1809 482.887,-45.5259 335,-22 332.084,-21.5361 329.084,-21.0163 326.068,-20.4618"/>
<polygon fill="midnightblue" stroke="midnightblue" points="673.014,-62.0564 683.485,-60.4395 674.291,-55.1738 673.014,-62.0564"/>
</g>
<!-- Node11 -->
<g id="node22" class="node"><title>Node11</title>
<a xlink:href="_symbol_icon_8cpp.html" target="_top" xlink:title="SymbolIcon.cpp">
<polygon fill="none" stroke="black" points="344,-1 344,-21 430,-21 430,-1 344,-1"/>
<text text-anchor="middle" x="387" y="-8" font-family="FreeSans" font-size="10.00">SymbolIcon.cpp</text>
</a>
</g>
<!-- Node4&#45;&gt;Node11 -->
<g id="edge22" class="edge"><title>Node4&#45;&gt;Node11</title>
<path fill="none" stroke="midnightblue" d="M673.306,-58.6239C672.194,-58.4108 671.091,-58.2025 670,-58 567.839,-39.0384 541.199,-40.7589 439,-22 436.096,-21.4669 433.105,-20.8952 430.095,-20.3029"/>
<polygon fill="midnightblue" stroke="midnightblue" points="672.959,-62.1233 683.45,-60.6434 674.325,-55.258 672.959,-62.1233"/>
</g>
<!-- Node4&#45;&gt;Node12 -->
<g id="edge24" class="edge"><title>Node4&#45;&gt;Node12</title>
<path fill="none" stroke="midnightblue" d="M768.511,-62.6657C828.483,-54.4383 934.722,-39.0918 1025,-22 1027.91,-21.4486 1030.92,-20.8496 1033.93,-20.2254"/>
<polygon fill="midnightblue" stroke="midnightblue" points="768.015,-59.201 758.58,-64.0211 768.961,-66.1367 768.015,-59.201"/>
</g>
<!-- Node13 -->
<g id="node26" class="node"><title>Node13</title>
<a xlink:href="_sdl_symbol_icon_view_8cpp.html" target="_top" xlink:title="SdlSymbolIconView.cpp">
<polygon fill="none" stroke="black" points="448,-1 448,-21 570,-21 570,-1 448,-1"/>
<text text-anchor="middle" x="509" y="-8" font-family="FreeSans" font-size="10.00">SdlSymbolIconView.cpp</text>
</a>
</g>
<!-- Node4&#45;&gt;Node13 -->
<g id="edge26" class="edge"><title>Node4&#45;&gt;Node13</title>
<path fill="none" stroke="midnightblue" d="M674.109,-56.1712C635.476,-45.602 581.446,-30.8202 545.859,-21.0842"/>
<polygon fill="midnightblue" stroke="midnightblue" points="673.503,-59.6342 684.072,-58.8972 675.351,-52.8823 673.503,-59.6342"/>
</g>
<!-- Node15&#45;&gt;Node12 -->
<g id="edge38" class="edge"><title>Node15&#45;&gt;Node12</title>
<path fill="none" stroke="midnightblue" d="M1074,-48.8902C1074,-39.6201 1074,-29.0083 1074,-21.3776"/>
<polygon fill="midnightblue" stroke="midnightblue" points="1070.5,-48.8971 1074,-58.8972 1077.5,-48.8972 1070.5,-48.8971"/>
</g>
<!-- Node16 -->
<g id="node33" class="node"><title>Node16</title>
<a xlink:href="_action_button_8cpp.html" target="_top" xlink:title="ActionButton.cpp">
<polygon fill="none" stroke="black" points="1131.5,-1 1131.5,-21 1222.5,-21 1222.5,-1 1131.5,-1"/>
<text text-anchor="middle" x="1177" y="-8" font-family="FreeSans" font-size="10.00">ActionButton.cpp</text>
</a>
</g>
<!-- Node15&#45;&gt;Node16 -->
<g id="edge34" class="edge"><title>Node15&#45;&gt;Node16</title>
<path fill="none" stroke="midnightblue" d="M1100.69,-53.9728C1118.99,-43.6634 1142.8,-30.2582 1158.92,-21.1817"/>
<polygon fill="midnightblue" stroke="midnightblue" points="1098.94,-50.9408 1091.94,-58.8972 1102.37,-57.0402 1098.94,-50.9408"/>
</g>
<!-- Node17 -->
<g id="node35" class="node"><title>Node17</title>
<a xlink:href="_keycap_icon_8cpp.html" target="_top" xlink:title="KeycapIcon.cpp">
<polygon fill="none" stroke="black" points="1240,-1 1240,-21 1326,-21 1326,-1 1240,-1"/>
<text text-anchor="middle" x="1283" y="-8" font-family="FreeSans" font-size="10.00">KeycapIcon.cpp</text>
</a>
</g>
<!-- Node15&#45;&gt;Node17 -->
<g id="edge36" class="edge"><title>Node15&#45;&gt;Node17</title>
<path fill="none" stroke="midnightblue" d="M1120.23,-56.1712C1158.31,-45.602 1211.58,-30.8202 1246.66,-21.0842"/>
<polygon fill="midnightblue" stroke="midnightblue" points="1119.1,-52.8505 1110.41,-58.8972 1120.98,-59.5956 1119.1,-52.8505"/>
</g>
<!-- Node18 -->
<g id="node38" class="node"><title>Node18</title>
<a xlink:href="_sdl_keycap_icon_view_8cpp.html" target="_top" xlink:title="SdlKeycapIconView.cpp">
<polygon fill="none" stroke="black" points="1344,-1 1344,-21 1466,-21 1466,-1 1344,-1"/>
<text text-anchor="middle" x="1405" y="-8" font-family="FreeSans" font-size="10.00">SdlKeycapIconView.cpp</text>
</a>
</g>
<!-- Node15&#45;&gt;Node18 -->
<g id="edge40" class="edge"><title>Node15&#45;&gt;Node18</title>
<path fill="none" stroke="midnightblue" d="M1121.6,-57.8485C1163.16,-50.1415 1273.57,-32.1964 1343.92,-20.8352"/>
<polygon fill="midnightblue" stroke="midnightblue" points="1120.76,-54.446 1111.61,-59.7762 1122.09,-61.3193 1120.76,-54.446"/>
</g>
</g>
</svg>
        <g id="navigator" transform="translate(0 0)" fill="#404254">
                <rect fill="#f2f5e9" fill-opacity="0.5" stroke="#606060" stroke-width=".5" x="0" y="0" width="60" height="60"/>
                <use id="zoomplus" xlink:href="#zoomPlus" x="17" y="9" onmousedown="handleZoom(evt,'in')"/>
                <use id="zoomminus" xlink:href="#zoomMin" x="42" y="9" onmousedown="handleZoom(evt,'out')"/>
                <use id="reset" xlink:href="#resetDef" x="30" y="36" onmousedown="handleReset()"/>
                <g id="arrowUp" xlink:href="#dirArrow" transform="translate(30 24)" onmousedown="handlePan(0,-1)">
                  <use xlink:href="#rim" fill="#404040">
                        <set attributeName="fill" to="#808080" begin="arrowUp.mouseover" end="arrowUp.mouseout"/>
                  </use>
                  <path fill="none" stroke="white" stroke-width="1.5" d="M0,-3.0v7 M-2.5,-0.5L0,-3.0L2.5,-0.5"/>
                </g>
                <g id="arrowRight" xlink:href="#dirArrow" transform="rotate(90) translate(36 -43)" onmousedown="handlePan(1,0)">
                  <use xlink:href="#rim" fill="#404040">
                        <set attributeName="fill" to="#808080" begin="arrowRight.mouseover" end="arrowRight.mouseout"/>
                  </use>
                  <path fill="none" stroke="white" stroke-width="1.5" d="M0,-3.0v7 M-2.5,-0.5L0,-3.0L2.5,-0.5"/>
                </g>
                <g id="arrowDown" xlink:href="#dirArrow" transform="rotate(180) translate(-30 -48)" onmousedown="handlePan(0,1)">
                  <use xlink:href="#rim" fill="#404040">
                        <set attributeName="fill" to="#808080" begin="arrowDown.mouseover" end="arrowDown.mouseout"/>
                  </use>
                  <path fill="none" stroke="white" stroke-width="1.5" d="M0,-3.0v7 M-2.5,-0.5L0,-3.0L2.5,-0.5"/>
                </g>
                <g id="arrowLeft" xlink:href="#dirArrow" transform="rotate(270) translate(-36 17)" onmousedown="handlePan(-1,0)">
                  <use xlink:href="#rim" fill="#404040">
                        <set attributeName="fill" to="#808080" begin="arrowLeft.mouseover" end="arrowLeft.mouseout"/>
                  </use>
                  <path fill="none" stroke="white" stroke-width="1.5" d="M0,-3.0v7 M-2.5,-0.5L0,-3.0L2.5,-0.5"/>
                </g>
        </g>
        <svg viewBox="0 0 15 15" width="100%" height="30px" preserveAspectRatio="xMaxYMin meet">
         <g id="arrow_out" transform="scale(0.3 0.3)">
          <a xlink:href="_fill_box_8h__dep__incl_org.svg" target="_base">
           <rect id="button" ry="5" rx="5" y="6" x="6" height="38" width="38"
                fill="#f2f5e9" fill-opacity="0.5" stroke="#606060" stroke-width="1.0"/>
           <path id="arrow"
             d="M 11.500037,31.436501 C 11.940474,20.09759 22.043105,11.32322 32.158766,21.979434 L 37.068811,17.246167 C 37.068811,17.246167 37.088388,32 37.088388,32 L 22.160133,31.978069 C 22.160133,31.978069 26.997745,27.140456 26.997745,27.140456 C 18.528582,18.264221 13.291696,25.230495 11.500037,31.436501 z"
             style="fill:#404040;"/>
          </a>
         </g>
        </svg>
</svg>
