<?xml version="1.0" encoding="UTF-8" standalone="no"?>
<!DOCTYPE svg PUBLIC "-//W3C//DTD SVG 1.1//EN"
 "http://www.w3.org/Graphics/SVG/1.1/DTD/svg11.dtd">
<!-- Generated by graphviz version 2.38.0 (20140413.2041)
 -->
<!-- Title: FillBox.h Pages: 1 -->
<svg width="2277pt" height="140pt"
 viewBox="0.00 0.00 2277.00 140.00" xmlns="http://www.w3.org/2000/svg" xmlns:xlink="http://www.w3.org/1999/xlink">
<g id="graph0" class="graph" transform="scale(1 1) rotate(0) translate(4 136)">
<title>FillBox.h</title>
<!-- Node1 -->
<g id="node1" class="node"><title>Node1</title>
<polygon fill="#bfbfbf" stroke="black" points="1194.5,-112.5 1194.5,-131.5 1249.5,-131.5 1249.5,-112.5 1194.5,-112.5"/>
<text text-anchor="middle" x="1222" y="-119.5" font-family="Helvetica,sans-Serif" font-size="10.00">FillBox.h</text>
</g>
<!-- Node2 -->
<g id="node2" class="node"><title>Node2</title>
<g id="a_node2"><a xlink:href="_bulletin_board_8cpp.html" target="_top" xlink:title="BulletinBoard.cpp">
<polygon fill="none" stroke="black" points="260.5,-56.5 260.5,-75.5 353.5,-75.5 353.5,-56.5 260.5,-56.5"/>
<text text-anchor="middle" x="307" y="-63.5" font-family="Helvetica,sans-Serif" font-size="10.00">BulletinBoard.cpp</text>
</a>
</g>
</g>
<!-- Node1&#45;&gt;Node2 -->
<g id="edge1" class="edge"><title>Node1&#45;&gt;Node2</title>
<path fill="none" stroke="midnightblue" d="M1184.33,-120.464C1064.17,-118.447 679.409,-109.616 363,-76 359.965,-75.6775 356.843,-75.3011 353.701,-74.8887"/>
<polygon fill="midnightblue" stroke="midnightblue" points="1184.42,-123.966 1194.47,-120.628 1184.53,-116.967 1184.42,-123.966"/>
</g>
<!-- Node3 -->
<g id="node3" class="node"><title>Node3</title>
<g id="a_node3"><a xlink:href="_debug_scene_8cpp.html" target="_top" xlink:title="DebugScene.cpp">
<polygon fill="none" stroke="black" points="372,-56.5 372,-75.5 464,-75.5 464,-56.5 372,-56.5"/>
<text text-anchor="middle" x="418" y="-63.5" font-family="Helvetica,sans-Serif" font-size="10.00">DebugScene.cpp</text>
</a>
</g>
</g>
<!-- Node1&#45;&gt;Node3 -->
<g id="edge2" class="edge"><title>Node1&#45;&gt;Node3</title>
<path fill="none" stroke="midnightblue" d="M1184.11,-120.091C1073.98,-117.157 744.574,-106.298 473,-76 470.115,-75.6782 467.151,-75.3082 464.166,-74.9057"/>
<polygon fill="midnightblue" stroke="midnightblue" points="1184.28,-123.597 1194.37,-120.359 1184.46,-116.599 1184.28,-123.597"/>
</g>
<!-- Node4 -->
<g id="node4" class="node"><title>Node4</title>
<g id="a_node4"><a xlink:href="_display_select_scene_8cpp.html" target="_top" xlink:title="DisplaySelectScene.cpp">
<polygon fill="none" stroke="black" points="482,-56.5 482,-75.5 606,-75.5 606,-56.5 482,-56.5"/>
<text text-anchor="middle" x="544" y="-63.5" font-family="Helvetica,sans-Serif" font-size="10.00">DisplaySelectScene.cpp</text>
</a>
</g>
</g>
<!-- Node1&#45;&gt;Node4 -->
<g id="edge3" class="edge"><title>Node1&#45;&gt;Node4</title>
<path fill="none" stroke="midnightblue" d="M1184.1,-118.739C1089.06,-112.943 832.952,-96.5585 620,-76 615.503,-75.5659 610.861,-75.0884 606.19,-74.5866"/>
<polygon fill="midnightblue" stroke="midnightblue" points="1184.17,-122.249 1194.36,-119.361 1184.59,-115.262 1184.17,-122.249"/>
</g>
<!-- Node5 -->
<g id="node5" class="node"><title>Node5</title>
<g id="a_node5"><a xlink:href="_main_menu_scene_8cpp.html" target="_top" xlink:title="MainMenuScene.cpp">
<polygon fill="none" stroke="black" points="0,-0.5 0,-19.5 108,-19.5 108,-0.5 0,-0.5"/>
<text text-anchor="middle" x="54" y="-7.5" font-family="Helvetica,sans-Serif" font-size="10.00">MainMenuScene.cpp</text>
</a>
</g>
</g>
<!-- Node1&#45;&gt;Node5 -->
<g id="edge4" class="edge"><title>Node1&#45;&gt;Node5</title>
<path fill="none" stroke="midnightblue" d="M1184.25,-120.312C1073.06,-117.93 748.354,-108.318 648,-76 631.676,-70.7429 631.34,-61.2075 615,-56 403.566,11.3817 337.641,-43.7059 117,-20 114.144,-19.6931 111.218,-19.3558 108.266,-18.9972"/>
<polygon fill="midnightblue" stroke="midnightblue" points="1184.25,-123.813 1194.32,-120.521 1184.4,-116.814 1184.25,-123.813"/>
</g>
<!-- Node6 -->
<g id="node6" class="node"><title>Node6</title>
<g id="a_node6"><a xlink:href="_symbol_icon_8h.html" target="_top" xlink:title="SymbolIcon.h">
<polygon fill="none" stroke="black" points="700.5,-56.5 700.5,-75.5 777.5,-75.5 777.5,-56.5 700.5,-56.5"/>
<text text-anchor="middle" x="739" y="-63.5" font-family="Helvetica,sans-Serif" font-size="10.00">SymbolIcon.h</text>
</a>
</g>
</g>
<!-- Node1&#45;&gt;Node6 -->
<g id="edge5" class="edge"><title>Node1&#45;&gt;Node6</title>
<path fill="none" stroke="midnightblue" d="M1183.89,-117.836C1108.75,-111.416 936.239,-95.7735 792,-76 787.377,-75.3662 782.538,-74.6367 777.743,-73.8729"/>
<polygon fill="midnightblue" stroke="midnightblue" points="1184,-121.358 1194.26,-118.716 1184.59,-114.383 1184,-121.358"/>
</g>
<!-- Node8 -->
<g id="node8" class="node"><title>Node8</title>
<g id="a_node8"><a xlink:href="_test_lab_scene_8cpp.html" target="_top" xlink:title="TestLabScene.cpp">
<polygon fill="none" stroke="black" points="126,-0.5 126,-19.5 224,-19.5 224,-0.5 126,-0.5"/>
<text text-anchor="middle" x="175" y="-7.5" font-family="Helvetica,sans-Serif" font-size="10.00">TestLabScene.cpp</text>
</a>
</g>
</g>
<!-- Node1&#45;&gt;Node8 -->
<g id="edge18" class="edge"><title>Node1&#45;&gt;Node8</title>
<path fill="none" stroke="midnightblue" d="M1184.15,-119.463C1079.05,-114.93 785.287,-100.384 692,-76 671.217,-70.5677 668.778,-61.4513 648,-56 468.924,-9.0172 416.8,-42.2068 233,-20 230.066,-19.6455 227.053,-19.2559 224.016,-18.8436"/>
<polygon fill="midnightblue" stroke="midnightblue" points="1184.15,-122.966 1194.29,-119.895 1184.45,-115.973 1184.15,-122.966"/>
</g>
<!-- Node15 -->
<g id="node15" class="node"><title>Node15</title>
<g id="a_node15"><a xlink:href="_sdl_display_8cpp.html" target="_top" xlink:title="SdlDisplay.cpp">
<polygon fill="none" stroke="black" points="1136.5,-0.5 1136.5,-19.5 1219.5,-19.5 1219.5,-0.5 1136.5,-0.5"/>
<text text-anchor="middle" x="1178" y="-7.5" font-family="Helvetica,sans-Serif" font-size="10.00">SdlDisplay.cpp</text>
</a>
</g>
</g>
<!-- Node1&#45;&gt;Node15 -->
<g id="edge34" class="edge"><title>Node1&#45;&gt;Node15</title>
<path fill="none" stroke="midnightblue" d="M1184.06,-119.509C1089.57,-115.408 849.628,-102.465 826,-76 794.027,-40.1883 744.922,-76.5165 1127,-20 1130.02,-19.5527 1133.14,-19.0654 1136.28,-18.5568"/>
<polygon fill="midnightblue" stroke="midnightblue" points="1184.17,-123.017 1194.31,-119.944 1184.47,-116.023 1184.17,-123.017"/>
</g>
<!-- Node17 -->
<g id="node17" class="node"><title>Node17</title>
<g id="a_node17"><a xlink:href="_profile_edit_scene_8cpp.html" target="_top" xlink:title="ProfileEditScene.cpp">
<polygon fill="none" stroke="black" points="930,-56.5 930,-75.5 1038,-75.5 1038,-56.5 930,-56.5"/>
<text text-anchor="middle" x="984" y="-63.5" font-family="Helvetica,sans-Serif" font-size="10.00">ProfileEditScene.cpp</text>
</a>
</g>
</g>
<!-- Node1&#45;&gt;Node17 -->
<g id="edge17" class="edge"><title>Node1&#45;&gt;Node17</title>
<path fill="none" stroke="midnightblue" d="M1184.4,-112.468C1139.92,-102.376 1066.3,-85.6739 1021.76,-75.5667"/>
<polygon fill="midnightblue" stroke="midnightblue" points="1183.71,-115.9 1194.23,-114.7 1185.25,-109.074 1183.71,-115.9"/>
</g>
<!-- Node18 -->
<g id="node18" class="node"><title>Node18</title>
<g id="a_node18"><a xlink:href="_track_select_scene_8cpp.html" target="_top" xlink:title="TrackSelectScene.cpp">
<polygon fill="none" stroke="black" points="1056,-56.5 1056,-75.5 1172,-75.5 1172,-56.5 1056,-56.5"/>
<text text-anchor="middle" x="1114" y="-63.5" font-family="Helvetica,sans-Serif" font-size="10.00">TrackSelectScene.cpp</text>
</a>
</g>
</g>
<!-- Node1&#45;&gt;Node18 -->
<g id="edge19" class="edge"><title>Node1&#45;&gt;Node18</title>
<path fill="none" stroke="midnightblue" d="M1195.45,-107.726C1175.45,-97.7271 1148.61,-84.3065 1131.31,-75.6545"/>
<polygon fill="midnightblue" stroke="midnightblue" points="1194.14,-110.982 1204.65,-112.324 1197.27,-104.721 1194.14,-110.982"/>
</g>
<!-- Node19 -->
<g id="node19" class="node"><title>Node19</title>
<g id="a_node19"><a xlink:href="_keycap_icon_8h.html" target="_top" xlink:title="KeycapIcon.h">
<polygon fill="none" stroke="black" points="834.5,-56.5 834.5,-75.5 911.5,-75.5 911.5,-56.5 834.5,-56.5"/>
<text text-anchor="middle" x="873" y="-63.5" font-family="Helvetica,sans-Serif" font-size="10.00">KeycapIcon.h</text>
</a>
</g>
</g>
<!-- Node1&#45;&gt;Node19 -->
<g id="edge20" class="edge"><title>Node1&#45;&gt;Node19</title>
<path fill="none" stroke="midnightblue" d="M1184.13,-115.795C1127,-107.842 1015.42,-91.9047 921,-76 917.99,-75.493 914.878,-74.9506 911.751,-74.3928"/>
<polygon fill="midnightblue" stroke="midnightblue" points="1183.76,-119.278 1194.14,-117.186 1184.72,-112.344 1183.76,-119.278"/>
</g>
<!-- Node23 -->
<g id="node23" class="node"><title>Node23</title>
<g id="a_node23"><a xlink:href="_button_8cpp.html" target="_top" xlink:title="Button.cpp">
<polygon fill="none" stroke="black" points="1190,-56.5 1190,-75.5 1254,-75.5 1254,-56.5 1190,-56.5"/>
<text text-anchor="middle" x="1222" y="-63.5" font-family="Helvetica,sans-Serif" font-size="10.00">Button.cpp</text>
</a>
</g>
</g>
<!-- Node1&#45;&gt;Node23 -->
<g id="edge25" class="edge"><title>Node1&#45;&gt;Node23</title>
<path fill="none" stroke="midnightblue" d="M1222,-101.805C1222,-92.9102 1222,-82.7798 1222,-75.7511"/>
<polygon fill="midnightblue" stroke="midnightblue" points="1218.5,-102.083 1222,-112.083 1225.5,-102.083 1218.5,-102.083"/>
</g>
<!-- Node24 -->
<g id="node24" class="node"><title>Node24</title>
<g id="a_node24"><a xlink:href="_chronometer_8cpp.html" target="_top" xlink:title="Chronometer.cpp">
<polygon fill="none" stroke="black" points="1272,-56.5 1272,-75.5 1364,-75.5 1364,-56.5 1272,-56.5"/>
<text text-anchor="middle" x="1318" y="-63.5" font-family="Helvetica,sans-Serif" font-size="10.00">Chronometer.cpp</text>
</a>
</g>
</g>
<!-- Node1&#45;&gt;Node24 -->
<g id="edge26" class="edge"><title>Node1&#45;&gt;Node24</title>
<path fill="none" stroke="midnightblue" d="M1246.57,-107.177C1264.24,-97.2407 1287.51,-84.1492 1302.61,-75.6545"/>
<polygon fill="midnightblue" stroke="midnightblue" points="1244.42,-104.371 1237.42,-112.324 1247.86,-110.472 1244.42,-104.371"/>
</g>
<!-- Node25 -->
<g id="node25" class="node"><title>Node25</title>
<g id="a_node25"><a xlink:href="_counter_8cpp.html" target="_top" xlink:title="Counter.cpp">
<polygon fill="none" stroke="black" points="1382,-56.5 1382,-75.5 1452,-75.5 1452,-56.5 1382,-56.5"/>
<text text-anchor="middle" x="1417" y="-63.5" font-family="Helvetica,sans-Serif" font-size="10.00">Counter.cpp</text>
</a>
</g>
</g>
<!-- Node1&#45;&gt;Node25 -->
<g id="edge27" class="edge"><title>Node1&#45;&gt;Node25</title>
<path fill="none" stroke="midnightblue" d="M1259.37,-110.651C1296.16,-100.463 1351.69,-85.0854 1386.08,-75.5637"/>
<polygon fill="midnightblue" stroke="midnightblue" points="1258.23,-107.336 1249.53,-113.378 1260.1,-114.082 1258.23,-107.336"/>
</g>
<!-- Node26 -->
<g id="node26" class="node"><title>Node26</title>
<g id="a_node26"><a xlink:href="_fill_box_8cpp.html" target="_top" xlink:title="FillBox.cpp">
<polygon fill="none" stroke="black" points="1470.5,-56.5 1470.5,-75.5 1535.5,-75.5 1535.5,-56.5 1470.5,-56.5"/>
<text text-anchor="middle" x="1503" y="-63.5" font-family="Helvetica,sans-Serif" font-size="10.00">FillBox.cpp</text>
</a>
</g>
</g>
<!-- Node1&#45;&gt;Node26 -->
<g id="edge28" class="edge"><title>Node1&#45;&gt;Node26</title>
<path fill="none" stroke="midnightblue" d="M1259.7,-114.202C1306.85,-105.632 1390,-90.2887 1461,-76 1464.07,-75.3821 1467.26,-74.7246 1470.46,-74.0573"/>
<polygon fill="midnightblue" stroke="midnightblue" points="1258.86,-110.798 1249.64,-116.027 1260.11,-117.685 1258.86,-110.798"/>
</g>
<!-- Node27 -->
<g id="node27" class="node"><title>Node27</title>
<g id="a_node27"><a xlink:href="_fuel_gauge_8cpp.html" target="_top" xlink:title="FuelGauge.cpp">
<polygon fill="none" stroke="black" points="1553.5,-56.5 1553.5,-75.5 1636.5,-75.5 1636.5,-56.5 1553.5,-56.5"/>
<text text-anchor="middle" x="1595" y="-63.5" font-family="Helvetica,sans-Serif" font-size="10.00">FuelGauge.cpp</text>
</a>
</g>
</g>
<!-- Node1&#45;&gt;Node27 -->
<g id="edge29" class="edge"><title>Node1&#45;&gt;Node27</title>
<path fill="none" stroke="midnightblue" d="M1259.91,-116.214C1320.33,-108.475 1442.15,-92.4144 1545,-76 1547.7,-75.5691 1550.48,-75.1106 1553.28,-74.6374"/>
<polygon fill="midnightblue" stroke="midnightblue" points="1259.18,-112.778 1249.71,-117.516 1260.07,-119.722 1259.18,-112.778"/>
</g>
<!-- Node28 -->
<g id="node28" class="node"><title>Node28</title>
<g id="a_node28"><a xlink:href="_hud_text_8cpp.html" target="_top" xlink:title="HudText.cpp">
<polygon fill="none" stroke="black" points="1654.5,-56.5 1654.5,-75.5 1727.5,-75.5 1727.5,-56.5 1654.5,-56.5"/>
<text text-anchor="middle" x="1691" y="-63.5" font-family="Helvetica,sans-Serif" font-size="10.00">HudText.cpp</text>
</a>
</g>
</g>
<!-- Node1&#45;&gt;Node28 -->
<g id="edge30" class="edge"><title>Node1&#45;&gt;Node28</title>
<path fill="none" stroke="midnightblue" d="M1259.9,-118.15C1334.23,-112.303 1504.24,-97.6518 1646,-76 1648.68,-75.591 1651.44,-75.1319 1654.21,-74.6432"/>
<polygon fill="midnightblue" stroke="midnightblue" points="1259.34,-114.683 1249.64,-118.949 1259.89,-121.662 1259.34,-114.683"/>
</g>
<!-- Node29 -->
<g id="node29" class="node"><title>Node29</title>
<g id="a_node29"><a xlink:href="_slider_8cpp.html" target="_top" xlink:title="Slider.cpp">
<polygon fill="none" stroke="black" points="1746,-56.5 1746,-75.5 1806,-75.5 1806,-56.5 1746,-56.5"/>
<text text-anchor="middle" x="1776" y="-63.5" font-family="Helvetica,sans-Serif" font-size="10.00">Slider.cpp</text>
</a>
</g>
</g>
<!-- Node1&#45;&gt;Node29 -->
<g id="edge31" class="edge"><title>Node1&#45;&gt;Node29</title>
<path fill="none" stroke="midnightblue" d="M1259.76,-119.508C1345.21,-115.737 1559.75,-104.055 1737,-76 1739.88,-75.5437 1742.87,-74.9949 1745.85,-74.3963"/>
<polygon fill="midnightblue" stroke="midnightblue" points="1259.36,-116.022 1249.52,-119.949 1259.66,-123.015 1259.36,-116.022"/>
</g>
<!-- Node30 -->
<g id="node30" class="node"><title>Node30</title>
<g id="a_node30"><a xlink:href="_speedometer_8cpp.html" target="_top" xlink:title="Speedometer.cpp">
<polygon fill="none" stroke="black" points="1823.5,-56.5 1823.5,-75.5 1916.5,-75.5 1916.5,-56.5 1823.5,-56.5"/>
<text text-anchor="middle" x="1870" y="-63.5" font-family="Helvetica,sans-Serif" font-size="10.00">Speedometer.cpp</text>
</a>
</g>
</g>
<!-- Node1&#45;&gt;Node30 -->
<g id="edge32" class="edge"><title>Node1&#45;&gt;Node30</title>
<path fill="none" stroke="midnightblue" d="M1259.72,-119.271C1353.74,-114.717 1605.97,-100.986 1815,-76 1817.69,-75.6785 1820.45,-75.3196 1823.23,-74.9354"/>
<polygon fill="midnightblue" stroke="midnightblue" points="1259.39,-115.783 1249.57,-119.757 1259.73,-122.775 1259.39,-115.783"/>
</g>
<!-- Node31 -->
<g id="node31" class="node"><title>Node31</title>
<g id="a_node31"><a xlink:href="_sdl_button_view_8cpp.html" target="_top" xlink:title="SdlButtonView.cpp">
<polygon fill="none" stroke="black" points="1935,-56.5 1935,-75.5 2035,-75.5 2035,-56.5 1935,-56.5"/>
<text text-anchor="middle" x="1985" y="-63.5" font-family="Helvetica,sans-Serif" font-size="10.00">SdlButtonView.cpp</text>
</a>
</g>
</g>
<!-- Node1&#45;&gt;Node31 -->
<g id="edge33" class="edge"><title>Node1&#45;&gt;Node31</title>
<path fill="none" stroke="midnightblue" d="M1259.73,-119.751C1365.26,-116.008 1672.31,-103.404 1926,-76 1928.88,-75.6884 1931.84,-75.3373 1934.83,-74.9591"/>
<polygon fill="midnightblue" stroke="midnightblue" points="1259.45,-116.259 1249.58,-120.106 1259.7,-123.254 1259.45,-116.259"/>
</g>
<!-- Node32 -->
<g id="node32" class="node"><title>Node32</title>
<g id="a_node32"><a xlink:href="_sdl_fill_box_view_8cpp.html" target="_top" xlink:title="SdlFillBoxView.cpp">
<polygon fill="none" stroke="black" points="2053.5,-56.5 2053.5,-75.5 2154.5,-75.5 2154.5,-56.5 2053.5,-56.5"/>
<text text-anchor="middle" x="2104" y="-63.5" font-family="Helvetica,sans-Serif" font-size="10.00">SdlFillBoxView.cpp</text>
</a>
</g>
</g>
<!-- Node1&#45;&gt;Node32 -->
<g id="edge35" class="edge"><title>Node1&#45;&gt;Node32</title>
<path fill="none" stroke="midnightblue" d="M1259.98,-120.193C1377.06,-117.433 1742.74,-106.772 2044,-76 2047.04,-75.6896 2050.16,-75.334 2053.3,-74.9475"/>
<polygon fill="midnightblue" stroke="midnightblue" points="1259.67,-116.699 1249.75,-120.429 1259.83,-123.697 1259.67,-116.699"/>
</g>
<!-- Node33 -->
<g id="node33" class="node"><title>Node33</title>
<g id="a_node33"><a xlink:href="_sdl_slider_view_8cpp.html" target="_top" xlink:title="SdlSliderView.cpp">
<polygon fill="none" stroke="black" points="2173,-56.5 2173,-75.5 2269,-75.5 2269,-56.5 2173,-56.5"/>
<text text-anchor="middle" x="2221" y="-63.5" font-family="Helvetica,sans-Serif" font-size="10.00">SdlSliderView.cpp</text>
</a>
</g>
</g>
<!-- Node1&#45;&gt;Node33 -->
<g id="edge36" class="edge"><title>Node1&#45;&gt;Node33</title>
<path fill="none" stroke="midnightblue" d="M1259.88,-120.669C1387.58,-119.237 1813.89,-111.895 2164,-76 2166.89,-75.7037 2169.86,-75.359 2172.85,-74.9807"/>
<polygon fill="midnightblue" stroke="midnightblue" points="1259.79,-117.169 1249.82,-120.776 1259.86,-124.169 1259.79,-117.169"/>
</g>
<!-- Node6&#45;&gt;Node5 -->
<g id="edge6" class="edge"><title>Node6&#45;&gt;Node5</title>
<path fill="none" stroke="midnightblue" d="M689.939,-59.8675C676.362,-58.5235 661.616,-57.1346 648,-56 412.275,-36.3573 352.244,-44.7431 117,-20 114.143,-19.6995 111.217,-19.3672 108.264,-19.0127"/>
<polygon fill="midnightblue" stroke="midnightblue" points="689.756,-63.3666 700.055,-60.8815 690.454,-56.4015 689.756,-63.3666"/>
</g>
<!-- Node7 -->
<g id="node7" class="node"><title>Node7</title>
<g id="a_node7"><a xlink:href="_message_announcement_8cpp.html" target="_top" xlink:title="MessageAnnouncement.cpp">
<polygon fill="none" stroke="black" points="880,-0.5 880,-19.5 1020,-19.5 1020,-0.5 880,-0.5"/>
<text text-anchor="middle" x="950" y="-7.5" font-family="Helvetica,sans-Serif" font-size="10.00">MessageAnnouncement.cpp</text>
</a>
</g>
</g>
<!-- Node6&#45;&gt;Node7 -->
<g id="edge7" class="edge"><title>Node6&#45;&gt;Node7</title>
<path fill="none" stroke="midnightblue" d="M782.142,-53.959C821.994,-43.7598 880.363,-28.8217 916.723,-19.5164"/>
<polygon fill="midnightblue" stroke="midnightblue" points="781.254,-50.5734 772.434,-56.4435 782.989,-57.3549 781.254,-50.5734"/>
</g>
<!-- Node6&#45;&gt;Node8 -->
<g id="edge8" class="edge"><title>Node6&#45;&gt;Node8</title>
<path fill="none" stroke="midnightblue" d="M689.952,-56.5126C688.622,-56.3334 687.302,-56.162 686,-56 485.577,-31.0692 433.596,-43.501 233,-20 230.065,-19.6561 227.051,-19.2747 224.013,-18.8686"/>
<polygon fill="midnightblue" stroke="midnightblue" points="689.871,-60.0377 700.271,-58.0148 690.88,-53.1107 689.871,-60.0377"/>
</g>
<!-- Node9 -->
<g id="node9" class="node"><title>Node9</title>
<g id="a_node9"><a xlink:href="_checkbox_8cpp.html" target="_top" xlink:title="Checkbox.cpp">
<polygon fill="none" stroke="black" points="1038,-0.5 1038,-19.5 1118,-19.5 1118,-0.5 1038,-0.5"/>
<text text-anchor="middle" x="1078" y="-7.5" font-family="Helvetica,sans-Serif" font-size="10.00">Checkbox.cpp</text>
</a>
</g>
</g>
<!-- Node6&#45;&gt;Node9 -->
<g id="edge9" class="edge"><title>Node6&#45;&gt;Node9</title>
<path fill="none" stroke="midnightblue" d="M788.066,-56.6369C789.391,-56.4211 790.704,-56.2084 792,-56 897.19,-39.081 923.926,-37.6256 1029,-20 1031.9,-19.5135 1034.89,-18.9975 1037.91,-18.4684"/>
<polygon fill="midnightblue" stroke="midnightblue" points="787.071,-53.2537 777.774,-58.3354 788.211,-60.1603 787.071,-53.2537"/>
</g>
<!-- Node10 -->
<g id="node10" class="node"><title>Node10</title>
<g id="a_node10"><a xlink:href="_minimap_8cpp.html" target="_top" xlink:title="Minimap.cpp">
<polygon fill="none" stroke="black" points="242,-0.5 242,-19.5 314,-19.5 314,-0.5 242,-0.5"/>
<text text-anchor="middle" x="278" y="-7.5" font-family="Helvetica,sans-Serif" font-size="10.00">Minimap.cpp</text>
</a>
</g>
</g>
<!-- Node6&#45;&gt;Node10 -->
<g id="edge10" class="edge"><title>Node6&#45;&gt;Node10</title>
<path fill="none" stroke="midnightblue" d="M689.948,-56.5471C688.619,-56.3578 687.301,-56.1749 686,-56 525.76,-34.4531 483.958,-43.5485 324,-20 320.78,-19.5259 317.443,-18.9803 314.104,-18.397"/>
<polygon fill="midnightblue" stroke="midnightblue" points="689.849,-60.0719 700.26,-58.1039 690.894,-53.1503 689.849,-60.0719"/>
</g>
<!-- Node11 -->
<g id="node11" class="node"><title>Node11</title>
<g id="a_node11"><a xlink:href="_pick_list_8cpp.html" target="_top" xlink:title="PickList.cpp">
<polygon fill="none" stroke="black" points="332.5,-0.5 332.5,-19.5 403.5,-19.5 403.5,-0.5 332.5,-0.5"/>
<text text-anchor="middle" x="368" y="-7.5" font-family="Helvetica,sans-Serif" font-size="10.00">PickList.cpp</text>
</a>
</g>
</g>
<!-- Node6&#45;&gt;Node11 -->
<g id="edge11" class="edge"><title>Node6&#45;&gt;Node11</title>
<path fill="none" stroke="midnightblue" d="M689.94,-56.6028C688.613,-56.397 687.298,-56.1957 686,-56 564.984,-37.7524 533.737,-40.0117 413,-20 410.013,-19.5049 406.922,-18.9586 403.822,-18.387"/>
<polygon fill="midnightblue" stroke="midnightblue" points="689.813,-60.1268 700.239,-58.2475 690.916,-53.2144 689.813,-60.1268"/>
</g>
<!-- Node12 -->
<g id="node12" class="node"><title>Node12</title>
<g id="a_node12"><a xlink:href="_radio_button_8cpp.html" target="_top" xlink:title="RadioButton.cpp">
<polygon fill="none" stroke="black" points="421.5,-0.5 421.5,-19.5 510.5,-19.5 510.5,-0.5 421.5,-0.5"/>
<text text-anchor="middle" x="466" y="-7.5" font-family="Helvetica,sans-Serif" font-size="10.00">RadioButton.cpp</text>
</a>
</g>
</g>
<!-- Node6&#45;&gt;Node12 -->
<g id="edge12" class="edge"><title>Node6&#45;&gt;Node12</title>
<path fill="none" stroke="midnightblue" d="M690.589,-55.4241C639.178,-45.255 558.666,-29.3295 509.294,-19.5637"/>
<polygon fill="midnightblue" stroke="midnightblue" points="689.976,-58.8706 700.465,-57.3776 691.334,-52.0037 689.976,-58.8706"/>
</g>
<!-- Node13 -->
<g id="node13" class="node"><title>Node13</title>
<g id="a_node13"><a xlink:href="_state_button_8cpp.html" target="_top" xlink:title="StateButton.cpp">
<polygon fill="none" stroke="black" points="528.5,-0.5 528.5,-19.5 615.5,-19.5 615.5,-0.5 528.5,-0.5"/>
<text text-anchor="middle" x="572" y="-7.5" font-family="Helvetica,sans-Serif" font-size="10.00">StateButton.cpp</text>
</a>
</g>
</g>
<!-- Node6&#45;&gt;Node13 -->
<g id="edge13" class="edge"><title>Node6&#45;&gt;Node13</title>
<path fill="none" stroke="midnightblue" d="M702.83,-53.3044C671.363,-43.1294 626.506,-28.6246 598.338,-19.5164"/>
<polygon fill="midnightblue" stroke="midnightblue" points="701.947,-56.697 712.538,-56.4435 704.1,-50.0366 701.947,-56.697"/>
</g>
<!-- Node14 -->
<g id="node14" class="node"><title>Node14</title>
<g id="a_node14"><a xlink:href="_symbol_icon_8cpp.html" target="_top" xlink:title="SymbolIcon.cpp">
<polygon fill="none" stroke="black" points="633.5,-0.5 633.5,-19.5 720.5,-19.5 720.5,-0.5 633.5,-0.5"/>
<text text-anchor="middle" x="677" y="-7.5" font-family="Helvetica,sans-Serif" font-size="10.00">SymbolIcon.cpp</text>
</a>
</g>
</g>
<!-- Node6&#45;&gt;Node14 -->
<g id="edge14" class="edge"><title>Node6&#45;&gt;Node14</title>
<path fill="none" stroke="midnightblue" d="M721.246,-49.5372C710.192,-39.9087 696.369,-27.8694 687.143,-19.8339"/>
<polygon fill="midnightblue" stroke="midnightblue" points="719.199,-52.3954 729.039,-56.324 723.797,-47.1168 719.199,-52.3954"/>
</g>
<!-- Node6&#45;&gt;Node15 -->
<g id="edge15" class="edge"><title>Node6&#45;&gt;Node15</title>
<path fill="none" stroke="midnightblue" d="M788.054,-56.561C789.383,-56.3675 790.7,-56.1801 792,-56 940.33,-35.4555 978.737,-41.0239 1127,-20 1130.03,-19.5708 1133.15,-19.0969 1136.29,-18.5977"/>
<polygon fill="midnightblue" stroke="midnightblue" points="787.1,-53.1662 777.745,-58.1395 788.16,-60.0856 787.1,-53.1662"/>
</g>
<!-- Node16 -->
<g id="node16" class="node"><title>Node16</title>
<g id="a_node16"><a xlink:href="_sdl_symbol_icon_view_8cpp.html" target="_top" xlink:title="SdlSymbolIconView.cpp">
<polygon fill="none" stroke="black" points="738.5,-0.5 738.5,-19.5 861.5,-19.5 861.5,-0.5 738.5,-0.5"/>
<text text-anchor="middle" x="800" y="-7.5" font-family="Helvetica,sans-Serif" font-size="10.00">SdlSymbolIconView.cpp</text>
</a>
</g>
</g>
<!-- Node6&#45;&gt;Node16 -->
<g id="edge16" class="edge"><title>Node6&#45;&gt;Node16</title>
<path fill="none" stroke="midnightblue" d="M756.467,-49.5372C767.344,-39.9087 780.944,-27.8694 790.021,-19.8339"/>
<polygon fill="midnightblue" stroke="midnightblue" points="753.968,-47.0749 748.801,-56.324 758.608,-52.3162 753.968,-47.0749"/>
</g>
<!-- Node19&#45;&gt;Node15 -->
<g id="edge23" class="edge"><title>Node19&#45;&gt;Node15</title>
<path fill="none" stroke="midnightblue" d="M921.589,-55.9118C1014.11,-39.191 1038.59,-35.5266 1127,-20 1130.01,-19.4713 1133.12,-18.9242 1136.25,-18.373"/>
<polygon fill="midnightblue" stroke="midnightblue" points="920.721,-52.5118 911.505,-57.7371 921.968,-59.3999 920.721,-52.5118"/>
</g>
<!-- Node20 -->
<g id="node20" class="node"><title>Node20</title>
<g id="a_node20"><a xlink:href="_action_button_8cpp.html" target="_top" xlink:title="ActionButton.cpp">
<polygon fill="none" stroke="black" points="1238,-0.5 1238,-19.5 1330,-19.5 1330,-0.5 1238,-0.5"/>
<text text-anchor="middle" x="1284" y="-7.5" font-family="Helvetica,sans-Serif" font-size="10.00">ActionButton.cpp</text>
</a>
</g>
</g>
<!-- Node19&#45;&gt;Node20 -->
<g id="edge21" class="edge"><title>Node19&#45;&gt;Node20</title>
<path fill="none" stroke="midnightblue" d="M921.787,-55.9807C1058.96,-35.4559 1095.71,-38.6848 1229,-20 1231.87,-19.597 1234.83,-19.1649 1237.81,-18.716"/>
<polygon fill="midnightblue" stroke="midnightblue" points="921.098,-52.5449 911.734,-57.5002 922.144,-59.4663 921.098,-52.5449"/>
</g>
<!-- Node21 -->
<g id="node21" class="node"><title>Node21</title>
<g id="a_node21"><a xlink:href="_keycap_icon_8cpp.html" target="_top" xlink:title="KeycapIcon.cpp">
<polygon fill="none" stroke="black" points="1348.5,-0.5 1348.5,-19.5 1435.5,-19.5 1435.5,-0.5 1348.5,-0.5"/>
<text text-anchor="middle" x="1392" y="-7.5" font-family="Helvetica,sans-Serif" font-size="10.00">KeycapIcon.cpp</text>
</a>
</g>
</g>
<!-- Node19&#45;&gt;Node21 -->
<g id="edge22" class="edge"><title>Node19&#45;&gt;Node21</title>
<path fill="none" stroke="midnightblue" d="M921.818,-56.0311C1107.49,-31.2273 1157.29,-43.2132 1339,-20 1342.06,-19.6097 1345.2,-19.1705 1348.37,-18.7015"/>
<polygon fill="midnightblue" stroke="midnightblue" points="921.159,-52.5883 911.719,-57.3983 922.098,-59.525 921.159,-52.5883"/>
</g>
<!-- Node22 -->
<g id="node22" class="node"><title>Node22</title>
<g id="a_node22"><a xlink:href="_sdl_keycap_icon_view_8cpp.html" target="_top" xlink:title="SdlKeycapIconView.cpp">
<polygon fill="none" stroke="black" points="1453.5,-0.5 1453.5,-19.5 1576.5,-19.5 1576.5,-0.5 1453.5,-0.5"/>
<text text-anchor="middle" x="1515" y="-7.5" font-family="Helvetica,sans-Serif" font-size="10.00">SdlKeycapIconView.cpp</text>
</a>
</g>
</g>
<!-- Node19&#45;&gt;Node22 -->
<g id="edge24" class="edge"><title>Node19&#45;&gt;Node22</title>
<path fill="none" stroke="midnightblue" d="M921.835,-56.0558C1154.3,-26.8978 1215.98,-42.5701 1445,-20 1447.68,-19.7356 1450.42,-19.4502 1453.19,-19.1494"/>
<polygon fill="midnightblue" stroke="midnightblue" points="921.191,-52.6093 911.711,-57.3402 922.072,-59.5536 921.191,-52.6093"/>
</g>
</g>
</svg>
