<?xml version="1.0" encoding="UTF-8" standalone="no"?>
<!DOCTYPE svg PUBLIC "-//W3C//DTD SVG 1.1//EN"
 "http://www.w3.org/Graphics/SVG/1.1/DTD/svg11.dtd">
<!-- Generated by graphviz version 2.26.3 (20100126.1600)
 -->
<!-- Title: FlexGrid.h Pages: 1 -->
<svg width="606pt" height="88pt"
 viewBox="0.00 0.00 606.00 88.00" xmlns="http://www.w3.org/2000/svg" xmlns:xlink="http://www.w3.org/1999/xlink">
<g id="graph1" class="graph" transform="scale(1 1) rotate(0) translate(4 84)">
<title>FlexGrid.h</title>
<!-- Node1 -->
<g id="node1" class="node"><title>Node1</title>
<polygon fill="#bfbfbf" stroke="black" points="299,-59 299,-79 359,-79 359,-59 299,-59"/>
<text text-anchor="middle" x="329" y="-66" font-family="FreeSans" font-size="10.00">FlexGrid.h</text>
</g>
<!-- Node2 -->
<g id="node3" class="node"><title>Node2</title>
<a xlink:href="_audio_settings_scene_8cpp.html" target="_top" xlink:title="AudioSettingsScene.cpp">
<polygon fill="none" stroke="black" points="-0.5,-1 -0.5,-21 122.5,-21 122.5,-1 -0.5,-1"/>
<text text-anchor="middle" x="61" y="-8" font-family="FreeSans" font-size="10.00">AudioSettingsScene.cpp</text>
</a>
</g>
<!-- Node1&#45;&gt;Node2 -->
<g id="edge2" class="edge"><title>Node1&#45;&gt;Node2</title>
<path fill="none" stroke="midnightblue" d="M288.929,-60.3278C240.303,-49.8043 158.479,-32.0962 107.232,-21.0054"/>
<polygon fill="midnightblue" stroke="midnightblue" points="288.264,-63.7649 298.778,-62.4594 289.745,-56.9233 288.264,-63.7649"/>
</g>
<!-- Node3 -->
<g id="node5" class="node"><title>Node3</title>
<a xlink:href="_settings_menu_scene_8cpp.html" target="_top" xlink:title="SettingsMenuScene.cpp">
<polygon fill="none" stroke="black" points="140,-1 140,-21 262,-21 262,-1 140,-1"/>
<text text-anchor="middle" x="201" y="-8" font-family="FreeSans" font-size="10.00">SettingsMenuScene.cpp</text>
</a>
</g>
<!-- Node1&#45;&gt;Node3 -->
<g id="edge4" class="edge"><title>Node1&#45;&gt;Node3</title>
<path fill="none" stroke="midnightblue" d="M297.384,-54.674C274.441,-44.2778 243.958,-30.4654 223.47,-21.1817"/>
<polygon fill="midnightblue" stroke="midnightblue" points="296.151,-57.9578 306.704,-58.8972 299.04,-51.5818 296.151,-57.9578"/>
</g>
<!-- Node4 -->
<g id="node7" class="node"><title>Node4</title>
<a xlink:href="_test_lab_scene_8cpp.html" target="_top" xlink:title="TestLabScene.cpp">
<polygon fill="none" stroke="black" points="280,-1 280,-21 378,-21 378,-1 280,-1"/>
<text text-anchor="middle" x="329" y="-8" font-family="FreeSans" font-size="10.00">TestLabScene.cpp</text>
</a>
</g>
<!-- Node1&#45;&gt;Node4 -->
<g id="edge6" class="edge"><title>Node1&#45;&gt;Node4</title>
<path fill="none" stroke="midnightblue" d="M329,-48.8902C329,-39.6201 329,-29.0083 329,-21.3776"/>
<polygon fill="midnightblue" stroke="midnightblue" points="325.5,-48.8971 329,-58.8972 332.5,-48.8972 325.5,-48.8971"/>
</g>
<!-- Node5 -->
<g id="node9" class="node"><title>Node5</title>
<a xlink:href="_track_select_scene_8cpp.html" target="_top" xlink:title="TrackSelectScene.cpp">
<polygon fill="none" stroke="black" points="395.5,-1 395.5,-21 510.5,-21 510.5,-1 395.5,-1"/>
<text text-anchor="middle" x="453" y="-8" font-family="FreeSans" font-size="10.00">TrackSelectScene.cpp</text>
</a>
</g>
<!-- Node1&#45;&gt;Node5 -->
<g id="edge8" class="edge"><title>Node1&#45;&gt;Node5</title>
<path fill="none" stroke="midnightblue" d="M359.926,-54.5345C382.118,-44.1545 411.473,-30.424 431.232,-21.1817"/>
<polygon fill="midnightblue" stroke="midnightblue" points="358.174,-51.4899 350.599,-58.8972 361.14,-57.8306 358.174,-51.4899"/>
</g>
<!-- Node6 -->
<g id="node11" class="node"><title>Node6</title>
<a xlink:href="_flex_grid_8cpp.html" target="_top" xlink:title="FlexGrid.cpp">
<polygon fill="none" stroke="black" points="527.5,-1 527.5,-21 598.5,-21 598.5,-1 527.5,-1"/>
<text text-anchor="middle" x="563" y="-8" font-family="FreeSans" font-size="10.00">FlexGrid.cpp</text>
</a>
</g>
<!-- Node1&#45;&gt;Node6 -->
<g id="edge10" class="edge"><title>Node1&#45;&gt;Node6</title>
<path fill="none" stroke="midnightblue" d="M369.059,-59.1211C407.517,-49.6302 467.237,-34.8727 519,-22 521.751,-21.3159 524.598,-20.6067 527.46,-19.8929"/>
<polygon fill="midnightblue" stroke="midnightblue" points="368.15,-55.7404 359.28,-61.5342 369.827,-62.5366 368.15,-55.7404"/>
</g>
</g>
</svg>
