<?xml version="1.0" encoding="UTF-8" standalone="no"?>
<!DOCTYPE svg PUBLIC "-//W3C//DTD SVG 1.1//EN"
 "http://www.w3.org/Graphics/SVG/1.1/DTD/svg11.dtd">
<!-- Generated by graphviz version 2.26.3 (20100126.1600)
 -->
<!-- Title: FormScene.h Pages: 1 -->
<!--zoomable 204 -->
<svg id="main" version="1.1" xmlns="http://www.w3.org/2000/svg" xmlns:xlink="http://www.w3.org/1999/xlink" xml:space="preserve" onload="init(evt)">
<style type="text/css"><![CDATA[
.edge:hover path { stroke: red; }
.edge:hover polygon { stroke: red; fill: red; }
]]></style>
<script type="text/javascript"><![CDATA[
var edges = document.getElementsByTagName('g');
if (edges && edges.length) {
  for (var i=0;i<edges.length;i++) {
    if (edges[i].id.substr(0,4)=='edge') {
      edges[i].setAttribute('class','edge');
    }
  }
}
]]></script>
        <defs>
                <circle id="rim" cx="0" cy="0" r="7"/>
                <circle id="rim2" cx="0" cy="0" r="3.5"/>
                <g id="zoomPlus">
                        <use xlink:href="#rim" fill="#404040">
                                <set attributeName="fill" to="#808080" begin="zoomplus.mouseover" end="zoomplus.mouseout"/>
                        </use>
                        <path d="M-4,0h8M0,-4v8" fill="none" stroke="white" stroke-width="1.5" pointer-events="none"/>
                </g>
                <g id="zoomMin">
                        <use xlink:href="#rim" fill="#404040">
                                <set attributeName="fill" to="#808080" begin="zoomminus.mouseover" end="zoomminus.mouseout"/>
                        </use>
                        <path d="M-4,0h8" fill="none" stroke="white" stroke-width="1.5" pointer-events="none"/>
                </g>
                <g id="dirArrow">
                        <path fill="none" stroke="white" stroke-width="1.5" d="M0,-3.0v7 M-2.5,-0.5L0,-3.0L2.5,-0.5"/>
                </g>
               <g id="resetDef">
                       <use xlink:href="#rim2" fill="#404040">
                               <set attributeName="fill" to="#808080" begin="reset.mouseover" end="reset.mouseout"/>
                       </use>
               </g>
        </defs>

<script type="text/javascript">
var viewWidth = 1453;
var viewHeight = 204;
var sectionId = 'dynsection-1';
</script>
<script xlink:href="svgpan.js"/>
<svg id="graph" class="graph">
<g id="viewport">
<title>FormScene.h</title>
<!-- Node1 -->
<g id="node1" class="node"><title>Node1</title>
<polygon fill="#bfbfbf" stroke="black" points="959,-175 959,-195 1033,-195 1033,-175 959,-175"/>
<text text-anchor="middle" x="996" y="-182" font-family="FreeSans" font-size="10.00">FormScene.h</text>
</g>
<!-- Node2 -->
<g id="node3" class="node"><title>Node2</title>
<a xlink:href="_dialog_scene_8h.html" target="_top" xlink:title="DialogScene.h">
<polygon fill="none" stroke="black" points="383.5,-117 383.5,-137 462.5,-137 462.5,-117 383.5,-117"/>
<text text-anchor="middle" x="423" y="-124" font-family="FreeSans" font-size="10.00">DialogScene.h</text>
</a>
</g>
<!-- Node1&#45;&gt;Node2 -->
<g id="edge2" class="edge"><title>Node1&#45;&gt;Node2</title>
<path fill="none" stroke="midnightblue" d="M948.678,-180.21C838.257,-169.033 565.194,-141.393 462.711,-131.02"/>
<polygon fill="midnightblue" stroke="midnightblue" points="948.544,-183.714 958.845,-181.239 949.249,-176.75 948.544,-183.714"/>
</g>
<!-- Node15 -->
<g id="node33" class="node"><title>Node15</title>
<a xlink:href="_main_menu_scene_8h.html" target="_top" xlink:title="MainMenuScene.h">
<polygon fill="none" stroke="black" points="781.5,-117 781.5,-137 878.5,-137 878.5,-117 781.5,-117"/>
<text text-anchor="middle" x="830" y="-124" font-family="FreeSans" font-size="10.00">MainMenuScene.h</text>
</a>
</g>
<!-- Node1&#45;&gt;Node15 -->
<g id="edge36" class="edge"><title>Node1&#45;&gt;Node15</title>
<path fill="none" stroke="midnightblue" d="M957.336,-171.491C927.24,-160.975 886.134,-146.613 858.862,-137.084"/>
<polygon fill="midnightblue" stroke="midnightblue" points="956.49,-174.903 967.085,-174.897 958.799,-168.295 956.49,-174.903"/>
</g>
<!-- Node17 -->
<g id="node38" class="node"><title>Node17</title>
<a xlink:href="_message_scene_8h.html" target="_top" xlink:title="MessageScene.h">
<polygon fill="none" stroke="black" points="896,-117 896,-137 988,-137 988,-117 896,-117"/>
<text text-anchor="middle" x="942" y="-124" font-family="FreeSans" font-size="10.00">MessageScene.h</text>
</a>
</g>
<!-- Node1&#45;&gt;Node17 -->
<g id="edge42" class="edge"><title>Node1&#45;&gt;Node17</title>
<path fill="none" stroke="midnightblue" d="M979.77,-167.568C970.606,-157.725 959.461,-145.755 951.662,-137.378"/>
<polygon fill="midnightblue" stroke="midnightblue" points="977.218,-169.963 986.594,-174.897 982.341,-165.193 977.218,-169.963"/>
</g>
<!-- Node21 -->
<g id="node47" class="node"><title>Node21</title>
<a xlink:href="_test_lab_scene_8h.html" target="_top" xlink:title="TestLabScene.h">
<polygon fill="none" stroke="black" points="1006,-117 1006,-137 1094,-137 1094,-117 1006,-117"/>
<text text-anchor="middle" x="1050" y="-124" font-family="FreeSans" font-size="10.00">TestLabScene.h</text>
</a>
</g>
<!-- Node1&#45;&gt;Node21 -->
<g id="edge52" class="edge"><title>Node1&#45;&gt;Node21</title>
<path fill="none" stroke="midnightblue" d="M1012.23,-167.568C1021.39,-157.725 1032.54,-145.755 1040.34,-137.378"/>
<polygon fill="midnightblue" stroke="midnightblue" points="1009.66,-165.193 1005.41,-174.897 1014.78,-169.963 1009.66,-165.193"/>
</g>
<!-- Node23 -->
<g id="node53" class="node"><title>Node23</title>
<a xlink:href="_form_scene_8cpp.html" target="_top" xlink:title="FormScene.cpp">
<polygon fill="none" stroke="black" points="1111.5,-117 1111.5,-137 1196.5,-137 1196.5,-117 1111.5,-117"/>
<text text-anchor="middle" x="1154" y="-124" font-family="FreeSans" font-size="10.00">FormScene.cpp</text>
</a>
</g>
<!-- Node1&#45;&gt;Node23 -->
<g id="edge60" class="edge"><title>Node1&#45;&gt;Node23</title>
<path fill="none" stroke="midnightblue" d="M1033.17,-171.354C1061.79,-160.85 1100.68,-146.572 1126.53,-137.084"/>
<polygon fill="midnightblue" stroke="midnightblue" points="1031.7,-168.165 1023.52,-174.897 1034.12,-174.737 1031.7,-168.165"/>
</g>
<!-- Node24 -->
<g id="node55" class="node"><title>Node24</title>
<a xlink:href="_pause_menu_scene_8h.html" target="_top" xlink:title="PauseMenuScene.h">
<polygon fill="none" stroke="black" points="1214,-117 1214,-137 1318,-137 1318,-117 1214,-117"/>
<text text-anchor="middle" x="1266" y="-124" font-family="FreeSans" font-size="10.00">PauseMenuScene.h</text>
</a>
</g>
<!-- Node1&#45;&gt;Node24 -->
<g id="edge62" class="edge"><title>Node1&#45;&gt;Node24</title>
<path fill="none" stroke="midnightblue" d="M1043.06,-174.89C1092.5,-164.269 1169.8,-147.664 1219.16,-137.062"/>
<polygon fill="midnightblue" stroke="midnightblue" points="1042.3,-171.474 1033.26,-176.996 1043.77,-178.318 1042.3,-171.474"/>
</g>
<!-- Node3 -->
<g id="node5" class="node"><title>Node3</title>
<a xlink:href="_audio_settings_scene_8h.html" target="_top" xlink:title="AudioSettingsScene.h">
<polygon fill="none" stroke="black" points="664.5,-59 664.5,-79 777.5,-79 777.5,-59 664.5,-59"/>
<text text-anchor="middle" x="721" y="-66" font-family="FreeSans" font-size="10.00">AudioSettingsScene.h</text>
</a>
</g>
<!-- Node2&#45;&gt;Node3 -->
<g id="edge4" class="edge"><title>Node2&#45;&gt;Node3</title>
<path fill="none" stroke="midnightblue" d="M472.689,-117.329C527.204,-106.719 614.281,-89.7707 669.504,-79.0228"/>
<polygon fill="midnightblue" stroke="midnightblue" points="471.719,-113.952 462.572,-119.298 473.057,-120.823 471.719,-113.952"/>
</g>
<!-- Node6 -->
<g id="node11" class="node"><title>Node6</title>
<a xlink:href="_dialog_scene_8cpp.html" target="_top" xlink:title="DialogScene.cpp">
<polygon fill="none" stroke="black" points="260.5,-59 260.5,-79 349.5,-79 349.5,-59 260.5,-59"/>
<text text-anchor="middle" x="305" y="-66" font-family="FreeSans" font-size="10.00">DialogScene.cpp</text>
</a>
</g>
<!-- Node2&#45;&gt;Node6 -->
<g id="edge10" class="edge"><title>Node2&#45;&gt;Node6</title>
<path fill="none" stroke="midnightblue" d="M393.286,-112.395C372.202,-102.031 344.433,-88.3825 325.714,-79.1817"/>
<polygon fill="midnightblue" stroke="midnightblue" points="391.928,-115.627 402.446,-116.897 395.015,-109.345 391.928,-115.627"/>
</g>
<!-- Node7 -->
<g id="node13" class="node"><title>Node7</title>
<a xlink:href="_track_select_scene_8h.html" target="_top" xlink:title="TrackSelectScene.h">
<polygon fill="none" stroke="black" points="15,-59 15,-79 119,-79 119,-59 15,-59"/>
<text text-anchor="middle" x="67" y="-66" font-family="FreeSans" font-size="10.00">TrackSelectScene.h</text>
</a>
</g>
<!-- Node2&#45;&gt;Node7 -->
<g id="edge12" class="edge"><title>Node2&#45;&gt;Node7</title>
<path fill="none" stroke="midnightblue" d="M373.248,-119.391C314.565,-110.342 214.096,-94.6198 128,-80 125.136,-79.5136 122.197,-79.0074 119.231,-78.4911"/>
<polygon fill="midnightblue" stroke="midnightblue" points="372.938,-122.884 383.354,-120.947 374.003,-115.966 372.938,-122.884"/>
</g>
<!-- Node10 -->
<g id="node19" class="node"><title>Node10</title>
<a xlink:href="_game_select_scene_8h.html" target="_top" xlink:title="GameSelectScene.h">
<polygon fill="none" stroke="black" points="137,-59 137,-79 243,-79 243,-59 137,-59"/>
<text text-anchor="middle" x="190" y="-66" font-family="FreeSans" font-size="10.00">GameSelectScene.h</text>
</a>
</g>
<!-- Node2&#45;&gt;Node10 -->
<g id="edge18" class="edge"><title>Node2&#45;&gt;Node10</title>
<path fill="none" stroke="midnightblue" d="M373.602,-114.704C331.015,-104.102 270.275,-88.9827 230.502,-79.0821"/>
<polygon fill="midnightblue" stroke="midnightblue" points="372.925,-118.142 383.475,-117.161 374.616,-111.349 372.925,-118.142"/>
</g>
<!-- Node12 -->
<g id="node24" class="node"><title>Node12</title>
<a xlink:href="_practice_setup_scene_8h.html" target="_top" xlink:title="PracticeSetupScene.h">
<polygon fill="none" stroke="black" points="366.5,-59 366.5,-79 479.5,-79 479.5,-59 366.5,-59"/>
<text text-anchor="middle" x="423" y="-66" font-family="FreeSans" font-size="10.00">PracticeSetupScene.h</text>
</a>
</g>
<!-- Node2&#45;&gt;Node12 -->
<g id="edge24" class="edge"><title>Node2&#45;&gt;Node12</title>
<path fill="none" stroke="midnightblue" d="M423,-106.89C423,-97.6201 423,-87.0083 423,-79.3776"/>
<polygon fill="midnightblue" stroke="midnightblue" points="419.5,-106.897 423,-116.897 426.5,-106.897 419.5,-106.897"/>
</g>
<!-- Node14 -->
<g id="node29" class="node"><title>Node14</title>
<a xlink:href="_settings_menu_scene_8h.html" target="_top" xlink:title="SettingsMenuScene.h">
<polygon fill="none" stroke="black" points="497,-59 497,-79 609,-79 609,-59 497,-59"/>
<text text-anchor="middle" x="553" y="-66" font-family="FreeSans" font-size="10.00">SettingsMenuScene.h</text>
</a>
</g>
<!-- Node2&#45;&gt;Node14 -->
<g id="edge30" class="edge"><title>Node2&#45;&gt;Node14</title>
<path fill="none" stroke="midnightblue" d="M454.798,-112.813C478.135,-102.401 509.278,-88.5069 530.179,-79.1817"/>
<polygon fill="midnightblue" stroke="midnightblue" points="453.351,-109.626 445.644,-116.897 456.203,-116.019 453.351,-109.626"/>
</g>
<!-- Node4 -->
<g id="node7" class="node"><title>Node4</title>
<a xlink:href="_audio_settings_scene_8cpp.html" target="_top" xlink:title="AudioSettingsScene.cpp">
<polygon fill="none" stroke="black" points="740.5,-1 740.5,-21 863.5,-21 863.5,-1 740.5,-1"/>
<text text-anchor="middle" x="802" y="-8" font-family="FreeSans" font-size="10.00">AudioSettingsScene.cpp</text>
</a>
</g>
<!-- Node3&#45;&gt;Node4 -->
<g id="edge6" class="edge"><title>Node3&#45;&gt;Node4</title>
<path fill="none" stroke="midnightblue" d="M743.38,-52.975C757.574,-42.8109 775.51,-29.9681 787.781,-21.1817"/>
<polygon fill="midnightblue" stroke="midnightblue" points="741.202,-50.2296 735.109,-58.8972 745.277,-55.921 741.202,-50.2296"/>
</g>
<!-- Node5 -->
<g id="node9" class="node"><title>Node5</title>
<a xlink:href="_settings_menu_scene_8cpp.html" target="_top" xlink:title="SettingsMenuScene.cpp">
<polygon fill="none" stroke="black" points="601,-1 601,-21 723,-21 723,-1 601,-1"/>
<text text-anchor="middle" x="662" y="-8" font-family="FreeSans" font-size="10.00">SettingsMenuScene.cpp</text>
</a>
</g>
<!-- Node3&#45;&gt;Node5 -->
<g id="edge8" class="edge"><title>Node3&#45;&gt;Node5</title>
<path fill="none" stroke="midnightblue" d="M703.564,-51.86C693.496,-41.9622 681.162,-29.8377 672.557,-21.3776"/>
<polygon fill="midnightblue" stroke="midnightblue" points="701.138,-54.3827 710.723,-58.8972 706.045,-49.3908 701.138,-54.3827"/>
</g>
<!-- Node8 -->
<g id="node15" class="node"><title>Node8</title>
<a xlink:href="_game_select_scene_8cpp.html" target="_top" xlink:title="GameSelectScene.cpp">
<polygon fill="none" stroke="black" points="132,-1 132,-21 248,-21 248,-1 132,-1"/>
<text text-anchor="middle" x="190" y="-8" font-family="FreeSans" font-size="10.00">GameSelectScene.cpp</text>
</a>
</g>
<!-- Node7&#45;&gt;Node8 -->
<g id="edge14" class="edge"><title>Node7&#45;&gt;Node8</title>
<path fill="none" stroke="midnightblue" d="M97.6768,-54.5345C119.69,-44.1545 148.808,-30.424 168.408,-21.1817"/>
<polygon fill="midnightblue" stroke="midnightblue" points="95.977,-51.4664 88.425,-58.8972 98.9626,-57.7978 95.977,-51.4664"/>
</g>
<!-- Node9 -->
<g id="node17" class="node"><title>Node9</title>
<a xlink:href="_track_select_scene_8cpp.html" target="_top" xlink:title="TrackSelectScene.cpp">
<polygon fill="none" stroke="black" points="-0.5,-1 -0.5,-21 114.5,-21 114.5,-1 -0.5,-1"/>
<text text-anchor="middle" x="57" y="-8" font-family="FreeSans" font-size="10.00">TrackSelectScene.cpp</text>
</a>
</g>
<!-- Node7&#45;&gt;Node9 -->
<g id="edge16" class="edge"><title>Node7&#45;&gt;Node9</title>
<path fill="none" stroke="midnightblue" d="M63.5328,-48.8902C61.9345,-39.6201 60.1049,-29.0083 58.7892,-21.3776"/>
<polygon fill="midnightblue" stroke="midnightblue" points="60.1099,-49.6373 65.2581,-58.8972 67.0081,-48.4479 60.1099,-49.6373"/>
</g>
<!-- Node10&#45;&gt;Node8 -->
<g id="edge20" class="edge"><title>Node10&#45;&gt;Node8</title>
<path fill="none" stroke="midnightblue" d="M190,-48.8902C190,-39.6201 190,-29.0083 190,-21.3776"/>
<polygon fill="midnightblue" stroke="midnightblue" points="186.5,-48.8971 190,-58.8972 193.5,-48.8972 186.5,-48.8971"/>
</g>
<!-- Node11 -->
<g id="node22" class="node"><title>Node11</title>
<a xlink:href="_practice_setup_scene_8cpp.html" target="_top" xlink:title="PracticeSetupScene.cpp">
<polygon fill="none" stroke="black" points="312,-1 312,-21 436,-21 436,-1 312,-1"/>
<text text-anchor="middle" x="374" y="-8" font-family="FreeSans" font-size="10.00">PracticeSetupScene.cpp</text>
</a>
</g>
<!-- Node10&#45;&gt;Node11 -->
<g id="edge22" class="edge"><title>Node10&#45;&gt;Node11</title>
<path fill="none" stroke="midnightblue" d="M231.989,-55.7644C265.423,-45.2254 311.516,-30.6959 342.009,-21.0842"/>
<polygon fill="midnightblue" stroke="midnightblue" points="230.536,-52.5527 222.05,-58.8972 232.64,-59.2288 230.536,-52.5527"/>
</g>
<!-- Node12&#45;&gt;Node11 -->
<g id="edge28" class="edge"><title>Node12&#45;&gt;Node11</title>
<path fill="none" stroke="midnightblue" d="M407.777,-50.981C399.558,-41.2522 389.704,-29.5889 382.767,-21.3776"/>
<polygon fill="midnightblue" stroke="midnightblue" points="405.338,-53.517 414.465,-58.8972 410.685,-48.9995 405.338,-53.517"/>
</g>
<!-- Node13 -->
<g id="node26" class="node"><title>Node13</title>
<a xlink:href="_main_menu_scene_8cpp.html" target="_top" xlink:title="MainMenuScene.cpp">
<polygon fill="none" stroke="black" points="476.5,-1 476.5,-21 583.5,-21 583.5,-1 476.5,-1"/>
<text text-anchor="middle" x="530" y="-8" font-family="FreeSans" font-size="10.00">MainMenuScene.cpp</text>
</a>
</g>
<!-- Node12&#45;&gt;Node13 -->
<g id="edge26" class="edge"><title>Node12&#45;&gt;Node13</title>
<path fill="none" stroke="midnightblue" d="M450.462,-54.1138C469.516,-43.7859 494.395,-30.2996 511.217,-21.1817"/>
<polygon fill="midnightblue" stroke="midnightblue" points="448.762,-51.0546 441.638,-58.8972 452.097,-57.2087 448.762,-51.0546"/>
</g>
<!-- Node14&#45;&gt;Node5 -->
<g id="edge34" class="edge"><title>Node14&#45;&gt;Node5</title>
<path fill="none" stroke="midnightblue" d="M580.976,-54.1138C600.385,-43.7859 625.73,-30.2996 642.865,-21.1817"/>
<polygon fill="midnightblue" stroke="midnightblue" points="579.17,-51.1098 571.986,-58.8972 582.459,-57.2895 579.17,-51.1098"/>
</g>
<!-- Node14&#45;&gt;Node13 -->
<g id="edge32" class="edge"><title>Node14&#45;&gt;Node13</title>
<path fill="none" stroke="midnightblue" d="M545.264,-49.4928C541.533,-40.0829 537.207,-29.1742 534.115,-21.3776"/>
<polygon fill="midnightblue" stroke="midnightblue" points="542.054,-50.8916 548.994,-58.8972 548.561,-48.3112 542.054,-50.8916"/>
</g>
<!-- Node15&#45;&gt;Node13 -->
<g id="edge40" class="edge"><title>Node15&#45;&gt;Node13</title>
<path fill="none" stroke="midnightblue" d="M771.365,-115.186C737.014,-107.281 693.206,-95.4815 656,-80 637.982,-72.5029 635.054,-67.4871 618,-58 594.539,-44.9488 567.228,-30.4719 549.329,-21.0803"/>
<polygon fill="midnightblue" stroke="midnightblue" points="770.721,-118.628 781.246,-117.412 772.26,-111.799 770.721,-118.628"/>
</g>
<!-- Node16 -->
<g id="node35" class="node"><title>Node16</title>
<a xlink:href="_client_app_8cpp.html" target="_top" xlink:title="ClientApp.cpp">
<polygon fill="none" stroke="black" points="794.5,-59 794.5,-79 871.5,-79 871.5,-59 794.5,-59"/>
<text text-anchor="middle" x="833" y="-66" font-family="FreeSans" font-size="10.00">ClientApp.cpp</text>
</a>
</g>
<!-- Node15&#45;&gt;Node16 -->
<g id="edge38" class="edge"><title>Node15&#45;&gt;Node16</title>
<path fill="none" stroke="midnightblue" d="M831.04,-106.89C831.52,-97.6201 832.069,-87.0083 832.463,-79.3776"/>
<polygon fill="midnightblue" stroke="midnightblue" points="827.544,-106.73 830.523,-116.897 834.535,-107.091 827.544,-106.73"/>
</g>
<!-- Node17&#45;&gt;Node16 -->
<g id="edge44" class="edge"><title>Node17&#45;&gt;Node16</title>
<path fill="none" stroke="midnightblue" d="M914.024,-112.114C894.615,-101.786 869.27,-88.2996 852.135,-79.1817"/>
<polygon fill="midnightblue" stroke="midnightblue" points="912.541,-115.289 923.014,-116.897 915.83,-109.11 912.541,-115.289"/>
</g>
<!-- Node18 -->
<g id="node41" class="node"><title>Node18</title>
<a xlink:href="_message_scene_8cpp.html" target="_top" xlink:title="MessageScene.cpp">
<polygon fill="none" stroke="black" points="889,-59 889,-79 991,-79 991,-59 889,-59"/>
<text text-anchor="middle" x="940" y="-66" font-family="FreeSans" font-size="10.00">MessageScene.cpp</text>
</a>
</g>
<!-- Node17&#45;&gt;Node18 -->
<g id="edge46" class="edge"><title>Node17&#45;&gt;Node18</title>
<path fill="none" stroke="midnightblue" d="M941.307,-106.89C940.987,-97.6201 940.621,-87.0083 940.358,-79.3776"/>
<polygon fill="midnightblue" stroke="midnightblue" points="937.809,-107.024 941.652,-116.897 944.805,-106.782 937.809,-107.024"/>
</g>
<!-- Node19 -->
<g id="node43" class="node"><title>Node19</title>
<a xlink:href="_pause_menu_scene_8cpp.html" target="_top" xlink:title="PauseMenuScene.cpp">
<polygon fill="none" stroke="black" points="1125,-59 1125,-79 1239,-79 1239,-59 1125,-59"/>
<text text-anchor="middle" x="1182" y="-66" font-family="FreeSans" font-size="10.00">PauseMenuScene.cpp</text>
</a>
</g>
<!-- Node17&#45;&gt;Node19 -->
<g id="edge48" class="edge"><title>Node17&#45;&gt;Node19</title>
<path fill="none" stroke="midnightblue" d="M993.445,-114.567C1037.39,-103.948 1099.79,-88.8678 1140.58,-79.0108"/>
<polygon fill="midnightblue" stroke="midnightblue" points="992.429,-111.212 983.531,-116.963 994.073,-118.016 992.429,-111.212"/>
</g>
<!-- Node20 -->
<g id="node45" class="node"><title>Node20</title>
<a xlink:href="_test_lab_scene_8cpp.html" target="_top" xlink:title="TestLabScene.cpp">
<polygon fill="none" stroke="black" points="1009,-59 1009,-79 1107,-79 1107,-59 1009,-59"/>
<text text-anchor="middle" x="1058" y="-66" font-family="FreeSans" font-size="10.00">TestLabScene.cpp</text>
</a>
</g>
<!-- Node17&#45;&gt;Node20 -->
<g id="edge50" class="edge"><title>Node17&#45;&gt;Node20</title>
<path fill="none" stroke="midnightblue" d="M971.211,-112.395C991.937,-102.031 1019.23,-88.3825 1037.64,-79.1817"/>
<polygon fill="midnightblue" stroke="midnightblue" points="969.585,-109.294 962.206,-116.897 972.715,-115.555 969.585,-109.294"/>
</g>
<!-- Node21&#45;&gt;Node16 -->
<g id="edge54" class="edge"><title>Node21&#45;&gt;Node16</title>
<path fill="none" stroke="midnightblue" d="M1002.51,-114.306C962.93,-103.728 907.31,-88.8616 870.729,-79.0842"/>
<polygon fill="midnightblue" stroke="midnightblue" points="1001.64,-117.696 1012.2,-116.897 1003.44,-110.934 1001.64,-117.696"/>
</g>
<!-- Node21&#45;&gt;Node20 -->
<g id="edge56" class="edge"><title>Node21&#45;&gt;Node20</title>
<path fill="none" stroke="midnightblue" d="M1052.77,-106.89C1054.05,-97.6201 1055.52,-87.0083 1056.57,-79.3776"/>
<polygon fill="midnightblue" stroke="midnightblue" points="1049.29,-106.513 1051.39,-116.897 1056.23,-107.469 1049.29,-106.513"/>
</g>
<!-- Node22 -->
<g id="node51" class="node"><title>Node22</title>
<a xlink:href="_debug_peer_8cpp.html" target="_top" xlink:title="DebugPeer.cpp">
<polygon fill="none" stroke="black" points="1256.5,-59 1256.5,-79 1339.5,-79 1339.5,-59 1256.5,-59"/>
<text text-anchor="middle" x="1298" y="-66" font-family="FreeSans" font-size="10.00">DebugPeer.cpp</text>
</a>
</g>
<!-- Node21&#45;&gt;Node22 -->
<g id="edge58" class="edge"><title>Node21&#45;&gt;Node22</title>
<path fill="none" stroke="midnightblue" d="M1102.68,-114.68C1148.56,-103.95 1214.17,-88.6045 1256.44,-78.7208"/>
<polygon fill="midnightblue" stroke="midnightblue" points="1101.86,-111.278 1092.92,-116.963 1103.45,-118.094 1101.86,-111.278"/>
</g>
<!-- Node24&#45;&gt;Node19 -->
<g id="edge66" class="edge"><title>Node24&#45;&gt;Node19</title>
<path fill="none" stroke="midnightblue" d="M1242.79,-110.975C1228.07,-100.811 1209.47,-87.9681 1196.75,-79.1817"/>
<polygon fill="midnightblue" stroke="midnightblue" points="1241.15,-114.095 1251.37,-116.897 1245.13,-108.335 1241.15,-114.095"/>
</g>
<!-- Node25 -->
<g id="node57" class="node"><title>Node25</title>
<a xlink:href="_game_scene_8cpp.html" target="_top" xlink:title="GameScene.cpp">
<polygon fill="none" stroke="black" points="1356.5,-59 1356.5,-79 1445.5,-79 1445.5,-59 1356.5,-59"/>
<text text-anchor="middle" x="1401" y="-66" font-family="FreeSans" font-size="10.00">GameScene.cpp</text>
</a>
</g>
<!-- Node24&#45;&gt;Node25 -->
<g id="edge64" class="edge"><title>Node24&#45;&gt;Node25</title>
<path fill="none" stroke="midnightblue" d="M1299.02,-112.813C1323.26,-102.401 1355.6,-88.5069 1377.3,-79.1817"/>
<polygon fill="midnightblue" stroke="midnightblue" points="1297.32,-109.734 1289.52,-116.897 1300.08,-116.165 1297.32,-109.734"/>
</g>
</g>
</svg>
        <g id="navigator" transform="translate(0 0)" fill="#404254">
                <rect fill="#f2f5e9" fill-opacity="0.5" stroke="#606060" stroke-width=".5" x="0" y="0" width="60" height="60"/>
                <use id="zoomplus" xlink:href="#zoomPlus" x="17" y="9" onmousedown="handleZoom(evt,'in')"/>
                <use id="zoomminus" xlink:href="#zoomMin" x="42" y="9" onmousedown="handleZoom(evt,'out')"/>
                <use id="reset" xlink:href="#resetDef" x="30" y="36" onmousedown="handleReset()"/>
                <g id="arrowUp" xlink:href="#dirArrow" transform="translate(30 24)" onmousedown="handlePan(0,-1)">
                  <use xlink:href="#rim" fill="#404040">
                        <set attributeName="fill" to="#808080" begin="arrowUp.mouseover" end="arrowUp.mouseout"/>
                  </use>
                  <path fill="none" stroke="white" stroke-width="1.5" d="M0,-3.0v7 M-2.5,-0.5L0,-3.0L2.5,-0.5"/>
                </g>
                <g id="arrowRight" xlink:href="#dirArrow" transform="rotate(90) translate(36 -43)" onmousedown="handlePan(1,0)">
                  <use xlink:href="#rim" fill="#404040">
                        <set attributeName="fill" to="#808080" begin="arrowRight.mouseover" end="arrowRight.mouseout"/>
                  </use>
                  <path fill="none" stroke="white" stroke-width="1.5" d="M0,-3.0v7 M-2.5,-0.5L0,-3.0L2.5,-0.5"/>
                </g>
                <g id="arrowDown" xlink:href="#dirArrow" transform="rotate(180) translate(-30 -48)" onmousedown="handlePan(0,1)">
                  <use xlink:href="#rim" fill="#404040">
                        <set attributeName="fill" to="#808080" begin="arrowDown.mouseover" end="arrowDown.mouseout"/>
                  </use>
                  <path fill="none" stroke="white" stroke-width="1.5" d="M0,-3.0v7 M-2.5,-0.5L0,-3.0L2.5,-0.5"/>
                </g>
                <g id="arrowLeft" xlink:href="#dirArrow" transform="rotate(270) translate(-36 17)" onmousedown="handlePan(-1,0)">
                  <use xlink:href="#rim" fill="#404040">
                        <set attributeName="fill" to="#808080" begin="arrowLeft.mouseover" end="arrowLeft.mouseout"/>
                  </use>
                  <path fill="none" stroke="white" stroke-width="1.5" d="M0,-3.0v7 M-2.5,-0.5L0,-3.0L2.5,-0.5"/>
                </g>
        </g>
        <svg viewBox="0 0 15 15" width="100%" height="30px" preserveAspectRatio="xMaxYMin meet">
         <g id="arrow_out" transform="scale(0.3 0.3)">
          <a xlink:href="_form_scene_8h__dep__incl_org.svg" target="_base">
           <rect id="button" ry="5" rx="5" y="6" x="6" height="38" width="38"
                fill="#f2f5e9" fill-opacity="0.5" stroke="#606060" stroke-width="1.0"/>
           <path id="arrow"
             d="M 11.500037,31.436501 C 11.940474,20.09759 22.043105,11.32322 32.158766,21.979434 L 37.068811,17.246167 C 37.068811,17.246167 37.088388,32 37.088388,32 L 22.160133,31.978069 C 22.160133,31.978069 26.997745,27.140456 26.997745,27.140456 C 18.528582,18.264221 13.291696,25.230495 11.500037,31.436501 z"
             style="fill:#404040;"/>
          </a>
         </g>
        </svg>
</svg>
