<?xml version="1.0" encoding="UTF-8" standalone="no"?>
<!DOCTYPE svg PUBLIC "-//W3C//DTD SVG 1.1//EN"
 "http://www.w3.org/Graphics/SVG/1.1/DTD/svg11.dtd">
<!-- Generated by graphviz version 2.26.3 (20100126.1600)
 -->
<!-- Title: FormScene.cpp Pages: 1 -->
<svg width="1041pt" height="634pt"
 viewBox="0.00 0.00 1041.00 634.00" xmlns="http://www.w3.org/2000/svg" xmlns:xlink="http://www.w3.org/1999/xlink">
<g id="graph1" class="graph" transform="scale(1 1) rotate(0) translate(4 630)">
<title>FormScene.cpp</title>
<!-- Node1 -->
<g id="node1" class="node"><title>Node1</title>
<polygon fill="#bfbfbf" stroke="black" points="428.5,-605 428.5,-625 513.5,-625 513.5,-605 428.5,-605"/>
<text text-anchor="middle" x="471" y="-612" font-family="FreeSans" font-size="10.00">FormScene.cpp</text>
</g>
<!-- Node2 -->
<g id="node3" class="node"><title>Node2</title>
<a xlink:href="_log_8h.html" target="_top" xlink:title="../../engine/Util/Log.h">
<polygon fill="none" stroke="black" points="313.5,-541 313.5,-561 418.5,-561 418.5,-541 313.5,-541"/>
<text text-anchor="middle" x="366" y="-548" font-family="FreeSans" font-size="10.00">../../engine/Util/Log.h</text>
</a>
</g>
<!-- Node1&#45;&gt;Node2 -->
<g id="edge2" class="edge"><title>Node1&#45;&gt;Node2</title>
<path fill="none" stroke="midnightblue" d="M454.13,-604.717C437.115,-594.346 410.645,-578.212 391.153,-566.331"/>
<polygon fill="midnightblue" stroke="midnightblue" points="392.843,-563.262 382.482,-561.046 389.199,-569.239 392.843,-563.262"/>
</g>
<!-- Node4 -->
<g id="node7" class="node"><title>Node4</title>
<a xlink:href="_controller_8h.html" target="_top" xlink:title="../../engine/Control\l/Controller.h">
<polygon fill="none" stroke="black" points="169,-291 169,-323 263,-323 263,-291 169,-291"/>
<text text-anchor="start" x="177" y="-310" font-family="FreeSans" font-size="10.00">../../engine/Control</text>
<text text-anchor="middle" x="216" y="-298" font-family="FreeSans" font-size="10.00">/Controller.h</text>
</a>
</g>
<!-- Node1&#45;&gt;Node4 -->
<g id="edge6" class="edge"><title>Node1&#45;&gt;Node4</title>
<path fill="none" stroke="midnightblue" d="M467.628,-604.845C460.804,-583.359 446,-531.605 446,-487 446,-487 446,-487 446,-429 446,-350.967 341.403,-322.698 273.282,-312.561"/>
<polygon fill="midnightblue" stroke="midnightblue" points="273.487,-309.056 263.099,-311.139 272.519,-315.989 273.487,-309.056"/>
</g>
<!-- Node15 -->
<g id="node30" class="node"><title>Node15</title>
<a xlink:href="_container_8h.html" target="_top" xlink:title="../../engine/Display\l/Container.h">
<polygon fill="none" stroke="black" points="597.5,-535 597.5,-567 692.5,-567 692.5,-535 597.5,-535"/>
<text text-anchor="start" x="605.5" y="-554" font-family="FreeSans" font-size="10.00">../../engine/Display</text>
<text text-anchor="middle" x="645" y="-542" font-family="FreeSans" font-size="10.00">/Container.h</text>
</a>
</g>
<!-- Node1&#45;&gt;Node15 -->
<g id="edge30" class="edge"><title>Node1&#45;&gt;Node15</title>
<path fill="none" stroke="midnightblue" d="M498.571,-604.859C523.474,-595.699 560.821,-581.962 591.564,-570.655"/>
<polygon fill="midnightblue" stroke="midnightblue" points="593.112,-573.815 601.289,-567.078 590.695,-567.245 593.112,-573.815"/>
</g>
<!-- Node32 -->
<g id="node73" class="node"><title>Node32</title>
<a xlink:href="_form_scene_8h.html" target="_top" xlink:title="FormScene.h">
<polygon fill="none" stroke="black" points="474,-477 474,-497 548,-497 548,-477 474,-477"/>
<text text-anchor="middle" x="511" y="-484" font-family="FreeSans" font-size="10.00">FormScene.h</text>
</a>
</g>
<!-- Node1&#45;&gt;Node32 -->
<g id="edge82" class="edge"><title>Node1&#45;&gt;Node32</title>
<path fill="none" stroke="midnightblue" d="M474.139,-604.956C480.707,-583.936 496.011,-534.964 504.693,-507.181"/>
<polygon fill="midnightblue" stroke="midnightblue" points="508.123,-507.942 507.765,-497.353 501.441,-505.854 508.123,-507.942"/>
</g>
<!-- Node3 -->
<g id="node5" class="node"><title>Node3</title>
<polygon fill="none" stroke="#bfbfbf" points="315.5,-477 315.5,-497 416.5,-497 416.5,-477 315.5,-477"/>
<text text-anchor="middle" x="366" y="-484" font-family="FreeSans" font-size="10.00">boost/log/trivial.hpp</text>
</g>
<!-- Node2&#45;&gt;Node3 -->
<g id="edge4" class="edge"><title>Node2&#45;&gt;Node3</title>
<path fill="none" stroke="midnightblue" d="M366,-540.717C366,-531.707 366,-518.347 366,-507.205"/>
<polygon fill="midnightblue" stroke="midnightblue" points="369.5,-507.046 366,-497.046 362.5,-507.046 369.5,-507.046"/>
</g>
<!-- Node5 -->
<g id="node9" class="node"><title>Node5</title>
<polygon fill="none" stroke="#bfbfbf" points="227,-233 227,-253 271,-253 271,-233 227,-233"/>
<text text-anchor="middle" x="249" y="-240" font-family="FreeSans" font-size="10.00">vector</text>
</g>
<!-- Node4&#45;&gt;Node5 -->
<g id="edge8" class="edge"><title>Node4&#45;&gt;Node5</title>
<path fill="none" stroke="midnightblue" d="M224.327,-290.85C228.814,-282.148 234.38,-271.354 239.089,-262.221"/>
<polygon fill="midnightblue" stroke="midnightblue" points="242.299,-263.633 243.771,-253.141 236.077,-260.425 242.299,-263.633"/>
</g>
<!-- Node6 -->
<g id="node11" class="node"><title>Node6</title>
<polygon fill="none" stroke="#bfbfbf" points="288.5,-233 288.5,-253 329.5,-253 329.5,-233 288.5,-233"/>
<text text-anchor="middle" x="309" y="-240" font-family="FreeSans" font-size="10.00">string</text>
</g>
<!-- Node4&#45;&gt;Node6 -->
<g id="edge10" class="edge"><title>Node4&#45;&gt;Node6</title>
<path fill="none" stroke="midnightblue" d="M239.468,-290.85C253.727,-281.037 271.853,-268.564 286.022,-258.813"/>
<polygon fill="midnightblue" stroke="midnightblue" points="288.01,-261.693 294.264,-253.141 284.042,-255.927 288.01,-261.693"/>
</g>
<!-- Node7 -->
<g id="node13" class="node"><title>Node7</title>
<polygon fill="none" stroke="#bfbfbf" points="68.5,-233 68.5,-253 139.5,-253 139.5,-233 68.5,-233"/>
<text text-anchor="middle" x="104" y="-240" font-family="FreeSans" font-size="10.00">SDL2/SDL.h</text>
</g>
<!-- Node4&#45;&gt;Node7 -->
<g id="edge12" class="edge"><title>Node4&#45;&gt;Node7</title>
<path fill="none" stroke="midnightblue" d="M187.738,-290.85C170.241,-280.852 147.911,-268.092 130.711,-258.264"/>
<polygon fill="midnightblue" stroke="midnightblue" points="132.166,-255.064 121.747,-253.141 128.693,-261.141 132.166,-255.064"/>
</g>
<!-- Node8 -->
<g id="node15" class="node"><title>Node8</title>
<a xlink:href="_action_8h.html" target="_top" xlink:title="Action.h">
<polygon fill="none" stroke="black" points="157,-233 157,-253 209,-253 209,-233 157,-233"/>
<text text-anchor="middle" x="183" y="-240" font-family="FreeSans" font-size="10.00">Action.h</text>
</a>
</g>
<!-- Node4&#45;&gt;Node8 -->
<g id="edge14" class="edge"><title>Node4&#45;&gt;Node8</title>
<path fill="none" stroke="midnightblue" d="M207.673,-290.85C203.186,-282.148 197.62,-271.354 192.911,-262.221"/>
<polygon fill="midnightblue" stroke="midnightblue" points="195.923,-260.425 188.229,-253.141 189.701,-263.633 195.923,-260.425"/>
</g>
<!-- Node14 -->
<g id="node27" class="node"><title>Node14</title>
<a xlink:href="_control_action_8h.html" target="_top" xlink:title="ControlAction.h">
<polygon fill="none" stroke="black" points="-0.5,-175 -0.5,-195 82.5,-195 82.5,-175 -0.5,-175"/>
<text text-anchor="middle" x="41" y="-182" font-family="FreeSans" font-size="10.00">ControlAction.h</text>
</a>
</g>
<!-- Node4&#45;&gt;Node14 -->
<g id="edge28" class="edge"><title>Node4&#45;&gt;Node14</title>
<path fill="none" stroke="midnightblue" d="M168.635,-296.095C128.493,-285.949 75.1093,-270.025 60,-254 47.6539,-240.906 43.1962,-220.54 41.6527,-205.323"/>
<polygon fill="midnightblue" stroke="midnightblue" points="45.1436,-205.07 40.9727,-195.331 38.1598,-205.545 45.1436,-205.07"/>
</g>
<!-- Node9 -->
<g id="node17" class="node"><title>Node9</title>
<polygon fill="none" stroke="#bfbfbf" points="315.5,-175 315.5,-195 428.5,-195 428.5,-175 315.5,-175"/>
<text text-anchor="middle" x="372" y="-182" font-family="FreeSans" font-size="10.00">SDL2/SDL_keycode.h</text>
</g>
<!-- Node8&#45;&gt;Node9 -->
<g id="edge16" class="edge"><title>Node8&#45;&gt;Node9</title>
<path fill="none" stroke="midnightblue" d="M209.366,-234.688C212.278,-233.777 215.201,-232.867 218,-232 255.587,-220.358 298.401,-207.308 329.329,-197.919"/>
<polygon fill="midnightblue" stroke="midnightblue" points="330.378,-201.259 338.931,-195.006 328.345,-194.56 330.378,-201.259"/>
</g>
<!-- Node10 -->
<g id="node19" class="node"><title>Node10</title>
<polygon fill="none" stroke="#bfbfbf" points="100,-175 100,-195 206,-195 206,-175 100,-175"/>
<text text-anchor="middle" x="153" y="-182" font-family="FreeSans" font-size="10.00">SDL2/SDL_mouse.h</text>
</g>
<!-- Node8&#45;&gt;Node10 -->
<g id="edge18" class="edge"><title>Node8&#45;&gt;Node10</title>
<path fill="none" stroke="midnightblue" d="M177.774,-232.897C173.738,-225.093 168.028,-214.054 163.107,-204.54"/>
<polygon fill="midnightblue" stroke="midnightblue" points="166.071,-202.652 158.368,-195.378 159.853,-205.868 166.071,-202.652"/>
</g>
<!-- Node11 -->
<g id="node21" class="node"><title>Node11</title>
<a xlink:href="_vec_8h.html" target="_top" xlink:title="../Vec.h">
<polygon fill="none" stroke="black" points="735.5,-175 735.5,-195 784.5,-195 784.5,-175 735.5,-175"/>
<text text-anchor="middle" x="760" y="-182" font-family="FreeSans" font-size="10.00">../Vec.h</text>
</a>
</g>
<!-- Node8&#45;&gt;Node11 -->
<g id="edge20" class="edge"><title>Node8&#45;&gt;Node11</title>
<path fill="none" stroke="midnightblue" d="M209.214,-234.087C212.155,-233.289 215.126,-232.569 218,-232 407,-194.571 638.941,-186.949 725.381,-185.397"/>
<polygon fill="midnightblue" stroke="midnightblue" points="725.483,-188.896 735.424,-185.233 725.368,-181.897 725.483,-188.896"/>
</g>
<!-- Node12 -->
<g id="node23" class="node"><title>Node12</title>
<a xlink:href="_exception_8h.html" target="_top" xlink:title="../Exception.h">
<polygon fill="none" stroke="black" points="224,-175 224,-195 298,-195 298,-175 224,-175"/>
<text text-anchor="middle" x="261" y="-182" font-family="FreeSans" font-size="10.00">../Exception.h</text>
</a>
</g>
<!-- Node8&#45;&gt;Node12 -->
<g id="edge22" class="edge"><title>Node8&#45;&gt;Node12</title>
<path fill="none" stroke="midnightblue" d="M196.587,-232.897C208.259,-224.218 225.31,-211.538 238.938,-201.405"/>
<polygon fill="midnightblue" stroke="midnightblue" points="241.371,-203.957 247.307,-195.182 237.194,-198.34 241.371,-203.957"/>
</g>
<!-- Node8&#45;&gt;Node14 -->
<g id="edge26" class="edge"><title>Node8&#45;&gt;Node14</title>
<path fill="none" stroke="midnightblue" d="M158.265,-232.897C135.296,-223.515 100.883,-209.459 75.2707,-198.998"/>
<polygon fill="midnightblue" stroke="midnightblue" points="76.5085,-195.723 65.9275,-195.182 73.8616,-202.203 76.5085,-195.723"/>
</g>
<!-- Node13 -->
<g id="node25" class="node"><title>Node13</title>
<polygon fill="none" stroke="#bfbfbf" points="232,-117 232,-137 290,-137 290,-117 232,-117"/>
<text text-anchor="middle" x="261" y="-124" font-family="FreeSans" font-size="10.00">exception</text>
</g>
<!-- Node12&#45;&gt;Node13 -->
<g id="edge24" class="edge"><title>Node12&#45;&gt;Node13</title>
<path fill="none" stroke="midnightblue" d="M261,-174.897C261,-167.339 261,-156.748 261,-147.446"/>
<polygon fill="midnightblue" stroke="midnightblue" points="264.5,-147.378 261,-137.378 257.5,-147.378 264.5,-147.378"/>
</g>
<!-- Node16 -->
<g id="node32" class="node"><title>Node16</title>
<a xlink:href="_base_container_8h.html" target="_top" xlink:title="BaseContainer.h">
<polygon fill="none" stroke="black" points="727,-477 727,-497 815,-497 815,-477 727,-477"/>
<text text-anchor="middle" x="771" y="-484" font-family="FreeSans" font-size="10.00">BaseContainer.h</text>
</a>
</g>
<!-- Node15&#45;&gt;Node16 -->
<g id="edge32" class="edge"><title>Node15&#45;&gt;Node16</title>
<path fill="none" stroke="midnightblue" d="M676.795,-534.85C696.844,-524.667 722.532,-511.618 742.019,-501.721"/>
<polygon fill="midnightblue" stroke="midnightblue" points="743.704,-504.79 751.035,-497.141 740.534,-498.549 743.704,-504.79"/>
</g>
<!-- Node17 -->
<g id="node34" class="node"><title>Node17</title>
<a xlink:href="_ui_view_model_8h.html" target="_top" xlink:title="UiViewModel.h">
<polygon fill="none" stroke="black" points="760,-419 760,-439 842,-439 842,-419 760,-419"/>
<text text-anchor="middle" x="801" y="-426" font-family="FreeSans" font-size="10.00">UiViewModel.h</text>
</a>
</g>
<!-- Node16&#45;&gt;Node17 -->
<g id="edge34" class="edge"><title>Node16&#45;&gt;Node17</title>
<path fill="none" stroke="midnightblue" d="M776.226,-476.897C780.262,-469.093 785.972,-458.054 790.893,-448.54"/>
<polygon fill="midnightblue" stroke="midnightblue" points="794.147,-449.868 795.632,-439.378 787.929,-446.652 794.147,-449.868"/>
</g>
<!-- Node17&#45;&gt;Node11 -->
<g id="edge42" class="edge"><title>Node17&#45;&gt;Node11</title>
<path fill="none" stroke="midnightblue" d="M797.125,-418.692C793.723,-409.266 788.88,-394.872 786,-382 771.797,-318.51 764.41,-241.652 761.505,-205.578"/>
<polygon fill="midnightblue" stroke="midnightblue" points="764.976,-205.068 760.716,-195.367 757.996,-205.607 764.976,-205.068"/>
</g>
<!-- Node18 -->
<g id="node36" class="node"><title>Node18</title>
<a xlink:href="_nav_8h.html" target="_top" xlink:title="../Control/Nav.h">
<polygon fill="none" stroke="black" points="794.5,-361 794.5,-381 877.5,-381 877.5,-361 794.5,-361"/>
<text text-anchor="middle" x="836" y="-368" font-family="FreeSans" font-size="10.00">../Control/Nav.h</text>
</a>
</g>
<!-- Node17&#45;&gt;Node18 -->
<g id="edge36" class="edge"><title>Node17&#45;&gt;Node18</title>
<path fill="none" stroke="midnightblue" d="M807.097,-418.897C811.905,-410.928 818.749,-399.587 824.57,-389.941"/>
<polygon fill="midnightblue" stroke="midnightblue" points="827.568,-391.748 829.738,-381.378 821.574,-388.131 827.568,-391.748"/>
</g>
<!-- Node19 -->
<g id="node38" class="node"><title>Node19</title>
<a xlink:href="_m_r___types_8h.html" target="_top" xlink:title="../Util/MR_Types.h">
<polygon fill="none" stroke="black" points="773,-59 773,-79 869,-79 869,-59 773,-59"/>
<text text-anchor="middle" x="821" y="-66" font-family="FreeSans" font-size="10.00">../Util/MR_Types.h</text>
</a>
</g>
<!-- Node17&#45;&gt;Node19 -->
<g id="edge38" class="edge"><title>Node17&#45;&gt;Node19</title>
<path fill="none" stroke="midnightblue" d="M842.21,-425.766C908.877,-418.04 1033,-392.212 1033,-307 1033,-307 1033,-307 1033,-185 1033,-114.656 942.062,-86.6961 879.305,-75.7764"/>
<polygon fill="midnightblue" stroke="midnightblue" points="879.54,-72.2684 869.106,-74.1067 878.409,-79.1765 879.54,-72.2684"/>
</g>
<!-- Node21 -->
<g id="node43" class="node"><title>Node21</title>
<a xlink:href="_ui_layout_flags_8h.html" target="_top" xlink:title="UiLayoutFlags.h">
<polygon fill="none" stroke="black" points="652.5,-233 652.5,-253 739.5,-253 739.5,-233 652.5,-233"/>
<text text-anchor="middle" x="696" y="-240" font-family="FreeSans" font-size="10.00">UiLayoutFlags.h</text>
</a>
</g>
<!-- Node17&#45;&gt;Node21 -->
<g id="edge44" class="edge"><title>Node17&#45;&gt;Node21</title>
<path fill="none" stroke="midnightblue" d="M788.152,-418.963C777.57,-410.154 762.77,-396.512 753,-382 727.025,-343.417 709.579,-291.139 701.384,-262.967"/>
<polygon fill="midnightblue" stroke="midnightblue" points="704.689,-261.79 698.611,-253.111 697.95,-263.685 704.689,-261.79"/>
</g>
<!-- Node22 -->
<g id="node46" class="node"><title>Node22</title>
<a xlink:href="_view_model_8h.html" target="_top" xlink:title="ViewModel.h">
<polygon fill="none" stroke="black" points="895,-361 895,-381 967,-381 967,-361 895,-361"/>
<text text-anchor="middle" x="931" y="-368" font-family="FreeSans" font-size="10.00">ViewModel.h</text>
</a>
</g>
<!-- Node17&#45;&gt;Node22 -->
<g id="edge48" class="edge"><title>Node17&#45;&gt;Node22</title>
<path fill="none" stroke="midnightblue" d="M823.644,-418.897C844.488,-409.598 875.623,-395.707 899.004,-385.275"/>
<polygon fill="midnightblue" stroke="midnightblue" points="900.473,-388.452 908.179,-381.182 897.621,-382.06 900.473,-388.452"/>
</g>
<!-- Node20 -->
<g id="node40" class="node"><title>Node20</title>
<polygon fill="none" stroke="#bfbfbf" points="792,-1 792,-21 850,-21 850,-1 792,-1"/>
<text text-anchor="middle" x="821" y="-8" font-family="FreeSans" font-size="10.00">inttypes.h</text>
</g>
<!-- Node19&#45;&gt;Node20 -->
<g id="edge40" class="edge"><title>Node19&#45;&gt;Node20</title>
<path fill="none" stroke="midnightblue" d="M821,-58.8972C821,-51.339 821,-40.7476 821,-31.4458"/>
<polygon fill="midnightblue" stroke="midnightblue" points="824.5,-31.3776 821,-21.3776 817.5,-31.3776 824.5,-31.3776"/>
</g>
<!-- Node21&#45;&gt;Node19 -->
<g id="edge46" class="edge"><title>Node21&#45;&gt;Node19</title>
<path fill="none" stroke="midnightblue" d="M690.74,-232.949C679.462,-209.858 656.008,-152.226 682,-116 691.934,-102.154 729.451,-89.943 763.007,-81.4399"/>
<polygon fill="midnightblue" stroke="midnightblue" points="763.922,-84.819 772.797,-79.0322 762.251,-78.0215 763.922,-84.819"/>
</g>
<!-- Node23 -->
<g id="node48" class="node"><title>Node23</title>
<a xlink:href="_display_8h.html" target="_top" xlink:title="Display.h">
<polygon fill="none" stroke="black" points="810,-297 810,-317 866,-317 866,-297 810,-297"/>
<text text-anchor="middle" x="838" y="-304" font-family="FreeSans" font-size="10.00">Display.h</text>
</a>
</g>
<!-- Node22&#45;&gt;Node23 -->
<g id="edge50" class="edge"><title>Node22&#45;&gt;Node23</title>
<path fill="none" stroke="midnightblue" d="M916.058,-360.717C901.192,-350.487 878.178,-334.649 860.985,-322.817"/>
<polygon fill="midnightblue" stroke="midnightblue" points="862.82,-319.832 852.598,-317.046 858.852,-325.599 862.82,-319.832"/>
</g>
<!-- Node30 -->
<g id="node68" class="node"><title>Node30</title>
<a xlink:href="_view_attacher_8h.html" target="_top" xlink:title="ViewAttacher.h">
<polygon fill="none" stroke="black" points="908.5,-233 908.5,-253 991.5,-253 991.5,-233 908.5,-233"/>
<text text-anchor="middle" x="950" y="-240" font-family="FreeSans" font-size="10.00">ViewAttacher.h</text>
</a>
</g>
<!-- Node22&#45;&gt;Node30 -->
<g id="edge80" class="edge"><title>Node22&#45;&gt;Node30</title>
<path fill="none" stroke="midnightblue" d="M932.815,-360.931C934.504,-351.425 937.048,-336.764 939,-324 942.156,-303.369 945.316,-279.711 947.434,-263.312"/>
<polygon fill="midnightblue" stroke="midnightblue" points="950.924,-263.608 948.721,-253.245 943.981,-262.721 950.924,-263.608"/>
</g>
<!-- Node31 -->
<g id="node70" class="node"><title>Node31</title>
<a xlink:href="_view_8h.html" target="_top" xlink:title="View.h">
<polygon fill="none" stroke="black" points="884,-297 884,-317 930,-317 930,-297 884,-297"/>
<text text-anchor="middle" x="907" y="-304" font-family="FreeSans" font-size="10.00">View.h</text>
</a>
</g>
<!-- Node22&#45;&gt;Node31 -->
<g id="edge78" class="edge"><title>Node22&#45;&gt;Node31</title>
<path fill="none" stroke="midnightblue" d="M927.144,-360.717C923.695,-351.519 918.546,-337.789 914.317,-326.512"/>
<polygon fill="midnightblue" stroke="midnightblue" points="917.556,-325.181 910.767,-317.046 911.001,-327.638 917.556,-325.181"/>
</g>
<!-- Node23&#45;&gt;Node11 -->
<g id="edge52" class="edge"><title>Node23&#45;&gt;Node11</title>
<path fill="none" stroke="midnightblue" d="M831.35,-296.598C818.16,-275.967 788.527,-229.619 771.898,-203.609"/>
<polygon fill="midnightblue" stroke="midnightblue" points="774.75,-201.572 766.414,-195.032 768.852,-205.343 774.75,-201.572"/>
</g>
<!-- Node23&#45;&gt;Node21 -->
<g id="edge74" class="edge"><title>Node23&#45;&gt;Node21</title>
<path fill="none" stroke="midnightblue" d="M815.5,-296.859C791.819,-286.186 754.349,-269.298 727.684,-257.28"/>
<polygon fill="midnightblue" stroke="midnightblue" points="728.95,-254.012 718.395,-253.094 726.074,-260.393 728.95,-254.012"/>
</g>
<!-- Node24 -->
<g id="node51" class="node"><title>Node24</title>
<a xlink:href="_styles_8h.html" target="_top" xlink:title="Styles.h">
<polygon fill="none" stroke="black" points="832.5,-233 832.5,-253 883.5,-253 883.5,-233 832.5,-233"/>
<text text-anchor="middle" x="858" y="-240" font-family="FreeSans" font-size="10.00">Styles.h</text>
</a>
</g>
<!-- Node23&#45;&gt;Node24 -->
<g id="edge54" class="edge"><title>Node23&#45;&gt;Node24</title>
<path fill="none" stroke="midnightblue" d="M841.213,-296.717C844.058,-287.613 848.291,-274.068 851.794,-262.858"/>
<polygon fill="midnightblue" stroke="midnightblue" points="855.218,-263.635 854.861,-253.046 848.537,-261.547 855.218,-263.635"/>
</g>
<!-- Node23&#45;&gt;Node30 -->
<g id="edge76" class="edge"><title>Node23&#45;&gt;Node30</title>
<path fill="none" stroke="midnightblue" d="M855.995,-296.717C874.309,-286.252 902.891,-269.92 923.733,-258.01"/>
<polygon fill="midnightblue" stroke="midnightblue" points="925.473,-261.046 932.419,-253.046 922,-254.969 925.473,-261.046"/>
</g>
<!-- Node24&#45;&gt;Node11 -->
<g id="edge56" class="edge"><title>Node24&#45;&gt;Node11</title>
<path fill="none" stroke="midnightblue" d="M840.93,-232.897C825.846,-223.97 803.611,-210.811 786.262,-200.543"/>
<polygon fill="midnightblue" stroke="midnightblue" points="787.592,-197.263 777.203,-195.182 784.027,-203.287 787.592,-197.263"/>
</g>
<!-- Node25 -->
<g id="node54" class="node"><title>Node25</title>
<a xlink:href="_ui_font_8h.html" target="_top" xlink:title="UiFont.h">
<polygon fill="none" stroke="black" points="801.5,-175 801.5,-195 854.5,-195 854.5,-175 801.5,-175"/>
<text text-anchor="middle" x="828" y="-182" font-family="FreeSans" font-size="10.00">UiFont.h</text>
</a>
</g>
<!-- Node24&#45;&gt;Node25 -->
<g id="edge58" class="edge"><title>Node24&#45;&gt;Node25</title>
<path fill="none" stroke="midnightblue" d="M852.774,-232.897C848.738,-225.093 843.028,-214.054 838.107,-204.54"/>
<polygon fill="midnightblue" stroke="midnightblue" points="841.071,-202.652 833.368,-195.378 834.853,-205.868 841.071,-202.652"/>
</g>
<!-- Node28 -->
<g id="node61" class="node"><title>Node28</title>
<a xlink:href="_color_8h.html" target="_top" xlink:title="Color.h">
<polygon fill="none" stroke="black" points="885.5,-175 885.5,-195 932.5,-195 932.5,-175 885.5,-175"/>
<text text-anchor="middle" x="909" y="-182" font-family="FreeSans" font-size="10.00">Color.h</text>
</a>
</g>
<!-- Node24&#45;&gt;Node28 -->
<g id="edge66" class="edge"><title>Node24&#45;&gt;Node28</title>
<path fill="none" stroke="midnightblue" d="M866.884,-232.897C874.107,-224.682 884.482,-212.883 893.127,-203.051"/>
<polygon fill="midnightblue" stroke="midnightblue" points="895.9,-205.199 899.875,-195.378 890.643,-200.576 895.9,-205.199"/>
</g>
<!-- Node26 -->
<g id="node56" class="node"><title>Node26</title>
<a xlink:href="_hash_8h.html" target="_top" xlink:title="../Util/Hash.h">
<polygon fill="none" stroke="black" points="690.5,-117 690.5,-137 763.5,-137 763.5,-117 690.5,-117"/>
<text text-anchor="middle" x="727" y="-124" font-family="FreeSans" font-size="10.00">../Util/Hash.h</text>
</a>
</g>
<!-- Node25&#45;&gt;Node26 -->
<g id="edge60" class="edge"><title>Node25&#45;&gt;Node26</title>
<path fill="none" stroke="midnightblue" d="M810.407,-174.897C794.717,-165.887 771.521,-152.567 753.571,-142.259"/>
<polygon fill="midnightblue" stroke="midnightblue" points="755.145,-139.126 744.73,-137.182 751.659,-145.197 755.145,-139.126"/>
</g>
<!-- Node27 -->
<g id="node58" class="node"><title>Node27</title>
<a xlink:href="_sel_fmt_8h.html" target="_top" xlink:title="../Util/SelFmt.h">
<polygon fill="none" stroke="black" points="780.5,-117 780.5,-137 861.5,-137 861.5,-117 780.5,-117"/>
<text text-anchor="middle" x="821" y="-124" font-family="FreeSans" font-size="10.00">../Util/SelFmt.h</text>
</a>
</g>
<!-- Node25&#45;&gt;Node27 -->
<g id="edge62" class="edge"><title>Node25&#45;&gt;Node27</title>
<path fill="none" stroke="midnightblue" d="M826.781,-174.897C825.869,-167.339 824.59,-156.748 823.468,-147.446"/>
<polygon fill="midnightblue" stroke="midnightblue" points="826.926,-146.886 822.252,-137.378 819.976,-147.725 826.926,-146.886"/>
</g>
<!-- Node27&#45;&gt;Node19 -->
<g id="edge64" class="edge"><title>Node27&#45;&gt;Node19</title>
<path fill="none" stroke="midnightblue" d="M821,-116.897C821,-109.339 821,-98.7476 821,-89.4458"/>
<polygon fill="midnightblue" stroke="midnightblue" points="824.5,-89.3776 821,-79.3776 817.5,-89.3776 824.5,-89.3776"/>
</g>
<!-- Node28&#45;&gt;Node19 -->
<g id="edge70" class="edge"><title>Node28&#45;&gt;Node19</title>
<path fill="none" stroke="midnightblue" d="M931.88,-174.815C957.401,-162.015 993.01,-138.933 976,-116 964.159,-100.036 918.13,-87.371 879.281,-79.2294"/>
<polygon fill="midnightblue" stroke="midnightblue" points="879.565,-75.7156 869.068,-77.156 878.172,-82.5757 879.565,-75.7156"/>
</g>
<!-- Node28&#45;&gt;Node27 -->
<g id="edge72" class="edge"><title>Node28&#45;&gt;Node27</title>
<path fill="none" stroke="midnightblue" d="M893.672,-174.897C880.252,-166.052 860.53,-153.054 845.016,-142.829"/>
<polygon fill="midnightblue" stroke="midnightblue" points="846.724,-139.762 836.448,-137.182 842.872,-145.607 846.724,-139.762"/>
</g>
<!-- Node29 -->
<g id="node63" class="node"><title>Node29</title>
<polygon fill="none" stroke="#bfbfbf" points="878.5,-117 878.5,-137 967.5,-137 967.5,-117 878.5,-117"/>
<text text-anchor="middle" x="923" y="-124" font-family="FreeSans" font-size="10.00">boost/format.hpp</text>
</g>
<!-- Node28&#45;&gt;Node29 -->
<g id="edge68" class="edge"><title>Node28&#45;&gt;Node29</title>
<path fill="none" stroke="midnightblue" d="M911.439,-174.897C913.283,-167.257 915.875,-156.517 918.138,-147.143"/>
<polygon fill="midnightblue" stroke="midnightblue" points="921.551,-147.92 920.495,-137.378 914.746,-146.277 921.551,-147.92"/>
</g>
<!-- Node32&#45;&gt;Node11 -->
<g id="edge84" class="edge"><title>Node32&#45;&gt;Node11</title>
<path fill="none" stroke="midnightblue" d="M532.98,-476.963C566.107,-460.15 625,-422.955 625,-371 625,-371 625,-371 625,-307 625,-272.614 621.404,-257.92 644,-232 664.799,-208.141 699.485,-196.217 725.52,-190.37"/>
<polygon fill="midnightblue" stroke="midnightblue" points="726.285,-193.786 735.379,-188.35 724.88,-186.929 726.285,-193.786"/>
</g>
<!-- Node33 -->
<g id="node76" class="node"><title>Node33</title>
<a xlink:href="_ui_scene_8h.html" target="_top" xlink:title="UiScene.h">
<polygon fill="none" stroke="black" points="477,-419 477,-439 539,-439 539,-419 477,-419"/>
<text text-anchor="middle" x="508" y="-426" font-family="FreeSans" font-size="10.00">UiScene.h</text>
</a>
</g>
<!-- Node32&#45;&gt;Node33 -->
<g id="edge86" class="edge"><title>Node32&#45;&gt;Node33</title>
<path fill="none" stroke="midnightblue" d="M510.477,-476.897C510.087,-469.339 509.539,-458.748 509.058,-449.446"/>
<polygon fill="midnightblue" stroke="midnightblue" points="512.549,-449.183 508.537,-439.378 505.558,-449.545 512.549,-449.183"/>
</g>
<!-- Node34 -->
<g id="node78" class="node"><title>Node34</title>
<a xlink:href="_scene_8h.html" target="_top" xlink:title="Scene.h">
<polygon fill="none" stroke="black" points="476,-361 476,-381 528,-381 528,-361 476,-361"/>
<text text-anchor="middle" x="502" y="-368" font-family="FreeSans" font-size="10.00">Scene.h</text>
</a>
</g>
<!-- Node33&#45;&gt;Node34 -->
<g id="edge88" class="edge"><title>Node33&#45;&gt;Node34</title>
<path fill="none" stroke="midnightblue" d="M506.955,-418.897C506.173,-411.339 505.077,-400.748 504.115,-391.446"/>
<polygon fill="midnightblue" stroke="midnightblue" points="507.584,-390.964 503.074,-381.378 500.621,-391.685 507.584,-390.964"/>
</g>
<!-- Node35 -->
<g id="node80" class="node"><title>Node35</title>
<a xlink:href="_o_s_8h.html" target="_top" xlink:title="../../engine/Util/OS.h">
<polygon fill="none" stroke="black" points="395.5,-297 395.5,-317 498.5,-317 498.5,-297 395.5,-297"/>
<text text-anchor="middle" x="447" y="-304" font-family="FreeSans" font-size="10.00">../../engine/Util/OS.h</text>
</a>
</g>
<!-- Node34&#45;&gt;Node35 -->
<g id="edge90" class="edge"><title>Node34&#45;&gt;Node35</title>
<path fill="none" stroke="midnightblue" d="M493.163,-360.717C484.855,-351.05 472.245,-336.376 462.302,-324.806"/>
<polygon fill="midnightblue" stroke="midnightblue" points="464.806,-322.349 455.633,-317.046 459.497,-326.912 464.806,-322.349"/>
</g>
<!-- Node35&#45;&gt;Node5 -->
<g id="edge98" class="edge"><title>Node35&#45;&gt;Node5</title>
<path fill="none" stroke="midnightblue" d="M414.254,-296.965C382.484,-287.15 332.691,-271.561 280.992,-254.269"/>
<polygon fill="midnightblue" stroke="midnightblue" points="281.914,-250.886 271.32,-251.021 279.686,-257.522 281.914,-250.886"/>
</g>
<!-- Node35&#45;&gt;Node6 -->
<g id="edge96" class="edge"><title>Node35&#45;&gt;Node6</title>
<path fill="none" stroke="midnightblue" d="M425.133,-296.859C401.951,-286.108 365.171,-269.05 339.224,-257.017"/>
<polygon fill="midnightblue" stroke="midnightblue" points="340.405,-253.707 329.861,-252.675 337.46,-260.057 340.405,-253.707"/>
</g>
<!-- Node35&#45;&gt;Node19 -->
<g id="edge102" class="edge"><title>Node35&#45;&gt;Node19</title>
<path fill="none" stroke="midnightblue" d="M482.5,-296.951C508.144,-288.452 542.594,-274.374 568,-254 627.294,-206.45 607.116,-160.127 669,-116 696.682,-96.2613 732.883,-84.6384 763.011,-77.8901"/>
<polygon fill="midnightblue" stroke="midnightblue" points="763.915,-81.2765 772.975,-75.7838 762.468,-74.4278 763.915,-81.2765"/>
</g>
<!-- Node36 -->
<g id="node82" class="node"><title>Node36</title>
<polygon fill="none" stroke="#bfbfbf" points="517,-233 517,-253 559,-253 559,-233 517,-233"/>
<text text-anchor="middle" x="538" y="-240" font-family="FreeSans" font-size="10.00">locale</text>
</g>
<!-- Node35&#45;&gt;Node36 -->
<g id="edge92" class="edge"><title>Node35&#45;&gt;Node36</title>
<path fill="none" stroke="midnightblue" d="M461.621,-296.717C476.167,-286.487 498.686,-270.649 515.51,-258.817"/>
<polygon fill="midnightblue" stroke="midnightblue" points="517.549,-261.662 523.716,-253.046 513.522,-255.936 517.549,-261.662"/>
</g>
<!-- Node37 -->
<g id="node84" class="node"><title>Node37</title>
<polygon fill="none" stroke="#bfbfbf" points="347,-233 347,-253 377,-253 377,-233 347,-233"/>
<text text-anchor="middle" x="362" y="-240" font-family="FreeSans" font-size="10.00">set</text>
</g>
<!-- Node35&#45;&gt;Node37 -->
<g id="edge94" class="edge"><title>Node35&#45;&gt;Node37</title>
<path fill="none" stroke="midnightblue" d="M433.343,-296.717C419.881,-286.581 399.107,-270.939 383.441,-259.144"/>
<polygon fill="midnightblue" stroke="midnightblue" points="385.437,-256.265 375.343,-253.046 381.226,-261.857 385.437,-256.265"/>
</g>
<!-- Node38 -->
<g id="node88" class="node"><title>Node38</title>
<polygon fill="none" stroke="#bfbfbf" points="394.5,-233 394.5,-253 499.5,-253 499.5,-233 394.5,-233"/>
<text text-anchor="middle" x="447" y="-240" font-family="FreeSans" font-size="10.00">boost/filesystem.hpp</text>
</g>
<!-- Node35&#45;&gt;Node38 -->
<g id="edge100" class="edge"><title>Node35&#45;&gt;Node38</title>
<path fill="none" stroke="midnightblue" d="M447,-296.717C447,-287.707 447,-274.347 447,-263.205"/>
<polygon fill="midnightblue" stroke="midnightblue" points="450.5,-263.046 447,-253.046 443.5,-263.046 450.5,-263.046"/>
</g>
</g>
</svg>
