<?xml version="1.0" encoding="UTF-8" standalone="no"?>
<!DOCTYPE svg PUBLIC "-//W3C//DTD SVG 1.1//EN"
 "http://www.w3.org/Graphics/SVG/1.1/DTD/svg11.dtd">
<!-- Generated by graphviz version 2.26.3 (20100126.1600)
 -->
<!-- Title: FormScene.h Pages: 1 -->
<svg width="1778pt" height="262pt"
 viewBox="0.00 0.00 1778.00 262.00" xmlns="http://www.w3.org/2000/svg" xmlns:xlink="http://www.w3.org/1999/xlink">
<g id="graph1" class="graph" transform="scale(1 1) rotate(0) translate(4 258)">
<title>FormScene.h</title>
<!-- Node1 -->
<g id="node1" class="node"><title>Node1</title>
<polygon fill="#bfbfbf" stroke="black" points="1154,-233 1154,-253 1228,-253 1228,-233 1154,-233"/>
<text text-anchor="middle" x="1191" y="-240" font-family="FreeSans" font-size="10.00">FormScene.h</text>
</g>
<!-- Node2 -->
<g id="node3" class="node"><title>Node2</title>
<a xlink:href="_dialog_scene_8h.html" target="_top" xlink:title="DialogScene.h">
<polygon fill="none" stroke="black" points="401.5,-175 401.5,-195 480.5,-195 480.5,-175 401.5,-175"/>
<text text-anchor="middle" x="441" y="-182" font-family="FreeSans" font-size="10.00">DialogScene.h</text>
</a>
</g>
<!-- Node1&#45;&gt;Node2 -->
<g id="edge2" class="edge"><title>Node1&#45;&gt;Node2</title>
<path fill="none" stroke="midnightblue" d="M1143.59,-239.334C1005.94,-228.689 607.978,-197.913 480.669,-188.068"/>
<polygon fill="midnightblue" stroke="midnightblue" points="1143.57,-242.842 1153.81,-240.124 1144.11,-235.863 1143.57,-242.842"/>
</g>
<!-- Node17 -->
<g id="node37" class="node"><title>Node17</title>
<a xlink:href="_loading_scene_8h.html" target="_top" xlink:title="LoadingScene.h">
<polygon fill="none" stroke="black" points="904,-175 904,-195 990,-195 990,-175 904,-175"/>
<text text-anchor="middle" x="947" y="-182" font-family="FreeSans" font-size="10.00">LoadingScene.h</text>
</a>
</g>
<!-- Node1&#45;&gt;Node17 -->
<g id="edge40" class="edge"><title>Node1&#45;&gt;Node17</title>
<path fill="none" stroke="midnightblue" d="M1144.19,-231.872C1099.43,-221.233 1032.54,-205.333 989.336,-195.063"/>
<polygon fill="midnightblue" stroke="midnightblue" points="1143.4,-235.283 1153.94,-234.191 1145.02,-228.473 1143.4,-235.283"/>
</g>
<!-- Node22 -->
<g id="node48" class="node"><title>Node22</title>
<a xlink:href="_main_menu_scene_8h.html" target="_top" xlink:title="MainMenuScene.h">
<polygon fill="none" stroke="black" points="1030.5,-175 1030.5,-195 1127.5,-195 1127.5,-175 1030.5,-175"/>
<text text-anchor="middle" x="1079" y="-182" font-family="FreeSans" font-size="10.00">MainMenuScene.h</text>
</a>
</g>
<!-- Node1&#45;&gt;Node22 -->
<g id="edge52" class="edge"><title>Node1&#45;&gt;Node22</title>
<path fill="none" stroke="midnightblue" d="M1162.53,-228.254C1142.55,-217.909 1116.35,-204.341 1098.66,-195.182"/>
<polygon fill="midnightblue" stroke="midnightblue" points="1161,-231.407 1171.49,-232.897 1164.22,-225.191 1161,-231.407"/>
</g>
<!-- Node23 -->
<g id="node52" class="node"><title>Node23</title>
<a xlink:href="_message_scene_8h.html" target="_top" xlink:title="MessageScene.h">
<polygon fill="none" stroke="black" points="1145,-175 1145,-195 1237,-195 1237,-175 1145,-175"/>
<text text-anchor="middle" x="1191" y="-182" font-family="FreeSans" font-size="10.00">MessageScene.h</text>
</a>
</g>
<!-- Node1&#45;&gt;Node23 -->
<g id="edge58" class="edge"><title>Node1&#45;&gt;Node23</title>
<path fill="none" stroke="midnightblue" d="M1191,-222.89C1191,-213.62 1191,-203.008 1191,-195.378"/>
<polygon fill="midnightblue" stroke="midnightblue" points="1187.5,-222.897 1191,-232.897 1194.5,-222.897 1187.5,-222.897"/>
</g>
<!-- Node27 -->
<g id="node62" class="node"><title>Node27</title>
<a xlink:href="_test_lab_scene_8h.html" target="_top" xlink:title="TestLabScene.h">
<polygon fill="none" stroke="black" points="1255,-175 1255,-195 1343,-195 1343,-175 1255,-175"/>
<text text-anchor="middle" x="1299" y="-182" font-family="FreeSans" font-size="10.00">TestLabScene.h</text>
</a>
</g>
<!-- Node1&#45;&gt;Node27 -->
<g id="edge70" class="edge"><title>Node1&#45;&gt;Node27</title>
<path fill="none" stroke="midnightblue" d="M1218.72,-228.114C1237.95,-217.786 1263.06,-204.3 1280.04,-195.182"/>
<polygon fill="midnightblue" stroke="midnightblue" points="1216.97,-225.082 1209.81,-232.897 1220.28,-231.249 1216.97,-225.082"/>
</g>
<!-- Node29 -->
<g id="node68" class="node"><title>Node29</title>
<a xlink:href="_form_scene_8cpp.html" target="_top" xlink:title="FormScene.cpp">
<polygon fill="none" stroke="black" points="1360.5,-175 1360.5,-195 1445.5,-195 1445.5,-175 1360.5,-175"/>
<text text-anchor="middle" x="1403" y="-182" font-family="FreeSans" font-size="10.00">FormScene.cpp</text>
</a>
</g>
<!-- Node1&#45;&gt;Node29 -->
<g id="edge78" class="edge"><title>Node1&#45;&gt;Node29</title>
<path fill="none" stroke="midnightblue" d="M1237.89,-230.171C1276.52,-219.602 1330.55,-204.82 1366.14,-195.084"/>
<polygon fill="midnightblue" stroke="midnightblue" points="1236.65,-226.882 1227.93,-232.897 1238.5,-233.634 1236.65,-226.882"/>
</g>
<!-- Node30 -->
<g id="node70" class="node"><title>Node30</title>
<a xlink:href="_pause_menu_scene_8h.html" target="_top" xlink:title="PauseMenuScene.h">
<polygon fill="none" stroke="black" points="1463,-175 1463,-195 1567,-195 1567,-175 1463,-175"/>
<text text-anchor="middle" x="1515" y="-182" font-family="FreeSans" font-size="10.00">PauseMenuScene.h</text>
</a>
</g>
<!-- Node1&#45;&gt;Node30 -->
<g id="edge80" class="edge"><title>Node1&#45;&gt;Node30</title>
<path fill="none" stroke="midnightblue" d="M1238.07,-234.612C1290.69,-225.227 1378.46,-209.561 1454,-196 1456.86,-195.487 1459.79,-194.959 1462.76,-194.426"/>
<polygon fill="midnightblue" stroke="midnightblue" points="1237.26,-231.201 1228.02,-236.402 1238.48,-238.093 1237.26,-231.201"/>
</g>
<!-- Node3 -->
<g id="node5" class="node"><title>Node3</title>
<a xlink:href="_settings_scene_8h.html" target="_top" xlink:title="SettingsScene.h">
<polygon fill="none" stroke="black" points="54,-117 54,-137 142,-137 142,-117 54,-117"/>
<text text-anchor="middle" x="98" y="-124" font-family="FreeSans" font-size="10.00">SettingsScene.h</text>
</a>
</g>
<!-- Node2&#45;&gt;Node3 -->
<g id="edge4" class="edge"><title>Node2&#45;&gt;Node3</title>
<path fill="none" stroke="midnightblue" d="M391.053,-177.588C333.173,-168.84 234.984,-153.513 151,-138 148.135,-137.471 145.187,-136.909 142.218,-136.329"/>
<polygon fill="midnightblue" stroke="midnightblue" points="390.622,-181.062 401.031,-179.091 391.664,-174.14 390.622,-181.062"/>
</g>
<!-- Node8 -->
<g id="node15" class="node"><title>Node8</title>
<a xlink:href="_dialog_scene_8cpp.html" target="_top" xlink:title="DialogScene.cpp">
<polygon fill="none" stroke="black" points="159.5,-117 159.5,-137 248.5,-137 248.5,-117 159.5,-117"/>
<text text-anchor="middle" x="204" y="-124" font-family="FreeSans" font-size="10.00">DialogScene.cpp</text>
</a>
</g>
<!-- Node2&#45;&gt;Node8 -->
<g id="edge14" class="edge"><title>Node2&#45;&gt;Node8</title>
<path fill="none" stroke="midnightblue" d="M391.548,-172.898C348.12,-162.27 285.691,-146.992 244.992,-137.032"/>
<polygon fill="midnightblue" stroke="midnightblue" points="390.786,-176.315 401.332,-175.292 392.45,-169.515 390.786,-176.315"/>
</g>
<!-- Node9 -->
<g id="node17" class="node"><title>Node9</title>
<a xlink:href="_track_select_scene_8h.html" target="_top" xlink:title="TrackSelectScene.h">
<polygon fill="none" stroke="black" points="266,-117 266,-137 370,-137 370,-117 266,-117"/>
<text text-anchor="middle" x="318" y="-124" font-family="FreeSans" font-size="10.00">TrackSelectScene.h</text>
</a>
</g>
<!-- Node2&#45;&gt;Node9 -->
<g id="edge16" class="edge"><title>Node2&#45;&gt;Node9</title>
<path fill="none" stroke="midnightblue" d="M410.323,-170.535C388.31,-160.155 359.192,-146.424 339.592,-137.182"/>
<polygon fill="midnightblue" stroke="midnightblue" points="409.037,-173.798 419.575,-174.897 412.023,-167.466 409.037,-173.798"/>
</g>
<!-- Node12 -->
<g id="node23" class="node"><title>Node12</title>
<a xlink:href="_game_select_scene_8h.html" target="_top" xlink:title="GameSelectScene.h">
<polygon fill="none" stroke="black" points="388,-117 388,-137 494,-137 494,-117 388,-117"/>
<text text-anchor="middle" x="441" y="-124" font-family="FreeSans" font-size="10.00">GameSelectScene.h</text>
</a>
</g>
<!-- Node2&#45;&gt;Node12 -->
<g id="edge22" class="edge"><title>Node2&#45;&gt;Node12</title>
<path fill="none" stroke="midnightblue" d="M441,-164.89C441,-155.62 441,-145.008 441,-137.378"/>
<polygon fill="midnightblue" stroke="midnightblue" points="437.5,-164.897 441,-174.897 444.5,-164.897 437.5,-164.897"/>
</g>
<!-- Node14 -->
<g id="node28" class="node"><title>Node14</title>
<a xlink:href="_practice_setup_scene_8h.html" target="_top" xlink:title="PracticeSetupScene.h">
<polygon fill="none" stroke="black" points="511.5,-117 511.5,-137 624.5,-137 624.5,-117 511.5,-117"/>
<text text-anchor="middle" x="568" y="-124" font-family="FreeSans" font-size="10.00">PracticeSetupScene.h</text>
</a>
</g>
<!-- Node2&#45;&gt;Node14 -->
<g id="edge28" class="edge"><title>Node2&#45;&gt;Node14</title>
<path fill="none" stroke="midnightblue" d="M472.369,-170.674C495.133,-160.278 525.377,-146.465 545.706,-137.182"/>
<polygon fill="midnightblue" stroke="midnightblue" points="470.764,-167.559 463.122,-174.897 473.672,-173.927 470.764,-167.559"/>
</g>
<!-- Node16 -->
<g id="node33" class="node"><title>Node16</title>
<a xlink:href="_settings_menu_scene_8h.html" target="_top" xlink:title="SettingsMenuScene.h">
<polygon fill="none" stroke="black" points="642,-117 642,-137 754,-137 754,-117 642,-117"/>
<text text-anchor="middle" x="698" y="-124" font-family="FreeSans" font-size="10.00">SettingsMenuScene.h</text>
</a>
</g>
<!-- Node2&#45;&gt;Node16 -->
<g id="edge34" class="edge"><title>Node2&#45;&gt;Node16</title>
<path fill="none" stroke="midnightblue" d="M490.592,-173.808C537.805,-163.153 608.207,-147.265 653.614,-137.017"/>
<polygon fill="midnightblue" stroke="midnightblue" points="489.577,-170.449 480.593,-176.065 491.118,-177.277 489.577,-170.449"/>
</g>
<!-- Node4 -->
<g id="node7" class="node"><title>Node4</title>
<a xlink:href="_audio_settings_scene_8h.html" target="_top" xlink:title="AudioSettingsScene.h">
<polygon fill="none" stroke="black" points="4.5,-59 4.5,-79 117.5,-79 117.5,-59 4.5,-59"/>
<text text-anchor="middle" x="61" y="-66" font-family="FreeSans" font-size="10.00">AudioSettingsScene.h</text>
</a>
</g>
<!-- Node3&#45;&gt;Node4 -->
<g id="edge6" class="edge"><title>Node3&#45;&gt;Node4</title>
<path fill="none" stroke="midnightblue" d="M86.1275,-108.389C79.9991,-98.7824 72.7526,-87.423 67.6202,-79.3776"/>
<polygon fill="midnightblue" stroke="midnightblue" points="83.2262,-110.349 91.5551,-116.897 89.1276,-106.584 83.2262,-110.349"/>
</g>
<!-- Node7 -->
<g id="node13" class="node"><title>Node7</title>
<a xlink:href="_settings_scene_8cpp.html" target="_top" xlink:title="SettingsScene.cpp">
<polygon fill="none" stroke="black" points="135,-59 135,-79 233,-79 233,-59 135,-59"/>
<text text-anchor="middle" x="184" y="-66" font-family="FreeSans" font-size="10.00">SettingsScene.cpp</text>
</a>
</g>
<!-- Node3&#45;&gt;Node7 -->
<g id="edge12" class="edge"><title>Node3&#45;&gt;Node7</title>
<path fill="none" stroke="midnightblue" d="M121.336,-111.262C136.472,-101.054 155.752,-88.051 168.903,-79.1817"/>
<polygon fill="midnightblue" stroke="midnightblue" points="119.314,-108.404 112.98,-116.897 123.228,-114.207 119.314,-108.404"/>
</g>
<!-- Node5 -->
<g id="node9" class="node"><title>Node5</title>
<a xlink:href="_audio_settings_scene_8cpp.html" target="_top" xlink:title="AudioSettingsScene.cpp">
<polygon fill="none" stroke="black" points="-0.5,-1 -0.5,-21 122.5,-21 122.5,-1 -0.5,-1"/>
<text text-anchor="middle" x="61" y="-8" font-family="FreeSans" font-size="10.00">AudioSettingsScene.cpp</text>
</a>
</g>
<!-- Node4&#45;&gt;Node5 -->
<g id="edge8" class="edge"><title>Node4&#45;&gt;Node5</title>
<path fill="none" stroke="midnightblue" d="M61,-48.8902C61,-39.6201 61,-29.0083 61,-21.3776"/>
<polygon fill="midnightblue" stroke="midnightblue" points="57.5001,-48.8971 61,-58.8972 64.5001,-48.8972 57.5001,-48.8971"/>
</g>
<!-- Node6 -->
<g id="node11" class="node"><title>Node6</title>
<a xlink:href="_settings_menu_scene_8cpp.html" target="_top" xlink:title="SettingsMenuScene.cpp">
<polygon fill="none" stroke="black" points="381,-1 381,-21 503,-21 503,-1 381,-1"/>
<text text-anchor="middle" x="442" y="-8" font-family="FreeSans" font-size="10.00">SettingsMenuScene.cpp</text>
</a>
</g>
<!-- Node4&#45;&gt;Node6 -->
<g id="edge10" class="edge"><title>Node4&#45;&gt;Node6</title>
<path fill="none" stroke="midnightblue" d="M127.649,-57.7571C221.433,-42.9169 319.252,-28.5988 380.775,-19.7362"/>
<polygon fill="midnightblue" stroke="midnightblue" points="127.037,-54.3104 117.709,-59.3344 128.134,-61.2239 127.037,-54.3104"/>
</g>
<!-- Node10 -->
<g id="node19" class="node"><title>Node10</title>
<a xlink:href="_game_select_scene_8cpp.html" target="_top" xlink:title="GameSelectScene.cpp">
<polygon fill="none" stroke="black" points="383,-59 383,-79 499,-79 499,-59 383,-59"/>
<text text-anchor="middle" x="441" y="-66" font-family="FreeSans" font-size="10.00">GameSelectScene.cpp</text>
</a>
</g>
<!-- Node9&#45;&gt;Node10 -->
<g id="edge18" class="edge"><title>Node9&#45;&gt;Node10</title>
<path fill="none" stroke="midnightblue" d="M348.677,-112.535C370.69,-102.155 399.808,-88.424 419.408,-79.1817"/>
<polygon fill="midnightblue" stroke="midnightblue" points="346.977,-109.466 339.425,-116.897 349.963,-115.798 346.977,-109.466"/>
</g>
<!-- Node11 -->
<g id="node21" class="node"><title>Node11</title>
<a xlink:href="_track_select_scene_8cpp.html" target="_top" xlink:title="TrackSelectScene.cpp">
<polygon fill="none" stroke="black" points="250.5,-59 250.5,-79 365.5,-79 365.5,-59 250.5,-59"/>
<text text-anchor="middle" x="308" y="-66" font-family="FreeSans" font-size="10.00">TrackSelectScene.cpp</text>
</a>
</g>
<!-- Node9&#45;&gt;Node11 -->
<g id="edge20" class="edge"><title>Node9&#45;&gt;Node11</title>
<path fill="none" stroke="midnightblue" d="M314.533,-106.89C312.935,-97.6201 311.105,-87.0083 309.789,-79.3776"/>
<polygon fill="midnightblue" stroke="midnightblue" points="311.11,-107.637 316.258,-116.897 318.008,-106.448 311.11,-107.637"/>
</g>
<!-- Node12&#45;&gt;Node10 -->
<g id="edge24" class="edge"><title>Node12&#45;&gt;Node10</title>
<path fill="none" stroke="midnightblue" d="M441,-106.89C441,-97.6201 441,-87.0083 441,-79.3776"/>
<polygon fill="midnightblue" stroke="midnightblue" points="437.5,-106.897 441,-116.897 444.5,-106.897 437.5,-106.897"/>
</g>
<!-- Node13 -->
<g id="node26" class="node"><title>Node13</title>
<a xlink:href="_practice_setup_scene_8cpp.html" target="_top" xlink:title="PracticeSetupScene.cpp">
<polygon fill="none" stroke="black" points="517,-59 517,-79 641,-79 641,-59 517,-59"/>
<text text-anchor="middle" x="579" y="-66" font-family="FreeSans" font-size="10.00">PracticeSetupScene.cpp</text>
</a>
</g>
<!-- Node12&#45;&gt;Node13 -->
<g id="edge26" class="edge"><title>Node12&#45;&gt;Node13</title>
<path fill="none" stroke="midnightblue" d="M474.425,-112.952C499.234,-102.525 532.488,-88.5483 554.775,-79.1817"/>
<polygon fill="midnightblue" stroke="midnightblue" points="472.901,-109.796 465.038,-116.897 475.613,-116.249 472.901,-109.796"/>
</g>
<!-- Node14&#45;&gt;Node13 -->
<g id="edge32" class="edge"><title>Node14&#45;&gt;Node13</title>
<path fill="none" stroke="midnightblue" d="M571.814,-106.89C573.572,-97.6201 575.585,-87.0083 577.032,-79.3776"/>
<polygon fill="midnightblue" stroke="midnightblue" points="568.341,-106.42 569.916,-116.897 575.218,-107.724 568.341,-106.42"/>
</g>
<!-- Node15 -->
<g id="node30" class="node"><title>Node15</title>
<a xlink:href="_main_menu_scene_8cpp.html" target="_top" xlink:title="MainMenuScene.cpp">
<polygon fill="none" stroke="black" points="734.5,-59 734.5,-79 841.5,-79 841.5,-59 734.5,-59"/>
<text text-anchor="middle" x="788" y="-66" font-family="FreeSans" font-size="10.00">MainMenuScene.cpp</text>
</a>
</g>
<!-- Node14&#45;&gt;Node15 -->
<g id="edge30" class="edge"><title>Node14&#45;&gt;Node15</title>
<path fill="none" stroke="midnightblue" d="M616.15,-114.306C656.274,-103.728 712.663,-88.8616 749.75,-79.0842"/>
<polygon fill="midnightblue" stroke="midnightblue" points="615.098,-110.963 606.321,-116.897 616.883,-117.732 615.098,-110.963"/>
</g>
<!-- Node16&#45;&gt;Node6 -->
<g id="edge38" class="edge"><title>Node16&#45;&gt;Node6</title>
<path fill="none" stroke="midnightblue" d="M689.353,-107.373C681.39,-91.6114 668.071,-70.1683 650,-58 626.316,-42.0524 555.658,-28.2594 503.232,-19.8144"/>
<polygon fill="midnightblue" stroke="midnightblue" points="686.357,-109.224 693.809,-116.755 692.681,-106.221 686.357,-109.224"/>
</g>
<!-- Node16&#45;&gt;Node15 -->
<g id="edge36" class="edge"><title>Node16&#45;&gt;Node15</title>
<path fill="none" stroke="midnightblue" d="M722.421,-111.262C738.262,-101.054 758.438,-88.051 772.201,-79.1817"/>
<polygon fill="midnightblue" stroke="midnightblue" points="720.187,-108.538 713.677,-116.897 723.978,-114.422 720.187,-108.538"/>
</g>
<!-- Node18 -->
<g id="node39" class="node"><title>Node18</title>
<a xlink:href="_client_app_8cpp.html" target="_top" xlink:title="ClientApp.cpp">
<polygon fill="none" stroke="black" points="1063.5,-117 1063.5,-137 1140.5,-137 1140.5,-117 1063.5,-117"/>
<text text-anchor="middle" x="1102" y="-124" font-family="FreeSans" font-size="10.00">ClientApp.cpp</text>
</a>
</g>
<!-- Node17&#45;&gt;Node18 -->
<g id="edge42" class="edge"><title>Node17&#45;&gt;Node18</title>
<path fill="none" stroke="midnightblue" d="M983.469,-171.354C1011.54,-160.85 1049.7,-146.572 1075.05,-137.084"/>
<polygon fill="midnightblue" stroke="midnightblue" points="982.138,-168.114 973.999,-174.897 984.591,-174.671 982.138,-168.114"/>
</g>
<!-- Node19 -->
<g id="node41" class="node"><title>Node19</title>
<a xlink:href="_loading_scene_8cpp.html" target="_top" xlink:title="LoadingScene.cpp">
<polygon fill="none" stroke="black" points="771.5,-117 771.5,-137 868.5,-137 868.5,-117 771.5,-117"/>
<text text-anchor="middle" x="820" y="-124" font-family="FreeSans" font-size="10.00">LoadingScene.cpp</text>
</a>
</g>
<!-- Node17&#45;&gt;Node19 -->
<g id="edge44" class="edge"><title>Node17&#45;&gt;Node19</title>
<path fill="none" stroke="midnightblue" d="M915.631,-170.674C892.867,-160.278 862.623,-146.465 842.294,-137.182"/>
<polygon fill="midnightblue" stroke="midnightblue" points="914.328,-173.927 924.878,-174.897 917.236,-167.559 914.328,-173.927"/>
</g>
<!-- Node20 -->
<g id="node43" class="node"><title>Node20</title>
<a xlink:href="_session_loading_scene_8h.html" target="_top" xlink:title="SessionLoadingScene.h">
<polygon fill="none" stroke="black" points="886,-117 886,-137 1008,-137 1008,-117 886,-117"/>
<text text-anchor="middle" x="947" y="-124" font-family="FreeSans" font-size="10.00">SessionLoadingScene.h</text>
</a>
</g>
<!-- Node17&#45;&gt;Node20 -->
<g id="edge46" class="edge"><title>Node17&#45;&gt;Node20</title>
<path fill="none" stroke="midnightblue" d="M947,-164.89C947,-155.62 947,-145.008 947,-137.378"/>
<polygon fill="midnightblue" stroke="midnightblue" points="943.5,-164.897 947,-174.897 950.5,-164.897 943.5,-164.897"/>
</g>
<!-- Node20&#45;&gt;Node13 -->
<g id="edge48" class="edge"><title>Node20&#45;&gt;Node13</title>
<path fill="none" stroke="midnightblue" d="M875.612,-115.749C807.555,-105.022 706.099,-89.032 641.25,-78.8112"/>
<polygon fill="midnightblue" stroke="midnightblue" points="875.396,-119.258 885.819,-117.357 876.486,-112.343 875.396,-119.258"/>
</g>
<!-- Node21 -->
<g id="node46" class="node"><title>Node21</title>
<a xlink:href="_session_loading_scene_8cpp.html" target="_top" xlink:title="SessionLoadingScene.cpp">
<polygon fill="none" stroke="black" points="881,-59 881,-79 1013,-79 1013,-59 881,-59"/>
<text text-anchor="middle" x="947" y="-66" font-family="FreeSans" font-size="10.00">SessionLoadingScene.cpp</text>
</a>
</g>
<!-- Node20&#45;&gt;Node21 -->
<g id="edge50" class="edge"><title>Node20&#45;&gt;Node21</title>
<path fill="none" stroke="midnightblue" d="M947,-106.89C947,-97.6201 947,-87.0083 947,-79.3776"/>
<polygon fill="midnightblue" stroke="midnightblue" points="943.5,-106.897 947,-116.897 950.5,-106.897 943.5,-106.897"/>
</g>
<!-- Node22&#45;&gt;Node15 -->
<g id="edge56" class="edge"><title>Node22&#45;&gt;Node15</title>
<path fill="none" stroke="midnightblue" d="M1067.34,-166.424C1056.34,-150.502 1038.37,-128.254 1017,-116 987.689,-99.1939 899.636,-84.3675 841.651,-76.0547"/>
<polygon fill="midnightblue" stroke="midnightblue" points="1064.55,-168.541 1072.99,-174.944 1070.38,-164.674 1064.55,-168.541"/>
</g>
<!-- Node22&#45;&gt;Node18 -->
<g id="edge54" class="edge"><title>Node22&#45;&gt;Node18</title>
<path fill="none" stroke="midnightblue" d="M1086.74,-165.493C1090.47,-156.083 1094.79,-145.174 1097.88,-137.378"/>
<polygon fill="midnightblue" stroke="midnightblue" points="1083.44,-164.311 1083.01,-174.897 1089.95,-166.892 1083.44,-164.311"/>
</g>
<!-- Node23&#45;&gt;Node15 -->
<g id="edge62" class="edge"><title>Node23&#45;&gt;Node15</title>
<path fill="none" stroke="midnightblue" d="M1184.45,-165.243C1178.04,-149.221 1166.65,-127.478 1149,-116 1096.96,-82.1579 933.552,-88.0299 872,-80 862.229,-78.7252 851.818,-77.3643 841.772,-76.0495"/>
<polygon fill="midnightblue" stroke="midnightblue" points="1181.22,-166.602 1187.95,-174.781 1187.79,-164.187 1181.22,-166.602"/>
</g>
<!-- Node23&#45;&gt;Node18 -->
<g id="edge60" class="edge"><title>Node23&#45;&gt;Node18</title>
<path fill="none" stroke="midnightblue" d="M1166.85,-169.262C1151.19,-159.054 1131.23,-146.051 1117.62,-137.182"/>
<polygon fill="midnightblue" stroke="midnightblue" points="1165.21,-172.37 1175.5,-174.897 1169.03,-166.505 1165.21,-172.37"/>
</g>
<!-- Node24 -->
<g id="node56" class="node"><title>Node24</title>
<a xlink:href="_message_scene_8cpp.html" target="_top" xlink:title="MessageScene.cpp">
<polygon fill="none" stroke="black" points="1196,-117 1196,-137 1298,-137 1298,-117 1196,-117"/>
<text text-anchor="middle" x="1247" y="-124" font-family="FreeSans" font-size="10.00">MessageScene.cpp</text>
</a>
</g>
<!-- Node23&#45;&gt;Node24 -->
<g id="edge64" class="edge"><title>Node23&#45;&gt;Node24</title>
<path fill="none" stroke="midnightblue" d="M1207.83,-167.568C1217.33,-157.725 1228.89,-145.755 1236.98,-137.378"/>
<polygon fill="midnightblue" stroke="midnightblue" points="1205.18,-165.272 1200.75,-174.897 1210.22,-170.134 1205.18,-165.272"/>
</g>
<!-- Node25 -->
<g id="node58" class="node"><title>Node25</title>
<a xlink:href="_pause_menu_scene_8cpp.html" target="_top" xlink:title="PauseMenuScene.cpp">
<polygon fill="none" stroke="black" points="1432,-117 1432,-137 1546,-137 1546,-117 1432,-117"/>
<text text-anchor="middle" x="1489" y="-124" font-family="FreeSans" font-size="10.00">PauseMenuScene.cpp</text>
</a>
</g>
<!-- Node23&#45;&gt;Node25 -->
<g id="edge66" class="edge"><title>Node23&#45;&gt;Node25</title>
<path fill="none" stroke="midnightblue" d="M1247.23,-173.765C1318.3,-159.805 1389.34,-146.109 1436.37,-137.081"/>
<polygon fill="midnightblue" stroke="midnightblue" points="1246.35,-170.372 1237.21,-175.736 1247.7,-177.241 1246.35,-170.372"/>
</g>
<!-- Node26 -->
<g id="node60" class="node"><title>Node26</title>
<a xlink:href="_test_lab_scene_8cpp.html" target="_top" xlink:title="TestLabScene.cpp">
<polygon fill="none" stroke="black" points="1316,-117 1316,-137 1414,-137 1414,-117 1316,-117"/>
<text text-anchor="middle" x="1365" y="-124" font-family="FreeSans" font-size="10.00">TestLabScene.cpp</text>
</a>
</g>
<!-- Node23&#45;&gt;Node26 -->
<g id="edge68" class="edge"><title>Node23&#45;&gt;Node26</title>
<path fill="none" stroke="midnightblue" d="M1231.12,-171.628C1262.7,-161.1 1306.04,-146.654 1334.75,-137.084"/>
<polygon fill="midnightblue" stroke="midnightblue" points="1229.69,-168.414 1221.31,-174.897 1231.9,-175.055 1229.69,-168.414"/>
</g>
<!-- Node27&#45;&gt;Node18 -->
<g id="edge72" class="edge"><title>Node27&#45;&gt;Node18</title>
<path fill="none" stroke="midnightblue" d="M1254.97,-172.036C1219.1,-161.476 1169.18,-146.779 1136.25,-137.084"/>
<polygon fill="midnightblue" stroke="midnightblue" points="1254.1,-175.43 1264.69,-174.897 1256.08,-168.715 1254.1,-175.43"/>
</g>
<!-- Node27&#45;&gt;Node26 -->
<g id="edge74" class="edge"><title>Node27&#45;&gt;Node26</title>
<path fill="none" stroke="midnightblue" d="M1318.17,-168.15C1329.5,-158.2 1343.47,-145.921 1353.19,-137.378"/>
<polygon fill="midnightblue" stroke="midnightblue" points="1315.7,-165.667 1310.5,-174.897 1320.32,-170.925 1315.7,-165.667"/>
</g>
<!-- Node28 -->
<g id="node66" class="node"><title>Node28</title>
<a xlink:href="_debug_peer_8cpp.html" target="_top" xlink:title="DebugPeer.cpp">
<polygon fill="none" stroke="black" points="1563.5,-117 1563.5,-137 1646.5,-137 1646.5,-117 1563.5,-117"/>
<text text-anchor="middle" x="1605" y="-124" font-family="FreeSans" font-size="10.00">DebugPeer.cpp</text>
</a>
</g>
<!-- Node27&#45;&gt;Node28 -->
<g id="edge76" class="edge"><title>Node27&#45;&gt;Node28</title>
<path fill="none" stroke="midnightblue" d="M1353.09,-173.831C1443.64,-156.611 1468.2,-155.238 1555,-138 1557.7,-137.463 1560.48,-136.895 1563.28,-136.311"/>
<polygon fill="midnightblue" stroke="midnightblue" points="1352.39,-170.402 1343.23,-175.72 1353.71,-177.277 1352.39,-170.402"/>
</g>
<!-- Node30&#45;&gt;Node25 -->
<g id="edge82" class="edge"><title>Node30&#45;&gt;Node25</title>
<path fill="none" stroke="midnightblue" d="M1506.26,-165.493C1502.04,-156.083 1497.15,-145.174 1493.65,-137.378"/>
<polygon fill="midnightblue" stroke="midnightblue" points="1503.19,-167.204 1510.47,-174.897 1509.57,-164.34 1503.19,-167.204"/>
</g>
<!-- Node31 -->
<g id="node73" class="node"><title>Node31</title>
<a xlink:href="_play_game_scene_8cpp.html" target="_top" xlink:title="PlayGameScene.cpp">
<polygon fill="none" stroke="black" points="1663.5,-117 1663.5,-137 1770.5,-137 1770.5,-117 1663.5,-117"/>
<text text-anchor="middle" x="1717" y="-124" font-family="FreeSans" font-size="10.00">PlayGameScene.cpp</text>
</a>
</g>
<!-- Node30&#45;&gt;Node31 -->
<g id="edge84" class="edge"><title>Node30&#45;&gt;Node31</title>
<path fill="none" stroke="midnightblue" d="M1560.15,-172.036C1596.93,-161.476 1648.12,-146.779 1681.88,-137.084"/>
<polygon fill="midnightblue" stroke="midnightblue" points="1558.83,-168.773 1550.19,-174.897 1560.76,-175.501 1558.83,-168.773"/>
</g>
</g>
</svg>
