<?xml version="1.0" encoding="UTF-8" standalone="no"?>
<!DOCTYPE svg PUBLIC "-//W3C//DTD SVG 1.1//EN"
 "http://www.w3.org/Graphics/SVG/1.1/DTD/svg11.dtd">
<!-- Generated by graphviz version 2.26.3 (20100126.1600)
 -->
<!-- Title: FormScene.cpp Pages: 1 -->
<!--zoomable 634 -->
<svg id="main" version="1.1" xmlns="http://www.w3.org/2000/svg" xmlns:xlink="http://www.w3.org/1999/xlink" xml:space="preserve" onload="init(evt)">
<style type="text/css"><![CDATA[
.edge:hover path { stroke: red; }
.edge:hover polygon { stroke: red; fill: red; }
]]></style>
<script type="text/javascript"><![CDATA[
var edges = document.getElementsByTagName('g');
if (edges && edges.length) {
  for (var i=0;i<edges.length;i++) {
    if (edges[i].id.substr(0,4)=='edge') {
      edges[i].setAttribute('class','edge');
    }
  }
}
]]></script>
        <defs>
                <circle id="rim" cx="0" cy="0" r="7"/>
                <circle id="rim2" cx="0" cy="0" r="3.5"/>
                <g id="zoomPlus">
                        <use xlink:href="#rim" fill="#404040">
                                <set attributeName="fill" to="#808080" begin="zoomplus.mouseover" end="zoomplus.mouseout"/>
                        </use>
                        <path d="M-4,0h8M0,-4v8" fill="none" stroke="white" stroke-width="1.5" pointer-events="none"/>
                </g>
                <g id="zoomMin">
                        <use xlink:href="#rim" fill="#404040">
                                <set attributeName="fill" to="#808080" begin="zoomminus.mouseover" end="zoomminus.mouseout"/>
                        </use>
                        <path d="M-4,0h8" fill="none" stroke="white" stroke-width="1.5" pointer-events="none"/>
                </g>
                <g id="dirArrow">
                        <path fill="none" stroke="white" stroke-width="1.5" d="M0,-3.0v7 M-2.5,-0.5L0,-3.0L2.5,-0.5"/>
                </g>
               <g id="resetDef">
                       <use xlink:href="#rim2" fill="#404040">
                               <set attributeName="fill" to="#808080" begin="reset.mouseover" end="reset.mouseout"/>
                       </use>
               </g>
        </defs>

<script type="text/javascript">
var viewWidth = 1064;
var viewHeight = 634;
var sectionId = 'dynsection-0';
</script>
<script xlink:href="svgpan.js"/>
<svg id="graph" class="graph">
<g id="viewport">
<title>FormScene.cpp</title>
<!-- Node1 -->
<g id="node1" class="node"><title>Node1</title>
<polygon fill="#bfbfbf" stroke="black" points="507.5,-605 507.5,-625 592.5,-625 592.5,-605 507.5,-605"/>
<text text-anchor="middle" x="550" y="-612" font-family="FreeSans" font-size="10.00">FormScene.cpp</text>
</g>
<!-- Node2 -->
<g id="node3" class="node"><title>Node2</title>
<a xlink:href="_log_8h.html" target="_top" xlink:title="../../engine/Util/Log.h">
<polygon fill="none" stroke="black" points="391.5,-541 391.5,-561 496.5,-561 496.5,-541 391.5,-541"/>
<text text-anchor="middle" x="444" y="-548" font-family="FreeSans" font-size="10.00">../../engine/Util/Log.h</text>
</a>
</g>
<!-- Node1&#45;&gt;Node2 -->
<g id="edge2" class="edge"><title>Node1&#45;&gt;Node2</title>
<path fill="none" stroke="midnightblue" d="M532.969,-604.717C515.792,-594.346 489.07,-578.212 469.392,-566.331"/>
<polygon fill="midnightblue" stroke="midnightblue" points="471.009,-563.219 460.639,-561.046 467.391,-569.211 471.009,-563.219"/>
</g>
<!-- Node4 -->
<g id="node7" class="node"><title>Node4</title>
<a xlink:href="_controller_8h.html" target="_top" xlink:title="../../engine/Control\l/Controller.h">
<polygon fill="none" stroke="black" points="390,-291 390,-323 484,-323 484,-291 390,-291"/>
<text text-anchor="start" x="398" y="-310" font-family="FreeSans" font-size="10.00">../../engine/Control</text>
<text text-anchor="middle" x="437" y="-298" font-family="FreeSans" font-size="10.00">/Controller.h</text>
</a>
</g>
<!-- Node1&#45;&gt;Node4 -->
<g id="edge6" class="edge"><title>Node1&#45;&gt;Node4</title>
<path fill="none" stroke="midnightblue" d="M546.494,-604.856C539.397,-583.39 524,-531.672 524,-487 524,-487 524,-487 524,-429 524,-388.625 492.023,-352.364 466.842,-330.069"/>
<polygon fill="midnightblue" stroke="midnightblue" points="468.831,-327.165 458.954,-323.333 464.286,-332.489 468.831,-327.165"/>
</g>
<!-- Node15 -->
<g id="node31" class="node"><title>Node15</title>
<a xlink:href="_container_8h.html" target="_top" xlink:title="../../engine/Display\l/Container.h">
<polygon fill="none" stroke="black" points="649.5,-535 649.5,-567 744.5,-567 744.5,-535 649.5,-535"/>
<text text-anchor="start" x="657.5" y="-554" font-family="FreeSans" font-size="10.00">../../engine/Display</text>
<text text-anchor="middle" x="697" y="-542" font-family="FreeSans" font-size="10.00">/Container.h</text>
</a>
</g>
<!-- Node1&#45;&gt;Node15 -->
<g id="edge32" class="edge"><title>Node1&#45;&gt;Node15</title>
<path fill="none" stroke="midnightblue" d="M573.293,-604.859C594.058,-595.818 625.065,-582.319 650.841,-571.097"/>
<polygon fill="midnightblue" stroke="midnightblue" points="652.3,-574.279 660.072,-567.078 649.506,-567.86 652.3,-574.279"/>
</g>
<!-- Node31 -->
<g id="node72" class="node"><title>Node31</title>
<a xlink:href="_form_scene_8h.html" target="_top" xlink:title="FormScene.h">
<polygon fill="none" stroke="black" points="552,-361 552,-381 626,-381 626,-361 552,-361"/>
<text text-anchor="middle" x="589" y="-368" font-family="FreeSans" font-size="10.00">FormScene.h</text>
</a>
</g>
<!-- Node1&#45;&gt;Node31 -->
<g id="edge82" class="edge"><title>Node1&#45;&gt;Node31</title>
<path fill="none" stroke="midnightblue" d="M551.626,-604.826C557.511,-568.009 577.769,-441.269 585.74,-391.394"/>
<polygon fill="midnightblue" stroke="midnightblue" points="589.245,-391.644 587.367,-381.217 582.332,-390.539 589.245,-391.644"/>
</g>
<!-- Node3 -->
<g id="node5" class="node"><title>Node3</title>
<polygon fill="none" stroke="#bfbfbf" points="393.5,-477 393.5,-497 494.5,-497 494.5,-477 393.5,-477"/>
<text text-anchor="middle" x="444" y="-484" font-family="FreeSans" font-size="10.00">boost/log/trivial.hpp</text>
</g>
<!-- Node2&#45;&gt;Node3 -->
<g id="edge4" class="edge"><title>Node2&#45;&gt;Node3</title>
<path fill="none" stroke="midnightblue" d="M444,-540.717C444,-531.707 444,-518.347 444,-507.205"/>
<polygon fill="midnightblue" stroke="midnightblue" points="447.5,-507.046 444,-497.046 440.5,-507.046 447.5,-507.046"/>
</g>
<!-- Node5 -->
<g id="node9" class="node"><title>Node5</title>
<polygon fill="none" stroke="#bfbfbf" points="436,-117 436,-137 480,-137 480,-117 436,-117"/>
<text text-anchor="middle" x="458" y="-124" font-family="FreeSans" font-size="10.00">vector</text>
</g>
<!-- Node4&#45;&gt;Node5 -->
<g id="edge8" class="edge"><title>Node4&#45;&gt;Node5</title>
<path fill="none" stroke="midnightblue" d="M450.299,-290.967C457.678,-281.004 466.127,-267.548 470,-254 480.499,-217.273 471.404,-172.387 464.352,-147.007"/>
<polygon fill="midnightblue" stroke="midnightblue" points="467.617,-145.707 461.425,-137.11 460.905,-147.693 467.617,-145.707"/>
</g>
<!-- Node6 -->
<g id="node11" class="node"><title>Node6</title>
<polygon fill="none" stroke="#bfbfbf" points="377.5,-117 377.5,-137 418.5,-137 418.5,-117 377.5,-117"/>
<text text-anchor="middle" x="398" y="-124" font-family="FreeSans" font-size="10.00">string</text>
</g>
<!-- Node4&#45;&gt;Node6 -->
<g id="edge10" class="edge"><title>Node4&#45;&gt;Node6</title>
<path fill="none" stroke="midnightblue" d="M440.422,-290.84C445.112,-265.188 451.421,-213.964 437,-174 433.005,-162.929 425.142,-152.623 417.517,-144.499"/>
<polygon fill="midnightblue" stroke="midnightblue" points="419.684,-141.719 410.123,-137.156 414.752,-146.686 419.684,-141.719"/>
</g>
<!-- Node7 -->
<g id="node13" class="node"><title>Node7</title>
<polygon fill="none" stroke="#bfbfbf" points="319.5,-233 319.5,-253 390.5,-253 390.5,-233 319.5,-233"/>
<text text-anchor="middle" x="355" y="-240" font-family="FreeSans" font-size="10.00">SDL2/SDL.h</text>
</g>
<!-- Node4&#45;&gt;Node7 -->
<g id="edge12" class="edge"><title>Node4&#45;&gt;Node7</title>
<path fill="none" stroke="midnightblue" d="M416.308,-290.85C403.972,-281.222 388.355,-269.033 375.971,-259.367"/>
<polygon fill="midnightblue" stroke="midnightblue" points="378.03,-256.535 367.993,-253.141 373.723,-262.053 378.03,-256.535"/>
</g>
<!-- Node8 -->
<g id="node15" class="node"><title>Node8</title>
<a xlink:href="_action_8h.html" target="_top" xlink:title="Action.h">
<polygon fill="none" stroke="black" points="250,-233 250,-253 302,-253 302,-233 250,-233"/>
<text text-anchor="middle" x="276" y="-240" font-family="FreeSans" font-size="10.00">Action.h</text>
</a>
</g>
<!-- Node4&#45;&gt;Node8 -->
<g id="edge14" class="edge"><title>Node4&#45;&gt;Node8</title>
<path fill="none" stroke="midnightblue" d="M396.373,-290.85C370.057,-280.389 336.135,-266.905 311.012,-256.918"/>
<polygon fill="midnightblue" stroke="midnightblue" points="312.097,-253.583 301.511,-253.141 309.511,-260.087 312.097,-253.583"/>
</g>
<!-- Node14 -->
<g id="node27" class="node"><title>Node14</title>
<a xlink:href="_control_action_8h.html" target="_top" xlink:title="ControlAction.h">
<polygon fill="none" stroke="black" points="345.5,-175 345.5,-195 428.5,-195 428.5,-175 345.5,-175"/>
<text text-anchor="middle" x="387" y="-182" font-family="FreeSans" font-size="10.00">ControlAction.h</text>
</a>
</g>
<!-- Node4&#45;&gt;Node14 -->
<g id="edge30" class="edge"><title>Node4&#45;&gt;Node14</title>
<path fill="none" stroke="midnightblue" d="M430.36,-290.799C421.243,-268.553 404.865,-228.591 395.058,-204.661"/>
<polygon fill="midnightblue" stroke="midnightblue" points="398.211,-203.125 391.18,-195.199 391.734,-205.78 398.211,-203.125"/>
</g>
<!-- Node9 -->
<g id="node17" class="node"><title>Node9</title>
<polygon fill="none" stroke="#bfbfbf" points="91.5,-175 91.5,-195 204.5,-195 204.5,-175 91.5,-175"/>
<text text-anchor="middle" x="148" y="-182" font-family="FreeSans" font-size="10.00">SDL2/SDL_keycode.h</text>
</g>
<!-- Node8&#45;&gt;Node9 -->
<g id="edge16" class="edge"><title>Node8&#45;&gt;Node9</title>
<path fill="none" stroke="midnightblue" d="M253.704,-232.897C233.273,-223.639 202.797,-209.83 179.811,-199.415"/>
<polygon fill="midnightblue" stroke="midnightblue" points="181.023,-196.121 170.47,-195.182 178.134,-202.497 181.023,-196.121"/>
</g>
<!-- Node10 -->
<g id="node19" class="node"><title>Node10</title>
<polygon fill="none" stroke="#bfbfbf" points="222,-175 222,-195 328,-195 328,-175 222,-175"/>
<text text-anchor="middle" x="275" y="-182" font-family="FreeSans" font-size="10.00">SDL2/SDL_mouse.h</text>
</g>
<!-- Node8&#45;&gt;Node10 -->
<g id="edge18" class="edge"><title>Node8&#45;&gt;Node10</title>
<path fill="none" stroke="midnightblue" d="M275.826,-232.897C275.696,-225.339 275.513,-214.748 275.353,-205.446"/>
<polygon fill="midnightblue" stroke="midnightblue" points="278.851,-205.316 275.179,-195.378 271.852,-205.436 278.851,-205.316"/>
</g>
<!-- Node11 -->
<g id="node21" class="node"><title>Node11</title>
<a xlink:href="_vec_8h.html" target="_top" xlink:title="../Vec.h">
<polygon fill="none" stroke="black" points="645.5,-175 645.5,-195 694.5,-195 694.5,-175 645.5,-175"/>
<text text-anchor="middle" x="670" y="-182" font-family="FreeSans" font-size="10.00">../Vec.h</text>
</a>
</g>
<!-- Node8&#45;&gt;Node11 -->
<g id="edge20" class="edge"><title>Node8&#45;&gt;Node11</title>
<path fill="none" stroke="midnightblue" d="M302.229,-234.159C305.167,-233.347 308.133,-232.605 311,-232 451.901,-202.274 491.872,-224.631 633,-196 633.891,-195.819 634.791,-195.627 635.697,-195.424"/>
<polygon fill="midnightblue" stroke="midnightblue" points="636.637,-198.797 645.475,-192.954 634.922,-192.01 636.637,-198.797"/>
</g>
<!-- Node12 -->
<g id="node23" class="node"><title>Node12</title>
<a xlink:href="_exception_8h.html" target="_top" xlink:title="../Exception.h">
<polygon fill="none" stroke="black" points="0,-175 0,-195 74,-195 74,-175 0,-175"/>
<text text-anchor="middle" x="37" y="-182" font-family="FreeSans" font-size="10.00">../Exception.h</text>
</a>
</g>
<!-- Node8&#45;&gt;Node12 -->
<g id="edge22" class="edge"><title>Node8&#45;&gt;Node12</title>
<path fill="none" stroke="midnightblue" d="M249.968,-236.683C210.24,-227.041 133.869,-208.508 84.1993,-196.454"/>
<polygon fill="midnightblue" stroke="midnightblue" points="84.8779,-193.017 74.3345,-194.06 83.227,-199.82 84.8779,-193.017"/>
</g>
<!-- Node8&#45;&gt;Node14 -->
<g id="edge26" class="edge"><title>Node8&#45;&gt;Node14</title>
<path fill="none" stroke="midnightblue" d="M295.335,-232.897C312.815,-223.763 338.774,-210.199 358.609,-199.835"/>
<polygon fill="midnightblue" stroke="midnightblue" points="360.272,-202.915 367.514,-195.182 357.03,-196.711 360.272,-202.915"/>
</g>
<!-- Node13 -->
<g id="node25" class="node"><title>Node13</title>
<polygon fill="none" stroke="#bfbfbf" points="8,-117 8,-137 66,-137 66,-117 8,-117"/>
<text text-anchor="middle" x="37" y="-124" font-family="FreeSans" font-size="10.00">exception</text>
</g>
<!-- Node12&#45;&gt;Node13 -->
<g id="edge24" class="edge"><title>Node12&#45;&gt;Node13</title>
<path fill="none" stroke="midnightblue" d="M37,-174.897C37,-167.339 37,-156.748 37,-147.446"/>
<polygon fill="midnightblue" stroke="midnightblue" points="40.5001,-147.378 37,-137.378 33.5001,-147.378 40.5001,-147.378"/>
</g>
<!-- Node14&#45;&gt;Node6 -->
<g id="edge28" class="edge"><title>Node14&#45;&gt;Node6</title>
<path fill="none" stroke="midnightblue" d="M388.916,-174.897C390.349,-167.339 392.358,-156.748 394.122,-147.446"/>
<polygon fill="midnightblue" stroke="midnightblue" points="397.607,-147.855 396.032,-137.378 390.73,-146.55 397.607,-147.855"/>
</g>
<!-- Node16 -->
<g id="node33" class="node"><title>Node16</title>
<a xlink:href="_base_container_8h.html" target="_top" xlink:title="BaseContainer.h">
<polygon fill="none" stroke="black" points="698,-477 698,-497 786,-497 786,-477 698,-477"/>
<text text-anchor="middle" x="742" y="-484" font-family="FreeSans" font-size="10.00">BaseContainer.h</text>
</a>
</g>
<!-- Node15&#45;&gt;Node16 -->
<g id="edge34" class="edge"><title>Node15&#45;&gt;Node16</title>
<path fill="none" stroke="midnightblue" d="M708.355,-534.85C714.669,-525.87 722.55,-514.663 729.096,-505.352"/>
<polygon fill="midnightblue" stroke="midnightblue" points="731.981,-507.334 734.87,-497.141 726.255,-503.308 731.981,-507.334"/>
</g>
<!-- Node17 -->
<g id="node35" class="node"><title>Node17</title>
<a xlink:href="_ui_view_model_8h.html" target="_top" xlink:title="UiViewModel.h">
<polygon fill="none" stroke="black" points="792,-419 792,-439 874,-439 874,-419 792,-419"/>
<text text-anchor="middle" x="833" y="-426" font-family="FreeSans" font-size="10.00">UiViewModel.h</text>
</a>
</g>
<!-- Node16&#45;&gt;Node17 -->
<g id="edge36" class="edge"><title>Node16&#45;&gt;Node17</title>
<path fill="none" stroke="midnightblue" d="M757.851,-476.897C771.728,-468.052 792.122,-455.054 808.165,-444.829"/>
<polygon fill="midnightblue" stroke="midnightblue" points="810.474,-447.508 817.025,-439.182 806.711,-441.605 810.474,-447.508"/>
</g>
<!-- Node17&#45;&gt;Node11 -->
<g id="edge44" class="edge"><title>Node17&#45;&gt;Node11</title>
<path fill="none" stroke="midnightblue" d="M800.419,-418.882C780.962,-411.399 757.002,-399.448 741,-382 693.587,-330.302 677.312,-244.62 672.171,-205.553"/>
<polygon fill="midnightblue" stroke="midnightblue" points="675.622,-204.936 670.955,-195.424 668.672,-205.77 675.622,-204.936"/>
</g>
<!-- Node18 -->
<g id="node37" class="node"><title>Node18</title>
<a xlink:href="_nav_8h.html" target="_top" xlink:title="../Control/Nav.h">
<polygon fill="none" stroke="black" points="839.5,-361 839.5,-381 922.5,-381 922.5,-361 839.5,-361"/>
<text text-anchor="middle" x="881" y="-368" font-family="FreeSans" font-size="10.00">../Control/Nav.h</text>
</a>
</g>
<!-- Node17&#45;&gt;Node18 -->
<g id="edge38" class="edge"><title>Node17&#45;&gt;Node18</title>
<path fill="none" stroke="midnightblue" d="M841.361,-418.897C848.092,-410.764 857.73,-399.118 865.816,-389.347"/>
<polygon fill="midnightblue" stroke="midnightblue" points="868.732,-391.313 872.412,-381.378 863.34,-386.85 868.732,-391.313"/>
</g>
<!-- Node19 -->
<g id="node39" class="node"><title>Node19</title>
<a xlink:href="_m_r___types_8h.html" target="_top" xlink:title="../Util/MR_Types.h">
<polygon fill="none" stroke="black" points="932,-59 932,-79 1028,-79 1028,-59 932,-59"/>
<text text-anchor="middle" x="980" y="-66" font-family="FreeSans" font-size="10.00">../Util/MR_Types.h</text>
</a>
</g>
<!-- Node17&#45;&gt;Node19 -->
<g id="edge40" class="edge"><title>Node17&#45;&gt;Node19</title>
<path fill="none" stroke="midnightblue" d="M874.162,-424.999C938.596,-416.219 1056,-388.972 1056,-307 1056,-307 1056,-307 1056,-185 1056,-144.258 1022.79,-106.694 1000.28,-85.9072"/>
<polygon fill="midnightblue" stroke="midnightblue" points="1002.35,-83.0634 992.55,-79.0334 997.697,-88.2942 1002.35,-83.0634"/>
</g>
<!-- Node21 -->
<g id="node44" class="node"><title>Node21</title>
<a xlink:href="_ui_layout_flags_8h.html" target="_top" xlink:title="UiLayoutFlags.h">
<polygon fill="none" stroke="black" points="906.5,-233 906.5,-253 993.5,-253 993.5,-233 906.5,-233"/>
<text text-anchor="middle" x="950" y="-240" font-family="FreeSans" font-size="10.00">UiLayoutFlags.h</text>
</a>
</g>
<!-- Node17&#45;&gt;Node21 -->
<g id="edge46" class="edge"><title>Node17&#45;&gt;Node21</title>
<path fill="none" stroke="midnightblue" d="M874.299,-419.141C894.55,-412.151 917.443,-400.605 931,-382 956.706,-346.723 955.733,-292.719 952.836,-263.495"/>
<polygon fill="midnightblue" stroke="midnightblue" points="956.278,-262.793 951.638,-253.268 949.325,-263.608 956.278,-262.793"/>
</g>
<!-- Node22 -->
<g id="node47" class="node"><title>Node22</title>
<a xlink:href="_view_model_8h.html" target="_top" xlink:title="ViewModel.h">
<polygon fill="none" stroke="black" points="750,-361 750,-381 822,-381 822,-361 750,-361"/>
<text text-anchor="middle" x="786" y="-368" font-family="FreeSans" font-size="10.00">ViewModel.h</text>
</a>
</g>
<!-- Node17&#45;&gt;Node22 -->
<g id="edge50" class="edge"><title>Node17&#45;&gt;Node22</title>
<path fill="none" stroke="midnightblue" d="M824.813,-418.897C818.223,-410.764 808.786,-399.118 800.867,-389.347"/>
<polygon fill="midnightblue" stroke="midnightblue" points="803.425,-386.943 794.409,-381.378 797.986,-391.351 803.425,-386.943"/>
</g>
<!-- Node20 -->
<g id="node41" class="node"><title>Node20</title>
<polygon fill="none" stroke="#bfbfbf" points="951,-1 951,-21 1009,-21 1009,-1 951,-1"/>
<text text-anchor="middle" x="980" y="-8" font-family="FreeSans" font-size="10.00">inttypes.h</text>
</g>
<!-- Node19&#45;&gt;Node20 -->
<g id="edge42" class="edge"><title>Node19&#45;&gt;Node20</title>
<path fill="none" stroke="midnightblue" d="M980,-58.8972C980,-51.339 980,-40.7476 980,-31.4458"/>
<polygon fill="midnightblue" stroke="midnightblue" points="983.5,-31.3776 980,-21.3776 976.5,-31.3776 983.5,-31.3776"/>
</g>
<!-- Node21&#45;&gt;Node19 -->
<g id="edge48" class="edge"><title>Node21&#45;&gt;Node19</title>
<path fill="none" stroke="midnightblue" d="M953.958,-232.775C960.899,-214.232 975.004,-173.673 980,-138 982.259,-121.873 982.119,-103.418 981.49,-89.6535"/>
<polygon fill="midnightblue" stroke="midnightblue" points="984.966,-89.1287 980.89,-79.3493 977.978,-89.536 984.966,-89.1287"/>
</g>
<!-- Node23 -->
<g id="node49" class="node"><title>Node23</title>
<a xlink:href="_display_8h.html" target="_top" xlink:title="Display.h">
<polygon fill="none" stroke="black" points="829,-297 829,-317 885,-317 885,-297 829,-297"/>
<text text-anchor="middle" x="857" y="-304" font-family="FreeSans" font-size="10.00">Display.h</text>
</a>
</g>
<!-- Node22&#45;&gt;Node23 -->
<g id="edge52" class="edge"><title>Node22&#45;&gt;Node23</title>
<path fill="none" stroke="midnightblue" d="M797.407,-360.717C808.444,-350.768 825.364,-335.517 838.359,-323.803"/>
<polygon fill="midnightblue" stroke="midnightblue" points="840.771,-326.341 845.855,-317.046 836.084,-321.142 840.771,-326.341"/>
</g>
<!-- Node29 -->
<g id="node67" class="node"><title>Node29</title>
<a xlink:href="_view_attacher_8h.html" target="_top" xlink:title="ViewAttacher.h">
<polygon fill="none" stroke="black" points="697.5,-233 697.5,-253 780.5,-253 780.5,-233 697.5,-233"/>
<text text-anchor="middle" x="739" y="-240" font-family="FreeSans" font-size="10.00">ViewAttacher.h</text>
</a>
</g>
<!-- Node22&#45;&gt;Node29 -->
<g id="edge80" class="edge"><title>Node22&#45;&gt;Node29</title>
<path fill="none" stroke="midnightblue" d="M777.922,-360.777C771.094,-351.638 761.56,-337.623 756,-324 747.927,-304.219 743.497,-280.092 741.202,-263.339"/>
<polygon fill="midnightblue" stroke="midnightblue" points="744.632,-262.561 739.935,-253.064 737.685,-263.417 744.632,-262.561"/>
</g>
<!-- Node30 -->
<g id="node69" class="node"><title>Node30</title>
<a xlink:href="_view_8h.html" target="_top" xlink:title="View.h">
<polygon fill="none" stroke="black" points="765,-297 765,-317 811,-317 811,-297 765,-297"/>
<text text-anchor="middle" x="788" y="-304" font-family="FreeSans" font-size="10.00">View.h</text>
</a>
</g>
<!-- Node22&#45;&gt;Node30 -->
<g id="edge78" class="edge"><title>Node22&#45;&gt;Node30</title>
<path fill="none" stroke="midnightblue" d="M786.321,-360.717C786.603,-351.707 787.02,-338.347 787.369,-327.205"/>
<polygon fill="midnightblue" stroke="midnightblue" points="790.872,-327.151 787.686,-317.046 783.875,-326.932 790.872,-327.151"/>
</g>
<!-- Node23&#45;&gt;Node11 -->
<g id="edge54" class="edge"><title>Node23&#45;&gt;Node11</title>
<path fill="none" stroke="midnightblue" d="M850.2,-296.906C839.089,-281.095 815.595,-250.4 789,-232 763.151,-214.117 729.52,-201.643 704.607,-194.063"/>
<polygon fill="midnightblue" stroke="midnightblue" points="705.43,-190.657 694.85,-191.207 703.464,-197.376 705.43,-190.657"/>
</g>
<!-- Node23&#45;&gt;Node21 -->
<g id="edge74" class="edge"><title>Node23&#45;&gt;Node21</title>
<path fill="none" stroke="midnightblue" d="M871.942,-296.717C886.808,-286.487 909.822,-270.649 927.015,-258.817"/>
<polygon fill="midnightblue" stroke="midnightblue" points="929.148,-261.599 935.402,-253.046 925.18,-255.832 929.148,-261.599"/>
</g>
<!-- Node24 -->
<g id="node52" class="node"><title>Node24</title>
<a xlink:href="_styles_8h.html" target="_top" xlink:title="Styles.h">
<polygon fill="none" stroke="black" points="835.5,-233 835.5,-253 886.5,-253 886.5,-233 835.5,-233"/>
<text text-anchor="middle" x="861" y="-240" font-family="FreeSans" font-size="10.00">Styles.h</text>
</a>
</g>
<!-- Node23&#45;&gt;Node24 -->
<g id="edge56" class="edge"><title>Node23&#45;&gt;Node24</title>
<path fill="none" stroke="midnightblue" d="M857.643,-296.717C858.206,-287.707 859.041,-274.347 859.737,-263.205"/>
<polygon fill="midnightblue" stroke="midnightblue" points="863.241,-263.245 860.372,-253.046 856.255,-262.808 863.241,-263.245"/>
</g>
<!-- Node23&#45;&gt;Node29 -->
<g id="edge76" class="edge"><title>Node23&#45;&gt;Node29</title>
<path fill="none" stroke="midnightblue" d="M838.303,-296.859C818.969,-286.373 788.576,-269.889 766.504,-257.917"/>
<polygon fill="midnightblue" stroke="midnightblue" points="768.069,-254.785 757.61,-253.094 764.732,-260.938 768.069,-254.785"/>
</g>
<!-- Node24&#45;&gt;Node11 -->
<g id="edge58" class="edge"><title>Node24&#45;&gt;Node11</title>
<path fill="none" stroke="midnightblue" d="M835.241,-235.178C801.548,-224.946 742.389,-206.982 704.752,-195.553"/>
<polygon fill="midnightblue" stroke="midnightblue" points="705.332,-192.071 694.747,-192.515 703.298,-198.769 705.332,-192.071"/>
</g>
<!-- Node25 -->
<g id="node55" class="node"><title>Node25</title>
<a xlink:href="_ui_font_8h.html" target="_top" xlink:title="UiFont.h">
<polygon fill="none" stroke="black" points="788.5,-175 788.5,-195 841.5,-195 841.5,-175 788.5,-175"/>
<text text-anchor="middle" x="815" y="-182" font-family="FreeSans" font-size="10.00">UiFont.h</text>
</a>
</g>
<!-- Node24&#45;&gt;Node25 -->
<g id="edge60" class="edge"><title>Node24&#45;&gt;Node25</title>
<path fill="none" stroke="midnightblue" d="M852.987,-232.897C846.537,-224.764 837.301,-213.118 829.551,-203.347"/>
<polygon fill="midnightblue" stroke="midnightblue" points="832.187,-201.038 823.231,-195.378 826.702,-205.387 832.187,-201.038"/>
</g>
<!-- Node27 -->
<g id="node60" class="node"><title>Node27</title>
<a xlink:href="_color_8h.html" target="_top" xlink:title="Color.h">
<polygon fill="none" stroke="black" points="875.5,-175 875.5,-195 922.5,-195 922.5,-175 875.5,-175"/>
<text text-anchor="middle" x="899" y="-182" font-family="FreeSans" font-size="10.00">Color.h</text>
</a>
</g>
<!-- Node24&#45;&gt;Node27 -->
<g id="edge66" class="edge"><title>Node24&#45;&gt;Node27</title>
<path fill="none" stroke="midnightblue" d="M867.619,-232.897C872.84,-224.928 880.27,-213.587 886.59,-203.941"/>
<polygon fill="midnightblue" stroke="midnightblue" points="889.648,-205.66 892.201,-195.378 883.793,-201.824 889.648,-205.66"/>
</g>
<!-- Node26 -->
<g id="node57" class="node"><title>Node26</title>
<a xlink:href="_sel_fmt_8h.html" target="_top" xlink:title="../Util/SelFmt.h">
<polygon fill="none" stroke="black" points="765.5,-117 765.5,-137 846.5,-137 846.5,-117 765.5,-117"/>
<text text-anchor="middle" x="806" y="-124" font-family="FreeSans" font-size="10.00">../Util/SelFmt.h</text>
</a>
</g>
<!-- Node25&#45;&gt;Node26 -->
<g id="edge62" class="edge"><title>Node25&#45;&gt;Node26</title>
<path fill="none" stroke="midnightblue" d="M813.432,-174.897C812.26,-167.339 810.616,-156.748 809.173,-147.446"/>
<polygon fill="midnightblue" stroke="midnightblue" points="812.602,-146.723 807.61,-137.378 805.685,-147.796 812.602,-146.723"/>
</g>
<!-- Node26&#45;&gt;Node19 -->
<g id="edge64" class="edge"><title>Node26&#45;&gt;Node19</title>
<path fill="none" stroke="midnightblue" d="M836.308,-116.897C865.038,-107.321 908.377,-92.8742 939.945,-82.3516"/>
<polygon fill="midnightblue" stroke="midnightblue" points="941.367,-85.5669 949.747,-79.0842 939.154,-78.9261 941.367,-85.5669"/>
</g>
<!-- Node27&#45;&gt;Node19 -->
<g id="edge70" class="edge"><title>Node27&#45;&gt;Node19</title>
<path fill="none" stroke="midnightblue" d="M918.244,-174.959C932.091,-166.783 950.167,-153.991 961,-138 970.885,-123.409 975.649,-103.804 977.932,-89.2206"/>
<polygon fill="midnightblue" stroke="midnightblue" points="981.414,-89.5827 979.238,-79.2138 974.473,-88.6767 981.414,-89.5827"/>
</g>
<!-- Node27&#45;&gt;Node26 -->
<g id="edge72" class="edge"><title>Node27&#45;&gt;Node26</title>
<path fill="none" stroke="midnightblue" d="M882.801,-174.897C868.486,-165.97 847.386,-152.811 830.923,-142.543"/>
<polygon fill="midnightblue" stroke="midnightblue" points="832.663,-139.504 822.326,-137.182 828.959,-145.443 832.663,-139.504"/>
</g>
<!-- Node28 -->
<g id="node62" class="node"><title>Node28</title>
<polygon fill="none" stroke="#bfbfbf" points="863.5,-117 863.5,-137 952.5,-137 952.5,-117 863.5,-117"/>
<text text-anchor="middle" x="908" y="-124" font-family="FreeSans" font-size="10.00">boost/format.hpp</text>
</g>
<!-- Node27&#45;&gt;Node28 -->
<g id="edge68" class="edge"><title>Node27&#45;&gt;Node28</title>
<path fill="none" stroke="midnightblue" d="M900.568,-174.897C901.74,-167.339 903.384,-156.748 904.827,-147.446"/>
<polygon fill="midnightblue" stroke="midnightblue" points="908.315,-147.796 906.39,-137.378 901.398,-146.723 908.315,-147.796"/>
</g>
<!-- Node31&#45;&gt;Node11 -->
<g id="edge84" class="edge"><title>Node31&#45;&gt;Node11</title>
<path fill="none" stroke="midnightblue" d="M594.589,-360.668C599.621,-351.225 607.11,-336.821 613,-324 632.224,-282.153 652.045,-231.91 662.494,-204.758"/>
<polygon fill="midnightblue" stroke="midnightblue" points="665.831,-205.83 666.137,-195.239 659.294,-203.328 665.831,-205.83"/>
</g>
<!-- Node32 -->
<g id="node75" class="node"><title>Node32</title>
<a xlink:href="_ui_scene_8h.html" target="_top" xlink:title="UiScene.h">
<polygon fill="none" stroke="black" points="542,-297 542,-317 604,-317 604,-297 542,-297"/>
<text text-anchor="middle" x="573" y="-304" font-family="FreeSans" font-size="10.00">UiScene.h</text>
</a>
</g>
<!-- Node31&#45;&gt;Node32 -->
<g id="edge86" class="edge"><title>Node31&#45;&gt;Node32</title>
<path fill="none" stroke="midnightblue" d="M586.429,-360.717C584.153,-351.613 580.767,-338.068 577.964,-326.858"/>
<polygon fill="midnightblue" stroke="midnightblue" points="581.332,-325.899 575.512,-317.046 574.541,-327.597 581.332,-325.899"/>
</g>
<!-- Node33 -->
<g id="node77" class="node"><title>Node33</title>
<a xlink:href="_scene_8h.html" target="_top" xlink:title="Scene.h">
<polygon fill="none" stroke="black" points="547,-233 547,-253 599,-253 599,-233 547,-233"/>
<text text-anchor="middle" x="573" y="-240" font-family="FreeSans" font-size="10.00">Scene.h</text>
</a>
</g>
<!-- Node32&#45;&gt;Node33 -->
<g id="edge88" class="edge"><title>Node32&#45;&gt;Node33</title>
<path fill="none" stroke="midnightblue" d="M573,-296.717C573,-287.707 573,-274.347 573,-263.205"/>
<polygon fill="midnightblue" stroke="midnightblue" points="576.5,-263.046 573,-253.046 569.5,-263.046 576.5,-263.046"/>
</g>
<!-- Node34 -->
<g id="node79" class="node"><title>Node34</title>
<a xlink:href="_o_s_8h.html" target="_top" xlink:title="../../engine/Util/OS.h">
<polygon fill="none" stroke="black" points="521.5,-175 521.5,-195 624.5,-195 624.5,-175 521.5,-175"/>
<text text-anchor="middle" x="573" y="-182" font-family="FreeSans" font-size="10.00">../../engine/Util/OS.h</text>
</a>
</g>
<!-- Node33&#45;&gt;Node34 -->
<g id="edge90" class="edge"><title>Node33&#45;&gt;Node34</title>
<path fill="none" stroke="midnightblue" d="M573,-232.897C573,-225.339 573,-214.748 573,-205.446"/>
<polygon fill="midnightblue" stroke="midnightblue" points="576.5,-205.378 573,-195.378 569.5,-205.378 576.5,-205.378"/>
</g>
<!-- Node34&#45;&gt;Node5 -->
<g id="edge98" class="edge"><title>Node34&#45;&gt;Node5</title>
<path fill="none" stroke="midnightblue" d="M552.969,-174.897C534.776,-165.722 507.72,-152.076 487.135,-141.694"/>
<polygon fill="midnightblue" stroke="midnightblue" points="488.693,-138.56 478.188,-137.182 485.54,-144.81 488.693,-138.56"/>
</g>
<!-- Node34&#45;&gt;Node6 -->
<g id="edge96" class="edge"><title>Node34&#45;&gt;Node6</title>
<path fill="none" stroke="midnightblue" d="M540.078,-174.929C512.412,-166.35 471.631,-153.434 428.157,-138.307"/>
<polygon fill="midnightblue" stroke="midnightblue" points="429.142,-134.944 418.548,-134.942 426.829,-141.551 429.142,-134.944"/>
</g>
<!-- Node34&#45;&gt;Node19 -->
<g id="edge102" class="edge"><title>Node34&#45;&gt;Node19</title>
<path fill="none" stroke="midnightblue" d="M611.642,-174.996C641.562,-166.674 683.715,-153.678 719,-138 736.834,-130.076 738.779,-122.989 757,-116 810.92,-95.318 875.848,-82.9413 921.702,-76.1224"/>
<polygon fill="midnightblue" stroke="midnightblue" points="922.368,-79.5626 931.765,-74.6695 921.368,-72.6344 922.368,-79.5626"/>
</g>
<!-- Node35 -->
<g id="node81" class="node"><title>Node35</title>
<polygon fill="none" stroke="#bfbfbf" points="498,-117 498,-137 540,-137 540,-117 498,-117"/>
<text text-anchor="middle" x="519" y="-124" font-family="FreeSans" font-size="10.00">locale</text>
</g>
<!-- Node34&#45;&gt;Node35 -->
<g id="edge92" class="edge"><title>Node34&#45;&gt;Node35</title>
<path fill="none" stroke="midnightblue" d="M563.594,-174.897C555.869,-166.6 544.74,-154.646 535.532,-144.757"/>
<polygon fill="midnightblue" stroke="midnightblue" points="538.038,-142.312 528.662,-137.378 532.914,-147.082 538.038,-142.312"/>
</g>
<!-- Node36 -->
<g id="node83" class="node"><title>Node36</title>
<polygon fill="none" stroke="#bfbfbf" points="558,-117 558,-137 588,-137 588,-117 558,-117"/>
<text text-anchor="middle" x="573" y="-124" font-family="FreeSans" font-size="10.00">set</text>
</g>
<!-- Node34&#45;&gt;Node36 -->
<g id="edge94" class="edge"><title>Node34&#45;&gt;Node36</title>
<path fill="none" stroke="midnightblue" d="M573,-174.897C573,-167.339 573,-156.748 573,-147.446"/>
<polygon fill="midnightblue" stroke="midnightblue" points="576.5,-147.378 573,-137.378 569.5,-147.378 576.5,-147.378"/>
</g>
<!-- Node37 -->
<g id="node87" class="node"><title>Node37</title>
<polygon fill="none" stroke="#bfbfbf" points="605.5,-117 605.5,-137 710.5,-137 710.5,-117 605.5,-117"/>
<text text-anchor="middle" x="658" y="-124" font-family="FreeSans" font-size="10.00">boost/filesystem.hpp</text>
</g>
<!-- Node34&#45;&gt;Node37 -->
<g id="edge100" class="edge"><title>Node34&#45;&gt;Node37</title>
<path fill="none" stroke="midnightblue" d="M587.806,-174.897C600.768,-166.052 619.818,-153.054 634.802,-142.829"/>
<polygon fill="midnightblue" stroke="midnightblue" points="636.791,-145.709 643.079,-137.182 632.846,-139.927 636.791,-145.709"/>
</g>
</g>
</svg>
        <g id="navigator" transform="translate(0 0)" fill="#404254">
                <rect fill="#f2f5e9" fill-opacity="0.5" stroke="#606060" stroke-width=".5" x="0" y="0" width="60" height="60"/>
                <use id="zoomplus" xlink:href="#zoomPlus" x="17" y="9" onmousedown="handleZoom(evt,'in')"/>
                <use id="zoomminus" xlink:href="#zoomMin" x="42" y="9" onmousedown="handleZoom(evt,'out')"/>
                <use id="reset" xlink:href="#resetDef" x="30" y="36" onmousedown="handleReset()"/>
                <g id="arrowUp" xlink:href="#dirArrow" transform="translate(30 24)" onmousedown="handlePan(0,-1)">
                  <use xlink:href="#rim" fill="#404040">
                        <set attributeName="fill" to="#808080" begin="arrowUp.mouseover" end="arrowUp.mouseout"/>
                  </use>
                  <path fill="none" stroke="white" stroke-width="1.5" d="M0,-3.0v7 M-2.5,-0.5L0,-3.0L2.5,-0.5"/>
                </g>
                <g id="arrowRight" xlink:href="#dirArrow" transform="rotate(90) translate(36 -43)" onmousedown="handlePan(1,0)">
                  <use xlink:href="#rim" fill="#404040">
                        <set attributeName="fill" to="#808080" begin="arrowRight.mouseover" end="arrowRight.mouseout"/>
                  </use>
                  <path fill="none" stroke="white" stroke-width="1.5" d="M0,-3.0v7 M-2.5,-0.5L0,-3.0L2.5,-0.5"/>
                </g>
                <g id="arrowDown" xlink:href="#dirArrow" transform="rotate(180) translate(-30 -48)" onmousedown="handlePan(0,1)">
                  <use xlink:href="#rim" fill="#404040">
                        <set attributeName="fill" to="#808080" begin="arrowDown.mouseover" end="arrowDown.mouseout"/>
                  </use>
                  <path fill="none" stroke="white" stroke-width="1.5" d="M0,-3.0v7 M-2.5,-0.5L0,-3.0L2.5,-0.5"/>
                </g>
                <g id="arrowLeft" xlink:href="#dirArrow" transform="rotate(270) translate(-36 17)" onmousedown="handlePan(-1,0)">
                  <use xlink:href="#rim" fill="#404040">
                        <set attributeName="fill" to="#808080" begin="arrowLeft.mouseover" end="arrowLeft.mouseout"/>
                  </use>
                  <path fill="none" stroke="white" stroke-width="1.5" d="M0,-3.0v7 M-2.5,-0.5L0,-3.0L2.5,-0.5"/>
                </g>
        </g>
        <svg viewBox="0 0 15 15" width="100%" height="30px" preserveAspectRatio="xMaxYMin meet">
         <g id="arrow_out" transform="scale(0.3 0.3)">
          <a xlink:href="_form_scene_8cpp__incl_org.svg" target="_base">
           <rect id="button" ry="5" rx="5" y="6" x="6" height="38" width="38"
                fill="#f2f5e9" fill-opacity="0.5" stroke="#606060" stroke-width="1.0"/>
           <path id="arrow"
             d="M 11.500037,31.436501 C 11.940474,20.09759 22.043105,11.32322 32.158766,21.979434 L 37.068811,17.246167 C 37.068811,17.246167 37.088388,32 37.088388,32 L 22.160133,31.978069 C 22.160133,31.978069 26.997745,27.140456 26.997745,27.140456 C 18.528582,18.264221 13.291696,25.230495 11.500037,31.436501 z"
             style="fill:#404040;"/>
          </a>
         </g>
        </svg>
</svg>
