<?xml version="1.0" encoding="UTF-8" standalone="no"?>
<!DOCTYPE svg PUBLIC "-//W3C//DTD SVG 1.1//EN"
 "http://www.w3.org/Graphics/SVG/1.1/DTD/svg11.dtd">
<!-- Generated by graphviz version 2.26.3 (20100126.1600)
 -->
<!-- Title: FormScene.h Pages: 1 -->
<svg width="492pt" height="320pt"
 viewBox="0.00 0.00 492.00 320.00" xmlns="http://www.w3.org/2000/svg" xmlns:xlink="http://www.w3.org/1999/xlink">
<g id="graph1" class="graph" transform="scale(1 1) rotate(0) translate(4 316)">
<title>FormScene.h</title>
<!-- Node1 -->
<g id="node1" class="node"><title>Node1</title>
<polygon fill="#bfbfbf" stroke="black" points="204,-291 204,-311 278,-311 278,-291 204,-291"/>
<text text-anchor="middle" x="241" y="-298" font-family="FreeSans" font-size="10.00">FormScene.h</text>
</g>
<!-- Node2 -->
<g id="node3" class="node"><title>Node2</title>
<a xlink:href="_vec_8h.html" target="_top" xlink:title="../../engine/Vec.h">
<polygon fill="none" stroke="black" points="151,-233 151,-253 239,-253 239,-233 151,-233"/>
<text text-anchor="middle" x="195" y="-240" font-family="FreeSans" font-size="10.00">../../engine/Vec.h</text>
</a>
</g>
<!-- Node1&#45;&gt;Node2 -->
<g id="edge2" class="edge"><title>Node1&#45;&gt;Node2</title>
<path fill="none" stroke="midnightblue" d="M232.987,-290.897C226.537,-282.764 217.301,-271.118 209.551,-261.347"/>
<polygon fill="midnightblue" stroke="midnightblue" points="212.187,-259.038 203.231,-253.378 206.702,-263.387 212.187,-259.038"/>
</g>
<!-- Node3 -->
<g id="node5" class="node"><title>Node3</title>
<a xlink:href="_ui_scene_8h.html" target="_top" xlink:title="UiScene.h">
<polygon fill="none" stroke="black" points="257,-233 257,-253 319,-253 319,-233 257,-233"/>
<text text-anchor="middle" x="288" y="-240" font-family="FreeSans" font-size="10.00">UiScene.h</text>
</a>
</g>
<!-- Node1&#45;&gt;Node3 -->
<g id="edge4" class="edge"><title>Node1&#45;&gt;Node3</title>
<path fill="none" stroke="midnightblue" d="M249.187,-290.897C255.777,-282.764 265.214,-271.118 273.133,-261.347"/>
<polygon fill="midnightblue" stroke="midnightblue" points="276.014,-263.351 279.591,-253.378 270.575,-258.943 276.014,-263.351"/>
</g>
<!-- Node4 -->
<g id="node7" class="node"><title>Node4</title>
<a xlink:href="_scene_8h.html" target="_top" xlink:title="Scene.h">
<polygon fill="none" stroke="black" points="262,-175 262,-195 314,-195 314,-175 262,-175"/>
<text text-anchor="middle" x="288" y="-182" font-family="FreeSans" font-size="10.00">Scene.h</text>
</a>
</g>
<!-- Node3&#45;&gt;Node4 -->
<g id="edge6" class="edge"><title>Node3&#45;&gt;Node4</title>
<path fill="none" stroke="midnightblue" d="M288,-232.897C288,-225.339 288,-214.748 288,-205.446"/>
<polygon fill="midnightblue" stroke="midnightblue" points="291.5,-205.378 288,-195.378 284.5,-205.378 291.5,-205.378"/>
</g>
<!-- Node5 -->
<g id="node9" class="node"><title>Node5</title>
<a xlink:href="_o_s_8h.html" target="_top" xlink:title="../../engine/Util/OS.h">
<polygon fill="none" stroke="black" points="136.5,-117 136.5,-137 239.5,-137 239.5,-117 136.5,-117"/>
<text text-anchor="middle" x="188" y="-124" font-family="FreeSans" font-size="10.00">../../engine/Util/OS.h</text>
</a>
</g>
<!-- Node4&#45;&gt;Node5 -->
<g id="edge8" class="edge"><title>Node4&#45;&gt;Node5</title>
<path fill="none" stroke="midnightblue" d="M270.581,-174.897C255.047,-165.887 232.08,-152.567 214.308,-142.259"/>
<polygon fill="midnightblue" stroke="midnightblue" points="215.961,-139.171 205.555,-137.182 212.449,-145.227 215.961,-139.171"/>
</g>
<!-- Node13 -->
<g id="node25" class="node"><title>Node13</title>
<a xlink:href="_profiler_8h.html" target="_top" xlink:title="../../engine/Util/Profiler.h">
<polygon fill="none" stroke="black" points="328.5,-117 328.5,-137 447.5,-137 447.5,-117 328.5,-117"/>
<text text-anchor="middle" x="388" y="-124" font-family="FreeSans" font-size="10.00">../../engine/Util/Profiler.h</text>
</a>
</g>
<!-- Node4&#45;&gt;Node13 -->
<g id="edge24" class="edge"><title>Node4&#45;&gt;Node13</title>
<path fill="none" stroke="midnightblue" d="M305.419,-174.897C320.953,-165.887 343.92,-152.567 361.692,-142.259"/>
<polygon fill="midnightblue" stroke="midnightblue" points="363.551,-145.227 370.445,-137.182 360.039,-139.171 363.551,-145.227"/>
</g>
<!-- Node6 -->
<g id="node11" class="node"><title>Node6</title>
<polygon fill="none" stroke="#bfbfbf" points="0,-59 0,-79 42,-79 42,-59 0,-59"/>
<text text-anchor="middle" x="21" y="-66" font-family="FreeSans" font-size="10.00">locale</text>
</g>
<!-- Node5&#45;&gt;Node6 -->
<g id="edge10" class="edge"><title>Node5&#45;&gt;Node6</title>
<path fill="none" stroke="midnightblue" d="M158.005,-116.911C132.161,-108.175 93.6322,-95.0445 51.8236,-80.251"/>
<polygon fill="midnightblue" stroke="midnightblue" points="52.8801,-76.9121 42.2854,-76.8671 50.5396,-83.5093 52.8801,-76.9121"/>
</g>
<!-- Node7 -->
<g id="node13" class="node"><title>Node7</title>
<polygon fill="none" stroke="#bfbfbf" points="60,-59 60,-79 90,-79 90,-59 60,-59"/>
<text text-anchor="middle" x="75" y="-66" font-family="FreeSans" font-size="10.00">set</text>
</g>
<!-- Node5&#45;&gt;Node7 -->
<g id="edge12" class="edge"><title>Node5&#45;&gt;Node7</title>
<path fill="none" stroke="midnightblue" d="M168.317,-116.897C149.102,-107.035 119.825,-92.0073 99.1975,-81.4199"/>
<polygon fill="midnightblue" stroke="midnightblue" points="100.617,-78.2146 90.1224,-76.762 97.4207,-84.4422 100.617,-78.2146"/>
</g>
<!-- Node8 -->
<g id="node15" class="node"><title>Node8</title>
<polygon fill="none" stroke="#bfbfbf" points="107.5,-59 107.5,-79 148.5,-79 148.5,-59 107.5,-59"/>
<text text-anchor="middle" x="128" y="-66" font-family="FreeSans" font-size="10.00">string</text>
</g>
<!-- Node5&#45;&gt;Node8 -->
<g id="edge14" class="edge"><title>Node5&#45;&gt;Node8</title>
<path fill="none" stroke="midnightblue" d="M177.549,-116.897C168.88,-108.517 156.354,-96.4093 146.066,-86.4638"/>
<polygon fill="midnightblue" stroke="midnightblue" points="148.358,-83.8114 138.735,-79.3776 143.493,-88.8443 148.358,-83.8114"/>
</g>
<!-- Node9 -->
<g id="node17" class="node"><title>Node9</title>
<polygon fill="none" stroke="#bfbfbf" points="166,-59 166,-79 210,-79 210,-59 166,-59"/>
<text text-anchor="middle" x="188" y="-66" font-family="FreeSans" font-size="10.00">vector</text>
</g>
<!-- Node5&#45;&gt;Node9 -->
<g id="edge16" class="edge"><title>Node5&#45;&gt;Node9</title>
<path fill="none" stroke="midnightblue" d="M188,-116.897C188,-109.339 188,-98.7476 188,-89.4458"/>
<polygon fill="midnightblue" stroke="midnightblue" points="191.5,-89.3776 188,-79.3776 184.5,-89.3776 191.5,-89.3776"/>
</g>
<!-- Node10 -->
<g id="node19" class="node"><title>Node10</title>
<polygon fill="none" stroke="#bfbfbf" points="227.5,-59 227.5,-79 332.5,-79 332.5,-59 227.5,-59"/>
<text text-anchor="middle" x="280" y="-66" font-family="FreeSans" font-size="10.00">boost/filesystem.hpp</text>
</g>
<!-- Node5&#45;&gt;Node10 -->
<g id="edge18" class="edge"><title>Node5&#45;&gt;Node10</title>
<path fill="none" stroke="midnightblue" d="M204.025,-116.897C218.186,-107.97 239.059,-94.8106 255.345,-84.5431"/>
<polygon fill="midnightblue" stroke="midnightblue" points="257.257,-87.4755 263.85,-79.1817 253.524,-81.554 257.257,-87.4755"/>
</g>
<!-- Node11 -->
<g id="node21" class="node"><title>Node11</title>
<a xlink:href="_m_r___types_8h.html" target="_top" xlink:title="MR_Types.h">
<polygon fill="none" stroke="black" points="349.5,-59 349.5,-79 420.5,-79 420.5,-59 349.5,-59"/>
<text text-anchor="middle" x="385" y="-66" font-family="FreeSans" font-size="10.00">MR_Types.h</text>
</a>
</g>
<!-- Node5&#45;&gt;Node11 -->
<g id="edge20" class="edge"><title>Node5&#45;&gt;Node11</title>
<path fill="none" stroke="midnightblue" d="M222.315,-116.897C255.265,-107.196 305.187,-92.4981 341.036,-81.9436"/>
<polygon fill="midnightblue" stroke="midnightblue" points="342.144,-85.2661 350.749,-79.0842 340.167,-78.5511 342.144,-85.2661"/>
</g>
<!-- Node12 -->
<g id="node23" class="node"><title>Node12</title>
<polygon fill="none" stroke="#bfbfbf" points="356,-1 356,-21 414,-21 414,-1 356,-1"/>
<text text-anchor="middle" x="385" y="-8" font-family="FreeSans" font-size="10.00">inttypes.h</text>
</g>
<!-- Node11&#45;&gt;Node12 -->
<g id="edge22" class="edge"><title>Node11&#45;&gt;Node12</title>
<path fill="none" stroke="midnightblue" d="M385,-58.8972C385,-51.339 385,-40.7476 385,-31.4458"/>
<polygon fill="midnightblue" stroke="midnightblue" points="388.5,-31.3776 385,-21.3776 381.5,-31.3776 388.5,-31.3776"/>
</g>
<!-- Node14 -->
<g id="node27" class="node"><title>Node14</title>
<polygon fill="none" stroke="#bfbfbf" points="438,-59 438,-79 484,-79 484,-59 438,-59"/>
<text text-anchor="middle" x="461" y="-66" font-family="FreeSans" font-size="10.00">chrono</text>
</g>
<!-- Node13&#45;&gt;Node14 -->
<g id="edge26" class="edge"><title>Node13&#45;&gt;Node14</title>
<path fill="none" stroke="midnightblue" d="M400.716,-116.897C411.469,-108.353 427.102,-95.933 439.753,-85.8813"/>
<polygon fill="midnightblue" stroke="midnightblue" points="442.286,-88.3388 447.939,-79.3776 437.932,-82.858 442.286,-88.3388"/>
</g>
</g>
</svg>
