<?xml version="1.0" encoding="UTF-8" standalone="no"?>
<!DOCTYPE svg PUBLIC "-//W3C//DTD SVG 1.1//EN"
 "http://www.w3.org/Graphics/SVG/1.1/DTD/svg11.dtd">
<!-- Generated by graphviz version 2.26.3 (20100126.1600)
 -->
<!-- Title: FormScene.h Pages: 1 -->
<!--zoomable 146 -->
<svg id="main" version="1.1" xmlns="http://www.w3.org/2000/svg" xmlns:xlink="http://www.w3.org/1999/xlink" xml:space="preserve" onload="init(evt)">
        <defs>
                <circle id="rim" cx="0" cy="0" r="7"/>
                <circle id="rim2" cx="0" cy="0" r="3.5"/>
                <g id="zoomPlus">
                        <use xlink:href="#rim" fill="#404040">
                                <set attributeName="fill" to="#808080" begin="zoomplus.mouseover" end="zoomplus.mouseout"/>
                        </use>
                        <path d="M-4,0h8M0,-4v8" fill="none" stroke="white" stroke-width="1.5" pointer-events="none"/>
                </g>
                <g id="zoomMin">
                        <use xlink:href="#rim" fill="#404040">
                                <set attributeName="fill" to="#808080" begin="zoomminus.mouseover" end="zoomminus.mouseout"/>
                        </use>
                        <path d="M-4,0h8" fill="none" stroke="white" stroke-width="1.5" pointer-events="none"/>
                </g>
                <g id="dirArrow">
                        <path fill="none" stroke="white" stroke-width="1.5" d="M0,-3.0v7 M-2.5,-0.5L0,-3.0L2.5,-0.5"/>
                </g>
               <g id="resetDef">
                       <use xlink:href="#rim2" fill="#404040">
                               <set attributeName="fill" to="#808080" begin="reset.mouseover" end="reset.mouseout"/>
                       </use>
               </g>
        </defs>

<script type="text/javascript">
var viewWidth = 1056;
var viewHeight = 146;
var sectionId = 'dynsection-1';
</script>
<script xlink:href="svgpan.js"/>
<svg id="graph" class="graph">
<g id="viewport">
<title>FormScene.h</title>
<!-- Node1 -->
<g id="node1" class="node"><title>Node1</title>
<polygon fill="#bfbfbf" stroke="black" points="557,-117 557,-137 631,-137 631,-117 557,-117"/>
<text text-anchor="middle" x="594" y="-124" font-family="FreeSans" font-size="10.00">FormScene.h</text>
</g>
<!-- Node2 -->
<g id="node3" class="node"><title>Node2</title>
<a xlink:href="_main_menu_scene_8h.html" target="_top" xlink:title="MainMenuScene.h">
<polygon fill="none" stroke="black" points="427.5,-59 427.5,-79 524.5,-79 524.5,-59 427.5,-59"/>
<text text-anchor="middle" x="476" y="-66" font-family="FreeSans" font-size="10.00">MainMenuScene.h</text>
</a>
</g>
<!-- Node1&#45;&gt;Node2 -->
<g id="edge2" class="edge"><title>Node1&#45;&gt;Node2</title>
<path fill="none" stroke="midnightblue" d="M564.286,-112.395C543.202,-102.031 515.433,-88.3825 496.714,-79.1817"/>
<polygon fill="midnightblue" stroke="midnightblue" points="562.928,-115.627 573.446,-116.897 566.015,-109.345 562.928,-115.627"/>
</g>
<!-- Node5 -->
<g id="node9" class="node"><title>Node5</title>
<a xlink:href="_message_scene_8h.html" target="_top" xlink:title="MessageScene.h">
<polygon fill="none" stroke="black" points="315,-59 315,-79 407,-79 407,-59 315,-59"/>
<text text-anchor="middle" x="361" y="-66" font-family="FreeSans" font-size="10.00">MessageScene.h</text>
</a>
</g>
<!-- Node1&#45;&gt;Node5 -->
<g id="edge8" class="edge"><title>Node1&#45;&gt;Node5</title>
<path fill="none" stroke="midnightblue" d="M546.963,-115.291C504.308,-104.673 442.083,-89.1838 401.568,-79.0984"/>
<polygon fill="midnightblue" stroke="midnightblue" points="546.273,-118.726 556.823,-117.746 547.964,-111.934 546.273,-118.726"/>
</g>
<!-- Node9 -->
<g id="node18" class="node"><title>Node9</title>
<a xlink:href="_test_lab_scene_8h.html" target="_top" xlink:title="TestLabScene.h">
<polygon fill="none" stroke="black" points="157,-59 157,-79 245,-79 245,-59 157,-59"/>
<text text-anchor="middle" x="201" y="-66" font-family="FreeSans" font-size="10.00">TestLabScene.h</text>
</a>
</g>
<!-- Node1&#45;&gt;Node9 -->
<g id="edge18" class="edge"><title>Node1&#45;&gt;Node9</title>
<path fill="none" stroke="midnightblue" d="M546.345,-119.967C469.598,-108.64 319.708,-86.5192 245.214,-75.5252"/>
<polygon fill="midnightblue" stroke="midnightblue" points="546.269,-123.494 556.673,-121.491 547.291,-116.569 546.269,-123.494"/>
</g>
<!-- Node11 -->
<g id="node24" class="node"><title>Node11</title>
<a xlink:href="_form_scene_8cpp.html" target="_top" xlink:title="FormScene.cpp">
<polygon fill="none" stroke="black" points="920.5,-59 920.5,-79 1005.5,-79 1005.5,-59 920.5,-59"/>
<text text-anchor="middle" x="963" y="-66" font-family="FreeSans" font-size="10.00">FormScene.cpp</text>
</a>
</g>
<!-- Node1&#45;&gt;Node11 -->
<g id="edge26" class="edge"><title>Node1&#45;&gt;Node11</title>
<path fill="none" stroke="midnightblue" d="M641.638,-120.953C703.965,-112.813 816.49,-97.3389 912,-80 914.763,-79.4984 917.604,-78.9571 920.465,-78.3929"/>
<polygon fill="midnightblue" stroke="midnightblue" points="640.803,-117.532 631.337,-122.291 641.705,-124.473 640.803,-117.532"/>
</g>
<!-- Node12 -->
<g id="node26" class="node"><title>Node12</title>
<a xlink:href="_pause_menu_scene_8h.html" target="_top" xlink:title="PauseMenuScene.h">
<polygon fill="none" stroke="black" points="542,-59 542,-79 646,-79 646,-59 542,-59"/>
<text text-anchor="middle" x="594" y="-66" font-family="FreeSans" font-size="10.00">PauseMenuScene.h</text>
</a>
</g>
<!-- Node1&#45;&gt;Node12 -->
<g id="edge28" class="edge"><title>Node1&#45;&gt;Node12</title>
<path fill="none" stroke="midnightblue" d="M594,-106.89C594,-97.6201 594,-87.0083 594,-79.3776"/>
<polygon fill="midnightblue" stroke="midnightblue" points="590.5,-106.897 594,-116.897 597.5,-106.897 590.5,-106.897"/>
</g>
<!-- Node14 -->
<g id="node31" class="node"><title>Node14</title>
<a xlink:href="_practice_setup_scene_8h.html" target="_top" xlink:title="PracticeSetupScene.h">
<polygon fill="none" stroke="black" points="663.5,-59 663.5,-79 776.5,-79 776.5,-59 663.5,-59"/>
<text text-anchor="middle" x="720" y="-66" font-family="FreeSans" font-size="10.00">PracticeSetupScene.h</text>
</a>
</g>
<!-- Node1&#45;&gt;Node14 -->
<g id="edge34" class="edge"><title>Node1&#45;&gt;Node14</title>
<path fill="none" stroke="midnightblue" d="M625.122,-112.674C647.707,-102.278 677.713,-88.4654 697.881,-79.1817"/>
<polygon fill="midnightblue" stroke="midnightblue" points="623.568,-109.536 615.948,-116.897 626.495,-115.895 623.568,-109.536"/>
</g>
<!-- Node16 -->
<g id="node36" class="node"><title>Node16</title>
<a xlink:href="_track_select_scene_8h.html" target="_top" xlink:title="TrackSelectScene.h">
<polygon fill="none" stroke="black" points="799,-59 799,-79 903,-79 903,-59 799,-59"/>
<text text-anchor="middle" x="851" y="-66" font-family="FreeSans" font-size="10.00">TrackSelectScene.h</text>
</a>
</g>
<!-- Node1&#45;&gt;Node16 -->
<g id="edge40" class="edge"><title>Node1&#45;&gt;Node16</title>
<path fill="none" stroke="midnightblue" d="M641.06,-116.38C688.245,-105.731 760.35,-89.4579 806.579,-79.025"/>
<polygon fill="midnightblue" stroke="midnightblue" points="640.08,-113.013 631.096,-118.628 641.621,-119.841 640.08,-113.013"/>
</g>
<!-- Node3 -->
<g id="node5" class="node"><title>Node3</title>
<a xlink:href="_client_app_8cpp.html" target="_top" xlink:title="ClientApp.cpp">
<polygon fill="none" stroke="black" points="215.5,-1 215.5,-21 292.5,-21 292.5,-1 215.5,-1"/>
<text text-anchor="middle" x="254" y="-8" font-family="FreeSans" font-size="10.00">ClientApp.cpp</text>
</a>
</g>
<!-- Node2&#45;&gt;Node3 -->
<g id="edge4" class="edge"><title>Node2&#45;&gt;Node3</title>
<path fill="none" stroke="midnightblue" d="M427.899,-56.4331C387.28,-45.8209 329.887,-30.8263 292.317,-21.0108"/>
<polygon fill="midnightblue" stroke="midnightblue" points="427.024,-59.8219 437.584,-58.9634 428.793,-53.0492 427.024,-59.8219"/>
</g>
<!-- Node4 -->
<g id="node7" class="node"><title>Node4</title>
<a xlink:href="_main_menu_scene_8cpp.html" target="_top" xlink:title="MainMenuScene.cpp">
<polygon fill="none" stroke="black" points="561.5,-1 561.5,-21 668.5,-21 668.5,-1 561.5,-1"/>
<text text-anchor="middle" x="615" y="-8" font-family="FreeSans" font-size="10.00">MainMenuScene.cpp</text>
</a>
</g>
<!-- Node2&#45;&gt;Node4 -->
<g id="edge6" class="edge"><title>Node2&#45;&gt;Node4</title>
<path fill="none" stroke="midnightblue" d="M509.668,-54.9516C534.656,-44.5248 568.151,-30.5483 590.599,-21.1817"/>
<polygon fill="midnightblue" stroke="midnightblue" points="508.093,-51.8162 500.212,-58.8972 510.789,-58.2763 508.093,-51.8162"/>
</g>
<!-- Node5&#45;&gt;Node3 -->
<g id="edge10" class="edge"><title>Node5&#45;&gt;Node3</title>
<path fill="none" stroke="midnightblue" d="M333.538,-54.1138C314.484,-43.7859 289.605,-30.2996 272.783,-21.1817"/>
<polygon fill="midnightblue" stroke="midnightblue" points="331.903,-57.2087 342.362,-58.8972 335.238,-51.0546 331.903,-57.2087"/>
</g>
<!-- Node6 -->
<g id="node12" class="node"><title>Node6</title>
<a xlink:href="_message_scene_8cpp.html" target="_top" xlink:title="MessageScene.cpp">
<polygon fill="none" stroke="black" points="310,-1 310,-21 412,-21 412,-1 310,-1"/>
<text text-anchor="middle" x="361" y="-8" font-family="FreeSans" font-size="10.00">MessageScene.cpp</text>
</a>
</g>
<!-- Node5&#45;&gt;Node6 -->
<g id="edge12" class="edge"><title>Node5&#45;&gt;Node6</title>
<path fill="none" stroke="midnightblue" d="M361,-48.8902C361,-39.6201 361,-29.0083 361,-21.3776"/>
<polygon fill="midnightblue" stroke="midnightblue" points="357.5,-48.8971 361,-58.8972 364.5,-48.8972 357.5,-48.8971"/>
</g>
<!-- Node7 -->
<g id="node14" class="node"><title>Node7</title>
<a xlink:href="_pause_menu_scene_8cpp.html" target="_top" xlink:title="PauseMenuScene.cpp">
<polygon fill="none" stroke="black" points="430,-1 430,-21 544,-21 544,-1 430,-1"/>
<text text-anchor="middle" x="487" y="-8" font-family="FreeSans" font-size="10.00">PauseMenuScene.cpp</text>
</a>
</g>
<!-- Node5&#45;&gt;Node7 -->
<g id="edge14" class="edge"><title>Node5&#45;&gt;Node7</title>
<path fill="none" stroke="midnightblue" d="M392.122,-54.674C414.707,-44.2778 444.713,-30.4654 464.881,-21.1817"/>
<polygon fill="midnightblue" stroke="midnightblue" points="390.568,-51.5363 382.948,-58.8972 393.495,-57.895 390.568,-51.5363"/>
</g>
<!-- Node8 -->
<g id="node16" class="node"><title>Node8</title>
<a xlink:href="_test_lab_scene_8cpp.html" target="_top" xlink:title="TestLabScene.cpp">
<polygon fill="none" stroke="black" points="100,-1 100,-21 198,-21 198,-1 100,-1"/>
<text text-anchor="middle" x="149" y="-8" font-family="FreeSans" font-size="10.00">TestLabScene.cpp</text>
</a>
</g>
<!-- Node5&#45;&gt;Node8 -->
<g id="edge16" class="edge"><title>Node5&#45;&gt;Node8</title>
<path fill="none" stroke="midnightblue" d="M314.109,-56.1712C275.476,-45.602 221.446,-30.8202 185.859,-21.0842"/>
<polygon fill="midnightblue" stroke="midnightblue" points="313.503,-59.6342 324.072,-58.8972 315.351,-52.8823 313.503,-59.6342"/>
</g>
<!-- Node9&#45;&gt;Node3 -->
<g id="edge20" class="edge"><title>Node9&#45;&gt;Node3</title>
<path fill="none" stroke="midnightblue" d="M217.197,-51.2752C226.14,-41.4882 236.938,-29.6718 244.517,-21.3776"/>
<polygon fill="midnightblue" stroke="midnightblue" points="214.394,-49.154 210.232,-58.8972 219.561,-53.8761 214.394,-49.154"/>
</g>
<!-- Node9&#45;&gt;Node8 -->
<g id="edge22" class="edge"><title>Node9&#45;&gt;Node8</title>
<path fill="none" stroke="midnightblue" d="M185.109,-51.2752C176.334,-41.4882 165.74,-29.6718 158.304,-21.3776"/>
<polygon fill="midnightblue" stroke="midnightblue" points="182.661,-53.7879 191.942,-58.8972 187.873,-49.115 182.661,-53.7879"/>
</g>
<!-- Node10 -->
<g id="node22" class="node"><title>Node10</title>
<a xlink:href="_debug_peer_8cpp.html" target="_top" xlink:title="DebugPeer.cpp">
<polygon fill="none" stroke="black" points="-0.5,-1 -0.5,-21 82.5,-21 82.5,-1 -0.5,-1"/>
<text text-anchor="middle" x="41" y="-8" font-family="FreeSans" font-size="10.00">DebugPeer.cpp</text>
</a>
</g>
<!-- Node9&#45;&gt;Node10 -->
<g id="edge24" class="edge"><title>Node9&#45;&gt;Node10</title>
<path fill="none" stroke="midnightblue" d="M163.355,-55.3536C134.381,-44.8504 94.9907,-30.5716 68.8185,-21.0842"/>
<polygon fill="midnightblue" stroke="midnightblue" points="162.536,-58.7796 173.13,-58.8972 164.922,-52.1986 162.536,-58.7796"/>
</g>
<!-- Node12&#45;&gt;Node7 -->
<g id="edge32" class="edge"><title>Node12&#45;&gt;Node7</title>
<path fill="none" stroke="midnightblue" d="M566.538,-54.1138C547.484,-43.7859 522.605,-30.2996 505.783,-21.1817"/>
<polygon fill="midnightblue" stroke="midnightblue" points="564.903,-57.2087 575.362,-58.8972 568.238,-51.0546 564.903,-57.2087"/>
</g>
<!-- Node13 -->
<g id="node28" class="node"><title>Node13</title>
<a xlink:href="_game_scene_8cpp.html" target="_top" xlink:title="GameScene.cpp">
<polygon fill="none" stroke="black" points="685.5,-1 685.5,-21 774.5,-21 774.5,-1 685.5,-1"/>
<text text-anchor="middle" x="730" y="-8" font-family="FreeSans" font-size="10.00">GameScene.cpp</text>
</a>
</g>
<!-- Node12&#45;&gt;Node13 -->
<g id="edge30" class="edge"><title>Node12&#45;&gt;Node13</title>
<path fill="none" stroke="midnightblue" d="M626.941,-54.9516C651.39,-44.5248 684.163,-30.5483 706.126,-21.1817"/>
<polygon fill="midnightblue" stroke="midnightblue" points="625.515,-51.7548 617.689,-58.8972 628.261,-58.1937 625.515,-51.7548"/>
</g>
<!-- Node14&#45;&gt;Node4 -->
<g id="edge36" class="edge"><title>Node14&#45;&gt;Node4</title>
<path fill="none" stroke="midnightblue" d="M692.796,-53.9728C674.132,-43.6634 649.864,-30.2582 633.432,-21.1817"/>
<polygon fill="midnightblue" stroke="midnightblue" points="691.265,-57.1256 701.71,-58.8972 694.649,-50.9983 691.265,-57.1256"/>
</g>
<!-- Node15 -->
<g id="node34" class="node"><title>Node15</title>
<a xlink:href="_practice_setup_scene_8cpp.html" target="_top" xlink:title="PracticeSetupScene.cpp">
<polygon fill="none" stroke="black" points="792,-1 792,-21 916,-21 916,-1 792,-1"/>
<text text-anchor="middle" x="854" y="-8" font-family="FreeSans" font-size="10.00">PracticeSetupScene.cpp</text>
</a>
</g>
<!-- Node14&#45;&gt;Node15 -->
<g id="edge38" class="edge"><title>Node14&#45;&gt;Node15</title>
<path fill="none" stroke="midnightblue" d="M752.777,-54.813C776.832,-44.4012 808.932,-30.5069 830.477,-21.1817"/>
<polygon fill="midnightblue" stroke="midnightblue" points="751.128,-51.7129 743.341,-58.8972 753.909,-58.1369 751.128,-51.7129"/>
</g>
<!-- Node16&#45;&gt;Node15 -->
<g id="edge42" class="edge"><title>Node16&#45;&gt;Node15</title>
<path fill="none" stroke="midnightblue" d="M852.04,-48.8902C852.52,-39.6201 853.069,-29.0083 853.463,-21.3776"/>
<polygon fill="midnightblue" stroke="midnightblue" points="848.544,-48.7297 851.523,-58.8972 855.535,-49.0913 848.544,-48.7297"/>
</g>
<!-- Node17 -->
<g id="node39" class="node"><title>Node17</title>
<a xlink:href="_track_select_scene_8cpp.html" target="_top" xlink:title="TrackSelectScene.cpp">
<polygon fill="none" stroke="black" points="933.5,-1 933.5,-21 1048.5,-21 1048.5,-1 933.5,-1"/>
<text text-anchor="middle" x="991" y="-8" font-family="FreeSans" font-size="10.00">TrackSelectScene.cpp</text>
</a>
</g>
<!-- Node16&#45;&gt;Node17 -->
<g id="edge44" class="edge"><title>Node16&#45;&gt;Node17</title>
<path fill="none" stroke="midnightblue" d="M884.91,-54.9516C910.078,-44.5248 943.814,-30.5483 966.424,-21.1817"/>
<polygon fill="midnightblue" stroke="midnightblue" points="883.285,-51.8362 875.386,-58.8972 885.964,-58.3032 883.285,-51.8362"/>
</g>
</g>
</svg>
        <g id="navigator" transform="translate(0 0)" fill="#404254">
                <rect fill="#f2f5e9" fill-opacity="0.5" stroke="#606060" stroke-width=".5" x="0" y="0" width="60" height="60"/>
                <use id="zoomplus" xlink:href="#zoomPlus" x="17" y="9" onmousedown="handleZoom(evt,'in')"/>
                <use id="zoomminus" xlink:href="#zoomMin" x="42" y="9" onmousedown="handleZoom(evt,'out')"/>
                <use id="reset" xlink:href="#resetDef" x="30" y="36" onmousedown="handleReset()"/>
                <g id="arrowUp" xlink:href="#dirArrow" transform="translate(30 24)" onmousedown="handlePan(0,-1)">
                  <use xlink:href="#rim" fill="#404040">
                        <set attributeName="fill" to="#808080" begin="arrowUp.mouseover" end="arrowUp.mouseout"/>
                  </use>
                  <path fill="none" stroke="white" stroke-width="1.5" d="M0,-3.0v7 M-2.5,-0.5L0,-3.0L2.5,-0.5"/>
                </g>
                <g id="arrowRight" xlink:href="#dirArrow" transform="rotate(90) translate(36 -43)" onmousedown="handlePan(1,0)">
                  <use xlink:href="#rim" fill="#404040">
                        <set attributeName="fill" to="#808080" begin="arrowRight.mouseover" end="arrowRight.mouseout"/>
                  </use>
                  <path fill="none" stroke="white" stroke-width="1.5" d="M0,-3.0v7 M-2.5,-0.5L0,-3.0L2.5,-0.5"/>
                </g>
                <g id="arrowDown" xlink:href="#dirArrow" transform="rotate(180) translate(-30 -48)" onmousedown="handlePan(0,1)">
                  <use xlink:href="#rim" fill="#404040">
                        <set attributeName="fill" to="#808080" begin="arrowDown.mouseover" end="arrowDown.mouseout"/>
                  </use>
                  <path fill="none" stroke="white" stroke-width="1.5" d="M0,-3.0v7 M-2.5,-0.5L0,-3.0L2.5,-0.5"/>
                </g>
                <g id="arrowLeft" xlink:href="#dirArrow" transform="rotate(270) translate(-36 17)" onmousedown="handlePan(-1,0)">
                  <use xlink:href="#rim" fill="#404040">
                        <set attributeName="fill" to="#808080" begin="arrowLeft.mouseover" end="arrowLeft.mouseout"/>
                  </use>
                  <path fill="none" stroke="white" stroke-width="1.5" d="M0,-3.0v7 M-2.5,-0.5L0,-3.0L2.5,-0.5"/>
                </g>
        </g>
        <svg viewBox="0 0 15 15" width="100%" height="30px" preserveAspectRatio="xMaxYMin meet">
         <g id="arrow_out" transform="scale(0.3 0.3)">
          <a xlink:href="_form_scene_8h__dep__incl_org.svg" target="_base">
           <rect id="button" ry="5" rx="5" y="6" x="6" height="38" width="38"
                fill="#f2f5e9" fill-opacity="0.5" stroke="#606060" stroke-width="1.0"/>
           <path id="arrow"
             d="M 11.500037,31.436501 C 11.940474,20.09759 22.043105,11.32322 32.158766,21.979434 L 37.068811,17.246167 C 37.068811,17.246167 37.088388,32 37.088388,32 L 22.160133,31.978069 C 22.160133,31.978069 26.997745,27.140456 26.997745,27.140456 C 18.528582,18.264221 13.291696,25.230495 11.500037,31.436501 z"
             style="fill:#404040;"/>
          </a>
         </g>
        </svg>
</svg>
