<?xml version="1.0" encoding="UTF-8" standalone="no"?>
<!DOCTYPE svg PUBLIC "-//W3C//DTD SVG 1.1//EN"
 "http://www.w3.org/Graphics/SVG/1.1/DTD/svg11.dtd">
<!-- Generated by graphviz version 2.38.0 (20140413.2041)
 -->
<!-- Title: GameScene.h Pages: 1 -->
<svg width="420pt" height="140pt"
 viewBox="0.00 0.00 419.50 140.00" xmlns="http://www.w3.org/2000/svg" xmlns:xlink="http://www.w3.org/1999/xlink">
<g id="graph0" class="graph" transform="scale(1 1) rotate(0) translate(4 136)">
<title>GameScene.h</title>
<!-- Node1 -->
<g id="node1" class="node"><title>Node1</title>
<polygon fill="#bfbfbf" stroke="black" points="203,-112.5 203,-131.5 288,-131.5 288,-112.5 203,-112.5"/>
<text text-anchor="middle" x="245.5" y="-119.5" font-family="FreeSans" font-size="10.00">GameScene.h</text>
</g>
<!-- Node2 -->
<g id="node2" class="node"><title>Node2</title>
<g id="a_node2"><a xlink:href="_demo_game_scene_8h.html" target="_top" xlink:title="DemoGameScene.h">
<polygon fill="none" stroke="black" points="61.5,-56.5 61.5,-75.5 175.5,-75.5 175.5,-56.5 61.5,-56.5"/>
<text text-anchor="middle" x="118.5" y="-63.5" font-family="FreeSans" font-size="10.00">DemoGameScene.h</text>
</a>
</g>
</g>
<!-- Node1&#45;&gt;Node2 -->
<g id="edge1" class="edge"><title>Node1&#45;&gt;Node2</title>
<path fill="none" stroke="midnightblue" d="M216.109,-108.503C192.3,-98.3795 159.394,-84.388 138.529,-75.5164"/>
<polygon fill="midnightblue" stroke="midnightblue" points="214.804,-111.751 225.376,-112.444 217.543,-105.31 214.804,-111.751"/>
</g>
<!-- Node5 -->
<g id="node5" class="node"><title>Node5</title>
<g id="a_node5"><a xlink:href="_play_game_scene_8h.html" target="_top" xlink:title="PlayGameScene.h">
<polygon fill="none" stroke="black" points="193.5,-56.5 193.5,-75.5 297.5,-75.5 297.5,-56.5 193.5,-56.5"/>
<text text-anchor="middle" x="245.5" y="-63.5" font-family="FreeSans" font-size="10.00">PlayGameScene.h</text>
</a>
</g>
</g>
<!-- Node1&#45;&gt;Node5 -->
<g id="edge4" class="edge"><title>Node1&#45;&gt;Node5</title>
<path fill="none" stroke="midnightblue" d="M245.5,-101.805C245.5,-92.9102 245.5,-82.7798 245.5,-75.7511"/>
<polygon fill="midnightblue" stroke="midnightblue" points="242,-102.083 245.5,-112.083 249,-102.083 242,-102.083"/>
</g>
<!-- Node7 -->
<g id="node7" class="node"><title>Node7</title>
<g id="a_node7"><a xlink:href="_game_scene_8cpp.html" target="_top" xlink:title="GameScene.cpp">
<polygon fill="none" stroke="black" points="315.5,-56.5 315.5,-75.5 411.5,-75.5 411.5,-56.5 315.5,-56.5"/>
<text text-anchor="middle" x="363.5" y="-63.5" font-family="FreeSans" font-size="10.00">GameScene.cpp</text>
</a>
</g>
</g>
<!-- Node1&#45;&gt;Node7 -->
<g id="edge7" class="edge"><title>Node1&#45;&gt;Node7</title>
<path fill="none" stroke="midnightblue" d="M273.4,-108.232C295.473,-98.1312 325.676,-84.3091 344.89,-75.5164"/>
<polygon fill="midnightblue" stroke="midnightblue" points="271.834,-105.1 264.197,-112.444 274.747,-111.465 271.834,-105.1"/>
</g>
<!-- Node3 -->
<g id="node3" class="node"><title>Node3</title>
<g id="a_node3"><a xlink:href="_client_app_8cpp.html" target="_top" xlink:title="ClientApp.cpp">
<polygon fill="none" stroke="black" points="143,-0.5 143,-19.5 226,-19.5 226,-0.5 143,-0.5"/>
<text text-anchor="middle" x="184.5" y="-7.5" font-family="FreeSans" font-size="10.00">ClientApp.cpp</text>
</a>
</g>
</g>
<!-- Node2&#45;&gt;Node3 -->
<g id="edge2" class="edge"><title>Node2&#45;&gt;Node3</title>
<path fill="none" stroke="midnightblue" d="M137.054,-49.8197C148.878,-40.1452 163.786,-27.9481 173.703,-19.8339"/>
<polygon fill="midnightblue" stroke="midnightblue" points="134.627,-47.2827 129.104,-56.324 139.06,-52.7004 134.627,-47.2827"/>
</g>
<!-- Node4 -->
<g id="node4" class="node"><title>Node4</title>
<g id="a_node4"><a xlink:href="_demo_game_scene_8cpp.html" target="_top" xlink:title="DemoGameScene.cpp">
<polygon fill="none" stroke="black" points="0,-0.5 0,-19.5 125,-19.5 125,-0.5 0,-0.5"/>
<text text-anchor="middle" x="62.5" y="-7.5" font-family="FreeSans" font-size="10.00">DemoGameScene.cpp</text>
</a>
</g>
</g>
<!-- Node2&#45;&gt;Node4 -->
<g id="edge3" class="edge"><title>Node2&#45;&gt;Node4</title>
<path fill="none" stroke="midnightblue" d="M102.17,-49.2533C92.235,-39.6731 79.9125,-27.7906 71.6611,-19.8339"/>
<polygon fill="midnightblue" stroke="midnightblue" points="99.8747,-51.902 109.503,-56.324 104.734,-46.8631 99.8747,-51.902"/>
</g>
<!-- Node5&#45;&gt;Node3 -->
<g id="edge5" class="edge"><title>Node5&#45;&gt;Node3</title>
<path fill="none" stroke="midnightblue" d="M228.033,-49.5372C217.156,-39.9087 203.556,-27.8694 194.479,-19.8339"/>
<polygon fill="midnightblue" stroke="midnightblue" points="225.892,-52.3162 235.699,-56.324 230.532,-47.0749 225.892,-52.3162"/>
</g>
<!-- Node6 -->
<g id="node6" class="node"><title>Node6</title>
<g id="a_node6"><a xlink:href="_play_game_scene_8cpp.html" target="_top" xlink:title="PlayGameScene.cpp">
<polygon fill="none" stroke="black" points="244.5,-0.5 244.5,-19.5 360.5,-19.5 360.5,-0.5 244.5,-0.5"/>
<text text-anchor="middle" x="302.5" y="-7.5" font-family="FreeSans" font-size="10.00">PlayGameScene.cpp</text>
</a>
</g>
</g>
<!-- Node5&#45;&gt;Node6 -->
<g id="edge6" class="edge"><title>Node5&#45;&gt;Node6</title>
<path fill="none" stroke="midnightblue" d="M262.121,-49.2533C272.234,-39.6731 284.777,-27.7906 293.175,-19.8339"/>
<polygon fill="midnightblue" stroke="midnightblue" points="259.51,-46.9056 254.658,-56.324 264.325,-51.9873 259.51,-46.9056"/>
</g>
</g>
</svg>
