<?xml version="1.0" encoding="UTF-8" standalone="no"?>
<!DOCTYPE svg PUBLIC "-//W3C//DTD SVG 1.1//EN"
 "http://www.w3.org/Graphics/SVG/1.1/DTD/svg11.dtd">
<!-- Generated by graphviz version 2.26.3 (20100126.1600)
 -->
<!-- Title: GameOptions.h Pages: 1 -->
<svg width="1058pt" height="262pt"
 viewBox="0.00 0.00 1058.00 262.00" xmlns="http://www.w3.org/2000/svg" xmlns:xlink="http://www.w3.org/1999/xlink">
<g id="graph1" class="graph" transform="scale(1 1) rotate(0) translate(4 258)">
<title>GameOptions.h</title>
<!-- Node1 -->
<g id="node1" class="node"><title>Node1</title>
<polygon fill="#bfbfbf" stroke="black" points="563,-233 563,-253 647,-253 647,-233 563,-233"/>
<text text-anchor="middle" x="605" y="-240" font-family="FreeSans" font-size="10.00">GameOptions.h</text>
</g>
<!-- Node2 -->
<g id="node3" class="node"><title>Node2</title>
<a xlink:href="_rules_8h.html" target="_top" xlink:title="Rules.h">
<polygon fill="none" stroke="black" points="491.5,-175 491.5,-195 540.5,-195 540.5,-175 491.5,-175"/>
<text text-anchor="middle" x="516" y="-182" font-family="FreeSans" font-size="10.00">Rules.h</text>
</a>
</g>
<!-- Node1&#45;&gt;Node2 -->
<g id="edge2" class="edge"><title>Node1&#45;&gt;Node2</title>
<path fill="none" stroke="midnightblue" d="M580.85,-227.262C565.186,-217.054 545.233,-204.051 531.624,-195.182"/>
<polygon fill="midnightblue" stroke="midnightblue" points="579.208,-230.37 589.497,-232.897 583.03,-224.505 579.208,-230.37"/>
</g>
<!-- Node16 -->
<g id="node35" class="node"><title>Node16</title>
<a xlink:href="_game_options_8cpp.html" target="_top" xlink:title="GameOptions.cpp">
<polygon fill="none" stroke="black" points="557.5,-175 557.5,-195 652.5,-195 652.5,-175 557.5,-175"/>
<text text-anchor="middle" x="605" y="-182" font-family="FreeSans" font-size="10.00">GameOptions.cpp</text>
</a>
</g>
<!-- Node1&#45;&gt;Node16 -->
<g id="edge38" class="edge"><title>Node1&#45;&gt;Node16</title>
<path fill="none" stroke="midnightblue" d="M605,-222.89C605,-213.62 605,-203.008 605,-195.378"/>
<polygon fill="midnightblue" stroke="midnightblue" points="601.5,-222.897 605,-232.897 608.5,-222.897 601.5,-222.897"/>
</g>
<!-- Node17 -->
<g id="node37" class="node"><title>Node17</title>
<a xlink:href="_track_8cpp.html" target="_top" xlink:title="Track.cpp">
<polygon fill="none" stroke="black" points="669.5,-175 669.5,-195 728.5,-195 728.5,-175 669.5,-175"/>
<text text-anchor="middle" x="699" y="-182" font-family="FreeSans" font-size="10.00">Track.cpp</text>
</a>
</g>
<!-- Node1&#45;&gt;Node17 -->
<g id="edge40" class="edge"><title>Node1&#45;&gt;Node17</title>
<path fill="none" stroke="midnightblue" d="M630.044,-227.547C646.657,-217.297 667.99,-204.134 682.499,-195.182"/>
<polygon fill="midnightblue" stroke="midnightblue" points="628.046,-224.667 621.374,-232.897 631.722,-230.625 628.046,-224.667"/>
</g>
<!-- Node3 -->
<g id="node5" class="node"><title>Node3</title>
<a xlink:href="_game_scene_8h.html" target="_top" xlink:title="GameScene.h">
<polygon fill="none" stroke="black" points="187,-117 187,-137 265,-137 265,-117 187,-117"/>
<text text-anchor="middle" x="226" y="-124" font-family="FreeSans" font-size="10.00">GameScene.h</text>
</a>
</g>
<!-- Node2&#45;&gt;Node3 -->
<g id="edge4" class="edge"><title>Node2&#45;&gt;Node3</title>
<path fill="none" stroke="midnightblue" d="M481.435,-178.087C427.143,-167.229 322.205,-146.241 265.186,-134.837"/>
<polygon fill="midnightblue" stroke="midnightblue" points="480.783,-181.526 491.275,-180.055 482.155,-174.662 480.783,-181.526"/>
</g>
<!-- Node5 -->
<g id="node9" class="node"><title>Node5</title>
<a xlink:href="_client_app_8cpp.html" target="_top" xlink:title="ClientApp.cpp">
<polygon fill="none" stroke="black" points="-0.5,-1 -0.5,-21 76.5,-21 76.5,-1 -0.5,-1"/>
<text text-anchor="middle" x="38" y="-8" font-family="FreeSans" font-size="10.00">ClientApp.cpp</text>
</a>
</g>
<!-- Node2&#45;&gt;Node5 -->
<g id="edge20" class="edge"><title>Node2&#45;&gt;Node5</title>
<path fill="none" stroke="midnightblue" d="M481.037,-183.513C376.862,-178.237 72.4683,-156.419 19,-80 6.32095,-61.8787 20.4594,-35.5986 30.2521,-21.2665"/>
<polygon fill="midnightblue" stroke="midnightblue" points="481.166,-187.023 491.324,-184.012 481.506,-180.031 481.166,-187.023"/>
</g>
<!-- Node6 -->
<g id="node11" class="node"><title>Node6</title>
<a xlink:href="_demo_game_scene_8cpp.html" target="_top" xlink:title="DemoGameScene.cpp">
<polygon fill="none" stroke="black" points="270,-1 270,-21 384,-21 384,-1 270,-1"/>
<text text-anchor="middle" x="327" y="-8" font-family="FreeSans" font-size="10.00">DemoGameScene.cpp</text>
</a>
</g>
<!-- Node2&#45;&gt;Node6 -->
<g id="edge24" class="edge"><title>Node2&#45;&gt;Node6</title>
<path fill="none" stroke="midnightblue" d="M481.205,-178.182C455.763,-171.641 421.846,-159.483 399,-138 370.324,-111.035 381.064,-91.8655 361,-58 353.095,-44.6567 342.397,-30.3588 335.127,-21.0835"/>
<polygon fill="midnightblue" stroke="midnightblue" points="480.647,-181.648 491.188,-180.576 482.279,-174.84 480.647,-181.648"/>
</g>
<!-- Node9 -->
<g id="node18" class="node"><title>Node9</title>
<a xlink:href="_game_scene_8cpp.html" target="_top" xlink:title="GameScene.cpp">
<polygon fill="none" stroke="black" points="263.5,-59 263.5,-79 352.5,-79 352.5,-59 263.5,-59"/>
<text text-anchor="middle" x="308" y="-66" font-family="FreeSans" font-size="10.00">GameScene.cpp</text>
</a>
</g>
<!-- Node2&#45;&gt;Node9 -->
<g id="edge26" class="edge"><title>Node2&#45;&gt;Node9</title>
<path fill="none" stroke="midnightblue" d="M481.083,-179.827C449.029,-173.804 401.3,-161.519 366,-138 342.298,-122.208 322.982,-93.9955 313.796,-79.0046"/>
<polygon fill="midnightblue" stroke="midnightblue" points="480.855,-183.341 491.312,-181.637 482.074,-176.448 480.855,-183.341"/>
</g>
<!-- Node10 -->
<g id="node21" class="node"><title>Node10</title>
<a xlink:href="_client_session_8cpp.html" target="_top" xlink:title="ClientSession.cpp">
<polygon fill="none" stroke="black" points="407.5,-117 407.5,-137 502.5,-137 502.5,-117 407.5,-117"/>
<text text-anchor="middle" x="455" y="-124" font-family="FreeSans" font-size="10.00">ClientSession.cpp</text>
</a>
</g>
<!-- Node2&#45;&gt;Node10 -->
<g id="edge22" class="edge"><title>Node2&#45;&gt;Node10</title>
<path fill="none" stroke="midnightblue" d="M497.973,-167.86C487.564,-157.962 474.812,-145.838 465.914,-137.378"/>
<polygon fill="midnightblue" stroke="midnightblue" points="495.716,-170.543 505.375,-174.897 500.539,-165.47 495.716,-170.543"/>
</g>
<!-- Node11 -->
<g id="node25" class="node"><title>Node11</title>
<a xlink:href="_game_select_scene_8cpp.html" target="_top" xlink:title="GameSelectScene.cpp">
<polygon fill="none" stroke="black" points="520,-117 520,-137 636,-137 636,-117 520,-117"/>
<text text-anchor="middle" x="578" y="-124" font-family="FreeSans" font-size="10.00">GameSelectScene.cpp</text>
</a>
</g>
<!-- Node2&#45;&gt;Node11 -->
<g id="edge28" class="edge"><title>Node2&#45;&gt;Node11</title>
<path fill="none" stroke="midnightblue" d="M534.322,-167.86C544.902,-157.962 557.863,-145.838 566.907,-137.378"/>
<polygon fill="midnightblue" stroke="midnightblue" points="531.711,-165.51 526.8,-174.897 536.493,-170.622 531.711,-165.51"/>
</g>
<!-- Node12 -->
<g id="node27" class="node"><title>Node12</title>
<a xlink:href="_rules_8cpp.html" target="_top" xlink:title="Rules.cpp">
<polygon fill="none" stroke="black" points="653.5,-117 653.5,-137 712.5,-137 712.5,-117 653.5,-117"/>
<text text-anchor="middle" x="683" y="-124" font-family="FreeSans" font-size="10.00">Rules.cpp</text>
</a>
</g>
<!-- Node2&#45;&gt;Node12 -->
<g id="edge30" class="edge"><title>Node2&#45;&gt;Node12</title>
<path fill="none" stroke="midnightblue" d="M550.452,-173.034C581.044,-162.41 625.242,-147.06 654.045,-137.056"/>
<polygon fill="midnightblue" stroke="midnightblue" points="548.94,-169.855 540.641,-176.442 551.236,-176.467 548.94,-169.855"/>
</g>
<!-- Node13 -->
<g id="node29" class="node"><title>Node13</title>
<a xlink:href="_track_select_scene_8cpp.html" target="_top" xlink:title="TrackSelectScene.cpp">
<polygon fill="none" stroke="black" points="729.5,-117 729.5,-137 844.5,-137 844.5,-117 729.5,-117"/>
<text text-anchor="middle" x="787" y="-124" font-family="FreeSans" font-size="10.00">TrackSelectScene.cpp</text>
</a>
</g>
<!-- Node2&#45;&gt;Node13 -->
<g id="edge32" class="edge"><title>Node2&#45;&gt;Node13</title>
<path fill="none" stroke="midnightblue" d="M550.599,-173.834C595.649,-162.628 677.109,-147.168 731.967,-137.031"/>
<polygon fill="midnightblue" stroke="midnightblue" points="549.573,-170.484 540.765,-176.371 551.322,-177.262 549.573,-170.484"/>
</g>
<!-- Node14 -->
<g id="node31" class="node"><title>Node14</title>
<a xlink:href="_game_peer_8cpp.html" target="_top" xlink:title="GamePeer.cpp">
<polygon fill="none" stroke="black" points="861.5,-117 861.5,-137 942.5,-137 942.5,-117 861.5,-117"/>
<text text-anchor="middle" x="902" y="-124" font-family="FreeSans" font-size="10.00">GamePeer.cpp</text>
</a>
</g>
<!-- Node2&#45;&gt;Node14 -->
<g id="edge34" class="edge"><title>Node2&#45;&gt;Node14</title>
<path fill="none" stroke="midnightblue" d="M550.863,-173.915C683.651,-145.121 722.165,-160.371 853,-138 855.75,-137.53 858.578,-137.005 861.422,-136.447"/>
<polygon fill="midnightblue" stroke="midnightblue" points="549.721,-170.583 540.713,-176.161 551.233,-177.417 549.721,-170.583"/>
</g>
<!-- Node15 -->
<g id="node33" class="node"><title>Node15</title>
<a xlink:href="_session_peer_8cpp.html" target="_top" xlink:title="SessionPeer.cpp">
<polygon fill="none" stroke="black" points="960,-117 960,-137 1050,-137 1050,-117 960,-117"/>
<text text-anchor="middle" x="1005" y="-124" font-family="FreeSans" font-size="10.00">SessionPeer.cpp</text>
</a>
</g>
<!-- Node2&#45;&gt;Node15 -->
<g id="edge36" class="edge"><title>Node2&#45;&gt;Node15</title>
<path fill="none" stroke="midnightblue" d="M550.534,-174.048C726.415,-138.333 776.711,-163.474 951,-138 953.935,-137.571 956.951,-137.085 959.985,-136.561"/>
<polygon fill="midnightblue" stroke="midnightblue" points="549.781,-170.63 540.696,-176.082 551.198,-177.485 549.781,-170.63"/>
</g>
<!-- Node4 -->
<g id="node7" class="node"><title>Node4</title>
<a xlink:href="_demo_game_scene_8h.html" target="_top" xlink:title="DemoGameScene.h">
<polygon fill="none" stroke="black" points="142,-59 142,-79 246,-79 246,-59 142,-59"/>
<text text-anchor="middle" x="194" y="-66" font-family="FreeSans" font-size="10.00">DemoGameScene.h</text>
</a>
</g>
<!-- Node3&#45;&gt;Node4 -->
<g id="edge6" class="edge"><title>Node3&#45;&gt;Node4</title>
<path fill="none" stroke="midnightblue" d="M215.568,-108.091C210.303,-98.5485 204.119,-87.3401 199.726,-79.3776"/>
<polygon fill="midnightblue" stroke="midnightblue" points="212.531,-109.832 220.426,-116.897 218.66,-106.451 212.531,-109.832"/>
</g>
<!-- Node7 -->
<g id="node13" class="node"><title>Node7</title>
<a xlink:href="_play_game_scene_8h.html" target="_top" xlink:title="PlayGameScene.h">
<polygon fill="none" stroke="black" points="27.5,-59 27.5,-79 124.5,-79 124.5,-59 27.5,-59"/>
<text text-anchor="middle" x="76" y="-66" font-family="FreeSans" font-size="10.00">PlayGameScene.h</text>
</a>
</g>
<!-- Node3&#45;&gt;Node7 -->
<g id="edge12" class="edge"><title>Node3&#45;&gt;Node7</title>
<path fill="none" stroke="midnightblue" d="M190.351,-113.216C163.222,-102.726 126.509,-88.5302 102.08,-79.0842"/>
<polygon fill="midnightblue" stroke="midnightblue" points="189.283,-116.555 199.872,-116.897 191.807,-110.026 189.283,-116.555"/>
</g>
<!-- Node3&#45;&gt;Node9 -->
<g id="edge18" class="edge"><title>Node3&#45;&gt;Node9</title>
<path fill="none" stroke="midnightblue" d="M248.656,-110.975C263.026,-100.811 281.183,-87.9681 293.605,-79.1817"/>
<polygon fill="midnightblue" stroke="midnightblue" points="246.426,-108.265 240.283,-116.897 250.469,-113.98 246.426,-108.265"/>
</g>
<!-- Node4&#45;&gt;Node5 -->
<g id="edge8" class="edge"><title>Node4&#45;&gt;Node5</title>
<path fill="none" stroke="midnightblue" d="M157.296,-55.3536C129.046,-44.8504 90.6409,-30.5716 65.123,-21.0842"/>
<polygon fill="midnightblue" stroke="midnightblue" points="156.234,-58.6928 166.827,-58.8972 158.673,-52.1316 156.234,-58.6928"/>
</g>
<!-- Node4&#45;&gt;Node6 -->
<g id="edge10" class="edge"><title>Node4&#45;&gt;Node6</title>
<path fill="none" stroke="midnightblue" d="M226.532,-54.813C250.408,-44.4012 282.269,-30.5069 303.652,-21.1817"/>
<polygon fill="midnightblue" stroke="midnightblue" points="224.934,-51.6916 217.167,-58.8972 227.732,-58.108 224.934,-51.6916"/>
</g>
<!-- Node7&#45;&gt;Node5 -->
<g id="edge14" class="edge"><title>Node7&#45;&gt;Node5</title>
<path fill="none" stroke="midnightblue" d="M63.8066,-50.3891C57.5126,-40.7824 50.0702,-29.423 44.7991,-21.3776"/>
<polygon fill="midnightblue" stroke="midnightblue" points="60.973,-52.4507 69.3809,-58.8972 66.8282,-48.6144 60.973,-52.4507"/>
</g>
<!-- Node8 -->
<g id="node16" class="node"><title>Node8</title>
<a xlink:href="_play_game_scene_8cpp.html" target="_top" xlink:title="PlayGameScene.cpp">
<polygon fill="none" stroke="black" points="93.5,-1 93.5,-21 200.5,-21 200.5,-1 93.5,-1"/>
<text text-anchor="middle" x="147" y="-8" font-family="FreeSans" font-size="10.00">PlayGameScene.cpp</text>
</a>
</g>
<!-- Node7&#45;&gt;Node8 -->
<g id="edge16" class="edge"><title>Node7&#45;&gt;Node8</title>
<path fill="none" stroke="midnightblue" d="M96.2722,-52.4396C108.514,-42.4391 123.737,-30.0036 134.296,-21.3776"/>
<polygon fill="midnightblue" stroke="midnightblue" points="93.8974,-49.8601 88.3673,-58.8972 98.326,-55.2813 93.8974,-49.8601"/>
</g>
</g>
</svg>
