<?xml version="1.0" encoding="UTF-8" standalone="no"?>
<!DOCTYPE svg PUBLIC "-//W3C//DTD SVG 1.1//EN"
 "http://www.w3.org/Graphics/SVG/1.1/DTD/svg11.dtd">
<!-- Generated by graphviz version 2.38.0 (20140413.2041)
 -->
<!-- Title: GameSelectScene.h Pages: 1 -->
<!--zoomable 431 -->
<svg id="main" version="1.1" xmlns="http://www.w3.org/2000/svg" xmlns:xlink="http://www.w3.org/1999/xlink" xml:space="preserve" onload="init(evt)">
<style type="text/css"><![CDATA[
.edge:hover path { stroke: red; }
.edge:hover polygon { stroke: red; fill: red; }
]]></style>
<script type="text/javascript"><![CDATA[
var edges = document.getElementsByTagName('g');
if (edges && edges.length) {
  for (var i=0;i<edges.length;i++) {
    if (edges[i].id.substr(0,4)=='edge') {
      edges[i].setAttribute('class','edge');
    }
  }
}
]]></script>
        <defs>
                <circle id="rim" cx="0" cy="0" r="7"/>
                <circle id="rim2" cx="0" cy="0" r="3.5"/>
                <g id="zoomPlus">
                        <use xlink:href="#rim" fill="#404040">
                                <set attributeName="fill" to="#808080" begin="zoomplus.mouseover" end="zoomplus.mouseout"/>
                        </use>
                        <path d="M-4,0h8M0,-4v8" fill="none" stroke="white" stroke-width="1.5" pointer-events="none"/>
                </g>
                <g id="zoomMin">
                        <use xlink:href="#rim" fill="#404040">
                                <set attributeName="fill" to="#808080" begin="zoomminus.mouseover" end="zoomminus.mouseout"/>
                        </use>
                        <path d="M-4,0h8" fill="none" stroke="white" stroke-width="1.5" pointer-events="none"/>
                </g>
                <g id="dirArrow">
                        <path fill="none" stroke="white" stroke-width="1.5" d="M0,-3.0v7 M-2.5,-0.5L0,-3.0L2.5,-0.5"/>
                </g>
               <g id="resetDef">
                       <use xlink:href="#rim2" fill="#404040">
                               <set attributeName="fill" to="#808080" begin="reset.mouseover" end="reset.mouseout"/>
                       </use>
               </g>
        </defs>

<script type="text/javascript">
var viewWidth = 578;
var viewHeight = 431;
var sectionId = 'dynsection-0';
</script>
<script xlink:href="svgpan.js"/>
<svg id="graph" class="graph">
<g id="viewport">
<title>GameSelectScene.h</title>
<!-- Node1 -->
<g id="node1" class="node"><title>Node1</title>
<polygon fill="#bfbfbf" stroke="black" points="192.5,-403.5 192.5,-422.5 307.5,-422.5 307.5,-403.5 192.5,-403.5"/>
<text text-anchor="middle" x="250" y="-410.5" font-family="FreeSans" font-size="10.00">GameSelectScene.h</text>
</g>
<!-- Node2 -->
<g id="node2" class="node"><title>Node2</title>
<g id="a_node2"><a xlink:href="_track_list_8h.html" target="_top" xlink:title="../../engine/Model\l/TrackList.h">
<polygon fill="none" stroke="black" points="91,-336.5 91,-366.5 189,-366.5 189,-336.5 91,-336.5"/>
<text text-anchor="start" x="99" y="-354.5" font-family="FreeSans" font-size="10.00">../../engine/Model</text>
<text text-anchor="middle" x="140" y="-343.5" font-family="FreeSans" font-size="10.00">/TrackList.h</text>
</a>
</g>
</g>
<!-- Node1&#45;&gt;Node2 -->
<g id="edge1" class="edge"><title>Node1&#45;&gt;Node2</title>
<path fill="none" stroke="midnightblue" d="M234.24,-403.475C218.785,-395.115 194.705,-382.09 174.755,-371.299"/>
<polygon fill="midnightblue" stroke="midnightblue" points="176.386,-368.202 165.925,-366.523 173.055,-374.359 176.386,-368.202"/>
</g>
<!-- Node13 -->
<g id="node13" class="node"><title>Node13</title>
<g id="a_node13"><a xlink:href="_game_director_8h.html" target="_top" xlink:title="GameDirector.h">
<polygon fill="none" stroke="black" points="275,-280.5 275,-299.5 367,-299.5 367,-280.5 275,-280.5"/>
<text text-anchor="middle" x="321" y="-287.5" font-family="FreeSans" font-size="10.00">GameDirector.h</text>
</a>
</g>
</g>
<!-- Node1&#45;&gt;Node13 -->
<g id="edge14" class="edge"><title>Node1&#45;&gt;Node13</title>
<path fill="none" stroke="midnightblue" d="M264.068,-403.408C275.946,-395.425 292.496,-382.459 302,-367 312.775,-349.472 317.451,-326.12 319.472,-309.948"/>
<polygon fill="midnightblue" stroke="midnightblue" points="322.992,-309.931 320.525,-299.628 316.028,-309.221 322.992,-309.931"/>
</g>
<!-- Node14 -->
<g id="node14" class="node"><title>Node14</title>
<g id="a_node14"><a xlink:href="_dialog_scene_8h.html" target="_top" xlink:title="DialogScene.h">
<polygon fill="none" stroke="black" points="207,-342 207,-361 293,-361 293,-342 207,-342"/>
<text text-anchor="middle" x="250" y="-349" font-family="FreeSans" font-size="10.00">DialogScene.h</text>
</a>
</g>
</g>
<!-- Node1&#45;&gt;Node14 -->
<g id="edge15" class="edge"><title>Node1&#45;&gt;Node14</title>
<path fill="none" stroke="midnightblue" d="M250,-403.475C250,-395.08 250,-381.981 250,-371.163"/>
<polygon fill="midnightblue" stroke="midnightblue" points="253.5,-371.009 250,-361.009 246.5,-371.009 253.5,-371.009"/>
</g>
<!-- Node3 -->
<g id="node3" class="node"><title>Node3</title>
<g id="a_node3"><a xlink:href="_track_entry_8h.html" target="_top" xlink:title="TrackEntry.h">
<polygon fill="none" stroke="black" points="103.5,-168.5 103.5,-187.5 176.5,-187.5 176.5,-168.5 103.5,-168.5"/>
<text text-anchor="middle" x="140" y="-175.5" font-family="FreeSans" font-size="10.00">TrackEntry.h</text>
</a>
</g>
</g>
<!-- Node2&#45;&gt;Node3 -->
<g id="edge2" class="edge"><title>Node2&#45;&gt;Node3</title>
<path fill="none" stroke="midnightblue" d="M140,-336.465C140,-305.704 140,-232.329 140,-197.7"/>
<polygon fill="midnightblue" stroke="midnightblue" points="143.5,-197.56 140,-187.56 136.5,-197.56 143.5,-197.56"/>
</g>
<!-- Node4 -->
<g id="node4" class="node"><title>Node4</title>
<g id="a_node4"><a xlink:href="_inspectable_8h.html" target="_top" xlink:title="../Util/Inspectable.h">
<polygon fill="none" stroke="black" points="0,-112.5 0,-131.5 108,-131.5 108,-112.5 0,-112.5"/>
<text text-anchor="middle" x="54" y="-119.5" font-family="FreeSans" font-size="10.00">../Util/Inspectable.h</text>
</a>
</g>
</g>
<!-- Node3&#45;&gt;Node4 -->
<g id="edge3" class="edge"><title>Node3&#45;&gt;Node4</title>
<path fill="none" stroke="midnightblue" d="M126.183,-168.324C112.767,-159.9 92.1759,-146.971 76.4144,-137.074"/>
<polygon fill="midnightblue" stroke="midnightblue" points="78.1132,-134.008 67.7831,-131.655 74.3908,-139.936 78.1132,-134.008"/>
</g>
<!-- Node6 -->
<g id="node6" class="node"><title>Node6</title>
<g id="a_node6"><a xlink:href="_m_r___types_8h.html" target="_top" xlink:title="../Util/MR_Types.h">
<polygon fill="none" stroke="black" points="90.5,-56.5 90.5,-75.5 189.5,-75.5 189.5,-56.5 90.5,-56.5"/>
<text text-anchor="middle" x="140" y="-63.5" font-family="FreeSans" font-size="10.00">../Util/MR_Types.h</text>
</a>
</g>
</g>
<!-- Node3&#45;&gt;Node6 -->
<g id="edge5" class="edge"><title>Node3&#45;&gt;Node6</title>
<path fill="none" stroke="midnightblue" d="M140,-168.368C140,-150.617 140,-109.666 140,-85.5974"/>
<polygon fill="midnightblue" stroke="midnightblue" points="143.5,-85.5914 140,-75.5914 136.5,-85.5915 143.5,-85.5914"/>
</g>
<!-- Node8 -->
<g id="node8" class="node"><title>Node8</title>
<g id="a_node8"><a xlink:href="_o_s_8h.html" target="_top" xlink:title="../Util/OS.h">
<polygon fill="none" stroke="black" points="219,-112.5 219,-131.5 287,-131.5 287,-112.5 219,-112.5"/>
<text text-anchor="middle" x="253" y="-119.5" font-family="FreeSans" font-size="10.00">../Util/OS.h</text>
</a>
</g>
</g>
<!-- Node3&#45;&gt;Node8 -->
<g id="edge7" class="edge"><title>Node3&#45;&gt;Node8</title>
<path fill="none" stroke="midnightblue" d="M157.905,-168.444C176.254,-159.675 205.005,-145.935 226.094,-135.858"/>
<polygon fill="midnightblue" stroke="midnightblue" points="227.665,-138.986 235.179,-131.516 224.647,-132.67 227.665,-138.986"/>
</g>
<!-- Node5 -->
<g id="node5" class="node"><title>Node5</title>
<polygon fill="none" stroke="#bfbfbf" points="28,-56.5 28,-75.5 72,-75.5 72,-56.5 28,-56.5"/>
<text text-anchor="middle" x="50" y="-63.5" font-family="FreeSans" font-size="10.00">string</text>
</g>
<!-- Node4&#45;&gt;Node5 -->
<g id="edge4" class="edge"><title>Node4&#45;&gt;Node5</title>
<path fill="none" stroke="midnightblue" d="M53.3395,-112.083C52.8152,-105.006 52.0638,-94.8611 51.4064,-85.9865"/>
<polygon fill="midnightblue" stroke="midnightblue" points="54.8775,-85.4652 50.6482,-75.7511 47.8966,-85.9823 54.8775,-85.4652"/>
</g>
<!-- Node7 -->
<g id="node7" class="node"><title>Node7</title>
<polygon fill="none" stroke="#bfbfbf" points="108,-0.5 108,-19.5 172,-19.5 172,-0.5 108,-0.5"/>
<text text-anchor="middle" x="140" y="-7.5" font-family="FreeSans" font-size="10.00">inttypes.h</text>
</g>
<!-- Node6&#45;&gt;Node7 -->
<g id="edge6" class="edge"><title>Node6&#45;&gt;Node7</title>
<path fill="none" stroke="midnightblue" d="M140,-56.083C140,-49.0059 140,-38.8611 140,-29.9865"/>
<polygon fill="midnightblue" stroke="midnightblue" points="143.5,-29.751 140,-19.7511 136.5,-29.7511 143.5,-29.751"/>
</g>
<!-- Node8&#45;&gt;Node5 -->
<g id="edge10" class="edge"><title>Node8&#45;&gt;Node5</title>
<path fill="none" stroke="midnightblue" d="M219.312,-112.469C186.619,-104.128 135.357,-90.8853 82.2622,-76.2986"/>
<polygon fill="midnightblue" stroke="midnightblue" points="82.9015,-72.8444 72.3309,-73.5602 81.0407,-79.5925 82.9015,-72.8444"/>
</g>
<!-- Node8&#45;&gt;Node6 -->
<g id="edge13" class="edge"><title>Node8&#45;&gt;Node6</title>
<path fill="none" stroke="midnightblue" d="M235.095,-112.444C216.746,-103.675 187.995,-89.9355 166.906,-79.8579"/>
<polygon fill="midnightblue" stroke="midnightblue" points="168.353,-76.6703 157.821,-75.5164 165.335,-82.9862 168.353,-76.6703"/>
</g>
<!-- Node9 -->
<g id="node9" class="node"><title>Node9</title>
<polygon fill="none" stroke="#bfbfbf" points="458,-56.5 458,-75.5 502,-75.5 502,-56.5 458,-56.5"/>
<text text-anchor="middle" x="480" y="-63.5" font-family="FreeSans" font-size="10.00">locale</text>
</g>
<!-- Node8&#45;&gt;Node9 -->
<g id="edge8" class="edge"><title>Node8&#45;&gt;Node9</title>
<path fill="none" stroke="midnightblue" d="M287.135,-113.78C324.362,-105.77 385.912,-92.1326 447.765,-76.215"/>
<polygon fill="midnightblue" stroke="midnightblue" points="448.889,-79.5392 457.691,-73.6412 447.132,-72.7633 448.889,-79.5392"/>
</g>
<!-- Node10 -->
<g id="node10" class="node"><title>Node10</title>
<polygon fill="none" stroke="#bfbfbf" points="208,-56.5 208,-75.5 240,-75.5 240,-56.5 208,-56.5"/>
<text text-anchor="middle" x="224" y="-63.5" font-family="FreeSans" font-size="10.00">set</text>
</g>
<!-- Node8&#45;&gt;Node10 -->
<g id="edge9" class="edge"><title>Node8&#45;&gt;Node10</title>
<path fill="none" stroke="midnightblue" d="M248.211,-112.083C244.242,-104.691 238.475,-93.9533 233.565,-84.8111"/>
<polygon fill="midnightblue" stroke="midnightblue" points="236.514,-82.9051 228.7,-75.7511 230.347,-86.217 236.514,-82.9051"/>
</g>
<!-- Node11 -->
<g id="node11" class="node"><title>Node11</title>
<polygon fill="none" stroke="#bfbfbf" points="258.5,-56.5 258.5,-75.5 305.5,-75.5 305.5,-56.5 258.5,-56.5"/>
<text text-anchor="middle" x="282" y="-63.5" font-family="FreeSans" font-size="10.00">vector</text>
</g>
<!-- Node8&#45;&gt;Node11 -->
<g id="edge11" class="edge"><title>Node8&#45;&gt;Node11</title>
<path fill="none" stroke="midnightblue" d="M257.789,-112.083C261.758,-104.691 267.525,-93.9533 272.435,-84.8111"/>
<polygon fill="midnightblue" stroke="midnightblue" points="275.653,-86.217 277.3,-75.7511 269.486,-82.9051 275.653,-86.217"/>
</g>
<!-- Node12 -->
<g id="node12" class="node"><title>Node12</title>
<polygon fill="none" stroke="#bfbfbf" points="324,-56.5 324,-75.5 440,-75.5 440,-56.5 324,-56.5"/>
<text text-anchor="middle" x="382" y="-63.5" font-family="FreeSans" font-size="10.00">boost/filesystem.hpp</text>
</g>
<!-- Node8&#45;&gt;Node12 -->
<g id="edge12" class="edge"><title>Node8&#45;&gt;Node12</title>
<path fill="none" stroke="midnightblue" d="M273.44,-112.444C294.67,-103.557 328.099,-89.5632 352.255,-79.4514"/>
<polygon fill="midnightblue" stroke="midnightblue" points="353.782,-82.6064 361.655,-75.5164 351.079,-76.1493 353.782,-82.6064"/>
</g>
<!-- Node14&#45;&gt;Node13 -->
<g id="edge16" class="edge"><title>Node14&#45;&gt;Node13</title>
<path fill="none" stroke="midnightblue" d="M260.173,-341.975C271.35,-332.608 289.517,-317.384 303.091,-306.008"/>
<polygon fill="midnightblue" stroke="midnightblue" points="305.43,-308.615 310.846,-299.509 300.934,-303.25 305.43,-308.615"/>
</g>
<!-- Node15 -->
<g id="node15" class="node"><title>Node15</title>
<g id="a_node15"><a xlink:href="_form_scene_8h.html" target="_top" xlink:title="FormScene.h">
<polygon fill="none" stroke="black" points="177,-280.5 177,-299.5 257,-299.5 257,-280.5 177,-280.5"/>
<text text-anchor="middle" x="217" y="-287.5" font-family="FreeSans" font-size="10.00">FormScene.h</text>
</a>
</g>
</g>
<!-- Node14&#45;&gt;Node15 -->
<g id="edge17" class="edge"><title>Node14&#45;&gt;Node15</title>
<path fill="none" stroke="midnightblue" d="M245.272,-341.975C240.42,-333.227 232.734,-319.369 226.6,-308.309"/>
<polygon fill="midnightblue" stroke="midnightblue" points="229.63,-306.557 221.719,-299.509 223.509,-309.952 229.63,-306.557"/>
</g>
<!-- Node16 -->
<g id="node16" class="node"><title>Node16</title>
<g id="a_node16"><a xlink:href="_vec_8h.html" target="_top" xlink:title="../../engine/Vec.h">
<polygon fill="none" stroke="black" points="169,-224.5 169,-243.5 265,-243.5 265,-224.5 169,-224.5"/>
<text text-anchor="middle" x="217" y="-231.5" font-family="FreeSans" font-size="10.00">../../engine/Vec.h</text>
</a>
</g>
</g>
<!-- Node15&#45;&gt;Node16 -->
<g id="edge18" class="edge"><title>Node15&#45;&gt;Node16</title>
<path fill="none" stroke="midnightblue" d="M217,-280.083C217,-273.006 217,-262.861 217,-253.986"/>
<polygon fill="midnightblue" stroke="midnightblue" points="220.5,-253.751 217,-243.751 213.5,-253.751 220.5,-253.751"/>
</g>
<!-- Node17 -->
<g id="node17" class="node"><title>Node17</title>
<g id="a_node17"><a xlink:href="_ui_scene_8h.html" target="_top" xlink:title="UiScene.h">
<polygon fill="none" stroke="black" points="283.5,-224.5 283.5,-243.5 348.5,-243.5 348.5,-224.5 283.5,-224.5"/>
<text text-anchor="middle" x="316" y="-231.5" font-family="FreeSans" font-size="10.00">UiScene.h</text>
</a>
</g>
</g>
<!-- Node15&#45;&gt;Node17 -->
<g id="edge19" class="edge"><title>Node15&#45;&gt;Node17</title>
<path fill="none" stroke="midnightblue" d="M232.906,-280.324C248.638,-271.743 272.942,-258.486 291.209,-248.522"/>
<polygon fill="midnightblue" stroke="midnightblue" points="293.03,-251.516 300.133,-243.655 289.678,-245.37 293.03,-251.516"/>
</g>
<!-- Node18 -->
<g id="node18" class="node"><title>Node18</title>
<g id="a_node18"><a xlink:href="_scene_8h.html" target="_top" xlink:title="Scene.h">
<polygon fill="none" stroke="black" points="288,-168.5 288,-187.5 344,-187.5 344,-168.5 288,-168.5"/>
<text text-anchor="middle" x="316" y="-175.5" font-family="FreeSans" font-size="10.00">Scene.h</text>
</a>
</g>
</g>
<!-- Node17&#45;&gt;Node18 -->
<g id="edge20" class="edge"><title>Node17&#45;&gt;Node18</title>
<path fill="none" stroke="midnightblue" d="M316,-224.083C316,-217.006 316,-206.861 316,-197.986"/>
<polygon fill="midnightblue" stroke="midnightblue" points="319.5,-197.751 316,-187.751 312.5,-197.751 319.5,-197.751"/>
</g>
<!-- Node18&#45;&gt;Node8 -->
<g id="edge21" class="edge"><title>Node18&#45;&gt;Node8</title>
<path fill="none" stroke="midnightblue" d="M305.878,-168.324C296.474,-160.263 282.256,-148.077 270.931,-138.369"/>
<polygon fill="midnightblue" stroke="midnightblue" points="273.177,-135.684 263.306,-131.834 268.621,-140.999 273.177,-135.684"/>
</g>
<!-- Node19 -->
<g id="node19" class="node"><title>Node19</title>
<g id="a_node19"><a xlink:href="_profiler_8h.html" target="_top" xlink:title="../../engine/Util/Profiler.h">
<polygon fill="none" stroke="black" points="407,-112.5 407,-131.5 537,-131.5 537,-112.5 407,-112.5"/>
<text text-anchor="middle" x="472" y="-119.5" font-family="FreeSans" font-size="10.00">../../engine/Util/Profiler.h</text>
</a>
</g>
</g>
<!-- Node18&#45;&gt;Node19 -->
<g id="edge22" class="edge"><title>Node18&#45;&gt;Node19</title>
<path fill="none" stroke="midnightblue" d="M340.719,-168.444C366.848,-159.399 408.259,-145.064 437.576,-134.916"/>
<polygon fill="midnightblue" stroke="midnightblue" points="439.092,-138.095 447.397,-131.516 436.802,-131.48 439.092,-138.095"/>
</g>
<!-- Node20 -->
<g id="node20" class="node"><title>Node20</title>
<polygon fill="none" stroke="#bfbfbf" points="520,-56.5 520,-75.5 570,-75.5 570,-56.5 520,-56.5"/>
<text text-anchor="middle" x="545" y="-63.5" font-family="FreeSans" font-size="10.00">chrono</text>
</g>
<!-- Node19&#45;&gt;Node20 -->
<g id="edge23" class="edge"><title>Node19&#45;&gt;Node20</title>
<path fill="none" stroke="midnightblue" d="M483.729,-112.324C494.837,-104.107 511.742,-91.6017 524.983,-81.8069"/>
<polygon fill="midnightblue" stroke="midnightblue" points="527.1,-84.5948 533.058,-75.8339 522.937,-78.9671 527.1,-84.5948"/>
</g>
</g>
</svg>
        <g id="navigator" transform="translate(0 0)" fill="#404254">
                <rect fill="#f2f5e9" fill-opacity="0.5" stroke="#606060" stroke-width=".5" x="0" y="0" width="60" height="60"/>
                <use id="zoomplus" xlink:href="#zoomPlus" x="17" y="9" onmousedown="handleZoom(evt,'in')"/>
                <use id="zoomminus" xlink:href="#zoomMin" x="42" y="9" onmousedown="handleZoom(evt,'out')"/>
                <use id="reset" xlink:href="#resetDef" x="30" y="36" onmousedown="handleReset()"/>
                <g id="arrowUp" xlink:href="#dirArrow" transform="translate(30 24)" onmousedown="handlePan(0,-1)">
                  <use xlink:href="#rim" fill="#404040">
                        <set attributeName="fill" to="#808080" begin="arrowUp.mouseover" end="arrowUp.mouseout"/>
                  </use>
                  <path fill="none" stroke="white" stroke-width="1.5" d="M0,-3.0v7 M-2.5,-0.5L0,-3.0L2.5,-0.5"/>
                </g>
                <g id="arrowRight" xlink:href="#dirArrow" transform="rotate(90) translate(36 -43)" onmousedown="handlePan(1,0)">
                  <use xlink:href="#rim" fill="#404040">
                        <set attributeName="fill" to="#808080" begin="arrowRight.mouseover" end="arrowRight.mouseout"/>
                  </use>
                  <path fill="none" stroke="white" stroke-width="1.5" d="M0,-3.0v7 M-2.5,-0.5L0,-3.0L2.5,-0.5"/>
                </g>
                <g id="arrowDown" xlink:href="#dirArrow" transform="rotate(180) translate(-30 -48)" onmousedown="handlePan(0,1)">
                  <use xlink:href="#rim" fill="#404040">
                        <set attributeName="fill" to="#808080" begin="arrowDown.mouseover" end="arrowDown.mouseout"/>
                  </use>
                  <path fill="none" stroke="white" stroke-width="1.5" d="M0,-3.0v7 M-2.5,-0.5L0,-3.0L2.5,-0.5"/>
                </g>
                <g id="arrowLeft" xlink:href="#dirArrow" transform="rotate(270) translate(-36 17)" onmousedown="handlePan(-1,0)">
                  <use xlink:href="#rim" fill="#404040">
                        <set attributeName="fill" to="#808080" begin="arrowLeft.mouseover" end="arrowLeft.mouseout"/>
                  </use>
                  <path fill="none" stroke="white" stroke-width="1.5" d="M0,-3.0v7 M-2.5,-0.5L0,-3.0L2.5,-0.5"/>
                </g>
        </g>
        <svg viewBox="0 0 15 15" width="100%" height="30px" preserveAspectRatio="xMaxYMin meet">
         <g id="arrow_out" transform="scale(0.3 0.3)">
          <a xlink:href="_game_select_scene_8h__incl_org.svg" target="_base">
           <rect id="button" ry="5" rx="5" y="6" x="6" height="38" width="38"
                fill="#f2f5e9" fill-opacity="0.5" stroke="#606060" stroke-width="1.0"/>
           <path id="arrow"
             d="M 11.500037,31.436501 C 11.940474,20.09759 22.043105,11.32322 32.158766,21.979434 L 37.068811,17.246167 C 37.068811,17.246167 37.088388,32 37.088388,32 L 22.160133,31.978069 C 22.160133,31.978069 26.997745,27.140456 26.997745,27.140456 C 18.528582,18.264221 13.291696,25.230495 11.500037,31.436501 z"
             style="fill:#404040;"/>
          </a>
         </g>
        </svg>
</svg>
