<?xml version="1.0" encoding="UTF-8" standalone="no"?>
<!DOCTYPE svg PUBLIC "-//W3C//DTD SVG 1.1//EN"
 "http://www.w3.org/Graphics/SVG/1.1/DTD/svg11.dtd">
<!-- Generated by graphviz version 2.26.3 (20100126.1600)
 -->
<!-- Title: GameSession.h Pages: 1 -->
<!--zoomable 262 -->
<svg id="main" version="1.1" xmlns="http://www.w3.org/2000/svg" xmlns:xlink="http://www.w3.org/1999/xlink" xml:space="preserve" onload="init(evt)">
        <defs>
                <circle id="rim" cx="0" cy="0" r="7"/>
                <circle id="rim2" cx="0" cy="0" r="3.5"/>
                <g id="zoomPlus">
                        <use xlink:href="#rim" fill="#404040">
                                <set attributeName="fill" to="#808080" begin="zoomplus.mouseover" end="zoomplus.mouseout"/>
                        </use>
                        <path d="M-4,0h8M0,-4v8" fill="none" stroke="white" stroke-width="1.5" pointer-events="none"/>
                </g>
                <g id="zoomMin">
                        <use xlink:href="#rim" fill="#404040">
                                <set attributeName="fill" to="#808080" begin="zoomminus.mouseover" end="zoomminus.mouseout"/>
                        </use>
                        <path d="M-4,0h8" fill="none" stroke="white" stroke-width="1.5" pointer-events="none"/>
                </g>
                <g id="dirArrow">
                        <path fill="none" stroke="white" stroke-width="1.5" d="M0,-3.0v7 M-2.5,-0.5L0,-3.0L2.5,-0.5"/>
                </g>
               <g id="resetDef">
                       <use xlink:href="#rim2" fill="#404040">
                               <set attributeName="fill" to="#808080" begin="reset.mouseover" end="reset.mouseout"/>
                       </use>
               </g>
        </defs>

<script type="text/javascript">
var viewWidth = 702;
var viewHeight = 262;
var sectionId = 'dynsection-1';
</script>
<script xlink:href="svgpan.js"/>
<svg id="graph" class="graph">
<g id="viewport">
<title>GameSession.h</title>
<!-- Node1 -->
<g id="node1" class="node"><title>Node1</title>
<polygon fill="#bfbfbf" stroke="black" points="351,-233 351,-253 437,-253 437,-233 351,-233"/>
<text text-anchor="middle" x="394" y="-240" font-family="FreeSans" font-size="10.00">GameSession.h</text>
</g>
<!-- Node2 -->
<g id="node3" class="node"><title>Node2</title>
<a xlink:href="_client_session_8h.html" target="_top" xlink:title="ClientSession.h">
<polygon fill="none" stroke="black" points="298,-175 298,-195 382,-195 382,-175 298,-175"/>
<text text-anchor="middle" x="340" y="-182" font-family="FreeSans" font-size="10.00">ClientSession.h</text>
</a>
</g>
<!-- Node1&#45;&gt;Node2 -->
<g id="edge2" class="edge"><title>Node1&#45;&gt;Node2</title>
<path fill="none" stroke="midnightblue" d="M377.77,-225.568C368.606,-215.725 357.461,-203.755 349.662,-195.378"/>
<polygon fill="midnightblue" stroke="midnightblue" points="375.218,-227.963 384.594,-232.897 380.341,-223.193 375.218,-227.963"/>
</g>
<!-- Node16 -->
<g id="node34" class="node"><title>Node16</title>
<a xlink:href="_game_session_8cpp.html" target="_top" xlink:title="GameSession.cpp">
<polygon fill="none" stroke="black" points="400,-175 400,-195 496,-195 496,-175 400,-175"/>
<text text-anchor="middle" x="448" y="-182" font-family="FreeSans" font-size="10.00">GameSession.cpp</text>
</a>
</g>
<!-- Node1&#45;&gt;Node16 -->
<g id="edge36" class="edge"><title>Node1&#45;&gt;Node16</title>
<path fill="none" stroke="midnightblue" d="M410.23,-225.568C419.394,-215.725 430.539,-203.755 438.338,-195.378"/>
<polygon fill="midnightblue" stroke="midnightblue" points="407.659,-223.193 403.406,-232.897 412.782,-227.963 407.659,-223.193"/>
</g>
<!-- Node3 -->
<g id="node5" class="node"><title>Node3</title>
<a xlink:href="_client_app_8cpp.html" target="_top" xlink:title="ClientApp.cpp">
<polygon fill="none" stroke="black" points="-0.5,-117 -0.5,-137 76.5,-137 76.5,-117 -0.5,-117"/>
<text text-anchor="middle" x="38" y="-124" font-family="FreeSans" font-size="10.00">ClientApp.cpp</text>
</a>
</g>
<!-- Node2&#45;&gt;Node3 -->
<g id="edge4" class="edge"><title>Node2&#45;&gt;Node3</title>
<path fill="none" stroke="midnightblue" d="M287.998,-176.163C236.366,-167.213 155.02,-152.638 85,-138 82.293,-137.434 79.503,-136.831 76.6962,-136.211"/>
<polygon fill="midnightblue" stroke="midnightblue" points="287.466,-179.623 297.916,-177.876 288.657,-172.725 287.466,-179.623"/>
</g>
<!-- Node4 -->
<g id="node7" class="node"><title>Node4</title>
<a xlink:href="_client_session_8cpp.html" target="_top" xlink:title="ClientSession.cpp">
<polygon fill="none" stroke="black" points="93.5,-117 93.5,-137 188.5,-137 188.5,-117 93.5,-117"/>
<text text-anchor="middle" x="141" y="-124" font-family="FreeSans" font-size="10.00">ClientSession.cpp</text>
</a>
</g>
<!-- Node2&#45;&gt;Node4 -->
<g id="edge6" class="edge"><title>Node2&#45;&gt;Node4</title>
<path fill="none" stroke="midnightblue" d="M295.52,-172.036C259.289,-161.476 208.862,-146.779 175.599,-137.084"/>
<polygon fill="midnightblue" stroke="midnightblue" points="294.757,-175.459 305.337,-174.897 296.716,-168.739 294.757,-175.459"/>
</g>
<!-- Node5 -->
<g id="node9" class="node"><title>Node5</title>
<a xlink:href="_game_app_8h.html" target="_top" xlink:title="GameApp.h">
<polygon fill="none" stroke="black" points="206,-117 206,-137 274,-137 274,-117 206,-117"/>
<text text-anchor="middle" x="240" y="-124" font-family="FreeSans" font-size="10.00">GameApp.h</text>
</a>
</g>
<!-- Node2&#45;&gt;Node5 -->
<g id="edge8" class="edge"><title>Node2&#45;&gt;Node5</title>
<path fill="none" stroke="midnightblue" d="M313.847,-169.831C296.105,-159.541 273.132,-146.217 257.555,-137.182"/>
<polygon fill="midnightblue" stroke="midnightblue" points="312.175,-172.908 322.581,-174.897 315.687,-166.852 312.175,-172.908"/>
</g>
<!-- Node9 -->
<g id="node17" class="node"><title>Node9</title>
<a xlink:href="_network_session_8h.html" target="_top" xlink:title="NetworkSession.h">
<polygon fill="none" stroke="black" points="292,-117 292,-137 388,-137 388,-117 292,-117"/>
<text text-anchor="middle" x="340" y="-124" font-family="FreeSans" font-size="10.00">NetworkSession.h</text>
</a>
</g>
<!-- Node2&#45;&gt;Node9 -->
<g id="edge16" class="edge"><title>Node2&#45;&gt;Node9</title>
<path fill="none" stroke="midnightblue" d="M340,-164.89C340,-155.62 340,-145.008 340,-137.378"/>
<polygon fill="midnightblue" stroke="midnightblue" points="336.5,-164.897 340,-174.897 343.5,-164.897 336.5,-164.897"/>
</g>
<!-- Node13 -->
<g id="node28" class="node"><title>Node13</title>
<a xlink:href="_game_scene_8cpp.html" target="_top" xlink:title="GameScene.cpp">
<polygon fill="none" stroke="black" points="405.5,-117 405.5,-137 494.5,-137 494.5,-117 405.5,-117"/>
<text text-anchor="middle" x="450" y="-124" font-family="FreeSans" font-size="10.00">GameScene.cpp</text>
</a>
</g>
<!-- Node2&#45;&gt;Node13 -->
<g id="edge30" class="edge"><title>Node2&#45;&gt;Node13</title>
<path fill="none" stroke="midnightblue" d="M368.232,-170.114C387.82,-159.786 413.397,-146.3 430.69,-137.182"/>
<polygon fill="midnightblue" stroke="midnightblue" points="366.374,-167.137 359.161,-174.897 369.639,-173.329 366.374,-167.137"/>
</g>
<!-- Node14 -->
<g id="node30" class="node"><title>Node14</title>
<a xlink:href="_observer_8cpp.html" target="_top" xlink:title="Observer.cpp">
<polygon fill="none" stroke="black" points="512,-117 512,-137 586,-137 586,-117 512,-117"/>
<text text-anchor="middle" x="549" y="-124" font-family="FreeSans" font-size="10.00">Observer.cpp</text>
</a>
</g>
<!-- Node2&#45;&gt;Node14 -->
<g id="edge32" class="edge"><title>Node2&#45;&gt;Node14</title>
<path fill="none" stroke="midnightblue" d="M386.228,-172.171C424.314,-161.602 477.579,-146.82 512.662,-137.084"/>
<polygon fill="midnightblue" stroke="midnightblue" points="385.105,-168.85 376.405,-174.897 386.977,-175.596 385.105,-168.85"/>
</g>
<!-- Node15 -->
<g id="node32" class="node"><title>Node15</title>
<a xlink:href="_session_peer_8cpp.html" target="_top" xlink:title="SessionPeer.cpp">
<polygon fill="none" stroke="black" points="604,-117 604,-137 694,-137 694,-117 604,-117"/>
<text text-anchor="middle" x="649" y="-124" font-family="FreeSans" font-size="10.00">SessionPeer.cpp</text>
</a>
</g>
<!-- Node2&#45;&gt;Node15 -->
<g id="edge34" class="edge"><title>Node2&#45;&gt;Node15</title>
<path fill="none" stroke="midnightblue" d="M392.174,-173.821C483.013,-156.197 507.643,-154.602 595,-138 597.914,-137.446 600.914,-136.865 603.936,-136.272"/>
<polygon fill="midnightblue" stroke="midnightblue" points="391.419,-170.402 382.275,-175.753 392.761,-177.272 391.419,-170.402"/>
</g>
<!-- Node6 -->
<g id="node11" class="node"><title>Node6</title>
<a xlink:href="_game_app_8cpp.html" target="_top" xlink:title="GameApp.cpp">
<polygon fill="none" stroke="black" points="240,-1 240,-21 318,-21 318,-1 240,-1"/>
<text text-anchor="middle" x="279" y="-8" font-family="FreeSans" font-size="10.00">GameApp.cpp</text>
</a>
</g>
<!-- Node5&#45;&gt;Node6 -->
<g id="edge10" class="edge"><title>Node5&#45;&gt;Node6</title>
<path fill="none" stroke="midnightblue" d="M195.919,-114.536C158.375,-103.478 109.622,-87.891 104,-80 98.3265,-72.0366 98.0499,-65.759 104,-58 120.416,-36.5939 193.376,-22.7753 239.753,-15.985"/>
<polygon fill="midnightblue" stroke="midnightblue" points="195.096,-117.942 205.676,-117.383 197.057,-111.222 195.096,-117.942"/>
</g>
<!-- Node7 -->
<g id="node13" class="node"><title>Node7</title>
<a xlink:href="_gif_decoder_8cpp.html" target="_top" xlink:title="GifDecoder.cpp">
<polygon fill="none" stroke="black" points="112.5,-59 112.5,-79 195.5,-79 195.5,-59 112.5,-59"/>
<text text-anchor="middle" x="154" y="-66" font-family="FreeSans" font-size="10.00">GifDecoder.cpp</text>
</a>
</g>
<!-- Node5&#45;&gt;Node7 -->
<g id="edge12" class="edge"><title>Node5&#45;&gt;Node7</title>
<path fill="none" stroke="midnightblue" d="M216.664,-111.262C201.528,-101.054 182.248,-88.051 169.097,-79.1817"/>
<polygon fill="midnightblue" stroke="midnightblue" points="214.772,-114.207 225.02,-116.897 218.686,-108.404 214.772,-114.207"/>
</g>
<!-- Node8 -->
<g id="node15" class="node"><title>Node8</title>
<a xlink:href="_prefs_dialog_8cpp.html" target="_top" xlink:title="PrefsDialog.cpp">
<polygon fill="none" stroke="black" points="212.5,-59 212.5,-79 297.5,-79 297.5,-59 212.5,-59"/>
<text text-anchor="middle" x="255" y="-66" font-family="FreeSans" font-size="10.00">PrefsDialog.cpp</text>
</a>
</g>
<!-- Node5&#45;&gt;Node8 -->
<g id="edge14" class="edge"><title>Node5&#45;&gt;Node8</title>
<path fill="none" stroke="midnightblue" d="M245.123,-107.192C247.538,-97.8512 250.321,-87.0912 252.316,-79.3776"/>
<polygon fill="midnightblue" stroke="midnightblue" points="241.728,-106.339 242.613,-116.897 248.505,-108.092 241.728,-106.339"/>
</g>
<!-- Node9&#45;&gt;Node6 -->
<g id="edge18" class="edge"><title>Node9&#45;&gt;Node6</title>
<path fill="none" stroke="midnightblue" d="M330.802,-107.505C324.139,-93.593 314.794,-74.5014 306,-58 299.184,-45.2109 290.798,-30.8004 285.197,-21.3474"/>
<polygon fill="midnightblue" stroke="midnightblue" points="327.676,-109.083 335.133,-116.609 333.998,-106.075 327.676,-109.083"/>
</g>
<!-- Node10 -->
<g id="node20" class="node"><title>Node10</title>
<a xlink:href="_internet_room_8h.html" target="_top" xlink:title="InternetRoom.h">
<polygon fill="none" stroke="black" points="352.5,-59 352.5,-79 435.5,-79 435.5,-59 352.5,-59"/>
<text text-anchor="middle" x="394" y="-66" font-family="FreeSans" font-size="10.00">InternetRoom.h</text>
</a>
</g>
<!-- Node9&#45;&gt;Node10 -->
<g id="edge20" class="edge"><title>Node9&#45;&gt;Node10</title>
<path fill="none" stroke="midnightblue" d="M356.23,-109.568C365.394,-99.7249 376.539,-87.7548 384.338,-79.3776"/>
<polygon fill="midnightblue" stroke="midnightblue" points="353.659,-107.193 349.406,-116.897 358.782,-111.963 353.659,-107.193"/>
</g>
<!-- Node12 -->
<g id="node25" class="node"><title>Node12</title>
<a xlink:href="_network_session_8cpp.html" target="_top" xlink:title="NetworkSession.cpp">
<polygon fill="none" stroke="black" points="445.5,-1 445.5,-21 552.5,-21 552.5,-1 445.5,-1"/>
<text text-anchor="middle" x="499" y="-8" font-family="FreeSans" font-size="10.00">NetworkSession.cpp</text>
</a>
</g>
<!-- Node9&#45;&gt;Node12 -->
<g id="edge28" class="edge"><title>Node9&#45;&gt;Node12</title>
<path fill="none" stroke="midnightblue" d="M381.692,-113.384C401.771,-105.575 425.453,-94.4281 444,-80 465.764,-63.0688 484.114,-35.8346 493.091,-21.1565"/>
<polygon fill="midnightblue" stroke="midnightblue" points="380.302,-110.167 372.163,-116.949 382.755,-116.723 380.302,-110.167"/>
</g>
<!-- Node10&#45;&gt;Node6 -->
<g id="edge22" class="edge"><title>Node10&#45;&gt;Node6</title>
<path fill="none" stroke="midnightblue" d="M364.763,-54.2544C344.25,-43.9086 317.349,-30.3411 299.188,-21.1817"/>
<polygon fill="midnightblue" stroke="midnightblue" points="363.464,-57.519 373.969,-58.8972 366.616,-51.2689 363.464,-57.519"/>
</g>
<!-- Node11 -->
<g id="node23" class="node"><title>Node11</title>
<a xlink:href="_internet_room_8cpp.html" target="_top" xlink:title="InternetRoom.cpp">
<polygon fill="none" stroke="black" points="335.5,-1 335.5,-21 428.5,-21 428.5,-1 335.5,-1"/>
<text text-anchor="middle" x="382" y="-8" font-family="FreeSans" font-size="10.00">InternetRoom.cpp</text>
</a>
</g>
<!-- Node10&#45;&gt;Node11 -->
<g id="edge24" class="edge"><title>Node10&#45;&gt;Node11</title>
<path fill="none" stroke="midnightblue" d="M389.839,-48.8902C387.921,-39.6201 385.726,-29.0083 384.147,-21.3776"/>
<polygon fill="midnightblue" stroke="midnightblue" points="386.456,-49.8137 391.91,-58.8972 393.311,-48.3954 386.456,-49.8137"/>
</g>
<!-- Node10&#45;&gt;Node12 -->
<g id="edge26" class="edge"><title>Node10&#45;&gt;Node12</title>
<path fill="none" stroke="midnightblue" d="M421.204,-53.9728C439.868,-43.6634 464.136,-30.2582 480.568,-21.1817"/>
<polygon fill="midnightblue" stroke="midnightblue" points="419.351,-50.9983 412.29,-58.8972 422.735,-57.1256 419.351,-50.9983"/>
</g>
</g>
</svg>
        <g id="navigator" transform="translate(0 0)" fill="#404254">
                <rect fill="#f2f5e9" fill-opacity="0.5" stroke="#606060" stroke-width=".5" x="0" y="0" width="60" height="60"/>
                <use id="zoomplus" xlink:href="#zoomPlus" x="17" y="9" onmousedown="handleZoom(evt,'in')"/>
                <use id="zoomminus" xlink:href="#zoomMin" x="42" y="9" onmousedown="handleZoom(evt,'out')"/>
                <use id="reset" xlink:href="#resetDef" x="30" y="36" onmousedown="handleReset()"/>
                <g id="arrowUp" xlink:href="#dirArrow" transform="translate(30 24)" onmousedown="handlePan(0,-1)">
                  <use xlink:href="#rim" fill="#404040">
                        <set attributeName="fill" to="#808080" begin="arrowUp.mouseover" end="arrowUp.mouseout"/>
                  </use>
                  <path fill="none" stroke="white" stroke-width="1.5" d="M0,-3.0v7 M-2.5,-0.5L0,-3.0L2.5,-0.5"/>
                </g>
                <g id="arrowRight" xlink:href="#dirArrow" transform="rotate(90) translate(36 -43)" onmousedown="handlePan(1,0)">
                  <use xlink:href="#rim" fill="#404040">
                        <set attributeName="fill" to="#808080" begin="arrowRight.mouseover" end="arrowRight.mouseout"/>
                  </use>
                  <path fill="none" stroke="white" stroke-width="1.5" d="M0,-3.0v7 M-2.5,-0.5L0,-3.0L2.5,-0.5"/>
                </g>
                <g id="arrowDown" xlink:href="#dirArrow" transform="rotate(180) translate(-30 -48)" onmousedown="handlePan(0,1)">
                  <use xlink:href="#rim" fill="#404040">
                        <set attributeName="fill" to="#808080" begin="arrowDown.mouseover" end="arrowDown.mouseout"/>
                  </use>
                  <path fill="none" stroke="white" stroke-width="1.5" d="M0,-3.0v7 M-2.5,-0.5L0,-3.0L2.5,-0.5"/>
                </g>
                <g id="arrowLeft" xlink:href="#dirArrow" transform="rotate(270) translate(-36 17)" onmousedown="handlePan(-1,0)">
                  <use xlink:href="#rim" fill="#404040">
                        <set attributeName="fill" to="#808080" begin="arrowLeft.mouseover" end="arrowLeft.mouseout"/>
                  </use>
                  <path fill="none" stroke="white" stroke-width="1.5" d="M0,-3.0v7 M-2.5,-0.5L0,-3.0L2.5,-0.5"/>
                </g>
        </g>
        <svg viewBox="0 0 15 15" width="100%" height="30px" preserveAspectRatio="xMaxYMin meet">
         <g id="arrow_out" transform="scale(0.3 0.3)">
          <a xlink:href="_game_session_8h__dep__incl_org.svg" target="_base">
           <rect id="button" ry="5" rx="5" y="6" x="6" height="38" width="38"
                fill="#f2f5e9" fill-opacity="0.5" stroke="#606060" stroke-width="1.0"/>
           <path id="arrow"
             d="M 11.500037,31.436501 C 11.940474,20.09759 22.043105,11.32322 32.158766,21.979434 L 37.068811,17.246167 C 37.068811,17.246167 37.088388,32 37.088388,32 L 22.160133,31.978069 C 22.160133,31.978069 26.997745,27.140456 26.997745,27.140456 C 18.528582,18.264221 13.291696,25.230495 11.500037,31.436501 z"
             style="fill:#404040;"/>
          </a>
         </g>
        </svg>
</svg>
