<?xml version="1.0" encoding="UTF-8" standalone="no"?>
<!DOCTYPE svg PUBLIC "-//W3C//DTD SVG 1.1//EN"
 "http://www.w3.org/Graphics/SVG/1.1/DTD/svg11.dtd">
<!-- Generated by graphviz version 2.26.3 (20100126.1600)
 -->
<!-- Title: Handlers.h Pages: 1 -->
<!--zoomable 146 -->
<svg id="main" version="1.1" xmlns="http://www.w3.org/2000/svg" xmlns:xlink="http://www.w3.org/1999/xlink" xml:space="preserve" onload="init(evt)">
<style type="text/css"><![CDATA[
.edge:hover path { stroke: red; }
.edge:hover polygon { stroke: red; fill: red; }
]]></style>
<script type="text/javascript"><![CDATA[
var edges = document.getElementsByTagName('g');
if (edges && edges.length) {
  for (var i=0;i<edges.length;i++) {
    if (edges[i].id.substr(0,4)=='edge') {
      edges[i].setAttribute('class','edge');
    }
  }
}
]]></script>
        <defs>
                <circle id="rim" cx="0" cy="0" r="7"/>
                <circle id="rim2" cx="0" cy="0" r="3.5"/>
                <g id="zoomPlus">
                        <use xlink:href="#rim" fill="#404040">
                                <set attributeName="fill" to="#808080" begin="zoomplus.mouseover" end="zoomplus.mouseout"/>
                        </use>
                        <path d="M-4,0h8M0,-4v8" fill="none" stroke="white" stroke-width="1.5" pointer-events="none"/>
                </g>
                <g id="zoomMin">
                        <use xlink:href="#rim" fill="#404040">
                                <set attributeName="fill" to="#808080" begin="zoomminus.mouseover" end="zoomminus.mouseout"/>
                        </use>
                        <path d="M-4,0h8" fill="none" stroke="white" stroke-width="1.5" pointer-events="none"/>
                </g>
                <g id="dirArrow">
                        <path fill="none" stroke="white" stroke-width="1.5" d="M0,-3.0v7 M-2.5,-0.5L0,-3.0L2.5,-0.5"/>
                </g>
               <g id="resetDef">
                       <use xlink:href="#rim2" fill="#404040">
                               <set attributeName="fill" to="#808080" begin="reset.mouseover" end="reset.mouseout"/>
                       </use>
               </g>
        </defs>

<script type="text/javascript">
var viewWidth = 2024;
var viewHeight = 146;
var sectionId = 'dynsection-1';
</script>
<script xlink:href="svgpan.js"/>
<svg id="graph" class="graph">
<g id="viewport">
<title>Handlers.h</title>
<!-- Node1 -->
<g id="node1" class="node"><title>Node1</title>
<polygon fill="#bfbfbf" stroke="black" points="803.5,-117 803.5,-137 866.5,-137 866.5,-117 803.5,-117"/>
<text text-anchor="middle" x="835" y="-124" font-family="FreeSans" font-size="10.00">Handlers.h</text>
</g>
<!-- Node2 -->
<g id="node3" class="node"><title>Node2</title>
<a xlink:href="_debug_peer_8h.html" target="_top" xlink:title="DebugPeer.h">
<polygon fill="none" stroke="black" points="360,-59 360,-79 432,-79 432,-59 360,-59"/>
<text text-anchor="middle" x="396" y="-66" font-family="FreeSans" font-size="10.00">DebugPeer.h</text>
</a>
</g>
<!-- Node1&#45;&gt;Node2 -->
<g id="edge2" class="edge"><title>Node1&#45;&gt;Node2</title>
<path fill="none" stroke="midnightblue" d="M793.287,-121.489C707.564,-110.163 512.88,-84.442 432.135,-73.7741"/>
<polygon fill="midnightblue" stroke="midnightblue" points="793.056,-124.989 803.428,-122.829 793.973,-118.049 793.056,-124.989"/>
</g>
<!-- Node8 -->
<g id="node15" class="node"><title>Node8</title>
<a xlink:href="_game_peer_8h.html" target="_top" xlink:title="GamePeer.h">
<polygon fill="none" stroke="black" points="494.5,-59 494.5,-79 565.5,-79 565.5,-59 494.5,-59"/>
<text text-anchor="middle" x="530" y="-66" font-family="FreeSans" font-size="10.00">GamePeer.h</text>
</a>
</g>
<!-- Node1&#45;&gt;Node8 -->
<g id="edge14" class="edge"><title>Node1&#45;&gt;Node8</title>
<path fill="none" stroke="midnightblue" d="M793.293,-119.069C733.065,-107.616 622.748,-86.6374 565.928,-75.8323"/>
<polygon fill="midnightblue" stroke="midnightblue" points="792.745,-122.527 803.223,-120.957 794.053,-115.65 792.745,-122.527"/>
</g>
<!-- Node11 -->
<g id="node25" class="node"><title>Node11</title>
<a xlink:href="_input_peer_8h.html" target="_top" xlink:title="InputPeer.h">
<polygon fill="none" stroke="black" points="225,-59 225,-79 291,-79 291,-59 225,-59"/>
<text text-anchor="middle" x="258" y="-66" font-family="FreeSans" font-size="10.00">InputPeer.h</text>
</a>
</g>
<!-- Node1&#45;&gt;Node11 -->
<g id="edge28" class="edge"><title>Node1&#45;&gt;Node11</title>
<path fill="none" stroke="midnightblue" d="M793.114,-123.23C709.175,-115.609 514.405,-97.5957 351,-80 331.117,-77.859 308.871,-75.236 291.123,-73.0884"/>
<polygon fill="midnightblue" stroke="midnightblue" points="792.989,-126.733 803.264,-124.15 793.621,-119.762 792.989,-126.733"/>
</g>
<!-- Node13 -->
<g id="node33" class="node"><title>Node13</title>
<a xlink:href="_rulebook_8h.html" target="_top" xlink:title="Rulebook.h">
<polygon fill="none" stroke="black" points="1107.5,-59 1107.5,-79 1172.5,-79 1172.5,-59 1107.5,-59"/>
<text text-anchor="middle" x="1140" y="-66" font-family="FreeSans" font-size="10.00">Rulebook.h</text>
</a>
</g>
<!-- Node1&#45;&gt;Node13 -->
<g id="edge40" class="edge"><title>Node1&#45;&gt;Node13</title>
<path fill="none" stroke="midnightblue" d="M876.902,-119.032C938.365,-107.344 1051.69,-85.794 1107.37,-75.2042"/>
<polygon fill="midnightblue" stroke="midnightblue" points="875.947,-115.65 866.777,-120.957 877.255,-122.527 875.947,-115.65"/>
</g>
<!-- Node23 -->
<g id="node56" class="node"><title>Node23</title>
<a xlink:href="_player_peer_8h.html" target="_top" xlink:title="PlayerPeer.h">
<polygon fill="none" stroke="black" points="1530.5,-59 1530.5,-79 1601.5,-79 1601.5,-59 1530.5,-59"/>
<text text-anchor="middle" x="1566" y="-66" font-family="FreeSans" font-size="10.00">PlayerPeer.h</text>
</a>
</g>
<!-- Node1&#45;&gt;Node23 -->
<g id="edge66" class="edge"><title>Node1&#45;&gt;Node23</title>
<path fill="none" stroke="midnightblue" d="M876.917,-123.674C1007.87,-113.284 1407.89,-81.5446 1530.14,-71.8455"/>
<polygon fill="midnightblue" stroke="midnightblue" points="876.572,-120.19 866.88,-124.471 877.126,-127.169 876.572,-120.19"/>
</g>
<!-- Node26 -->
<g id="node66" class="node"><title>Node26</title>
<a xlink:href="_handlers_8cpp.html" target="_top" xlink:title="Handlers.cpp">
<polygon fill="none" stroke="black" points="1619,-59 1619,-79 1693,-79 1693,-59 1619,-59"/>
<text text-anchor="middle" x="1656" y="-66" font-family="FreeSans" font-size="10.00">Handlers.cpp</text>
</a>
</g>
<!-- Node1&#45;&gt;Node26 -->
<g id="edge80" class="edge"><title>Node1&#45;&gt;Node26</title>
<path fill="none" stroke="midnightblue" d="M876.956,-125.421C1016.85,-120.004 1466.57,-101.332 1610,-80 1612.92,-79.5651 1615.94,-79.035 1618.95,-78.4451"/>
<polygon fill="midnightblue" stroke="midnightblue" points="876.523,-121.935 866.665,-125.817 876.792,-128.93 876.523,-121.935"/>
</g>
<!-- Node3 -->
<g id="node5" class="node"><title>Node3</title>
<a xlink:href="_client_app_8cpp.html" target="_top" xlink:title="ClientApp.cpp">
<polygon fill="none" stroke="black" points="383.5,-1 383.5,-21 460.5,-21 460.5,-1 383.5,-1"/>
<text text-anchor="middle" x="422" y="-8" font-family="FreeSans" font-size="10.00">ClientApp.cpp</text>
</a>
</g>
<!-- Node2&#45;&gt;Node3 -->
<g id="edge4" class="edge"><title>Node2&#45;&gt;Node3</title>
<path fill="none" stroke="midnightblue" d="M404.745,-49.4928C408.963,-40.0829 413.853,-29.1742 417.348,-21.3776"/>
<polygon fill="midnightblue" stroke="midnightblue" points="401.426,-48.3404 400.529,-58.8972 407.813,-51.2038 401.426,-48.3404"/>
</g>
<!-- Node4 -->
<g id="node7" class="node"><title>Node4</title>
<a xlink:href="_client_script_core_8cpp.html" target="_top" xlink:title="ClientScriptCore.cpp">
<polygon fill="none" stroke="black" points="477.5,-1 477.5,-21 582.5,-21 582.5,-1 477.5,-1"/>
<text text-anchor="middle" x="530" y="-8" font-family="FreeSans" font-size="10.00">ClientScriptCore.cpp</text>
</a>
</g>
<!-- Node2&#45;&gt;Node4 -->
<g id="edge6" class="edge"><title>Node2&#45;&gt;Node4</title>
<path fill="none" stroke="midnightblue" d="M428.777,-54.813C452.832,-44.4012 484.932,-30.5069 506.477,-21.1817"/>
<polygon fill="midnightblue" stroke="midnightblue" points="427.128,-51.7129 419.341,-58.8972 429.909,-58.1369 427.128,-51.7129"/>
</g>
<!-- Node5 -->
<g id="node9" class="node"><title>Node5</title>
<a xlink:href="_debug_peer_8cpp.html" target="_top" xlink:title="DebugPeer.cpp">
<polygon fill="none" stroke="black" points="283.5,-1 283.5,-21 366.5,-21 366.5,-1 283.5,-1"/>
<text text-anchor="middle" x="325" y="-8" font-family="FreeSans" font-size="10.00">DebugPeer.cpp</text>
</a>
</g>
<!-- Node2&#45;&gt;Node5 -->
<g id="edge8" class="edge"><title>Node2&#45;&gt;Node5</title>
<path fill="none" stroke="midnightblue" d="M375.728,-52.4396C363.486,-42.4391 348.263,-30.0036 337.704,-21.3776"/>
<polygon fill="midnightblue" stroke="midnightblue" points="373.674,-55.2813 383.633,-58.8972 378.103,-49.8601 373.674,-55.2813"/>
</g>
<!-- Node6 -->
<g id="node11" class="node"><title>Node6</title>
<a xlink:href="_sys_console_8cpp.html" target="_top" xlink:title="SysConsole.cpp">
<polygon fill="none" stroke="black" points="94,-1 94,-21 180,-21 180,-1 94,-1"/>
<text text-anchor="middle" x="137" y="-8" font-family="FreeSans" font-size="10.00">SysConsole.cpp</text>
</a>
</g>
<!-- Node2&#45;&gt;Node6 -->
<g id="edge10" class="edge"><title>Node2&#45;&gt;Node6</title>
<path fill="none" stroke="midnightblue" d="M350.152,-58.7329C302.055,-47.9621 227.045,-31.1646 180.032,-20.6365"/>
<polygon fill="midnightblue" stroke="midnightblue" points="349.464,-62.1654 359.987,-60.9353 350.994,-55.3346 349.464,-62.1654"/>
</g>
<!-- Node7 -->
<g id="node13" class="node"><title>Node7</title>
<a xlink:href="_sys_env_8cpp.html" target="_top" xlink:title="SysEnv.cpp">
<polygon fill="none" stroke="black" points="198,-1 198,-21 266,-21 266,-1 198,-1"/>
<text text-anchor="middle" x="232" y="-8" font-family="FreeSans" font-size="10.00">SysEnv.cpp</text>
</a>
</g>
<!-- Node2&#45;&gt;Node7 -->
<g id="edge12" class="edge"><title>Node2&#45;&gt;Node7</title>
<path fill="none" stroke="midnightblue" d="M357.802,-55.491C328.068,-44.9752 287.458,-30.6131 260.514,-21.0842"/>
<polygon fill="midnightblue" stroke="midnightblue" points="356.839,-58.8626 367.433,-58.8972 359.173,-52.2632 356.839,-58.8626"/>
</g>
<!-- Node8&#45;&gt;Node3 -->
<g id="edge16" class="edge"><title>Node8&#45;&gt;Node3</title>
<path fill="none" stroke="midnightblue" d="M502.281,-54.1138C483.05,-43.7859 457.937,-30.2996 440.959,-21.1817"/>
<polygon fill="midnightblue" stroke="midnightblue" points="500.722,-57.2493 511.188,-58.8972 504.034,-51.0824 500.722,-57.2493"/>
</g>
<!-- Node8&#45;&gt;Node4 -->
<g id="edge20" class="edge"><title>Node8&#45;&gt;Node4</title>
<path fill="none" stroke="midnightblue" d="M530,-48.8902C530,-39.6201 530,-29.0083 530,-21.3776"/>
<polygon fill="midnightblue" stroke="midnightblue" points="526.5,-48.8971 530,-58.8972 533.5,-48.8972 526.5,-48.8971"/>
</g>
<!-- Node8&#45;&gt;Node6 -->
<g id="edge24" class="edge"><title>Node8&#45;&gt;Node6</title>
<path fill="none" stroke="midnightblue" d="M484.206,-63.1019C404.817,-52.8075 244.779,-31.7309 189,-22 186.091,-21.4925 183.097,-20.9401 180.084,-20.3618"/>
<polygon fill="midnightblue" stroke="midnightblue" points="484.029,-66.608 494.395,-64.4213 484.928,-59.666 484.029,-66.608"/>
</g>
<!-- Node8&#45;&gt;Node7 -->
<g id="edge26" class="edge"><title>Node8&#45;&gt;Node7</title>
<path fill="none" stroke="midnightblue" d="M484.294,-61.5422C433.117,-52.9678 347.806,-38.0024 275,-22 272.14,-21.3714 269.182,-20.6871 266.217,-19.9774"/>
<polygon fill="midnightblue" stroke="midnightblue" points="483.93,-65.0299 494.369,-63.2217 485.081,-58.1251 483.93,-65.0299"/>
</g>
<!-- Node9 -->
<g id="node18" class="node"><title>Node9</title>
<a xlink:href="_game_scene_8cpp.html" target="_top" xlink:title="GameScene.cpp">
<polygon fill="none" stroke="black" points="1417.5,-1 1417.5,-21 1506.5,-21 1506.5,-1 1417.5,-1"/>
<text text-anchor="middle" x="1462" y="-8" font-family="FreeSans" font-size="10.00">GameScene.cpp</text>
</a>
</g>
<!-- Node8&#45;&gt;Node9 -->
<g id="edge18" class="edge"><title>Node8&#45;&gt;Node9</title>
<path fill="none" stroke="midnightblue" d="M576.139,-67.4561C733.068,-62.0602 1245.48,-43.2167 1409,-22 1411.7,-21.6493 1414.47,-21.237 1417.26,-20.7813"/>
<polygon fill="midnightblue" stroke="midnightblue" points="575.768,-63.9666 565.893,-67.8066 576.007,-70.9625 575.768,-63.9666"/>
</g>
<!-- Node10 -->
<g id="node21" class="node"><title>Node10</title>
<a xlink:href="_game_peer_8cpp.html" target="_top" xlink:title="GamePeer.cpp">
<polygon fill="none" stroke="black" points="599.5,-1 599.5,-21 680.5,-21 680.5,-1 599.5,-1"/>
<text text-anchor="middle" x="640" y="-8" font-family="FreeSans" font-size="10.00">GamePeer.cpp</text>
</a>
</g>
<!-- Node8&#45;&gt;Node10 -->
<g id="edge22" class="edge"><title>Node8&#45;&gt;Node10</title>
<path fill="none" stroke="midnightblue" d="M558.232,-54.1138C577.82,-43.7859 603.397,-30.2996 620.69,-21.1817"/>
<polygon fill="midnightblue" stroke="midnightblue" points="556.374,-51.137 549.161,-58.8972 559.639,-57.329 556.374,-51.137"/>
</g>
<!-- Node11&#45;&gt;Node3 -->
<g id="edge30" class="edge"><title>Node11&#45;&gt;Node3</title>
<path fill="none" stroke="midnightblue" d="M296.198,-55.491C325.932,-44.9752 366.542,-30.6131 393.486,-21.0842"/>
<polygon fill="midnightblue" stroke="midnightblue" points="294.827,-52.2632 286.567,-58.8972 297.161,-58.8626 294.827,-52.2632"/>
</g>
<!-- Node11&#45;&gt;Node4 -->
<g id="edge32" class="edge"><title>Node11&#45;&gt;Node4</title>
<path fill="none" stroke="midnightblue" d="M301.165,-59.7957C350.768,-49.2185 431.893,-31.92 483.04,-21.0135"/>
<polygon fill="midnightblue" stroke="midnightblue" points="300.131,-56.4375 291.081,-61.946 301.591,-63.2835 300.131,-56.4375"/>
</g>
<!-- Node11&#45;&gt;Node6 -->
<g id="edge36" class="edge"><title>Node11&#45;&gt;Node6</title>
<path fill="none" stroke="midnightblue" d="M227.822,-54.5345C206.167,-44.1545 177.522,-30.424 158.241,-21.1817"/>
<polygon fill="midnightblue" stroke="midnightblue" points="226.393,-57.7308 236.923,-58.8972 229.419,-51.4185 226.393,-57.7308"/>
</g>
<!-- Node11&#45;&gt;Node7 -->
<g id="edge38" class="edge"><title>Node11&#45;&gt;Node7</title>
<path fill="none" stroke="midnightblue" d="M249.255,-49.4928C245.037,-40.0829 240.147,-29.1742 236.652,-21.3776"/>
<polygon fill="midnightblue" stroke="midnightblue" points="246.187,-51.2038 253.471,-58.8972 252.574,-48.3404 246.187,-51.2038"/>
</g>
<!-- Node12 -->
<g id="node29" class="node"><title>Node12</title>
<a xlink:href="_input_peer_8cpp.html" target="_top" xlink:title="InputPeer.cpp">
<polygon fill="none" stroke="black" points="-0.5,-1 -0.5,-21 76.5,-21 76.5,-1 -0.5,-1"/>
<text text-anchor="middle" x="38" y="-8" font-family="FreeSans" font-size="10.00">InputPeer.cpp</text>
</a>
</g>
<!-- Node11&#45;&gt;Node12 -->
<g id="edge34" class="edge"><title>Node11&#45;&gt;Node12</title>
<path fill="none" stroke="midnightblue" d="M214.769,-57.6027C174.423,-46.966 114.799,-31.247 76.1719,-21.0635"/>
<polygon fill="midnightblue" stroke="midnightblue" points="214.025,-61.0261 224.587,-60.191 215.809,-54.2574 214.025,-61.0261"/>
</g>
<!-- Node13&#45;&gt;Node3 -->
<g id="edge42" class="edge"><title>Node13&#45;&gt;Node3</title>
<path fill="none" stroke="midnightblue" d="M1097.28,-68.3731C990.669,-66.2966 704.508,-57.5736 469,-22 466.266,-21.587 463.455,-21.0976 460.634,-20.5585"/>
<polygon fill="midnightblue" stroke="midnightblue" points="1097.26,-71.8732 1107.33,-68.5592 1097.39,-64.8744 1097.26,-71.8732"/>
</g>
<!-- Node13&#45;&gt;Node9 -->
<g id="edge46" class="edge"><title>Node13&#45;&gt;Node9</title>
<path fill="none" stroke="midnightblue" d="M1182.85,-61.9433C1236,-53.0922 1329.33,-37.2241 1409,-22 1411.77,-21.4709 1414.62,-20.9147 1417.49,-20.3451"/>
<polygon fill="midnightblue" stroke="midnightblue" points="1182.06,-58.5258 1172.77,-63.6177 1183.21,-65.4312 1182.06,-58.5258"/>
</g>
<!-- Node13&#45;&gt;Node10 -->
<g id="edge60" class="edge"><title>Node13&#45;&gt;Node10</title>
<path fill="none" stroke="midnightblue" d="M1097.05,-66.2056C1016.61,-60.5993 837.885,-46.3836 689,-22 686.247,-21.5491 683.416,-21.039 680.571,-20.4916"/>
<polygon fill="midnightblue" stroke="midnightblue" points="1097.07,-69.7147 1107.28,-66.9088 1097.55,-62.7312 1097.07,-69.7147"/>
</g>
<!-- Node14 -->
<g id="node36" class="node"><title>Node14</title>
<a xlink:href="_demo_game_scene_8cpp.html" target="_top" xlink:title="DemoGameScene.cpp">
<polygon fill="none" stroke="black" points="698,-1 698,-21 812,-21 812,-1 698,-1"/>
<text text-anchor="middle" x="755" y="-8" font-family="FreeSans" font-size="10.00">DemoGameScene.cpp</text>
</a>
</g>
<!-- Node13&#45;&gt;Node14 -->
<g id="edge44" class="edge"><title>Node13&#45;&gt;Node14</title>
<path fill="none" stroke="midnightblue" d="M1097.3,-62.9705C1036.07,-54.2641 919.806,-37.5112 821,-22 818.131,-21.5496 815.193,-21.0823 812.227,-20.6056"/>
<polygon fill="midnightblue" stroke="midnightblue" points="1096.97,-66.4583 1107.36,-64.3989 1097.96,-59.5278 1096.97,-66.4583"/>
</g>
<!-- Node15 -->
<g id="node39" class="node"><title>Node15</title>
<a xlink:href="_game_select_scene_8cpp.html" target="_top" xlink:title="GameSelectScene.cpp">
<polygon fill="none" stroke="black" points="830,-1 830,-21 946,-21 946,-1 830,-1"/>
<text text-anchor="middle" x="888" y="-8" font-family="FreeSans" font-size="10.00">GameSelectScene.cpp</text>
</a>
</g>
<!-- Node13&#45;&gt;Node15 -->
<g id="edge48" class="edge"><title>Node13&#45;&gt;Node15</title>
<path fill="none" stroke="midnightblue" d="M1097.34,-59.1808C1051.22,-48.567 978.105,-31.7385 931.62,-21.0396"/>
<polygon fill="midnightblue" stroke="midnightblue" points="1096.78,-62.6448 1107.31,-61.477 1098.35,-55.8231 1096.78,-62.6448"/>
</g>
<!-- Node16 -->
<g id="node41" class="node"><title>Node16</title>
<a xlink:href="_main_menu_scene_8cpp.html" target="_top" xlink:title="MainMenuScene.cpp">
<polygon fill="none" stroke="black" points="963.5,-1 963.5,-21 1070.5,-21 1070.5,-1 963.5,-1"/>
<text text-anchor="middle" x="1017" y="-8" font-family="FreeSans" font-size="10.00">MainMenuScene.cpp</text>
</a>
</g>
<!-- Node13&#45;&gt;Node16 -->
<g id="edge50" class="edge"><title>Node13&#45;&gt;Node16</title>
<path fill="none" stroke="midnightblue" d="M1109.32,-54.5345C1087.31,-44.1545 1058.19,-30.424 1038.59,-21.1817"/>
<polygon fill="midnightblue" stroke="midnightblue" points="1108.04,-57.7978 1118.58,-58.8972 1111.02,-51.4664 1108.04,-57.7978"/>
</g>
<!-- Node17 -->
<g id="node43" class="node"><title>Node17</title>
<a xlink:href="_rulebook_8cpp.html" target="_top" xlink:title="Rulebook.cpp">
<polygon fill="none" stroke="black" points="1633.5,-1 1633.5,-21 1708.5,-21 1708.5,-1 1633.5,-1"/>
<text text-anchor="middle" x="1671" y="-8" font-family="FreeSans" font-size="10.00">Rulebook.cpp</text>
</a>
</g>
<!-- Node13&#45;&gt;Node17 -->
<g id="edge52" class="edge"><title>Node13&#45;&gt;Node17</title>
<path fill="none" stroke="midnightblue" d="M1182.57,-66.8558C1267.28,-62.1529 1462.8,-49.1186 1625,-22 1627.75,-21.5396 1630.59,-21.0075 1633.43,-20.4308"/>
<polygon fill="midnightblue" stroke="midnightblue" points="1182.35,-63.3623 1172.56,-67.4012 1182.73,-70.352 1182.35,-63.3623"/>
</g>
<!-- Node18 -->
<g id="node45" class="node"><title>Node18</title>
<a xlink:href="_rulebook_library_8cpp.html" target="_top" xlink:title="RulebookLibrary.cpp">
<polygon fill="none" stroke="black" points="1088,-1 1088,-21 1192,-21 1192,-1 1088,-1"/>
<text text-anchor="middle" x="1140" y="-8" font-family="FreeSans" font-size="10.00">RulebookLibrary.cpp</text>
</a>
</g>
<!-- Node13&#45;&gt;Node18 -->
<g id="edge54" class="edge"><title>Node13&#45;&gt;Node18</title>
<path fill="none" stroke="midnightblue" d="M1140,-48.8902C1140,-39.6201 1140,-29.0083 1140,-21.3776"/>
<polygon fill="midnightblue" stroke="midnightblue" points="1136.5,-48.8971 1140,-58.8972 1143.5,-48.8972 1136.5,-48.8971"/>
</g>
<!-- Node19 -->
<g id="node47" class="node"><title>Node19</title>
<a xlink:href="_rules_8cpp.html" target="_top" xlink:title="Rules.cpp">
<polygon fill="none" stroke="black" points="1209.5,-1 1209.5,-21 1268.5,-21 1268.5,-1 1209.5,-1"/>
<text text-anchor="middle" x="1239" y="-8" font-family="FreeSans" font-size="10.00">Rules.cpp</text>
</a>
</g>
<!-- Node13&#45;&gt;Node19 -->
<g id="edge56" class="edge"><title>Node13&#45;&gt;Node19</title>
<path fill="none" stroke="midnightblue" d="M1165.89,-53.8314C1183.46,-43.5411 1206.2,-30.2168 1221.62,-21.1817"/>
<polygon fill="midnightblue" stroke="midnightblue" points="1164.1,-50.8223 1157.24,-58.8972 1167.64,-56.8621 1164.1,-50.8223"/>
</g>
<!-- Node20 -->
<g id="node49" class="node"><title>Node20</title>
<a xlink:href="_track_select_scene_8cpp.html" target="_top" xlink:title="TrackSelectScene.cpp">
<polygon fill="none" stroke="black" points="1285.5,-1 1285.5,-21 1400.5,-21 1400.5,-1 1285.5,-1"/>
<text text-anchor="middle" x="1343" y="-8" font-family="FreeSans" font-size="10.00">TrackSelectScene.cpp</text>
</a>
</g>
<!-- Node13&#45;&gt;Node20 -->
<g id="edge58" class="edge"><title>Node13&#45;&gt;Node20</title>
<path fill="none" stroke="midnightblue" d="M1182.63,-56.8189C1219.77,-46.2097 1272.96,-31.0112 1307.74,-21.0749"/>
<polygon fill="midnightblue" stroke="midnightblue" points="1181.27,-53.5687 1172.62,-59.6813 1183.19,-60.2994 1181.27,-53.5687"/>
</g>
<!-- Node21 -->
<g id="node52" class="node"><title>Node21</title>
<a xlink:href="_rulebook_env_8cpp.html" target="_top" xlink:title="RulebookEnv.cpp">
<polygon fill="none" stroke="black" points="1524,-1 1524,-21 1616,-21 1616,-1 1524,-1"/>
<text text-anchor="middle" x="1570" y="-8" font-family="FreeSans" font-size="10.00">RulebookEnv.cpp</text>
</a>
</g>
<!-- Node13&#45;&gt;Node21 -->
<g id="edge62" class="edge"><title>Node13&#45;&gt;Node21</title>
<path fill="none" stroke="midnightblue" d="M1182.88,-64.6514C1252.7,-57.3415 1395.18,-41.4637 1515,-22 1517.88,-21.5316 1520.85,-21.0219 1523.83,-20.487"/>
<polygon fill="midnightblue" stroke="midnightblue" points="1182.3,-61.1927 1172.72,-65.7087 1183.03,-68.1552 1182.3,-61.1927"/>
</g>
<!-- Node22 -->
<g id="node54" class="node"><title>Node22</title>
<a xlink:href="_session_peer_8cpp.html" target="_top" xlink:title="SessionPeer.cpp">
<polygon fill="none" stroke="black" points="1726,-1 1726,-21 1816,-21 1816,-1 1726,-1"/>
<text text-anchor="middle" x="1771" y="-8" font-family="FreeSans" font-size="10.00">SessionPeer.cpp</text>
</a>
</g>
<!-- Node13&#45;&gt;Node22 -->
<g id="edge64" class="edge"><title>Node13&#45;&gt;Node22</title>
<path fill="none" stroke="midnightblue" d="M1182.87,-67.2648C1278.91,-62.994 1518.46,-50.2039 1717,-22 1719.94,-21.5828 1722.95,-21.1054 1725.99,-20.5884"/>
<polygon fill="midnightblue" stroke="midnightblue" points="1182.52,-63.7765 1172.69,-67.7095 1182.83,-70.7699 1182.52,-63.7765"/>
</g>
<!-- Node23&#45;&gt;Node4 -->
<g id="edge72" class="edge"><title>Node23&#45;&gt;Node4</title>
<path fill="none" stroke="midnightblue" d="M1520.23,-67.5863C1352.9,-62.2948 774.597,-42.889 591,-22 588.22,-21.6837 585.376,-21.3182 582.508,-20.9167"/>
<polygon fill="midnightblue" stroke="midnightblue" points="1520.31,-71.0907 1530.42,-67.9072 1520.54,-64.0941 1520.31,-71.0907"/>
</g>
<!-- Node23&#45;&gt;Node9 -->
<g id="edge68" class="edge"><title>Node23&#45;&gt;Node9</title>
<path fill="none" stroke="midnightblue" d="M1539.05,-53.9728C1520.57,-43.6634 1496.53,-30.2582 1480.26,-21.1817"/>
<polygon fill="midnightblue" stroke="midnightblue" points="1537.45,-57.0832 1547.88,-58.8972 1540.86,-50.9697 1537.45,-57.0832"/>
</g>
<!-- Node23&#45;&gt;Node17 -->
<g id="edge70" class="edge"><title>Node23&#45;&gt;Node17</title>
<path fill="none" stroke="midnightblue" d="M1593.2,-53.9728C1611.87,-43.6634 1636.14,-30.2582 1652.57,-21.1817"/>
<polygon fill="midnightblue" stroke="midnightblue" points="1591.35,-50.9983 1584.29,-58.8972 1594.74,-57.1256 1591.35,-50.9983"/>
</g>
<!-- Node23&#45;&gt;Node22 -->
<g id="edge78" class="edge"><title>Node23&#45;&gt;Node22</title>
<path fill="none" stroke="midnightblue" d="M1611.34,-56.1712C1648.7,-45.602 1700.95,-30.8202 1735.36,-21.0842"/>
<polygon fill="midnightblue" stroke="midnightblue" points="1610.38,-52.8069 1601.71,-58.8972 1612.28,-59.5425 1610.38,-52.8069"/>
</g>
<!-- Node24 -->
<g id="node61" class="node"><title>Node24</title>
<a xlink:href="_meta_player_8cpp.html" target="_top" xlink:title="MetaPlayer.cpp">
<polygon fill="none" stroke="black" points="1933.5,-1 1933.5,-21 2016.5,-21 2016.5,-1 1933.5,-1"/>
<text text-anchor="middle" x="1975" y="-8" font-family="FreeSans" font-size="10.00">MetaPlayer.cpp</text>
</a>
</g>
<!-- Node23&#45;&gt;Node24 -->
<g id="edge74" class="edge"><title>Node23&#45;&gt;Node24</title>
<path fill="none" stroke="midnightblue" d="M1612.07,-57.7907C1750.46,-33.4155 1789.26,-44.6258 1925,-22 1927.72,-21.547 1930.51,-21.0424 1933.32,-20.5053"/>
<polygon fill="midnightblue" stroke="midnightblue" points="1611.16,-54.3985 1601.93,-59.6082 1612.4,-61.2887 1611.16,-54.3985"/>
</g>
<!-- Node25 -->
<g id="node63" class="node"><title>Node25</title>
<a xlink:href="_player_peer_8cpp.html" target="_top" xlink:title="PlayerPeer.cpp">
<polygon fill="none" stroke="black" points="1834,-1 1834,-21 1916,-21 1916,-1 1834,-1"/>
<text text-anchor="middle" x="1875" y="-8" font-family="FreeSans" font-size="10.00">PlayerPeer.cpp</text>
</a>
</g>
<!-- Node23&#45;&gt;Node25 -->
<g id="edge76" class="edge"><title>Node23&#45;&gt;Node25</title>
<path fill="none" stroke="midnightblue" d="M1611.96,-57.6951C1706.59,-38.3574 1733.04,-39.803 1825,-22 1827.88,-21.4425 1830.85,-20.846 1833.83,-20.2297"/>
<polygon fill="midnightblue" stroke="midnightblue" points="1611.05,-54.3097 1601.97,-59.7627 1612.47,-61.1646 1611.05,-54.3097"/>
</g>
</g>
</svg>
        <g id="navigator" transform="translate(0 0)" fill="#404254">
                <rect fill="#f2f5e9" fill-opacity="0.5" stroke="#606060" stroke-width=".5" x="0" y="0" width="60" height="60"/>
                <use id="zoomplus" xlink:href="#zoomPlus" x="17" y="9" onmousedown="handleZoom(evt,'in')"/>
                <use id="zoomminus" xlink:href="#zoomMin" x="42" y="9" onmousedown="handleZoom(evt,'out')"/>
                <use id="reset" xlink:href="#resetDef" x="30" y="36" onmousedown="handleReset()"/>
                <g id="arrowUp" xlink:href="#dirArrow" transform="translate(30 24)" onmousedown="handlePan(0,-1)">
                  <use xlink:href="#rim" fill="#404040">
                        <set attributeName="fill" to="#808080" begin="arrowUp.mouseover" end="arrowUp.mouseout"/>
                  </use>
                  <path fill="none" stroke="white" stroke-width="1.5" d="M0,-3.0v7 M-2.5,-0.5L0,-3.0L2.5,-0.5"/>
                </g>
                <g id="arrowRight" xlink:href="#dirArrow" transform="rotate(90) translate(36 -43)" onmousedown="handlePan(1,0)">
                  <use xlink:href="#rim" fill="#404040">
                        <set attributeName="fill" to="#808080" begin="arrowRight.mouseover" end="arrowRight.mouseout"/>
                  </use>
                  <path fill="none" stroke="white" stroke-width="1.5" d="M0,-3.0v7 M-2.5,-0.5L0,-3.0L2.5,-0.5"/>
                </g>
                <g id="arrowDown" xlink:href="#dirArrow" transform="rotate(180) translate(-30 -48)" onmousedown="handlePan(0,1)">
                  <use xlink:href="#rim" fill="#404040">
                        <set attributeName="fill" to="#808080" begin="arrowDown.mouseover" end="arrowDown.mouseout"/>
                  </use>
                  <path fill="none" stroke="white" stroke-width="1.5" d="M0,-3.0v7 M-2.5,-0.5L0,-3.0L2.5,-0.5"/>
                </g>
                <g id="arrowLeft" xlink:href="#dirArrow" transform="rotate(270) translate(-36 17)" onmousedown="handlePan(-1,0)">
                  <use xlink:href="#rim" fill="#404040">
                        <set attributeName="fill" to="#808080" begin="arrowLeft.mouseover" end="arrowLeft.mouseout"/>
                  </use>
                  <path fill="none" stroke="white" stroke-width="1.5" d="M0,-3.0v7 M-2.5,-0.5L0,-3.0L2.5,-0.5"/>
                </g>
        </g>
        <svg viewBox="0 0 15 15" width="100%" height="30px" preserveAspectRatio="xMaxYMin meet">
         <g id="arrow_out" transform="scale(0.3 0.3)">
          <a xlink:href="_handlers_8h__dep__incl_org.svg" target="_base">
           <rect id="button" ry="5" rx="5" y="6" x="6" height="38" width="38"
                fill="#f2f5e9" fill-opacity="0.5" stroke="#606060" stroke-width="1.0"/>
           <path id="arrow"
             d="M 11.500037,31.436501 C 11.940474,20.09759 22.043105,11.32322 32.158766,21.979434 L 37.068811,17.246167 C 37.068811,17.246167 37.088388,32 37.088388,32 L 22.160133,31.978069 C 22.160133,31.978069 26.997745,27.140456 26.997745,27.140456 C 18.528582,18.264221 13.291696,25.230495 11.500037,31.436501 z"
             style="fill:#404040;"/>
          </a>
         </g>
        </svg>
</svg>
