<?xml version="1.0" encoding="UTF-8" standalone="no"?>
<!DOCTYPE svg PUBLIC "-//W3C//DTD SVG 1.1//EN"
 "http://www.w3.org/Graphics/SVG/1.1/DTD/svg11.dtd">
<!-- Generated by graphviz version 2.26.3 (20100126.1600)
 -->
<!-- Title: Handlers.h Pages: 1 -->
<!--zoomable 146 -->
<svg id="main" version="1.1" xmlns="http://www.w3.org/2000/svg" xmlns:xlink="http://www.w3.org/1999/xlink" xml:space="preserve" onload="init(evt)">
<style type="text/css"><![CDATA[
.edge:hover path { stroke: red; }
.edge:hover polygon { stroke: red; fill: red; }
]]></style>
<script type="text/javascript"><![CDATA[
var edges = document.getElementsByTagName('g');
if (edges && edges.length) {
  for (var i=0;i<edges.length;i++) {
    if (edges[i].id.substr(0,4)=='edge') {
      edges[i].setAttribute('class','edge');
    }
  }
}
]]></script>
        <defs>
                <circle id="rim" cx="0" cy="0" r="7"/>
                <circle id="rim2" cx="0" cy="0" r="3.5"/>
                <g id="zoomPlus">
                        <use xlink:href="#rim" fill="#404040">
                                <set attributeName="fill" to="#808080" begin="zoomplus.mouseover" end="zoomplus.mouseout"/>
                        </use>
                        <path d="M-4,0h8M0,-4v8" fill="none" stroke="white" stroke-width="1.5" pointer-events="none"/>
                </g>
                <g id="zoomMin">
                        <use xlink:href="#rim" fill="#404040">
                                <set attributeName="fill" to="#808080" begin="zoomminus.mouseover" end="zoomminus.mouseout"/>
                        </use>
                        <path d="M-4,0h8" fill="none" stroke="white" stroke-width="1.5" pointer-events="none"/>
                </g>
                <g id="dirArrow">
                        <path fill="none" stroke="white" stroke-width="1.5" d="M0,-3.0v7 M-2.5,-0.5L0,-3.0L2.5,-0.5"/>
                </g>
               <g id="resetDef">
                       <use xlink:href="#rim2" fill="#404040">
                               <set attributeName="fill" to="#808080" begin="reset.mouseover" end="reset.mouseout"/>
                       </use>
               </g>
        </defs>

<script type="text/javascript">
var viewWidth = 1892;
var viewHeight = 146;
var sectionId = 'dynsection-1';
</script>
<script xlink:href="svgpan.js"/>
<svg id="graph" class="graph">
<g id="viewport">
<title>Handlers.h</title>
<!-- Node1 -->
<g id="node1" class="node"><title>Node1</title>
<polygon fill="#bfbfbf" stroke="black" points="701.5,-117 701.5,-137 764.5,-137 764.5,-117 701.5,-117"/>
<text text-anchor="middle" x="733" y="-124" font-family="FreeSans" font-size="10.00">Handlers.h</text>
</g>
<!-- Node2 -->
<g id="node3" class="node"><title>Node2</title>
<a xlink:href="_debug_peer_8h.html" target="_top" xlink:title="DebugPeer.h">
<polygon fill="none" stroke="black" points="360,-59 360,-79 432,-79 432,-59 360,-59"/>
<text text-anchor="middle" x="396" y="-66" font-family="FreeSans" font-size="10.00">DebugPeer.h</text>
</a>
</g>
<!-- Node1&#45;&gt;Node2 -->
<g id="edge2" class="edge"><title>Node1&#45;&gt;Node2</title>
<path fill="none" stroke="midnightblue" d="M691.146,-119.797C624.432,-108.315 495.106,-86.0567 432.164,-75.2241"/>
<polygon fill="midnightblue" stroke="midnightblue" points="690.847,-123.297 701.296,-121.544 692.034,-116.398 690.847,-123.297"/>
</g>
<!-- Node8 -->
<g id="node15" class="node"><title>Node8</title>
<a xlink:href="_game_peer_8h.html" target="_top" xlink:title="GamePeer.h">
<polygon fill="none" stroke="black" points="494.5,-59 494.5,-79 565.5,-79 565.5,-59 494.5,-59"/>
<text text-anchor="middle" x="530" y="-66" font-family="FreeSans" font-size="10.00">GamePeer.h</text>
</a>
</g>
<!-- Node1&#45;&gt;Node8 -->
<g id="edge14" class="edge"><title>Node1&#45;&gt;Node8</title>
<path fill="none" stroke="midnightblue" d="M691.266,-115.076C654.091,-104.455 600.303,-89.0865 565.244,-79.0697"/>
<polygon fill="midnightblue" stroke="midnightblue" points="690.704,-118.556 701.281,-117.938 692.628,-111.825 690.704,-118.556"/>
</g>
<!-- Node11 -->
<g id="node25" class="node"><title>Node11</title>
<a xlink:href="_input_peer_8h.html" target="_top" xlink:title="InputPeer.h">
<polygon fill="none" stroke="black" points="225,-59 225,-79 291,-79 291,-59 225,-59"/>
<text text-anchor="middle" x="258" y="-66" font-family="FreeSans" font-size="10.00">InputPeer.h</text>
</a>
</g>
<!-- Node1&#45;&gt;Node11 -->
<g id="edge28" class="edge"><title>Node1&#45;&gt;Node11</title>
<path fill="none" stroke="midnightblue" d="M691.307,-121.909C598.299,-110.552 375.428,-83.3386 291.093,-73.0408"/>
<polygon fill="midnightblue" stroke="midnightblue" points="691.116,-125.412 701.466,-123.15 691.964,-118.463 691.116,-125.412"/>
</g>
<!-- Node13 -->
<g id="node33" class="node"><title>Node13</title>
<a xlink:href="_rulebook_8h.html" target="_top" xlink:title="Rulebook.h">
<polygon fill="none" stroke="black" points="964.5,-59 964.5,-79 1029.5,-79 1029.5,-59 964.5,-59"/>
<text text-anchor="middle" x="997" y="-66" font-family="FreeSans" font-size="10.00">Rulebook.h</text>
</a>
</g>
<!-- Node1&#45;&gt;Node13 -->
<g id="edge40" class="edge"><title>Node1&#45;&gt;Node13</title>
<path fill="none" stroke="midnightblue" d="M774.561,-117.869C827.019,-106.344 916.178,-86.7564 964.14,-76.2193"/>
<polygon fill="midnightblue" stroke="midnightblue" points="773.598,-114.497 764.582,-120.061 775.1,-121.334 773.598,-114.497"/>
</g>
<!-- Node22 -->
<g id="node54" class="node"><title>Node22</title>
<a xlink:href="_player_peer_8h.html" target="_top" xlink:title="PlayerPeer.h">
<polygon fill="none" stroke="black" points="1308.5,-59 1308.5,-79 1379.5,-79 1379.5,-59 1308.5,-59"/>
<text text-anchor="middle" x="1344" y="-66" font-family="FreeSans" font-size="10.00">PlayerPeer.h</text>
</a>
</g>
<!-- Node1&#45;&gt;Node22 -->
<g id="edge64" class="edge"><title>Node1&#45;&gt;Node22</title>
<path fill="none" stroke="midnightblue" d="M774.607,-123.05C888.239,-112.264 1202.42,-82.4398 1308.49,-72.3708"/>
<polygon fill="midnightblue" stroke="midnightblue" points="774.188,-119.574 764.563,-124.004 774.849,-126.543 774.188,-119.574"/>
</g>
<!-- Node25 -->
<g id="node64" class="node"><title>Node25</title>
<a xlink:href="_handlers_8cpp.html" target="_top" xlink:title="Handlers.cpp">
<polygon fill="none" stroke="black" points="1397,-59 1397,-79 1471,-79 1471,-59 1397,-59"/>
<text text-anchor="middle" x="1434" y="-66" font-family="FreeSans" font-size="10.00">Handlers.cpp</text>
</a>
</g>
<!-- Node1&#45;&gt;Node25 -->
<g id="edge78" class="edge"><title>Node1&#45;&gt;Node25</title>
<path fill="none" stroke="midnightblue" d="M774.654,-126.362C878.707,-124.261 1158.15,-115.485 1388,-80 1390.92,-79.549 1393.93,-79.0073 1396.95,-78.4093"/>
<polygon fill="midnightblue" stroke="midnightblue" points="774.495,-122.865 764.564,-126.556 774.629,-129.863 774.495,-122.865"/>
</g>
<!-- Node3 -->
<g id="node5" class="node"><title>Node3</title>
<a xlink:href="_client_app_8cpp.html" target="_top" xlink:title="ClientApp.cpp">
<polygon fill="none" stroke="black" points="383.5,-1 383.5,-21 460.5,-21 460.5,-1 383.5,-1"/>
<text text-anchor="middle" x="422" y="-8" font-family="FreeSans" font-size="10.00">ClientApp.cpp</text>
</a>
</g>
<!-- Node2&#45;&gt;Node3 -->
<g id="edge4" class="edge"><title>Node2&#45;&gt;Node3</title>
<path fill="none" stroke="midnightblue" d="M404.745,-49.4928C408.963,-40.0829 413.853,-29.1742 417.348,-21.3776"/>
<polygon fill="midnightblue" stroke="midnightblue" points="401.426,-48.3404 400.529,-58.8972 407.813,-51.2038 401.426,-48.3404"/>
</g>
<!-- Node4 -->
<g id="node7" class="node"><title>Node4</title>
<a xlink:href="_client_script_core_8cpp.html" target="_top" xlink:title="ClientScriptCore.cpp">
<polygon fill="none" stroke="black" points="477.5,-1 477.5,-21 582.5,-21 582.5,-1 477.5,-1"/>
<text text-anchor="middle" x="530" y="-8" font-family="FreeSans" font-size="10.00">ClientScriptCore.cpp</text>
</a>
</g>
<!-- Node2&#45;&gt;Node4 -->
<g id="edge6" class="edge"><title>Node2&#45;&gt;Node4</title>
<path fill="none" stroke="midnightblue" d="M428.777,-54.813C452.832,-44.4012 484.932,-30.5069 506.477,-21.1817"/>
<polygon fill="midnightblue" stroke="midnightblue" points="427.128,-51.7129 419.341,-58.8972 429.909,-58.1369 427.128,-51.7129"/>
</g>
<!-- Node5 -->
<g id="node9" class="node"><title>Node5</title>
<a xlink:href="_debug_peer_8cpp.html" target="_top" xlink:title="DebugPeer.cpp">
<polygon fill="none" stroke="black" points="283.5,-1 283.5,-21 366.5,-21 366.5,-1 283.5,-1"/>
<text text-anchor="middle" x="325" y="-8" font-family="FreeSans" font-size="10.00">DebugPeer.cpp</text>
</a>
</g>
<!-- Node2&#45;&gt;Node5 -->
<g id="edge8" class="edge"><title>Node2&#45;&gt;Node5</title>
<path fill="none" stroke="midnightblue" d="M375.728,-52.4396C363.486,-42.4391 348.263,-30.0036 337.704,-21.3776"/>
<polygon fill="midnightblue" stroke="midnightblue" points="373.674,-55.2813 383.633,-58.8972 378.103,-49.8601 373.674,-55.2813"/>
</g>
<!-- Node6 -->
<g id="node11" class="node"><title>Node6</title>
<a xlink:href="_sys_console_8cpp.html" target="_top" xlink:title="SysConsole.cpp">
<polygon fill="none" stroke="black" points="94,-1 94,-21 180,-21 180,-1 94,-1"/>
<text text-anchor="middle" x="137" y="-8" font-family="FreeSans" font-size="10.00">SysConsole.cpp</text>
</a>
</g>
<!-- Node2&#45;&gt;Node6 -->
<g id="edge10" class="edge"><title>Node2&#45;&gt;Node6</title>
<path fill="none" stroke="midnightblue" d="M350.152,-58.7329C302.055,-47.9621 227.045,-31.1646 180.032,-20.6365"/>
<polygon fill="midnightblue" stroke="midnightblue" points="349.464,-62.1654 359.987,-60.9353 350.994,-55.3346 349.464,-62.1654"/>
</g>
<!-- Node7 -->
<g id="node13" class="node"><title>Node7</title>
<a xlink:href="_sys_env_8cpp.html" target="_top" xlink:title="SysEnv.cpp">
<polygon fill="none" stroke="black" points="198,-1 198,-21 266,-21 266,-1 198,-1"/>
<text text-anchor="middle" x="232" y="-8" font-family="FreeSans" font-size="10.00">SysEnv.cpp</text>
</a>
</g>
<!-- Node2&#45;&gt;Node7 -->
<g id="edge12" class="edge"><title>Node2&#45;&gt;Node7</title>
<path fill="none" stroke="midnightblue" d="M357.802,-55.491C328.068,-44.9752 287.458,-30.6131 260.514,-21.0842"/>
<polygon fill="midnightblue" stroke="midnightblue" points="356.839,-58.8626 367.433,-58.8972 359.173,-52.2632 356.839,-58.8626"/>
</g>
<!-- Node8&#45;&gt;Node3 -->
<g id="edge16" class="edge"><title>Node8&#45;&gt;Node3</title>
<path fill="none" stroke="midnightblue" d="M502.281,-54.1138C483.05,-43.7859 457.937,-30.2996 440.959,-21.1817"/>
<polygon fill="midnightblue" stroke="midnightblue" points="500.722,-57.2493 511.188,-58.8972 504.034,-51.0824 500.722,-57.2493"/>
</g>
<!-- Node8&#45;&gt;Node4 -->
<g id="edge20" class="edge"><title>Node8&#45;&gt;Node4</title>
<path fill="none" stroke="midnightblue" d="M530,-48.8902C530,-39.6201 530,-29.0083 530,-21.3776"/>
<polygon fill="midnightblue" stroke="midnightblue" points="526.5,-48.8971 530,-58.8972 533.5,-48.8972 526.5,-48.8971"/>
</g>
<!-- Node8&#45;&gt;Node6 -->
<g id="edge24" class="edge"><title>Node8&#45;&gt;Node6</title>
<path fill="none" stroke="midnightblue" d="M484.206,-63.1019C404.817,-52.8075 244.779,-31.7309 189,-22 186.091,-21.4925 183.097,-20.9401 180.084,-20.3618"/>
<polygon fill="midnightblue" stroke="midnightblue" points="484.029,-66.608 494.395,-64.4213 484.928,-59.666 484.029,-66.608"/>
</g>
<!-- Node8&#45;&gt;Node7 -->
<g id="edge26" class="edge"><title>Node8&#45;&gt;Node7</title>
<path fill="none" stroke="midnightblue" d="M484.294,-61.5422C433.117,-52.9678 347.806,-38.0024 275,-22 272.14,-21.3714 269.182,-20.6871 266.217,-19.9774"/>
<polygon fill="midnightblue" stroke="midnightblue" points="483.93,-65.0299 494.369,-63.2217 485.081,-58.1251 483.93,-65.0299"/>
</g>
<!-- Node9 -->
<g id="node18" class="node"><title>Node9</title>
<a xlink:href="_game_scene_8cpp.html" target="_top" xlink:title="GameScene.cpp">
<polygon fill="none" stroke="black" points="697.5,-1 697.5,-21 786.5,-21 786.5,-1 697.5,-1"/>
<text text-anchor="middle" x="742" y="-8" font-family="FreeSans" font-size="10.00">GameScene.cpp</text>
</a>
</g>
<!-- Node8&#45;&gt;Node9 -->
<g id="edge18" class="edge"><title>Node8&#45;&gt;Node9</title>
<path fill="none" stroke="midnightblue" d="M575.93,-56.4342C614.626,-45.8476 669.265,-30.8991 705.148,-21.0821"/>
<polygon fill="midnightblue" stroke="midnightblue" points="574.685,-53.1462 565.963,-59.1611 576.532,-59.8981 574.685,-53.1462"/>
</g>
<!-- Node10 -->
<g id="node21" class="node"><title>Node10</title>
<a xlink:href="_game_peer_8cpp.html" target="_top" xlink:title="GamePeer.cpp">
<polygon fill="none" stroke="black" points="599.5,-1 599.5,-21 680.5,-21 680.5,-1 599.5,-1"/>
<text text-anchor="middle" x="640" y="-8" font-family="FreeSans" font-size="10.00">GamePeer.cpp</text>
</a>
</g>
<!-- Node8&#45;&gt;Node10 -->
<g id="edge22" class="edge"><title>Node8&#45;&gt;Node10</title>
<path fill="none" stroke="midnightblue" d="M558.232,-54.1138C577.82,-43.7859 603.397,-30.2996 620.69,-21.1817"/>
<polygon fill="midnightblue" stroke="midnightblue" points="556.374,-51.137 549.161,-58.8972 559.639,-57.329 556.374,-51.137"/>
</g>
<!-- Node11&#45;&gt;Node3 -->
<g id="edge30" class="edge"><title>Node11&#45;&gt;Node3</title>
<path fill="none" stroke="midnightblue" d="M296.198,-55.491C325.932,-44.9752 366.542,-30.6131 393.486,-21.0842"/>
<polygon fill="midnightblue" stroke="midnightblue" points="294.827,-52.2632 286.567,-58.8972 297.161,-58.8626 294.827,-52.2632"/>
</g>
<!-- Node11&#45;&gt;Node4 -->
<g id="edge32" class="edge"><title>Node11&#45;&gt;Node4</title>
<path fill="none" stroke="midnightblue" d="M301.165,-59.7957C350.768,-49.2185 431.893,-31.92 483.04,-21.0135"/>
<polygon fill="midnightblue" stroke="midnightblue" points="300.131,-56.4375 291.081,-61.946 301.591,-63.2835 300.131,-56.4375"/>
</g>
<!-- Node11&#45;&gt;Node6 -->
<g id="edge36" class="edge"><title>Node11&#45;&gt;Node6</title>
<path fill="none" stroke="midnightblue" d="M227.822,-54.5345C206.167,-44.1545 177.522,-30.424 158.241,-21.1817"/>
<polygon fill="midnightblue" stroke="midnightblue" points="226.393,-57.7308 236.923,-58.8972 229.419,-51.4185 226.393,-57.7308"/>
</g>
<!-- Node11&#45;&gt;Node7 -->
<g id="edge38" class="edge"><title>Node11&#45;&gt;Node7</title>
<path fill="none" stroke="midnightblue" d="M249.255,-49.4928C245.037,-40.0829 240.147,-29.1742 236.652,-21.3776"/>
<polygon fill="midnightblue" stroke="midnightblue" points="246.187,-51.2038 253.471,-58.8972 252.574,-48.3404 246.187,-51.2038"/>
</g>
<!-- Node12 -->
<g id="node29" class="node"><title>Node12</title>
<a xlink:href="_input_peer_8cpp.html" target="_top" xlink:title="InputPeer.cpp">
<polygon fill="none" stroke="black" points="-0.5,-1 -0.5,-21 76.5,-21 76.5,-1 -0.5,-1"/>
<text text-anchor="middle" x="38" y="-8" font-family="FreeSans" font-size="10.00">InputPeer.cpp</text>
</a>
</g>
<!-- Node11&#45;&gt;Node12 -->
<g id="edge34" class="edge"><title>Node11&#45;&gt;Node12</title>
<path fill="none" stroke="midnightblue" d="M214.769,-57.6027C174.423,-46.966 114.799,-31.247 76.1719,-21.0635"/>
<polygon fill="midnightblue" stroke="midnightblue" points="214.025,-61.0261 224.587,-60.191 215.809,-54.2574 214.025,-61.0261"/>
</g>
<!-- Node13&#45;&gt;Node3 -->
<g id="edge42" class="edge"><title>Node13&#45;&gt;Node3</title>
<path fill="none" stroke="midnightblue" d="M954.249,-67.2422C864.073,-63.0858 647.957,-50.7593 469,-22 466.27,-21.5612 463.462,-21.0528 460.643,-20.4999"/>
<polygon fill="midnightblue" stroke="midnightblue" points="954.21,-70.7439 964.358,-67.698 954.526,-63.751 954.21,-70.7439"/>
</g>
<!-- Node13&#45;&gt;Node9 -->
<g id="edge44" class="edge"><title>Node13&#45;&gt;Node9</title>
<path fill="none" stroke="midnightblue" d="M954.671,-59.3723C908.125,-48.7852 833.671,-31.8506 786.339,-21.0848"/>
<polygon fill="midnightblue" stroke="midnightblue" points="953.918,-62.7902 964.445,-61.5953 955.47,-55.9646 953.918,-62.7902"/>
</g>
<!-- Node13&#45;&gt;Node10 -->
<g id="edge58" class="edge"><title>Node13&#45;&gt;Node10</title>
<path fill="none" stroke="midnightblue" d="M953.868,-63.3804C894.156,-55.3818 783.024,-39.7055 689,-22 686.258,-21.4837 683.436,-20.9246 680.597,-20.3415"/>
<polygon fill="midnightblue" stroke="midnightblue" points="953.679,-66.886 964.053,-64.7369 954.603,-59.9472 953.679,-66.886"/>
</g>
<!-- Node14 -->
<g id="node37" class="node"><title>Node14</title>
<a xlink:href="_game_select_scene_8cpp.html" target="_top" xlink:title="GameSelectScene.cpp">
<polygon fill="none" stroke="black" points="1122,-1 1122,-21 1238,-21 1238,-1 1122,-1"/>
<text text-anchor="middle" x="1180" y="-8" font-family="FreeSans" font-size="10.00">GameSelectScene.cpp</text>
</a>
</g>
<!-- Node13&#45;&gt;Node14 -->
<g id="edge46" class="edge"><title>Node13&#45;&gt;Node14</title>
<path fill="none" stroke="midnightblue" d="M1038.76,-55.7644C1072.01,-45.2254 1117.86,-30.6959 1148.18,-21.0842"/>
<polygon fill="midnightblue" stroke="midnightblue" points="1037.35,-52.5394 1028.88,-58.8972 1039.47,-59.2123 1037.35,-52.5394"/>
</g>
<!-- Node15 -->
<g id="node39" class="node"><title>Node15</title>
<a xlink:href="_main_menu_scene_8cpp.html" target="_top" xlink:title="MainMenuScene.cpp">
<polygon fill="none" stroke="black" points="1255.5,-1 1255.5,-21 1362.5,-21 1362.5,-1 1255.5,-1"/>
<text text-anchor="middle" x="1309" y="-8" font-family="FreeSans" font-size="10.00">MainMenuScene.cpp</text>
</a>
</g>
<!-- Node13&#45;&gt;Node15 -->
<g id="edge48" class="edge"><title>Node13&#45;&gt;Node15</title>
<path fill="none" stroke="midnightblue" d="M1039.45,-61.1085C1095.46,-50.696 1194.09,-32.3616 1255.25,-20.9926"/>
<polygon fill="midnightblue" stroke="midnightblue" points="1038.7,-57.6883 1029.51,-62.9571 1039.98,-64.5704 1038.7,-57.6883"/>
</g>
<!-- Node16 -->
<g id="node41" class="node"><title>Node16</title>
<a xlink:href="_rulebook_8cpp.html" target="_top" xlink:title="Rulebook.cpp">
<polygon fill="none" stroke="black" points="1609.5,-1 1609.5,-21 1684.5,-21 1684.5,-1 1609.5,-1"/>
<text text-anchor="middle" x="1647" y="-8" font-family="FreeSans" font-size="10.00">Rulebook.cpp</text>
</a>
</g>
<!-- Node13&#45;&gt;Node16 -->
<g id="edge50" class="edge"><title>Node13&#45;&gt;Node16</title>
<path fill="none" stroke="midnightblue" d="M1039.85,-67.9747C1139.1,-65.0975 1392.24,-54.8741 1601,-22 1603.76,-21.5657 1606.59,-21.0528 1609.44,-20.4897"/>
<polygon fill="midnightblue" stroke="midnightblue" points="1039.52,-64.4824 1029.62,-68.2607 1039.71,-71.4797 1039.52,-64.4824"/>
</g>
<!-- Node17 -->
<g id="node43" class="node"><title>Node17</title>
<a xlink:href="_rulebook_library_8cpp.html" target="_top" xlink:title="RulebookLibrary.cpp">
<polygon fill="none" stroke="black" points="1380,-1 1380,-21 1484,-21 1484,-1 1380,-1"/>
<text text-anchor="middle" x="1432" y="-8" font-family="FreeSans" font-size="10.00">RulebookLibrary.cpp</text>
</a>
</g>
<!-- Node13&#45;&gt;Node17 -->
<g id="edge52" class="edge"><title>Node13&#45;&gt;Node17</title>
<path fill="none" stroke="midnightblue" d="M1039.73,-64.3822C1109.3,-56.6944 1251.32,-40.2971 1371,-22 1373.87,-21.5609 1376.82,-21.092 1379.79,-20.6046"/>
<polygon fill="midnightblue" stroke="midnightblue" points="1039.16,-60.9238 1029.6,-65.4963 1039.92,-67.8818 1039.16,-60.9238"/>
</g>
<!-- Node18 -->
<g id="node45" class="node"><title>Node18</title>
<a xlink:href="_rules_8cpp.html" target="_top" xlink:title="Rules.cpp">
<polygon fill="none" stroke="black" points="803.5,-1 803.5,-21 862.5,-21 862.5,-1 803.5,-1"/>
<text text-anchor="middle" x="833" y="-8" font-family="FreeSans" font-size="10.00">Rules.cpp</text>
</a>
</g>
<!-- Node13&#45;&gt;Node18 -->
<g id="edge54" class="edge"><title>Node13&#45;&gt;Node18</title>
<path fill="none" stroke="midnightblue" d="M958.802,-55.491C929.068,-44.9752 888.458,-30.6131 861.514,-21.0842"/>
<polygon fill="midnightblue" stroke="midnightblue" points="957.839,-58.8626 968.433,-58.8972 960.173,-52.2632 957.839,-58.8626"/>
</g>
<!-- Node19 -->
<g id="node47" class="node"><title>Node19</title>
<a xlink:href="_track_select_scene_8cpp.html" target="_top" xlink:title="TrackSelectScene.cpp">
<polygon fill="none" stroke="black" points="879.5,-1 879.5,-21 994.5,-21 994.5,-1 879.5,-1"/>
<text text-anchor="middle" x="937" y="-8" font-family="FreeSans" font-size="10.00">TrackSelectScene.cpp</text>
</a>
</g>
<!-- Node13&#45;&gt;Node19 -->
<g id="edge56" class="edge"><title>Node13&#45;&gt;Node19</title>
<path fill="none" stroke="midnightblue" d="M979.269,-51.86C969.03,-41.9622 956.487,-29.8377 947.735,-21.3776"/>
<polygon fill="midnightblue" stroke="midnightblue" points="976.926,-54.4634 986.549,-58.8972 981.791,-49.4305 976.926,-54.4634"/>
</g>
<!-- Node20 -->
<g id="node50" class="node"><title>Node20</title>
<a xlink:href="_rulebook_env_8cpp.html" target="_top" xlink:title="RulebookEnv.cpp">
<polygon fill="none" stroke="black" points="1012,-1 1012,-21 1104,-21 1104,-1 1012,-1"/>
<text text-anchor="middle" x="1058" y="-8" font-family="FreeSans" font-size="10.00">RulebookEnv.cpp</text>
</a>
</g>
<!-- Node13&#45;&gt;Node20 -->
<g id="edge60" class="edge"><title>Node13&#45;&gt;Node20</title>
<path fill="none" stroke="midnightblue" d="M1015.03,-51.86C1025.44,-41.9622 1038.19,-29.8377 1047.09,-21.3776"/>
<polygon fill="midnightblue" stroke="midnightblue" points="1012.46,-49.4701 1007.63,-58.8972 1017.28,-54.543 1012.46,-49.4701"/>
</g>
<!-- Node21 -->
<g id="node52" class="node"><title>Node21</title>
<a xlink:href="_session_peer_8cpp.html" target="_top" xlink:title="SessionPeer.cpp">
<polygon fill="none" stroke="black" points="1502,-1 1502,-21 1592,-21 1592,-1 1502,-1"/>
<text text-anchor="middle" x="1547" y="-8" font-family="FreeSans" font-size="10.00">SessionPeer.cpp</text>
</a>
</g>
<!-- Node13&#45;&gt;Node21 -->
<g id="edge62" class="edge"><title>Node13&#45;&gt;Node21</title>
<path fill="none" stroke="midnightblue" d="M1039.82,-66.4839C1125.97,-61.0818 1326.28,-46.8081 1493,-22 1495.93,-21.5635 1498.95,-21.0714 1501.98,-20.5436"/>
<polygon fill="midnightblue" stroke="midnightblue" points="1039.41,-63.0024 1029.64,-67.1136 1039.84,-69.989 1039.41,-63.0024"/>
</g>
<!-- Node22&#45;&gt;Node4 -->
<g id="edge70" class="edge"><title>Node22&#45;&gt;Node4</title>
<path fill="none" stroke="midnightblue" d="M1298.1,-67.989C1180.27,-64.9925 857.653,-54.2538 591,-22 588.222,-21.664 585.38,-21.2828 582.514,-20.8691"/>
<polygon fill="midnightblue" stroke="midnightblue" points="1298.11,-71.4904 1308.2,-68.2395 1298.29,-64.4926 1298.11,-71.4904"/>
</g>
<!-- Node22&#45;&gt;Node9 -->
<g id="edge66" class="edge"><title>Node22&#45;&gt;Node9</title>
<path fill="none" stroke="midnightblue" d="M1298.1,-66.9234C1203.57,-62.2391 980.439,-49.0828 795,-22 792.303,-21.6062 789.538,-21.1604 786.753,-20.6795"/>
<polygon fill="midnightblue" stroke="midnightblue" points="1298.02,-70.4236 1308.18,-67.4147 1298.37,-63.4319 1298.02,-70.4236"/>
</g>
<!-- Node22&#45;&gt;Node16 -->
<g id="edge68" class="edge"><title>Node22&#45;&gt;Node16</title>
<path fill="none" stroke="midnightblue" d="M1389.88,-57.7116C1483.71,-38.5063 1510.05,-40.5388 1601,-22 1603.74,-21.4424 1606.56,-20.8389 1609.39,-20.2115"/>
<polygon fill="midnightblue" stroke="midnightblue" points="1389.05,-54.3093 1379.97,-59.7672 1390.47,-61.1635 1389.05,-54.3093"/>
</g>
<!-- Node22&#45;&gt;Node21 -->
<g id="edge76" class="edge"><title>Node22&#45;&gt;Node21</title>
<path fill="none" stroke="midnightblue" d="M1389.37,-56.0361C1426.33,-45.4763 1477.77,-30.7788 1511.71,-21.0842"/>
<polygon fill="midnightblue" stroke="midnightblue" points="1388.01,-52.7846 1379.36,-58.8972 1389.94,-59.5152 1388.01,-52.7846"/>
</g>
<!-- Node23 -->
<g id="node59" class="node"><title>Node23</title>
<a xlink:href="_meta_player_8cpp.html" target="_top" xlink:title="MetaPlayer.cpp">
<polygon fill="none" stroke="black" points="1701.5,-1 1701.5,-21 1784.5,-21 1784.5,-1 1701.5,-1"/>
<text text-anchor="middle" x="1743" y="-8" font-family="FreeSans" font-size="10.00">MetaPlayer.cpp</text>
</a>
</g>
<!-- Node22&#45;&gt;Node23 -->
<g id="edge72" class="edge"><title>Node22&#45;&gt;Node23</title>
<path fill="none" stroke="midnightblue" d="M1390.17,-57.7647C1524.08,-33.9286 1561.69,-44.1378 1693,-22 1695.72,-21.5419 1698.51,-21.0335 1701.32,-20.4936"/>
<polygon fill="midnightblue" stroke="midnightblue" points="1389.15,-54.3926 1379.94,-59.6192 1390.4,-61.2805 1389.15,-54.3926"/>
</g>
<!-- Node24 -->
<g id="node61" class="node"><title>Node24</title>
<a xlink:href="_player_peer_8cpp.html" target="_top" xlink:title="PlayerPeer.cpp">
<polygon fill="none" stroke="black" points="1802,-1 1802,-21 1884,-21 1884,-1 1802,-1"/>
<text text-anchor="middle" x="1843" y="-8" font-family="FreeSans" font-size="10.00">PlayerPeer.cpp</text>
</a>
</g>
<!-- Node22&#45;&gt;Node24 -->
<g id="edge74" class="edge"><title>Node22&#45;&gt;Node24</title>
<path fill="none" stroke="midnightblue" d="M1389.88,-57.8753C1567.98,-28.7541 1617.62,-48.9737 1793,-22 1795.9,-21.5541 1798.88,-21.0404 1801.88,-20.4838"/>
<polygon fill="midnightblue" stroke="midnightblue" points="1389.21,-54.4391 1379.92,-59.5334 1390.36,-61.3441 1389.21,-54.4391"/>
</g>
</g>
</svg>
        <g id="navigator" transform="translate(0 0)" fill="#404254">
                <rect fill="#f2f5e9" fill-opacity="0.5" stroke="#606060" stroke-width=".5" x="0" y="0" width="60" height="60"/>
                <use id="zoomplus" xlink:href="#zoomPlus" x="17" y="9" onmousedown="handleZoom(evt,'in')"/>
                <use id="zoomminus" xlink:href="#zoomMin" x="42" y="9" onmousedown="handleZoom(evt,'out')"/>
                <use id="reset" xlink:href="#resetDef" x="30" y="36" onmousedown="handleReset()"/>
                <g id="arrowUp" xlink:href="#dirArrow" transform="translate(30 24)" onmousedown="handlePan(0,-1)">
                  <use xlink:href="#rim" fill="#404040">
                        <set attributeName="fill" to="#808080" begin="arrowUp.mouseover" end="arrowUp.mouseout"/>
                  </use>
                  <path fill="none" stroke="white" stroke-width="1.5" d="M0,-3.0v7 M-2.5,-0.5L0,-3.0L2.5,-0.5"/>
                </g>
                <g id="arrowRight" xlink:href="#dirArrow" transform="rotate(90) translate(36 -43)" onmousedown="handlePan(1,0)">
                  <use xlink:href="#rim" fill="#404040">
                        <set attributeName="fill" to="#808080" begin="arrowRight.mouseover" end="arrowRight.mouseout"/>
                  </use>
                  <path fill="none" stroke="white" stroke-width="1.5" d="M0,-3.0v7 M-2.5,-0.5L0,-3.0L2.5,-0.5"/>
                </g>
                <g id="arrowDown" xlink:href="#dirArrow" transform="rotate(180) translate(-30 -48)" onmousedown="handlePan(0,1)">
                  <use xlink:href="#rim" fill="#404040">
                        <set attributeName="fill" to="#808080" begin="arrowDown.mouseover" end="arrowDown.mouseout"/>
                  </use>
                  <path fill="none" stroke="white" stroke-width="1.5" d="M0,-3.0v7 M-2.5,-0.5L0,-3.0L2.5,-0.5"/>
                </g>
                <g id="arrowLeft" xlink:href="#dirArrow" transform="rotate(270) translate(-36 17)" onmousedown="handlePan(-1,0)">
                  <use xlink:href="#rim" fill="#404040">
                        <set attributeName="fill" to="#808080" begin="arrowLeft.mouseover" end="arrowLeft.mouseout"/>
                  </use>
                  <path fill="none" stroke="white" stroke-width="1.5" d="M0,-3.0v7 M-2.5,-0.5L0,-3.0L2.5,-0.5"/>
                </g>
        </g>
        <svg viewBox="0 0 15 15" width="100%" height="30px" preserveAspectRatio="xMaxYMin meet">
         <g id="arrow_out" transform="scale(0.3 0.3)">
          <a xlink:href="_handlers_8h__dep__incl_org.svg" target="_base">
           <rect id="button" ry="5" rx="5" y="6" x="6" height="38" width="38"
                fill="#f2f5e9" fill-opacity="0.5" stroke="#606060" stroke-width="1.0"/>
           <path id="arrow"
             d="M 11.500037,31.436501 C 11.940474,20.09759 22.043105,11.32322 32.158766,21.979434 L 37.068811,17.246167 C 37.068811,17.246167 37.088388,32 37.088388,32 L 22.160133,31.978069 C 22.160133,31.978069 26.997745,27.140456 26.997745,27.140456 C 18.528582,18.264221 13.291696,25.230495 11.500037,31.436501 z"
             style="fill:#404040;"/>
          </a>
         </g>
        </svg>
</svg>
