<?xml version="1.0" encoding="UTF-8" standalone="no"?>
<!DOCTYPE svg PUBLIC "-//W3C//DTD SVG 1.1//EN"
 "http://www.w3.org/Graphics/SVG/1.1/DTD/svg11.dtd">
<!-- Generated by graphviz version 2.26.3 (20100126.1600)
 -->
<!-- Title: HoverRender.h Pages: 1 -->
<svg width="188pt" height="88pt"
 viewBox="0.00 0.00 188.00 88.00" xmlns="http://www.w3.org/2000/svg" xmlns:xlink="http://www.w3.org/1999/xlink">
<g id="graph1" class="graph" transform="scale(1 1) rotate(0) translate(4 84)">
<title>HoverRender.h</title>
<!-- Node1 -->
<g id="node1" class="node"><title>Node1</title>
<polygon fill="#bfbfbf" stroke="black" points="54.5,-59 54.5,-79 135.5,-79 135.5,-59 54.5,-59"/>
<text text-anchor="middle" x="95" y="-66" font-family="FreeSans" font-size="10.00">HoverRender.h</text>
</g>
<!-- Node2 -->
<g id="node3" class="node"><title>Node2</title>
<a xlink:href="_hover_render_8cpp.html" target="_top" xlink:title="HoverRender.cpp">
<polygon fill="none" stroke="black" points="0,-1 0,-21 92,-21 92,-1 0,-1"/>
<text text-anchor="middle" x="46" y="-8" font-family="FreeSans" font-size="10.00">HoverRender.cpp</text>
</a>
</g>
<!-- Node1&#45;&gt;Node2 -->
<g id="edge2" class="edge"><title>Node1&#45;&gt;Node2</title>
<path fill="none" stroke="midnightblue" d="M79.7771,-50.981C71.5579,-41.2522 61.7044,-29.5889 54.7673,-21.3776"/>
<polygon fill="midnightblue" stroke="midnightblue" points="77.3377,-53.517 86.4649,-58.8972 82.6849,-48.9995 77.3377,-53.517"/>
</g>
<!-- Node3 -->
<g id="node5" class="node"><title>Node3</title>
<a xlink:href="_obj_fac1_8cpp.html" target="_top" xlink:title="ObjFac1.cpp">
<polygon fill="none" stroke="black" points="109.5,-1 109.5,-21 180.5,-21 180.5,-1 109.5,-1"/>
<text text-anchor="middle" x="145" y="-8" font-family="FreeSans" font-size="10.00">ObjFac1.cpp</text>
</a>
</g>
<!-- Node1&#45;&gt;Node3 -->
<g id="edge4" class="edge"><title>Node1&#45;&gt;Node3</title>
<path fill="none" stroke="midnightblue" d="M110.28,-51.2752C118.717,-41.4882 128.904,-29.6718 136.054,-21.3776"/>
<polygon fill="midnightblue" stroke="midnightblue" points="107.588,-49.0377 103.709,-58.8972 112.89,-53.6083 107.588,-49.0377"/>
</g>
</g>
</svg>
