<?xml version="1.0" encoding="UTF-8" standalone="no"?>
<!DOCTYPE svg PUBLIC "-//W3C//DTD SVG 1.1//EN"
 "http://www.w3.org/Graphics/SVG/1.1/DTD/svg11.dtd">
<!-- Generated by graphviz version 2.38.0 (20140413.2041)
 -->
<!-- Title: HudPeer.cpp Pages: 1 -->
<svg width="1150pt" height="778pt"
 viewBox="0.00 0.00 1149.50 778.00" xmlns="http://www.w3.org/2000/svg" xmlns:xlink="http://www.w3.org/1999/xlink">
<g id="graph0" class="graph" transform="scale(1 1) rotate(0) translate(4 774)">
<title>HudPeer.cpp</title>
<!-- Node1 -->
<g id="node1" class="node"><title>Node1</title>
<polygon fill="#bfbfbf" stroke="black" points="615.5,-750.5 615.5,-769.5 689.5,-769.5 689.5,-750.5 615.5,-750.5"/>
<text text-anchor="middle" x="652.5" y="-757.5" font-family="Helvetica,sans-Serif" font-size="10.00">HudPeer.cpp</text>
</g>
<!-- Node2 -->
<g id="node2" class="node"><title>Node2</title>
<g id="a_node2"><a xlink:href="_core_8h.html" target="_top" xlink:title="../../../engine/Script\l/Core.h">
<polygon fill="none" stroke="black" points="180,-616.5 180,-646.5 281,-646.5 281,-616.5 180,-616.5"/>
<text text-anchor="start" x="188" y="-634.5" font-family="Helvetica,sans-Serif" font-size="10.00">../../../engine/Script</text>
<text text-anchor="middle" x="230.5" y="-623.5" font-family="Helvetica,sans-Serif" font-size="10.00">/Core.h</text>
</a>
</g>
</g>
<!-- Node1&#45;&gt;Node2 -->
<g id="edge1" class="edge"><title>Node1&#45;&gt;Node2</title>
<path fill="none" stroke="midnightblue" d="M615.368,-758.538C532.488,-756.873 335.39,-749.218 280.5,-714 259.656,-700.627 246.126,-675.162 238.464,-656.24"/>
<polygon fill="midnightblue" stroke="midnightblue" points="241.699,-654.9 234.893,-646.78 235.15,-657.372 241.699,-654.9"/>
</g>
<!-- Node10 -->
<g id="node10" class="node"><title>Node10</title>
<g id="a_node10"><a xlink:href="_chronometer_8h.html" target="_top" xlink:title="../../../engine/Display\l/Chronometer.h">
<polygon fill="none" stroke="black" points="907.5,-616.5 907.5,-646.5 1015.5,-646.5 1015.5,-616.5 907.5,-616.5"/>
<text text-anchor="start" x="915.5" y="-634.5" font-family="Helvetica,sans-Serif" font-size="10.00">../../../engine/Display</text>
<text text-anchor="middle" x="961.5" y="-623.5" font-family="Helvetica,sans-Serif" font-size="10.00">/Chronometer.h</text>
</a>
</g>
</g>
<!-- Node1&#45;&gt;Node10 -->
<g id="edge9" class="edge"><title>Node1&#45;&gt;Node10</title>
<path fill="none" stroke="midnightblue" d="M689.719,-757.939C758.377,-755.225 901.269,-745.81 937.5,-714 953.715,-699.764 959.235,-675.184 960.989,-656.732"/>
<polygon fill="midnightblue" stroke="midnightblue" points="964.485,-656.905 961.638,-646.7 957.499,-656.452 964.485,-656.905"/>
</g>
<!-- Node11 -->
<g id="node11" class="node"><title>Node11</title>
<g id="a_node11"><a xlink:href="_hud_decor_8h.html" target="_top" xlink:title="HudDecor.h">
<polygon fill="none" stroke="black" points="788,-560.5 788,-579.5 857,-579.5 857,-560.5 788,-560.5"/>
<text text-anchor="middle" x="822.5" y="-567.5" font-family="Helvetica,sans-Serif" font-size="10.00">HudDecor.h</text>
</a>
</g>
</g>
<!-- Node1&#45;&gt;Node11 -->
<g id="edge54" class="edge"><title>Node1&#45;&gt;Node11</title>
<path fill="none" stroke="midnightblue" d="M689.708,-757.983C753.033,-755.383 877.539,-746.201 904.5,-714 913.345,-703.436 908.782,-696.096 904.5,-683 891.674,-643.77 859.309,-606.903 839.288,-586.795"/>
<polygon fill="midnightblue" stroke="midnightblue" points="841.639,-584.198 832.043,-579.707 836.744,-589.202 841.639,-584.198"/>
</g>
<!-- Node35 -->
<g id="node35" class="node"><title>Node35</title>
<g id="a_node35"><a xlink:href="_counter_8h.html" target="_top" xlink:title="../../../engine/Display\l/Counter.h">
<polygon fill="none" stroke="black" points="1033.5,-616.5 1033.5,-646.5 1141.5,-646.5 1141.5,-616.5 1033.5,-616.5"/>
<text text-anchor="start" x="1041.5" y="-634.5" font-family="Helvetica,sans-Serif" font-size="10.00">../../../engine/Display</text>
<text text-anchor="middle" x="1087.5" y="-623.5" font-family="Helvetica,sans-Serif" font-size="10.00">/Counter.h</text>
</a>
</g>
</g>
<!-- Node1&#45;&gt;Node35 -->
<g id="edge43" class="edge"><title>Node1&#45;&gt;Node35</title>
<path fill="none" stroke="midnightblue" d="M689.784,-758.587C748.998,-756.836 867.364,-748.824 960.5,-714 999.133,-699.555 1038.28,-672.053 1062.7,-653.017"/>
<polygon fill="midnightblue" stroke="midnightblue" points="1065.04,-655.629 1070.7,-646.672 1060.69,-650.145 1065.04,-655.629"/>
</g>
<!-- Node36 -->
<g id="node36" class="node"><title>Node36</title>
<g id="a_node36"><a xlink:href="_fuel_gauge_8h.html" target="_top" xlink:title="../../../engine/Display\l/FuelGauge.h">
<polygon fill="none" stroke="black" points="409.5,-683.5 409.5,-713.5 517.5,-713.5 517.5,-683.5 409.5,-683.5"/>
<text text-anchor="start" x="417.5" y="-701.5" font-family="Helvetica,sans-Serif" font-size="10.00">../../../engine/Display</text>
<text text-anchor="middle" x="463.5" y="-690.5" font-family="Helvetica,sans-Serif" font-size="10.00">/FuelGauge.h</text>
</a>
</g>
</g>
<!-- Node1&#45;&gt;Node36 -->
<g id="edge45" class="edge"><title>Node1&#45;&gt;Node36</title>
<path fill="none" stroke="midnightblue" d="M625.421,-750.475C597.431,-741.664 552.976,-727.668 517.722,-716.57"/>
<polygon fill="midnightblue" stroke="midnightblue" points="518.633,-713.187 508.044,-713.523 516.531,-719.864 518.633,-713.187"/>
</g>
<!-- Node37 -->
<g id="node37" class="node"><title>Node37</title>
<g id="a_node37"><a xlink:href="_hud_8h.html" target="_top" xlink:title="../../../engine/Display\l/Hud.h">
<polygon fill="none" stroke="black" points="575.5,-616.5 575.5,-646.5 683.5,-646.5 683.5,-616.5 575.5,-616.5"/>
<text text-anchor="start" x="583.5" y="-634.5" font-family="Helvetica,sans-Serif" font-size="10.00">../../../engine/Display</text>
<text text-anchor="middle" x="629.5" y="-623.5" font-family="Helvetica,sans-Serif" font-size="10.00">/Hud.h</text>
</a>
</g>
</g>
<!-- Node1&#45;&gt;Node37 -->
<g id="edge47" class="edge"><title>Node1&#45;&gt;Node37</title>
<path fill="none" stroke="midnightblue" d="M615.292,-757.983C551.967,-755.383 427.461,-746.201 400.5,-714 318.22,-615.725 350.715,-694.761 565.5,-647 565.601,-646.978 565.702,-646.955 565.803,-646.933"/>
<polygon fill="midnightblue" stroke="midnightblue" points="566.389,-650.388 575.385,-644.792 564.863,-643.556 566.389,-650.388"/>
</g>
<!-- Node41 -->
<g id="node41" class="node"><title>Node41</title>
<g id="a_node41"><a xlink:href="_hud_text_8h.html" target="_top" xlink:title="../../../engine/Display\l/HudText.h">
<polygon fill="none" stroke="black" points="535.5,-683.5 535.5,-713.5 643.5,-713.5 643.5,-683.5 535.5,-683.5"/>
<text text-anchor="start" x="543.5" y="-701.5" font-family="Helvetica,sans-Serif" font-size="10.00">../../../engine/Display</text>
<text text-anchor="middle" x="589.5" y="-690.5" font-family="Helvetica,sans-Serif" font-size="10.00">/HudText.h</text>
</a>
</g>
</g>
<!-- Node1&#45;&gt;Node41 -->
<g id="edge55" class="edge"><title>Node1&#45;&gt;Node41</title>
<path fill="none" stroke="midnightblue" d="M643.474,-750.475C635.26,-742.718 622.793,-730.943 611.909,-720.665"/>
<polygon fill="midnightblue" stroke="midnightblue" points="614.021,-717.845 604.348,-713.523 609.215,-722.934 614.021,-717.845"/>
</g>
<!-- Node42 -->
<g id="node42" class="node"><title>Node42</title>
<g id="a_node42"><a xlink:href="_minimap_8h.html" target="_top" xlink:title="../../../engine/Display\l/Minimap.h">
<polygon fill="none" stroke="black" points="661.5,-683.5 661.5,-713.5 769.5,-713.5 769.5,-683.5 661.5,-683.5"/>
<text text-anchor="start" x="669.5" y="-701.5" font-family="Helvetica,sans-Serif" font-size="10.00">../../../engine/Display</text>
<text text-anchor="middle" x="715.5" y="-690.5" font-family="Helvetica,sans-Serif" font-size="10.00">/Minimap.h</text>
</a>
</g>
</g>
<!-- Node1&#45;&gt;Node42 -->
<g id="edge57" class="edge"><title>Node1&#45;&gt;Node42</title>
<path fill="none" stroke="midnightblue" d="M661.526,-750.475C669.74,-742.718 682.207,-730.943 693.091,-720.665"/>
<polygon fill="midnightblue" stroke="midnightblue" points="695.785,-722.934 700.652,-713.523 690.979,-717.845 695.785,-722.934"/>
</g>
<!-- Node43 -->
<g id="node43" class="node"><title>Node43</title>
<g id="a_node43"><a xlink:href="_speedometer_8h.html" target="_top" xlink:title="../../../engine/Display\l/Speedometer.h">
<polygon fill="none" stroke="black" points="787.5,-683.5 787.5,-713.5 895.5,-713.5 895.5,-683.5 787.5,-683.5"/>
<text text-anchor="start" x="795.5" y="-701.5" font-family="Helvetica,sans-Serif" font-size="10.00">../../../engine/Display</text>
<text text-anchor="middle" x="841.5" y="-690.5" font-family="Helvetica,sans-Serif" font-size="10.00">/Speedometer.h</text>
</a>
</g>
</g>
<!-- Node1&#45;&gt;Node43 -->
<g id="edge59" class="edge"><title>Node1&#45;&gt;Node43</title>
<path fill="none" stroke="midnightblue" d="M679.579,-750.475C707.569,-741.664 752.024,-727.668 787.278,-716.57"/>
<polygon fill="midnightblue" stroke="midnightblue" points="788.469,-719.864 796.956,-713.523 786.367,-713.187 788.469,-719.864"/>
</g>
<!-- Node44 -->
<g id="node44" class="node"><title>Node44</title>
<g id="a_node44"><a xlink:href="_hud_peer_8h.html" target="_top" xlink:title="HudPeer.h">
<polygon fill="none" stroke="black" points="290,-689 290,-708 353,-708 353,-689 290,-689"/>
<text text-anchor="middle" x="321.5" y="-696" font-family="Helvetica,sans-Serif" font-size="10.00">HudPeer.h</text>
</a>
</g>
</g>
<!-- Node1&#45;&gt;Node44 -->
<g id="edge61" class="edge"><title>Node1&#45;&gt;Node44</title>
<path fill="none" stroke="midnightblue" d="M615.266,-754.914C560.514,-748.503 455.271,-734.642 367.5,-714 363.666,-713.098 359.689,-712.039 355.75,-710.909"/>
<polygon fill="midnightblue" stroke="midnightblue" points="356.725,-707.548 346.14,-708.009 354.703,-714.249 356.725,-707.548"/>
</g>
<!-- Node3 -->
<g id="node3" class="node"><title>Node3</title>
<polygon fill="none" stroke="#bfbfbf" points="216,-560.5 216,-579.5 245,-579.5 245,-560.5 216,-560.5"/>
<text text-anchor="middle" x="230.5" y="-567.5" font-family="Helvetica,sans-Serif" font-size="10.00">list</text>
</g>
<!-- Node2&#45;&gt;Node3 -->
<g id="edge2" class="edge"><title>Node2&#45;&gt;Node3</title>
<path fill="none" stroke="midnightblue" d="M230.5,-616.399C230.5,-608.466 230.5,-598.458 230.5,-589.858"/>
<polygon fill="midnightblue" stroke="midnightblue" points="234,-589.658 230.5,-579.658 227,-589.658 234,-589.658"/>
</g>
<!-- Node4 -->
<g id="node4" class="node"><title>Node4</title>
<polygon fill="none" stroke="#bfbfbf" points="263,-560.5 263,-579.5 358,-579.5 358,-560.5 263,-560.5"/>
<text text-anchor="middle" x="310.5" y="-567.5" font-family="Helvetica,sans-Serif" font-size="10.00">luabind/object.hpp</text>
</g>
<!-- Node2&#45;&gt;Node4 -->
<g id="edge3" class="edge"><title>Node2&#45;&gt;Node4</title>
<path fill="none" stroke="midnightblue" d="M249.459,-616.399C261.923,-607.129 278.197,-595.025 290.807,-585.647"/>
<polygon fill="midnightblue" stroke="midnightblue" points="292.924,-588.434 298.859,-579.658 288.747,-582.817 292.924,-588.434"/>
</g>
<!-- Node5 -->
<g id="node5" class="node"><title>Node5</title>
<g id="a_node5"><a xlink:href="_lua_8h.html" target="_top" xlink:title="Lua.h">
<polygon fill="none" stroke="black" points="70,-560.5 70,-579.5 111,-579.5 111,-560.5 70,-560.5"/>
<text text-anchor="middle" x="90.5" y="-567.5" font-family="Helvetica,sans-Serif" font-size="10.00">Lua.h</text>
</a>
</g>
</g>
<!-- Node2&#45;&gt;Node5 -->
<g id="edge4" class="edge"><title>Node2&#45;&gt;Node5</title>
<path fill="none" stroke="midnightblue" d="M197.322,-616.399C173.937,-606.461 142.888,-593.265 120.294,-583.662"/>
<polygon fill="midnightblue" stroke="midnightblue" points="121.444,-580.348 110.871,-579.658 118.706,-586.79 121.444,-580.348"/>
</g>
<!-- Node9 -->
<g id="node9" class="node"><title>Node9</title>
<g id="a_node9"><a xlink:href="_script_exn_8h.html" target="_top" xlink:title="ScriptExn.h">
<polygon fill="none" stroke="black" points="129.5,-560.5 129.5,-579.5 197.5,-579.5 197.5,-560.5 129.5,-560.5"/>
<text text-anchor="middle" x="163.5" y="-567.5" font-family="Helvetica,sans-Serif" font-size="10.00">ScriptExn.h</text>
</a>
</g>
</g>
<!-- Node2&#45;&gt;Node9 -->
<g id="edge8" class="edge"><title>Node2&#45;&gt;Node9</title>
<path fill="none" stroke="midnightblue" d="M214.622,-616.399C204.485,-607.397 191.338,-595.721 180.915,-586.465"/>
<polygon fill="midnightblue" stroke="midnightblue" points="183.05,-583.681 173.249,-579.658 178.402,-588.915 183.05,-583.681"/>
</g>
<!-- Node6 -->
<g id="node6" class="node"><title>Node6</title>
<polygon fill="none" stroke="#bfbfbf" points="71.5,-504.5 71.5,-523.5 109.5,-523.5 109.5,-504.5 71.5,-504.5"/>
<text text-anchor="middle" x="90.5" y="-511.5" font-family="Helvetica,sans-Serif" font-size="10.00">lua.h</text>
</g>
<!-- Node5&#45;&gt;Node6 -->
<g id="edge5" class="edge"><title>Node5&#45;&gt;Node6</title>
<path fill="none" stroke="midnightblue" d="M90.5,-560.083C90.5,-553.006 90.5,-542.861 90.5,-533.986"/>
<polygon fill="midnightblue" stroke="midnightblue" points="94.0001,-533.751 90.5,-523.751 87.0001,-533.751 94.0001,-533.751"/>
</g>
<!-- Node7 -->
<g id="node7" class="node"><title>Node7</title>
<polygon fill="none" stroke="#bfbfbf" points="128,-504.5 128,-523.5 175,-523.5 175,-504.5 128,-504.5"/>
<text text-anchor="middle" x="151.5" y="-511.5" font-family="Helvetica,sans-Serif" font-size="10.00">lualib.h</text>
</g>
<!-- Node5&#45;&gt;Node7 -->
<g id="edge6" class="edge"><title>Node5&#45;&gt;Node7</title>
<path fill="none" stroke="midnightblue" d="M100.301,-560.324C109.318,-552.341 122.906,-540.313 133.818,-530.653"/>
<polygon fill="midnightblue" stroke="midnightblue" points="136.353,-533.083 141.521,-523.834 131.713,-527.842 136.353,-533.083"/>
</g>
<!-- Node8 -->
<g id="node8" class="node"><title>Node8</title>
<polygon fill="none" stroke="#bfbfbf" points="0,-504.5 0,-523.5 53,-523.5 53,-504.5 0,-504.5"/>
<text text-anchor="middle" x="26.5" y="-511.5" font-family="Helvetica,sans-Serif" font-size="10.00">lauxlib.h</text>
</g>
<!-- Node5&#45;&gt;Node8 -->
<g id="edge7" class="edge"><title>Node5&#45;&gt;Node8</title>
<path fill="none" stroke="midnightblue" d="M80.2173,-560.324C70.6637,-552.263 56.2203,-540.077 44.7157,-530.369"/>
<polygon fill="midnightblue" stroke="midnightblue" points="46.8698,-527.608 36.9698,-523.834 42.3557,-532.958 46.8698,-527.608"/>
</g>
<!-- Node10&#45;&gt;Node11 -->
<g id="edge10" class="edge"><title>Node10&#45;&gt;Node11</title>
<path fill="none" stroke="midnightblue" d="M928.559,-616.399C905.341,-606.461 874.514,-593.265 852.081,-583.662"/>
<polygon fill="midnightblue" stroke="midnightblue" points="853.296,-580.375 842.726,-579.658 850.542,-586.811 853.296,-580.375"/>
</g>
<!-- Node12 -->
<g id="node12" class="node"><title>Node12</title>
<g id="a_node12"><a xlink:href="_o_s_8h.html" target="_top" xlink:title="../Util/OS.h">
<polygon fill="none" stroke="black" points="812.5,-504.5 812.5,-523.5 878.5,-523.5 878.5,-504.5 812.5,-504.5"/>
<text text-anchor="middle" x="845.5" y="-511.5" font-family="Helvetica,sans-Serif" font-size="10.00">../Util/OS.h</text>
</a>
</g>
</g>
<!-- Node11&#45;&gt;Node12 -->
<g id="edge11" class="edge"><title>Node11&#45;&gt;Node12</title>
<path fill="none" stroke="midnightblue" d="M826.298,-560.083C829.413,-552.77 833.923,-542.181 837.789,-533.103"/>
<polygon fill="midnightblue" stroke="midnightblue" points="841.074,-534.323 841.773,-523.751 834.634,-531.58 841.074,-534.323"/>
</g>
<!-- Node20 -->
<g id="node20" class="node"><title>Node20</title>
<g id="a_node20"><a xlink:href="_container_8h.html" target="_top" xlink:title="Container.h">
<polygon fill="none" stroke="black" points="716,-504.5 716,-523.5 783,-523.5 783,-504.5 716,-504.5"/>
<text text-anchor="middle" x="749.5" y="-511.5" font-family="Helvetica,sans-Serif" font-size="10.00">Container.h</text>
</a>
</g>
</g>
<!-- Node11&#45;&gt;Node20 -->
<g id="edge19" class="edge"><title>Node11&#45;&gt;Node20</title>
<path fill="none" stroke="midnightblue" d="M810.771,-560.324C799.663,-552.107 782.758,-539.602 769.517,-529.807"/>
<polygon fill="midnightblue" stroke="midnightblue" points="771.563,-526.967 761.442,-523.834 767.4,-532.595 771.563,-526.967"/>
</g>
<!-- Node13 -->
<g id="node13" class="node"><title>Node13</title>
<polygon fill="none" stroke="#bfbfbf" points="944.5,-448.5 944.5,-467.5 986.5,-467.5 986.5,-448.5 944.5,-448.5"/>
<text text-anchor="middle" x="965.5" y="-455.5" font-family="Helvetica,sans-Serif" font-size="10.00">locale</text>
</g>
<!-- Node12&#45;&gt;Node13 -->
<g id="edge12" class="edge"><title>Node12&#45;&gt;Node13</title>
<path fill="none" stroke="midnightblue" d="M864.514,-504.444C884.088,-495.636 914.808,-481.812 937.229,-471.722"/>
<polygon fill="midnightblue" stroke="midnightblue" points="938.892,-474.812 946.575,-467.516 936.019,-468.428 938.892,-474.812"/>
</g>
<!-- Node14 -->
<g id="node14" class="node"><title>Node14</title>
<polygon fill="none" stroke="#bfbfbf" points="1042.5,-448.5 1042.5,-467.5 1072.5,-467.5 1072.5,-448.5 1042.5,-448.5"/>
<text text-anchor="middle" x="1057.5" y="-455.5" font-family="Helvetica,sans-Serif" font-size="10.00">set</text>
</g>
<!-- Node12&#45;&gt;Node14 -->
<g id="edge13" class="edge"><title>Node12&#45;&gt;Node14</title>
<path fill="none" stroke="midnightblue" d="M878.714,-505.463C915.5,-496.968 976.487,-482.452 1028.5,-468 1029.93,-467.603 1031.39,-467.185 1032.87,-466.754"/>
<polygon fill="midnightblue" stroke="midnightblue" points="1033.94,-470.087 1042.5,-463.843 1031.91,-463.387 1033.94,-470.087"/>
</g>
<!-- Node15 -->
<g id="node15" class="node"><title>Node15</title>
<polygon fill="none" stroke="#bfbfbf" points="699,-448.5 699,-467.5 740,-467.5 740,-448.5 699,-448.5"/>
<text text-anchor="middle" x="719.5" y="-455.5" font-family="Helvetica,sans-Serif" font-size="10.00">string</text>
</g>
<!-- Node12&#45;&gt;Node15 -->
<g id="edge14" class="edge"><title>Node12&#45;&gt;Node15</title>
<path fill="none" stroke="midnightblue" d="M825.535,-504.444C804.891,-495.596 772.437,-481.687 748.868,-471.586"/>
<polygon fill="midnightblue" stroke="midnightblue" points="749.942,-468.239 739.372,-467.516 747.184,-474.673 749.942,-468.239"/>
</g>
<!-- Node16 -->
<g id="node16" class="node"><title>Node16</title>
<polygon fill="none" stroke="#bfbfbf" points="758.5,-448.5 758.5,-467.5 802.5,-467.5 802.5,-448.5 758.5,-448.5"/>
<text text-anchor="middle" x="780.5" y="-455.5" font-family="Helvetica,sans-Serif" font-size="10.00">vector</text>
</g>
<!-- Node12&#45;&gt;Node16 -->
<g id="edge15" class="edge"><title>Node12&#45;&gt;Node16</title>
<path fill="none" stroke="midnightblue" d="M835.057,-504.324C825.354,-496.263 810.685,-484.077 799,-474.369"/>
<polygon fill="midnightblue" stroke="midnightblue" points="801.062,-471.532 791.133,-467.834 796.589,-476.916 801.062,-471.532"/>
</g>
<!-- Node17 -->
<g id="node17" class="node"><title>Node17</title>
<polygon fill="none" stroke="#bfbfbf" points="820,-448.5 820,-467.5 927,-467.5 927,-448.5 820,-448.5"/>
<text text-anchor="middle" x="873.5" y="-455.5" font-family="Helvetica,sans-Serif" font-size="10.00">boost/filesystem.hpp</text>
</g>
<!-- Node12&#45;&gt;Node17 -->
<g id="edge16" class="edge"><title>Node12&#45;&gt;Node17</title>
<path fill="none" stroke="midnightblue" d="M850.124,-504.083C853.956,-496.691 859.524,-485.953 864.265,-476.811"/>
<polygon fill="midnightblue" stroke="midnightblue" points="867.466,-478.24 868.962,-467.751 861.252,-475.018 867.466,-478.24"/>
</g>
<!-- Node18 -->
<g id="node18" class="node"><title>Node18</title>
<g id="a_node18"><a xlink:href="_m_r___types_8h.html" target="_top" xlink:title="MR_Types.h">
<polygon fill="none" stroke="black" points="783,-56.5 783,-75.5 856,-75.5 856,-56.5 783,-56.5"/>
<text text-anchor="middle" x="819.5" y="-63.5" font-family="Helvetica,sans-Serif" font-size="10.00">MR_Types.h</text>
</a>
</g>
</g>
<!-- Node12&#45;&gt;Node18 -->
<g id="edge17" class="edge"><title>Node12&#45;&gt;Node18</title>
<path fill="none" stroke="midnightblue" d="M878.767,-511.896C912.641,-508.973 964.466,-499.254 995.5,-468 1016.71,-446.643 1014.5,-433.098 1014.5,-403 1014.5,-403 1014.5,-403 1014.5,-177 1014.5,-109.165 923.874,-82.6973 866.186,-72.7208"/>
<polygon fill="midnightblue" stroke="midnightblue" points="866.61,-69.2438 856.178,-71.0968 865.488,-76.1535 866.61,-69.2438"/>
</g>
<!-- Node19 -->
<g id="node19" class="node"><title>Node19</title>
<polygon fill="none" stroke="#bfbfbf" points="790,-0.5 790,-19.5 849,-19.5 849,-0.5 790,-0.5"/>
<text text-anchor="middle" x="819.5" y="-7.5" font-family="Helvetica,sans-Serif" font-size="10.00">inttypes.h</text>
</g>
<!-- Node18&#45;&gt;Node19 -->
<g id="edge18" class="edge"><title>Node18&#45;&gt;Node19</title>
<path fill="none" stroke="midnightblue" d="M819.5,-56.083C819.5,-49.0059 819.5,-38.8611 819.5,-29.9865"/>
<polygon fill="midnightblue" stroke="midnightblue" points="823,-29.751 819.5,-19.7511 816,-29.7511 823,-29.751"/>
</g>
<!-- Node21 -->
<g id="node21" class="node"><title>Node21</title>
<g id="a_node21"><a xlink:href="_base_container_8h.html" target="_top" xlink:title="BaseContainer.h">
<polygon fill="none" stroke="black" points="592,-448.5 592,-467.5 681,-467.5 681,-448.5 592,-448.5"/>
<text text-anchor="middle" x="636.5" y="-455.5" font-family="Helvetica,sans-Serif" font-size="10.00">BaseContainer.h</text>
</a>
</g>
</g>
<!-- Node20&#45;&gt;Node21 -->
<g id="edge20" class="edge"><title>Node20&#45;&gt;Node21</title>
<path fill="none" stroke="midnightblue" d="M731.595,-504.444C713.246,-495.675 684.495,-481.935 663.406,-471.858"/>
<polygon fill="midnightblue" stroke="midnightblue" points="664.853,-468.67 654.321,-467.516 661.835,-474.986 664.853,-468.67"/>
</g>
<!-- Node22 -->
<g id="node22" class="node"><title>Node22</title>
<g id="a_node22"><a xlink:href="_ui_view_model_8h.html" target="_top" xlink:title="UiViewModel.h">
<polygon fill="none" stroke="black" points="665,-392.5 665,-411.5 748,-411.5 748,-392.5 665,-392.5"/>
<text text-anchor="middle" x="706.5" y="-399.5" font-family="Helvetica,sans-Serif" font-size="10.00">UiViewModel.h</text>
</a>
</g>
</g>
<!-- Node21&#45;&gt;Node22 -->
<g id="edge21" class="edge"><title>Node21&#45;&gt;Node22</title>
<path fill="none" stroke="midnightblue" d="M647.747,-448.324C658.297,-440.185 674.301,-427.839 686.942,-418.087"/>
<polygon fill="midnightblue" stroke="midnightblue" points="689.269,-420.713 695.049,-411.834 684.993,-415.171 689.269,-420.713"/>
</g>
<!-- Node22&#45;&gt;Node18 -->
<g id="edge23" class="edge"><title>Node22&#45;&gt;Node18</title>
<path fill="none" stroke="midnightblue" d="M748.147,-396.748C807.021,-388.176 907.5,-363.001 907.5,-291 907.5,-291 907.5,-291 907.5,-177 907.5,-135.032 867.959,-99.9022 841.888,-81.3001"/>
<polygon fill="midnightblue" stroke="midnightblue" points="843.864,-78.4118 833.639,-75.6391 839.903,-84.1834 843.864,-78.4118"/>
</g>
<!-- Node23 -->
<g id="node23" class="node"><title>Node23</title>
<g id="a_node23"><a xlink:href="_nav_8h.html" target="_top" xlink:title="../Control/Nav.h">
<polygon fill="none" stroke="black" points="614.5,-336.5 614.5,-355.5 700.5,-355.5 700.5,-336.5 614.5,-336.5"/>
<text text-anchor="middle" x="657.5" y="-343.5" font-family="Helvetica,sans-Serif" font-size="10.00">../Control/Nav.h</text>
</a>
</g>
</g>
<!-- Node22&#45;&gt;Node23 -->
<g id="edge22" class="edge"><title>Node22&#45;&gt;Node23</title>
<path fill="none" stroke="midnightblue" d="M698.409,-392.083C691.345,-384.298 680.912,-372.801 672.351,-363.367"/>
<polygon fill="midnightblue" stroke="midnightblue" points="674.753,-360.805 665.441,-355.751 669.569,-365.509 674.753,-360.805"/>
</g>
<!-- Node24 -->
<g id="node24" class="node"><title>Node24</title>
<g id="a_node24"><a xlink:href="_vec_8h.html" target="_top" xlink:title="../Vec.h">
<polygon fill="none" stroke="black" points="789,-168.5 789,-187.5 840,-187.5 840,-168.5 789,-168.5"/>
<text text-anchor="middle" x="814.5" y="-175.5" font-family="Helvetica,sans-Serif" font-size="10.00">../Vec.h</text>
</a>
</g>
</g>
<!-- Node22&#45;&gt;Node24 -->
<g id="edge24" class="edge"><title>Node22&#45;&gt;Node24</title>
<path fill="none" stroke="midnightblue" d="M737.711,-392.5C758.105,-385.568 784.088,-373.942 801.5,-356 845.082,-311.092 871.214,-283.051 850.5,-224 846.715,-213.209 839.133,-203.084 831.9,-195.181"/>
<polygon fill="midnightblue" stroke="midnightblue" points="834.167,-192.494 824.662,-187.815 829.174,-197.4 834.167,-192.494"/>
</g>
<!-- Node25 -->
<g id="node25" class="node"><title>Node25</title>
<g id="a_node25"><a xlink:href="_ui_layout_flags_8h.html" target="_top" xlink:title="UiLayoutFlags.h">
<polygon fill="none" stroke="black" points="542.5,-224.5 542.5,-243.5 630.5,-243.5 630.5,-224.5 542.5,-224.5"/>
<text text-anchor="middle" x="586.5" y="-231.5" font-family="Helvetica,sans-Serif" font-size="10.00">UiLayoutFlags.h</text>
</a>
</g>
</g>
<!-- Node22&#45;&gt;Node25 -->
<g id="edge25" class="edge"><title>Node22&#45;&gt;Node25</title>
<path fill="none" stroke="midnightblue" d="M664.925,-392.439C643.93,-385.954 619.917,-374.82 605.5,-356 582.623,-326.137 582.291,-279.765 584.269,-253.962"/>
<polygon fill="midnightblue" stroke="midnightblue" points="587.784,-253.978 585.268,-243.687 580.817,-253.301 587.784,-253.978"/>
</g>
<!-- Node26 -->
<g id="node26" class="node"><title>Node26</title>
<g id="a_node26"><a xlink:href="_view_model_8h.html" target="_top" xlink:title="ViewModel.h">
<polygon fill="none" stroke="black" points="719,-336.5 719,-355.5 792,-355.5 792,-336.5 719,-336.5"/>
<text text-anchor="middle" x="755.5" y="-343.5" font-family="Helvetica,sans-Serif" font-size="10.00">ViewModel.h</text>
</a>
</g>
</g>
<!-- Node22&#45;&gt;Node26 -->
<g id="edge27" class="edge"><title>Node22&#45;&gt;Node26</title>
<path fill="none" stroke="midnightblue" d="M714.591,-392.083C721.655,-384.298 732.088,-372.801 740.649,-363.367"/>
<polygon fill="midnightblue" stroke="midnightblue" points="743.431,-365.509 747.559,-355.751 738.247,-360.805 743.431,-365.509"/>
</g>
<!-- Node25&#45;&gt;Node18 -->
<g id="edge26" class="edge"><title>Node25&#45;&gt;Node18</title>
<path fill="none" stroke="midnightblue" d="M584.887,-224.27C581.355,-202.185 575.48,-143.608 605.5,-112 627.96,-88.3526 716.659,-76.1776 772.573,-70.7271"/>
<polygon fill="midnightblue" stroke="midnightblue" points="772.978,-74.2045 782.608,-69.7864 772.325,-67.2351 772.978,-74.2045"/>
</g>
<!-- Node27 -->
<g id="node27" class="node"><title>Node27</title>
<g id="a_node27"><a xlink:href="_display_8h.html" target="_top" xlink:title="Display.h">
<polygon fill="none" stroke="black" points="706.5,-280.5 706.5,-299.5 764.5,-299.5 764.5,-280.5 706.5,-280.5"/>
<text text-anchor="middle" x="735.5" y="-287.5" font-family="Helvetica,sans-Serif" font-size="10.00">Display.h</text>
</a>
</g>
</g>
<!-- Node26&#45;&gt;Node27 -->
<g id="edge28" class="edge"><title>Node26&#45;&gt;Node27</title>
<path fill="none" stroke="midnightblue" d="M752.197,-336.083C749.518,-328.849 745.651,-318.409 742.314,-309.397"/>
<polygon fill="midnightblue" stroke="midnightblue" points="745.496,-307.913 738.741,-299.751 738.932,-310.344 745.496,-307.913"/>
</g>
<!-- Node33 -->
<g id="node33" class="node"><title>Node33</title>
<g id="a_node33"><a xlink:href="_view_attacher_8h.html" target="_top" xlink:title="ViewAttacher.h">
<polygon fill="none" stroke="black" points="758,-224.5 758,-243.5 841,-243.5 841,-224.5 758,-224.5"/>
<text text-anchor="middle" x="799.5" y="-231.5" font-family="Helvetica,sans-Serif" font-size="10.00">ViewAttacher.h</text>
</a>
</g>
</g>
<!-- Node26&#45;&gt;Node33 -->
<g id="edge42" class="edge"><title>Node26&#45;&gt;Node33</title>
<path fill="none" stroke="midnightblue" d="M758.953,-336.368C766.117,-318.456 782.731,-276.923 792.321,-252.948"/>
<polygon fill="midnightblue" stroke="midnightblue" points="795.599,-254.176 796.063,-243.591 789.1,-251.576 795.599,-254.176"/>
</g>
<!-- Node34 -->
<g id="node34" class="node"><title>Node34</title>
<g id="a_node34"><a xlink:href="_view_8h.html" target="_top" xlink:title="View.h">
<polygon fill="none" stroke="black" points="641,-280.5 641,-299.5 688,-299.5 688,-280.5 641,-280.5"/>
<text text-anchor="middle" x="664.5" y="-287.5" font-family="Helvetica,sans-Serif" font-size="10.00">View.h</text>
</a>
</g>
</g>
<!-- Node26&#45;&gt;Node34 -->
<g id="edge41" class="edge"><title>Node26&#45;&gt;Node34</title>
<path fill="none" stroke="midnightblue" d="M740.879,-336.324C726.551,-327.822 704.487,-314.729 687.751,-304.797"/>
<polygon fill="midnightblue" stroke="midnightblue" points="689.47,-301.748 679.084,-299.655 685.898,-307.768 689.47,-301.748"/>
</g>
<!-- Node27&#45;&gt;Node24 -->
<g id="edge29" class="edge"><title>Node27&#45;&gt;Node24</title>
<path fill="none" stroke="midnightblue" d="M735.232,-280.224C735.244,-266.949 736.936,-241.463 748.5,-224 757.521,-210.377 772.217,-199.763 785.454,-192.272"/>
<polygon fill="midnightblue" stroke="midnightblue" points="787.099,-195.362 794.297,-187.588 783.822,-189.176 787.099,-195.362"/>
</g>
<!-- Node27&#45;&gt;Node25 -->
<g id="edge39" class="edge"><title>Node27&#45;&gt;Node25</title>
<path fill="none" stroke="midnightblue" d="M711.891,-280.444C687.042,-271.438 647.726,-257.189 619.746,-247.049"/>
<polygon fill="midnightblue" stroke="midnightblue" points="620.593,-243.633 609.999,-243.516 618.208,-250.214 620.593,-243.633"/>
</g>
<!-- Node28 -->
<g id="node28" class="node"><title>Node28</title>
<g id="a_node28"><a xlink:href="_styles_8h.html" target="_top" xlink:title="Styles.h">
<polygon fill="none" stroke="black" points="648,-224.5 648,-243.5 701,-243.5 701,-224.5 648,-224.5"/>
<text text-anchor="middle" x="674.5" y="-231.5" font-family="Helvetica,sans-Serif" font-size="10.00">Styles.h</text>
</a>
</g>
</g>
<!-- Node27&#45;&gt;Node28 -->
<g id="edge30" class="edge"><title>Node27&#45;&gt;Node28</title>
<path fill="none" stroke="midnightblue" d="M725.699,-280.324C716.682,-272.341 703.094,-260.313 692.182,-250.653"/>
<polygon fill="midnightblue" stroke="midnightblue" points="694.287,-247.842 684.479,-243.834 689.647,-253.083 694.287,-247.842"/>
</g>
<!-- Node27&#45;&gt;Node33 -->
<g id="edge40" class="edge"><title>Node27&#45;&gt;Node33</title>
<path fill="none" stroke="midnightblue" d="M745.783,-280.324C755.336,-272.263 769.78,-260.077 781.284,-250.369"/>
<polygon fill="midnightblue" stroke="midnightblue" points="783.644,-252.958 789.03,-243.834 779.13,-247.608 783.644,-252.958"/>
</g>
<!-- Node28&#45;&gt;Node24 -->
<g id="edge31" class="edge"><title>Node28&#45;&gt;Node24</title>
<path fill="none" stroke="midnightblue" d="M696.683,-224.444C719.928,-215.478 756.649,-201.314 782.915,-191.183"/>
<polygon fill="midnightblue" stroke="midnightblue" points="784.35,-194.381 792.42,-187.516 781.831,-187.85 784.35,-194.381"/>
</g>
<!-- Node29 -->
<g id="node29" class="node"><title>Node29</title>
<g id="a_node29"><a xlink:href="_ui_font_8h.html" target="_top" xlink:title="UiFont.h">
<polygon fill="none" stroke="black" points="647.5,-168.5 647.5,-187.5 701.5,-187.5 701.5,-168.5 647.5,-168.5"/>
<text text-anchor="middle" x="674.5" y="-175.5" font-family="Helvetica,sans-Serif" font-size="10.00">UiFont.h</text>
</a>
</g>
</g>
<!-- Node28&#45;&gt;Node29 -->
<g id="edge32" class="edge"><title>Node28&#45;&gt;Node29</title>
<path fill="none" stroke="midnightblue" d="M674.5,-224.083C674.5,-217.006 674.5,-206.861 674.5,-197.986"/>
<polygon fill="midnightblue" stroke="midnightblue" points="678,-197.751 674.5,-187.751 671,-197.751 678,-197.751"/>
</g>
<!-- Node32 -->
<g id="node32" class="node"><title>Node32</title>
<g id="a_node32"><a xlink:href="_color_8h.html" target="_top" xlink:title="Color.h">
<polygon fill="none" stroke="black" points="722.5,-168.5 722.5,-187.5 770.5,-187.5 770.5,-168.5 722.5,-168.5"/>
<text text-anchor="middle" x="746.5" y="-175.5" font-family="Helvetica,sans-Serif" font-size="10.00">Color.h</text>
</a>
</g>
</g>
<!-- Node28&#45;&gt;Node32 -->
<g id="edge36" class="edge"><title>Node28&#45;&gt;Node32</title>
<path fill="none" stroke="midnightblue" d="M686.068,-224.324C696.92,-216.185 713.381,-203.839 726.383,-194.087"/>
<polygon fill="midnightblue" stroke="midnightblue" points="728.821,-196.634 734.721,-187.834 724.621,-191.034 728.821,-196.634"/>
</g>
<!-- Node30 -->
<g id="node30" class="node"><title>Node30</title>
<g id="a_node30"><a xlink:href="_hash_8h.html" target="_top" xlink:title="../Util/Hash.h">
<polygon fill="none" stroke="black" points="615,-112.5 615,-131.5 690,-131.5 690,-112.5 615,-112.5"/>
<text text-anchor="middle" x="652.5" y="-119.5" font-family="Helvetica,sans-Serif" font-size="10.00">../Util/Hash.h</text>
</a>
</g>
</g>
<!-- Node29&#45;&gt;Node30 -->
<g id="edge33" class="edge"><title>Node29&#45;&gt;Node30</title>
<path fill="none" stroke="midnightblue" d="M670.867,-168.083C667.888,-160.77 663.574,-150.181 659.875,-141.103"/>
<polygon fill="midnightblue" stroke="midnightblue" points="663.08,-139.691 656.065,-131.751 656.597,-142.333 663.08,-139.691"/>
</g>
<!-- Node31 -->
<g id="node31" class="node"><title>Node31</title>
<g id="a_node31"><a xlink:href="_sel_fmt_8h.html" target="_top" xlink:title="../Util/SelFmt.h">
<polygon fill="none" stroke="black" points="708,-112.5 708,-131.5 791,-131.5 791,-112.5 708,-112.5"/>
<text text-anchor="middle" x="749.5" y="-119.5" font-family="Helvetica,sans-Serif" font-size="10.00">../Util/SelFmt.h</text>
</a>
</g>
</g>
<!-- Node29&#45;&gt;Node31 -->
<g id="edge34" class="edge"><title>Node29&#45;&gt;Node31</title>
<path fill="none" stroke="midnightblue" d="M686.55,-168.324C697.963,-160.107 715.331,-147.602 728.935,-137.807"/>
<polygon fill="midnightblue" stroke="midnightblue" points="731.16,-140.517 737.231,-131.834 727.07,-134.837 731.16,-140.517"/>
</g>
<!-- Node31&#45;&gt;Node18 -->
<g id="edge35" class="edge"><title>Node31&#45;&gt;Node18</title>
<path fill="none" stroke="midnightblue" d="M760.747,-112.324C771.297,-104.185 787.301,-91.8395 799.942,-82.0874"/>
<polygon fill="midnightblue" stroke="midnightblue" points="802.269,-84.7132 808.049,-75.8339 797.993,-79.1707 802.269,-84.7132"/>
</g>
<!-- Node32&#45;&gt;Node18 -->
<g id="edge37" class="edge"><title>Node32&#45;&gt;Node18</title>
<path fill="none" stroke="midnightblue" d="M760.96,-168.435C773.201,-160.469 790.331,-147.514 800.5,-132 809.664,-118.019 814.51,-99.5167 817.007,-85.8286"/>
<polygon fill="midnightblue" stroke="midnightblue" points="820.509,-86.0884 818.596,-75.6678 813.593,-85.0071 820.509,-86.0884"/>
</g>
<!-- Node32&#45;&gt;Node31 -->
<g id="edge38" class="edge"><title>Node32&#45;&gt;Node31</title>
<path fill="none" stroke="midnightblue" d="M746.995,-168.083C747.389,-161.006 747.952,-150.861 748.445,-141.986"/>
<polygon fill="midnightblue" stroke="midnightblue" points="751.954,-141.93 749.014,-131.751 744.964,-141.542 751.954,-141.93"/>
</g>
<!-- Node35&#45;&gt;Node11 -->
<g id="edge44" class="edge"><title>Node35&#45;&gt;Node11</title>
<path fill="none" stroke="midnightblue" d="M1033.21,-617.979C1030.26,-617.308 1027.35,-616.645 1024.5,-616 970.391,-603.746 908.064,-589.903 867.119,-580.846"/>
<polygon fill="midnightblue" stroke="midnightblue" points="867.708,-577.391 857.188,-578.65 866.197,-584.226 867.708,-577.391"/>
</g>
<!-- Node36&#45;&gt;Node11 -->
<g id="edge46" class="edge"><title>Node36&#45;&gt;Node11</title>
<path fill="none" stroke="midnightblue" d="M517.786,-684.96C520.733,-684.293 523.652,-683.637 526.5,-683 600.175,-666.533 623.063,-676.626 692.5,-647 715.176,-637.325 717.385,-628.726 738.5,-616 757.333,-604.649 779.254,-592.954 795.979,-584.333"/>
<polygon fill="midnightblue" stroke="midnightblue" points="797.852,-587.306 805.163,-579.638 794.666,-581.073 797.852,-587.306"/>
</g>
<!-- Node37&#45;&gt;Node11 -->
<g id="edge52" class="edge"><title>Node37&#45;&gt;Node11</title>
<path fill="none" stroke="midnightblue" d="M675.238,-616.399C708.733,-606.073 753.634,-592.231 785.016,-582.556"/>
<polygon fill="midnightblue" stroke="midnightblue" points="786.173,-585.862 794.699,-579.571 784.111,-579.172 786.173,-585.862"/>
</g>
<!-- Node37&#45;&gt;Node12 -->
<g id="edge48" class="edge"><title>Node37&#45;&gt;Node12</title>
<path fill="none" stroke="midnightblue" d="M655.986,-616.337C698.015,-593.863 779.422,-550.333 820.501,-528.367"/>
<polygon fill="midnightblue" stroke="midnightblue" points="822.394,-531.324 829.562,-523.522 819.093,-525.151 822.394,-531.324"/>
</g>
<!-- Node37&#45;&gt;Node21 -->
<g id="edge53" class="edge"><title>Node37&#45;&gt;Node21</title>
<path fill="none" stroke="midnightblue" d="M635.328,-616.198C639.063,-606.237 643.561,-592.543 645.5,-580 651.06,-544.041 645.02,-501.519 640.502,-477.663"/>
<polygon fill="midnightblue" stroke="midnightblue" points="643.872,-476.672 638.464,-467.561 637.011,-478.056 643.872,-476.672"/>
</g>
<!-- Node38 -->
<g id="node38" class="node"><title>Node38</title>
<g id="a_node38"><a xlink:href="_exception_8h.html" target="_top" xlink:title="../Exception.h">
<polygon fill="none" stroke="black" points="481,-560.5 481,-579.5 558,-579.5 558,-560.5 481,-560.5"/>
<text text-anchor="middle" x="519.5" y="-567.5" font-family="Helvetica,sans-Serif" font-size="10.00">../Exception.h</text>
</a>
</g>
</g>
<!-- Node37&#45;&gt;Node38 -->
<g id="edge49" class="edge"><title>Node37&#45;&gt;Node38</title>
<path fill="none" stroke="midnightblue" d="M603.432,-616.399C585.635,-606.773 562.188,-594.09 544.601,-584.577"/>
<polygon fill="midnightblue" stroke="midnightblue" points="545.967,-581.337 535.506,-579.658 542.636,-587.494 545.967,-581.337"/>
</g>
<!-- Node40 -->
<g id="node40" class="node"><title>Node40</title>
<g id="a_node40"><a xlink:href="_hud_cell_8h.html" target="_top" xlink:title="HudCell.h">
<polygon fill="none" stroke="black" points="576.5,-560.5 576.5,-579.5 636.5,-579.5 636.5,-560.5 576.5,-560.5"/>
<text text-anchor="middle" x="606.5" y="-567.5" font-family="Helvetica,sans-Serif" font-size="10.00">HudCell.h</text>
</a>
</g>
</g>
<!-- Node37&#45;&gt;Node40 -->
<g id="edge51" class="edge"><title>Node37&#45;&gt;Node40</title>
<path fill="none" stroke="midnightblue" d="M624.049,-616.399C620.879,-608.199 616.852,-597.781 613.456,-588.994"/>
<polygon fill="midnightblue" stroke="midnightblue" points="616.717,-587.723 609.847,-579.658 610.188,-590.247 616.717,-587.723"/>
</g>
<!-- Node39 -->
<g id="node39" class="node"><title>Node39</title>
<polygon fill="none" stroke="#bfbfbf" points="490,-504.5 490,-523.5 549,-523.5 549,-504.5 490,-504.5"/>
<text text-anchor="middle" x="519.5" y="-511.5" font-family="Helvetica,sans-Serif" font-size="10.00">exception</text>
</g>
<!-- Node38&#45;&gt;Node39 -->
<g id="edge50" class="edge"><title>Node38&#45;&gt;Node39</title>
<path fill="none" stroke="midnightblue" d="M519.5,-560.083C519.5,-553.006 519.5,-542.861 519.5,-533.986"/>
<polygon fill="midnightblue" stroke="midnightblue" points="523,-533.751 519.5,-523.751 516,-533.751 523,-533.751"/>
</g>
<!-- Node41&#45;&gt;Node11 -->
<g id="edge56" class="edge"><title>Node41&#45;&gt;Node11</title>
<path fill="none" stroke="midnightblue" d="M643.845,-684.848C673.137,-676.638 709.179,-664.223 738.5,-647 753.246,-638.338 786.724,-606.37 806.677,-586.759"/>
<polygon fill="midnightblue" stroke="midnightblue" points="809.181,-589.205 813.833,-579.686 804.26,-584.227 809.181,-589.205"/>
</g>
<!-- Node42&#45;&gt;Node11 -->
<g id="edge58" class="edge"><title>Node42&#45;&gt;Node11</title>
<path fill="none" stroke="midnightblue" d="M737.035,-683.31C750.067,-674.021 766.44,-661.033 778.5,-647 793.825,-629.168 806.654,-605.24 814.432,-589.032"/>
<polygon fill="midnightblue" stroke="midnightblue" points="817.757,-590.181 818.79,-579.637 811.407,-587.236 817.757,-590.181"/>
</g>
<!-- Node43&#45;&gt;Node11 -->
<g id="edge60" class="edge"><title>Node43&#45;&gt;Node11</title>
<path fill="none" stroke="midnightblue" d="M839.394,-683.479C835.96,-660.616 829.153,-615.296 825.311,-589.713"/>
<polygon fill="midnightblue" stroke="midnightblue" points="828.767,-589.158 823.82,-579.789 821.844,-590.198 828.767,-589.158"/>
</g>
<!-- Node44&#45;&gt;Node2 -->
<g id="edge65" class="edge"><title>Node44&#45;&gt;Node2</title>
<path fill="none" stroke="midnightblue" d="M309.227,-688.734C296.338,-679.527 275.626,-664.733 258.681,-652.629"/>
<polygon fill="midnightblue" stroke="midnightblue" points="260.396,-649.553 250.225,-646.589 256.328,-655.25 260.396,-649.553"/>
</g>
<!-- Node44&#45;&gt;Node4 -->
<g id="edge63" class="edge"><title>Node44&#45;&gt;Node4</title>
<path fill="none" stroke="midnightblue" d="M320.744,-688.805C318.978,-668.494 314.548,-617.553 312.133,-589.777"/>
<polygon fill="midnightblue" stroke="midnightblue" points="315.615,-589.415 311.261,-579.756 308.641,-590.021 315.615,-589.415"/>
</g>
<!-- Node44&#45;&gt;Node37 -->
<g id="edge64" class="edge"><title>Node44&#45;&gt;Node37</title>
<path fill="none" stroke="midnightblue" d="M346.646,-688.947C353.373,-686.832 360.672,-684.69 367.5,-683 454.323,-661.513 477.864,-664.886 565.5,-647 565.601,-646.979 565.702,-646.959 565.804,-646.938"/>
<polygon fill="midnightblue" stroke="midnightblue" points="566.343,-650.401 575.414,-644.926 564.909,-643.55 566.343,-650.401"/>
</g>
<!-- Node45 -->
<g id="node45" class="node"><title>Node45</title>
<polygon fill="none" stroke="#bfbfbf" points="337.5,-622 337.5,-641 437.5,-641 437.5,-622 337.5,-622"/>
<text text-anchor="middle" x="387.5" y="-629" font-family="Helvetica,sans-Serif" font-size="10.00">luabind/luabind.hpp</text>
</g>
<!-- Node44&#45;&gt;Node45 -->
<g id="edge62" class="edge"><title>Node44&#45;&gt;Node45</title>
<path fill="none" stroke="midnightblue" d="M330.401,-688.734C340.891,-678.403 358.524,-661.037 371.425,-648.332"/>
<polygon fill="midnightblue" stroke="midnightblue" points="374.071,-650.638 378.74,-641.127 369.159,-645.651 374.071,-650.638"/>
</g>
<!-- Node46 -->
<g id="node46" class="node"><title>Node46</title>
<g id="a_node46"><a xlink:href="_peer_8h.html" target="_top" xlink:title="../../../engine/Script\l/Peer.h">
<polygon fill="none" stroke="black" points="456,-616.5 456,-646.5 557,-646.5 557,-616.5 456,-616.5"/>
<text text-anchor="start" x="464" y="-634.5" font-family="Helvetica,sans-Serif" font-size="10.00">../../../engine/Script</text>
<text text-anchor="middle" x="506.5" y="-623.5" font-family="Helvetica,sans-Serif" font-size="10.00">/Peer.h</text>
</a>
</g>
</g>
<!-- Node44&#45;&gt;Node46 -->
<g id="edge66" class="edge"><title>Node44&#45;&gt;Node46</title>
<path fill="none" stroke="midnightblue" d="M346.067,-688.869C374.187,-678.988 420.976,-662.549 456.789,-649.966"/>
<polygon fill="midnightblue" stroke="midnightblue" points="458.3,-653.145 466.574,-646.528 455.979,-646.541 458.3,-653.145"/>
</g>
</g>
</svg>
