<?xml version="1.0" encoding="UTF-8" standalone="no"?>
<!DOCTYPE svg PUBLIC "-//W3C//DTD SVG 1.1//EN"
 "http://www.w3.org/Graphics/SVG/1.1/DTD/svg11.dtd">
<!-- Generated by graphviz version 2.26.3 (20100126.1600)
 -->
<!-- Title: Hud.cpp Pages: 1 -->
<svg width="557pt" height="668pt"
 viewBox="0.00 0.00 557.00 668.00" xmlns="http://www.w3.org/2000/svg" xmlns:xlink="http://www.w3.org/1999/xlink">
<g id="graph1" class="graph" transform="scale(1 1) rotate(0) translate(4 664)">
<title>Hud.cpp</title>
<!-- Node1 -->
<g id="node1" class="node"><title>Node1</title>
<polygon fill="#bfbfbf" stroke="black" points="269.5,-639 269.5,-659 322.5,-659 322.5,-639 269.5,-639"/>
<text text-anchor="middle" x="296" y="-646" font-family="FreeSans" font-size="10.00">Hud.cpp</text>
</g>
<!-- Node2 -->
<g id="node3" class="node"><title>Node2</title>
<polygon fill="none" stroke="#bfbfbf" points="210.5,-581 210.5,-601 299.5,-601 299.5,-581 210.5,-581"/>
<text text-anchor="middle" x="255" y="-588" font-family="FreeSans" font-size="10.00">../Player/Player.h</text>
</g>
<!-- Node1&#45;&gt;Node2 -->
<g id="edge2" class="edge"><title>Node1&#45;&gt;Node2</title>
<path fill="none" stroke="midnightblue" d="M288.858,-638.897C283.167,-630.846 275.043,-619.353 268.179,-609.643"/>
<polygon fill="midnightblue" stroke="midnightblue" points="270.966,-607.523 262.336,-601.378 265.25,-611.564 270.966,-607.523"/>
</g>
<!-- Node3 -->
<g id="node5" class="node"><title>Node3</title>
<a xlink:href="_hud_8h.html" target="_top" xlink:title="Hud.h">
<polygon fill="none" stroke="black" points="317,-581 317,-601 359,-601 359,-581 317,-581"/>
<text text-anchor="middle" x="338" y="-588" font-family="FreeSans" font-size="10.00">Hud.h</text>
</a>
</g>
<!-- Node1&#45;&gt;Node3 -->
<g id="edge4" class="edge"><title>Node1&#45;&gt;Node3</title>
<path fill="none" stroke="midnightblue" d="M303.316,-638.897C309.146,-630.846 317.468,-619.353 324.5,-609.643"/>
<polygon fill="midnightblue" stroke="midnightblue" points="327.455,-611.53 330.485,-601.378 321.785,-607.424 327.455,-611.53"/>
</g>
<!-- Node4 -->
<g id="node7" class="node"><title>Node4</title>
<a xlink:href="_o_s_8h.html" target="_top" xlink:title="../Util/OS.h">
<polygon fill="none" stroke="black" points="306,-465 306,-485 370,-485 370,-465 306,-465"/>
<text text-anchor="middle" x="338" y="-472" font-family="FreeSans" font-size="10.00">../Util/OS.h</text>
</a>
</g>
<!-- Node3&#45;&gt;Node4 -->
<g id="edge6" class="edge"><title>Node3&#45;&gt;Node4</title>
<path fill="none" stroke="midnightblue" d="M338,-580.706C338,-561.568 338,-520.198 338,-495.265"/>
<polygon fill="midnightblue" stroke="midnightblue" points="341.5,-495.105 338,-485.106 334.5,-495.106 341.5,-495.105"/>
</g>
<!-- Node12 -->
<g id="node23" class="node"><title>Node12</title>
<a xlink:href="_exception_8h.html" target="_top" xlink:title="../Exception.h">
<polygon fill="none" stroke="black" points="366,-523 366,-543 440,-543 440,-523 366,-523"/>
<text text-anchor="middle" x="403" y="-530" font-family="FreeSans" font-size="10.00">../Exception.h</text>
</a>
</g>
<!-- Node3&#45;&gt;Node12 -->
<g id="edge22" class="edge"><title>Node3&#45;&gt;Node12</title>
<path fill="none" stroke="midnightblue" d="M349.322,-580.897C358.805,-572.435 372.549,-560.172 383.756,-550.172"/>
<polygon fill="midnightblue" stroke="midnightblue" points="386.239,-552.647 391.37,-543.378 381.578,-547.424 386.239,-552.647"/>
</g>
<!-- Node14 -->
<g id="node27" class="node"><title>Node14</title>
<a xlink:href="_hud_cell_8h.html" target="_top" xlink:title="HudCell.h">
<polygon fill="none" stroke="black" points="457.5,-523 457.5,-543 516.5,-543 516.5,-523 457.5,-523"/>
<text text-anchor="middle" x="487" y="-530" font-family="FreeSans" font-size="10.00">HudCell.h</text>
</a>
</g>
<!-- Node3&#45;&gt;Node14 -->
<g id="edge26" class="edge"><title>Node3&#45;&gt;Node14</title>
<path fill="none" stroke="midnightblue" d="M359.032,-582.813C382.999,-573.484 422.571,-558.08 451.373,-546.868"/>
<polygon fill="midnightblue" stroke="midnightblue" points="453.02,-549.983 461.069,-543.094 450.48,-543.46 453.02,-549.983"/>
</g>
<!-- Node15 -->
<g id="node29" class="node"><title>Node15</title>
<a xlink:href="_hud_decor_8h.html" target="_top" xlink:title="HudDecor.h">
<polygon fill="none" stroke="black" points="242,-523 242,-543 310,-543 310,-523 242,-523"/>
<text text-anchor="middle" x="276" y="-530" font-family="FreeSans" font-size="10.00">HudDecor.h</text>
</a>
</g>
<!-- Node3&#45;&gt;Node15 -->
<g id="edge28" class="edge"><title>Node3&#45;&gt;Node15</title>
<path fill="none" stroke="midnightblue" d="M327.2,-580.897C318.243,-572.517 305.3,-560.409 294.668,-550.464"/>
<polygon fill="midnightblue" stroke="midnightblue" points="296.787,-547.653 287.093,-543.378 292.005,-552.765 296.787,-547.653"/>
</g>
<!-- Node17 -->
<g id="node34" class="node"><title>Node17</title>
<a xlink:href="_base_container_8h.html" target="_top" xlink:title="BaseContainer.h">
<polygon fill="none" stroke="black" points="73,-407 73,-427 161,-427 161,-407 73,-407"/>
<text text-anchor="middle" x="117" y="-414" font-family="FreeSans" font-size="10.00">BaseContainer.h</text>
</a>
</g>
<!-- Node3&#45;&gt;Node17 -->
<g id="edge74" class="edge"><title>Node3&#45;&gt;Node17</title>
<path fill="none" stroke="midnightblue" d="M316.917,-582.755C290.53,-572.233 247.083,-554.177 233,-544 189.292,-512.415 149.526,-462.195 129.89,-435.347"/>
<polygon fill="midnightblue" stroke="midnightblue" points="132.708,-433.271 124.026,-427.199 127.026,-437.36 132.708,-433.271"/>
</g>
<!-- Node5 -->
<g id="node9" class="node"><title>Node5</title>
<polygon fill="none" stroke="#bfbfbf" points="363,-407 363,-427 405,-427 405,-407 363,-407"/>
<text text-anchor="middle" x="384" y="-414" font-family="FreeSans" font-size="10.00">locale</text>
</g>
<!-- Node4&#45;&gt;Node5 -->
<g id="edge8" class="edge"><title>Node4&#45;&gt;Node5</title>
<path fill="none" stroke="midnightblue" d="M346.013,-464.897C352.463,-456.764 361.699,-445.118 369.449,-435.347"/>
<polygon fill="midnightblue" stroke="midnightblue" points="372.298,-437.387 375.769,-427.378 366.813,-433.038 372.298,-437.387"/>
</g>
<!-- Node6 -->
<g id="node11" class="node"><title>Node6</title>
<polygon fill="none" stroke="#bfbfbf" points="423,-407 423,-427 453,-427 453,-407 423,-407"/>
<text text-anchor="middle" x="438" y="-414" font-family="FreeSans" font-size="10.00">set</text>
</g>
<!-- Node4&#45;&gt;Node6 -->
<g id="edge10" class="edge"><title>Node4&#45;&gt;Node6</title>
<path fill="none" stroke="midnightblue" d="M355.419,-464.897C371.62,-455.5 395.906,-441.414 413.952,-430.948"/>
<polygon fill="midnightblue" stroke="midnightblue" points="415.85,-433.893 422.744,-425.848 412.338,-427.838 415.85,-433.893"/>
</g>
<!-- Node7 -->
<g id="node13" class="node"><title>Node7</title>
<polygon fill="none" stroke="#bfbfbf" points="508.5,-407 508.5,-427 549.5,-427 549.5,-407 508.5,-407"/>
<text text-anchor="middle" x="529" y="-414" font-family="FreeSans" font-size="10.00">string</text>
</g>
<!-- Node4&#45;&gt;Node7 -->
<g id="edge12" class="edge"><title>Node4&#45;&gt;Node7</title>
<path fill="none" stroke="midnightblue" d="M370.237,-465.575C402.019,-456.23 451.943,-441.408 495,-428 496.066,-427.668 497.151,-427.328 498.245,-426.984"/>
<polygon fill="midnightblue" stroke="midnightblue" points="499.701,-430.193 508.165,-423.821 497.575,-423.524 499.701,-430.193"/>
</g>
<!-- Node8 -->
<g id="node15" class="node"><title>Node8</title>
<polygon fill="none" stroke="#bfbfbf" points="179,-407 179,-427 223,-427 223,-407 179,-407"/>
<text text-anchor="middle" x="201" y="-414" font-family="FreeSans" font-size="10.00">vector</text>
</g>
<!-- Node4&#45;&gt;Node8 -->
<g id="edge14" class="edge"><title>Node4&#45;&gt;Node8</title>
<path fill="none" stroke="midnightblue" d="M314.136,-464.897C291.532,-455.327 257.44,-440.894 232.59,-430.374"/>
<polygon fill="midnightblue" stroke="midnightblue" points="233.804,-427.087 223.23,-426.411 231.075,-433.533 233.804,-427.087"/>
</g>
<!-- Node9 -->
<g id="node17" class="node"><title>Node9</title>
<polygon fill="none" stroke="#bfbfbf" points="240.5,-407 240.5,-427 345.5,-427 345.5,-407 240.5,-407"/>
<text text-anchor="middle" x="293" y="-414" font-family="FreeSans" font-size="10.00">boost/filesystem.hpp</text>
</g>
<!-- Node4&#45;&gt;Node9 -->
<g id="edge16" class="edge"><title>Node4&#45;&gt;Node9</title>
<path fill="none" stroke="midnightblue" d="M330.162,-464.897C323.851,-456.764 314.816,-445.118 307.235,-435.347"/>
<polygon fill="midnightblue" stroke="midnightblue" points="309.947,-433.133 301.052,-427.378 304.416,-437.424 309.947,-433.133"/>
</g>
<!-- Node10 -->
<g id="node19" class="node"><title>Node10</title>
<a xlink:href="_m_r___types_8h.html" target="_top" xlink:title="MR_Types.h">
<polygon fill="none" stroke="black" points="186.5,-59 186.5,-79 257.5,-79 257.5,-59 186.5,-59"/>
<text text-anchor="middle" x="222" y="-66" font-family="FreeSans" font-size="10.00">MR_Types.h</text>
</a>
</g>
<!-- Node4&#45;&gt;Node10 -->
<g id="edge18" class="edge"><title>Node4&#45;&gt;Node10</title>
<path fill="none" stroke="midnightblue" d="M370.203,-466.391C402.551,-457.134 449.368,-441.874 462,-428 483.415,-404.481 481,-390.808 481,-359 481,-359 481,-359 481,-185 481,-138.826 342.159,-98.0826 267.786,-79.5697"/>
<polygon fill="midnightblue" stroke="midnightblue" points="268.287,-76.0888 257.741,-77.1067 266.62,-82.8874 268.287,-76.0888"/>
</g>
<!-- Node11 -->
<g id="node21" class="node"><title>Node11</title>
<polygon fill="none" stroke="#bfbfbf" points="193,-1 193,-21 251,-21 251,-1 193,-1"/>
<text text-anchor="middle" x="222" y="-8" font-family="FreeSans" font-size="10.00">inttypes.h</text>
</g>
<!-- Node10&#45;&gt;Node11 -->
<g id="edge20" class="edge"><title>Node10&#45;&gt;Node11</title>
<path fill="none" stroke="midnightblue" d="M222,-58.8972C222,-51.339 222,-40.7476 222,-31.4458"/>
<polygon fill="midnightblue" stroke="midnightblue" points="225.5,-31.3776 222,-21.3776 218.5,-31.3776 225.5,-31.3776"/>
</g>
<!-- Node13 -->
<g id="node25" class="node"><title>Node13</title>
<polygon fill="none" stroke="#bfbfbf" points="388,-465 388,-485 446,-485 446,-465 388,-465"/>
<text text-anchor="middle" x="417" y="-472" font-family="FreeSans" font-size="10.00">exception</text>
</g>
<!-- Node12&#45;&gt;Node13 -->
<g id="edge24" class="edge"><title>Node12&#45;&gt;Node13</title>
<path fill="none" stroke="midnightblue" d="M405.439,-522.897C407.283,-515.257 409.875,-504.517 412.138,-495.143"/>
<polygon fill="midnightblue" stroke="midnightblue" points="415.551,-495.92 414.495,-485.378 408.746,-494.277 415.551,-495.92"/>
</g>
<!-- Node15&#45;&gt;Node4 -->
<g id="edge30" class="edge"><title>Node15&#45;&gt;Node4</title>
<path fill="none" stroke="midnightblue" d="M286.8,-522.897C295.757,-514.517 308.7,-502.409 319.332,-492.464"/>
<polygon fill="midnightblue" stroke="midnightblue" points="321.995,-494.765 326.907,-485.378 317.213,-489.653 321.995,-494.765"/>
</g>
<!-- Node16 -->
<g id="node32" class="node"><title>Node16</title>
<a xlink:href="_container_8h.html" target="_top" xlink:title="Container.h">
<polygon fill="none" stroke="black" points="215.5,-465 215.5,-485 280.5,-485 280.5,-465 215.5,-465"/>
<text text-anchor="middle" x="248" y="-472" font-family="FreeSans" font-size="10.00">Container.h</text>
</a>
</g>
<!-- Node15&#45;&gt;Node16 -->
<g id="edge32" class="edge"><title>Node15&#45;&gt;Node16</title>
<path fill="none" stroke="midnightblue" d="M271.123,-522.897C267.355,-515.093 262.026,-504.054 257.433,-494.54"/>
<polygon fill="midnightblue" stroke="midnightblue" points="260.509,-492.861 253.01,-485.378 254.205,-495.905 260.509,-492.861"/>
</g>
<!-- Node16&#45;&gt;Node17 -->
<g id="edge34" class="edge"><title>Node16&#45;&gt;Node17</title>
<path fill="none" stroke="midnightblue" d="M225.182,-464.897C204.178,-455.598 172.803,-441.707 149.242,-431.275"/>
<polygon fill="midnightblue" stroke="midnightblue" points="150.557,-428.03 139.997,-427.182 147.723,-434.431 150.557,-428.03"/>
</g>
<!-- Node18 -->
<g id="node36" class="node"><title>Node18</title>
<a xlink:href="_ui_view_model_8h.html" target="_top" xlink:title="UiViewModel.h">
<polygon fill="none" stroke="black" points="116,-349 116,-369 198,-369 198,-349 116,-349"/>
<text text-anchor="middle" x="157" y="-356" font-family="FreeSans" font-size="10.00">UiViewModel.h</text>
</a>
</g>
<!-- Node17&#45;&gt;Node18 -->
<g id="edge36" class="edge"><title>Node17&#45;&gt;Node18</title>
<path fill="none" stroke="midnightblue" d="M123.967,-406.897C129.52,-398.846 137.446,-387.353 144.142,-377.643"/>
<polygon fill="midnightblue" stroke="midnightblue" points="147.047,-379.597 149.843,-369.378 141.284,-375.623 147.047,-379.597"/>
</g>
<!-- Node18&#45;&gt;Node10 -->
<g id="edge38" class="edge"><title>Node18&#45;&gt;Node10</title>
<path fill="none" stroke="midnightblue" d="M118.593,-348.943C72.1138,-334.179 0,-301.799 0,-243 0,-243 0,-243 0,-185 0,-106.159 111.345,-80.8092 176.325,-72.7278"/>
<polygon fill="midnightblue" stroke="midnightblue" points="176.799,-76.1965 186.332,-71.5735 175.997,-69.2426 176.799,-76.1965"/>
</g>
<!-- Node19 -->
<g id="node39" class="node"><title>Node19</title>
<a xlink:href="_vec_8h.html" target="_top" xlink:title="../Vec.h">
<polygon fill="none" stroke="black" points="261.5,-175 261.5,-195 310.5,-195 310.5,-175 261.5,-175"/>
<text text-anchor="middle" x="286" y="-182" font-family="FreeSans" font-size="10.00">../Vec.h</text>
</a>
</g>
<!-- Node18&#45;&gt;Node19 -->
<g id="edge40" class="edge"><title>Node18&#45;&gt;Node19</title>
<path fill="none" stroke="midnightblue" d="M169.444,-348.875C190.226,-331.413 232.248,-293.674 258,-254 267.872,-238.792 275.331,-219.537 280.058,-205.235"/>
<polygon fill="midnightblue" stroke="midnightblue" points="283.486,-206.001 283.135,-195.412 276.806,-203.909 283.486,-206.001"/>
</g>
<!-- Node20 -->
<g id="node41" class="node"><title>Node20</title>
<a xlink:href="_ui_layout_flags_8h.html" target="_top" xlink:title="UiLayoutFlags.h">
<polygon fill="none" stroke="black" points="327.5,-175 327.5,-195 414.5,-195 414.5,-175 327.5,-175"/>
<text text-anchor="middle" x="371" y="-182" font-family="FreeSans" font-size="10.00">UiLayoutFlags.h</text>
</a>
</g>
<!-- Node18&#45;&gt;Node20 -->
<g id="edge42" class="edge"><title>Node18&#45;&gt;Node20</title>
<path fill="none" stroke="midnightblue" d="M175.717,-348.968C191.741,-340.058 215.142,-326.27 234,-312 280.44,-276.858 329.136,-228.531 354.074,-202.805"/>
<polygon fill="midnightblue" stroke="midnightblue" points="356.892,-204.925 361.303,-195.292 351.848,-200.072 356.892,-204.925"/>
</g>
<!-- Node21 -->
<g id="node44" class="node"><title>Node21</title>
<a xlink:href="_view_model_8h.html" target="_top" xlink:title="ViewModel.h">
<polygon fill="none" stroke="black" points="121,-291 121,-311 193,-311 193,-291 121,-291"/>
<text text-anchor="middle" x="157" y="-298" font-family="FreeSans" font-size="10.00">ViewModel.h</text>
</a>
</g>
<!-- Node18&#45;&gt;Node21 -->
<g id="edge46" class="edge"><title>Node18&#45;&gt;Node21</title>
<path fill="none" stroke="midnightblue" d="M157,-348.897C157,-341.339 157,-330.748 157,-321.446"/>
<polygon fill="midnightblue" stroke="midnightblue" points="160.5,-321.378 157,-311.378 153.5,-321.378 160.5,-321.378"/>
</g>
<!-- Node20&#45;&gt;Node10 -->
<g id="edge44" class="edge"><title>Node20&#45;&gt;Node10</title>
<path fill="none" stroke="midnightblue" d="M370.125,-174.688C368.33,-159.816 362.941,-132.343 347,-116 325.899,-94.3662 293.879,-82.578 267.53,-76.2179"/>
<polygon fill="midnightblue" stroke="midnightblue" points="268.266,-72.7961 257.744,-74.0369 266.743,-79.6285 268.266,-72.7961"/>
</g>
<!-- Node22 -->
<g id="node46" class="node"><title>Node22</title>
<a xlink:href="_display_8h.html" target="_top" xlink:title="Display.h">
<polygon fill="none" stroke="black" points="129,-233 129,-253 185,-253 185,-233 129,-233"/>
<text text-anchor="middle" x="157" y="-240" font-family="FreeSans" font-size="10.00">Display.h</text>
</a>
</g>
<!-- Node21&#45;&gt;Node22 -->
<g id="edge48" class="edge"><title>Node21&#45;&gt;Node22</title>
<path fill="none" stroke="midnightblue" d="M157,-290.897C157,-283.339 157,-272.748 157,-263.446"/>
<polygon fill="midnightblue" stroke="midnightblue" points="160.5,-263.378 157,-253.378 153.5,-263.378 160.5,-263.378"/>
</g>
<!-- Node27 -->
<g id="node61" class="node"><title>Node27</title>
<a xlink:href="_view_attacher_8h.html" target="_top" xlink:title="ViewAttacher.h">
<polygon fill="none" stroke="black" points="27.5,-175 27.5,-195 110.5,-195 110.5,-175 27.5,-175"/>
<text text-anchor="middle" x="69" y="-182" font-family="FreeSans" font-size="10.00">ViewAttacher.h</text>
</a>
</g>
<!-- Node21&#45;&gt;Node27 -->
<g id="edge72" class="edge"><title>Node21&#45;&gt;Node27</title>
<path fill="none" stroke="midnightblue" d="M148.972,-290.984C141.416,-281.515 129.826,-266.88 120,-254 107.104,-237.096 92.7339,-217.592 82.5428,-203.642"/>
<polygon fill="midnightblue" stroke="midnightblue" points="85.2252,-201.38 76.5067,-195.36 79.5682,-205.503 85.2252,-201.38"/>
</g>
<!-- Node28 -->
<g id="node63" class="node"><title>Node28</title>
<a xlink:href="_view_8h.html" target="_top" xlink:title="View.h">
<polygon fill="none" stroke="black" points="203,-233 203,-253 249,-253 249,-233 203,-233"/>
<text text-anchor="middle" x="226" y="-240" font-family="FreeSans" font-size="10.00">View.h</text>
</a>
</g>
<!-- Node21&#45;&gt;Node28 -->
<g id="edge70" class="edge"><title>Node21&#45;&gt;Node28</title>
<path fill="none" stroke="midnightblue" d="M169.019,-290.897C179.183,-282.353 193.959,-269.933 205.917,-259.881"/>
<polygon fill="midnightblue" stroke="midnightblue" points="208.251,-262.491 213.654,-253.378 203.747,-257.133 208.251,-262.491"/>
</g>
<!-- Node22&#45;&gt;Node19 -->
<g id="edge50" class="edge"><title>Node22&#45;&gt;Node19</title>
<path fill="none" stroke="midnightblue" d="M179.47,-232.897C200.061,-223.639 230.775,-209.83 253.94,-199.415"/>
<polygon fill="midnightblue" stroke="midnightblue" points="255.669,-202.475 263.355,-195.182 252.799,-196.09 255.669,-202.475"/>
</g>
<!-- Node22&#45;&gt;Node20 -->
<g id="edge66" class="edge"><title>Node22&#45;&gt;Node20</title>
<path fill="none" stroke="midnightblue" d="M185.257,-234.506C188.206,-233.648 191.162,-232.799 194,-232 237.038,-219.891 286.2,-206.904 321.773,-197.657"/>
<polygon fill="midnightblue" stroke="midnightblue" points="323.09,-200.931 331.891,-195.032 321.332,-194.155 323.09,-200.931"/>
</g>
<!-- Node23 -->
<g id="node49" class="node"><title>Node23</title>
<a xlink:href="_ui_font_8h.html" target="_top" xlink:title="UiFont.h">
<polygon fill="none" stroke="black" points="127.5,-175 127.5,-195 180.5,-195 180.5,-175 127.5,-175"/>
<text text-anchor="middle" x="154" y="-182" font-family="FreeSans" font-size="10.00">UiFont.h</text>
</a>
</g>
<!-- Node22&#45;&gt;Node23 -->
<g id="edge52" class="edge"><title>Node22&#45;&gt;Node23</title>
<path fill="none" stroke="midnightblue" d="M156.477,-232.897C156.087,-225.339 155.539,-214.748 155.058,-205.446"/>
<polygon fill="midnightblue" stroke="midnightblue" points="158.549,-205.183 154.537,-195.378 151.558,-205.545 158.549,-205.183"/>
</g>
<!-- Node25 -->
<g id="node54" class="node"><title>Node25</title>
<a xlink:href="_color_8h.html" target="_top" xlink:title="Color.h">
<polygon fill="none" stroke="black" points="197.5,-175 197.5,-195 244.5,-195 244.5,-175 197.5,-175"/>
<text text-anchor="middle" x="221" y="-182" font-family="FreeSans" font-size="10.00">Color.h</text>
</a>
</g>
<!-- Node22&#45;&gt;Node25 -->
<g id="edge58" class="edge"><title>Node22&#45;&gt;Node25</title>
<path fill="none" stroke="midnightblue" d="M168.148,-232.897C177.485,-224.435 191.018,-212.172 202.052,-202.172"/>
<polygon fill="midnightblue" stroke="midnightblue" points="204.489,-204.686 209.549,-195.378 199.789,-199.499 204.489,-204.686"/>
</g>
<!-- Node22&#45;&gt;Node27 -->
<g id="edge68" class="edge"><title>Node22&#45;&gt;Node27</title>
<path fill="none" stroke="midnightblue" d="M141.672,-232.897C128.252,-224.052 108.53,-211.054 93.0165,-200.829"/>
<polygon fill="midnightblue" stroke="midnightblue" points="94.7237,-197.762 84.448,-195.182 90.8715,-203.607 94.7237,-197.762"/>
</g>
<!-- Node24 -->
<g id="node51" class="node"><title>Node24</title>
<a xlink:href="_sel_fmt_8h.html" target="_top" xlink:title="../Util/SelFmt.h">
<polygon fill="none" stroke="black" points="113.5,-117 113.5,-137 194.5,-137 194.5,-117 113.5,-117"/>
<text text-anchor="middle" x="154" y="-124" font-family="FreeSans" font-size="10.00">../Util/SelFmt.h</text>
</a>
</g>
<!-- Node23&#45;&gt;Node24 -->
<g id="edge54" class="edge"><title>Node23&#45;&gt;Node24</title>
<path fill="none" stroke="midnightblue" d="M154,-174.897C154,-167.339 154,-156.748 154,-147.446"/>
<polygon fill="midnightblue" stroke="midnightblue" points="157.5,-147.378 154,-137.378 150.5,-147.378 157.5,-147.378"/>
</g>
<!-- Node24&#45;&gt;Node10 -->
<g id="edge56" class="edge"><title>Node24&#45;&gt;Node10</title>
<path fill="none" stroke="midnightblue" d="M165.845,-116.897C175.862,-108.353 190.423,-95.933 202.208,-85.8813"/>
<polygon fill="midnightblue" stroke="midnightblue" points="204.496,-88.53 209.833,-79.3776 199.953,-83.2042 204.496,-88.53"/>
</g>
<!-- Node25&#45;&gt;Node10 -->
<g id="edge62" class="edge"><title>Node25&#45;&gt;Node10</title>
<path fill="none" stroke="midnightblue" d="M221.089,-174.706C221.254,-155.568 221.61,-114.198 221.825,-89.2654"/>
<polygon fill="midnightblue" stroke="midnightblue" points="225.326,-89.1354 221.913,-79.1055 218.327,-89.075 225.326,-89.1354"/>
</g>
<!-- Node25&#45;&gt;Node24 -->
<g id="edge64" class="edge"><title>Node25&#45;&gt;Node24</title>
<path fill="none" stroke="midnightblue" d="M209.329,-174.897C199.555,-166.435 185.388,-154.172 173.837,-144.172"/>
<polygon fill="midnightblue" stroke="midnightblue" points="175.839,-141.276 165.988,-137.378 171.258,-146.569 175.839,-141.276"/>
</g>
<!-- Node26 -->
<g id="node56" class="node"><title>Node26</title>
<polygon fill="none" stroke="#bfbfbf" points="249.5,-117 249.5,-137 338.5,-137 338.5,-117 249.5,-117"/>
<text text-anchor="middle" x="294" y="-124" font-family="FreeSans" font-size="10.00">boost/format.hpp</text>
</g>
<!-- Node25&#45;&gt;Node26 -->
<g id="edge60" class="edge"><title>Node25&#45;&gt;Node26</title>
<path fill="none" stroke="midnightblue" d="M233.716,-174.897C244.469,-166.353 260.102,-153.933 272.753,-143.881"/>
<polygon fill="midnightblue" stroke="midnightblue" points="275.286,-146.339 280.939,-137.378 270.932,-140.858 275.286,-146.339"/>
</g>
</g>
</svg>
