<?xml version="1.0" encoding="UTF-8" standalone="no"?>
<!DOCTYPE svg PUBLIC "-//W3C//DTD SVG 1.1//EN"
 "http://www.w3.org/Graphics/SVG/1.1/DTD/svg11.dtd">
<!-- Generated by graphviz version 2.38.0 (20140413.2041)
 -->
<!-- Title: HudCell.h Pages: 1 -->
<svg width="1141pt" height="252pt"
 viewBox="0.00 0.00 1141.00 252.00" xmlns="http://www.w3.org/2000/svg" xmlns:xlink="http://www.w3.org/1999/xlink">
<g id="graph0" class="graph" transform="scale(1 1) rotate(0) translate(4 248)">
<title>HudCell.h</title>
<!-- Node1 -->
<g id="node1" class="node"><title>Node1</title>
<polygon fill="#bfbfbf" stroke="black" points="265.5,-224.5 265.5,-243.5 327.5,-243.5 327.5,-224.5 265.5,-224.5"/>
<text text-anchor="middle" x="296.5" y="-231.5" font-family="FreeSans" font-size="10.00">HudCell.h</text>
</g>
<!-- Node2 -->
<g id="node2" class="node"><title>Node2</title>
<g id="a_node2"><a xlink:href="_game_scene_8h.html" target="_top" xlink:title="GameScene.h">
<polygon fill="none" stroke="black" points="158,-112.5 158,-131.5 243,-131.5 243,-112.5 158,-112.5"/>
<text text-anchor="middle" x="200.5" y="-119.5" font-family="FreeSans" font-size="10.00">GameScene.h</text>
</a>
</g>
</g>
<!-- Node1&#45;&gt;Node2 -->
<g id="edge1" class="edge"><title>Node1&#45;&gt;Node2</title>
<path fill="none" stroke="midnightblue" d="M280.509,-216.885C272.276,-208.434 262.172,-197.821 253.5,-188 236.152,-168.354 216.997,-144.2 207.153,-131.59"/>
<polygon fill="midnightblue" stroke="midnightblue" points="278.218,-219.547 287.722,-224.229 283.212,-214.642 278.218,-219.547"/>
</g>
<!-- Node9 -->
<g id="node9" class="node"><title>Node9</title>
<g id="a_node9"><a xlink:href="_observer_8h.html" target="_top" xlink:title="Observer.h">
<polygon fill="none" stroke="black" points="262.5,-168.5 262.5,-187.5 330.5,-187.5 330.5,-168.5 262.5,-168.5"/>
<text text-anchor="middle" x="296.5" y="-175.5" font-family="FreeSans" font-size="10.00">Observer.h</text>
</a>
</g>
</g>
<!-- Node1&#45;&gt;Node9 -->
<g id="edge9" class="edge"><title>Node1&#45;&gt;Node9</title>
<path fill="none" stroke="midnightblue" d="M296.5,-213.805C296.5,-204.91 296.5,-194.78 296.5,-187.751"/>
<polygon fill="midnightblue" stroke="midnightblue" points="293,-214.083 296.5,-224.083 300,-214.083 293,-214.083"/>
</g>
<!-- Node13 -->
<g id="node13" class="node"><title>Node13</title>
<g id="a_node13"><a xlink:href="_hud_8h.html" target="_top" xlink:title="Hud.h">
<polygon fill="none" stroke="black" points="533,-168.5 533,-187.5 578,-187.5 578,-168.5 533,-168.5"/>
<text text-anchor="middle" x="555.5" y="-175.5" font-family="FreeSans" font-size="10.00">Hud.h</text>
</a>
</g>
</g>
<!-- Node1&#45;&gt;Node13 -->
<g id="edge15" class="edge"><title>Node1&#45;&gt;Node13</title>
<path fill="none" stroke="midnightblue" d="M337.559,-224.439C392.822,-212.917 489.227,-192.818 532.878,-183.717"/>
<polygon fill="midnightblue" stroke="midnightblue" points="336.817,-221.019 327.741,-226.486 338.245,-227.872 336.817,-221.019"/>
</g>
<!-- Node3 -->
<g id="node3" class="node"><title>Node3</title>
<g id="a_node3"><a xlink:href="_demo_game_scene_8h.html" target="_top" xlink:title="DemoGameScene.h">
<polygon fill="none" stroke="black" points="5.5,-56.5 5.5,-75.5 119.5,-75.5 119.5,-56.5 5.5,-56.5"/>
<text text-anchor="middle" x="62.5" y="-63.5" font-family="FreeSans" font-size="10.00">DemoGameScene.h</text>
</a>
</g>
</g>
<!-- Node2&#45;&gt;Node3 -->
<g id="edge2" class="edge"><title>Node2&#45;&gt;Node3</title>
<path fill="none" stroke="midnightblue" d="M169.251,-108.772C143.329,-98.6287 107.138,-84.4669 84.2642,-75.5164"/>
<polygon fill="midnightblue" stroke="midnightblue" points="168.046,-112.059 178.633,-112.444 170.596,-105.54 168.046,-112.059"/>
</g>
<!-- Node6 -->
<g id="node6" class="node"><title>Node6</title>
<g id="a_node6"><a xlink:href="_play_game_scene_8h.html" target="_top" xlink:title="PlayGameScene.h">
<polygon fill="none" stroke="black" points="137.5,-56.5 137.5,-75.5 241.5,-75.5 241.5,-56.5 137.5,-56.5"/>
<text text-anchor="middle" x="189.5" y="-63.5" font-family="FreeSans" font-size="10.00">PlayGameScene.h</text>
</a>
</g>
</g>
<!-- Node2&#45;&gt;Node6 -->
<g id="edge5" class="edge"><title>Node2&#45;&gt;Node6</title>
<path fill="none" stroke="midnightblue" d="M196.65,-102.101C194.824,-93.1357 192.73,-82.8579 191.283,-75.7511"/>
<polygon fill="midnightblue" stroke="midnightblue" points="193.258,-102.983 198.684,-112.083 200.117,-101.586 193.258,-102.983"/>
</g>
<!-- Node8 -->
<g id="node8" class="node"><title>Node8</title>
<g id="a_node8"><a xlink:href="_game_scene_8cpp.html" target="_top" xlink:title="GameScene.cpp">
<polygon fill="none" stroke="black" points="480.5,-0.5 480.5,-19.5 576.5,-19.5 576.5,-0.5 480.5,-0.5"/>
<text text-anchor="middle" x="528.5" y="-7.5" font-family="FreeSans" font-size="10.00">GameScene.cpp</text>
</a>
</g>
</g>
<!-- Node2&#45;&gt;Node8 -->
<g id="edge8" class="edge"><title>Node2&#45;&gt;Node8</title>
<path fill="none" stroke="midnightblue" d="M222.899,-107.191C247.491,-92.5749 288.539,-69.7593 326.5,-56 377.506,-37.5126 438.62,-25.1783 480.172,-18.1705"/>
<polygon fill="midnightblue" stroke="midnightblue" points="221.083,-104.199 214.321,-112.355 224.693,-110.196 221.083,-104.199"/>
</g>
<!-- Node4 -->
<g id="node4" class="node"><title>Node4</title>
<g id="a_node4"><a xlink:href="_client_app_8cpp.html" target="_top" xlink:title="ClientApp.cpp">
<polygon fill="none" stroke="black" points="146,-0.5 146,-19.5 229,-19.5 229,-0.5 146,-0.5"/>
<text text-anchor="middle" x="187.5" y="-7.5" font-family="FreeSans" font-size="10.00">ClientApp.cpp</text>
</a>
</g>
</g>
<!-- Node3&#45;&gt;Node4 -->
<g id="edge3" class="edge"><title>Node3&#45;&gt;Node4</title>
<path fill="none" stroke="midnightblue" d="M91.7413,-52.3678C115.15,-42.2553 147.341,-28.3486 167.786,-19.5164"/>
<polygon fill="midnightblue" stroke="midnightblue" points="90.0986,-49.2647 82.3066,-56.4435 92.8747,-55.6907 90.0986,-49.2647"/>
</g>
<!-- Node5 -->
<g id="node5" class="node"><title>Node5</title>
<g id="a_node5"><a xlink:href="_demo_game_scene_8cpp.html" target="_top" xlink:title="DemoGameScene.cpp">
<polygon fill="none" stroke="black" points="0,-0.5 0,-19.5 125,-19.5 125,-0.5 0,-0.5"/>
<text text-anchor="middle" x="62.5" y="-7.5" font-family="FreeSans" font-size="10.00">DemoGameScene.cpp</text>
</a>
</g>
</g>
<!-- Node3&#45;&gt;Node5 -->
<g id="edge4" class="edge"><title>Node3&#45;&gt;Node5</title>
<path fill="none" stroke="midnightblue" d="M62.5,-45.8045C62.5,-36.9102 62.5,-26.7798 62.5,-19.7511"/>
<polygon fill="midnightblue" stroke="midnightblue" points="59.0001,-46.083 62.5,-56.083 66.0001,-46.083 59.0001,-46.083"/>
</g>
<!-- Node6&#45;&gt;Node4 -->
<g id="edge6" class="edge"><title>Node6&#45;&gt;Node4</title>
<path fill="none" stroke="midnightblue" d="M188.789,-45.8045C188.46,-36.9102 188.084,-26.7798 187.824,-19.7511"/>
<polygon fill="midnightblue" stroke="midnightblue" points="185.302,-46.2194 189.17,-56.083 192.297,-45.9603 185.302,-46.2194"/>
</g>
<!-- Node7 -->
<g id="node7" class="node"><title>Node7</title>
<g id="a_node7"><a xlink:href="_play_game_scene_8cpp.html" target="_top" xlink:title="PlayGameScene.cpp">
<polygon fill="none" stroke="black" points="247.5,-0.5 247.5,-19.5 363.5,-19.5 363.5,-0.5 247.5,-0.5"/>
<text text-anchor="middle" x="305.5" y="-7.5" font-family="FreeSans" font-size="10.00">PlayGameScene.cpp</text>
</a>
</g>
</g>
<!-- Node6&#45;&gt;Node7 -->
<g id="edge7" class="edge"><title>Node6&#45;&gt;Node7</title>
<path fill="none" stroke="midnightblue" d="M217.22,-52.096C238.892,-42.0073 268.402,-28.2697 287.205,-19.5164"/>
<polygon fill="midnightblue" stroke="midnightblue" points="215.469,-49.0501 207.881,-56.4435 218.423,-55.3962 215.469,-49.0501"/>
</g>
<!-- Node9&#45;&gt;Node2 -->
<g id="edge10" class="edge"><title>Node9&#45;&gt;Node2</title>
<path fill="none" stroke="midnightblue" d="M271.926,-163.177C254.261,-153.241 230.987,-140.149 215.886,-131.655"/>
<polygon fill="midnightblue" stroke="midnightblue" points="270.644,-166.472 281.076,-168.324 274.076,-160.371 270.644,-166.472"/>
</g>
<!-- Node10 -->
<g id="node10" class="node"><title>Node10</title>
<g id="a_node10"><a xlink:href="_client_app_8h.html" target="_top" xlink:title="ClientApp.h">
<polygon fill="none" stroke="black" points="261,-112.5 261,-131.5 332,-131.5 332,-112.5 261,-112.5"/>
<text text-anchor="middle" x="296.5" y="-119.5" font-family="FreeSans" font-size="10.00">ClientApp.h</text>
</a>
</g>
</g>
<!-- Node9&#45;&gt;Node10 -->
<g id="edge11" class="edge"><title>Node9&#45;&gt;Node10</title>
<path fill="none" stroke="midnightblue" d="M296.5,-157.805C296.5,-148.91 296.5,-138.78 296.5,-131.751"/>
<polygon fill="midnightblue" stroke="midnightblue" points="293,-158.083 296.5,-168.083 300,-158.083 293,-158.083"/>
</g>
<!-- Node12 -->
<g id="node12" class="node"><title>Node12</title>
<g id="a_node12"><a xlink:href="_observer_8cpp.html" target="_top" xlink:title="Observer.cpp">
<polygon fill="none" stroke="black" points="350.5,-112.5 350.5,-131.5 430.5,-131.5 430.5,-112.5 350.5,-112.5"/>
<text text-anchor="middle" x="390.5" y="-119.5" font-family="FreeSans" font-size="10.00">Observer.cpp</text>
</a>
</g>
</g>
<!-- Node9&#45;&gt;Node12 -->
<g id="edge14" class="edge"><title>Node9&#45;&gt;Node12</title>
<path fill="none" stroke="midnightblue" d="M320.562,-163.177C337.859,-153.241 360.648,-140.149 375.435,-131.655"/>
<polygon fill="midnightblue" stroke="midnightblue" points="318.53,-160.308 311.603,-168.324 322.017,-166.378 318.53,-160.308"/>
</g>
<!-- Node10&#45;&gt;Node4 -->
<g id="edge12" class="edge"><title>Node10&#45;&gt;Node4</title>
<path fill="none" stroke="midnightblue" d="M286.287,-103.361C277.781,-89.5525 264.785,-70.3479 250.5,-56 235.801,-41.2361 215.806,-27.8537 202.317,-19.5922"/>
<polygon fill="midnightblue" stroke="midnightblue" points="283.505,-105.529 291.641,-112.316 289.513,-101.937 283.505,-105.529"/>
</g>
<!-- Node11 -->
<g id="node11" class="node"><title>Node11</title>
<g id="a_node11"><a xlink:href="main_8cpp.html" target="_top" xlink:title="main.cpp">
<polygon fill="none" stroke="black" points="336,-56.5 336,-75.5 397,-75.5 397,-56.5 336,-56.5"/>
<text text-anchor="middle" x="366.5" y="-63.5" font-family="FreeSans" font-size="10.00">main.cpp</text>
</a>
</g>
</g>
<!-- Node10&#45;&gt;Node11 -->
<g id="edge13" class="edge"><title>Node10&#45;&gt;Node11</title>
<path fill="none" stroke="midnightblue" d="M315.814,-106.101C328.412,-96.3824 344.428,-84.0269 355.049,-75.8339"/>
<polygon fill="midnightblue" stroke="midnightblue" points="313.527,-103.445 307.747,-112.324 317.802,-108.987 313.527,-103.445"/>
</g>
<!-- Node13&#45;&gt;Node8 -->
<g id="edge16" class="edge"><title>Node13&#45;&gt;Node8</title>
<path fill="none" stroke="midnightblue" d="M552.398,-157.93C546.541,-121.92 534.068,-45.2312 529.894,-19.5681"/>
<polygon fill="midnightblue" stroke="midnightblue" points="548.988,-158.767 554.048,-168.075 555.897,-157.643 548.988,-158.767"/>
</g>
<!-- Node14 -->
<g id="node14" class="node"><title>Node14</title>
<g id="a_node14"><a xlink:href="_hud_peer_8h.html" target="_top" xlink:title="HudPeer.h">
<polygon fill="none" stroke="black" points="624.5,-112.5 624.5,-131.5 690.5,-131.5 690.5,-112.5 624.5,-112.5"/>
<text text-anchor="middle" x="657.5" y="-119.5" font-family="FreeSans" font-size="10.00">HudPeer.h</text>
</a>
</g>
</g>
<!-- Node13&#45;&gt;Node14 -->
<g id="edge17" class="edge"><title>Node13&#45;&gt;Node14</title>
<path fill="none" stroke="midnightblue" d="M580.831,-163.59C599.69,-153.605 624.884,-140.267 641.153,-131.655"/>
<polygon fill="midnightblue" stroke="midnightblue" points="579.088,-160.552 571.888,-168.324 582.364,-166.738 579.088,-160.552"/>
</g>
<!-- Node21 -->
<g id="node21" class="node"><title>Node21</title>
<g id="a_node21"><a xlink:href="_hud_peer_8cpp.html" target="_top" xlink:title="HudPeer.cpp">
<polygon fill="none" stroke="black" points="557,-56.5 557,-75.5 634,-75.5 634,-56.5 557,-56.5"/>
<text text-anchor="middle" x="595.5" y="-63.5" font-family="FreeSans" font-size="10.00">HudPeer.cpp</text>
</a>
</g>
</g>
<!-- Node13&#45;&gt;Node21 -->
<g id="edge29" class="edge"><title>Node13&#45;&gt;Node21</title>
<path fill="none" stroke="midnightblue" d="M562.164,-158.674C570.909,-134.625 585.904,-93.3881 592.376,-75.5914"/>
<polygon fill="midnightblue" stroke="midnightblue" points="558.767,-157.774 558.639,-168.368 565.346,-160.167 558.767,-157.774"/>
</g>
<!-- Node22 -->
<g id="node22" class="node"><title>Node22</title>
<g id="a_node22"><a xlink:href="_test_lab_scene_8cpp.html" target="_top" xlink:title="TestLabScene.cpp">
<polygon fill="none" stroke="black" points="709,-112.5 709,-131.5 812,-131.5 812,-112.5 709,-112.5"/>
<text text-anchor="middle" x="760.5" y="-119.5" font-family="FreeSans" font-size="10.00">TestLabScene.cpp</text>
</a>
</g>
</g>
<!-- Node13&#45;&gt;Node22 -->
<g id="edge28" class="edge"><title>Node13&#45;&gt;Node22</title>
<path fill="none" stroke="midnightblue" d="M588.338,-168.35C626.67,-158.253 689.674,-141.657 727.902,-131.587"/>
<polygon fill="midnightblue" stroke="midnightblue" points="587,-165.083 578.222,-171.015 588.784,-171.852 587,-165.083"/>
</g>
<!-- Node23 -->
<g id="node23" class="node"><title>Node23</title>
<g id="a_node23"><a xlink:href="_hud_8cpp.html" target="_top" xlink:title="Hud.cpp">
<polygon fill="none" stroke="black" points="448.5,-112.5 448.5,-131.5 504.5,-131.5 504.5,-112.5 448.5,-112.5"/>
<text text-anchor="middle" x="476.5" y="-119.5" font-family="FreeSans" font-size="10.00">Hud.cpp</text>
</a>
</g>
</g>
<!-- Node13&#45;&gt;Node23 -->
<g id="edge30" class="edge"><title>Node13&#45;&gt;Node23</title>
<path fill="none" stroke="midnightblue" d="M534.466,-162.622C520.034,-152.757 501.359,-139.992 489.161,-131.655"/>
<polygon fill="midnightblue" stroke="midnightblue" points="532.577,-165.57 542.807,-168.324 536.527,-159.791 532.577,-165.57"/>
</g>
<!-- Node14&#45;&gt;Node8 -->
<g id="edge18" class="edge"><title>Node14&#45;&gt;Node8</title>
<path fill="none" stroke="midnightblue" d="M657.668,-102.169C656.822,-87.9386 653.471,-68.7426 642.5,-56 625.841,-36.6501 599.751,-25.553 576.732,-19.2234"/>
<polygon fill="midnightblue" stroke="midnightblue" points="654.172,-102.385 657.907,-112.3 661.17,-102.22 654.172,-102.385"/>
</g>
<!-- Node15 -->
<g id="node15" class="node"><title>Node15</title>
<g id="a_node15"><a xlink:href="_player_peer_8h.html" target="_top" xlink:title="PlayerPeer.h">
<polygon fill="none" stroke="black" points="736.5,-56.5 736.5,-75.5 812.5,-75.5 812.5,-56.5 736.5,-56.5"/>
<text text-anchor="middle" x="774.5" y="-63.5" font-family="FreeSans" font-size="10.00">PlayerPeer.h</text>
</a>
</g>
</g>
<!-- Node14&#45;&gt;Node15 -->
<g id="edge19" class="edge"><title>Node14&#45;&gt;Node15</title>
<path fill="none" stroke="midnightblue" d="M685.164,-108.232C707.049,-98.1312 736.997,-84.3091 756.048,-75.5164"/>
<polygon fill="midnightblue" stroke="midnightblue" points="683.652,-105.075 676.039,-112.444 686.585,-111.431 683.652,-105.075"/>
</g>
<!-- Node17 -->
<g id="node17" class="node"><title>Node17</title>
<g id="a_node17"><a xlink:href="_client_script_core_8cpp.html" target="_top" xlink:title="ClientScriptCore.cpp">
<polygon fill="none" stroke="black" points="594.5,-0.5 594.5,-19.5 708.5,-19.5 708.5,-0.5 594.5,-0.5"/>
<text text-anchor="middle" x="651.5" y="-7.5" font-family="FreeSans" font-size="10.00">ClientScriptCore.cpp</text>
</a>
</g>
</g>
<!-- Node14&#45;&gt;Node17 -->
<g id="edge26" class="edge"><title>Node14&#45;&gt;Node17</title>
<path fill="none" stroke="midnightblue" d="M667.96,-103.382C674.398,-90.3524 680.683,-72.1433 676.5,-56 672.958,-42.3307 664.265,-28.393 658.129,-19.7252"/>
<polygon fill="midnightblue" stroke="midnightblue" points="664.861,-101.756 663.179,-112.216 671.017,-105.088 664.861,-101.756"/>
</g>
<!-- Node14&#45;&gt;Node21 -->
<g id="edge27" class="edge"><title>Node14&#45;&gt;Node21</title>
<path fill="none" stroke="midnightblue" d="M639.746,-105.537C628.692,-95.9087 614.869,-83.8694 605.643,-75.8339"/>
<polygon fill="midnightblue" stroke="midnightblue" points="637.699,-108.395 647.539,-112.324 642.297,-103.117 637.699,-108.395"/>
</g>
<!-- Node15&#45;&gt;Node8 -->
<g id="edge20" class="edge"><title>Node15&#45;&gt;Node8</title>
<path fill="none" stroke="midnightblue" d="M726.511,-54.4659C680.118,-44.2819 610.69,-29.0417 567.571,-19.5765"/>
<polygon fill="midnightblue" stroke="midnightblue" points="725.815,-57.8962 736.332,-56.6217 727.315,-51.059 725.815,-57.8962"/>
</g>
<!-- Node16 -->
<g id="node16" class="node"><title>Node16</title>
<g id="a_node16"><a xlink:href="_rulebook_8cpp.html" target="_top" xlink:title="Rulebook.cpp">
<polygon fill="none" stroke="black" points="840.5,-0.5 840.5,-19.5 920.5,-19.5 920.5,-0.5 840.5,-0.5"/>
<text text-anchor="middle" x="880.5" y="-7.5" font-family="FreeSans" font-size="10.00">Rulebook.cpp</text>
</a>
</g>
</g>
<!-- Node15&#45;&gt;Node16 -->
<g id="edge21" class="edge"><title>Node15&#45;&gt;Node16</title>
<path fill="none" stroke="midnightblue" d="M800.556,-51.7261C820.184,-41.7271 846.528,-28.3065 863.512,-19.6545"/>
<polygon fill="midnightblue" stroke="midnightblue" points="798.852,-48.666 791.531,-56.324 802.03,-54.9033 798.852,-48.666"/>
</g>
<!-- Node15&#45;&gt;Node17 -->
<g id="edge22" class="edge"><title>Node15&#45;&gt;Node17</title>
<path fill="none" stroke="midnightblue" d="M745.727,-52.3678C722.693,-42.2553 691.016,-28.3486 670.899,-19.5164"/>
<polygon fill="midnightblue" stroke="midnightblue" points="744.447,-55.6283 755.01,-56.4435 747.261,-49.2188 744.447,-55.6283"/>
</g>
<!-- Node18 -->
<g id="node18" class="node"><title>Node18</title>
<g id="a_node18"><a xlink:href="_meta_player_8cpp.html" target="_top" xlink:title="MetaPlayer.cpp">
<polygon fill="none" stroke="black" points="939,-0.5 939,-19.5 1028,-19.5 1028,-0.5 939,-0.5"/>
<text text-anchor="middle" x="983.5" y="-7.5" font-family="FreeSans" font-size="10.00">MetaPlayer.cpp</text>
</a>
</g>
</g>
<!-- Node15&#45;&gt;Node18 -->
<g id="edge23" class="edge"><title>Node15&#45;&gt;Node18</title>
<path fill="none" stroke="midnightblue" d="M817.484,-53.8941C856.952,-43.6966 914.6,-28.802 950.538,-19.5164"/>
<polygon fill="midnightblue" stroke="midnightblue" points="816.423,-50.5532 807.617,-56.4435 818.174,-57.3306 816.423,-50.5532"/>
</g>
<!-- Node19 -->
<g id="node19" class="node"><title>Node19</title>
<g id="a_node19"><a xlink:href="_player_peer_8cpp.html" target="_top" xlink:title="PlayerPeer.cpp">
<polygon fill="none" stroke="black" points="1046,-0.5 1046,-19.5 1133,-19.5 1133,-0.5 1046,-0.5"/>
<text text-anchor="middle" x="1089.5" y="-7.5" font-family="FreeSans" font-size="10.00">PlayerPeer.cpp</text>
</a>
</g>
</g>
<!-- Node15&#45;&gt;Node19 -->
<g id="edge24" class="edge"><title>Node15&#45;&gt;Node19</title>
<path fill="none" stroke="midnightblue" d="M822.918,-56.7442C875.686,-47.7399 962.602,-32.8892 1037.5,-20 1040.21,-19.5338 1043,-19.0534 1045.81,-18.5683"/>
<polygon fill="midnightblue" stroke="midnightblue" points="822.102,-53.3328 812.833,-58.4648 823.279,-60.233 822.102,-53.3328"/>
</g>
<!-- Node20 -->
<g id="node20" class="node"><title>Node20</title>
<g id="a_node20"><a xlink:href="_session_peer_8cpp.html" target="_top" xlink:title="SessionPeer.cpp">
<polygon fill="none" stroke="black" points="727,-0.5 727,-19.5 822,-19.5 822,-0.5 727,-0.5"/>
<text text-anchor="middle" x="774.5" y="-7.5" font-family="FreeSans" font-size="10.00">SessionPeer.cpp</text>
</a>
</g>
</g>
<!-- Node15&#45;&gt;Node20 -->
<g id="edge25" class="edge"><title>Node15&#45;&gt;Node20</title>
<path fill="none" stroke="midnightblue" d="M774.5,-45.8045C774.5,-36.9102 774.5,-26.7798 774.5,-19.7511"/>
<polygon fill="midnightblue" stroke="midnightblue" points="771,-46.083 774.5,-56.083 778,-46.083 771,-46.083"/>
</g>
</g>
</svg>
