<?xml version="1.0" encoding="UTF-8" standalone="no"?>
<!DOCTYPE svg PUBLIC "-//W3C//DTD SVG 1.1//EN"
 "http://www.w3.org/Graphics/SVG/1.1/DTD/svg11.dtd">
<!-- Generated by graphviz version 2.26.3 (20100126.1600)
 -->
<!-- Title: Label.h Pages: 1 -->
<svg width="2522pt" height="88pt"
 viewBox="0.00 0.00 2522.00 88.00" xmlns="http://www.w3.org/2000/svg" xmlns:xlink="http://www.w3.org/1999/xlink">
<g id="graph1" class="graph" transform="scale(1 1) rotate(0) translate(4 84)">
<title>Label.h</title>
<!-- Node1 -->
<g id="node1" class="node"><title>Node1</title>
<polygon fill="#bfbfbf" stroke="black" points="1359,-59 1359,-79 1407,-79 1407,-59 1359,-59"/>
<text text-anchor="middle" x="1383" y="-66" font-family="FreeSans" font-size="10.00">Label.h</text>
</g>
<!-- Node2 -->
<g id="node3" class="node"><title>Node2</title>
<a xlink:href="_audio_settings_scene_8cpp.html" target="_top" xlink:title="AudioSettingsScene.cpp">
<polygon fill="none" stroke="black" points="-0.5,-1 -0.5,-21 122.5,-21 122.5,-1 -0.5,-1"/>
<text text-anchor="middle" x="61" y="-8" font-family="FreeSans" font-size="10.00">AudioSettingsScene.cpp</text>
</a>
</g>
<!-- Node1&#45;&gt;Node2 -->
<g id="edge2" class="edge"><title>Node1&#45;&gt;Node2</title>
<path fill="none" stroke="midnightblue" d="M1348.46,-68.2572C1172.78,-64.3943 376.988,-45.8602 131,-22 128.061,-21.715 125.058,-21.3867 122.029,-21.0258"/>
<polygon fill="midnightblue" stroke="midnightblue" points="1348.6,-71.7609 1358.67,-68.4805 1348.75,-64.7626 1348.6,-71.7609"/>
</g>
<!-- Node3 -->
<g id="node5" class="node"><title>Node3</title>
<a xlink:href="_bulletin_board_8cpp.html" target="_top" xlink:title="BulletinBoard.cpp">
<polygon fill="none" stroke="black" points="140,-1 140,-21 232,-21 232,-1 140,-1"/>
<text text-anchor="middle" x="186" y="-8" font-family="FreeSans" font-size="10.00">BulletinBoard.cpp</text>
</a>
</g>
<!-- Node1&#45;&gt;Node3 -->
<g id="edge4" class="edge"><title>Node1&#45;&gt;Node3</title>
<path fill="none" stroke="midnightblue" d="M1348.88,-68.3158C1183.44,-64.888 463.672,-48.6834 241,-22 238.099,-21.6524 235.123,-21.2352 232.129,-20.7695"/>
<polygon fill="midnightblue" stroke="midnightblue" points="1348.89,-71.8167 1358.96,-68.523 1349.04,-64.8182 1348.89,-71.8167"/>
</g>
<!-- Node4 -->
<g id="node7" class="node"><title>Node4</title>
<a xlink:href="_client_app_8cpp.html" target="_top" xlink:title="ClientApp.cpp">
<polygon fill="none" stroke="black" points="249.5,-1 249.5,-21 326.5,-21 326.5,-1 249.5,-1"/>
<text text-anchor="middle" x="288" y="-8" font-family="FreeSans" font-size="10.00">ClientApp.cpp</text>
</a>
</g>
<!-- Node1&#45;&gt;Node4 -->
<g id="edge6" class="edge"><title>Node1&#45;&gt;Node4</title>
<path fill="none" stroke="midnightblue" d="M1348.69,-68.3157C1191.32,-65.0462 537.593,-50.0047 335,-22 332.261,-21.6213 329.446,-21.1575 326.622,-20.6368"/>
<polygon fill="midnightblue" stroke="midnightblue" points="1348.67,-71.816 1358.74,-68.5225 1348.81,-64.8175 1348.67,-71.816"/>
</g>
<!-- Node5 -->
<g id="node9" class="node"><title>Node5</title>
<a xlink:href="_dialog_scene_8cpp.html" target="_top" xlink:title="DialogScene.cpp">
<polygon fill="none" stroke="black" points="343.5,-1 343.5,-21 432.5,-21 432.5,-1 343.5,-1"/>
<text text-anchor="middle" x="388" y="-8" font-family="FreeSans" font-size="10.00">DialogScene.cpp</text>
</a>
</g>
<!-- Node1&#45;&gt;Node5 -->
<g id="edge8" class="edge"><title>Node1&#45;&gt;Node5</title>
<path fill="none" stroke="midnightblue" d="M1348.47,-67.9943C1200.81,-63.5838 621.838,-45.1361 441,-22 438.297,-21.6542 435.526,-21.2455 432.737,-20.7927"/>
<polygon fill="midnightblue" stroke="midnightblue" points="1348.63,-71.5006 1358.73,-68.2989 1348.84,-64.5037 1348.63,-71.5006"/>
</g>
<!-- Node6 -->
<g id="node11" class="node"><title>Node6</title>
<a xlink:href="_main_menu_scene_8cpp.html" target="_top" xlink:title="MainMenuScene.cpp">
<polygon fill="none" stroke="black" points="449.5,-1 449.5,-21 556.5,-21 556.5,-1 449.5,-1"/>
<text text-anchor="middle" x="503" y="-8" font-family="FreeSans" font-size="10.00">MainMenuScene.cpp</text>
</a>
</g>
<!-- Node1&#45;&gt;Node6 -->
<g id="edge10" class="edge"><title>Node1&#45;&gt;Node6</title>
<path fill="none" stroke="midnightblue" d="M1348.73,-68.4796C1236.14,-66.4607 867.48,-57.3971 565,-22 562.286,-21.6823 559.51,-21.3218 556.711,-20.9298"/>
<polygon fill="midnightblue" stroke="midnightblue" points="1348.76,-71.9805 1358.82,-68.6536 1348.88,-64.9815 1348.76,-71.9805"/>
</g>
<!-- Node7 -->
<g id="node13" class="node"><title>Node7</title>
<a xlink:href="_message_announcement_8cpp.html" target="_top" xlink:title="MessageAnnouncement.cpp">
<polygon fill="none" stroke="black" points="574,-1 574,-21 714,-21 714,-1 574,-1"/>
<text text-anchor="middle" x="644" y="-8" font-family="FreeSans" font-size="10.00">MessageAnnouncement.cpp</text>
</a>
</g>
<!-- Node1&#45;&gt;Node7 -->
<g id="edge12" class="edge"><title>Node1&#45;&gt;Node7</title>
<path fill="none" stroke="midnightblue" d="M1348.8,-67.3778C1251.02,-62.5649 961.952,-47.1153 723,-22 720.108,-21.696 717.159,-21.3679 714.181,-21.0216"/>
<polygon fill="midnightblue" stroke="midnightblue" points="1348.82,-70.8828 1358.97,-67.8742 1349.16,-63.8911 1348.82,-70.8828"/>
</g>
<!-- Node8 -->
<g id="node15" class="node"><title>Node8</title>
<a xlink:href="_message_scene_8cpp.html" target="_top" xlink:title="MessageScene.cpp">
<polygon fill="none" stroke="black" points="732,-1 732,-21 834,-21 834,-1 732,-1"/>
<text text-anchor="middle" x="783" y="-8" font-family="FreeSans" font-size="10.00">MessageScene.cpp</text>
</a>
</g>
<!-- Node1&#45;&gt;Node8 -->
<g id="edge14" class="edge"><title>Node1&#45;&gt;Node8</title>
<path fill="none" stroke="midnightblue" d="M1348.79,-67.1481C1263.25,-62.2735 1033.27,-47.6636 843,-22 840.061,-21.6036 837.048,-21.1624 834.011,-20.6908"/>
<polygon fill="midnightblue" stroke="midnightblue" points="1348.78,-70.6529 1358.96,-67.7203 1349.17,-63.664 1348.78,-70.6529"/>
</g>
<!-- Node9 -->
<g id="node17" class="node"><title>Node9</title>
<a xlink:href="_palette_scene_8cpp.html" target="_top" xlink:title="PaletteScene.cpp">
<polygon fill="none" stroke="black" points="851.5,-1 851.5,-21 944.5,-21 944.5,-1 851.5,-1"/>
<text text-anchor="middle" x="898" y="-8" font-family="FreeSans" font-size="10.00">PaletteScene.cpp</text>
</a>
</g>
<!-- Node1&#45;&gt;Node9 -->
<g id="edge16" class="edge"><title>Node1&#45;&gt;Node9</title>
<path fill="none" stroke="midnightblue" d="M1348.64,-66.2844C1275.56,-60.2813 1099.43,-44.6003 953,-22 950.305,-21.5841 947.542,-21.1276 944.758,-20.6443"/>
<polygon fill="midnightblue" stroke="midnightblue" points="1348.4,-69.777 1358.66,-67.0996 1348.97,-62.8 1348.4,-69.777"/>
</g>
<!-- Node10 -->
<g id="node19" class="node"><title>Node10</title>
<a xlink:href="_pause_menu_scene_8cpp.html" target="_top" xlink:title="PauseMenuScene.cpp">
<polygon fill="none" stroke="black" points="962,-1 962,-21 1076,-21 1076,-1 962,-1"/>
<text text-anchor="middle" x="1019" y="-8" font-family="FreeSans" font-size="10.00">PauseMenuScene.cpp</text>
</a>
</g>
<!-- Node1&#45;&gt;Node10 -->
<g id="edge18" class="edge"><title>Node1&#45;&gt;Node10</title>
<path fill="none" stroke="midnightblue" d="M1348.66,-63.6838C1293.19,-55.0738 1180.44,-37.4793 1085,-22 1082.13,-21.5351 1079.2,-21.056 1076.23,-20.5701"/>
<polygon fill="midnightblue" stroke="midnightblue" points="1348.23,-67.1593 1358.65,-65.2336 1349.31,-60.2421 1348.23,-67.1593"/>
</g>
<!-- Node11 -->
<g id="node21" class="node"><title>Node11</title>
<a xlink:href="_settings_scene_8cpp.html" target="_top" xlink:title="SettingsScene.cpp">
<polygon fill="none" stroke="black" points="1094,-1 1094,-21 1192,-21 1192,-1 1094,-1"/>
<text text-anchor="middle" x="1143" y="-8" font-family="FreeSans" font-size="10.00">SettingsScene.cpp</text>
</a>
</g>
<!-- Node1&#45;&gt;Node11 -->
<g id="edge20" class="edge"><title>Node1&#45;&gt;Node11</title>
<path fill="none" stroke="midnightblue" d="M1348.9,-60.7596C1305.67,-50.3109 1231.16,-32.3056 1184.62,-21.0581"/>
<polygon fill="midnightblue" stroke="midnightblue" points="1348.12,-64.1724 1358.67,-63.1195 1349.77,-57.3683 1348.12,-64.1724"/>
</g>
<!-- Node12 -->
<g id="node23" class="node"><title>Node12</title>
<a xlink:href="_test_lab_scene_8cpp.html" target="_top" xlink:title="TestLabScene.cpp">
<polygon fill="none" stroke="black" points="1210,-1 1210,-21 1308,-21 1308,-1 1210,-1"/>
<text text-anchor="middle" x="1259" y="-8" font-family="FreeSans" font-size="10.00">TestLabScene.cpp</text>
</a>
</g>
<!-- Node1&#45;&gt;Node12 -->
<g id="edge22" class="edge"><title>Node1&#45;&gt;Node12</title>
<path fill="none" stroke="midnightblue" d="M1352.07,-54.5345C1329.88,-44.1545 1300.53,-30.424 1280.77,-21.1817"/>
<polygon fill="midnightblue" stroke="midnightblue" points="1350.86,-57.8306 1361.4,-58.8972 1353.83,-51.4899 1350.86,-57.8306"/>
</g>
<!-- Node13 -->
<g id="node25" class="node"><title>Node13</title>
<a xlink:href="_track_select_scene_8cpp.html" target="_top" xlink:title="TrackSelectScene.cpp">
<polygon fill="none" stroke="black" points="1325.5,-1 1325.5,-21 1440.5,-21 1440.5,-1 1325.5,-1"/>
<text text-anchor="middle" x="1383" y="-8" font-family="FreeSans" font-size="10.00">TrackSelectScene.cpp</text>
</a>
</g>
<!-- Node1&#45;&gt;Node13 -->
<g id="edge24" class="edge"><title>Node1&#45;&gt;Node13</title>
<path fill="none" stroke="midnightblue" d="M1383,-48.8902C1383,-39.6201 1383,-29.0083 1383,-21.3776"/>
<polygon fill="midnightblue" stroke="midnightblue" points="1379.5,-48.8971 1383,-58.8972 1386.5,-48.8972 1379.5,-48.8971"/>
</g>
<!-- Node14 -->
<g id="node27" class="node"><title>Node14</title>
<a xlink:href="_console_scene_8cpp.html" target="_top" xlink:title="ConsoleScene.cpp">
<polygon fill="none" stroke="black" points="1458,-1 1458,-21 1556,-21 1556,-1 1458,-1"/>
<text text-anchor="middle" x="1507" y="-8" font-family="FreeSans" font-size="10.00">ConsoleScene.cpp</text>
</a>
</g>
<!-- Node1&#45;&gt;Node14 -->
<g id="edge26" class="edge"><title>Node1&#45;&gt;Node14</title>
<path fill="none" stroke="midnightblue" d="M1413.93,-54.5345C1436.12,-44.1545 1465.47,-30.424 1485.23,-21.1817"/>
<polygon fill="midnightblue" stroke="midnightblue" points="1412.17,-51.4899 1404.6,-58.8972 1415.14,-57.8306 1412.17,-51.4899"/>
</g>
<!-- Node15 -->
<g id="node29" class="node"><title>Node15</title>
<a xlink:href="_button_8cpp.html" target="_top" xlink:title="Button.cpp">
<polygon fill="none" stroke="black" points="1573.5,-1 1573.5,-21 1636.5,-21 1636.5,-1 1573.5,-1"/>
<text text-anchor="middle" x="1605" y="-8" font-family="FreeSans" font-size="10.00">Button.cpp</text>
</a>
</g>
<!-- Node1&#45;&gt;Node15 -->
<g id="edge28" class="edge"><title>Node1&#45;&gt;Node15</title>
<path fill="none" stroke="midnightblue" d="M1417.31,-60.3096C1453.93,-50.9949 1513.63,-35.6959 1565,-22 1567.64,-21.295 1570.39,-20.5569 1573.14,-19.8111"/>
<polygon fill="midnightblue" stroke="midnightblue" points="1416,-57.031 1407.17,-62.8858 1417.73,-63.8155 1416,-57.031"/>
</g>
<!-- Node16 -->
<g id="node31" class="node"><title>Node16</title>
<a xlink:href="_chronometer_8cpp.html" target="_top" xlink:title="Chronometer.cpp">
<polygon fill="none" stroke="black" points="1654,-1 1654,-21 1744,-21 1744,-1 1654,-1"/>
<text text-anchor="middle" x="1699" y="-8" font-family="FreeSans" font-size="10.00">Chronometer.cpp</text>
</a>
</g>
<!-- Node1&#45;&gt;Node16 -->
<g id="edge30" class="edge"><title>Node1&#45;&gt;Node16</title>
<path fill="none" stroke="midnightblue" d="M1417.2,-63.1287C1467.27,-54.4731 1563.43,-37.622 1645,-22 1647.91,-21.4421 1650.91,-20.858 1653.93,-20.2623"/>
<polygon fill="midnightblue" stroke="midnightblue" points="1416.5,-59.6982 1407.24,-64.8479 1417.69,-66.5963 1416.5,-59.6982"/>
</g>
<!-- Node17 -->
<g id="node33" class="node"><title>Node17</title>
<a xlink:href="_counter_8cpp.html" target="_top" xlink:title="Counter.cpp">
<polygon fill="none" stroke="black" points="1762,-1 1762,-21 1830,-21 1830,-1 1762,-1"/>
<text text-anchor="middle" x="1796" y="-8" font-family="FreeSans" font-size="10.00">Counter.cpp</text>
</a>
</g>
<!-- Node1&#45;&gt;Node17 -->
<g id="edge32" class="edge"><title>Node1&#45;&gt;Node17</title>
<path fill="none" stroke="midnightblue" d="M1417.61,-66.0493C1483.36,-60.1249 1630.69,-45.3198 1753,-22 1755.88,-21.4516 1758.85,-20.8236 1761.82,-20.1518"/>
<polygon fill="midnightblue" stroke="midnightblue" points="1417.06,-62.5846 1407.41,-66.9561 1417.68,-69.5571 1417.06,-62.5846"/>
</g>
<!-- Node18 -->
<g id="node35" class="node"><title>Node18</title>
<a xlink:href="_hud_text_8cpp.html" target="_top" xlink:title="HudText.cpp">
<polygon fill="none" stroke="black" points="1847.5,-1 1847.5,-21 1918.5,-21 1918.5,-1 1847.5,-1"/>
<text text-anchor="middle" x="1883" y="-8" font-family="FreeSans" font-size="10.00">HudText.cpp</text>
</a>
</g>
<!-- Node1&#45;&gt;Node18 -->
<g id="edge34" class="edge"><title>Node1&#45;&gt;Node18</title>
<path fill="none" stroke="midnightblue" d="M1417.4,-67.1308C1493.74,-62.6171 1682.91,-49.4126 1839,-22 1841.64,-21.5369 1844.35,-21.0028 1847.07,-20.4248"/>
<polygon fill="midnightblue" stroke="midnightblue" points="1417.17,-63.638 1407.39,-67.7106 1417.58,-70.6263 1417.17,-63.638"/>
</g>
<!-- Node19 -->
<g id="node37" class="node"><title>Node19</title>
<a xlink:href="_label_8cpp.html" target="_top" xlink:title="Label.cpp">
<polygon fill="none" stroke="black" points="1935.5,-1 1935.5,-21 1994.5,-21 1994.5,-1 1935.5,-1"/>
<text text-anchor="middle" x="1965" y="-8" font-family="FreeSans" font-size="10.00">Label.cpp</text>
</a>
</g>
<!-- Node1&#45;&gt;Node19 -->
<g id="edge36" class="edge"><title>Node1&#45;&gt;Node19</title>
<path fill="none" stroke="midnightblue" d="M1417.09,-68.3639C1503.24,-66.2585 1736.44,-57.4598 1927,-22 1929.7,-21.4974 1932.49,-20.8833 1935.26,-20.2049"/>
<polygon fill="midnightblue" stroke="midnightblue" points="1417,-64.8648 1407.09,-68.5939 1417.16,-71.8629 1417,-64.8648"/>
</g>
<!-- Node20 -->
<g id="node39" class="node"><title>Node20</title>
<a xlink:href="_slider_8cpp.html" target="_top" xlink:title="Slider.cpp">
<polygon fill="none" stroke="black" points="2011.5,-1 2011.5,-21 2070.5,-21 2070.5,-1 2011.5,-1"/>
<text text-anchor="middle" x="2041" y="-8" font-family="FreeSans" font-size="10.00">Slider.cpp</text>
</a>
</g>
<!-- Node1&#45;&gt;Node20 -->
<g id="edge38" class="edge"><title>Node1&#45;&gt;Node20</title>
<path fill="none" stroke="midnightblue" d="M1417.49,-67.3238C1530.52,-61.6834 1889.03,-42.5883 2003,-22 2005.7,-21.5116 2008.49,-20.9073 2011.27,-20.2352"/>
<polygon fill="midnightblue" stroke="midnightblue" points="1417.15,-63.8363 1407.34,-67.8272 1417.5,-70.8277 1417.15,-63.8363"/>
</g>
<!-- Node21 -->
<g id="node41" class="node"><title>Node21</title>
<a xlink:href="_sdl_button_view_8cpp.html" target="_top" xlink:title="SdlButtonView.cpp">
<polygon fill="none" stroke="black" points="2087.5,-1 2087.5,-21 2186.5,-21 2186.5,-1 2087.5,-1"/>
<text text-anchor="middle" x="2137" y="-8" font-family="FreeSans" font-size="10.00">SdlButtonView.cpp</text>
</a>
</g>
<!-- Node1&#45;&gt;Node21 -->
<g id="edge40" class="edge"><title>Node1&#45;&gt;Node21</title>
<path fill="none" stroke="midnightblue" d="M1417.42,-68.1373C1519.01,-65.2771 1826.33,-54.3725 2079,-22 2081.74,-21.6483 2084.56,-21.2485 2087.39,-20.8145"/>
<polygon fill="midnightblue" stroke="midnightblue" points="1417.04,-64.6461 1407.14,-68.4185 1417.24,-71.6434 1417.04,-64.6461"/>
</g>
<!-- Node22 -->
<g id="node43" class="node"><title>Node22</title>
<a xlink:href="_sdl_display_8cpp.html" target="_top" xlink:title="SdlDisplay.cpp">
<polygon fill="none" stroke="black" points="2204,-1 2204,-21 2284,-21 2284,-1 2204,-1"/>
<text text-anchor="middle" x="2244" y="-8" font-family="FreeSans" font-size="10.00">SdlDisplay.cpp</text>
</a>
</g>
<!-- Node1&#45;&gt;Node22 -->
<g id="edge42" class="edge"><title>Node1&#45;&gt;Node22</title>
<path fill="none" stroke="midnightblue" d="M1417.46,-67.7556C1551.87,-62.7847 2041.15,-43.575 2195,-22 2197.94,-21.5883 2200.96,-21.092 2203.99,-20.5407"/>
<polygon fill="midnightblue" stroke="midnightblue" points="1417.19,-64.2627 1407.33,-68.1279 1417.45,-71.258 1417.19,-64.2627"/>
</g>
<!-- Node23 -->
<g id="node45" class="node"><title>Node23</title>
<a xlink:href="_sdl_label_view_8cpp.html" target="_top" xlink:title="SdlLabelView.cpp">
<polygon fill="none" stroke="black" points="2301.5,-1 2301.5,-21 2396.5,-21 2396.5,-1 2301.5,-1"/>
<text text-anchor="middle" x="2349" y="-8" font-family="FreeSans" font-size="10.00">SdlLabelView.cpp</text>
</a>
</g>
<!-- Node1&#45;&gt;Node23 -->
<g id="edge44" class="edge"><title>Node1&#45;&gt;Node23</title>
<path fill="none" stroke="midnightblue" d="M1417.3,-67.8834C1561.42,-63.0906 2118.57,-43.5244 2293,-22 2295.75,-21.6602 2298.57,-21.2632 2301.42,-20.8255"/>
<polygon fill="midnightblue" stroke="midnightblue" points="1417.15,-64.3865 1407.27,-68.2153 1417.38,-71.3827 1417.15,-64.3865"/>
</g>
<!-- Node24 -->
<g id="node47" class="node"><title>Node24</title>
<a xlink:href="_sdl_surface_text_8cpp.html" target="_top" xlink:title="SdlSurfaceText.cpp">
<polygon fill="none" stroke="black" points="2413.5,-1 2413.5,-21 2514.5,-21 2514.5,-1 2413.5,-1"/>
<text text-anchor="middle" x="2464" y="-8" font-family="FreeSans" font-size="10.00">SdlSurfaceText.cpp</text>
</a>
</g>
<!-- Node1&#45;&gt;Node24 -->
<g id="edge46" class="edge"><title>Node1&#45;&gt;Node24</title>
<path fill="none" stroke="midnightblue" d="M1417.4,-68.0588C1572.44,-63.7184 2207.28,-44.8669 2405,-22 2407.69,-21.6888 2410.44,-21.3273 2413.22,-20.929"/>
<polygon fill="midnightblue" stroke="midnightblue" points="1416.98,-64.5691 1407.08,-68.3461 1417.17,-71.5664 1416.98,-64.5691"/>
</g>
</g>
</svg>
