<?xml version="1.0" encoding="UTF-8" standalone="no"?>
<!DOCTYPE svg PUBLIC "-//W3C//DTD SVG 1.1//EN"
 "http://www.w3.org/Graphics/SVG/1.1/DTD/svg11.dtd">
<!-- Generated by graphviz version 2.26.3 (20100126.1600)
 -->
<!-- Title: LevelBuilderVisiblesZones.cpp Pages: 1 -->
<svg width="886pt" height="494pt"
 viewBox="0.00 0.00 886.00 494.00" xmlns="http://www.w3.org/2000/svg" xmlns:xlink="http://www.w3.org/1999/xlink">
<g id="graph1" class="graph" transform="scale(1 1) rotate(0) translate(4 490)">
<title>LevelBuilderVisiblesZones.cpp</title>
<!-- Node1 -->
<g id="node1" class="node"><title>Node1</title>
<polygon fill="#bfbfbf" stroke="black" points="139,-465 139,-485 289,-485 289,-465 139,-465"/>
<text text-anchor="middle" x="214" y="-472" font-family="FreeSans" font-size="10.00">LevelBuilderVisiblesZones.cpp</text>
</g>
<!-- Node2 -->
<g id="node3" class="node"><title>Node2</title>
<polygon fill="none" stroke="#bfbfbf" points="140,-407 140,-427 186,-427 186,-407 140,-407"/>
<text text-anchor="middle" x="163" y="-414" font-family="FreeSans" font-size="10.00">math.h</text>
</g>
<!-- Node1&#45;&gt;Node2 -->
<g id="edge2" class="edge"><title>Node1&#45;&gt;Node2</title>
<path fill="none" stroke="midnightblue" d="M205.116,-464.897C197.893,-456.682 187.518,-444.883 178.873,-435.051"/>
<polygon fill="midnightblue" stroke="midnightblue" points="181.357,-432.576 172.125,-427.378 176.1,-437.199 181.357,-432.576"/>
</g>
<!-- Node3 -->
<g id="node5" class="node"><title>Node3</title>
<a xlink:href="_track_compile_exn_8h.html" target="_top" xlink:title="TrackCompileExn.h">
<polygon fill="none" stroke="black" points="135,-349 135,-369 235,-369 235,-349 135,-349"/>
<text text-anchor="middle" x="185" y="-356" font-family="FreeSans" font-size="10.00">TrackCompileExn.h</text>
</a>
</g>
<!-- Node1&#45;&gt;Node3 -->
<g id="edge4" class="edge"><title>Node1&#45;&gt;Node3</title>
<path fill="none" stroke="midnightblue" d="M211.426,-464.706C206.621,-445.482 196.206,-403.825 189.982,-378.929"/>
<polygon fill="midnightblue" stroke="midnightblue" points="193.347,-377.958 187.526,-369.106 186.556,-379.656 193.347,-377.958"/>
</g>
<!-- Node6 -->
<g id="node11" class="node"><title>Node6</title>
<a xlink:href="_level_builder_8h.html" target="_top" xlink:title="LevelBuilder.h">
<polygon fill="none" stroke="black" points="271,-407 271,-427 349,-427 349,-407 271,-407"/>
<text text-anchor="middle" x="310" y="-414" font-family="FreeSans" font-size="10.00">LevelBuilder.h</text>
</a>
</g>
<!-- Node1&#45;&gt;Node6 -->
<g id="edge10" class="edge"><title>Node1&#45;&gt;Node6</title>
<path fill="none" stroke="midnightblue" d="M230.722,-464.897C245.498,-455.97 267.279,-442.811 284.274,-432.543"/>
<polygon fill="midnightblue" stroke="midnightblue" points="286.398,-435.349 293.148,-427.182 282.779,-429.357 286.398,-435.349"/>
</g>
<!-- Node4 -->
<g id="node7" class="node"><title>Node4</title>
<a xlink:href="_exception_8h.html" target="_top" xlink:title="../Exception.h">
<polygon fill="none" stroke="black" points="143,-117 143,-137 217,-137 217,-117 143,-117"/>
<text text-anchor="middle" x="180" y="-124" font-family="FreeSans" font-size="10.00">../Exception.h</text>
</a>
</g>
<!-- Node3&#45;&gt;Node4 -->
<g id="edge6" class="edge"><title>Node3&#45;&gt;Node4</title>
<path fill="none" stroke="midnightblue" d="M184.779,-348.732C184.012,-313.173 181.463,-194.861 180.435,-147.177"/>
<polygon fill="midnightblue" stroke="midnightblue" points="183.933,-147.072 180.219,-137.15 176.935,-147.223 183.933,-147.072"/>
</g>
<!-- Node5 -->
<g id="node9" class="node"><title>Node5</title>
<polygon fill="none" stroke="#bfbfbf" points="0,-59 0,-79 58,-79 58,-59 0,-59"/>
<text text-anchor="middle" x="29" y="-66" font-family="FreeSans" font-size="10.00">exception</text>
</g>
<!-- Node4&#45;&gt;Node5 -->
<g id="edge8" class="edge"><title>Node4&#45;&gt;Node5</title>
<path fill="none" stroke="midnightblue" d="M153.698,-116.897C129.089,-107.445 92.13,-93.2486 64.8327,-82.7635"/>
<polygon fill="midnightblue" stroke="midnightblue" points="65.8437,-79.4026 55.2537,-79.0842 63.3337,-85.9372 65.8437,-79.4026"/>
</g>
<!-- Node7 -->
<g id="node13" class="node"><title>Node7</title>
<a xlink:href="_level_8h.html" target="_top" xlink:title="../Model/Level.h">
<polygon fill="none" stroke="black" points="467.5,-349 467.5,-369 552.5,-369 552.5,-349 467.5,-349"/>
<text text-anchor="middle" x="510" y="-356" font-family="FreeSans" font-size="10.00">../Model/Level.h</text>
</a>
</g>
<!-- Node6&#45;&gt;Node7 -->
<g id="edge12" class="edge"><title>Node6&#45;&gt;Node7</title>
<path fill="none" stroke="midnightblue" d="M344.837,-406.897C378.289,-397.196 428.972,-382.498 465.367,-371.944"/>
<polygon fill="midnightblue" stroke="midnightblue" points="466.597,-375.231 475.227,-369.084 464.648,-368.508 466.597,-375.231"/>
</g>
<!-- Node18 -->
<g id="node37" class="node"><title>Node18</title>
<a xlink:href="_o_s_8h.html" target="_top" xlink:title="../Util/OS.h">
<polygon fill="none" stroke="black" points="235,-117 235,-137 299,-137 299,-117 235,-117"/>
<text text-anchor="middle" x="267" y="-124" font-family="FreeSans" font-size="10.00">../Util/OS.h</text>
</a>
</g>
<!-- Node6&#45;&gt;Node18 -->
<g id="edge78" class="edge"><title>Node6&#45;&gt;Node18</title>
<path fill="none" stroke="midnightblue" d="M303.469,-406.913C291.44,-387.334 267,-342.453 267,-301 267,-301 267,-301 267,-243 267,-209.577 267,-170.738 267,-147.551"/>
<polygon fill="midnightblue" stroke="midnightblue" points="270.5,-147.241 267,-137.241 263.5,-147.241 270.5,-147.241"/>
</g>
<!-- Node29 -->
<g id="node69" class="node"><title>Node29</title>
<a xlink:href="_track_compilation_log_8h.html" target="_top" xlink:title="TrackCompilationLog.h">
<polygon fill="none" stroke="black" points="295,-349 295,-369 411,-369 411,-349 295,-349"/>
<text text-anchor="middle" x="353" y="-356" font-family="FreeSans" font-size="10.00">TrackCompilationLog.h</text>
</a>
</g>
<!-- Node6&#45;&gt;Node29 -->
<g id="edge80" class="edge"><title>Node6&#45;&gt;Node29</title>
<path fill="none" stroke="midnightblue" d="M317.49,-406.897C323.459,-398.846 331.98,-387.353 339.178,-377.643"/>
<polygon fill="midnightblue" stroke="midnightblue" points="342.162,-379.495 345.306,-369.378 336.539,-375.326 342.162,-379.495"/>
</g>
<!-- Node8 -->
<g id="node15" class="node"><title>Node8</title>
<a xlink:href="_maze_element_8h.html" target="_top" xlink:title="MazeElement.h">
<polygon fill="none" stroke="black" points="468.5,-291 468.5,-311 551.5,-311 551.5,-291 468.5,-291"/>
<text text-anchor="middle" x="510" y="-298" font-family="FreeSans" font-size="10.00">MazeElement.h</text>
</a>
</g>
<!-- Node7&#45;&gt;Node8 -->
<g id="edge14" class="edge"><title>Node7&#45;&gt;Node8</title>
<path fill="none" stroke="midnightblue" d="M510,-348.897C510,-341.339 510,-330.748 510,-321.446"/>
<polygon fill="midnightblue" stroke="midnightblue" points="513.5,-321.378 510,-311.378 506.5,-321.378 513.5,-321.378"/>
</g>
<!-- Node28 -->
<g id="node65" class="node"><title>Node28</title>
<a xlink:href="_shape_collisions_8h.html" target="_top" xlink:title="ShapeCollisions.h">
<polygon fill="none" stroke="black" points="647,-291 647,-311 741,-311 741,-291 647,-291"/>
<text text-anchor="middle" x="694" y="-298" font-family="FreeSans" font-size="10.00">ShapeCollisions.h</text>
</a>
</g>
<!-- Node7&#45;&gt;Node28 -->
<g id="edge74" class="edge"><title>Node7&#45;&gt;Node28</title>
<path fill="none" stroke="midnightblue" d="M542.05,-348.897C572.563,-339.279 618.658,-324.749 652.076,-314.215"/>
<polygon fill="midnightblue" stroke="midnightblue" points="653.524,-317.429 662.009,-311.084 651.419,-310.753 653.524,-317.429"/>
</g>
<!-- Node9 -->
<g id="node17" class="node"><title>Node9</title>
<a xlink:href="_shapes_8h.html" target="_top" xlink:title="Shapes.h">
<polygon fill="none" stroke="black" points="709.5,-233 709.5,-253 766.5,-253 766.5,-233 709.5,-233"/>
<text text-anchor="middle" x="738" y="-240" font-family="FreeSans" font-size="10.00">Shapes.h</text>
</a>
</g>
<!-- Node8&#45;&gt;Node9 -->
<g id="edge16" class="edge"><title>Node8&#45;&gt;Node9</title>
<path fill="none" stroke="midnightblue" d="M551.503,-291.39C588.171,-282.765 643.312,-269.468 699.582,-254.311"/>
<polygon fill="midnightblue" stroke="midnightblue" points="700.619,-257.657 709.355,-251.663 698.788,-250.9 700.619,-257.657"/>
</g>
<!-- Node13 -->
<g id="node25" class="node"><title>Node13</title>
<a xlink:href="_contact_effect_8h.html" target="_top" xlink:title="ContactEffect.h">
<polygon fill="none" stroke="black" points="301.5,-233 301.5,-253 384.5,-253 384.5,-233 301.5,-233"/>
<text text-anchor="middle" x="343" y="-240" font-family="FreeSans" font-size="10.00">ContactEffect.h</text>
</a>
</g>
<!-- Node8&#45;&gt;Node13 -->
<g id="edge24" class="edge"><title>Node8&#45;&gt;Node13</title>
<path fill="none" stroke="midnightblue" d="M480.911,-290.897C453.456,-281.362 412.101,-266.999 381.838,-256.488"/>
<polygon fill="midnightblue" stroke="midnightblue" points="382.63,-253.059 372.036,-253.084 380.334,-259.671 382.63,-253.059"/>
</g>
<!-- Node15 -->
<g id="node29" class="node"><title>Node15</title>
<a xlink:href="_dll_object_factory_8h.html" target="_top" xlink:title="../Util/DllObjectFactory.h">
<polygon fill="none" stroke="black" points="404,-233 404,-253 526,-253 526,-233 404,-233"/>
<text text-anchor="middle" x="465" y="-240" font-family="FreeSans" font-size="10.00">../Util/DllObjectFactory.h</text>
</a>
</g>
<!-- Node8&#45;&gt;Node15 -->
<g id="edge28" class="edge"><title>Node8&#45;&gt;Node15</title>
<path fill="none" stroke="midnightblue" d="M502.162,-290.897C495.851,-282.764 486.816,-271.118 479.235,-261.347"/>
<polygon fill="midnightblue" stroke="midnightblue" points="481.947,-259.133 473.052,-253.378 476.416,-263.424 481.947,-259.133"/>
</g>
<!-- Node22 -->
<g id="node49" class="node"><title>Node22</title>
<a xlink:href="_viewport3_d_8h.html" target="_top" xlink:title="../VideoServices/Viewport3D.h">
<polygon fill="none" stroke="black" points="544,-233 544,-253 692,-253 692,-233 544,-233"/>
<text text-anchor="middle" x="618" y="-240" font-family="FreeSans" font-size="10.00">../VideoServices/Viewport3D.h</text>
</a>
</g>
<!-- Node8&#45;&gt;Node22 -->
<g id="edge54" class="edge"><title>Node8&#45;&gt;Node22</title>
<path fill="none" stroke="midnightblue" d="M528.812,-290.897C545.743,-281.804 570.849,-268.322 590.114,-257.976"/>
<polygon fill="midnightblue" stroke="midnightblue" points="591.887,-260.996 599.041,-253.182 588.575,-254.829 591.887,-260.996"/>
</g>
<!-- Node10 -->
<g id="node19" class="node"><title>Node10</title>
<a xlink:href="_world_coordinates_8h.html" target="_top" xlink:title="../Util/WorldCoordinates.h">
<polygon fill="none" stroke="black" points="752,-117 752,-137 878,-137 878,-117 752,-117"/>
<text text-anchor="middle" x="815" y="-124" font-family="FreeSans" font-size="10.00">../Util/WorldCoordinates.h</text>
</a>
</g>
<!-- Node9&#45;&gt;Node10 -->
<g id="edge18" class="edge"><title>Node9&#45;&gt;Node10</title>
<path fill="none" stroke="midnightblue" d="M761.034,-232.893C776.059,-225.054 794.726,-212.701 805,-196 813.996,-181.376 816.093,-161.775 816.175,-147.201"/>
<polygon fill="midnightblue" stroke="midnightblue" points="819.673,-147.112 815.925,-137.202 812.676,-147.287 819.673,-147.112"/>
</g>
<!-- Node11 -->
<g id="node21" class="node"><title>Node11</title>
<a xlink:href="_m_r___types_8h.html" target="_top" xlink:title="MR_Types.h">
<polygon fill="none" stroke="black" points="497.5,-59 497.5,-79 568.5,-79 568.5,-59 497.5,-59"/>
<text text-anchor="middle" x="533" y="-66" font-family="FreeSans" font-size="10.00">MR_Types.h</text>
</a>
</g>
<!-- Node10&#45;&gt;Node11 -->
<g id="edge20" class="edge"><title>Node10&#45;&gt;Node11</title>
<path fill="none" stroke="midnightblue" d="M766.201,-116.963C713.441,-106.112 630.01,-88.9523 578.551,-78.3686"/>
<polygon fill="midnightblue" stroke="midnightblue" points="579.204,-74.9297 568.704,-76.3433 577.794,-81.7862 579.204,-74.9297"/>
</g>
<!-- Node12 -->
<g id="node23" class="node"><title>Node12</title>
<polygon fill="none" stroke="#bfbfbf" points="504,-1 504,-21 562,-21 562,-1 504,-1"/>
<text text-anchor="middle" x="533" y="-8" font-family="FreeSans" font-size="10.00">inttypes.h</text>
</g>
<!-- Node11&#45;&gt;Node12 -->
<g id="edge22" class="edge"><title>Node11&#45;&gt;Node12</title>
<path fill="none" stroke="midnightblue" d="M533,-58.8972C533,-51.339 533,-40.7476 533,-31.4458"/>
<polygon fill="midnightblue" stroke="midnightblue" points="536.5,-31.3776 533,-21.3776 529.5,-31.3776 536.5,-31.3776"/>
</g>
<!-- Node14 -->
<g id="node27" class="node"><title>Node14</title>
<polygon fill="none" stroke="#bfbfbf" points="306,-59 306,-79 350,-79 350,-59 306,-59"/>
<text text-anchor="middle" x="328" y="-66" font-family="FreeSans" font-size="10.00">vector</text>
</g>
<!-- Node13&#45;&gt;Node14 -->
<g id="edge26" class="edge"><title>Node13&#45;&gt;Node14</title>
<path fill="none" stroke="midnightblue" d="M337.87,-232.863C333.464,-223.552 327.447,-209.232 325,-196 318.148,-158.951 321.777,-114.793 324.95,-89.5132"/>
<polygon fill="midnightblue" stroke="midnightblue" points="328.457,-89.7004 326.336,-79.3199 321.521,-88.757 328.457,-89.7004"/>
</g>
<!-- Node15&#45;&gt;Node11 -->
<g id="edge52" class="edge"><title>Node15&#45;&gt;Node11</title>
<path fill="none" stroke="midnightblue" d="M464.769,-232.811C464.671,-210.393 466.71,-155.639 487,-116 492.955,-104.366 502.782,-93.7391 511.827,-85.5447"/>
<polygon fill="midnightblue" stroke="midnightblue" points="514.142,-88.1703 519.458,-79.0056 509.587,-82.8549 514.142,-88.1703"/>
</g>
<!-- Node16 -->
<g id="node31" class="node"><title>Node16</title>
<a xlink:href="_obj_stream_8h.html" target="_top" xlink:title="../Parcel/ObjStream.h">
<polygon fill="none" stroke="black" points="333.5,-175 333.5,-195 442.5,-195 442.5,-175 333.5,-175"/>
<text text-anchor="middle" x="388" y="-182" font-family="FreeSans" font-size="10.00">../Parcel/ObjStream.h</text>
</a>
</g>
<!-- Node15&#45;&gt;Node16 -->
<g id="edge30" class="edge"><title>Node15&#45;&gt;Node16</title>
<path fill="none" stroke="midnightblue" d="M451.588,-232.897C440.065,-224.218 423.232,-211.538 409.779,-201.405"/>
<polygon fill="midnightblue" stroke="midnightblue" points="411.61,-198.403 401.517,-195.182 407.399,-203.994 411.61,-198.403"/>
</g>
<!-- Node16&#45;&gt;Node4 -->
<g id="edge34" class="edge"><title>Node16&#45;&gt;Node4</title>
<path fill="none" stroke="midnightblue" d="M351.769,-174.897C316.831,-165.155 263.818,-150.372 225.934,-139.809"/>
<polygon fill="midnightblue" stroke="midnightblue" points="226.737,-136.399 216.164,-137.084 224.856,-143.142 226.737,-136.399"/>
</g>
<!-- Node16&#45;&gt;Node11 -->
<g id="edge36" class="edge"><title>Node16&#45;&gt;Node11</title>
<path fill="none" stroke="midnightblue" d="M396.217,-174.804C408.022,-160.555 430.911,-134.373 454,-116 469.409,-103.738 488.317,-92.3779 503.771,-83.8984"/>
<polygon fill="midnightblue" stroke="midnightblue" points="505.728,-86.8205 512.885,-79.0087 502.418,-80.6522 505.728,-86.8205"/>
</g>
<!-- Node17 -->
<g id="node33" class="node"><title>Node17</title>
<polygon fill="none" stroke="#bfbfbf" points="367.5,-59 367.5,-79 408.5,-79 408.5,-59 367.5,-59"/>
<text text-anchor="middle" x="388" y="-66" font-family="FreeSans" font-size="10.00">string</text>
</g>
<!-- Node16&#45;&gt;Node17 -->
<g id="edge32" class="edge"><title>Node16&#45;&gt;Node17</title>
<path fill="none" stroke="midnightblue" d="M388,-174.706C388,-155.568 388,-114.198 388,-89.2654"/>
<polygon fill="midnightblue" stroke="midnightblue" points="391.5,-89.1055 388,-79.1055 384.5,-89.1056 391.5,-89.1055"/>
</g>
<!-- Node16&#45;&gt;Node18 -->
<g id="edge38" class="edge"><title>Node16&#45;&gt;Node18</title>
<path fill="none" stroke="midnightblue" d="M366.923,-174.897C347.695,-165.68 319.058,-151.953 297.363,-141.554"/>
<polygon fill="midnightblue" stroke="midnightblue" points="298.771,-138.348 288.241,-137.182 295.746,-144.66 298.771,-138.348"/>
</g>
<!-- Node18&#45;&gt;Node11 -->
<g id="edge50" class="edge"><title>Node18&#45;&gt;Node11</title>
<path fill="none" stroke="midnightblue" d="M299.086,-120.004C346.078,-109.757 433.845,-90.6203 487.487,-78.924"/>
<polygon fill="midnightblue" stroke="midnightblue" points="488.388,-82.3097 497.413,-76.7596 486.897,-75.4704 488.388,-82.3097"/>
</g>
<!-- Node18&#45;&gt;Node14 -->
<g id="edge46" class="edge"><title>Node18&#45;&gt;Node14</title>
<path fill="none" stroke="midnightblue" d="M277.625,-116.897C286.439,-108.517 299.173,-96.4093 309.633,-86.4638"/>
<polygon fill="midnightblue" stroke="midnightblue" points="312.25,-88.8047 317.086,-79.3776 307.427,-83.7318 312.25,-88.8047"/>
</g>
<!-- Node18&#45;&gt;Node17 -->
<g id="edge44" class="edge"><title>Node18&#45;&gt;Node17</title>
<path fill="none" stroke="midnightblue" d="M288.077,-116.897C307.422,-107.624 336.294,-93.7846 358.035,-83.3632"/>
<polygon fill="midnightblue" stroke="midnightblue" points="359.66,-86.4657 367.165,-78.9871 356.634,-80.1534 359.66,-86.4657"/>
</g>
<!-- Node19 -->
<g id="node39" class="node"><title>Node19</title>
<polygon fill="none" stroke="#bfbfbf" points="246,-59 246,-79 288,-79 288,-59 246,-59"/>
<text text-anchor="middle" x="267" y="-66" font-family="FreeSans" font-size="10.00">locale</text>
</g>
<!-- Node18&#45;&gt;Node19 -->
<g id="edge40" class="edge"><title>Node18&#45;&gt;Node19</title>
<path fill="none" stroke="midnightblue" d="M267,-116.897C267,-109.339 267,-98.7476 267,-89.4458"/>
<polygon fill="midnightblue" stroke="midnightblue" points="270.5,-89.3776 267,-79.3776 263.5,-89.3776 270.5,-89.3776"/>
</g>
<!-- Node20 -->
<g id="node41" class="node"><title>Node20</title>
<polygon fill="none" stroke="#bfbfbf" points="76,-59 76,-79 106,-79 106,-59 76,-59"/>
<text text-anchor="middle" x="91" y="-66" font-family="FreeSans" font-size="10.00">set</text>
</g>
<!-- Node18&#45;&gt;Node20 -->
<g id="edge42" class="edge"><title>Node18&#45;&gt;Node20</title>
<path fill="none" stroke="midnightblue" d="M234.858,-118.374C205.81,-110.291 161.779,-97.3306 115.665,-79.9417"/>
<polygon fill="midnightblue" stroke="midnightblue" points="116.699,-76.5899 106.109,-76.2848 114.197,-83.1276 116.699,-76.5899"/>
</g>
<!-- Node21 -->
<g id="node45" class="node"><title>Node21</title>
<polygon fill="none" stroke="#bfbfbf" points="123.5,-59 123.5,-79 228.5,-79 228.5,-59 123.5,-59"/>
<text text-anchor="middle" x="176" y="-66" font-family="FreeSans" font-size="10.00">boost/filesystem.hpp</text>
</g>
<!-- Node18&#45;&gt;Node21 -->
<g id="edge48" class="edge"><title>Node18&#45;&gt;Node21</title>
<path fill="none" stroke="midnightblue" d="M251.149,-116.897C237.272,-108.052 216.878,-95.0539 200.835,-84.829"/>
<polygon fill="midnightblue" stroke="midnightblue" points="202.289,-81.605 191.975,-79.1817 198.526,-87.5079 202.289,-81.605"/>
</g>
<!-- Node23 -->
<g id="node51" class="node"><title>Node23</title>
<a xlink:href="_viewport2_d_8h.html" target="_top" xlink:title="Viewport2D.h">
<polygon fill="none" stroke="black" points="496,-117 496,-137 570,-137 570,-117 496,-117"/>
<text text-anchor="middle" x="533" y="-124" font-family="FreeSans" font-size="10.00">Viewport2D.h</text>
</a>
</g>
<!-- Node22&#45;&gt;Node23 -->
<g id="edge56" class="edge"><title>Node22&#45;&gt;Node23</title>
<path fill="none" stroke="midnightblue" d="M606.249,-232.975C596.13,-223.963 581.537,-210.023 571,-196 559.365,-180.516 548.974,-161.046 542.01,-146.74"/>
<polygon fill="midnightblue" stroke="midnightblue" points="545.017,-144.91 537.578,-137.366 538.689,-147.902 545.017,-144.91"/>
</g>
<!-- Node24 -->
<g id="node54" class="node"><title>Node24</title>
<a xlink:href="_color_palette_8h.html" target="_top" xlink:title="ColorPalette.h">
<polygon fill="none" stroke="black" points="579.5,-175 579.5,-195 656.5,-195 656.5,-175 579.5,-175"/>
<text text-anchor="middle" x="618" y="-182" font-family="FreeSans" font-size="10.00">ColorPalette.h</text>
</a>
</g>
<!-- Node22&#45;&gt;Node24 -->
<g id="edge60" class="edge"><title>Node22&#45;&gt;Node24</title>
<path fill="none" stroke="midnightblue" d="M618,-232.897C618,-225.339 618,-214.748 618,-205.446"/>
<polygon fill="midnightblue" stroke="midnightblue" points="621.5,-205.378 618,-195.378 614.5,-205.378 621.5,-205.378"/>
</g>
<!-- Node26 -->
<g id="node59" class="node"><title>Node26</title>
<a xlink:href="_bitmap_8h.html" target="_top" xlink:title="Bitmap.h">
<polygon fill="none" stroke="black" points="673.5,-175 673.5,-195 728.5,-195 728.5,-175 673.5,-175"/>
<text text-anchor="middle" x="701" y="-182" font-family="FreeSans" font-size="10.00">Bitmap.h</text>
</a>
</g>
<!-- Node22&#45;&gt;Node26 -->
<g id="edge66" class="edge"><title>Node22&#45;&gt;Node26</title>
<path fill="none" stroke="midnightblue" d="M632.457,-232.897C644.996,-224.135 663.369,-211.297 677.937,-201.116"/>
<polygon fill="midnightblue" stroke="midnightblue" points="680.238,-203.779 686.43,-195.182 676.228,-198.041 680.238,-203.779"/>
</g>
<!-- Node27 -->
<g id="node62" class="node"><title>Node27</title>
<a xlink:href="_patch_8h.html" target="_top" xlink:title="Patch.h">
<polygon fill="none" stroke="black" points="746,-175 746,-195 796,-195 796,-175 746,-175"/>
<text text-anchor="middle" x="771" y="-182" font-family="FreeSans" font-size="10.00">Patch.h</text>
</a>
</g>
<!-- Node22&#45;&gt;Node27 -->
<g id="edge70" class="edge"><title>Node22&#45;&gt;Node27</title>
<path fill="none" stroke="midnightblue" d="M644.651,-232.897C670.154,-223.229 708.749,-208.598 736.57,-198.052"/>
<polygon fill="midnightblue" stroke="midnightblue" points="737.813,-201.324 745.923,-194.506 735.331,-194.779 737.813,-201.324"/>
</g>
<!-- Node23&#45;&gt;Node11 -->
<g id="edge58" class="edge"><title>Node23&#45;&gt;Node11</title>
<path fill="none" stroke="midnightblue" d="M533,-116.897C533,-109.339 533,-98.7476 533,-89.4458"/>
<polygon fill="midnightblue" stroke="midnightblue" points="536.5,-89.3776 533,-79.3776 529.5,-89.3776 536.5,-89.3776"/>
</g>
<!-- Node24&#45;&gt;Node11 -->
<g id="edge64" class="edge"><title>Node24&#45;&gt;Node11</title>
<path fill="none" stroke="midnightblue" d="M634.079,-174.948C653.513,-161.517 681.871,-136.975 667,-116 656.423,-101.082 613.103,-87.6698 578.542,-79.0285"/>
<polygon fill="midnightblue" stroke="midnightblue" points="579.147,-75.5737 568.603,-76.612 577.494,-82.3755 579.147,-75.5737"/>
</g>
<!-- Node25 -->
<g id="node56" class="node"><title>Node25</title>
<polygon fill="none" stroke="#bfbfbf" points="587.5,-117 587.5,-137 658.5,-137 658.5,-117 587.5,-117"/>
<text text-anchor="middle" x="623" y="-124" font-family="FreeSans" font-size="10.00">SDL2/SDL.h</text>
</g>
<!-- Node24&#45;&gt;Node25 -->
<g id="edge62" class="edge"><title>Node24&#45;&gt;Node25</title>
<path fill="none" stroke="midnightblue" d="M618.871,-174.897C619.522,-167.339 620.436,-156.748 621.237,-147.446"/>
<polygon fill="midnightblue" stroke="midnightblue" points="624.733,-147.641 622.105,-137.378 617.759,-147.04 624.733,-147.641"/>
</g>
<!-- Node26&#45;&gt;Node11 -->
<g id="edge68" class="edge"><title>Node26&#45;&gt;Node11</title>
<path fill="none" stroke="midnightblue" d="M701.42,-174.642C701.443,-159.712 699.223,-132.168 684,-116 669.487,-100.586 617.661,-86.6869 578.745,-78.0711"/>
<polygon fill="midnightblue" stroke="midnightblue" points="579.171,-74.5824 568.657,-75.8906 577.692,-81.4244 579.171,-74.5824"/>
</g>
<!-- Node27&#45;&gt;Node10 -->
<g id="edge72" class="edge"><title>Node27&#45;&gt;Node10</title>
<path fill="none" stroke="midnightblue" d="M778.664,-174.897C784.834,-166.764 793.669,-155.118 801.082,-145.347"/>
<polygon fill="midnightblue" stroke="midnightblue" points="803.872,-147.46 807.127,-137.378 798.295,-143.229 803.872,-147.46"/>
</g>
<!-- Node28&#45;&gt;Node9 -->
<g id="edge76" class="edge"><title>Node28&#45;&gt;Node9</title>
<path fill="none" stroke="midnightblue" d="M701.664,-290.897C707.834,-282.764 716.669,-271.118 724.082,-261.347"/>
<polygon fill="midnightblue" stroke="midnightblue" points="726.872,-263.46 730.127,-253.378 721.295,-259.229 726.872,-263.46"/>
</g>
</g>
</svg>
