<?xml version="1.0" encoding="UTF-8" standalone="no"?>
<!DOCTYPE svg PUBLIC "-//W3C//DTD SVG 1.1//EN"
 "http://www.w3.org/Graphics/SVG/1.1/DTD/svg11.dtd">
<!-- Generated by graphviz version 2.26.3 (20100126.1600)
 -->
<!-- Title: LevelBuilder.cpp Pages: 1 -->
<!--zoomable 494 -->
<svg id="main" version="1.1" xmlns="http://www.w3.org/2000/svg" xmlns:xlink="http://www.w3.org/1999/xlink" xml:space="preserve" onload="init(evt)">
        <defs>
                <circle id="rim" cx="0" cy="0" r="7"/>
                <circle id="rim2" cx="0" cy="0" r="3.5"/>
                <g id="zoomPlus">
                        <use xlink:href="#rim" fill="#404040">
                                <set attributeName="fill" to="#808080" begin="zoomplus.mouseover" end="zoomplus.mouseout"/>
                        </use>
                        <path d="M-4,0h8M0,-4v8" fill="none" stroke="white" stroke-width="1.5" pointer-events="none"/>
                </g>
                <g id="zoomMin">
                        <use xlink:href="#rim" fill="#404040">
                                <set attributeName="fill" to="#808080" begin="zoomminus.mouseover" end="zoomminus.mouseout"/>
                        </use>
                        <path d="M-4,0h8" fill="none" stroke="white" stroke-width="1.5" pointer-events="none"/>
                </g>
                <g id="dirArrow">
                        <path fill="none" stroke="white" stroke-width="1.5" d="M0,-3.0v7 M-2.5,-0.5L0,-3.0L2.5,-0.5"/>
                </g>
               <g id="resetDef">
                       <use xlink:href="#rim2" fill="#404040">
                               <set attributeName="fill" to="#808080" begin="reset.mouseover" end="reset.mouseout"/>
                       </use>
               </g>
        </defs>

<script type="text/javascript">
var viewWidth = 1351;
var viewHeight = 494;
var sectionId = 'dynsection-0';
</script>
<script xlink:href="svgpan.js"/>
<svg id="graph" class="graph">
<g id="viewport">
<title>LevelBuilder.cpp</title>
<!-- Node1 -->
<g id="node1" class="node"><title>Node1</title>
<polygon fill="#bfbfbf" stroke="black" points="297.5,-465 297.5,-485 386.5,-485 386.5,-465 297.5,-465"/>
<text text-anchor="middle" x="342" y="-472" font-family="FreeSans" font-size="10.00">LevelBuilder.cpp</text>
</g>
<!-- Node2 -->
<g id="node3" class="node"><title>Node2</title>
<polygon fill="none" stroke="#bfbfbf" points="-0.5,-407 -0.5,-427 52.5,-427 52.5,-407 -0.5,-407"/>
<text text-anchor="middle" x="26" y="-414" font-family="FreeSans" font-size="10.00">StdAfx.h</text>
</g>
<!-- Node1&#45;&gt;Node2 -->
<g id="edge2" class="edge"><title>Node1&#45;&gt;Node2</title>
<path fill="none" stroke="midnightblue" d="M297.328,-469.477C243.585,-462.404 150.526,-448.791 62.5201,-428.145"/>
<polygon fill="midnightblue" stroke="midnightblue" points="63.1852,-424.706 52.6464,-425.794 61.5634,-431.515 63.1852,-424.706"/>
</g>
<!-- Node3 -->
<g id="node5" class="node"><title>Node3</title>
<polygon fill="none" stroke="#bfbfbf" points="70,-407 70,-427 116,-427 116,-407 70,-407"/>
<text text-anchor="middle" x="93" y="-414" font-family="FreeSans" font-size="10.00">math.h</text>
</g>
<!-- Node1&#45;&gt;Node3 -->
<g id="edge4" class="edge"><title>Node1&#45;&gt;Node3</title>
<path fill="none" stroke="midnightblue" d="M297.155,-466.888C255.165,-458.937 190.542,-445.789 126.219,-428.127"/>
<polygon fill="midnightblue" stroke="midnightblue" points="126.891,-424.681 116.319,-425.371 125.014,-431.424 126.891,-424.681"/>
</g>
<!-- Node4 -->
<g id="node7" class="node"><title>Node4</title>
<polygon fill="none" stroke="#bfbfbf" points="133.5,-407 133.5,-427 274.5,-427 274.5,-407 133.5,-407"/>
<text text-anchor="middle" x="204" y="-414" font-family="FreeSans" font-size="10.00">boost/filesystem/fstream.hpp</text>
</g>
<!-- Node1&#45;&gt;Node4 -->
<g id="edge6" class="edge"><title>Node1&#45;&gt;Node4</title>
<path fill="none" stroke="midnightblue" d="M317.962,-464.897C295.738,-455.556 262.491,-441.583 237.635,-431.136"/>
<polygon fill="midnightblue" stroke="midnightblue" points="238.8,-427.83 228.225,-427.182 236.088,-434.283 238.8,-427.83"/>
</g>
<!-- Node5 -->
<g id="node9" class="node"><title>Node5</title>
<a xlink:href="_track_compile_exn_8h.html" target="_top" xlink:title="TrackCompileExn.h">
<polygon fill="none" stroke="black" points="292,-407 292,-427 392,-427 392,-407 292,-407"/>
<text text-anchor="middle" x="342" y="-414" font-family="FreeSans" font-size="10.00">TrackCompileExn.h</text>
</a>
</g>
<!-- Node1&#45;&gt;Node5 -->
<g id="edge8" class="edge"><title>Node1&#45;&gt;Node5</title>
<path fill="none" stroke="midnightblue" d="M342,-464.897C342,-457.339 342,-446.748 342,-437.446"/>
<polygon fill="midnightblue" stroke="midnightblue" points="345.5,-437.378 342,-427.378 338.5,-437.378 345.5,-437.378"/>
</g>
<!-- Node8 -->
<g id="node15" class="node"><title>Node8</title>
<a xlink:href="_track_spec_parser_8h.html" target="_top" xlink:title="TrackSpecParser.h">
<polygon fill="none" stroke="black" points="410,-407 410,-427 510,-427 510,-407 410,-407"/>
<text text-anchor="middle" x="460" y="-414" font-family="FreeSans" font-size="10.00">TrackSpecParser.h</text>
</a>
</g>
<!-- Node1&#45;&gt;Node8 -->
<g id="edge14" class="edge"><title>Node1&#45;&gt;Node8</title>
<path fill="none" stroke="midnightblue" d="M362.554,-464.897C381.221,-455.722 408.983,-442.076 430.105,-431.694"/>
<polygon fill="midnightblue" stroke="midnightblue" points="431.855,-434.734 439.286,-427.182 428.767,-428.452 431.855,-434.734"/>
</g>
<!-- Node9 -->
<g id="node17" class="node"><title>Node9</title>
<a xlink:href="_level_builder_8h.html" target="_top" xlink:title="LevelBuilder.h">
<polygon fill="none" stroke="black" points="528,-407 528,-427 606,-427 606,-407 528,-407"/>
<text text-anchor="middle" x="567" y="-414" font-family="FreeSans" font-size="10.00">LevelBuilder.h</text>
</a>
</g>
<!-- Node1&#45;&gt;Node9 -->
<g id="edge16" class="edge"><title>Node1&#45;&gt;Node9</title>
<path fill="none" stroke="midnightblue" d="M380.935,-464.963C419.048,-455.139 477.219,-440.144 518.357,-429.539"/>
<polygon fill="midnightblue" stroke="midnightblue" points="519.355,-432.896 528.165,-427.011 517.608,-426.118 519.355,-432.896"/>
</g>
<!-- Node33 -->
<g id="node74" class="node"><title>Node33</title>
<polygon fill="none" stroke="#bfbfbf" points="623.5,-407 623.5,-427 676.5,-427 676.5,-407 623.5,-407"/>
<text text-anchor="middle" x="650" y="-414" font-family="FreeSans" font-size="10.00">strings.h</text>
</g>
<!-- Node1&#45;&gt;Node33 -->
<g id="edge82" class="edge"><title>Node1&#45;&gt;Node33</title>
<path fill="none" stroke="midnightblue" d="M386.824,-469.164C439.205,-461.929 528.592,-448.296 613.55,-428.14"/>
<polygon fill="midnightblue" stroke="midnightblue" points="614.447,-431.524 623.35,-425.78 612.809,-424.718 614.447,-431.524"/>
</g>
<!-- Node6 -->
<g id="node11" class="node"><title>Node6</title>
<a xlink:href="_exception_8h.html" target="_top" xlink:title="../Exception.h">
<polygon fill="none" stroke="black" points="276,-349 276,-369 350,-369 350,-349 276,-349"/>
<text text-anchor="middle" x="313" y="-356" font-family="FreeSans" font-size="10.00">../Exception.h</text>
</a>
</g>
<!-- Node5&#45;&gt;Node6 -->
<g id="edge10" class="edge"><title>Node5&#45;&gt;Node6</title>
<path fill="none" stroke="midnightblue" d="M336.949,-406.897C333.046,-399.093 327.527,-388.054 322.77,-378.54"/>
<polygon fill="midnightblue" stroke="midnightblue" points="325.791,-376.757 318.189,-369.378 319.53,-379.887 325.791,-376.757"/>
</g>
<!-- Node7 -->
<g id="node13" class="node"><title>Node7</title>
<polygon fill="none" stroke="#bfbfbf" points="269,-291 269,-311 327,-311 327,-291 269,-291"/>
<text text-anchor="middle" x="298" y="-298" font-family="FreeSans" font-size="10.00">exception</text>
</g>
<!-- Node6&#45;&gt;Node7 -->
<g id="edge12" class="edge"><title>Node6&#45;&gt;Node7</title>
<path fill="none" stroke="midnightblue" d="M310.387,-348.897C308.411,-341.257 305.634,-330.517 303.209,-321.143"/>
<polygon fill="midnightblue" stroke="midnightblue" points="306.576,-320.183 300.684,-311.378 299.799,-321.935 306.576,-320.183"/>
</g>
<!-- Node10 -->
<g id="node19" class="node"><title>Node10</title>
<a xlink:href="_level_8h.html" target="_top" xlink:title="../Model/Level.h">
<polygon fill="none" stroke="black" points="814.5,-349 814.5,-369 899.5,-369 899.5,-349 814.5,-349"/>
<text text-anchor="middle" x="857" y="-356" font-family="FreeSans" font-size="10.00">../Model/Level.h</text>
</a>
</g>
<!-- Node9&#45;&gt;Node10 -->
<g id="edge18" class="edge"><title>Node9&#45;&gt;Node10</title>
<path fill="none" stroke="midnightblue" d="M606.009,-407.946C609.048,-407.275 612.073,-406.62 615,-406 679.891,-392.267 754.904,-377.937 804.001,-368.765"/>
<polygon fill="midnightblue" stroke="midnightblue" points="804.883,-372.161 814.072,-366.888 803.6,-365.28 804.883,-372.161"/>
</g>
<!-- Node27 -->
<g id="node61" class="node"><title>Node27</title>
<a xlink:href="_o_s_8h.html" target="_top" xlink:title="../Util/OS.h">
<polygon fill="none" stroke="black" points="441,-349 441,-369 505,-369 505,-349 441,-349"/>
<text text-anchor="middle" x="473" y="-356" font-family="FreeSans" font-size="10.00">../Util/OS.h</text>
</a>
</g>
<!-- Node9&#45;&gt;Node27 -->
<g id="edge68" class="edge"><title>Node9&#45;&gt;Node27</title>
<path fill="none" stroke="midnightblue" d="M550.626,-406.897C536.158,-397.97 514.831,-384.811 498.191,-374.543"/>
<polygon fill="midnightblue" stroke="midnightblue" points="499.85,-371.454 489.501,-369.182 496.174,-377.411 499.85,-371.454"/>
</g>
<!-- Node32 -->
<g id="node72" class="node"><title>Node32</title>
<a xlink:href="_track_compilation_log_8h.html" target="_top" xlink:title="TrackCompilationLog.h">
<polygon fill="none" stroke="black" points="523,-349 523,-369 639,-369 639,-349 523,-349"/>
<text text-anchor="middle" x="581" y="-356" font-family="FreeSans" font-size="10.00">TrackCompilationLog.h</text>
</a>
</g>
<!-- Node9&#45;&gt;Node32 -->
<g id="edge80" class="edge"><title>Node9&#45;&gt;Node32</title>
<path fill="none" stroke="midnightblue" d="M569.439,-406.897C571.283,-399.257 573.875,-388.517 576.138,-379.143"/>
<polygon fill="midnightblue" stroke="midnightblue" points="579.551,-379.92 578.495,-369.378 572.746,-378.277 579.551,-379.92"/>
</g>
<!-- Node11 -->
<g id="node21" class="node"><title>Node11</title>
<a xlink:href="_maze_element_8h.html" target="_top" xlink:title="MazeElement.h">
<polygon fill="none" stroke="black" points="851.5,-291 851.5,-311 934.5,-311 934.5,-291 851.5,-291"/>
<text text-anchor="middle" x="893" y="-298" font-family="FreeSans" font-size="10.00">MazeElement.h</text>
</a>
</g>
<!-- Node10&#45;&gt;Node11 -->
<g id="edge20" class="edge"><title>Node10&#45;&gt;Node11</title>
<path fill="none" stroke="midnightblue" d="M863.271,-348.897C868.217,-340.928 875.256,-329.587 881.243,-319.941"/>
<polygon fill="midnightblue" stroke="midnightblue" points="884.259,-321.72 886.559,-311.378 878.311,-318.028 884.259,-321.72"/>
</g>
<!-- Node25 -->
<g id="node55" class="node"><title>Node25</title>
<a xlink:href="_shape_collisions_8h.html" target="_top" xlink:title="ShapeCollisions.h">
<polygon fill="none" stroke="black" points="771,-233 771,-253 865,-253 865,-233 771,-233"/>
<text text-anchor="middle" x="818" y="-240" font-family="FreeSans" font-size="10.00">ShapeCollisions.h</text>
</a>
</g>
<!-- Node10&#45;&gt;Node25 -->
<g id="edge60" class="edge"><title>Node10&#45;&gt;Node25</title>
<path fill="none" stroke="midnightblue" d="M853.539,-348.706C847.047,-329.396 832.945,-287.451 824.588,-262.596"/>
<polygon fill="midnightblue" stroke="midnightblue" points="827.902,-261.469 821.398,-253.106 821.267,-263.7 827.902,-261.469"/>
</g>
<!-- Node26 -->
<g id="node58" class="node"><title>Node26</title>
<a xlink:href="_fast_array_8h.html" target="_top" xlink:title="../Util/FastArray.h">
<polygon fill="none" stroke="black" points="1251,-233 1251,-253 1343,-253 1343,-233 1251,-233"/>
<text text-anchor="middle" x="1297" y="-240" font-family="FreeSans" font-size="10.00">../Util/FastArray.h</text>
</a>
</g>
<!-- Node10&#45;&gt;Node26 -->
<g id="edge64" class="edge"><title>Node10&#45;&gt;Node26</title>
<path fill="none" stroke="midnightblue" d="M895.277,-348.909C975.504,-327.758 1161.11,-278.825 1249.09,-255.632"/>
<polygon fill="midnightblue" stroke="midnightblue" points="1250.03,-259.002 1258.81,-253.068 1248.25,-252.233 1250.03,-259.002"/>
</g>
<!-- Node12 -->
<g id="node23" class="node"><title>Node12</title>
<a xlink:href="_shapes_8h.html" target="_top" xlink:title="Shapes.h">
<polygon fill="none" stroke="black" points="782.5,-175 782.5,-195 839.5,-195 839.5,-175 782.5,-175"/>
<text text-anchor="middle" x="811" y="-182" font-family="FreeSans" font-size="10.00">Shapes.h</text>
</a>
</g>
<!-- Node11&#45;&gt;Node12 -->
<g id="edge22" class="edge"><title>Node11&#45;&gt;Node12</title>
<path fill="none" stroke="midnightblue" d="M892.258,-290.773C890.787,-276.488 886.475,-250.263 874,-232 865.205,-219.125 851.71,-208.379 839.463,-200.428"/>
<polygon fill="midnightblue" stroke="midnightblue" points="841.204,-197.39 830.851,-195.141 837.542,-203.355 841.204,-197.39"/>
</g>
<!-- Node16 -->
<g id="node31" class="node"><title>Node16</title>
<a xlink:href="_contact_effect_8h.html" target="_top" xlink:title="ContactEffect.h">
<polygon fill="none" stroke="black" points="670.5,-233 670.5,-253 753.5,-253 753.5,-233 670.5,-233"/>
<text text-anchor="middle" x="712" y="-240" font-family="FreeSans" font-size="10.00">ContactEffect.h</text>
</a>
</g>
<!-- Node11&#45;&gt;Node16 -->
<g id="edge30" class="edge"><title>Node11&#45;&gt;Node16</title>
<path fill="none" stroke="midnightblue" d="M861.472,-290.897C831.457,-281.279 786.113,-266.749 753.24,-256.215"/>
<polygon fill="midnightblue" stroke="midnightblue" points="754.061,-252.803 743.47,-253.084 751.925,-259.469 754.061,-252.803"/>
</g>
<!-- Node18 -->
<g id="node36" class="node"><title>Node18</title>
<a xlink:href="_dll_object_factory_8h.html" target="_top" xlink:title="../Util/DllObjectFactory.h">
<polygon fill="none" stroke="black" points="1176,-117 1176,-137 1298,-137 1298,-117 1176,-117"/>
<text text-anchor="middle" x="1237" y="-124" font-family="FreeSans" font-size="10.00">../Util/DllObjectFactory.h</text>
</a>
</g>
<!-- Node11&#45;&gt;Node18 -->
<g id="edge36" class="edge"><title>Node11&#45;&gt;Node18</title>
<path fill="none" stroke="midnightblue" d="M934.815,-295.563C973.513,-289.353 1031.86,-276.941 1078,-254 1136.16,-225.084 1192.79,-172.199 1220.09,-144.686"/>
<polygon fill="midnightblue" stroke="midnightblue" points="1222.8,-146.923 1227.29,-137.328 1217.8,-142.027 1222.8,-146.923"/>
</g>
<!-- Node19 -->
<g id="node39" class="node"><title>Node19</title>
<a xlink:href="_viewport3_d_8h.html" target="_top" xlink:title="../VideoServices/Viewport3D.h">
<polygon fill="none" stroke="black" points="921,-233 921,-253 1069,-253 1069,-233 921,-233"/>
<text text-anchor="middle" x="995" y="-240" font-family="FreeSans" font-size="10.00">../VideoServices/Viewport3D.h</text>
</a>
</g>
<!-- Node11&#45;&gt;Node19 -->
<g id="edge40" class="edge"><title>Node11&#45;&gt;Node19</title>
<path fill="none" stroke="midnightblue" d="M910.767,-290.897C926.612,-281.887 950.038,-268.567 968.166,-258.259"/>
<polygon fill="midnightblue" stroke="midnightblue" points="970.131,-261.167 977.094,-253.182 966.671,-255.082 970.131,-261.167"/>
</g>
<!-- Node13 -->
<g id="node25" class="node"><title>Node13</title>
<a xlink:href="_world_coordinates_8h.html" target="_top" xlink:title="../Util/WorldCoordinates.h">
<polygon fill="none" stroke="black" points="742,-117 742,-137 868,-137 868,-117 742,-117"/>
<text text-anchor="middle" x="805" y="-124" font-family="FreeSans" font-size="10.00">../Util/WorldCoordinates.h</text>
</a>
</g>
<!-- Node12&#45;&gt;Node13 -->
<g id="edge24" class="edge"><title>Node12&#45;&gt;Node13</title>
<path fill="none" stroke="midnightblue" d="M809.955,-174.897C809.173,-167.339 808.077,-156.748 807.115,-147.446"/>
<polygon fill="midnightblue" stroke="midnightblue" points="810.584,-146.964 806.074,-137.378 803.621,-147.685 810.584,-146.964"/>
</g>
<!-- Node14 -->
<g id="node27" class="node"><title>Node14</title>
<a xlink:href="_m_r___types_8h.html" target="_top" xlink:title="MR_Types.h">
<polygon fill="none" stroke="black" points="1035.5,-59 1035.5,-79 1106.5,-79 1106.5,-59 1035.5,-59"/>
<text text-anchor="middle" x="1071" y="-66" font-family="FreeSans" font-size="10.00">MR_Types.h</text>
</a>
</g>
<!-- Node13&#45;&gt;Node14 -->
<g id="edge26" class="edge"><title>Node13&#45;&gt;Node14</title>
<path fill="none" stroke="midnightblue" d="M851.03,-116.963C899.895,-106.309 976.653,-89.5719 1025.37,-78.9501"/>
<polygon fill="midnightblue" stroke="midnightblue" points="1026.29,-82.3309 1035.32,-76.7807 1024.8,-75.4916 1026.29,-82.3309"/>
</g>
<!-- Node15 -->
<g id="node29" class="node"><title>Node15</title>
<polygon fill="none" stroke="#bfbfbf" points="1042,-1 1042,-21 1100,-21 1100,-1 1042,-1"/>
<text text-anchor="middle" x="1071" y="-8" font-family="FreeSans" font-size="10.00">inttypes.h</text>
</g>
<!-- Node14&#45;&gt;Node15 -->
<g id="edge28" class="edge"><title>Node14&#45;&gt;Node15</title>
<path fill="none" stroke="midnightblue" d="M1071,-58.8972C1071,-51.339 1071,-40.7476 1071,-31.4458"/>
<polygon fill="midnightblue" stroke="midnightblue" points="1074.5,-31.3776 1071,-21.3776 1067.5,-31.3776 1074.5,-31.3776"/>
</g>
<!-- Node16&#45;&gt;Node12 -->
<g id="edge34" class="edge"><title>Node16&#45;&gt;Node12</title>
<path fill="none" stroke="midnightblue" d="M729.244,-232.897C744.624,-223.887 767.361,-210.567 784.955,-200.259"/>
<polygon fill="midnightblue" stroke="midnightblue" points="786.762,-203.257 793.621,-195.182 783.223,-197.217 786.762,-203.257"/>
</g>
<!-- Node17 -->
<g id="node33" class="node"><title>Node17</title>
<polygon fill="none" stroke="#bfbfbf" points="656,-175 656,-195 700,-195 700,-175 656,-175"/>
<text text-anchor="middle" x="678" y="-182" font-family="FreeSans" font-size="10.00">vector</text>
</g>
<!-- Node16&#45;&gt;Node17 -->
<g id="edge32" class="edge"><title>Node16&#45;&gt;Node17</title>
<path fill="none" stroke="midnightblue" d="M706.078,-232.897C701.454,-225.01 694.895,-213.821 689.279,-204.24"/>
<polygon fill="midnightblue" stroke="midnightblue" points="692.16,-202.235 684.083,-195.378 686.121,-205.775 692.16,-202.235"/>
</g>
<!-- Node18&#45;&gt;Node14 -->
<g id="edge38" class="edge"><title>Node18&#45;&gt;Node14</title>
<path fill="none" stroke="midnightblue" d="M1208.09,-116.897C1180.79,-107.362 1139.69,-92.9992 1109.6,-82.4885"/>
<polygon fill="midnightblue" stroke="midnightblue" points="1110.46,-79.0786 1099.86,-79.0842 1108.15,-85.6868 1110.46,-79.0786"/>
</g>
<!-- Node20 -->
<g id="node41" class="node"><title>Node20</title>
<a xlink:href="_viewport2_d_8h.html" target="_top" xlink:title="Viewport2D.h">
<polygon fill="none" stroke="black" points="958,-117 958,-137 1032,-137 1032,-117 958,-117"/>
<text text-anchor="middle" x="995" y="-124" font-family="FreeSans" font-size="10.00">Viewport2D.h</text>
</a>
</g>
<!-- Node19&#45;&gt;Node20 -->
<g id="edge42" class="edge"><title>Node19&#45;&gt;Node20</title>
<path fill="none" stroke="midnightblue" d="M995,-232.706C995,-213.568 995,-172.198 995,-147.265"/>
<polygon fill="midnightblue" stroke="midnightblue" points="998.5,-147.105 995,-137.106 991.5,-147.106 998.5,-147.105"/>
</g>
<!-- Node21 -->
<g id="node44" class="node"><title>Node21</title>
<a xlink:href="_color_palette_8h.html" target="_top" xlink:title="ColorPalette.h">
<polygon fill="none" stroke="black" points="1046.5,-175 1046.5,-195 1123.5,-195 1123.5,-175 1046.5,-175"/>
<text text-anchor="middle" x="1085" y="-182" font-family="FreeSans" font-size="10.00">ColorPalette.h</text>
</a>
</g>
<!-- Node19&#45;&gt;Node21 -->
<g id="edge46" class="edge"><title>Node19&#45;&gt;Node21</title>
<path fill="none" stroke="midnightblue" d="M1010.68,-232.897C1024.4,-224.052 1044.57,-211.054 1060.44,-200.829"/>
<polygon fill="midnightblue" stroke="midnightblue" points="1062.69,-203.541 1069.2,-195.182 1058.9,-197.657 1062.69,-203.541"/>
</g>
<!-- Node23 -->
<g id="node49" class="node"><title>Node23</title>
<a xlink:href="_bitmap_8h.html" target="_top" xlink:title="Bitmap.h">
<polygon fill="none" stroke="black" points="885.5,-117 885.5,-137 940.5,-137 940.5,-117 885.5,-117"/>
<text text-anchor="middle" x="913" y="-124" font-family="FreeSans" font-size="10.00">Bitmap.h</text>
</a>
</g>
<!-- Node19&#45;&gt;Node23 -->
<g id="edge52" class="edge"><title>Node19&#45;&gt;Node23</title>
<path fill="none" stroke="midnightblue" d="M987.723,-232.706C973.829,-213.051 943.358,-169.945 925.922,-145.281"/>
<polygon fill="midnightblue" stroke="midnightblue" points="928.774,-143.251 920.144,-137.106 923.058,-147.292 928.774,-143.251"/>
</g>
<!-- Node24 -->
<g id="node52" class="node"><title>Node24</title>
<a xlink:href="_patch_8h.html" target="_top" xlink:title="Patch.h">
<polygon fill="none" stroke="black" points="863,-175 863,-195 913,-195 913,-175 863,-175"/>
<text text-anchor="middle" x="888" y="-182" font-family="FreeSans" font-size="10.00">Patch.h</text>
</a>
</g>
<!-- Node19&#45;&gt;Node24 -->
<g id="edge56" class="edge"><title>Node19&#45;&gt;Node24</title>
<path fill="none" stroke="midnightblue" d="M976.362,-232.897C959.588,-223.804 934.714,-210.322 915.628,-199.976"/>
<polygon fill="midnightblue" stroke="midnightblue" points="917.243,-196.87 906.783,-195.182 913.907,-203.024 917.243,-196.87"/>
</g>
<!-- Node20&#45;&gt;Node14 -->
<g id="edge44" class="edge"><title>Node20&#45;&gt;Node14</title>
<path fill="none" stroke="midnightblue" d="M1008.24,-116.897C1019.61,-108.218 1036.23,-95.5384 1049.5,-85.4053"/>
<polygon fill="midnightblue" stroke="midnightblue" points="1051.83,-88.0308 1057.66,-79.1817 1047.59,-82.4661 1051.83,-88.0308"/>
</g>
<!-- Node21&#45;&gt;Node14 -->
<g id="edge50" class="edge"><title>Node21&#45;&gt;Node14</title>
<path fill="none" stroke="midnightblue" d="M1099.21,-174.94C1115.77,-161.897 1139.58,-138.186 1129,-116 1122.78,-102.948 1110.96,-92.3464 1099.61,-84.5376"/>
<polygon fill="midnightblue" stroke="midnightblue" points="1101.44,-81.5489 1091.12,-79.1164 1097.67,-87.4485 1101.44,-81.5489"/>
</g>
<!-- Node22 -->
<g id="node46" class="node"><title>Node22</title>
<polygon fill="none" stroke="#bfbfbf" points="1049.5,-117 1049.5,-137 1120.5,-137 1120.5,-117 1049.5,-117"/>
<text text-anchor="middle" x="1085" y="-124" font-family="FreeSans" font-size="10.00">SDL2/SDL.h</text>
</g>
<!-- Node21&#45;&gt;Node22 -->
<g id="edge48" class="edge"><title>Node21&#45;&gt;Node22</title>
<path fill="none" stroke="midnightblue" d="M1085,-174.897C1085,-167.339 1085,-156.748 1085,-147.446"/>
<polygon fill="midnightblue" stroke="midnightblue" points="1088.5,-147.378 1085,-137.378 1081.5,-147.378 1088.5,-147.378"/>
</g>
<!-- Node23&#45;&gt;Node14 -->
<g id="edge54" class="edge"><title>Node23&#45;&gt;Node14</title>
<path fill="none" stroke="midnightblue" d="M940.521,-116.897C966.384,-107.403 1005.28,-93.124 1033.88,-82.6258"/>
<polygon fill="midnightblue" stroke="midnightblue" points="1035.35,-85.8159 1043.53,-79.0842 1032.94,-79.2447 1035.35,-85.8159"/>
</g>
<!-- Node24&#45;&gt;Node13 -->
<g id="edge58" class="edge"><title>Node24&#45;&gt;Node13</title>
<path fill="none" stroke="midnightblue" d="M873.543,-174.897C861.004,-166.135 842.631,-153.297 828.063,-143.116"/>
<polygon fill="midnightblue" stroke="midnightblue" points="829.772,-140.041 819.57,-137.182 825.762,-145.779 829.772,-140.041"/>
</g>
<!-- Node25&#45;&gt;Node12 -->
<g id="edge62" class="edge"><title>Node25&#45;&gt;Node12</title>
<path fill="none" stroke="midnightblue" d="M816.781,-232.897C815.869,-225.339 814.59,-214.748 813.468,-205.446"/>
<polygon fill="midnightblue" stroke="midnightblue" points="816.926,-204.886 812.252,-195.378 809.976,-205.725 816.926,-204.886"/>
</g>
<!-- Node26&#45;&gt;Node14 -->
<g id="edge66" class="edge"><title>Node26&#45;&gt;Node14</title>
<path fill="none" stroke="midnightblue" d="M1302.09,-232.692C1312.95,-209.059 1335.2,-150.367 1307,-116 1283.45,-87.3011 1178.86,-75.7977 1117.1,-71.446"/>
<polygon fill="midnightblue" stroke="midnightblue" points="1117.05,-67.9347 1106.84,-70.7607 1116.58,-74.9192 1117.05,-67.9347"/>
</g>
<!-- Node27&#45;&gt;Node17 -->
<g id="edge76" class="edge"><title>Node27&#45;&gt;Node17</title>
<path fill="none" stroke="midnightblue" d="M505.25,-349.71C548.237,-337.22 619.469,-316.098 624,-312 632.418,-304.387 657.961,-238.461 670.664,-204.72"/>
<polygon fill="midnightblue" stroke="midnightblue" points="674.071,-205.603 674.3,-195.011 667.515,-203.148 674.071,-205.603"/>
</g>
<!-- Node28 -->
<g id="node63" class="node"><title>Node28</title>
<polygon fill="none" stroke="#bfbfbf" points="345,-291 345,-311 387,-311 387,-291 345,-291"/>
<text text-anchor="middle" x="366" y="-298" font-family="FreeSans" font-size="10.00">locale</text>
</g>
<!-- Node27&#45;&gt;Node28 -->
<g id="edge70" class="edge"><title>Node27&#45;&gt;Node28</title>
<path fill="none" stroke="midnightblue" d="M454.362,-348.897C437.588,-339.804 412.714,-326.322 393.628,-315.976"/>
<polygon fill="midnightblue" stroke="midnightblue" points="395.243,-312.87 384.783,-311.182 391.907,-319.024 395.243,-312.87"/>
</g>
<!-- Node29 -->
<g id="node65" class="node"><title>Node29</title>
<polygon fill="none" stroke="#bfbfbf" points="405,-291 405,-311 435,-311 435,-291 405,-291"/>
<text text-anchor="middle" x="420" y="-298" font-family="FreeSans" font-size="10.00">set</text>
</g>
<!-- Node27&#45;&gt;Node29 -->
<g id="edge72" class="edge"><title>Node27&#45;&gt;Node29</title>
<path fill="none" stroke="midnightblue" d="M463.768,-348.897C456.261,-340.682 445.479,-328.883 436.495,-319.051"/>
<polygon fill="midnightblue" stroke="midnightblue" points="438.812,-316.399 429.483,-311.378 433.645,-321.121 438.812,-316.399"/>
</g>
<!-- Node30 -->
<g id="node67" class="node"><title>Node30</title>
<polygon fill="none" stroke="#bfbfbf" points="452.5,-291 452.5,-311 493.5,-311 493.5,-291 452.5,-291"/>
<text text-anchor="middle" x="473" y="-298" font-family="FreeSans" font-size="10.00">string</text>
</g>
<!-- Node27&#45;&gt;Node30 -->
<g id="edge74" class="edge"><title>Node27&#45;&gt;Node30</title>
<path fill="none" stroke="midnightblue" d="M473,-348.897C473,-341.339 473,-330.748 473,-321.446"/>
<polygon fill="midnightblue" stroke="midnightblue" points="476.5,-321.378 473,-311.378 469.5,-321.378 476.5,-321.378"/>
</g>
<!-- Node31 -->
<g id="node70" class="node"><title>Node31</title>
<polygon fill="none" stroke="#bfbfbf" points="510.5,-291 510.5,-311 615.5,-311 615.5,-291 510.5,-291"/>
<text text-anchor="middle" x="563" y="-298" font-family="FreeSans" font-size="10.00">boost/filesystem.hpp</text>
</g>
<!-- Node27&#45;&gt;Node31 -->
<g id="edge78" class="edge"><title>Node27&#45;&gt;Node31</title>
<path fill="none" stroke="midnightblue" d="M488.677,-348.897C502.401,-340.052 522.572,-327.054 538.438,-316.829"/>
<polygon fill="midnightblue" stroke="midnightblue" points="540.691,-319.541 547.201,-311.182 536.899,-313.657 540.691,-319.541"/>
</g>
</g>
</svg>
        <g id="navigator" transform="translate(0 0)" fill="#404254">
                <rect fill="#f2f5e9" fill-opacity="0.5" stroke="#606060" stroke-width=".5" x="0" y="0" width="60" height="60"/>
                <use id="zoomplus" xlink:href="#zoomPlus" x="17" y="9" onmousedown="handleZoom(evt,'in')"/>
                <use id="zoomminus" xlink:href="#zoomMin" x="42" y="9" onmousedown="handleZoom(evt,'out')"/>
                <use id="reset" xlink:href="#resetDef" x="30" y="36" onmousedown="handleReset()"/>
                <g id="arrowUp" xlink:href="#dirArrow" transform="translate(30 24)" onmousedown="handlePan(0,-1)">
                  <use xlink:href="#rim" fill="#404040">
                        <set attributeName="fill" to="#808080" begin="arrowUp.mouseover" end="arrowUp.mouseout"/>
                  </use>
                  <path fill="none" stroke="white" stroke-width="1.5" d="M0,-3.0v7 M-2.5,-0.5L0,-3.0L2.5,-0.5"/>
                </g>
                <g id="arrowRight" xlink:href="#dirArrow" transform="rotate(90) translate(36 -43)" onmousedown="handlePan(1,0)">
                  <use xlink:href="#rim" fill="#404040">
                        <set attributeName="fill" to="#808080" begin="arrowRight.mouseover" end="arrowRight.mouseout"/>
                  </use>
                  <path fill="none" stroke="white" stroke-width="1.5" d="M0,-3.0v7 M-2.5,-0.5L0,-3.0L2.5,-0.5"/>
                </g>
                <g id="arrowDown" xlink:href="#dirArrow" transform="rotate(180) translate(-30 -48)" onmousedown="handlePan(0,1)">
                  <use xlink:href="#rim" fill="#404040">
                        <set attributeName="fill" to="#808080" begin="arrowDown.mouseover" end="arrowDown.mouseout"/>
                  </use>
                  <path fill="none" stroke="white" stroke-width="1.5" d="M0,-3.0v7 M-2.5,-0.5L0,-3.0L2.5,-0.5"/>
                </g>
                <g id="arrowLeft" xlink:href="#dirArrow" transform="rotate(270) translate(-36 17)" onmousedown="handlePan(-1,0)">
                  <use xlink:href="#rim" fill="#404040">
                        <set attributeName="fill" to="#808080" begin="arrowLeft.mouseover" end="arrowLeft.mouseout"/>
                  </use>
                  <path fill="none" stroke="white" stroke-width="1.5" d="M0,-3.0v7 M-2.5,-0.5L0,-3.0L2.5,-0.5"/>
                </g>
        </g>
        <svg viewBox="0 0 15 15" width="100%" height="30px" preserveAspectRatio="xMaxYMin meet">
         <g id="arrow_out" transform="scale(0.3 0.3)">
          <a xlink:href="_level_builder_8cpp__incl_org.svg" target="_base">
           <rect id="button" ry="5" rx="5" y="6" x="6" height="38" width="38"
                fill="#f2f5e9" fill-opacity="0.5" stroke="#606060" stroke-width="1.0"/>
           <path id="arrow"
             d="M 11.500037,31.436501 C 11.940474,20.09759 22.043105,11.32322 32.158766,21.979434 L 37.068811,17.246167 C 37.068811,17.246167 37.088388,32 37.088388,32 L 22.160133,31.978069 C 22.160133,31.978069 26.997745,27.140456 26.997745,27.140456 C 18.528582,18.264221 13.291696,25.230495 11.500037,31.436501 z"
             style="fill:#404040;"/>
          </a>
         </g>
        </svg>
</svg>
