<?xml version="1.0" encoding="UTF-8" standalone="no"?>
<!DOCTYPE svg PUBLIC "-//W3C//DTD SVG 1.1//EN"
 "http://www.w3.org/Graphics/SVG/1.1/DTD/svg11.dtd">
<!-- Generated by graphviz version 2.38.0 (20140413.2041)
 -->
<!-- Title: Loader.h Pages: 1 -->
<svg width="309pt" height="84pt"
 viewBox="0.00 0.00 308.50 84.00" xmlns="http://www.w3.org/2000/svg" xmlns:xlink="http://www.w3.org/1999/xlink">
<g id="graph0" class="graph" transform="scale(1 1) rotate(0) translate(4 80)">
<title>Loader.h</title>
<!-- Node1 -->
<g id="node1" class="node"><title>Node1</title>
<polygon fill="#bfbfbf" stroke="black" points="114,-56.5 114,-75.5 168,-75.5 168,-56.5 114,-56.5"/>
<text text-anchor="middle" x="141" y="-63.5" font-family="Helvetica,sans-Serif" font-size="10.00">Loader.h</text>
</g>
<!-- Node2 -->
<g id="node2" class="node"><title>Node2</title>
<g id="a_node2"><a xlink:href="_client_app_8cpp.html" target="_top" xlink:title="ClientApp.cpp">
<polygon fill="none" stroke="black" points="0,-0.5 0,-19.5 78,-19.5 78,-0.5 0,-0.5"/>
<text text-anchor="middle" x="39" y="-7.5" font-family="Helvetica,sans-Serif" font-size="10.00">ClientApp.cpp</text>
</a>
</g>
</g>
<!-- Node1&#45;&gt;Node2 -->
<g id="edge1" class="edge"><title>Node1&#45;&gt;Node2</title>
<path fill="none" stroke="midnightblue" d="M115.669,-51.5895C96.8098,-41.6052 71.6158,-28.2672 55.3474,-19.6545"/>
<polygon fill="midnightblue" stroke="midnightblue" points="114.136,-54.7383 124.612,-56.324 117.412,-48.5518 114.136,-54.7383"/>
</g>
<!-- Node3 -->
<g id="node3" class="node"><title>Node3</title>
<g id="a_node3"><a xlink:href="_game_scene_8cpp.html" target="_top" xlink:title="GameScene.cpp">
<polygon fill="none" stroke="black" points="96.5,-0.5 96.5,-19.5 185.5,-19.5 185.5,-0.5 96.5,-0.5"/>
<text text-anchor="middle" x="141" y="-7.5" font-family="Helvetica,sans-Serif" font-size="10.00">GameScene.cpp</text>
</a>
</g>
</g>
<!-- Node1&#45;&gt;Node3 -->
<g id="edge2" class="edge"><title>Node1&#45;&gt;Node3</title>
<path fill="none" stroke="midnightblue" d="M141,-45.8045C141,-36.9102 141,-26.7798 141,-19.7511"/>
<polygon fill="midnightblue" stroke="midnightblue" points="137.5,-46.083 141,-56.083 144.5,-46.083 137.5,-46.083"/>
</g>
<!-- Node4 -->
<g id="node4" class="node"><title>Node4</title>
<g id="a_node4"><a xlink:href="_loading_scene_8cpp.html" target="_top" xlink:title="LoadingScene.cpp">
<polygon fill="none" stroke="black" points="203.5,-0.5 203.5,-19.5 300.5,-19.5 300.5,-0.5 203.5,-0.5"/>
<text text-anchor="middle" x="252" y="-7.5" font-family="Helvetica,sans-Serif" font-size="10.00">LoadingScene.cpp</text>
</a>
</g>
</g>
<!-- Node1&#45;&gt;Node4 -->
<g id="edge3" class="edge"><title>Node1&#45;&gt;Node4</title>
<path fill="none" stroke="midnightblue" d="M168.005,-51.8622C188.588,-41.8492 216.345,-28.3458 234.21,-19.6545"/>
<polygon fill="midnightblue" stroke="midnightblue" points="166.295,-48.8019 158.834,-56.324 169.358,-55.0966 166.295,-48.8019"/>
</g>
</g>
</svg>
