<?xml version="1.0" encoding="UTF-8" standalone="no"?>
<!DOCTYPE svg PUBLIC "-//W3C//DTD SVG 1.1//EN"
 "http://www.w3.org/Graphics/SVG/1.1/DTD/svg11.dtd">
<!-- Generated by graphviz version 2.26.3 (20100126.1600)
 -->
<!-- Title: Loader.h Pages: 1 -->
<svg width="138pt" height="146pt"
 viewBox="0.00 0.00 138.00 146.00" xmlns="http://www.w3.org/2000/svg" xmlns:xlink="http://www.w3.org/1999/xlink">
<g id="graph1" class="graph" transform="scale(1 1) rotate(0) translate(4 142)">
<title>Loader.h</title>
<!-- Node1 -->
<g id="node1" class="node"><title>Node1</title>
<polygon fill="#bfbfbf" stroke="black" points="23,-117 23,-137 77,-137 77,-117 23,-117"/>
<text text-anchor="middle" x="50" y="-124" font-family="FreeSans" font-size="10.00">Loader.h</text>
</g>
<!-- Node2 -->
<g id="node3" class="node"><title>Node2</title>
<polygon fill="none" stroke="#bfbfbf" points="-0.5,-59 -0.5,-79 42.5,-79 42.5,-59 -0.5,-59"/>
<text text-anchor="middle" x="21" y="-66" font-family="FreeSans" font-size="10.00">queue</text>
</g>
<!-- Node1&#45;&gt;Node2 -->
<g id="edge2" class="edge"><title>Node1&#45;&gt;Node2</title>
<path fill="none" stroke="midnightblue" d="M44.9486,-116.897C41.0463,-109.093 35.5268,-98.0536 30.77,-88.5401"/>
<polygon fill="midnightblue" stroke="midnightblue" points="33.7915,-86.7566 26.1888,-79.3776 27.5305,-89.8872 33.7915,-86.7566"/>
</g>
<!-- Node3 -->
<g id="node5" class="node"><title>Node3</title>
<a xlink:href="_log_8h.html" target="_top" xlink:title="Log.h">
<polygon fill="none" stroke="black" points="59.5,-59 59.5,-79 100.5,-79 100.5,-59 59.5,-59"/>
<text text-anchor="middle" x="80" y="-66" font-family="FreeSans" font-size="10.00">Log.h</text>
</a>
</g>
<!-- Node1&#45;&gt;Node3 -->
<g id="edge4" class="edge"><title>Node1&#45;&gt;Node3</title>
<path fill="none" stroke="midnightblue" d="M55.2256,-116.897C59.2625,-109.093 64.9723,-98.0536 69.8931,-88.5401"/>
<polygon fill="midnightblue" stroke="midnightblue" points="73.1468,-89.8678 74.6323,-79.3776 66.9292,-86.6518 73.1468,-89.8678"/>
</g>
<!-- Node4 -->
<g id="node7" class="node"><title>Node4</title>
<polygon fill="none" stroke="#bfbfbf" points="29.5,-1 29.5,-21 130.5,-21 130.5,-1 29.5,-1"/>
<text text-anchor="middle" x="80" y="-8" font-family="FreeSans" font-size="10.00">boost/log/trivial.hpp</text>
</g>
<!-- Node3&#45;&gt;Node4 -->
<g id="edge6" class="edge"><title>Node3&#45;&gt;Node4</title>
<path fill="none" stroke="midnightblue" d="M80,-58.8972C80,-51.339 80,-40.7476 80,-31.4458"/>
<polygon fill="midnightblue" stroke="midnightblue" points="83.5001,-31.3776 80,-21.3776 76.5001,-31.3776 83.5001,-31.3776"/>
</g>
</g>
</svg>
