<?xml version="1.0" encoding="UTF-8" standalone="no"?>
<!DOCTYPE svg PUBLIC "-//W3C//DTD SVG 1.1//EN"
 "http://www.w3.org/Graphics/SVG/1.1/DTD/svg11.dtd">
<!-- Generated by graphviz version 2.38.0 (20140413.2041)
 -->
<!-- Title: LocaleSelectScene.cpp Pages: 1 -->
<svg width="877pt" height="845pt"
 viewBox="0.00 0.00 877.00 845.00" xmlns="http://www.w3.org/2000/svg" xmlns:xlink="http://www.w3.org/1999/xlink">
<g id="graph0" class="graph" transform="scale(1 1) rotate(0) translate(4 841)">
<title>LocaleSelectScene.cpp</title>
<!-- Node1 -->
<g id="node1" class="node"><title>Node1</title>
<polygon fill="#bfbfbf" stroke="black" points="418.5,-817.5 418.5,-836.5 537.5,-836.5 537.5,-817.5 418.5,-817.5"/>
<text text-anchor="middle" x="478" y="-824.5" font-family="Helvetica,sans-Serif" font-size="10.00">LocaleSelectScene.cpp</text>
</g>
<!-- Node2 -->
<g id="node2" class="node"><title>Node2</title>
<polygon fill="none" stroke="#bfbfbf" points="302,-750.5 302,-780.5 412,-780.5 412,-750.5 302,-750.5"/>
<text text-anchor="start" x="310" y="-768.5" font-family="Helvetica,sans-Serif" font-size="10.00">boost/algorithm/string</text>
<text text-anchor="middle" x="357" y="-757.5" font-family="Helvetica,sans-Serif" font-size="10.00">/predicate.hpp</text>
</g>
<!-- Node1&#45;&gt;Node2 -->
<g id="edge1" class="edge"><title>Node1&#45;&gt;Node2</title>
<path fill="none" stroke="midnightblue" d="M460.664,-817.475C443.51,-809.04 416.697,-795.855 394.638,-785.008"/>
<polygon fill="midnightblue" stroke="midnightblue" points="396.036,-781.795 385.517,-780.523 392.947,-788.077 396.036,-781.795"/>
</g>
<!-- Node3 -->
<g id="node3" class="node"><title>Node3</title>
<g id="a_node3"><a xlink:href="_button_8h.html" target="_top" xlink:title="../../engine/Display\l/Button.h">
<polygon fill="none" stroke="black" points="428.5,-560.5 428.5,-590.5 527.5,-590.5 527.5,-560.5 428.5,-560.5"/>
<text text-anchor="start" x="436.5" y="-578.5" font-family="Helvetica,sans-Serif" font-size="10.00">../../engine/Display</text>
<text text-anchor="middle" x="478" y="-567.5" font-family="Helvetica,sans-Serif" font-size="10.00">/Button.h</text>
</a>
</g>
</g>
<!-- Node1&#45;&gt;Node3 -->
<g id="edge2" class="edge"><title>Node1&#45;&gt;Node3</title>
<path fill="none" stroke="midnightblue" d="M478,-817.412C478,-783.021 478,-654.512 478,-600.573"/>
<polygon fill="midnightblue" stroke="midnightblue" points="481.5,-600.542 478,-590.542 474.5,-600.542 481.5,-600.542"/>
</g>
<!-- Node25 -->
<g id="node25" class="node"><title>Node25</title>
<g id="a_node25"><a xlink:href="_container_8h.html" target="_top" xlink:title="../../engine/Display\l/Container.h">
<polygon fill="none" stroke="black" points="350.5,-683.5 350.5,-713.5 449.5,-713.5 449.5,-683.5 350.5,-683.5"/>
<text text-anchor="start" x="358.5" y="-701.5" font-family="Helvetica,sans-Serif" font-size="10.00">../../engine/Display</text>
<text text-anchor="middle" x="400" y="-690.5" font-family="Helvetica,sans-Serif" font-size="10.00">/Container.h</text>
</a>
</g>
</g>
<!-- Node1&#45;&gt;Node25 -->
<g id="edge36" class="edge"><title>Node1&#45;&gt;Node25</title>
<path fill="none" stroke="midnightblue" d="M472.639,-817.305C460.713,-797.963 431.66,-750.846 414.124,-722.406"/>
<polygon fill="midnightblue" stroke="midnightblue" points="417.099,-720.563 408.872,-713.888 411.141,-724.237 417.099,-720.563"/>
</g>
<!-- Node27 -->
<g id="node27" class="node"><title>Node27</title>
<g id="a_node27"><a xlink:href="_locale_8h.html" target="_top" xlink:title="../../engine/Util/Locale.h">
<polygon fill="none" stroke="black" points="720.5,-168.5 720.5,-187.5 841.5,-187.5 841.5,-168.5 720.5,-168.5"/>
<text text-anchor="middle" x="781" y="-175.5" font-family="Helvetica,sans-Serif" font-size="10.00">../../engine/Util/Locale.h</text>
</a>
</g>
</g>
<!-- Node1&#45;&gt;Node27 -->
<g id="edge39" class="edge"><title>Node1&#45;&gt;Node27</title>
<path fill="none" stroke="midnightblue" d="M537.502,-826.467C625.743,-823.69 781,-803.961 781,-699.5 781,-699.5 781,-699.5 781,-289 781,-256.948 781,-219.643 781,-197.749"/>
<polygon fill="midnightblue" stroke="midnightblue" points="784.5,-197.558 781,-187.558 777.5,-197.558 784.5,-197.558"/>
</g>
<!-- Node34 -->
<g id="node34" class="node"><title>Node34</title>
<g id="a_node34"><a xlink:href="_locale_select_scene_8h.html" target="_top" xlink:title="LocaleSelectScene.h">
<polygon fill="none" stroke="black" points="506.5,-756 506.5,-775 615.5,-775 615.5,-756 506.5,-756"/>
<text text-anchor="middle" x="561" y="-763" font-family="Helvetica,sans-Serif" font-size="10.00">LocaleSelectScene.h</text>
</a>
</g>
</g>
<!-- Node1&#45;&gt;Node34 -->
<g id="edge48" class="edge"><title>Node1&#45;&gt;Node34</title>
<path fill="none" stroke="midnightblue" d="M489.892,-817.475C503.205,-807.931 525,-792.307 540.957,-780.868"/>
<polygon fill="midnightblue" stroke="midnightblue" points="543.042,-783.68 549.13,-775.009 538.964,-777.991 543.042,-783.68"/>
</g>
<!-- Node4 -->
<g id="node4" class="node"><title>Node4</title>
<g id="a_node4"><a xlink:href="_res_8h.html" target="_top" xlink:title="Res.h">
<polygon fill="none" stroke="black" points="523.5,-504.5 523.5,-523.5 566.5,-523.5 566.5,-504.5 523.5,-504.5"/>
<text text-anchor="middle" x="545" y="-511.5" font-family="Helvetica,sans-Serif" font-size="10.00">Res.h</text>
</a>
</g>
</g>
<!-- Node3&#45;&gt;Node4 -->
<g id="edge3" class="edge"><title>Node3&#45;&gt;Node4</title>
<path fill="none" stroke="midnightblue" d="M493.878,-560.399C504.015,-551.397 517.162,-539.721 527.585,-530.465"/>
<polygon fill="midnightblue" stroke="midnightblue" points="530.098,-532.915 535.251,-523.658 525.45,-527.681 530.098,-532.915"/>
</g>
<!-- Node9 -->
<g id="node9" class="node"><title>Node9</title>
<g id="a_node9"><a xlink:href="_click_region_8h.html" target="_top" xlink:title="ClickRegion.h">
<polygon fill="none" stroke="black" points="303,-448.5 303,-467.5 381,-467.5 381,-448.5 303,-448.5"/>
<text text-anchor="middle" x="342" y="-455.5" font-family="Helvetica,sans-Serif" font-size="10.00">ClickRegion.h</text>
</a>
</g>
</g>
<!-- Node3&#45;&gt;Node9 -->
<g id="edge8" class="edge"><title>Node3&#45;&gt;Node9</title>
<path fill="none" stroke="midnightblue" d="M461.324,-560.337C435.595,-538.487 386.429,-496.732 359.95,-474.244"/>
<polygon fill="midnightblue" stroke="midnightblue" points="362.096,-471.475 352.208,-467.669 357.565,-476.81 362.096,-471.475"/>
</g>
<!-- Node23 -->
<g id="node23" class="node"><title>Node23</title>
<g id="a_node23"><a xlink:href="_fill_box_8h.html" target="_top" xlink:title="FillBox.h">
<polygon fill="none" stroke="black" points="441.5,-504.5 441.5,-523.5 496.5,-523.5 496.5,-504.5 441.5,-504.5"/>
<text text-anchor="middle" x="469" y="-511.5" font-family="Helvetica,sans-Serif" font-size="10.00">FillBox.h</text>
</a>
</g>
</g>
<!-- Node3&#45;&gt;Node23 -->
<g id="edge31" class="edge"><title>Node3&#45;&gt;Node23</title>
<path fill="none" stroke="midnightblue" d="M475.867,-560.399C474.654,-552.377 473.119,-542.233 471.809,-533.569"/>
<polygon fill="midnightblue" stroke="midnightblue" points="475.266,-533.022 470.31,-523.658 468.345,-534.069 475.266,-533.022"/>
</g>
<!-- Node5 -->
<g id="node5" class="node"><title>Node5</title>
<g id="a_node5"><a xlink:href="_m_r___types_8h.html" target="_top" xlink:title="../Util/MR_Types.h">
<polygon fill="none" stroke="black" points="331,-56.5 331,-75.5 431,-75.5 431,-56.5 331,-56.5"/>
<text text-anchor="middle" x="381" y="-63.5" font-family="Helvetica,sans-Serif" font-size="10.00">../Util/MR_Types.h</text>
</a>
</g>
</g>
<!-- Node4&#45;&gt;Node5 -->
<g id="edge4" class="edge"><title>Node4&#45;&gt;Node5</title>
<path fill="none" stroke="midnightblue" d="M545,-504.442C545,-485.936 545,-440.812 545,-403 545,-403 545,-403 545,-177 545,-121.672 479.826,-92.3874 431.649,-78.2979"/>
<polygon fill="midnightblue" stroke="midnightblue" points="432.534,-74.911 421.961,-75.5987 430.655,-81.6542 432.534,-74.911"/>
</g>
<!-- Node7 -->
<g id="node7" class="node"><title>Node7</title>
<g id="a_node7"><a xlink:href="_exception_8h.html" target="_top" xlink:title="../Exception.h">
<polygon fill="none" stroke="black" points="573.5,-448.5 573.5,-467.5 650.5,-467.5 650.5,-448.5 573.5,-448.5"/>
<text text-anchor="middle" x="612" y="-455.5" font-family="Helvetica,sans-Serif" font-size="10.00">../Exception.h</text>
</a>
</g>
</g>
<!-- Node4&#45;&gt;Node7 -->
<g id="edge6" class="edge"><title>Node4&#45;&gt;Node7</title>
<path fill="none" stroke="midnightblue" d="M555.765,-504.324C565.766,-496.263 580.887,-484.077 592.93,-474.369"/>
<polygon fill="midnightblue" stroke="midnightblue" points="595.45,-476.834 601.039,-467.834 591.057,-471.384 595.45,-476.834"/>
</g>
<!-- Node6 -->
<g id="node6" class="node"><title>Node6</title>
<polygon fill="none" stroke="#bfbfbf" points="351.5,-0.5 351.5,-19.5 410.5,-19.5 410.5,-0.5 351.5,-0.5"/>
<text text-anchor="middle" x="381" y="-7.5" font-family="Helvetica,sans-Serif" font-size="10.00">inttypes.h</text>
</g>
<!-- Node5&#45;&gt;Node6 -->
<g id="edge5" class="edge"><title>Node5&#45;&gt;Node6</title>
<path fill="none" stroke="midnightblue" d="M381,-56.083C381,-49.0059 381,-38.8611 381,-29.9865"/>
<polygon fill="midnightblue" stroke="midnightblue" points="384.5,-29.751 381,-19.7511 377.5,-29.7511 384.5,-29.751"/>
</g>
<!-- Node8 -->
<g id="node8" class="node"><title>Node8</title>
<polygon fill="none" stroke="#bfbfbf" points="582.5,-392.5 582.5,-411.5 641.5,-411.5 641.5,-392.5 582.5,-392.5"/>
<text text-anchor="middle" x="612" y="-399.5" font-family="Helvetica,sans-Serif" font-size="10.00">exception</text>
</g>
<!-- Node7&#45;&gt;Node8 -->
<g id="edge7" class="edge"><title>Node7&#45;&gt;Node8</title>
<path fill="none" stroke="midnightblue" d="M612,-448.083C612,-441.006 612,-430.861 612,-421.986"/>
<polygon fill="midnightblue" stroke="midnightblue" points="615.5,-421.751 612,-411.751 608.5,-421.751 615.5,-421.751"/>
</g>
<!-- Node10 -->
<g id="node10" class="node"><title>Node10</title>
<g id="a_node10"><a xlink:href="_ui_view_model_8h.html" target="_top" xlink:title="UiViewModel.h">
<polygon fill="none" stroke="black" points="240.5,-392.5 240.5,-411.5 323.5,-411.5 323.5,-392.5 240.5,-392.5"/>
<text text-anchor="middle" x="282" y="-399.5" font-family="Helvetica,sans-Serif" font-size="10.00">UiViewModel.h</text>
</a>
</g>
</g>
<!-- Node9&#45;&gt;Node10 -->
<g id="edge9" class="edge"><title>Node9&#45;&gt;Node10</title>
<path fill="none" stroke="midnightblue" d="M332.36,-448.324C323.49,-440.341 310.125,-428.313 299.392,-418.653"/>
<polygon fill="midnightblue" stroke="midnightblue" points="301.59,-415.922 291.815,-411.834 296.907,-421.125 301.59,-415.922"/>
</g>
<!-- Node10&#45;&gt;Node5 -->
<g id="edge11" class="edge"><title>Node10&#45;&gt;Node5</title>
<path fill="none" stroke="midnightblue" d="M240.39,-393.739C161.947,-378.862 0,-341.975 0,-291 0,-291 0,-291 0,-177 0,-111.054 213.354,-82.2074 320.748,-71.8643"/>
<polygon fill="midnightblue" stroke="midnightblue" points="321.17,-75.3401 330.799,-70.9205 320.516,-68.3708 321.17,-75.3401"/>
</g>
<!-- Node11 -->
<g id="node11" class="node"><title>Node11</title>
<g id="a_node11"><a xlink:href="_nav_8h.html" target="_top" xlink:title="../Control/Nav.h">
<polygon fill="none" stroke="black" points="317,-336.5 317,-355.5 403,-355.5 403,-336.5 317,-336.5"/>
<text text-anchor="middle" x="360" y="-343.5" font-family="Helvetica,sans-Serif" font-size="10.00">../Control/Nav.h</text>
</a>
</g>
</g>
<!-- Node10&#45;&gt;Node11 -->
<g id="edge10" class="edge"><title>Node10&#45;&gt;Node11</title>
<path fill="none" stroke="midnightblue" d="M294.532,-392.324C306.586,-383.979 325.027,-371.212 339.269,-361.352"/>
<polygon fill="midnightblue" stroke="midnightblue" points="341.269,-364.224 347.499,-355.655 337.285,-358.469 341.269,-364.224"/>
</g>
<!-- Node12 -->
<g id="node12" class="node"><title>Node12</title>
<g id="a_node12"><a xlink:href="_vec_8h.html" target="_top" xlink:title="../Vec.h">
<polygon fill="none" stroke="black" points="304.5,-168.5 304.5,-187.5 355.5,-187.5 355.5,-168.5 304.5,-168.5"/>
<text text-anchor="middle" x="330" y="-175.5" font-family="Helvetica,sans-Serif" font-size="10.00">../Vec.h</text>
</a>
</g>
</g>
<!-- Node10&#45;&gt;Node12 -->
<g id="edge12" class="edge"><title>Node10&#45;&gt;Node12</title>
<path fill="none" stroke="midnightblue" d="M285.473,-392.165C296.597,-363.692 330.915,-274.42 336,-244 338.572,-228.612 336.643,-210.976 334.309,-197.96"/>
<polygon fill="midnightblue" stroke="midnightblue" points="337.683,-196.985 332.258,-187.884 330.823,-198.382 337.683,-196.985"/>
</g>
<!-- Node13 -->
<g id="node13" class="node"><title>Node13</title>
<g id="a_node13"><a xlink:href="_ui_layout_flags_8h.html" target="_top" xlink:title="UiLayoutFlags.h">
<polygon fill="none" stroke="black" points="28,-224.5 28,-243.5 116,-243.5 116,-224.5 28,-224.5"/>
<text text-anchor="middle" x="72" y="-231.5" font-family="Helvetica,sans-Serif" font-size="10.00">UiLayoutFlags.h</text>
</a>
</g>
</g>
<!-- Node10&#45;&gt;Node13 -->
<g id="edge13" class="edge"><title>Node10&#45;&gt;Node13</title>
<path fill="none" stroke="midnightblue" d="M253.3,-392.433C231.355,-385.008 201.052,-372.803 178,-356 136.996,-326.111 100.803,-277.7 83.2449,-252.113"/>
<polygon fill="midnightblue" stroke="midnightblue" points="86.1332,-250.136 77.6451,-243.795 80.3265,-254.045 86.1332,-250.136"/>
</g>
<!-- Node14 -->
<g id="node14" class="node"><title>Node14</title>
<g id="a_node14"><a xlink:href="_view_model_8h.html" target="_top" xlink:title="ViewModel.h">
<polygon fill="none" stroke="black" points="187.5,-336.5 187.5,-355.5 260.5,-355.5 260.5,-336.5 187.5,-336.5"/>
<text text-anchor="middle" x="224" y="-343.5" font-family="Helvetica,sans-Serif" font-size="10.00">ViewModel.h</text>
</a>
</g>
</g>
<!-- Node10&#45;&gt;Node14 -->
<g id="edge15" class="edge"><title>Node10&#45;&gt;Node14</title>
<path fill="none" stroke="midnightblue" d="M272.681,-392.324C264.107,-384.341 251.188,-372.313 240.812,-362.653"/>
<polygon fill="midnightblue" stroke="midnightblue" points="243.192,-360.086 233.488,-355.834 238.422,-365.21 243.192,-360.086"/>
</g>
<!-- Node13&#45;&gt;Node5 -->
<g id="edge14" class="edge"><title>Node13&#45;&gt;Node5</title>
<path fill="none" stroke="midnightblue" d="M77.4461,-224.342C92.0391,-201.91 134.433,-141.593 186,-112 227.392,-88.246 280.506,-77.0275 320.845,-71.7312"/>
<polygon fill="midnightblue" stroke="midnightblue" points="321.312,-75.2003 330.811,-70.5082 320.459,-68.2524 321.312,-75.2003"/>
</g>
<!-- Node15 -->
<g id="node15" class="node"><title>Node15</title>
<g id="a_node15"><a xlink:href="_display_8h.html" target="_top" xlink:title="Display.h">
<polygon fill="none" stroke="black" points="145,-280.5 145,-299.5 203,-299.5 203,-280.5 145,-280.5"/>
<text text-anchor="middle" x="174" y="-287.5" font-family="Helvetica,sans-Serif" font-size="10.00">Display.h</text>
</a>
</g>
</g>
<!-- Node14&#45;&gt;Node15 -->
<g id="edge16" class="edge"><title>Node14&#45;&gt;Node15</title>
<path fill="none" stroke="midnightblue" d="M215.744,-336.083C208.535,-328.298 197.89,-316.801 189.154,-307.367"/>
<polygon fill="midnightblue" stroke="midnightblue" points="191.465,-304.711 182.103,-299.751 186.329,-309.467 191.465,-304.711"/>
</g>
<!-- Node21 -->
<g id="node21" class="node"><title>Node21</title>
<g id="a_node21"><a xlink:href="_view_attacher_8h.html" target="_top" xlink:title="ViewAttacher.h">
<polygon fill="none" stroke="black" points="243.5,-224.5 243.5,-243.5 326.5,-243.5 326.5,-224.5 243.5,-224.5"/>
<text text-anchor="middle" x="285" y="-231.5" font-family="Helvetica,sans-Serif" font-size="10.00">ViewAttacher.h</text>
</a>
</g>
</g>
<!-- Node14&#45;&gt;Node21 -->
<g id="edge30" class="edge"><title>Node14&#45;&gt;Node21</title>
<path fill="none" stroke="midnightblue" d="M226.636,-336.233C230.683,-323.403 239.115,-298.977 250,-280 255.775,-269.932 263.603,-259.646 270.392,-251.453"/>
<polygon fill="midnightblue" stroke="midnightblue" points="273.122,-253.646 276.96,-243.771 267.801,-249.097 273.122,-253.646"/>
</g>
<!-- Node22 -->
<g id="node22" class="node"><title>Node22</title>
<g id="a_node22"><a xlink:href="_view_8h.html" target="_top" xlink:title="View.h">
<polygon fill="none" stroke="black" points="259.5,-280.5 259.5,-299.5 306.5,-299.5 306.5,-280.5 259.5,-280.5"/>
<text text-anchor="middle" x="283" y="-287.5" font-family="Helvetica,sans-Serif" font-size="10.00">View.h</text>
</a>
</g>
</g>
<!-- Node14&#45;&gt;Node22 -->
<g id="edge29" class="edge"><title>Node14&#45;&gt;Node22</title>
<path fill="none" stroke="midnightblue" d="M233.479,-336.324C242.201,-328.341 255.343,-316.313 265.898,-306.653"/>
<polygon fill="midnightblue" stroke="midnightblue" points="268.334,-309.167 273.348,-299.834 263.608,-304.004 268.334,-309.167"/>
</g>
<!-- Node15&#45;&gt;Node12 -->
<g id="edge17" class="edge"><title>Node15&#45;&gt;Node12</title>
<path fill="none" stroke="midnightblue" d="M180.158,-280.428C190.178,-266.967 211.198,-240.69 234,-224 252.846,-210.205 276.593,-199.031 295.754,-191.267"/>
<polygon fill="midnightblue" stroke="midnightblue" points="297.273,-194.431 305.305,-187.523 294.718,-187.914 297.273,-194.431"/>
</g>
<!-- Node15&#45;&gt;Node13 -->
<g id="edge27" class="edge"><title>Node15&#45;&gt;Node13</title>
<path fill="none" stroke="midnightblue" d="M157.612,-280.324C141.329,-271.703 116.133,-258.364 97.2837,-248.386"/>
<polygon fill="midnightblue" stroke="midnightblue" points="98.8229,-245.24 88.3474,-243.655 95.5477,-251.427 98.8229,-245.24"/>
</g>
<!-- Node16 -->
<g id="node16" class="node"><title>Node16</title>
<g id="a_node16"><a xlink:href="_styles_8h.html" target="_top" xlink:title="Styles.h">
<polygon fill="none" stroke="black" points="133.5,-224.5 133.5,-243.5 186.5,-243.5 186.5,-224.5 133.5,-224.5"/>
<text text-anchor="middle" x="160" y="-231.5" font-family="Helvetica,sans-Serif" font-size="10.00">Styles.h</text>
</a>
</g>
</g>
<!-- Node15&#45;&gt;Node16 -->
<g id="edge18" class="edge"><title>Node15&#45;&gt;Node16</title>
<path fill="none" stroke="midnightblue" d="M171.688,-280.083C169.833,-272.927 167.165,-262.635 164.846,-253.691"/>
<polygon fill="midnightblue" stroke="midnightblue" points="168.166,-252.553 162.269,-243.751 161.391,-254.309 168.166,-252.553"/>
</g>
<!-- Node15&#45;&gt;Node21 -->
<g id="edge28" class="edge"><title>Node15&#45;&gt;Node21</title>
<path fill="none" stroke="midnightblue" d="M191.834,-280.324C209.716,-271.625 237.475,-258.12 258.046,-248.113"/>
<polygon fill="midnightblue" stroke="midnightblue" points="259.749,-251.177 267.21,-243.655 256.687,-244.882 259.749,-251.177"/>
</g>
<!-- Node16&#45;&gt;Node12 -->
<g id="edge19" class="edge"><title>Node16&#45;&gt;Node12</title>
<path fill="none" stroke="midnightblue" d="M186.562,-224.562C215.634,-215.328 262.381,-200.479 294.562,-190.257"/>
<polygon fill="midnightblue" stroke="midnightblue" points="295.986,-193.477 304.457,-187.114 293.867,-186.805 295.986,-193.477"/>
</g>
<!-- Node17 -->
<g id="node17" class="node"><title>Node17</title>
<g id="a_node17"><a xlink:href="_ui_font_8h.html" target="_top" xlink:title="UiFont.h">
<polygon fill="none" stroke="black" points="206,-168.5 206,-187.5 260,-187.5 260,-168.5 206,-168.5"/>
<text text-anchor="middle" x="233" y="-175.5" font-family="Helvetica,sans-Serif" font-size="10.00">UiFont.h</text>
</a>
</g>
</g>
<!-- Node16&#45;&gt;Node17 -->
<g id="edge20" class="edge"><title>Node16&#45;&gt;Node17</title>
<path fill="none" stroke="midnightblue" d="M171.729,-224.324C182.837,-216.107 199.742,-203.602 212.983,-193.807"/>
<polygon fill="midnightblue" stroke="midnightblue" points="215.1,-196.595 221.058,-187.834 210.937,-190.967 215.1,-196.595"/>
</g>
<!-- Node20 -->
<g id="node20" class="node"><title>Node20</title>
<g id="a_node20"><a xlink:href="_color_8h.html" target="_top" xlink:title="Color.h">
<polygon fill="none" stroke="black" points="407,-168.5 407,-187.5 455,-187.5 455,-168.5 407,-168.5"/>
<text text-anchor="middle" x="431" y="-175.5" font-family="Helvetica,sans-Serif" font-size="10.00">Color.h</text>
</a>
</g>
</g>
<!-- Node16&#45;&gt;Node20 -->
<g id="edge24" class="edge"><title>Node16&#45;&gt;Node20</title>
<path fill="none" stroke="midnightblue" d="M186.975,-227.625C236.656,-217.725 342.507,-196.633 397.01,-185.773"/>
<polygon fill="midnightblue" stroke="midnightblue" points="397.757,-189.193 406.88,-183.806 396.389,-182.328 397.757,-189.193"/>
</g>
<!-- Node18 -->
<g id="node18" class="node"><title>Node18</title>
<g id="a_node18"><a xlink:href="_hash_8h.html" target="_top" xlink:title="../Util/Hash.h">
<polygon fill="none" stroke="black" points="195.5,-112.5 195.5,-131.5 270.5,-131.5 270.5,-112.5 195.5,-112.5"/>
<text text-anchor="middle" x="233" y="-119.5" font-family="Helvetica,sans-Serif" font-size="10.00">../Util/Hash.h</text>
</a>
</g>
</g>
<!-- Node17&#45;&gt;Node18 -->
<g id="edge21" class="edge"><title>Node17&#45;&gt;Node18</title>
<path fill="none" stroke="midnightblue" d="M233,-168.083C233,-161.006 233,-150.861 233,-141.986"/>
<polygon fill="midnightblue" stroke="midnightblue" points="236.5,-141.751 233,-131.751 229.5,-141.751 236.5,-141.751"/>
</g>
<!-- Node19 -->
<g id="node19" class="node"><title>Node19</title>
<g id="a_node19"><a xlink:href="_sel_fmt_8h.html" target="_top" xlink:title="../Util/SelFmt.h">
<polygon fill="none" stroke="black" points="319.5,-112.5 319.5,-131.5 402.5,-131.5 402.5,-112.5 319.5,-112.5"/>
<text text-anchor="middle" x="361" y="-119.5" font-family="Helvetica,sans-Serif" font-size="10.00">../Util/SelFmt.h</text>
</a>
</g>
</g>
<!-- Node17&#45;&gt;Node19 -->
<g id="edge22" class="edge"><title>Node17&#45;&gt;Node19</title>
<path fill="none" stroke="midnightblue" d="M253.282,-168.444C274.347,-159.557 307.517,-145.563 331.486,-135.451"/>
<polygon fill="midnightblue" stroke="midnightblue" points="332.96,-138.628 340.813,-131.516 330.239,-132.179 332.96,-138.628"/>
</g>
<!-- Node19&#45;&gt;Node5 -->
<g id="edge23" class="edge"><title>Node19&#45;&gt;Node5</title>
<path fill="none" stroke="midnightblue" d="M364.303,-112.083C366.982,-104.849 370.849,-94.4087 374.186,-85.3968"/>
<polygon fill="midnightblue" stroke="midnightblue" points="377.568,-86.3442 377.759,-75.7511 371.004,-83.9129 377.568,-86.3442"/>
</g>
<!-- Node20&#45;&gt;Node5 -->
<g id="edge25" class="edge"><title>Node20&#45;&gt;Node5</title>
<path fill="none" stroke="midnightblue" d="M429.373,-168.269C426.789,-155.483 421.087,-131.112 412,-112 407.273,-102.059 400.463,-91.8846 394.429,-83.7311"/>
<polygon fill="midnightblue" stroke="midnightblue" points="397.19,-81.5796 388.321,-75.7833 391.639,-85.8451 397.19,-81.5796"/>
</g>
<!-- Node20&#45;&gt;Node19 -->
<g id="edge26" class="edge"><title>Node20&#45;&gt;Node19</title>
<path fill="none" stroke="midnightblue" d="M419.753,-168.324C409.203,-160.185 393.199,-147.839 380.558,-138.087"/>
<polygon fill="midnightblue" stroke="midnightblue" points="382.507,-135.171 372.451,-131.834 378.231,-140.713 382.507,-135.171"/>
</g>
<!-- Node23&#45;&gt;Node20 -->
<g id="edge32" class="edge"><title>Node23&#45;&gt;Node20</title>
<path fill="none" stroke="midnightblue" d="M469,-504.442C469,-485.936 469,-440.812 469,-403 469,-403 469,-403 469,-289 469,-254.813 452.4,-217.764 441.143,-196.571"/>
<polygon fill="midnightblue" stroke="midnightblue" points="444.181,-194.832 436.284,-187.769 438.053,-198.215 444.181,-194.832"/>
</g>
<!-- Node24 -->
<g id="node24" class="node"><title>Node24</title>
<g id="a_node24"><a xlink:href="_box_8h.html" target="_top" xlink:title="Box.h">
<polygon fill="none" stroke="black" points="399,-448.5 399,-467.5 441,-467.5 441,-448.5 399,-448.5"/>
<text text-anchor="middle" x="420" y="-455.5" font-family="Helvetica,sans-Serif" font-size="10.00">Box.h</text>
</a>
</g>
</g>
<!-- Node23&#45;&gt;Node24 -->
<g id="edge33" class="edge"><title>Node23&#45;&gt;Node24</title>
<path fill="none" stroke="midnightblue" d="M460.909,-504.083C453.845,-496.298 443.412,-484.801 434.851,-475.367"/>
<polygon fill="midnightblue" stroke="midnightblue" points="437.253,-472.805 427.941,-467.751 432.069,-477.509 437.253,-472.805"/>
</g>
<!-- Node24&#45;&gt;Node10 -->
<g id="edge35" class="edge"><title>Node24&#45;&gt;Node10</title>
<path fill="none" stroke="midnightblue" d="M398.74,-448.681C375.946,-439.761 339.519,-425.507 313.417,-415.294"/>
<polygon fill="midnightblue" stroke="midnightblue" points="314.557,-411.981 303.969,-411.597 312.006,-418.5 314.557,-411.981"/>
</g>
<!-- Node24&#45;&gt;Node20 -->
<g id="edge34" class="edge"><title>Node24&#45;&gt;Node20</title>
<path fill="none" stroke="midnightblue" d="M421.438,-448.471C424.42,-430.022 431,-385.001 431,-347 431,-347 431,-347 431,-289 431,-256.948 431,-219.643 431,-197.749"/>
<polygon fill="midnightblue" stroke="midnightblue" points="434.5,-197.558 431,-187.558 427.5,-197.558 434.5,-197.558"/>
</g>
<!-- Node26 -->
<g id="node26" class="node"><title>Node26</title>
<g id="a_node26"><a xlink:href="_base_container_8h.html" target="_top" xlink:title="BaseContainer.h">
<polygon fill="none" stroke="black" points="355.5,-627.5 355.5,-646.5 444.5,-646.5 444.5,-627.5 355.5,-627.5"/>
<text text-anchor="middle" x="400" y="-634.5" font-family="Helvetica,sans-Serif" font-size="10.00">BaseContainer.h</text>
</a>
</g>
</g>
<!-- Node25&#45;&gt;Node26 -->
<g id="edge37" class="edge"><title>Node25&#45;&gt;Node26</title>
<path fill="none" stroke="midnightblue" d="M400,-683.399C400,-675.466 400,-665.458 400,-656.858"/>
<polygon fill="midnightblue" stroke="midnightblue" points="403.5,-656.658 400,-646.658 396.5,-656.658 403.5,-656.658"/>
</g>
<!-- Node26&#45;&gt;Node10 -->
<g id="edge38" class="edge"><title>Node26&#45;&gt;Node10</title>
<path fill="none" stroke="midnightblue" d="M392.693,-627.199C373.257,-603.294 319.996,-534.487 294,-468 288.182,-453.121 285.143,-435.202 283.581,-421.949"/>
<polygon fill="midnightblue" stroke="midnightblue" points="287.034,-421.3 282.556,-411.698 280.069,-421.997 287.034,-421.3"/>
</g>
<!-- Node28 -->
<g id="node28" class="node"><title>Node28</title>
<polygon fill="none" stroke="#bfbfbf" points="827,-56.5 827,-75.5 869,-75.5 869,-56.5 827,-56.5"/>
<text text-anchor="middle" x="848" y="-63.5" font-family="Helvetica,sans-Serif" font-size="10.00">locale</text>
</g>
<!-- Node27&#45;&gt;Node28 -->
<g id="edge40" class="edge"><title>Node27&#45;&gt;Node28</title>
<path fill="none" stroke="midnightblue" d="M786.257,-168.368C797.265,-150.296 822.92,-108.176 837.458,-84.3074"/>
<polygon fill="midnightblue" stroke="midnightblue" points="840.554,-85.9526 842.767,-75.5914 834.576,-82.3112 840.554,-85.9526"/>
</g>
<!-- Node29 -->
<g id="node29" class="node"><title>Node29</title>
<g id="a_node29"><a xlink:href="_o_s_8h.html" target="_top" xlink:title="OS.h">
<polygon fill="none" stroke="black" points="714.5,-112.5 714.5,-131.5 753.5,-131.5 753.5,-112.5 714.5,-112.5"/>
<text text-anchor="middle" x="734" y="-119.5" font-family="Helvetica,sans-Serif" font-size="10.00">OS.h</text>
</a>
</g>
</g>
<!-- Node27&#45;&gt;Node29 -->
<g id="edge41" class="edge"><title>Node27&#45;&gt;Node29</title>
<path fill="none" stroke="midnightblue" d="M773.239,-168.083C766.463,-160.298 756.457,-148.801 748.245,-139.367"/>
<polygon fill="midnightblue" stroke="midnightblue" points="750.822,-136.996 741.617,-131.751 745.542,-141.592 750.822,-136.996"/>
</g>
<!-- Node29&#45;&gt;Node5 -->
<g id="edge47" class="edge"><title>Node29&#45;&gt;Node5</title>
<path fill="none" stroke="midnightblue" d="M714.233,-114.178C711.488,-113.368 708.688,-112.613 706,-112 657.037,-100.83 521.33,-83.6977 441.609,-74.1163"/>
<polygon fill="midnightblue" stroke="midnightblue" points="441.567,-70.5865 431.222,-72.8727 440.735,-77.5368 441.567,-70.5865"/>
</g>
<!-- Node29&#45;&gt;Node28 -->
<g id="edge42" class="edge"><title>Node29&#45;&gt;Node28</title>
<path fill="none" stroke="midnightblue" d="M752.064,-112.444C770.575,-103.675 799.581,-89.9355 820.855,-79.8579"/>
<polygon fill="midnightblue" stroke="midnightblue" points="822.482,-82.9604 830.021,-75.5164 819.485,-76.6343 822.482,-82.9604"/>
</g>
<!-- Node30 -->
<g id="node30" class="node"><title>Node30</title>
<polygon fill="none" stroke="#bfbfbf" points="719,-56.5 719,-75.5 749,-75.5 749,-56.5 719,-56.5"/>
<text text-anchor="middle" x="734" y="-63.5" font-family="Helvetica,sans-Serif" font-size="10.00">set</text>
</g>
<!-- Node29&#45;&gt;Node30 -->
<g id="edge43" class="edge"><title>Node29&#45;&gt;Node30</title>
<path fill="none" stroke="midnightblue" d="M734,-112.083C734,-105.006 734,-94.8611 734,-85.9865"/>
<polygon fill="midnightblue" stroke="midnightblue" points="737.5,-85.751 734,-75.7511 730.5,-85.7511 737.5,-85.751"/>
</g>
<!-- Node31 -->
<g id="node31" class="node"><title>Node31</title>
<polygon fill="none" stroke="#bfbfbf" points="767.5,-56.5 767.5,-75.5 808.5,-75.5 808.5,-56.5 767.5,-56.5"/>
<text text-anchor="middle" x="788" y="-63.5" font-family="Helvetica,sans-Serif" font-size="10.00">string</text>
</g>
<!-- Node29&#45;&gt;Node31 -->
<g id="edge44" class="edge"><title>Node29&#45;&gt;Node31</title>
<path fill="none" stroke="midnightblue" d="M742.917,-112.083C750.78,-104.22 762.431,-92.5688 771.919,-83.0813"/>
<polygon fill="midnightblue" stroke="midnightblue" points="774.653,-85.2971 779.249,-75.7511 769.703,-80.3473 774.653,-85.2971"/>
</g>
<!-- Node32 -->
<g id="node32" class="node"><title>Node32</title>
<polygon fill="none" stroke="#bfbfbf" points="533,-56.5 533,-75.5 577,-75.5 577,-56.5 533,-56.5"/>
<text text-anchor="middle" x="555" y="-63.5" font-family="Helvetica,sans-Serif" font-size="10.00">vector</text>
</g>
<!-- Node29&#45;&gt;Node32 -->
<g id="edge45" class="edge"><title>Node29&#45;&gt;Node32</title>
<path fill="none" stroke="midnightblue" d="M714.435,-114.652C711.608,-113.752 708.731,-112.846 706,-112 664.916,-99.2771 617.34,-85.2081 586.743,-76.2456"/>
<polygon fill="midnightblue" stroke="midnightblue" points="587.631,-72.859 577.051,-73.4112 585.666,-79.5776 587.631,-72.859"/>
</g>
<!-- Node33 -->
<g id="node33" class="node"><title>Node33</title>
<polygon fill="none" stroke="#bfbfbf" points="594.5,-56.5 594.5,-75.5 701.5,-75.5 701.5,-56.5 594.5,-56.5"/>
<text text-anchor="middle" x="648" y="-63.5" font-family="Helvetica,sans-Serif" font-size="10.00">boost/filesystem.hpp</text>
</g>
<!-- Node29&#45;&gt;Node33 -->
<g id="edge46" class="edge"><title>Node29&#45;&gt;Node33</title>
<path fill="none" stroke="midnightblue" d="M720.183,-112.324C706.767,-103.9 686.176,-90.9709 670.414,-81.0741"/>
<polygon fill="midnightblue" stroke="midnightblue" points="672.113,-78.0081 661.783,-75.6545 668.391,-83.9364 672.113,-78.0081"/>
</g>
<!-- Node35 -->
<g id="node35" class="node"><title>Node35</title>
<g id="a_node35"><a xlink:href="_pick_list_8h.html" target="_top" xlink:title="../../engine/Display\l/PickList.h">
<polygon fill="none" stroke="black" points="509.5,-683.5 509.5,-713.5 608.5,-713.5 608.5,-683.5 509.5,-683.5"/>
<text text-anchor="start" x="517.5" y="-701.5" font-family="Helvetica,sans-Serif" font-size="10.00">../../engine/Display</text>
<text text-anchor="middle" x="559" y="-690.5" font-family="Helvetica,sans-Serif" font-size="10.00">/PickList.h</text>
</a>
</g>
</g>
<!-- Node34&#45;&gt;Node35 -->
<g id="edge49" class="edge"><title>Node34&#45;&gt;Node35</title>
<path fill="none" stroke="midnightblue" d="M560.73,-755.734C560.478,-747.541 560.09,-734.923 559.745,-723.714"/>
<polygon fill="midnightblue" stroke="midnightblue" points="563.239,-723.477 559.434,-713.589 556.243,-723.692 563.239,-723.477"/>
</g>
<!-- Node37 -->
<g id="node37" class="node"><title>Node37</title>
<g id="a_node37"><a xlink:href="_dialog_scene_8h.html" target="_top" xlink:title="DialogScene.h">
<polygon fill="none" stroke="black" points="606,-336.5 606,-355.5 686,-355.5 686,-336.5 606,-336.5"/>
<text text-anchor="middle" x="646" y="-343.5" font-family="Helvetica,sans-Serif" font-size="10.00">DialogScene.h</text>
</a>
</g>
</g>
<!-- Node34&#45;&gt;Node37 -->
<g id="edge54" class="edge"><title>Node34&#45;&gt;Node37</title>
<path fill="none" stroke="midnightblue" d="M578.666,-755.953C611.584,-738.649 679,-696.115 679,-638 679,-638 679,-638 679,-457 679,-423.245 664.568,-386.028 654.792,-364.691"/>
<polygon fill="midnightblue" stroke="midnightblue" points="657.911,-363.099 650.451,-355.576 651.591,-366.11 657.911,-363.099"/>
</g>
<!-- Node35&#45;&gt;Node7 -->
<g id="edge50" class="edge"><title>Node35&#45;&gt;Node7</title>
<path fill="none" stroke="midnightblue" d="M571.527,-683.1C579.098,-673.532 588.188,-660.32 593,-647 614.328,-587.956 614.387,-512.132 613.057,-477.609"/>
<polygon fill="midnightblue" stroke="midnightblue" points="616.55,-477.391 612.581,-467.568 609.558,-477.723 616.55,-477.391"/>
</g>
<!-- Node35&#45;&gt;Node26 -->
<g id="edge51" class="edge"><title>Node35&#45;&gt;Node26</title>
<path fill="none" stroke="midnightblue" d="M521.319,-683.399C494.404,-673.327 458.548,-659.909 432.807,-650.277"/>
<polygon fill="midnightblue" stroke="midnightblue" points="433.728,-646.885 423.136,-646.658 431.275,-653.441 433.728,-646.885"/>
</g>
<!-- Node36 -->
<g id="node36" class="node"><title>Node36</title>
<g id="a_node36"><a xlink:href="_state_button_8h.html" target="_top" xlink:title="StateButton.h">
<polygon fill="none" stroke="black" points="506.5,-627.5 506.5,-646.5 583.5,-646.5 583.5,-627.5 506.5,-627.5"/>
<text text-anchor="middle" x="545" y="-634.5" font-family="Helvetica,sans-Serif" font-size="10.00">StateButton.h</text>
</a>
</g>
</g>
<!-- Node35&#45;&gt;Node36 -->
<g id="edge52" class="edge"><title>Node35&#45;&gt;Node36</title>
<path fill="none" stroke="midnightblue" d="M555.682,-683.399C553.795,-675.377 551.408,-665.233 549.369,-656.569"/>
<polygon fill="midnightblue" stroke="midnightblue" points="552.735,-655.59 547.037,-646.658 545.921,-657.194 552.735,-655.59"/>
</g>
<!-- Node36&#45;&gt;Node3 -->
<g id="edge53" class="edge"><title>Node36&#45;&gt;Node3</title>
<path fill="none" stroke="midnightblue" d="M535.401,-627.475C526.581,-619.643 513.149,-607.714 501.496,-597.366"/>
<polygon fill="midnightblue" stroke="midnightblue" points="503.592,-594.546 493.791,-590.523 498.944,-599.78 503.592,-594.546"/>
</g>
<!-- Node37&#45;&gt;Node20 -->
<g id="edge55" class="edge"><title>Node37&#45;&gt;Node20</title>
<path fill="none" stroke="midnightblue" d="M627.551,-336.348C610.624,-328.045 585.188,-314.635 565,-300 524.769,-270.835 520.015,-257.152 483,-224 471.744,-213.919 458.908,-202.807 448.806,-194.148"/>
<polygon fill="midnightblue" stroke="midnightblue" points="450.933,-191.362 441.057,-187.527 446.386,-196.684 450.933,-191.362"/>
</g>
<!-- Node38 -->
<g id="node38" class="node"><title>Node38</title>
<g id="a_node38"><a xlink:href="_game_director_8h.html" target="_top" xlink:title="GameDirector.h">
<polygon fill="none" stroke="black" points="667,-280.5 667,-299.5 753,-299.5 753,-280.5 667,-280.5"/>
<text text-anchor="middle" x="710" y="-287.5" font-family="Helvetica,sans-Serif" font-size="10.00">GameDirector.h</text>
</a>
</g>
</g>
<!-- Node37&#45;&gt;Node38 -->
<g id="edge56" class="edge"><title>Node37&#45;&gt;Node38</title>
<path fill="none" stroke="midnightblue" d="M656.283,-336.324C665.836,-328.263 680.28,-316.077 691.784,-306.369"/>
<polygon fill="midnightblue" stroke="midnightblue" points="694.144,-308.958 699.53,-299.834 689.63,-303.608 694.144,-308.958"/>
</g>
<!-- Node39 -->
<g id="node39" class="node"><title>Node39</title>
<g id="a_node39"><a xlink:href="_form_scene_8h.html" target="_top" xlink:title="FormScene.h">
<polygon fill="none" stroke="black" points="573.5,-280.5 573.5,-299.5 648.5,-299.5 648.5,-280.5 573.5,-280.5"/>
<text text-anchor="middle" x="611" y="-287.5" font-family="Helvetica,sans-Serif" font-size="10.00">FormScene.h</text>
</a>
</g>
</g>
<!-- Node37&#45;&gt;Node39 -->
<g id="edge57" class="edge"><title>Node37&#45;&gt;Node39</title>
<path fill="none" stroke="midnightblue" d="M640.22,-336.083C635.328,-328.534 628.173,-317.495 622.167,-308.23"/>
<polygon fill="midnightblue" stroke="midnightblue" points="625.048,-306.239 616.672,-299.751 619.174,-310.046 625.048,-306.239"/>
</g>
<!-- Node39&#45;&gt;Node12 -->
<g id="edge58" class="edge"><title>Node39&#45;&gt;Node12</title>
<path fill="none" stroke="midnightblue" d="M588.95,-280.368C539.397,-260.97 419.076,-213.87 361.593,-191.367"/>
<polygon fill="midnightblue" stroke="midnightblue" points="362.535,-187.978 351.947,-187.591 359.983,-194.496 362.535,-187.978"/>
</g>
<!-- Node40 -->
<g id="node40" class="node"><title>Node40</title>
<g id="a_node40"><a xlink:href="_ui_scene_8h.html" target="_top" xlink:title="UiScene.h">
<polygon fill="none" stroke="black" points="592,-224.5 592,-243.5 654,-243.5 654,-224.5 592,-224.5"/>
<text text-anchor="middle" x="623" y="-231.5" font-family="Helvetica,sans-Serif" font-size="10.00">UiScene.h</text>
</a>
</g>
</g>
<!-- Node39&#45;&gt;Node40 -->
<g id="edge59" class="edge"><title>Node39&#45;&gt;Node40</title>
<path fill="none" stroke="midnightblue" d="M612.982,-280.083C614.572,-272.927 616.859,-262.635 618.846,-253.691"/>
<polygon fill="midnightblue" stroke="midnightblue" points="622.303,-254.272 621.055,-243.751 615.469,-252.754 622.303,-254.272"/>
</g>
<!-- Node41 -->
<g id="node41" class="node"><title>Node41</title>
<g id="a_node41"><a xlink:href="_scene_8h.html" target="_top" xlink:title="Scene.h">
<polygon fill="none" stroke="black" points="608.5,-168.5 608.5,-187.5 661.5,-187.5 661.5,-168.5 608.5,-168.5"/>
<text text-anchor="middle" x="635" y="-175.5" font-family="Helvetica,sans-Serif" font-size="10.00">Scene.h</text>
</a>
</g>
</g>
<!-- Node40&#45;&gt;Node41 -->
<g id="edge60" class="edge"><title>Node40&#45;&gt;Node41</title>
<path fill="none" stroke="midnightblue" d="M624.982,-224.083C626.572,-216.927 628.859,-206.635 630.846,-197.691"/>
<polygon fill="midnightblue" stroke="midnightblue" points="634.303,-198.272 633.055,-187.751 627.469,-196.754 634.303,-198.272"/>
</g>
<!-- Node41&#45;&gt;Node29 -->
<g id="edge61" class="edge"><title>Node41&#45;&gt;Node29</title>
<path fill="none" stroke="midnightblue" d="M650.906,-168.324C666.638,-159.743 690.942,-146.486 709.209,-136.522"/>
<polygon fill="midnightblue" stroke="midnightblue" points="711.03,-139.516 718.133,-131.655 707.678,-133.37 711.03,-139.516"/>
</g>
<!-- Node42 -->
<g id="node42" class="node"><title>Node42</title>
<g id="a_node42"><a xlink:href="_profiler_8h.html" target="_top" xlink:title="../../engine/Util/Profiler.h">
<polygon fill="none" stroke="black" points="573.5,-112.5 573.5,-131.5 696.5,-131.5 696.5,-112.5 573.5,-112.5"/>
<text text-anchor="middle" x="635" y="-119.5" font-family="Helvetica,sans-Serif" font-size="10.00">../../engine/Util/Profiler.h</text>
</a>
</g>
</g>
<!-- Node41&#45;&gt;Node42 -->
<g id="edge62" class="edge"><title>Node41&#45;&gt;Node42</title>
<path fill="none" stroke="midnightblue" d="M635,-168.083C635,-161.006 635,-150.861 635,-141.986"/>
<polygon fill="midnightblue" stroke="midnightblue" points="638.5,-141.751 635,-131.751 631.5,-141.751 638.5,-141.751"/>
</g>
<!-- Node43 -->
<g id="node43" class="node"><title>Node43</title>
<polygon fill="none" stroke="#bfbfbf" points="469,-56.5 469,-75.5 515,-75.5 515,-56.5 469,-56.5"/>
<text text-anchor="middle" x="492" y="-63.5" font-family="Helvetica,sans-Serif" font-size="10.00">chrono</text>
</g>
<!-- Node42&#45;&gt;Node43 -->
<g id="edge63" class="edge"><title>Node42&#45;&gt;Node43</title>
<path fill="none" stroke="midnightblue" d="M612.341,-112.444C588.598,-103.478 551.091,-89.314 524.262,-79.1827"/>
<polygon fill="midnightblue" stroke="midnightblue" points="525.144,-75.7749 514.553,-75.5164 522.671,-82.3235 525.144,-75.7749"/>
</g>
</g>
</svg>
