<?xml version="1.0" encoding="UTF-8" standalone="no"?>
<!DOCTYPE svg PUBLIC "-//W3C//DTD SVG 1.1//EN"
 "http://www.w3.org/Graphics/SVG/1.1/DTD/svg11.dtd">
<!-- Generated by graphviz version 2.38.0 (20140413.2041)
 -->
<!-- Title: LocalProfile.h Pages: 1 -->
<svg width="378pt" height="364pt"
 viewBox="0.00 0.00 378.00 364.00" xmlns="http://www.w3.org/2000/svg" xmlns:xlink="http://www.w3.org/1999/xlink">
<g id="graph0" class="graph" transform="scale(1 1) rotate(0) translate(4 360)">
<title>LocalProfile.h</title>
<!-- Node1 -->
<g id="node1" class="node"><title>Node1</title>
<polygon fill="#bfbfbf" stroke="black" points="127.5,-336.5 127.5,-355.5 203.5,-355.5 203.5,-336.5 127.5,-336.5"/>
<text text-anchor="middle" x="165.5" y="-343.5" font-family="Helvetica,sans-Serif" font-size="10.00">LocalProfile.h</text>
</g>
<!-- Node2 -->
<g id="node2" class="node"><title>Node2</title>
<g id="a_node2"><a xlink:href="_profile_8h.html" target="_top" xlink:title="Profile.h">
<polygon fill="none" stroke="black" points="139,-280.5 139,-299.5 192,-299.5 192,-280.5 139,-280.5"/>
<text text-anchor="middle" x="165.5" y="-287.5" font-family="Helvetica,sans-Serif" font-size="10.00">Profile.h</text>
</a>
</g>
</g>
<!-- Node1&#45;&gt;Node2 -->
<g id="edge1" class="edge"><title>Node1&#45;&gt;Node2</title>
<path fill="none" stroke="midnightblue" d="M165.5,-336.083C165.5,-329.006 165.5,-318.861 165.5,-309.986"/>
<polygon fill="midnightblue" stroke="midnightblue" points="169,-309.751 165.5,-299.751 162,-309.751 169,-309.751"/>
</g>
<!-- Node3 -->
<g id="node3" class="node"><title>Node3</title>
<polygon fill="none" stroke="#bfbfbf" points="0,-224.5 0,-243.5 101,-243.5 101,-224.5 0,-224.5"/>
<text text-anchor="middle" x="50.5" y="-231.5" font-family="Helvetica,sans-Serif" font-size="10.00">boost/uuid/uuid.hpp</text>
</g>
<!-- Node2&#45;&gt;Node3 -->
<g id="edge2" class="edge"><title>Node2&#45;&gt;Node3</title>
<path fill="none" stroke="midnightblue" d="M147.278,-280.444C128.604,-271.675 99.344,-257.935 77.8826,-247.858"/>
<polygon fill="midnightblue" stroke="midnightblue" points="79.1763,-244.599 68.6368,-243.516 76.2009,-250.935 79.1763,-244.599"/>
</g>
<!-- Node4 -->
<g id="node4" class="node"><title>Node4</title>
<g id="a_node4"><a xlink:href="_color_8h.html" target="_top" xlink:title="../Display/Color.h">
<polygon fill="none" stroke="black" points="102,-168.5 102,-187.5 195,-187.5 195,-168.5 102,-168.5"/>
<text text-anchor="middle" x="148.5" y="-175.5" font-family="Helvetica,sans-Serif" font-size="10.00">../Display/Color.h</text>
</a>
</g>
</g>
<!-- Node2&#45;&gt;Node4 -->
<g id="edge3" class="edge"><title>Node2&#45;&gt;Node4</title>
<path fill="none" stroke="midnightblue" d="M161.134,-280.307C156.941,-271.437 150.9,-257.145 148.5,-244 145.678,-228.545 145.925,-210.676 146.738,-197.59"/>
<polygon fill="midnightblue" stroke="midnightblue" points="150.237,-197.746 147.535,-187.501 143.259,-197.195 150.237,-197.746"/>
</g>
<!-- Node8 -->
<g id="node8" class="node"><title>Node8</title>
<g id="a_node8"><a xlink:href="_res_8h.html" target="_top" xlink:title="../Display/Res.h">
<polygon fill="none" stroke="black" points="263.5,-224.5 263.5,-243.5 351.5,-243.5 351.5,-224.5 263.5,-224.5"/>
<text text-anchor="middle" x="307.5" y="-231.5" font-family="Helvetica,sans-Serif" font-size="10.00">../Display/Res.h</text>
</a>
</g>
</g>
<!-- Node2&#45;&gt;Node8 -->
<g id="edge8" class="edge"><title>Node2&#45;&gt;Node8</title>
<path fill="none" stroke="midnightblue" d="M188,-280.444C211.577,-271.478 248.822,-257.314 275.464,-247.183"/>
<polygon fill="midnightblue" stroke="midnightblue" points="277.002,-250.342 285.105,-243.516 274.514,-243.8 277.002,-250.342"/>
</g>
<!-- Node11 -->
<g id="node11" class="node"><title>Node11</title>
<g id="a_node11"><a xlink:href="_editable_profile_8h.html" target="_top" xlink:title="EditableProfile.h">
<polygon fill="none" stroke="black" points="157.5,-224.5 157.5,-243.5 245.5,-243.5 245.5,-224.5 157.5,-224.5"/>
<text text-anchor="middle" x="201.5" y="-231.5" font-family="Helvetica,sans-Serif" font-size="10.00">EditableProfile.h</text>
</a>
</g>
</g>
<!-- Node2&#45;&gt;Node11 -->
<g id="edge12" class="edge"><title>Node2&#45;&gt;Node11</title>
<path fill="none" stroke="midnightblue" d="M171.445,-280.083C176.477,-272.534 183.837,-261.495 190.013,-252.23"/>
<polygon fill="midnightblue" stroke="midnightblue" points="193.031,-254.013 195.666,-243.751 187.207,-250.13 193.031,-254.013"/>
</g>
<!-- Node5 -->
<g id="node5" class="node"><title>Node5</title>
<g id="a_node5"><a xlink:href="_m_r___types_8h.html" target="_top" xlink:title="../Util/MR_Types.h">
<polygon fill="none" stroke="black" points="144.5,-56.5 144.5,-75.5 244.5,-75.5 244.5,-56.5 144.5,-56.5"/>
<text text-anchor="middle" x="194.5" y="-63.5" font-family="Helvetica,sans-Serif" font-size="10.00">../Util/MR_Types.h</text>
</a>
</g>
</g>
<!-- Node4&#45;&gt;Node5 -->
<g id="edge4" class="edge"><title>Node4&#45;&gt;Node5</title>
<path fill="none" stroke="midnightblue" d="M145.463,-168.131C141.562,-155.173 136.22,-130.591 144.5,-112 150.068,-99.4981 161.016,-89.0124 171.251,-81.3167"/>
<polygon fill="midnightblue" stroke="midnightblue" points="173.351,-84.1193 179.548,-75.5256 169.344,-78.3794 173.351,-84.1193"/>
</g>
<!-- Node7 -->
<g id="node7" class="node"><title>Node7</title>
<g id="a_node7"><a xlink:href="_sel_fmt_8h.html" target="_top" xlink:title="../Util/SelFmt.h">
<polygon fill="none" stroke="black" points="153,-112.5 153,-131.5 236,-131.5 236,-112.5 153,-112.5"/>
<text text-anchor="middle" x="194.5" y="-119.5" font-family="Helvetica,sans-Serif" font-size="10.00">../Util/SelFmt.h</text>
</a>
</g>
</g>
<!-- Node4&#45;&gt;Node7 -->
<g id="edge6" class="edge"><title>Node4&#45;&gt;Node7</title>
<path fill="none" stroke="midnightblue" d="M156.096,-168.083C162.727,-160.298 172.521,-148.801 180.558,-139.367"/>
<polygon fill="midnightblue" stroke="midnightblue" points="183.225,-141.633 187.045,-131.751 177.896,-137.094 183.225,-141.633"/>
</g>
<!-- Node6 -->
<g id="node6" class="node"><title>Node6</title>
<polygon fill="none" stroke="#bfbfbf" points="165,-0.5 165,-19.5 224,-19.5 224,-0.5 165,-0.5"/>
<text text-anchor="middle" x="194.5" y="-7.5" font-family="Helvetica,sans-Serif" font-size="10.00">inttypes.h</text>
</g>
<!-- Node5&#45;&gt;Node6 -->
<g id="edge5" class="edge"><title>Node5&#45;&gt;Node6</title>
<path fill="none" stroke="midnightblue" d="M194.5,-56.083C194.5,-49.0059 194.5,-38.8611 194.5,-29.9865"/>
<polygon fill="midnightblue" stroke="midnightblue" points="198,-29.751 194.5,-19.7511 191,-29.7511 198,-29.751"/>
</g>
<!-- Node7&#45;&gt;Node5 -->
<g id="edge7" class="edge"><title>Node7&#45;&gt;Node5</title>
<path fill="none" stroke="midnightblue" d="M194.5,-112.083C194.5,-105.006 194.5,-94.8611 194.5,-85.9865"/>
<polygon fill="midnightblue" stroke="midnightblue" points="198,-85.751 194.5,-75.7511 191,-85.7511 198,-85.751"/>
</g>
<!-- Node8&#45;&gt;Node5 -->
<g id="edge9" class="edge"><title>Node8&#45;&gt;Node5</title>
<path fill="none" stroke="midnightblue" d="M303.08,-224.348C288.984,-196.758 245.984,-112.623 245.5,-112 236.669,-100.637 224.687,-89.8942 214.557,-81.7564"/>
<polygon fill="midnightblue" stroke="midnightblue" points="216.638,-78.9415 206.592,-75.5769 212.347,-84.4722 216.638,-78.9415"/>
</g>
<!-- Node9 -->
<g id="node9" class="node"><title>Node9</title>
<g id="a_node9"><a xlink:href="_exception_8h.html" target="_top" xlink:title="../Exception.h">
<polygon fill="none" stroke="black" points="293,-168.5 293,-187.5 370,-187.5 370,-168.5 293,-168.5"/>
<text text-anchor="middle" x="331.5" y="-175.5" font-family="Helvetica,sans-Serif" font-size="10.00">../Exception.h</text>
</a>
</g>
</g>
<!-- Node8&#45;&gt;Node9 -->
<g id="edge10" class="edge"><title>Node8&#45;&gt;Node9</title>
<path fill="none" stroke="midnightblue" d="M311.463,-224.083C314.713,-216.77 319.419,-206.181 323.454,-197.103"/>
<polygon fill="midnightblue" stroke="midnightblue" points="326.748,-198.311 327.611,-187.751 320.351,-195.468 326.748,-198.311"/>
</g>
<!-- Node10 -->
<g id="node10" class="node"><title>Node10</title>
<polygon fill="none" stroke="#bfbfbf" points="302,-112.5 302,-131.5 361,-131.5 361,-112.5 302,-112.5"/>
<text text-anchor="middle" x="331.5" y="-119.5" font-family="Helvetica,sans-Serif" font-size="10.00">exception</text>
</g>
<!-- Node9&#45;&gt;Node10 -->
<g id="edge11" class="edge"><title>Node9&#45;&gt;Node10</title>
<path fill="none" stroke="midnightblue" d="M331.5,-168.083C331.5,-161.006 331.5,-150.861 331.5,-141.986"/>
<polygon fill="midnightblue" stroke="midnightblue" points="335,-141.751 331.5,-131.751 328,-141.751 335,-141.751"/>
</g>
<!-- Node11&#45;&gt;Node4 -->
<g id="edge13" class="edge"><title>Node11&#45;&gt;Node4</title>
<path fill="none" stroke="midnightblue" d="M192.748,-224.083C185.03,-216.22 173.595,-204.569 164.283,-195.081"/>
<polygon fill="midnightblue" stroke="midnightblue" points="166.592,-192.436 157.089,-187.751 161.596,-197.34 166.592,-192.436"/>
</g>
</g>
</svg>
