<?xml version="1.0" encoding="UTF-8" standalone="no"?>
<!DOCTYPE svg PUBLIC "-//W3C//DTD SVG 1.1//EN"
 "http://www.w3.org/Graphics/SVG/1.1/DTD/svg11.dtd">
<!-- Generated by graphviz version 2.38.0 (20140413.2041)
 -->
<!-- Title: Locale.h Pages: 1 -->
<svg width="454pt" height="196pt"
 viewBox="0.00 0.00 453.50 196.00" xmlns="http://www.w3.org/2000/svg" xmlns:xlink="http://www.w3.org/1999/xlink">
<g id="graph0" class="graph" transform="scale(1 1) rotate(0) translate(4 192)">
<title>Locale.h</title>
<!-- Node1 -->
<g id="node1" class="node"><title>Node1</title>
<polygon fill="#bfbfbf" stroke="black" points="66,-168.5 66,-187.5 122,-187.5 122,-168.5 66,-168.5"/>
<text text-anchor="middle" x="94" y="-175.5" font-family="FreeSans" font-size="10.00">Locale.h</text>
</g>
<!-- Node2 -->
<g id="node2" class="node"><title>Node2</title>
<polygon fill="none" stroke="#bfbfbf" points="0,-56.5 0,-75.5 44,-75.5 44,-56.5 0,-56.5"/>
<text text-anchor="middle" x="22" y="-63.5" font-family="FreeSans" font-size="10.00">locale</text>
</g>
<!-- Node1&#45;&gt;Node2 -->
<g id="edge1" class="edge"><title>Node1&#45;&gt;Node2</title>
<path fill="none" stroke="midnightblue" d="M88.3503,-168.368C76.4682,-150.215 48.7065,-107.802 33.1208,-83.9902"/>
<polygon fill="midnightblue" stroke="midnightblue" points="36.0286,-82.0416 27.6235,-75.5914 30.1717,-85.8753 36.0286,-82.0416"/>
</g>
<!-- Node3 -->
<g id="node3" class="node"><title>Node3</title>
<g id="a_node3"><a xlink:href="_o_s_8h.html" target="_top" xlink:title="OS.h">
<polygon fill="none" stroke="black" points="114,-112.5 114,-131.5 154,-131.5 154,-112.5 114,-112.5"/>
<text text-anchor="middle" x="134" y="-119.5" font-family="FreeSans" font-size="10.00">OS.h</text>
</a>
</g>
</g>
<!-- Node1&#45;&gt;Node3 -->
<g id="edge2" class="edge"><title>Node1&#45;&gt;Node3</title>
<path fill="none" stroke="midnightblue" d="M100.605,-168.083C106.255,-160.455 114.545,-149.264 121.451,-139.941"/>
<polygon fill="midnightblue" stroke="midnightblue" points="124.378,-141.87 127.518,-131.751 118.753,-137.703 124.378,-141.87"/>
</g>
<!-- Node3&#45;&gt;Node2 -->
<g id="edge3" class="edge"><title>Node3&#45;&gt;Node2</title>
<path fill="none" stroke="midnightblue" d="M116.005,-112.324C97.9623,-103.625 69.9531,-90.1202 49.1973,-80.113"/>
<polygon fill="midnightblue" stroke="midnightblue" points="50.4778,-76.8449 39.9501,-75.6545 47.4377,-83.1502 50.4778,-76.8449"/>
</g>
<!-- Node4 -->
<g id="node4" class="node"><title>Node4</title>
<polygon fill="none" stroke="#bfbfbf" points="62,-56.5 62,-75.5 94,-75.5 94,-56.5 62,-56.5"/>
<text text-anchor="middle" x="78" y="-63.5" font-family="FreeSans" font-size="10.00">set</text>
</g>
<!-- Node3&#45;&gt;Node4 -->
<g id="edge4" class="edge"><title>Node3&#45;&gt;Node4</title>
<path fill="none" stroke="midnightblue" d="M125.003,-112.324C116.806,-104.42 104.494,-92.5482 94.528,-82.9377"/>
<polygon fill="midnightblue" stroke="midnightblue" points="96.789,-80.2558 87.1611,-75.8339 91.9301,-85.2947 96.789,-80.2558"/>
</g>
<!-- Node5 -->
<g id="node5" class="node"><title>Node5</title>
<polygon fill="none" stroke="#bfbfbf" points="112,-56.5 112,-75.5 156,-75.5 156,-56.5 112,-56.5"/>
<text text-anchor="middle" x="134" y="-63.5" font-family="FreeSans" font-size="10.00">string</text>
</g>
<!-- Node3&#45;&gt;Node5 -->
<g id="edge5" class="edge"><title>Node3&#45;&gt;Node5</title>
<path fill="none" stroke="midnightblue" d="M134,-112.083C134,-105.006 134,-94.8611 134,-85.9865"/>
<polygon fill="midnightblue" stroke="midnightblue" points="137.5,-85.751 134,-75.7511 130.5,-85.7511 137.5,-85.751"/>
</g>
<!-- Node6 -->
<g id="node6" class="node"><title>Node6</title>
<polygon fill="none" stroke="#bfbfbf" points="174.5,-56.5 174.5,-75.5 221.5,-75.5 221.5,-56.5 174.5,-56.5"/>
<text text-anchor="middle" x="198" y="-63.5" font-family="FreeSans" font-size="10.00">vector</text>
</g>
<!-- Node3&#45;&gt;Node6 -->
<g id="edge6" class="edge"><title>Node3&#45;&gt;Node6</title>
<path fill="none" stroke="midnightblue" d="M144.283,-112.324C153.836,-104.263 168.28,-92.0765 179.784,-82.3695"/>
<polygon fill="midnightblue" stroke="midnightblue" points="182.144,-84.9577 187.53,-75.8339 177.63,-79.6076 182.144,-84.9577"/>
</g>
<!-- Node7 -->
<g id="node7" class="node"><title>Node7</title>
<polygon fill="none" stroke="#bfbfbf" points="240,-56.5 240,-75.5 356,-75.5 356,-56.5 240,-56.5"/>
<text text-anchor="middle" x="298" y="-63.5" font-family="FreeSans" font-size="10.00">boost/filesystem.hpp</text>
</g>
<!-- Node3&#45;&gt;Node7 -->
<g id="edge7" class="edge"><title>Node3&#45;&gt;Node7</title>
<path fill="none" stroke="midnightblue" d="M154.11,-114.379C181.007,-105.522 229.145,-89.6719 262.285,-78.76"/>
<polygon fill="midnightblue" stroke="midnightblue" points="263.644,-81.9973 272.048,-75.5453 261.455,-75.3484 263.644,-81.9973"/>
</g>
<!-- Node8 -->
<g id="node8" class="node"><title>Node8</title>
<g id="a_node8"><a xlink:href="_m_r___types_8h.html" target="_top" xlink:title="MR_Types.h">
<polygon fill="none" stroke="black" points="374.5,-56.5 374.5,-75.5 445.5,-75.5 445.5,-56.5 374.5,-56.5"/>
<text text-anchor="middle" x="410" y="-63.5" font-family="FreeSans" font-size="10.00">MR_Types.h</text>
</a>
</g>
</g>
<!-- Node3&#45;&gt;Node8 -->
<g id="edge8" class="edge"><title>Node3&#45;&gt;Node8</title>
<path fill="none" stroke="midnightblue" d="M154.091,-117.121C192.67,-109.666 280.04,-92.745 364.168,-76.1566"/>
<polygon fill="midnightblue" stroke="midnightblue" points="365.009,-79.5583 374.142,-74.1884 363.653,-72.6907 365.009,-79.5583"/>
</g>
<!-- Node9 -->
<g id="node9" class="node"><title>Node9</title>
<polygon fill="none" stroke="#bfbfbf" points="378,-0.5 378,-19.5 442,-19.5 442,-0.5 378,-0.5"/>
<text text-anchor="middle" x="410" y="-7.5" font-family="FreeSans" font-size="10.00">inttypes.h</text>
</g>
<!-- Node8&#45;&gt;Node9 -->
<g id="edge9" class="edge"><title>Node8&#45;&gt;Node9</title>
<path fill="none" stroke="midnightblue" d="M410,-56.083C410,-49.0059 410,-38.8611 410,-29.9865"/>
<polygon fill="midnightblue" stroke="midnightblue" points="413.5,-29.751 410,-19.7511 406.5,-29.7511 413.5,-29.751"/>
</g>
</g>
</svg>
