<?xml version="1.0" encoding="UTF-8" standalone="no"?>
<!DOCTYPE svg PUBLIC "-//W3C//DTD SVG 1.1//EN"
 "http://www.w3.org/Graphics/SVG/1.1/DTD/svg11.dtd">
<!-- Generated by graphviz version 2.38.0 (20140413.2041)
 -->
<!-- Title: MainCharacterRenderer.h Pages: 1 -->
<svg width="431pt" height="140pt"
 viewBox="0.00 0.00 431.00 140.00" xmlns="http://www.w3.org/2000/svg" xmlns:xlink="http://www.w3.org/1999/xlink">
<g id="graph0" class="graph" transform="scale(1 1) rotate(0) translate(4 136)">
<title>MainCharacterRenderer.h</title>
<!-- Node1 -->
<g id="node1" class="node"><title>Node1</title>
<polygon fill="#bfbfbf" stroke="black" points="129.5,-112.5 129.5,-131.5 266.5,-131.5 266.5,-112.5 129.5,-112.5"/>
<text text-anchor="middle" x="198" y="-119.5" font-family="FreeSans" font-size="10.00">MainCharacterRenderer.h</text>
</g>
<!-- Node2 -->
<g id="node2" class="node"><title>Node2</title>
<g id="a_node2"><a xlink:href="_main_character_8cpp.html" target="_top" xlink:title="MainCharacter.cpp">
<polygon fill="none" stroke="black" points="-7.10543e-15,-56.5 -7.10543e-15,-75.5 106,-75.5 106,-56.5 -7.10543e-15,-56.5"/>
<text text-anchor="middle" x="53" y="-63.5" font-family="FreeSans" font-size="10.00">MainCharacter.cpp</text>
</a>
</g>
</g>
<!-- Node1&#45;&gt;Node2 -->
<g id="edge1" class="edge"><title>Node1&#45;&gt;Node2</title>
<path fill="none" stroke="midnightblue" d="M165.525,-108.906C138.264,-98.7536 100.008,-84.5063 75.8682,-75.5164"/>
<polygon fill="midnightblue" stroke="midnightblue" points="164.432,-112.233 175.024,-112.444 166.875,-105.674 164.432,-112.233"/>
</g>
<!-- Node3 -->
<g id="node3" class="node"><title>Node3</title>
<g id="a_node3"><a xlink:href="_main_character_renderer_8cpp.html" target="_top" xlink:title="MainCharacterRenderer.cpp">
<polygon fill="none" stroke="black" points="123.5,-56.5 123.5,-75.5 272.5,-75.5 272.5,-56.5 123.5,-56.5"/>
<text text-anchor="middle" x="198" y="-63.5" font-family="FreeSans" font-size="10.00">MainCharacterRenderer.cpp</text>
</a>
</g>
</g>
<!-- Node1&#45;&gt;Node3 -->
<g id="edge2" class="edge"><title>Node1&#45;&gt;Node3</title>
<path fill="none" stroke="midnightblue" d="M198,-101.805C198,-92.9102 198,-82.7798 198,-75.7511"/>
<polygon fill="midnightblue" stroke="midnightblue" points="194.5,-102.083 198,-112.083 201.5,-102.083 194.5,-102.083"/>
</g>
<!-- Node4 -->
<g id="node4" class="node"><title>Node4</title>
<g id="a_node4"><a xlink:href="_hover_render_8h.html" target="_top" xlink:title="HoverRender.h">
<polygon fill="none" stroke="black" points="291,-56.5 291,-75.5 377,-75.5 377,-56.5 291,-56.5"/>
<text text-anchor="middle" x="334" y="-63.5" font-family="FreeSans" font-size="10.00">HoverRender.h</text>
</a>
</g>
</g>
<!-- Node1&#45;&gt;Node4 -->
<g id="edge3" class="edge"><title>Node1&#45;&gt;Node4</title>
<path fill="none" stroke="midnightblue" d="M229.135,-108.638C254.657,-98.504 290.109,-84.4274 312.551,-75.5164"/>
<polygon fill="midnightblue" stroke="midnightblue" points="227.552,-105.5 219.55,-112.444 230.135,-112.006 227.552,-105.5"/>
</g>
<!-- Node5 -->
<g id="node5" class="node"><title>Node5</title>
<g id="a_node5"><a xlink:href="_hover_render_8cpp.html" target="_top" xlink:title="HoverRender.cpp">
<polygon fill="none" stroke="black" points="233,-0.5 233,-19.5 331,-19.5 331,-0.5 233,-0.5"/>
<text text-anchor="middle" x="282" y="-7.5" font-family="FreeSans" font-size="10.00">HoverRender.cpp</text>
</a>
</g>
</g>
<!-- Node4&#45;&gt;Node5 -->
<g id="edge4" class="edge"><title>Node4&#45;&gt;Node5</title>
<path fill="none" stroke="midnightblue" d="M318.321,-48.7175C309.155,-39.1997 297.947,-27.5608 290.427,-19.7511"/>
<polygon fill="midnightblue" stroke="midnightblue" points="315.956,-51.3075 325.413,-56.083 320.998,-46.452 315.956,-51.3075"/>
</g>
<!-- Node6 -->
<g id="node6" class="node"><title>Node6</title>
<g id="a_node6"><a xlink:href="_obj_fac1_8cpp.html" target="_top" xlink:title="ObjFac1.cpp">
<polygon fill="none" stroke="black" points="349,-0.5 349,-19.5 423,-19.5 423,-0.5 349,-0.5"/>
<text text-anchor="middle" x="386" y="-7.5" font-family="FreeSans" font-size="10.00">ObjFac1.cpp</text>
</a>
</g>
</g>
<!-- Node4&#45;&gt;Node6 -->
<g id="edge5" class="edge"><title>Node4&#45;&gt;Node6</title>
<path fill="none" stroke="midnightblue" d="M349.679,-48.7175C358.845,-39.1997 370.053,-27.5608 377.573,-19.7511"/>
<polygon fill="midnightblue" stroke="midnightblue" points="347.002,-46.452 342.587,-56.083 352.044,-51.3075 347.002,-46.452"/>
</g>
</g>
</svg>
