<?xml version="1.0" encoding="UTF-8" standalone="no"?>
<!DOCTYPE svg PUBLIC "-//W3C//DTD SVG 1.1//EN"
 "http://www.w3.org/Graphics/SVG/1.1/DTD/svg11.dtd">
<!-- Generated by graphviz version 2.26.3 (20100126.1600)
 -->
<!-- Title: MainCharacter.h Pages: 1 -->
<!--zoomable 378 -->
<svg id="main" version="1.1" xmlns="http://www.w3.org/2000/svg" xmlns:xlink="http://www.w3.org/1999/xlink" xml:space="preserve" onload="init(evt)">
<style type="text/css"><![CDATA[
.edge:hover path { stroke: red; }
.edge:hover polygon { stroke: red; fill: red; }
]]></style>
<script type="text/javascript"><![CDATA[
var edges = document.getElementsByTagName('g');
if (edges && edges.length) {
  for (var i=0;i<edges.length;i++) {
    if (edges[i].id.substr(0,4)=='edge') {
      edges[i].setAttribute('class','edge');
    }
  }
}
]]></script>
        <defs>
                <circle id="rim" cx="0" cy="0" r="7"/>
                <circle id="rim2" cx="0" cy="0" r="3.5"/>
                <g id="zoomPlus">
                        <use xlink:href="#rim" fill="#404040">
                                <set attributeName="fill" to="#808080" begin="zoomplus.mouseover" end="zoomplus.mouseout"/>
                        </use>
                        <path d="M-4,0h8M0,-4v8" fill="none" stroke="white" stroke-width="1.5" pointer-events="none"/>
                </g>
                <g id="zoomMin">
                        <use xlink:href="#rim" fill="#404040">
                                <set attributeName="fill" to="#808080" begin="zoomminus.mouseover" end="zoomminus.mouseout"/>
                        </use>
                        <path d="M-4,0h8" fill="none" stroke="white" stroke-width="1.5" pointer-events="none"/>
                </g>
                <g id="dirArrow">
                        <path fill="none" stroke="white" stroke-width="1.5" d="M0,-3.0v7 M-2.5,-0.5L0,-3.0L2.5,-0.5"/>
                </g>
               <g id="resetDef">
                       <use xlink:href="#rim2" fill="#404040">
                               <set attributeName="fill" to="#808080" begin="reset.mouseover" end="reset.mouseout"/>
                       </use>
               </g>
        </defs>

<script type="text/javascript">
var viewWidth = 984;
var viewHeight = 378;
var sectionId = 'dynsection-0';
</script>
<script xlink:href="svgpan.js"/>
<svg id="graph" class="graph">
<g id="viewport">
<title>MainCharacter.h</title>
<!-- Node1 -->
<g id="node1" class="node"><title>Node1</title>
<polygon fill="#bfbfbf" stroke="black" points="374.5,-349 374.5,-369 461.5,-369 461.5,-349 374.5,-349"/>
<text text-anchor="middle" x="418" y="-356" font-family="FreeSans" font-size="10.00">MainCharacter.h</text>
</g>
<!-- Node2 -->
<g id="node3" class="node"><title>Node2</title>
<a xlink:href="_color_8h.html" target="_top" xlink:title="../Display/Color.h">
<polygon fill="none" stroke="black" points="118.5,-175 118.5,-195 207.5,-195 207.5,-175 118.5,-175"/>
<text text-anchor="middle" x="163" y="-182" font-family="FreeSans" font-size="10.00">../Display/Color.h</text>
</a>
</g>
<!-- Node1&#45;&gt;Node2 -->
<g id="edge2" class="edge"><title>Node1&#45;&gt;Node2</title>
<path fill="none" stroke="midnightblue" d="M374.363,-351.328C344.064,-344.516 303.773,-332.392 273,-312 229.064,-282.885 192.348,-231.598 174.55,-203.945"/>
<polygon fill="midnightblue" stroke="midnightblue" points="177.35,-201.824 169.062,-195.224 171.426,-205.552 177.35,-201.824"/>
</g>
<!-- Node7 -->
<g id="node14" class="node"><title>Node7</title>
<a xlink:href="_maze_element_8h.html" target="_top" xlink:title="../Model/MazeElement.h">
<polygon fill="none" stroke="black" points="451.5,-291 451.5,-311 570.5,-311 570.5,-291 451.5,-291"/>
<text text-anchor="middle" x="511" y="-298" font-family="FreeSans" font-size="10.00">../Model/MazeElement.h</text>
</a>
</g>
<!-- Node1&#45;&gt;Node7 -->
<g id="edge14" class="edge"><title>Node1&#45;&gt;Node7</title>
<path fill="none" stroke="midnightblue" d="M434.199,-348.897C448.514,-339.97 469.614,-326.811 486.077,-316.543"/>
<polygon fill="midnightblue" stroke="midnightblue" points="488.041,-319.443 494.674,-311.182 484.337,-313.504 488.041,-319.443"/>
</g>
<!-- Node27 -->
<g id="node64" class="node"><title>Node27</title>
<a xlink:href="_physical_collision_8h.html" target="_top" xlink:title="../Model/PhysicalCollision.h">
<polygon fill="none" stroke="black" points="588,-291 588,-311 722,-311 722,-291 588,-291"/>
<text text-anchor="middle" x="655" y="-298" font-family="FreeSans" font-size="10.00">../Model/PhysicalCollision.h</text>
</a>
</g>
<!-- Node1&#45;&gt;Node27 -->
<g id="edge74" class="edge"><title>Node1&#45;&gt;Node27</title>
<path fill="none" stroke="midnightblue" d="M459.012,-348.963C499.327,-339.097 560.949,-324.017 604.312,-313.405"/>
<polygon fill="midnightblue" stroke="midnightblue" points="605.212,-316.788 614.094,-311.011 603.548,-309.988 605.212,-316.788"/>
</g>
<!-- Node28 -->
<g id="node68" class="node"><title>Node28</title>
<a xlink:href="_fast_fifo_8h.html" target="_top" xlink:title="../Util/FastFifo.h">
<polygon fill="none" stroke="black" points="282,-291 282,-311 368,-311 368,-291 282,-291"/>
<text text-anchor="middle" x="325" y="-298" font-family="FreeSans" font-size="10.00">../Util/FastFifo.h</text>
</a>
</g>
<!-- Node1&#45;&gt;Node28 -->
<g id="edge80" class="edge"><title>Node1&#45;&gt;Node28</title>
<path fill="none" stroke="midnightblue" d="M401.801,-348.897C387.486,-339.97 366.386,-326.811 349.923,-316.543"/>
<polygon fill="midnightblue" stroke="midnightblue" points="351.663,-313.504 341.326,-311.182 347.959,-319.443 351.663,-313.504"/>
</g>
<!-- Node3 -->
<g id="node5" class="node"><title>Node3</title>
<polygon fill="none" stroke="#bfbfbf" points="-0.5,-117 -0.5,-137 88.5,-137 88.5,-117 -0.5,-117"/>
<text text-anchor="middle" x="44" y="-124" font-family="FreeSans" font-size="10.00">boost/format.hpp</text>
</g>
<!-- Node2&#45;&gt;Node3 -->
<g id="edge4" class="edge"><title>Node2&#45;&gt;Node3</title>
<path fill="none" stroke="midnightblue" d="M142.272,-174.897C123.446,-165.722 95.4495,-152.076 74.1487,-141.694"/>
<polygon fill="midnightblue" stroke="midnightblue" points="75.4126,-138.417 64.89,-137.182 72.3456,-144.709 75.4126,-138.417"/>
</g>
<!-- Node4 -->
<g id="node7" class="node"><title>Node4</title>
<a xlink:href="_m_r___types_8h.html" target="_top" xlink:title="../Util/MR_Types.h">
<polygon fill="none" stroke="black" points="396,-59 396,-79 492,-79 492,-59 396,-59"/>
<text text-anchor="middle" x="444" y="-66" font-family="FreeSans" font-size="10.00">../Util/MR_Types.h</text>
</a>
</g>
<!-- Node2&#45;&gt;Node4 -->
<g id="edge6" class="edge"><title>Node2&#45;&gt;Node4</title>
<path fill="none" stroke="midnightblue" d="M171.033,-174.793C183.615,-159.538 209.498,-130.985 238,-116 284.291,-91.6624 342.914,-79.8555 385.775,-74.1706"/>
<polygon fill="midnightblue" stroke="midnightblue" points="386.278,-77.635 395.765,-72.9181 385.407,-70.6894 386.278,-77.635"/>
</g>
<!-- Node6 -->
<g id="node11" class="node"><title>Node6</title>
<a xlink:href="_sel_fmt_8h.html" target="_top" xlink:title="../Util/SelFmt.h">
<polygon fill="none" stroke="black" points="105.5,-117 105.5,-137 186.5,-137 186.5,-117 105.5,-117"/>
<text text-anchor="middle" x="146" y="-124" font-family="FreeSans" font-size="10.00">../Util/SelFmt.h</text>
</a>
</g>
<!-- Node2&#45;&gt;Node6 -->
<g id="edge10" class="edge"><title>Node2&#45;&gt;Node6</title>
<path fill="none" stroke="midnightblue" d="M160.039,-174.897C157.799,-167.257 154.652,-156.517 151.904,-147.143"/>
<polygon fill="midnightblue" stroke="midnightblue" points="155.213,-145.989 149.042,-137.378 148.496,-147.958 155.213,-145.989"/>
</g>
<!-- Node5 -->
<g id="node9" class="node"><title>Node5</title>
<polygon fill="none" stroke="#bfbfbf" points="415,-1 415,-21 473,-21 473,-1 415,-1"/>
<text text-anchor="middle" x="444" y="-8" font-family="FreeSans" font-size="10.00">inttypes.h</text>
</g>
<!-- Node4&#45;&gt;Node5 -->
<g id="edge8" class="edge"><title>Node4&#45;&gt;Node5</title>
<path fill="none" stroke="midnightblue" d="M444,-58.8972C444,-51.339 444,-40.7476 444,-31.4458"/>
<polygon fill="midnightblue" stroke="midnightblue" points="447.5,-31.3776 444,-21.3776 440.5,-31.3776 447.5,-31.3776"/>
</g>
<!-- Node6&#45;&gt;Node4 -->
<g id="edge12" class="edge"><title>Node6&#45;&gt;Node4</title>
<path fill="none" stroke="midnightblue" d="M186.681,-118.665C191.174,-117.759 195.683,-116.855 200,-116 263.541,-103.409 336.487,-89.4186 385.945,-80.0024"/>
<polygon fill="midnightblue" stroke="midnightblue" points="386.652,-83.4307 395.822,-78.1233 385.344,-76.554 386.652,-83.4307"/>
</g>
<!-- Node8 -->
<g id="node16" class="node"><title>Node8</title>
<a xlink:href="_dll_object_factory_8h.html" target="_top" xlink:title="../Util/DllObjectFactory.h">
<polygon fill="none" stroke="black" points="617,-233 617,-253 739,-253 739,-233 617,-233"/>
<text text-anchor="middle" x="678" y="-240" font-family="FreeSans" font-size="10.00">../Util/DllObjectFactory.h</text>
</a>
</g>
<!-- Node7&#45;&gt;Node8 -->
<g id="edge16" class="edge"><title>Node7&#45;&gt;Node8</title>
<path fill="none" stroke="midnightblue" d="M540.089,-290.897C567.544,-281.362 608.899,-266.999 639.162,-256.488"/>
<polygon fill="midnightblue" stroke="midnightblue" points="640.666,-259.671 648.964,-253.084 638.37,-253.059 640.666,-259.671"/>
</g>
<!-- Node18 -->
<g id="node40" class="node"><title>Node18</title>
<a xlink:href="_viewport3_d_8h.html" target="_top" xlink:title="../VideoServices/Viewport3D.h">
<polygon fill="none" stroke="black" points="377,-233 377,-253 525,-253 525,-233 377,-233"/>
<text text-anchor="middle" x="451" y="-240" font-family="FreeSans" font-size="10.00">../VideoServices/Viewport3D.h</text>
</a>
</g>
<!-- Node7&#45;&gt;Node18 -->
<g id="edge44" class="edge"><title>Node7&#45;&gt;Node18</title>
<path fill="none" stroke="midnightblue" d="M500.549,-290.897C491.88,-282.517 479.354,-270.409 469.066,-260.464"/>
<polygon fill="midnightblue" stroke="midnightblue" points="471.358,-257.811 461.735,-253.378 466.493,-262.844 471.358,-257.811"/>
</g>
<!-- Node25 -->
<g id="node58" class="node"><title>Node25</title>
<a xlink:href="_contact_effect_8h.html" target="_top" xlink:title="ContactEffect.h">
<polygon fill="none" stroke="black" points="756.5,-233 756.5,-253 839.5,-253 839.5,-233 756.5,-233"/>
<text text-anchor="middle" x="798" y="-240" font-family="FreeSans" font-size="10.00">ContactEffect.h</text>
</a>
</g>
<!-- Node7&#45;&gt;Node25 -->
<g id="edge66" class="edge"><title>Node7&#45;&gt;Node25</title>
<path fill="none" stroke="midnightblue" d="M563.31,-290.95C609.121,-282.075 677.758,-268.603 746.181,-254.355"/>
<polygon fill="midnightblue" stroke="midnightblue" points="747.199,-257.718 756.272,-252.248 745.768,-250.866 747.199,-257.718"/>
</g>
<!-- Node26 -->
<g id="node61" class="node"><title>Node26</title>
<a xlink:href="_shapes_8h.html" target="_top" xlink:title="Shapes.h">
<polygon fill="none" stroke="black" points="542.5,-233 542.5,-253 599.5,-253 599.5,-233 542.5,-233"/>
<text text-anchor="middle" x="571" y="-240" font-family="FreeSans" font-size="10.00">Shapes.h</text>
</a>
</g>
<!-- Node7&#45;&gt;Node26 -->
<g id="edge70" class="edge"><title>Node7&#45;&gt;Node26</title>
<path fill="none" stroke="midnightblue" d="M521.451,-290.897C530.12,-282.517 542.646,-270.409 552.934,-260.464"/>
<polygon fill="midnightblue" stroke="midnightblue" points="555.507,-262.844 560.265,-253.378 550.642,-257.811 555.507,-262.844"/>
</g>
<!-- Node8&#45;&gt;Node4 -->
<g id="edge42" class="edge"><title>Node8&#45;&gt;Node4</title>
<path fill="none" stroke="midnightblue" d="M676.875,-232.655C673.675,-208.422 662.263,-147.642 626,-116 607.559,-99.909 548.248,-86.539 502.29,-78.2254"/>
<polygon fill="midnightblue" stroke="midnightblue" points="502.867,-74.7733 492.411,-76.478 501.648,-81.6663 502.867,-74.7733"/>
</g>
<!-- Node9 -->
<g id="node18" class="node"><title>Node9</title>
<a xlink:href="_obj_stream_8h.html" target="_top" xlink:title="../Parcel/ObjStream.h">
<polygon fill="none" stroke="black" points="688.5,-175 688.5,-195 797.5,-195 797.5,-175 688.5,-175"/>
<text text-anchor="middle" x="743" y="-182" font-family="FreeSans" font-size="10.00">../Parcel/ObjStream.h</text>
</a>
</g>
<!-- Node8&#45;&gt;Node9 -->
<g id="edge18" class="edge"><title>Node8&#45;&gt;Node9</title>
<path fill="none" stroke="midnightblue" d="M689.322,-232.897C698.805,-224.435 712.549,-212.172 723.756,-202.172"/>
<polygon fill="midnightblue" stroke="midnightblue" points="726.239,-204.647 731.37,-195.378 721.578,-199.424 726.239,-204.647"/>
</g>
<!-- Node9&#45;&gt;Node4 -->
<g id="edge26" class="edge"><title>Node9&#45;&gt;Node4</title>
<path fill="none" stroke="midnightblue" d="M733.749,-174.793C719.324,-159.538 689.907,-130.985 659,-116 609.243,-91.8758 547.029,-80.0067 502.346,-74.2465"/>
<polygon fill="midnightblue" stroke="midnightblue" points="502.589,-70.7501 492.238,-73.0087 501.738,-77.6982 502.589,-70.7501"/>
</g>
<!-- Node10 -->
<g id="node20" class="node"><title>Node10</title>
<polygon fill="none" stroke="#bfbfbf" points="797.5,-59 797.5,-79 838.5,-79 838.5,-59 797.5,-59"/>
<text text-anchor="middle" x="818" y="-66" font-family="FreeSans" font-size="10.00">string</text>
</g>
<!-- Node9&#45;&gt;Node10 -->
<g id="edge20" class="edge"><title>Node9&#45;&gt;Node10</title>
<path fill="none" stroke="midnightblue" d="M753.285,-174.814C762.133,-165.699 774.876,-151.698 784,-138 794.485,-122.259 803.774,-102.816 809.983,-88.5859"/>
<polygon fill="midnightblue" stroke="midnightblue" points="813.25,-89.8453 813.931,-79.2724 806.805,-87.1127 813.25,-89.8453"/>
</g>
<!-- Node11 -->
<g id="node22" class="node"><title>Node11</title>
<a xlink:href="_exception_8h.html" target="_top" xlink:title="../Exception.h">
<polygon fill="none" stroke="black" points="831,-117 831,-137 905,-137 905,-117 831,-117"/>
<text text-anchor="middle" x="868" y="-124" font-family="FreeSans" font-size="10.00">../Exception.h</text>
</a>
</g>
<!-- Node9&#45;&gt;Node11 -->
<g id="edge22" class="edge"><title>Node9&#45;&gt;Node11</title>
<path fill="none" stroke="midnightblue" d="M764.773,-174.897C784.726,-165.639 814.487,-151.83 836.934,-141.415"/>
<polygon fill="midnightblue" stroke="midnightblue" points="838.459,-144.566 846.057,-137.182 835.513,-138.216 838.459,-144.566"/>
</g>
<!-- Node13 -->
<g id="node27" class="node"><title>Node13</title>
<a xlink:href="_o_s_8h.html" target="_top" xlink:title="../Util/OS.h">
<polygon fill="none" stroke="black" points="711,-117 711,-137 775,-137 775,-117 711,-117"/>
<text text-anchor="middle" x="743" y="-124" font-family="FreeSans" font-size="10.00">../Util/OS.h</text>
</a>
</g>
<!-- Node9&#45;&gt;Node13 -->
<g id="edge28" class="edge"><title>Node9&#45;&gt;Node13</title>
<path fill="none" stroke="midnightblue" d="M743,-174.897C743,-167.339 743,-156.748 743,-147.446"/>
<polygon fill="midnightblue" stroke="midnightblue" points="746.5,-147.378 743,-137.378 739.5,-147.378 746.5,-147.378"/>
</g>
<!-- Node12 -->
<g id="node24" class="node"><title>Node12</title>
<polygon fill="none" stroke="#bfbfbf" points="918,-59 918,-79 976,-79 976,-59 918,-59"/>
<text text-anchor="middle" x="947" y="-66" font-family="FreeSans" font-size="10.00">exception</text>
</g>
<!-- Node11&#45;&gt;Node12 -->
<g id="edge24" class="edge"><title>Node11&#45;&gt;Node12</title>
<path fill="none" stroke="midnightblue" d="M881.761,-116.897C893.695,-108.135 911.182,-95.2965 925.048,-85.1164"/>
<polygon fill="midnightblue" stroke="midnightblue" points="927.142,-87.921 933.132,-79.1817 923,-82.2785 927.142,-87.921"/>
</g>
<!-- Node13&#45;&gt;Node4 -->
<g id="edge40" class="edge"><title>Node13&#45;&gt;Node4</title>
<path fill="none" stroke="midnightblue" d="M710.877,-119.097C706.229,-118.018 701.498,-116.955 697,-116 630.424,-101.866 553.49,-87.9094 502.102,-78.9248"/>
<polygon fill="midnightblue" stroke="midnightblue" points="502.628,-75.4638 492.176,-77.1956 501.427,-82.3599 502.628,-75.4638"/>
</g>
<!-- Node13&#45;&gt;Node10 -->
<g id="edge34" class="edge"><title>Node13&#45;&gt;Node10</title>
<path fill="none" stroke="midnightblue" d="M756.064,-116.897C767.287,-108.218 783.683,-95.5384 796.786,-85.4053"/>
<polygon fill="midnightblue" stroke="midnightblue" points="799.065,-88.0679 804.834,-79.1817 794.782,-82.5305 799.065,-88.0679"/>
</g>
<!-- Node14 -->
<g id="node29" class="node"><title>Node14</title>
<polygon fill="none" stroke="#bfbfbf" points="568,-59 568,-79 610,-79 610,-59 568,-59"/>
<text text-anchor="middle" x="589" y="-66" font-family="FreeSans" font-size="10.00">locale</text>
</g>
<!-- Node13&#45;&gt;Node14 -->
<g id="edge30" class="edge"><title>Node13&#45;&gt;Node14</title>
<path fill="none" stroke="midnightblue" d="M716.175,-116.897C689.195,-106.736 647.657,-91.0916 619.454,-80.4697"/>
<polygon fill="midnightblue" stroke="midnightblue" points="620.672,-77.1885 610.08,-76.9393 618.205,-83.7393 620.672,-77.1885"/>
</g>
<!-- Node15 -->
<g id="node31" class="node"><title>Node15</title>
<polygon fill="none" stroke="#bfbfbf" points="628,-59 628,-79 658,-79 658,-59 628,-59"/>
<text text-anchor="middle" x="643" y="-66" font-family="FreeSans" font-size="10.00">set</text>
</g>
<!-- Node13&#45;&gt;Node15 -->
<g id="edge32" class="edge"><title>Node13&#45;&gt;Node15</title>
<path fill="none" stroke="midnightblue" d="M725.581,-116.897C709.38,-107.5 685.094,-93.4145 667.048,-82.9479"/>
<polygon fill="midnightblue" stroke="midnightblue" points="668.662,-79.838 658.256,-77.8484 665.15,-85.8932 668.662,-79.838"/>
</g>
<!-- Node16 -->
<g id="node34" class="node"><title>Node16</title>
<polygon fill="none" stroke="#bfbfbf" points="856,-59 856,-79 900,-79 900,-59 856,-59"/>
<text text-anchor="middle" x="878" y="-66" font-family="FreeSans" font-size="10.00">vector</text>
</g>
<!-- Node13&#45;&gt;Node16 -->
<g id="edge36" class="edge"><title>Node13&#45;&gt;Node16</title>
<path fill="none" stroke="midnightblue" d="M766.515,-116.897C788.657,-107.385 821.982,-93.0671 846.431,-82.5632"/>
<polygon fill="midnightblue" stroke="midnightblue" points="847.844,-85.7652 855.651,-78.6019 845.081,-79.3336 847.844,-85.7652"/>
</g>
<!-- Node17 -->
<g id="node36" class="node"><title>Node17</title>
<polygon fill="none" stroke="#bfbfbf" points="675.5,-59 675.5,-79 780.5,-79 780.5,-59 675.5,-59"/>
<text text-anchor="middle" x="728" y="-66" font-family="FreeSans" font-size="10.00">boost/filesystem.hpp</text>
</g>
<!-- Node13&#45;&gt;Node17 -->
<g id="edge38" class="edge"><title>Node13&#45;&gt;Node17</title>
<path fill="none" stroke="midnightblue" d="M740.387,-116.897C738.411,-109.257 735.634,-98.517 733.209,-89.1429"/>
<polygon fill="midnightblue" stroke="midnightblue" points="736.576,-88.1827 730.684,-79.3776 729.799,-89.9354 736.576,-88.1827"/>
</g>
<!-- Node19 -->
<g id="node42" class="node"><title>Node19</title>
<a xlink:href="_viewport2_d_8h.html" target="_top" xlink:title="Viewport2D.h">
<polygon fill="none" stroke="black" points="365,-175 365,-195 439,-195 439,-175 365,-175"/>
<text text-anchor="middle" x="402" y="-182" font-family="FreeSans" font-size="10.00">Viewport2D.h</text>
</a>
</g>
<!-- Node18&#45;&gt;Node19 -->
<g id="edge46" class="edge"><title>Node18&#45;&gt;Node19</title>
<path fill="none" stroke="midnightblue" d="M442.465,-232.897C435.524,-224.682 425.556,-212.883 417.25,-203.051"/>
<polygon fill="midnightblue" stroke="midnightblue" points="419.894,-200.758 410.767,-195.378 414.547,-205.275 419.894,-200.758"/>
</g>
<!-- Node20 -->
<g id="node45" class="node"><title>Node20</title>
<a xlink:href="_color_palette_8h.html" target="_top" xlink:title="ColorPalette.h">
<polygon fill="none" stroke="black" points="270.5,-175 270.5,-195 347.5,-195 347.5,-175 270.5,-175"/>
<text text-anchor="middle" x="309" y="-182" font-family="FreeSans" font-size="10.00">ColorPalette.h</text>
</a>
</g>
<!-- Node18&#45;&gt;Node20 -->
<g id="edge50" class="edge"><title>Node18&#45;&gt;Node20</title>
<path fill="none" stroke="midnightblue" d="M426.265,-232.897C403.296,-223.515 368.883,-209.459 343.271,-198.998"/>
<polygon fill="midnightblue" stroke="midnightblue" points="344.509,-195.723 333.928,-195.182 341.862,-202.203 344.509,-195.723"/>
</g>
<!-- Node22 -->
<g id="node50" class="node"><title>Node22</title>
<a xlink:href="_bitmap_8h.html" target="_top" xlink:title="Bitmap.h">
<polygon fill="none" stroke="black" points="456.5,-175 456.5,-195 511.5,-195 511.5,-175 456.5,-175"/>
<text text-anchor="middle" x="484" y="-182" font-family="FreeSans" font-size="10.00">Bitmap.h</text>
</a>
</g>
<!-- Node18&#45;&gt;Node22 -->
<g id="edge56" class="edge"><title>Node18&#45;&gt;Node22</title>
<path fill="none" stroke="midnightblue" d="M456.748,-232.897C461.235,-225.01 467.602,-213.821 473.053,-204.24"/>
<polygon fill="midnightblue" stroke="midnightblue" points="476.192,-205.8 478.096,-195.378 470.108,-202.338 476.192,-205.8"/>
</g>
<!-- Node23 -->
<g id="node53" class="node"><title>Node23</title>
<a xlink:href="_patch_8h.html" target="_top" xlink:title="Patch.h">
<polygon fill="none" stroke="black" points="529,-175 529,-195 579,-195 579,-175 529,-175"/>
<text text-anchor="middle" x="554" y="-182" font-family="FreeSans" font-size="10.00">Patch.h</text>
</a>
</g>
<!-- Node18&#45;&gt;Node23 -->
<g id="edge60" class="edge"><title>Node18&#45;&gt;Node23</title>
<path fill="none" stroke="midnightblue" d="M468.941,-232.897C485.015,-223.846 508.815,-210.444 527.154,-200.117"/>
<polygon fill="midnightblue" stroke="midnightblue" points="528.923,-203.138 535.919,-195.182 525.488,-197.039 528.923,-203.138"/>
</g>
<!-- Node19&#45;&gt;Node4 -->
<g id="edge48" class="edge"><title>Node19&#45;&gt;Node4</title>
<path fill="none" stroke="midnightblue" d="M405.727,-174.706C412.719,-155.396 427.906,-113.451 436.905,-88.5955"/>
<polygon fill="midnightblue" stroke="midnightblue" points="440.228,-89.6998 440.341,-79.1055 433.646,-87.3166 440.228,-89.6998"/>
</g>
<!-- Node20&#45;&gt;Node4 -->
<g id="edge54" class="edge"><title>Node20&#45;&gt;Node4</title>
<path fill="none" stroke="midnightblue" d="M307.33,-174.867C305.515,-160.219 304.467,-133.021 318,-116 334.538,-95.1998 361.277,-83.6046 385.877,-77.141"/>
<polygon fill="midnightblue" stroke="midnightblue" points="386.977,-80.4769 395.891,-74.751 385.352,-73.6682 386.977,-80.4769"/>
</g>
<!-- Node21 -->
<g id="node47" class="node"><title>Node21</title>
<polygon fill="none" stroke="#bfbfbf" points="326.5,-117 326.5,-137 397.5,-137 397.5,-117 326.5,-117"/>
<text text-anchor="middle" x="362" y="-124" font-family="FreeSans" font-size="10.00">SDL2/SDL.h</text>
</g>
<!-- Node20&#45;&gt;Node21 -->
<g id="edge52" class="edge"><title>Node20&#45;&gt;Node21</title>
<path fill="none" stroke="midnightblue" d="M318.232,-174.897C325.739,-166.682 336.521,-154.883 345.505,-145.051"/>
<polygon fill="midnightblue" stroke="midnightblue" points="348.355,-147.121 352.517,-137.378 343.188,-142.399 348.355,-147.121"/>
</g>
<!-- Node22&#45;&gt;Node4 -->
<g id="edge58" class="edge"><title>Node22&#45;&gt;Node4</title>
<path fill="none" stroke="midnightblue" d="M480.45,-174.706C473.792,-155.396 459.328,-113.451 450.757,-88.5955"/>
<polygon fill="midnightblue" stroke="midnightblue" points="454.053,-87.4183 447.485,-79.1055 447.436,-89.7003 454.053,-87.4183"/>
</g>
<!-- Node24 -->
<g id="node55" class="node"><title>Node24</title>
<a xlink:href="_world_coordinates_8h.html" target="_top" xlink:title="../Util/WorldCoordinates.h">
<polygon fill="none" stroke="black" points="491,-117 491,-137 617,-137 617,-117 491,-117"/>
<text text-anchor="middle" x="554" y="-124" font-family="FreeSans" font-size="10.00">../Util/WorldCoordinates.h</text>
</a>
</g>
<!-- Node23&#45;&gt;Node24 -->
<g id="edge62" class="edge"><title>Node23&#45;&gt;Node24</title>
<path fill="none" stroke="midnightblue" d="M554,-174.897C554,-167.339 554,-156.748 554,-147.446"/>
<polygon fill="midnightblue" stroke="midnightblue" points="557.5,-147.378 554,-137.378 550.5,-147.378 557.5,-147.378"/>
</g>
<!-- Node24&#45;&gt;Node4 -->
<g id="edge64" class="edge"><title>Node24&#45;&gt;Node4</title>
<path fill="none" stroke="midnightblue" d="M534.839,-116.897C517.595,-107.804 492.024,-94.3218 472.402,-83.9757"/>
<polygon fill="midnightblue" stroke="midnightblue" points="473.788,-80.7498 463.31,-79.1817 470.523,-86.9418 473.788,-80.7498"/>
</g>
<!-- Node25&#45;&gt;Node16 -->
<g id="edge68" class="edge"><title>Node25&#45;&gt;Node16</title>
<path fill="none" stroke="midnightblue" d="M816.901,-232.816C844.329,-216.822 894.061,-182.942 914,-138 921.97,-120.036 909.262,-100.21 896.8,-86.4379"/>
<polygon fill="midnightblue" stroke="midnightblue" points="899.131,-83.8151 889.649,-79.0883 894.114,-88.6965 899.131,-83.8151"/>
</g>
<!-- Node26&#45;&gt;Node24 -->
<g id="edge72" class="edge"><title>Node26&#45;&gt;Node24</title>
<path fill="none" stroke="midnightblue" d="M577.151,-232.583C584.383,-218.96 594.613,-194.423 588,-174 584.546,-163.333 577.667,-153.056 570.994,-144.846"/>
<polygon fill="midnightblue" stroke="midnightblue" points="573.47,-142.359 564.267,-137.109 568.187,-146.952 573.47,-142.359"/>
</g>
<!-- Node27&#45;&gt;Node25 -->
<g id="edge76" class="edge"><title>Node27&#45;&gt;Node25</title>
<path fill="none" stroke="midnightblue" d="M679.909,-290.897C703.04,-281.515 737.695,-267.459 763.488,-256.998"/>
<polygon fill="midnightblue" stroke="midnightblue" points="764.946,-260.184 772.897,-253.182 762.315,-253.697 764.946,-260.184"/>
</g>
<!-- Node27&#45;&gt;Node26 -->
<g id="edge78" class="edge"><title>Node27&#45;&gt;Node26</title>
<path fill="none" stroke="midnightblue" d="M640.368,-290.897C627.678,-282.135 609.085,-269.297 594.341,-259.116"/>
<polygon fill="midnightblue" stroke="midnightblue" points="595.964,-255.983 585.746,-253.182 591.986,-261.744 595.964,-255.983"/>
</g>
<!-- Node28&#45;&gt;Node4 -->
<g id="edge82" class="edge"><title>Node28&#45;&gt;Node4</title>
<path fill="none" stroke="midnightblue" d="M313.789,-290.904C291.959,-269.956 247.129,-219.891 262,-174 271.811,-143.723 278.358,-134.853 304,-116 327.995,-98.3587 359.039,-87.0501 385.795,-79.9594"/>
<polygon fill="midnightblue" stroke="midnightblue" points="386.968,-83.2734 395.815,-77.4439 385.264,-76.484 386.968,-83.2734"/>
</g>
</g>
</svg>
        <g id="navigator" transform="translate(0 0)" fill="#404254">
                <rect fill="#f2f5e9" fill-opacity="0.5" stroke="#606060" stroke-width=".5" x="0" y="0" width="60" height="60"/>
                <use id="zoomplus" xlink:href="#zoomPlus" x="17" y="9" onmousedown="handleZoom(evt,'in')"/>
                <use id="zoomminus" xlink:href="#zoomMin" x="42" y="9" onmousedown="handleZoom(evt,'out')"/>
                <use id="reset" xlink:href="#resetDef" x="30" y="36" onmousedown="handleReset()"/>
                <g id="arrowUp" xlink:href="#dirArrow" transform="translate(30 24)" onmousedown="handlePan(0,-1)">
                  <use xlink:href="#rim" fill="#404040">
                        <set attributeName="fill" to="#808080" begin="arrowUp.mouseover" end="arrowUp.mouseout"/>
                  </use>
                  <path fill="none" stroke="white" stroke-width="1.5" d="M0,-3.0v7 M-2.5,-0.5L0,-3.0L2.5,-0.5"/>
                </g>
                <g id="arrowRight" xlink:href="#dirArrow" transform="rotate(90) translate(36 -43)" onmousedown="handlePan(1,0)">
                  <use xlink:href="#rim" fill="#404040">
                        <set attributeName="fill" to="#808080" begin="arrowRight.mouseover" end="arrowRight.mouseout"/>
                  </use>
                  <path fill="none" stroke="white" stroke-width="1.5" d="M0,-3.0v7 M-2.5,-0.5L0,-3.0L2.5,-0.5"/>
                </g>
                <g id="arrowDown" xlink:href="#dirArrow" transform="rotate(180) translate(-30 -48)" onmousedown="handlePan(0,1)">
                  <use xlink:href="#rim" fill="#404040">
                        <set attributeName="fill" to="#808080" begin="arrowDown.mouseover" end="arrowDown.mouseout"/>
                  </use>
                  <path fill="none" stroke="white" stroke-width="1.5" d="M0,-3.0v7 M-2.5,-0.5L0,-3.0L2.5,-0.5"/>
                </g>
                <g id="arrowLeft" xlink:href="#dirArrow" transform="rotate(270) translate(-36 17)" onmousedown="handlePan(-1,0)">
                  <use xlink:href="#rim" fill="#404040">
                        <set attributeName="fill" to="#808080" begin="arrowLeft.mouseover" end="arrowLeft.mouseout"/>
                  </use>
                  <path fill="none" stroke="white" stroke-width="1.5" d="M0,-3.0v7 M-2.5,-0.5L0,-3.0L2.5,-0.5"/>
                </g>
        </g>
        <svg viewBox="0 0 15 15" width="100%" height="30px" preserveAspectRatio="xMaxYMin meet">
         <g id="arrow_out" transform="scale(0.3 0.3)">
          <a xlink:href="_main_character_8h__incl_org.svg" target="_base">
           <rect id="button" ry="5" rx="5" y="6" x="6" height="38" width="38"
                fill="#f2f5e9" fill-opacity="0.5" stroke="#606060" stroke-width="1.0"/>
           <path id="arrow"
             d="M 11.500037,31.436501 C 11.940474,20.09759 22.043105,11.32322 32.158766,21.979434 L 37.068811,17.246167 C 37.068811,17.246167 37.088388,32 37.088388,32 L 22.160133,31.978069 C 22.160133,31.978069 26.997745,27.140456 26.997745,27.140456 C 18.528582,18.264221 13.291696,25.230495 11.500037,31.436501 z"
             style="fill:#404040;"/>
          </a>
         </g>
        </svg>
</svg>
