<?xml version="1.0" encoding="UTF-8" standalone="no"?>
<!DOCTYPE svg PUBLIC "-//W3C//DTD SVG 1.1//EN"
 "http://www.w3.org/Graphics/SVG/1.1/DTD/svg11.dtd">
<!-- Generated by graphviz version 2.26.3 (20100126.1600)
 -->
<!-- Title: MainCharacter.h Pages: 1 -->
<svg width="802pt" height="378pt"
 viewBox="0.00 0.00 802.00 378.00" xmlns="http://www.w3.org/2000/svg" xmlns:xlink="http://www.w3.org/1999/xlink">
<g id="graph1" class="graph" transform="scale(1 1) rotate(0) translate(4 374)">
<title>MainCharacter.h</title>
<!-- Node1 -->
<g id="node1" class="node"><title>Node1</title>
<polygon fill="#bfbfbf" stroke="black" points="465.5,-349 465.5,-369 552.5,-369 552.5,-349 465.5,-349"/>
<text text-anchor="middle" x="509" y="-356" font-family="FreeSans" font-size="10.00">MainCharacter.h</text>
</g>
<!-- Node2 -->
<g id="node3" class="node"><title>Node2</title>
<a xlink:href="_color_8h.html" target="_top" xlink:title="../Display/Color.h">
<polygon fill="none" stroke="black" points="624.5,-175 624.5,-195 713.5,-195 713.5,-175 624.5,-175"/>
<text text-anchor="middle" x="669" y="-182" font-family="FreeSans" font-size="10.00">../Display/Color.h</text>
</a>
</g>
<!-- Node1&#45;&gt;Node2 -->
<g id="edge2" class="edge"><title>Node1&#45;&gt;Node2</title>
<path fill="none" stroke="midnightblue" d="M552.634,-350.625C576.845,-343.916 605.845,-332.166 625,-312 653.531,-281.963 663.651,-232.506 667.174,-205.012"/>
<polygon fill="midnightblue" stroke="midnightblue" points="670.66,-205.332 668.286,-195.007 663.703,-204.559 670.66,-205.332"/>
</g>
<!-- Node7 -->
<g id="node14" class="node"><title>Node7</title>
<a xlink:href="_maze_element_8h.html" target="_top" xlink:title="../Model/MazeElement.h">
<polygon fill="none" stroke="black" points="241.5,-291 241.5,-311 360.5,-311 360.5,-291 241.5,-291"/>
<text text-anchor="middle" x="301" y="-298" font-family="FreeSans" font-size="10.00">../Model/MazeElement.h</text>
</a>
</g>
<!-- Node1&#45;&gt;Node7 -->
<g id="edge14" class="edge"><title>Node1&#45;&gt;Node7</title>
<path fill="none" stroke="midnightblue" d="M472.769,-348.897C437.831,-339.155 384.818,-324.372 346.934,-313.809"/>
<polygon fill="midnightblue" stroke="midnightblue" points="347.737,-310.399 337.164,-311.084 345.856,-317.142 347.737,-310.399"/>
</g>
<!-- Node19 -->
<g id="node44" class="node"><title>Node19</title>
<a xlink:href="_physical_collision_8h.html" target="_top" xlink:title="../Model/PhysicalCollision.h">
<polygon fill="none" stroke="black" points="378,-291 378,-311 512,-311 512,-291 378,-291"/>
<text text-anchor="middle" x="445" y="-298" font-family="FreeSans" font-size="10.00">../Model/PhysicalCollision.h</text>
</a>
</g>
<!-- Node1&#45;&gt;Node19 -->
<g id="edge50" class="edge"><title>Node1&#45;&gt;Node19</title>
<path fill="none" stroke="midnightblue" d="M497.852,-348.897C488.515,-340.435 474.982,-328.172 463.948,-318.172"/>
<polygon fill="midnightblue" stroke="midnightblue" points="466.211,-315.499 456.451,-311.378 461.511,-320.686 466.211,-315.499"/>
</g>
<!-- Node20 -->
<g id="node48" class="node"><title>Node20</title>
<a xlink:href="_fast_fifo_8h.html" target="_top" xlink:title="../Util/FastFifo.h">
<polygon fill="none" stroke="black" points="530,-291 530,-311 616,-311 616,-291 530,-291"/>
<text text-anchor="middle" x="573" y="-298" font-family="FreeSans" font-size="10.00">../Util/FastFifo.h</text>
</a>
</g>
<!-- Node1&#45;&gt;Node20 -->
<g id="edge56" class="edge"><title>Node1&#45;&gt;Node20</title>
<path fill="none" stroke="midnightblue" d="M520.148,-348.897C529.485,-340.435 543.018,-328.172 554.052,-318.172"/>
<polygon fill="midnightblue" stroke="midnightblue" points="556.489,-320.686 561.549,-311.378 551.789,-315.499 556.489,-320.686"/>
</g>
<!-- Node3 -->
<g id="node5" class="node"><title>Node3</title>
<polygon fill="none" stroke="#bfbfbf" points="705.5,-117 705.5,-137 794.5,-137 794.5,-117 705.5,-117"/>
<text text-anchor="middle" x="750" y="-124" font-family="FreeSans" font-size="10.00">boost/format.hpp</text>
</g>
<!-- Node2&#45;&gt;Node3 -->
<g id="edge4" class="edge"><title>Node2&#45;&gt;Node3</title>
<path fill="none" stroke="midnightblue" d="M683.109,-174.897C695.346,-166.135 713.276,-153.297 727.493,-143.116"/>
<polygon fill="midnightblue" stroke="midnightblue" points="729.688,-145.849 735.781,-137.182 725.613,-140.158 729.688,-145.849"/>
</g>
<!-- Node4 -->
<g id="node7" class="node"><title>Node4</title>
<a xlink:href="_m_r___types_8h.html" target="_top" xlink:title="../Util/MR_Types.h">
<polygon fill="none" stroke="black" points="312,-59 312,-79 408,-79 408,-59 312,-59"/>
<text text-anchor="middle" x="360" y="-66" font-family="FreeSans" font-size="10.00">../Util/MR_Types.h</text>
</a>
</g>
<!-- Node2&#45;&gt;Node4 -->
<g id="edge6" class="edge"><title>Node2&#45;&gt;Node4</title>
<path fill="none" stroke="midnightblue" d="M670.858,-174.965C673.006,-159.934 674.484,-131.671 659,-116 642.314,-99.1131 500.192,-82.647 418.041,-74.4224"/>
<polygon fill="midnightblue" stroke="midnightblue" points="418.385,-70.9394 408.088,-73.4369 417.695,-77.9053 418.385,-70.9394"/>
</g>
<!-- Node6 -->
<g id="node11" class="node"><title>Node6</title>
<a xlink:href="_sel_fmt_8h.html" target="_top" xlink:title="../Util/SelFmt.h">
<polygon fill="none" stroke="black" points="569.5,-117 569.5,-137 650.5,-137 650.5,-117 569.5,-117"/>
<text text-anchor="middle" x="610" y="-124" font-family="FreeSans" font-size="10.00">../Util/SelFmt.h</text>
</a>
</g>
<!-- Node2&#45;&gt;Node6 -->
<g id="edge10" class="edge"><title>Node2&#45;&gt;Node6</title>
<path fill="none" stroke="midnightblue" d="M658.723,-174.897C650.199,-166.517 637.882,-154.409 627.765,-144.464"/>
<polygon fill="midnightblue" stroke="midnightblue" points="630.141,-141.892 620.557,-137.378 625.234,-146.884 630.141,-141.892"/>
</g>
<!-- Node5 -->
<g id="node9" class="node"><title>Node5</title>
<polygon fill="none" stroke="#bfbfbf" points="331,-1 331,-21 389,-21 389,-1 331,-1"/>
<text text-anchor="middle" x="360" y="-8" font-family="FreeSans" font-size="10.00">inttypes.h</text>
</g>
<!-- Node4&#45;&gt;Node5 -->
<g id="edge8" class="edge"><title>Node4&#45;&gt;Node5</title>
<path fill="none" stroke="midnightblue" d="M360,-58.8972C360,-51.339 360,-40.7476 360,-31.4458"/>
<polygon fill="midnightblue" stroke="midnightblue" points="363.5,-31.3776 360,-21.3776 356.5,-31.3776 363.5,-31.3776"/>
</g>
<!-- Node6&#45;&gt;Node4 -->
<g id="edge12" class="edge"><title>Node6&#45;&gt;Node4</title>
<path fill="none" stroke="midnightblue" d="M569.277,-117.552C526.739,-107.683 459.829,-92.1602 413.153,-81.3316"/>
<polygon fill="midnightblue" stroke="midnightblue" points="413.756,-77.8784 403.223,-79.0278 412.174,-84.6973 413.756,-77.8784"/>
</g>
<!-- Node8 -->
<g id="node16" class="node"><title>Node8</title>
<a xlink:href="_shapes_8h.html" target="_top" xlink:title="Shapes.h">
<polygon fill="none" stroke="black" points="370.5,-233 370.5,-253 427.5,-253 427.5,-233 370.5,-233"/>
<text text-anchor="middle" x="399" y="-240" font-family="FreeSans" font-size="10.00">Shapes.h</text>
</a>
</g>
<!-- Node7&#45;&gt;Node8 -->
<g id="edge16" class="edge"><title>Node7&#45;&gt;Node8</title>
<path fill="none" stroke="midnightblue" d="M318.07,-290.897C333.154,-281.97 355.389,-268.811 372.738,-258.543"/>
<polygon fill="midnightblue" stroke="midnightblue" points="374.973,-261.287 381.797,-253.182 371.408,-255.263 374.973,-261.287"/>
</g>
<!-- Node10 -->
<g id="node21" class="node"><title>Node10</title>
<a xlink:href="_contact_effect_8h.html" target="_top" xlink:title="ContactEffect.h">
<polygon fill="none" stroke="black" points="444.5,-233 444.5,-253 527.5,-253 527.5,-233 444.5,-233"/>
<text text-anchor="middle" x="486" y="-240" font-family="FreeSans" font-size="10.00">ContactEffect.h</text>
</a>
</g>
<!-- Node7&#45;&gt;Node10 -->
<g id="edge22" class="edge"><title>Node7&#45;&gt;Node10</title>
<path fill="none" stroke="midnightblue" d="M333.225,-290.897C364.035,-281.238 410.649,-266.624 444.282,-256.079"/>
<polygon fill="midnightblue" stroke="midnightblue" points="445.34,-259.416 453.835,-253.084 443.246,-252.736 445.34,-259.416"/>
</g>
<!-- Node12 -->
<g id="node25" class="node"><title>Node12</title>
<a xlink:href="_dll_object_factory_8h.html" target="_top" xlink:title="../Util/DllObjectFactory.h">
<polygon fill="none" stroke="black" points="231,-233 231,-253 353,-253 353,-233 231,-233"/>
<text text-anchor="middle" x="292" y="-240" font-family="FreeSans" font-size="10.00">../Util/DllObjectFactory.h</text>
</a>
</g>
<!-- Node7&#45;&gt;Node12 -->
<g id="edge26" class="edge"><title>Node7&#45;&gt;Node12</title>
<path fill="none" stroke="midnightblue" d="M299.432,-290.897C298.26,-283.339 296.616,-272.748 295.173,-263.446"/>
<polygon fill="midnightblue" stroke="midnightblue" points="298.602,-262.723 293.61,-253.378 291.685,-263.796 298.602,-262.723"/>
</g>
<!-- Node13 -->
<g id="node28" class="node"><title>Node13</title>
<a xlink:href="_viewport3_d_8h.html" target="_top" xlink:title="../VideoServices/Viewport3D.h">
<polygon fill="none" stroke="black" points="65,-233 65,-253 213,-253 213,-233 65,-233"/>
<text text-anchor="middle" x="139" y="-240" font-family="FreeSans" font-size="10.00">../VideoServices/Viewport3D.h</text>
</a>
</g>
<!-- Node7&#45;&gt;Node13 -->
<g id="edge30" class="edge"><title>Node7&#45;&gt;Node13</title>
<path fill="none" stroke="midnightblue" d="M272.782,-290.897C246.149,-281.362 206.032,-266.999 176.675,-256.488"/>
<polygon fill="midnightblue" stroke="midnightblue" points="177.761,-253.16 167.166,-253.084 175.401,-259.75 177.761,-253.16"/>
</g>
<!-- Node9 -->
<g id="node18" class="node"><title>Node9</title>
<a xlink:href="_world_coordinates_8h.html" target="_top" xlink:title="../Util/WorldCoordinates.h">
<polygon fill="none" stroke="black" points="252,-117 252,-137 378,-137 378,-117 252,-117"/>
<text text-anchor="middle" x="315" y="-124" font-family="FreeSans" font-size="10.00">../Util/WorldCoordinates.h</text>
</a>
</g>
<!-- Node8&#45;&gt;Node9 -->
<g id="edge18" class="edge"><title>Node8&#45;&gt;Node9</title>
<path fill="none" stroke="midnightblue" d="M391.546,-232.706C377.313,-213.051 346.098,-169.945 328.238,-145.281"/>
<polygon fill="midnightblue" stroke="midnightblue" points="331.018,-143.152 322.318,-137.106 325.348,-147.258 331.018,-143.152"/>
</g>
<!-- Node9&#45;&gt;Node4 -->
<g id="edge20" class="edge"><title>Node9&#45;&gt;Node4</title>
<path fill="none" stroke="midnightblue" d="M322.838,-116.897C329.149,-108.764 338.184,-97.1183 345.765,-87.3468"/>
<polygon fill="midnightblue" stroke="midnightblue" points="348.584,-89.424 351.948,-79.3776 343.053,-85.133 348.584,-89.424"/>
</g>
<!-- Node11 -->
<g id="node23" class="node"><title>Node11</title>
<polygon fill="none" stroke="#bfbfbf" points="468,-175 468,-195 512,-195 512,-175 468,-175"/>
<text text-anchor="middle" x="490" y="-182" font-family="FreeSans" font-size="10.00">vector</text>
</g>
<!-- Node10&#45;&gt;Node11 -->
<g id="edge24" class="edge"><title>Node10&#45;&gt;Node11</title>
<path fill="none" stroke="midnightblue" d="M486.697,-232.897C487.218,-225.339 487.948,-214.748 488.59,-205.446"/>
<polygon fill="midnightblue" stroke="midnightblue" points="492.088,-205.595 489.284,-195.378 485.104,-205.113 492.088,-205.595"/>
</g>
<!-- Node12&#45;&gt;Node4 -->
<g id="edge28" class="edge"><title>Node12&#45;&gt;Node4</title>
<path fill="none" stroke="midnightblue" d="M306.458,-232.771C328.776,-215.986 370.739,-180.209 387,-138 393.601,-120.867 384.447,-101.389 375.056,-87.5073"/>
<polygon fill="midnightblue" stroke="midnightblue" points="377.751,-85.2648 369.013,-79.2741 372.108,-89.4067 377.751,-85.2648"/>
</g>
<!-- Node14 -->
<g id="node30" class="node"><title>Node14</title>
<a xlink:href="_viewport2_d_8h.html" target="_top" xlink:title="Viewport2D.h">
<polygon fill="none" stroke="black" points="160,-117 160,-137 234,-137 234,-117 160,-117"/>
<text text-anchor="middle" x="197" y="-124" font-family="FreeSans" font-size="10.00">Viewport2D.h</text>
</a>
</g>
<!-- Node13&#45;&gt;Node14 -->
<g id="edge32" class="edge"><title>Node13&#45;&gt;Node14</title>
<path fill="none" stroke="midnightblue" d="M149.74,-232.752C158.52,-223.815 170.646,-210.102 178,-196 185.978,-180.7 190.892,-161.694 193.718,-147.506"/>
<polygon fill="midnightblue" stroke="midnightblue" points="197.224,-147.785 195.556,-137.323 190.335,-146.542 197.224,-147.785"/>
</g>
<!-- Node15 -->
<g id="node33" class="node"><title>Node15</title>
<a xlink:href="_color_palette_8h.html" target="_top" xlink:title="ColorPalette.h">
<polygon fill="none" stroke="black" points="92.5,-175 92.5,-195 169.5,-195 169.5,-175 92.5,-175"/>
<text text-anchor="middle" x="131" y="-182" font-family="FreeSans" font-size="10.00">ColorPalette.h</text>
</a>
</g>
<!-- Node13&#45;&gt;Node15 -->
<g id="edge36" class="edge"><title>Node13&#45;&gt;Node15</title>
<path fill="none" stroke="midnightblue" d="M137.607,-232.897C136.564,-225.339 135.103,-214.748 133.82,-205.446"/>
<polygon fill="midnightblue" stroke="midnightblue" points="137.265,-204.806 132.431,-195.378 130.331,-205.762 137.265,-204.806"/>
</g>
<!-- Node17 -->
<g id="node38" class="node"><title>Node17</title>
<a xlink:href="_bitmap_8h.html" target="_top" xlink:title="Bitmap.h">
<polygon fill="none" stroke="black" points="-0.5,-175 -0.5,-195 54.5,-195 54.5,-175 -0.5,-175"/>
<text text-anchor="middle" x="27" y="-182" font-family="FreeSans" font-size="10.00">Bitmap.h</text>
</a>
</g>
<!-- Node13&#45;&gt;Node17 -->
<g id="edge42" class="edge"><title>Node13&#45;&gt;Node17</title>
<path fill="none" stroke="midnightblue" d="M119.491,-232.897C101.853,-223.763 75.6603,-210.199 55.6465,-199.835"/>
<polygon fill="midnightblue" stroke="midnightblue" points="57.1506,-196.672 46.6611,-195.182 53.9316,-202.888 57.1506,-196.672"/>
</g>
<!-- Node18 -->
<g id="node41" class="node"><title>Node18</title>
<a xlink:href="_patch_8h.html" target="_top" xlink:title="Patch.h">
<polygon fill="none" stroke="black" points="258,-175 258,-195 308,-195 308,-175 258,-175"/>
<text text-anchor="middle" x="283" y="-182" font-family="FreeSans" font-size="10.00">Patch.h</text>
</a>
</g>
<!-- Node13&#45;&gt;Node18 -->
<g id="edge46" class="edge"><title>Node13&#45;&gt;Node18</title>
<path fill="none" stroke="midnightblue" d="M164.083,-232.897C187.376,-223.515 222.273,-209.459 248.247,-198.998"/>
<polygon fill="midnightblue" stroke="midnightblue" points="249.753,-202.164 257.721,-195.182 247.138,-195.671 249.753,-202.164"/>
</g>
<!-- Node14&#45;&gt;Node4 -->
<g id="edge34" class="edge"><title>Node14&#45;&gt;Node4</title>
<path fill="none" stroke="midnightblue" d="M225.392,-116.897C252.19,-107.362 292.554,-92.9992 322.093,-82.4885"/>
<polygon fill="midnightblue" stroke="midnightblue" points="323.412,-85.7341 331.66,-79.0842 321.065,-79.1392 323.412,-85.7341"/>
</g>
<!-- Node15&#45;&gt;Node4 -->
<g id="edge40" class="edge"><title>Node15&#45;&gt;Node4</title>
<path fill="none" stroke="midnightblue" d="M130.903,-174.936C131.334,-159.867 134.468,-131.555 151,-116 172.502,-95.7692 247.722,-82.5545 301.758,-75.4347"/>
<polygon fill="midnightblue" stroke="midnightblue" points="302.447,-78.8751 311.922,-74.1338 301.559,-71.9318 302.447,-78.8751"/>
</g>
<!-- Node16 -->
<g id="node35" class="node"><title>Node16</title>
<polygon fill="none" stroke="#bfbfbf" points="33.5,-117 33.5,-137 104.5,-137 104.5,-117 33.5,-117"/>
<text text-anchor="middle" x="69" y="-124" font-family="FreeSans" font-size="10.00">SDL2/SDL.h</text>
</g>
<!-- Node15&#45;&gt;Node16 -->
<g id="edge38" class="edge"><title>Node15&#45;&gt;Node16</title>
<path fill="none" stroke="midnightblue" d="M120.2,-174.897C111.243,-166.517 98.2996,-154.409 87.6682,-144.464"/>
<polygon fill="midnightblue" stroke="midnightblue" points="89.7871,-141.653 80.0933,-137.378 85.005,-146.765 89.7871,-141.653"/>
</g>
<!-- Node17&#45;&gt;Node4 -->
<g id="edge44" class="edge"><title>Node17&#45;&gt;Node4</title>
<path fill="none" stroke="midnightblue" d="M22.8334,-174.671C17.5847,-159.778 10.8459,-132.279 25,-116 42.8569,-95.463 210.478,-80.026 301.628,-73.0701"/>
<polygon fill="midnightblue" stroke="midnightblue" points="302.104,-76.5443 311.813,-72.3039 301.579,-69.564 302.104,-76.5443"/>
</g>
<!-- Node18&#45;&gt;Node9 -->
<g id="edge48" class="edge"><title>Node18&#45;&gt;Node9</title>
<path fill="none" stroke="midnightblue" d="M288.574,-174.897C292.925,-167.01 299.099,-155.821 304.385,-146.24"/>
<polygon fill="midnightblue" stroke="midnightblue" points="307.508,-147.824 309.274,-137.378 301.379,-144.443 307.508,-147.824"/>
</g>
<!-- Node19&#45;&gt;Node8 -->
<g id="edge54" class="edge"><title>Node19&#45;&gt;Node8</title>
<path fill="none" stroke="midnightblue" d="M436.987,-290.897C430.537,-282.764 421.301,-271.118 413.551,-261.347"/>
<polygon fill="midnightblue" stroke="midnightblue" points="416.187,-259.038 407.231,-253.378 410.702,-263.387 416.187,-259.038"/>
</g>
<!-- Node19&#45;&gt;Node10 -->
<g id="edge52" class="edge"><title>Node19&#45;&gt;Node10</title>
<path fill="none" stroke="midnightblue" d="M452.142,-290.897C457.833,-282.846 465.957,-271.353 472.821,-261.643"/>
<polygon fill="midnightblue" stroke="midnightblue" points="475.75,-263.564 478.664,-253.378 470.034,-259.523 475.75,-263.564"/>
</g>
<!-- Node20&#45;&gt;Node4 -->
<g id="edge58" class="edge"><title>Node20&#45;&gt;Node4</title>
<path fill="none" stroke="midnightblue" d="M570.982,-290.7C566.02,-267.583 551.359,-210.727 521,-174 485.869,-131.501 429.016,-100.12 393.117,-83.2108"/>
<polygon fill="midnightblue" stroke="midnightblue" points="394.573,-80.028 384.025,-79.0266 391.646,-86.3869 394.573,-80.028"/>
</g>
</g>
</svg>
