<?xml version="1.0" encoding="UTF-8" standalone="no"?>
<!DOCTYPE svg PUBLIC "-//W3C//DTD SVG 1.1//EN"
 "http://www.w3.org/Graphics/SVG/1.1/DTD/svg11.dtd">
<!-- Generated by graphviz version 2.26.3 (20100126.1600)
 -->
<!-- Title: MainCharacter.cpp Pages: 1 -->
<!--zoomable 506 -->
<svg id="main" version="1.1" xmlns="http://www.w3.org/2000/svg" xmlns:xlink="http://www.w3.org/1999/xlink" xml:space="preserve" onload="init(evt)">
<style type="text/css"><![CDATA[
.edge:hover path { stroke: red; }
.edge:hover polygon { stroke: red; fill: red; }
]]></style>
<script type="text/javascript"><![CDATA[
var edges = document.getElementsByTagName('g');
if (edges && edges.length) {
  for (var i=0;i<edges.length;i++) {
    if (edges[i].id.substr(0,4)=='edge') {
      edges[i].setAttribute('class','edge');
    }
  }
}
]]></script>
        <defs>
                <circle id="rim" cx="0" cy="0" r="7"/>
                <circle id="rim2" cx="0" cy="0" r="3.5"/>
                <g id="zoomPlus">
                        <use xlink:href="#rim" fill="#404040">
                                <set attributeName="fill" to="#808080" begin="zoomplus.mouseover" end="zoomplus.mouseout"/>
                        </use>
                        <path d="M-4,0h8M0,-4v8" fill="none" stroke="white" stroke-width="1.5" pointer-events="none"/>
                </g>
                <g id="zoomMin">
                        <use xlink:href="#rim" fill="#404040">
                                <set attributeName="fill" to="#808080" begin="zoomminus.mouseover" end="zoomminus.mouseout"/>
                        </use>
                        <path d="M-4,0h8" fill="none" stroke="white" stroke-width="1.5" pointer-events="none"/>
                </g>
                <g id="dirArrow">
                        <path fill="none" stroke="white" stroke-width="1.5" d="M0,-3.0v7 M-2.5,-0.5L0,-3.0L2.5,-0.5"/>
                </g>
               <g id="resetDef">
                       <use xlink:href="#rim2" fill="#404040">
                               <set attributeName="fill" to="#808080" begin="reset.mouseover" end="reset.mouseout"/>
                       </use>
               </g>
        </defs>

<script type="text/javascript">
var viewWidth = 1027;
var viewHeight = 506;
var sectionId = 'dynsection-0';
</script>
<script xlink:href="svgpan.js"/>
<svg id="graph" class="graph">
<g id="viewport">
<title>MainCharacter.cpp</title>
<!-- Node1 -->
<g id="node1" class="node"><title>Node1</title>
<polygon fill="#bfbfbf" stroke="black" points="613,-477 613,-497 711,-497 711,-477 613,-477"/>
<text text-anchor="middle" x="662" y="-484" font-family="FreeSans" font-size="10.00">MainCharacter.cpp</text>
</g>
<!-- Node2 -->
<g id="node3" class="node"><title>Node2</title>
<polygon fill="none" stroke="#bfbfbf" points="327,-413 327,-433 373,-433 373,-413 327,-413"/>
<text text-anchor="middle" x="350" y="-420" font-family="FreeSans" font-size="10.00">math.h</text>
</g>
<!-- Node1&#45;&gt;Node2 -->
<g id="edge2" class="edge"><title>Node1&#45;&gt;Node2</title>
<path fill="none" stroke="midnightblue" d="M612.916,-482.521C557.197,-476.544 464.043,-463.831 387,-440 384.368,-439.186 381.68,-438.226 379.014,-437.183"/>
<polygon fill="midnightblue" stroke="midnightblue" points="380.166,-433.869 369.595,-433.157 377.415,-440.306 380.166,-433.869"/>
</g>
<!-- Node3 -->
<g id="node5" class="node"><title>Node3</title>
<a xlink:href="_main_character_renderer_8h.html" target="_top" xlink:title="MainCharacterRenderer.h">
<polygon fill="none" stroke="black" points="160,-291 160,-311 286,-311 286,-291 160,-291"/>
<text text-anchor="middle" x="223" y="-298" font-family="FreeSans" font-size="10.00">MainCharacterRenderer.h</text>
</a>
</g>
<!-- Node1&#45;&gt;Node3 -->
<g id="edge4" class="edge"><title>Node1&#45;&gt;Node3</title>
<path fill="none" stroke="midnightblue" d="M612.993,-483.813C563.814,-479.132 486.835,-467.697 426,-440 403.508,-429.76 402.103,-420.375 382,-406 335.467,-372.726 279.248,-336.493 247.662,-316.482"/>
<polygon fill="midnightblue" stroke="midnightblue" points="249.385,-313.431 239.061,-311.049 245.646,-319.349 249.385,-313.431"/>
</g>
<!-- Node16 -->
<g id="node35" class="node"><title>Node16</title>
<a xlink:href="_main_character_8h.html" target="_top" xlink:title="MainCharacter.h">
<polygon fill="none" stroke="black" points="624.5,-349 624.5,-369 711.5,-369 711.5,-349 624.5,-349"/>
<text text-anchor="middle" x="668" y="-356" font-family="FreeSans" font-size="10.00">MainCharacter.h</text>
</a>
</g>
<!-- Node1&#45;&gt;Node16 -->
<g id="edge38" class="edge"><title>Node1&#45;&gt;Node16</title>
<path fill="none" stroke="midnightblue" d="M662.471,-476.956C663.452,-456.029 665.731,-407.397 667.037,-379.551"/>
<polygon fill="midnightblue" stroke="midnightblue" points="670.543,-379.506 667.515,-369.353 663.55,-379.178 670.543,-379.506"/>
</g>
<!-- Node26 -->
<g id="node63" class="node"><title>Node26</title>
<a xlink:href="_race_effects_8h.html" target="_top" xlink:title="../Model/RaceEffects.h">
<polygon fill="none" stroke="black" points="494.5,-349 494.5,-369 607.5,-369 607.5,-349 494.5,-349"/>
<text text-anchor="middle" x="551" y="-356" font-family="FreeSans" font-size="10.00">../Model/RaceEffects.h</text>
</a>
</g>
<!-- Node1&#45;&gt;Node26 -->
<g id="edge74" class="edge"><title>Node1&#45;&gt;Node26</title>
<path fill="none" stroke="midnightblue" d="M653.29,-476.956C634.578,-455.378 590.321,-404.344 566.622,-377.014"/>
<polygon fill="midnightblue" stroke="midnightblue" points="569.174,-374.615 559.978,-369.353 563.885,-379.201 569.174,-374.615"/>
</g>
<!-- Node27 -->
<g id="node66" class="node"><title>Node27</title>
<a xlink:href="_obstacle_collision_report_8h.html" target="_top" xlink:title="../Model/ObstacleCollision\lReport.h">
<polygon fill="none" stroke="black" points="434.5,-407 434.5,-439 563.5,-439 563.5,-407 434.5,-407"/>
<text text-anchor="start" x="442.5" y="-426" font-family="FreeSans" font-size="10.00">../Model/ObstacleCollision</text>
<text text-anchor="middle" x="499" y="-414" font-family="FreeSans" font-size="10.00">Report.h</text>
</a>
</g>
<!-- Node1&#45;&gt;Node27 -->
<g id="edge78" class="edge"><title>Node1&#45;&gt;Node27</title>
<path fill="none" stroke="midnightblue" d="M636.172,-476.859C612.945,-467.739 578.16,-454.081 549.433,-442.802"/>
<polygon fill="midnightblue" stroke="midnightblue" points="550.535,-439.475 539.948,-439.078 547.977,-445.99 550.535,-439.475"/>
</g>
<!-- Node31 -->
<g id="node77" class="node"><title>Node31</title>
<a xlink:href="_bit_packing_8h.html" target="_top" xlink:title="../Util/BitPacking.h">
<polygon fill="none" stroke="black" points="728.5,-349 728.5,-369 825.5,-369 825.5,-349 728.5,-349"/>
<text text-anchor="middle" x="777" y="-356" font-family="FreeSans" font-size="10.00">../Util/BitPacking.h</text>
</a>
</g>
<!-- Node1&#45;&gt;Node31 -->
<g id="edge92" class="edge"><title>Node1&#45;&gt;Node31</title>
<path fill="none" stroke="midnightblue" d="M667.864,-476.868C677.403,-460.849 697.399,-429.118 719,-406 729.577,-394.681 742.921,-383.685 754.143,-375.179"/>
<polygon fill="midnightblue" stroke="midnightblue" points="756.273,-377.957 762.23,-369.195 752.109,-372.33 756.273,-377.957"/>
</g>
<!-- Node32 -->
<g id="node80" class="node"><title>Node32</title>
<a xlink:href="_fuzzy_logic_8h.html" target="_top" xlink:title="../Util/FuzzyLogic.h">
<polygon fill="none" stroke="black" points="728,-413 728,-433 826,-433 826,-413 728,-413"/>
<text text-anchor="middle" x="777" y="-420" font-family="FreeSans" font-size="10.00">../Util/FuzzyLogic.h</text>
</a>
</g>
<!-- Node1&#45;&gt;Node32 -->
<g id="edge96" class="edge"><title>Node1&#45;&gt;Node32</title>
<path fill="none" stroke="midnightblue" d="M680.222,-476.859C698.98,-466.42 728.42,-450.036 749.907,-438.078"/>
<polygon fill="midnightblue" stroke="midnightblue" points="751.827,-441.015 758.863,-433.094 748.423,-434.898 751.827,-441.015"/>
</g>
<!-- Node33 -->
<g id="node82" class="node"><title>Node33</title>
<a xlink:href="_log_8h.html" target="_top" xlink:title="../Util/Log.h">
<polygon fill="none" stroke="black" points="852,-413 852,-433 918,-433 918,-413 852,-413"/>
<text text-anchor="middle" x="885" y="-420" font-family="FreeSans" font-size="10.00">../Util/Log.h</text>
</a>
</g>
<!-- Node1&#45;&gt;Node33 -->
<g id="edge98" class="edge"><title>Node1&#45;&gt;Node33</title>
<path fill="none" stroke="midnightblue" d="M701.71,-476.965C736.905,-467.892 789.608,-453.868 835,-440 838.836,-438.828 842.822,-437.56 846.793,-436.263"/>
<polygon fill="midnightblue" stroke="midnightblue" points="848.16,-439.497 856.543,-433.018 845.95,-432.855 848.16,-439.497"/>
</g>
<!-- Node35 -->
<g id="node86" class="node"><title>Node35</title>
<a xlink:href="_exception_8h.html" target="_top" xlink:title="../Exception.h">
<polygon fill="none" stroke="black" points="940,-413 940,-433 1014,-433 1014,-413 940,-413"/>
<text text-anchor="middle" x="977" y="-420" font-family="FreeSans" font-size="10.00">../Exception.h</text>
</a>
</g>
<!-- Node1&#45;&gt;Node35 -->
<g id="edge102" class="edge"><title>Node1&#45;&gt;Node35</title>
<path fill="none" stroke="midnightblue" d="M711.321,-480.545C764.901,-473.002 852.784,-459.08 927,-440 931.364,-438.878 935.894,-437.561 940.367,-436.164"/>
<polygon fill="midnightblue" stroke="midnightblue" points="941.56,-439.456 949.979,-433.025 939.387,-432.802 941.56,-439.456"/>
</g>
<!-- Node4 -->
<g id="node7" class="node"><title>Node4</title>
<a xlink:href="_viewport3_d_8h.html" target="_top" xlink:title="../VideoServices/Viewport3D.h">
<polygon fill="none" stroke="black" points="196,-233 196,-253 344,-253 344,-233 196,-233"/>
<text text-anchor="middle" x="270" y="-240" font-family="FreeSans" font-size="10.00">../VideoServices/Viewport3D.h</text>
</a>
</g>
<!-- Node3&#45;&gt;Node4 -->
<g id="edge6" class="edge"><title>Node3&#45;&gt;Node4</title>
<path fill="none" stroke="midnightblue" d="M231.187,-290.897C237.777,-282.764 247.214,-271.118 255.133,-261.347"/>
<polygon fill="midnightblue" stroke="midnightblue" points="258.014,-263.351 261.591,-253.378 252.575,-258.943 258.014,-263.351"/>
</g>
<!-- Node13 -->
<g id="node28" class="node"><title>Node13</title>
<a xlink:href="_sound_server_8h.html" target="_top" xlink:title="../VideoServices/SoundServer.h">
<polygon fill="none" stroke="black" points="24,-233 24,-253 178,-253 178,-233 24,-233"/>
<text text-anchor="middle" x="101" y="-240" font-family="FreeSans" font-size="10.00">../VideoServices/SoundServer.h</text>
</a>
</g>
<!-- Node3&#45;&gt;Node13 -->
<g id="edge30" class="edge"><title>Node3&#45;&gt;Node13</title>
<path fill="none" stroke="midnightblue" d="M201.749,-290.897C182.362,-281.68 153.488,-267.953 131.614,-257.554"/>
<polygon fill="midnightblue" stroke="midnightblue" points="132.951,-254.314 122.417,-253.182 129.945,-260.636 132.951,-254.314"/>
</g>
<!-- Node15 -->
<g id="node32" class="node"><title>Node15</title>
<a xlink:href="_dll_object_factory_8h.html" target="_top" xlink:title="../Util/DllObjectFactory.h">
<polygon fill="none" stroke="black" points="362,-233 362,-253 484,-253 484,-233 362,-233"/>
<text text-anchor="middle" x="423" y="-240" font-family="FreeSans" font-size="10.00">../Util/DllObjectFactory.h</text>
</a>
</g>
<!-- Node3&#45;&gt;Node15 -->
<g id="edge34" class="edge"><title>Node3&#45;&gt;Node15</title>
<path fill="none" stroke="midnightblue" d="M257.837,-290.897C291.289,-281.196 341.972,-266.498 378.367,-255.944"/>
<polygon fill="midnightblue" stroke="midnightblue" points="379.597,-259.231 388.227,-253.084 377.648,-252.508 379.597,-259.231"/>
</g>
<!-- Node5 -->
<g id="node9" class="node"><title>Node5</title>
<a xlink:href="_viewport2_d_8h.html" target="_top" xlink:title="Viewport2D.h">
<polygon fill="none" stroke="black" points="280,-117 280,-137 354,-137 354,-117 280,-117"/>
<text text-anchor="middle" x="317" y="-124" font-family="FreeSans" font-size="10.00">Viewport2D.h</text>
</a>
</g>
<!-- Node4&#45;&gt;Node5 -->
<g id="edge8" class="edge"><title>Node4&#45;&gt;Node5</title>
<path fill="none" stroke="midnightblue" d="M274.171,-232.706C281.995,-213.396 298.99,-171.451 309.06,-146.596"/>
<polygon fill="midnightblue" stroke="midnightblue" points="312.394,-147.688 312.906,-137.106 305.906,-145.059 312.394,-147.688"/>
</g>
<!-- Node8 -->
<g id="node15" class="node"><title>Node8</title>
<a xlink:href="_color_palette_8h.html" target="_top" xlink:title="ColorPalette.h">
<polygon fill="none" stroke="black" points="188.5,-175 188.5,-195 265.5,-195 265.5,-175 188.5,-175"/>
<text text-anchor="middle" x="227" y="-182" font-family="FreeSans" font-size="10.00">ColorPalette.h</text>
</a>
</g>
<!-- Node4&#45;&gt;Node8 -->
<g id="edge14" class="edge"><title>Node4&#45;&gt;Node8</title>
<path fill="none" stroke="midnightblue" d="M262.51,-232.897C256.541,-224.846 248.02,-213.353 240.822,-203.643"/>
<polygon fill="midnightblue" stroke="midnightblue" points="243.461,-201.326 234.694,-195.378 237.838,-205.495 243.461,-201.326"/>
</g>
<!-- Node10 -->
<g id="node20" class="node"><title>Node10</title>
<a xlink:href="_bitmap_8h.html" target="_top" xlink:title="Bitmap.h">
<polygon fill="none" stroke="black" points="81.5,-117 81.5,-137 136.5,-137 136.5,-117 81.5,-117"/>
<text text-anchor="middle" x="109" y="-124" font-family="FreeSans" font-size="10.00">Bitmap.h</text>
</a>
</g>
<!-- Node4&#45;&gt;Node10 -->
<g id="edge20" class="edge"><title>Node4&#45;&gt;Node10</title>
<path fill="none" stroke="midnightblue" d="M246.365,-232.953C227.555,-224.429 200.996,-211.186 180,-196 159.083,-180.871 138.272,-159.745 124.642,-144.865"/>
<polygon fill="midnightblue" stroke="midnightblue" points="127.143,-142.413 117.853,-137.32 121.939,-147.095 127.143,-142.413"/>
</g>
<!-- Node11 -->
<g id="node23" class="node"><title>Node11</title>
<a xlink:href="_patch_8h.html" target="_top" xlink:title="Patch.h">
<polygon fill="none" stroke="black" points="372,-175 372,-195 422,-195 422,-175 372,-175"/>
<text text-anchor="middle" x="397" y="-182" font-family="FreeSans" font-size="10.00">Patch.h</text>
</a>
</g>
<!-- Node4&#45;&gt;Node11 -->
<g id="edge24" class="edge"><title>Node4&#45;&gt;Node11</title>
<path fill="none" stroke="midnightblue" d="M292.122,-232.897C312.394,-223.639 342.631,-209.83 365.437,-199.415"/>
<polygon fill="midnightblue" stroke="midnightblue" points="367.063,-202.52 374.706,-195.182 364.155,-196.152 367.063,-202.52"/>
</g>
<!-- Node6 -->
<g id="node11" class="node"><title>Node6</title>
<a xlink:href="_m_r___types_8h.html" target="_top" xlink:title="../Util/MR_Types.h">
<polygon fill="none" stroke="black" points="432,-59 432,-79 528,-79 528,-59 432,-59"/>
<text text-anchor="middle" x="480" y="-66" font-family="FreeSans" font-size="10.00">../Util/MR_Types.h</text>
</a>
</g>
<!-- Node5&#45;&gt;Node6 -->
<g id="edge10" class="edge"><title>Node5&#45;&gt;Node6</title>
<path fill="none" stroke="midnightblue" d="M345.392,-116.897C372.19,-107.362 412.554,-92.9992 442.093,-82.4885"/>
<polygon fill="midnightblue" stroke="midnightblue" points="443.412,-85.7341 451.66,-79.0842 441.065,-79.1392 443.412,-85.7341"/>
</g>
<!-- Node7 -->
<g id="node13" class="node"><title>Node7</title>
<polygon fill="none" stroke="#bfbfbf" points="451,-1 451,-21 509,-21 509,-1 451,-1"/>
<text text-anchor="middle" x="480" y="-8" font-family="FreeSans" font-size="10.00">inttypes.h</text>
</g>
<!-- Node6&#45;&gt;Node7 -->
<g id="edge12" class="edge"><title>Node6&#45;&gt;Node7</title>
<path fill="none" stroke="midnightblue" d="M480,-58.8972C480,-51.339 480,-40.7476 480,-31.4458"/>
<polygon fill="midnightblue" stroke="midnightblue" points="483.5,-31.3776 480,-21.3776 476.5,-31.3776 483.5,-31.3776"/>
</g>
<!-- Node8&#45;&gt;Node6 -->
<g id="edge18" class="edge"><title>Node8&#45;&gt;Node6</title>
<path fill="none" stroke="midnightblue" d="M212.35,-174.806C193.953,-160.786 166.667,-135.121 183,-116 198.303,-98.0852 339.719,-82.0643 421.771,-74.1751"/>
<polygon fill="midnightblue" stroke="midnightblue" points="422.334,-77.6374 431.958,-73.2079 421.672,-70.6688 422.334,-77.6374"/>
</g>
<!-- Node9 -->
<g id="node17" class="node"><title>Node9</title>
<polygon fill="none" stroke="#bfbfbf" points="191.5,-117 191.5,-137 262.5,-137 262.5,-117 191.5,-117"/>
<text text-anchor="middle" x="227" y="-124" font-family="FreeSans" font-size="10.00">SDL2/SDL.h</text>
</g>
<!-- Node8&#45;&gt;Node9 -->
<g id="edge16" class="edge"><title>Node8&#45;&gt;Node9</title>
<path fill="none" stroke="midnightblue" d="M227,-174.897C227,-167.339 227,-156.748 227,-147.446"/>
<polygon fill="midnightblue" stroke="midnightblue" points="230.5,-147.378 227,-137.378 223.5,-147.378 230.5,-147.378"/>
</g>
<!-- Node10&#45;&gt;Node6 -->
<g id="edge22" class="edge"><title>Node10&#45;&gt;Node6</title>
<path fill="none" stroke="midnightblue" d="M136.681,-119.088C141.114,-117.961 145.668,-116.886 150,-116 244.313,-96.7053 355.398,-82.6405 421.634,-75.156"/>
<polygon fill="midnightblue" stroke="midnightblue" points="422.321,-78.6011 431.87,-74.0115 421.543,-71.6445 422.321,-78.6011"/>
</g>
<!-- Node12 -->
<g id="node25" class="node"><title>Node12</title>
<a xlink:href="_world_coordinates_8h.html" target="_top" xlink:title="../Util/WorldCoordinates.h">
<polygon fill="none" stroke="black" points="372,-117 372,-137 498,-137 498,-117 372,-117"/>
<text text-anchor="middle" x="435" y="-124" font-family="FreeSans" font-size="10.00">../Util/WorldCoordinates.h</text>
</a>
</g>
<!-- Node11&#45;&gt;Node12 -->
<g id="edge26" class="edge"><title>Node11&#45;&gt;Node12</title>
<path fill="none" stroke="midnightblue" d="M403.619,-174.897C408.84,-166.928 416.27,-155.587 422.59,-145.941"/>
<polygon fill="midnightblue" stroke="midnightblue" points="425.648,-147.66 428.201,-137.378 419.793,-143.824 425.648,-147.66"/>
</g>
<!-- Node12&#45;&gt;Node6 -->
<g id="edge28" class="edge"><title>Node12&#45;&gt;Node6</title>
<path fill="none" stroke="midnightblue" d="M442.838,-116.897C449.149,-108.764 458.184,-97.1183 465.765,-87.3468"/>
<polygon fill="midnightblue" stroke="midnightblue" points="468.584,-89.424 471.948,-79.3776 463.053,-85.133 468.584,-89.424"/>
</g>
<!-- Node14 -->
<g id="node30" class="node"><title>Node14</title>
<polygon fill="none" stroke="#bfbfbf" points="80.5,-175 80.5,-195 121.5,-195 121.5,-175 80.5,-175"/>
<text text-anchor="middle" x="101" y="-182" font-family="FreeSans" font-size="10.00">string</text>
</g>
<!-- Node13&#45;&gt;Node14 -->
<g id="edge32" class="edge"><title>Node13&#45;&gt;Node14</title>
<path fill="none" stroke="midnightblue" d="M101,-232.897C101,-225.339 101,-214.748 101,-205.446"/>
<polygon fill="midnightblue" stroke="midnightblue" points="104.5,-205.378 101,-195.378 97.5001,-205.378 104.5,-205.378"/>
</g>
<!-- Node15&#45;&gt;Node6 -->
<g id="edge36" class="edge"><title>Node15&#45;&gt;Node6</title>
<path fill="none" stroke="midnightblue" d="M435.183,-232.932C454.797,-215.836 492.627,-178.973 507,-138 513.078,-120.674 503.985,-101.219 494.748,-87.3943"/>
<polygon fill="midnightblue" stroke="midnightblue" points="497.516,-85.2488 488.816,-79.2019 491.846,-89.3543 497.516,-85.2488"/>
</g>
<!-- Node17 -->
<g id="node37" class="node"><title>Node17</title>
<a xlink:href="_color_8h.html" target="_top" xlink:title="../Display/Color.h">
<polygon fill="none" stroke="black" points="718.5,-175 718.5,-195 807.5,-195 807.5,-175 718.5,-175"/>
<text text-anchor="middle" x="763" y="-182" font-family="FreeSans" font-size="10.00">../Display/Color.h</text>
</a>
</g>
<!-- Node16&#45;&gt;Node17 -->
<g id="edge40" class="edge"><title>Node16&#45;&gt;Node17</title>
<path fill="none" stroke="midnightblue" d="M694.892,-348.983C712.402,-341.248 734.586,-328.982 749,-312 772.862,-283.886 774.105,-268.745 771,-232 770.244,-223.054 768.692,-213.251 767.155,-204.924"/>
<polygon fill="midnightblue" stroke="midnightblue" points="770.572,-204.16 765.211,-195.022 763.704,-205.509 770.572,-204.16"/>
</g>
<!-- Node20 -->
<g id="node45" class="node"><title>Node20</title>
<a xlink:href="_maze_element_8h.html" target="_top" xlink:title="../Model/MazeElement.h">
<polygon fill="none" stroke="black" points="415.5,-291 415.5,-311 534.5,-311 534.5,-291 415.5,-291"/>
<text text-anchor="middle" x="475" y="-298" font-family="FreeSans" font-size="10.00">../Model/MazeElement.h</text>
</a>
</g>
<!-- Node16&#45;&gt;Node20 -->
<g id="edge50" class="edge"><title>Node16&#45;&gt;Node20</title>
<path fill="none" stroke="midnightblue" d="M634.382,-348.897C602.239,-339.238 553.61,-324.624 518.522,-314.079"/>
<polygon fill="midnightblue" stroke="midnightblue" points="519.14,-310.61 508.556,-311.084 517.126,-317.314 519.14,-310.61"/>
</g>
<!-- Node24 -->
<g id="node56" class="node"><title>Node24</title>
<a xlink:href="_physical_collision_8h.html" target="_top" xlink:title="../Model/PhysicalCollision.h">
<polygon fill="none" stroke="black" points="590,-291 590,-311 724,-311 724,-291 590,-291"/>
<text text-anchor="middle" x="657" y="-298" font-family="FreeSans" font-size="10.00">../Model/PhysicalCollision.h</text>
</a>
</g>
<!-- Node16&#45;&gt;Node24 -->
<g id="edge64" class="edge"><title>Node16&#45;&gt;Node24</title>
<path fill="none" stroke="midnightblue" d="M666.084,-348.897C664.651,-341.339 662.642,-330.748 660.878,-321.446"/>
<polygon fill="midnightblue" stroke="midnightblue" points="664.27,-320.55 658.968,-311.378 657.393,-321.855 664.27,-320.55"/>
</g>
<!-- Node25 -->
<g id="node60" class="node"><title>Node25</title>
<a xlink:href="_fast_fifo_8h.html" target="_top" xlink:title="../Util/FastFifo.h">
<polygon fill="none" stroke="black" points="676,-233 676,-253 762,-253 762,-233 676,-233"/>
<text text-anchor="middle" x="719" y="-240" font-family="FreeSans" font-size="10.00">../Util/FastFifo.h</text>
</a>
</g>
<!-- Node16&#45;&gt;Node25 -->
<g id="edge70" class="edge"><title>Node16&#45;&gt;Node25</title>
<path fill="none" stroke="midnightblue" d="M691.451,-348.987C706.314,-341.255 724.319,-328.989 733,-312 740.877,-296.585 735.753,-277.108 729.603,-262.781"/>
<polygon fill="midnightblue" stroke="midnightblue" points="732.585,-260.904 725.115,-253.391 726.27,-263.923 732.585,-260.904"/>
</g>
<!-- Node17&#45;&gt;Node6 -->
<g id="edge44" class="edge"><title>Node17&#45;&gt;Node6</title>
<path fill="none" stroke="midnightblue" d="M757.82,-174.948C749.372,-159.628 731.12,-130.675 707,-116 679.188,-99.0781 595.866,-84.7731 538.305,-76.5359"/>
<polygon fill="midnightblue" stroke="midnightblue" points="538.623,-73.0463 528.233,-75.1186 537.647,-79.978 538.623,-73.0463"/>
</g>
<!-- Node18 -->
<g id="node39" class="node"><title>Node18</title>
<polygon fill="none" stroke="#bfbfbf" points="753.5,-117 753.5,-137 842.5,-137 842.5,-117 753.5,-117"/>
<text text-anchor="middle" x="798" y="-124" font-family="FreeSans" font-size="10.00">boost/format.hpp</text>
</g>
<!-- Node17&#45;&gt;Node18 -->
<g id="edge42" class="edge"><title>Node17&#45;&gt;Node18</title>
<path fill="none" stroke="midnightblue" d="M769.097,-174.897C773.905,-166.928 780.749,-155.587 786.57,-145.941"/>
<polygon fill="midnightblue" stroke="midnightblue" points="789.568,-147.748 791.738,-137.378 783.574,-144.131 789.568,-147.748"/>
</g>
<!-- Node19 -->
<g id="node42" class="node"><title>Node19</title>
<a xlink:href="_sel_fmt_8h.html" target="_top" xlink:title="../Util/SelFmt.h">
<polygon fill="none" stroke="black" points="617.5,-117 617.5,-137 698.5,-137 698.5,-117 617.5,-117"/>
<text text-anchor="middle" x="658" y="-124" font-family="FreeSans" font-size="10.00">../Util/SelFmt.h</text>
</a>
</g>
<!-- Node17&#45;&gt;Node19 -->
<g id="edge46" class="edge"><title>Node17&#45;&gt;Node19</title>
<path fill="none" stroke="midnightblue" d="M744.71,-174.897C728.324,-165.846 704.063,-152.444 685.367,-142.117"/>
<polygon fill="midnightblue" stroke="midnightblue" points="686.878,-138.953 676.432,-137.182 683.493,-145.081 686.878,-138.953"/>
</g>
<!-- Node19&#45;&gt;Node6 -->
<g id="edge48" class="edge"><title>Node19&#45;&gt;Node6</title>
<path fill="none" stroke="midnightblue" d="M626.995,-116.897C597.477,-107.279 552.885,-92.749 520.557,-82.2152"/>
<polygon fill="midnightblue" stroke="midnightblue" points="521.54,-78.8546 510.948,-79.0842 519.372,-85.5102 521.54,-78.8546"/>
</g>
<!-- Node20&#45;&gt;Node4 -->
<g id="edge62" class="edge"><title>Node20&#45;&gt;Node4</title>
<path fill="none" stroke="midnightblue" d="M439.292,-290.897C404.857,-281.155 352.609,-266.372 315.272,-255.809"/>
<polygon fill="midnightblue" stroke="midnightblue" points="316.218,-252.439 305.642,-253.084 314.312,-259.174 316.218,-252.439"/>
</g>
<!-- Node20&#45;&gt;Node15 -->
<g id="edge60" class="edge"><title>Node20&#45;&gt;Node15</title>
<path fill="none" stroke="midnightblue" d="M465.942,-290.897C458.577,-282.682 447.998,-270.883 439.184,-261.051"/>
<polygon fill="midnightblue" stroke="midnightblue" points="441.586,-258.487 432.304,-253.378 436.374,-263.16 441.586,-258.487"/>
</g>
<!-- Node21 -->
<g id="node47" class="node"><title>Node21</title>
<a xlink:href="_shapes_8h.html" target="_top" xlink:title="Shapes.h">
<polygon fill="none" stroke="black" points="501.5,-233 501.5,-253 558.5,-253 558.5,-233 501.5,-233"/>
<text text-anchor="middle" x="530" y="-240" font-family="FreeSans" font-size="10.00">Shapes.h</text>
</a>
</g>
<!-- Node20&#45;&gt;Node21 -->
<g id="edge52" class="edge"><title>Node20&#45;&gt;Node21</title>
<path fill="none" stroke="midnightblue" d="M484.58,-290.897C492.449,-282.6 503.784,-270.646 513.162,-260.757"/>
<polygon fill="midnightblue" stroke="midnightblue" points="515.818,-263.042 520.159,-253.378 510.739,-258.226 515.818,-263.042"/>
</g>
<!-- Node22 -->
<g id="node50" class="node"><title>Node22</title>
<a xlink:href="_contact_effect_8h.html" target="_top" xlink:title="ContactEffect.h">
<polygon fill="none" stroke="black" points="575.5,-233 575.5,-253 658.5,-253 658.5,-233 575.5,-233"/>
<text text-anchor="middle" x="617" y="-240" font-family="FreeSans" font-size="10.00">ContactEffect.h</text>
</a>
</g>
<!-- Node20&#45;&gt;Node22 -->
<g id="edge56" class="edge"><title>Node20&#45;&gt;Node22</title>
<path fill="none" stroke="midnightblue" d="M499.735,-290.897C522.704,-281.515 557.117,-267.459 582.729,-256.998"/>
<polygon fill="midnightblue" stroke="midnightblue" points="584.138,-260.203 592.072,-253.182 581.491,-253.723 584.138,-260.203"/>
</g>
<!-- Node21&#45;&gt;Node12 -->
<g id="edge54" class="edge"><title>Node21&#45;&gt;Node12</title>
<path fill="none" stroke="midnightblue" d="M521.569,-232.706C505.402,-212.965 469.861,-169.567 449.706,-144.957"/>
<polygon fill="midnightblue" stroke="midnightblue" points="452.32,-142.625 443.276,-137.106 446.904,-147.06 452.32,-142.625"/>
</g>
<!-- Node23 -->
<g id="node52" class="node"><title>Node23</title>
<polygon fill="none" stroke="#bfbfbf" points="558,-175 558,-195 602,-195 602,-175 558,-175"/>
<text text-anchor="middle" x="580" y="-182" font-family="FreeSans" font-size="10.00">vector</text>
</g>
<!-- Node22&#45;&gt;Node23 -->
<g id="edge58" class="edge"><title>Node22&#45;&gt;Node23</title>
<path fill="none" stroke="midnightblue" d="M610.555,-232.897C605.471,-224.928 598.237,-213.587 592.083,-203.941"/>
<polygon fill="midnightblue" stroke="midnightblue" points="594.949,-201.926 586.62,-195.378 589.048,-205.691 594.949,-201.926"/>
</g>
<!-- Node24&#45;&gt;Node21 -->
<g id="edge68" class="edge"><title>Node24&#45;&gt;Node21</title>
<path fill="none" stroke="midnightblue" d="M634.878,-290.897C614.606,-281.639 584.369,-267.83 561.563,-257.415"/>
<polygon fill="midnightblue" stroke="midnightblue" points="562.845,-254.152 552.294,-253.182 559.937,-260.52 562.845,-254.152"/>
</g>
<!-- Node24&#45;&gt;Node22 -->
<g id="edge66" class="edge"><title>Node24&#45;&gt;Node22</title>
<path fill="none" stroke="midnightblue" d="M650.033,-290.897C644.48,-282.846 636.554,-271.353 629.858,-261.643"/>
<polygon fill="midnightblue" stroke="midnightblue" points="632.716,-259.623 624.157,-253.378 626.953,-263.597 632.716,-259.623"/>
</g>
<!-- Node25&#45;&gt;Node6 -->
<g id="edge72" class="edge"><title>Node25&#45;&gt;Node6</title>
<path fill="none" stroke="midnightblue" d="M705.117,-232.893C665.351,-203.942 550.767,-120.521 502.19,-85.1553"/>
<polygon fill="midnightblue" stroke="midnightblue" points="504.065,-82.1912 493.921,-79.135 499.945,-87.8503 504.065,-82.1912"/>
</g>
<!-- Node26&#45;&gt;Node22 -->
<g id="edge76" class="edge"><title>Node26&#45;&gt;Node22</title>
<path fill="none" stroke="midnightblue" d="M554.542,-348.801C559.533,-334.997 569.341,-309.814 581,-290 586.942,-279.901 594.731,-269.477 601.544,-261.019"/>
<polygon fill="midnightblue" stroke="midnightblue" points="604.25,-263.238 607.926,-253.301 598.856,-258.777 604.25,-263.238"/>
</g>
<!-- Node28 -->
<g id="node68" class="node"><title>Node28</title>
<a xlink:href="_level_8h.html" target="_top" xlink:title="Level.h">
<polygon fill="none" stroke="black" points="429,-349 429,-369 477,-369 477,-349 429,-349"/>
<text text-anchor="middle" x="453" y="-356" font-family="FreeSans" font-size="10.00">Level.h</text>
</a>
</g>
<!-- Node27&#45;&gt;Node28 -->
<g id="edge80" class="edge"><title>Node27&#45;&gt;Node28</title>
<path fill="none" stroke="midnightblue" d="M487.392,-406.85C480.938,-397.87 472.882,-386.663 466.19,-377.352"/>
<polygon fill="midnightblue" stroke="midnightblue" points="468.967,-375.218 460.289,-369.141 463.283,-379.304 468.967,-375.218"/>
</g>
<!-- Node28&#45;&gt;Node20 -->
<g id="edge82" class="edge"><title>Node28&#45;&gt;Node20</title>
<path fill="none" stroke="midnightblue" d="M456.832,-348.897C459.761,-341.175 463.892,-330.286 467.474,-320.841"/>
<polygon fill="midnightblue" stroke="midnightblue" points="470.79,-321.969 471.064,-311.378 464.245,-319.486 470.79,-321.969"/>
</g>
<!-- Node29 -->
<g id="node71" class="node"><title>Node29</title>
<a xlink:href="_shape_collisions_8h.html" target="_top" xlink:title="ShapeCollisions.h">
<polygon fill="none" stroke="black" points="304,-291 304,-311 398,-311 398,-291 304,-291"/>
<text text-anchor="middle" x="351" y="-298" font-family="FreeSans" font-size="10.00">ShapeCollisions.h</text>
</a>
</g>
<!-- Node28&#45;&gt;Node29 -->
<g id="edge84" class="edge"><title>Node28&#45;&gt;Node29</title>
<path fill="none" stroke="midnightblue" d="M435.233,-348.897C419.388,-339.887 395.962,-326.567 377.834,-316.259"/>
<polygon fill="midnightblue" stroke="midnightblue" points="379.329,-313.082 368.906,-311.182 375.869,-319.167 379.329,-313.082"/>
</g>
<!-- Node30 -->
<g id="node74" class="node"><title>Node30</title>
<a xlink:href="_fast_array_8h.html" target="_top" xlink:title="../Util/FastArray.h">
<polygon fill="none" stroke="black" points="0,-291 0,-311 92,-311 92,-291 0,-291"/>
<text text-anchor="middle" x="46" y="-298" font-family="FreeSans" font-size="10.00">../Util/FastArray.h</text>
</a>
</g>
<!-- Node28&#45;&gt;Node30 -->
<g id="edge88" class="edge"><title>Node28&#45;&gt;Node30</title>
<path fill="none" stroke="midnightblue" d="M428.759,-355.546C365.154,-346.481 192.19,-321.833 102.16,-309.003"/>
<polygon fill="midnightblue" stroke="midnightblue" points="102.525,-305.52 92.1312,-307.574 101.537,-312.45 102.525,-305.52"/>
</g>
<!-- Node29&#45;&gt;Node21 -->
<g id="edge86" class="edge"><title>Node29&#45;&gt;Node21</title>
<path fill="none" stroke="midnightblue" d="M382.179,-290.897C412.589,-281.044 458.909,-266.035 491.579,-255.449"/>
<polygon fill="midnightblue" stroke="midnightblue" points="492.813,-258.729 501.247,-252.317 490.655,-252.07 492.813,-258.729"/>
</g>
<!-- Node30&#45;&gt;Node6 -->
<g id="edge90" class="edge"><title>Node30&#45;&gt;Node6</title>
<path fill="none" stroke="midnightblue" d="M36.6243,-290.722C29.133,-281.766 19.2143,-268.043 15,-254 12.1896,-244.635 12.7535,-241.516 15,-232 28.2432,-175.901 25.7898,-149.071 73,-116 100.944,-96.4257 315.608,-79.7923 421.42,-72.6863"/>
<polygon fill="midnightblue" stroke="midnightblue" points="421.871,-76.1641 431.617,-72.0084 421.407,-69.1795 421.871,-76.1641"/>
</g>
<!-- Node31&#45;&gt;Node6 -->
<g id="edge94" class="edge"><title>Node31&#45;&gt;Node6</title>
<path fill="none" stroke="midnightblue" d="M793.627,-348.781C820.377,-330.916 870,-291.269 870,-243 870,-243 870,-243 870,-185 870,-153.192 875.038,-136.831 851,-116 827.839,-95.929 637.017,-79.8971 538.456,-72.8649"/>
<polygon fill="midnightblue" stroke="midnightblue" points="538.572,-69.3644 528.35,-72.1523 538.079,-76.3471 538.572,-69.3644"/>
</g>
<!-- Node34 -->
<g id="node84" class="node"><title>Node34</title>
<polygon fill="none" stroke="#bfbfbf" points="842.5,-349 842.5,-369 943.5,-369 943.5,-349 842.5,-349"/>
<text text-anchor="middle" x="893" y="-356" font-family="FreeSans" font-size="10.00">boost/log/trivial.hpp</text>
</g>
<!-- Node33&#45;&gt;Node34 -->
<g id="edge100" class="edge"><title>Node33&#45;&gt;Node34</title>
<path fill="none" stroke="midnightblue" d="M886.285,-412.717C887.412,-403.707 889.082,-390.347 890.474,-379.205"/>
<polygon fill="midnightblue" stroke="midnightblue" points="893.977,-379.403 891.744,-369.046 887.031,-378.535 893.977,-379.403"/>
</g>
<!-- Node36 -->
<g id="node88" class="node"><title>Node36</title>
<polygon fill="none" stroke="#bfbfbf" points="961,-349 961,-369 1019,-369 1019,-349 961,-349"/>
<text text-anchor="middle" x="990" y="-356" font-family="FreeSans" font-size="10.00">exception</text>
</g>
<!-- Node35&#45;&gt;Node36 -->
<g id="edge104" class="edge"><title>Node35&#45;&gt;Node36</title>
<path fill="none" stroke="midnightblue" d="M979.089,-412.717C980.938,-403.613 983.689,-390.068 985.966,-378.858"/>
<polygon fill="midnightblue" stroke="midnightblue" points="989.399,-379.543 987.959,-369.046 982.539,-378.149 989.399,-379.543"/>
</g>
</g>
</svg>
        <g id="navigator" transform="translate(0 0)" fill="#404254">
                <rect fill="#f2f5e9" fill-opacity="0.5" stroke="#606060" stroke-width=".5" x="0" y="0" width="60" height="60"/>
                <use id="zoomplus" xlink:href="#zoomPlus" x="17" y="9" onmousedown="handleZoom(evt,'in')"/>
                <use id="zoomminus" xlink:href="#zoomMin" x="42" y="9" onmousedown="handleZoom(evt,'out')"/>
                <use id="reset" xlink:href="#resetDef" x="30" y="36" onmousedown="handleReset()"/>
                <g id="arrowUp" xlink:href="#dirArrow" transform="translate(30 24)" onmousedown="handlePan(0,-1)">
                  <use xlink:href="#rim" fill="#404040">
                        <set attributeName="fill" to="#808080" begin="arrowUp.mouseover" end="arrowUp.mouseout"/>
                  </use>
                  <path fill="none" stroke="white" stroke-width="1.5" d="M0,-3.0v7 M-2.5,-0.5L0,-3.0L2.5,-0.5"/>
                </g>
                <g id="arrowRight" xlink:href="#dirArrow" transform="rotate(90) translate(36 -43)" onmousedown="handlePan(1,0)">
                  <use xlink:href="#rim" fill="#404040">
                        <set attributeName="fill" to="#808080" begin="arrowRight.mouseover" end="arrowRight.mouseout"/>
                  </use>
                  <path fill="none" stroke="white" stroke-width="1.5" d="M0,-3.0v7 M-2.5,-0.5L0,-3.0L2.5,-0.5"/>
                </g>
                <g id="arrowDown" xlink:href="#dirArrow" transform="rotate(180) translate(-30 -48)" onmousedown="handlePan(0,1)">
                  <use xlink:href="#rim" fill="#404040">
                        <set attributeName="fill" to="#808080" begin="arrowDown.mouseover" end="arrowDown.mouseout"/>
                  </use>
                  <path fill="none" stroke="white" stroke-width="1.5" d="M0,-3.0v7 M-2.5,-0.5L0,-3.0L2.5,-0.5"/>
                </g>
                <g id="arrowLeft" xlink:href="#dirArrow" transform="rotate(270) translate(-36 17)" onmousedown="handlePan(-1,0)">
                  <use xlink:href="#rim" fill="#404040">
                        <set attributeName="fill" to="#808080" begin="arrowLeft.mouseover" end="arrowLeft.mouseout"/>
                  </use>
                  <path fill="none" stroke="white" stroke-width="1.5" d="M0,-3.0v7 M-2.5,-0.5L0,-3.0L2.5,-0.5"/>
                </g>
        </g>
        <svg viewBox="0 0 15 15" width="100%" height="30px" preserveAspectRatio="xMaxYMin meet">
         <g id="arrow_out" transform="scale(0.3 0.3)">
          <a xlink:href="_main_character_8cpp__incl_org.svg" target="_base">
           <rect id="button" ry="5" rx="5" y="6" x="6" height="38" width="38"
                fill="#f2f5e9" fill-opacity="0.5" stroke="#606060" stroke-width="1.0"/>
           <path id="arrow"
             d="M 11.500037,31.436501 C 11.940474,20.09759 22.043105,11.32322 32.158766,21.979434 L 37.068811,17.246167 C 37.068811,17.246167 37.088388,32 37.088388,32 L 22.160133,31.978069 C 22.160133,31.978069 26.997745,27.140456 26.997745,27.140456 C 18.528582,18.264221 13.291696,25.230495 11.500037,31.436501 z"
             style="fill:#404040;"/>
          </a>
         </g>
        </svg>
</svg>
