<?xml version="1.0" encoding="UTF-8" standalone="no"?>
<!DOCTYPE svg PUBLIC "-//W3C//DTD SVG 1.1//EN"
 "http://www.w3.org/Graphics/SVG/1.1/DTD/svg11.dtd">
<!-- Generated by graphviz version 2.38.0 (20140413.2041)
 -->
<!-- Title: MapNode.h Pages: 1 -->
<svg width="911pt" height="84pt"
 viewBox="0.00 0.00 911.00 84.00" xmlns="http://www.w3.org/2000/svg" xmlns:xlink="http://www.w3.org/1999/xlink">
<g id="graph0" class="graph" transform="scale(1 1) rotate(0) translate(4 80)">
<title>MapNode.h</title>
<!-- Node1 -->
<g id="node1" class="node"><title>Node1</title>
<polygon fill="#bfbfbf" stroke="black" points="379.5,-56.5 379.5,-75.5 446.5,-75.5 446.5,-56.5 379.5,-56.5"/>
<text text-anchor="middle" x="413" y="-63.5" font-family="Helvetica,sans-Serif" font-size="10.00">MapNode.h</text>
</g>
<!-- Node2 -->
<g id="node2" class="node"><title>Node2</title>
<g id="a_node2"><a xlink:href="_local_profile_8cpp.html" target="_top" xlink:title="LocalProfile.cpp">
<polygon fill="none" stroke="black" points="0,-0.5 0,-19.5 86,-19.5 86,-0.5 0,-0.5"/>
<text text-anchor="middle" x="43" y="-7.5" font-family="Helvetica,sans-Serif" font-size="10.00">LocalProfile.cpp</text>
</a>
</g>
</g>
<!-- Node1&#45;&gt;Node2 -->
<g id="edge1" class="edge"><title>Node1&#45;&gt;Node2</title>
<path fill="none" stroke="midnightblue" d="M368.95,-59.203C307.509,-51.0178 192.63,-35.3528 95,-20 92.1038,-19.5446 89.1191,-19.0623 86.1133,-18.5672"/>
<polygon fill="midnightblue" stroke="midnightblue" points="368.689,-62.699 379.063,-60.5469 369.612,-55.76 368.689,-62.699"/>
</g>
<!-- Node3 -->
<g id="node3" class="node"><title>Node3</title>
<g id="a_node3"><a xlink:href="_core_8cpp.html" target="_top" xlink:title="Core.cpp">
<polygon fill="none" stroke="black" points="104,-0.5 104,-19.5 160,-19.5 160,-0.5 104,-0.5"/>
<text text-anchor="middle" x="132" y="-7.5" font-family="Helvetica,sans-Serif" font-size="10.00">Core.cpp</text>
</a>
</g>
</g>
<!-- Node1&#45;&gt;Node3 -->
<g id="edge2" class="edge"><title>Node1&#45;&gt;Node3</title>
<path fill="none" stroke="midnightblue" d="M369.406,-57.7216C320.479,-49.3761 238.806,-34.9146 169,-20 166.155,-19.3922 163.196,-18.7275 160.244,-18.0434"/>
<polygon fill="midnightblue" stroke="midnightblue" points="368.889,-61.1838 379.334,-59.4076 370.061,-54.2826 368.889,-61.1838"/>
</g>
<!-- Node4 -->
<g id="node4" class="node"><title>Node4</title>
<g id="a_node4"><a xlink:href="_class_8cpp.html" target="_top" xlink:title="Class.cpp">
<polygon fill="none" stroke="black" points="178.5,-0.5 178.5,-19.5 239.5,-19.5 239.5,-0.5 178.5,-0.5"/>
<text text-anchor="middle" x="209" y="-7.5" font-family="Helvetica,sans-Serif" font-size="10.00">Class.cpp</text>
</a>
</g>
</g>
<!-- Node1&#45;&gt;Node4 -->
<g id="edge3" class="edge"><title>Node1&#45;&gt;Node4</title>
<path fill="none" stroke="midnightblue" d="M370.896,-53.8549C331.76,-43.4952 274.404,-28.313 239.507,-19.0755"/>
<polygon fill="midnightblue" stroke="midnightblue" points="370.113,-57.268 380.676,-56.4435 371.904,-50.5011 370.113,-57.268"/>
</g>
<!-- Node5 -->
<g id="node5" class="node"><title>Node5</title>
<g id="a_node5"><a xlink:href="_event_8cpp.html" target="_top" xlink:title="Event.cpp">
<polygon fill="none" stroke="black" points="257.5,-0.5 257.5,-19.5 318.5,-19.5 318.5,-0.5 257.5,-0.5"/>
<text text-anchor="middle" x="288" y="-7.5" font-family="Helvetica,sans-Serif" font-size="10.00">Event.cpp</text>
</a>
</g>
</g>
<!-- Node1&#45;&gt;Node5 -->
<g id="edge4" class="edge"><title>Node1&#45;&gt;Node5</title>
<path fill="none" stroke="midnightblue" d="M383.759,-52.3678C360.35,-42.2553 328.159,-28.3486 307.714,-19.5164"/>
<polygon fill="midnightblue" stroke="midnightblue" points="382.625,-55.6907 393.193,-56.4435 385.401,-49.2647 382.625,-55.6907"/>
</g>
<!-- Node6 -->
<g id="node6" class="node"><title>Node6</title>
<g id="a_node6"><a xlink:href="_method_8cpp.html" target="_top" xlink:title="Method.cpp">
<polygon fill="none" stroke="black" points="337,-0.5 337,-19.5 405,-19.5 405,-0.5 337,-0.5"/>
<text text-anchor="middle" x="371" y="-7.5" font-family="Helvetica,sans-Serif" font-size="10.00">Method.cpp</text>
</a>
</g>
</g>
<!-- Node1&#45;&gt;Node6 -->
<g id="edge5" class="edge"><title>Node1&#45;&gt;Node6</title>
<path fill="none" stroke="midnightblue" d="M399.89,-48.144C392.572,-38.7357 383.759,-27.4046 377.806,-19.7511"/>
<polygon fill="midnightblue" stroke="midnightblue" points="397.162,-50.3383 406.065,-56.083 402.688,-46.0406 397.162,-50.3383"/>
</g>
<!-- Node7 -->
<g id="node7" class="node"><title>Node7</title>
<g id="a_node7"><a xlink:href="_config_8cpp.html" target="_top" xlink:title="Config.cpp">
<polygon fill="none" stroke="black" points="423,-0.5 423,-19.5 487,-19.5 487,-0.5 423,-0.5"/>
<text text-anchor="middle" x="455" y="-7.5" font-family="Helvetica,sans-Serif" font-size="10.00">Config.cpp</text>
</a>
</g>
</g>
<!-- Node1&#45;&gt;Node7 -->
<g id="edge6" class="edge"><title>Node1&#45;&gt;Node7</title>
<path fill="none" stroke="midnightblue" d="M426.11,-48.144C433.428,-38.7357 442.241,-27.4046 448.194,-19.7511"/>
<polygon fill="midnightblue" stroke="midnightblue" points="423.312,-46.0406 419.935,-56.083 428.838,-50.3383 423.312,-46.0406"/>
</g>
<!-- Node8 -->
<g id="node8" class="node"><title>Node8</title>
<g id="a_node8"><a xlink:href="_inspect_map_node_8cpp.html" target="_top" xlink:title="InspectMapNode.cpp">
<polygon fill="none" stroke="black" points="505,-0.5 505,-19.5 615,-19.5 615,-0.5 505,-0.5"/>
<text text-anchor="middle" x="560" y="-7.5" font-family="Helvetica,sans-Serif" font-size="10.00">InspectMapNode.cpp</text>
</a>
</g>
</g>
<!-- Node1&#45;&gt;Node8 -->
<g id="edge7" class="edge"><title>Node1&#45;&gt;Node8</title>
<path fill="none" stroke="midnightblue" d="M445.923,-52.9058C473.56,-42.7536 512.344,-28.5063 536.816,-19.5164"/>
<polygon fill="midnightblue" stroke="midnightblue" points="444.472,-49.71 436.293,-56.4435 446.886,-56.2806 444.472,-49.71"/>
</g>
<!-- Node9 -->
<g id="node9" class="node"><title>Node9</title>
<g id="a_node9"><a xlink:href="_locale_8cpp.html" target="_top" xlink:title="Locale.cpp">
<polygon fill="none" stroke="black" points="633,-0.5 633,-19.5 697,-19.5 697,-0.5 633,-0.5"/>
<text text-anchor="middle" x="665" y="-7.5" font-family="Helvetica,sans-Serif" font-size="10.00">Locale.cpp</text>
</a>
</g>
</g>
<!-- Node1&#45;&gt;Node9 -->
<g id="edge8" class="edge"><title>Node1&#45;&gt;Node9</title>
<path fill="none" stroke="midnightblue" d="M456.681,-55.7636C499.362,-46.7196 566.168,-32.5142 624,-20 626.849,-19.3835 629.809,-18.7399 632.775,-18.0928"/>
<polygon fill="midnightblue" stroke="midnightblue" points="455.691,-52.3954 446.634,-57.8915 457.142,-59.2435 455.691,-52.3954"/>
</g>
<!-- Node10 -->
<g id="node10" class="node"><title>Node10</title>
<g id="a_node10"><a xlink:href="_map_node_8cpp.html" target="_top" xlink:title="MapNode.cpp">
<polygon fill="none" stroke="black" points="715.5,-0.5 715.5,-19.5 792.5,-19.5 792.5,-0.5 715.5,-0.5"/>
<text text-anchor="middle" x="754" y="-7.5" font-family="Helvetica,sans-Serif" font-size="10.00">MapNode.cpp</text>
</a>
</g>
</g>
<!-- Node1&#45;&gt;Node10 -->
<g id="edge9" class="edge"><title>Node1&#45;&gt;Node10</title>
<path fill="none" stroke="midnightblue" d="M457.064,-58.6947C514.46,-50.3756 617.883,-35.0234 706,-20 709.009,-19.487 712.121,-18.9403 715.247,-18.3795"/>
<polygon fill="midnightblue" stroke="midnightblue" points="456.292,-55.2697 446.896,-60.1645 457.294,-62.1977 456.292,-55.2697"/>
</g>
<!-- Node11 -->
<g id="node11" class="node"><title>Node11</title>
<g id="a_node11"><a xlink:href="_node_factory_8cpp.html" target="_top" xlink:title="NodeFactory.cpp">
<polygon fill="none" stroke="black" points="811,-0.5 811,-19.5 903,-19.5 903,-0.5 811,-0.5"/>
<text text-anchor="middle" x="857" y="-7.5" font-family="Helvetica,sans-Serif" font-size="10.00">NodeFactory.cpp</text>
</a>
</g>
</g>
<!-- Node1&#45;&gt;Node11 -->
<g id="edge10" class="edge"><title>Node1&#45;&gt;Node11</title>
<path fill="none" stroke="midnightblue" d="M456.698,-60.6223C528.765,-53.2505 677.017,-37.4451 802,-20 804.875,-19.5987 807.831,-19.1679 810.81,-18.72"/>
<polygon fill="midnightblue" stroke="midnightblue" points="456.223,-57.1524 446.629,-61.6479 456.932,-64.1164 456.223,-57.1524"/>
</g>
</g>
</svg>
