<?xml version="1.0" encoding="UTF-8" standalone="no"?>
<!DOCTYPE svg PUBLIC "-//W3C//DTD SVG 1.1//EN"
 "http://www.w3.org/Graphics/SVG/1.1/DTD/svg11.dtd">
<!-- Generated by graphviz version 2.26.3 (20100126.1600)
 -->
<!-- Title: MapNode.cpp Pages: 1 -->
<svg width="490pt" height="262pt"
 viewBox="0.00 0.00 490.00 262.00" xmlns="http://www.w3.org/2000/svg" xmlns:xlink="http://www.w3.org/1999/xlink">
<g id="graph1" class="graph" transform="scale(1 1) rotate(0) translate(4 258)">
<title>MapNode.cpp</title>
<!-- Node1 -->
<g id="node1" class="node"><title>Node1</title>
<polygon fill="#bfbfbf" stroke="black" points="248.5,-233 248.5,-253 325.5,-253 325.5,-233 248.5,-233"/>
<text text-anchor="middle" x="287" y="-240" font-family="FreeSans" font-size="10.00">MapNode.cpp</text>
</g>
<!-- Node2 -->
<g id="node3" class="node"><title>Node2</title>
<polygon fill="none" stroke="#bfbfbf" points="117,-175 117,-195 185,-195 185,-175 117,-175"/>
<text text-anchor="middle" x="151" y="-182" font-family="FreeSans" font-size="10.00">../../StdAfx.h</text>
</g>
<!-- Node1&#45;&gt;Node2 -->
<g id="edge2" class="edge"><title>Node1&#45;&gt;Node2</title>
<path fill="none" stroke="midnightblue" d="M263.311,-232.897C241.408,-223.556 208.643,-209.583 184.147,-199.136"/>
<polygon fill="midnightblue" stroke="midnightblue" points="185.446,-195.885 174.874,-195.182 182.7,-202.324 185.446,-195.885"/>
</g>
<!-- Node3 -->
<g id="node5" class="node"><title>Node3</title>
<a xlink:href="_node_factory_8h.html" target="_top" xlink:title="NodeFactory.h">
<polygon fill="none" stroke="black" points="295,-175 295,-195 375,-195 375,-175 295,-175"/>
<text text-anchor="middle" x="335" y="-182" font-family="FreeSans" font-size="10.00">NodeFactory.h</text>
</a>
</g>
<!-- Node1&#45;&gt;Node3 -->
<g id="edge4" class="edge"><title>Node1&#45;&gt;Node3</title>
<path fill="none" stroke="midnightblue" d="M295.361,-232.897C302.092,-224.764 311.73,-213.118 319.816,-203.347"/>
<polygon fill="midnightblue" stroke="midnightblue" points="322.732,-205.313 326.412,-195.378 317.34,-200.85 322.732,-205.313"/>
</g>
<!-- Node7 -->
<g id="node13" class="node"><title>Node7</title>
<a xlink:href="_scalar_node_8h.html" target="_top" xlink:title="ScalarNode.h">
<polygon fill="none" stroke="black" points="202.5,-175 202.5,-195 277.5,-195 277.5,-175 202.5,-175"/>
<text text-anchor="middle" x="240" y="-182" font-family="FreeSans" font-size="10.00">ScalarNode.h</text>
</a>
</g>
<!-- Node1&#45;&gt;Node7 -->
<g id="edge12" class="edge"><title>Node1&#45;&gt;Node7</title>
<path fill="none" stroke="midnightblue" d="M278.813,-232.897C272.223,-224.764 262.786,-213.118 254.867,-203.347"/>
<polygon fill="midnightblue" stroke="midnightblue" points="257.425,-200.943 248.409,-195.378 251.986,-205.351 257.425,-200.943"/>
</g>
<!-- Node16 -->
<g id="node33" class="node"><title>Node16</title>
<a xlink:href="_map_node_8h.html" target="_top" xlink:title="MapNode.h">
<polygon fill="none" stroke="black" points="393,-175 393,-195 459,-195 459,-175 393,-175"/>
<text text-anchor="middle" x="426" y="-182" font-family="FreeSans" font-size="10.00">MapNode.h</text>
</a>
</g>
<!-- Node1&#45;&gt;Node16 -->
<g id="edge34" class="edge"><title>Node1&#45;&gt;Node16</title>
<path fill="none" stroke="midnightblue" d="M311.212,-232.897C333.597,-223.556 367.085,-209.583 392.122,-199.136"/>
<polygon fill="midnightblue" stroke="midnightblue" points="393.718,-202.263 401.599,-195.182 391.022,-195.803 393.718,-202.263"/>
</g>
<!-- Node4 -->
<g id="node7" class="node"><title>Node4</title>
<a xlink:href="_node_8h.html" target="_top" xlink:title="Node.h">
<polygon fill="none" stroke="black" points="369.5,-117 369.5,-137 416.5,-137 416.5,-117 369.5,-117"/>
<text text-anchor="middle" x="393" y="-124" font-family="FreeSans" font-size="10.00">Node.h</text>
</a>
</g>
<!-- Node3&#45;&gt;Node4 -->
<g id="edge6" class="edge"><title>Node3&#45;&gt;Node4</title>
<path fill="none" stroke="midnightblue" d="M345.103,-174.897C353.483,-166.517 365.591,-154.409 375.536,-144.464"/>
<polygon fill="midnightblue" stroke="midnightblue" points="378.026,-146.924 382.622,-137.378 373.076,-141.974 378.026,-146.924"/>
</g>
<!-- Node5 -->
<g id="node9" class="node"><title>Node5</title>
<polygon fill="none" stroke="#bfbfbf" points="438,-59 438,-79 482,-79 482,-59 438,-59"/>
<text text-anchor="middle" x="460" y="-66" font-family="FreeSans" font-size="10.00">yaml.h</text>
</g>
<!-- Node4&#45;&gt;Node5 -->
<g id="edge8" class="edge"><title>Node4&#45;&gt;Node5</title>
<path fill="none" stroke="midnightblue" d="M404.671,-116.897C414.445,-108.435 428.612,-96.1715 440.163,-86.1719"/>
<polygon fill="midnightblue" stroke="midnightblue" points="442.742,-88.5689 448.012,-79.3776 438.161,-83.2764 442.742,-88.5689"/>
</g>
<!-- Node6 -->
<g id="node11" class="node"><title>Node6</title>
<polygon fill="none" stroke="#bfbfbf" points="379.5,-59 379.5,-79 420.5,-79 420.5,-59 379.5,-59"/>
<text text-anchor="middle" x="400" y="-66" font-family="FreeSans" font-size="10.00">string</text>
</g>
<!-- Node4&#45;&gt;Node6 -->
<g id="edge10" class="edge"><title>Node4&#45;&gt;Node6</title>
<path fill="none" stroke="midnightblue" d="M394.219,-116.897C395.131,-109.339 396.41,-98.7476 397.532,-89.4458"/>
<polygon fill="midnightblue" stroke="midnightblue" points="401.024,-89.725 398.748,-79.3776 394.074,-88.8862 401.024,-89.725"/>
</g>
<!-- Node7&#45;&gt;Node4 -->
<g id="edge32" class="edge"><title>Node7&#45;&gt;Node4</title>
<path fill="none" stroke="midnightblue" d="M266.651,-174.897C292.537,-165.084 331.911,-150.158 359.816,-139.58"/>
<polygon fill="midnightblue" stroke="midnightblue" points="361.057,-142.852 369.167,-136.035 358.576,-136.307 361.057,-142.852"/>
</g>
<!-- Node8 -->
<g id="node15" class="node"><title>Node8</title>
<polygon fill="none" stroke="#bfbfbf" points="146.5,-117 146.5,-137 193.5,-137 193.5,-117 146.5,-117"/>
<text text-anchor="middle" x="170" y="-124" font-family="FreeSans" font-size="10.00">limits.h</text>
</g>
<!-- Node7&#45;&gt;Node8 -->
<g id="edge14" class="edge"><title>Node7&#45;&gt;Node8</title>
<path fill="none" stroke="midnightblue" d="M227.807,-174.897C217.495,-166.353 202.505,-153.933 190.374,-143.881"/>
<polygon fill="midnightblue" stroke="midnightblue" points="192.458,-141.063 182.525,-137.378 187.992,-146.453 192.458,-141.063"/>
</g>
<!-- Node9 -->
<g id="node17" class="node"><title>Node9</title>
<a xlink:href="_o_s_8h.html" target="_top" xlink:title="../OS.h">
<polygon fill="none" stroke="black" points="211,-117 211,-137 257,-137 257,-117 211,-117"/>
<text text-anchor="middle" x="234" y="-124" font-family="FreeSans" font-size="10.00">../OS.h</text>
</a>
</g>
<!-- Node7&#45;&gt;Node9 -->
<g id="edge16" class="edge"><title>Node7&#45;&gt;Node9</title>
<path fill="none" stroke="midnightblue" d="M238.955,-174.897C238.173,-167.339 237.077,-156.748 236.115,-147.446"/>
<polygon fill="midnightblue" stroke="midnightblue" points="239.584,-146.964 235.074,-137.378 232.621,-147.685 239.584,-146.964"/>
</g>
<!-- Node9&#45;&gt;Node6 -->
<g id="edge22" class="edge"><title>Node9&#45;&gt;Node6</title>
<path fill="none" stroke="midnightblue" d="M257.351,-119.243C282.867,-110.712 325.164,-96.4107 369.865,-80.3468"/>
<polygon fill="midnightblue" stroke="midnightblue" points="371.217,-83.58 379.435,-76.8936 368.841,-76.9956 371.217,-83.58"/>
</g>
<!-- Node10 -->
<g id="node19" class="node"><title>Node10</title>
<polygon fill="none" stroke="#bfbfbf" points="0,-59 0,-79 42,-79 42,-59 0,-59"/>
<text text-anchor="middle" x="21" y="-66" font-family="FreeSans" font-size="10.00">locale</text>
</g>
<!-- Node9&#45;&gt;Node10 -->
<g id="edge18" class="edge"><title>Node9&#45;&gt;Node10</title>
<path fill="none" stroke="midnightblue" d="M210.665,-118.686C207.76,-117.738 204.821,-116.819 202,-116 138.72,-97.6275 118.832,-99.6722 51.9586,-80.0416"/>
<polygon fill="midnightblue" stroke="midnightblue" points="52.7849,-76.6356 42.2013,-77.1235 50.7791,-83.3421 52.7849,-76.6356"/>
</g>
<!-- Node11 -->
<g id="node21" class="node"><title>Node11</title>
<polygon fill="none" stroke="#bfbfbf" points="60,-59 60,-79 90,-79 90,-59 60,-59"/>
<text text-anchor="middle" x="75" y="-66" font-family="FreeSans" font-size="10.00">set</text>
</g>
<!-- Node9&#45;&gt;Node11 -->
<g id="edge20" class="edge"><title>Node9&#45;&gt;Node11</title>
<path fill="none" stroke="midnightblue" d="M210.739,-118.966C178.937,-107.974 123.701,-88.8521 99.4918,-79.8252"/>
<polygon fill="midnightblue" stroke="midnightblue" points="100.73,-76.5516 90.1411,-76.2023 98.2012,-83.0788 100.73,-76.5516"/>
</g>
<!-- Node12 -->
<g id="node24" class="node"><title>Node12</title>
<polygon fill="none" stroke="#bfbfbf" points="108,-59 108,-79 152,-79 152,-59 108,-59"/>
<text text-anchor="middle" x="130" y="-66" font-family="FreeSans" font-size="10.00">vector</text>
</g>
<!-- Node9&#45;&gt;Node12 -->
<g id="edge24" class="edge"><title>Node9&#45;&gt;Node12</title>
<path fill="none" stroke="midnightblue" d="M215.885,-116.897C199.655,-107.846 175.624,-94.4442 157.106,-84.117"/>
<polygon fill="midnightblue" stroke="midnightblue" points="158.695,-80.9956 148.257,-79.1817 155.286,-87.1092 158.695,-80.9956"/>
</g>
<!-- Node13 -->
<g id="node26" class="node"><title>Node13</title>
<polygon fill="none" stroke="#bfbfbf" points="169.5,-59 169.5,-79 274.5,-79 274.5,-59 169.5,-59"/>
<text text-anchor="middle" x="222" y="-66" font-family="FreeSans" font-size="10.00">boost/filesystem.hpp</text>
</g>
<!-- Node9&#45;&gt;Node13 -->
<g id="edge26" class="edge"><title>Node9&#45;&gt;Node13</title>
<path fill="none" stroke="midnightblue" d="M231.91,-116.897C230.346,-109.339 228.155,-98.7476 226.23,-89.4458"/>
<polygon fill="midnightblue" stroke="midnightblue" points="229.601,-88.4611 224.147,-79.3776 222.746,-89.8794 229.601,-88.4611"/>
</g>
<!-- Node14 -->
<g id="node28" class="node"><title>Node14</title>
<a xlink:href="_m_r___types_8h.html" target="_top" xlink:title="MR_Types.h">
<polygon fill="none" stroke="black" points="291.5,-59 291.5,-79 362.5,-79 362.5,-59 291.5,-59"/>
<text text-anchor="middle" x="327" y="-66" font-family="FreeSans" font-size="10.00">MR_Types.h</text>
</a>
</g>
<!-- Node9&#45;&gt;Node14 -->
<g id="edge28" class="edge"><title>Node9&#45;&gt;Node14</title>
<path fill="none" stroke="midnightblue" d="M250.199,-116.897C264.514,-107.97 285.614,-94.8106 302.077,-84.5431"/>
<polygon fill="midnightblue" stroke="midnightblue" points="304.041,-87.4433 310.674,-79.1817 300.337,-81.5037 304.041,-87.4433"/>
</g>
<!-- Node15 -->
<g id="node30" class="node"><title>Node15</title>
<polygon fill="none" stroke="#bfbfbf" points="298,-1 298,-21 356,-21 356,-1 298,-1"/>
<text text-anchor="middle" x="327" y="-8" font-family="FreeSans" font-size="10.00">inttypes.h</text>
</g>
<!-- Node14&#45;&gt;Node15 -->
<g id="edge30" class="edge"><title>Node14&#45;&gt;Node15</title>
<path fill="none" stroke="midnightblue" d="M327,-58.8972C327,-51.339 327,-40.7476 327,-31.4458"/>
<polygon fill="midnightblue" stroke="midnightblue" points="330.5,-31.3776 327,-21.3776 323.5,-31.3776 330.5,-31.3776"/>
</g>
<!-- Node16&#45;&gt;Node4 -->
<g id="edge38" class="edge"><title>Node16&#45;&gt;Node4</title>
<path fill="none" stroke="midnightblue" d="M420.252,-174.897C415.765,-167.01 409.398,-155.821 403.947,-146.24"/>
<polygon fill="midnightblue" stroke="midnightblue" points="406.892,-144.338 398.904,-137.378 400.808,-147.8 406.892,-144.338"/>
</g>
<!-- Node17 -->
<g id="node35" class="node"><title>Node17</title>
<polygon fill="none" stroke="#bfbfbf" points="433.5,-117 433.5,-137 468.5,-137 468.5,-117 433.5,-117"/>
<text text-anchor="middle" x="451" y="-124" font-family="FreeSans" font-size="10.00">map</text>
</g>
<!-- Node16&#45;&gt;Node17 -->
<g id="edge36" class="edge"><title>Node16&#45;&gt;Node17</title>
<path fill="none" stroke="midnightblue" d="M430.355,-174.897C433.683,-167.175 438.377,-156.286 442.448,-146.841"/>
<polygon fill="midnightblue" stroke="midnightblue" points="445.783,-147.946 446.527,-137.378 439.354,-145.175 445.783,-147.946"/>
</g>
</g>
</svg>
