<?xml version="1.0" encoding="UTF-8" standalone="no"?>
<!DOCTYPE svg PUBLIC "-//W3C//DTD SVG 1.1//EN"
 "http://www.w3.org/Graphics/SVG/1.1/DTD/svg11.dtd">
<!-- Generated by graphviz version 2.38.0 (20140413.2041)
 -->
<!-- Title: MapNode.h Pages: 1 -->
<svg width="500pt" height="196pt"
 viewBox="0.00 0.00 500.00 196.00" xmlns="http://www.w3.org/2000/svg" xmlns:xlink="http://www.w3.org/1999/xlink">
<g id="graph0" class="graph" transform="scale(1 1) rotate(0) translate(4 192)">
<title>MapNode.h</title>
<!-- Node1 -->
<g id="node1" class="node"><title>Node1</title>
<polygon fill="#bfbfbf" stroke="black" points="156.5,-168.5 156.5,-187.5 223.5,-187.5 223.5,-168.5 156.5,-168.5"/>
<text text-anchor="middle" x="190" y="-175.5" font-family="Helvetica,sans-Serif" font-size="10.00">MapNode.h</text>
</g>
<!-- Node2 -->
<g id="node2" class="node"><title>Node2</title>
<polygon fill="none" stroke="#bfbfbf" points="100,-112.5 100,-131.5 148,-131.5 148,-112.5 100,-112.5"/>
<text text-anchor="middle" x="124" y="-119.5" font-family="Helvetica,sans-Serif" font-size="10.00">limits.h</text>
</g>
<!-- Node1&#45;&gt;Node2 -->
<g id="edge1" class="edge"><title>Node1&#45;&gt;Node2</title>
<path fill="none" stroke="midnightblue" d="M179.396,-168.324C169.544,-160.263 154.649,-148.077 142.785,-138.369"/>
<polygon fill="midnightblue" stroke="midnightblue" points="144.753,-135.457 134.797,-131.834 140.32,-140.875 144.753,-135.457"/>
</g>
<!-- Node3 -->
<g id="node3" class="node"><title>Node3</title>
<g id="a_node3"><a xlink:href="_o_s_8h.html" target="_top" xlink:title="../OS.h">
<polygon fill="none" stroke="black" points="166,-112.5 166,-131.5 214,-131.5 214,-112.5 166,-112.5"/>
<text text-anchor="middle" x="190" y="-119.5" font-family="Helvetica,sans-Serif" font-size="10.00">../OS.h</text>
</a>
</g>
</g>
<!-- Node1&#45;&gt;Node3 -->
<g id="edge2" class="edge"><title>Node1&#45;&gt;Node3</title>
<path fill="none" stroke="midnightblue" d="M190,-168.083C190,-161.006 190,-150.861 190,-141.986"/>
<polygon fill="midnightblue" stroke="midnightblue" points="193.5,-141.751 190,-131.751 186.5,-141.751 193.5,-141.751"/>
</g>
<!-- Node11 -->
<g id="node11" class="node"><title>Node11</title>
<g id="a_node11"><a xlink:href="_node_8h.html" target="_top" xlink:title="Node.h">
<polygon fill="none" stroke="black" points="338,-112.5 338,-131.5 386,-131.5 386,-112.5 338,-112.5"/>
<text text-anchor="middle" x="362" y="-119.5" font-family="Helvetica,sans-Serif" font-size="10.00">Node.h</text>
</a>
</g>
</g>
<!-- Node1&#45;&gt;Node11 -->
<g id="edge10" class="edge"><title>Node1&#45;&gt;Node11</title>
<path fill="none" stroke="midnightblue" d="M217.254,-168.444C247.256,-159.024 295.528,-143.869 327.987,-133.679"/>
<polygon fill="midnightblue" stroke="midnightblue" points="329.434,-136.893 337.926,-130.558 327.337,-130.214 329.434,-136.893"/>
</g>
<!-- Node4 -->
<g id="node4" class="node"><title>Node4</title>
<polygon fill="none" stroke="#bfbfbf" points="0,-56.5 0,-75.5 42,-75.5 42,-56.5 0,-56.5"/>
<text text-anchor="middle" x="21" y="-63.5" font-family="Helvetica,sans-Serif" font-size="10.00">locale</text>
</g>
<!-- Node3&#45;&gt;Node4 -->
<g id="edge3" class="edge"><title>Node3&#45;&gt;Node4</title>
<path fill="none" stroke="midnightblue" d="M165.786,-113.263C135.762,-103.669 84.5478,-87.3052 51.7686,-76.8314"/>
<polygon fill="midnightblue" stroke="midnightblue" points="52.8224,-73.4938 42.2315,-73.784 50.6918,-80.1617 52.8224,-73.4938"/>
</g>
<!-- Node5 -->
<g id="node5" class="node"><title>Node5</title>
<polygon fill="none" stroke="#bfbfbf" points="60,-56.5 60,-75.5 90,-75.5 90,-56.5 60,-56.5"/>
<text text-anchor="middle" x="75" y="-63.5" font-family="Helvetica,sans-Serif" font-size="10.00">set</text>
</g>
<!-- Node3&#45;&gt;Node5 -->
<g id="edge4" class="edge"><title>Node3&#45;&gt;Node5</title>
<path fill="none" stroke="midnightblue" d="M171.778,-112.444C152.226,-103.262 121.067,-88.6313 99.4065,-78.4605"/>
<polygon fill="midnightblue" stroke="midnightblue" points="100.738,-75.2192 90.1988,-74.1368 97.7629,-81.5554 100.738,-75.2192"/>
</g>
<!-- Node6 -->
<g id="node6" class="node"><title>Node6</title>
<polygon fill="none" stroke="#bfbfbf" points="108.5,-56.5 108.5,-75.5 149.5,-75.5 149.5,-56.5 108.5,-56.5"/>
<text text-anchor="middle" x="129" y="-63.5" font-family="Helvetica,sans-Serif" font-size="10.00">string</text>
</g>
<!-- Node3&#45;&gt;Node6 -->
<g id="edge5" class="edge"><title>Node3&#45;&gt;Node6</title>
<path fill="none" stroke="midnightblue" d="M180.199,-112.324C171.182,-104.341 157.594,-92.3128 146.682,-82.6529"/>
<polygon fill="midnightblue" stroke="midnightblue" points="148.787,-79.8416 138.979,-75.8339 144.147,-85.083 148.787,-79.8416"/>
</g>
<!-- Node7 -->
<g id="node7" class="node"><title>Node7</title>
<polygon fill="none" stroke="#bfbfbf" points="168,-56.5 168,-75.5 212,-75.5 212,-56.5 168,-56.5"/>
<text text-anchor="middle" x="190" y="-63.5" font-family="Helvetica,sans-Serif" font-size="10.00">vector</text>
</g>
<!-- Node3&#45;&gt;Node7 -->
<g id="edge6" class="edge"><title>Node3&#45;&gt;Node7</title>
<path fill="none" stroke="midnightblue" d="M190,-112.083C190,-105.006 190,-94.8611 190,-85.9865"/>
<polygon fill="midnightblue" stroke="midnightblue" points="193.5,-85.751 190,-75.7511 186.5,-85.7511 193.5,-85.751"/>
</g>
<!-- Node8 -->
<g id="node8" class="node"><title>Node8</title>
<polygon fill="none" stroke="#bfbfbf" points="229.5,-56.5 229.5,-75.5 336.5,-75.5 336.5,-56.5 229.5,-56.5"/>
<text text-anchor="middle" x="283" y="-63.5" font-family="Helvetica,sans-Serif" font-size="10.00">boost/filesystem.hpp</text>
</g>
<!-- Node3&#45;&gt;Node8 -->
<g id="edge7" class="edge"><title>Node3&#45;&gt;Node8</title>
<path fill="none" stroke="midnightblue" d="M204.942,-112.324C219.585,-103.822 242.134,-90.7288 259.238,-80.7975"/>
<polygon fill="midnightblue" stroke="midnightblue" points="261.205,-83.7027 268.095,-75.6545 257.69,-77.6491 261.205,-83.7027"/>
</g>
<!-- Node9 -->
<g id="node9" class="node"><title>Node9</title>
<g id="a_node9"><a xlink:href="_m_r___types_8h.html" target="_top" xlink:title="MR_Types.h">
<polygon fill="none" stroke="black" points="354.5,-56.5 354.5,-75.5 427.5,-75.5 427.5,-56.5 354.5,-56.5"/>
<text text-anchor="middle" x="391" y="-63.5" font-family="Helvetica,sans-Serif" font-size="10.00">MR_Types.h</text>
</a>
</g>
</g>
<!-- Node3&#45;&gt;Node9 -->
<g id="edge8" class="edge"><title>Node3&#45;&gt;Node9</title>
<path fill="none" stroke="midnightblue" d="M214.245,-114.486C247.717,-105.494 308.565,-89.1467 349.387,-78.1796"/>
<polygon fill="midnightblue" stroke="midnightblue" points="350.3,-81.5585 359.049,-75.5837 348.484,-74.7982 350.3,-81.5585"/>
</g>
<!-- Node10 -->
<g id="node10" class="node"><title>Node10</title>
<polygon fill="none" stroke="#bfbfbf" points="361.5,-0.5 361.5,-19.5 420.5,-19.5 420.5,-0.5 361.5,-0.5"/>
<text text-anchor="middle" x="391" y="-7.5" font-family="Helvetica,sans-Serif" font-size="10.00">inttypes.h</text>
</g>
<!-- Node9&#45;&gt;Node10 -->
<g id="edge9" class="edge"><title>Node9&#45;&gt;Node10</title>
<path fill="none" stroke="midnightblue" d="M391,-56.083C391,-49.0059 391,-38.8611 391,-29.9865"/>
<polygon fill="midnightblue" stroke="midnightblue" points="394.5,-29.751 391,-19.7511 387.5,-29.7511 394.5,-29.751"/>
</g>
<!-- Node12 -->
<g id="node12" class="node"><title>Node12</title>
<polygon fill="none" stroke="#bfbfbf" points="446,-56.5 446,-75.5 492,-75.5 492,-56.5 446,-56.5"/>
<text text-anchor="middle" x="469" y="-63.5" font-family="Helvetica,sans-Serif" font-size="10.00">yaml.h</text>
</g>
<!-- Node11&#45;&gt;Node12 -->
<g id="edge11" class="edge"><title>Node11&#45;&gt;Node12</title>
<path fill="none" stroke="midnightblue" d="M379.191,-112.324C396.351,-103.664 422.946,-90.2424 442.747,-80.249"/>
<polygon fill="midnightblue" stroke="midnightblue" points="444.501,-83.2847 451.851,-75.6545 441.347,-77.0354 444.501,-83.2847"/>
</g>
</g>
</svg>
