<?xml version="1.0" encoding="UTF-8" standalone="no"?>
<!DOCTYPE svg PUBLIC "-//W3C//DTD SVG 1.1//EN"
 "http://www.w3.org/Graphics/SVG/1.1/DTD/svg11.dtd">
<!-- Generated by graphviz version 2.26.3 (20100126.1600)
 -->
<!-- Title: MapNode.h Pages: 1 -->
<svg width="788pt" height="88pt"
 viewBox="0.00 0.00 788.00 88.00" xmlns="http://www.w3.org/2000/svg" xmlns:xlink="http://www.w3.org/1999/xlink">
<g id="graph1" class="graph" transform="scale(1 1) rotate(0) translate(4 84)">
<title>MapNode.h</title>
<!-- Node1 -->
<g id="node1" class="node"><title>Node1</title>
<polygon fill="#bfbfbf" stroke="black" points="306,-59 306,-79 372,-79 372,-59 306,-59"/>
<text text-anchor="middle" x="339" y="-66" font-family="FreeSans" font-size="10.00">MapNode.h</text>
</g>
<!-- Node2 -->
<g id="node3" class="node"><title>Node2</title>
<a xlink:href="_core_8cpp.html" target="_top" xlink:title="Core.cpp">
<polygon fill="none" stroke="black" points="-0.5,-1 -0.5,-21 54.5,-21 54.5,-1 -0.5,-1"/>
<text text-anchor="middle" x="27" y="-8" font-family="FreeSans" font-size="10.00">Core.cpp</text>
</a>
</g>
<!-- Node1&#45;&gt;Node2 -->
<g id="edge2" class="edge"><title>Node1&#45;&gt;Node2</title>
<path fill="none" stroke="midnightblue" d="M295.554,-63.3542C240.888,-55.8502 144.314,-41.263 63,-22 60.3291,-21.3673 57.5656,-20.6461 54.8118,-19.8825"/>
<polygon fill="midnightblue" stroke="midnightblue" points="295.206,-66.839 305.586,-64.7162 296.147,-59.9026 295.206,-66.839"/>
</g>
<!-- Node3 -->
<g id="node5" class="node"><title>Node3</title>
<a xlink:href="_class_8cpp.html" target="_top" xlink:title="Class.cpp">
<polygon fill="none" stroke="black" points="71.5,-1 71.5,-21 130.5,-21 130.5,-1 71.5,-1"/>
<text text-anchor="middle" x="101" y="-8" font-family="FreeSans" font-size="10.00">Class.cpp</text>
</a>
</g>
<!-- Node1&#45;&gt;Node3 -->
<g id="edge4" class="edge"><title>Node1&#45;&gt;Node3</title>
<path fill="none" stroke="midnightblue" d="M296.129,-59.5897C255.525,-50.5199 192.914,-36.1284 139,-22 136.343,-21.3036 133.588,-20.5563 130.831,-19.7909"/>
<polygon fill="midnightblue" stroke="midnightblue" points="295.438,-63.0214 305.96,-61.7775 296.959,-56.1886 295.438,-63.0214"/>
</g>
<!-- Node4 -->
<g id="node7" class="node"><title>Node4</title>
<a xlink:href="_event_8cpp.html" target="_top" xlink:title="Event.cpp">
<polygon fill="none" stroke="black" points="147.5,-1 147.5,-21 206.5,-21 206.5,-1 147.5,-1"/>
<text text-anchor="middle" x="177" y="-8" font-family="FreeSans" font-size="10.00">Event.cpp</text>
</a>
</g>
<!-- Node1&#45;&gt;Node4 -->
<g id="edge6" class="edge"><title>Node1&#45;&gt;Node4</title>
<path fill="none" stroke="midnightblue" d="M301.268,-55.491C271.896,-44.9752 231.781,-30.6131 205.166,-21.0842"/>
<polygon fill="midnightblue" stroke="midnightblue" points="300.187,-58.8216 310.782,-58.8972 302.547,-52.2312 300.187,-58.8216"/>
</g>
<!-- Node5 -->
<g id="node9" class="node"><title>Node5</title>
<a xlink:href="_method_8cpp.html" target="_top" xlink:title="Method.cpp">
<polygon fill="none" stroke="black" points="223.5,-1 223.5,-21 290.5,-21 290.5,-1 223.5,-1"/>
<text text-anchor="middle" x="257" y="-8" font-family="FreeSans" font-size="10.00">Method.cpp</text>
</a>
</g>
<!-- Node1&#45;&gt;Node5 -->
<g id="edge8" class="edge"><title>Node1&#45;&gt;Node5</title>
<path fill="none" stroke="midnightblue" d="M316.344,-52.975C301.974,-42.8109 283.817,-29.9681 271.395,-21.1817"/>
<polygon fill="midnightblue" stroke="midnightblue" points="314.531,-55.9799 324.717,-58.8972 318.574,-50.265 314.531,-55.9799"/>
</g>
<!-- Node6 -->
<g id="node11" class="node"><title>Node6</title>
<a xlink:href="_config_8cpp.html" target="_top" xlink:title="Config.cpp">
<polygon fill="none" stroke="black" points="308,-1 308,-21 370,-21 370,-1 308,-1"/>
<text text-anchor="middle" x="339" y="-8" font-family="FreeSans" font-size="10.00">Config.cpp</text>
</a>
</g>
<!-- Node1&#45;&gt;Node6 -->
<g id="edge10" class="edge"><title>Node1&#45;&gt;Node6</title>
<path fill="none" stroke="midnightblue" d="M339,-48.8902C339,-39.6201 339,-29.0083 339,-21.3776"/>
<polygon fill="midnightblue" stroke="midnightblue" points="335.5,-48.8971 339,-58.8972 342.5,-48.8972 335.5,-48.8971"/>
</g>
<!-- Node7 -->
<g id="node13" class="node"><title>Node7</title>
<a xlink:href="_inspect_map_node_8cpp.html" target="_top" xlink:title="InspectMapNode.cpp">
<polygon fill="none" stroke="black" points="387.5,-1 387.5,-21 496.5,-21 496.5,-1 387.5,-1"/>
<text text-anchor="middle" x="442" y="-8" font-family="FreeSans" font-size="10.00">InspectMapNode.cpp</text>
</a>
</g>
<!-- Node1&#45;&gt;Node7 -->
<g id="edge12" class="edge"><title>Node1&#45;&gt;Node7</title>
<path fill="none" stroke="midnightblue" d="M365.686,-53.9728C383.994,-43.6634 407.8,-30.2582 423.919,-21.1817"/>
<polygon fill="midnightblue" stroke="midnightblue" points="363.937,-50.9408 356.941,-58.8972 367.372,-57.0402 363.937,-50.9408"/>
</g>
<!-- Node8 -->
<g id="node15" class="node"><title>Node8</title>
<a xlink:href="_locale_8cpp.html" target="_top" xlink:title="Locale.cpp">
<polygon fill="none" stroke="black" points="514,-1 514,-21 578,-21 578,-1 514,-1"/>
<text text-anchor="middle" x="546" y="-8" font-family="FreeSans" font-size="10.00">Locale.cpp</text>
</a>
</g>
<!-- Node1&#45;&gt;Node8 -->
<g id="edge14" class="edge"><title>Node1&#45;&gt;Node8</title>
<path fill="none" stroke="midnightblue" d="M382.078,-56.9298C421.336,-45.9301 478.44,-29.9299 513.846,-20.0093"/>
<polygon fill="midnightblue" stroke="midnightblue" points="380.943,-53.613 372.258,-59.6813 382.832,-60.3534 380.943,-53.613"/>
</g>
<!-- Node9 -->
<g id="node17" class="node"><title>Node9</title>
<a xlink:href="_map_node_8cpp.html" target="_top" xlink:title="MapNode.cpp">
<polygon fill="none" stroke="black" points="595.5,-1 595.5,-21 672.5,-21 672.5,-1 595.5,-1"/>
<text text-anchor="middle" x="634" y="-8" font-family="FreeSans" font-size="10.00">MapNode.cpp</text>
</a>
</g>
<!-- Node1&#45;&gt;Node9 -->
<g id="edge16" class="edge"><title>Node1&#45;&gt;Node9</title>
<path fill="none" stroke="midnightblue" d="M382.437,-61.3468C432.036,-52.4736 515.555,-37.1233 587,-22 589.706,-21.4273 592.495,-20.8195 595.301,-20.1951"/>
<polygon fill="midnightblue" stroke="midnightblue" points="381.614,-57.9381 372.384,-63.1395 382.843,-64.8294 381.614,-57.9381"/>
</g>
<!-- Node10 -->
<g id="node19" class="node"><title>Node10</title>
<a xlink:href="_node_factory_8cpp.html" target="_top" xlink:title="NodeFactory.cpp">
<polygon fill="none" stroke="black" points="690,-1 690,-21 780,-21 780,-1 690,-1"/>
<text text-anchor="middle" x="735" y="-8" font-family="FreeSans" font-size="10.00">NodeFactory.cpp</text>
</a>
</g>
<!-- Node1&#45;&gt;Node10 -->
<g id="edge18" class="edge"><title>Node1&#45;&gt;Node10</title>
<path fill="none" stroke="midnightblue" d="M382.405,-63.9439C447.479,-56.1583 574.105,-40.2131 681,-22 683.924,-21.5018 686.931,-20.963 689.959,-20.4007"/>
<polygon fill="midnightblue" stroke="midnightblue" points="381.64,-60.5101 372.123,-65.1673 382.467,-67.4611 381.64,-60.5101"/>
</g>
</g>
</svg>
