<?xml version="1.0" encoding="UTF-8" standalone="no"?>
<!DOCTYPE svg PUBLIC "-//W3C//DTD SVG 1.1//EN"
 "http://www.w3.org/Graphics/SVG/1.1/DTD/svg11.dtd">
<!-- Generated by graphviz version 2.26.3 (20100126.1600)
 -->
<!-- Title: MapSprite.cpp Pages: 1 -->
<!--zoomable 494 -->
<svg id="main" version="1.1" xmlns="http://www.w3.org/2000/svg" xmlns:xlink="http://www.w3.org/1999/xlink" xml:space="preserve" onload="init(evt)">
<style type="text/css"><![CDATA[
.edge:hover path { stroke: red; }
.edge:hover polygon { stroke: red; fill: red; }
]]></style>
<script type="text/javascript"><![CDATA[
var edges = document.getElementsByTagName('g');
if (edges && edges.length) {
  for (var i=0;i<edges.length;i++) {
    if (edges[i].id.substr(0,4)=='edge') {
      edges[i].setAttribute('class','edge');
    }
  }
}
]]></script>
        <defs>
                <circle id="rim" cx="0" cy="0" r="7"/>
                <circle id="rim2" cx="0" cy="0" r="3.5"/>
                <g id="zoomPlus">
                        <use xlink:href="#rim" fill="#404040">
                                <set attributeName="fill" to="#808080" begin="zoomplus.mouseover" end="zoomplus.mouseout"/>
                        </use>
                        <path d="M-4,0h8M0,-4v8" fill="none" stroke="white" stroke-width="1.5" pointer-events="none"/>
                </g>
                <g id="zoomMin">
                        <use xlink:href="#rim" fill="#404040">
                                <set attributeName="fill" to="#808080" begin="zoomminus.mouseover" end="zoomminus.mouseout"/>
                        </use>
                        <path d="M-4,0h8" fill="none" stroke="white" stroke-width="1.5" pointer-events="none"/>
                </g>
                <g id="dirArrow">
                        <path fill="none" stroke="white" stroke-width="1.5" d="M0,-3.0v7 M-2.5,-0.5L0,-3.0L2.5,-0.5"/>
                </g>
               <g id="resetDef">
                       <use xlink:href="#rim2" fill="#404040">
                               <set attributeName="fill" to="#808080" begin="reset.mouseover" end="reset.mouseout"/>
                       </use>
               </g>
        </defs>

<script type="text/javascript">
var viewWidth = 813;
var viewHeight = 494;
var sectionId = 'dynsection-0';
</script>
<script xlink:href="svgpan.js"/>
<svg id="graph" class="graph">
<g id="viewport">
<title>MapSprite.cpp</title>
<!-- Node1 -->
<g id="node1" class="node"><title>Node1</title>
<polygon fill="#bfbfbf" stroke="black" points="237.5,-465 237.5,-485 316.5,-485 316.5,-465 237.5,-465"/>
<text text-anchor="middle" x="277" y="-472" font-family="FreeSans" font-size="10.00">MapSprite.cpp</text>
</g>
<!-- Node2 -->
<g id="node3" class="node"><title>Node2</title>
<a xlink:href="_exception_8h.html" target="_top" xlink:title="../Exception.h">
<polygon fill="none" stroke="black" points="115,-117 115,-137 189,-137 189,-117 115,-117"/>
<text text-anchor="middle" x="152" y="-124" font-family="FreeSans" font-size="10.00">../Exception.h</text>
</a>
</g>
<!-- Node1&#45;&gt;Node2 -->
<g id="edge2" class="edge"><title>Node1&#45;&gt;Node2</title>
<path fill="none" stroke="midnightblue" d="M262.751,-464.979C238.785,-446.825 193,-405.994 193,-359 193,-359 193,-359 193,-243 193,-207.09 175.317,-168.317 163.177,-145.928"/>
<polygon fill="midnightblue" stroke="midnightblue" points="166.18,-144.128 158.227,-137.128 160.079,-147.56 166.18,-144.128"/>
</g>
<!-- Node4 -->
<g id="node7" class="node"><title>Node4</title>
<a xlink:href="_map_sprite_8h.html" target="_top" xlink:title="MapSprite.h">
<polygon fill="none" stroke="black" points="327,-407 327,-427 395,-427 395,-407 327,-407"/>
<text text-anchor="middle" x="361" y="-414" font-family="FreeSans" font-size="10.00">MapSprite.h</text>
</a>
</g>
<!-- Node1&#45;&gt;Node4 -->
<g id="edge6" class="edge"><title>Node1&#45;&gt;Node4</title>
<path fill="none" stroke="midnightblue" d="M291.632,-464.897C304.322,-456.135 322.915,-443.297 337.659,-433.116"/>
<polygon fill="midnightblue" stroke="midnightblue" points="340.014,-435.744 346.254,-427.182 336.036,-429.983 340.014,-435.744"/>
</g>
<!-- Node3 -->
<g id="node5" class="node"><title>Node3</title>
<polygon fill="none" stroke="#bfbfbf" points="0,-59 0,-79 58,-79 58,-59 0,-59"/>
<text text-anchor="middle" x="29" y="-66" font-family="FreeSans" font-size="10.00">exception</text>
</g>
<!-- Node2&#45;&gt;Node3 -->
<g id="edge4" class="edge"><title>Node2&#45;&gt;Node3</title>
<path fill="none" stroke="midnightblue" d="M130.575,-116.897C111.029,-107.68 81.918,-93.9532 59.865,-83.5542"/>
<polygon fill="midnightblue" stroke="midnightblue" points="61.1298,-80.2811 50.5921,-79.1817 58.1442,-86.6125 61.1298,-80.2811"/>
</g>
<!-- Node5 -->
<g id="node9" class="node"><title>Node5</title>
<a xlink:href="_level_8h.html" target="_top" xlink:title="../Model/Level.h">
<polygon fill="none" stroke="black" points="457.5,-349 457.5,-369 542.5,-369 542.5,-349 457.5,-349"/>
<text text-anchor="middle" x="500" y="-356" font-family="FreeSans" font-size="10.00">../Model/Level.h</text>
</a>
</g>
<!-- Node4&#45;&gt;Node5 -->
<g id="edge8" class="edge"><title>Node4&#45;&gt;Node5</title>
<path fill="none" stroke="midnightblue" d="M385.212,-406.897C407.597,-397.556 441.085,-383.583 466.122,-373.136"/>
<polygon fill="midnightblue" stroke="midnightblue" points="467.718,-376.263 475.599,-369.182 465.022,-369.803 467.718,-376.263"/>
</g>
<!-- Node27 -->
<g id="node64" class="node"><title>Node27</title>
<a xlink:href="_sprite_8h.html" target="_top" xlink:title="../VideoServices/Sprite.h">
<polygon fill="none" stroke="black" points="299.5,-291 299.5,-311 422.5,-311 422.5,-291 299.5,-291"/>
<text text-anchor="middle" x="361" y="-298" font-family="FreeSans" font-size="10.00">../VideoServices/Sprite.h</text>
</a>
</g>
<!-- Node4&#45;&gt;Node27 -->
<g id="edge74" class="edge"><title>Node4&#45;&gt;Node27</title>
<path fill="none" stroke="midnightblue" d="M361,-406.706C361,-387.568 361,-346.198 361,-321.265"/>
<polygon fill="midnightblue" stroke="midnightblue" points="364.5,-321.105 361,-311.106 357.5,-321.106 364.5,-321.105"/>
</g>
<!-- Node6 -->
<g id="node11" class="node"><title>Node6</title>
<a xlink:href="_maze_element_8h.html" target="_top" xlink:title="MazeElement.h">
<polygon fill="none" stroke="black" points="458.5,-291 458.5,-311 541.5,-311 541.5,-291 458.5,-291"/>
<text text-anchor="middle" x="500" y="-298" font-family="FreeSans" font-size="10.00">MazeElement.h</text>
</a>
</g>
<!-- Node5&#45;&gt;Node6 -->
<g id="edge10" class="edge"><title>Node5&#45;&gt;Node6</title>
<path fill="none" stroke="midnightblue" d="M500,-348.897C500,-341.339 500,-330.748 500,-321.446"/>
<polygon fill="midnightblue" stroke="midnightblue" points="503.5,-321.378 500,-311.378 496.5,-321.378 503.5,-321.378"/>
</g>
<!-- Node26 -->
<g id="node61" class="node"><title>Node26</title>
<a xlink:href="_shape_collisions_8h.html" target="_top" xlink:title="ShapeCollisions.h">
<polygon fill="none" stroke="black" points="632,-291 632,-311 726,-311 726,-291 632,-291"/>
<text text-anchor="middle" x="679" y="-298" font-family="FreeSans" font-size="10.00">ShapeCollisions.h</text>
</a>
</g>
<!-- Node5&#45;&gt;Node26 -->
<g id="edge70" class="edge"><title>Node5&#45;&gt;Node26</title>
<path fill="none" stroke="midnightblue" d="M531.179,-348.897C560.863,-339.279 605.706,-324.749 638.215,-314.215"/>
<polygon fill="midnightblue" stroke="midnightblue" points="639.444,-317.496 647.878,-311.084 637.286,-310.837 639.444,-317.496"/>
</g>
<!-- Node7 -->
<g id="node13" class="node"><title>Node7</title>
<a xlink:href="_dll_object_factory_8h.html" target="_top" xlink:title="../Util/DllObjectFactory.h">
<polygon fill="none" stroke="black" points="246,-233 246,-253 368,-253 368,-233 246,-233"/>
<text text-anchor="middle" x="307" y="-240" font-family="FreeSans" font-size="10.00">../Util/DllObjectFactory.h</text>
</a>
</g>
<!-- Node6&#45;&gt;Node7 -->
<g id="edge12" class="edge"><title>Node6&#45;&gt;Node7</title>
<path fill="none" stroke="midnightblue" d="M466.382,-290.897C434.239,-281.238 385.61,-266.624 350.522,-256.079"/>
<polygon fill="midnightblue" stroke="midnightblue" points="351.14,-252.61 340.556,-253.084 349.126,-259.314 351.14,-252.61"/>
</g>
<!-- Node17 -->
<g id="node37" class="node"><title>Node17</title>
<a xlink:href="_viewport3_d_8h.html" target="_top" xlink:title="../VideoServices/Viewport3D.h">
<polygon fill="none" stroke="black" points="524,-233 524,-253 672,-253 672,-233 524,-233"/>
<text text-anchor="middle" x="598" y="-240" font-family="FreeSans" font-size="10.00">../VideoServices/Viewport3D.h</text>
</a>
</g>
<!-- Node6&#45;&gt;Node17 -->
<g id="edge40" class="edge"><title>Node6&#45;&gt;Node17</title>
<path fill="none" stroke="midnightblue" d="M517.07,-290.897C532.154,-281.97 554.389,-268.811 571.738,-258.543"/>
<polygon fill="midnightblue" stroke="midnightblue" points="573.973,-261.287 580.797,-253.182 570.408,-255.263 573.973,-261.287"/>
</g>
<!-- Node24 -->
<g id="node55" class="node"><title>Node24</title>
<a xlink:href="_contact_effect_8h.html" target="_top" xlink:title="ContactEffect.h">
<polygon fill="none" stroke="black" points="423.5,-233 423.5,-253 506.5,-253 506.5,-233 423.5,-233"/>
<text text-anchor="middle" x="465" y="-240" font-family="FreeSans" font-size="10.00">ContactEffect.h</text>
</a>
</g>
<!-- Node6&#45;&gt;Node24 -->
<g id="edge62" class="edge"><title>Node6&#45;&gt;Node24</title>
<path fill="none" stroke="midnightblue" d="M493.903,-290.897C489.095,-282.928 482.251,-271.587 476.43,-261.941"/>
<polygon fill="midnightblue" stroke="midnightblue" points="479.426,-260.131 471.262,-253.378 473.432,-263.748 479.426,-260.131"/>
</g>
<!-- Node25 -->
<g id="node58" class="node"><title>Node25</title>
<a xlink:href="_shapes_8h.html" target="_top" xlink:title="Shapes.h">
<polygon fill="none" stroke="black" points="689.5,-233 689.5,-253 746.5,-253 746.5,-233 689.5,-233"/>
<text text-anchor="middle" x="718" y="-240" font-family="FreeSans" font-size="10.00">Shapes.h</text>
</a>
</g>
<!-- Node6&#45;&gt;Node25 -->
<g id="edge66" class="edge"><title>Node6&#45;&gt;Node25</title>
<path fill="none" stroke="midnightblue" d="M540.366,-290.948C574.965,-282.236 626.37,-269.066 679.424,-254.385"/>
<polygon fill="midnightblue" stroke="midnightblue" points="680.648,-257.677 689.345,-251.626 678.773,-250.933 680.648,-257.677"/>
</g>
<!-- Node8 -->
<g id="node15" class="node"><title>Node8</title>
<a xlink:href="_obj_stream_8h.html" target="_top" xlink:title="../Parcel/ObjStream.h">
<polygon fill="none" stroke="black" points="222.5,-175 222.5,-195 331.5,-195 331.5,-175 222.5,-175"/>
<text text-anchor="middle" x="277" y="-182" font-family="FreeSans" font-size="10.00">../Parcel/ObjStream.h</text>
</a>
</g>
<!-- Node7&#45;&gt;Node8 -->
<g id="edge14" class="edge"><title>Node7&#45;&gt;Node8</title>
<path fill="none" stroke="midnightblue" d="M301.774,-232.897C297.738,-225.093 292.028,-214.054 287.107,-204.54"/>
<polygon fill="midnightblue" stroke="midnightblue" points="290.071,-202.652 282.368,-195.378 283.853,-205.868 290.071,-202.652"/>
</g>
<!-- Node10 -->
<g id="node20" class="node"><title>Node10</title>
<a xlink:href="_m_r___types_8h.html" target="_top" xlink:title="../Util/MR_Types.h">
<polygon fill="none" stroke="black" points="426,-59 426,-79 522,-79 522,-59 426,-59"/>
<text text-anchor="middle" x="474" y="-66" font-family="FreeSans" font-size="10.00">../Util/MR_Types.h</text>
</a>
</g>
<!-- Node7&#45;&gt;Node10 -->
<g id="edge38" class="edge"><title>Node7&#45;&gt;Node10</title>
<path fill="none" stroke="midnightblue" d="M316.7,-232.893C344.141,-204.302 422.567,-122.589 457.206,-86.4981"/>
<polygon fill="midnightblue" stroke="midnightblue" points="459.873,-88.7733 464.273,-79.135 454.823,-83.9261 459.873,-88.7733"/>
</g>
<!-- Node8&#45;&gt;Node2 -->
<g id="edge18" class="edge"><title>Node8&#45;&gt;Node2</title>
<path fill="none" stroke="midnightblue" d="M255.227,-174.897C235.274,-165.639 205.513,-151.83 183.066,-141.415"/>
<polygon fill="midnightblue" stroke="midnightblue" points="184.487,-138.216 173.943,-137.182 181.541,-144.566 184.487,-138.216"/>
</g>
<!-- Node9 -->
<g id="node17" class="node"><title>Node9</title>
<polygon fill="none" stroke="#bfbfbf" points="75.5,-59 75.5,-79 116.5,-79 116.5,-59 75.5,-59"/>
<text text-anchor="middle" x="96" y="-66" font-family="FreeSans" font-size="10.00">string</text>
</g>
<!-- Node8&#45;&gt;Node9 -->
<g id="edge16" class="edge"><title>Node8&#45;&gt;Node9</title>
<path fill="none" stroke="midnightblue" d="M267.044,-174.595C252.771,-160.098 225.204,-133.624 198,-116 185.449,-107.869 151.314,-92.6059 125.97,-81.6782"/>
<polygon fill="midnightblue" stroke="midnightblue" points="127.32,-78.449 116.75,-77.7261 124.562,-84.8829 127.32,-78.449"/>
</g>
<!-- Node8&#45;&gt;Node10 -->
<g id="edge20" class="edge"><title>Node8&#45;&gt;Node10</title>
<path fill="none" stroke="midnightblue" d="M294.138,-174.909C328.703,-154.556 406.957,-108.477 447.909,-84.3633"/>
<polygon fill="midnightblue" stroke="midnightblue" points="449.92,-87.2406 456.762,-79.1506 446.368,-81.2087 449.92,-87.2406"/>
</g>
<!-- Node12 -->
<g id="node24" class="node"><title>Node12</title>
<a xlink:href="_o_s_8h.html" target="_top" xlink:title="../Util/OS.h">
<polygon fill="none" stroke="black" points="245,-117 245,-137 309,-137 309,-117 245,-117"/>
<text text-anchor="middle" x="277" y="-124" font-family="FreeSans" font-size="10.00">../Util/OS.h</text>
</a>
</g>
<!-- Node8&#45;&gt;Node12 -->
<g id="edge24" class="edge"><title>Node8&#45;&gt;Node12</title>
<path fill="none" stroke="midnightblue" d="M277,-174.897C277,-167.339 277,-156.748 277,-147.446"/>
<polygon fill="midnightblue" stroke="midnightblue" points="280.5,-147.378 277,-137.378 273.5,-147.378 280.5,-147.378"/>
</g>
<!-- Node11 -->
<g id="node22" class="node"><title>Node11</title>
<polygon fill="none" stroke="#bfbfbf" points="445,-1 445,-21 503,-21 503,-1 445,-1"/>
<text text-anchor="middle" x="474" y="-8" font-family="FreeSans" font-size="10.00">inttypes.h</text>
</g>
<!-- Node10&#45;&gt;Node11 -->
<g id="edge22" class="edge"><title>Node10&#45;&gt;Node11</title>
<path fill="none" stroke="midnightblue" d="M474,-58.8972C474,-51.339 474,-40.7476 474,-31.4458"/>
<polygon fill="midnightblue" stroke="midnightblue" points="477.5,-31.3776 474,-21.3776 470.5,-31.3776 477.5,-31.3776"/>
</g>
<!-- Node12&#45;&gt;Node9 -->
<g id="edge30" class="edge"><title>Node12&#45;&gt;Node9</title>
<path fill="none" stroke="midnightblue" d="M244.785,-117.677C215.879,-109.171 172.11,-95.9467 126.079,-80.2505"/>
<polygon fill="midnightblue" stroke="midnightblue" points="127.132,-76.9115 116.537,-76.9719 124.857,-83.5316 127.132,-76.9115"/>
</g>
<!-- Node12&#45;&gt;Node10 -->
<g id="edge36" class="edge"><title>Node12&#45;&gt;Node10</title>
<path fill="none" stroke="midnightblue" d="M309.09,-117.552C341.977,-107.87 393.352,-92.744 430.016,-81.9495"/>
<polygon fill="midnightblue" stroke="midnightblue" points="431.336,-85.2097 439.94,-79.0278 429.359,-78.4947 431.336,-85.2097"/>
</g>
<!-- Node13 -->
<g id="node26" class="node"><title>Node13</title>
<polygon fill="none" stroke="#bfbfbf" points="256,-59 256,-79 298,-79 298,-59 256,-59"/>
<text text-anchor="middle" x="277" y="-66" font-family="FreeSans" font-size="10.00">locale</text>
</g>
<!-- Node12&#45;&gt;Node13 -->
<g id="edge26" class="edge"><title>Node12&#45;&gt;Node13</title>
<path fill="none" stroke="midnightblue" d="M277,-116.897C277,-109.339 277,-98.7476 277,-89.4458"/>
<polygon fill="midnightblue" stroke="midnightblue" points="280.5,-89.3776 277,-79.3776 273.5,-89.3776 280.5,-89.3776"/>
</g>
<!-- Node14 -->
<g id="node28" class="node"><title>Node14</title>
<polygon fill="none" stroke="#bfbfbf" points="316,-59 316,-79 346,-79 346,-59 316,-59"/>
<text text-anchor="middle" x="331" y="-66" font-family="FreeSans" font-size="10.00">set</text>
</g>
<!-- Node12&#45;&gt;Node14 -->
<g id="edge28" class="edge"><title>Node12&#45;&gt;Node14</title>
<path fill="none" stroke="midnightblue" d="M286.406,-116.897C294.131,-108.6 305.26,-96.6463 314.468,-86.7569"/>
<polygon fill="midnightblue" stroke="midnightblue" points="317.086,-89.0815 321.338,-79.3776 311.962,-84.3116 317.086,-89.0815"/>
</g>
<!-- Node15 -->
<g id="node31" class="node"><title>Node15</title>
<polygon fill="none" stroke="#bfbfbf" points="364,-59 364,-79 408,-79 408,-59 364,-59"/>
<text text-anchor="middle" x="386" y="-66" font-family="FreeSans" font-size="10.00">vector</text>
</g>
<!-- Node12&#45;&gt;Node15 -->
<g id="edge32" class="edge"><title>Node12&#45;&gt;Node15</title>
<path fill="none" stroke="midnightblue" d="M295.986,-116.897C313.074,-107.804 338.413,-94.3218 357.856,-83.9757"/>
<polygon fill="midnightblue" stroke="midnightblue" points="359.682,-86.969 366.865,-79.1817 356.393,-80.7894 359.682,-86.969"/>
</g>
<!-- Node16 -->
<g id="node33" class="node"><title>Node16</title>
<polygon fill="none" stroke="#bfbfbf" points="133.5,-59 133.5,-79 238.5,-79 238.5,-59 133.5,-59"/>
<text text-anchor="middle" x="186" y="-66" font-family="FreeSans" font-size="10.00">boost/filesystem.hpp</text>
</g>
<!-- Node12&#45;&gt;Node16 -->
<g id="edge34" class="edge"><title>Node12&#45;&gt;Node16</title>
<path fill="none" stroke="midnightblue" d="M261.149,-116.897C247.272,-108.052 226.878,-95.0539 210.835,-84.829"/>
<polygon fill="midnightblue" stroke="midnightblue" points="212.289,-81.605 201.975,-79.1817 208.526,-87.5079 212.289,-81.605"/>
</g>
<!-- Node18 -->
<g id="node39" class="node"><title>Node18</title>
<a xlink:href="_viewport2_d_8h.html" target="_top" xlink:title="Viewport2D.h">
<polygon fill="none" stroke="black" points="441,-175 441,-195 515,-195 515,-175 441,-175"/>
<text text-anchor="middle" x="478" y="-182" font-family="FreeSans" font-size="10.00">Viewport2D.h</text>
</a>
</g>
<!-- Node17&#45;&gt;Node18 -->
<g id="edge42" class="edge"><title>Node17&#45;&gt;Node18</title>
<path fill="none" stroke="midnightblue" d="M577.098,-232.897C558.029,-223.68 529.627,-209.953 508.112,-199.554"/>
<polygon fill="midnightblue" stroke="midnightblue" points="509.592,-196.382 499.066,-195.182 506.546,-202.685 509.592,-196.382"/>
</g>
<!-- Node19 -->
<g id="node42" class="node"><title>Node19</title>
<a xlink:href="_color_palette_8h.html" target="_top" xlink:title="ColorPalette.h">
<polygon fill="none" stroke="black" points="532.5,-175 532.5,-195 609.5,-195 609.5,-175 532.5,-175"/>
<text text-anchor="middle" x="571" y="-182" font-family="FreeSans" font-size="10.00">ColorPalette.h</text>
</a>
</g>
<!-- Node17&#45;&gt;Node19 -->
<g id="edge46" class="edge"><title>Node17&#45;&gt;Node19</title>
<path fill="none" stroke="midnightblue" d="M593.297,-232.897C589.664,-225.093 584.525,-214.054 580.096,-204.54"/>
<polygon fill="midnightblue" stroke="midnightblue" points="583.224,-202.966 575.831,-195.378 576.878,-205.921 583.224,-202.966"/>
</g>
<!-- Node21 -->
<g id="node47" class="node"><title>Node21</title>
<a xlink:href="_bitmap_8h.html" target="_top" xlink:title="Bitmap.h">
<polygon fill="none" stroke="black" points="606.5,-117 606.5,-137 661.5,-137 661.5,-117 606.5,-117"/>
<text text-anchor="middle" x="634" y="-124" font-family="FreeSans" font-size="10.00">Bitmap.h</text>
</a>
</g>
<!-- Node17&#45;&gt;Node21 -->
<g id="edge52" class="edge"><title>Node17&#45;&gt;Node21</title>
<path fill="none" stroke="midnightblue" d="M602.979,-232.745C607.39,-223.355 613.768,-208.984 618,-196 623.232,-179.948 627.454,-161.267 630.245,-147.394"/>
<polygon fill="midnightblue" stroke="midnightblue" points="633.707,-147.924 632.168,-137.441 626.834,-146.596 633.707,-147.924"/>
</g>
<!-- Node22 -->
<g id="node50" class="node"><title>Node22</title>
<a xlink:href="_patch_8h.html" target="_top" xlink:title="Patch.h">
<polygon fill="none" stroke="black" points="665,-175 665,-195 715,-195 715,-175 665,-175"/>
<text text-anchor="middle" x="690" y="-182" font-family="FreeSans" font-size="10.00">Patch.h</text>
</a>
</g>
<!-- Node17&#45;&gt;Node22 -->
<g id="edge56" class="edge"><title>Node17&#45;&gt;Node22</title>
<path fill="none" stroke="midnightblue" d="M614.025,-232.897C628.186,-223.97 649.059,-210.811 665.345,-200.543"/>
<polygon fill="midnightblue" stroke="midnightblue" points="667.257,-203.475 673.85,-195.182 663.524,-197.554 667.257,-203.475"/>
</g>
<!-- Node18&#45;&gt;Node10 -->
<g id="edge44" class="edge"><title>Node18&#45;&gt;Node10</title>
<path fill="none" stroke="midnightblue" d="M476.341,-174.95C474.864,-165.458 472.814,-150.807 472,-138 470.966,-121.742 471.594,-103.294 472.411,-89.5668"/>
<polygon fill="midnightblue" stroke="midnightblue" points="475.923,-89.5118 473.109,-79.2975 468.939,-89.0372 475.923,-89.5118"/>
</g>
<!-- Node19&#45;&gt;Node10 -->
<g id="edge50" class="edge"><title>Node19&#45;&gt;Node10</title>
<path fill="none" stroke="midnightblue" d="M572.025,-174.601C572.903,-160.11 572.447,-133.644 560,-116 549.505,-101.123 532.76,-90.4718 516.822,-83.1124"/>
<polygon fill="midnightblue" stroke="midnightblue" points="518.154,-79.8757 507.584,-79.1527 515.397,-86.3095 518.154,-79.8757"/>
</g>
<!-- Node20 -->
<g id="node44" class="node"><title>Node20</title>
<polygon fill="none" stroke="#bfbfbf" points="480.5,-117 480.5,-137 551.5,-137 551.5,-117 480.5,-117"/>
<text text-anchor="middle" x="516" y="-124" font-family="FreeSans" font-size="10.00">SDL2/SDL.h</text>
</g>
<!-- Node19&#45;&gt;Node20 -->
<g id="edge48" class="edge"><title>Node19&#45;&gt;Node20</title>
<path fill="none" stroke="midnightblue" d="M561.42,-174.897C553.551,-166.6 542.216,-154.646 532.838,-144.757"/>
<polygon fill="midnightblue" stroke="midnightblue" points="535.261,-142.226 525.841,-137.378 530.182,-147.042 535.261,-142.226"/>
</g>
<!-- Node21&#45;&gt;Node10 -->
<g id="edge54" class="edge"><title>Node21&#45;&gt;Node10</title>
<path fill="none" stroke="midnightblue" d="M606.495,-117.029C580.165,-107.485 540.252,-93.0165 511.115,-82.4541"/>
<polygon fill="midnightblue" stroke="midnightblue" points="512.276,-79.1521 501.682,-79.0345 509.89,-85.7331 512.276,-79.1521"/>
</g>
<!-- Node23 -->
<g id="node52" class="node"><title>Node23</title>
<a xlink:href="_world_coordinates_8h.html" target="_top" xlink:title="../Util/WorldCoordinates.h">
<polygon fill="none" stroke="black" points="679,-117 679,-137 805,-137 805,-117 679,-117"/>
<text text-anchor="middle" x="742" y="-124" font-family="FreeSans" font-size="10.00">../Util/WorldCoordinates.h</text>
</a>
</g>
<!-- Node22&#45;&gt;Node23 -->
<g id="edge58" class="edge"><title>Node22&#45;&gt;Node23</title>
<path fill="none" stroke="midnightblue" d="M699.058,-174.897C706.423,-166.682 717.002,-154.883 725.816,-145.051"/>
<polygon fill="midnightblue" stroke="midnightblue" points="728.626,-147.16 732.696,-137.378 723.414,-142.487 728.626,-147.16"/>
</g>
<!-- Node23&#45;&gt;Node10 -->
<g id="edge60" class="edge"><title>Node23&#45;&gt;Node10</title>
<path fill="none" stroke="midnightblue" d="M695.624,-116.963C649.652,-107.014 579.177,-91.7623 530.084,-81.1376"/>
<polygon fill="midnightblue" stroke="midnightblue" points="530.771,-77.7053 520.257,-79.0108 529.29,-84.5469 530.771,-77.7053"/>
</g>
<!-- Node24&#45;&gt;Node15 -->
<g id="edge64" class="edge"><title>Node24&#45;&gt;Node15</title>
<path fill="none" stroke="midnightblue" d="M456.55,-232.688C449.318,-223.492 438.996,-209.443 432,-196 413.245,-159.96 398.807,-114.535 391.433,-88.9334"/>
<polygon fill="midnightblue" stroke="midnightblue" points="394.789,-87.9396 388.713,-79.2604 388.051,-89.8345 394.789,-87.9396"/>
</g>
<!-- Node25&#45;&gt;Node23 -->
<g id="edge68" class="edge"><title>Node25&#45;&gt;Node23</title>
<path fill="none" stroke="midnightblue" d="M720.13,-232.706C724.107,-213.482 732.726,-171.825 737.877,-146.929"/>
<polygon fill="midnightblue" stroke="midnightblue" points="741.31,-147.607 739.909,-137.106 734.456,-146.189 741.31,-147.607"/>
</g>
<!-- Node26&#45;&gt;Node25 -->
<g id="edge72" class="edge"><title>Node26&#45;&gt;Node25</title>
<path fill="none" stroke="midnightblue" d="M685.793,-290.897C691.152,-282.928 698.777,-271.587 705.264,-261.941"/>
<polygon fill="midnightblue" stroke="midnightblue" points="708.346,-263.629 711.022,-253.378 702.537,-259.723 708.346,-263.629"/>
</g>
<!-- Node27&#45;&gt;Node7 -->
<g id="edge78" class="edge"><title>Node27&#45;&gt;Node7</title>
<path fill="none" stroke="midnightblue" d="M351.594,-290.897C343.869,-282.6 332.74,-270.646 323.532,-260.757"/>
<polygon fill="midnightblue" stroke="midnightblue" points="326.038,-258.312 316.662,-253.378 320.914,-263.082 326.038,-258.312"/>
</g>
<!-- Node27&#45;&gt;Node18 -->
<g id="edge76" class="edge"><title>Node27&#45;&gt;Node18</title>
<path fill="none" stroke="midnightblue" d="M367.591,-290.957C377.092,-276.89 395.634,-250.924 415,-232 426.78,-220.488 441.457,-209.384 453.681,-200.861"/>
<polygon fill="midnightblue" stroke="midnightblue" points="455.779,-203.667 462.071,-195.143 451.836,-197.883 455.779,-203.667"/>
</g>
</g>
</svg>
        <g id="navigator" transform="translate(0 0)" fill="#404254">
                <rect fill="#f2f5e9" fill-opacity="0.5" stroke="#606060" stroke-width=".5" x="0" y="0" width="60" height="60"/>
                <use id="zoomplus" xlink:href="#zoomPlus" x="17" y="9" onmousedown="handleZoom(evt,'in')"/>
                <use id="zoomminus" xlink:href="#zoomMin" x="42" y="9" onmousedown="handleZoom(evt,'out')"/>
                <use id="reset" xlink:href="#resetDef" x="30" y="36" onmousedown="handleReset()"/>
                <g id="arrowUp" xlink:href="#dirArrow" transform="translate(30 24)" onmousedown="handlePan(0,-1)">
                  <use xlink:href="#rim" fill="#404040">
                        <set attributeName="fill" to="#808080" begin="arrowUp.mouseover" end="arrowUp.mouseout"/>
                  </use>
                  <path fill="none" stroke="white" stroke-width="1.5" d="M0,-3.0v7 M-2.5,-0.5L0,-3.0L2.5,-0.5"/>
                </g>
                <g id="arrowRight" xlink:href="#dirArrow" transform="rotate(90) translate(36 -43)" onmousedown="handlePan(1,0)">
                  <use xlink:href="#rim" fill="#404040">
                        <set attributeName="fill" to="#808080" begin="arrowRight.mouseover" end="arrowRight.mouseout"/>
                  </use>
                  <path fill="none" stroke="white" stroke-width="1.5" d="M0,-3.0v7 M-2.5,-0.5L0,-3.0L2.5,-0.5"/>
                </g>
                <g id="arrowDown" xlink:href="#dirArrow" transform="rotate(180) translate(-30 -48)" onmousedown="handlePan(0,1)">
                  <use xlink:href="#rim" fill="#404040">
                        <set attributeName="fill" to="#808080" begin="arrowDown.mouseover" end="arrowDown.mouseout"/>
                  </use>
                  <path fill="none" stroke="white" stroke-width="1.5" d="M0,-3.0v7 M-2.5,-0.5L0,-3.0L2.5,-0.5"/>
                </g>
                <g id="arrowLeft" xlink:href="#dirArrow" transform="rotate(270) translate(-36 17)" onmousedown="handlePan(-1,0)">
                  <use xlink:href="#rim" fill="#404040">
                        <set attributeName="fill" to="#808080" begin="arrowLeft.mouseover" end="arrowLeft.mouseout"/>
                  </use>
                  <path fill="none" stroke="white" stroke-width="1.5" d="M0,-3.0v7 M-2.5,-0.5L0,-3.0L2.5,-0.5"/>
                </g>
        </g>
        <svg viewBox="0 0 15 15" width="100%" height="30px" preserveAspectRatio="xMaxYMin meet">
         <g id="arrow_out" transform="scale(0.3 0.3)">
          <a xlink:href="_map_sprite_8cpp__incl_org.svg" target="_base">
           <rect id="button" ry="5" rx="5" y="6" x="6" height="38" width="38"
                fill="#f2f5e9" fill-opacity="0.5" stroke="#606060" stroke-width="1.0"/>
           <path id="arrow"
             d="M 11.500037,31.436501 C 11.940474,20.09759 22.043105,11.32322 32.158766,21.979434 L 37.068811,17.246167 C 37.068811,17.246167 37.088388,32 37.088388,32 L 22.160133,31.978069 C 22.160133,31.978069 26.997745,27.140456 26.997745,27.140456 C 18.528582,18.264221 13.291696,25.230495 11.500037,31.436501 z"
             style="fill:#404040;"/>
          </a>
         </g>
        </svg>
</svg>
