<?xml version="1.0" encoding="UTF-8" standalone="no"?>
<!DOCTYPE svg PUBLIC "-//W3C//DTD SVG 1.1//EN"
 "http://www.w3.org/Graphics/SVG/1.1/DTD/svg11.dtd">
<!-- Generated by graphviz version 2.38.0 (20140413.2041)
 -->
<!-- Title: MapNode.cpp Pages: 1 -->
<svg width="566pt" height="252pt"
 viewBox="0.00 0.00 566.00 252.00" xmlns="http://www.w3.org/2000/svg" xmlns:xlink="http://www.w3.org/1999/xlink">
<g id="graph0" class="graph" transform="scale(1 1) rotate(0) translate(4 248)">
<title>MapNode.cpp</title>
<!-- Node1 -->
<g id="node1" class="node"><title>Node1</title>
<polygon fill="#bfbfbf" stroke="black" points="230.5,-224.5 230.5,-243.5 307.5,-243.5 307.5,-224.5 230.5,-224.5"/>
<text text-anchor="middle" x="269" y="-231.5" font-family="Helvetica,sans-Serif" font-size="10.00">MapNode.cpp</text>
</g>
<!-- Node2 -->
<g id="node2" class="node"><title>Node2</title>
<g id="a_node2"><a xlink:href="_node_factory_8h.html" target="_top" xlink:title="NodeFactory.h">
<polygon fill="none" stroke="black" points="136.5,-168.5 136.5,-187.5 217.5,-187.5 217.5,-168.5 136.5,-168.5"/>
<text text-anchor="middle" x="177" y="-175.5" font-family="Helvetica,sans-Serif" font-size="10.00">NodeFactory.h</text>
</a>
</g>
</g>
<!-- Node1&#45;&gt;Node2 -->
<g id="edge1" class="edge"><title>Node1&#45;&gt;Node2</title>
<path fill="none" stroke="midnightblue" d="M254.219,-224.324C239.733,-215.822 217.427,-202.729 200.507,-192.797"/>
<polygon fill="midnightblue" stroke="midnightblue" points="202.141,-189.698 191.745,-187.655 198.597,-195.735 202.141,-189.698"/>
</g>
<!-- Node5 -->
<g id="node5" class="node"><title>Node5</title>
<g id="a_node5"><a xlink:href="_scalar_node_8h.html" target="_top" xlink:title="ScalarNode.h">
<polygon fill="none" stroke="black" points="321,-168.5 321,-187.5 397,-187.5 397,-168.5 321,-168.5"/>
<text text-anchor="middle" x="359" y="-175.5" font-family="Helvetica,sans-Serif" font-size="10.00">ScalarNode.h</text>
</a>
</g>
</g>
<!-- Node1&#45;&gt;Node5 -->
<g id="edge4" class="edge"><title>Node1&#45;&gt;Node5</title>
<path fill="none" stroke="midnightblue" d="M283.46,-224.324C297.5,-215.9 319.048,-202.971 335.543,-193.074"/>
<polygon fill="midnightblue" stroke="midnightblue" points="337.802,-195.801 344.576,-187.655 334.2,-189.798 337.802,-195.801"/>
</g>
<!-- Node16 -->
<g id="node16" class="node"><title>Node16</title>
<g id="a_node16"><a xlink:href="_map_node_8h.html" target="_top" xlink:title="MapNode.h">
<polygon fill="none" stroke="black" points="235.5,-168.5 235.5,-187.5 302.5,-187.5 302.5,-168.5 235.5,-168.5"/>
<text text-anchor="middle" x="269" y="-175.5" font-family="Helvetica,sans-Serif" font-size="10.00">MapNode.h</text>
</a>
</g>
</g>
<!-- Node1&#45;&gt;Node16 -->
<g id="edge16" class="edge"><title>Node1&#45;&gt;Node16</title>
<path fill="none" stroke="midnightblue" d="M269,-224.083C269,-217.006 269,-206.861 269,-197.986"/>
<polygon fill="midnightblue" stroke="midnightblue" points="272.5,-197.751 269,-187.751 265.5,-197.751 272.5,-197.751"/>
</g>
<!-- Node3 -->
<g id="node3" class="node"><title>Node3</title>
<g id="a_node3"><a xlink:href="_node_8h.html" target="_top" xlink:title="Node.h">
<polygon fill="none" stroke="black" points="178,-112.5 178,-131.5 226,-131.5 226,-112.5 178,-112.5"/>
<text text-anchor="middle" x="202" y="-119.5" font-family="Helvetica,sans-Serif" font-size="10.00">Node.h</text>
</a>
</g>
</g>
<!-- Node2&#45;&gt;Node3 -->
<g id="edge2" class="edge"><title>Node2&#45;&gt;Node3</title>
<path fill="none" stroke="midnightblue" d="M181.128,-168.083C184.514,-160.77 189.416,-150.181 193.619,-141.103"/>
<polygon fill="midnightblue" stroke="midnightblue" points="196.923,-142.296 197.949,-131.751 190.571,-139.355 196.923,-142.296"/>
</g>
<!-- Node4 -->
<g id="node4" class="node"><title>Node4</title>
<polygon fill="none" stroke="#bfbfbf" points="0,-56.5 0,-75.5 46,-75.5 46,-56.5 0,-56.5"/>
<text text-anchor="middle" x="23" y="-63.5" font-family="Helvetica,sans-Serif" font-size="10.00">yaml.h</text>
</g>
<!-- Node3&#45;&gt;Node4 -->
<g id="edge3" class="edge"><title>Node3&#45;&gt;Node4</title>
<path fill="none" stroke="midnightblue" d="M177.859,-113.717C146.418,-104.232 91.3143,-87.6088 56.0222,-76.962"/>
<polygon fill="midnightblue" stroke="midnightblue" points="56.7766,-73.5338 46.1919,-73.9964 54.7548,-80.2355 56.7766,-73.5338"/>
</g>
<!-- Node5&#45;&gt;Node3 -->
<g id="edge15" class="edge"><title>Node5&#45;&gt;Node3</title>
<path fill="none" stroke="midnightblue" d="M334.123,-168.444C307.555,-159.306 265.291,-144.769 235.739,-134.604"/>
<polygon fill="midnightblue" stroke="midnightblue" points="236.84,-131.282 226.245,-131.339 234.563,-137.901 236.84,-131.282"/>
</g>
<!-- Node6 -->
<g id="node6" class="node"><title>Node6</title>
<polygon fill="none" stroke="#bfbfbf" points="335,-112.5 335,-131.5 383,-131.5 383,-112.5 335,-112.5"/>
<text text-anchor="middle" x="359" y="-119.5" font-family="Helvetica,sans-Serif" font-size="10.00">limits.h</text>
</g>
<!-- Node5&#45;&gt;Node6 -->
<g id="edge5" class="edge"><title>Node5&#45;&gt;Node6</title>
<path fill="none" stroke="midnightblue" d="M359,-168.083C359,-161.006 359,-150.861 359,-141.986"/>
<polygon fill="midnightblue" stroke="midnightblue" points="362.5,-141.751 359,-131.751 355.5,-141.751 362.5,-141.751"/>
</g>
<!-- Node7 -->
<g id="node7" class="node"><title>Node7</title>
<g id="a_node7"><a xlink:href="_o_s_8h.html" target="_top" xlink:title="../OS.h">
<polygon fill="none" stroke="black" points="269,-112.5 269,-131.5 317,-131.5 317,-112.5 269,-112.5"/>
<text text-anchor="middle" x="293" y="-119.5" font-family="Helvetica,sans-Serif" font-size="10.00">../OS.h</text>
</a>
</g>
</g>
<!-- Node5&#45;&gt;Node7 -->
<g id="edge6" class="edge"><title>Node5&#45;&gt;Node7</title>
<path fill="none" stroke="midnightblue" d="M348.396,-168.324C338.544,-160.263 323.649,-148.077 311.785,-138.369"/>
<polygon fill="midnightblue" stroke="midnightblue" points="313.753,-135.457 303.797,-131.834 309.32,-140.875 313.753,-135.457"/>
</g>
<!-- Node8 -->
<g id="node8" class="node"><title>Node8</title>
<polygon fill="none" stroke="#bfbfbf" points="402,-56.5 402,-75.5 444,-75.5 444,-56.5 402,-56.5"/>
<text text-anchor="middle" x="423" y="-63.5" font-family="Helvetica,sans-Serif" font-size="10.00">locale</text>
</g>
<!-- Node7&#45;&gt;Node8 -->
<g id="edge7" class="edge"><title>Node7&#45;&gt;Node8</title>
<path fill="none" stroke="midnightblue" d="M313.599,-112.444C334.993,-103.557 368.681,-89.5632 393.024,-79.4514"/>
<polygon fill="midnightblue" stroke="midnightblue" points="394.605,-82.5848 402.497,-75.5164 391.92,-76.1203 394.605,-82.5848"/>
</g>
<!-- Node9 -->
<g id="node9" class="node"><title>Node9</title>
<polygon fill="none" stroke="#bfbfbf" points="461.5,-56.5 461.5,-75.5 510.5,-75.5 510.5,-56.5 461.5,-56.5"/>
<text text-anchor="middle" x="486" y="-63.5" font-family="Helvetica,sans-Serif" font-size="10.00">random</text>
</g>
<!-- Node7&#45;&gt;Node9 -->
<g id="edge8" class="edge"><title>Node7&#45;&gt;Node9</title>
<path fill="none" stroke="midnightblue" d="M317.053,-114.27C350.911,-104.797 412.807,-87.4789 451.544,-76.6404"/>
<polygon fill="midnightblue" stroke="midnightblue" points="452.651,-79.9653 461.338,-73.9002 450.765,-73.2242 452.651,-79.9653"/>
</g>
<!-- Node10 -->
<g id="node10" class="node"><title>Node10</title>
<polygon fill="none" stroke="#bfbfbf" points="528,-56.5 528,-75.5 558,-75.5 558,-56.5 528,-56.5"/>
<text text-anchor="middle" x="543" y="-63.5" font-family="Helvetica,sans-Serif" font-size="10.00">set</text>
</g>
<!-- Node7&#45;&gt;Node10 -->
<g id="edge9" class="edge"><title>Node7&#45;&gt;Node10</title>
<path fill="none" stroke="midnightblue" d="M317.093,-114.182C320.083,-113.409 323.106,-112.662 326,-112 408.398,-93.1529 433.85,-99.5693 518.072,-76.1737"/>
<polygon fill="midnightblue" stroke="midnightblue" points="519.133,-79.511 527.798,-73.414 517.222,-72.7768 519.133,-79.511"/>
</g>
<!-- Node11 -->
<g id="node11" class="node"><title>Node11</title>
<polygon fill="none" stroke="#bfbfbf" points="64.5,-56.5 64.5,-75.5 105.5,-75.5 105.5,-56.5 64.5,-56.5"/>
<text text-anchor="middle" x="85" y="-63.5" font-family="Helvetica,sans-Serif" font-size="10.00">string</text>
</g>
<!-- Node7&#45;&gt;Node11 -->
<g id="edge10" class="edge"><title>Node7&#45;&gt;Node11</title>
<path fill="none" stroke="midnightblue" d="M268.727,-115.221C236.126,-107.382 176.181,-92.699 115.383,-76.011"/>
<polygon fill="midnightblue" stroke="midnightblue" points="116.193,-72.6038 105.622,-73.3162 114.33,-79.3513 116.193,-72.6038"/>
</g>
<!-- Node12 -->
<g id="node12" class="node"><title>Node12</title>
<polygon fill="none" stroke="#bfbfbf" points="124,-56.5 124,-75.5 168,-75.5 168,-56.5 124,-56.5"/>
<text text-anchor="middle" x="146" y="-63.5" font-family="Helvetica,sans-Serif" font-size="10.00">vector</text>
</g>
<!-- Node7&#45;&gt;Node12 -->
<g id="edge11" class="edge"><title>Node7&#45;&gt;Node12</title>
<path fill="none" stroke="midnightblue" d="M269.707,-112.444C244.904,-103.332 205.489,-88.8531 177.831,-78.6929"/>
<polygon fill="midnightblue" stroke="midnightblue" points="178.815,-75.3258 168.221,-75.1629 176.401,-81.8965 178.815,-75.3258"/>
</g>
<!-- Node13 -->
<g id="node13" class="node"><title>Node13</title>
<polygon fill="none" stroke="#bfbfbf" points="185.5,-56.5 185.5,-75.5 292.5,-75.5 292.5,-56.5 185.5,-56.5"/>
<text text-anchor="middle" x="239" y="-63.5" font-family="Helvetica,sans-Serif" font-size="10.00">boost/filesystem.hpp</text>
</g>
<!-- Node7&#45;&gt;Node13 -->
<g id="edge12" class="edge"><title>Node7&#45;&gt;Node13</title>
<path fill="none" stroke="midnightblue" d="M284.083,-112.083C276.22,-104.22 264.569,-92.5688 255.081,-83.0813"/>
<polygon fill="midnightblue" stroke="midnightblue" points="257.297,-80.3473 247.751,-75.7511 252.347,-85.2971 257.297,-80.3473"/>
</g>
<!-- Node14 -->
<g id="node14" class="node"><title>Node14</title>
<g id="a_node14"><a xlink:href="_m_r___types_8h.html" target="_top" xlink:title="MR_Types.h">
<polygon fill="none" stroke="black" points="310.5,-56.5 310.5,-75.5 383.5,-75.5 383.5,-56.5 310.5,-56.5"/>
<text text-anchor="middle" x="347" y="-63.5" font-family="Helvetica,sans-Serif" font-size="10.00">MR_Types.h</text>
</a>
</g>
</g>
<!-- Node7&#45;&gt;Node14 -->
<g id="edge13" class="edge"><title>Node7&#45;&gt;Node14</title>
<path fill="none" stroke="midnightblue" d="M301.917,-112.083C309.78,-104.22 321.431,-92.5688 330.919,-83.0813"/>
<polygon fill="midnightblue" stroke="midnightblue" points="333.653,-85.2971 338.249,-75.7511 328.703,-80.3473 333.653,-85.2971"/>
</g>
<!-- Node15 -->
<g id="node15" class="node"><title>Node15</title>
<polygon fill="none" stroke="#bfbfbf" points="317.5,-0.5 317.5,-19.5 376.5,-19.5 376.5,-0.5 317.5,-0.5"/>
<text text-anchor="middle" x="347" y="-7.5" font-family="Helvetica,sans-Serif" font-size="10.00">inttypes.h</text>
</g>
<!-- Node14&#45;&gt;Node15 -->
<g id="edge14" class="edge"><title>Node14&#45;&gt;Node15</title>
<path fill="none" stroke="midnightblue" d="M347,-56.083C347,-49.0059 347,-38.8611 347,-29.9865"/>
<polygon fill="midnightblue" stroke="midnightblue" points="350.5,-29.751 347,-19.7511 343.5,-29.7511 350.5,-29.751"/>
</g>
<!-- Node16&#45;&gt;Node3 -->
<g id="edge19" class="edge"><title>Node16&#45;&gt;Node3</title>
<path fill="none" stroke="midnightblue" d="M258.235,-168.324C248.234,-160.263 233.113,-148.077 221.07,-138.369"/>
<polygon fill="midnightblue" stroke="midnightblue" points="222.943,-135.384 212.961,-131.834 218.55,-140.834 222.943,-135.384"/>
</g>
<!-- Node16&#45;&gt;Node6 -->
<g id="edge17" class="edge"><title>Node16&#45;&gt;Node6</title>
<path fill="none" stroke="midnightblue" d="M283.46,-168.324C297.5,-159.9 319.048,-146.971 335.543,-137.074"/>
<polygon fill="midnightblue" stroke="midnightblue" points="337.802,-139.801 344.576,-131.655 334.2,-133.798 337.802,-139.801"/>
</g>
<!-- Node16&#45;&gt;Node7 -->
<g id="edge18" class="edge"><title>Node16&#45;&gt;Node7</title>
<path fill="none" stroke="midnightblue" d="M272.963,-168.083C276.213,-160.77 280.919,-150.181 284.954,-141.103"/>
<polygon fill="midnightblue" stroke="midnightblue" points="288.248,-142.311 289.111,-131.751 281.851,-139.468 288.248,-142.311"/>
</g>
</g>
</svg>
