<?xml version="1.0" encoding="UTF-8" standalone="no"?>
<!DOCTYPE svg PUBLIC "-//W3C//DTD SVG 1.1//EN"
 "http://www.w3.org/Graphics/SVG/1.1/DTD/svg11.dtd">
<!-- Generated by graphviz version 2.38.0 (20140413.2041)
 -->
<!-- Title: MazeElement.h Pages: 1 -->
<!--zoomable 308 -->
<svg id="main" version="1.1" xmlns="http://www.w3.org/2000/svg" xmlns:xlink="http://www.w3.org/1999/xlink" xml:space="preserve" onload="init(evt)">
<style type="text/css"><![CDATA[
.edge:hover path { stroke: red; }
.edge:hover polygon { stroke: red; fill: red; }
]]></style>
<script type="text/javascript"><![CDATA[
var edges = document.getElementsByTagName('g');
if (edges && edges.length) {
  for (var i=0;i<edges.length;i++) {
    if (edges[i].id.substr(0,4)=='edge') {
      edges[i].setAttribute('class','edge');
    }
  }
}
]]></script>
        <defs>
                <circle id="rim" cx="0" cy="0" r="7"/>
                <circle id="rim2" cx="0" cy="0" r="3.5"/>
                <g id="zoomPlus">
                        <use xlink:href="#rim" fill="#404040">
                                <set attributeName="fill" to="#808080" begin="zoomplus.mouseover" end="zoomplus.mouseout"/>
                        </use>
                        <path d="M-4,0h8M0,-4v8" fill="none" stroke="white" stroke-width="1.5" pointer-events="none"/>
                </g>
                <g id="zoomMin">
                        <use xlink:href="#rim" fill="#404040">
                                <set attributeName="fill" to="#808080" begin="zoomminus.mouseover" end="zoomminus.mouseout"/>
                        </use>
                        <path d="M-4,0h8" fill="none" stroke="white" stroke-width="1.5" pointer-events="none"/>
                </g>
                <g id="dirArrow">
                        <path fill="none" stroke="white" stroke-width="1.5" d="M0,-3.0v7 M-2.5,-0.5L0,-3.0L2.5,-0.5"/>
                </g>
               <g id="resetDef">
                       <use xlink:href="#rim2" fill="#404040">
                               <set attributeName="fill" to="#808080" begin="reset.mouseover" end="reset.mouseout"/>
                       </use>
               </g>
        </defs>

<script type="text/javascript">
var viewWidth = 749;
var viewHeight = 308;
var sectionId = 'dynsection-0';
</script>
<script xlink:href="svgpan.js"/>
<svg id="graph" class="graph">
<g id="viewport">
<title>MazeElement.h</title>
<!-- Node1 -->
<g id="node1" class="node"><title>Node1</title>
<polygon fill="#bfbfbf" stroke="black" points="399,-280.5 399,-299.5 490,-299.5 490,-280.5 399,-280.5"/>
<text text-anchor="middle" x="444.5" y="-287.5" font-family="FreeSans" font-size="10.00">MazeElement.h</text>
</g>
<!-- Node2 -->
<g id="node2" class="node"><title>Node2</title>
<g id="a_node2"><a xlink:href="_dll_object_factory_8h.html" target="_top" xlink:title="../Util/DllObjectFactory.h">
<polygon fill="none" stroke="black" points="202,-224.5 202,-243.5 331,-243.5 331,-224.5 202,-224.5"/>
<text text-anchor="middle" x="266.5" y="-231.5" font-family="FreeSans" font-size="10.00">../Util/DllObjectFactory.h</text>
</a>
</g>
</g>
<!-- Node1&#45;&gt;Node2 -->
<g id="edge1" class="edge"><title>Node1&#45;&gt;Node2</title>
<path fill="none" stroke="midnightblue" d="M416.295,-280.444C386.09,-271.28 337.989,-256.688 304.471,-246.519"/>
<polygon fill="midnightblue" stroke="midnightblue" points="305.158,-243.07 294.573,-243.516 303.126,-249.769 305.158,-243.07"/>
</g>
<!-- Node14 -->
<g id="node14" class="node"><title>Node14</title>
<g id="a_node14"><a xlink:href="_viewport3_d_8h.html" target="_top" xlink:title="../VideoServices/Viewport3D.h">
<polygon fill="none" stroke="black" points="429.5,-224.5 429.5,-243.5 589.5,-243.5 589.5,-224.5 429.5,-224.5"/>
<text text-anchor="middle" x="509.5" y="-231.5" font-family="FreeSans" font-size="10.00">../VideoServices/Viewport3D.h</text>
</a>
</g>
</g>
<!-- Node1&#45;&gt;Node14 -->
<g id="edge16" class="edge"><title>Node1&#45;&gt;Node14</title>
<path fill="none" stroke="midnightblue" d="M454.943,-280.324C464.646,-272.263 479.315,-260.077 491,-250.369"/>
<polygon fill="midnightblue" stroke="midnightblue" points="493.411,-252.916 498.867,-243.834 488.938,-247.532 493.411,-252.916"/>
</g>
<!-- Node21 -->
<g id="node21" class="node"><title>Node21</title>
<g id="a_node21"><a xlink:href="_contact_effect_8h.html" target="_top" xlink:title="ContactEffect.h">
<polygon fill="none" stroke="black" points="650.5,-224.5 650.5,-243.5 740.5,-243.5 740.5,-224.5 650.5,-224.5"/>
<text text-anchor="middle" x="695.5" y="-231.5" font-family="FreeSans" font-size="10.00">ContactEffect.h</text>
</a>
</g>
</g>
<!-- Node1&#45;&gt;Node21 -->
<g id="edge27" class="edge"><title>Node1&#45;&gt;Node21</title>
<path fill="none" stroke="midnightblue" d="M484.272,-280.444C528.058,-271.023 598.514,-255.866 645.88,-245.675"/>
<polygon fill="midnightblue" stroke="midnightblue" points="646.874,-249.041 655.914,-243.516 645.402,-242.198 646.874,-249.041"/>
</g>
<!-- Node22 -->
<g id="node22" class="node"><title>Node22</title>
<g id="a_node22"><a xlink:href="_shapes_8h.html" target="_top" xlink:title="Shapes.h">
<polygon fill="none" stroke="black" points="349.5,-224.5 349.5,-243.5 411.5,-243.5 411.5,-224.5 349.5,-224.5"/>
<text text-anchor="middle" x="380.5" y="-231.5" font-family="FreeSans" font-size="10.00">Shapes.h</text>
</a>
</g>
</g>
<!-- Node1&#45;&gt;Node22 -->
<g id="edge29" class="edge"><title>Node1&#45;&gt;Node22</title>
<path fill="none" stroke="midnightblue" d="M434.217,-280.324C424.664,-272.263 410.22,-260.077 398.716,-250.369"/>
<polygon fill="midnightblue" stroke="midnightblue" points="400.87,-247.608 390.97,-243.834 396.356,-252.958 400.87,-247.608"/>
</g>
<!-- Node3 -->
<g id="node3" class="node"><title>Node3</title>
<g id="a_node3"><a xlink:href="_obj_stream_8h.html" target="_top" xlink:title="../Parcel/ObjStream.h">
<polygon fill="none" stroke="black" points="113.5,-168.5 113.5,-187.5 231.5,-187.5 231.5,-168.5 113.5,-168.5"/>
<text text-anchor="middle" x="172.5" y="-175.5" font-family="FreeSans" font-size="10.00">../Parcel/ObjStream.h</text>
</a>
</g>
</g>
<!-- Node2&#45;&gt;Node3 -->
<g id="edge2" class="edge"><title>Node2&#45;&gt;Node3</title>
<path fill="none" stroke="midnightblue" d="M251.397,-224.324C236.597,-215.822 213.806,-202.729 196.518,-192.797"/>
<polygon fill="midnightblue" stroke="midnightblue" points="197.98,-189.601 187.565,-187.655 194.493,-195.671 197.98,-189.601"/>
</g>
<!-- Node7 -->
<g id="node7" class="node"><title>Node7</title>
<g id="a_node7"><a xlink:href="_m_r___types_8h.html" target="_top" xlink:title="../Util/MR_Types.h">
<polygon fill="none" stroke="black" points="397,-56.5 397,-75.5 496,-75.5 496,-56.5 397,-56.5"/>
<text text-anchor="middle" x="446.5" y="-63.5" font-family="FreeSans" font-size="10.00">../Util/MR_Types.h</text>
</a>
</g>
</g>
<!-- Node2&#45;&gt;Node7 -->
<g id="edge15" class="edge"><title>Node2&#45;&gt;Node7</title>
<path fill="none" stroke="midnightblue" d="M265.528,-224.352C263.577,-202.459 261.655,-144.295 291.5,-112 304.768,-97.643 349.619,-85.5681 387.683,-77.5527"/>
<polygon fill="midnightblue" stroke="midnightblue" points="388.603,-80.9371 397.698,-75.5024 387.199,-74.0793 388.603,-80.9371"/>
</g>
<!-- Node4 -->
<g id="node4" class="node"><title>Node4</title>
<polygon fill="none" stroke="#bfbfbf" points="88.5,-56.5 88.5,-75.5 132.5,-75.5 132.5,-56.5 88.5,-56.5"/>
<text text-anchor="middle" x="110.5" y="-63.5" font-family="FreeSans" font-size="10.00">string</text>
</g>
<!-- Node3&#45;&gt;Node4 -->
<g id="edge3" class="edge"><title>Node3&#45;&gt;Node4</title>
<path fill="none" stroke="midnightblue" d="M161.8,-168.448C152.052,-160.116 137.928,-146.599 129.5,-132 121.143,-117.522 116.208,-99.0749 113.471,-85.534"/>
<polygon fill="midnightblue" stroke="midnightblue" points="116.883,-84.7284 111.663,-75.5084 109.994,-85.9708 116.883,-84.7284"/>
</g>
<!-- Node5 -->
<g id="node5" class="node"><title>Node5</title>
<g id="a_node5"><a xlink:href="_exception_8h.html" target="_top" xlink:title="../Exception.h">
<polygon fill="none" stroke="black" points="0,-112.5 0,-131.5 81,-131.5 81,-112.5 0,-112.5"/>
<text text-anchor="middle" x="40.5" y="-119.5" font-family="FreeSans" font-size="10.00">../Exception.h</text>
</a>
</g>
</g>
<!-- Node3&#45;&gt;Node5 -->
<g id="edge4" class="edge"><title>Node3&#45;&gt;Node5</title>
<path fill="none" stroke="midnightblue" d="M151.584,-168.444C129.764,-159.517 95.3502,-145.439 70.6078,-135.317"/>
<polygon fill="midnightblue" stroke="midnightblue" points="71.8987,-132.063 61.3179,-131.516 69.2482,-138.542 71.8987,-132.063"/>
</g>
<!-- Node3&#45;&gt;Node7 -->
<g id="edge6" class="edge"><title>Node3&#45;&gt;Node7</title>
<path fill="none" stroke="midnightblue" d="M181.213,-168.411C195.886,-154.44 227.021,-126.861 258.5,-112 281.826,-100.988 344.925,-86.9751 391.622,-77.536"/>
<polygon fill="midnightblue" stroke="midnightblue" points="392.496,-80.9306 401.614,-75.5351 391.121,-74.0669 392.496,-80.9306"/>
</g>
<!-- Node9 -->
<g id="node9" class="node"><title>Node9</title>
<g id="a_node9"><a xlink:href="_o_s_8h.html" target="_top" xlink:title="../Util/OS.h">
<polygon fill="none" stroke="black" points="138.5,-112.5 138.5,-131.5 206.5,-131.5 206.5,-112.5 138.5,-112.5"/>
<text text-anchor="middle" x="172.5" y="-119.5" font-family="FreeSans" font-size="10.00">../Util/OS.h</text>
</a>
</g>
</g>
<!-- Node3&#45;&gt;Node9 -->
<g id="edge8" class="edge"><title>Node3&#45;&gt;Node9</title>
<path fill="none" stroke="midnightblue" d="M172.5,-168.083C172.5,-161.006 172.5,-150.861 172.5,-141.986"/>
<polygon fill="midnightblue" stroke="midnightblue" points="176,-141.751 172.5,-131.751 169,-141.751 176,-141.751"/>
</g>
<!-- Node6 -->
<g id="node6" class="node"><title>Node6</title>
<polygon fill="none" stroke="#bfbfbf" points="7,-56.5 7,-75.5 70,-75.5 70,-56.5 7,-56.5"/>
<text text-anchor="middle" x="38.5" y="-63.5" font-family="FreeSans" font-size="10.00">exception</text>
</g>
<!-- Node5&#45;&gt;Node6 -->
<g id="edge5" class="edge"><title>Node5&#45;&gt;Node6</title>
<path fill="none" stroke="midnightblue" d="M40.1697,-112.083C39.9076,-105.006 39.5319,-94.8611 39.2032,-85.9865"/>
<polygon fill="midnightblue" stroke="midnightblue" points="42.6919,-85.6147 38.8241,-75.7511 35.6967,-85.8738 42.6919,-85.6147"/>
</g>
<!-- Node8 -->
<g id="node8" class="node"><title>Node8</title>
<polygon fill="none" stroke="#bfbfbf" points="414.5,-0.5 414.5,-19.5 478.5,-19.5 478.5,-0.5 414.5,-0.5"/>
<text text-anchor="middle" x="446.5" y="-7.5" font-family="FreeSans" font-size="10.00">inttypes.h</text>
</g>
<!-- Node7&#45;&gt;Node8 -->
<g id="edge7" class="edge"><title>Node7&#45;&gt;Node8</title>
<path fill="none" stroke="midnightblue" d="M446.5,-56.083C446.5,-49.0059 446.5,-38.8611 446.5,-29.9865"/>
<polygon fill="midnightblue" stroke="midnightblue" points="450,-29.751 446.5,-19.7511 443,-29.7511 450,-29.751"/>
</g>
<!-- Node9&#45;&gt;Node4 -->
<g id="edge11" class="edge"><title>Node9&#45;&gt;Node4</title>
<path fill="none" stroke="midnightblue" d="M162.539,-112.324C153.373,-104.341 139.563,-92.3128 128.472,-82.6529"/>
<polygon fill="midnightblue" stroke="midnightblue" points="130.482,-79.7624 120.643,-75.8339 125.885,-85.041 130.482,-79.7624"/>
</g>
<!-- Node9&#45;&gt;Node7 -->
<g id="edge14" class="edge"><title>Node9&#45;&gt;Node7</title>
<path fill="none" stroke="midnightblue" d="M206.648,-114.27C253.511,-105.034 338.212,-88.3414 393.392,-77.4666"/>
<polygon fill="midnightblue" stroke="midnightblue" points="394.201,-80.8745 403.335,-75.5069 392.847,-74.0066 394.201,-80.8745"/>
</g>
<!-- Node10 -->
<g id="node10" class="node"><title>Node10</title>
<polygon fill="none" stroke="#bfbfbf" points="334.5,-56.5 334.5,-75.5 378.5,-75.5 378.5,-56.5 334.5,-56.5"/>
<text text-anchor="middle" x="356.5" y="-63.5" font-family="FreeSans" font-size="10.00">locale</text>
</g>
<!-- Node9&#45;&gt;Node10 -->
<g id="edge9" class="edge"><title>Node9&#45;&gt;Node10</title>
<path fill="none" stroke="midnightblue" d="M201.655,-112.444C235.227,-102.591 290.185,-86.4621 324.796,-76.3044"/>
<polygon fill="midnightblue" stroke="midnightblue" points="325.801,-79.6571 334.411,-73.4826 323.83,-72.9404 325.801,-79.6571"/>
</g>
<!-- Node11 -->
<g id="node11" class="node"><title>Node11</title>
<polygon fill="none" stroke="#bfbfbf" points="150.5,-56.5 150.5,-75.5 182.5,-75.5 182.5,-56.5 150.5,-56.5"/>
<text text-anchor="middle" x="166.5" y="-63.5" font-family="FreeSans" font-size="10.00">set</text>
</g>
<!-- Node9&#45;&gt;Node11 -->
<g id="edge10" class="edge"><title>Node9&#45;&gt;Node11</title>
<path fill="none" stroke="midnightblue" d="M171.509,-112.083C170.714,-104.927 169.571,-94.6353 168.577,-85.6911"/>
<polygon fill="midnightblue" stroke="midnightblue" points="172.055,-85.3034 167.472,-75.7511 165.098,-86.0765 172.055,-85.3034"/>
</g>
<!-- Node12 -->
<g id="node12" class="node"><title>Node12</title>
<polygon fill="none" stroke="#bfbfbf" points="611,-56.5 611,-75.5 658,-75.5 658,-56.5 611,-56.5"/>
<text text-anchor="middle" x="634.5" y="-63.5" font-family="FreeSans" font-size="10.00">vector</text>
</g>
<!-- Node9&#45;&gt;Node12 -->
<g id="edge12" class="edge"><title>Node9&#45;&gt;Node12</title>
<path fill="none" stroke="midnightblue" d="M206.848,-116.985C292.68,-106.953 515.726,-80.8827 600.83,-70.9354"/>
<polygon fill="midnightblue" stroke="midnightblue" points="601.446,-74.3874 610.972,-69.7501 600.633,-67.4347 601.446,-74.3874"/>
</g>
<!-- Node13 -->
<g id="node13" class="node"><title>Node13</title>
<polygon fill="none" stroke="#bfbfbf" points="200.5,-56.5 200.5,-75.5 316.5,-75.5 316.5,-56.5 200.5,-56.5"/>
<text text-anchor="middle" x="258.5" y="-63.5" font-family="FreeSans" font-size="10.00">boost/filesystem.hpp</text>
</g>
<!-- Node9&#45;&gt;Node13 -->
<g id="edge13" class="edge"><title>Node9&#45;&gt;Node13</title>
<path fill="none" stroke="midnightblue" d="M186.317,-112.324C199.733,-103.9 220.324,-90.9709 236.086,-81.0741"/>
<polygon fill="midnightblue" stroke="midnightblue" points="238.109,-83.9364 244.717,-75.6545 234.387,-78.0081 238.109,-83.9364"/>
</g>
<!-- Node15 -->
<g id="node15" class="node"><title>Node15</title>
<g id="a_node15"><a xlink:href="_viewport2_d_8h.html" target="_top" xlink:title="Viewport2D.h">
<polygon fill="none" stroke="black" points="456.5,-112.5 456.5,-131.5 536.5,-131.5 536.5,-112.5 456.5,-112.5"/>
<text text-anchor="middle" x="496.5" y="-119.5" font-family="FreeSans" font-size="10.00">Viewport2D.h</text>
</a>
</g>
</g>
<!-- Node14&#45;&gt;Node15 -->
<g id="edge17" class="edge"><title>Node14&#45;&gt;Node15</title>
<path fill="none" stroke="midnightblue" d="M508.48,-224.368C506.382,-206.617 501.542,-165.666 498.698,-141.597"/>
<polygon fill="midnightblue" stroke="midnightblue" points="502.165,-141.112 497.515,-131.591 495.213,-141.933 502.165,-141.112"/>
</g>
<!-- Node16 -->
<g id="node16" class="node"><title>Node16</title>
<g id="a_node16"><a xlink:href="_color_palette_8h.html" target="_top" xlink:title="ColorPalette.h">
<polygon fill="none" stroke="black" points="525,-168.5 525,-187.5 608,-187.5 608,-168.5 525,-168.5"/>
<text text-anchor="middle" x="566.5" y="-175.5" font-family="FreeSans" font-size="10.00">ColorPalette.h</text>
</a>
</g>
</g>
<!-- Node14&#45;&gt;Node16 -->
<g id="edge19" class="edge"><title>Node14&#45;&gt;Node16</title>
<path fill="none" stroke="midnightblue" d="M518.658,-224.324C527.001,-216.42 539.532,-204.548 549.677,-194.938"/>
<polygon fill="midnightblue" stroke="midnightblue" points="552.323,-197.252 557.175,-187.834 547.509,-192.171 552.323,-197.252"/>
</g>
<!-- Node18 -->
<g id="node18" class="node"><title>Node18</title>
<g id="a_node18"><a xlink:href="_bitmap_8h.html" target="_top" xlink:title="Bitmap.h">
<polygon fill="none" stroke="black" points="635.5,-168.5 635.5,-187.5 695.5,-187.5 695.5,-168.5 635.5,-168.5"/>
<text text-anchor="middle" x="665.5" y="-175.5" font-family="FreeSans" font-size="10.00">Bitmap.h</text>
</a>
</g>
</g>
<!-- Node14&#45;&gt;Node18 -->
<g id="edge22" class="edge"><title>Node14&#45;&gt;Node18</title>
<path fill="none" stroke="midnightblue" d="M534.219,-224.444C560.348,-215.399 601.759,-201.064 631.076,-190.916"/>
<polygon fill="midnightblue" stroke="midnightblue" points="632.592,-194.095 640.897,-187.516 630.302,-187.48 632.592,-194.095"/>
</g>
<!-- Node19 -->
<g id="node19" class="node"><title>Node19</title>
<g id="a_node19"><a xlink:href="_patch_8h.html" target="_top" xlink:title="Patch.h">
<polygon fill="none" stroke="black" points="411.5,-168.5 411.5,-187.5 463.5,-187.5 463.5,-168.5 411.5,-168.5"/>
<text text-anchor="middle" x="437.5" y="-175.5" font-family="FreeSans" font-size="10.00">Patch.h</text>
</a>
</g>
</g>
<!-- Node14&#45;&gt;Node19 -->
<g id="edge24" class="edge"><title>Node14&#45;&gt;Node19</title>
<path fill="none" stroke="midnightblue" d="M497.932,-224.324C487.08,-216.185 470.619,-203.839 457.617,-194.087"/>
<polygon fill="midnightblue" stroke="midnightblue" points="459.379,-191.034 449.279,-187.834 455.179,-196.634 459.379,-191.034"/>
</g>
<!-- Node15&#45;&gt;Node7 -->
<g id="edge18" class="edge"><title>Node15&#45;&gt;Node7</title>
<path fill="none" stroke="midnightblue" d="M488.244,-112.083C481.035,-104.298 470.39,-92.8015 461.654,-83.3665"/>
<polygon fill="midnightblue" stroke="midnightblue" points="463.965,-80.7108 454.603,-75.7511 458.829,-85.4666 463.965,-80.7108"/>
</g>
<!-- Node16&#45;&gt;Node7 -->
<g id="edge21" class="edge"><title>Node16&#45;&gt;Node7</title>
<path fill="none" stroke="midnightblue" d="M565.898,-168.332C564.519,-154.739 560.024,-128.284 545.5,-112 531.481,-96.2823 510.881,-85.7179 492.098,-78.8003"/>
<polygon fill="midnightblue" stroke="midnightblue" points="493.08,-75.4371 482.485,-75.5073 490.811,-82.0593 493.08,-75.4371"/>
</g>
<!-- Node17 -->
<g id="node17" class="node"><title>Node17</title>
<polygon fill="none" stroke="#bfbfbf" points="592.5,-112.5 592.5,-131.5 666.5,-131.5 666.5,-112.5 592.5,-112.5"/>
<text text-anchor="middle" x="629.5" y="-119.5" font-family="FreeSans" font-size="10.00">SDL2/SDL.h</text>
</g>
<!-- Node16&#45;&gt;Node17 -->
<g id="edge20" class="edge"><title>Node16&#45;&gt;Node17</title>
<path fill="none" stroke="midnightblue" d="M576.622,-168.324C586.026,-160.263 600.244,-148.077 611.569,-138.369"/>
<polygon fill="midnightblue" stroke="midnightblue" points="613.879,-140.999 619.194,-131.834 609.323,-135.684 613.879,-140.999"/>
</g>
<!-- Node18&#45;&gt;Node7 -->
<g id="edge23" class="edge"><title>Node18&#45;&gt;Node7</title>
<path fill="none" stroke="midnightblue" d="M670.595,-168.317C677.841,-154.705 688.846,-128.224 675.5,-112 654.452,-86.4139 566.842,-75.1535 506.302,-70.3572"/>
<polygon fill="midnightblue" stroke="midnightblue" points="506.32,-66.8487 496.085,-69.5882 505.794,-73.829 506.32,-66.8487"/>
</g>
<!-- Node20 -->
<g id="node20" class="node"><title>Node20</title>
<g id="a_node20"><a xlink:href="_world_coordinates_8h.html" target="_top" xlink:title="../Util/WorldCoordinates.h">
<polygon fill="none" stroke="black" points="301,-112.5 301,-131.5 438,-131.5 438,-112.5 301,-112.5"/>
<text text-anchor="middle" x="369.5" y="-119.5" font-family="FreeSans" font-size="10.00">../Util/WorldCoordinates.h</text>
</a>
</g>
</g>
<!-- Node19&#45;&gt;Node20 -->
<g id="edge25" class="edge"><title>Node19&#45;&gt;Node20</title>
<path fill="none" stroke="midnightblue" d="M426.575,-168.324C416.325,-160.185 400.779,-147.839 388.499,-138.087"/>
<polygon fill="midnightblue" stroke="midnightblue" points="390.632,-135.312 380.624,-131.834 386.279,-140.794 390.632,-135.312"/>
</g>
<!-- Node20&#45;&gt;Node7 -->
<g id="edge26" class="edge"><title>Node20&#45;&gt;Node7</title>
<path fill="none" stroke="midnightblue" d="M381.871,-112.324C393.658,-104.058 411.632,-91.4527 425.636,-81.6322"/>
<polygon fill="midnightblue" stroke="midnightblue" points="427.982,-84.2619 434.159,-75.6545 423.962,-78.5307 427.982,-84.2619"/>
</g>
<!-- Node21&#45;&gt;Node12 -->
<g id="edge28" class="edge"><title>Node21&#45;&gt;Node12</title>
<path fill="none" stroke="midnightblue" d="M698.086,-224.233C703.784,-203.04 715.196,-148.118 692.5,-112 684.449,-99.1872 671.389,-88.5795 659.699,-80.8876"/>
<polygon fill="midnightblue" stroke="midnightblue" points="661.477,-77.8721 651.132,-75.5858 657.794,-83.8245 661.477,-77.8721"/>
</g>
<!-- Node22&#45;&gt;Node20 -->
<g id="edge30" class="edge"><title>Node22&#45;&gt;Node20</title>
<path fill="none" stroke="midnightblue" d="M379.637,-224.368C377.862,-206.617 373.767,-165.666 371.36,-141.597"/>
<polygon fill="midnightblue" stroke="midnightblue" points="374.837,-141.193 370.359,-131.591 367.872,-141.89 374.837,-141.193"/>
</g>
</g>
</svg>
        <g id="navigator" transform="translate(0 0)" fill="#404254">
                <rect fill="#f2f5e9" fill-opacity="0.5" stroke="#606060" stroke-width=".5" x="0" y="0" width="60" height="60"/>
                <use id="zoomplus" xlink:href="#zoomPlus" x="17" y="9" onmousedown="handleZoom(evt,'in')"/>
                <use id="zoomminus" xlink:href="#zoomMin" x="42" y="9" onmousedown="handleZoom(evt,'out')"/>
                <use id="reset" xlink:href="#resetDef" x="30" y="36" onmousedown="handleReset()"/>
                <g id="arrowUp" xlink:href="#dirArrow" transform="translate(30 24)" onmousedown="handlePan(0,-1)">
                  <use xlink:href="#rim" fill="#404040">
                        <set attributeName="fill" to="#808080" begin="arrowUp.mouseover" end="arrowUp.mouseout"/>
                  </use>
                  <path fill="none" stroke="white" stroke-width="1.5" d="M0,-3.0v7 M-2.5,-0.5L0,-3.0L2.5,-0.5"/>
                </g>
                <g id="arrowRight" xlink:href="#dirArrow" transform="rotate(90) translate(36 -43)" onmousedown="handlePan(1,0)">
                  <use xlink:href="#rim" fill="#404040">
                        <set attributeName="fill" to="#808080" begin="arrowRight.mouseover" end="arrowRight.mouseout"/>
                  </use>
                  <path fill="none" stroke="white" stroke-width="1.5" d="M0,-3.0v7 M-2.5,-0.5L0,-3.0L2.5,-0.5"/>
                </g>
                <g id="arrowDown" xlink:href="#dirArrow" transform="rotate(180) translate(-30 -48)" onmousedown="handlePan(0,1)">
                  <use xlink:href="#rim" fill="#404040">
                        <set attributeName="fill" to="#808080" begin="arrowDown.mouseover" end="arrowDown.mouseout"/>
                  </use>
                  <path fill="none" stroke="white" stroke-width="1.5" d="M0,-3.0v7 M-2.5,-0.5L0,-3.0L2.5,-0.5"/>
                </g>
                <g id="arrowLeft" xlink:href="#dirArrow" transform="rotate(270) translate(-36 17)" onmousedown="handlePan(-1,0)">
                  <use xlink:href="#rim" fill="#404040">
                        <set attributeName="fill" to="#808080" begin="arrowLeft.mouseover" end="arrowLeft.mouseout"/>
                  </use>
                  <path fill="none" stroke="white" stroke-width="1.5" d="M0,-3.0v7 M-2.5,-0.5L0,-3.0L2.5,-0.5"/>
                </g>
        </g>
        <svg viewBox="0 0 15 15" width="100%" height="30px" preserveAspectRatio="xMaxYMin meet">
         <g id="arrow_out" transform="scale(0.3 0.3)">
          <a xlink:href="_maze_element_8h__incl_org.svg" target="_base">
           <rect id="button" ry="5" rx="5" y="6" x="6" height="38" width="38"
                fill="#f2f5e9" fill-opacity="0.5" stroke="#606060" stroke-width="1.0"/>
           <path id="arrow"
             d="M 11.500037,31.436501 C 11.940474,20.09759 22.043105,11.32322 32.158766,21.979434 L 37.068811,17.246167 C 37.068811,17.246167 37.088388,32 37.088388,32 L 22.160133,31.978069 C 22.160133,31.978069 26.997745,27.140456 26.997745,27.140456 C 18.528582,18.264221 13.291696,25.230495 11.500037,31.436501 z"
             style="fill:#404040;"/>
          </a>
         </g>
        </svg>
</svg>
