<?xml version="1.0" encoding="UTF-8" standalone="no"?>
<!DOCTYPE svg PUBLIC "-//W3C//DTD SVG 1.1//EN"
 "http://www.w3.org/Graphics/SVG/1.1/DTD/svg11.dtd">
<!-- Generated by graphviz version 2.26.3 (20100126.1600)
 -->
<!-- Title: MessageScene.h Pages: 1 -->
<svg width="972pt" height="88pt"
 viewBox="0.00 0.00 972.00 88.00" xmlns="http://www.w3.org/2000/svg" xmlns:xlink="http://www.w3.org/1999/xlink">
<g id="graph1" class="graph" transform="scale(1 1) rotate(0) translate(4 84)">
<title>MessageScene.h</title>
<!-- Node1 -->
<g id="node1" class="node"><title>Node1</title>
<polygon fill="#bfbfbf" stroke="black" points="426,-59 426,-79 518,-79 518,-59 426,-59"/>
<text text-anchor="middle" x="472" y="-66" font-family="FreeSans" font-size="10.00">MessageScene.h</text>
</g>
<!-- Node2 -->
<g id="node3" class="node"><title>Node2</title>
<a xlink:href="_client_app_8cpp.html" target="_top" xlink:title="ClientApp.cpp">
<polygon fill="none" stroke="black" points="-0.5,-1 -0.5,-21 76.5,-21 76.5,-1 -0.5,-1"/>
<text text-anchor="middle" x="38" y="-8" font-family="FreeSans" font-size="10.00">ClientApp.cpp</text>
</a>
</g>
<!-- Node1&#45;&gt;Node2 -->
<g id="edge2" class="edge"><title>Node1&#45;&gt;Node2</title>
<path fill="none" stroke="midnightblue" d="M415.646,-64.0994C340.052,-57.083 201.796,-42.6964 85,-22 82.2769,-21.5175 79.4749,-20.9766 76.6596,-20.4003"/>
<polygon fill="midnightblue" stroke="midnightblue" points="415.61,-67.6107 425.888,-65.0404 416.25,-60.64 415.61,-67.6107"/>
</g>
<!-- Node3 -->
<g id="node5" class="node"><title>Node3</title>
<a xlink:href="_display_select_scene_8cpp.html" target="_top" xlink:title="DisplaySelectScene.cpp">
<polygon fill="none" stroke="black" points="94,-1 94,-21 216,-21 216,-1 94,-1"/>
<text text-anchor="middle" x="155" y="-8" font-family="FreeSans" font-size="10.00">DisplaySelectScene.cpp</text>
</a>
</g>
<!-- Node1&#45;&gt;Node3 -->
<g id="edge4" class="edge"><title>Node1&#45;&gt;Node3</title>
<path fill="none" stroke="midnightblue" d="M415.785,-58.7145C357.59,-48.0669 267.283,-31.5439 209.666,-21.002"/>
<polygon fill="midnightblue" stroke="midnightblue" points="415.439,-62.2093 425.905,-60.5663 416.699,-55.3236 415.439,-62.2093"/>
</g>
<!-- Node4 -->
<g id="node7" class="node"><title>Node4</title>
<a xlink:href="_main_menu_scene_8cpp.html" target="_top" xlink:title="MainMenuScene.cpp">
<polygon fill="none" stroke="black" points="233.5,-1 233.5,-21 340.5,-21 340.5,-1 233.5,-1"/>
<text text-anchor="middle" x="287" y="-8" font-family="FreeSans" font-size="10.00">MainMenuScene.cpp</text>
</a>
</g>
<!-- Node1&#45;&gt;Node4 -->
<g id="edge6" class="edge"><title>Node1&#45;&gt;Node4</title>
<path fill="none" stroke="midnightblue" d="M430.217,-55.9005C396.567,-45.3507 349.955,-30.7374 319.165,-21.0842"/>
<polygon fill="midnightblue" stroke="midnightblue" points="429.186,-59.2453 439.775,-58.8972 431.28,-52.5658 429.186,-59.2453"/>
</g>
<!-- Node5 -->
<g id="node9" class="node"><title>Node5</title>
<a xlink:href="_message_scene_8cpp.html" target="_top" xlink:title="MessageScene.cpp">
<polygon fill="none" stroke="black" points="358,-1 358,-21 460,-21 460,-1 358,-1"/>
<text text-anchor="middle" x="409" y="-8" font-family="FreeSans" font-size="10.00">MessageScene.cpp</text>
</a>
</g>
<!-- Node1&#45;&gt;Node5 -->
<g id="edge8" class="edge"><title>Node1&#45;&gt;Node5</title>
<path fill="none" stroke="midnightblue" d="M453.382,-51.86C442.631,-41.9622 429.462,-29.8377 420.272,-21.3776"/>
<polygon fill="midnightblue" stroke="midnightblue" points="451.299,-54.699 461.026,-58.8972 456.04,-49.5491 451.299,-54.699"/>
</g>
<!-- Node6 -->
<g id="node11" class="node"><title>Node6</title>
<a xlink:href="_pause_menu_scene_8cpp.html" target="_top" xlink:title="PauseMenuScene.cpp">
<polygon fill="none" stroke="black" points="478,-1 478,-21 592,-21 592,-1 478,-1"/>
<text text-anchor="middle" x="535" y="-8" font-family="FreeSans" font-size="10.00">PauseMenuScene.cpp</text>
</a>
</g>
<!-- Node1&#45;&gt;Node6 -->
<g id="edge10" class="edge"><title>Node1&#45;&gt;Node6</title>
<path fill="none" stroke="midnightblue" d="M490.618,-51.86C501.369,-41.9622 514.538,-29.8377 523.728,-21.3776"/>
<polygon fill="midnightblue" stroke="midnightblue" points="487.96,-49.5491 482.974,-58.8972 492.701,-54.699 487.96,-49.5491"/>
</g>
<!-- Node7 -->
<g id="node13" class="node"><title>Node7</title>
<a xlink:href="_settings_scene_8cpp.html" target="_top" xlink:title="SettingsScene.cpp">
<polygon fill="none" stroke="black" points="610,-1 610,-21 708,-21 708,-1 610,-1"/>
<text text-anchor="middle" x="659" y="-8" font-family="FreeSans" font-size="10.00">SettingsScene.cpp</text>
</a>
</g>
<!-- Node1&#45;&gt;Node7 -->
<g id="edge12" class="edge"><title>Node1&#45;&gt;Node7</title>
<path fill="none" stroke="midnightblue" d="M514.235,-55.9005C548.248,-45.3507 595.364,-30.7374 626.487,-21.0842"/>
<polygon fill="midnightblue" stroke="midnightblue" points="513.087,-52.5918 504.573,-58.8972 515.161,-59.2776 513.087,-52.5918"/>
</g>
<!-- Node8 -->
<g id="node15" class="node"><title>Node8</title>
<a xlink:href="_test_lab_scene_8cpp.html" target="_top" xlink:title="TestLabScene.cpp">
<polygon fill="none" stroke="black" points="726,-1 726,-21 824,-21 824,-1 726,-1"/>
<text text-anchor="middle" x="775" y="-8" font-family="FreeSans" font-size="10.00">TestLabScene.cpp</text>
</a>
</g>
<!-- Node1&#45;&gt;Node8 -->
<g id="edge14" class="edge"><title>Node1&#45;&gt;Node8</title>
<path fill="none" stroke="midnightblue" d="M527.896,-58.3005C584.619,-47.4425 671.579,-30.7968 725.777,-20.4223"/>
<polygon fill="midnightblue" stroke="midnightblue" points="527.183,-54.8733 518.019,-60.191 528.499,-61.7485 527.183,-54.8733"/>
</g>
<!-- Node9 -->
<g id="node17" class="node"><title>Node9</title>
<a xlink:href="_video_settings_scene_8cpp.html" target="_top" xlink:title="VideoSettingsScene.cpp">
<polygon fill="none" stroke="black" points="841.5,-1 841.5,-21 964.5,-21 964.5,-1 841.5,-1"/>
<text text-anchor="middle" x="903" y="-8" font-family="FreeSans" font-size="10.00">VideoSettingsScene.cpp</text>
</a>
</g>
<!-- Node1&#45;&gt;Node9 -->
<g id="edge16" class="edge"><title>Node1&#45;&gt;Node9</title>
<path fill="none" stroke="midnightblue" d="M528.291,-62.1383C599.367,-53.3671 725.372,-37.46 833,-22 835.679,-21.6152 838.414,-21.2153 841.177,-20.8057"/>
<polygon fill="midnightblue" stroke="midnightblue" points="527.709,-58.6835 518.212,-63.3798 528.565,-65.631 527.709,-58.6835"/>
</g>
</g>
</svg>
