<?xml version="1.0" encoding="UTF-8" standalone="no"?>
<!DOCTYPE svg PUBLIC "-//W3C//DTD SVG 1.1//EN"
 "http://www.w3.org/Graphics/SVG/1.1/DTD/svg11.dtd">
<!-- Generated by graphviz version 2.26.3 (20100126.1600)
 -->
<!-- Title: MessageScene.h Pages: 1 -->
<svg width="576pt" height="88pt"
 viewBox="0.00 0.00 576.00 88.00" xmlns="http://www.w3.org/2000/svg" xmlns:xlink="http://www.w3.org/1999/xlink">
<g id="graph1" class="graph" transform="scale(1 1) rotate(0) translate(4 84)">
<title>MessageScene.h</title>
<!-- Node1 -->
<g id="node1" class="node"><title>Node1</title>
<polygon fill="#bfbfbf" stroke="black" points="223,-59 223,-79 315,-79 315,-59 223,-59"/>
<text text-anchor="middle" x="269" y="-66" font-family="FreeSans" font-size="10.00">MessageScene.h</text>
</g>
<!-- Node2 -->
<g id="node3" class="node"><title>Node2</title>
<a xlink:href="_client_app_8cpp.html" target="_top" xlink:title="ClientApp.cpp">
<polygon fill="none" stroke="black" points="-0.5,-1 -0.5,-21 76.5,-21 76.5,-1 -0.5,-1"/>
<text text-anchor="middle" x="38" y="-8" font-family="FreeSans" font-size="10.00">ClientApp.cpp</text>
</a>
</g>
<!-- Node1&#45;&gt;Node2 -->
<g id="edge2" class="edge"><title>Node1&#45;&gt;Node2</title>
<path fill="none" stroke="midnightblue" d="M219.124,-56.477C176.43,-45.7573 115.832,-30.5423 76.7156,-20.7208"/>
<polygon fill="midnightblue" stroke="midnightblue" points="218.475,-59.9227 229.027,-58.9634 220.18,-53.1334 218.475,-59.9227"/>
</g>
<!-- Node3 -->
<g id="node5" class="node"><title>Node3</title>
<a xlink:href="_main_menu_scene_8cpp.html" target="_top" xlink:title="MainMenuScene.cpp">
<polygon fill="none" stroke="black" points="93.5,-1 93.5,-21 200.5,-21 200.5,-1 93.5,-1"/>
<text text-anchor="middle" x="147" y="-8" font-family="FreeSans" font-size="10.00">MainMenuScene.cpp</text>
</a>
</g>
<!-- Node1&#45;&gt;Node3 -->
<g id="edge4" class="edge"><title>Node1&#45;&gt;Node3</title>
<path fill="none" stroke="midnightblue" d="M238.573,-54.5345C216.739,-44.1545 187.857,-30.424 168.417,-21.1817"/>
<polygon fill="midnightblue" stroke="midnightblue" points="237.215,-57.7645 247.749,-58.8972 240.221,-51.4426 237.215,-57.7645"/>
</g>
<!-- Node4 -->
<g id="node7" class="node"><title>Node4</title>
<a xlink:href="_message_scene_8cpp.html" target="_top" xlink:title="MessageScene.cpp">
<polygon fill="none" stroke="black" points="218,-1 218,-21 320,-21 320,-1 218,-1"/>
<text text-anchor="middle" x="269" y="-8" font-family="FreeSans" font-size="10.00">MessageScene.cpp</text>
</a>
</g>
<!-- Node1&#45;&gt;Node4 -->
<g id="edge6" class="edge"><title>Node1&#45;&gt;Node4</title>
<path fill="none" stroke="midnightblue" d="M269,-48.8902C269,-39.6201 269,-29.0083 269,-21.3776"/>
<polygon fill="midnightblue" stroke="midnightblue" points="265.5,-48.8971 269,-58.8972 272.5,-48.8972 265.5,-48.8971"/>
</g>
<!-- Node5 -->
<g id="node9" class="node"><title>Node5</title>
<a xlink:href="_pause_menu_scene_8cpp.html" target="_top" xlink:title="PauseMenuScene.cpp">
<polygon fill="none" stroke="black" points="338,-1 338,-21 452,-21 452,-1 338,-1"/>
<text text-anchor="middle" x="395" y="-8" font-family="FreeSans" font-size="10.00">PauseMenuScene.cpp</text>
</a>
</g>
<!-- Node1&#45;&gt;Node5 -->
<g id="edge8" class="edge"><title>Node1&#45;&gt;Node5</title>
<path fill="none" stroke="midnightblue" d="M300.122,-54.674C322.707,-44.2778 352.713,-30.4654 372.881,-21.1817"/>
<polygon fill="midnightblue" stroke="midnightblue" points="298.568,-51.5363 290.948,-58.8972 301.495,-57.895 298.568,-51.5363"/>
</g>
<!-- Node6 -->
<g id="node11" class="node"><title>Node6</title>
<a xlink:href="_test_lab_scene_8cpp.html" target="_top" xlink:title="TestLabScene.cpp">
<polygon fill="none" stroke="black" points="470,-1 470,-21 568,-21 568,-1 470,-1"/>
<text text-anchor="middle" x="519" y="-8" font-family="FreeSans" font-size="10.00">TestLabScene.cpp</text>
</a>
</g>
<!-- Node1&#45;&gt;Node6 -->
<g id="edge10" class="edge"><title>Node1&#45;&gt;Node6</title>
<path fill="none" stroke="midnightblue" d="M322.011,-56.7014C367.815,-46.0749 433.184,-30.9093 475.85,-21.0108"/>
<polygon fill="midnightblue" stroke="midnightblue" points="321.212,-53.2939 312.261,-58.9634 322.794,-60.1128 321.212,-53.2939"/>
</g>
</g>
</svg>
