<?xml version="1.0" encoding="UTF-8" standalone="no"?>
<!DOCTYPE svg PUBLIC "-//W3C//DTD SVG 1.1//EN"
 "http://www.w3.org/Graphics/SVG/1.1/DTD/svg11.dtd">
<!-- Generated by graphviz version 2.26.3 (20100126.1600)
 -->
<!-- Title: Method.cpp Pages: 1 -->
<!--zoomable 274 -->
<svg id="main" version="1.1" xmlns="http://www.w3.org/2000/svg" xmlns:xlink="http://www.w3.org/1999/xlink" xml:space="preserve" onload="init(evt)">
        <defs>
                <circle id="rim" cx="0" cy="0" r="7"/>
                <circle id="rim2" cx="0" cy="0" r="3.5"/>
                <g id="zoomPlus">
                        <use xlink:href="#rim" fill="#404040">
                                <set attributeName="fill" to="#808080" begin="zoomplus.mouseover" end="zoomplus.mouseout"/>
                        </use>
                        <path d="M-4,0h8M0,-4v8" fill="none" stroke="white" stroke-width="1.5" pointer-events="none"/>
                </g>
                <g id="zoomMin">
                        <use xlink:href="#rim" fill="#404040">
                                <set attributeName="fill" to="#808080" begin="zoomminus.mouseover" end="zoomminus.mouseout"/>
                        </use>
                        <path d="M-4,0h8" fill="none" stroke="white" stroke-width="1.5" pointer-events="none"/>
                </g>
                <g id="dirArrow">
                        <path fill="none" stroke="white" stroke-width="1.5" d="M0,-3.0v7 M-2.5,-0.5L0,-3.0L2.5,-0.5"/>
                </g>
               <g id="resetDef">
                       <use xlink:href="#rim2" fill="#404040">
                               <set attributeName="fill" to="#808080" begin="reset.mouseover" end="reset.mouseout"/>
                       </use>
               </g>
        </defs>

<script type="text/javascript">
var viewWidth = 865;
var viewHeight = 274;
var sectionId = 'dynsection-0';
</script>
<script xlink:href="svgpan.js"/>
<svg id="graph" class="graph">
<g id="viewport">
<title>Method.cpp</title>
<!-- Node1 -->
<g id="node1" class="node"><title>Node1</title>
<polygon fill="#bfbfbf" stroke="black" points="337.5,-245 337.5,-265 404.5,-265 404.5,-245 337.5,-245"/>
<text text-anchor="middle" x="371" y="-252" font-family="FreeSans" font-size="10.00">Method.cpp</text>
</g>
<!-- Node2 -->
<g id="node3" class="node"><title>Node2</title>
<polygon fill="none" stroke="#bfbfbf" points="-0.5,-181 -0.5,-201 52.5,-201 52.5,-181 -0.5,-181"/>
<text text-anchor="middle" x="26" y="-188" font-family="FreeSans" font-size="10.00">StdAfx.h</text>
</g>
<!-- Node1&#45;&gt;Node2 -->
<g id="edge2" class="edge"><title>Node1&#45;&gt;Node2</title>
<path fill="none" stroke="midnightblue" d="M337.227,-253.212C279.457,-249.423 158.466,-238.29 61,-208 58.5164,-207.228 55.9882,-206.304 53.485,-205.291"/>
<polygon fill="midnightblue" stroke="midnightblue" points="54.6578,-201.981 44.1017,-201.075 51.7892,-208.366 54.6578,-201.981"/>
</g>
<!-- Node3 -->
<g id="node5" class="node"><title>Node3</title>
<polygon fill="none" stroke="#bfbfbf" points="70,-175 70,-207 180,-207 180,-175 70,-175"/>
<text text-anchor="start" x="78" y="-194" font-family="FreeSans" font-size="10.00">boost/algorithm/string</text>
<text text-anchor="middle" x="125" y="-182" font-family="FreeSans" font-size="10.00">/trim.hpp</text>
</g>
<!-- Node1&#45;&gt;Node3 -->
<g id="edge4" class="edge"><title>Node1&#45;&gt;Node3</title>
<path fill="none" stroke="midnightblue" d="M337.438,-246.407C302.903,-237.548 247.279,-223.235 190.089,-208.277"/>
<polygon fill="midnightblue" stroke="midnightblue" points="190.712,-204.822 180.152,-205.676 188.939,-211.594 190.712,-204.822"/>
</g>
<!-- Node4 -->
<g id="node7" class="node"><title>Node4</title>
<polygon fill="none" stroke="#bfbfbf" points="198,-181 198,-201 292,-201 292,-181 198,-181"/>
<text text-anchor="middle" x="245" y="-188" font-family="FreeSans" font-size="10.00">boost/foreach.hpp</text>
</g>
<!-- Node1&#45;&gt;Node4 -->
<g id="edge6" class="edge"><title>Node1&#45;&gt;Node4</title>
<path fill="none" stroke="midnightblue" d="M351.035,-244.859C330.299,-234.326 297.647,-217.742 274.053,-205.757"/>
<polygon fill="midnightblue" stroke="midnightblue" points="275.373,-202.502 264.872,-201.094 272.202,-208.743 275.373,-202.502"/>
</g>
<!-- Node5 -->
<g id="node9" class="node"><title>Node5</title>
<a xlink:href="_map_node_8h.html" target="_top" xlink:title="../../Util/yaml/MapNode.h">
<polygon fill="none" stroke="black" points="310,-181 310,-201 432,-201 432,-181 310,-181"/>
<text text-anchor="middle" x="371" y="-188" font-family="FreeSans" font-size="10.00">../../Util/yaml/MapNode.h</text>
</a>
</g>
<!-- Node1&#45;&gt;Node5 -->
<g id="edge8" class="edge"><title>Node1&#45;&gt;Node5</title>
<path fill="none" stroke="midnightblue" d="M371,-244.717C371,-235.707 371,-222.347 371,-211.205"/>
<polygon fill="midnightblue" stroke="midnightblue" points="374.5,-211.046 371,-201.046 367.5,-211.046 374.5,-211.046"/>
</g>
<!-- Node10 -->
<g id="node19" class="node"><title>Node10</title>
<a xlink:href="_scalar_node_8h.html" target="_top" xlink:title="../../Util/yaml/ScalarNode.h">
<polygon fill="none" stroke="black" points="587.5,-181 587.5,-201 718.5,-201 718.5,-181 587.5,-181"/>
<text text-anchor="middle" x="653" y="-188" font-family="FreeSans" font-size="10.00">../../Util/yaml/ScalarNode.h</text>
</a>
</g>
<!-- Node1&#45;&gt;Node10 -->
<g id="edge18" class="edge"><title>Node1&#45;&gt;Node10</title>
<path fill="none" stroke="midnightblue" d="M404.512,-247.466C445.626,-238.215 517.456,-222.023 579,-208 585.649,-206.485 592.633,-204.888 599.545,-203.304"/>
<polygon fill="midnightblue" stroke="midnightblue" points="600.608,-206.651 609.572,-201.004 599.043,-199.829 600.608,-206.651"/>
</g>
<!-- Node19 -->
<g id="node39" class="node"><title>Node19</title>
<a xlink:href="_seq_node_8h.html" target="_top" xlink:title="../../Util/yaml/SeqNode.h">
<polygon fill="none" stroke="black" points="449.5,-181 449.5,-201 570.5,-201 570.5,-181 449.5,-181"/>
<text text-anchor="middle" x="510" y="-188" font-family="FreeSans" font-size="10.00">../../Util/yaml/SeqNode.h</text>
</a>
</g>
<!-- Node1&#45;&gt;Node19 -->
<g id="edge40" class="edge"><title>Node1&#45;&gt;Node19</title>
<path fill="none" stroke="midnightblue" d="M393.025,-244.859C416.206,-234.186 452.884,-217.298 478.985,-205.28"/>
<polygon fill="midnightblue" stroke="midnightblue" points="480.458,-208.455 488.078,-201.094 477.531,-202.097 480.458,-208.455"/>
</g>
<!-- Node20 -->
<g id="node43" class="node"><title>Node20</title>
<a xlink:href="_method_8h.html" target="_top" xlink:title="Method.h">
<polygon fill="none" stroke="black" points="736,-181 736,-201 792,-201 792,-181 736,-181"/>
<text text-anchor="middle" x="764" y="-188" font-family="FreeSans" font-size="10.00">Method.h</text>
</a>
</g>
<!-- Node1&#45;&gt;Node20 -->
<g id="edge46" class="edge"><title>Node1&#45;&gt;Node20</title>
<path fill="none" stroke="midnightblue" d="M404.562,-253.902C468.505,-251.084 611.698,-241.278 727,-208 729.802,-207.191 732.661,-206.202 735.487,-205.111"/>
<polygon fill="midnightblue" stroke="midnightblue" points="737.007,-208.268 744.833,-201.126 734.261,-201.829 737.007,-208.268"/>
</g>
<!-- Node6 -->
<g id="node11" class="node"><title>Node6</title>
<polygon fill="none" stroke="#bfbfbf" points="353.5,-117 353.5,-137 388.5,-137 388.5,-117 353.5,-117"/>
<text text-anchor="middle" x="371" y="-124" font-family="FreeSans" font-size="10.00">map</text>
</g>
<!-- Node5&#45;&gt;Node6 -->
<g id="edge10" class="edge"><title>Node5&#45;&gt;Node6</title>
<path fill="none" stroke="midnightblue" d="M371,-180.717C371,-171.707 371,-158.347 371,-147.205"/>
<polygon fill="midnightblue" stroke="midnightblue" points="374.5,-147.046 371,-137.046 367.5,-147.046 374.5,-147.046"/>
</g>
<!-- Node7 -->
<g id="node13" class="node"><title>Node7</title>
<a xlink:href="_node_8h.html" target="_top" xlink:title="Node.h">
<polygon fill="none" stroke="black" points="433.5,-117 433.5,-137 480.5,-137 480.5,-117 433.5,-117"/>
<text text-anchor="middle" x="457" y="-124" font-family="FreeSans" font-size="10.00">Node.h</text>
</a>
</g>
<!-- Node5&#45;&gt;Node7 -->
<g id="edge12" class="edge"><title>Node5&#45;&gt;Node7</title>
<path fill="none" stroke="midnightblue" d="M384.817,-180.717C398.438,-170.581 419.457,-154.939 435.306,-143.144"/>
<polygon fill="midnightblue" stroke="midnightblue" points="437.568,-145.824 443.5,-137.046 433.389,-140.209 437.568,-145.824"/>
</g>
<!-- Node8 -->
<g id="node15" class="node"><title>Node8</title>
<polygon fill="none" stroke="#bfbfbf" points="375,-59 375,-79 419,-79 419,-59 375,-59"/>
<text text-anchor="middle" x="397" y="-66" font-family="FreeSans" font-size="10.00">yaml.h</text>
</g>
<!-- Node7&#45;&gt;Node8 -->
<g id="edge14" class="edge"><title>Node7&#45;&gt;Node8</title>
<path fill="none" stroke="midnightblue" d="M446.549,-116.897C437.88,-108.517 425.354,-96.4093 415.066,-86.4638"/>
<polygon fill="midnightblue" stroke="midnightblue" points="417.358,-83.8114 407.735,-79.3776 412.493,-88.8443 417.358,-83.8114"/>
</g>
<!-- Node9 -->
<g id="node17" class="node"><title>Node9</title>
<polygon fill="none" stroke="#bfbfbf" points="436.5,-59 436.5,-79 477.5,-79 477.5,-59 436.5,-59"/>
<text text-anchor="middle" x="457" y="-66" font-family="FreeSans" font-size="10.00">string</text>
</g>
<!-- Node7&#45;&gt;Node9 -->
<g id="edge16" class="edge"><title>Node7&#45;&gt;Node9</title>
<path fill="none" stroke="midnightblue" d="M457,-116.897C457,-109.339 457,-98.7476 457,-89.4458"/>
<polygon fill="midnightblue" stroke="midnightblue" points="460.5,-89.3776 457,-79.3776 453.5,-89.3776 460.5,-89.3776"/>
</g>
<!-- Node10&#45;&gt;Node7 -->
<g id="edge38" class="edge"><title>Node10&#45;&gt;Node7</title>
<path fill="none" stroke="midnightblue" d="M621.943,-180.859C586.029,-169.132 527.137,-149.902 490.298,-137.873"/>
<polygon fill="midnightblue" stroke="midnightblue" points="491.122,-134.46 480.53,-134.683 488.949,-141.114 491.122,-134.46"/>
</g>
<!-- Node11 -->
<g id="node21" class="node"><title>Node11</title>
<polygon fill="none" stroke="#bfbfbf" points="568.5,-117 568.5,-137 615.5,-137 615.5,-117 568.5,-117"/>
<text text-anchor="middle" x="592" y="-124" font-family="FreeSans" font-size="10.00">limits.h</text>
</g>
<!-- Node10&#45;&gt;Node11 -->
<g id="edge20" class="edge"><title>Node10&#45;&gt;Node11</title>
<path fill="none" stroke="midnightblue" d="M643.199,-180.717C633.896,-170.956 619.727,-156.09 608.651,-144.47"/>
<polygon fill="midnightblue" stroke="midnightblue" points="611.008,-141.87 601.575,-137.046 605.941,-146.7 611.008,-141.87"/>
</g>
<!-- Node12 -->
<g id="node23" class="node"><title>Node12</title>
<a xlink:href="_o_s_8h.html" target="_top" xlink:title="../OS.h">
<polygon fill="none" stroke="black" points="633,-117 633,-137 679,-137 679,-117 633,-117"/>
<text text-anchor="middle" x="656" y="-124" font-family="FreeSans" font-size="10.00">../OS.h</text>
</a>
</g>
<!-- Node10&#45;&gt;Node12 -->
<g id="edge22" class="edge"><title>Node10&#45;&gt;Node12</title>
<path fill="none" stroke="midnightblue" d="M653.482,-180.717C653.904,-171.707 654.531,-158.347 655.053,-147.205"/>
<polygon fill="midnightblue" stroke="midnightblue" points="658.557,-147.199 655.529,-137.046 651.565,-146.871 658.557,-147.199"/>
</g>
<!-- Node12&#45;&gt;Node9 -->
<g id="edge28" class="edge"><title>Node12&#45;&gt;Node9</title>
<path fill="none" stroke="midnightblue" d="M632.996,-118.859C629.981,-117.861 626.924,-116.883 624,-116 566.281,-98.5784 548.144,-99.1606 487.501,-80.2696"/>
<polygon fill="midnightblue" stroke="midnightblue" points="488.405,-76.8845 477.815,-77.2013 486.291,-83.5578 488.405,-76.8845"/>
</g>
<!-- Node13 -->
<g id="node25" class="node"><title>Node13</title>
<polygon fill="none" stroke="#bfbfbf" points="815,-59 815,-79 857,-79 857,-59 815,-59"/>
<text text-anchor="middle" x="836" y="-66" font-family="FreeSans" font-size="10.00">locale</text>
</g>
<!-- Node12&#45;&gt;Node13 -->
<g id="edge24" class="edge"><title>Node12&#45;&gt;Node13</title>
<path fill="none" stroke="midnightblue" d="M679.238,-120.095C707.026,-111.757 755.141,-97.0652 805.068,-80.2206"/>
<polygon fill="midnightblue" stroke="midnightblue" points="806.395,-83.4665 814.739,-76.938 804.145,-76.838 806.395,-83.4665"/>
</g>
<!-- Node14 -->
<g id="node27" class="node"><title>Node14</title>
<polygon fill="none" stroke="#bfbfbf" points="557,-59 557,-79 587,-79 587,-59 557,-59"/>
<text text-anchor="middle" x="572" y="-66" font-family="FreeSans" font-size="10.00">set</text>
</g>
<!-- Node12&#45;&gt;Node14 -->
<g id="edge26" class="edge"><title>Node12&#45;&gt;Node14</title>
<path fill="none" stroke="midnightblue" d="M641.368,-116.897C628.678,-108.135 610.085,-95.2965 595.341,-85.1164"/>
<polygon fill="midnightblue" stroke="midnightblue" points="596.964,-81.9835 586.746,-79.1817 592.986,-87.7438 596.964,-81.9835"/>
</g>
<!-- Node15 -->
<g id="node30" class="node"><title>Node15</title>
<polygon fill="none" stroke="#bfbfbf" points="495,-59 495,-79 539,-79 539,-59 495,-59"/>
<text text-anchor="middle" x="517" y="-66" font-family="FreeSans" font-size="10.00">vector</text>
</g>
<!-- Node12&#45;&gt;Node15 -->
<g id="edge30" class="edge"><title>Node12&#45;&gt;Node15</title>
<path fill="none" stroke="midnightblue" d="M632.735,-117.292C609.708,-107.684 574.291,-92.9055 548.7,-82.2273"/>
<polygon fill="midnightblue" stroke="midnightblue" points="549.996,-78.9758 539.42,-78.3549 547.301,-85.436 549.996,-78.9758"/>
</g>
<!-- Node16 -->
<g id="node32" class="node"><title>Node16</title>
<polygon fill="none" stroke="#bfbfbf" points="604.5,-59 604.5,-79 709.5,-79 709.5,-59 604.5,-59"/>
<text text-anchor="middle" x="657" y="-66" font-family="FreeSans" font-size="10.00">boost/filesystem.hpp</text>
</g>
<!-- Node12&#45;&gt;Node16 -->
<g id="edge32" class="edge"><title>Node12&#45;&gt;Node16</title>
<path fill="none" stroke="midnightblue" d="M656.174,-116.897C656.304,-109.339 656.487,-98.7476 656.647,-89.4458"/>
<polygon fill="midnightblue" stroke="midnightblue" points="660.148,-89.4365 656.821,-79.3776 653.149,-89.3157 660.148,-89.4365"/>
</g>
<!-- Node17 -->
<g id="node34" class="node"><title>Node17</title>
<a xlink:href="_m_r___types_8h.html" target="_top" xlink:title="MR_Types.h">
<polygon fill="none" stroke="black" points="726.5,-59 726.5,-79 797.5,-79 797.5,-59 726.5,-59"/>
<text text-anchor="middle" x="762" y="-66" font-family="FreeSans" font-size="10.00">MR_Types.h</text>
</a>
</g>
<!-- Node12&#45;&gt;Node17 -->
<g id="edge34" class="edge"><title>Node12&#45;&gt;Node17</title>
<path fill="none" stroke="midnightblue" d="M674.464,-116.897C691.006,-107.846 715.498,-94.4442 734.372,-84.117"/>
<polygon fill="midnightblue" stroke="midnightblue" points="736.3,-87.0522 743.392,-79.1817 732.939,-80.9114 736.3,-87.0522"/>
</g>
<!-- Node18 -->
<g id="node36" class="node"><title>Node18</title>
<polygon fill="none" stroke="#bfbfbf" points="733,-1 733,-21 791,-21 791,-1 733,-1"/>
<text text-anchor="middle" x="762" y="-8" font-family="FreeSans" font-size="10.00">inttypes.h</text>
</g>
<!-- Node17&#45;&gt;Node18 -->
<g id="edge36" class="edge"><title>Node17&#45;&gt;Node18</title>
<path fill="none" stroke="midnightblue" d="M762,-58.8972C762,-51.339 762,-40.7476 762,-31.4458"/>
<polygon fill="midnightblue" stroke="midnightblue" points="765.5,-31.3776 762,-21.3776 758.5,-31.3776 765.5,-31.3776"/>
</g>
<!-- Node19&#45;&gt;Node7 -->
<g id="edge42" class="edge"><title>Node19&#45;&gt;Node7</title>
<path fill="none" stroke="midnightblue" d="M501.485,-180.717C493.479,-171.05 481.327,-156.376 471.746,-144.806"/>
<polygon fill="midnightblue" stroke="midnightblue" points="474.393,-142.516 465.319,-137.046 469.002,-146.98 474.393,-142.516"/>
</g>
<!-- Node19&#45;&gt;Node15 -->
<g id="edge44" class="edge"><title>Node19&#45;&gt;Node15</title>
<path fill="none" stroke="midnightblue" d="M510.597,-180.598C511.755,-160.42 514.324,-115.64 515.832,-89.3495"/>
<polygon fill="midnightblue" stroke="midnightblue" points="519.346,-89.2165 516.424,-79.0324 512.357,-88.8154 519.346,-89.2165"/>
</g>
</g>
</svg>
        <g id="navigator" transform="translate(0 0)" fill="#404254">
                <rect fill="#f2f5e9" fill-opacity="0.5" stroke="#606060" stroke-width=".5" x="0" y="0" width="60" height="60"/>
                <use id="zoomplus" xlink:href="#zoomPlus" x="17" y="9" onmousedown="handleZoom(evt,'in')"/>
                <use id="zoomminus" xlink:href="#zoomMin" x="42" y="9" onmousedown="handleZoom(evt,'out')"/>
                <use id="reset" xlink:href="#resetDef" x="30" y="36" onmousedown="handleReset()"/>
                <g id="arrowUp" xlink:href="#dirArrow" transform="translate(30 24)" onmousedown="handlePan(0,-1)">
                  <use xlink:href="#rim" fill="#404040">
                        <set attributeName="fill" to="#808080" begin="arrowUp.mouseover" end="arrowUp.mouseout"/>
                  </use>
                  <path fill="none" stroke="white" stroke-width="1.5" d="M0,-3.0v7 M-2.5,-0.5L0,-3.0L2.5,-0.5"/>
                </g>
                <g id="arrowRight" xlink:href="#dirArrow" transform="rotate(90) translate(36 -43)" onmousedown="handlePan(1,0)">
                  <use xlink:href="#rim" fill="#404040">
                        <set attributeName="fill" to="#808080" begin="arrowRight.mouseover" end="arrowRight.mouseout"/>
                  </use>
                  <path fill="none" stroke="white" stroke-width="1.5" d="M0,-3.0v7 M-2.5,-0.5L0,-3.0L2.5,-0.5"/>
                </g>
                <g id="arrowDown" xlink:href="#dirArrow" transform="rotate(180) translate(-30 -48)" onmousedown="handlePan(0,1)">
                  <use xlink:href="#rim" fill="#404040">
                        <set attributeName="fill" to="#808080" begin="arrowDown.mouseover" end="arrowDown.mouseout"/>
                  </use>
                  <path fill="none" stroke="white" stroke-width="1.5" d="M0,-3.0v7 M-2.5,-0.5L0,-3.0L2.5,-0.5"/>
                </g>
                <g id="arrowLeft" xlink:href="#dirArrow" transform="rotate(270) translate(-36 17)" onmousedown="handlePan(-1,0)">
                  <use xlink:href="#rim" fill="#404040">
                        <set attributeName="fill" to="#808080" begin="arrowLeft.mouseover" end="arrowLeft.mouseout"/>
                  </use>
                  <path fill="none" stroke="white" stroke-width="1.5" d="M0,-3.0v7 M-2.5,-0.5L0,-3.0L2.5,-0.5"/>
                </g>
        </g>
        <svg viewBox="0 0 15 15" width="100%" height="30px" preserveAspectRatio="xMaxYMin meet">
         <g id="arrow_out" transform="scale(0.3 0.3)">
          <a xlink:href="_method_8cpp__incl_org.svg" target="_base">
           <rect id="button" ry="5" rx="5" y="6" x="6" height="38" width="38"
                fill="#f2f5e9" fill-opacity="0.5" stroke="#606060" stroke-width="1.0"/>
           <path id="arrow"
             d="M 11.500037,31.436501 C 11.940474,20.09759 22.043105,11.32322 32.158766,21.979434 L 37.068811,17.246167 C 37.068811,17.246167 37.088388,32 37.088388,32 L 22.160133,31.978069 C 22.160133,31.978069 26.997745,27.140456 26.997745,27.140456 C 18.528582,18.264221 13.291696,25.230495 11.500037,31.436501 z"
             style="fill:#404040;"/>
          </a>
         </g>
        </svg>
</svg>
