<?xml version="1.0" encoding="UTF-8" standalone="no"?>
<!DOCTYPE svg PUBLIC "-//W3C//DTD SVG 1.1//EN"
 "http://www.w3.org/Graphics/SVG/1.1/DTD/svg11.dtd">
<!-- Generated by graphviz version 2.38.0 (20140413.2041)
 -->
<!-- Title: MetaSession.h Pages: 1 -->
<svg width="658pt" height="84pt"
 viewBox="0.00 0.00 657.50 84.00" xmlns="http://www.w3.org/2000/svg" xmlns:xlink="http://www.w3.org/1999/xlink">
<g id="graph0" class="graph" transform="scale(1 1) rotate(0) translate(4 80)">
<title>MetaSession.h</title>
<!-- Node1 -->
<g id="node1" class="node"><title>Node1</title>
<polygon fill="#bfbfbf" stroke="black" points="291,-56.5 291,-75.5 373,-75.5 373,-56.5 291,-56.5"/>
<text text-anchor="middle" x="332" y="-63.5" font-family="Helvetica,sans-Serif" font-size="10.00">MetaSession.h</text>
</g>
<!-- Node2 -->
<g id="node2" class="node"><title>Node2</title>
<g id="a_node2"><a xlink:href="_client_session_8cpp.html" target="_top" xlink:title="ClientSession.cpp">
<polygon fill="none" stroke="black" points="0,-0.5 0,-19.5 96,-19.5 96,-0.5 0,-0.5"/>
<text text-anchor="middle" x="48" y="-7.5" font-family="Helvetica,sans-Serif" font-size="10.00">ClientSession.cpp</text>
</a>
</g>
</g>
<!-- Node1&#45;&gt;Node2 -->
<g id="edge1" class="edge"><title>Node1&#45;&gt;Node2</title>
<path fill="none" stroke="midnightblue" d="M280.746,-55.2545C227.25,-45.0828 144.183,-29.2883 93.1011,-19.5756"/>
<polygon fill="midnightblue" stroke="midnightblue" points="280.226,-58.7183 290.704,-57.1479 281.534,-51.8415 280.226,-58.7183"/>
</g>
<!-- Node3 -->
<g id="node3" class="node"><title>Node3</title>
<g id="a_node3"><a xlink:href="_game_scene_8cpp.html" target="_top" xlink:title="GameScene.cpp">
<polygon fill="none" stroke="black" points="114.5,-0.5 114.5,-19.5 203.5,-19.5 203.5,-0.5 114.5,-0.5"/>
<text text-anchor="middle" x="159" y="-7.5" font-family="Helvetica,sans-Serif" font-size="10.00">GameScene.cpp</text>
</a>
</g>
</g>
<!-- Node1&#45;&gt;Node3 -->
<g id="edge2" class="edge"><title>Node1&#45;&gt;Node3</title>
<path fill="none" stroke="midnightblue" d="M294.953,-53.4363C262.336,-43.2551 215.59,-28.664 186.284,-19.5164"/>
<polygon fill="midnightblue" stroke="midnightblue" points="293.999,-56.8049 304.588,-56.4435 296.085,-50.1228 293.999,-56.8049"/>
</g>
<!-- Node4 -->
<g id="node4" class="node"><title>Node4</title>
<g id="a_node4"><a xlink:href="_client_script_core_8cpp.html" target="_top" xlink:title="ClientScriptCore.cpp">
<polygon fill="none" stroke="black" points="221.5,-0.5 221.5,-19.5 328.5,-19.5 328.5,-0.5 221.5,-0.5"/>
<text text-anchor="middle" x="275" y="-7.5" font-family="Helvetica,sans-Serif" font-size="10.00">ClientScriptCore.cpp</text>
</a>
</g>
</g>
<!-- Node1&#45;&gt;Node4 -->
<g id="edge3" class="edge"><title>Node1&#45;&gt;Node4</title>
<path fill="none" stroke="midnightblue" d="M315.379,-49.2533C305.266,-39.6731 292.723,-27.7906 284.325,-19.8339"/>
<polygon fill="midnightblue" stroke="midnightblue" points="313.175,-51.9873 322.842,-56.324 317.99,-46.9056 313.175,-51.9873"/>
</g>
<!-- Node5 -->
<g id="node5" class="node"><title>Node5</title>
<g id="a_node5"><a xlink:href="_meta_player_8cpp.html" target="_top" xlink:title="MetaPlayer.cpp">
<polygon fill="none" stroke="black" points="346.5,-0.5 346.5,-19.5 431.5,-19.5 431.5,-0.5 346.5,-0.5"/>
<text text-anchor="middle" x="389" y="-7.5" font-family="Helvetica,sans-Serif" font-size="10.00">MetaPlayer.cpp</text>
</a>
</g>
</g>
<!-- Node1&#45;&gt;Node5 -->
<g id="edge4" class="edge"><title>Node1&#45;&gt;Node5</title>
<path fill="none" stroke="midnightblue" d="M348.621,-49.2533C358.734,-39.6731 371.277,-27.7906 379.675,-19.8339"/>
<polygon fill="midnightblue" stroke="midnightblue" points="346.01,-46.9056 341.158,-56.324 350.825,-51.9873 346.01,-46.9056"/>
</g>
<!-- Node6 -->
<g id="node6" class="node"><title>Node6</title>
<g id="a_node6"><a xlink:href="_meta_session_8cpp.html" target="_top" xlink:title="MetaSession.cpp">
<polygon fill="none" stroke="black" points="450,-0.5 450,-19.5 542,-19.5 542,-0.5 450,-0.5"/>
<text text-anchor="middle" x="496" y="-7.5" font-family="Helvetica,sans-Serif" font-size="10.00">MetaSession.cpp</text>
</a>
</g>
</g>
<!-- Node1&#45;&gt;Node6 -->
<g id="edge5" class="edge"><title>Node1&#45;&gt;Node6</title>
<path fill="none" stroke="midnightblue" d="M367.52,-53.3044C398.422,-43.1294 442.473,-28.6246 470.135,-19.5164"/>
<polygon fill="midnightblue" stroke="midnightblue" points="366.39,-49.9915 357.986,-56.4435 368.579,-56.6404 366.39,-49.9915"/>
</g>
<!-- Node7 -->
<g id="node7" class="node"><title>Node7</title>
<g id="a_node7"><a xlink:href="_sys_console_8cpp.html" target="_top" xlink:title="SysConsole.cpp">
<polygon fill="none" stroke="black" points="560.5,-0.5 560.5,-19.5 649.5,-19.5 649.5,-0.5 560.5,-0.5"/>
<text text-anchor="middle" x="605" y="-7.5" font-family="Helvetica,sans-Serif" font-size="10.00">SysConsole.cpp</text>
</a>
</g>
</g>
<!-- Node1&#45;&gt;Node7 -->
<g id="edge6" class="edge"><title>Node1&#45;&gt;Node7</title>
<path fill="none" stroke="midnightblue" d="M383.086,-54.8952C434.573,-44.7109 513.166,-29.165 561.691,-19.5666"/>
<polygon fill="midnightblue" stroke="midnightblue" points="382.297,-51.4832 373.166,-56.8572 383.656,-58.3502 382.297,-51.4832"/>
</g>
</g>
</svg>
