<?xml version="1.0" encoding="UTF-8" standalone="no"?>
<!DOCTYPE svg PUBLIC "-//W3C//DTD SVG 1.1//EN"
 "http://www.w3.org/Graphics/SVG/1.1/DTD/svg11.dtd">
<!-- Generated by graphviz version 2.38.0 (20140413.2041)
 -->
<!-- Title: Mine.cpp Pages: 1 -->
<svg width="1205pt" height="498pt"
 viewBox="0.00 0.00 1205.00 498.00" xmlns="http://www.w3.org/2000/svg" xmlns:xlink="http://www.w3.org/1999/xlink">
<g id="graph0" class="graph" transform="scale(1 1) rotate(0) translate(4 494)">
<title>Mine.cpp</title>
<!-- Node1 -->
<g id="node1" class="node"><title>Node1</title>
<polygon fill="#bfbfbf" stroke="black" points="770,-470.5 770,-489.5 826,-489.5 826,-470.5 770,-470.5"/>
<text text-anchor="middle" x="798" y="-477.5" font-family="Helvetica,sans-Serif" font-size="10.00">Mine.cpp</text>
</g>
<!-- Node2 -->
<g id="node2" class="node"><title>Node2</title>
<g id="a_node2"><a xlink:href="_concrete_shape_8h.html" target="_top" xlink:title="../Model/ConcreteShape.h">
<polygon fill="none" stroke="black" points="352.5,-280.5 352.5,-299.5 483.5,-299.5 483.5,-280.5 352.5,-280.5"/>
<text text-anchor="middle" x="418" y="-287.5" font-family="Helvetica,sans-Serif" font-size="10.00">../Model/ConcreteShape.h</text>
</a>
</g>
</g>
<!-- Node1&#45;&gt;Node2 -->
<g id="edge1" class="edge"><title>Node1&#45;&gt;Node2</title>
<path fill="none" stroke="midnightblue" d="M769.886,-474.727C734.97,-468.735 674.137,-456.023 626,-434 549.222,-398.872 470.194,-335.619 435.793,-306.474"/>
<polygon fill="midnightblue" stroke="midnightblue" points="437.91,-303.68 428.037,-299.837 433.359,-308.998 437.91,-303.68"/>
</g>
<!-- Node7 -->
<g id="node7" class="node"><title>Node7</title>
<g id="a_node7"><a xlink:href="_obstacle_collision_report_8h.html" target="_top" xlink:title="../Model/ObstacleCollision\lReport.h">
<polygon fill="none" stroke="black" points="184.5,-403.5 184.5,-433.5 315.5,-433.5 315.5,-403.5 184.5,-403.5"/>
<text text-anchor="start" x="192.5" y="-421.5" font-family="Helvetica,sans-Serif" font-size="10.00">../Model/ObstacleCollision</text>
<text text-anchor="middle" x="250" y="-410.5" font-family="Helvetica,sans-Serif" font-size="10.00">Report.h</text>
</a>
</g>
</g>
<!-- Node1&#45;&gt;Node7 -->
<g id="edge6" class="edge"><title>Node1&#45;&gt;Node7</title>
<path fill="none" stroke="midnightblue" d="M769.758,-477.201C696.445,-472.336 494.136,-457.671 327,-434 326.659,-433.952 326.317,-433.903 325.975,-433.854"/>
<polygon fill="midnightblue" stroke="midnightblue" points="326.295,-430.362 315.881,-432.314 325.239,-437.282 326.295,-430.362"/>
</g>
<!-- Node28 -->
<g id="node28" class="node"><title>Node28</title>
<g id="a_node28"><a xlink:href="_track_8h.html" target="_top" xlink:title="../Model/Track.h">
<polygon fill="none" stroke="black" points="810,-224.5 810,-243.5 898,-243.5 898,-224.5 810,-224.5"/>
<text text-anchor="middle" x="854" y="-231.5" font-family="Helvetica,sans-Serif" font-size="10.00">../Model/Track.h</text>
</a>
</g>
</g>
<!-- Node1&#45;&gt;Node28 -->
<g id="edge38" class="edge"><title>Node1&#45;&gt;Node28</title>
<path fill="none" stroke="midnightblue" d="M799.993,-470.316C808.073,-435.11 838.494,-302.561 849.765,-253.452"/>
<polygon fill="midnightblue" stroke="midnightblue" points="853.205,-254.11 852.031,-243.58 846.383,-252.544 853.205,-254.11"/>
</g>
<!-- Node33 -->
<g id="node33" class="node"><title>Node33</title>
<g id="a_node33"><a xlink:href="_resource_lib_8h.html" target="_top" xlink:title="../ObjFacTools/ResourceLib.h">
<polygon fill="none" stroke="black" points="635.5,-409 635.5,-428 782.5,-428 782.5,-409 635.5,-409"/>
<text text-anchor="middle" x="709" y="-416" font-family="Helvetica,sans-Serif" font-size="10.00">../ObjFacTools/ResourceLib.h</text>
</a>
</g>
</g>
<!-- Node1&#45;&gt;Node33 -->
<g id="edge48" class="edge"><title>Node1&#45;&gt;Node33</title>
<path fill="none" stroke="midnightblue" d="M785.248,-470.475C770.973,-460.931 747.603,-445.307 730.492,-433.868"/>
<polygon fill="midnightblue" stroke="midnightblue" points="731.986,-430.657 721.728,-428.009 728.096,-436.477 731.986,-430.657"/>
</g>
<!-- Node41 -->
<g id="node41" class="node"><title>Node41</title>
<g id="a_node41"><a xlink:href="_res_bundle_8h.html" target="_top" xlink:title="../Parcel/ResBundle.h">
<polygon fill="none" stroke="black" points="887.5,-409 887.5,-428 1000.5,-428 1000.5,-409 887.5,-409"/>
<text text-anchor="middle" x="944" y="-416" font-family="Helvetica,sans-Serif" font-size="10.00">../Parcel/ResBundle.h</text>
</a>
</g>
</g>
<!-- Node1&#45;&gt;Node41 -->
<g id="edge63" class="edge"><title>Node1&#45;&gt;Node41</title>
<path fill="none" stroke="midnightblue" d="M818.918,-470.475C843.746,-460.357 885.343,-443.405 913.694,-431.851"/>
<polygon fill="midnightblue" stroke="midnightblue" points="915.181,-435.024 923.121,-428.009 912.539,-428.542 915.181,-435.024"/>
</g>
<!-- Node43 -->
<g id="node43" class="node"><title>Node43</title>
<g id="a_node43"><a xlink:href="_config_8h.html" target="_top" xlink:title="../Util/Config.h">
<polygon fill="none" stroke="black" points="1019,-409 1019,-428 1099,-428 1099,-409 1019,-409"/>
<text text-anchor="middle" x="1059" y="-416" font-family="Helvetica,sans-Serif" font-size="10.00">../Util/Config.h</text>
</a>
</g>
</g>
<!-- Node1&#45;&gt;Node43 -->
<g id="edge66" class="edge"><title>Node1&#45;&gt;Node43</title>
<path fill="none" stroke="midnightblue" d="M826.136,-473.67C866.724,-465.83 943.976,-450.34 1009,-434 1012.88,-433.024 1016.92,-431.952 1020.94,-430.846"/>
<polygon fill="midnightblue" stroke="midnightblue" points="1022.13,-434.147 1030.8,-428.062 1020.23,-427.41 1022.13,-434.147"/>
</g>
<!-- Node45 -->
<g id="node45" class="node"><title>Node45</title>
<g id="a_node45"><a xlink:href="_obj_fac1_res_8h.html" target="_top" xlink:title="ObjFac1Res.h">
<polygon fill="none" stroke="black" points="1117,-409 1117,-428 1197,-428 1197,-409 1117,-409"/>
<text text-anchor="middle" x="1157" y="-416" font-family="Helvetica,sans-Serif" font-size="10.00">ObjFac1Res.h</text>
</a>
</g>
</g>
<!-- Node1&#45;&gt;Node45 -->
<g id="edge69" class="edge"><title>Node1&#45;&gt;Node45</title>
<path fill="none" stroke="midnightblue" d="M826.03,-476.295C880.7,-470.719 1005.21,-456.547 1108,-434 1112.19,-433.08 1116.55,-431.991 1120.86,-430.828"/>
<polygon fill="midnightblue" stroke="midnightblue" points="1122.07,-434.123 1130.73,-428.028 1120.16,-427.389 1122.07,-434.123"/>
</g>
<!-- Node46 -->
<g id="node46" class="node"><title>Node46</title>
<g id="a_node46"><a xlink:href="_mine_8h.html" target="_top" xlink:title="Mine.h">
<polygon fill="none" stroke="black" points="336,-409 336,-428 382,-428 382,-409 336,-409"/>
<text text-anchor="middle" x="359" y="-416" font-family="Helvetica,sans-Serif" font-size="10.00">Mine.h</text>
</a>
</g>
</g>
<!-- Node1&#45;&gt;Node46 -->
<g id="edge70" class="edge"><title>Node1&#45;&gt;Node46</title>
<path fill="none" stroke="midnightblue" d="M769.88,-475.528C711.149,-468.232 571.183,-450.606 454,-434 433.425,-431.084 410.382,-427.573 392.144,-424.737"/>
<polygon fill="midnightblue" stroke="midnightblue" points="392.436,-421.24 382.016,-423.154 391.355,-428.156 392.436,-421.24"/>
</g>
<!-- Node3 -->
<g id="node3" class="node"><title>Node3</title>
<g id="a_node3"><a xlink:href="_shapes_8h.html" target="_top" xlink:title="Shapes.h">
<polygon fill="none" stroke="black" points="158,-224.5 158,-243.5 216,-243.5 216,-224.5 158,-224.5"/>
<text text-anchor="middle" x="187" y="-231.5" font-family="Helvetica,sans-Serif" font-size="10.00">Shapes.h</text>
</a>
</g>
</g>
<!-- Node2&#45;&gt;Node3 -->
<g id="edge2" class="edge"><title>Node2&#45;&gt;Node3</title>
<path fill="none" stroke="midnightblue" d="M381.351,-280.495C344.57,-271.95 286.014,-258.323 226.065,-244.244"/>
<polygon fill="midnightblue" stroke="midnightblue" points="226.579,-240.77 216.044,-241.89 224.978,-247.584 226.579,-240.77"/>
</g>
<!-- Node4 -->
<g id="node4" class="node"><title>Node4</title>
<g id="a_node4"><a xlink:href="_world_coordinates_8h.html" target="_top" xlink:title="../Util/WorldCoordinates.h">
<polygon fill="none" stroke="black" points="174,-112.5 174,-131.5 304,-131.5 304,-112.5 174,-112.5"/>
<text text-anchor="middle" x="239" y="-119.5" font-family="Helvetica,sans-Serif" font-size="10.00">../Util/WorldCoordinates.h</text>
</a>
</g>
</g>
<!-- Node3&#45;&gt;Node4 -->
<g id="edge3" class="edge"><title>Node3&#45;&gt;Node4</title>
<path fill="none" stroke="midnightblue" d="M188.35,-224.212C190.561,-211.356 195.669,-186.899 205,-168 210.083,-157.704 217.644,-147.398 224.345,-139.252"/>
<polygon fill="midnightblue" stroke="midnightblue" points="227.024,-141.505 230.878,-131.636 221.711,-136.947 227.024,-141.505"/>
</g>
<!-- Node5 -->
<g id="node5" class="node"><title>Node5</title>
<g id="a_node5"><a xlink:href="_m_r___types_8h.html" target="_top" xlink:title="MR_Types.h">
<polygon fill="none" stroke="black" points="390.5,-56.5 390.5,-75.5 463.5,-75.5 463.5,-56.5 390.5,-56.5"/>
<text text-anchor="middle" x="427" y="-63.5" font-family="Helvetica,sans-Serif" font-size="10.00">MR_Types.h</text>
</a>
</g>
</g>
<!-- Node4&#45;&gt;Node5 -->
<g id="edge4" class="edge"><title>Node4&#45;&gt;Node5</title>
<path fill="none" stroke="midnightblue" d="M268.789,-112.444C300.829,-103.241 351.933,-88.5617 387.353,-78.3879"/>
<polygon fill="midnightblue" stroke="midnightblue" points="388.705,-81.6412 397.35,-75.5164 386.773,-74.9132 388.705,-81.6412"/>
</g>
<!-- Node6 -->
<g id="node6" class="node"><title>Node6</title>
<polygon fill="none" stroke="#bfbfbf" points="397.5,-0.5 397.5,-19.5 456.5,-19.5 456.5,-0.5 397.5,-0.5"/>
<text text-anchor="middle" x="427" y="-7.5" font-family="Helvetica,sans-Serif" font-size="10.00">inttypes.h</text>
</g>
<!-- Node5&#45;&gt;Node6 -->
<g id="edge5" class="edge"><title>Node5&#45;&gt;Node6</title>
<path fill="none" stroke="midnightblue" d="M427,-56.083C427,-49.0059 427,-38.8611 427,-29.9865"/>
<polygon fill="midnightblue" stroke="midnightblue" points="430.5,-29.751 427,-19.7511 423.5,-29.7511 430.5,-29.751"/>
</g>
<!-- Node8 -->
<g id="node8" class="node"><title>Node8</title>
<g id="a_node8"><a xlink:href="_level_8h.html" target="_top" xlink:title="Level.h">
<polygon fill="none" stroke="black" points="223,-342 223,-361 271,-361 271,-342 223,-342"/>
<text text-anchor="middle" x="247" y="-349" font-family="Helvetica,sans-Serif" font-size="10.00">Level.h</text>
</a>
</g>
</g>
<!-- Node7&#45;&gt;Node8 -->
<g id="edge7" class="edge"><title>Node7&#45;&gt;Node8</title>
<path fill="none" stroke="midnightblue" d="M249.349,-403.396C248.914,-393.963 248.336,-381.448 247.863,-371.189"/>
<polygon fill="midnightblue" stroke="midnightblue" points="251.359,-371.023 247.401,-361.195 244.366,-371.345 251.359,-371.023"/>
</g>
<!-- Node9 -->
<g id="node9" class="node"><title>Node9</title>
<g id="a_node9"><a xlink:href="_maze_element_8h.html" target="_top" xlink:title="MazeElement.h">
<polygon fill="none" stroke="black" points="249.5,-280.5 249.5,-299.5 334.5,-299.5 334.5,-280.5 249.5,-280.5"/>
<text text-anchor="middle" x="292" y="-287.5" font-family="Helvetica,sans-Serif" font-size="10.00">MazeElement.h</text>
</a>
</g>
</g>
<!-- Node8&#45;&gt;Node9 -->
<g id="edge8" class="edge"><title>Node8&#45;&gt;Node9</title>
<path fill="none" stroke="midnightblue" d="M253.447,-341.975C260.197,-333.05 270.969,-318.807 279.413,-307.643"/>
<polygon fill="midnightblue" stroke="midnightblue" points="282.324,-309.596 285.565,-299.509 276.741,-305.374 282.324,-309.596"/>
</g>
<!-- Node27 -->
<g id="node27" class="node"><title>Node27</title>
<g id="a_node27"><a xlink:href="_shape_collisions_8h.html" target="_top" xlink:title="ShapeCollisions.h">
<polygon fill="none" stroke="black" points="136.5,-280.5 136.5,-299.5 231.5,-299.5 231.5,-280.5 136.5,-280.5"/>
<text text-anchor="middle" x="184" y="-287.5" font-family="Helvetica,sans-Serif" font-size="10.00">ShapeCollisions.h</text>
</a>
</g>
</g>
<!-- Node8&#45;&gt;Node27 -->
<g id="edge36" class="edge"><title>Node8&#45;&gt;Node27</title>
<path fill="none" stroke="midnightblue" d="M237.974,-341.975C228.243,-332.785 212.542,-317.956 200.577,-306.656"/>
<polygon fill="midnightblue" stroke="midnightblue" points="202.683,-303.831 193.01,-299.509 197.877,-308.92 202.683,-303.831"/>
</g>
<!-- Node9&#45;&gt;Node3 -->
<g id="edge35" class="edge"><title>Node9&#45;&gt;Node3</title>
<path fill="none" stroke="midnightblue" d="M275.13,-280.324C258.291,-271.664 232.193,-258.242 212.762,-248.249"/>
<polygon fill="midnightblue" stroke="midnightblue" points="214.322,-245.116 203.828,-243.655 211.12,-251.341 214.322,-245.116"/>
</g>
<!-- Node10 -->
<g id="node10" class="node"><title>Node10</title>
<g id="a_node10"><a xlink:href="_dll_object_factory_8h.html" target="_top" xlink:title="../Util/DllObjectFactory.h">
<polygon fill="none" stroke="black" points="559.5,-224.5 559.5,-243.5 684.5,-243.5 684.5,-224.5 559.5,-224.5"/>
<text text-anchor="middle" x="622" y="-231.5" font-family="Helvetica,sans-Serif" font-size="10.00">../Util/DllObjectFactory.h</text>
</a>
</g>
</g>
<!-- Node9&#45;&gt;Node10 -->
<g id="edge9" class="edge"><title>Node9&#45;&gt;Node10</title>
<path fill="none" stroke="midnightblue" d="M334.569,-281.439C337.421,-280.948 340.252,-280.464 343,-280 416.592,-267.572 501.236,-254.025 557.813,-245.077"/>
<polygon fill="midnightblue" stroke="midnightblue" points="558.361,-248.534 567.693,-243.516 557.269,-241.62 558.361,-248.534"/>
</g>
<!-- Node20 -->
<g id="node20" class="node"><title>Node20</title>
<g id="a_node20"><a xlink:href="_viewport3_d_8h.html" target="_top" xlink:title="../VideoServices/Viewport3D.h">
<polygon fill="none" stroke="black" points="234.5,-224.5 234.5,-243.5 385.5,-243.5 385.5,-224.5 234.5,-224.5"/>
<text text-anchor="middle" x="310" y="-231.5" font-family="Helvetica,sans-Serif" font-size="10.00">../VideoServices/Viewport3D.h</text>
</a>
</g>
</g>
<!-- Node9&#45;&gt;Node20 -->
<g id="edge23" class="edge"><title>Node9&#45;&gt;Node20</title>
<path fill="none" stroke="midnightblue" d="M294.972,-280.083C297.384,-272.849 300.864,-262.409 303.868,-253.397"/>
<polygon fill="midnightblue" stroke="midnightblue" points="307.241,-254.345 307.083,-243.751 300.6,-252.131 307.241,-254.345"/>
</g>
<!-- Node26 -->
<g id="node26" class="node"><title>Node26</title>
<g id="a_node26"><a xlink:href="_contact_effect_8h.html" target="_top" xlink:title="ContactEffect.h">
<polygon fill="none" stroke="black" points="16,-224.5 16,-243.5 102,-243.5 102,-224.5 16,-224.5"/>
<text text-anchor="middle" x="59" y="-231.5" font-family="Helvetica,sans-Serif" font-size="10.00">ContactEffect.h</text>
</a>
</g>
</g>
<!-- Node9&#45;&gt;Node26 -->
<g id="edge33" class="edge"><title>Node9&#45;&gt;Node26</title>
<path fill="none" stroke="midnightblue" d="M255.08,-280.444C214.605,-271.063 149.579,-255.993 105.616,-245.804"/>
<polygon fill="midnightblue" stroke="midnightblue" points="106.279,-242.365 95.7468,-243.516 104.698,-249.184 106.279,-242.365"/>
</g>
<!-- Node10&#45;&gt;Node5 -->
<g id="edge22" class="edge"><title>Node10&#45;&gt;Node5</title>
<path fill="none" stroke="midnightblue" d="M559.169,-224.658C531.98,-218.362 501.34,-207.327 479,-188 447.831,-161.036 434.775,-112.056 429.777,-85.4305"/>
<polygon fill="midnightblue" stroke="midnightblue" points="433.219,-84.7933 428.1,-75.5176 426.318,-85.9615 433.219,-84.7933"/>
</g>
<!-- Node11 -->
<g id="node11" class="node"><title>Node11</title>
<g id="a_node11"><a xlink:href="_obj_stream_8h.html" target="_top" xlink:title="../Parcel/ObjStream.h">
<polygon fill="none" stroke="black" points="683.5,-168.5 683.5,-187.5 794.5,-187.5 794.5,-168.5 683.5,-168.5"/>
<text text-anchor="middle" x="739" y="-175.5" font-family="Helvetica,sans-Serif" font-size="10.00">../Parcel/ObjStream.h</text>
</a>
</g>
</g>
<!-- Node10&#45;&gt;Node11 -->
<g id="edge10" class="edge"><title>Node10&#45;&gt;Node11</title>
<path fill="none" stroke="midnightblue" d="M640.539,-224.444C659.623,-215.636 689.575,-201.812 711.436,-191.722"/>
<polygon fill="midnightblue" stroke="midnightblue" points="712.935,-194.885 720.548,-187.516 710.001,-188.529 712.935,-194.885"/>
</g>
<!-- Node11&#45;&gt;Node5 -->
<g id="edge14" class="edge"><title>Node11&#45;&gt;Node5</title>
<path fill="none" stroke="midnightblue" d="M749.488,-168.185C764.107,-154.86 787.197,-129.308 772,-112 752.616,-89.9239 563.448,-75.4127 473.746,-69.718"/>
<polygon fill="midnightblue" stroke="midnightblue" points="473.774,-66.213 463.575,-69.0831 473.337,-73.1994 473.774,-66.213"/>
</g>
<!-- Node12 -->
<g id="node12" class="node"><title>Node12</title>
<polygon fill="none" stroke="#bfbfbf" points="847.5,-56.5 847.5,-75.5 888.5,-75.5 888.5,-56.5 847.5,-56.5"/>
<text text-anchor="middle" x="868" y="-63.5" font-family="Helvetica,sans-Serif" font-size="10.00">string</text>
</g>
<!-- Node11&#45;&gt;Node12 -->
<g id="edge11" class="edge"><title>Node11&#45;&gt;Node12</title>
<path fill="none" stroke="midnightblue" d="M753.763,-168.376C767.789,-159.889 789.178,-146.176 806,-132 823.974,-116.854 842.274,-97.0117 854.286,-83.2531"/>
<polygon fill="midnightblue" stroke="midnightblue" points="857.028,-85.4332 860.894,-75.569 851.72,-80.8693 857.028,-85.4332"/>
</g>
<!-- Node13 -->
<g id="node13" class="node"><title>Node13</title>
<g id="a_node13"><a xlink:href="_exception_8h.html" target="_top" xlink:title="../Exception.h">
<polygon fill="none" stroke="black" points="686.5,-112.5 686.5,-131.5 763.5,-131.5 763.5,-112.5 686.5,-112.5"/>
<text text-anchor="middle" x="725" y="-119.5" font-family="Helvetica,sans-Serif" font-size="10.00">../Exception.h</text>
</a>
</g>
</g>
<!-- Node11&#45;&gt;Node13 -->
<g id="edge12" class="edge"><title>Node11&#45;&gt;Node13</title>
<path fill="none" stroke="midnightblue" d="M736.688,-168.083C734.833,-160.927 732.165,-150.635 729.846,-141.691"/>
<polygon fill="midnightblue" stroke="midnightblue" points="733.166,-140.553 727.269,-131.751 726.391,-142.309 733.166,-140.553"/>
</g>
<!-- Node15 -->
<g id="node15" class="node"><title>Node15</title>
<g id="a_node15"><a xlink:href="_o_s_8h.html" target="_top" xlink:title="../Util/OS.h">
<polygon fill="none" stroke="black" points="1016,-112.5 1016,-131.5 1082,-131.5 1082,-112.5 1016,-112.5"/>
<text text-anchor="middle" x="1049" y="-119.5" font-family="Helvetica,sans-Serif" font-size="10.00">../Util/OS.h</text>
</a>
</g>
</g>
<!-- Node11&#45;&gt;Node15 -->
<g id="edge15" class="edge"><title>Node11&#45;&gt;Node15</title>
<path fill="none" stroke="midnightblue" d="M794.049,-168.495C846.091,-160.287 926.609,-147.161 1005.45,-132.233"/>
<polygon fill="midnightblue" stroke="midnightblue" points="1006.39,-135.617 1015.56,-130.307 1005.08,-128.741 1006.39,-135.617"/>
</g>
<!-- Node14 -->
<g id="node14" class="node"><title>Node14</title>
<polygon fill="none" stroke="#bfbfbf" points="695.5,-56.5 695.5,-75.5 754.5,-75.5 754.5,-56.5 695.5,-56.5"/>
<text text-anchor="middle" x="725" y="-63.5" font-family="Helvetica,sans-Serif" font-size="10.00">exception</text>
</g>
<!-- Node13&#45;&gt;Node14 -->
<g id="edge13" class="edge"><title>Node13&#45;&gt;Node14</title>
<path fill="none" stroke="midnightblue" d="M725,-112.083C725,-105.006 725,-94.8611 725,-85.9865"/>
<polygon fill="midnightblue" stroke="midnightblue" points="728.5,-85.751 725,-75.7511 721.5,-85.7511 728.5,-85.751"/>
</g>
<!-- Node15&#45;&gt;Node5 -->
<g id="edge21" class="edge"><title>Node15&#45;&gt;Node5</title>
<path fill="none" stroke="midnightblue" d="M1015.6,-113.422C1012.7,-112.892 1009.8,-112.407 1007,-112 810.274,-83.4214 573.193,-72.1871 474.106,-68.5206"/>
<polygon fill="midnightblue" stroke="midnightblue" points="473.952,-65.0129 463.832,-68.1495 473.699,-72.0083 473.952,-65.0129"/>
</g>
<!-- Node15&#45;&gt;Node12 -->
<g id="edge18" class="edge"><title>Node15&#45;&gt;Node12</title>
<path fill="none" stroke="midnightblue" d="M1019.83,-112.486C991.176,-104.098 945.973,-90.7924 898.438,-76.4112"/>
<polygon fill="midnightblue" stroke="midnightblue" points="899.17,-72.976 888.585,-73.4248 897.14,-79.675 899.17,-72.976"/>
</g>
<!-- Node16 -->
<g id="node16" class="node"><title>Node16</title>
<polygon fill="none" stroke="#bfbfbf" points="1031,-56.5 1031,-75.5 1073,-75.5 1073,-56.5 1031,-56.5"/>
<text text-anchor="middle" x="1052" y="-63.5" font-family="Helvetica,sans-Serif" font-size="10.00">locale</text>
</g>
<!-- Node15&#45;&gt;Node16 -->
<g id="edge16" class="edge"><title>Node15&#45;&gt;Node16</title>
<path fill="none" stroke="midnightblue" d="M1049.5,-112.083C1049.89,-105.006 1050.45,-94.8611 1050.95,-85.9865"/>
<polygon fill="midnightblue" stroke="midnightblue" points="1054.45,-85.9299 1051.51,-75.7511 1047.46,-85.5415 1054.45,-85.9299"/>
</g>
<!-- Node17 -->
<g id="node17" class="node"><title>Node17</title>
<polygon fill="none" stroke="#bfbfbf" points="1091,-56.5 1091,-75.5 1121,-75.5 1121,-56.5 1091,-56.5"/>
<text text-anchor="middle" x="1106" y="-63.5" font-family="Helvetica,sans-Serif" font-size="10.00">set</text>
</g>
<!-- Node15&#45;&gt;Node17 -->
<g id="edge17" class="edge"><title>Node15&#45;&gt;Node17</title>
<path fill="none" stroke="midnightblue" d="M1058.16,-112.324C1066.5,-104.42 1079.03,-92.5482 1089.18,-82.9377"/>
<polygon fill="midnightblue" stroke="midnightblue" points="1091.82,-85.2522 1096.68,-75.8339 1087.01,-80.1705 1091.82,-85.2522"/>
</g>
<!-- Node18 -->
<g id="node18" class="node"><title>Node18</title>
<polygon fill="none" stroke="#bfbfbf" points="172,-56.5 172,-75.5 216,-75.5 216,-56.5 172,-56.5"/>
<text text-anchor="middle" x="194" y="-63.5" font-family="Helvetica,sans-Serif" font-size="10.00">vector</text>
</g>
<!-- Node15&#45;&gt;Node18 -->
<g id="edge19" class="edge"><title>Node15&#45;&gt;Node18</title>
<path fill="none" stroke="midnightblue" d="M1015.61,-113.355C1012.71,-112.839 1009.81,-112.376 1007,-112 967.702,-106.735 372.7,-76.1279 226.338,-68.6485"/>
<polygon fill="midnightblue" stroke="midnightblue" points="226.374,-65.1459 216.208,-68.1312 226.017,-72.1368 226.374,-65.1459"/>
</g>
<!-- Node19 -->
<g id="node19" class="node"><title>Node19</title>
<polygon fill="none" stroke="#bfbfbf" points="906.5,-56.5 906.5,-75.5 1013.5,-75.5 1013.5,-56.5 906.5,-56.5"/>
<text text-anchor="middle" x="960" y="-63.5" font-family="Helvetica,sans-Serif" font-size="10.00">boost/filesystem.hpp</text>
</g>
<!-- Node15&#45;&gt;Node19 -->
<g id="edge20" class="edge"><title>Node15&#45;&gt;Node19</title>
<path fill="none" stroke="midnightblue" d="M1034.7,-112.324C1020.82,-103.9 999.508,-90.9709 983.196,-81.0741"/>
<polygon fill="midnightblue" stroke="midnightblue" points="984.629,-77.8495 974.264,-75.6545 980.998,-83.8341 984.629,-77.8495"/>
</g>
<!-- Node21 -->
<g id="node21" class="node"><title>Node21</title>
<g id="a_node21"><a xlink:href="_viewport2_d_8h.html" target="_top" xlink:title="Viewport2D.h">
<polygon fill="none" stroke="black" points="356,-168.5 356,-187.5 432,-187.5 432,-168.5 356,-168.5"/>
<text text-anchor="middle" x="394" y="-175.5" font-family="Helvetica,sans-Serif" font-size="10.00">Viewport2D.h</text>
</a>
</g>
</g>
<!-- Node20&#45;&gt;Node21 -->
<g id="edge24" class="edge"><title>Node20&#45;&gt;Node21</title>
<path fill="none" stroke="midnightblue" d="M323.496,-224.324C336.6,-215.9 356.712,-202.971 372.107,-193.074"/>
<polygon fill="midnightblue" stroke="midnightblue" points="374.018,-196.006 380.537,-187.655 370.233,-190.118 374.018,-196.006"/>
</g>
<!-- Node22 -->
<g id="node22" class="node"><title>Node22</title>
<g id="a_node22"><a xlink:href="_color_palette_8h.html" target="_top" xlink:title="ColorPalette.h">
<polygon fill="none" stroke="black" points="78.5,-168.5 78.5,-187.5 157.5,-187.5 157.5,-168.5 78.5,-168.5"/>
<text text-anchor="middle" x="118" y="-175.5" font-family="Helvetica,sans-Serif" font-size="10.00">ColorPalette.h</text>
</a>
</g>
</g>
<!-- Node20&#45;&gt;Node22 -->
<g id="edge26" class="edge"><title>Node20&#45;&gt;Node22</title>
<path fill="none" stroke="midnightblue" d="M279.577,-224.444C246.715,-215.201 194.215,-200.436 158.026,-190.257"/>
<polygon fill="midnightblue" stroke="midnightblue" points="158.855,-186.855 148.281,-187.516 156.96,-193.593 158.855,-186.855"/>
</g>
<!-- Node24 -->
<g id="node24" class="node"><title>Node24</title>
<g id="a_node24"><a xlink:href="_bitmap_8h.html" target="_top" xlink:title="Bitmap.h">
<polygon fill="none" stroke="black" points="282,-168.5 282,-187.5 338,-187.5 338,-168.5 282,-168.5"/>
<text text-anchor="middle" x="310" y="-175.5" font-family="Helvetica,sans-Serif" font-size="10.00">Bitmap.h</text>
</a>
</g>
</g>
<!-- Node20&#45;&gt;Node24 -->
<g id="edge29" class="edge"><title>Node20&#45;&gt;Node24</title>
<path fill="none" stroke="midnightblue" d="M310,-224.083C310,-217.006 310,-206.861 310,-197.986"/>
<polygon fill="midnightblue" stroke="midnightblue" points="313.5,-197.751 310,-187.751 306.5,-197.751 313.5,-197.751"/>
</g>
<!-- Node25 -->
<g id="node25" class="node"><title>Node25</title>
<g id="a_node25"><a xlink:href="_patch_8h.html" target="_top" xlink:title="Patch.h">
<polygon fill="none" stroke="black" points="214,-168.5 214,-187.5 264,-187.5 264,-168.5 214,-168.5"/>
<text text-anchor="middle" x="239" y="-175.5" font-family="Helvetica,sans-Serif" font-size="10.00">Patch.h</text>
</a>
</g>
</g>
<!-- Node20&#45;&gt;Node25 -->
<g id="edge31" class="edge"><title>Node20&#45;&gt;Node25</title>
<path fill="none" stroke="midnightblue" d="M298.593,-224.324C287.891,-216.185 271.659,-203.839 258.837,-194.087"/>
<polygon fill="midnightblue" stroke="midnightblue" points="260.693,-191.102 250.615,-187.834 256.456,-196.673 260.693,-191.102"/>
</g>
<!-- Node21&#45;&gt;Node5 -->
<g id="edge25" class="edge"><title>Node21&#45;&gt;Node5</title>
<path fill="none" stroke="midnightblue" d="M392.329,-168.319C390.248,-155.597 387.68,-131.304 394,-112 397.49,-101.34 404.573,-91.1174 411.286,-83.1175"/>
<polygon fill="midnightblue" stroke="midnightblue" points="413.904,-85.4395 417.98,-75.66 408.695,-80.7633 413.904,-85.4395"/>
</g>
<!-- Node22&#45;&gt;Node5 -->
<g id="edge28" class="edge"><title>Node22&#45;&gt;Node5</title>
<path fill="none" stroke="midnightblue" d="M121.69,-168.151C128.168,-153.806 143.019,-125.702 165,-112 200.132,-90.0999 314.694,-76.7947 380.104,-70.7933"/>
<polygon fill="midnightblue" stroke="midnightblue" points="380.513,-74.2708 390.161,-69.8926 379.888,-67.2987 380.513,-74.2708"/>
</g>
<!-- Node23 -->
<g id="node23" class="node"><title>Node23</title>
<polygon fill="none" stroke="#bfbfbf" points="46,-112.5 46,-131.5 118,-131.5 118,-112.5 46,-112.5"/>
<text text-anchor="middle" x="82" y="-119.5" font-family="Helvetica,sans-Serif" font-size="10.00">SDL2/SDL.h</text>
</g>
<!-- Node22&#45;&gt;Node23 -->
<g id="edge27" class="edge"><title>Node22&#45;&gt;Node23</title>
<path fill="none" stroke="midnightblue" d="M112.055,-168.083C107.023,-160.534 99.6632,-149.495 93.4865,-140.23"/>
<polygon fill="midnightblue" stroke="midnightblue" points="96.2933,-138.13 87.8341,-131.751 90.4689,-142.013 96.2933,-138.13"/>
</g>
<!-- Node24&#45;&gt;Node5 -->
<g id="edge30" class="edge"><title>Node24&#45;&gt;Node5</title>
<path fill="none" stroke="midnightblue" d="M319.181,-168.368C338.831,-149.894 385.207,-106.293 410.255,-82.7436"/>
<polygon fill="midnightblue" stroke="midnightblue" points="412.974,-84.9912 417.862,-75.5914 408.179,-79.8912 412.974,-84.9912"/>
</g>
<!-- Node25&#45;&gt;Node4 -->
<g id="edge32" class="edge"><title>Node25&#45;&gt;Node4</title>
<path fill="none" stroke="midnightblue" d="M239,-168.083C239,-161.006 239,-150.861 239,-141.986"/>
<polygon fill="midnightblue" stroke="midnightblue" points="242.5,-141.751 239,-131.751 235.5,-141.751 242.5,-141.751"/>
</g>
<!-- Node26&#45;&gt;Node18 -->
<g id="edge34" class="edge"><title>Node26&#45;&gt;Node18</title>
<path fill="none" stroke="midnightblue" d="M53.4007,-224.356C40.3204,-202.967 10.785,-146.784 37,-112 52.0242,-92.0645 120.654,-78.2641 162.041,-71.5902"/>
<polygon fill="midnightblue" stroke="midnightblue" points="162.586,-75.0476 171.927,-70.0477 161.507,-68.1313 162.586,-75.0476"/>
</g>
<!-- Node27&#45;&gt;Node3 -->
<g id="edge37" class="edge"><title>Node27&#45;&gt;Node3</title>
<path fill="none" stroke="midnightblue" d="M184.495,-280.083C184.889,-273.006 185.452,-262.861 185.945,-253.986"/>
<polygon fill="midnightblue" stroke="midnightblue" points="189.454,-253.93 186.514,-243.751 182.464,-253.542 189.454,-253.93"/>
</g>
<!-- Node29 -->
<g id="node29" class="node"><title>Node29</title>
<g id="a_node29"><a xlink:href="_res_8h.html" target="_top" xlink:title="../Display/Res.h">
<polygon fill="none" stroke="black" points="578,-168.5 578,-187.5 666,-187.5 666,-168.5 578,-168.5"/>
<text text-anchor="middle" x="622" y="-175.5" font-family="Helvetica,sans-Serif" font-size="10.00">../Display/Res.h</text>
</a>
</g>
</g>
<!-- Node28&#45;&gt;Node29 -->
<g id="edge39" class="edge"><title>Node28&#45;&gt;Node29</title>
<path fill="none" stroke="midnightblue" d="M817.239,-224.444C776.937,-215.063 712.191,-199.993 668.415,-189.804"/>
<polygon fill="midnightblue" stroke="midnightblue" points="669.122,-186.375 658.589,-187.516 667.535,-193.192 669.122,-186.375"/>
</g>
<!-- Node30 -->
<g id="node30" class="node"><title>Node30</title>
<g id="a_node30"><a xlink:href="_vec_8h.html" target="_top" xlink:title="../Vec.h">
<polygon fill="none" stroke="black" points="903.5,-168.5 903.5,-187.5 954.5,-187.5 954.5,-168.5 903.5,-168.5"/>
<text text-anchor="middle" x="929" y="-175.5" font-family="Helvetica,sans-Serif" font-size="10.00">../Vec.h</text>
</a>
</g>
</g>
<!-- Node28&#45;&gt;Node30 -->
<g id="edge42" class="edge"><title>Node28&#45;&gt;Node30</title>
<path fill="none" stroke="midnightblue" d="M866.05,-224.324C877.463,-216.107 894.831,-203.602 908.435,-193.807"/>
<polygon fill="midnightblue" stroke="midnightblue" points="910.66,-196.517 916.731,-187.834 906.57,-190.837 910.66,-196.517"/>
</g>
<!-- Node31 -->
<g id="node31" class="node"><title>Node31</title>
<g id="a_node31"><a xlink:href="_track_entry_8h.html" target="_top" xlink:title="TrackEntry.h">
<polygon fill="none" stroke="black" points="812.5,-168.5 812.5,-187.5 885.5,-187.5 885.5,-168.5 812.5,-168.5"/>
<text text-anchor="middle" x="849" y="-175.5" font-family="Helvetica,sans-Serif" font-size="10.00">TrackEntry.h</text>
</a>
</g>
</g>
<!-- Node28&#45;&gt;Node31 -->
<g id="edge43" class="edge"><title>Node28&#45;&gt;Node31</title>
<path fill="none" stroke="midnightblue" d="M853.174,-224.083C852.519,-217.006 851.58,-206.861 850.758,-197.986"/>
<polygon fill="midnightblue" stroke="midnightblue" points="854.217,-197.386 849.81,-187.751 847.247,-198.031 854.217,-197.386"/>
</g>
<!-- Node29&#45;&gt;Node5 -->
<g id="edge40" class="edge"><title>Node29&#45;&gt;Node5</title>
<path fill="none" stroke="midnightblue" d="M590.846,-168.469C566.03,-160.923 530.939,-148.541 503,-132 479.806,-118.268 456.792,-97.2862 442.271,-82.8978"/>
<polygon fill="midnightblue" stroke="midnightblue" points="444.648,-80.324 435.13,-75.6706 439.669,-85.244 444.648,-80.324"/>
</g>
<!-- Node29&#45;&gt;Node13 -->
<g id="edge41" class="edge"><title>Node29&#45;&gt;Node13</title>
<path fill="none" stroke="midnightblue" d="M638.549,-168.324C654.992,-159.703 680.435,-146.364 699.468,-136.386"/>
<polygon fill="midnightblue" stroke="midnightblue" points="701.261,-139.398 708.492,-131.655 698.011,-133.198 701.261,-139.398"/>
</g>
<!-- Node31&#45;&gt;Node5 -->
<g id="edge46" class="edge"><title>Node31&#45;&gt;Node5</title>
<path fill="none" stroke="midnightblue" d="M843.985,-168.47C835.002,-154.063 814.682,-125.192 789,-112 734.99,-84.2564 558.791,-72.8273 473.752,-68.838"/>
<polygon fill="midnightblue" stroke="midnightblue" points="473.751,-65.3345 463.602,-68.377 473.433,-72.3273 473.751,-65.3345"/>
</g>
<!-- Node31&#45;&gt;Node15 -->
<g id="edge47" class="edge"><title>Node31&#45;&gt;Node15</title>
<path fill="none" stroke="midnightblue" d="M880.691,-168.444C915.068,-159.162 970.077,-144.309 1007.79,-134.127"/>
<polygon fill="midnightblue" stroke="midnightblue" points="1008.72,-137.502 1017.46,-131.516 1006.89,-130.744 1008.72,-137.502"/>
</g>
<!-- Node32 -->
<g id="node32" class="node"><title>Node32</title>
<g id="a_node32"><a xlink:href="_inspectable_8h.html" target="_top" xlink:title="../Util/Inspectable.h">
<polygon fill="none" stroke="black" points="896,-112.5 896,-131.5 998,-131.5 998,-112.5 896,-112.5"/>
<text text-anchor="middle" x="947" y="-119.5" font-family="Helvetica,sans-Serif" font-size="10.00">../Util/Inspectable.h</text>
</a>
</g>
</g>
<!-- Node31&#45;&gt;Node32 -->
<g id="edge44" class="edge"><title>Node31&#45;&gt;Node32</title>
<path fill="none" stroke="midnightblue" d="M864.745,-168.324C880.319,-159.743 904.377,-146.486 922.459,-136.522"/>
<polygon fill="midnightblue" stroke="midnightblue" points="924.224,-139.546 931.294,-131.655 920.846,-133.415 924.224,-139.546"/>
</g>
<!-- Node32&#45;&gt;Node12 -->
<g id="edge45" class="edge"><title>Node32&#45;&gt;Node12</title>
<path fill="none" stroke="midnightblue" d="M934.307,-112.324C922.099,-103.979 903.422,-91.2122 888.997,-81.3524"/>
<polygon fill="midnightblue" stroke="midnightblue" points="890.892,-78.4082 880.661,-75.6545 886.942,-84.1871 890.892,-78.4082"/>
</g>
<!-- Node33&#45;&gt;Node15 -->
<g id="edge50" class="edge"><title>Node33&#45;&gt;Node15</title>
<path fill="none" stroke="midnightblue" d="M719.176,-408.686C766.98,-367.279 969.507,-191.855 1031.13,-138.475"/>
<polygon fill="midnightblue" stroke="midnightblue" points="1033.6,-140.972 1038.86,-131.779 1029.01,-135.681 1033.6,-140.972"/>
</g>
<!-- Node34 -->
<g id="node34" class="node"><title>Node34</title>
<polygon fill="none" stroke="#bfbfbf" points="590.5,-342 590.5,-361 625.5,-361 625.5,-342 590.5,-342"/>
<text text-anchor="middle" x="608" y="-349" font-family="Helvetica,sans-Serif" font-size="10.00">map</text>
</g>
<!-- Node33&#45;&gt;Node34 -->
<g id="edge49" class="edge"><title>Node33&#45;&gt;Node34</title>
<path fill="none" stroke="midnightblue" d="M695.379,-408.734C678.569,-397.916 649.772,-379.383 629.856,-366.566"/>
<polygon fill="midnightblue" stroke="midnightblue" points="631.709,-363.596 621.406,-361.127 627.92,-369.482 631.709,-363.596"/>
</g>
<!-- Node35 -->
<g id="node35" class="node"><title>Node35</title>
<g id="a_node35"><a xlink:href="_res_actor_8h.html" target="_top" xlink:title="ResActor.h">
<polygon fill="none" stroke="black" points="502,-280.5 502,-299.5 568,-299.5 568,-280.5 502,-280.5"/>
<text text-anchor="middle" x="535" y="-287.5" font-family="Helvetica,sans-Serif" font-size="10.00">ResActor.h</text>
</a>
</g>
</g>
<!-- Node33&#45;&gt;Node35 -->
<g id="edge51" class="edge"><title>Node33&#45;&gt;Node35</title>
<path fill="none" stroke="midnightblue" d="M669.129,-408.92C641.929,-401.468 606.373,-388.421 581,-367 562.457,-351.345 549.331,-326.224 541.968,-309.187"/>
<polygon fill="midnightblue" stroke="midnightblue" points="545.149,-307.718 538.131,-299.78 538.667,-310.362 545.149,-307.718"/>
</g>
<!-- Node37 -->
<g id="node37" class="node"><title>Node37</title>
<g id="a_node37"><a xlink:href="_res_sprite_8h.html" target="_top" xlink:title="ResSprite.h">
<polygon fill="none" stroke="black" points="644,-342 644,-361 712,-361 712,-342 644,-342"/>
<text text-anchor="middle" x="678" y="-349" font-family="Helvetica,sans-Serif" font-size="10.00">ResSprite.h</text>
</a>
</g>
</g>
<!-- Node33&#45;&gt;Node37 -->
<g id="edge55" class="edge"><title>Node33&#45;&gt;Node37</title>
<path fill="none" stroke="midnightblue" d="M704.819,-408.734C700.125,-398.89 692.384,-382.66 686.422,-370.159"/>
<polygon fill="midnightblue" stroke="midnightblue" points="689.578,-368.647 682.115,-361.127 683.26,-371.66 689.578,-368.647"/>
</g>
<!-- Node39 -->
<g id="node39" class="node"><title>Node39</title>
<g id="a_node39"><a xlink:href="_res_sound_8h.html" target="_top" xlink:title="ResSound.h">
<polygon fill="none" stroke="black" points="488.5,-168.5 488.5,-187.5 559.5,-187.5 559.5,-168.5 488.5,-168.5"/>
<text text-anchor="middle" x="524" y="-175.5" font-family="Helvetica,sans-Serif" font-size="10.00">ResSound.h</text>
</a>
</g>
</g>
<!-- Node33&#45;&gt;Node39 -->
<g id="edge59" class="edge"><title>Node33&#45;&gt;Node39</title>
<path fill="none" stroke="midnightblue" d="M711.924,-408.641C721.673,-377.236 749.373,-270.611 693,-224 683.381,-216.046 616.393,-199.744 569.704,-189.1"/>
<polygon fill="midnightblue" stroke="midnightblue" points="570.311,-185.649 559.785,-186.854 568.765,-192.476 570.311,-185.649"/>
</g>
<!-- Node35&#45;&gt;Node20 -->
<g id="edge54" class="edge"><title>Node35&#45;&gt;Node20</title>
<path fill="none" stroke="midnightblue" d="M501.8,-281.032C463.015,-271.724 398.644,-256.275 355.292,-245.87"/>
<polygon fill="midnightblue" stroke="midnightblue" points="356.107,-242.466 345.567,-243.536 354.474,-249.273 356.107,-242.466"/>
</g>
<!-- Node36 -->
<g id="node36" class="node"><title>Node36</title>
<g id="a_node36"><a xlink:href="_res_bitmap_8h.html" target="_top" xlink:title="ResBitmap.h">
<polygon fill="none" stroke="black" points="408,-224.5 408,-243.5 482,-243.5 482,-224.5 408,-224.5"/>
<text text-anchor="middle" x="445" y="-231.5" font-family="Helvetica,sans-Serif" font-size="10.00">ResBitmap.h</text>
</a>
</g>
</g>
<!-- Node35&#45;&gt;Node36 -->
<g id="edge52" class="edge"><title>Node35&#45;&gt;Node36</title>
<path fill="none" stroke="midnightblue" d="M520.54,-280.324C506.5,-271.9 484.952,-258.971 468.457,-249.074"/>
<polygon fill="midnightblue" stroke="midnightblue" points="469.8,-245.798 459.424,-243.655 466.198,-251.801 469.8,-245.798"/>
</g>
<!-- Node36&#45;&gt;Node24 -->
<g id="edge53" class="edge"><title>Node36&#45;&gt;Node24</title>
<path fill="none" stroke="midnightblue" d="M423.609,-224.444C401.293,-215.517 366.097,-201.439 340.792,-191.317"/>
<polygon fill="midnightblue" stroke="midnightblue" points="341.876,-187.981 331.291,-187.516 339.276,-194.48 341.876,-187.981"/>
</g>
<!-- Node38 -->
<g id="node38" class="node"><title>Node38</title>
<g id="a_node38"><a xlink:href="_sprite_8h.html" target="_top" xlink:title="../VideoServices/Sprite.h">
<polygon fill="none" stroke="black" points="586.5,-280.5 586.5,-299.5 711.5,-299.5 711.5,-280.5 586.5,-280.5"/>
<text text-anchor="middle" x="649" y="-287.5" font-family="Helvetica,sans-Serif" font-size="10.00">../VideoServices/Sprite.h</text>
</a>
</g>
</g>
<!-- Node37&#45;&gt;Node38 -->
<g id="edge56" class="edge"><title>Node37&#45;&gt;Node38</title>
<path fill="none" stroke="midnightblue" d="M673.845,-341.975C669.624,-333.315 662.963,-319.649 657.6,-308.645"/>
<polygon fill="midnightblue" stroke="midnightblue" points="660.675,-306.965 653.147,-299.509 654.382,-310.032 660.675,-306.965"/>
</g>
<!-- Node38&#45;&gt;Node10 -->
<g id="edge58" class="edge"><title>Node38&#45;&gt;Node10</title>
<path fill="none" stroke="midnightblue" d="M644.541,-280.083C640.846,-272.691 635.477,-261.953 630.906,-252.811"/>
<polygon fill="midnightblue" stroke="midnightblue" points="633.978,-251.13 626.376,-243.751 627.717,-254.261 633.978,-251.13"/>
</g>
<!-- Node38&#45;&gt;Node21 -->
<g id="edge57" class="edge"><title>Node38&#45;&gt;Node21</title>
<path fill="none" stroke="midnightblue" d="M628.991,-280.368C584.208,-261.051 475.737,-214.259 423.321,-191.648"/>
<polygon fill="midnightblue" stroke="midnightblue" points="424.485,-188.339 413.916,-187.591 421.712,-194.766 424.485,-188.339"/>
</g>
<!-- Node39&#45;&gt;Node5 -->
<g id="edge62" class="edge"><title>Node39&#45;&gt;Node5</title>
<path fill="none" stroke="midnightblue" d="M511.531,-168.258C499.973,-159.791 482.699,-146.183 470,-132 456.782,-117.237 444.614,-98.0922 436.622,-84.4107"/>
<polygon fill="midnightblue" stroke="midnightblue" points="439.571,-82.5164 431.584,-75.5548 433.486,-85.9775 439.571,-82.5164"/>
</g>
<!-- Node40 -->
<g id="node40" class="node"><title>Node40</title>
<g id="a_node40"><a xlink:href="_sound_server_8h.html" target="_top" xlink:title="../VideoServices/SoundServer.h">
<polygon fill="none" stroke="black" points="512,-112.5 512,-131.5 668,-131.5 668,-112.5 512,-112.5"/>
<text text-anchor="middle" x="590" y="-119.5" font-family="Helvetica,sans-Serif" font-size="10.00">../VideoServices/SoundServer.h</text>
</a>
</g>
</g>
<!-- Node39&#45;&gt;Node40 -->
<g id="edge60" class="edge"><title>Node39&#45;&gt;Node40</title>
<path fill="none" stroke="midnightblue" d="M534.604,-168.324C544.456,-160.263 559.351,-148.077 571.215,-138.369"/>
<polygon fill="midnightblue" stroke="midnightblue" points="573.68,-140.875 579.203,-131.834 569.247,-135.457 573.68,-140.875"/>
</g>
<!-- Node40&#45;&gt;Node12 -->
<g id="edge61" class="edge"><title>Node40&#45;&gt;Node12</title>
<path fill="none" stroke="midnightblue" d="M634.05,-112.444C690.819,-101.416 788.064,-82.5272 837.385,-72.9468"/>
<polygon fill="midnightblue" stroke="midnightblue" points="838.284,-76.3377 847.433,-70.9951 836.949,-69.4662 838.284,-76.3377"/>
</g>
<!-- Node42 -->
<g id="node42" class="node"><title>Node42</title>
<g id="a_node42"><a xlink:href="_bundle_8h.html" target="_top" xlink:title="Bundle.h">
<polygon fill="none" stroke="black" points="946.5,-342 946.5,-361 1001.5,-361 1001.5,-342 946.5,-342"/>
<text text-anchor="middle" x="974" y="-349" font-family="Helvetica,sans-Serif" font-size="10.00">Bundle.h</text>
</a>
</g>
</g>
<!-- Node41&#45;&gt;Node42 -->
<g id="edge64" class="edge"><title>Node41&#45;&gt;Node42</title>
<path fill="none" stroke="midnightblue" d="M948.046,-408.734C952.544,-398.988 959.932,-382.981 965.678,-370.532"/>
<polygon fill="midnightblue" stroke="midnightblue" points="969.005,-371.674 970.018,-361.127 962.65,-368.74 969.005,-371.674"/>
</g>
<!-- Node42&#45;&gt;Node15 -->
<g id="edge65" class="edge"><title>Node42&#45;&gt;Node15</title>
<path fill="none" stroke="midnightblue" d="M976.849,-341.86C987.847,-308.498 1027.69,-187.642 1042.97,-141.28"/>
<polygon fill="midnightblue" stroke="midnightblue" points="1046.34,-142.242 1046.15,-131.649 1039.69,-140.05 1046.34,-142.242"/>
</g>
<!-- Node43&#45;&gt;Node15 -->
<g id="edge68" class="edge"><title>Node43&#45;&gt;Node15</title>
<path fill="none" stroke="midnightblue" d="M1059,-408.911C1059,-388.477 1059,-335.363 1059,-291 1059,-291 1059,-291 1059,-233 1059,-200.816 1054.7,-163.552 1051.74,-141.702"/>
<polygon fill="midnightblue" stroke="midnightblue" points="1055.17,-140.947 1050.31,-131.534 1048.24,-141.925 1055.17,-140.947"/>
</g>
<!-- Node44 -->
<g id="node44" class="node"><title>Node44</title>
<polygon fill="none" stroke="#bfbfbf" points="1087,-342 1087,-361 1143,-361 1143,-342 1087,-342"/>
<text text-anchor="middle" x="1115" y="-349" font-family="Helvetica,sans-Serif" font-size="10.00">basedir.h</text>
</g>
<!-- Node43&#45;&gt;Node44 -->
<g id="edge67" class="edge"><title>Node43&#45;&gt;Node44</title>
<path fill="none" stroke="midnightblue" d="M1066.55,-408.734C1075.28,-398.598 1089.85,-381.69 1100.74,-369.056"/>
<polygon fill="midnightblue" stroke="midnightblue" points="1103.69,-370.988 1107.57,-361.127 1098.39,-366.419 1103.69,-370.988"/>
</g>
<!-- Node47 -->
<g id="node47" class="node"><title>Node47</title>
<g id="a_node47"><a xlink:href="_free_element_base_8h.html" target="_top" xlink:title="../ObjFacTools/FreeElement\lBase.h">
<polygon fill="none" stroke="black" points="289,-336.5 289,-366.5 429,-366.5 429,-336.5 289,-336.5"/>
<text text-anchor="start" x="297" y="-354.5" font-family="Helvetica,sans-Serif" font-size="10.00">../ObjFacTools/FreeElement</text>
<text text-anchor="middle" x="359" y="-343.5" font-family="Helvetica,sans-Serif" font-size="10.00">Base.h</text>
</a>
</g>
</g>
<!-- Node46&#45;&gt;Node47 -->
<g id="edge71" class="edge"><title>Node46&#45;&gt;Node47</title>
<path fill="none" stroke="midnightblue" d="M359,-408.734C359,-400.541 359,-387.923 359,-376.714"/>
<polygon fill="midnightblue" stroke="midnightblue" points="362.5,-376.589 359,-366.589 355.5,-376.589 362.5,-376.589"/>
</g>
<!-- Node48 -->
<g id="node48" class="node"><title>Node48</title>
<g id="a_node48"><a xlink:href="_race_effects_8h.html" target="_top" xlink:title="../Model/RaceEffects.h">
<polygon fill="none" stroke="black" points="0,-280.5 0,-299.5 118,-299.5 118,-280.5 0,-280.5"/>
<text text-anchor="middle" x="59" y="-287.5" font-family="Helvetica,sans-Serif" font-size="10.00">../Model/RaceEffects.h</text>
</a>
</g>
</g>
<!-- Node46&#45;&gt;Node48 -->
<g id="edge73" class="edge"><title>Node46&#45;&gt;Node48</title>
<path fill="none" stroke="midnightblue" d="M339.115,-408.953C334.203,-406.928 328.935,-404.827 324,-403 275.758,-385.143 261.654,-386.37 214,-367 166.65,-347.753 113.598,-320.421 83.4559,-304.318"/>
<polygon fill="midnightblue" stroke="midnightblue" points="84.9758,-301.162 74.5106,-299.509 81.6611,-307.327 84.9758,-301.162"/>
</g>
<!-- Node47&#45;&gt;Node9 -->
<g id="edge72" class="edge"><title>Node47&#45;&gt;Node9</title>
<path fill="none" stroke="midnightblue" d="M343.122,-336.399C332.985,-327.397 319.838,-315.721 309.415,-306.465"/>
<polygon fill="midnightblue" stroke="midnightblue" points="311.55,-303.681 301.749,-299.658 306.902,-308.915 311.55,-303.681"/>
</g>
<!-- Node48&#45;&gt;Node26 -->
<g id="edge74" class="edge"><title>Node48&#45;&gt;Node26</title>
<path fill="none" stroke="midnightblue" d="M59,-280.083C59,-273.006 59,-262.861 59,-253.986"/>
<polygon fill="midnightblue" stroke="midnightblue" points="62.5001,-253.751 59,-243.751 55.5001,-253.751 62.5001,-253.751"/>
</g>
</g>
</svg>
