<?xml version="1.0" encoding="UTF-8" standalone="no"?>
<!DOCTYPE svg PUBLIC "-//W3C//DTD SVG 1.1//EN"
 "http://www.w3.org/Graphics/SVG/1.1/DTD/svg11.dtd">
<!-- Generated by graphviz version 2.26.3 (20100126.1600)
 -->
<!-- Title: MultipartText.h Pages: 1 -->
<svg width="294pt" height="146pt"
 viewBox="0.00 0.00 294.00 146.00" xmlns="http://www.w3.org/2000/svg" xmlns:xlink="http://www.w3.org/1999/xlink">
<g id="graph1" class="graph" transform="scale(1 1) rotate(0) translate(4 142)">
<title>MultipartText.h</title>
<!-- Node1 -->
<g id="node1" class="node"><title>Node1</title>
<polygon fill="#bfbfbf" stroke="black" points="114,-117 114,-137 194,-137 194,-117 114,-117"/>
<text text-anchor="middle" x="154" y="-124" font-family="FreeSans" font-size="10.00">MultipartText.h</text>
</g>
<!-- Node2 -->
<g id="node3" class="node"><title>Node2</title>
<polygon fill="none" stroke="#bfbfbf" points="-0.5,-59 -0.5,-79 88.5,-79 88.5,-59 -0.5,-59"/>
<text text-anchor="middle" x="44" y="-66" font-family="FreeSans" font-size="10.00">boost/format.hpp</text>
</g>
<!-- Node1&#45;&gt;Node2 -->
<g id="edge2" class="edge"><title>Node1&#45;&gt;Node2</title>
<path fill="none" stroke="midnightblue" d="M134.839,-116.897C117.595,-107.804 92.024,-94.3218 72.4022,-83.9757"/>
<polygon fill="midnightblue" stroke="midnightblue" points="73.7882,-80.7498 63.31,-79.1817 70.5233,-86.9418 73.7882,-80.7498"/>
</g>
<!-- Node3 -->
<g id="node5" class="node"><title>Node3</title>
<a xlink:href="_m_r___types_8h.html" target="_top" xlink:title="../Util/MR_Types.h">
<polygon fill="none" stroke="black" points="106,-59 106,-79 202,-79 202,-59 106,-59"/>
<text text-anchor="middle" x="154" y="-66" font-family="FreeSans" font-size="10.00">../Util/MR_Types.h</text>
</a>
</g>
<!-- Node1&#45;&gt;Node3 -->
<g id="edge4" class="edge"><title>Node1&#45;&gt;Node3</title>
<path fill="none" stroke="midnightblue" d="M154,-116.897C154,-109.339 154,-98.7476 154,-89.4458"/>
<polygon fill="midnightblue" stroke="midnightblue" points="157.5,-89.3776 154,-79.3776 150.5,-89.3776 157.5,-89.3776"/>
</g>
<!-- Node5 -->
<g id="node9" class="node"><title>Node5</title>
<a xlink:href="_font_spec_8h.html" target="_top" xlink:title="FontSpec.h">
<polygon fill="none" stroke="black" points="220,-59 220,-79 286,-79 286,-59 220,-59"/>
<text text-anchor="middle" x="253" y="-66" font-family="FreeSans" font-size="10.00">FontSpec.h</text>
</a>
</g>
<!-- Node1&#45;&gt;Node5 -->
<g id="edge8" class="edge"><title>Node1&#45;&gt;Node5</title>
<path fill="none" stroke="midnightblue" d="M171.244,-116.897C186.624,-107.887 209.361,-94.5665 226.955,-84.2586"/>
<polygon fill="midnightblue" stroke="midnightblue" points="228.762,-87.2566 235.621,-79.1817 225.223,-81.2168 228.762,-87.2566"/>
</g>
<!-- Node4 -->
<g id="node7" class="node"><title>Node4</title>
<polygon fill="none" stroke="#bfbfbf" points="125,-1 125,-21 183,-21 183,-1 125,-1"/>
<text text-anchor="middle" x="154" y="-8" font-family="FreeSans" font-size="10.00">inttypes.h</text>
</g>
<!-- Node3&#45;&gt;Node4 -->
<g id="edge6" class="edge"><title>Node3&#45;&gt;Node4</title>
<path fill="none" stroke="midnightblue" d="M154,-58.8972C154,-51.339 154,-40.7476 154,-31.4458"/>
<polygon fill="midnightblue" stroke="midnightblue" points="157.5,-31.3776 154,-21.3776 150.5,-31.3776 157.5,-31.3776"/>
</g>
<!-- Node6 -->
<g id="node11" class="node"><title>Node6</title>
<polygon fill="none" stroke="#bfbfbf" points="232.5,-1 232.5,-21 273.5,-21 273.5,-1 232.5,-1"/>
<text text-anchor="middle" x="253" y="-8" font-family="FreeSans" font-size="10.00">string</text>
</g>
<!-- Node5&#45;&gt;Node6 -->
<g id="edge10" class="edge"><title>Node5&#45;&gt;Node6</title>
<path fill="none" stroke="midnightblue" d="M253,-58.8972C253,-51.339 253,-40.7476 253,-31.4458"/>
<polygon fill="midnightblue" stroke="midnightblue" points="256.5,-31.3776 253,-21.3776 249.5,-31.3776 256.5,-31.3776"/>
</g>
</g>
</svg>
