<?xml version="1.0" encoding="UTF-8" standalone="no"?>
<!DOCTYPE svg PUBLIC "-//W3C//DTD SVG 1.1//EN"
 "http://www.w3.org/Graphics/SVG/1.1/DTD/svg11.dtd">
<!-- Generated by graphviz version 2.26.3 (20100126.1600)
 -->
<!-- Title: NodeFactory.cpp Pages: 1 -->
<!--zoomable 204 -->
<svg id="main" version="1.1" xmlns="http://www.w3.org/2000/svg" xmlns:xlink="http://www.w3.org/1999/xlink" xml:space="preserve" onload="init(evt)">
        <defs>
                <circle id="rim" cx="0" cy="0" r="7"/>
                <circle id="rim2" cx="0" cy="0" r="3.5"/>
                <g id="zoomPlus">
                        <use xlink:href="#rim" fill="#404040">
                                <set attributeName="fill" to="#808080" begin="zoomplus.mouseover" end="zoomplus.mouseout"/>
                        </use>
                        <path d="M-4,0h8M0,-4v8" fill="none" stroke="white" stroke-width="1.5" pointer-events="none"/>
                </g>
                <g id="zoomMin">
                        <use xlink:href="#rim" fill="#404040">
                                <set attributeName="fill" to="#808080" begin="zoomminus.mouseover" end="zoomminus.mouseout"/>
                        </use>
                        <path d="M-4,0h8" fill="none" stroke="white" stroke-width="1.5" pointer-events="none"/>
                </g>
                <g id="dirArrow">
                        <path fill="none" stroke="white" stroke-width="1.5" d="M0,-3.0v7 M-2.5,-0.5L0,-3.0L2.5,-0.5"/>
                </g>
               <g id="resetDef">
                       <use xlink:href="#rim2" fill="#404040">
                               <set attributeName="fill" to="#808080" begin="reset.mouseover" end="reset.mouseout"/>
                       </use>
               </g>
        </defs>

<script type="text/javascript">
var viewWidth = 505;
var viewHeight = 204;
var sectionId = 'dynsection-0';
</script>
<script xlink:href="svgpan.js"/>
<svg id="graph" class="graph">
<g id="viewport">
<title>NodeFactory.cpp</title>
<!-- Node1 -->
<g id="node1" class="node"><title>Node1</title>
<polygon fill="#bfbfbf" stroke="black" points="153,-175 153,-195 243,-195 243,-175 153,-175"/>
<text text-anchor="middle" x="198" y="-182" font-family="FreeSans" font-size="10.00">NodeFactory.cpp</text>
</g>
<!-- Node2 -->
<g id="node3" class="node"><title>Node2</title>
<polygon fill="none" stroke="#bfbfbf" points="-0.5,-117 -0.5,-137 52.5,-137 52.5,-117 -0.5,-117"/>
<text text-anchor="middle" x="26" y="-124" font-family="FreeSans" font-size="10.00">StdAfx.h</text>
</g>
<!-- Node1&#45;&gt;Node2 -->
<g id="edge2" class="edge"><title>Node1&#45;&gt;Node2</title>
<path fill="none" stroke="midnightblue" d="M168.04,-174.897C138.598,-164.969 93.6356,-149.807 62.2073,-139.209"/>
<polygon fill="midnightblue" stroke="midnightblue" points="63.1098,-135.82 52.5157,-135.941 60.8731,-142.453 63.1098,-135.82"/>
</g>
<!-- Node3 -->
<g id="node5" class="node"><title>Node3</title>
<a xlink:href="_node_8h.html" target="_top" xlink:title="Node.h">
<polygon fill="none" stroke="black" points="161.5,-59 161.5,-79 208.5,-79 208.5,-59 161.5,-59"/>
<text text-anchor="middle" x="185" y="-66" font-family="FreeSans" font-size="10.00">Node.h</text>
</a>
</g>
<!-- Node1&#45;&gt;Node3 -->
<g id="edge4" class="edge"><title>Node1&#45;&gt;Node3</title>
<path fill="none" stroke="midnightblue" d="M193.72,-174.769C190.045,-165.394 185.029,-151.033 183,-138 180.494,-121.903 181.213,-103.445 182.439,-89.6731"/>
<polygon fill="midnightblue" stroke="midnightblue" points="185.958,-89.6734 183.528,-79.361 178.997,-88.9379 185.958,-89.6734"/>
</g>
<!-- Node6 -->
<g id="node11" class="node"><title>Node6</title>
<a xlink:href="_map_node_8h.html" target="_top" xlink:title="MapNode.h">
<polygon fill="none" stroke="black" points="70,-117 70,-137 136,-137 136,-117 70,-117"/>
<text text-anchor="middle" x="103" y="-124" font-family="FreeSans" font-size="10.00">MapNode.h</text>
</a>
</g>
<!-- Node1&#45;&gt;Node6 -->
<g id="edge10" class="edge"><title>Node1&#45;&gt;Node6</title>
<path fill="none" stroke="midnightblue" d="M181.452,-174.897C166.83,-165.97 145.276,-152.811 128.459,-142.543"/>
<polygon fill="midnightblue" stroke="midnightblue" points="130.036,-139.405 119.677,-137.182 126.388,-145.38 130.036,-139.405"/>
</g>
<!-- Node8 -->
<g id="node16" class="node"><title>Node8</title>
<a xlink:href="_scalar_node_8h.html" target="_top" xlink:title="ScalarNode.h">
<polygon fill="none" stroke="black" points="289.5,-117 289.5,-137 364.5,-137 364.5,-117 289.5,-117"/>
<text text-anchor="middle" x="327" y="-124" font-family="FreeSans" font-size="10.00">ScalarNode.h</text>
</a>
</g>
<!-- Node1&#45;&gt;Node8 -->
<g id="edge16" class="edge"><title>Node1&#45;&gt;Node8</title>
<path fill="none" stroke="midnightblue" d="M220.47,-174.897C241.061,-165.639 271.775,-151.83 294.94,-141.415"/>
<polygon fill="midnightblue" stroke="midnightblue" points="296.669,-144.475 304.355,-137.182 293.799,-138.09 296.669,-144.475"/>
</g>
<!-- Node15 -->
<g id="node32" class="node"><title>Node15</title>
<a xlink:href="_seq_node_8h.html" target="_top" xlink:title="SeqNode.h">
<polygon fill="none" stroke="black" points="381.5,-117 381.5,-137 446.5,-137 446.5,-117 381.5,-117"/>
<text text-anchor="middle" x="414" y="-124" font-family="FreeSans" font-size="10.00">SeqNode.h</text>
</a>
</g>
<!-- Node1&#45;&gt;Node15 -->
<g id="edge34" class="edge"><title>Node1&#45;&gt;Node15</title>
<path fill="none" stroke="midnightblue" d="M235.624,-174.897C273.54,-164.716 331.954,-149.031 371.515,-138.408"/>
<polygon fill="midnightblue" stroke="midnightblue" points="372.642,-141.729 381.392,-135.756 370.827,-134.969 372.642,-141.729"/>
</g>
<!-- Node16 -->
<g id="node36" class="node"><title>Node16</title>
<a xlink:href="_node_factory_8h.html" target="_top" xlink:title="NodeFactory.h">
<polygon fill="none" stroke="black" points="192,-117 192,-137 272,-137 272,-117 192,-117"/>
<text text-anchor="middle" x="232" y="-124" font-family="FreeSans" font-size="10.00">NodeFactory.h</text>
</a>
</g>
<!-- Node1&#45;&gt;Node16 -->
<g id="edge40" class="edge"><title>Node1&#45;&gt;Node16</title>
<path fill="none" stroke="midnightblue" d="M203.922,-174.897C208.546,-167.01 215.105,-155.821 220.721,-146.24"/>
<polygon fill="midnightblue" stroke="midnightblue" points="223.879,-147.775 225.917,-137.378 217.84,-144.235 223.879,-147.775"/>
</g>
<!-- Node4 -->
<g id="node7" class="node"><title>Node4</title>
<polygon fill="none" stroke="#bfbfbf" points="103,-1 103,-21 147,-21 147,-1 103,-1"/>
<text text-anchor="middle" x="125" y="-8" font-family="FreeSans" font-size="10.00">yaml.h</text>
</g>
<!-- Node3&#45;&gt;Node4 -->
<g id="edge6" class="edge"><title>Node3&#45;&gt;Node4</title>
<path fill="none" stroke="midnightblue" d="M174.549,-58.8972C165.88,-50.5175 153.354,-38.4093 143.066,-28.4638"/>
<polygon fill="midnightblue" stroke="midnightblue" points="145.358,-25.8114 135.735,-21.3776 140.493,-30.8443 145.358,-25.8114"/>
</g>
<!-- Node5 -->
<g id="node9" class="node"><title>Node5</title>
<polygon fill="none" stroke="#bfbfbf" points="164.5,-1 164.5,-21 205.5,-21 205.5,-1 164.5,-1"/>
<text text-anchor="middle" x="185" y="-8" font-family="FreeSans" font-size="10.00">string</text>
</g>
<!-- Node3&#45;&gt;Node5 -->
<g id="edge8" class="edge"><title>Node3&#45;&gt;Node5</title>
<path fill="none" stroke="midnightblue" d="M185,-58.8972C185,-51.339 185,-40.7476 185,-31.4458"/>
<polygon fill="midnightblue" stroke="midnightblue" points="188.5,-31.3776 185,-21.3776 181.5,-31.3776 188.5,-31.3776"/>
</g>
<!-- Node6&#45;&gt;Node3 -->
<g id="edge14" class="edge"><title>Node6&#45;&gt;Node3</title>
<path fill="none" stroke="midnightblue" d="M117.283,-116.897C129.671,-108.135 147.822,-95.2965 162.215,-85.1164"/>
<polygon fill="midnightblue" stroke="midnightblue" points="164.462,-87.8138 170.605,-79.1817 160.42,-82.0989 164.462,-87.8138"/>
</g>
<!-- Node7 -->
<g id="node13" class="node"><title>Node7</title>
<polygon fill="none" stroke="#bfbfbf" points="85.5,-59 85.5,-79 120.5,-79 120.5,-59 85.5,-59"/>
<text text-anchor="middle" x="103" y="-66" font-family="FreeSans" font-size="10.00">map</text>
</g>
<!-- Node6&#45;&gt;Node7 -->
<g id="edge12" class="edge"><title>Node6&#45;&gt;Node7</title>
<path fill="none" stroke="midnightblue" d="M103,-116.897C103,-109.339 103,-98.7476 103,-89.4458"/>
<polygon fill="midnightblue" stroke="midnightblue" points="106.5,-89.3776 103,-79.3776 99.5001,-89.3776 106.5,-89.3776"/>
</g>
<!-- Node8&#45;&gt;Node3 -->
<g id="edge32" class="edge"><title>Node8&#45;&gt;Node3</title>
<path fill="none" stroke="midnightblue" d="M302.265,-116.897C278.873,-107.342 243.613,-92.9403 217.866,-82.424"/>
<polygon fill="midnightblue" stroke="midnightblue" points="219.089,-79.1431 208.508,-78.6019 216.442,-85.6234 219.089,-79.1431"/>
</g>
<!-- Node9 -->
<g id="node18" class="node"><title>Node9</title>
<polygon fill="none" stroke="#bfbfbf" points="338.5,-59 338.5,-79 385.5,-79 385.5,-59 338.5,-59"/>
<text text-anchor="middle" x="362" y="-66" font-family="FreeSans" font-size="10.00">limits.h</text>
</g>
<!-- Node8&#45;&gt;Node9 -->
<g id="edge18" class="edge"><title>Node8&#45;&gt;Node9</title>
<path fill="none" stroke="midnightblue" d="M333.097,-116.897C337.905,-108.928 344.749,-97.5874 350.57,-87.9413"/>
<polygon fill="midnightblue" stroke="midnightblue" points="353.568,-89.7478 355.738,-79.3776 347.574,-86.1311 353.568,-89.7478"/>
</g>
<!-- Node10 -->
<g id="node20" class="node"><title>Node10</title>
<a xlink:href="_o_s_8h.html" target="_top" xlink:title="../OS.h">
<polygon fill="none" stroke="black" points="275,-59 275,-79 321,-79 321,-59 275,-59"/>
<text text-anchor="middle" x="298" y="-66" font-family="FreeSans" font-size="10.00">../OS.h</text>
</a>
</g>
<!-- Node8&#45;&gt;Node10 -->
<g id="edge20" class="edge"><title>Node8&#45;&gt;Node10</title>
<path fill="none" stroke="midnightblue" d="M321.949,-116.897C318.046,-109.093 312.527,-98.0536 307.77,-88.5401"/>
<polygon fill="midnightblue" stroke="midnightblue" points="310.791,-86.7566 303.189,-79.3776 304.53,-89.8872 310.791,-86.7566"/>
</g>
<!-- Node10&#45;&gt;Node5 -->
<g id="edge26" class="edge"><title>Node10&#45;&gt;Node5</title>
<path fill="none" stroke="midnightblue" d="M278.317,-58.8972C260.521,-49.7631 234.095,-36.1991 213.902,-25.8348"/>
<polygon fill="midnightblue" stroke="midnightblue" points="215.331,-22.6343 204.837,-21.1817 212.135,-28.8619 215.331,-22.6343"/>
</g>
<!-- Node11 -->
<g id="node22" class="node"><title>Node11</title>
<polygon fill="none" stroke="#bfbfbf" points="223,-1 223,-21 265,-21 265,-1 223,-1"/>
<text text-anchor="middle" x="244" y="-8" font-family="FreeSans" font-size="10.00">locale</text>
</g>
<!-- Node10&#45;&gt;Node11 -->
<g id="edge22" class="edge"><title>Node10&#45;&gt;Node11</title>
<path fill="none" stroke="midnightblue" d="M288.594,-58.8972C280.869,-50.5996 269.74,-38.6463 260.532,-28.7569"/>
<polygon fill="midnightblue" stroke="midnightblue" points="263.038,-26.3116 253.662,-21.3776 257.914,-31.0815 263.038,-26.3116"/>
</g>
<!-- Node12 -->
<g id="node24" class="node"><title>Node12</title>
<polygon fill="none" stroke="#bfbfbf" points="283,-1 283,-21 313,-21 313,-1 283,-1"/>
<text text-anchor="middle" x="298" y="-8" font-family="FreeSans" font-size="10.00">set</text>
</g>
<!-- Node10&#45;&gt;Node12 -->
<g id="edge24" class="edge"><title>Node10&#45;&gt;Node12</title>
<path fill="none" stroke="midnightblue" d="M298,-58.8972C298,-51.339 298,-40.7476 298,-31.4458"/>
<polygon fill="midnightblue" stroke="midnightblue" points="301.5,-31.3776 298,-21.3776 294.5,-31.3776 301.5,-31.3776"/>
</g>
<!-- Node13 -->
<g id="node27" class="node"><title>Node13</title>
<polygon fill="none" stroke="#bfbfbf" points="453,-1 453,-21 497,-21 497,-1 453,-1"/>
<text text-anchor="middle" x="475" y="-8" font-family="FreeSans" font-size="10.00">vector</text>
</g>
<!-- Node10&#45;&gt;Node13 -->
<g id="edge28" class="edge"><title>Node10&#45;&gt;Node13</title>
<path fill="none" stroke="midnightblue" d="M321.049,-60.9995C324.056,-59.9784 327.099,-58.9566 330,-58 377.603,-42.3048 392.011,-39.2126 443.072,-22.2382"/>
<polygon fill="midnightblue" stroke="midnightblue" points="444.308,-25.5158 452.681,-19.0249 442.088,-18.8771 444.308,-25.5158"/>
</g>
<!-- Node14 -->
<g id="node29" class="node"><title>Node14</title>
<polygon fill="none" stroke="#bfbfbf" points="330.5,-1 330.5,-21 435.5,-21 435.5,-1 330.5,-1"/>
<text text-anchor="middle" x="383" y="-8" font-family="FreeSans" font-size="10.00">boost/filesystem.hpp</text>
</g>
<!-- Node10&#45;&gt;Node14 -->
<g id="edge30" class="edge"><title>Node10&#45;&gt;Node14</title>
<path fill="none" stroke="midnightblue" d="M312.806,-58.8972C325.768,-50.0524 344.818,-37.0539 359.802,-26.829"/>
<polygon fill="midnightblue" stroke="midnightblue" points="361.791,-29.7092 368.079,-21.1817 357.846,-23.927 361.791,-29.7092"/>
</g>
<!-- Node15&#45;&gt;Node3 -->
<g id="edge36" class="edge"><title>Node15&#45;&gt;Node3</title>
<path fill="none" stroke="midnightblue" d="M381.34,-118.183C378.521,-117.439 375.711,-116.702 373,-116 319.118,-102.038 256.36,-86.492 218.703,-77.2411"/>
<polygon fill="midnightblue" stroke="midnightblue" points="219.321,-73.7891 208.775,-74.8053 217.653,-80.5874 219.321,-73.7891"/>
</g>
<!-- Node15&#45;&gt;Node13 -->
<g id="edge38" class="edge"><title>Node15&#45;&gt;Node13</title>
<path fill="none" stroke="midnightblue" d="M419.413,-116.706C429.613,-97.3097 451.822,-55.0757 464.87,-30.2637"/>
<polygon fill="midnightblue" stroke="midnightblue" points="468.129,-31.5854 469.686,-21.1055 461.934,-28.3273 468.129,-31.5854"/>
</g>
<!-- Node16&#45;&gt;Node3 -->
<g id="edge42" class="edge"><title>Node16&#45;&gt;Node3</title>
<path fill="none" stroke="midnightblue" d="M223.813,-116.897C217.223,-108.764 207.786,-97.1183 199.867,-87.3468"/>
<polygon fill="midnightblue" stroke="midnightblue" points="202.425,-84.9434 193.409,-79.3776 196.986,-89.3505 202.425,-84.9434"/>
</g>
</g>
</svg>
        <g id="navigator" transform="translate(0 0)" fill="#404254">
                <rect fill="#f2f5e9" fill-opacity="0.5" stroke="#606060" stroke-width=".5" x="0" y="0" width="60" height="60"/>
                <use id="zoomplus" xlink:href="#zoomPlus" x="17" y="9" onmousedown="handleZoom(evt,'in')"/>
                <use id="zoomminus" xlink:href="#zoomMin" x="42" y="9" onmousedown="handleZoom(evt,'out')"/>
                <use id="reset" xlink:href="#resetDef" x="30" y="36" onmousedown="handleReset()"/>
                <g id="arrowUp" xlink:href="#dirArrow" transform="translate(30 24)" onmousedown="handlePan(0,-1)">
                  <use xlink:href="#rim" fill="#404040">
                        <set attributeName="fill" to="#808080" begin="arrowUp.mouseover" end="arrowUp.mouseout"/>
                  </use>
                  <path fill="none" stroke="white" stroke-width="1.5" d="M0,-3.0v7 M-2.5,-0.5L0,-3.0L2.5,-0.5"/>
                </g>
                <g id="arrowRight" xlink:href="#dirArrow" transform="rotate(90) translate(36 -43)" onmousedown="handlePan(1,0)">
                  <use xlink:href="#rim" fill="#404040">
                        <set attributeName="fill" to="#808080" begin="arrowRight.mouseover" end="arrowRight.mouseout"/>
                  </use>
                  <path fill="none" stroke="white" stroke-width="1.5" d="M0,-3.0v7 M-2.5,-0.5L0,-3.0L2.5,-0.5"/>
                </g>
                <g id="arrowDown" xlink:href="#dirArrow" transform="rotate(180) translate(-30 -48)" onmousedown="handlePan(0,1)">
                  <use xlink:href="#rim" fill="#404040">
                        <set attributeName="fill" to="#808080" begin="arrowDown.mouseover" end="arrowDown.mouseout"/>
                  </use>
                  <path fill="none" stroke="white" stroke-width="1.5" d="M0,-3.0v7 M-2.5,-0.5L0,-3.0L2.5,-0.5"/>
                </g>
                <g id="arrowLeft" xlink:href="#dirArrow" transform="rotate(270) translate(-36 17)" onmousedown="handlePan(-1,0)">
                  <use xlink:href="#rim" fill="#404040">
                        <set attributeName="fill" to="#808080" begin="arrowLeft.mouseover" end="arrowLeft.mouseout"/>
                  </use>
                  <path fill="none" stroke="white" stroke-width="1.5" d="M0,-3.0v7 M-2.5,-0.5L0,-3.0L2.5,-0.5"/>
                </g>
        </g>
        <svg viewBox="0 0 15 15" width="100%" height="30px" preserveAspectRatio="xMaxYMin meet">
         <g id="arrow_out" transform="scale(0.3 0.3)">
          <a xlink:href="_node_factory_8cpp__incl_org.svg" target="_base">
           <rect id="button" ry="5" rx="5" y="6" x="6" height="38" width="38"
                fill="#f2f5e9" fill-opacity="0.5" stroke="#606060" stroke-width="1.0"/>
           <path id="arrow"
             d="M 11.500037,31.436501 C 11.940474,20.09759 22.043105,11.32322 32.158766,21.979434 L 37.068811,17.246167 C 37.068811,17.246167 37.088388,32 37.088388,32 L 22.160133,31.978069 C 22.160133,31.978069 26.997745,27.140456 26.997745,27.140456 C 18.528582,18.264221 13.291696,25.230495 11.500037,31.436501 z"
             style="fill:#404040;"/>
          </a>
         </g>
        </svg>
</svg>
