<?xml version="1.0" encoding="UTF-8" standalone="no"?>
<!DOCTYPE svg PUBLIC "-//W3C//DTD SVG 1.1//EN"
 "http://www.w3.org/Graphics/SVG/1.1/DTD/svg11.dtd">
<!-- Generated by graphviz version 2.38.0 (20140413.2041)
 -->
<!-- Title: NodeFactory.h Pages: 1 -->
<svg width="388pt" height="84pt"
 viewBox="0.00 0.00 388.00 84.00" xmlns="http://www.w3.org/2000/svg" xmlns:xlink="http://www.w3.org/1999/xlink">
<g id="graph0" class="graph" transform="scale(1 1) rotate(0) translate(4 80)">
<title>NodeFactory.h</title>
<!-- Node1 -->
<g id="node1" class="node"><title>Node1</title>
<polygon fill="#bfbfbf" stroke="black" points="155.5,-56.5 155.5,-75.5 239.5,-75.5 239.5,-56.5 155.5,-56.5"/>
<text text-anchor="middle" x="197.5" y="-63.5" font-family="FreeSans" font-size="10.00">NodeFactory.h</text>
</g>
<!-- Node2 -->
<g id="node2" class="node"><title>Node2</title>
<g id="a_node2"><a xlink:href="_map_node_8cpp.html" target="_top" xlink:title="MapNode.cpp">
<polygon fill="none" stroke="black" points="0,-0.5 0,-19.5 83,-19.5 83,-0.5 0,-0.5"/>
<text text-anchor="middle" x="41.5" y="-7.5" font-family="FreeSans" font-size="10.00">MapNode.cpp</text>
</a>
</g>
</g>
<!-- Node1&#45;&gt;Node2 -->
<g id="edge1" class="edge"><title>Node1&#45;&gt;Node2</title>
<path fill="none" stroke="midnightblue" d="M163.33,-53.172C133.956,-43.0039 92.3016,-28.5852 66.103,-19.5164"/>
<polygon fill="midnightblue" stroke="midnightblue" points="162.187,-56.4798 172.781,-56.4435 164.476,-49.8649 162.187,-56.4798"/>
</g>
<!-- Node3 -->
<g id="node3" class="node"><title>Node3</title>
<g id="a_node3"><a xlink:href="_node_factory_8cpp.html" target="_top" xlink:title="NodeFactory.cpp">
<polygon fill="none" stroke="black" points="101,-0.5 101,-19.5 196,-19.5 196,-0.5 101,-0.5"/>
<text text-anchor="middle" x="148.5" y="-7.5" font-family="FreeSans" font-size="10.00">NodeFactory.cpp</text>
</a>
</g>
</g>
<!-- Node1&#45;&gt;Node3 -->
<g id="edge2" class="edge"><title>Node1&#45;&gt;Node3</title>
<path fill="none" stroke="midnightblue" d="M182.466,-48.4314C173.878,-38.9673 163.457,-27.4827 156.441,-19.7511"/>
<polygon fill="midnightblue" stroke="midnightblue" points="180.097,-51.0293 189.409,-56.083 185.281,-46.3254 180.097,-51.0293"/>
</g>
<!-- Node4 -->
<g id="node4" class="node"><title>Node4</title>
<g id="a_node4"><a xlink:href="_parser_8cpp.html" target="_top" xlink:title="Parser.cpp">
<polygon fill="none" stroke="black" points="214.5,-0.5 214.5,-19.5 280.5,-19.5 280.5,-0.5 214.5,-0.5"/>
<text text-anchor="middle" x="247.5" y="-7.5" font-family="FreeSans" font-size="10.00">Parser.cpp</text>
</a>
</g>
</g>
<!-- Node1&#45;&gt;Node4 -->
<g id="edge3" class="edge"><title>Node1&#45;&gt;Node4</title>
<path fill="none" stroke="midnightblue" d="M212.576,-48.7175C221.389,-39.1997 232.166,-27.5608 239.397,-19.7511"/>
<polygon fill="midnightblue" stroke="midnightblue" points="209.982,-46.3674 205.756,-56.083 215.119,-51.1233 209.982,-46.3674"/>
</g>
<!-- Node5 -->
<g id="node5" class="node"><title>Node5</title>
<g id="a_node5"><a xlink:href="_seq_node_8cpp.html" target="_top" xlink:title="SeqNode.cpp">
<polygon fill="none" stroke="black" points="299,-0.5 299,-19.5 380,-19.5 380,-0.5 299,-0.5"/>
<text text-anchor="middle" x="339.5" y="-7.5" font-family="FreeSans" font-size="10.00">SeqNode.cpp</text>
</a>
</g>
</g>
<!-- Node1&#45;&gt;Node5 -->
<g id="edge4" class="edge"><title>Node1&#45;&gt;Node5</title>
<path fill="none" stroke="midnightblue" d="M229.655,-52.772C256.328,-42.6287 293.569,-28.4669 317.105,-19.5164"/>
<polygon fill="midnightblue" stroke="midnightblue" points="228.103,-49.6176 220,-56.4435 230.591,-56.1604 228.103,-49.6176"/>
</g>
</g>
</svg>
