<?xml version="1.0" encoding="UTF-8" standalone="no"?>
<!DOCTYPE svg PUBLIC "-//W3C//DTD SVG 1.1//EN"
 "http://www.w3.org/Graphics/SVG/1.1/DTD/svg11.dtd">
<!-- Generated by graphviz version 2.38.0 (20140413.2041)
 -->
<!-- Title: ObstacleCollisionReport.h Pages: 1 -->
<!--zoomable 420 -->
<svg id="main" version="1.1" xmlns="http://www.w3.org/2000/svg" xmlns:xlink="http://www.w3.org/1999/xlink" xml:space="preserve" onload="init(evt)">
<style type="text/css"><![CDATA[
.edge:hover path { stroke: red; }
.edge:hover polygon { stroke: red; fill: red; }
]]></style>
<script type="text/javascript"><![CDATA[
var edges = document.getElementsByTagName('g');
if (edges && edges.length) {
  for (var i=0;i<edges.length;i++) {
    if (edges[i].id.substr(0,4)=='edge') {
      edges[i].setAttribute('class','edge');
    }
  }
}
]]></script>
        <defs>
                <circle id="rim" cx="0" cy="0" r="7"/>
                <circle id="rim2" cx="0" cy="0" r="3.5"/>
                <g id="zoomPlus">
                        <use xlink:href="#rim" fill="#404040">
                                <set attributeName="fill" to="#808080" begin="zoomplus.mouseover" end="zoomplus.mouseout"/>
                        </use>
                        <path d="M-4,0h8M0,-4v8" fill="none" stroke="white" stroke-width="1.5" pointer-events="none"/>
                </g>
                <g id="zoomMin">
                        <use xlink:href="#rim" fill="#404040">
                                <set attributeName="fill" to="#808080" begin="zoomminus.mouseover" end="zoomminus.mouseout"/>
                        </use>
                        <path d="M-4,0h8" fill="none" stroke="white" stroke-width="1.5" pointer-events="none"/>
                </g>
                <g id="dirArrow">
                        <path fill="none" stroke="white" stroke-width="1.5" d="M0,-3.0v7 M-2.5,-0.5L0,-3.0L2.5,-0.5"/>
                </g>
               <g id="resetDef">
                       <use xlink:href="#rim2" fill="#404040">
                               <set attributeName="fill" to="#808080" begin="reset.mouseover" end="reset.mouseout"/>
                       </use>
               </g>
        </defs>

<script type="text/javascript">
var viewWidth = 874;
var viewHeight = 420;
var sectionId = 'dynsection-0';
</script>
<script xlink:href="svgpan.js"/>
<svg id="graph" class="graph">
<g id="viewport">
<title>ObstacleCollisionReport.h</title>
<!-- Node1 -->
<g id="node1" class="node"><title>Node1</title>
<polygon fill="#bfbfbf" stroke="black" points="138,-392.5 138,-411.5 275,-411.5 275,-392.5 138,-392.5"/>
<text text-anchor="middle" x="206.5" y="-399.5" font-family="FreeSans" font-size="10.00">ObstacleCollisionReport.h</text>
</g>
<!-- Node2 -->
<g id="node2" class="node"><title>Node2</title>
<g id="a_node2"><a xlink:href="_level_8h.html" target="_top" xlink:title="Level.h">
<polygon fill="none" stroke="black" points="181.5,-336.5 181.5,-355.5 231.5,-355.5 231.5,-336.5 181.5,-336.5"/>
<text text-anchor="middle" x="206.5" y="-343.5" font-family="FreeSans" font-size="10.00">Level.h</text>
</a>
</g>
</g>
<!-- Node1&#45;&gt;Node2 -->
<g id="edge1" class="edge"><title>Node1&#45;&gt;Node2</title>
<path fill="none" stroke="midnightblue" d="M206.5,-392.083C206.5,-385.006 206.5,-374.861 206.5,-365.986"/>
<polygon fill="midnightblue" stroke="midnightblue" points="210,-365.751 206.5,-355.751 203,-365.751 210,-365.751"/>
</g>
<!-- Node3 -->
<g id="node3" class="node"><title>Node3</title>
<g id="a_node3"><a xlink:href="_maze_element_8h.html" target="_top" xlink:title="MazeElement.h">
<polygon fill="none" stroke="black" points="222,-280.5 222,-299.5 313,-299.5 313,-280.5 222,-280.5"/>
<text text-anchor="middle" x="267.5" y="-287.5" font-family="FreeSans" font-size="10.00">MazeElement.h</text>
</a>
</g>
</g>
<!-- Node2&#45;&gt;Node3 -->
<g id="edge2" class="edge"><title>Node2&#45;&gt;Node3</title>
<path fill="none" stroke="midnightblue" d="M216.301,-336.324C225.318,-328.341 238.906,-316.313 249.818,-306.653"/>
<polygon fill="midnightblue" stroke="midnightblue" points="252.353,-309.083 257.521,-299.834 247.713,-303.842 252.353,-309.083"/>
</g>
<!-- Node25 -->
<g id="node25" class="node"><title>Node25</title>
<g id="a_node25"><a xlink:href="_shape_collisions_8h.html" target="_top" xlink:title="ShapeCollisions.h">
<polygon fill="none" stroke="black" points="96,-280.5 96,-299.5 197,-299.5 197,-280.5 96,-280.5"/>
<text text-anchor="middle" x="146.5" y="-287.5" font-family="FreeSans" font-size="10.00">ShapeCollisions.h</text>
</a>
</g>
</g>
<!-- Node2&#45;&gt;Node25 -->
<g id="edge33" class="edge"><title>Node2&#45;&gt;Node25</title>
<path fill="none" stroke="midnightblue" d="M196.86,-336.324C187.99,-328.341 174.625,-316.313 163.892,-306.653"/>
<polygon fill="midnightblue" stroke="midnightblue" points="166.09,-303.922 156.315,-299.834 161.407,-309.125 166.09,-303.922"/>
</g>
<!-- Node4 -->
<g id="node4" class="node"><title>Node4</title>
<g id="a_node4"><a xlink:href="_dll_object_factory_8h.html" target="_top" xlink:title="../Util/DllObjectFactory.h">
<polygon fill="none" stroke="black" points="367,-224.5 367,-243.5 496,-243.5 496,-224.5 367,-224.5"/>
<text text-anchor="middle" x="431.5" y="-231.5" font-family="FreeSans" font-size="10.00">../Util/DllObjectFactory.h</text>
</a>
</g>
</g>
<!-- Node3&#45;&gt;Node4 -->
<g id="edge3" class="edge"><title>Node3&#45;&gt;Node4</title>
<path fill="none" stroke="midnightblue" d="M293.486,-280.444C321.196,-271.32 365.252,-256.813 396.116,-246.651"/>
<polygon fill="midnightblue" stroke="midnightblue" points="397.232,-249.968 405.635,-243.516 395.042,-243.32 397.232,-249.968"/>
</g>
<!-- Node16 -->
<g id="node16" class="node"><title>Node16</title>
<g id="a_node16"><a xlink:href="_viewport3_d_8h.html" target="_top" xlink:title="../VideoServices/Viewport3D.h">
<polygon fill="none" stroke="black" points="187.5,-224.5 187.5,-243.5 347.5,-243.5 347.5,-224.5 187.5,-224.5"/>
<text text-anchor="middle" x="267.5" y="-231.5" font-family="FreeSans" font-size="10.00">../VideoServices/Viewport3D.h</text>
</a>
</g>
</g>
<!-- Node3&#45;&gt;Node16 -->
<g id="edge18" class="edge"><title>Node3&#45;&gt;Node16</title>
<path fill="none" stroke="midnightblue" d="M267.5,-280.083C267.5,-273.006 267.5,-262.861 267.5,-253.986"/>
<polygon fill="midnightblue" stroke="midnightblue" points="271,-253.751 267.5,-243.751 264,-253.751 271,-253.751"/>
</g>
<!-- Node23 -->
<g id="node23" class="node"><title>Node23</title>
<g id="a_node23"><a xlink:href="_contact_effect_8h.html" target="_top" xlink:title="ContactEffect.h">
<polygon fill="none" stroke="black" points="615.5,-224.5 615.5,-243.5 705.5,-243.5 705.5,-224.5 615.5,-224.5"/>
<text text-anchor="middle" x="660.5" y="-231.5" font-family="FreeSans" font-size="10.00">ContactEffect.h</text>
</a>
</g>
</g>
<!-- Node3&#45;&gt;Node23 -->
<g id="edge29" class="edge"><title>Node3&#45;&gt;Node23</title>
<path fill="none" stroke="midnightblue" d="M313.351,-282.7C385.921,-272.728 527.002,-253.343 605.115,-242.61"/>
<polygon fill="midnightblue" stroke="midnightblue" points="605.813,-246.047 615.243,-241.218 604.86,-239.112 605.813,-246.047"/>
</g>
<!-- Node24 -->
<g id="node24" class="node"><title>Node24</title>
<g id="a_node24"><a xlink:href="_shapes_8h.html" target="_top" xlink:title="Shapes.h">
<polygon fill="none" stroke="black" points="107.5,-224.5 107.5,-243.5 169.5,-243.5 169.5,-224.5 107.5,-224.5"/>
<text text-anchor="middle" x="138.5" y="-231.5" font-family="FreeSans" font-size="10.00">Shapes.h</text>
</a>
</g>
</g>
<!-- Node3&#45;&gt;Node24 -->
<g id="edge31" class="edge"><title>Node3&#45;&gt;Node24</title>
<path fill="none" stroke="midnightblue" d="M247.06,-280.444C225.83,-271.557 192.401,-257.563 168.245,-247.451"/>
<polygon fill="midnightblue" stroke="midnightblue" points="169.421,-244.149 158.845,-243.516 166.718,-250.606 169.421,-244.149"/>
</g>
<!-- Node5 -->
<g id="node5" class="node"><title>Node5</title>
<g id="a_node5"><a xlink:href="_obj_stream_8h.html" target="_top" xlink:title="../Parcel/ObjStream.h">
<polygon fill="none" stroke="black" points="459.5,-168.5 459.5,-187.5 577.5,-187.5 577.5,-168.5 459.5,-168.5"/>
<text text-anchor="middle" x="518.5" y="-175.5" font-family="FreeSans" font-size="10.00">../Parcel/ObjStream.h</text>
</a>
</g>
</g>
<!-- Node4&#45;&gt;Node5 -->
<g id="edge4" class="edge"><title>Node4&#45;&gt;Node5</title>
<path fill="none" stroke="midnightblue" d="M445.478,-224.324C459.05,-215.9 479.88,-202.971 495.825,-193.074"/>
<polygon fill="midnightblue" stroke="midnightblue" points="497.906,-195.902 504.557,-187.655 494.214,-189.954 497.906,-195.902"/>
</g>
<!-- Node9 -->
<g id="node9" class="node"><title>Node9</title>
<g id="a_node9"><a xlink:href="_m_r___types_8h.html" target="_top" xlink:title="../Util/MR_Types.h">
<polygon fill="none" stroke="black" points="312,-56.5 312,-75.5 411,-75.5 411,-56.5 312,-56.5"/>
<text text-anchor="middle" x="361.5" y="-63.5" font-family="FreeSans" font-size="10.00">../Util/MR_Types.h</text>
</a>
</g>
</g>
<!-- Node4&#45;&gt;Node9 -->
<g id="edge17" class="edge"><title>Node4&#45;&gt;Node9</title>
<path fill="none" stroke="midnightblue" d="M429.183,-224.23C423.665,-203.925 408.753,-152.336 389.5,-112 384.892,-102.347 378.695,-92.1812 373.303,-83.9593"/>
<polygon fill="midnightblue" stroke="midnightblue" points="376.179,-81.9643 367.684,-75.6332 370.377,-85.8801 376.179,-81.9643"/>
</g>
<!-- Node6 -->
<g id="node6" class="node"><title>Node6</title>
<polygon fill="none" stroke="#bfbfbf" points="429.5,-56.5 429.5,-75.5 473.5,-75.5 473.5,-56.5 429.5,-56.5"/>
<text text-anchor="middle" x="451.5" y="-63.5" font-family="FreeSans" font-size="10.00">string</text>
</g>
<!-- Node5&#45;&gt;Node6 -->
<g id="edge5" class="edge"><title>Node5&#45;&gt;Node6</title>
<path fill="none" stroke="midnightblue" d="M514.297,-168.396C508.034,-155.769 495.677,-131.595 483.5,-112 477.555,-102.433 470.325,-92.1681 464.244,-83.8615"/>
<polygon fill="midnightblue" stroke="midnightblue" points="466.984,-81.6807 458.21,-75.7423 461.365,-85.8562 466.984,-81.6807"/>
</g>
<!-- Node7 -->
<g id="node7" class="node"><title>Node7</title>
<g id="a_node7"><a xlink:href="_exception_8h.html" target="_top" xlink:title="../Exception.h">
<polygon fill="none" stroke="black" points="630,-112.5 630,-131.5 711,-131.5 711,-112.5 630,-112.5"/>
<text text-anchor="middle" x="670.5" y="-119.5" font-family="FreeSans" font-size="10.00">../Exception.h</text>
</a>
</g>
</g>
<!-- Node5&#45;&gt;Node7 -->
<g id="edge6" class="edge"><title>Node5&#45;&gt;Node7</title>
<path fill="none" stroke="midnightblue" d="M542.585,-168.444C568.045,-159.399 608.394,-145.064 636.959,-134.916"/>
<polygon fill="midnightblue" stroke="midnightblue" points="638.277,-138.162 646.528,-131.516 635.933,-131.566 638.277,-138.162"/>
</g>
<!-- Node5&#45;&gt;Node9 -->
<g id="edge8" class="edge"><title>Node5&#45;&gt;Node9</title>
<path fill="none" stroke="midnightblue" d="M510.075,-168.279C497.035,-155.077 470.821,-129.684 445.5,-112 427.925,-99.726 406.623,-88.3488 389.868,-80.1049"/>
<polygon fill="midnightblue" stroke="midnightblue" points="391.118,-76.8223 380.591,-75.63 388.077,-83.1271 391.118,-76.8223"/>
</g>
<!-- Node11 -->
<g id="node11" class="node"><title>Node11</title>
<g id="a_node11"><a xlink:href="_o_s_8h.html" target="_top" xlink:title="../Util/OS.h">
<polygon fill="none" stroke="black" points="535.5,-112.5 535.5,-131.5 603.5,-131.5 603.5,-112.5 535.5,-112.5"/>
<text text-anchor="middle" x="569.5" y="-119.5" font-family="FreeSans" font-size="10.00">../Util/OS.h</text>
</a>
</g>
</g>
<!-- Node5&#45;&gt;Node11 -->
<g id="edge10" class="edge"><title>Node5&#45;&gt;Node11</title>
<path fill="none" stroke="midnightblue" d="M526.922,-168.083C534.348,-160.22 545.352,-148.569 554.312,-139.081"/>
<polygon fill="midnightblue" stroke="midnightblue" points="556.913,-141.424 561.235,-131.751 551.824,-136.618 556.913,-141.424"/>
</g>
<!-- Node8 -->
<g id="node8" class="node"><title>Node8</title>
<polygon fill="none" stroke="#bfbfbf" points="803,-56.5 803,-75.5 866,-75.5 866,-56.5 803,-56.5"/>
<text text-anchor="middle" x="834.5" y="-63.5" font-family="FreeSans" font-size="10.00">exception</text>
</g>
<!-- Node7&#45;&gt;Node8 -->
<g id="edge7" class="edge"><title>Node7&#45;&gt;Node8</title>
<path fill="none" stroke="midnightblue" d="M696.486,-112.444C724.196,-103.32 768.252,-88.8133 799.116,-78.6509"/>
<polygon fill="midnightblue" stroke="midnightblue" points="800.232,-81.9684 808.635,-75.5164 798.042,-75.3196 800.232,-81.9684"/>
</g>
<!-- Node10 -->
<g id="node10" class="node"><title>Node10</title>
<polygon fill="none" stroke="#bfbfbf" points="329.5,-0.5 329.5,-19.5 393.5,-19.5 393.5,-0.5 329.5,-0.5"/>
<text text-anchor="middle" x="361.5" y="-7.5" font-family="FreeSans" font-size="10.00">inttypes.h</text>
</g>
<!-- Node9&#45;&gt;Node10 -->
<g id="edge9" class="edge"><title>Node9&#45;&gt;Node10</title>
<path fill="none" stroke="midnightblue" d="M361.5,-56.083C361.5,-49.0059 361.5,-38.8611 361.5,-29.9865"/>
<polygon fill="midnightblue" stroke="midnightblue" points="365,-29.751 361.5,-19.7511 358,-29.7511 365,-29.751"/>
</g>
<!-- Node11&#45;&gt;Node6 -->
<g id="edge13" class="edge"><title>Node11&#45;&gt;Node6</title>
<path fill="none" stroke="midnightblue" d="M550.803,-112.444C531.556,-103.636 501.348,-89.8116 479.3,-79.722"/>
<polygon fill="midnightblue" stroke="midnightblue" points="480.66,-76.4951 470.11,-75.5164 477.747,-82.8603 480.66,-76.4951"/>
</g>
<!-- Node11&#45;&gt;Node9 -->
<g id="edge16" class="edge"><title>Node11&#45;&gt;Node9</title>
<path fill="none" stroke="midnightblue" d="M536.542,-112.444C500.713,-103.142 443.337,-88.246 404.109,-78.062"/>
<polygon fill="midnightblue" stroke="midnightblue" points="404.863,-74.6417 394.304,-75.5164 403.104,-81.4171 404.863,-74.6417"/>
</g>
<!-- Node12 -->
<g id="node12" class="node"><title>Node12</title>
<polygon fill="none" stroke="#bfbfbf" points="491.5,-56.5 491.5,-75.5 535.5,-75.5 535.5,-56.5 491.5,-56.5"/>
<text text-anchor="middle" x="513.5" y="-63.5" font-family="FreeSans" font-size="10.00">locale</text>
</g>
<!-- Node11&#45;&gt;Node12 -->
<g id="edge11" class="edge"><title>Node11&#45;&gt;Node12</title>
<path fill="none" stroke="midnightblue" d="M560.503,-112.324C552.306,-104.42 539.994,-92.5482 530.028,-82.9377"/>
<polygon fill="midnightblue" stroke="midnightblue" points="532.289,-80.2558 522.661,-75.8339 527.43,-85.2947 532.289,-80.2558"/>
</g>
<!-- Node13 -->
<g id="node13" class="node"><title>Node13</title>
<polygon fill="none" stroke="#bfbfbf" points="553.5,-56.5 553.5,-75.5 585.5,-75.5 585.5,-56.5 553.5,-56.5"/>
<text text-anchor="middle" x="569.5" y="-63.5" font-family="FreeSans" font-size="10.00">set</text>
</g>
<!-- Node11&#45;&gt;Node13 -->
<g id="edge12" class="edge"><title>Node11&#45;&gt;Node13</title>
<path fill="none" stroke="midnightblue" d="M569.5,-112.083C569.5,-105.006 569.5,-94.8611 569.5,-85.9865"/>
<polygon fill="midnightblue" stroke="midnightblue" points="573,-85.751 569.5,-75.7511 566,-85.7511 573,-85.751"/>
</g>
<!-- Node14 -->
<g id="node14" class="node"><title>Node14</title>
<polygon fill="none" stroke="#bfbfbf" points="738,-56.5 738,-75.5 785,-75.5 785,-56.5 738,-56.5"/>
<text text-anchor="middle" x="761.5" y="-63.5" font-family="FreeSans" font-size="10.00">vector</text>
</g>
<!-- Node11&#45;&gt;Node14 -->
<g id="edge14" class="edge"><title>Node11&#45;&gt;Node14</title>
<path fill="none" stroke="midnightblue" d="M599.923,-112.444C634.762,-102.645 691.672,-86.6391 727.821,-76.4723"/>
<polygon fill="midnightblue" stroke="midnightblue" points="729.198,-79.7207 737.877,-73.6439 727.303,-72.9821 729.198,-79.7207"/>
</g>
<!-- Node15 -->
<g id="node15" class="node"><title>Node15</title>
<polygon fill="none" stroke="#bfbfbf" points="603.5,-56.5 603.5,-75.5 719.5,-75.5 719.5,-56.5 603.5,-56.5"/>
<text text-anchor="middle" x="661.5" y="-63.5" font-family="FreeSans" font-size="10.00">boost/filesystem.hpp</text>
</g>
<!-- Node11&#45;&gt;Node15 -->
<g id="edge15" class="edge"><title>Node11&#45;&gt;Node15</title>
<path fill="none" stroke="midnightblue" d="M584.281,-112.324C598.767,-103.822 621.073,-90.7288 637.993,-80.7975"/>
<polygon fill="midnightblue" stroke="midnightblue" points="639.903,-83.735 646.755,-75.6545 636.359,-77.6981 639.903,-83.735"/>
</g>
<!-- Node17 -->
<g id="node17" class="node"><title>Node17</title>
<g id="a_node17"><a xlink:href="_viewport2_d_8h.html" target="_top" xlink:title="Viewport2D.h">
<polygon fill="none" stroke="black" points="155.5,-112.5 155.5,-131.5 235.5,-131.5 235.5,-112.5 155.5,-112.5"/>
<text text-anchor="middle" x="195.5" y="-119.5" font-family="FreeSans" font-size="10.00">Viewport2D.h</text>
</a>
</g>
</g>
<!-- Node16&#45;&gt;Node17 -->
<g id="edge19" class="edge"><title>Node16&#45;&gt;Node17</title>
<path fill="none" stroke="midnightblue" d="M253.959,-224.186C242.473,-216.061 226.338,-203.012 216.5,-188 207.257,-173.897 201.803,-155.408 198.781,-141.756"/>
<polygon fill="midnightblue" stroke="midnightblue" points="202.152,-140.763 196.784,-131.629 195.285,-142.117 202.152,-140.763"/>
</g>
<!-- Node18 -->
<g id="node18" class="node"><title>Node18</title>
<g id="a_node18"><a xlink:href="_color_palette_8h.html" target="_top" xlink:title="ColorPalette.h">
<polygon fill="none" stroke="black" points="226,-168.5 226,-187.5 309,-187.5 309,-168.5 226,-168.5"/>
<text text-anchor="middle" x="267.5" y="-175.5" font-family="FreeSans" font-size="10.00">ColorPalette.h</text>
</a>
</g>
</g>
<!-- Node16&#45;&gt;Node18 -->
<g id="edge21" class="edge"><title>Node16&#45;&gt;Node18</title>
<path fill="none" stroke="midnightblue" d="M267.5,-224.083C267.5,-217.006 267.5,-206.861 267.5,-197.986"/>
<polygon fill="midnightblue" stroke="midnightblue" points="271,-197.751 267.5,-187.751 264,-197.751 271,-197.751"/>
</g>
<!-- Node20 -->
<g id="node20" class="node"><title>Node20</title>
<g id="a_node20"><a xlink:href="_bitmap_8h.html" target="_top" xlink:title="Bitmap.h">
<polygon fill="none" stroke="black" points="336.5,-168.5 336.5,-187.5 396.5,-187.5 396.5,-168.5 336.5,-168.5"/>
<text text-anchor="middle" x="366.5" y="-175.5" font-family="FreeSans" font-size="10.00">Bitmap.h</text>
</a>
</g>
</g>
<!-- Node16&#45;&gt;Node20 -->
<g id="edge24" class="edge"><title>Node16&#45;&gt;Node20</title>
<path fill="none" stroke="midnightblue" d="M283.406,-224.324C299.138,-215.743 323.442,-202.486 341.709,-192.522"/>
<polygon fill="midnightblue" stroke="midnightblue" points="343.53,-195.516 350.633,-187.655 340.178,-189.37 343.53,-195.516"/>
</g>
<!-- Node21 -->
<g id="node21" class="node"><title>Node21</title>
<g id="a_node21"><a xlink:href="_patch_8h.html" target="_top" xlink:title="Patch.h">
<polygon fill="none" stroke="black" points="111.5,-168.5 111.5,-187.5 163.5,-187.5 163.5,-168.5 111.5,-168.5"/>
<text text-anchor="middle" x="137.5" y="-175.5" font-family="FreeSans" font-size="10.00">Patch.h</text>
</a>
</g>
</g>
<!-- Node16&#45;&gt;Node21 -->
<g id="edge26" class="edge"><title>Node16&#45;&gt;Node21</title>
<path fill="none" stroke="midnightblue" d="M246.901,-224.444C225.507,-215.557 191.819,-201.563 167.476,-191.451"/>
<polygon fill="midnightblue" stroke="midnightblue" points="168.58,-188.12 158.003,-187.516 165.895,-194.585 168.58,-188.12"/>
</g>
<!-- Node17&#45;&gt;Node9 -->
<g id="edge20" class="edge"><title>Node17&#45;&gt;Node9</title>
<path fill="none" stroke="midnightblue" d="M221.803,-112.444C249.851,-103.32 294.444,-88.8133 325.684,-78.6509"/>
<polygon fill="midnightblue" stroke="midnightblue" points="326.893,-81.9383 335.32,-75.5164 324.728,-75.2816 326.893,-81.9383"/>
</g>
<!-- Node18&#45;&gt;Node9 -->
<g id="edge23" class="edge"><title>Node18&#45;&gt;Node9</title>
<path fill="none" stroke="midnightblue" d="M267.381,-168.085C267.642,-154.628 269.914,-128.908 282.5,-112 293.349,-97.4255 310.414,-86.8596 325.912,-79.6441"/>
<polygon fill="midnightblue" stroke="midnightblue" points="327.506,-82.7675 335.289,-75.5784 324.722,-76.3452 327.506,-82.7675"/>
</g>
<!-- Node19 -->
<g id="node19" class="node"><title>Node19</title>
<polygon fill="none" stroke="#bfbfbf" points="291.5,-112.5 291.5,-131.5 365.5,-131.5 365.5,-112.5 291.5,-112.5"/>
<text text-anchor="middle" x="328.5" y="-119.5" font-family="FreeSans" font-size="10.00">SDL2/SDL.h</text>
</g>
<!-- Node18&#45;&gt;Node19 -->
<g id="edge22" class="edge"><title>Node18&#45;&gt;Node19</title>
<path fill="none" stroke="midnightblue" d="M277.301,-168.324C286.318,-160.341 299.906,-148.313 310.818,-138.653"/>
<polygon fill="midnightblue" stroke="midnightblue" points="313.353,-141.083 318.521,-131.834 308.713,-135.842 313.353,-141.083"/>
</g>
<!-- Node20&#45;&gt;Node9 -->
<g id="edge25" class="edge"><title>Node20&#45;&gt;Node9</title>
<path fill="none" stroke="midnightblue" d="M369.065,-168.155C372.361,-155.636 377.336,-132.039 374.5,-112 373.232,-103.042 370.611,-93.372 368.052,-85.2998"/>
<polygon fill="midnightblue" stroke="midnightblue" points="371.361,-84.1569 364.844,-75.8034 364.729,-86.3976 371.361,-84.1569"/>
</g>
<!-- Node22 -->
<g id="node22" class="node"><title>Node22</title>
<g id="a_node22"><a xlink:href="_world_coordinates_8h.html" target="_top" xlink:title="../Util/WorldCoordinates.h">
<polygon fill="none" stroke="black" points="0,-112.5 0,-131.5 137,-131.5 137,-112.5 0,-112.5"/>
<text text-anchor="middle" x="68.5" y="-119.5" font-family="FreeSans" font-size="10.00">../Util/WorldCoordinates.h</text>
</a>
</g>
</g>
<!-- Node21&#45;&gt;Node22 -->
<g id="edge27" class="edge"><title>Node21&#45;&gt;Node22</title>
<path fill="none" stroke="midnightblue" d="M126.414,-168.324C116.014,-160.185 100.239,-147.839 87.7784,-138.087"/>
<polygon fill="midnightblue" stroke="midnightblue" points="89.8199,-135.241 79.7878,-131.834 85.5057,-140.753 89.8199,-135.241"/>
</g>
<!-- Node22&#45;&gt;Node9 -->
<g id="edge28" class="edge"><title>Node22&#45;&gt;Node9</title>
<path fill="none" stroke="midnightblue" d="M114.927,-112.444C166.576,-102.925 250.012,-87.5472 305.307,-77.3563"/>
<polygon fill="midnightblue" stroke="midnightblue" points="306.091,-80.771 315.29,-75.5164 304.822,-73.887 306.091,-80.771"/>
</g>
<!-- Node23&#45;&gt;Node14 -->
<g id="edge30" class="edge"><title>Node23&#45;&gt;Node14</title>
<path fill="none" stroke="midnightblue" d="M665.93,-224.075C682.035,-197.606 729.734,-119.209 751.029,-84.2097"/>
<polygon fill="midnightblue" stroke="midnightblue" points="754.079,-85.9304 756.287,-75.5681 748.099,-82.2918 754.079,-85.9304"/>
</g>
<!-- Node24&#45;&gt;Node22 -->
<g id="edge32" class="edge"><title>Node24&#45;&gt;Node22</title>
<path fill="none" stroke="midnightblue" d="M130.801,-224.417C123.125,-215.631 111.25,-201.404 102.5,-188 92.5145,-172.704 83.0449,-154.142 76.6479,-140.777"/>
<polygon fill="midnightblue" stroke="midnightblue" points="79.8109,-139.278 72.3973,-131.709 73.4727,-142.25 79.8109,-139.278"/>
</g>
<!-- Node25&#45;&gt;Node24 -->
<g id="edge34" class="edge"><title>Node25&#45;&gt;Node24</title>
<path fill="none" stroke="midnightblue" d="M145.179,-280.083C144.119,-272.927 142.594,-262.635 141.269,-253.691"/>
<polygon fill="midnightblue" stroke="midnightblue" points="144.724,-253.13 139.796,-243.751 137.8,-254.156 144.724,-253.13"/>
</g>
</g>
</svg>
        <g id="navigator" transform="translate(0 0)" fill="#404254">
                <rect fill="#f2f5e9" fill-opacity="0.5" stroke="#606060" stroke-width=".5" x="0" y="0" width="60" height="60"/>
                <use id="zoomplus" xlink:href="#zoomPlus" x="17" y="9" onmousedown="handleZoom(evt,'in')"/>
                <use id="zoomminus" xlink:href="#zoomMin" x="42" y="9" onmousedown="handleZoom(evt,'out')"/>
                <use id="reset" xlink:href="#resetDef" x="30" y="36" onmousedown="handleReset()"/>
                <g id="arrowUp" xlink:href="#dirArrow" transform="translate(30 24)" onmousedown="handlePan(0,-1)">
                  <use xlink:href="#rim" fill="#404040">
                        <set attributeName="fill" to="#808080" begin="arrowUp.mouseover" end="arrowUp.mouseout"/>
                  </use>
                  <path fill="none" stroke="white" stroke-width="1.5" d="M0,-3.0v7 M-2.5,-0.5L0,-3.0L2.5,-0.5"/>
                </g>
                <g id="arrowRight" xlink:href="#dirArrow" transform="rotate(90) translate(36 -43)" onmousedown="handlePan(1,0)">
                  <use xlink:href="#rim" fill="#404040">
                        <set attributeName="fill" to="#808080" begin="arrowRight.mouseover" end="arrowRight.mouseout"/>
                  </use>
                  <path fill="none" stroke="white" stroke-width="1.5" d="M0,-3.0v7 M-2.5,-0.5L0,-3.0L2.5,-0.5"/>
                </g>
                <g id="arrowDown" xlink:href="#dirArrow" transform="rotate(180) translate(-30 -48)" onmousedown="handlePan(0,1)">
                  <use xlink:href="#rim" fill="#404040">
                        <set attributeName="fill" to="#808080" begin="arrowDown.mouseover" end="arrowDown.mouseout"/>
                  </use>
                  <path fill="none" stroke="white" stroke-width="1.5" d="M0,-3.0v7 M-2.5,-0.5L0,-3.0L2.5,-0.5"/>
                </g>
                <g id="arrowLeft" xlink:href="#dirArrow" transform="rotate(270) translate(-36 17)" onmousedown="handlePan(-1,0)">
                  <use xlink:href="#rim" fill="#404040">
                        <set attributeName="fill" to="#808080" begin="arrowLeft.mouseover" end="arrowLeft.mouseout"/>
                  </use>
                  <path fill="none" stroke="white" stroke-width="1.5" d="M0,-3.0v7 M-2.5,-0.5L0,-3.0L2.5,-0.5"/>
                </g>
        </g>
        <svg viewBox="0 0 15 15" width="100%" height="30px" preserveAspectRatio="xMaxYMin meet">
         <g id="arrow_out" transform="scale(0.3 0.3)">
          <a xlink:href="_obstacle_collision_report_8h__incl_org.svg" target="_base">
           <rect id="button" ry="5" rx="5" y="6" x="6" height="38" width="38"
                fill="#f2f5e9" fill-opacity="0.5" stroke="#606060" stroke-width="1.0"/>
           <path id="arrow"
             d="M 11.500037,31.436501 C 11.940474,20.09759 22.043105,11.32322 32.158766,21.979434 L 37.068811,17.246167 C 37.068811,17.246167 37.088388,32 37.088388,32 L 22.160133,31.978069 C 22.160133,31.978069 26.997745,27.140456 26.997745,27.140456 C 18.528582,18.264221 13.291696,25.230495 11.500037,31.436501 z"
             style="fill:#404040;"/>
          </a>
         </g>
        </svg>
</svg>
