<?xml version="1.0" encoding="UTF-8" standalone="no"?>
<!DOCTYPE svg PUBLIC "-//W3C//DTD SVG 1.1//EN"
 "http://www.w3.org/Graphics/SVG/1.1/DTD/svg11.dtd">
<!-- Generated by graphviz version 2.26.3 (20100126.1600)
 -->
<!-- Title: Observer.h Pages: 1 -->
<!--zoomable 146 -->
<svg id="main" version="1.1" xmlns="http://www.w3.org/2000/svg" xmlns:xlink="http://www.w3.org/1999/xlink" xml:space="preserve" onload="init(evt)">
        <defs>
                <circle id="rim" cx="0" cy="0" r="7"/>
                <circle id="rim2" cx="0" cy="0" r="3.5"/>
                <g id="zoomPlus">
                        <use xlink:href="#rim" fill="#404040">
                                <set attributeName="fill" to="#808080" begin="zoomplus.mouseover" end="zoomplus.mouseout"/>
                        </use>
                        <path d="M-4,0h8M0,-4v8" fill="none" stroke="white" stroke-width="1.5" pointer-events="none"/>
                </g>
                <g id="zoomMin">
                        <use xlink:href="#rim" fill="#404040">
                                <set attributeName="fill" to="#808080" begin="zoomminus.mouseover" end="zoomminus.mouseout"/>
                        </use>
                        <path d="M-4,0h8" fill="none" stroke="white" stroke-width="1.5" pointer-events="none"/>
                </g>
                <g id="dirArrow">
                        <path fill="none" stroke="white" stroke-width="1.5" d="M0,-3.0v7 M-2.5,-0.5L0,-3.0L2.5,-0.5"/>
                </g>
               <g id="resetDef">
                       <use xlink:href="#rim2" fill="#404040">
                               <set attributeName="fill" to="#808080" begin="reset.mouseover" end="reset.mouseout"/>
                       </use>
               </g>
        </defs>

<script type="text/javascript">
var viewWidth = 562;
var viewHeight = 146;
var sectionId = 'dynsection-1';
</script>
<script xlink:href="svgpan.js"/>
<svg id="graph" class="graph">
<g id="viewport">
<title>Observer.h</title>
<!-- Node1 -->
<g id="node1" class="node"><title>Node1</title>
<polygon fill="#bfbfbf" stroke="black" points="238,-117 238,-137 302,-137 302,-117 238,-117"/>
<text text-anchor="middle" x="270" y="-124" font-family="FreeSans" font-size="10.00">Observer.h</text>
</g>
<!-- Node2 -->
<g id="node3" class="node"><title>Node2</title>
<a xlink:href="_game_scene_8h.html" target="_top" xlink:title="GameScene.h">
<polygon fill="none" stroke="black" points="99,-59 99,-79 177,-79 177,-59 99,-59"/>
<text text-anchor="middle" x="138" y="-66" font-family="FreeSans" font-size="10.00">GameScene.h</text>
</a>
</g>
<!-- Node1&#45;&gt;Node2 -->
<g id="edge2" class="edge"><title>Node1&#45;&gt;Node2</title>
<path fill="none" stroke="midnightblue" d="M237.712,-112.813C214.016,-102.401 182.395,-88.5069 161.172,-79.1817"/>
<polygon fill="midnightblue" stroke="midnightblue" points="236.444,-116.079 247.007,-116.897 239.26,-109.67 236.444,-116.079"/>
</g>
<!-- Node5 -->
<g id="node9" class="node"><title>Node5</title>
<a xlink:href="_client_app_8h.html" target="_top" xlink:title="ClientApp.h">
<polygon fill="none" stroke="black" points="195,-59 195,-79 261,-79 261,-59 195,-59"/>
<text text-anchor="middle" x="228" y="-66" font-family="FreeSans" font-size="10.00">ClientApp.h</text>
</a>
</g>
<!-- Node1&#45;&gt;Node5 -->
<g id="edge8" class="edge"><title>Node1&#45;&gt;Node5</title>
<path fill="none" stroke="midnightblue" d="M256.738,-108.686C249.736,-99.0169 241.401,-87.5059 235.515,-79.3776"/>
<polygon fill="midnightblue" stroke="midnightblue" points="253.984,-110.851 262.684,-116.897 259.654,-106.745 253.984,-110.851"/>
</g>
<!-- Node7 -->
<g id="node14" class="node"><title>Node7</title>
<a xlink:href="_game_app_8h.html" target="_top" xlink:title="GameApp.h">
<polygon fill="none" stroke="black" points="279,-59 279,-79 347,-79 347,-59 279,-59"/>
<text text-anchor="middle" x="313" y="-66" font-family="FreeSans" font-size="10.00">GameApp.h</text>
</a>
</g>
<!-- Node1&#45;&gt;Node7 -->
<g id="edge14" class="edge"><title>Node1&#45;&gt;Node7</title>
<path fill="none" stroke="midnightblue" d="M283.578,-108.686C290.746,-99.0169 299.28,-87.5059 305.306,-79.3776"/>
<polygon fill="midnightblue" stroke="midnightblue" points="280.634,-106.78 277.49,-116.897 286.257,-110.949 280.634,-106.78"/>
</g>
<!-- Node11 -->
<g id="node22" class="node"><title>Node11</title>
<a xlink:href="_observer_8cpp.html" target="_top" xlink:title="Observer.cpp">
<polygon fill="none" stroke="black" points="365,-59 365,-79 439,-79 439,-59 365,-59"/>
<text text-anchor="middle" x="402" y="-66" font-family="FreeSans" font-size="10.00">Observer.cpp</text>
</a>
</g>
<!-- Node1&#45;&gt;Node11 -->
<g id="edge22" class="edge"><title>Node1&#45;&gt;Node11</title>
<path fill="none" stroke="midnightblue" d="M302.288,-112.813C325.984,-102.401 357.605,-88.5069 378.828,-79.1817"/>
<polygon fill="midnightblue" stroke="midnightblue" points="300.74,-109.67 292.993,-116.897 303.556,-116.079 300.74,-109.67"/>
</g>
<!-- Node3 -->
<g id="node5" class="node"><title>Node3</title>
<a xlink:href="_client_app_8cpp.html" target="_top" xlink:title="ClientApp.cpp">
<polygon fill="none" stroke="black" points="105.5,-1 105.5,-21 182.5,-21 182.5,-1 105.5,-1"/>
<text text-anchor="middle" x="144" y="-8" font-family="FreeSans" font-size="10.00">ClientApp.cpp</text>
</a>
</g>
<!-- Node2&#45;&gt;Node3 -->
<g id="edge4" class="edge"><title>Node2&#45;&gt;Node3</title>
<path fill="none" stroke="midnightblue" d="M140.08,-48.8902C141.039,-39.6201 142.137,-29.0083 142.926,-21.3776"/>
<polygon fill="midnightblue" stroke="midnightblue" points="136.593,-48.5901 139.045,-58.8972 143.556,-49.3104 136.593,-48.5901"/>
</g>
<!-- Node4 -->
<g id="node7" class="node"><title>Node4</title>
<a xlink:href="_game_scene_8cpp.html" target="_top" xlink:title="GameScene.cpp">
<polygon fill="none" stroke="black" points="-0.5,-1 -0.5,-21 88.5,-21 88.5,-1 -0.5,-1"/>
<text text-anchor="middle" x="44" y="-8" font-family="FreeSans" font-size="10.00">GameScene.cpp</text>
</a>
</g>
<!-- Node2&#45;&gt;Node4 -->
<g id="edge6" class="edge"><title>Node2&#45;&gt;Node4</title>
<path fill="none" stroke="midnightblue" d="M112.956,-53.5474C96.3433,-43.2969 75.01,-30.1339 60.5013,-21.1817"/>
<polygon fill="midnightblue" stroke="midnightblue" points="111.278,-56.6247 121.626,-58.8972 114.954,-50.6674 111.278,-56.6247"/>
</g>
<!-- Node5&#45;&gt;Node3 -->
<g id="edge10" class="edge"><title>Node5&#45;&gt;Node3</title>
<path fill="none" stroke="midnightblue" d="M204.791,-52.975C190.071,-42.8109 171.471,-29.9681 158.746,-21.1817"/>
<polygon fill="midnightblue" stroke="midnightblue" points="203.151,-56.0954 213.368,-58.8972 207.128,-50.3351 203.151,-56.0954"/>
</g>
<!-- Node6 -->
<g id="node12" class="node"><title>Node6</title>
<a xlink:href="main_8cpp.html" target="_top" xlink:title="main.cpp">
<polygon fill="none" stroke="black" points="200,-1 200,-21 256,-21 256,-1 200,-1"/>
<text text-anchor="middle" x="228" y="-8" font-family="FreeSans" font-size="10.00">main.cpp</text>
</a>
</g>
<!-- Node5&#45;&gt;Node6 -->
<g id="edge12" class="edge"><title>Node5&#45;&gt;Node6</title>
<path fill="none" stroke="midnightblue" d="M228,-48.8902C228,-39.6201 228,-29.0083 228,-21.3776"/>
<polygon fill="midnightblue" stroke="midnightblue" points="224.5,-48.8971 228,-58.8972 231.5,-48.8972 224.5,-48.8971"/>
</g>
<!-- Node8 -->
<g id="node16" class="node"><title>Node8</title>
<a xlink:href="_game_app_8cpp.html" target="_top" xlink:title="GameApp.cpp">
<polygon fill="none" stroke="black" points="274,-1 274,-21 352,-21 352,-1 274,-1"/>
<text text-anchor="middle" x="313" y="-8" font-family="FreeSans" font-size="10.00">GameApp.cpp</text>
</a>
</g>
<!-- Node7&#45;&gt;Node8 -->
<g id="edge16" class="edge"><title>Node7&#45;&gt;Node8</title>
<path fill="none" stroke="midnightblue" d="M313,-48.8902C313,-39.6201 313,-29.0083 313,-21.3776"/>
<polygon fill="midnightblue" stroke="midnightblue" points="309.5,-48.8971 313,-58.8972 316.5,-48.8972 309.5,-48.8971"/>
</g>
<!-- Node9 -->
<g id="node18" class="node"><title>Node9</title>
<a xlink:href="_gif_decoder_8cpp.html" target="_top" xlink:title="GifDecoder.cpp">
<polygon fill="none" stroke="black" points="369.5,-1 369.5,-21 452.5,-21 452.5,-1 369.5,-1"/>
<text text-anchor="middle" x="411" y="-8" font-family="FreeSans" font-size="10.00">GifDecoder.cpp</text>
</a>
</g>
<!-- Node7&#45;&gt;Node9 -->
<g id="edge18" class="edge"><title>Node7&#45;&gt;Node9</title>
<path fill="none" stroke="midnightblue" d="M339.11,-53.5474C356.429,-43.2969 378.67,-30.1339 393.797,-21.1817"/>
<polygon fill="midnightblue" stroke="midnightblue" points="336.893,-50.7919 330.07,-58.8972 340.459,-56.8159 336.893,-50.7919"/>
</g>
<!-- Node10 -->
<g id="node20" class="node"><title>Node10</title>
<a xlink:href="_prefs_dialog_8cpp.html" target="_top" xlink:title="PrefsDialog.cpp">
<polygon fill="none" stroke="black" points="469.5,-1 469.5,-21 554.5,-21 554.5,-1 469.5,-1"/>
<text text-anchor="middle" x="512" y="-8" font-family="FreeSans" font-size="10.00">PrefsDialog.cpp</text>
</a>
</g>
<!-- Node7&#45;&gt;Node10 -->
<g id="edge20" class="edge"><title>Node7&#45;&gt;Node10</title>
<path fill="none" stroke="midnightblue" d="M357.044,-56.1631C393.367,-45.5765 444.177,-30.7674 477.571,-21.0345"/>
<polygon fill="midnightblue" stroke="midnightblue" points="355.83,-52.871 347.209,-59.0294 357.789,-59.5914 355.83,-52.871"/>
</g>
</g>
</svg>
        <g id="navigator" transform="translate(0 0)" fill="#404254">
                <rect fill="#f2f5e9" fill-opacity="0.5" stroke="#606060" stroke-width=".5" x="0" y="0" width="60" height="60"/>
                <use id="zoomplus" xlink:href="#zoomPlus" x="17" y="9" onmousedown="handleZoom(evt,'in')"/>
                <use id="zoomminus" xlink:href="#zoomMin" x="42" y="9" onmousedown="handleZoom(evt,'out')"/>
                <use id="reset" xlink:href="#resetDef" x="30" y="36" onmousedown="handleReset()"/>
                <g id="arrowUp" xlink:href="#dirArrow" transform="translate(30 24)" onmousedown="handlePan(0,-1)">
                  <use xlink:href="#rim" fill="#404040">
                        <set attributeName="fill" to="#808080" begin="arrowUp.mouseover" end="arrowUp.mouseout"/>
                  </use>
                  <path fill="none" stroke="white" stroke-width="1.5" d="M0,-3.0v7 M-2.5,-0.5L0,-3.0L2.5,-0.5"/>
                </g>
                <g id="arrowRight" xlink:href="#dirArrow" transform="rotate(90) translate(36 -43)" onmousedown="handlePan(1,0)">
                  <use xlink:href="#rim" fill="#404040">
                        <set attributeName="fill" to="#808080" begin="arrowRight.mouseover" end="arrowRight.mouseout"/>
                  </use>
                  <path fill="none" stroke="white" stroke-width="1.5" d="M0,-3.0v7 M-2.5,-0.5L0,-3.0L2.5,-0.5"/>
                </g>
                <g id="arrowDown" xlink:href="#dirArrow" transform="rotate(180) translate(-30 -48)" onmousedown="handlePan(0,1)">
                  <use xlink:href="#rim" fill="#404040">
                        <set attributeName="fill" to="#808080" begin="arrowDown.mouseover" end="arrowDown.mouseout"/>
                  </use>
                  <path fill="none" stroke="white" stroke-width="1.5" d="M0,-3.0v7 M-2.5,-0.5L0,-3.0L2.5,-0.5"/>
                </g>
                <g id="arrowLeft" xlink:href="#dirArrow" transform="rotate(270) translate(-36 17)" onmousedown="handlePan(-1,0)">
                  <use xlink:href="#rim" fill="#404040">
                        <set attributeName="fill" to="#808080" begin="arrowLeft.mouseover" end="arrowLeft.mouseout"/>
                  </use>
                  <path fill="none" stroke="white" stroke-width="1.5" d="M0,-3.0v7 M-2.5,-0.5L0,-3.0L2.5,-0.5"/>
                </g>
        </g>
        <svg viewBox="0 0 15 15" width="100%" height="30px" preserveAspectRatio="xMaxYMin meet">
         <g id="arrow_out" transform="scale(0.3 0.3)">
          <a xlink:href="_observer_8h__dep__incl_org.svg" target="_base">
           <rect id="button" ry="5" rx="5" y="6" x="6" height="38" width="38"
                fill="#f2f5e9" fill-opacity="0.5" stroke="#606060" stroke-width="1.0"/>
           <path id="arrow"
             d="M 11.500037,31.436501 C 11.940474,20.09759 22.043105,11.32322 32.158766,21.979434 L 37.068811,17.246167 C 37.068811,17.246167 37.088388,32 37.088388,32 L 22.160133,31.978069 C 22.160133,31.978069 26.997745,27.140456 26.997745,27.140456 C 18.528582,18.264221 13.291696,25.230495 11.500037,31.436501 z"
             style="fill:#404040;"/>
          </a>
         </g>
        </svg>
</svg>
