<?xml version="1.0" encoding="UTF-8" standalone="no"?>
<!DOCTYPE svg PUBLIC "-//W3C//DTD SVG 1.1//EN"
 "http://www.w3.org/Graphics/SVG/1.1/DTD/svg11.dtd">
<!-- Generated by graphviz version 2.26.3 (20100126.1600)
 -->
<!-- Title: PaletteScene.cpp Pages: 1 -->
<svg width="1661pt" height="484pt"
 viewBox="0.00 0.00 1661.42 484.00" xmlns="http://www.w3.org/2000/svg" xmlns:xlink="http://www.w3.org/1999/xlink">
<g id="graph1" class="graph" transform="scale(1 1) rotate(0) translate(4 480)">
<title>PaletteScene.cpp</title>
<!-- Node1 -->
<g id="node1" class="node"><title>Node1</title>
<polygon fill="#bfbfbf" stroke="black" points="1015.92,-455 1015.92,-475 1108.92,-475 1108.92,-455 1015.92,-455"/>
<text text-anchor="middle" x="1062.42" y="-462" font-family="FreeSans" font-size="10.00">PaletteScene.cpp</text>
</g>
<!-- Node2 -->
<g id="node3" class="node"><title>Node2</title>
<polygon fill="none" stroke="#bfbfbf" points="181.919,-391 181.919,-411 234.919,-411 234.919,-391 181.919,-391"/>
<text text-anchor="middle" x="208.419" y="-398" font-family="FreeSans" font-size="10.00">StdAfx.h</text>
</g>
<!-- Node1&#45;&gt;Node2 -->
<g id="edge2" class="edge"><title>Node1&#45;&gt;Node2</title>
<path fill="none" stroke="midnightblue" d="M1015.69,-464.723C864.672,-463.452 390.978,-456.424 243.419,-418 240.6,-417.266 237.737,-416.297 234.926,-415.192"/>
<polygon fill="midnightblue" stroke="midnightblue" points="236.26,-411.955 225.702,-411.063 233.399,-418.344 236.26,-411.955"/>
</g>
<!-- Node3 -->
<g id="node5" class="node"><title>Node3</title>
<a xlink:href="_controller_8h.html" target="_top" xlink:title="../../engine/Control\l/Controller.h">
<polygon fill="none" stroke="black" points="967.419,-315 967.419,-347 1061.42,-347 1061.42,-315 967.419,-315"/>
<text text-anchor="start" x="975.419" y="-334" font-family="FreeSans" font-size="10.00">../../engine/Control</text>
<text text-anchor="middle" x="1014.42" y="-322" font-family="FreeSans" font-size="10.00">/Controller.h</text>
</a>
</g>
<!-- Node1&#45;&gt;Node3 -->
<g id="edge4" class="edge"><title>Node1&#45;&gt;Node3</title>
<path fill="none" stroke="midnightblue" d="M1056.15,-454.873C1050.61,-445.568 1042.61,-431.251 1037.42,-418 1029.63,-398.126 1023.6,-374.682 1019.67,-357.141"/>
<polygon fill="midnightblue" stroke="midnightblue" points="1023.03,-356.105 1017.5,-347.066 1016.19,-357.579 1023.03,-356.105"/>
</g>
<!-- Node14 -->
<g id="node29" class="node"><title>Node14</title>
<a xlink:href="_display_8h.html" target="_top" xlink:title="../../engine/Display\l/Display.h">
<polygon fill="none" stroke="black" points="395.919,-175 395.919,-207 490.919,-207 490.919,-175 395.919,-175"/>
<text text-anchor="start" x="403.919" y="-194" font-family="FreeSans" font-size="10.00">../../engine/Display</text>
<text text-anchor="middle" x="443.419" y="-182" font-family="FreeSans" font-size="10.00">/Display.h</text>
</a>
</g>
<!-- Node1&#45;&gt;Node14 -->
<g id="edge30" class="edge"><title>Node1&#45;&gt;Node14</title>
<path fill="none" stroke="midnightblue" d="M1039.65,-454.923C948.99,-414.791 612.553,-265.867 489.165,-211.25"/>
<polygon fill="midnightblue" stroke="midnightblue" points="490.525,-208.024 479.964,-207.177 487.691,-214.425 490.525,-208.024"/>
</g>
<!-- Node19 -->
<g id="node40" class="node"><title>Node19</title>
<a xlink:href="_label_8h.html" target="_top" xlink:title="../../engine/Display\l/Label.h">
<polygon fill="none" stroke="black" points="251.919,-385 251.919,-417 346.919,-417 346.919,-385 251.919,-385"/>
<text text-anchor="start" x="259.919" y="-404" font-family="FreeSans" font-size="10.00">../../engine/Display</text>
<text text-anchor="middle" x="299.419" y="-392" font-family="FreeSans" font-size="10.00">/Label.h</text>
</a>
</g>
<!-- Node1&#45;&gt;Node19 -->
<g id="edge42" class="edge"><title>Node1&#45;&gt;Node19</title>
<path fill="none" stroke="midnightblue" d="M1015.84,-461.093C883.132,-449.961 503.289,-418.101 357.429,-405.866"/>
<polygon fill="midnightblue" stroke="midnightblue" points="357.595,-402.368 347.338,-405.019 357.01,-409.343 357.595,-402.368"/>
</g>
<!-- Node27 -->
<g id="node64" class="node"><title>Node27</title>
<a xlink:href="_font_spec_8h.html" target="_top" xlink:title="../../engine/VideoServices\l/FontSpec.h">
<polygon fill="none" stroke="black" points="1046.42,-385 1046.42,-417 1172.42,-417 1172.42,-385 1046.42,-385"/>
<text text-anchor="start" x="1054.42" y="-404" font-family="FreeSans" font-size="10.00">../../engine/VideoServices</text>
<text text-anchor="middle" x="1109.42" y="-392" font-family="FreeSans" font-size="10.00">/FontSpec.h</text>
</a>
</g>
<!-- Node1&#45;&gt;Node27 -->
<g id="edge74" class="edge"><title>Node1&#45;&gt;Node27</title>
<path fill="none" stroke="midnightblue" d="M1069.97,-454.717C1075.81,-446.767 1084.13,-435.43 1091.63,-425.219"/>
<polygon fill="midnightblue" stroke="midnightblue" points="1094.57,-427.137 1097.67,-417.005 1088.92,-422.994 1094.57,-427.137"/>
</g>
<!-- Node28 -->
<g id="node67" class="node"><title>Node28</title>
<a xlink:href="_video_buffer_8h.html" target="_top" xlink:title="../../engine/VideoServices\l/VideoBuffer.h">
<polygon fill="none" stroke="black" points="1293.42,-245 1293.42,-277 1419.42,-277 1419.42,-245 1293.42,-245"/>
<text text-anchor="start" x="1301.42" y="-264" font-family="FreeSans" font-size="10.00">../../engine/VideoServices</text>
<text text-anchor="middle" x="1356.42" y="-252" font-family="FreeSans" font-size="10.00">/VideoBuffer.h</text>
</a>
</g>
<!-- Node1&#45;&gt;Node28 -->
<g id="edge78" class="edge"><title>Node1&#45;&gt;Node28</title>
<path fill="none" stroke="midnightblue" d="M1109.22,-455.205C1137.86,-447.843 1174.45,-435.907 1203.42,-418 1233.72,-399.273 1301.51,-323.993 1335.76,-284.875"/>
<polygon fill="midnightblue" stroke="midnightblue" points="1338.6,-286.946 1342.54,-277.11 1333.33,-282.344 1338.6,-286.946"/>
</g>
<!-- Node34 -->
<g id="node85" class="node"><title>Node34</title>
<a xlink:href="_config_8h.html" target="_top" xlink:title="../../engine/Util/Config.h">
<polygon fill="none" stroke="black" points="1148.42,-321 1148.42,-341 1264.42,-341 1264.42,-321 1148.42,-321"/>
<text text-anchor="middle" x="1206.42" y="-328" font-family="FreeSans" font-size="10.00">../../engine/Util/Config.h</text>
</a>
</g>
<!-- Node1&#45;&gt;Node34 -->
<g id="edge102" class="edge"><title>Node1&#45;&gt;Node34</title>
<path fill="none" stroke="midnightblue" d="M1109.05,-456.901C1133.71,-450.337 1162.68,-438.638 1181.42,-418 1198.11,-399.618 1203.72,-370.789 1205.57,-351.408"/>
<polygon fill="midnightblue" stroke="midnightblue" points="1209.08,-351.459 1206.28,-341.24 1202.09,-350.972 1209.08,-351.459"/>
</g>
<!-- Node36 -->
<g id="node91" class="node"><title>Node36</title>
<a xlink:href="_palette_scene_8h.html" target="_top" xlink:title="PaletteScene.h">
<polygon fill="none" stroke="black" points="1319.92,-391 1319.92,-411 1402.92,-411 1402.92,-391 1319.92,-391"/>
<text text-anchor="middle" x="1361.42" y="-398" font-family="FreeSans" font-size="10.00">PaletteScene.h</text>
</a>
</g>
<!-- Node1&#45;&gt;Node36 -->
<g id="edge110" class="edge"><title>Node1&#45;&gt;Node36</title>
<path fill="none" stroke="midnightblue" d="M1109.07,-457.577C1158.43,-449.36 1238.41,-435.006 1306.42,-418 1311.2,-416.805 1316.17,-415.44 1321.1,-414.015"/>
<polygon fill="midnightblue" stroke="midnightblue" points="1322.46,-417.26 1331.04,-411.041 1320.46,-410.553 1322.46,-417.26"/>
</g>
<!-- Node4 -->
<g id="node7" class="node"><title>Node4</title>
<polygon fill="none" stroke="#bfbfbf" points="1341.42,-117 1341.42,-137 1385.42,-137 1385.42,-117 1341.42,-117"/>
<text text-anchor="middle" x="1363.42" y="-124" font-family="FreeSans" font-size="10.00">vector</text>
</g>
<!-- Node3&#45;&gt;Node4 -->
<g id="edge6" class="edge"><title>Node3&#45;&gt;Node4</title>
<path fill="none" stroke="midnightblue" d="M1055.07,-314.94C1106.48,-293.814 1196.8,-253.936 1267.42,-208 1296.88,-188.839 1327.29,-161.704 1345.78,-144.227"/>
<polygon fill="midnightblue" stroke="midnightblue" points="1348.36,-146.602 1353.17,-137.16 1343.52,-141.545 1348.36,-146.602"/>
</g>
<!-- Node5 -->
<g id="node9" class="node"><title>Node5</title>
<polygon fill="none" stroke="#bfbfbf" points="1095.92,-117 1095.92,-137 1136.92,-137 1136.92,-117 1095.92,-117"/>
<text text-anchor="middle" x="1116.42" y="-124" font-family="FreeSans" font-size="10.00">string</text>
</g>
<!-- Node3&#45;&gt;Node5 -->
<g id="edge8" class="edge"><title>Node3&#45;&gt;Node5</title>
<path fill="none" stroke="midnightblue" d="M1022.42,-314.992C1040.95,-277.932 1086.74,-186.348 1106.78,-146.285"/>
<polygon fill="midnightblue" stroke="midnightblue" points="1109.94,-147.783 1111.28,-137.274 1103.68,-144.653 1109.94,-147.783"/>
</g>
<!-- Node6 -->
<g id="node11" class="node"><title>Node6</title>
<polygon fill="none" stroke="#bfbfbf" points="558.919,-117 558.919,-137 629.919,-137 629.919,-117 558.919,-117"/>
<text text-anchor="middle" x="594.419" y="-124" font-family="FreeSans" font-size="10.00">SDL2/SDL.h</text>
</g>
<!-- Node3&#45;&gt;Node6 -->
<g id="edge10" class="edge"><title>Node3&#45;&gt;Node6</title>
<path fill="none" stroke="midnightblue" d="M967.13,-322.888C871.556,-305.517 660.483,-261.886 613.419,-208 598.705,-191.153 594.84,-165.048 594.082,-147.05"/>
<polygon fill="midnightblue" stroke="midnightblue" points="597.582,-146.998 593.943,-137.047 590.583,-147.095 597.582,-146.998"/>
</g>
<!-- Node7 -->
<g id="node13" class="node"><title>Node7</title>
<a xlink:href="_action_8h.html" target="_top" xlink:title="Action.h">
<polygon fill="none" stroke="black" points="805.419,-251 805.419,-271 857.419,-271 857.419,-251 805.419,-251"/>
<text text-anchor="middle" x="831.419" y="-258" font-family="FreeSans" font-size="10.00">Action.h</text>
</a>
</g>
<!-- Node3&#45;&gt;Node7 -->
<g id="edge12" class="edge"><title>Node3&#45;&gt;Node7</title>
<path fill="none" stroke="midnightblue" d="M972.435,-314.941C940.675,-302.792 897.525,-286.287 867.352,-274.745"/>
<polygon fill="midnightblue" stroke="midnightblue" points="868.242,-271.338 857.651,-271.034 865.741,-277.876 868.242,-271.338"/>
</g>
<!-- Node13 -->
<g id="node25" class="node"><title>Node13</title>
<a xlink:href="_control_action_8h.html" target="_top" xlink:title="ControlAction.h">
<polygon fill="none" stroke="black" points="967.919,-181 967.919,-201 1050.92,-201 1050.92,-181 967.919,-181"/>
<text text-anchor="middle" x="1009.42" y="-188" font-family="FreeSans" font-size="10.00">ControlAction.h</text>
</a>
</g>
<!-- Node3&#45;&gt;Node13 -->
<g id="edge28" class="edge"><title>Node3&#45;&gt;Node13</title>
<path fill="none" stroke="midnightblue" d="M1013.85,-314.94C1012.93,-289.437 1011.16,-239.697 1010.15,-211.604"/>
<polygon fill="midnightblue" stroke="midnightblue" points="1013.64,-211.213 1009.79,-201.344 1006.65,-211.463 1013.64,-211.213"/>
</g>
<!-- Node8 -->
<g id="node15" class="node"><title>Node8</title>
<polygon fill="none" stroke="#bfbfbf" points="837.919,-181 837.919,-201 950.919,-201 950.919,-181 837.919,-181"/>
<text text-anchor="middle" x="894.419" y="-188" font-family="FreeSans" font-size="10.00">SDL2/SDL_keycode.h</text>
</g>
<!-- Node7&#45;&gt;Node8 -->
<g id="edge14" class="edge"><title>Node7&#45;&gt;Node8</title>
<path fill="none" stroke="midnightblue" d="M840.445,-250.971C850.363,-239.951 866.483,-222.04 878.528,-208.657"/>
<polygon fill="midnightblue" stroke="midnightblue" points="881.321,-210.785 885.409,-201.011 876.118,-206.102 881.321,-210.785"/>
</g>
<!-- Node9 -->
<g id="node17" class="node"><title>Node9</title>
<polygon fill="none" stroke="#bfbfbf" points="714.419,-181 714.419,-201 820.419,-201 820.419,-181 714.419,-181"/>
<text text-anchor="middle" x="767.419" y="-188" font-family="FreeSans" font-size="10.00">SDL2/SDL_mouse.h</text>
</g>
<!-- Node7&#45;&gt;Node9 -->
<g id="edge16" class="edge"><title>Node7&#45;&gt;Node9</title>
<path fill="none" stroke="midnightblue" d="M822.249,-250.971C812.174,-239.951 795.798,-222.04 783.562,-208.657"/>
<polygon fill="midnightblue" stroke="midnightblue" points="785.902,-206.029 776.572,-201.011 780.736,-210.753 785.902,-206.029"/>
</g>
<!-- Node10 -->
<g id="node19" class="node"><title>Node10</title>
<a xlink:href="_vec_8h.html" target="_top" xlink:title="../Vec.h">
<polygon fill="none" stroke="black" points="492.919,-117 492.919,-137 541.919,-137 541.919,-117 492.919,-117"/>
<text text-anchor="middle" x="517.419" y="-124" font-family="FreeSans" font-size="10.00">../Vec.h</text>
</a>
</g>
<!-- Node7&#45;&gt;Node10 -->
<g id="edge18" class="edge"><title>Node7&#45;&gt;Node10</title>
<path fill="none" stroke="midnightblue" d="M805.242,-258.557C762.907,-253.768 677.673,-240.613 613.419,-208 581.574,-191.837 551.186,-163.206 533.423,-144.673"/>
<polygon fill="midnightblue" stroke="midnightblue" points="535.795,-142.085 526.403,-137.182 530.687,-146.872 535.795,-142.085"/>
</g>
<!-- Node11 -->
<g id="node21" class="node"><title>Node11</title>
<a xlink:href="_exception_8h.html" target="_top" xlink:title="../Exception.h">
<polygon fill="none" stroke="black" points="622.419,-181 622.419,-201 696.419,-201 696.419,-181 622.419,-181"/>
<text text-anchor="middle" x="659.419" y="-188" font-family="FreeSans" font-size="10.00">../Exception.h</text>
</a>
</g>
<!-- Node7&#45;&gt;Node11 -->
<g id="edge20" class="edge"><title>Node7&#45;&gt;Node11</title>
<path fill="none" stroke="midnightblue" d="M806.776,-250.971C777.016,-238.859 726.803,-218.424 693.386,-204.824"/>
<polygon fill="midnightblue" stroke="midnightblue" points="694.598,-201.538 684.017,-201.011 691.96,-208.022 694.598,-201.538"/>
</g>
<!-- Node7&#45;&gt;Node13 -->
<g id="edge24" class="edge"><title>Node7&#45;&gt;Node13</title>
<path fill="none" stroke="midnightblue" d="M856.922,-250.971C887.72,-238.859 939.684,-218.424 974.267,-204.824"/>
<polygon fill="midnightblue" stroke="midnightblue" points="975.938,-207.928 983.963,-201.011 973.376,-201.413 975.938,-207.928"/>
</g>
<!-- Node12 -->
<g id="node23" class="node"><title>Node12</title>
<polygon fill="none" stroke="#bfbfbf" points="647.419,-117 647.419,-137 705.419,-137 705.419,-117 647.419,-117"/>
<text text-anchor="middle" x="676.419" y="-124" font-family="FreeSans" font-size="10.00">exception</text>
</g>
<!-- Node11&#45;&gt;Node12 -->
<g id="edge22" class="edge"><title>Node11&#45;&gt;Node12</title>
<path fill="none" stroke="midnightblue" d="M662.15,-180.717C664.569,-171.613 668.166,-158.068 671.144,-146.858"/>
<polygon fill="midnightblue" stroke="midnightblue" points="674.566,-147.61 673.75,-137.046 667.8,-145.812 674.566,-147.61"/>
</g>
<!-- Node13&#45;&gt;Node5 -->
<g id="edge26" class="edge"><title>Node13&#45;&gt;Node5</title>
<path fill="none" stroke="midnightblue" d="M1026.61,-180.717C1043.95,-170.346 1070.92,-154.212 1090.79,-142.331"/>
<polygon fill="midnightblue" stroke="midnightblue" points="1092.84,-145.183 1099.62,-137.046 1089.24,-139.176 1092.84,-145.183"/>
</g>
<!-- Node14&#45;&gt;Node10 -->
<g id="edge32" class="edge"><title>Node14&#45;&gt;Node10</title>
<path fill="none" stroke="midnightblue" d="M462.092,-174.85C473.01,-165.407 486.777,-153.501 497.846,-143.928"/>
<polygon fill="midnightblue" stroke="midnightblue" points="500.419,-146.33 505.693,-137.141 495.84,-141.035 500.419,-146.33"/>
</g>
<!-- Node15 -->
<g id="node32" class="node"><title>Node15</title>
<a xlink:href="_ui_layout_flags_8h.html" target="_top" xlink:title="UiLayoutFlags.h">
<polygon fill="none" stroke="black" points="271.919,-117 271.919,-137 358.919,-137 358.919,-117 271.919,-117"/>
<text text-anchor="middle" x="315.419" y="-124" font-family="FreeSans" font-size="10.00">UiLayoutFlags.h</text>
</a>
</g>
<!-- Node14&#45;&gt;Node15 -->
<g id="edge34" class="edge"><title>Node14&#45;&gt;Node15</title>
<path fill="none" stroke="midnightblue" d="M411.119,-174.85C390.753,-164.667 364.656,-151.618 344.86,-141.721"/>
<polygon fill="midnightblue" stroke="midnightblue" points="346.211,-138.483 335.701,-137.141 343.08,-144.744 346.211,-138.483"/>
</g>
<!-- Node18 -->
<g id="node38" class="node"><title>Node18</title>
<a xlink:href="_view_attacher_8h.html" target="_top" xlink:title="ViewAttacher.h">
<polygon fill="none" stroke="black" points="384.919,-117 384.919,-137 467.919,-137 467.919,-117 384.919,-117"/>
<text text-anchor="middle" x="426.419" y="-124" font-family="FreeSans" font-size="10.00">ViewAttacher.h</text>
</a>
</g>
<!-- Node14&#45;&gt;Node18 -->
<g id="edge40" class="edge"><title>Node14&#45;&gt;Node18</title>
<path fill="none" stroke="midnightblue" d="M439.129,-174.85C436.867,-166.333 434.072,-155.812 431.68,-146.806"/>
<polygon fill="midnightblue" stroke="midnightblue" points="435.063,-145.907 429.113,-137.141 428.297,-147.704 435.063,-145.907"/>
</g>
<!-- Node16 -->
<g id="node34" class="node"><title>Node16</title>
<a xlink:href="_m_r___types_8h.html" target="_top" xlink:title="../Util/MR_Types.h">
<polygon fill="none" stroke="black" points="267.419,-59 267.419,-79 363.419,-79 363.419,-59 267.419,-59"/>
<text text-anchor="middle" x="315.419" y="-66" font-family="FreeSans" font-size="10.00">../Util/MR_Types.h</text>
</a>
</g>
<!-- Node15&#45;&gt;Node16 -->
<g id="edge36" class="edge"><title>Node15&#45;&gt;Node16</title>
<path fill="none" stroke="midnightblue" d="M315.419,-116.897C315.419,-109.339 315.419,-98.7476 315.419,-89.4458"/>
<polygon fill="midnightblue" stroke="midnightblue" points="318.919,-89.3776 315.419,-79.3776 311.919,-89.3776 318.919,-89.3776"/>
</g>
<!-- Node17 -->
<g id="node36" class="node"><title>Node17</title>
<polygon fill="none" stroke="#bfbfbf" points="286.419,-1 286.419,-21 344.419,-21 344.419,-1 286.419,-1"/>
<text text-anchor="middle" x="315.419" y="-8" font-family="FreeSans" font-size="10.00">inttypes.h</text>
</g>
<!-- Node16&#45;&gt;Node17 -->
<g id="edge38" class="edge"><title>Node16&#45;&gt;Node17</title>
<path fill="none" stroke="midnightblue" d="M315.419,-58.8972C315.419,-51.339 315.419,-40.7476 315.419,-31.4458"/>
<polygon fill="midnightblue" stroke="midnightblue" points="318.919,-31.3776 315.419,-21.3776 311.919,-31.3776 318.919,-31.3776"/>
</g>
<!-- Node20 -->
<g id="node42" class="node"><title>Node20</title>
<a xlink:href="_color_8h.html" target="_top" xlink:title="Color.h">
<polygon fill="none" stroke="black" points="65.919,-321 65.919,-341 112.919,-341 112.919,-321 65.919,-321"/>
<text text-anchor="middle" x="89.419" y="-328" font-family="FreeSans" font-size="10.00">Color.h</text>
</a>
</g>
<!-- Node19&#45;&gt;Node20 -->
<g id="edge44" class="edge"><title>Node19&#45;&gt;Node20</title>
<path fill="none" stroke="midnightblue" d="M251.767,-385.116C212.446,-372.009 157.649,-353.743 122.854,-342.145"/>
<polygon fill="midnightblue" stroke="midnightblue" points="123.762,-338.759 113.169,-338.917 121.549,-345.399 123.762,-338.759"/>
</g>
<!-- Node23 -->
<g id="node50" class="node"><title>Node23</title>
<a xlink:href="_ui_font_8h.html" target="_top" xlink:title="UiFont.h">
<polygon fill="none" stroke="black" points="160.919,-321 160.919,-341 213.919,-341 213.919,-321 160.919,-321"/>
<text text-anchor="middle" x="187.419" y="-328" font-family="FreeSans" font-size="10.00">UiFont.h</text>
</a>
</g>
<!-- Node19&#45;&gt;Node23 -->
<g id="edge54" class="edge"><title>Node19&#45;&gt;Node23</title>
<path fill="none" stroke="midnightblue" d="M273.724,-384.941C255.271,-373.408 230.536,-357.948 212.277,-346.536"/>
<polygon fill="midnightblue" stroke="midnightblue" points="213.973,-343.469 203.638,-341.137 210.263,-349.405 213.973,-343.469"/>
</g>
<!-- Node24 -->
<g id="node53" class="node"><title>Node24</title>
<a xlink:href="_ui_view_model_8h.html" target="_top" xlink:title="UiViewModel.h">
<polygon fill="none" stroke="black" points="258.419,-321 258.419,-341 340.419,-341 340.419,-321 258.419,-321"/>
<text text-anchor="middle" x="299.419" y="-328" font-family="FreeSans" font-size="10.00">UiViewModel.h</text>
</a>
</g>
<!-- Node19&#45;&gt;Node24 -->
<g id="edge58" class="edge"><title>Node19&#45;&gt;Node24</title>
<path fill="none" stroke="midnightblue" d="M299.419,-384.765C299.419,-374.813 299.419,-361.987 299.419,-351.359"/>
<polygon fill="midnightblue" stroke="midnightblue" points="302.919,-351.291 299.419,-341.291 295.919,-351.291 302.919,-351.291"/>
</g>
<!-- Node20&#45;&gt;Node16 -->
<g id="edge48" class="edge"><title>Node20&#45;&gt;Node16</title>
<path fill="none" stroke="midnightblue" d="M65.7544,-323.385C45.6751,-315.522 18.1592,-301.103 5.419,-278 -1.87816,-264.768 -1.66268,-257.349 5.419,-244 56.2831,-148.121 183.245,-101.434 257.963,-81.5675"/>
<polygon fill="midnightblue" stroke="midnightblue" points="258.894,-84.9422 267.7,-79.0518 257.142,-78.1648 258.894,-84.9422"/>
</g>
<!-- Node21 -->
<g id="node44" class="node"><title>Node21</title>
<polygon fill="none" stroke="#bfbfbf" points="13.919,-251 13.919,-271 102.919,-271 102.919,-251 13.919,-251"/>
<text text-anchor="middle" x="58.419" y="-258" font-family="FreeSans" font-size="10.00">boost/format.hpp</text>
</g>
<!-- Node20&#45;&gt;Node21 -->
<g id="edge46" class="edge"><title>Node20&#45;&gt;Node21</title>
<path fill="none" stroke="midnightblue" d="M84.9775,-320.971C80.2814,-310.367 72.7595,-293.382 66.9176,-280.19"/>
<polygon fill="midnightblue" stroke="midnightblue" points="70.1019,-278.737 62.8523,-271.011 63.7014,-281.571 70.1019,-278.737"/>
</g>
<!-- Node22 -->
<g id="node47" class="node"><title>Node22</title>
<a xlink:href="_sel_fmt_8h.html" target="_top" xlink:title="../Util/SelFmt.h">
<polygon fill="none" stroke="black" points="119.919,-251 119.919,-271 200.919,-271 200.919,-251 119.919,-251"/>
<text text-anchor="middle" x="160.419" y="-258" font-family="FreeSans" font-size="10.00">../Util/SelFmt.h</text>
</a>
</g>
<!-- Node20&#45;&gt;Node22 -->
<g id="edge50" class="edge"><title>Node20&#45;&gt;Node22</title>
<path fill="none" stroke="midnightblue" d="M99.5916,-320.971C110.874,-309.847 129.279,-291.701 142.893,-278.279"/>
<polygon fill="midnightblue" stroke="midnightblue" points="145.602,-280.524 150.265,-271.011 140.687,-275.539 145.602,-280.524"/>
</g>
<!-- Node22&#45;&gt;Node16 -->
<g id="edge52" class="edge"><title>Node22&#45;&gt;Node16</title>
<path fill="none" stroke="midnightblue" d="M161.545,-250.844C164.902,-225.097 177.049,-156.447 214.419,-116 228.613,-100.637 248.84,-89.8665 267.469,-82.5499"/>
<polygon fill="midnightblue" stroke="midnightblue" points="268.849,-85.7715 277.025,-79.0326 266.431,-79.2024 268.849,-85.7715"/>
</g>
<!-- Node23&#45;&gt;Node22 -->
<g id="edge56" class="edge"><title>Node23&#45;&gt;Node22</title>
<path fill="none" stroke="midnightblue" d="M183.551,-320.971C179.501,-310.471 173.037,-293.714 167.971,-280.579"/>
<polygon fill="midnightblue" stroke="midnightblue" points="171.145,-279.081 164.28,-271.011 164.614,-281.6 171.145,-279.081"/>
</g>
<!-- Node24&#45;&gt;Node10 -->
<g id="edge62" class="edge"><title>Node24&#45;&gt;Node10</title>
<path fill="none" stroke="midnightblue" d="M330.293,-320.914C375.009,-304.635 457.063,-268.163 499.419,-208 512.004,-190.124 515.994,-164.977 517.156,-147.462"/>
<polygon fill="midnightblue" stroke="midnightblue" points="520.664,-147.341 517.574,-137.207 513.669,-147.056 520.664,-147.341"/>
</g>
<!-- Node24&#45;&gt;Node15 -->
<g id="edge64" class="edge"><title>Node24&#45;&gt;Node15</title>
<path fill="none" stroke="midnightblue" d="M299.17,-320.84C298.923,-310.172 298.56,-292.908 298.419,-278 298.276,-262.89 297.33,-259.072 298.419,-244 300.886,-209.869 307.35,-170.571 311.558,-147.312"/>
<polygon fill="midnightblue" stroke="midnightblue" points="315.037,-147.745 313.416,-137.275 308.154,-146.471 315.037,-147.745"/>
</g>
<!-- Node24&#45;&gt;Node16 -->
<g id="edge60" class="edge"><title>Node24&#45;&gt;Node16</title>
<path fill="none" stroke="midnightblue" d="M293.708,-320.628C276.913,-288.652 230.855,-189.328 263.419,-116 268.937,-103.575 279.542,-93.0438 289.743,-85.1195"/>
<polygon fill="midnightblue" stroke="midnightblue" points="292.035,-87.7816 298.097,-79.092 287.939,-82.1051 292.035,-87.7816"/>
</g>
<!-- Node25 -->
<g id="node58" class="node"><title>Node25</title>
<a xlink:href="_view_model_8h.html" target="_top" xlink:title="ViewModel.h">
<polygon fill="none" stroke="black" points="307.419,-251 307.419,-271 379.419,-271 379.419,-251 307.419,-251"/>
<text text-anchor="middle" x="343.419" y="-258" font-family="FreeSans" font-size="10.00">ViewModel.h</text>
</a>
</g>
<!-- Node24&#45;&gt;Node25 -->
<g id="edge66" class="edge"><title>Node24&#45;&gt;Node25</title>
<path fill="none" stroke="midnightblue" d="M305.723,-320.971C312.454,-310.263 323.274,-293.048 331.6,-279.803"/>
<polygon fill="midnightblue" stroke="midnightblue" points="334.768,-281.34 337.127,-271.011 328.842,-277.614 334.768,-281.34"/>
</g>
<!-- Node25&#45;&gt;Node14 -->
<g id="edge68" class="edge"><title>Node25&#45;&gt;Node14</title>
<path fill="none" stroke="midnightblue" d="M357.747,-250.971C371.763,-241.159 393.582,-225.886 411.693,-213.208"/>
<polygon fill="midnightblue" stroke="midnightblue" points="414.05,-215.83 420.235,-207.228 410.036,-210.096 414.05,-215.83"/>
</g>
<!-- Node25&#45;&gt;Node18 -->
<g id="edge72" class="edge"><title>Node25&#45;&gt;Node18</title>
<path fill="none" stroke="midnightblue" d="M336.428,-250.759C325.642,-233.563 307.747,-198.378 323.419,-174 335.065,-155.884 355.611,-144.666 375.305,-137.759"/>
<polygon fill="midnightblue" stroke="midnightblue" points="376.402,-141.083 384.861,-134.704 374.27,-134.415 376.402,-141.083"/>
</g>
<!-- Node26 -->
<g id="node61" class="node"><title>Node26</title>
<a xlink:href="_view_8h.html" target="_top" xlink:title="View.h">
<polygon fill="none" stroke="black" points="332.419,-181 332.419,-201 378.419,-201 378.419,-181 332.419,-181"/>
<text text-anchor="middle" x="355.419" y="-188" font-family="FreeSans" font-size="10.00">View.h</text>
</a>
</g>
<!-- Node25&#45;&gt;Node26 -->
<g id="edge70" class="edge"><title>Node25&#45;&gt;Node26</title>
<path fill="none" stroke="midnightblue" d="M345.138,-250.971C346.92,-240.575 349.754,-224.045 351.995,-210.971"/>
<polygon fill="midnightblue" stroke="midnightblue" points="355.463,-211.458 353.703,-201.011 348.563,-210.276 355.463,-211.458"/>
</g>
<!-- Node27&#45;&gt;Node5 -->
<g id="edge76" class="edge"><title>Node27&#45;&gt;Node5</title>
<path fill="none" stroke="midnightblue" d="M1109.84,-384.681C1111.05,-337.239 1114.57,-199.429 1115.9,-147.299"/>
<polygon fill="midnightblue" stroke="midnightblue" points="1119.4,-147.363 1116.16,-137.277 1112.4,-147.184 1119.4,-147.363"/>
</g>
<!-- Node28&#45;&gt;Node16 -->
<g id="edge80" class="edge"><title>Node28&#45;&gt;Node16</title>
<path fill="none" stroke="midnightblue" d="M1343.55,-244.771C1316.49,-212.183 1249.92,-139.864 1174.42,-116 1098.59,-92.0314 554.328,-75.4122 373.59,-70.5045"/>
<polygon fill="midnightblue" stroke="midnightblue" points="373.572,-67.0028 363.481,-70.232 373.383,-74.0003 373.572,-67.0028"/>
</g>
<!-- Node29 -->
<g id="node70" class="node"><title>Node29</title>
<a xlink:href="_o_s_8h.html" target="_top" xlink:title="../Util/OS.h">
<polygon fill="none" stroke="black" points="1415.42,-181 1415.42,-201 1479.42,-201 1479.42,-181 1415.42,-181"/>
<text text-anchor="middle" x="1447.42" y="-188" font-family="FreeSans" font-size="10.00">../Util/OS.h</text>
</a>
</g>
<!-- Node28&#45;&gt;Node29 -->
<g id="edge82" class="edge"><title>Node28&#45;&gt;Node29</title>
<path fill="none" stroke="midnightblue" d="M1377.52,-244.765C1392.18,-233.488 1411.64,-218.522 1426.3,-207.244"/>
<polygon fill="midnightblue" stroke="midnightblue" points="1428.52,-209.957 1434.31,-201.085 1424.25,-204.408 1428.52,-209.957"/>
</g>
<!-- Node33 -->
<g id="node81" class="node"><title>Node33</title>
<a xlink:href="_color_palette_8h.html" target="_top" xlink:title="ColorPalette.h">
<polygon fill="none" stroke="black" points="1181.92,-181 1181.92,-201 1258.92,-201 1258.92,-181 1181.92,-181"/>
<text text-anchor="middle" x="1220.42" y="-188" font-family="FreeSans" font-size="10.00">ColorPalette.h</text>
</a>
</g>
<!-- Node28&#45;&gt;Node33 -->
<g id="edge96" class="edge"><title>Node28&#45;&gt;Node33</title>
<path fill="none" stroke="midnightblue" d="M1325.22,-244.941C1302.3,-233.144 1271.4,-217.24 1249.1,-205.761"/>
<polygon fill="midnightblue" stroke="midnightblue" points="1250.61,-202.602 1240.11,-201.137 1247.4,-208.826 1250.61,-202.602"/>
</g>
<!-- Node29&#45;&gt;Node4 -->
<g id="edge90" class="edge"><title>Node29&#45;&gt;Node4</title>
<path fill="none" stroke="midnightblue" d="M1433.92,-180.717C1420.62,-170.581 1400.09,-154.939 1384.61,-143.144"/>
<polygon fill="midnightblue" stroke="midnightblue" points="1386.68,-140.323 1376.6,-137.046 1382.44,-145.891 1386.68,-140.323"/>
</g>
<!-- Node29&#45;&gt;Node5 -->
<g id="edge88" class="edge"><title>Node29&#45;&gt;Node5</title>
<path fill="none" stroke="midnightblue" d="M1415.38,-184.805C1351.73,-172.499 1210.1,-145.114 1147.36,-132.983"/>
<polygon fill="midnightblue" stroke="midnightblue" points="1147.78,-129.498 1137.29,-131.036 1146.45,-136.371 1147.78,-129.498"/>
</g>
<!-- Node29&#45;&gt;Node16 -->
<g id="edge94" class="edge"><title>Node29&#45;&gt;Node16</title>
<path fill="none" stroke="midnightblue" d="M1443.76,-180.975C1436.98,-164.076 1420.73,-130.359 1394.42,-116 1349.38,-91.4204 592.343,-74.5095 373.953,-70.1257"/>
<polygon fill="midnightblue" stroke="midnightblue" points="373.73,-66.6207 363.663,-69.9205 373.591,-73.6193 373.73,-66.6207"/>
</g>
<!-- Node30 -->
<g id="node72" class="node"><title>Node30</title>
<polygon fill="none" stroke="#bfbfbf" points="1441.42,-117 1441.42,-137 1483.42,-137 1483.42,-117 1441.42,-117"/>
<text text-anchor="middle" x="1462.42" y="-124" font-family="FreeSans" font-size="10.00">locale</text>
</g>
<!-- Node29&#45;&gt;Node30 -->
<g id="edge84" class="edge"><title>Node29&#45;&gt;Node30</title>
<path fill="none" stroke="midnightblue" d="M1449.83,-180.717C1451.96,-171.613 1455.14,-158.068 1457.76,-146.858"/>
<polygon fill="midnightblue" stroke="midnightblue" points="1461.19,-147.581 1460.06,-137.046 1454.37,-145.984 1461.19,-147.581"/>
</g>
<!-- Node31 -->
<g id="node74" class="node"><title>Node31</title>
<polygon fill="none" stroke="#bfbfbf" points="1501.42,-117 1501.42,-137 1531.42,-137 1531.42,-117 1501.42,-117"/>
<text text-anchor="middle" x="1516.42" y="-124" font-family="FreeSans" font-size="10.00">set</text>
</g>
<!-- Node29&#45;&gt;Node31 -->
<g id="edge86" class="edge"><title>Node29&#45;&gt;Node31</title>
<path fill="none" stroke="midnightblue" d="M1458.51,-180.717C1469.13,-170.862 1485.36,-155.804 1497.94,-144.136"/>
<polygon fill="midnightblue" stroke="midnightblue" points="1500.64,-146.413 1505.59,-137.046 1495.88,-141.281 1500.64,-146.413"/>
</g>
<!-- Node32 -->
<g id="node78" class="node"><title>Node32</title>
<polygon fill="none" stroke="#bfbfbf" points="1548.92,-117 1548.92,-137 1653.92,-137 1653.92,-117 1548.92,-117"/>
<text text-anchor="middle" x="1601.42" y="-124" font-family="FreeSans" font-size="10.00">boost/filesystem.hpp</text>
</g>
<!-- Node29&#45;&gt;Node32 -->
<g id="edge92" class="edge"><title>Node29&#45;&gt;Node32</title>
<path fill="none" stroke="midnightblue" d="M1471.82,-180.859C1497.73,-170.092 1538.85,-153.001 1567.82,-140.965"/>
<polygon fill="midnightblue" stroke="midnightblue" points="1569.24,-144.163 1577.13,-137.094 1566.55,-137.699 1569.24,-144.163"/>
</g>
<!-- Node33&#45;&gt;Node6 -->
<g id="edge98" class="edge"><title>Node33&#45;&gt;Node6</title>
<path fill="none" stroke="midnightblue" d="M1181.73,-186.696C1149.13,-183.123 1101.25,-177.996 1059.42,-174 875.762,-156.453 825.417,-168.434 640.401,-138.143"/>
<polygon fill="midnightblue" stroke="midnightblue" points="640.777,-134.658 630.339,-136.477 639.633,-141.564 640.777,-134.658"/>
</g>
<!-- Node33&#45;&gt;Node16 -->
<g id="edge100" class="edge"><title>Node33&#45;&gt;Node16</title>
<path fill="none" stroke="midnightblue" d="M1214.04,-180.931C1202.65,-163.964 1177.02,-130.147 1145.42,-116 1075.51,-84.7002 550.872,-72.9923 373.679,-69.9058"/>
<polygon fill="midnightblue" stroke="midnightblue" points="373.568,-66.4035 363.51,-69.7315 373.448,-73.4024 373.568,-66.4035"/>
</g>
<!-- Node34&#45;&gt;Node5 -->
<g id="edge104" class="edge"><title>Node34&#45;&gt;Node5</title>
<path fill="none" stroke="midnightblue" d="M1201.96,-320.884C1187.8,-288.798 1143.74,-188.931 1125,-146.446"/>
<polygon fill="midnightblue" stroke="midnightblue" points="1128.15,-144.914 1120.91,-137.177 1121.74,-147.739 1128.15,-144.914"/>
</g>
<!-- Node34&#45;&gt;Node29 -->
<g id="edge108" class="edge"><title>Node34&#45;&gt;Node29</title>
<path fill="none" stroke="midnightblue" d="M1261.57,-320.99C1323.43,-309.278 1416.68,-289.97 1428.42,-278 1445.69,-260.388 1448.82,-230.93 1448.72,-211.236"/>
<polygon fill="midnightblue" stroke="midnightblue" points="1452.21,-211.063 1448.38,-201.185 1445.22,-211.295 1452.21,-211.063"/>
</g>
<!-- Node35 -->
<g id="node88" class="node"><title>Node35</title>
<polygon fill="none" stroke="#bfbfbf" points="1219.42,-251 1219.42,-271 1275.42,-271 1275.42,-251 1219.42,-251"/>
<text text-anchor="middle" x="1247.42" y="-258" font-family="FreeSans" font-size="10.00">basedir.h</text>
</g>
<!-- Node34&#45;&gt;Node35 -->
<g id="edge106" class="edge"><title>Node34&#45;&gt;Node35</title>
<path fill="none" stroke="midnightblue" d="M1212.29,-320.971C1218.57,-310.263 1228.65,-293.048 1236.41,-279.803"/>
<polygon fill="midnightblue" stroke="midnightblue" points="1239.52,-281.408 1241.56,-271.011 1233.48,-277.871 1239.52,-281.408"/>
</g>
<!-- Node36&#45;&gt;Node34 -->
<g id="edge112" class="edge"><title>Node36&#45;&gt;Node34</title>
<path fill="none" stroke="midnightblue" d="M1339.21,-390.971C1312.62,-378.963 1267.92,-358.774 1237.81,-345.176"/>
<polygon fill="midnightblue" stroke="midnightblue" points="1239.14,-341.937 1228.59,-341.011 1236.26,-348.316 1239.14,-341.937"/>
</g>
<!-- Node37 -->
<g id="node94" class="node"><title>Node37</title>
<a xlink:href="_game_director_8h.html" target="_top" xlink:title="GameDirector.h">
<polygon fill="none" stroke="black" points="1320.42,-321 1320.42,-341 1404.42,-341 1404.42,-321 1320.42,-321"/>
<text text-anchor="middle" x="1362.42" y="-328" font-family="FreeSans" font-size="10.00">GameDirector.h</text>
</a>
</g>
<!-- Node36&#45;&gt;Node37 -->
<g id="edge114" class="edge"><title>Node36&#45;&gt;Node37</title>
<path fill="none" stroke="midnightblue" d="M1361.56,-390.971C1361.71,-380.679 1361.94,-364.375 1362.13,-351.364"/>
<polygon fill="midnightblue" stroke="midnightblue" points="1365.63,-351.06 1362.28,-341.011 1358.63,-350.96 1365.63,-351.06"/>
</g>
<!-- Node38 -->
<g id="node96" class="node"><title>Node38</title>
<a xlink:href="_ui_scene_8h.html" target="_top" xlink:title="UiScene.h">
<polygon fill="none" stroke="black" points="1446.42,-321 1446.42,-341 1508.42,-341 1508.42,-321 1446.42,-321"/>
<text text-anchor="middle" x="1477.42" y="-328" font-family="FreeSans" font-size="10.00">UiScene.h</text>
</a>
</g>
<!-- Node36&#45;&gt;Node38 -->
<g id="edge116" class="edge"><title>Node36&#45;&gt;Node38</title>
<path fill="none" stroke="midnightblue" d="M1378.04,-390.971C1397.42,-379.275 1429.66,-359.817 1452.15,-346.248"/>
<polygon fill="midnightblue" stroke="midnightblue" points="1454.08,-349.174 1460.83,-341.011 1450.46,-343.181 1454.08,-349.174"/>
</g>
<!-- Node39 -->
<g id="node98" class="node"><title>Node39</title>
<a xlink:href="_scene_8h.html" target="_top" xlink:title="Scene.h">
<polygon fill="none" stroke="black" points="1475.42,-251 1475.42,-271 1527.42,-271 1527.42,-251 1475.42,-251"/>
<text text-anchor="middle" x="1501.42" y="-258" font-family="FreeSans" font-size="10.00">Scene.h</text>
</a>
</g>
<!-- Node38&#45;&gt;Node39 -->
<g id="edge118" class="edge"><title>Node38&#45;&gt;Node39</title>
<path fill="none" stroke="midnightblue" d="M1480.86,-320.971C1484.46,-310.471 1490.2,-293.714 1494.71,-280.579"/>
<polygon fill="midnightblue" stroke="midnightblue" points="1498.05,-281.605 1497.99,-271.011 1491.43,-279.335 1498.05,-281.605"/>
</g>
<!-- Node39&#45;&gt;Node29 -->
<g id="edge120" class="edge"><title>Node39&#45;&gt;Node29</title>
<path fill="none" stroke="midnightblue" d="M1493.68,-250.971C1485.26,-240.055 1471.62,-222.377 1461.33,-209.037"/>
<polygon fill="midnightblue" stroke="midnightblue" points="1464.02,-206.791 1455.14,-201.011 1458.48,-211.066 1464.02,-206.791"/>
</g>
</g>
</svg>
