<?xml version="1.0" encoding="UTF-8" standalone="no"?>
<!DOCTYPE svg PUBLIC "-//W3C//DTD SVG 1.1//EN"
 "http://www.w3.org/Graphics/SVG/1.1/DTD/svg11.dtd">
<!-- Generated by graphviz version 2.26.3 (20100126.1600)
 -->
<!-- Title: PauseMenuScene.cpp Pages: 1 -->
<svg width="1306pt" height="600pt"
 viewBox="0.00 0.00 1306.12 600.00" xmlns="http://www.w3.org/2000/svg" xmlns:xlink="http://www.w3.org/1999/xlink">
<g id="graph1" class="graph" transform="scale(1 1) rotate(0) translate(4 596)">
<title>PauseMenuScene.cpp</title>
<!-- Node1 -->
<g id="node1" class="node"><title>Node1</title>
<polygon fill="#bfbfbf" stroke="black" points="687.122,-571 687.122,-591 801.122,-591 801.122,-571 687.122,-571"/>
<text text-anchor="middle" x="744.122" y="-578" font-family="FreeSans" font-size="10.00">PauseMenuScene.cpp</text>
</g>
<!-- Node2 -->
<g id="node3" class="node"><title>Node2</title>
<polygon fill="none" stroke="#bfbfbf" points="305.622,-507 305.622,-527 358.622,-527 358.622,-507 305.622,-507"/>
<text text-anchor="middle" x="332.122" y="-514" font-family="FreeSans" font-size="10.00">StdAfx.h</text>
</g>
<!-- Node1&#45;&gt;Node2 -->
<g id="edge2" class="edge"><title>Node1&#45;&gt;Node2</title>
<path fill="none" stroke="midnightblue" d="M687.093,-578.677C613.268,-574.568 481.159,-563.447 372.122,-534 368.917,-533.134 365.632,-532.064 362.389,-530.885"/>
<polygon fill="midnightblue" stroke="midnightblue" points="363.496,-527.559 352.91,-527.118 360.91,-534.064 363.496,-527.559"/>
</g>
<!-- Node3 -->
<g id="node5" class="node"><title>Node3</title>
<a xlink:href="_controller_8h.html" target="_top" xlink:title="../../engine/Control\l/Controller.h">
<polygon fill="none" stroke="black" points="414.122,-361 414.122,-393 508.122,-393 508.122,-361 414.122,-361"/>
<text text-anchor="start" x="422.122" y="-380" font-family="FreeSans" font-size="10.00">../../engine/Control</text>
<text text-anchor="middle" x="461.122" y="-368" font-family="FreeSans" font-size="10.00">/Controller.h</text>
</a>
</g>
<!-- Node1&#45;&gt;Node3 -->
<g id="edge4" class="edge"><title>Node1&#45;&gt;Node3</title>
<path fill="none" stroke="midnightblue" d="M686.704,-576.214C645.335,-570.732 589.409,-559.01 546.122,-534 509.099,-512.608 500.076,-501.818 480.122,-464 470.158,-445.114 465.415,-421.283 463.16,-403.34"/>
<polygon fill="midnightblue" stroke="midnightblue" points="466.627,-402.849 462.076,-393.282 459.667,-403.599 466.627,-402.849"/>
</g>
<!-- Node14 -->
<g id="node29" class="node"><title>Node14</title>
<a xlink:href="_button_8h.html" target="_top" xlink:title="../../engine/Display\l/Button.h">
<polygon fill="none" stroke="black" points="807.622,-501 807.622,-533 902.622,-533 902.622,-501 807.622,-501"/>
<text text-anchor="start" x="815.622" y="-520" font-family="FreeSans" font-size="10.00">../../engine/Display</text>
<text text-anchor="middle" x="855.122" y="-508" font-family="FreeSans" font-size="10.00">/Button.h</text>
</a>
</g>
<!-- Node1&#45;&gt;Node14 -->
<g id="edge30" class="edge"><title>Node1&#45;&gt;Node14</title>
<path fill="none" stroke="midnightblue" d="M761.956,-570.717C777.193,-561.932 799.601,-549.012 818.622,-538.045"/>
<polygon fill="midnightblue" stroke="midnightblue" points="820.448,-541.033 827.363,-533.005 816.952,-534.968 820.448,-541.033"/>
</g>
<!-- Node21 -->
<g id="node45" class="node"><title>Node21</title>
<a xlink:href="_display_8h.html" target="_top" xlink:title="Display.h">
<polygon fill="none" stroke="black" points="967.122,-233 967.122,-253 1023.12,-253 1023.12,-233 967.122,-233"/>
<text text-anchor="middle" x="995.122" y="-240" font-family="FreeSans" font-size="10.00">Display.h</text>
</a>
</g>
<!-- Node1&#45;&gt;Node21 -->
<g id="edge78" class="edge"><title>Node1&#45;&gt;Node21</title>
<path fill="none" stroke="midnightblue" d="M801.168,-574.886C841.328,-568.788 895.337,-556.876 938.122,-534 978.619,-512.347 995.681,-506.057 1014.12,-464 1044.36,-395.041 1017.32,-302.499 1002.86,-262.626"/>
<polygon fill="midnightblue" stroke="midnightblue" points="1006.13,-261.38 999.338,-253.253 999.583,-263.845 1006.13,-261.38"/>
</g>
<!-- Node28 -->
<g id="node65" class="node"><title>Node28</title>
<a xlink:href="_container_8h.html" target="_top" xlink:title="../../engine/Display\l/Container.h">
<polygon fill="none" stroke="black" points="910.622,-431 910.622,-463 1005.62,-463 1005.62,-431 910.622,-431"/>
<text text-anchor="start" x="918.622" y="-450" font-family="FreeSans" font-size="10.00">../../engine/Display</text>
<text text-anchor="middle" x="958.122" y="-438" font-family="FreeSans" font-size="10.00">/Container.h</text>
</a>
</g>
<!-- Node1&#45;&gt;Node28 -->
<g id="edge74" class="edge"><title>Node1&#45;&gt;Node28</title>
<path fill="none" stroke="midnightblue" d="M796.398,-570.937C838.456,-562.008 893.368,-548.209 911.122,-534 930.64,-518.38 943.161,-492.381 950.33,-472.864"/>
<polygon fill="midnightblue" stroke="midnightblue" points="953.663,-473.933 953.599,-463.338 947.042,-471.66 953.663,-473.933"/>
</g>
<!-- Node29 -->
<g id="node69" class="node"><title>Node29</title>
<a xlink:href="_label_8h.html" target="_top" xlink:title="../../engine/Display\l/Label.h">
<polygon fill="none" stroke="black" points="1126.62,-431 1126.62,-463 1221.62,-463 1221.62,-431 1126.62,-431"/>
<text text-anchor="start" x="1134.62" y="-450" font-family="FreeSans" font-size="10.00">../../engine/Display</text>
<text text-anchor="middle" x="1174.12" y="-438" font-family="FreeSans" font-size="10.00">/Label.h</text>
</a>
</g>
<!-- Node1&#45;&gt;Node29 -->
<g id="edge80" class="edge"><title>Node1&#45;&gt;Node29</title>
<path fill="none" stroke="midnightblue" d="M801.353,-578.616C889.245,-574.111 1052.6,-562.143 1103.12,-534 1128.67,-519.767 1148.66,-492.337 1160.83,-472.066"/>
<polygon fill="midnightblue" stroke="midnightblue" points="1163.9,-473.742 1165.86,-463.33 1157.84,-470.247 1163.9,-473.742"/>
</g>
<!-- Node30 -->
<g id="node74" class="node"><title>Node30</title>
<a xlink:href="_screen_fade_8h.html" target="_top" xlink:title="../../engine/Display\l/ScreenFade.h">
<polygon fill="none" stroke="black" points="1052.62,-361 1052.62,-393 1147.62,-393 1147.62,-361 1052.62,-361"/>
<text text-anchor="start" x="1060.62" y="-380" font-family="FreeSans" font-size="10.00">../../engine/Display</text>
<text text-anchor="middle" x="1100.12" y="-368" font-family="FreeSans" font-size="10.00">/ScreenFade.h</text>
</a>
</g>
<!-- Node1&#45;&gt;Node30 -->
<g id="edge88" class="edge"><title>Node1&#45;&gt;Node30</title>
<path fill="none" stroke="midnightblue" d="M801.272,-579.065C878.544,-575.312 1010.87,-564.506 1047.12,-534 1086.12,-501.182 1096.52,-438.591 1099.23,-403.156"/>
<polygon fill="midnightblue" stroke="midnightblue" points="1102.73,-403.289 1099.85,-393.094 1095.75,-402.861 1102.73,-403.289"/>
</g>
<!-- Node31 -->
<g id="node78" class="node"><title>Node31</title>
<a xlink:href="_font_spec_8h.html" target="_top" xlink:title="../../engine/VideoServices\l/FontSpec.h">
<polygon fill="none" stroke="black" points="23.1223,-291 23.1223,-323 149.122,-323 149.122,-291 23.1223,-291"/>
<text text-anchor="start" x="31.1223" y="-310" font-family="FreeSans" font-size="10.00">../../engine/VideoServices</text>
<text text-anchor="middle" x="86.1223" y="-298" font-family="FreeSans" font-size="10.00">/FontSpec.h</text>
</a>
</g>
<!-- Node1&#45;&gt;Node31 -->
<g id="edge94" class="edge"><title>Node1&#45;&gt;Node31</title>
<path fill="none" stroke="midnightblue" d="M686.832,-575.15C636.304,-568.793 561.255,-556.402 499.122,-534 347.381,-479.289 184.417,-374.218 117.509,-328.8"/>
<polygon fill="midnightblue" stroke="midnightblue" points="119.32,-325.799 109.087,-323.053 115.374,-331.581 119.32,-325.799"/>
</g>
<!-- Node32 -->
<g id="node81" class="node"><title>Node32</title>
<a xlink:href="_config_8h.html" target="_top" xlink:title="../../engine/Util/Config.h">
<polygon fill="none" stroke="black" points="489.122,-437 489.122,-457 605.122,-457 605.122,-437 489.122,-437"/>
<text text-anchor="middle" x="547.122" y="-444" font-family="FreeSans" font-size="10.00">../../engine/Util/Config.h</text>
</a>
</g>
<!-- Node1&#45;&gt;Node32 -->
<g id="edge98" class="edge"><title>Node1&#45;&gt;Node32</title>
<path fill="none" stroke="midnightblue" d="M686.74,-572.316C641.617,-564.332 583.698,-551.142 567.122,-534 549.931,-516.222 546.401,-486.805 546.18,-467.165"/>
<polygon fill="midnightblue" stroke="midnightblue" points="549.68,-467.201 546.343,-457.145 542.681,-467.087 549.68,-467.201"/>
</g>
<!-- Node38 -->
<g id="node97" class="node"><title>Node38</title>
<a xlink:href="_message_scene_8h.html" target="_top" xlink:title="MessageScene.h">
<polygon fill="none" stroke="black" points="698.122,-507 698.122,-527 790.122,-527 790.122,-507 698.122,-507"/>
<text text-anchor="middle" x="744.122" y="-514" font-family="FreeSans" font-size="10.00">MessageScene.h</text>
</a>
</g>
<!-- Node1&#45;&gt;Node38 -->
<g id="edge118" class="edge"><title>Node1&#45;&gt;Node38</title>
<path fill="none" stroke="midnightblue" d="M744.122,-570.717C744.122,-561.707 744.122,-548.347 744.122,-537.205"/>
<polygon fill="midnightblue" stroke="midnightblue" points="747.622,-537.046 744.122,-527.046 740.622,-537.046 747.622,-537.046"/>
</g>
<!-- Node43 -->
<g id="node110" class="node"><title>Node43</title>
<a xlink:href="_pause_menu_scene_8h.html" target="_top" xlink:title="PauseMenuScene.h">
<polygon fill="none" stroke="black" points="576.122,-507 576.122,-527 680.122,-527 680.122,-507 576.122,-507"/>
<text text-anchor="middle" x="628.122" y="-514" font-family="FreeSans" font-size="10.00">PauseMenuScene.h</text>
</a>
</g>
<!-- Node1&#45;&gt;Node43 -->
<g id="edge134" class="edge"><title>Node1&#45;&gt;Node43</title>
<path fill="none" stroke="midnightblue" d="M725.742,-570.859C706.821,-560.42 677.125,-544.036 655.451,-532.078"/>
<polygon fill="midnightblue" stroke="midnightblue" points="656.863,-528.86 646.417,-527.094 653.482,-534.989 656.863,-528.86"/>
</g>
<!-- Node4 -->
<g id="node7" class="node"><title>Node4</title>
<polygon fill="none" stroke="#bfbfbf" points="487.122,-175 487.122,-195 531.122,-195 531.122,-175 487.122,-175"/>
<text text-anchor="middle" x="509.122" y="-182" font-family="FreeSans" font-size="10.00">vector</text>
</g>
<!-- Node3&#45;&gt;Node4 -->
<g id="edge6" class="edge"><title>Node3&#45;&gt;Node4</title>
<path fill="none" stroke="midnightblue" d="M465.132,-360.96C473.827,-326.18 494.406,-243.866 504.014,-205.432"/>
<polygon fill="midnightblue" stroke="midnightblue" points="507.487,-205.971 506.517,-195.421 500.696,-204.273 507.487,-205.971"/>
</g>
<!-- Node5 -->
<g id="node9" class="node"><title>Node5</title>
<polygon fill="none" stroke="#bfbfbf" points="428.622,-175 428.622,-195 469.622,-195 469.622,-175 428.622,-175"/>
<text text-anchor="middle" x="449.122" y="-182" font-family="FreeSans" font-size="10.00">string</text>
</g>
<!-- Node3&#45;&gt;Node5 -->
<g id="edge8" class="edge"><title>Node3&#45;&gt;Node5</title>
<path fill="none" stroke="midnightblue" d="M460.133,-360.907C458.485,-334.149 455.07,-278.82 452.122,-232 451.571,-223.248 450.956,-213.58 450.426,-205.3"/>
<polygon fill="midnightblue" stroke="midnightblue" points="453.904,-204.84 449.771,-195.085 446.918,-205.288 453.904,-204.84"/>
</g>
<!-- Node6 -->
<g id="node11" class="node"><title>Node6</title>
<polygon fill="none" stroke="#bfbfbf" points="264.622,-297 264.622,-317 335.622,-317 335.622,-297 264.622,-297"/>
<text text-anchor="middle" x="300.122" y="-304" font-family="FreeSans" font-size="10.00">SDL2/SDL.h</text>
</g>
<!-- Node3&#45;&gt;Node6 -->
<g id="edge10" class="edge"><title>Node3&#45;&gt;Node6</title>
<path fill="none" stroke="midnightblue" d="M424.186,-360.941C396.569,-348.934 359.165,-332.671 332.668,-321.15"/>
<polygon fill="midnightblue" stroke="midnightblue" points="334.004,-317.915 323.438,-317.137 331.213,-324.334 334.004,-317.915"/>
</g>
<!-- Node7 -->
<g id="node13" class="node"><title>Node7</title>
<a xlink:href="_action_8h.html" target="_top" xlink:title="Action.h">
<polygon fill="none" stroke="black" points="353.122,-297 353.122,-317 405.122,-317 405.122,-297 353.122,-297"/>
<text text-anchor="middle" x="379.122" y="-304" font-family="FreeSans" font-size="10.00">Action.h</text>
</a>
</g>
<!-- Node3&#45;&gt;Node7 -->
<g id="edge12" class="edge"><title>Node3&#45;&gt;Node7</title>
<path fill="none" stroke="midnightblue" d="M442.104,-360.765C429.219,-349.765 412.221,-335.255 399.132,-324.082"/>
<polygon fill="midnightblue" stroke="midnightblue" points="401.056,-321.122 391.178,-317.291 396.511,-326.446 401.056,-321.122"/>
</g>
<!-- Node13 -->
<g id="node25" class="node"><title>Node13</title>
<a xlink:href="_control_action_8h.html" target="_top" xlink:title="ControlAction.h">
<polygon fill="none" stroke="black" points="360.622,-233 360.622,-253 443.622,-253 443.622,-233 360.622,-233"/>
<text text-anchor="middle" x="402.122" y="-240" font-family="FreeSans" font-size="10.00">ControlAction.h</text>
</a>
</g>
<!-- Node3&#45;&gt;Node13 -->
<g id="edge28" class="edge"><title>Node3&#45;&gt;Node13</title>
<path fill="none" stroke="midnightblue" d="M454.006,-360.836C443.129,-336.133 422.403,-289.061 410.708,-262.499"/>
<polygon fill="midnightblue" stroke="midnightblue" points="413.805,-260.847 406.572,-253.105 407.398,-263.668 413.805,-260.847"/>
</g>
<!-- Node8 -->
<g id="node15" class="node"><title>Node8</title>
<polygon fill="none" stroke="#bfbfbf" points="106.622,-233 106.622,-253 219.622,-253 219.622,-233 106.622,-233"/>
<text text-anchor="middle" x="163.122" y="-240" font-family="FreeSans" font-size="10.00">SDL2/SDL_keycode.h</text>
</g>
<!-- Node7&#45;&gt;Node8 -->
<g id="edge14" class="edge"><title>Node7&#45;&gt;Node8</title>
<path fill="none" stroke="midnightblue" d="M360.165,-296.947C355.045,-294.467 349.447,-291.962 344.122,-290 304.304,-275.325 257.961,-263.383 222.136,-255.209"/>
<polygon fill="midnightblue" stroke="midnightblue" points="222.848,-251.781 212.324,-253.004 221.314,-258.611 222.848,-251.781"/>
</g>
<!-- Node9 -->
<g id="node17" class="node"><title>Node9</title>
<polygon fill="none" stroke="#bfbfbf" points="237.122,-233 237.122,-253 343.122,-253 343.122,-233 237.122,-233"/>
<text text-anchor="middle" x="290.122" y="-240" font-family="FreeSans" font-size="10.00">SDL2/SDL_mouse.h</text>
</g>
<!-- Node7&#45;&gt;Node9 -->
<g id="edge16" class="edge"><title>Node7&#45;&gt;Node9</title>
<path fill="none" stroke="midnightblue" d="M364.823,-296.717C350.727,-286.581 328.975,-270.939 312.573,-259.144"/>
<polygon fill="midnightblue" stroke="midnightblue" points="314.255,-256.043 304.093,-253.046 310.168,-261.726 314.255,-256.043"/>
</g>
<!-- Node10 -->
<g id="node19" class="node"><title>Node10</title>
<a xlink:href="_vec_8h.html" target="_top" xlink:title="../Vec.h">
<polygon fill="none" stroke="black" points="816.622,-175 816.622,-195 865.622,-195 865.622,-175 816.622,-175"/>
<text text-anchor="middle" x="841.122" y="-182" font-family="FreeSans" font-size="10.00">../Vec.h</text>
</a>
</g>
<!-- Node7&#45;&gt;Node10 -->
<g id="edge18" class="edge"><title>Node7&#45;&gt;Node10</title>
<path fill="none" stroke="midnightblue" d="M405.457,-305.427C461.608,-301.489 596.738,-288.885 704.122,-254 745.358,-240.604 789.554,-216.34 816.267,-200.449"/>
<polygon fill="midnightblue" stroke="midnightblue" points="818.199,-203.372 824.954,-195.209 814.583,-197.378 818.199,-203.372"/>
</g>
<!-- Node11 -->
<g id="node21" class="node"><title>Node11</title>
<a xlink:href="_exception_8h.html" target="_top" xlink:title="../Exception.h">
<polygon fill="none" stroke="black" points="15.1223,-233 15.1223,-253 89.1223,-253 89.1223,-233 15.1223,-233"/>
<text text-anchor="middle" x="52.1223" y="-240" font-family="FreeSans" font-size="10.00">../Exception.h</text>
</a>
</g>
<!-- Node7&#45;&gt;Node11 -->
<g id="edge20" class="edge"><title>Node7&#45;&gt;Node11</title>
<path fill="none" stroke="midnightblue" d="M361.026,-296.906C355.715,-294.305 349.804,-291.75 344.122,-290 241.612,-258.432 208.563,-273.894 99.321,-254.066"/>
<polygon fill="midnightblue" stroke="midnightblue" points="99.6914,-250.574 89.2177,-252.172 98.4016,-257.454 99.6914,-250.574"/>
</g>
<!-- Node7&#45;&gt;Node13 -->
<g id="edge24" class="edge"><title>Node7&#45;&gt;Node13</title>
<path fill="none" stroke="midnightblue" d="M382.818,-296.717C386.123,-287.519 391.058,-273.789 395.11,-262.512"/>
<polygon fill="midnightblue" stroke="midnightblue" points="398.424,-263.641 398.512,-253.046 391.836,-261.273 398.424,-263.641"/>
</g>
<!-- Node12 -->
<g id="node23" class="node"><title>Node12</title>
<polygon fill="none" stroke="#bfbfbf" points="23.1223,-175 23.1223,-195 81.1223,-195 81.1223,-175 23.1223,-175"/>
<text text-anchor="middle" x="52.1223" y="-182" font-family="FreeSans" font-size="10.00">exception</text>
</g>
<!-- Node11&#45;&gt;Node12 -->
<g id="edge22" class="edge"><title>Node11&#45;&gt;Node12</title>
<path fill="none" stroke="midnightblue" d="M52.1223,-232.897C52.1223,-225.339 52.1223,-214.748 52.1223,-205.446"/>
<polygon fill="midnightblue" stroke="midnightblue" points="55.6224,-205.378 52.1223,-195.378 48.6224,-205.378 55.6224,-205.378"/>
</g>
<!-- Node13&#45;&gt;Node5 -->
<g id="edge26" class="edge"><title>Node13&#45;&gt;Node5</title>
<path fill="none" stroke="midnightblue" d="M410.309,-232.897C416.9,-224.764 426.337,-213.118 434.255,-203.347"/>
<polygon fill="midnightblue" stroke="midnightblue" points="437.136,-205.351 440.713,-195.378 431.698,-200.943 437.136,-205.351"/>
</g>
<!-- Node15 -->
<g id="node31" class="node"><title>Node15</title>
<a xlink:href="_click_region_8h.html" target="_top" xlink:title="ClickRegion.h">
<polygon fill="none" stroke="black" points="817.122,-437 817.122,-457 893.122,-457 893.122,-437 817.122,-437"/>
<text text-anchor="middle" x="855.122" y="-444" font-family="FreeSans" font-size="10.00">ClickRegion.h</text>
</a>
</g>
<!-- Node14&#45;&gt;Node15 -->
<g id="edge32" class="edge"><title>Node14&#45;&gt;Node15</title>
<path fill="none" stroke="midnightblue" d="M855.122,-500.765C855.122,-490.813 855.122,-477.987 855.122,-467.359"/>
<polygon fill="midnightblue" stroke="midnightblue" points="858.622,-467.291 855.122,-457.291 851.622,-467.291 858.622,-467.291"/>
</g>
<!-- Node16 -->
<g id="node33" class="node"><title>Node16</title>
<a xlink:href="_ui_view_model_8h.html" target="_top" xlink:title="UiViewModel.h">
<polygon fill="none" stroke="black" points="898.122,-367 898.122,-387 980.122,-387 980.122,-367 898.122,-367"/>
<text text-anchor="middle" x="939.122" y="-374" font-family="FreeSans" font-size="10.00">UiViewModel.h</text>
</a>
</g>
<!-- Node15&#45;&gt;Node16 -->
<g id="edge34" class="edge"><title>Node15&#45;&gt;Node16</title>
<path fill="none" stroke="midnightblue" d="M867.158,-436.971C880.756,-425.639 903.098,-407.021 919.285,-393.531"/>
<polygon fill="midnightblue" stroke="midnightblue" points="921.668,-396.101 927.11,-387.011 917.187,-390.724 921.668,-396.101"/>
</g>
<!-- Node16&#45;&gt;Node10 -->
<g id="edge40" class="edge"><title>Node16&#45;&gt;Node10</title>
<path fill="none" stroke="midnightblue" d="M923.26,-366.931C909.601,-357.456 890.365,-342.05 879.122,-324 855.536,-286.132 846.37,-233.572 842.98,-205.165"/>
<polygon fill="midnightblue" stroke="midnightblue" points="846.46,-204.79 841.915,-195.219 839.5,-205.535 846.46,-204.79"/>
</g>
<!-- Node17 -->
<g id="node35" class="node"><title>Node17</title>
<a xlink:href="_m_r___types_8h.html" target="_top" xlink:title="../Util/MR_Types.h">
<polygon fill="none" stroke="black" points="916.122,-59 916.122,-79 1012.12,-79 1012.12,-59 916.122,-59"/>
<text text-anchor="middle" x="964.122" y="-66" font-family="FreeSans" font-size="10.00">../Util/MR_Types.h</text>
</a>
</g>
<!-- Node16&#45;&gt;Node17 -->
<g id="edge36" class="edge"><title>Node16&#45;&gt;Node17</title>
<path fill="none" stroke="midnightblue" d="M933.109,-366.981C920.64,-345.227 893.122,-291.701 893.122,-243 893.122,-243 893.122,-243 893.122,-185 893.122,-145.044 924.145,-107.227 945.177,-86.1782"/>
<polygon fill="midnightblue" stroke="midnightblue" points="947.633,-88.6723 952.398,-79.2094 942.772,-83.6354 947.633,-88.6723"/>
</g>
<!-- Node19 -->
<g id="node40" class="node"><title>Node19</title>
<a xlink:href="_ui_layout_flags_8h.html" target="_top" xlink:title="UiLayoutFlags.h">
<polygon fill="none" stroke="black" points="920.622,-175 920.622,-195 1007.62,-195 1007.62,-175 920.622,-175"/>
<text text-anchor="middle" x="964.122" y="-182" font-family="FreeSans" font-size="10.00">UiLayoutFlags.h</text>
</a>
</g>
<!-- Node16&#45;&gt;Node19 -->
<g id="edge42" class="edge"><title>Node16&#45;&gt;Node19</title>
<path fill="none" stroke="midnightblue" d="M940.431,-366.948C944.362,-336.762 956.118,-246.476 961.445,-205.559"/>
<polygon fill="midnightblue" stroke="midnightblue" points="964.945,-205.787 962.766,-195.419 958.004,-204.883 964.945,-205.787"/>
</g>
<!-- Node20 -->
<g id="node43" class="node"><title>Node20</title>
<a xlink:href="_view_model_8h.html" target="_top" xlink:title="ViewModel.h">
<polygon fill="none" stroke="black" points="1053.12,-297 1053.12,-317 1125.12,-317 1125.12,-297 1053.12,-297"/>
<text text-anchor="middle" x="1089.12" y="-304" font-family="FreeSans" font-size="10.00">ViewModel.h</text>
</a>
</g>
<!-- Node16&#45;&gt;Node20 -->
<g id="edge46" class="edge"><title>Node16&#45;&gt;Node20</title>
<path fill="none" stroke="midnightblue" d="M960.614,-366.971C986.233,-355.015 1029.23,-334.949 1058.37,-321.352"/>
<polygon fill="midnightblue" stroke="midnightblue" points="1060.09,-324.411 1067.67,-317.011 1057.13,-318.068 1060.09,-324.411"/>
</g>
<!-- Node18 -->
<g id="node37" class="node"><title>Node18</title>
<polygon fill="none" stroke="#bfbfbf" points="935.122,-1 935.122,-21 993.122,-21 993.122,-1 935.122,-1"/>
<text text-anchor="middle" x="964.122" y="-8" font-family="FreeSans" font-size="10.00">inttypes.h</text>
</g>
<!-- Node17&#45;&gt;Node18 -->
<g id="edge38" class="edge"><title>Node17&#45;&gt;Node18</title>
<path fill="none" stroke="midnightblue" d="M964.122,-58.8972C964.122,-51.339 964.122,-40.7476 964.122,-31.4458"/>
<polygon fill="midnightblue" stroke="midnightblue" points="967.622,-31.3776 964.122,-21.3776 960.622,-31.3776 967.622,-31.3776"/>
</g>
<!-- Node19&#45;&gt;Node17 -->
<g id="edge44" class="edge"><title>Node19&#45;&gt;Node17</title>
<path fill="none" stroke="midnightblue" d="M964.122,-174.706C964.122,-155.568 964.122,-114.198 964.122,-89.2654"/>
<polygon fill="midnightblue" stroke="midnightblue" points="967.622,-89.1055 964.122,-79.1055 960.622,-89.1056 967.622,-89.1055"/>
</g>
<!-- Node20&#45;&gt;Node21 -->
<g id="edge48" class="edge"><title>Node20&#45;&gt;Node21</title>
<path fill="none" stroke="midnightblue" d="M1074.02,-296.717C1058.99,-286.487 1035.73,-270.649 1018.35,-258.817"/>
<polygon fill="midnightblue" stroke="midnightblue" points="1020.11,-255.781 1009.88,-253.046 1016.17,-261.567 1020.11,-255.781"/>
</g>
<!-- Node26 -->
<g id="node60" class="node"><title>Node26</title>
<a xlink:href="_view_attacher_8h.html" target="_top" xlink:title="ViewAttacher.h">
<polygon fill="none" stroke="black" points="1024.62,-175 1024.62,-195 1107.62,-195 1107.62,-175 1024.62,-175"/>
<text text-anchor="middle" x="1066.12" y="-182" font-family="FreeSans" font-size="10.00">ViewAttacher.h</text>
</a>
</g>
<!-- Node20&#45;&gt;Node26 -->
<g id="edge72" class="edge"><title>Node20&#45;&gt;Node26</title>
<path fill="none" stroke="midnightblue" d="M1092.49,-296.578C1096.71,-281.876 1102.65,-254.345 1096.12,-232 1093.13,-221.764 1087.16,-211.635 1081.33,-203.415"/>
<polygon fill="midnightblue" stroke="midnightblue" points="1084.03,-201.186 1075.2,-195.332 1078.45,-205.415 1084.03,-201.186"/>
</g>
<!-- Node27 -->
<g id="node62" class="node"><title>Node27</title>
<a xlink:href="_view_8h.html" target="_top" xlink:title="View.h">
<polygon fill="none" stroke="black" points="1041.12,-233 1041.12,-253 1087.12,-253 1087.12,-233 1041.12,-233"/>
<text text-anchor="middle" x="1064.12" y="-240" font-family="FreeSans" font-size="10.00">View.h</text>
</a>
</g>
<!-- Node20&#45;&gt;Node27 -->
<g id="edge70" class="edge"><title>Node20&#45;&gt;Node27</title>
<path fill="none" stroke="midnightblue" d="M1085.11,-296.717C1081.51,-287.519 1076.15,-273.789 1071.74,-262.512"/>
<polygon fill="midnightblue" stroke="midnightblue" points="1074.95,-261.087 1068.05,-253.046 1068.43,-263.634 1074.95,-261.087"/>
</g>
<!-- Node21&#45;&gt;Node10 -->
<g id="edge50" class="edge"><title>Node21&#45;&gt;Node10</title>
<path fill="none" stroke="midnightblue" d="M968.298,-232.897C942.473,-223.171 903.313,-208.422 875.274,-197.862"/>
<polygon fill="midnightblue" stroke="midnightblue" points="876.452,-194.566 865.86,-194.317 873.984,-201.117 876.452,-194.566"/>
</g>
<!-- Node21&#45;&gt;Node19 -->
<g id="edge66" class="edge"><title>Node21&#45;&gt;Node19</title>
<path fill="none" stroke="midnightblue" d="M989.723,-232.897C985.507,-225.01 979.527,-213.821 974.406,-204.24"/>
<polygon fill="midnightblue" stroke="midnightblue" points="977.47,-202.547 969.669,-195.378 971.296,-205.847 977.47,-202.547"/>
</g>
<!-- Node22 -->
<g id="node48" class="node"><title>Node22</title>
<a xlink:href="_ui_font_8h.html" target="_top" xlink:title="UiFont.h">
<polygon fill="none" stroke="black" points="1124.62,-175 1124.62,-195 1177.62,-195 1177.62,-175 1124.62,-175"/>
<text text-anchor="middle" x="1151.12" y="-182" font-family="FreeSans" font-size="10.00">UiFont.h</text>
</a>
</g>
<!-- Node21&#45;&gt;Node22 -->
<g id="edge52" class="edge"><title>Node21&#45;&gt;Node22</title>
<path fill="none" stroke="midnightblue" d="M1022.3,-232.897C1047.99,-223.345 1086.71,-208.949 1114.99,-198.434"/>
<polygon fill="midnightblue" stroke="midnightblue" points="1116.37,-201.656 1124.52,-194.89 1113.93,-195.095 1116.37,-201.656"/>
</g>
<!-- Node24 -->
<g id="node53" class="node"><title>Node24</title>
<a xlink:href="_color_8h.html" target="_top" xlink:title="Color.h">
<polygon fill="none" stroke="black" points="1194.62,-175 1194.62,-195 1241.62,-195 1241.62,-175 1194.62,-175"/>
<text text-anchor="middle" x="1218.12" y="-182" font-family="FreeSans" font-size="10.00">Color.h</text>
</a>
</g>
<!-- Node21&#45;&gt;Node24 -->
<g id="edge58" class="edge"><title>Node21&#45;&gt;Node24</title>
<path fill="none" stroke="midnightblue" d="M1023.36,-234.419C1026.31,-233.577 1029.27,-232.756 1032.12,-232 1097.01,-214.786 1116.81,-215.357 1184.56,-196.268"/>
<polygon fill="midnightblue" stroke="midnightblue" points="1185.79,-199.555 1194.44,-193.44 1183.87,-192.825 1185.79,-199.555"/>
</g>
<!-- Node21&#45;&gt;Node26 -->
<g id="edge68" class="edge"><title>Node21&#45;&gt;Node26</title>
<path fill="none" stroke="midnightblue" d="M1007.49,-232.897C1017.95,-224.353 1033.15,-211.933 1045.46,-201.881"/>
<polygon fill="midnightblue" stroke="midnightblue" points="1047.89,-204.415 1053.42,-195.378 1043.46,-198.994 1047.89,-204.415"/>
</g>
<!-- Node23 -->
<g id="node50" class="node"><title>Node23</title>
<a xlink:href="_sel_fmt_8h.html" target="_top" xlink:title="../Util/SelFmt.h">
<polygon fill="none" stroke="black" points="1073.62,-117 1073.62,-137 1154.62,-137 1154.62,-117 1073.62,-117"/>
<text text-anchor="middle" x="1114.12" y="-124" font-family="FreeSans" font-size="10.00">../Util/SelFmt.h</text>
</a>
</g>
<!-- Node22&#45;&gt;Node23 -->
<g id="edge54" class="edge"><title>Node22&#45;&gt;Node23</title>
<path fill="none" stroke="midnightblue" d="M1144.68,-174.897C1139.59,-166.928 1132.36,-155.587 1126.21,-145.941"/>
<polygon fill="midnightblue" stroke="midnightblue" points="1129.07,-143.926 1120.74,-137.378 1123.17,-147.691 1129.07,-143.926"/>
</g>
<!-- Node23&#45;&gt;Node17 -->
<g id="edge56" class="edge"><title>Node23&#45;&gt;Node17</title>
<path fill="none" stroke="midnightblue" d="M1087.99,-116.897C1063.55,-107.445 1026.83,-93.2486 999.718,-82.7635"/>
<polygon fill="midnightblue" stroke="midnightblue" points="1000.79,-79.4262 990.202,-79.0842 998.267,-85.9552 1000.79,-79.4262"/>
</g>
<!-- Node24&#45;&gt;Node17 -->
<g id="edge62" class="edge"><title>Node24&#45;&gt;Node17</title>
<path fill="none" stroke="midnightblue" d="M1212.9,-174.778C1204.54,-159.503 1186.67,-130.925 1163.12,-116 1139.98,-101.333 1072.39,-87.265 1022.37,-78.4066"/>
<polygon fill="midnightblue" stroke="midnightblue" points="1022.76,-74.921 1012.3,-76.6514 1021.55,-81.817 1022.76,-74.921"/>
</g>
<!-- Node24&#45;&gt;Node23 -->
<g id="edge64" class="edge"><title>Node24&#45;&gt;Node23</title>
<path fill="none" stroke="midnightblue" d="M1200.01,-174.897C1183.78,-165.846 1159.75,-152.444 1141.23,-142.117"/>
<polygon fill="midnightblue" stroke="midnightblue" points="1142.82,-138.996 1132.38,-137.182 1139.41,-145.109 1142.82,-138.996"/>
</g>
<!-- Node25 -->
<g id="node55" class="node"><title>Node25</title>
<polygon fill="none" stroke="#bfbfbf" points="1209.62,-117 1209.62,-137 1298.62,-137 1298.62,-117 1209.62,-117"/>
<text text-anchor="middle" x="1254.12" y="-124" font-family="FreeSans" font-size="10.00">boost/format.hpp</text>
</g>
<!-- Node24&#45;&gt;Node25 -->
<g id="edge60" class="edge"><title>Node24&#45;&gt;Node25</title>
<path fill="none" stroke="midnightblue" d="M1224.39,-174.897C1229.34,-166.928 1236.38,-155.587 1242.37,-145.941"/>
<polygon fill="midnightblue" stroke="midnightblue" points="1245.38,-147.72 1247.68,-137.378 1239.43,-144.028 1245.38,-147.72"/>
</g>
<!-- Node28&#45;&gt;Node16 -->
<g id="edge76" class="edge"><title>Node28&#45;&gt;Node16</title>
<path fill="none" stroke="midnightblue" d="M953.716,-430.765C950.986,-420.708 947.46,-407.717 944.557,-397.024"/>
<polygon fill="midnightblue" stroke="midnightblue" points="947.913,-396.025 941.916,-387.291 941.157,-397.859 947.913,-396.025"/>
</g>
<!-- Node29&#45;&gt;Node16 -->
<g id="edge86" class="edge"><title>Node29&#45;&gt;Node16</title>
<path fill="none" stroke="midnightblue" d="M1126.57,-432.834C1084.44,-420.286 1023.46,-402.12 982.605,-389.952"/>
<polygon fill="midnightblue" stroke="midnightblue" points="983.516,-386.572 972.933,-387.071 981.517,-393.28 983.516,-386.572"/>
</g>
<!-- Node29&#45;&gt;Node22 -->
<g id="edge84" class="edge"><title>Node29&#45;&gt;Node22</title>
<path fill="none" stroke="midnightblue" d="M1172.68,-430.611C1168.66,-384.777 1157.3,-255.362 1152.9,-205.209"/>
<polygon fill="midnightblue" stroke="midnightblue" points="1156.36,-204.665 1152,-195.009 1149.39,-205.277 1156.36,-204.665"/>
</g>
<!-- Node29&#45;&gt;Node24 -->
<g id="edge82" class="edge"><title>Node29&#45;&gt;Node24</title>
<path fill="none" stroke="midnightblue" d="M1176.87,-430.611C1184.59,-384.68 1206.4,-254.817 1214.78,-204.894"/>
<polygon fill="midnightblue" stroke="midnightblue" points="1218.24,-205.451 1216.44,-195.009 1211.33,-204.291 1218.24,-205.451"/>
</g>
<!-- Node30&#45;&gt;Node20 -->
<g id="edge92" class="edge"><title>Node30&#45;&gt;Node20</title>
<path fill="none" stroke="midnightblue" d="M1097.57,-360.765C1096.01,-350.813 1093.99,-337.987 1092.32,-327.359"/>
<polygon fill="midnightblue" stroke="midnightblue" points="1095.75,-326.627 1090.74,-317.291 1088.83,-327.713 1095.75,-326.627"/>
</g>
<!-- Node30&#45;&gt;Node24 -->
<g id="edge90" class="edge"><title>Node30&#45;&gt;Node24</title>
<path fill="none" stroke="midnightblue" d="M1110.65,-360.834C1117.43,-350.373 1126.38,-336.435 1134.12,-324 1160.67,-281.367 1190.94,-230.767 1206.9,-203.927"/>
<polygon fill="midnightblue" stroke="midnightblue" points="1210,-205.558 1212.1,-195.172 1203.99,-201.983 1210,-205.558"/>
</g>
<!-- Node31&#45;&gt;Node5 -->
<g id="edge96" class="edge"><title>Node31&#45;&gt;Node5</title>
<path fill="none" stroke="midnightblue" d="M48.2319,-290.864C19.0226,-276.216 -13.3575,-253.656 6.12235,-232 33.6701,-201.375 322.16,-189.172 418.21,-185.939"/>
<polygon fill="midnightblue" stroke="midnightblue" points="418.552,-189.43 428.432,-185.605 418.323,-182.434 418.552,-189.43"/>
</g>
<!-- Node32&#45;&gt;Node5 -->
<g id="edge100" class="edge"><title>Node32&#45;&gt;Node5</title>
<path fill="none" stroke="midnightblue" d="M543.739,-436.776C538.311,-420.47 527.24,-387.602 517.122,-360 496.361,-303.359 470.077,-237.149 457.107,-204.81"/>
<polygon fill="midnightblue" stroke="midnightblue" points="460.223,-203.178 453.247,-195.205 453.728,-205.789 460.223,-203.178"/>
</g>
<!-- Node33 -->
<g id="node84" class="node"><title>Node33</title>
<polygon fill="none" stroke="#bfbfbf" points="575.122,-367 575.122,-387 631.122,-387 631.122,-367 575.122,-367"/>
<text text-anchor="middle" x="603.122" y="-374" font-family="FreeSans" font-size="10.00">basedir.h</text>
</g>
<!-- Node32&#45;&gt;Node33 -->
<g id="edge102" class="edge"><title>Node32&#45;&gt;Node33</title>
<path fill="none" stroke="midnightblue" d="M555.146,-436.971C563.878,-426.055 578.021,-408.377 588.693,-395.037"/>
<polygon fill="midnightblue" stroke="midnightblue" points="591.6,-397.006 595.114,-387.011 586.134,-392.633 591.6,-397.006"/>
</g>
<!-- Node34 -->
<g id="node86" class="node"><title>Node34</title>
<a xlink:href="_o_s_8h.html" target="_top" xlink:title="OS.h">
<polygon fill="none" stroke="black" points="657.122,-233 657.122,-253 695.122,-253 695.122,-233 657.122,-233"/>
<text text-anchor="middle" x="676.122" y="-240" font-family="FreeSans" font-size="10.00">OS.h</text>
</a>
</g>
<!-- Node32&#45;&gt;Node34 -->
<g id="edge104" class="edge"><title>Node32&#45;&gt;Node34</title>
<path fill="none" stroke="midnightblue" d="M577.932,-436.858C598.539,-428.515 624.625,-414.666 640.122,-394 669.642,-354.634 675.367,-294.613 676.222,-263.423"/>
<polygon fill="midnightblue" stroke="midnightblue" points="679.723,-263.372 676.352,-253.328 672.723,-263.282 679.723,-263.372"/>
</g>
<!-- Node34&#45;&gt;Node4 -->
<g id="edge112" class="edge"><title>Node34&#45;&gt;Node4</title>
<path fill="none" stroke="midnightblue" d="M656.736,-236.357C631.988,-227.864 587.621,-212.598 540.571,-196.14"/>
<polygon fill="midnightblue" stroke="midnightblue" points="541.725,-192.836 531.13,-192.834 539.411,-199.443 541.725,-192.836"/>
</g>
<!-- Node34&#45;&gt;Node5 -->
<g id="edge110" class="edge"><title>Node34&#45;&gt;Node5</title>
<path fill="none" stroke="midnightblue" d="M657.066,-239.333C623.108,-232.619 549.786,-217.311 479.772,-196.265"/>
<polygon fill="midnightblue" stroke="midnightblue" points="480.506,-192.83 469.919,-193.258 478.462,-199.525 480.506,-192.83"/>
</g>
<!-- Node34&#45;&gt;Node17 -->
<g id="edge116" class="edge"><title>Node34&#45;&gt;Node17</title>
<path fill="none" stroke="midnightblue" d="M695.517,-233.782C718.902,-222.585 756.732,-204.18 770.122,-196 821.403,-164.673 828.502,-148.383 879.122,-116 897.171,-104.454 918.243,-92.7906 934.891,-83.9711"/>
<polygon fill="midnightblue" stroke="midnightblue" points="936.894,-86.8727 944.126,-79.1293 933.644,-80.6732 936.894,-86.8727"/>
</g>
<!-- Node35 -->
<g id="node88" class="node"><title>Node35</title>
<polygon fill="none" stroke="#bfbfbf" points="671.122,-175 671.122,-195 713.122,-195 713.122,-175 671.122,-175"/>
<text text-anchor="middle" x="692.122" y="-182" font-family="FreeSans" font-size="10.00">locale</text>
</g>
<!-- Node34&#45;&gt;Node35 -->
<g id="edge106" class="edge"><title>Node34&#45;&gt;Node35</title>
<path fill="none" stroke="midnightblue" d="M678.909,-232.897C681.017,-225.257 683.98,-214.517 686.566,-205.143"/>
<polygon fill="midnightblue" stroke="midnightblue" points="689.974,-205.948 689.26,-195.378 683.226,-204.087 689.974,-205.948"/>
</g>
<!-- Node36 -->
<g id="node90" class="node"><title>Node36</title>
<polygon fill="none" stroke="#bfbfbf" points="731.122,-175 731.122,-195 761.122,-195 761.122,-175 731.122,-175"/>
<text text-anchor="middle" x="746.122" y="-182" font-family="FreeSans" font-size="10.00">set</text>
</g>
<!-- Node34&#45;&gt;Node36 -->
<g id="edge108" class="edge"><title>Node34&#45;&gt;Node36</title>
<path fill="none" stroke="midnightblue" d="M688.315,-232.897C698.627,-224.353 713.617,-211.933 725.748,-201.881"/>
<polygon fill="midnightblue" stroke="midnightblue" points="728.13,-204.453 733.598,-195.378 723.664,-199.063 728.13,-204.453"/>
</g>
<!-- Node37 -->
<g id="node94" class="node"><title>Node37</title>
<polygon fill="none" stroke="#bfbfbf" points="548.622,-175 548.622,-195 653.622,-195 653.622,-175 548.622,-175"/>
<text text-anchor="middle" x="601.122" y="-182" font-family="FreeSans" font-size="10.00">boost/filesystem.hpp</text>
</g>
<!-- Node34&#45;&gt;Node37 -->
<g id="edge114" class="edge"><title>Node34&#45;&gt;Node37</title>
<path fill="none" stroke="midnightblue" d="M663.058,-232.897C651.835,-224.218 635.439,-211.538 622.336,-201.405"/>
<polygon fill="midnightblue" stroke="midnightblue" points="624.34,-198.53 614.288,-195.182 620.058,-204.068 624.34,-198.53"/>
</g>
<!-- Node38&#45;&gt;Node32 -->
<g id="edge120" class="edge"><title>Node38&#45;&gt;Node32</title>
<path fill="none" stroke="midnightblue" d="M715.897,-506.971C681.519,-494.755 623.312,-474.072 585.045,-460.475"/>
<polygon fill="midnightblue" stroke="midnightblue" points="585.89,-457.061 575.295,-457.011 583.546,-463.657 585.89,-457.061"/>
</g>
<!-- Node39 -->
<g id="node100" class="node"><title>Node39</title>
<a xlink:href="_game_director_8h.html" target="_top" xlink:title="GameDirector.h">
<polygon fill="none" stroke="black" points="715.122,-437 715.122,-457 799.122,-457 799.122,-437 715.122,-437"/>
<text text-anchor="middle" x="757.122" y="-444" font-family="FreeSans" font-size="10.00">GameDirector.h</text>
</a>
</g>
<!-- Node38&#45;&gt;Node39 -->
<g id="edge122" class="edge"><title>Node38&#45;&gt;Node39</title>
<path fill="none" stroke="midnightblue" d="M745.985,-506.971C747.916,-496.575 750.985,-480.045 753.414,-466.971"/>
<polygon fill="midnightblue" stroke="midnightblue" points="756.878,-467.482 755.263,-457.011 749.996,-466.203 756.878,-467.482"/>
</g>
<!-- Node40 -->
<g id="node102" class="node"><title>Node40</title>
<a xlink:href="_form_scene_8h.html" target="_top" xlink:title="FormScene.h">
<polygon fill="none" stroke="black" points="623.122,-437 623.122,-457 697.122,-457 697.122,-437 623.122,-437"/>
<text text-anchor="middle" x="660.122" y="-444" font-family="FreeSans" font-size="10.00">FormScene.h</text>
</a>
</g>
<!-- Node38&#45;&gt;Node40 -->
<g id="edge124" class="edge"><title>Node38&#45;&gt;Node40</title>
<path fill="none" stroke="midnightblue" d="M732.087,-506.971C718.489,-495.639 696.147,-477.021 679.96,-463.531"/>
<polygon fill="midnightblue" stroke="midnightblue" points="682.058,-460.724 672.135,-457.011 677.577,-466.101 682.058,-460.724"/>
</g>
<!-- Node40&#45;&gt;Node10 -->
<g id="edge126" class="edge"><title>Node40&#45;&gt;Node10</title>
<path fill="none" stroke="midnightblue" d="M683.075,-436.823C708.497,-425.175 747.329,-406.145 758.122,-394 808.615,-337.183 830.313,-245.901 837.81,-205.441"/>
<polygon fill="midnightblue" stroke="midnightblue" points="841.282,-205.902 839.559,-195.448 834.387,-204.694 841.282,-205.902"/>
</g>
<!-- Node41 -->
<g id="node105" class="node"><title>Node41</title>
<a xlink:href="_ui_scene_8h.html" target="_top" xlink:title="UiScene.h">
<polygon fill="none" stroke="black" points="687.122,-367 687.122,-387 749.122,-387 749.122,-367 687.122,-367"/>
<text text-anchor="middle" x="718.122" y="-374" font-family="FreeSans" font-size="10.00">UiScene.h</text>
</a>
</g>
<!-- Node40&#45;&gt;Node41 -->
<g id="edge128" class="edge"><title>Node40&#45;&gt;Node41</title>
<path fill="none" stroke="midnightblue" d="M668.432,-436.971C677.477,-426.055 692.124,-408.377 703.178,-395.037"/>
<polygon fill="midnightblue" stroke="midnightblue" points="706.143,-396.944 709.828,-387.011 700.752,-392.478 706.143,-396.944"/>
</g>
<!-- Node42 -->
<g id="node107" class="node"><title>Node42</title>
<a xlink:href="_scene_8h.html" target="_top" xlink:title="Scene.h">
<polygon fill="none" stroke="black" points="689.122,-297 689.122,-317 741.122,-317 741.122,-297 689.122,-297"/>
<text text-anchor="middle" x="715.122" y="-304" font-family="FreeSans" font-size="10.00">Scene.h</text>
</a>
</g>
<!-- Node41&#45;&gt;Node42 -->
<g id="edge130" class="edge"><title>Node41&#45;&gt;Node42</title>
<path fill="none" stroke="midnightblue" d="M717.693,-366.971C717.251,-356.679 716.553,-340.375 715.995,-327.364"/>
<polygon fill="midnightblue" stroke="midnightblue" points="719.476,-326.852 715.551,-317.011 712.483,-327.151 719.476,-326.852"/>
</g>
<!-- Node42&#45;&gt;Node34 -->
<g id="edge132" class="edge"><title>Node42&#45;&gt;Node34</title>
<path fill="none" stroke="midnightblue" d="M708.856,-296.717C703.137,-287.332 694.541,-273.226 687.594,-261.825"/>
<polygon fill="midnightblue" stroke="midnightblue" points="690.437,-259.764 682.244,-253.046 684.459,-263.407 690.437,-259.764"/>
</g>
<!-- Node43&#45;&gt;Node32 -->
<g id="edge136" class="edge"><title>Node43&#45;&gt;Node32</title>
<path fill="none" stroke="midnightblue" d="M616.517,-506.971C603.525,-495.743 582.255,-477.362 566.683,-463.904"/>
<polygon fill="midnightblue" stroke="midnightblue" points="568.561,-460.901 558.706,-457.011 563.984,-466.198 568.561,-460.901"/>
</g>
<!-- Node43&#45;&gt;Node39 -->
<g id="edge138" class="edge"><title>Node43&#45;&gt;Node39</title>
<path fill="none" stroke="midnightblue" d="M646.605,-506.971C668.35,-495.171 704.655,-475.471 729.686,-461.888"/>
<polygon fill="midnightblue" stroke="midnightblue" points="731.554,-464.856 738.674,-457.011 728.215,-458.704 731.554,-464.856"/>
</g>
<!-- Node43&#45;&gt;Node40 -->
<g id="edge140" class="edge"><title>Node43&#45;&gt;Node40</title>
<path fill="none" stroke="midnightblue" d="M632.707,-506.971C637.555,-496.367 645.319,-479.382 651.35,-466.19"/>
<polygon fill="midnightblue" stroke="midnightblue" points="654.572,-467.561 655.546,-457.011 648.205,-464.65 654.572,-467.561"/>
</g>
</g>
</svg>
