<?xml version="1.0" encoding="UTF-8" standalone="no"?>
<!DOCTYPE svg PUBLIC "-//W3C//DTD SVG 1.1//EN"
 "http://www.w3.org/Graphics/SVG/1.1/DTD/svg11.dtd">
<!-- Generated by graphviz version 2.26.3 (20100126.1600)
 -->
<!-- Title: PauseMenuScene.cpp Pages: 1 -->
<svg width="1347pt" height="600pt"
 viewBox="0.00 0.00 1347.47 600.00" xmlns="http://www.w3.org/2000/svg" xmlns:xlink="http://www.w3.org/1999/xlink">
<g id="graph1" class="graph" transform="scale(1 1) rotate(0) translate(4 596)">
<title>PauseMenuScene.cpp</title>
<!-- Node1 -->
<g id="node1" class="node"><title>Node1</title>
<polygon fill="#bfbfbf" stroke="black" points="752,-571 752,-591 866,-591 866,-571 752,-571"/>
<text text-anchor="middle" x="809" y="-578" font-family="FreeSans" font-size="10.00">PauseMenuScene.cpp</text>
</g>
<!-- Node2 -->
<g id="node3" class="node"><title>Node2</title>
<a xlink:href="_controller_8h.html" target="_top" xlink:title="../../engine/Control\l/Controller.h">
<polygon fill="none" stroke="black" points="412,-361 412,-393 506,-393 506,-361 412,-361"/>
<text text-anchor="start" x="420" y="-380" font-family="FreeSans" font-size="10.00">../../engine/Control</text>
<text text-anchor="middle" x="459" y="-368" font-family="FreeSans" font-size="10.00">/Controller.h</text>
</a>
</g>
<!-- Node1&#45;&gt;Node2 -->
<g id="edge2" class="edge"><title>Node1&#45;&gt;Node2</title>
<path fill="none" stroke="midnightblue" d="M751.831,-574.561C687.903,-566.637 588.996,-551.993 556,-534 518.46,-513.529 512.318,-500.472 490,-464 478.386,-445.021 470.255,-421.055 465.242,-403.085"/>
<polygon fill="midnightblue" stroke="midnightblue" points="468.59,-402.052 462.649,-393.28 461.823,-403.842 468.59,-402.052"/>
</g>
<!-- Node13 -->
<g id="node27" class="node"><title>Node13</title>
<a xlink:href="_button_8h.html" target="_top" xlink:title="../../engine/Display\l/Button.h">
<polygon fill="none" stroke="black" points="817.5,-501 817.5,-533 912.5,-533 912.5,-501 817.5,-501"/>
<text text-anchor="start" x="825.5" y="-520" font-family="FreeSans" font-size="10.00">../../engine/Display</text>
<text text-anchor="middle" x="865" y="-508" font-family="FreeSans" font-size="10.00">/Button.h</text>
</a>
</g>
<!-- Node1&#45;&gt;Node13 -->
<g id="edge28" class="edge"><title>Node1&#45;&gt;Node13</title>
<path fill="none" stroke="midnightblue" d="M817.997,-570.717C825.093,-562.608 835.271,-550.976 844.343,-540.608"/>
<polygon fill="midnightblue" stroke="midnightblue" points="847.044,-542.836 850.995,-533.005 841.776,-538.226 847.044,-542.836"/>
</g>
<!-- Node20 -->
<g id="node43" class="node"><title>Node20</title>
<a xlink:href="_display_8h.html" target="_top" xlink:title="Display.h">
<polygon fill="none" stroke="black" points="1072,-233 1072,-253 1128,-253 1128,-233 1072,-233"/>
<text text-anchor="middle" x="1100" y="-240" font-family="FreeSans" font-size="10.00">Display.h</text>
</a>
</g>
<!-- Node1&#45;&gt;Node20 -->
<g id="edge78" class="edge"><title>Node1&#45;&gt;Node20</title>
<path fill="none" stroke="midnightblue" d="M866.226,-574.181C929.315,-565.977 1026.23,-551.147 1059,-534 1098.26,-513.456 1112.9,-504.88 1130,-464 1159.22,-394.158 1126.3,-302.082 1109.12,-262.478"/>
<polygon fill="midnightblue" stroke="midnightblue" points="1112.23,-260.864 1104.95,-253.171 1105.85,-263.728 1112.23,-260.864"/>
</g>
<!-- Node27 -->
<g id="node63" class="node"><title>Node27</title>
<a xlink:href="_container_8h.html" target="_top" xlink:title="../../engine/Display\l/Container.h">
<polygon fill="none" stroke="black" points="929.5,-501 929.5,-533 1024.5,-533 1024.5,-501 929.5,-501"/>
<text text-anchor="start" x="937.5" y="-520" font-family="FreeSans" font-size="10.00">../../engine/Display</text>
<text text-anchor="middle" x="977" y="-508" font-family="FreeSans" font-size="10.00">/Container.h</text>
</a>
</g>
<!-- Node1&#45;&gt;Node27 -->
<g id="edge72" class="edge"><title>Node1&#45;&gt;Node27</title>
<path fill="none" stroke="midnightblue" d="M835.62,-570.859C859.664,-561.699 895.723,-547.962 925.406,-536.655"/>
<polygon fill="midnightblue" stroke="midnightblue" points="926.697,-539.908 934.796,-533.078 924.205,-533.367 926.697,-539.908"/>
</g>
<!-- Node29 -->
<g id="node69" class="node"><title>Node29</title>
<a xlink:href="_label_8h.html" target="_top" xlink:title="../../engine/Display\l/Label.h">
<polygon fill="none" stroke="black" points="1026.5,-431 1026.5,-463 1121.5,-463 1121.5,-431 1026.5,-431"/>
<text text-anchor="start" x="1034.5" y="-450" font-family="FreeSans" font-size="10.00">../../engine/Display</text>
<text text-anchor="middle" x="1074" y="-438" font-family="FreeSans" font-size="10.00">/Label.h</text>
</a>
</g>
<!-- Node1&#45;&gt;Node29 -->
<g id="edge80" class="edge"><title>Node1&#45;&gt;Node29</title>
<path fill="none" stroke="midnightblue" d="M866.146,-574.847C923.725,-567.64 1007.59,-554.075 1033,-534 1052.1,-518.909 1062.74,-492.789 1068.37,-473.097"/>
<polygon fill="midnightblue" stroke="midnightblue" points="1071.81,-473.762 1070.93,-463.203 1065.04,-472.005 1071.81,-473.762"/>
</g>
<!-- Node30 -->
<g id="node74" class="node"><title>Node30</title>
<a xlink:href="_screen_fade_8h.html" target="_top" xlink:title="../../engine/Display\l/ScreenFade.h">
<polygon fill="none" stroke="black" points="1241.5,-431 1241.5,-463 1336.5,-463 1336.5,-431 1241.5,-431"/>
<text text-anchor="start" x="1249.5" y="-450" font-family="FreeSans" font-size="10.00">../../engine/Display</text>
<text text-anchor="middle" x="1289" y="-438" font-family="FreeSans" font-size="10.00">/ScreenFade.h</text>
</a>
</g>
<!-- Node1&#45;&gt;Node30 -->
<g id="edge88" class="edge"><title>Node1&#45;&gt;Node30</title>
<path fill="none" stroke="midnightblue" d="M866.028,-576.695C951.921,-569.66 1110.07,-554.416 1163,-534 1201.55,-519.13 1239.74,-490.246 1263.79,-469.847"/>
<polygon fill="midnightblue" stroke="midnightblue" points="1266.1,-472.472 1271.38,-463.286 1261.53,-467.174 1266.1,-472.472"/>
</g>
<!-- Node32 -->
<g id="node80" class="node"><title>Node32</title>
<a xlink:href="_font_spec_8h.html" target="_top" xlink:title="../../engine/VideoServices\l/FontSpec.h">
<polygon fill="none" stroke="black" points="92,-291 92,-323 218,-323 218,-291 92,-291"/>
<text text-anchor="start" x="100" y="-310" font-family="FreeSans" font-size="10.00">../../engine/VideoServices</text>
<text text-anchor="middle" x="155" y="-298" font-family="FreeSans" font-size="10.00">/FontSpec.h</text>
</a>
</g>
<!-- Node1&#45;&gt;Node32 -->
<g id="edge96" class="edge"><title>Node1&#45;&gt;Node32</title>
<path fill="none" stroke="midnightblue" d="M751.688,-574.83C677.638,-566.37 553.115,-550.348 510,-534 375.369,-482.953 237.915,-376.22 181.558,-329.6"/>
<polygon fill="midnightblue" stroke="midnightblue" points="183.765,-326.883 173.842,-323.172 179.285,-332.262 183.765,-326.883"/>
</g>
<!-- Node33 -->
<g id="node83" class="node"><title>Node33</title>
<a xlink:href="_config_8h.html" target="_top" xlink:title="../../engine/Util/Config.h">
<polygon fill="none" stroke="black" points="499,-437 499,-457 615,-457 615,-437 499,-437"/>
<text text-anchor="middle" x="557" y="-444" font-family="FreeSans" font-size="10.00">../../engine/Util/Config.h</text>
</a>
</g>
<!-- Node1&#45;&gt;Node33 -->
<g id="edge100" class="edge"><title>Node1&#45;&gt;Node33</title>
<path fill="none" stroke="midnightblue" d="M751.924,-576.456C691.456,-570.46 601.395,-557.767 577,-534 559.286,-516.742 555.885,-487.197 555.835,-467.387"/>
<polygon fill="midnightblue" stroke="midnightblue" points="559.337,-467.356 556.097,-457.269 552.34,-467.175 559.337,-467.356"/>
</g>
<!-- Node39 -->
<g id="node99" class="node"><title>Node39</title>
<a xlink:href="_message_scene_8h.html" target="_top" xlink:title="MessageScene.h">
<polygon fill="none" stroke="black" points="708,-507 708,-527 800,-527 800,-507 708,-507"/>
<text text-anchor="middle" x="754" y="-514" font-family="FreeSans" font-size="10.00">MessageScene.h</text>
</a>
</g>
<!-- Node1&#45;&gt;Node39 -->
<g id="edge120" class="edge"><title>Node1&#45;&gt;Node39</title>
<path fill="none" stroke="midnightblue" d="M800.163,-570.717C791.855,-561.05 779.245,-546.376 769.302,-534.806"/>
<polygon fill="midnightblue" stroke="midnightblue" points="771.806,-532.349 762.633,-527.046 766.497,-536.912 771.806,-532.349"/>
</g>
<!-- Node44 -->
<g id="node112" class="node"><title>Node44</title>
<a xlink:href="_pause_menu_scene_8h.html" target="_top" xlink:title="PauseMenuScene.h">
<polygon fill="none" stroke="black" points="586,-507 586,-527 690,-527 690,-507 586,-507"/>
<text text-anchor="middle" x="638" y="-514" font-family="FreeSans" font-size="10.00">PauseMenuScene.h</text>
</a>
</g>
<!-- Node1&#45;&gt;Node44 -->
<g id="edge136" class="edge"><title>Node1&#45;&gt;Node44</title>
<path fill="none" stroke="midnightblue" d="M781.905,-570.859C752.887,-559.999 706.677,-542.704 674.477,-530.652"/>
<polygon fill="midnightblue" stroke="midnightblue" points="675.561,-527.321 664.969,-527.094 673.107,-533.877 675.561,-527.321"/>
</g>
<!-- Node3 -->
<g id="node5" class="node"><title>Node3</title>
<polygon fill="none" stroke="#bfbfbf" points="519,-175 519,-195 563,-195 563,-175 519,-175"/>
<text text-anchor="middle" x="541" y="-182" font-family="FreeSans" font-size="10.00">vector</text>
</g>
<!-- Node2&#45;&gt;Node3 -->
<g id="edge4" class="edge"><title>Node2&#45;&gt;Node3</title>
<path fill="none" stroke="midnightblue" d="M466.479,-360.819C471.279,-350.351 477.602,-336.412 483,-324 501.414,-281.663 522.017,-231.605 533.031,-204.616"/>
<polygon fill="midnightblue" stroke="midnightblue" points="536.352,-205.741 536.882,-195.16 529.869,-203.101 536.352,-205.741"/>
</g>
<!-- Node4 -->
<g id="node7" class="node"><title>Node4</title>
<polygon fill="none" stroke="#bfbfbf" points="460.5,-175 460.5,-195 501.5,-195 501.5,-175 460.5,-175"/>
<text text-anchor="middle" x="481" y="-182" font-family="FreeSans" font-size="10.00">string</text>
</g>
<!-- Node2&#45;&gt;Node4 -->
<g id="edge6" class="edge"><title>Node2&#45;&gt;Node4</title>
<path fill="none" stroke="midnightblue" d="M461.344,-360.712C464.677,-337.188 470.843,-292.321 475,-254 476.763,-237.75 478.345,-219.302 479.442,-205.572"/>
<polygon fill="midnightblue" stroke="midnightblue" points="482.955,-205.542 480.242,-195.301 475.976,-204.999 482.955,-205.542"/>
</g>
<!-- Node5 -->
<g id="node9" class="node"><title>Node5</title>
<polygon fill="none" stroke="#bfbfbf" points="287.5,-297 287.5,-317 358.5,-317 358.5,-297 287.5,-297"/>
<text text-anchor="middle" x="323" y="-304" font-family="FreeSans" font-size="10.00">SDL2/SDL.h</text>
</g>
<!-- Node2&#45;&gt;Node5 -->
<g id="edge8" class="edge"><title>Node2&#45;&gt;Node5</title>
<path fill="none" stroke="midnightblue" d="M427.799,-360.941C404.88,-349.144 373.981,-333.24 351.678,-321.761"/>
<polygon fill="midnightblue" stroke="midnightblue" points="353.188,-318.602 342.695,-317.137 349.985,-324.826 353.188,-318.602"/>
</g>
<!-- Node6 -->
<g id="node11" class="node"><title>Node6</title>
<a xlink:href="_action_8h.html" target="_top" xlink:title="Action.h">
<polygon fill="none" stroke="black" points="376,-297 376,-317 428,-317 428,-297 376,-297"/>
<text text-anchor="middle" x="402" y="-304" font-family="FreeSans" font-size="10.00">Action.h</text>
</a>
</g>
<!-- Node2&#45;&gt;Node6 -->
<g id="edge10" class="edge"><title>Node2&#45;&gt;Node6</title>
<path fill="none" stroke="midnightblue" d="M445.78,-360.765C437.079,-350.079 425.681,-336.082 416.696,-325.047"/>
<polygon fill="midnightblue" stroke="midnightblue" points="419.408,-322.836 410.38,-317.291 413.98,-327.256 419.408,-322.836"/>
</g>
<!-- Node12 -->
<g id="node23" class="node"><title>Node12</title>
<a xlink:href="_control_action_8h.html" target="_top" xlink:title="ControlAction.h">
<polygon fill="none" stroke="black" points="383.5,-233 383.5,-253 466.5,-253 466.5,-233 383.5,-233"/>
<text text-anchor="middle" x="425" y="-240" font-family="FreeSans" font-size="10.00">ControlAction.h</text>
</a>
</g>
<!-- Node2&#45;&gt;Node12 -->
<g id="edge26" class="edge"><title>Node2&#45;&gt;Node12</title>
<path fill="none" stroke="midnightblue" d="M454.956,-360.962C450.551,-343.504 443.292,-314.764 437,-290 434.75,-281.147 432.253,-271.358 430.121,-263.016"/>
<polygon fill="midnightblue" stroke="midnightblue" points="433.45,-261.905 427.582,-253.083 426.668,-263.639 433.45,-261.905"/>
</g>
<!-- Node7 -->
<g id="node13" class="node"><title>Node7</title>
<polygon fill="none" stroke="#bfbfbf" points="129.5,-233 129.5,-253 242.5,-253 242.5,-233 129.5,-233"/>
<text text-anchor="middle" x="186" y="-240" font-family="FreeSans" font-size="10.00">SDL2/SDL_keycode.h</text>
</g>
<!-- Node6&#45;&gt;Node7 -->
<g id="edge12" class="edge"><title>Node6&#45;&gt;Node7</title>
<path fill="none" stroke="midnightblue" d="M383.042,-296.947C377.923,-294.467 372.324,-291.962 367,-290 327.182,-275.325 280.838,-263.383 245.013,-255.209"/>
<polygon fill="midnightblue" stroke="midnightblue" points="245.726,-251.781 235.202,-253.004 244.191,-258.611 245.726,-251.781"/>
</g>
<!-- Node8 -->
<g id="node15" class="node"><title>Node8</title>
<polygon fill="none" stroke="#bfbfbf" points="260,-233 260,-253 366,-253 366,-233 260,-233"/>
<text text-anchor="middle" x="313" y="-240" font-family="FreeSans" font-size="10.00">SDL2/SDL_mouse.h</text>
</g>
<!-- Node6&#45;&gt;Node8 -->
<g id="edge14" class="edge"><title>Node6&#45;&gt;Node8</title>
<path fill="none" stroke="midnightblue" d="M387.701,-296.717C373.604,-286.581 351.853,-270.939 335.45,-259.144"/>
<polygon fill="midnightblue" stroke="midnightblue" points="337.133,-256.043 326.97,-253.046 333.046,-261.726 337.133,-256.043"/>
</g>
<!-- Node9 -->
<g id="node17" class="node"><title>Node9</title>
<a xlink:href="_vec_8h.html" target="_top" xlink:title="../Vec.h">
<polygon fill="none" stroke="black" points="854.5,-175 854.5,-195 903.5,-195 903.5,-175 854.5,-175"/>
<text text-anchor="middle" x="879" y="-182" font-family="FreeSans" font-size="10.00">../Vec.h</text>
</a>
</g>
<!-- Node6&#45;&gt;Node9 -->
<g id="edge16" class="edge"><title>Node6&#45;&gt;Node9</title>
<path fill="none" stroke="midnightblue" d="M428.158,-304.514C482.081,-298.958 609.168,-283.633 712,-254 761.933,-239.611 817.168,-214.953 849.937,-199.341"/>
<polygon fill="midnightblue" stroke="midnightblue" points="851.464,-202.49 858.957,-195 848.429,-196.182 851.464,-202.49"/>
</g>
<!-- Node10 -->
<g id="node19" class="node"><title>Node10</title>
<a xlink:href="_exception_8h.html" target="_top" xlink:title="../Exception.h">
<polygon fill="none" stroke="black" points="0,-233 0,-253 74,-253 74,-233 0,-233"/>
<text text-anchor="middle" x="37" y="-240" font-family="FreeSans" font-size="10.00">../Exception.h</text>
</a>
</g>
<!-- Node6&#45;&gt;Node10 -->
<g id="edge18" class="edge"><title>Node6&#45;&gt;Node10</title>
<path fill="none" stroke="midnightblue" d="M383.908,-296.892C378.597,-294.291 372.685,-291.739 367,-290 353.626,-285.909 172.219,-261.189 84.2227,-249.333"/>
<polygon fill="midnightblue" stroke="midnightblue" points="84.6034,-245.853 74.2259,-247.987 83.6696,-252.79 84.6034,-245.853"/>
</g>
<!-- Node6&#45;&gt;Node12 -->
<g id="edge22" class="edge"><title>Node6&#45;&gt;Node12</title>
<path fill="none" stroke="midnightblue" d="M405.695,-296.717C409.001,-287.519 413.935,-273.789 417.988,-262.512"/>
<polygon fill="midnightblue" stroke="midnightblue" points="421.301,-263.641 421.39,-253.046 414.714,-261.273 421.301,-263.641"/>
</g>
<!-- Node11 -->
<g id="node21" class="node"><title>Node11</title>
<polygon fill="none" stroke="#bfbfbf" points="8,-175 8,-195 66,-195 66,-175 8,-175"/>
<text text-anchor="middle" x="37" y="-182" font-family="FreeSans" font-size="10.00">exception</text>
</g>
<!-- Node10&#45;&gt;Node11 -->
<g id="edge20" class="edge"><title>Node10&#45;&gt;Node11</title>
<path fill="none" stroke="midnightblue" d="M37,-232.897C37,-225.339 37,-214.748 37,-205.446"/>
<polygon fill="midnightblue" stroke="midnightblue" points="40.5001,-205.378 37,-195.378 33.5001,-205.378 40.5001,-205.378"/>
</g>
<!-- Node12&#45;&gt;Node4 -->
<g id="edge24" class="edge"><title>Node12&#45;&gt;Node4</title>
<path fill="none" stroke="midnightblue" d="M434.754,-232.897C442.766,-224.6 454.307,-212.646 463.855,-202.757"/>
<polygon fill="midnightblue" stroke="midnightblue" points="466.552,-205.003 470.98,-195.378 461.516,-200.141 466.552,-205.003"/>
</g>
<!-- Node14 -->
<g id="node29" class="node"><title>Node14</title>
<a xlink:href="_click_region_8h.html" target="_top" xlink:title="ClickRegion.h">
<polygon fill="none" stroke="black" points="827,-437 827,-457 903,-457 903,-437 827,-437"/>
<text text-anchor="middle" x="865" y="-444" font-family="FreeSans" font-size="10.00">ClickRegion.h</text>
</a>
</g>
<!-- Node13&#45;&gt;Node14 -->
<g id="edge30" class="edge"><title>Node13&#45;&gt;Node14</title>
<path fill="none" stroke="midnightblue" d="M865,-500.765C865,-490.813 865,-477.987 865,-467.359"/>
<polygon fill="midnightblue" stroke="midnightblue" points="868.5,-467.291 865,-457.291 861.5,-467.291 868.5,-467.291"/>
</g>
<!-- Node15 -->
<g id="node31" class="node"><title>Node15</title>
<a xlink:href="_ui_view_model_8h.html" target="_top" xlink:title="UiViewModel.h">
<polygon fill="none" stroke="black" points="924,-367 924,-387 1006,-387 1006,-367 924,-367"/>
<text text-anchor="middle" x="965" y="-374" font-family="FreeSans" font-size="10.00">UiViewModel.h</text>
</a>
</g>
<!-- Node14&#45;&gt;Node15 -->
<g id="edge32" class="edge"><title>Node14&#45;&gt;Node15</title>
<path fill="none" stroke="midnightblue" d="M879.328,-436.971C895.813,-425.431 923.093,-406.335 942.437,-392.794"/>
<polygon fill="midnightblue" stroke="midnightblue" points="944.514,-395.613 950.699,-387.011 940.5,-389.878 944.514,-395.613"/>
</g>
<!-- Node15&#45;&gt;Node9 -->
<g id="edge38" class="edge"><title>Node15&#45;&gt;Node9</title>
<path fill="none" stroke="midnightblue" d="M953.579,-366.702C943.168,-356.73 928.071,-340.703 919,-324 897.829,-285.016 886.829,-233.643 882.044,-205.544"/>
<polygon fill="midnightblue" stroke="midnightblue" points="885.449,-204.669 880.41,-195.349 878.537,-205.777 885.449,-204.669"/>
</g>
<!-- Node16 -->
<g id="node33" class="node"><title>Node16</title>
<a xlink:href="_m_r___types_8h.html" target="_top" xlink:title="../Util/MR_Types.h">
<polygon fill="none" stroke="black" points="956,-59 956,-79 1052,-79 1052,-59 956,-59"/>
<text text-anchor="middle" x="1004" y="-66" font-family="FreeSans" font-size="10.00">../Util/MR_Types.h</text>
</a>
</g>
<!-- Node15&#45;&gt;Node16 -->
<g id="edge34" class="edge"><title>Node15&#45;&gt;Node16</title>
<path fill="none" stroke="midnightblue" d="M960.817,-366.775C952.143,-344.619 933,-290.358 933,-243 933,-243 933,-243 933,-185 933,-145.044 964.022,-107.227 985.055,-86.1782"/>
<polygon fill="midnightblue" stroke="midnightblue" points="987.511,-88.6723 992.276,-79.2094 982.65,-83.6354 987.511,-88.6723"/>
</g>
<!-- Node18 -->
<g id="node38" class="node"><title>Node18</title>
<a xlink:href="_ui_layout_flags_8h.html" target="_top" xlink:title="UiLayoutFlags.h">
<polygon fill="none" stroke="black" points="960.5,-175 960.5,-195 1047.5,-195 1047.5,-175 960.5,-175"/>
<text text-anchor="middle" x="1004" y="-182" font-family="FreeSans" font-size="10.00">UiLayoutFlags.h</text>
</a>
</g>
<!-- Node15&#45;&gt;Node18 -->
<g id="edge40" class="edge"><title>Node15&#45;&gt;Node18</title>
<path fill="none" stroke="midnightblue" d="M967.042,-366.948C973.187,-336.697 991.591,-246.09 999.877,-205.298"/>
<polygon fill="midnightblue" stroke="midnightblue" points="1003.32,-205.915 1001.88,-195.419 996.463,-204.522 1003.32,-205.915"/>
</g>
<!-- Node19 -->
<g id="node41" class="node"><title>Node19</title>
<a xlink:href="_view_model_8h.html" target="_top" xlink:title="ViewModel.h">
<polygon fill="none" stroke="black" points="1158,-297 1158,-317 1230,-317 1230,-297 1158,-297"/>
<text text-anchor="middle" x="1194" y="-304" font-family="FreeSans" font-size="10.00">ViewModel.h</text>
</a>
</g>
<!-- Node15&#45;&gt;Node19 -->
<g id="edge44" class="edge"><title>Node15&#45;&gt;Node19</title>
<path fill="none" stroke="midnightblue" d="M997.81,-366.971C1038.28,-354.599 1107.17,-333.543 1151.61,-319.958"/>
<polygon fill="midnightblue" stroke="midnightblue" points="1152.71,-323.281 1161.25,-317.011 1150.66,-316.587 1152.71,-323.281"/>
</g>
<!-- Node17 -->
<g id="node35" class="node"><title>Node17</title>
<polygon fill="none" stroke="#bfbfbf" points="975,-1 975,-21 1033,-21 1033,-1 975,-1"/>
<text text-anchor="middle" x="1004" y="-8" font-family="FreeSans" font-size="10.00">inttypes.h</text>
</g>
<!-- Node16&#45;&gt;Node17 -->
<g id="edge36" class="edge"><title>Node16&#45;&gt;Node17</title>
<path fill="none" stroke="midnightblue" d="M1004,-58.8972C1004,-51.339 1004,-40.7476 1004,-31.4458"/>
<polygon fill="midnightblue" stroke="midnightblue" points="1007.5,-31.3776 1004,-21.3776 1000.5,-31.3776 1007.5,-31.3776"/>
</g>
<!-- Node18&#45;&gt;Node16 -->
<g id="edge42" class="edge"><title>Node18&#45;&gt;Node16</title>
<path fill="none" stroke="midnightblue" d="M1004,-174.706C1004,-155.568 1004,-114.198 1004,-89.2654"/>
<polygon fill="midnightblue" stroke="midnightblue" points="1007.5,-89.1055 1004,-79.1055 1000.5,-89.1056 1007.5,-89.1055"/>
</g>
<!-- Node19&#45;&gt;Node20 -->
<g id="edge46" class="edge"><title>Node19&#45;&gt;Node20</title>
<path fill="none" stroke="midnightblue" d="M1178.9,-296.717C1163.87,-286.487 1140.61,-270.649 1123.23,-258.817"/>
<polygon fill="midnightblue" stroke="midnightblue" points="1124.99,-255.781 1114.76,-253.046 1121.05,-261.567 1124.99,-255.781"/>
</g>
<!-- Node25 -->
<g id="node58" class="node"><title>Node25</title>
<a xlink:href="_view_attacher_8h.html" target="_top" xlink:title="ViewAttacher.h">
<polygon fill="none" stroke="black" points="1134.5,-175 1134.5,-195 1217.5,-195 1217.5,-175 1134.5,-175"/>
<text text-anchor="middle" x="1176" y="-182" font-family="FreeSans" font-size="10.00">ViewAttacher.h</text>
</a>
</g>
<!-- Node19&#45;&gt;Node25 -->
<g id="edge70" class="edge"><title>Node19&#45;&gt;Node25</title>
<path fill="none" stroke="midnightblue" d="M1197.12,-296.645C1201.05,-282.023 1206.63,-254.586 1201,-232 1198.53,-222.096 1193.54,-211.991 1188.66,-203.7"/>
<polygon fill="midnightblue" stroke="midnightblue" points="1191.62,-201.832 1183.34,-195.219 1185.69,-205.551 1191.62,-201.832"/>
</g>
<!-- Node26 -->
<g id="node60" class="node"><title>Node26</title>
<a xlink:href="_view_8h.html" target="_top" xlink:title="View.h">
<polygon fill="none" stroke="black" points="1146,-233 1146,-253 1192,-253 1192,-233 1146,-233"/>
<text text-anchor="middle" x="1169" y="-240" font-family="FreeSans" font-size="10.00">View.h</text>
</a>
</g>
<!-- Node19&#45;&gt;Node26 -->
<g id="edge68" class="edge"><title>Node19&#45;&gt;Node26</title>
<path fill="none" stroke="midnightblue" d="M1189.98,-296.717C1186.39,-287.519 1181.03,-273.789 1176.62,-262.512"/>
<polygon fill="midnightblue" stroke="midnightblue" points="1179.82,-261.087 1172.92,-253.046 1173.3,-263.634 1179.82,-261.087"/>
</g>
<!-- Node20&#45;&gt;Node9 -->
<g id="edge48" class="edge"><title>Node20&#45;&gt;Node9</title>
<path fill="none" stroke="midnightblue" d="M1071.56,-235.536C1031.09,-224.914 956.968,-205.462 913.439,-194.038"/>
<polygon fill="midnightblue" stroke="midnightblue" points="914.153,-190.607 903.592,-191.454 912.376,-197.378 914.153,-190.607"/>
</g>
<!-- Node20&#45;&gt;Node18 -->
<g id="edge64" class="edge"><title>Node20&#45;&gt;Node18</title>
<path fill="none" stroke="midnightblue" d="M1083.28,-232.897C1068.5,-223.97 1046.72,-210.811 1029.73,-200.543"/>
<polygon fill="midnightblue" stroke="midnightblue" points="1031.22,-197.357 1020.85,-195.182 1027.6,-203.349 1031.22,-197.357"/>
</g>
<!-- Node21 -->
<g id="node46" class="node"><title>Node21</title>
<a xlink:href="_ui_font_8h.html" target="_top" xlink:title="UiFont.h">
<polygon fill="none" stroke="black" points="1064.5,-175 1064.5,-195 1117.5,-195 1117.5,-175 1064.5,-175"/>
<text text-anchor="middle" x="1091" y="-182" font-family="FreeSans" font-size="10.00">UiFont.h</text>
</a>
</g>
<!-- Node20&#45;&gt;Node21 -->
<g id="edge50" class="edge"><title>Node20&#45;&gt;Node21</title>
<path fill="none" stroke="midnightblue" d="M1098.43,-232.897C1097.26,-225.339 1095.62,-214.748 1094.17,-205.446"/>
<polygon fill="midnightblue" stroke="midnightblue" points="1097.6,-204.723 1092.61,-195.378 1090.69,-205.796 1097.6,-204.723"/>
</g>
<!-- Node23 -->
<g id="node51" class="node"><title>Node23</title>
<a xlink:href="_color_8h.html" target="_top" xlink:title="Color.h">
<polygon fill="none" stroke="black" points="1234.5,-175 1234.5,-195 1281.5,-195 1281.5,-175 1234.5,-175"/>
<text text-anchor="middle" x="1258" y="-182" font-family="FreeSans" font-size="10.00">Color.h</text>
</a>
</g>
<!-- Node20&#45;&gt;Node23 -->
<g id="edge56" class="edge"><title>Node20&#45;&gt;Node23</title>
<path fill="none" stroke="midnightblue" d="M1127.52,-232.897C1154.57,-222.968 1195.88,-207.804 1224.75,-197.206"/>
<polygon fill="midnightblue" stroke="midnightblue" points="1226.22,-200.395 1234.4,-193.664 1223.81,-193.824 1226.22,-200.395"/>
</g>
<!-- Node20&#45;&gt;Node25 -->
<g id="edge66" class="edge"><title>Node20&#45;&gt;Node25</title>
<path fill="none" stroke="midnightblue" d="M1113.24,-232.897C1124.61,-224.218 1141.23,-211.538 1154.5,-201.405"/>
<polygon fill="midnightblue" stroke="midnightblue" points="1156.83,-204.031 1162.66,-195.182 1152.59,-198.466 1156.83,-204.031"/>
</g>
<!-- Node22 -->
<g id="node48" class="node"><title>Node22</title>
<a xlink:href="_sel_fmt_8h.html" target="_top" xlink:title="../Util/SelFmt.h">
<polygon fill="none" stroke="black" points="1050.5,-117 1050.5,-137 1131.5,-137 1131.5,-117 1050.5,-117"/>
<text text-anchor="middle" x="1091" y="-124" font-family="FreeSans" font-size="10.00">../Util/SelFmt.h</text>
</a>
</g>
<!-- Node21&#45;&gt;Node22 -->
<g id="edge52" class="edge"><title>Node21&#45;&gt;Node22</title>
<path fill="none" stroke="midnightblue" d="M1091,-174.897C1091,-167.339 1091,-156.748 1091,-147.446"/>
<polygon fill="midnightblue" stroke="midnightblue" points="1094.5,-147.378 1091,-137.378 1087.5,-147.378 1094.5,-147.378"/>
</g>
<!-- Node22&#45;&gt;Node16 -->
<g id="edge54" class="edge"><title>Node22&#45;&gt;Node16</title>
<path fill="none" stroke="midnightblue" d="M1075.85,-116.897C1062.58,-108.052 1043.08,-95.0539 1027.74,-84.829"/>
<polygon fill="midnightblue" stroke="midnightblue" points="1029.53,-81.8165 1019.27,-79.1817 1025.65,-87.6409 1029.53,-81.8165"/>
</g>
<!-- Node23&#45;&gt;Node16 -->
<g id="edge60" class="edge"><title>Node23&#45;&gt;Node16</title>
<path fill="none" stroke="midnightblue" d="M1242.87,-174.844C1220.91,-160.409 1178.6,-133.744 1140,-116 1110.39,-102.385 1075.63,-90.4389 1048.67,-81.9978"/>
<polygon fill="midnightblue" stroke="midnightblue" points="1049.7,-78.6529 1039.11,-79.0499 1047.63,-85.3419 1049.7,-78.6529"/>
</g>
<!-- Node23&#45;&gt;Node22 -->
<g id="edge62" class="edge"><title>Node23&#45;&gt;Node22</title>
<path fill="none" stroke="midnightblue" d="M1234.43,-176.813C1207.21,-167.361 1162.05,-151.675 1129.67,-140.43"/>
<polygon fill="midnightblue" stroke="midnightblue" points="1130.66,-137.069 1120.06,-137.094 1128.36,-143.681 1130.66,-137.069"/>
</g>
<!-- Node24 -->
<g id="node53" class="node"><title>Node24</title>
<polygon fill="none" stroke="#bfbfbf" points="1213.5,-117 1213.5,-137 1302.5,-137 1302.5,-117 1213.5,-117"/>
<text text-anchor="middle" x="1258" y="-124" font-family="FreeSans" font-size="10.00">boost/format.hpp</text>
</g>
<!-- Node23&#45;&gt;Node24 -->
<g id="edge58" class="edge"><title>Node23&#45;&gt;Node24</title>
<path fill="none" stroke="midnightblue" d="M1258,-174.897C1258,-167.339 1258,-156.748 1258,-147.446"/>
<polygon fill="midnightblue" stroke="midnightblue" points="1261.5,-147.378 1258,-137.378 1254.5,-147.378 1261.5,-147.378"/>
</g>
<!-- Node28 -->
<g id="node65" class="node"><title>Node28</title>
<a xlink:href="_base_container_8h.html" target="_top" xlink:title="BaseContainer.h">
<polygon fill="none" stroke="black" points="921,-437 921,-457 1009,-457 1009,-437 921,-437"/>
<text text-anchor="middle" x="965" y="-444" font-family="FreeSans" font-size="10.00">BaseContainer.h</text>
</a>
</g>
<!-- Node27&#45;&gt;Node28 -->
<g id="edge74" class="edge"><title>Node27&#45;&gt;Node28</title>
<path fill="none" stroke="midnightblue" d="M974.217,-500.765C972.511,-490.813 970.312,-477.987 968.49,-467.359"/>
<polygon fill="midnightblue" stroke="midnightblue" points="971.904,-466.556 966.764,-457.291 965.004,-467.739 971.904,-466.556"/>
</g>
<!-- Node28&#45;&gt;Node15 -->
<g id="edge76" class="edge"><title>Node28&#45;&gt;Node15</title>
<path fill="none" stroke="midnightblue" d="M965,-436.971C965,-426.679 965,-410.375 965,-397.364"/>
<polygon fill="midnightblue" stroke="midnightblue" points="968.5,-397.011 965,-387.011 961.5,-397.011 968.5,-397.011"/>
</g>
<!-- Node29&#45;&gt;Node15 -->
<g id="edge86" class="edge"><title>Node29&#45;&gt;Node15</title>
<path fill="none" stroke="midnightblue" d="M1048.99,-430.941C1031.12,-419.46 1007.18,-404.089 989.436,-392.693"/>
<polygon fill="midnightblue" stroke="midnightblue" points="991.091,-389.596 980.785,-387.137 987.308,-395.486 991.091,-389.596"/>
</g>
<!-- Node29&#45;&gt;Node21 -->
<g id="edge84" class="edge"><title>Node29&#45;&gt;Node21</title>
<path fill="none" stroke="midnightblue" d="M1069.8,-430.983C1061.03,-394.756 1043.16,-304.069 1063,-232 1065.78,-221.887 1071.38,-211.752 1076.84,-203.497"/>
<polygon fill="midnightblue" stroke="midnightblue" points="1079.88,-205.263 1082.79,-195.076 1074.16,-201.223 1079.88,-205.263"/>
</g>
<!-- Node29&#45;&gt;Node23 -->
<g id="edge82" class="edge"><title>Node29&#45;&gt;Node23</title>
<path fill="none" stroke="midnightblue" d="M1110.02,-430.847C1148.79,-411.415 1208.95,-374.929 1239,-324 1261.07,-286.591 1261.61,-233.851 1259.91,-205.291"/>
<polygon fill="midnightblue" stroke="midnightblue" points="1263.4,-204.998 1259.16,-195.289 1256.42,-205.523 1263.4,-204.998"/>
</g>
<!-- Node30&#45;&gt;Node23 -->
<g id="edge90" class="edge"><title>Node30&#45;&gt;Node23</title>
<path fill="none" stroke="midnightblue" d="M1309.29,-430.63C1319.39,-421.138 1330.59,-408.258 1336,-394 1341.36,-379.872 1339.14,-374.78 1336,-360 1323.19,-299.817 1288.17,-235.237 1269.72,-204.037"/>
<polygon fill="midnightblue" stroke="midnightblue" points="1272.52,-201.894 1264.36,-195.128 1266.52,-205.501 1272.52,-201.894"/>
</g>
<!-- Node31 -->
<g id="node77" class="node"><title>Node31</title>
<a xlink:href="_background_8h.html" target="_top" xlink:title="Background.h">
<polygon fill="none" stroke="black" points="1251,-367 1251,-387 1327,-387 1327,-367 1251,-367"/>
<text text-anchor="middle" x="1289" y="-374" font-family="FreeSans" font-size="10.00">Background.h</text>
</a>
</g>
<!-- Node30&#45;&gt;Node31 -->
<g id="edge92" class="edge"><title>Node30&#45;&gt;Node31</title>
<path fill="none" stroke="midnightblue" d="M1289,-430.765C1289,-420.813 1289,-407.987 1289,-397.359"/>
<polygon fill="midnightblue" stroke="midnightblue" points="1292.5,-397.291 1289,-387.291 1285.5,-397.291 1292.5,-397.291"/>
</g>
<!-- Node31&#45;&gt;Node19 -->
<g id="edge94" class="edge"><title>Node31&#45;&gt;Node19</title>
<path fill="none" stroke="midnightblue" d="M1275.39,-366.971C1259.87,-355.535 1234.28,-336.678 1215.93,-323.161"/>
<polygon fill="midnightblue" stroke="midnightblue" points="1217.71,-320.125 1207.59,-317.011 1213.56,-325.76 1217.71,-320.125"/>
</g>
<!-- Node32&#45;&gt;Node4 -->
<g id="edge98" class="edge"><title>Node32&#45;&gt;Node4</title>
<path fill="none" stroke="midnightblue" d="M138.155,-290.827C123.177,-274.502 105.814,-249.297 121,-232 142.637,-207.354 367.039,-191.717 450.211,-186.73"/>
<polygon fill="midnightblue" stroke="midnightblue" points="450.527,-190.218 460.305,-186.136 450.116,-183.23 450.527,-190.218"/>
</g>
<!-- Node33&#45;&gt;Node4 -->
<g id="edge102" class="edge"><title>Node33&#45;&gt;Node4</title>
<path fill="none" stroke="midnightblue" d="M554.021,-436.729C542.67,-397.601 502.011,-257.432 486.799,-204.991"/>
<polygon fill="midnightblue" stroke="midnightblue" points="490.106,-203.829 483.959,-195.2 483.383,-205.779 490.106,-203.829"/>
</g>
<!-- Node34 -->
<g id="node86" class="node"><title>Node34</title>
<polygon fill="none" stroke="#bfbfbf" points="590,-367 590,-387 646,-387 646,-367 590,-367"/>
<text text-anchor="middle" x="618" y="-374" font-family="FreeSans" font-size="10.00">basedir.h</text>
</g>
<!-- Node33&#45;&gt;Node34 -->
<g id="edge104" class="edge"><title>Node33&#45;&gt;Node34</title>
<path fill="none" stroke="midnightblue" d="M565.74,-436.971C575.343,-425.951 590.951,-408.04 602.614,-394.657"/>
<polygon fill="midnightblue" stroke="midnightblue" points="605.345,-396.849 609.276,-387.011 600.068,-392.25 605.345,-396.849"/>
</g>
<!-- Node35 -->
<g id="node88" class="node"><title>Node35</title>
<a xlink:href="_o_s_8h.html" target="_top" xlink:title="OS.h">
<polygon fill="none" stroke="black" points="665,-233 665,-253 703,-253 703,-233 665,-233"/>
<text text-anchor="middle" x="684" y="-240" font-family="FreeSans" font-size="10.00">OS.h</text>
</a>
</g>
<!-- Node33&#45;&gt;Node35 -->
<g id="edge106" class="edge"><title>Node33&#45;&gt;Node35</title>
<path fill="none" stroke="midnightblue" d="M591.163,-436.968C612.765,-428.851 639.451,-415.219 655,-394 683.808,-354.687 686.275,-294.644 685.321,-263.436"/>
<polygon fill="midnightblue" stroke="midnightblue" points="688.812,-263.164 684.857,-253.335 681.82,-263.485 688.812,-263.164"/>
</g>
<!-- Node35&#45;&gt;Node3 -->
<g id="edge114" class="edge"><title>Node35&#45;&gt;Node3</title>
<path fill="none" stroke="midnightblue" d="M664.714,-235.178C641.119,-225.608 600.842,-209.271 572.674,-197.847"/>
<polygon fill="midnightblue" stroke="midnightblue" points="573.845,-194.545 563.263,-194.03 571.214,-201.032 573.845,-194.545"/>
</g>
<!-- Node35&#45;&gt;Node4 -->
<g id="edge112" class="edge"><title>Node35&#45;&gt;Node4</title>
<path fill="none" stroke="midnightblue" d="M664.766,-238.464C634.132,-231.101 572.232,-215.655 511.276,-196.218"/>
<polygon fill="midnightblue" stroke="midnightblue" points="512.098,-192.806 501.506,-193.065 509.948,-199.467 512.098,-192.806"/>
</g>
<!-- Node35&#45;&gt;Node16 -->
<g id="edge118" class="edge"><title>Node35&#45;&gt;Node16</title>
<path fill="none" stroke="midnightblue" d="M703.077,-234.123C704.736,-233.391 706.394,-232.675 708,-232 749.244,-214.671 762.376,-216.767 802,-196 857.795,-166.758 865.376,-149.056 919,-116 937.359,-104.683 958.59,-92.9424 975.241,-84.0265"/>
<polygon fill="midnightblue" stroke="midnightblue" points="977.271,-86.9114 984.459,-79.1279 973.986,-80.73 977.271,-86.9114"/>
</g>
<!-- Node36 -->
<g id="node90" class="node"><title>Node36</title>
<polygon fill="none" stroke="#bfbfbf" points="703,-175 703,-195 745,-195 745,-175 703,-175"/>
<text text-anchor="middle" x="724" y="-182" font-family="FreeSans" font-size="10.00">locale</text>
</g>
<!-- Node35&#45;&gt;Node36 -->
<g id="edge108" class="edge"><title>Node35&#45;&gt;Node36</title>
<path fill="none" stroke="midnightblue" d="M690.967,-232.897C696.52,-224.846 704.446,-213.353 711.142,-203.643"/>
<polygon fill="midnightblue" stroke="midnightblue" points="714.047,-205.597 716.843,-195.378 708.284,-201.623 714.047,-205.597"/>
</g>
<!-- Node37 -->
<g id="node92" class="node"><title>Node37</title>
<polygon fill="none" stroke="#bfbfbf" points="763,-175 763,-195 793,-195 793,-175 763,-175"/>
<text text-anchor="middle" x="778" y="-182" font-family="FreeSans" font-size="10.00">set</text>
</g>
<!-- Node35&#45;&gt;Node37 -->
<g id="edge110" class="edge"><title>Node35&#45;&gt;Node37</title>
<path fill="none" stroke="midnightblue" d="M700.374,-232.897C715.197,-223.751 737.22,-210.162 754.026,-199.793"/>
<polygon fill="midnightblue" stroke="midnightblue" points="756.075,-202.641 762.747,-194.411 752.399,-196.684 756.075,-202.641"/>
</g>
<!-- Node38 -->
<g id="node96" class="node"><title>Node38</title>
<polygon fill="none" stroke="#bfbfbf" points="580.5,-175 580.5,-195 685.5,-195 685.5,-175 580.5,-175"/>
<text text-anchor="middle" x="633" y="-182" font-family="FreeSans" font-size="10.00">boost/filesystem.hpp</text>
</g>
<!-- Node35&#45;&gt;Node38 -->
<g id="edge116" class="edge"><title>Node35&#45;&gt;Node38</title>
<path fill="none" stroke="midnightblue" d="M675.116,-232.897C667.893,-224.682 657.518,-212.883 648.873,-203.051"/>
<polygon fill="midnightblue" stroke="midnightblue" points="651.357,-200.576 642.125,-195.378 646.1,-205.199 651.357,-200.576"/>
</g>
<!-- Node39&#45;&gt;Node33 -->
<g id="edge122" class="edge"><title>Node39&#45;&gt;Node33</title>
<path fill="none" stroke="midnightblue" d="M725.775,-506.971C691.397,-494.755 633.19,-474.072 594.923,-460.475"/>
<polygon fill="midnightblue" stroke="midnightblue" points="595.768,-457.061 585.173,-457.011 593.424,-463.657 595.768,-457.061"/>
</g>
<!-- Node40 -->
<g id="node102" class="node"><title>Node40</title>
<a xlink:href="_game_director_8h.html" target="_top" xlink:title="GameDirector.h">
<polygon fill="none" stroke="black" points="725,-437 725,-457 809,-457 809,-437 725,-437"/>
<text text-anchor="middle" x="767" y="-444" font-family="FreeSans" font-size="10.00">GameDirector.h</text>
</a>
</g>
<!-- Node39&#45;&gt;Node40 -->
<g id="edge124" class="edge"><title>Node39&#45;&gt;Node40</title>
<path fill="none" stroke="midnightblue" d="M755.863,-506.971C757.793,-496.575 760.863,-480.045 763.291,-466.971"/>
<polygon fill="midnightblue" stroke="midnightblue" points="766.756,-467.482 765.141,-457.011 759.874,-466.203 766.756,-467.482"/>
</g>
<!-- Node41 -->
<g id="node104" class="node"><title>Node41</title>
<a xlink:href="_form_scene_8h.html" target="_top" xlink:title="FormScene.h">
<polygon fill="none" stroke="black" points="633,-437 633,-457 707,-457 707,-437 633,-437"/>
<text text-anchor="middle" x="670" y="-444" font-family="FreeSans" font-size="10.00">FormScene.h</text>
</a>
</g>
<!-- Node39&#45;&gt;Node41 -->
<g id="edge126" class="edge"><title>Node39&#45;&gt;Node41</title>
<path fill="none" stroke="midnightblue" d="M741.965,-506.971C728.367,-495.639 706.025,-477.021 689.838,-463.531"/>
<polygon fill="midnightblue" stroke="midnightblue" points="691.936,-460.724 682.013,-457.011 687.454,-466.101 691.936,-460.724"/>
</g>
<!-- Node41&#45;&gt;Node9 -->
<g id="edge128" class="edge"><title>Node41&#45;&gt;Node9</title>
<path fill="none" stroke="midnightblue" d="M693.451,-436.972C719.969,-425.289 761.019,-406.051 773,-394 829.229,-337.441 861.498,-244.954 873.531,-204.724"/>
<polygon fill="midnightblue" stroke="midnightblue" points="876.914,-205.624 876.333,-195.045 870.19,-203.677 876.914,-205.624"/>
</g>
<!-- Node42 -->
<g id="node107" class="node"><title>Node42</title>
<a xlink:href="_ui_scene_8h.html" target="_top" xlink:title="UiScene.h">
<polygon fill="none" stroke="black" points="702,-367 702,-387 764,-387 764,-367 702,-367"/>
<text text-anchor="middle" x="733" y="-374" font-family="FreeSans" font-size="10.00">UiScene.h</text>
</a>
</g>
<!-- Node41&#45;&gt;Node42 -->
<g id="edge130" class="edge"><title>Node41&#45;&gt;Node42</title>
<path fill="none" stroke="midnightblue" d="M679.026,-436.971C688.944,-425.951 705.064,-408.04 717.109,-394.657"/>
<polygon fill="midnightblue" stroke="midnightblue" points="719.902,-396.785 723.99,-387.011 714.699,-392.102 719.902,-396.785"/>
</g>
<!-- Node43 -->
<g id="node109" class="node"><title>Node43</title>
<a xlink:href="_scene_8h.html" target="_top" xlink:title="Scene.h">
<polygon fill="none" stroke="black" points="704,-297 704,-317 756,-317 756,-297 704,-297"/>
<text text-anchor="middle" x="730" y="-304" font-family="FreeSans" font-size="10.00">Scene.h</text>
</a>
</g>
<!-- Node42&#45;&gt;Node43 -->
<g id="edge132" class="edge"><title>Node42&#45;&gt;Node43</title>
<path fill="none" stroke="midnightblue" d="M732.57,-366.971C732.129,-356.679 731.43,-340.375 730.873,-327.364"/>
<polygon fill="midnightblue" stroke="midnightblue" points="734.354,-326.852 730.429,-317.011 727.361,-327.151 734.354,-326.852"/>
</g>
<!-- Node43&#45;&gt;Node35 -->
<g id="edge134" class="edge"><title>Node43&#45;&gt;Node35</title>
<path fill="none" stroke="midnightblue" d="M722.609,-296.717C715.796,-287.238 705.522,-272.944 697.285,-261.483"/>
<polygon fill="midnightblue" stroke="midnightblue" points="699.899,-259.124 691.221,-253.046 694.215,-263.209 699.899,-259.124"/>
</g>
<!-- Node44&#45;&gt;Node33 -->
<g id="edge138" class="edge"><title>Node44&#45;&gt;Node33</title>
<path fill="none" stroke="midnightblue" d="M626.395,-506.971C613.403,-495.743 592.133,-477.362 576.56,-463.904"/>
<polygon fill="midnightblue" stroke="midnightblue" points="578.438,-460.901 568.584,-457.011 573.861,-466.198 578.438,-460.901"/>
</g>
<!-- Node44&#45;&gt;Node40 -->
<g id="edge140" class="edge"><title>Node44&#45;&gt;Node40</title>
<path fill="none" stroke="midnightblue" d="M656.483,-506.971C678.227,-495.171 714.532,-475.471 739.564,-461.888"/>
<polygon fill="midnightblue" stroke="midnightblue" points="741.432,-464.856 748.552,-457.011 738.093,-458.704 741.432,-464.856"/>
</g>
<!-- Node44&#45;&gt;Node41 -->
<g id="edge142" class="edge"><title>Node44&#45;&gt;Node41</title>
<path fill="none" stroke="midnightblue" d="M642.585,-506.971C647.432,-496.367 655.197,-479.382 661.227,-466.19"/>
<polygon fill="midnightblue" stroke="midnightblue" points="664.449,-467.561 665.424,-457.011 658.083,-464.65 664.449,-467.561"/>
</g>
</g>
</svg>
