<?xml version="1.0" encoding="UTF-8" standalone="no"?>
<!DOCTYPE svg PUBLIC "-//W3C//DTD SVG 1.1//EN"
 "http://www.w3.org/Graphics/SVG/1.1/DTD/svg11.dtd">
<!-- Generated by graphviz version 2.26.3 (20100126.1600)
 -->
<!-- Title: Peer.h Pages: 1 -->
<svg width="1100pt" height="204pt"
 viewBox="0.00 0.00 1100.00 204.00" xmlns="http://www.w3.org/2000/svg" xmlns:xlink="http://www.w3.org/1999/xlink">
<g id="graph1" class="graph" transform="scale(1 1) rotate(0) translate(4 200)">
<title>Peer.h</title>
<!-- Node1 -->
<g id="node1" class="node"><title>Node1</title>
<polygon fill="#bfbfbf" stroke="black" points="572,-175 572,-195 616,-195 616,-175 572,-175"/>
<text text-anchor="middle" x="594" y="-182" font-family="FreeSans" font-size="10.00">Peer.h</text>
</g>
<!-- Node2 -->
<g id="node3" class="node"><title>Node2</title>
<a xlink:href="_debug_peer_8h.html" target="_top" xlink:title="DebugPeer.h">
<polygon fill="none" stroke="black" points="778,-59 778,-79 850,-79 850,-59 778,-59"/>
<text text-anchor="middle" x="814" y="-66" font-family="FreeSans" font-size="10.00">DebugPeer.h</text>
</a>
</g>
<!-- Node1&#45;&gt;Node2 -->
<g id="edge2" class="edge"><title>Node1&#45;&gt;Node2</title>
<path fill="none" stroke="midnightblue" d="M609.876,-166.789C624.213,-151.346 646.597,-129.597 670,-116 704.108,-96.1835 747.684,-83.4533 777.923,-76.3086"/>
<polygon fill="midnightblue" stroke="midnightblue" points="606.898,-164.864 602.784,-174.628 612.089,-169.561 606.898,-164.864"/>
</g>
<!-- Node8 -->
<g id="node15" class="node"><title>Node8</title>
<a xlink:href="_game_peer_8h.html" target="_top" xlink:title="GamePeer.h">
<polygon fill="none" stroke="black" points="641.5,-59 641.5,-79 712.5,-79 712.5,-59 641.5,-59"/>
<text text-anchor="middle" x="677" y="-66" font-family="FreeSans" font-size="10.00">GamePeer.h</text>
</a>
</g>
<!-- Node1&#45;&gt;Node8 -->
<g id="edge14" class="edge"><title>Node1&#45;&gt;Node8</title>
<path fill="none" stroke="midnightblue" d="M604.776,-166.062C613.068,-151.915 625.089,-132.295 637,-116 646.737,-102.679 659.235,-88.3763 667.647,-79.0939"/>
<polygon fill="midnightblue" stroke="midnightblue" points="601.657,-164.464 599.678,-174.872 607.716,-167.969 601.657,-164.464"/>
</g>
<!-- Node11 -->
<g id="node25" class="node"><title>Node11</title>
<a xlink:href="_session_peer_8h.html" target="_top" xlink:title="SessionPeer.h">
<polygon fill="none" stroke="black" points="456,-59 456,-79 536,-79 536,-59 456,-59"/>
<text text-anchor="middle" x="496" y="-66" font-family="FreeSans" font-size="10.00">SessionPeer.h</text>
</a>
</g>
<!-- Node1&#45;&gt;Node11 -->
<g id="edge28" class="edge"><title>Node1&#45;&gt;Node11</title>
<path fill="none" stroke="midnightblue" d="M578.629,-166.806C557.737,-142.077 521.087,-98.6947 504.537,-79.1055"/>
<polygon fill="midnightblue" stroke="midnightblue" points="576.176,-169.326 585.303,-174.706 581.523,-164.808 576.176,-169.326"/>
</g>
<!-- Node14 -->
<g id="node35" class="node"><title>Node14</title>
<a xlink:href="_hud_peer_8h.html" target="_top" xlink:title="HudPeer.h">
<polygon fill="none" stroke="black" points="333,-117 333,-137 395,-137 395,-117 333,-117"/>
<text text-anchor="middle" x="364" y="-124" font-family="FreeSans" font-size="10.00">HudPeer.h</text>
</a>
</g>
<!-- Node1&#45;&gt;Node14 -->
<g id="edge42" class="edge"><title>Node1&#45;&gt;Node14</title>
<path fill="none" stroke="midnightblue" d="M562.037,-176.94C517.875,-165.803 438.715,-145.841 395.045,-134.829"/>
<polygon fill="midnightblue" stroke="midnightblue" points="561.394,-180.387 571.947,-179.439 563.106,-173.6 561.394,-180.387"/>
</g>
<!-- Node15 -->
<g id="node38" class="node"><title>Node15</title>
<a xlink:href="_player_peer_8h.html" target="_top" xlink:title="PlayerPeer.h">
<polygon fill="none" stroke="black" points="201.5,-59 201.5,-79 272.5,-79 272.5,-59 201.5,-59"/>
<text text-anchor="middle" x="237" y="-66" font-family="FreeSans" font-size="10.00">PlayerPeer.h</text>
</a>
</g>
<!-- Node1&#45;&gt;Node15 -->
<g id="edge62" class="edge"><title>Node1&#45;&gt;Node15</title>
<path fill="none" stroke="midnightblue" d="M561.822,-181.416C499.815,-174.183 366.171,-156.905 324,-138 291.808,-123.569 261.184,-94.5105 246.335,-79.1118"/>
<polygon fill="midnightblue" stroke="midnightblue" points="561.498,-184.902 571.833,-182.569 562.299,-177.948 561.498,-184.902"/>
</g>
<!-- Node18 -->
<g id="node50" class="node"><title>Node18</title>
<a xlink:href="_config_peer_8h.html" target="_top" xlink:title="ConfigPeer.h">
<polygon fill="none" stroke="black" points="553.5,-59 553.5,-79 624.5,-79 624.5,-59 553.5,-59"/>
<text text-anchor="middle" x="589" y="-66" font-family="FreeSans" font-size="10.00">ConfigPeer.h</text>
</a>
</g>
<!-- Node1&#45;&gt;Node18 -->
<g id="edge64" class="edge"><title>Node1&#45;&gt;Node18</title>
<path fill="none" stroke="midnightblue" d="M593.116,-164.487C592.036,-139.447 590.254,-98.0959 589.436,-79.1055"/>
<polygon fill="midnightblue" stroke="midnightblue" points="589.629,-164.866 593.556,-174.706 596.622,-164.564 589.629,-164.866"/>
</g>
<!-- Node20 -->
<g id="node56" class="node"><title>Node20</title>
<a xlink:href="_core_8cpp.html" target="_top" xlink:title="Core.cpp">
<polygon fill="none" stroke="black" points="678.5,-117 678.5,-137 733.5,-137 733.5,-117 678.5,-117"/>
<text text-anchor="middle" x="706" y="-124" font-family="FreeSans" font-size="10.00">Core.cpp</text>
</a>
</g>
<!-- Node1&#45;&gt;Node20 -->
<g id="edge72" class="edge"><title>Node1&#45;&gt;Node20</title>
<path fill="none" stroke="midnightblue" d="M622.474,-170.254C642.452,-159.909 668.652,-146.341 686.339,-137.182"/>
<polygon fill="midnightblue" stroke="midnightblue" points="620.779,-167.191 613.509,-174.897 623.998,-173.407 620.779,-167.191"/>
</g>
<!-- Node21 -->
<g id="node58" class="node"><title>Node21</title>
<a xlink:href="_peer_8cpp.html" target="_top" xlink:title="Peer.cpp">
<polygon fill="none" stroke="black" points="750.5,-117 750.5,-137 805.5,-137 805.5,-117 750.5,-117"/>
<text text-anchor="middle" x="778" y="-124" font-family="FreeSans" font-size="10.00">Peer.cpp</text>
</a>
</g>
<!-- Node1&#45;&gt;Node21 -->
<g id="edge74" class="edge"><title>Node1&#45;&gt;Node21</title>
<path fill="none" stroke="midnightblue" d="M625.953,-174.928C661.095,-163.85 716.992,-146.231 750.329,-135.722"/>
<polygon fill="midnightblue" stroke="midnightblue" points="624.68,-171.659 616.195,-178.004 626.784,-178.336 624.68,-171.659"/>
</g>
<!-- Node3 -->
<g id="node5" class="node"><title>Node3</title>
<a xlink:href="_client_app_8cpp.html" target="_top" xlink:title="ClientApp.cpp">
<polygon fill="none" stroke="black" points="725.5,-1 725.5,-21 802.5,-21 802.5,-1 725.5,-1"/>
<text text-anchor="middle" x="764" y="-8" font-family="FreeSans" font-size="10.00">ClientApp.cpp</text>
</a>
</g>
<!-- Node2&#45;&gt;Node3 -->
<g id="edge4" class="edge"><title>Node2&#45;&gt;Node3</title>
<path fill="none" stroke="midnightblue" d="M798.72,-51.2752C790.283,-41.4882 780.096,-29.6718 772.946,-21.3776"/>
<polygon fill="midnightblue" stroke="midnightblue" points="796.11,-53.6083 805.291,-58.8972 801.412,-49.0377 796.11,-53.6083"/>
</g>
<!-- Node4 -->
<g id="node7" class="node"><title>Node4</title>
<a xlink:href="_client_script_core_8cpp.html" target="_top" xlink:title="ClientScriptCore.cpp">
<polygon fill="none" stroke="black" points="405.5,-1 405.5,-21 510.5,-21 510.5,-1 405.5,-1"/>
<text text-anchor="middle" x="458" y="-8" font-family="FreeSans" font-size="10.00">ClientScriptCore.cpp</text>
</a>
</g>
<!-- Node2&#45;&gt;Node4 -->
<g id="edge6" class="edge"><title>Node2&#45;&gt;Node4</title>
<path fill="none" stroke="midnightblue" d="M767.651,-61.9151C709.511,-52.9588 606.785,-36.9064 519,-22 516.242,-21.5316 513.414,-21.0449 510.561,-20.5484"/>
<polygon fill="midnightblue" stroke="midnightblue" points="767.213,-65.3887 777.629,-63.4498 768.277,-58.4701 767.213,-65.3887"/>
</g>
<!-- Node5 -->
<g id="node9" class="node"><title>Node5</title>
<a xlink:href="_debug_peer_8cpp.html" target="_top" xlink:title="DebugPeer.cpp">
<polygon fill="none" stroke="black" points="1009.5,-1 1009.5,-21 1092.5,-21 1092.5,-1 1009.5,-1"/>
<text text-anchor="middle" x="1051" y="-8" font-family="FreeSans" font-size="10.00">DebugPeer.cpp</text>
</a>
</g>
<!-- Node2&#45;&gt;Node5 -->
<g id="edge8" class="edge"><title>Node2&#45;&gt;Node5</title>
<path fill="none" stroke="midnightblue" d="M860.013,-57.7394C903.517,-47.0929 968.186,-31.2667 1009.97,-21.0402"/>
<polygon fill="midnightblue" stroke="midnightblue" points="859.135,-54.3511 850.253,-60.1279 860.799,-61.1504 859.135,-54.3511"/>
</g>
<!-- Node6 -->
<g id="node11" class="node"><title>Node6</title>
<a xlink:href="_sys_console_8cpp.html" target="_top" xlink:title="SysConsole.cpp">
<polygon fill="none" stroke="black" points="820,-1 820,-21 906,-21 906,-1 820,-1"/>
<text text-anchor="middle" x="863" y="-8" font-family="FreeSans" font-size="10.00">SysConsole.cpp</text>
</a>
</g>
<!-- Node2&#45;&gt;Node6 -->
<g id="edge10" class="edge"><title>Node2&#45;&gt;Node6</title>
<path fill="none" stroke="midnightblue" d="M829.223,-50.981C837.442,-41.2522 847.296,-29.5889 854.233,-21.3776"/>
<polygon fill="midnightblue" stroke="midnightblue" points="826.315,-48.9995 822.535,-58.8972 831.662,-53.517 826.315,-48.9995"/>
</g>
<!-- Node7 -->
<g id="node13" class="node"><title>Node7</title>
<a xlink:href="_sys_env_8cpp.html" target="_top" xlink:title="SysEnv.cpp">
<polygon fill="none" stroke="black" points="924,-1 924,-21 992,-21 992,-1 924,-1"/>
<text text-anchor="middle" x="958" y="-8" font-family="FreeSans" font-size="10.00">SysEnv.cpp</text>
</a>
</g>
<!-- Node2&#45;&gt;Node7 -->
<g id="edge12" class="edge"><title>Node2&#45;&gt;Node7</title>
<path fill="none" stroke="midnightblue" d="M848.536,-55.0898C874.459,-44.6486 909.363,-30.5898 932.721,-21.1817"/>
<polygon fill="midnightblue" stroke="midnightblue" points="847.051,-51.9144 839.083,-58.8972 849.666,-58.4076 847.051,-51.9144"/>
</g>
<!-- Node8&#45;&gt;Node3 -->
<g id="edge16" class="edge"><title>Node8&#45;&gt;Node3</title>
<path fill="none" stroke="midnightblue" d="M700.607,-53.2619C715.92,-43.0535 735.424,-30.051 748.728,-21.1817"/>
<polygon fill="midnightblue" stroke="midnightblue" points="698.533,-50.4379 692.154,-58.8972 702.416,-56.2623 698.533,-50.4379"/>
</g>
<!-- Node8&#45;&gt;Node4 -->
<g id="edge20" class="edge"><title>Node8&#45;&gt;Node4</title>
<path fill="none" stroke="midnightblue" d="M631.525,-56.9563C591.381,-46.3246 533.54,-31.0061 495.864,-21.0278"/>
<polygon fill="midnightblue" stroke="midnightblue" points="630.764,-60.3754 641.326,-59.5522 632.556,-53.6086 630.764,-60.3754"/>
</g>
<!-- Node8&#45;&gt;Node6 -->
<g id="edge24" class="edge"><title>Node8&#45;&gt;Node6</title>
<path fill="none" stroke="midnightblue" d="M719.009,-55.9005C752.841,-45.3507 799.704,-30.7374 830.661,-21.0842"/>
<polygon fill="midnightblue" stroke="midnightblue" points="717.903,-52.5789 709.399,-58.8972 719.987,-59.2615 717.903,-52.5789"/>
</g>
<!-- Node8&#45;&gt;Node7 -->
<g id="edge26" class="edge"><title>Node8&#45;&gt;Node7</title>
<path fill="none" stroke="midnightblue" d="M722.691,-60.7559C770.722,-51.9076 848.412,-37.0798 915,-22 917.856,-21.3533 920.811,-20.6561 923.774,-19.9379"/>
<polygon fill="midnightblue" stroke="midnightblue" points="721.818,-57.3576 712.613,-62.6048 723.081,-64.2427 721.818,-57.3576"/>
</g>
<!-- Node9 -->
<g id="node18" class="node"><title>Node9</title>
<a xlink:href="_game_scene_8cpp.html" target="_top" xlink:title="GameScene.cpp">
<polygon fill="none" stroke="black" points="299.5,-1 299.5,-21 388.5,-21 388.5,-1 299.5,-1"/>
<text text-anchor="middle" x="344" y="-8" font-family="FreeSans" font-size="10.00">GameScene.cpp</text>
</a>
</g>
<!-- Node8&#45;&gt;Node9 -->
<g id="edge18" class="edge"><title>Node8&#45;&gt;Node9</title>
<path fill="none" stroke="midnightblue" d="M631.094,-57.7372C527.236,-37.3124 498.264,-40.2188 397,-22 394.318,-21.5174 391.563,-21.003 388.787,-20.4702"/>
<polygon fill="midnightblue" stroke="midnightblue" points="630.553,-61.1982 641.044,-59.7197 631.92,-54.3331 630.553,-61.1982"/>
</g>
<!-- Node10 -->
<g id="node21" class="node"><title>Node10</title>
<a xlink:href="_game_peer_8cpp.html" target="_top" xlink:title="GamePeer.cpp">
<polygon fill="none" stroke="black" points="627.5,-1 627.5,-21 708.5,-21 708.5,-1 627.5,-1"/>
<text text-anchor="middle" x="668" y="-8" font-family="FreeSans" font-size="10.00">GamePeer.cpp</text>
</a>
</g>
<!-- Node8&#45;&gt;Node10 -->
<g id="edge22" class="edge"><title>Node8&#45;&gt;Node10</title>
<path fill="none" stroke="midnightblue" d="M673.88,-48.8902C672.441,-39.6201 670.794,-29.0083 669.61,-21.3776"/>
<polygon fill="midnightblue" stroke="midnightblue" points="670.44,-49.5521 675.432,-58.8972 677.357,-48.4787 670.44,-49.5521"/>
</g>
<!-- Node11&#45;&gt;Node3 -->
<g id="edge30" class="edge"><title>Node11&#45;&gt;Node3</title>
<path fill="none" stroke="midnightblue" d="M546.264,-57.7499C623.015,-41.213 643.877,-38.207 717,-22 719.7,-21.4016 722.485,-20.7747 725.288,-20.1365"/>
<polygon fill="midnightblue" stroke="midnightblue" points="545.135,-54.4131 536.101,-59.9481 546.615,-61.2549 545.135,-54.4131"/>
</g>
<!-- Node11&#45;&gt;Node4 -->
<g id="edge36" class="edge"><title>Node11&#45;&gt;Node4</title>
<path fill="none" stroke="midnightblue" d="M483.807,-50.3891C477.513,-40.7824 470.07,-29.423 464.799,-21.3776"/>
<polygon fill="midnightblue" stroke="midnightblue" points="480.973,-52.4507 489.381,-58.8972 486.828,-48.6144 480.973,-52.4507"/>
</g>
<!-- Node11&#45;&gt;Node9 -->
<g id="edge32" class="edge"><title>Node11&#45;&gt;Node9</title>
<path fill="none" stroke="midnightblue" d="M459.876,-55.2158C432.385,-44.7258 395.183,-30.5302 370.428,-21.0842"/>
<polygon fill="midnightblue" stroke="midnightblue" points="458.933,-58.6021 469.524,-58.8972 461.428,-52.062 458.933,-58.6021"/>
</g>
<!-- Node11&#45;&gt;Node10 -->
<g id="edge38" class="edge"><title>Node11&#45;&gt;Node10</title>
<path fill="none" stroke="midnightblue" d="M535.655,-55.6279C566.875,-45.1002 609.714,-30.6545 638.095,-21.0842"/>
<polygon fill="midnightblue" stroke="midnightblue" points="534.317,-52.3853 525.96,-58.8972 536.554,-59.0183 534.317,-52.3853"/>
</g>
<!-- Node12 -->
<g id="node29" class="node"><title>Node12</title>
<a xlink:href="_rulebook_8cpp.html" target="_top" xlink:title="Rulebook.cpp">
<polygon fill="none" stroke="black" points="99.5,-1 99.5,-21 174.5,-21 174.5,-1 99.5,-1"/>
<text text-anchor="middle" x="137" y="-8" font-family="FreeSans" font-size="10.00">Rulebook.cpp</text>
</a>
</g>
<!-- Node11&#45;&gt;Node12 -->
<g id="edge34" class="edge"><title>Node11&#45;&gt;Node12</title>
<path fill="none" stroke="midnightblue" d="M445.497,-62.7711C383.436,-54.8055 275.039,-39.8808 183,-22 180.259,-21.4676 177.435,-20.8825 174.598,-20.2683"/>
<polygon fill="midnightblue" stroke="midnightblue" points="445.428,-66.2906 455.791,-64.0829 446.313,-59.3468 445.428,-66.2906"/>
</g>
<!-- Node13 -->
<g id="node33" class="node"><title>Node13</title>
<a xlink:href="_session_peer_8cpp.html" target="_top" xlink:title="SessionPeer.cpp">
<polygon fill="none" stroke="black" points="192,-1 192,-21 282,-21 282,-1 192,-1"/>
<text text-anchor="middle" x="237" y="-8" font-family="FreeSans" font-size="10.00">SessionPeer.cpp</text>
</a>
</g>
<!-- Node11&#45;&gt;Node13 -->
<g id="edge40" class="edge"><title>Node11&#45;&gt;Node13</title>
<path fill="none" stroke="midnightblue" d="M445.76,-57.7493C398.299,-47.121 327.759,-31.3244 282.071,-21.0931"/>
<polygon fill="midnightblue" stroke="midnightblue" points="445.292,-61.2312 455.815,-60.0011 446.822,-54.4004 445.292,-61.2312"/>
</g>
<!-- Node14&#45;&gt;Node4 -->
<g id="edge58" class="edge"><title>Node14&#45;&gt;Node4</title>
<path fill="none" stroke="midnightblue" d="M381.749,-109.689C390.301,-101.047 400.516,-90.2677 409,-80 425.472,-60.0661 442.455,-34.9281 451.461,-21.1634"/>
<polygon fill="midnightblue" stroke="midnightblue" points="379.076,-107.412 374.461,-116.949 384.016,-112.371 379.076,-107.412"/>
</g>
<!-- Node14&#45;&gt;Node9 -->
<g id="edge44" class="edge"><title>Node14&#45;&gt;Node9</title>
<path fill="none" stroke="midnightblue" d="M341.726,-110.214C332.881,-102.164 323.705,-91.7182 319,-80 310.739,-59.4269 325.257,-34.9441 335.405,-21.3706"/>
<polygon fill="midnightblue" stroke="midnightblue" points="339.727,-113.108 349.619,-116.902 344.252,-107.767 339.727,-113.108"/>
</g>
<!-- Node14&#45;&gt;Node15 -->
<g id="edge46" class="edge"><title>Node14&#45;&gt;Node15</title>
<path fill="none" stroke="midnightblue" d="M332.631,-112.674C309.867,-102.278 279.623,-88.4654 259.294,-79.1817"/>
<polygon fill="midnightblue" stroke="midnightblue" points="331.328,-115.927 341.878,-116.897 334.236,-109.559 331.328,-115.927"/>
</g>
<!-- Node17 -->
<g id="node47" class="node"><title>Node17</title>
<a xlink:href="_hud_peer_8cpp.html" target="_top" xlink:title="HudPeer.cpp">
<polygon fill="none" stroke="black" points="327.5,-59 327.5,-79 400.5,-79 400.5,-59 327.5,-59"/>
<text text-anchor="middle" x="364" y="-66" font-family="FreeSans" font-size="10.00">HudPeer.cpp</text>
</a>
</g>
<!-- Node14&#45;&gt;Node17 -->
<g id="edge60" class="edge"><title>Node14&#45;&gt;Node17</title>
<path fill="none" stroke="midnightblue" d="M364,-106.89C364,-97.6201 364,-87.0083 364,-79.3776"/>
<polygon fill="midnightblue" stroke="midnightblue" points="360.5,-106.897 364,-116.897 367.5,-106.897 360.5,-106.897"/>
</g>
<!-- Node15&#45;&gt;Node4 -->
<g id="edge52" class="edge"><title>Node15&#45;&gt;Node4</title>
<path fill="none" stroke="midnightblue" d="M282.382,-57.0899C322.848,-46.4699 381.427,-31.0962 419.611,-21.0749"/>
<polygon fill="midnightblue" stroke="midnightblue" points="281.291,-53.7574 272.507,-59.6813 283.068,-60.5281 281.291,-53.7574"/>
</g>
<!-- Node15&#45;&gt;Node9 -->
<g id="edge48" class="edge"><title>Node15&#45;&gt;Node9</title>
<path fill="none" stroke="midnightblue" d="M264.462,-54.1138C283.516,-43.7859 308.395,-30.2996 325.217,-21.1817"/>
<polygon fill="midnightblue" stroke="midnightblue" points="262.762,-51.0546 255.638,-58.8972 266.097,-57.2087 262.762,-51.0546"/>
</g>
<!-- Node15&#45;&gt;Node12 -->
<g id="edge50" class="edge"><title>Node15&#45;&gt;Node12</title>
<path fill="none" stroke="midnightblue" d="M210.847,-53.8314C193.105,-43.5411 170.132,-30.2168 154.555,-21.1817"/>
<polygon fill="midnightblue" stroke="midnightblue" points="209.175,-56.9076 219.581,-58.8972 212.687,-50.8523 209.175,-56.9076"/>
</g>
<!-- Node15&#45;&gt;Node13 -->
<g id="edge56" class="edge"><title>Node15&#45;&gt;Node13</title>
<path fill="none" stroke="midnightblue" d="M237,-48.8902C237,-39.6201 237,-29.0083 237,-21.3776"/>
<polygon fill="midnightblue" stroke="midnightblue" points="233.5,-48.8971 237,-58.8972 240.5,-48.8972 233.5,-48.8971"/>
</g>
<!-- Node16 -->
<g id="node43" class="node"><title>Node16</title>
<a xlink:href="_player_peer_8cpp.html" target="_top" xlink:title="PlayerPeer.cpp">
<polygon fill="none" stroke="black" points="0,-1 0,-21 82,-21 82,-1 0,-1"/>
<text text-anchor="middle" x="41" y="-8" font-family="FreeSans" font-size="10.00">PlayerPeer.cpp</text>
</a>
</g>
<!-- Node15&#45;&gt;Node16 -->
<g id="edge54" class="edge"><title>Node15&#45;&gt;Node16</title>
<path fill="none" stroke="midnightblue" d="M193.191,-56.0361C157.506,-45.4763 107.839,-30.7788 75.0776,-21.0842"/>
<polygon fill="midnightblue" stroke="midnightblue" points="192.277,-59.4157 202.859,-58.8972 194.264,-52.7034 192.277,-59.4157"/>
</g>
<!-- Node18&#45;&gt;Node4 -->
<g id="edge66" class="edge"><title>Node18&#45;&gt;Node4</title>
<path fill="none" stroke="midnightblue" d="M556.957,-54.813C533.441,-44.4012 502.059,-30.5069 480.997,-21.1817"/>
<polygon fill="midnightblue" stroke="midnightblue" points="555.621,-58.049 566.182,-58.8972 558.455,-51.6483 555.621,-58.049"/>
</g>
<!-- Node18&#45;&gt;Node10 -->
<g id="edge70" class="edge"><title>Node18&#45;&gt;Node10</title>
<path fill="none" stroke="midnightblue" d="M610.827,-52.975C624.671,-42.8109 642.164,-29.9681 654.132,-21.1817"/>
<polygon fill="midnightblue" stroke="midnightblue" points="608.75,-50.1578 602.761,-58.8972 612.893,-55.8004 608.75,-50.1578"/>
</g>
<!-- Node19 -->
<g id="node53" class="node"><title>Node19</title>
<a xlink:href="_config_peer_8cpp.html" target="_top" xlink:title="ConfigPeer.cpp">
<polygon fill="none" stroke="black" points="528,-1 528,-21 610,-21 610,-1 528,-1"/>
<text text-anchor="middle" x="569" y="-8" font-family="FreeSans" font-size="10.00">ConfigPeer.cpp</text>
</a>
</g>
<!-- Node18&#45;&gt;Node19 -->
<g id="edge68" class="edge"><title>Node18&#45;&gt;Node19</title>
<path fill="none" stroke="midnightblue" d="M582.17,-49.192C578.949,-39.8512 575.238,-29.0912 572.578,-21.3776"/>
<polygon fill="midnightblue" stroke="midnightblue" points="578.947,-50.5844 585.516,-58.8972 585.565,-48.3024 578.947,-50.5844"/>
</g>
</g>
</svg>
