<?xml version="1.0" encoding="UTF-8" standalone="no"?>
<!DOCTYPE svg PUBLIC "-//W3C//DTD SVG 1.1//EN"
 "http://www.w3.org/Graphics/SVG/1.1/DTD/svg11.dtd">
<!-- Generated by graphviz version 2.38.0 (20140413.2041)
 -->
<!-- Title: PhysicalCollision.h Pages: 1 -->
<svg width="2259pt" height="308pt"
 viewBox="0.00 0.00 2258.50 308.00" xmlns="http://www.w3.org/2000/svg" xmlns:xlink="http://www.w3.org/1999/xlink">
<g id="graph0" class="graph" transform="scale(1 1) rotate(0) translate(4 304)">
<title>PhysicalCollision.h</title>
<!-- Node1 -->
<g id="node1" class="node"><title>Node1</title>
<polygon fill="#bfbfbf" stroke="black" points="1847,-280.5 1847,-299.5 1950,-299.5 1950,-280.5 1847,-280.5"/>
<text text-anchor="middle" x="1898.5" y="-287.5" font-family="FreeSans" font-size="10.00">PhysicalCollision.h</text>
</g>
<!-- Node2 -->
<g id="node2" class="node"><title>Node2</title>
<g id="a_node2"><a xlink:href="_main_character_8h.html" target="_top" xlink:title="MainCharacter.h">
<polygon fill="none" stroke="black" points="687,-224.5 687,-243.5 782,-243.5 782,-224.5 687,-224.5"/>
<text text-anchor="middle" x="734.5" y="-231.5" font-family="FreeSans" font-size="10.00">MainCharacter.h</text>
</a>
</g>
</g>
<!-- Node1&#45;&gt;Node2 -->
<g id="edge1" class="edge"><title>Node1&#45;&gt;Node2</title>
<path fill="none" stroke="midnightblue" d="M1836.93,-286.144C1630.6,-276.572 966.279,-245.753 782.188,-237.212"/>
<polygon fill="midnightblue" stroke="midnightblue" points="1836.83,-289.643 1846.98,-286.61 1837.16,-282.65 1836.83,-289.643"/>
</g>
<!-- Node23 -->
<g id="node23" class="node"><title>Node23</title>
<g id="a_node23"><a xlink:href="_bumper_gate_8h.html" target="_top" xlink:title="BumperGate.h">
<polygon fill="none" stroke="black" points="1803,-224.5 1803,-243.5 1890,-243.5 1890,-224.5 1803,-224.5"/>
<text text-anchor="middle" x="1846.5" y="-231.5" font-family="FreeSans" font-size="10.00">BumperGate.h</text>
</a>
</g>
</g>
<!-- Node1&#45;&gt;Node23 -->
<g id="edge26" class="edge"><title>Node1&#45;&gt;Node23</title>
<path fill="none" stroke="midnightblue" d="M1882.82,-272.718C1873.66,-263.2 1862.45,-251.561 1854.93,-243.751"/>
<polygon fill="midnightblue" stroke="midnightblue" points="1880.46,-275.308 1889.91,-280.083 1885.5,-270.452 1880.46,-275.308"/>
</g>
<!-- Node27 -->
<g id="node27" class="node"><title>Node27</title>
<g id="a_node27"><a xlink:href="_missile_8h.html" target="_top" xlink:title="Missile.h">
<polygon fill="none" stroke="black" points="1715,-224.5 1715,-243.5 1772,-243.5 1772,-224.5 1715,-224.5"/>
<text text-anchor="middle" x="1743.5" y="-231.5" font-family="FreeSans" font-size="10.00">Missile.h</text>
</a>
</g>
</g>
<!-- Node1&#45;&gt;Node27 -->
<g id="edge30" class="edge"><title>Node1&#45;&gt;Node27</title>
<path fill="none" stroke="midnightblue" d="M1864.17,-277.039C1835,-266.879 1793.86,-252.546 1767.95,-243.516"/>
<polygon fill="midnightblue" stroke="midnightblue" points="1863.34,-280.459 1873.94,-280.444 1865.65,-273.848 1863.34,-280.459"/>
</g>
<!-- Node29 -->
<g id="node29" class="node"><title>Node29</title>
<g id="a_node29"><a xlink:href="_physical_collision_8cpp.html" target="_top" xlink:title="PhysicalCollision.cpp">
<polygon fill="none" stroke="black" points="2010.5,-224.5 2010.5,-243.5 2124.5,-243.5 2124.5,-224.5 2010.5,-224.5"/>
<text text-anchor="middle" x="2067.5" y="-231.5" font-family="FreeSans" font-size="10.00">PhysicalCollision.cpp</text>
</a>
</g>
</g>
<!-- Node1&#45;&gt;Node29 -->
<g id="edge34" class="edge"><title>Node1&#45;&gt;Node29</title>
<path fill="none" stroke="midnightblue" d="M1935.1,-277.304C1966.95,-267.129 2012.34,-252.625 2040.85,-243.516"/>
<polygon fill="midnightblue" stroke="midnightblue" points="1933.74,-274.066 1925.28,-280.444 1935.87,-280.734 1933.74,-274.066"/>
</g>
<!-- Node30 -->
<g id="node30" class="node"><title>Node30</title>
<g id="a_node30"><a xlink:href="_test_element_8h.html" target="_top" xlink:title="TestElement.h">
<polygon fill="none" stroke="black" points="1908.5,-224.5 1908.5,-243.5 1992.5,-243.5 1992.5,-224.5 1908.5,-224.5"/>
<text text-anchor="middle" x="1950.5" y="-231.5" font-family="FreeSans" font-size="10.00">TestElement.h</text>
</a>
</g>
</g>
<!-- Node1&#45;&gt;Node30 -->
<g id="edge35" class="edge"><title>Node1&#45;&gt;Node30</title>
<path fill="none" stroke="midnightblue" d="M1914.18,-272.718C1923.34,-263.2 1934.55,-251.561 1942.07,-243.751"/>
<polygon fill="midnightblue" stroke="midnightblue" points="1911.5,-270.452 1907.09,-280.083 1916.54,-275.308 1911.5,-270.452"/>
</g>
<!-- Node32 -->
<g id="node32" class="node"><title>Node32</title>
<g id="a_node32"><a xlink:href="_bitmap_surface_8cpp.html" target="_top" xlink:title="BitmapSurface.cpp">
<polygon fill="none" stroke="black" points="2142.5,-224.5 2142.5,-243.5 2250.5,-243.5 2250.5,-224.5 2142.5,-224.5"/>
<text text-anchor="middle" x="2196.5" y="-231.5" font-family="FreeSans" font-size="10.00">BitmapSurface.cpp</text>
</a>
</g>
</g>
<!-- Node1&#45;&gt;Node32 -->
<g id="edge38" class="edge"><title>Node1&#45;&gt;Node32</title>
<path fill="none" stroke="midnightblue" d="M1955.89,-278.601C2012.21,-268.395 2097.06,-253.019 2149.5,-243.516"/>
<polygon fill="midnightblue" stroke="midnightblue" points="1954.93,-275.217 1945.72,-280.444 1956.18,-282.104 1954.93,-275.217"/>
</g>
<!-- Node3 -->
<g id="node3" class="node"><title>Node3</title>
<g id="a_node3"><a xlink:href="_client_app_8cpp.html" target="_top" xlink:title="ClientApp.cpp">
<polygon fill="none" stroke="black" points="1120,-0.5 1120,-19.5 1203,-19.5 1203,-0.5 1120,-0.5"/>
<text text-anchor="middle" x="1161.5" y="-7.5" font-family="FreeSans" font-size="10.00">ClientApp.cpp</text>
</a>
</g>
</g>
<!-- Node2&#45;&gt;Node3 -->
<g id="edge2" class="edge"><title>Node2&#45;&gt;Node3</title>
<path fill="none" stroke="midnightblue" d="M792.388,-230.167C866.54,-225.519 989.868,-214.045 1026.5,-188 1080.62,-149.521 1052.39,-105.642 1096.5,-56 1110.36,-40.4043 1130.67,-27.4643 1144.89,-19.5243"/>
<polygon fill="midnightblue" stroke="midnightblue" points="792.036,-226.682 782.265,-230.778 792.458,-233.669 792.036,-226.682"/>
</g>
<!-- Node4 -->
<g id="node4" class="node"><title>Node4</title>
<g id="a_node4"><a xlink:href="_observer_8h.html" target="_top" xlink:title="Observer.h">
<polygon fill="none" stroke="black" points="1157.5,-168.5 1157.5,-187.5 1225.5,-187.5 1225.5,-168.5 1157.5,-168.5"/>
<text text-anchor="middle" x="1191.5" y="-175.5" font-family="FreeSans" font-size="10.00">Observer.h</text>
</a>
</g>
</g>
<!-- Node2&#45;&gt;Node4 -->
<g id="edge3" class="edge"><title>Node2&#45;&gt;Node4</title>
<path fill="none" stroke="midnightblue" d="M792.275,-226.173C888.773,-214.771 1079.8,-192.199 1157.47,-183.022"/>
<polygon fill="midnightblue" stroke="midnightblue" points="791.634,-222.725 782.114,-227.374 792.455,-229.676 791.634,-222.725"/>
</g>
<!-- Node9 -->
<g id="node9" class="node"><title>Node9</title>
<g id="a_node9"><a xlink:href="_play_game_scene_8cpp.html" target="_top" xlink:title="PlayGameScene.cpp">
<polygon fill="none" stroke="black" points="1477.5,-0.5 1477.5,-19.5 1593.5,-19.5 1593.5,-0.5 1477.5,-0.5"/>
<text text-anchor="middle" x="1535.5" y="-7.5" font-family="FreeSans" font-size="10.00">PlayGameScene.cpp</text>
</a>
</g>
</g>
<!-- Node2&#45;&gt;Node9 -->
<g id="edge17" class="edge"><title>Node2&#45;&gt;Node9</title>
<path fill="none" stroke="midnightblue" d="M792.469,-232.475C886.378,-230.582 1077.13,-222.396 1234.5,-188 1380.07,-156.183 1464.52,-197.696 1550.5,-76 1562.66,-58.7852 1549.95,-33.1946 1541.58,-19.8385"/>
<polygon fill="midnightblue" stroke="midnightblue" points="792.256,-228.979 782.323,-232.663 792.386,-235.977 792.256,-228.979"/>
</g>
<!-- Node14 -->
<g id="node14" class="node"><title>Node14</title>
<g id="a_node14"><a xlink:href="_client_session_8cpp.html" target="_top" xlink:title="ClientSession.cpp">
<polygon fill="none" stroke="black" points="0,-168.5 0,-187.5 101,-187.5 101,-168.5 0,-168.5"/>
<text text-anchor="middle" x="50.5" y="-175.5" font-family="FreeSans" font-size="10.00">ClientSession.cpp</text>
</a>
</g>
</g>
<!-- Node2&#45;&gt;Node14 -->
<g id="edge16" class="edge"><title>Node2&#45;&gt;Node14</title>
<path fill="none" stroke="midnightblue" d="M676.695,-230.377C566.24,-225.023 317.655,-211.332 109.5,-188 106.823,-187.7 104.081,-187.368 101.315,-187.014"/>
<polygon fill="midnightblue" stroke="midnightblue" points="676.79,-233.885 686.947,-230.869 677.126,-226.893 676.79,-233.885"/>
</g>
<!-- Node15 -->
<g id="node15" class="node"><title>Node15</title>
<g id="a_node15"><a xlink:href="_test_lab_scene_8cpp.html" target="_top" xlink:title="TestLabScene.cpp">
<polygon fill="none" stroke="black" points="119,-168.5 119,-187.5 222,-187.5 222,-168.5 119,-168.5"/>
<text text-anchor="middle" x="170.5" y="-175.5" font-family="FreeSans" font-size="10.00">TestLabScene.cpp</text>
</a>
</g>
</g>
<!-- Node2&#45;&gt;Node15 -->
<g id="edge18" class="edge"><title>Node2&#45;&gt;Node15</title>
<path fill="none" stroke="midnightblue" d="M676.668,-228.967C582.846,-222.171 391.715,-207.271 230.5,-188 227.781,-187.675 224.995,-187.323 222.184,-186.953"/>
<polygon fill="midnightblue" stroke="midnightblue" points="676.576,-232.47 686.802,-229.697 677.079,-225.488 676.576,-232.47"/>
</g>
<!-- Node16 -->
<g id="node16" class="node"><title>Node16</title>
<g id="a_node16"><a xlink:href="_meta_player_8cpp.html" target="_top" xlink:title="MetaPlayer.cpp">
<polygon fill="none" stroke="black" points="240,-168.5 240,-187.5 329,-187.5 329,-168.5 240,-168.5"/>
<text text-anchor="middle" x="284.5" y="-175.5" font-family="FreeSans" font-size="10.00">MetaPlayer.cpp</text>
</a>
</g>
</g>
<!-- Node2&#45;&gt;Node16 -->
<g id="edge19" class="edge"><title>Node2&#45;&gt;Node16</title>
<path fill="none" stroke="midnightblue" d="M676.696,-227.46C599.298,-219.812 457.786,-205.017 337.5,-188 334.728,-187.608 331.877,-187.184 329.005,-186.741"/>
<polygon fill="midnightblue" stroke="midnightblue" points="676.431,-230.951 686.726,-228.447 677.116,-223.985 676.431,-230.951"/>
</g>
<!-- Node17 -->
<g id="node17" class="node"><title>Node17</title>
<g id="a_node17"><a xlink:href="_player_peer_8cpp.html" target="_top" xlink:title="PlayerPeer.cpp">
<polygon fill="none" stroke="black" points="347,-168.5 347,-187.5 434,-187.5 434,-168.5 347,-168.5"/>
<text text-anchor="middle" x="390.5" y="-175.5" font-family="FreeSans" font-size="10.00">PlayerPeer.cpp</text>
</a>
</g>
</g>
<!-- Node2&#45;&gt;Node17 -->
<g id="edge20" class="edge"><title>Node2&#45;&gt;Node17</title>
<path fill="none" stroke="midnightblue" d="M676.636,-224.31C617.884,-215.425 524.307,-201.108 443.5,-188 440.46,-187.507 437.323,-186.991 434.164,-186.467"/>
<polygon fill="midnightblue" stroke="midnightblue" points="676.422,-227.817 686.832,-225.85 677.467,-220.895 676.422,-227.817"/>
</g>
<!-- Node18 -->
<g id="node18" class="node"><title>Node18</title>
<g id="a_node18"><a xlink:href="_action_performers_8cpp.html" target="_top" xlink:title="ActionPerformers.cpp">
<polygon fill="none" stroke="black" points="452.5,-168.5 452.5,-187.5 572.5,-187.5 572.5,-168.5 452.5,-168.5"/>
<text text-anchor="middle" x="512.5" y="-175.5" font-family="FreeSans" font-size="10.00">ActionPerformers.cpp</text>
</a>
</g>
</g>
<!-- Node2&#45;&gt;Node18 -->
<g id="edge21" class="edge"><title>Node2&#45;&gt;Node18</title>
<path fill="none" stroke="midnightblue" d="M689.375,-222.024C647.44,-211.823 585.848,-196.841 547.512,-187.516"/>
<polygon fill="midnightblue" stroke="midnightblue" points="688.78,-225.481 699.323,-224.444 690.434,-218.679 688.78,-225.481"/>
</g>
<!-- Node19 -->
<g id="node19" class="node"><title>Node19</title>
<g id="a_node19"><a xlink:href="_fuel_gauge_8cpp.html" target="_top" xlink:title="FuelGauge.cpp">
<polygon fill="none" stroke="black" points="591,-168.5 591,-187.5 678,-187.5 678,-168.5 591,-168.5"/>
<text text-anchor="middle" x="634.5" y="-175.5" font-family="FreeSans" font-size="10.00">FuelGauge.cpp</text>
</a>
</g>
</g>
<!-- Node2&#45;&gt;Node19 -->
<g id="edge22" class="edge"><title>Node2&#45;&gt;Node19</title>
<path fill="none" stroke="midnightblue" d="M709.412,-219.453C690.951,-209.483 666.403,-196.228 650.527,-187.655"/>
<polygon fill="midnightblue" stroke="midnightblue" points="707.971,-222.652 718.433,-224.324 711.297,-216.493 707.971,-222.652"/>
</g>
<!-- Node20 -->
<g id="node20" class="node"><title>Node20</title>
<g id="a_node20"><a xlink:href="_minimap_8cpp.html" target="_top" xlink:title="Minimap.cpp">
<polygon fill="none" stroke="black" points="696,-168.5 696,-187.5 773,-187.5 773,-168.5 696,-168.5"/>
<text text-anchor="middle" x="734.5" y="-175.5" font-family="FreeSans" font-size="10.00">Minimap.cpp</text>
</a>
</g>
</g>
<!-- Node2&#45;&gt;Node20 -->
<g id="edge23" class="edge"><title>Node2&#45;&gt;Node20</title>
<path fill="none" stroke="midnightblue" d="M734.5,-213.805C734.5,-204.91 734.5,-194.78 734.5,-187.751"/>
<polygon fill="midnightblue" stroke="midnightblue" points="731,-214.083 734.5,-224.083 738,-214.083 731,-214.083"/>
</g>
<!-- Node21 -->
<g id="node21" class="node"><title>Node21</title>
<g id="a_node21"><a xlink:href="_speedometer_8cpp.html" target="_top" xlink:title="Speedometer.cpp">
<polygon fill="none" stroke="black" points="791.5,-168.5 791.5,-187.5 893.5,-187.5 893.5,-168.5 791.5,-168.5"/>
<text text-anchor="middle" x="842.5" y="-175.5" font-family="FreeSans" font-size="10.00">Speedometer.cpp</text>
</a>
</g>
</g>
<!-- Node2&#45;&gt;Node21 -->
<g id="edge24" class="edge"><title>Node2&#45;&gt;Node21</title>
<path fill="none" stroke="midnightblue" d="M761.048,-219.726C781.046,-209.727 807.887,-196.307 825.191,-187.655"/>
<polygon fill="midnightblue" stroke="midnightblue" points="759.231,-216.721 751.852,-224.324 762.362,-222.982 759.231,-216.721"/>
</g>
<!-- Node22 -->
<g id="node22" class="node"><title>Node22</title>
<g id="a_node22"><a xlink:href="_main_character_8cpp.html" target="_top" xlink:title="MainCharacter.cpp">
<polygon fill="none" stroke="black" points="911.5,-168.5 911.5,-187.5 1017.5,-187.5 1017.5,-168.5 911.5,-168.5"/>
<text text-anchor="middle" x="964.5" y="-175.5" font-family="FreeSans" font-size="10.00">MainCharacter.cpp</text>
</a>
</g>
</g>
<!-- Node2&#45;&gt;Node22 -->
<g id="edge25" class="edge"><title>Node2&#45;&gt;Node22</title>
<path fill="none" stroke="midnightblue" d="M780.701,-222.153C824.158,-211.95 888.341,-196.881 928.226,-187.516"/>
<polygon fill="midnightblue" stroke="midnightblue" points="779.879,-218.75 770.944,-224.444 781.479,-225.565 779.879,-218.75"/>
</g>
<!-- Node5 -->
<g id="node5" class="node"><title>Node5</title>
<g id="a_node5"><a xlink:href="_game_scene_8h.html" target="_top" xlink:title="GameScene.h">
<polygon fill="none" stroke="black" points="1197,-112.5 1197,-131.5 1282,-131.5 1282,-112.5 1197,-112.5"/>
<text text-anchor="middle" x="1239.5" y="-119.5" font-family="FreeSans" font-size="10.00">GameScene.h</text>
</a>
</g>
</g>
<!-- Node4&#45;&gt;Node5 -->
<g id="edge4" class="edge"><title>Node4&#45;&gt;Node5</title>
<path fill="none" stroke="midnightblue" d="M1206.23,-160.431C1214.64,-150.967 1224.85,-139.483 1231.72,-131.751"/>
<polygon fill="midnightblue" stroke="midnightblue" points="1203.45,-158.284 1199.43,-168.083 1208.69,-162.934 1203.45,-158.284"/>
</g>
<!-- Node11 -->
<g id="node11" class="node"><title>Node11</title>
<g id="a_node11"><a xlink:href="_client_app_8h.html" target="_top" xlink:title="ClientApp.h">
<polygon fill="none" stroke="black" points="1107,-112.5 1107,-131.5 1178,-131.5 1178,-112.5 1107,-112.5"/>
<text text-anchor="middle" x="1142.5" y="-119.5" font-family="FreeSans" font-size="10.00">ClientApp.h</text>
</a>
</g>
</g>
<!-- Node4&#45;&gt;Node11 -->
<g id="edge12" class="edge"><title>Node4&#45;&gt;Node11</title>
<path fill="none" stroke="midnightblue" d="M1176.47,-160.431C1167.88,-150.967 1157.46,-139.483 1150.44,-131.751"/>
<polygon fill="midnightblue" stroke="midnightblue" points="1174.1,-163.029 1183.41,-168.083 1179.28,-158.325 1174.1,-163.029"/>
</g>
<!-- Node13 -->
<g id="node13" class="node"><title>Node13</title>
<g id="a_node13"><a xlink:href="_observer_8cpp.html" target="_top" xlink:title="Observer.cpp">
<polygon fill="none" stroke="black" points="1300.5,-112.5 1300.5,-131.5 1380.5,-131.5 1380.5,-112.5 1300.5,-112.5"/>
<text text-anchor="middle" x="1340.5" y="-119.5" font-family="FreeSans" font-size="10.00">Observer.cpp</text>
</a>
</g>
</g>
<!-- Node4&#45;&gt;Node13 -->
<g id="edge15" class="edge"><title>Node4&#45;&gt;Node13</title>
<path fill="none" stroke="midnightblue" d="M1224.87,-164.906C1252.88,-154.754 1292.2,-140.506 1317,-131.516"/>
<polygon fill="midnightblue" stroke="midnightblue" points="1223.32,-161.746 1215.11,-168.444 1225.7,-168.327 1223.32,-161.746"/>
</g>
<!-- Node6 -->
<g id="node6" class="node"><title>Node6</title>
<g id="a_node6"><a xlink:href="_demo_game_scene_8h.html" target="_top" xlink:title="DemoGameScene.h">
<polygon fill="none" stroke="black" points="1305.5,-56.5 1305.5,-75.5 1419.5,-75.5 1419.5,-56.5 1305.5,-56.5"/>
<text text-anchor="middle" x="1362.5" y="-63.5" font-family="FreeSans" font-size="10.00">DemoGameScene.h</text>
</a>
</g>
</g>
<!-- Node5&#45;&gt;Node6 -->
<g id="edge5" class="edge"><title>Node5&#45;&gt;Node6</title>
<path fill="none" stroke="midnightblue" d="M1268.27,-108.368C1291.31,-98.2553 1322.98,-84.3486 1343.1,-75.5164"/>
<polygon fill="midnightblue" stroke="midnightblue" points="1266.74,-105.219 1258.99,-112.444 1269.55,-111.628 1266.74,-105.219"/>
</g>
<!-- Node8 -->
<g id="node8" class="node"><title>Node8</title>
<g id="a_node8"><a xlink:href="_play_game_scene_8h.html" target="_top" xlink:title="PlayGameScene.h">
<polygon fill="none" stroke="black" points="1437.5,-56.5 1437.5,-75.5 1541.5,-75.5 1541.5,-56.5 1437.5,-56.5"/>
<text text-anchor="middle" x="1489.5" y="-63.5" font-family="FreeSans" font-size="10.00">PlayGameScene.h</text>
</a>
</g>
</g>
<!-- Node5&#45;&gt;Node8 -->
<g id="edge8" class="edge"><title>Node5&#45;&gt;Node8</title>
<path fill="none" stroke="midnightblue" d="M1289.12,-110.281C1336.37,-100.077 1406.54,-84.9203 1450.07,-75.5164"/>
<polygon fill="midnightblue" stroke="midnightblue" points="1288.15,-106.911 1279.11,-112.444 1289.63,-113.753 1288.15,-106.911"/>
</g>
<!-- Node10 -->
<g id="node10" class="node"><title>Node10</title>
<g id="a_node10"><a xlink:href="_game_scene_8cpp.html" target="_top" xlink:title="GameScene.cpp">
<polygon fill="none" stroke="black" points="1191.5,-56.5 1191.5,-75.5 1287.5,-75.5 1287.5,-56.5 1191.5,-56.5"/>
<text text-anchor="middle" x="1239.5" y="-63.5" font-family="FreeSans" font-size="10.00">GameScene.cpp</text>
</a>
</g>
</g>
<!-- Node5&#45;&gt;Node10 -->
<g id="edge11" class="edge"><title>Node5&#45;&gt;Node10</title>
<path fill="none" stroke="midnightblue" d="M1239.5,-101.805C1239.5,-92.9102 1239.5,-82.7798 1239.5,-75.7511"/>
<polygon fill="midnightblue" stroke="midnightblue" points="1236,-102.083 1239.5,-112.083 1243,-102.083 1236,-102.083"/>
</g>
<!-- Node6&#45;&gt;Node3 -->
<g id="edge6" class="edge"><title>Node6&#45;&gt;Node3</title>
<path fill="none" stroke="midnightblue" d="M1320.92,-53.8291C1282.97,-43.6333 1227.69,-28.7823 1193.2,-19.5164"/>
<polygon fill="midnightblue" stroke="midnightblue" points="1320.09,-57.229 1330.65,-56.4435 1321.9,-50.4688 1320.09,-57.229"/>
</g>
<!-- Node7 -->
<g id="node7" class="node"><title>Node7</title>
<g id="a_node7"><a xlink:href="_demo_game_scene_8cpp.html" target="_top" xlink:title="DemoGameScene.cpp">
<polygon fill="none" stroke="black" points="1300,-0.5 1300,-19.5 1425,-19.5 1425,-0.5 1300,-0.5"/>
<text text-anchor="middle" x="1362.5" y="-7.5" font-family="FreeSans" font-size="10.00">DemoGameScene.cpp</text>
</a>
</g>
</g>
<!-- Node6&#45;&gt;Node7 -->
<g id="edge7" class="edge"><title>Node6&#45;&gt;Node7</title>
<path fill="none" stroke="midnightblue" d="M1362.5,-45.8045C1362.5,-36.9102 1362.5,-26.7798 1362.5,-19.7511"/>
<polygon fill="midnightblue" stroke="midnightblue" points="1359,-46.083 1362.5,-56.083 1366,-46.083 1359,-46.083"/>
</g>
<!-- Node8&#45;&gt;Node3 -->
<g id="edge9" class="edge"><title>Node8&#45;&gt;Node3</title>
<path fill="none" stroke="midnightblue" d="M1427.3,-54.7597C1361.56,-43.9371 1259.73,-27.1717 1203.09,-17.8476"/>
<polygon fill="midnightblue" stroke="midnightblue" points="1427.09,-58.2725 1437.53,-56.4435 1428.23,-51.3655 1427.09,-58.2725"/>
</g>
<!-- Node8&#45;&gt;Node9 -->
<g id="edge10" class="edge"><title>Node8&#45;&gt;Node9</title>
<path fill="none" stroke="midnightblue" d="M1503.61,-48.4314C1511.68,-38.9673 1521.46,-27.4827 1528.05,-19.7511"/>
<polygon fill="midnightblue" stroke="midnightblue" points="1500.92,-46.2009 1497.1,-56.083 1506.25,-50.7402 1500.92,-46.2009"/>
</g>
<!-- Node11&#45;&gt;Node3 -->
<g id="edge13" class="edge"><title>Node11&#45;&gt;Node3</title>
<path fill="none" stroke="midnightblue" d="M1122.73,-105.647C1108.69,-92.7585 1093.75,-73.6701 1102.5,-56 1110.79,-39.259 1128.61,-27.0457 1142.52,-19.6018"/>
<polygon fill="midnightblue" stroke="midnightblue" points="1120.83,-108.628 1130.71,-112.461 1125.38,-103.305 1120.83,-108.628"/>
</g>
<!-- Node12 -->
<g id="node12" class="node"><title>Node12</title>
<g id="a_node12"><a xlink:href="main_8cpp.html" target="_top" xlink:title="main.cpp">
<polygon fill="none" stroke="black" points="1112,-56.5 1112,-75.5 1173,-75.5 1173,-56.5 1112,-56.5"/>
<text text-anchor="middle" x="1142.5" y="-63.5" font-family="FreeSans" font-size="10.00">main.cpp</text>
</a>
</g>
</g>
<!-- Node11&#45;&gt;Node12 -->
<g id="edge14" class="edge"><title>Node11&#45;&gt;Node12</title>
<path fill="none" stroke="midnightblue" d="M1142.5,-101.805C1142.5,-92.9102 1142.5,-82.7798 1142.5,-75.7511"/>
<polygon fill="midnightblue" stroke="midnightblue" points="1139,-102.083 1142.5,-112.083 1146,-102.083 1139,-102.083"/>
</g>
<!-- Node24 -->
<g id="node24" class="node"><title>Node24</title>
<g id="a_node24"><a xlink:href="_elem_binding_8cpp.html" target="_top" xlink:title="ElemBinding.cpp">
<polygon fill="none" stroke="black" points="1683.5,-168.5 1683.5,-187.5 1779.5,-187.5 1779.5,-168.5 1683.5,-168.5"/>
<text text-anchor="middle" x="1731.5" y="-175.5" font-family="FreeSans" font-size="10.00">ElemBinding.cpp</text>
</a>
</g>
</g>
<!-- Node23&#45;&gt;Node24 -->
<g id="edge27" class="edge"><title>Node23&#45;&gt;Node24</title>
<path fill="none" stroke="midnightblue" d="M1819.02,-220.096C1797.53,-210.007 1768.28,-196.27 1749.64,-187.516"/>
<polygon fill="midnightblue" stroke="midnightblue" points="1817.74,-223.361 1828.28,-224.444 1820.71,-217.025 1817.74,-223.361"/>
</g>
<!-- Node25 -->
<g id="node25" class="node"><title>Node25</title>
<g id="a_node25"><a xlink:href="_bumper_gate_8cpp.html" target="_top" xlink:title="BumperGate.cpp">
<polygon fill="none" stroke="black" points="1797.5,-168.5 1797.5,-187.5 1895.5,-187.5 1895.5,-168.5 1797.5,-168.5"/>
<text text-anchor="middle" x="1846.5" y="-175.5" font-family="FreeSans" font-size="10.00">BumperGate.cpp</text>
</a>
</g>
</g>
<!-- Node23&#45;&gt;Node25 -->
<g id="edge28" class="edge"><title>Node23&#45;&gt;Node25</title>
<path fill="none" stroke="midnightblue" d="M1846.5,-213.805C1846.5,-204.91 1846.5,-194.78 1846.5,-187.751"/>
<polygon fill="midnightblue" stroke="midnightblue" points="1843,-214.083 1846.5,-224.083 1850,-214.083 1843,-214.083"/>
</g>
<!-- Node26 -->
<g id="node26" class="node"><title>Node26</title>
<g id="a_node26"><a xlink:href="_obj_fac1_8cpp.html" target="_top" xlink:title="ObjFac1.cpp">
<polygon fill="none" stroke="black" points="1913.5,-168.5 1913.5,-187.5 1987.5,-187.5 1987.5,-168.5 1913.5,-168.5"/>
<text text-anchor="middle" x="1950.5" y="-175.5" font-family="FreeSans" font-size="10.00">ObjFac1.cpp</text>
</a>
</g>
</g>
<!-- Node23&#45;&gt;Node26 -->
<g id="edge29" class="edge"><title>Node23&#45;&gt;Node26</title>
<path fill="none" stroke="midnightblue" d="M1872.33,-219.59C1891.56,-209.605 1917.24,-196.267 1933.83,-187.655"/>
<polygon fill="midnightblue" stroke="midnightblue" points="1870.47,-216.61 1863.21,-224.324 1873.7,-222.822 1870.47,-216.61"/>
</g>
<!-- Node27&#45;&gt;Node24 -->
<g id="edge31" class="edge"><title>Node27&#45;&gt;Node24</title>
<path fill="none" stroke="midnightblue" d="M1739.3,-214.101C1737.31,-205.136 1735.02,-194.858 1733.44,-187.751"/>
<polygon fill="midnightblue" stroke="midnightblue" points="1735.93,-215.08 1741.52,-224.083 1742.77,-213.562 1735.93,-215.08"/>
</g>
<!-- Node27&#45;&gt;Node26 -->
<g id="edge33" class="edge"><title>Node27&#45;&gt;Node26</title>
<path fill="none" stroke="midnightblue" d="M1781.99,-222.958C1821.1,-212.756 1881.02,-197.125 1917.87,-187.512"/>
<polygon fill="midnightblue" stroke="midnightblue" points="1781.08,-219.581 1772.28,-225.492 1782.84,-226.354 1781.08,-219.581"/>
</g>
<!-- Node28 -->
<g id="node28" class="node"><title>Node28</title>
<g id="a_node28"><a xlink:href="_missile_8cpp.html" target="_top" xlink:title="Missile.cpp">
<polygon fill="none" stroke="black" points="1597.5,-168.5 1597.5,-187.5 1665.5,-187.5 1665.5,-168.5 1597.5,-168.5"/>
<text text-anchor="middle" x="1631.5" y="-175.5" font-family="FreeSans" font-size="10.00">Missile.cpp</text>
</a>
</g>
</g>
<!-- Node27&#45;&gt;Node28 -->
<g id="edge32" class="edge"><title>Node27&#45;&gt;Node28</title>
<path fill="none" stroke="midnightblue" d="M1716.25,-219.862C1695.48,-209.849 1667.48,-196.346 1649.45,-187.655"/>
<polygon fill="midnightblue" stroke="midnightblue" points="1714.98,-223.134 1725.51,-224.324 1718.02,-216.828 1714.98,-223.134"/>
</g>
<!-- Node30&#45;&gt;Node26 -->
<g id="edge36" class="edge"><title>Node30&#45;&gt;Node26</title>
<path fill="none" stroke="midnightblue" d="M1950.5,-213.805C1950.5,-204.91 1950.5,-194.78 1950.5,-187.751"/>
<polygon fill="midnightblue" stroke="midnightblue" points="1947,-214.083 1950.5,-224.083 1954,-214.083 1947,-214.083"/>
</g>
<!-- Node31 -->
<g id="node31" class="node"><title>Node31</title>
<g id="a_node31"><a xlink:href="_test_element_8cpp.html" target="_top" xlink:title="TestElement.cpp">
<polygon fill="none" stroke="black" points="2006,-168.5 2006,-187.5 2101,-187.5 2101,-168.5 2006,-168.5"/>
<text text-anchor="middle" x="2053.5" y="-175.5" font-family="FreeSans" font-size="10.00">TestElement.cpp</text>
</a>
</g>
</g>
<!-- Node30&#45;&gt;Node31 -->
<g id="edge37" class="edge"><title>Node30&#45;&gt;Node31</title>
<path fill="none" stroke="midnightblue" d="M1976.08,-219.59C1995.12,-209.605 2020.56,-196.267 2036.99,-187.655"/>
<polygon fill="midnightblue" stroke="midnightblue" points="1974.28,-216.581 1967.05,-224.324 1977.53,-222.78 1974.28,-216.581"/>
</g>
</g>
</svg>
