<?xml version="1.0" encoding="UTF-8" standalone="no"?>
<!DOCTYPE svg PUBLIC "-//W3C//DTD SVG 1.1//EN"
 "http://www.w3.org/Graphics/SVG/1.1/DTD/svg11.dtd">
<!-- Generated by graphviz version 2.26.3 (20100126.1600)
 -->
<!-- Title: PhysicalCollision.h Pages: 1 -->
<svg width="2104pt" height="320pt"
 viewBox="0.00 0.00 2104.00 320.00" xmlns="http://www.w3.org/2000/svg" xmlns:xlink="http://www.w3.org/1999/xlink">
<g id="graph1" class="graph" transform="scale(1 1) rotate(0) translate(4 316)">
<title>PhysicalCollision.h</title>
<!-- Node1 -->
<g id="node1" class="node"><title>Node1</title>
<polygon fill="#bfbfbf" stroke="black" points="1328,-291 1328,-311 1426,-311 1426,-291 1328,-291"/>
<text text-anchor="middle" x="1377" y="-298" font-family="FreeSans" font-size="10.00">PhysicalCollision.h</text>
</g>
<!-- Node2 -->
<g id="node3" class="node"><title>Node2</title>
<a xlink:href="_main_character_8h.html" target="_top" xlink:title="MainCharacter.h">
<polygon fill="none" stroke="black" points="519.5,-233 519.5,-253 606.5,-253 606.5,-233 519.5,-233"/>
<text text-anchor="middle" x="563" y="-240" font-family="FreeSans" font-size="10.00">MainCharacter.h</text>
</a>
</g>
<!-- Node1&#45;&gt;Node2 -->
<g id="edge2" class="edge"><title>Node1&#45;&gt;Node2</title>
<path fill="none" stroke="midnightblue" d="M1317.58,-296.766C1161.59,-285.651 743.01,-255.826 606.62,-246.108"/>
<polygon fill="midnightblue" stroke="midnightblue" points="1317.69,-300.283 1327.91,-297.502 1318.19,-293.3 1317.69,-300.283"/>
</g>
<!-- Node35 -->
<g id="node79" class="node"><title>Node35</title>
<a xlink:href="_physical_collision_8cpp.html" target="_top" xlink:title="PhysicalCollision.cpp">
<polygon fill="none" stroke="black" points="1170,-233 1170,-253 1278,-253 1278,-233 1170,-233"/>
<text text-anchor="middle" x="1224" y="-240" font-family="FreeSans" font-size="10.00">PhysicalCollision.cpp</text>
</a>
</g>
<!-- Node1&#45;&gt;Node35 -->
<g id="edge88" class="edge"><title>Node1&#45;&gt;Node35</title>
<path fill="none" stroke="midnightblue" d="M1340.64,-287.216C1312.97,-276.726 1275.52,-262.53 1250.6,-253.084"/>
<polygon fill="midnightblue" stroke="midnightblue" points="1339.76,-290.625 1350.35,-290.897 1342.24,-284.08 1339.76,-290.625"/>
</g>
<!-- Node36 -->
<g id="node81" class="node"><title>Node36</title>
<a xlink:href="_bumper_gate_8h.html" target="_top" xlink:title="BumperGate.h">
<polygon fill="none" stroke="black" points="1295.5,-233 1295.5,-253 1374.5,-253 1374.5,-233 1295.5,-233"/>
<text text-anchor="middle" x="1335" y="-240" font-family="FreeSans" font-size="10.00">BumperGate.h</text>
</a>
</g>
<!-- Node1&#45;&gt;Node36 -->
<g id="edge90" class="edge"><title>Node1&#45;&gt;Node36</title>
<path fill="none" stroke="midnightblue" d="M1363.74,-282.686C1356.74,-273.017 1348.4,-261.506 1342.51,-253.378"/>
<polygon fill="midnightblue" stroke="midnightblue" points="1360.98,-284.851 1369.68,-290.897 1366.65,-280.745 1360.98,-284.851"/>
</g>
<!-- Node39 -->
<g id="node87" class="node"><title>Node39</title>
<a xlink:href="_missile_8h.html" target="_top" xlink:title="Missile.h">
<polygon fill="none" stroke="black" points="1391.5,-233 1391.5,-253 1446.5,-253 1446.5,-233 1391.5,-233"/>
<text text-anchor="middle" x="1419" y="-240" font-family="FreeSans" font-size="10.00">Missile.h</text>
</a>
</g>
<!-- Node1&#45;&gt;Node39 -->
<g id="edge96" class="edge"><title>Node1&#45;&gt;Node39</title>
<path fill="none" stroke="midnightblue" d="M1390.26,-282.686C1397.26,-273.017 1405.6,-261.506 1411.49,-253.378"/>
<polygon fill="midnightblue" stroke="midnightblue" points="1387.35,-280.745 1384.32,-290.897 1393.02,-284.851 1387.35,-280.745"/>
</g>
<!-- Node41 -->
<g id="node92" class="node"><title>Node41</title>
<a xlink:href="_test_element_8h.html" target="_top" xlink:title="TestElement.h">
<polygon fill="none" stroke="black" points="1463.5,-233 1463.5,-253 1542.5,-253 1542.5,-233 1463.5,-233"/>
<text text-anchor="middle" x="1503" y="-240" font-family="FreeSans" font-size="10.00">TestElement.h</text>
</a>
</g>
<!-- Node1&#45;&gt;Node41 -->
<g id="edge102" class="edge"><title>Node1&#45;&gt;Node41</title>
<path fill="none" stroke="midnightblue" d="M1408.12,-286.674C1430.71,-276.278 1460.71,-262.465 1480.88,-253.182"/>
<polygon fill="midnightblue" stroke="midnightblue" points="1406.57,-283.536 1398.95,-290.897 1409.49,-289.895 1406.57,-283.536"/>
</g>
<!-- Node43 -->
<g id="node97" class="node"><title>Node43</title>
<a xlink:href="_bitmap_surface_8cpp.html" target="_top" xlink:title="BitmapSurface.cpp">
<polygon fill="none" stroke="black" points="1559.5,-233 1559.5,-253 1658.5,-253 1658.5,-233 1559.5,-233"/>
<text text-anchor="middle" x="1609" y="-240" font-family="FreeSans" font-size="10.00">BitmapSurface.cpp</text>
</a>
</g>
<!-- Node1&#45;&gt;Node43 -->
<g id="edge108" class="edge"><title>Node1&#45;&gt;Node43</title>
<path fill="none" stroke="midnightblue" d="M1427,-288.5C1469.46,-277.884 1529.61,-262.847 1568.96,-253.011"/>
<polygon fill="midnightblue" stroke="midnightblue" points="1426,-285.142 1417.15,-290.963 1427.7,-291.933 1426,-285.142"/>
</g>
<!-- Node3 -->
<g id="node5" class="node"><title>Node3</title>
<a xlink:href="_controller_8h.html" target="_top" xlink:title="Controller.h">
<polygon fill="none" stroke="black" points="1157.5,-117 1157.5,-137 1222.5,-137 1222.5,-117 1157.5,-117"/>
<text text-anchor="middle" x="1190" y="-124" font-family="FreeSans" font-size="10.00">Controller.h</text>
</a>
</g>
<!-- Node2&#45;&gt;Node3 -->
<g id="edge4" class="edge"><title>Node2&#45;&gt;Node3</title>
<path fill="none" stroke="midnightblue" d="M616.789,-233.049C743.042,-209.691 1055.37,-151.907 1157.27,-133.055"/>
<polygon fill="midnightblue" stroke="midnightblue" points="615.788,-229.674 606.592,-234.935 617.062,-236.558 615.788,-229.674"/>
</g>
<!-- Node4 -->
<g id="node7" class="node"><title>Node4</title>
<a xlink:href="_client_app_8cpp.html" target="_top" xlink:title="ClientApp.cpp">
<polygon fill="none" stroke="black" points="275.5,-59 275.5,-79 352.5,-79 352.5,-59 275.5,-59"/>
<text text-anchor="middle" x="314" y="-66" font-family="FreeSans" font-size="10.00">ClientApp.cpp</text>
</a>
</g>
<!-- Node2&#45;&gt;Node4 -->
<g id="edge52" class="edge"><title>Node2&#45;&gt;Node4</title>
<path fill="none" stroke="midnightblue" d="M561.914,-222.58C560.129,-207.592 555.558,-187.566 544,-174 536.723,-165.459 394.303,-103.56 337.296,-79.0014"/>
<polygon fill="midnightblue" stroke="midnightblue" points="558.455,-223.208 562.805,-232.868 565.429,-222.603 558.455,-223.208"/>
</g>
<!-- Node7 -->
<g id="node13" class="node"><title>Node7</title>
<a xlink:href="_game_app_8cpp.html" target="_top" xlink:title="GameApp.cpp">
<polygon fill="none" stroke="black" points="370,-59 370,-79 448,-79 448,-59 370,-59"/>
<text text-anchor="middle" x="409" y="-66" font-family="FreeSans" font-size="10.00">GameApp.cpp</text>
</a>
</g>
<!-- Node2&#45;&gt;Node7 -->
<g id="edge80" class="edge"><title>Node2&#45;&gt;Node7</title>
<path fill="none" stroke="midnightblue" d="M571.438,-223.678C581.94,-196.29 595.584,-146.164 570,-116 561.972,-106.535 493.221,-88.8293 448.194,-78.0585"/>
<polygon fill="midnightblue" stroke="midnightblue" points="568.183,-222.391 567.654,-232.972 574.666,-225.03 568.183,-222.391"/>
</g>
<!-- Node19 -->
<g id="node39" class="node"><title>Node19</title>
<a xlink:href="_action_performers_8h.html" target="_top" xlink:title="ActionPerformers.h">
<polygon fill="none" stroke="black" points="1974,-59 1974,-79 2074,-79 2074,-59 1974,-59"/>
<text text-anchor="middle" x="2024" y="-66" font-family="FreeSans" font-size="10.00">ActionPerformers.h</text>
</a>
</g>
<!-- Node2&#45;&gt;Node19 -->
<g id="edge84" class="edge"><title>Node2&#45;&gt;Node19</title>
<path fill="none" stroke="midnightblue" d="M616.606,-237.087C801.294,-216.626 1428.2,-146.449 1945,-80 1954.34,-78.7991 1964.29,-77.4601 1973.87,-76.1411"/>
<polygon fill="midnightblue" stroke="midnightblue" points="616.163,-233.614 606.609,-238.193 616.934,-240.572 616.163,-233.614"/>
</g>
<!-- Node24 -->
<g id="node51" class="node"><title>Node24</title>
<a xlink:href="_observer_8h.html" target="_top" xlink:title="Observer.h">
<polygon fill="none" stroke="black" points="119,-175 119,-195 183,-195 183,-175 119,-175"/>
<text text-anchor="middle" x="151" y="-182" font-family="FreeSans" font-size="10.00">Observer.h</text>
</a>
</g>
<!-- Node2&#45;&gt;Node24 -->
<g id="edge54" class="edge"><title>Node2&#45;&gt;Node24</title>
<path fill="none" stroke="midnightblue" d="M509.028,-238.485C436.485,-231.888 303.724,-217.958 192,-196 189.107,-195.431 186.118,-194.772 183.132,-194.064"/>
<polygon fill="midnightblue" stroke="midnightblue" points="509.011,-241.997 519.284,-239.405 509.637,-235.025 509.011,-241.997"/>
</g>
<!-- Node32 -->
<g id="node71" class="node"><title>Node32</title>
<a xlink:href="_client_session_8cpp.html" target="_top" xlink:title="ClientSession.cpp">
<polygon fill="none" stroke="black" points="200.5,-175 200.5,-195 295.5,-195 295.5,-175 200.5,-175"/>
<text text-anchor="middle" x="248" y="-182" font-family="FreeSans" font-size="10.00">ClientSession.cpp</text>
</a>
</g>
<!-- Node2&#45;&gt;Node32 -->
<g id="edge78" class="edge"><title>Node2&#45;&gt;Node32</title>
<path fill="none" stroke="midnightblue" d="M509.355,-233.498C456.947,-224.161 374.936,-209.403 304,-196 301.274,-195.485 298.474,-194.951 295.65,-194.408"/>
<polygon fill="midnightblue" stroke="midnightblue" points="508.971,-236.985 519.43,-235.292 510.198,-230.093 508.971,-236.985"/>
</g>
<!-- Node33 -->
<g id="node74" class="node"><title>Node33</title>
<a xlink:href="_network_session_8cpp.html" target="_top" xlink:title="NetworkSession.cpp">
<polygon fill="none" stroke="black" points="312.5,-175 312.5,-195 419.5,-195 419.5,-175 312.5,-175"/>
<text text-anchor="middle" x="366" y="-182" font-family="FreeSans" font-size="10.00">NetworkSession.cpp</text>
</a>
</g>
<!-- Node2&#45;&gt;Node33 -->
<g id="edge82" class="edge"><title>Node2&#45;&gt;Node33</title>
<path fill="none" stroke="midnightblue" d="M518.967,-230.036C483.1,-219.476 433.18,-204.779 400.251,-195.084"/>
<polygon fill="midnightblue" stroke="midnightblue" points="518.104,-233.43 528.685,-232.897 520.081,-226.715 518.104,-233.43"/>
</g>
<!-- Node34 -->
<g id="node77" class="node"><title>Node34</title>
<a xlink:href="_main_character_8cpp.html" target="_top" xlink:title="MainCharacter.cpp">
<polygon fill="none" stroke="black" points="437,-175 437,-195 535,-195 535,-175 437,-175"/>
<text text-anchor="middle" x="486" y="-182" font-family="FreeSans" font-size="10.00">MainCharacter.cpp</text>
</a>
</g>
<!-- Node2&#45;&gt;Node34 -->
<g id="edge86" class="edge"><title>Node2&#45;&gt;Node34</title>
<path fill="none" stroke="midnightblue" d="M541.343,-226.687C527.91,-216.569 511.072,-203.885 499.517,-195.182"/>
<polygon fill="midnightblue" stroke="midnightblue" points="539.494,-229.676 549.588,-232.897 543.706,-224.085 539.494,-229.676"/>
</g>
<!-- Node3&#45;&gt;Node4 -->
<g id="edge6" class="edge"><title>Node3&#45;&gt;Node4</title>
<path fill="none" stroke="midnightblue" d="M1147.08,-125.551C999.744,-120.422 515.158,-102.238 361,-80 358.263,-79.6051 355.45,-79.1293 352.628,-78.5999"/>
<polygon fill="midnightblue" stroke="midnightblue" points="1147.38,-129.063 1157.5,-125.911 1147.63,-122.068 1147.38,-129.063"/>
</g>
<!-- Node5 -->
<g id="node9" class="node"><title>Node5</title>
<a xlink:href="_control_prefs_page_8cpp.html" target="_top" xlink:title="ControlPrefsPage.cpp">
<polygon fill="none" stroke="black" points="1093.5,-59 1093.5,-79 1204.5,-79 1204.5,-59 1093.5,-59"/>
<text text-anchor="middle" x="1149" y="-66" font-family="FreeSans" font-size="10.00">ControlPrefsPage.cpp</text>
</a>
</g>
<!-- Node3&#45;&gt;Node5 -->
<g id="edge8" class="edge"><title>Node3&#45;&gt;Node5</title>
<path fill="none" stroke="midnightblue" d="M1177.05,-108.686C1170.22,-99.0169 1162.08,-87.5059 1156.34,-79.3776"/>
<polygon fill="midnightblue" stroke="midnightblue" points="1174.23,-110.752 1182.86,-116.897 1179.94,-106.711 1174.23,-110.752"/>
</g>
<!-- Node6 -->
<g id="node11" class="node"><title>Node6</title>
<a xlink:href="_form_scene_8cpp.html" target="_top" xlink:title="FormScene.cpp">
<polygon fill="none" stroke="black" points="1463.5,-59 1463.5,-79 1548.5,-79 1548.5,-59 1463.5,-59"/>
<text text-anchor="middle" x="1506" y="-66" font-family="FreeSans" font-size="10.00">FormScene.cpp</text>
</a>
</g>
<!-- Node3&#45;&gt;Node6 -->
<g id="edge10" class="edge"><title>Node3&#45;&gt;Node6</title>
<path fill="none" stroke="midnightblue" d="M1232.7,-116.678C1233.81,-116.445 1234.91,-116.219 1236,-116 1332.7,-96.517 1358.09,-98.4041 1455,-80 1457.76,-79.4761 1460.6,-78.9178 1463.46,-78.3411"/>
<polygon fill="midnightblue" stroke="midnightblue" points="1231.62,-113.333 1222.6,-118.898 1233.12,-120.17 1231.62,-113.333"/>
</g>
<!-- Node3&#45;&gt;Node7 -->
<g id="edge12" class="edge"><title>Node3&#45;&gt;Node7</title>
<path fill="none" stroke="midnightblue" d="M1147.12,-125.161C1011.31,-119.194 591.666,-99.617 457,-80 454.124,-79.581 451.165,-79.0792 448.196,-78.5241"/>
<polygon fill="midnightblue" stroke="midnightblue" points="1147.01,-128.66 1157.15,-125.6 1147.31,-121.666 1147.01,-128.66"/>
</g>
<!-- Node8 -->
<g id="node15" class="node"><title>Node8</title>
<a xlink:href="_game_scene_8cpp.html" target="_top" xlink:title="GameScene.cpp">
<polygon fill="none" stroke="black" points="465.5,-59 465.5,-79 554.5,-79 554.5,-59 465.5,-59"/>
<text text-anchor="middle" x="510" y="-66" font-family="FreeSans" font-size="10.00">GameScene.cpp</text>
</a>
</g>
<!-- Node3&#45;&gt;Node8 -->
<g id="edge14" class="edge"><title>Node3&#45;&gt;Node8</title>
<path fill="none" stroke="midnightblue" d="M1147,-125.7C1045.12,-122.203 781.198,-110.689 563,-80 560.301,-79.6204 557.534,-79.1857 554.748,-78.7132"/>
<polygon fill="midnightblue" stroke="midnightblue" points="1147.09,-129.205 1157.2,-126.042 1147.33,-122.209 1147.09,-129.205"/>
</g>
<!-- Node9 -->
<g id="node17" class="node"><title>Node9</title>
<a xlink:href="_main_menu_scene_8cpp.html" target="_top" xlink:title="MainMenuScene.cpp">
<polygon fill="none" stroke="black" points="1565.5,-59 1565.5,-79 1672.5,-79 1672.5,-59 1565.5,-59"/>
<text text-anchor="middle" x="1619" y="-66" font-family="FreeSans" font-size="10.00">MainMenuScene.cpp</text>
</a>
</g>
<!-- Node3&#45;&gt;Node9 -->
<g id="edge16" class="edge"><title>Node3&#45;&gt;Node9</title>
<path fill="none" stroke="midnightblue" d="M1232.69,-116.603C1233.8,-116.393 1234.91,-116.191 1236,-116 1377.41,-91.259 1414.92,-100.55 1557,-80 1559.7,-79.6088 1562.47,-79.1891 1565.27,-78.7502"/>
<polygon fill="midnightblue" stroke="midnightblue" points="1231.65,-113.243 1222.56,-118.689 1233.07,-120.099 1231.65,-113.243"/>
</g>
<!-- Node10 -->
<g id="node19" class="node"><title>Node10</title>
<a xlink:href="_message_scene_8cpp.html" target="_top" xlink:title="MessageScene.cpp">
<polygon fill="none" stroke="black" points="1373,-1 1373,-21 1475,-21 1475,-1 1373,-1"/>
<text text-anchor="middle" x="1424" y="-8" font-family="FreeSans" font-size="10.00">MessageScene.cpp</text>
</a>
</g>
<!-- Node3&#45;&gt;Node10 -->
<g id="edge18" class="edge"><title>Node3&#45;&gt;Node10</title>
<path fill="none" stroke="midnightblue" d="M1201.77,-108.485C1212.69,-92.789 1230.34,-70.8405 1251,-58 1288.14,-34.918 1336.62,-23.0151 1372.81,-16.9731"/>
<polygon fill="midnightblue" stroke="midnightblue" points="1198.8,-106.63 1196.15,-116.887 1204.62,-110.523 1198.8,-106.63"/>
</g>
<!-- Node11 -->
<g id="node21" class="node"><title>Node11</title>
<a xlink:href="_action_button_8h.html" target="_top" xlink:title="ActionButton.h">
<polygon fill="none" stroke="black" points="1690,-59 1690,-79 1770,-79 1770,-59 1690,-59"/>
<text text-anchor="middle" x="1730" y="-66" font-family="FreeSans" font-size="10.00">ActionButton.h</text>
</a>
</g>
<!-- Node3&#45;&gt;Node11 -->
<g id="edge20" class="edge"><title>Node3&#45;&gt;Node11</title>
<path fill="none" stroke="midnightblue" d="M1232.68,-116.557C1233.8,-116.36 1234.91,-116.174 1236,-116 1431.96,-84.8336 1484.83,-109.804 1681,-80 1683.93,-79.5547 1686.95,-79.0337 1689.98,-78.4649"/>
<polygon fill="midnightblue" stroke="midnightblue" points="1231.67,-113.189 1222.54,-118.563 1233.03,-120.056 1231.67,-113.189"/>
</g>
<!-- Node12 -->
<g id="node24" class="node"><title>Node12</title>
<a xlink:href="_test_lab_scene_8cpp.html" target="_top" xlink:title="TestLabScene.cpp">
<polygon fill="none" stroke="black" points="1776,-1 1776,-21 1874,-21 1874,-1 1776,-1"/>
<text text-anchor="middle" x="1825" y="-8" font-family="FreeSans" font-size="10.00">TestLabScene.cpp</text>
</a>
</g>
<!-- Node3&#45;&gt;Node12 -->
<g id="edge34" class="edge"><title>Node3&#45;&gt;Node12</title>
<path fill="none" stroke="midnightblue" d="M1232.68,-116.515C1233.79,-116.331 1234.9,-116.158 1236,-116 1312.09,-105.014 1874.07,-135.76 1927,-80 1951.43,-54.2602 1901.29,-32.8892 1863.02,-21.044"/>
<polygon fill="midnightblue" stroke="midnightblue" points="1231.7,-113.139 1222.53,-118.445 1233,-120.015 1231.7,-113.139"/>
</g>
<!-- Node14 -->
<g id="node28" class="node"><title>Node14</title>
<a xlink:href="_palette_scene_8cpp.html" target="_top" xlink:title="PaletteScene.cpp">
<polygon fill="none" stroke="black" points="1825.5,-59 1825.5,-79 1918.5,-79 1918.5,-59 1825.5,-59"/>
<text text-anchor="middle" x="1872" y="-66" font-family="FreeSans" font-size="10.00">PaletteScene.cpp</text>
</a>
</g>
<!-- Node3&#45;&gt;Node14 -->
<g id="edge28" class="edge"><title>Node3&#45;&gt;Node14</title>
<path fill="none" stroke="midnightblue" d="M1232.68,-116.53C1233.8,-116.341 1234.9,-116.164 1236,-116 1489.67,-78.0317 1557.4,-111.182 1812,-80 1816.31,-79.4722 1820.78,-78.8312 1825.24,-78.127"/>
<polygon fill="midnightblue" stroke="midnightblue" points="1231.69,-113.157 1222.53,-118.488 1233.01,-120.03 1231.69,-113.157"/>
</g>
<!-- Node15 -->
<g id="node30" class="node"><title>Node15</title>
<a xlink:href="_pause_menu_scene_8cpp.html" target="_top" xlink:title="PauseMenuScene.cpp">
<polygon fill="none" stroke="black" points="572,-59 572,-79 686,-79 686,-59 572,-59"/>
<text text-anchor="middle" x="629" y="-66" font-family="FreeSans" font-size="10.00">PauseMenuScene.cpp</text>
</a>
</g>
<!-- Node3&#45;&gt;Node15 -->
<g id="edge30" class="edge"><title>Node3&#45;&gt;Node15</title>
<path fill="none" stroke="midnightblue" d="M1147.34,-123.968C1061.49,-117.641 861.804,-101.792 695,-80 692.12,-79.6238 689.174,-79.2162 686.201,-78.7868"/>
<polygon fill="midnightblue" stroke="midnightblue" points="1147.25,-127.471 1157.48,-124.71 1147.76,-120.489 1147.25,-127.471"/>
</g>
<!-- Node16 -->
<g id="node32" class="node"><title>Node16</title>
<a xlink:href="_practice_setup_scene_8cpp.html" target="_top" xlink:title="PracticeSetupScene.cpp">
<polygon fill="none" stroke="black" points="704,-59 704,-79 828,-79 828,-59 704,-59"/>
<text text-anchor="middle" x="766" y="-66" font-family="FreeSans" font-size="10.00">PracticeSetupScene.cpp</text>
</a>
</g>
<!-- Node3&#45;&gt;Node16 -->
<g id="edge32" class="edge"><title>Node3&#45;&gt;Node16</title>
<path fill="none" stroke="midnightblue" d="M1147.28,-121.611C1080.85,-113.164 948.817,-96.1039 837,-80 834.16,-79.591 831.258,-79.1668 828.327,-78.7333"/>
<polygon fill="midnightblue" stroke="midnightblue" points="1147,-125.103 1157.36,-122.891 1147.88,-118.159 1147,-125.103"/>
</g>
<!-- Node17 -->
<g id="node35" class="node"><title>Node17</title>
<a xlink:href="_track_select_scene_8cpp.html" target="_top" xlink:title="TrackSelectScene.cpp">
<polygon fill="none" stroke="black" points="845.5,-59 845.5,-79 960.5,-79 960.5,-59 845.5,-59"/>
<text text-anchor="middle" x="903" y="-66" font-family="FreeSans" font-size="10.00">TrackSelectScene.cpp</text>
</a>
</g>
<!-- Node3&#45;&gt;Node17 -->
<g id="edge36" class="edge"><title>Node3&#45;&gt;Node17</title>
<path fill="none" stroke="midnightblue" d="M1147.46,-118.403C1095.48,-107.898 1007.68,-90.1547 952.659,-79.0355"/>
<polygon fill="midnightblue" stroke="midnightblue" points="1146.86,-121.853 1157.36,-120.403 1148.25,-114.992 1146.86,-121.853"/>
</g>
<!-- Node18 -->
<g id="node37" class="node"><title>Node18</title>
<a xlink:href="_console_scene_8cpp.html" target="_top" xlink:title="ConsoleScene.cpp">
<polygon fill="none" stroke="black" points="978,-59 978,-79 1076,-79 1076,-59 978,-59"/>
<text text-anchor="middle" x="1027" y="-66" font-family="FreeSans" font-size="10.00">ConsoleScene.cpp</text>
</a>
</g>
<!-- Node3&#45;&gt;Node18 -->
<g id="edge38" class="edge"><title>Node3&#45;&gt;Node18</title>
<path fill="none" stroke="midnightblue" d="M1152.03,-113.491C1122.48,-102.975 1082.12,-88.6131 1055.34,-79.0842"/>
<polygon fill="midnightblue" stroke="midnightblue" points="1151.01,-116.842 1161.61,-116.897 1153.36,-110.247 1151.01,-116.842"/>
</g>
<!-- Node3&#45;&gt;Node19 -->
<g id="edge40" class="edge"><title>Node3&#45;&gt;Node19</title>
<path fill="none" stroke="midnightblue" d="M1232.68,-116.511C1233.79,-116.328 1234.9,-116.157 1236,-116 1554.92,-70.34 1639.77,-115.351 1960,-80 1964.48,-79.5052 1969.13,-78.8964 1973.77,-78.2214"/>
<polygon fill="midnightblue" stroke="midnightblue" points="1231.7,-113.134 1222.52,-118.436 1233,-120.012 1231.7,-113.134"/>
</g>
<!-- Node21 -->
<g id="node43" class="node"><title>Node21</title>
<a xlink:href="_controller_8cpp.html" target="_top" xlink:title="Controller.cpp">
<polygon fill="none" stroke="black" points="1892,-1 1892,-21 1968,-21 1968,-1 1892,-1"/>
<text text-anchor="middle" x="1930" y="-8" font-family="FreeSans" font-size="10.00">Controller.cpp</text>
</a>
</g>
<!-- Node3&#45;&gt;Node21 -->
<g id="edge46" class="edge"><title>Node3&#45;&gt;Node21</title>
<path fill="none" stroke="midnightblue" d="M1232.68,-116.536C1233.8,-116.345 1234.9,-116.166 1236,-116 1475.13,-79.7459 1547.62,-150.435 1779,-80 1797.67,-74.3169 1799.51,-66.6546 1817,-58 1845.76,-43.7716 1879.9,-29.9762 1903.08,-21.0533"/>
<polygon fill="midnightblue" stroke="midnightblue" points="1231.69,-113.163 1222.53,-118.503 1233.02,-120.035 1231.69,-113.163"/>
</g>
<!-- Node22 -->
<g id="node46" class="node"><title>Node22</title>
<a xlink:href="_controller_strings_8cpp.html" target="_top" xlink:title="ControllerStrings.cpp">
<polygon fill="none" stroke="black" points="1259.5,-59 1259.5,-79 1366.5,-79 1366.5,-59 1259.5,-59"/>
<text text-anchor="middle" x="1313" y="-66" font-family="FreeSans" font-size="10.00">ControllerStrings.cpp</text>
</a>
</g>
<!-- Node3&#45;&gt;Node22 -->
<g id="edge48" class="edge"><title>Node3&#45;&gt;Node22</title>
<path fill="none" stroke="midnightblue" d="M1220.68,-112.535C1242.69,-102.155 1271.81,-88.424 1291.41,-79.1817"/>
<polygon fill="midnightblue" stroke="midnightblue" points="1218.98,-109.466 1211.42,-116.897 1221.96,-115.798 1218.98,-109.466"/>
</g>
<!-- Node23 -->
<g id="node48" class="node"><title>Node23</title>
<a xlink:href="_config_8cpp.html" target="_top" xlink:title="Config.cpp">
<polygon fill="none" stroke="black" points="1384,-59 1384,-79 1446,-79 1446,-59 1384,-59"/>
<text text-anchor="middle" x="1415" y="-66" font-family="FreeSans" font-size="10.00">Config.cpp</text>
</a>
</g>
<!-- Node3&#45;&gt;Node23 -->
<g id="edge50" class="edge"><title>Node3&#45;&gt;Node23</title>
<path fill="none" stroke="midnightblue" d="M1232.88,-116.36C1270.41,-106.985 1326.39,-92.8575 1375,-80 1377.79,-79.2633 1380.68,-78.4883 1383.57,-77.7049"/>
<polygon fill="midnightblue" stroke="midnightblue" points="1231.66,-113.057 1222.8,-118.873 1233.35,-119.849 1231.66,-113.057"/>
</g>
<!-- Node11&#45;&gt;Node10 -->
<g id="edge22" class="edge"><title>Node11&#45;&gt;Node10</title>
<path fill="none" stroke="midnightblue" d="M1680.06,-57.8621C1603.16,-42.3217 1525.14,-28.4116 1475.32,-19.7629"/>
<polygon fill="midnightblue" stroke="midnightblue" points="1679.42,-61.3039 1689.92,-59.8648 1680.81,-54.444 1679.42,-61.3039"/>
</g>
<!-- Node11&#45;&gt;Node12 -->
<g id="edge24" class="edge"><title>Node11&#45;&gt;Node12</title>
<path fill="none" stroke="midnightblue" d="M1755.31,-53.5474C1772.1,-43.2969 1793.66,-30.1339 1808.32,-21.1817"/>
<polygon fill="midnightblue" stroke="midnightblue" points="1753.26,-50.699 1746.55,-58.8972 1756.91,-56.6735 1753.26,-50.699"/>
</g>
<!-- Node13 -->
<g id="node26" class="node"><title>Node13</title>
<a xlink:href="_action_button_8cpp.html" target="_top" xlink:title="ActionButton.cpp">
<polygon fill="none" stroke="black" points="1667.5,-1 1667.5,-21 1758.5,-21 1758.5,-1 1667.5,-1"/>
<text text-anchor="middle" x="1713" y="-8" font-family="FreeSans" font-size="10.00">ActionButton.cpp</text>
</a>
</g>
<!-- Node11&#45;&gt;Node13 -->
<g id="edge26" class="edge"><title>Node11&#45;&gt;Node13</title>
<path fill="none" stroke="midnightblue" d="M1724.19,-49.192C1721.46,-39.8512 1718.3,-29.0912 1716.04,-21.3776"/>
<polygon fill="midnightblue" stroke="midnightblue" points="1720.87,-50.2854 1727.04,-58.8972 1727.58,-48.3164 1720.87,-50.2854"/>
</g>
<!-- Node20 -->
<g id="node41" class="node"><title>Node20</title>
<a xlink:href="_action_performers_8cpp.html" target="_top" xlink:title="ActionPerformers.cpp">
<polygon fill="none" stroke="black" points="1986,-1 1986,-21 2096,-21 2096,-1 1986,-1"/>
<text text-anchor="middle" x="2041" y="-8" font-family="FreeSans" font-size="10.00">ActionPerformers.cpp</text>
</a>
</g>
<!-- Node19&#45;&gt;Node20 -->
<g id="edge42" class="edge"><title>Node19&#45;&gt;Node20</title>
<path fill="none" stroke="midnightblue" d="M2029.81,-49.192C2032.54,-39.8512 2035.7,-29.0912 2037.96,-21.3776"/>
<polygon fill="midnightblue" stroke="midnightblue" points="2026.42,-48.3164 2026.96,-58.8972 2033.13,-50.2854 2026.42,-48.3164"/>
</g>
<!-- Node19&#45;&gt;Node21 -->
<g id="edge44" class="edge"><title>Node19&#45;&gt;Node21</title>
<path fill="none" stroke="midnightblue" d="M1998.96,-53.5474C1982.34,-43.2969 1961.01,-30.1339 1946.5,-21.1817"/>
<polygon fill="midnightblue" stroke="midnightblue" points="1997.28,-56.6247 2007.63,-58.8972 2000.95,-50.6674 1997.28,-56.6247"/>
</g>
<!-- Node25 -->
<g id="node53" class="node"><title>Node25</title>
<a xlink:href="_game_scene_8h.html" target="_top" xlink:title="GameScene.h">
<polygon fill="none" stroke="black" points="483,-117 483,-137 561,-137 561,-117 483,-117"/>
<text text-anchor="middle" x="522" y="-124" font-family="FreeSans" font-size="10.00">GameScene.h</text>
</a>
</g>
<!-- Node24&#45;&gt;Node25 -->
<g id="edge56" class="edge"><title>Node24&#45;&gt;Node25</title>
<path fill="none" stroke="midnightblue" d="M193.105,-173.958C303.428,-151.819 422.637,-137.558 482.875,-131.025"/>
<polygon fill="midnightblue" stroke="midnightblue" points="192.244,-170.561 183.142,-175.984 193.639,-177.421 192.244,-170.561"/>
</g>
<!-- Node26 -->
<g id="node57" class="node"><title>Node26</title>
<a xlink:href="_client_app_8h.html" target="_top" xlink:title="ClientApp.h">
<polygon fill="none" stroke="black" points="75,-117 75,-137 141,-137 141,-117 75,-117"/>
<text text-anchor="middle" x="108" y="-124" font-family="FreeSans" font-size="10.00">ClientApp.h</text>
</a>
</g>
<!-- Node24&#45;&gt;Node26 -->
<g id="edge62" class="edge"><title>Node24&#45;&gt;Node26</title>
<path fill="none" stroke="midnightblue" d="M137.422,-166.686C130.254,-157.017 121.72,-145.506 115.694,-137.378"/>
<polygon fill="midnightblue" stroke="midnightblue" points="134.743,-168.949 143.51,-174.897 140.366,-164.78 134.743,-168.949"/>
</g>
<!-- Node28 -->
<g id="node62" class="node"><title>Node28</title>
<a xlink:href="_game_app_8h.html" target="_top" xlink:title="GameApp.h">
<polygon fill="none" stroke="black" points="159,-117 159,-137 227,-137 227,-117 159,-117"/>
<text text-anchor="middle" x="193" y="-124" font-family="FreeSans" font-size="10.00">GameApp.h</text>
</a>
</g>
<!-- Node24&#45;&gt;Node28 -->
<g id="edge68" class="edge"><title>Node24&#45;&gt;Node28</title>
<path fill="none" stroke="midnightblue" d="M164.262,-166.686C171.264,-157.017 179.599,-145.506 185.485,-137.378"/>
<polygon fill="midnightblue" stroke="midnightblue" points="161.346,-164.745 158.316,-174.897 167.016,-168.851 161.346,-164.745"/>
</g>
<!-- Node31 -->
<g id="node69" class="node"><title>Node31</title>
<a xlink:href="_observer_8cpp.html" target="_top" xlink:title="Observer.cpp">
<polygon fill="none" stroke="black" points="245,-117 245,-137 319,-137 319,-117 245,-117"/>
<text text-anchor="middle" x="282" y="-124" font-family="FreeSans" font-size="10.00">Observer.cpp</text>
</a>
</g>
<!-- Node24&#45;&gt;Node31 -->
<g id="edge76" class="edge"><title>Node24&#45;&gt;Node31</title>
<path fill="none" stroke="midnightblue" d="M183.043,-170.813C206.559,-160.401 237.941,-146.507 259.003,-137.182"/>
<polygon fill="midnightblue" stroke="midnightblue" points="181.545,-167.648 173.818,-174.897 184.379,-174.049 181.545,-167.648"/>
</g>
<!-- Node25&#45;&gt;Node4 -->
<g id="edge58" class="edge"><title>Node25&#45;&gt;Node4</title>
<path fill="none" stroke="midnightblue" d="M475.993,-114.171C438.09,-103.602 385.079,-88.8202 350.164,-79.0842"/>
<polygon fill="midnightblue" stroke="midnightblue" points="475.197,-117.582 485.769,-116.897 477.077,-110.84 475.197,-117.582"/>
</g>
<!-- Node25&#45;&gt;Node8 -->
<g id="edge60" class="edge"><title>Node25&#45;&gt;Node8</title>
<path fill="none" stroke="midnightblue" d="M517.839,-106.89C515.921,-97.6201 513.726,-87.0083 512.147,-79.3776"/>
<polygon fill="midnightblue" stroke="midnightblue" points="514.456,-107.814 519.91,-116.897 521.311,-106.395 514.456,-107.814"/>
</g>
<!-- Node26&#45;&gt;Node4 -->
<g id="edge64" class="edge"><title>Node26&#45;&gt;Node4</title>
<path fill="none" stroke="midnightblue" d="M150.782,-114.955C188.483,-104.34 242.775,-89.0537 278.217,-79.0749"/>
<polygon fill="midnightblue" stroke="midnightblue" points="149.775,-111.602 141.097,-117.681 151.672,-118.34 149.775,-111.602"/>
</g>
<!-- Node27 -->
<g id="node60" class="node"><title>Node27</title>
<a xlink:href="main_8cpp.html" target="_top" xlink:title="main.cpp">
<polygon fill="none" stroke="black" points="0,-59 0,-79 56,-79 56,-59 0,-59"/>
<text text-anchor="middle" x="28" y="-66" font-family="FreeSans" font-size="10.00">main.cpp</text>
</a>
</g>
<!-- Node26&#45;&gt;Node27 -->
<g id="edge66" class="edge"><title>Node26&#45;&gt;Node27</title>
<path fill="none" stroke="midnightblue" d="M85.8965,-110.975C71.8771,-100.811 54.1629,-87.9681 42.0437,-79.1817"/>
<polygon fill="midnightblue" stroke="midnightblue" points="83.9145,-113.861 94.0651,-116.897 88.0233,-108.194 83.9145,-113.861"/>
</g>
<!-- Node28&#45;&gt;Node7 -->
<g id="edge70" class="edge"><title>Node28&#45;&gt;Node7</title>
<path fill="none" stroke="midnightblue" d="M236.89,-115.215C276.524,-104.572 334.211,-89.0822 371.673,-79.0229"/>
<polygon fill="midnightblue" stroke="midnightblue" points="235.976,-111.836 227.226,-117.81 237.791,-118.597 235.976,-111.836"/>
</g>
<!-- Node29 -->
<g id="node65" class="node"><title>Node29</title>
<a xlink:href="_gif_decoder_8cpp.html" target="_top" xlink:title="GifDecoder.cpp">
<polygon fill="none" stroke="black" points="73.5,-59 73.5,-79 156.5,-79 156.5,-59 73.5,-59"/>
<text text-anchor="middle" x="115" y="-66" font-family="FreeSans" font-size="10.00">GifDecoder.cpp</text>
</a>
</g>
<!-- Node28&#45;&gt;Node29 -->
<g id="edge72" class="edge"><title>Node28&#45;&gt;Node29</title>
<path fill="none" stroke="midnightblue" d="M171.061,-110.687C157.455,-100.569 140.397,-87.8852 128.693,-79.1817"/>
<polygon fill="midnightblue" stroke="midnightblue" points="169.3,-113.739 179.413,-116.897 173.477,-108.121 169.3,-113.739"/>
</g>
<!-- Node30 -->
<g id="node67" class="node"><title>Node30</title>
<a xlink:href="_prefs_dialog_8cpp.html" target="_top" xlink:title="PrefsDialog.cpp">
<polygon fill="none" stroke="black" points="173.5,-59 173.5,-79 258.5,-79 258.5,-59 173.5,-59"/>
<text text-anchor="middle" x="216" y="-66" font-family="FreeSans" font-size="10.00">PrefsDialog.cpp</text>
</a>
</g>
<!-- Node28&#45;&gt;Node30 -->
<g id="edge74" class="edge"><title>Node28&#45;&gt;Node30</title>
<path fill="none" stroke="midnightblue" d="M200.736,-107.493C204.467,-98.0829 208.793,-87.1742 211.885,-79.3776"/>
<polygon fill="midnightblue" stroke="midnightblue" points="197.439,-106.311 197.006,-116.897 203.946,-108.892 197.439,-106.311"/>
</g>
<!-- Node37 -->
<g id="node83" class="node"><title>Node37</title>
<a xlink:href="_bumper_gate_8cpp.html" target="_top" xlink:title="BumperGate.cpp">
<polygon fill="none" stroke="black" points="1277.5,-175 1277.5,-195 1366.5,-195 1366.5,-175 1277.5,-175"/>
<text text-anchor="middle" x="1322" y="-182" font-family="FreeSans" font-size="10.00">BumperGate.cpp</text>
</a>
</g>
<!-- Node36&#45;&gt;Node37 -->
<g id="edge92" class="edge"><title>Node36&#45;&gt;Node37</title>
<path fill="none" stroke="midnightblue" d="M1330.49,-222.89C1328.41,-213.62 1326.04,-203.008 1324.33,-195.378"/>
<polygon fill="midnightblue" stroke="midnightblue" points="1327.13,-223.905 1332.74,-232.897 1333.96,-222.374 1327.13,-223.905"/>
</g>
<!-- Node38 -->
<g id="node85" class="node"><title>Node38</title>
<a xlink:href="_obj_fac1_8cpp.html" target="_top" xlink:title="ObjFac1.cpp">
<polygon fill="none" stroke="black" points="1383.5,-175 1383.5,-195 1454.5,-195 1454.5,-175 1383.5,-175"/>
<text text-anchor="middle" x="1419" y="-182" font-family="FreeSans" font-size="10.00">ObjFac1.cpp</text>
</a>
</g>
<!-- Node36&#45;&gt;Node38 -->
<g id="edge94" class="edge"><title>Node36&#45;&gt;Node38</title>
<path fill="none" stroke="midnightblue" d="M1358.21,-226.975C1372.93,-216.811 1391.53,-203.968 1404.25,-195.182"/>
<polygon fill="midnightblue" stroke="midnightblue" points="1355.87,-224.335 1349.63,-232.897 1359.85,-230.095 1355.87,-224.335"/>
</g>
<!-- Node39&#45;&gt;Node38 -->
<g id="edge100" class="edge"><title>Node39&#45;&gt;Node38</title>
<path fill="none" stroke="midnightblue" d="M1419,-222.89C1419,-213.62 1419,-203.008 1419,-195.378"/>
<polygon fill="midnightblue" stroke="midnightblue" points="1415.5,-222.897 1419,-232.897 1422.5,-222.897 1415.5,-222.897"/>
</g>
<!-- Node40 -->
<g id="node89" class="node"><title>Node40</title>
<a xlink:href="_missile_8cpp.html" target="_top" xlink:title="Missile.cpp">
<polygon fill="none" stroke="black" points="1471.5,-175 1471.5,-195 1536.5,-195 1536.5,-175 1471.5,-175"/>
<text text-anchor="middle" x="1504" y="-182" font-family="FreeSans" font-size="10.00">Missile.cpp</text>
</a>
</g>
<!-- Node39&#45;&gt;Node40 -->
<g id="edge98" class="edge"><title>Node39&#45;&gt;Node40</title>
<path fill="none" stroke="midnightblue" d="M1442.48,-226.975C1457.38,-216.811 1476.2,-203.968 1489.08,-195.182"/>
<polygon fill="midnightblue" stroke="midnightblue" points="1440.09,-224.37 1433.81,-232.897 1444.04,-230.152 1440.09,-224.37"/>
</g>
<!-- Node41&#45;&gt;Node38 -->
<g id="edge104" class="edge"><title>Node41&#45;&gt;Node38</title>
<path fill="none" stroke="midnightblue" d="M1479.79,-226.975C1465.07,-216.811 1446.47,-203.968 1433.75,-195.182"/>
<polygon fill="midnightblue" stroke="midnightblue" points="1478.15,-230.095 1488.37,-232.897 1482.13,-224.335 1478.15,-230.095"/>
</g>
<!-- Node42 -->
<g id="node95" class="node"><title>Node42</title>
<a xlink:href="_test_element_8cpp.html" target="_top" xlink:title="TestElement.cpp">
<polygon fill="none" stroke="black" points="1553.5,-175 1553.5,-195 1642.5,-195 1642.5,-175 1553.5,-175"/>
<text text-anchor="middle" x="1598" y="-182" font-family="FreeSans" font-size="10.00">TestElement.cpp</text>
</a>
</g>
<!-- Node41&#45;&gt;Node42 -->
<g id="edge106" class="edge"><title>Node41&#45;&gt;Node42</title>
<path fill="none" stroke="midnightblue" d="M1528.31,-227.547C1545.1,-217.297 1566.66,-204.134 1581.32,-195.182"/>
<polygon fill="midnightblue" stroke="midnightblue" points="1526.26,-224.699 1519.55,-232.897 1529.91,-230.674 1526.26,-224.699"/>
</g>
</g>
</svg>
