<?xml version="1.0" encoding="UTF-8" standalone="no"?>
<!DOCTYPE svg PUBLIC "-//W3C//DTD SVG 1.1//EN"
 "http://www.w3.org/Graphics/SVG/1.1/DTD/svg11.dtd">
<!-- Generated by graphviz version 2.26.3 (20100126.1600)
 -->
<!-- Title: PickList.h Pages: 1 -->
<svg width="398pt" height="146pt"
 viewBox="0.00 0.00 398.00 146.00" xmlns="http://www.w3.org/2000/svg" xmlns:xlink="http://www.w3.org/1999/xlink">
<g id="graph1" class="graph" transform="scale(1 1) rotate(0) translate(4 142)">
<title>PickList.h</title>
<!-- Node1 -->
<g id="node1" class="node"><title>Node1</title>
<polygon fill="#bfbfbf" stroke="black" points="223,-117 223,-137 283,-137 283,-117 223,-117"/>
<text text-anchor="middle" x="253" y="-124" font-family="FreeSans" font-size="10.00">PickList.h</text>
</g>
<!-- Node2 -->
<g id="node3" class="node"><title>Node2</title>
<a xlink:href="_display_select_scene_8h.html" target="_top" xlink:title="DisplaySelectScene.h">
<polygon fill="none" stroke="black" points="75.5,-59 75.5,-79 186.5,-79 186.5,-59 75.5,-59"/>
<text text-anchor="middle" x="131" y="-66" font-family="FreeSans" font-size="10.00">DisplaySelectScene.h</text>
</a>
</g>
<!-- Node1&#45;&gt;Node2 -->
<g id="edge2" class="edge"><title>Node1&#45;&gt;Node2</title>
<path fill="none" stroke="midnightblue" d="M222.573,-112.535C200.739,-102.155 171.857,-88.424 152.417,-79.1817"/>
<polygon fill="midnightblue" stroke="midnightblue" points="221.215,-115.764 231.749,-116.897 224.221,-109.443 221.215,-115.764"/>
</g>
<!-- Node5 -->
<g id="node9" class="node"><title>Node5</title>
<a xlink:href="_test_lab_scene_8cpp.html" target="_top" xlink:title="TestLabScene.cpp">
<polygon fill="none" stroke="black" points="204,-59 204,-79 302,-79 302,-59 204,-59"/>
<text text-anchor="middle" x="253" y="-66" font-family="FreeSans" font-size="10.00">TestLabScene.cpp</text>
</a>
</g>
<!-- Node1&#45;&gt;Node5 -->
<g id="edge8" class="edge"><title>Node1&#45;&gt;Node5</title>
<path fill="none" stroke="midnightblue" d="M253,-106.89C253,-97.6201 253,-87.0083 253,-79.3776"/>
<polygon fill="midnightblue" stroke="midnightblue" points="249.5,-106.897 253,-116.897 256.5,-106.897 249.5,-106.897"/>
</g>
<!-- Node6 -->
<g id="node11" class="node"><title>Node6</title>
<a xlink:href="_pick_list_8cpp.html" target="_top" xlink:title="PickList.cpp">
<polygon fill="none" stroke="black" points="319.5,-59 319.5,-79 390.5,-79 390.5,-59 319.5,-59"/>
<text text-anchor="middle" x="355" y="-66" font-family="FreeSans" font-size="10.00">PickList.cpp</text>
</a>
</g>
<!-- Node1&#45;&gt;Node6 -->
<g id="edge10" class="edge"><title>Node1&#45;&gt;Node6</title>
<path fill="none" stroke="midnightblue" d="M279.676,-111.831C297.773,-101.541 321.205,-88.2168 337.094,-79.1817"/>
<polygon fill="midnightblue" stroke="midnightblue" points="277.73,-108.912 270.767,-116.897 281.19,-114.997 277.73,-108.912"/>
</g>
<!-- Node3 -->
<g id="node5" class="node"><title>Node3</title>
<a xlink:href="_display_select_scene_8cpp.html" target="_top" xlink:title="DisplaySelectScene.cpp">
<polygon fill="none" stroke="black" points="0,-1 0,-21 122,-21 122,-1 0,-1"/>
<text text-anchor="middle" x="61" y="-8" font-family="FreeSans" font-size="10.00">DisplaySelectScene.cpp</text>
</a>
</g>
<!-- Node2&#45;&gt;Node3 -->
<g id="edge4" class="edge"><title>Node2&#45;&gt;Node3</title>
<path fill="none" stroke="midnightblue" d="M111.013,-52.4396C98.9438,-42.4391 83.9354,-30.0036 73.5247,-21.3776"/>
<polygon fill="midnightblue" stroke="midnightblue" points="108.874,-55.212 118.807,-58.8972 113.34,-49.8219 108.874,-55.212"/>
</g>
<!-- Node4 -->
<g id="node7" class="node"><title>Node4</title>
<a xlink:href="_video_settings_scene_8cpp.html" target="_top" xlink:title="VideoSettingsScene.cpp">
<polygon fill="none" stroke="black" points="139.5,-1 139.5,-21 262.5,-21 262.5,-1 139.5,-1"/>
<text text-anchor="middle" x="201" y="-8" font-family="FreeSans" font-size="10.00">VideoSettingsScene.cpp</text>
</a>
</g>
<!-- Node2&#45;&gt;Node4 -->
<g id="edge6" class="edge"><title>Node2&#45;&gt;Node4</title>
<path fill="none" stroke="midnightblue" d="M150.987,-52.4396C163.056,-42.4391 178.065,-30.0036 188.475,-21.3776"/>
<polygon fill="midnightblue" stroke="midnightblue" points="148.66,-49.8219 143.193,-58.8972 153.126,-55.212 148.66,-49.8219"/>
</g>
</g>
</svg>
