<?xml version="1.0" encoding="UTF-8" standalone="no"?>
<!DOCTYPE svg PUBLIC "-//W3C//DTD SVG 1.1//EN"
 "http://www.w3.org/Graphics/SVG/1.1/DTD/svg11.dtd">
<!-- Generated by graphviz version 2.38.0 (20140413.2041)
 -->
<!-- Title: PickList.cpp Pages: 1 -->
<!--zoomable 756 -->
<svg id="main" version="1.1" xmlns="http://www.w3.org/2000/svg" xmlns:xlink="http://www.w3.org/1999/xlink" xml:space="preserve" onload="init(evt)">
<style type="text/css"><![CDATA[
.edge:hover path { stroke: red; }
.edge:hover polygon { stroke: red; fill: red; }
]]></style>
<script type="text/javascript"><![CDATA[
var edges = document.getElementsByTagName('g');
if (edges && edges.length) {
  for (var i=0;i<edges.length;i++) {
    if (edges[i].id.substr(0,4)=='edge') {
      edges[i].setAttribute('class','edge');
    }
  }
}
]]></script>
        <defs>
                <circle id="rim" cx="0" cy="0" r="7"/>
                <circle id="rim2" cx="0" cy="0" r="3.5"/>
                <g id="zoomPlus">
                        <use xlink:href="#rim" fill="#404040">
                                <set attributeName="fill" to="#808080" begin="zoomplus.mouseover" end="zoomplus.mouseout"/>
                        </use>
                        <path d="M-4,0h8M0,-4v8" fill="none" stroke="white" stroke-width="1.5" pointer-events="none"/>
                </g>
                <g id="zoomMin">
                        <use xlink:href="#rim" fill="#404040">
                                <set attributeName="fill" to="#808080" begin="zoomminus.mouseover" end="zoomminus.mouseout"/>
                        </use>
                        <path d="M-4,0h8" fill="none" stroke="white" stroke-width="1.5" pointer-events="none"/>
                </g>
                <g id="dirArrow">
                        <path fill="none" stroke="white" stroke-width="1.5" d="M0,-3.0v7 M-2.5,-0.5L0,-3.0L2.5,-0.5"/>
                </g>
               <g id="resetDef">
                       <use xlink:href="#rim2" fill="#404040">
                               <set attributeName="fill" to="#808080" begin="reset.mouseover" end="reset.mouseout"/>
                       </use>
               </g>
        </defs>

<script type="text/javascript">
var viewWidth = 955;
var viewHeight = 756;
var sectionId = 'dynsection-0';
</script>
<script xlink:href="svgpan.js"/>
<svg id="graph" class="graph">
<g id="viewport">
<title>PickList.cpp</title>
<!-- Node1 -->
<g id="node1" class="node"><title>Node1</title>
<polygon fill="#bfbfbf" stroke="black" points="484.5,-728.5 484.5,-747.5 555.5,-747.5 555.5,-728.5 484.5,-728.5"/>
<text text-anchor="middle" x="520" y="-735.5" font-family="Helvetica,sans-Serif" font-size="10.00">PickList.cpp</text>
</g>
<!-- Node2 -->
<g id="node2" class="node"><title>Node2</title>
<g id="a_node2"><a xlink:href="_action_8h.html" target="_top" xlink:title="../Control/Action.h">
<polygon fill="none" stroke="black" points="279,-504.5 279,-523.5 375,-523.5 375,-504.5 279,-504.5"/>
<text text-anchor="middle" x="327" y="-511.5" font-family="Helvetica,sans-Serif" font-size="10.00">../Control/Action.h</text>
</a>
</g>
</g>
<!-- Node1&#45;&gt;Node2 -->
<g id="edge1" class="edge"><title>Node1&#45;&gt;Node2</title>
<path fill="none" stroke="midnightblue" d="M489.523,-728.464C468.789,-721.415 441.808,-709.666 423,-692 373.797,-645.784 344.2,-568.582 332.627,-533.435"/>
<polygon fill="midnightblue" stroke="midnightblue" points="335.864,-532.065 329.501,-523.594 329.193,-534.184 335.864,-532.065"/>
</g>
<!-- Node9 -->
<g id="node9" class="node"><title>Node9</title>
<g id="a_node9"><a xlink:href="_symbol_8h.html" target="_top" xlink:title="../Util/Symbol.h">
<polygon fill="none" stroke="black" points="432.5,-672.5 432.5,-691.5 517.5,-691.5 517.5,-672.5 432.5,-672.5"/>
<text text-anchor="middle" x="475" y="-679.5" font-family="Helvetica,sans-Serif" font-size="10.00">../Util/Symbol.h</text>
</a>
</g>
</g>
<!-- Node1&#45;&gt;Node9 -->
<g id="edge8" class="edge"><title>Node1&#45;&gt;Node9</title>
<path fill="none" stroke="midnightblue" d="M512.569,-728.083C506.147,-720.377 496.694,-709.033 488.878,-699.653"/>
<polygon fill="midnightblue" stroke="midnightblue" points="491.383,-697.193 482.293,-691.751 486.006,-701.674 491.383,-697.193"/>
</g>
<!-- Node10 -->
<g id="node10" class="node"><title>Node10</title>
<g id="a_node10"><a xlink:href="_symbol_icon_8h.html" target="_top" xlink:title="SymbolIcon.h">
<polygon fill="none" stroke="black" points="798.5,-560.5 798.5,-579.5 875.5,-579.5 875.5,-560.5 798.5,-560.5"/>
<text text-anchor="middle" x="837" y="-567.5" font-family="Helvetica,sans-Serif" font-size="10.00">SymbolIcon.h</text>
</a>
</g>
</g>
<!-- Node1&#45;&gt;Node10 -->
<g id="edge9" class="edge"><title>Node1&#45;&gt;Node10</title>
<path fill="none" stroke="midnightblue" d="M536.728,-728.419C570.493,-711.079 649.184,-670.576 715,-636 748.573,-618.362 787.185,-597.732 811.821,-584.525"/>
<polygon fill="midnightblue" stroke="midnightblue" points="813.692,-587.493 820.849,-579.682 810.383,-581.325 813.692,-587.493"/>
</g>
<!-- Node26 -->
<g id="node26" class="node"><title>Node26</title>
<g id="a_node26"><a xlink:href="_pick_list_8h.html" target="_top" xlink:title="PickList.h">
<polygon fill="none" stroke="black" points="536,-672.5 536,-691.5 596,-691.5 596,-672.5 536,-672.5"/>
<text text-anchor="middle" x="566" y="-679.5" font-family="Helvetica,sans-Serif" font-size="10.00">PickList.h</text>
</a>
</g>
</g>
<!-- Node1&#45;&gt;Node26 -->
<g id="edge35" class="edge"><title>Node1&#45;&gt;Node26</title>
<path fill="none" stroke="midnightblue" d="M527.596,-728.083C534.227,-720.298 544.021,-708.801 552.058,-699.367"/>
<polygon fill="midnightblue" stroke="midnightblue" points="554.725,-701.633 558.545,-691.751 549.396,-697.094 554.725,-701.633"/>
</g>
<!-- Node3 -->
<g id="node3" class="node"><title>Node3</title>
<polygon fill="none" stroke="#bfbfbf" points="102,-448.5 102,-467.5 216,-467.5 216,-448.5 102,-448.5"/>
<text text-anchor="middle" x="159" y="-455.5" font-family="Helvetica,sans-Serif" font-size="10.00">SDL2/SDL_keycode.h</text>
</g>
<!-- Node2&#45;&gt;Node3 -->
<g id="edge2" class="edge"><title>Node2&#45;&gt;Node3</title>
<path fill="none" stroke="midnightblue" d="M300.38,-504.444C271.994,-495.32 226.863,-480.813 195.247,-470.651"/>
<polygon fill="midnightblue" stroke="midnightblue" points="196.087,-467.244 185.496,-467.516 193.945,-473.909 196.087,-467.244"/>
</g>
<!-- Node4 -->
<g id="node4" class="node"><title>Node4</title>
<polygon fill="none" stroke="#bfbfbf" points="234.5,-448.5 234.5,-467.5 341.5,-467.5 341.5,-448.5 234.5,-448.5"/>
<text text-anchor="middle" x="288" y="-455.5" font-family="Helvetica,sans-Serif" font-size="10.00">SDL2/SDL_mouse.h</text>
</g>
<!-- Node2&#45;&gt;Node4 -->
<g id="edge3" class="edge"><title>Node2&#45;&gt;Node4</title>
<path fill="none" stroke="midnightblue" d="M320.56,-504.083C315.051,-496.455 306.969,-485.264 300.235,-475.941"/>
<polygon fill="midnightblue" stroke="midnightblue" points="303.013,-473.809 294.32,-467.751 297.338,-477.907 303.013,-473.809"/>
</g>
<!-- Node5 -->
<g id="node5" class="node"><title>Node5</title>
<g id="a_node5"><a xlink:href="_vec_8h.html" target="_top" xlink:title="../Vec.h">
<polygon fill="none" stroke="black" points="592.5,-168.5 592.5,-187.5 643.5,-187.5 643.5,-168.5 592.5,-168.5"/>
<text text-anchor="middle" x="618" y="-175.5" font-family="Helvetica,sans-Serif" font-size="10.00">../Vec.h</text>
</a>
</g>
</g>
<!-- Node2&#45;&gt;Node5 -->
<g id="edge4" class="edge"><title>Node2&#45;&gt;Node5</title>
<path fill="none" stroke="midnightblue" d="M332.979,-504.328C344.794,-486.318 370,-443.189 370,-403 370,-403 370,-403 370,-289 370,-197.347 513.289,-181.472 582.034,-179.13"/>
<polygon fill="midnightblue" stroke="midnightblue" points="582.488,-182.62 592.394,-178.861 582.306,-175.622 582.488,-182.62"/>
</g>
<!-- Node6 -->
<g id="node6" class="node"><title>Node6</title>
<g id="a_node6"><a xlink:href="_exception_8h.html" target="_top" xlink:title="../Exception.h">
<polygon fill="none" stroke="black" points="398.5,-448.5 398.5,-467.5 475.5,-467.5 475.5,-448.5 398.5,-448.5"/>
<text text-anchor="middle" x="437" y="-455.5" font-family="Helvetica,sans-Serif" font-size="10.00">../Exception.h</text>
</a>
</g>
</g>
<!-- Node2&#45;&gt;Node6 -->
<g id="edge5" class="edge"><title>Node2&#45;&gt;Node6</title>
<path fill="none" stroke="midnightblue" d="M344.673,-504.324C362.394,-495.625 389.903,-482.12 410.288,-472.113"/>
<polygon fill="midnightblue" stroke="midnightblue" points="411.936,-475.203 419.37,-467.655 408.851,-468.919 411.936,-475.203"/>
</g>
<!-- Node8 -->
<g id="node8" class="node"><title>Node8</title>
<g id="a_node8"><a xlink:href="_control_action_8h.html" target="_top" xlink:title="ControlAction.h">
<polygon fill="none" stroke="black" points="0,-448.5 0,-467.5 84,-467.5 84,-448.5 0,-448.5"/>
<text text-anchor="middle" x="42" y="-455.5" font-family="Helvetica,sans-Serif" font-size="10.00">ControlAction.h</text>
</a>
</g>
</g>
<!-- Node2&#45;&gt;Node8 -->
<g id="edge7" class="edge"><title>Node2&#45;&gt;Node8</title>
<path fill="none" stroke="midnightblue" d="M281.841,-504.444C230.822,-494.777 147.914,-479.068 94.1718,-468.885"/>
<polygon fill="midnightblue" stroke="midnightblue" points="94.6373,-465.411 84.1605,-466.988 93.3341,-472.289 94.6373,-465.411"/>
</g>
<!-- Node7 -->
<g id="node7" class="node"><title>Node7</title>
<polygon fill="none" stroke="#bfbfbf" points="407.5,-392.5 407.5,-411.5 466.5,-411.5 466.5,-392.5 407.5,-392.5"/>
<text text-anchor="middle" x="437" y="-399.5" font-family="Helvetica,sans-Serif" font-size="10.00">exception</text>
</g>
<!-- Node6&#45;&gt;Node7 -->
<g id="edge6" class="edge"><title>Node6&#45;&gt;Node7</title>
<path fill="none" stroke="midnightblue" d="M437,-448.083C437,-441.006 437,-430.861 437,-421.986"/>
<polygon fill="midnightblue" stroke="midnightblue" points="440.5,-421.751 437,-411.751 433.5,-421.751 440.5,-421.751"/>
</g>
<!-- Node11 -->
<g id="node11" class="node"><title>Node11</title>
<g id="a_node11"><a xlink:href="_box_8h.html" target="_top" xlink:title="Box.h">
<polygon fill="none" stroke="black" points="903,-448.5 903,-467.5 945,-467.5 945,-448.5 903,-448.5"/>
<text text-anchor="middle" x="924" y="-455.5" font-family="Helvetica,sans-Serif" font-size="10.00">Box.h</text>
</a>
</g>
</g>
<!-- Node10&#45;&gt;Node11 -->
<g id="edge10" class="edge"><title>Node10&#45;&gt;Node11</title>
<path fill="none" stroke="midnightblue" d="M857.082,-560.429C872.342,-552.933 892.735,-540.636 905,-524 914.92,-510.545 919.682,-491.984 921.955,-478.14"/>
<polygon fill="midnightblue" stroke="midnightblue" points="925.477,-478.213 923.338,-467.836 918.539,-477.282 925.477,-478.213"/>
</g>
<!-- Node12 -->
<g id="node12" class="node"><title>Node12</title>
<g id="a_node12"><a xlink:href="_color_8h.html" target="_top" xlink:title="Color.h">
<polygon fill="none" stroke="black" points="868,-168.5 868,-187.5 916,-187.5 916,-168.5 868,-168.5"/>
<text text-anchor="middle" x="892" y="-175.5" font-family="Helvetica,sans-Serif" font-size="10.00">Color.h</text>
</a>
</g>
</g>
<!-- Node11&#45;&gt;Node12 -->
<g id="edge11" class="edge"><title>Node11&#45;&gt;Node12</title>
<path fill="none" stroke="midnightblue" d="M923.608,-448.444C922.795,-429.943 921,-384.827 921,-347 921,-347 921,-347 921,-289 921,-255.716 908.432,-218.584 899.844,-197.094"/>
<polygon fill="midnightblue" stroke="midnightblue" points="902.982,-195.525 895.911,-187.635 896.518,-198.213 902.982,-195.525"/>
</g>
<!-- Node16 -->
<g id="node16" class="node"><title>Node16</title>
<g id="a_node16"><a xlink:href="_ui_view_model_8h.html" target="_top" xlink:title="UiViewModel.h">
<polygon fill="none" stroke="black" points="625.5,-392.5 625.5,-411.5 708.5,-411.5 708.5,-392.5 625.5,-392.5"/>
<text text-anchor="middle" x="667" y="-399.5" font-family="Helvetica,sans-Serif" font-size="10.00">UiViewModel.h</text>
</a>
</g>
</g>
<!-- Node11&#45;&gt;Node16 -->
<g id="edge16" class="edge"><title>Node11&#45;&gt;Node16</title>
<path fill="none" stroke="midnightblue" d="M902.969,-452.581C862.708,-444.122 773.74,-425.428 717.283,-413.565"/>
<polygon fill="midnightblue" stroke="midnightblue" points="717.989,-410.137 707.483,-411.506 716.55,-416.988 717.989,-410.137"/>
</g>
<!-- Node13 -->
<g id="node13" class="node"><title>Node13</title>
<g id="a_node13"><a xlink:href="_m_r___types_8h.html" target="_top" xlink:title="../Util/MR_Types.h">
<polygon fill="none" stroke="black" points="772,-56.5 772,-75.5 872,-75.5 872,-56.5 772,-56.5"/>
<text text-anchor="middle" x="822" y="-63.5" font-family="Helvetica,sans-Serif" font-size="10.00">../Util/MR_Types.h</text>
</a>
</g>
</g>
<!-- Node12&#45;&gt;Node13 -->
<g id="edge12" class="edge"><title>Node12&#45;&gt;Node13</title>
<path fill="none" stroke="midnightblue" d="M907.377,-168.413C927.223,-156.201 957.571,-132.965 943,-112 929.01,-91.8705 904.887,-80.7272 881.843,-74.5659"/>
<polygon fill="midnightblue" stroke="midnightblue" points="882.607,-71.1499 872.066,-72.2187 880.973,-77.9565 882.607,-71.1499"/>
</g>
<!-- Node15 -->
<g id="node15" class="node"><title>Node15</title>
<g id="a_node15"><a xlink:href="_sel_fmt_8h.html" target="_top" xlink:title="../Util/SelFmt.h">
<polygon fill="none" stroke="black" points="850.5,-112.5 850.5,-131.5 933.5,-131.5 933.5,-112.5 850.5,-112.5"/>
<text text-anchor="middle" x="892" y="-119.5" font-family="Helvetica,sans-Serif" font-size="10.00">../Util/SelFmt.h</text>
</a>
</g>
</g>
<!-- Node12&#45;&gt;Node15 -->
<g id="edge14" class="edge"><title>Node12&#45;&gt;Node15</title>
<path fill="none" stroke="midnightblue" d="M892,-168.083C892,-161.006 892,-150.861 892,-141.986"/>
<polygon fill="midnightblue" stroke="midnightblue" points="895.5,-141.751 892,-131.751 888.5,-141.751 895.5,-141.751"/>
</g>
<!-- Node14 -->
<g id="node14" class="node"><title>Node14</title>
<polygon fill="none" stroke="#bfbfbf" points="792.5,-0.5 792.5,-19.5 851.5,-19.5 851.5,-0.5 792.5,-0.5"/>
<text text-anchor="middle" x="822" y="-7.5" font-family="Helvetica,sans-Serif" font-size="10.00">inttypes.h</text>
</g>
<!-- Node13&#45;&gt;Node14 -->
<g id="edge13" class="edge"><title>Node13&#45;&gt;Node14</title>
<path fill="none" stroke="midnightblue" d="M822,-56.083C822,-49.0059 822,-38.8611 822,-29.9865"/>
<polygon fill="midnightblue" stroke="midnightblue" points="825.5,-29.751 822,-19.7511 818.5,-29.7511 825.5,-29.751"/>
</g>
<!-- Node15&#45;&gt;Node13 -->
<g id="edge15" class="edge"><title>Node15&#45;&gt;Node13</title>
<path fill="none" stroke="midnightblue" d="M880.753,-112.324C870.203,-104.185 854.199,-91.8395 841.558,-82.0874"/>
<polygon fill="midnightblue" stroke="midnightblue" points="843.507,-79.1707 833.451,-75.8339 839.231,-84.7132 843.507,-79.1707"/>
</g>
<!-- Node16&#45;&gt;Node5 -->
<g id="edge19" class="edge"><title>Node16&#45;&gt;Node5</title>
<path fill="none" stroke="midnightblue" d="M654.948,-392.477C644.454,-384.358 629.742,-371.151 622,-356 595.362,-303.867 606.148,-231.329 613.416,-197.608"/>
<polygon fill="midnightblue" stroke="midnightblue" points="616.853,-198.277 615.686,-187.746 610.032,-196.706 616.853,-198.277"/>
</g>
<!-- Node16&#45;&gt;Node13 -->
<g id="edge18" class="edge"><title>Node16&#45;&gt;Node13</title>
<path fill="none" stroke="midnightblue" d="M708.777,-400.755C743.561,-398.1 791.393,-388.263 817,-356 881.821,-274.329 844.711,-134.845 828.433,-85.2014"/>
<polygon fill="midnightblue" stroke="midnightblue" points="831.682,-83.885 825.15,-75.5433 825.054,-86.1377 831.682,-83.885"/>
</g>
<!-- Node17 -->
<g id="node17" class="node"><title>Node17</title>
<g id="a_node17"><a xlink:href="_nav_8h.html" target="_top" xlink:title="../Control/Nav.h">
<polygon fill="none" stroke="black" points="722,-336.5 722,-355.5 808,-355.5 808,-336.5 722,-336.5"/>
<text text-anchor="middle" x="765" y="-343.5" font-family="Helvetica,sans-Serif" font-size="10.00">../Control/Nav.h</text>
</a>
</g>
</g>
<!-- Node16&#45;&gt;Node17 -->
<g id="edge17" class="edge"><title>Node16&#45;&gt;Node17</title>
<path fill="none" stroke="midnightblue" d="M682.745,-392.324C698.319,-383.743 722.377,-370.486 740.459,-360.522"/>
<polygon fill="midnightblue" stroke="midnightblue" points="742.224,-363.546 749.294,-355.655 738.846,-357.415 742.224,-363.546"/>
</g>
<!-- Node18 -->
<g id="node18" class="node"><title>Node18</title>
<g id="a_node18"><a xlink:href="_ui_layout_flags_8h.html" target="_top" xlink:title="UiLayoutFlags.h">
<polygon fill="none" stroke="black" points="478,-224.5 478,-243.5 566,-243.5 566,-224.5 478,-224.5"/>
<text text-anchor="middle" x="522" y="-231.5" font-family="Helvetica,sans-Serif" font-size="10.00">UiLayoutFlags.h</text>
</a>
</g>
</g>
<!-- Node16&#45;&gt;Node18 -->
<g id="edge20" class="edge"><title>Node16&#45;&gt;Node18</title>
<path fill="none" stroke="midnightblue" d="M640.611,-392.488C621.742,-385.282 596.813,-373.332 580,-356 551.176,-326.287 534.421,-279.521 526.869,-253.694"/>
<polygon fill="midnightblue" stroke="midnightblue" points="530.151,-252.432 524.111,-243.727 523.404,-254.298 530.151,-252.432"/>
</g>
<!-- Node19 -->
<g id="node19" class="node"><title>Node19</title>
<g id="a_node19"><a xlink:href="_view_model_8h.html" target="_top" xlink:title="ViewModel.h">
<polygon fill="none" stroke="black" points="630.5,-336.5 630.5,-355.5 703.5,-355.5 703.5,-336.5 630.5,-336.5"/>
<text text-anchor="middle" x="667" y="-343.5" font-family="Helvetica,sans-Serif" font-size="10.00">ViewModel.h</text>
</a>
</g>
</g>
<!-- Node16&#45;&gt;Node19 -->
<g id="edge22" class="edge"><title>Node16&#45;&gt;Node19</title>
<path fill="none" stroke="midnightblue" d="M667,-392.083C667,-385.006 667,-374.861 667,-365.986"/>
<polygon fill="midnightblue" stroke="midnightblue" points="670.5,-365.751 667,-355.751 663.5,-365.751 670.5,-365.751"/>
</g>
<!-- Node18&#45;&gt;Node13 -->
<g id="edge21" class="edge"><title>Node18&#45;&gt;Node13</title>
<path fill="none" stroke="midnightblue" d="M528.994,-224.295C539.858,-211.113 561.85,-185.748 584,-168 621.652,-137.831 632.974,-131.738 677,-112 709.165,-97.5798 747.294,-85.9454 776.378,-78.1214"/>
<polygon fill="midnightblue" stroke="midnightblue" points="777.487,-81.4487 786.264,-75.5145 775.702,-74.6801 777.487,-81.4487"/>
</g>
<!-- Node20 -->
<g id="node20" class="node"><title>Node20</title>
<g id="a_node20"><a xlink:href="_display_8h.html" target="_top" xlink:title="Display.h">
<polygon fill="none" stroke="black" points="622,-280.5 622,-299.5 680,-299.5 680,-280.5 622,-280.5"/>
<text text-anchor="middle" x="651" y="-287.5" font-family="Helvetica,sans-Serif" font-size="10.00">Display.h</text>
</a>
</g>
</g>
<!-- Node19&#45;&gt;Node20 -->
<g id="edge23" class="edge"><title>Node19&#45;&gt;Node20</title>
<path fill="none" stroke="midnightblue" d="M664.358,-336.083C662.214,-328.849 659.121,-318.409 656.451,-309.397"/>
<polygon fill="midnightblue" stroke="midnightblue" points="659.79,-308.345 653.593,-299.751 653.078,-310.333 659.79,-308.345"/>
</g>
<!-- Node24 -->
<g id="node24" class="node"><title>Node24</title>
<g id="a_node24"><a xlink:href="_view_attacher_8h.html" target="_top" xlink:title="ViewAttacher.h">
<polygon fill="none" stroke="black" points="731.5,-224.5 731.5,-243.5 814.5,-243.5 814.5,-224.5 731.5,-224.5"/>
<text text-anchor="middle" x="773" y="-231.5" font-family="Helvetica,sans-Serif" font-size="10.00">ViewAttacher.h</text>
</a>
</g>
</g>
<!-- Node19&#45;&gt;Node24 -->
<g id="edge34" class="edge"><title>Node19&#45;&gt;Node24</title>
<path fill="none" stroke="midnightblue" d="M697.582,-336.376C716.688,-329.485 740.36,-317.952 755,-300 765.744,-286.825 770.091,-267.687 771.841,-253.588"/>
<polygon fill="midnightblue" stroke="midnightblue" points="775.332,-253.848 772.761,-243.57 768.361,-253.209 775.332,-253.848"/>
</g>
<!-- Node25 -->
<g id="node25" class="node"><title>Node25</title>
<g id="a_node25"><a xlink:href="_view_8h.html" target="_top" xlink:title="View.h">
<polygon fill="none" stroke="black" points="698.5,-280.5 698.5,-299.5 745.5,-299.5 745.5,-280.5 698.5,-280.5"/>
<text text-anchor="middle" x="722" y="-287.5" font-family="Helvetica,sans-Serif" font-size="10.00">View.h</text>
</a>
</g>
</g>
<!-- Node19&#45;&gt;Node25 -->
<g id="edge33" class="edge"><title>Node19&#45;&gt;Node25</title>
<path fill="none" stroke="midnightblue" d="M676.082,-336.083C684.171,-328.141 696.195,-316.335 705.91,-306.797"/>
<polygon fill="midnightblue" stroke="midnightblue" points="708.403,-309.254 713.087,-299.751 703.499,-304.26 708.403,-309.254"/>
</g>
<!-- Node20&#45;&gt;Node5 -->
<g id="edge24" class="edge"><title>Node20&#45;&gt;Node5</title>
<path fill="none" stroke="midnightblue" d="M648.411,-280.368C643.061,-262.537 630.689,-221.295 623.482,-197.272"/>
<polygon fill="midnightblue" stroke="midnightblue" points="626.803,-196.164 620.577,-187.591 620.099,-198.175 626.803,-196.164"/>
</g>
<!-- Node20&#45;&gt;Node18 -->
<g id="edge31" class="edge"><title>Node20&#45;&gt;Node18</title>
<path fill="none" stroke="midnightblue" d="M630.56,-280.444C609.33,-271.557 575.901,-257.563 551.745,-247.451"/>
<polygon fill="midnightblue" stroke="midnightblue" points="552.921,-244.149 542.345,-243.516 550.218,-250.606 552.921,-244.149"/>
</g>
<!-- Node21 -->
<g id="node21" class="node"><title>Node21</title>
<g id="a_node21"><a xlink:href="_styles_8h.html" target="_top" xlink:title="Styles.h">
<polygon fill="none" stroke="black" points="660.5,-224.5 660.5,-243.5 713.5,-243.5 713.5,-224.5 660.5,-224.5"/>
<text text-anchor="middle" x="687" y="-231.5" font-family="Helvetica,sans-Serif" font-size="10.00">Styles.h</text>
</a>
</g>
</g>
<!-- Node20&#45;&gt;Node21 -->
<g id="edge25" class="edge"><title>Node20&#45;&gt;Node21</title>
<path fill="none" stroke="midnightblue" d="M656.945,-280.083C661.977,-272.534 669.337,-261.495 675.513,-252.23"/>
<polygon fill="midnightblue" stroke="midnightblue" points="678.531,-254.013 681.166,-243.751 672.707,-250.13 678.531,-254.013"/>
</g>
<!-- Node20&#45;&gt;Node24 -->
<g id="edge32" class="edge"><title>Node20&#45;&gt;Node24</title>
<path fill="none" stroke="midnightblue" d="M670.331,-280.444C690.32,-271.596 721.743,-257.687 744.564,-247.586"/>
<polygon fill="midnightblue" stroke="midnightblue" points="746.032,-250.764 753.759,-243.516 743.198,-244.363 746.032,-250.764"/>
</g>
<!-- Node21&#45;&gt;Node5 -->
<g id="edge26" class="edge"><title>Node21&#45;&gt;Node5</title>
<path fill="none" stroke="midnightblue" d="M675.914,-224.324C665.514,-216.185 649.739,-203.839 637.278,-194.087"/>
<polygon fill="midnightblue" stroke="midnightblue" points="639.32,-191.241 629.288,-187.834 635.006,-196.753 639.32,-191.241"/>
</g>
<!-- Node21&#45;&gt;Node12 -->
<g id="edge30" class="edge"><title>Node21&#45;&gt;Node12</title>
<path fill="none" stroke="midnightblue" d="M713.8,-225.94C750.819,-216.189 817.603,-198.597 858.063,-187.939"/>
<polygon fill="midnightblue" stroke="midnightblue" points="858.97,-191.32 867.748,-185.388 857.187,-184.551 858.97,-191.32"/>
</g>
<!-- Node22 -->
<g id="node22" class="node"><title>Node22</title>
<g id="a_node22"><a xlink:href="_ui_font_8h.html" target="_top" xlink:title="UiFont.h">
<polygon fill="none" stroke="black" points="696,-168.5 696,-187.5 750,-187.5 750,-168.5 696,-168.5"/>
<text text-anchor="middle" x="723" y="-175.5" font-family="Helvetica,sans-Serif" font-size="10.00">UiFont.h</text>
</a>
</g>
</g>
<!-- Node21&#45;&gt;Node22 -->
<g id="edge27" class="edge"><title>Node21&#45;&gt;Node22</title>
<path fill="none" stroke="midnightblue" d="M692.945,-224.083C697.977,-216.534 705.337,-205.495 711.513,-196.23"/>
<polygon fill="midnightblue" stroke="midnightblue" points="714.531,-198.013 717.166,-187.751 708.707,-194.13 714.531,-198.013"/>
</g>
<!-- Node22&#45;&gt;Node15 -->
<g id="edge29" class="edge"><title>Node22&#45;&gt;Node15</title>
<path fill="none" stroke="midnightblue" d="M749.779,-168.444C778.333,-159.32 823.733,-144.813 855.537,-134.651"/>
<polygon fill="midnightblue" stroke="midnightblue" points="856.886,-137.894 865.347,-131.516 854.756,-131.226 856.886,-137.894"/>
</g>
<!-- Node23 -->
<g id="node23" class="node"><title>Node23</title>
<g id="a_node23"><a xlink:href="_hash_8h.html" target="_top" xlink:title="../Util/Hash.h">
<polygon fill="none" stroke="black" points="685.5,-112.5 685.5,-131.5 760.5,-131.5 760.5,-112.5 685.5,-112.5"/>
<text text-anchor="middle" x="723" y="-119.5" font-family="Helvetica,sans-Serif" font-size="10.00">../Util/Hash.h</text>
</a>
</g>
</g>
<!-- Node22&#45;&gt;Node23 -->
<g id="edge28" class="edge"><title>Node22&#45;&gt;Node23</title>
<path fill="none" stroke="midnightblue" d="M723,-168.083C723,-161.006 723,-150.861 723,-141.986"/>
<polygon fill="midnightblue" stroke="midnightblue" points="726.5,-141.751 723,-131.751 719.5,-141.751 726.5,-141.751"/>
</g>
<!-- Node26&#45;&gt;Node6 -->
<g id="edge36" class="edge"><title>Node26&#45;&gt;Node6</title>
<path fill="none" stroke="midnightblue" d="M552.723,-672.382C540.981,-664.199 524.045,-650.952 513,-636 475.154,-584.765 451.554,-511.789 441.951,-477.785"/>
<polygon fill="midnightblue" stroke="midnightblue" points="445.244,-476.558 439.23,-467.835 438.492,-478.404 445.244,-476.558"/>
</g>
<!-- Node27 -->
<g id="node27" class="node"><title>Node27</title>
<g id="a_node27"><a xlink:href="_base_container_8h.html" target="_top" xlink:title="BaseContainer.h">
<polygon fill="none" stroke="black" points="521.5,-616.5 521.5,-635.5 610.5,-635.5 610.5,-616.5 521.5,-616.5"/>
<text text-anchor="middle" x="566" y="-623.5" font-family="Helvetica,sans-Serif" font-size="10.00">BaseContainer.h</text>
</a>
</g>
</g>
<!-- Node26&#45;&gt;Node27 -->
<g id="edge37" class="edge"><title>Node26&#45;&gt;Node27</title>
<path fill="none" stroke="midnightblue" d="M566,-672.083C566,-665.006 566,-654.861 566,-645.986"/>
<polygon fill="midnightblue" stroke="midnightblue" points="569.5,-645.751 566,-635.751 562.5,-645.751 569.5,-645.751"/>
</g>
<!-- Node28 -->
<g id="node28" class="node"><title>Node28</title>
<g id="a_node28"><a xlink:href="_state_button_8h.html" target="_top" xlink:title="StateButton.h">
<polygon fill="none" stroke="black" points="628.5,-616.5 628.5,-635.5 705.5,-635.5 705.5,-616.5 628.5,-616.5"/>
<text text-anchor="middle" x="667" y="-623.5" font-family="Helvetica,sans-Serif" font-size="10.00">StateButton.h</text>
</a>
</g>
</g>
<!-- Node26&#45;&gt;Node28 -->
<g id="edge39" class="edge"><title>Node26&#45;&gt;Node28</title>
<path fill="none" stroke="midnightblue" d="M582.227,-672.324C598.351,-663.703 623.3,-650.364 641.964,-640.386"/>
<polygon fill="midnightblue" stroke="midnightblue" points="643.644,-643.456 650.813,-635.655 640.344,-637.283 643.644,-643.456"/>
</g>
<!-- Node27&#45;&gt;Node16 -->
<g id="edge38" class="edge"><title>Node27&#45;&gt;Node16</title>
<path fill="none" stroke="midnightblue" d="M569.637,-616.451C578.102,-596.611 599.857,-545.934 619,-504 632.388,-474.673 648.603,-440.896 658.346,-420.782"/>
<polygon fill="midnightblue" stroke="midnightblue" points="661.582,-422.129 662.801,-411.605 655.285,-419.072 661.582,-422.129"/>
</g>
<!-- Node29 -->
<g id="node29" class="node"><title>Node29</title>
<g id="a_node29"><a xlink:href="_button_8h.html" target="_top" xlink:title="Button.h">
<polygon fill="none" stroke="black" points="640.5,-560.5 640.5,-579.5 693.5,-579.5 693.5,-560.5 640.5,-560.5"/>
<text text-anchor="middle" x="667" y="-567.5" font-family="Helvetica,sans-Serif" font-size="10.00">Button.h</text>
</a>
</g>
</g>
<!-- Node28&#45;&gt;Node29 -->
<g id="edge40" class="edge"><title>Node28&#45;&gt;Node29</title>
<path fill="none" stroke="midnightblue" d="M667,-616.083C667,-609.006 667,-598.861 667,-589.986"/>
<polygon fill="midnightblue" stroke="midnightblue" points="670.5,-589.751 667,-579.751 663.5,-589.751 670.5,-589.751"/>
</g>
<!-- Node30 -->
<g id="node30" class="node"><title>Node30</title>
<g id="a_node30"><a xlink:href="_res_8h.html" target="_top" xlink:title="Res.h">
<polygon fill="none" stroke="black" points="482.5,-504.5 482.5,-523.5 525.5,-523.5 525.5,-504.5 482.5,-504.5"/>
<text text-anchor="middle" x="504" y="-511.5" font-family="Helvetica,sans-Serif" font-size="10.00">Res.h</text>
</a>
</g>
</g>
<!-- Node29&#45;&gt;Node30 -->
<g id="edge41" class="edge"><title>Node29&#45;&gt;Node30</title>
<path fill="none" stroke="midnightblue" d="M641.172,-560.444C612.46,-550.932 566.09,-535.57 535.328,-525.379"/>
<polygon fill="midnightblue" stroke="midnightblue" points="536.136,-521.959 525.543,-522.137 533.935,-528.604 536.136,-521.959"/>
</g>
<!-- Node31 -->
<g id="node31" class="node"><title>Node31</title>
<g id="a_node31"><a xlink:href="_click_region_8h.html" target="_top" xlink:title="ClickRegion.h">
<polygon fill="none" stroke="black" points="628,-504.5 628,-523.5 706,-523.5 706,-504.5 628,-504.5"/>
<text text-anchor="middle" x="667" y="-511.5" font-family="Helvetica,sans-Serif" font-size="10.00">ClickRegion.h</text>
</a>
</g>
</g>
<!-- Node29&#45;&gt;Node31 -->
<g id="edge44" class="edge"><title>Node29&#45;&gt;Node31</title>
<path fill="none" stroke="midnightblue" d="M667,-560.083C667,-553.006 667,-542.861 667,-533.986"/>
<polygon fill="midnightblue" stroke="midnightblue" points="670.5,-533.751 667,-523.751 663.5,-533.751 670.5,-533.751"/>
</g>
<!-- Node32 -->
<g id="node32" class="node"><title>Node32</title>
<g id="a_node32"><a xlink:href="_fill_box_8h.html" target="_top" xlink:title="FillBox.h">
<polygon fill="none" stroke="black" points="840.5,-504.5 840.5,-523.5 895.5,-523.5 895.5,-504.5 840.5,-504.5"/>
<text text-anchor="middle" x="868" y="-511.5" font-family="Helvetica,sans-Serif" font-size="10.00">FillBox.h</text>
</a>
</g>
</g>
<!-- Node29&#45;&gt;Node32 -->
<g id="edge46" class="edge"><title>Node29&#45;&gt;Node32</title>
<path fill="none" stroke="midnightblue" d="M693.691,-561.829C728.762,-552.407 790.558,-535.805 830.366,-525.111"/>
<polygon fill="midnightblue" stroke="midnightblue" points="831.48,-528.436 840.229,-522.461 829.663,-521.675 831.48,-528.436"/>
</g>
<!-- Node30&#45;&gt;Node6 -->
<g id="edge43" class="edge"><title>Node30&#45;&gt;Node6</title>
<path fill="none" stroke="midnightblue" d="M493.235,-504.324C483.234,-496.263 468.113,-484.077 456.07,-474.369"/>
<polygon fill="midnightblue" stroke="midnightblue" points="457.943,-471.384 447.961,-467.834 453.55,-476.834 457.943,-471.384"/>
</g>
<!-- Node30&#45;&gt;Node13 -->
<g id="edge42" class="edge"><title>Node30&#45;&gt;Node13</title>
<path fill="none" stroke="midnightblue" d="M501.651,-504.389C490.256,-461.906 442.347,-274.652 469,-224 525.2,-117.196 676.79,-82.9685 761.911,-72.0578"/>
<polygon fill="midnightblue" stroke="midnightblue" points="762.446,-75.5187 771.951,-70.8395 761.603,-68.5697 762.446,-75.5187"/>
</g>
<!-- Node31&#45;&gt;Node16 -->
<g id="edge45" class="edge"><title>Node31&#45;&gt;Node16</title>
<path fill="none" stroke="midnightblue" d="M667,-504.368C667,-486.617 667,-445.666 667,-421.597"/>
<polygon fill="midnightblue" stroke="midnightblue" points="670.5,-421.591 667,-411.591 663.5,-421.591 670.5,-421.591"/>
</g>
<!-- Node32&#45;&gt;Node11 -->
<g id="edge48" class="edge"><title>Node32&#45;&gt;Node11</title>
<path fill="none" stroke="midnightblue" d="M876.997,-504.324C885.194,-496.42 897.506,-484.548 907.472,-474.938"/>
<polygon fill="midnightblue" stroke="midnightblue" points="910.07,-477.295 914.839,-467.834 905.211,-472.256 910.07,-477.295"/>
</g>
<!-- Node32&#45;&gt;Node12 -->
<g id="edge47" class="edge"><title>Node32&#45;&gt;Node12</title>
<path fill="none" stroke="midnightblue" d="M868.617,-504.408C871.774,-460.475 886.139,-260.572 890.644,-197.87"/>
<polygon fill="midnightblue" stroke="midnightblue" points="894.161,-197.76 891.387,-187.535 887.179,-197.258 894.161,-197.76"/>
</g>
</g>
</svg>
        <g id="navigator" transform="translate(0 0)" fill="#404254">
                <rect fill="#f2f5e9" fill-opacity="0.5" stroke="#606060" stroke-width=".5" x="0" y="0" width="60" height="60"/>
                <use id="zoomplus" xlink:href="#zoomPlus" x="17" y="9" onmousedown="handleZoom(evt,'in')"/>
                <use id="zoomminus" xlink:href="#zoomMin" x="42" y="9" onmousedown="handleZoom(evt,'out')"/>
                <use id="reset" xlink:href="#resetDef" x="30" y="36" onmousedown="handleReset()"/>
                <g id="arrowUp" xlink:href="#dirArrow" transform="translate(30 24)" onmousedown="handlePan(0,-1)">
                  <use xlink:href="#rim" fill="#404040">
                        <set attributeName="fill" to="#808080" begin="arrowUp.mouseover" end="arrowUp.mouseout"/>
                  </use>
                  <path fill="none" stroke="white" stroke-width="1.5" d="M0,-3.0v7 M-2.5,-0.5L0,-3.0L2.5,-0.5"/>
                </g>
                <g id="arrowRight" xlink:href="#dirArrow" transform="rotate(90) translate(36 -43)" onmousedown="handlePan(1,0)">
                  <use xlink:href="#rim" fill="#404040">
                        <set attributeName="fill" to="#808080" begin="arrowRight.mouseover" end="arrowRight.mouseout"/>
                  </use>
                  <path fill="none" stroke="white" stroke-width="1.5" d="M0,-3.0v7 M-2.5,-0.5L0,-3.0L2.5,-0.5"/>
                </g>
                <g id="arrowDown" xlink:href="#dirArrow" transform="rotate(180) translate(-30 -48)" onmousedown="handlePan(0,1)">
                  <use xlink:href="#rim" fill="#404040">
                        <set attributeName="fill" to="#808080" begin="arrowDown.mouseover" end="arrowDown.mouseout"/>
                  </use>
                  <path fill="none" stroke="white" stroke-width="1.5" d="M0,-3.0v7 M-2.5,-0.5L0,-3.0L2.5,-0.5"/>
                </g>
                <g id="arrowLeft" xlink:href="#dirArrow" transform="rotate(270) translate(-36 17)" onmousedown="handlePan(-1,0)">
                  <use xlink:href="#rim" fill="#404040">
                        <set attributeName="fill" to="#808080" begin="arrowLeft.mouseover" end="arrowLeft.mouseout"/>
                  </use>
                  <path fill="none" stroke="white" stroke-width="1.5" d="M0,-3.0v7 M-2.5,-0.5L0,-3.0L2.5,-0.5"/>
                </g>
        </g>
        <svg viewBox="0 0 15 15" width="100%" height="30px" preserveAspectRatio="xMaxYMin meet">
         <g id="arrow_out" transform="scale(0.3 0.3)">
          <a xlink:href="_pick_list_8cpp__incl_org.svg" target="_base">
           <rect id="button" ry="5" rx="5" y="6" x="6" height="38" width="38"
                fill="#f2f5e9" fill-opacity="0.5" stroke="#606060" stroke-width="1.0"/>
           <path id="arrow"
             d="M 11.500037,31.436501 C 11.940474,20.09759 22.043105,11.32322 32.158766,21.979434 L 37.068811,17.246167 C 37.068811,17.246167 37.088388,32 37.088388,32 L 22.160133,31.978069 C 22.160133,31.978069 26.997745,27.140456 26.997745,27.140456 C 18.528582,18.264221 13.291696,25.230495 11.500037,31.436501 z"
             style="fill:#404040;"/>
          </a>
         </g>
        </svg>
</svg>
