<?xml version="1.0" encoding="UTF-8" standalone="no"?>
<!DOCTYPE svg PUBLIC "-//W3C//DTD SVG 1.1//EN"
 "http://www.w3.org/Graphics/SVG/1.1/DTD/svg11.dtd">
<!-- Generated by graphviz version 2.26.3 (20100126.1600)
 -->
<!-- Title: PlayGameScene.h Pages: 1 -->
<svg width="1391pt" height="704pt"
 viewBox="0.00 0.00 1391.00 704.00" xmlns="http://www.w3.org/2000/svg" xmlns:xlink="http://www.w3.org/1999/xlink">
<g id="graph1" class="graph" transform="scale(1 1) rotate(0) translate(4 700)">
<title>PlayGameScene.h</title>
<!-- Node1 -->
<g id="node1" class="node"><title>Node1</title>
<polygon fill="#bfbfbf" stroke="black" points="508.5,-675 508.5,-695 605.5,-695 605.5,-675 508.5,-675"/>
<text text-anchor="middle" x="557" y="-682" font-family="FreeSans" font-size="10.00">PlayGameScene.h</text>
</g>
<!-- Node2 -->
<g id="node3" class="node"><title>Node2</title>
<a xlink:href="_game_scene_8h.html" target="_top" xlink:title="GameScene.h">
<polygon fill="none" stroke="black" points="518,-617 518,-637 596,-637 596,-617 518,-617"/>
<text text-anchor="middle" x="557" y="-624" font-family="FreeSans" font-size="10.00">GameScene.h</text>
</a>
</g>
<!-- Node1&#45;&gt;Node2 -->
<g id="edge2" class="edge"><title>Node1&#45;&gt;Node2</title>
<path fill="none" stroke="midnightblue" d="M557,-674.897C557,-667.339 557,-656.748 557,-647.446"/>
<polygon fill="midnightblue" stroke="midnightblue" points="560.5,-647.378 557,-637.378 553.5,-647.378 560.5,-647.378"/>
</g>
<!-- Node3 -->
<g id="node5" class="node"><title>Node3</title>
<a xlink:href="_hud_cell_8h.html" target="_top" xlink:title="../../engine/Display\l/HudCell.h">
<polygon fill="none" stroke="black" points="655.5,-489 655.5,-521 750.5,-521 750.5,-489 655.5,-489"/>
<text text-anchor="start" x="663.5" y="-508" font-family="FreeSans" font-size="10.00">../../engine/Display</text>
<text text-anchor="middle" x="703" y="-496" font-family="FreeSans" font-size="10.00">/HudCell.h</text>
</a>
</g>
<!-- Node2&#45;&gt;Node3 -->
<g id="edge4" class="edge"><title>Node2&#45;&gt;Node3</title>
<path fill="none" stroke="midnightblue" d="M585.167,-616.985C604.807,-609.048 630.822,-596.543 650,-580 666.349,-565.897 680.232,-545.727 689.683,-529.856"/>
<polygon fill="midnightblue" stroke="midnightblue" points="692.775,-531.501 694.721,-521.086 686.705,-528.014 692.775,-531.501"/>
</g>
<!-- Node4 -->
<g id="node7" class="node"><title>Node4</title>
<a xlink:href="_config_8h.html" target="_top" xlink:title="../../engine/Util/Config.h">
<polygon fill="none" stroke="black" points="174,-175 174,-195 290,-195 290,-175 174,-175"/>
<text text-anchor="middle" x="232" y="-182" font-family="FreeSans" font-size="10.00">../../engine/Util/Config.h</text>
</a>
</g>
<!-- Node2&#45;&gt;Node4 -->
<g id="edge6" class="edge"><title>Node2&#45;&gt;Node4</title>
<path fill="none" stroke="midnightblue" d="M517.999,-619.461C437.622,-602.807 261,-559.957 261,-505 261,-505 261,-505 261,-313 261,-273.899 247.969,-229.703 239.377,-204.813"/>
<polygon fill="midnightblue" stroke="midnightblue" points="242.571,-203.35 235.911,-195.11 235.979,-205.705 242.571,-203.35"/>
</g>
<!-- Node14 -->
<g id="node28" class="node"><title>Node14</title>
<a xlink:href="_observer_8h.html" target="_top" xlink:title="Observer.h">
<polygon fill="none" stroke="black" points="746,-559 746,-579 810,-579 810,-559 746,-559"/>
<text text-anchor="middle" x="778" y="-566" font-family="FreeSans" font-size="10.00">Observer.h</text>
</a>
</g>
<!-- Node2&#45;&gt;Node14 -->
<g id="edge28" class="edge"><title>Node2&#45;&gt;Node14</title>
<path fill="none" stroke="midnightblue" d="M595.243,-616.963C634.535,-606.651 695.532,-590.643 736.107,-579.994"/>
<polygon fill="midnightblue" stroke="midnightblue" points="737.173,-583.333 745.957,-577.409 735.397,-576.563 737.173,-583.333"/>
</g>
<!-- Node44 -->
<g id="node112" class="node"><title>Node44</title>
<a xlink:href="_game_director_8h.html" target="_top" xlink:title="GameDirector.h">
<polygon fill="none" stroke="black" points="557,-559 557,-579 641,-579 641,-559 557,-559"/>
<text text-anchor="middle" x="599" y="-566" font-family="FreeSans" font-size="10.00">GameDirector.h</text>
</a>
</g>
<!-- Node2&#45;&gt;Node44 -->
<g id="edge136" class="edge"><title>Node2&#45;&gt;Node44</title>
<path fill="none" stroke="midnightblue" d="M564.316,-616.897C570.146,-608.846 578.468,-597.353 585.5,-587.643"/>
<polygon fill="midnightblue" stroke="midnightblue" points="588.455,-589.53 591.485,-579.378 582.785,-585.424 588.455,-589.53"/>
</g>
<!-- Node45 -->
<g id="node114" class="node"><title>Node45</title>
<a xlink:href="_rules_8h.html" target="_top" xlink:title="Rules.h">
<polygon fill="none" stroke="black" points="490.5,-559 490.5,-579 539.5,-579 539.5,-559 490.5,-559"/>
<text text-anchor="middle" x="515" y="-566" font-family="FreeSans" font-size="10.00">Rules.h</text>
</a>
</g>
<!-- Node2&#45;&gt;Node45 -->
<g id="edge138" class="edge"><title>Node2&#45;&gt;Node45</title>
<path fill="none" stroke="midnightblue" d="M549.684,-616.897C543.854,-608.846 535.532,-597.353 528.5,-587.643"/>
<polygon fill="midnightblue" stroke="midnightblue" points="531.215,-585.424 522.515,-579.378 525.545,-589.53 531.215,-585.424"/>
</g>
<!-- Node49 -->
<g id="node123" class="node"><title>Node49</title>
<a xlink:href="_ui_scene_8h.html" target="_top" xlink:title="UiScene.h">
<polygon fill="none" stroke="black" points="152,-559 152,-579 214,-579 214,-559 152,-559"/>
<text text-anchor="middle" x="183" y="-566" font-family="FreeSans" font-size="10.00">UiScene.h</text>
</a>
</g>
<!-- Node2&#45;&gt;Node49 -->
<g id="edge148" class="edge"><title>Node2&#45;&gt;Node49</title>
<path fill="none" stroke="midnightblue" d="M517.812,-621.312C458.957,-612.712 344.263,-595.73 247,-580 239.655,-578.812 231.843,-577.505 224.293,-576.22"/>
<polygon fill="midnightblue" stroke="midnightblue" points="224.677,-572.735 214.229,-574.495 223.494,-579.635 224.677,-572.735"/>
</g>
<!-- Node5 -->
<g id="node9" class="node"><title>Node5</title>
<polygon fill="none" stroke="#bfbfbf" points="318.5,-59 318.5,-79 359.5,-79 359.5,-59 318.5,-59"/>
<text text-anchor="middle" x="339" y="-66" font-family="FreeSans" font-size="10.00">string</text>
</g>
<!-- Node4&#45;&gt;Node5 -->
<g id="edge8" class="edge"><title>Node4&#45;&gt;Node5</title>
<path fill="none" stroke="midnightblue" d="M241.496,-174.706C259.784,-154.879 300.086,-111.187 322.732,-86.6358"/>
<polygon fill="midnightblue" stroke="midnightblue" points="325.471,-88.8291 329.679,-79.1055 320.326,-84.0829 325.471,-88.8291"/>
</g>
<!-- Node6 -->
<g id="node11" class="node"><title>Node6</title>
<polygon fill="none" stroke="#bfbfbf" points="136,-117 136,-137 192,-137 192,-117 136,-117"/>
<text text-anchor="middle" x="164" y="-124" font-family="FreeSans" font-size="10.00">basedir.h</text>
</g>
<!-- Node4&#45;&gt;Node6 -->
<g id="edge10" class="edge"><title>Node4&#45;&gt;Node6</title>
<path fill="none" stroke="midnightblue" d="M220.155,-174.897C210.138,-166.353 195.577,-153.933 183.792,-143.881"/>
<polygon fill="midnightblue" stroke="midnightblue" points="186.047,-141.204 176.167,-137.378 181.504,-146.53 186.047,-141.204"/>
</g>
<!-- Node7 -->
<g id="node13" class="node"><title>Node7</title>
<a xlink:href="_o_s_8h.html" target="_top" xlink:title="OS.h">
<polygon fill="none" stroke="black" points="210,-117 210,-137 248,-137 248,-117 210,-117"/>
<text text-anchor="middle" x="229" y="-124" font-family="FreeSans" font-size="10.00">OS.h</text>
</a>
</g>
<!-- Node4&#45;&gt;Node7 -->
<g id="edge12" class="edge"><title>Node4&#45;&gt;Node7</title>
<path fill="none" stroke="midnightblue" d="M231.477,-174.897C231.087,-167.339 230.539,-156.748 230.058,-147.446"/>
<polygon fill="midnightblue" stroke="midnightblue" points="233.549,-147.183 229.537,-137.378 226.558,-147.545 233.549,-147.183"/>
</g>
<!-- Node7&#45;&gt;Node5 -->
<g id="edge18" class="edge"><title>Node7&#45;&gt;Node5</title>
<path fill="none" stroke="midnightblue" d="M248.161,-116.897C265.405,-107.804 290.976,-94.3218 310.598,-83.9757"/>
<polygon fill="midnightblue" stroke="midnightblue" points="312.477,-86.9418 319.69,-79.1817 309.212,-80.7498 312.477,-86.9418"/>
</g>
<!-- Node8 -->
<g id="node15" class="node"><title>Node8</title>
<polygon fill="none" stroke="#bfbfbf" points="89,-59 89,-79 131,-79 131,-59 89,-59"/>
<text text-anchor="middle" x="110" y="-66" font-family="FreeSans" font-size="10.00">locale</text>
</g>
<!-- Node7&#45;&gt;Node8 -->
<g id="edge14" class="edge"><title>Node7&#45;&gt;Node8</title>
<path fill="none" stroke="midnightblue" d="M209.881,-117.681C190.994,-108.476 161.831,-94.262 139.883,-83.5651"/>
<polygon fill="midnightblue" stroke="midnightblue" points="141.193,-80.31 130.671,-79.0749 138.127,-86.6024 141.193,-80.31"/>
</g>
<!-- Node9 -->
<g id="node17" class="node"><title>Node9</title>
<polygon fill="none" stroke="#bfbfbf" points="149,-59 149,-79 179,-79 179,-59 149,-59"/>
<text text-anchor="middle" x="164" y="-66" font-family="FreeSans" font-size="10.00">set</text>
</g>
<!-- Node7&#45;&gt;Node9 -->
<g id="edge16" class="edge"><title>Node7&#45;&gt;Node9</title>
<path fill="none" stroke="midnightblue" d="M217.678,-116.897C208.195,-108.435 194.451,-96.1715 183.244,-86.1719"/>
<polygon fill="midnightblue" stroke="midnightblue" points="185.422,-83.424 175.63,-79.3776 180.761,-88.647 185.422,-83.424"/>
</g>
<!-- Node10 -->
<g id="node20" class="node"><title>Node10</title>
<polygon fill="none" stroke="#bfbfbf" points="27,-59 27,-79 71,-79 71,-59 27,-59"/>
<text text-anchor="middle" x="49" y="-66" font-family="FreeSans" font-size="10.00">vector</text>
</g>
<!-- Node7&#45;&gt;Node10 -->
<g id="edge20" class="edge"><title>Node7&#45;&gt;Node10</title>
<path fill="none" stroke="midnightblue" d="M209.8,-119.209C206.868,-118.091 203.864,-116.987 201,-116 150.853,-98.7249 135.058,-97.4779 81.071,-80.23"/>
<polygon fill="midnightblue" stroke="midnightblue" points="81.8957,-76.8182 71.3038,-77.0697 79.7407,-83.4783 81.8957,-76.8182"/>
</g>
<!-- Node11 -->
<g id="node22" class="node"><title>Node11</title>
<polygon fill="none" stroke="#bfbfbf" points="196.5,-59 196.5,-79 301.5,-79 301.5,-59 196.5,-59"/>
<text text-anchor="middle" x="249" y="-66" font-family="FreeSans" font-size="10.00">boost/filesystem.hpp</text>
</g>
<!-- Node7&#45;&gt;Node11 -->
<g id="edge22" class="edge"><title>Node7&#45;&gt;Node11</title>
<path fill="none" stroke="midnightblue" d="M232.484,-116.897C235.147,-109.175 238.901,-98.2857 242.158,-88.841"/>
<polygon fill="midnightblue" stroke="midnightblue" points="245.47,-89.9723 245.422,-79.3776 238.853,-87.6903 245.47,-89.9723"/>
</g>
<!-- Node12 -->
<g id="node24" class="node"><title>Node12</title>
<a xlink:href="_m_r___types_8h.html" target="_top" xlink:title="MR_Types.h">
<polygon fill="none" stroke="black" points="902.5,-59 902.5,-79 973.5,-79 973.5,-59 902.5,-59"/>
<text text-anchor="middle" x="938" y="-66" font-family="FreeSans" font-size="10.00">MR_Types.h</text>
</a>
</g>
<!-- Node7&#45;&gt;Node12 -->
<g id="edge24" class="edge"><title>Node7&#45;&gt;Node12</title>
<path fill="none" stroke="midnightblue" d="M248.152,-124.813C269.006,-122.469 303.348,-118.719 333,-116 541.476,-96.8807 790.839,-79.1239 891.996,-72.1347"/>
<polygon fill="midnightblue" stroke="midnightblue" points="892.435,-75.6129 902.17,-71.4336 891.953,-68.6294 892.435,-75.6129"/>
</g>
<!-- Node13 -->
<g id="node26" class="node"><title>Node13</title>
<polygon fill="none" stroke="#bfbfbf" points="909,-1 909,-21 967,-21 967,-1 909,-1"/>
<text text-anchor="middle" x="938" y="-8" font-family="FreeSans" font-size="10.00">inttypes.h</text>
</g>
<!-- Node12&#45;&gt;Node13 -->
<g id="edge26" class="edge"><title>Node12&#45;&gt;Node13</title>
<path fill="none" stroke="midnightblue" d="M938,-58.8972C938,-51.339 938,-40.7476 938,-31.4458"/>
<polygon fill="midnightblue" stroke="midnightblue" points="941.5,-31.3776 938,-21.3776 934.5,-31.3776 941.5,-31.3776"/>
</g>
<!-- Node14&#45;&gt;Node3 -->
<g id="edge30" class="edge"><title>Node14&#45;&gt;Node3</title>
<path fill="none" stroke="midnightblue" d="M765.95,-558.717C756.167,-550.369 742.01,-538.288 729.597,-527.696"/>
<polygon fill="midnightblue" stroke="midnightblue" points="731.635,-524.834 721.756,-521.005 727.091,-530.159 731.635,-524.834"/>
</g>
<!-- Node15 -->
<g id="node31" class="node"><title>Node15</title>
<a xlink:href="_viewport3_d_8h.html" target="_top" xlink:title="../../engine/VideoServices\l/Viewport3D.h">
<polygon fill="none" stroke="black" points="1125,-233 1125,-265 1251,-265 1251,-233 1125,-233"/>
<text text-anchor="start" x="1133" y="-252" font-family="FreeSans" font-size="10.00">../../engine/VideoServices</text>
<text text-anchor="middle" x="1188" y="-240" font-family="FreeSans" font-size="10.00">/Viewport3D.h</text>
</a>
</g>
<!-- Node14&#45;&gt;Node15 -->
<g id="edge32" class="edge"><title>Node14&#45;&gt;Node15</title>
<path fill="none" stroke="midnightblue" d="M810.346,-567.008C915.052,-559.688 1238,-529.905 1238,-441 1238,-441 1238,-441 1238,-377 1238,-342.614 1232.03,-333.821 1219,-302 1215.04,-292.336 1209.57,-282.306 1204.33,-273.607"/>
<polygon fill="midnightblue" stroke="midnightblue" points="1207.28,-271.726 1199.02,-265.093 1201.34,-275.43 1207.28,-271.726"/>
</g>
<!-- Node22 -->
<g id="node49" class="node"><title>Node22</title>
<a xlink:href="_main_character_8h.html" target="_top" xlink:title="../../engine/MainCharacter\l/MainCharacter.h">
<polygon fill="none" stroke="black" points="684,-361 684,-393 810,-393 810,-361 684,-361"/>
<text text-anchor="start" x="692" y="-380" font-family="FreeSans" font-size="10.00">../../engine/MainCharacter</text>
<text text-anchor="middle" x="747" y="-368" font-family="FreeSans" font-size="10.00">/MainCharacter.h</text>
</a>
</g>
<!-- Node14&#45;&gt;Node22 -->
<g id="edge54" class="edge"><title>Node14&#45;&gt;Node22</title>
<path fill="none" stroke="midnightblue" d="M776.377,-558.948C771.714,-530.068 758.17,-446.181 751.221,-403.142"/>
<polygon fill="midnightblue" stroke="midnightblue" points="754.655,-402.453 749.606,-393.139 747.744,-403.569 754.655,-402.453"/>
</g>
<!-- Node35 -->
<g id="node87" class="node"><title>Node35</title>
<a xlink:href="_sprite_handle_8h.html" target="_top" xlink:title="../../engine/ObjFacTools\l/SpriteHandle.h">
<polygon fill="none" stroke="black" points="818.5,-489 818.5,-521 937.5,-521 937.5,-489 818.5,-489"/>
<text text-anchor="start" x="826.5" y="-508" font-family="FreeSans" font-size="10.00">../../engine/ObjFacTools</text>
<text text-anchor="middle" x="878" y="-496" font-family="FreeSans" font-size="10.00">/SpriteHandle.h</text>
</a>
</g>
<!-- Node14&#45;&gt;Node35 -->
<g id="edge104" class="edge"><title>Node14&#45;&gt;Node35</title>
<path fill="none" stroke="midnightblue" d="M794.067,-558.717C807.607,-550.051 827.434,-537.362 844.418,-526.493"/>
<polygon fill="midnightblue" stroke="midnightblue" points="846.456,-529.344 852.992,-521.005 842.682,-523.448 846.456,-529.344"/>
</g>
<!-- Node16 -->
<g id="node33" class="node"><title>Node16</title>
<a xlink:href="_viewport2_d_8h.html" target="_top" xlink:title="Viewport2D.h">
<polygon fill="none" stroke="black" points="1143,-175 1143,-195 1217,-195 1217,-175 1143,-175"/>
<text text-anchor="middle" x="1180" y="-182" font-family="FreeSans" font-size="10.00">Viewport2D.h</text>
</a>
</g>
<!-- Node15&#45;&gt;Node16 -->
<g id="edge34" class="edge"><title>Node15&#45;&gt;Node16</title>
<path fill="none" stroke="midnightblue" d="M1185.98,-232.85C1184.93,-224.426 1183.63,-214.041 1182.51,-205.1"/>
<polygon fill="midnightblue" stroke="midnightblue" points="1185.98,-204.63 1181.27,-195.141 1179.04,-205.498 1185.98,-204.63"/>
</g>
<!-- Node17 -->
<g id="node36" class="node"><title>Node17</title>
<a xlink:href="_color_palette_8h.html" target="_top" xlink:title="ColorPalette.h">
<polygon fill="none" stroke="black" points="1234.5,-175 1234.5,-195 1311.5,-195 1311.5,-175 1234.5,-175"/>
<text text-anchor="middle" x="1273" y="-182" font-family="FreeSans" font-size="10.00">ColorPalette.h</text>
</a>
</g>
<!-- Node15&#45;&gt;Node17 -->
<g id="edge38" class="edge"><title>Node15&#45;&gt;Node17</title>
<path fill="none" stroke="midnightblue" d="M1209.45,-232.85C1222.24,-223.222 1238.42,-211.033 1251.26,-201.367"/>
<polygon fill="midnightblue" stroke="midnightblue" points="1253.65,-203.952 1259.53,-195.141 1249.44,-198.36 1253.65,-203.952"/>
</g>
<!-- Node19 -->
<g id="node41" class="node"><title>Node19</title>
<a xlink:href="_bitmap_8h.html" target="_top" xlink:title="Bitmap.h">
<polygon fill="none" stroke="black" points="1328.5,-175 1328.5,-195 1383.5,-195 1383.5,-175 1328.5,-175"/>
<text text-anchor="middle" x="1356" y="-182" font-family="FreeSans" font-size="10.00">Bitmap.h</text>
</a>
</g>
<!-- Node15&#45;&gt;Node19 -->
<g id="edge44" class="edge"><title>Node15&#45;&gt;Node19</title>
<path fill="none" stroke="midnightblue" d="M1230.39,-232.85C1257.98,-222.343 1293.56,-208.785 1319.81,-198.786"/>
<polygon fill="midnightblue" stroke="midnightblue" points="1321.28,-201.972 1329.38,-195.141 1318.79,-195.43 1321.28,-201.972"/>
</g>
<!-- Node20 -->
<g id="node44" class="node"><title>Node20</title>
<a xlink:href="_patch_8h.html" target="_top" xlink:title="Patch.h">
<polygon fill="none" stroke="black" points="1075,-175 1075,-195 1125,-195 1125,-175 1075,-175"/>
<text text-anchor="middle" x="1100" y="-182" font-family="FreeSans" font-size="10.00">Patch.h</text>
</a>
</g>
<!-- Node15&#45;&gt;Node20 -->
<g id="edge48" class="edge"><title>Node15&#45;&gt;Node20</title>
<path fill="none" stroke="midnightblue" d="M1165.79,-232.85C1152.43,-223.13 1135.47,-210.799 1122.12,-201.089"/>
<polygon fill="midnightblue" stroke="midnightblue" points="1124.09,-198.192 1113.94,-195.141 1119.97,-203.853 1124.09,-198.192"/>
</g>
<!-- Node16&#45;&gt;Node12 -->
<g id="edge36" class="edge"><title>Node16&#45;&gt;Node12</title>
<path fill="none" stroke="midnightblue" d="M1182.37,-174.609C1185.11,-159.639 1187.57,-132.045 1173,-116 1148.21,-88.7022 1045.1,-76.6741 983.999,-71.857"/>
<polygon fill="midnightblue" stroke="midnightblue" points="984.075,-68.3529 973.84,-71.0919 983.549,-75.3332 984.075,-68.3529"/>
</g>
<!-- Node17&#45;&gt;Node12 -->
<g id="edge42" class="edge"><title>Node17&#45;&gt;Node12</title>
<path fill="none" stroke="midnightblue" d="M1282.53,-174.945C1295.17,-160.392 1314.21,-133.313 1299,-116 1278.49,-92.6511 1076.43,-77.4382 983.877,-71.6409"/>
<polygon fill="midnightblue" stroke="midnightblue" points="983.877,-68.1343 973.681,-71.0126 983.447,-75.1211 983.877,-68.1343"/>
</g>
<!-- Node18 -->
<g id="node38" class="node"><title>Node18</title>
<polygon fill="none" stroke="#bfbfbf" points="1219.5,-117 1219.5,-137 1290.5,-137 1290.5,-117 1219.5,-117"/>
<text text-anchor="middle" x="1255" y="-124" font-family="FreeSans" font-size="10.00">SDL2/SDL.h</text>
</g>
<!-- Node17&#45;&gt;Node18 -->
<g id="edge40" class="edge"><title>Node17&#45;&gt;Node18</title>
<path fill="none" stroke="midnightblue" d="M1269.86,-174.897C1267.49,-167.257 1264.16,-156.517 1261.25,-147.143"/>
<polygon fill="midnightblue" stroke="midnightblue" points="1264.53,-145.891 1258.22,-137.378 1257.84,-147.966 1264.53,-145.891"/>
</g>
<!-- Node19&#45;&gt;Node12 -->
<g id="edge46" class="edge"><title>Node19&#45;&gt;Node12</title>
<path fill="none" stroke="midnightblue" d="M1353.11,-174.773C1348.12,-159.221 1336.34,-129.96 1315,-116 1261.43,-80.9534 1072.35,-72.0327 984.057,-69.7677"/>
<polygon fill="midnightblue" stroke="midnightblue" points="983.886,-66.2627 973.805,-69.5232 983.719,-73.2607 983.886,-66.2627"/>
</g>
<!-- Node21 -->
<g id="node46" class="node"><title>Node21</title>
<a xlink:href="_world_coordinates_8h.html" target="_top" xlink:title="../Util/WorldCoordinates.h">
<polygon fill="none" stroke="black" points="1038,-117 1038,-137 1164,-137 1164,-117 1038,-117"/>
<text text-anchor="middle" x="1101" y="-124" font-family="FreeSans" font-size="10.00">../Util/WorldCoordinates.h</text>
</a>
</g>
<!-- Node20&#45;&gt;Node21 -->
<g id="edge50" class="edge"><title>Node20&#45;&gt;Node21</title>
<path fill="none" stroke="midnightblue" d="M1100.17,-174.897C1100.3,-167.339 1100.49,-156.748 1100.65,-147.446"/>
<polygon fill="midnightblue" stroke="midnightblue" points="1104.15,-147.436 1100.82,-137.378 1097.15,-147.316 1104.15,-147.436"/>
</g>
<!-- Node21&#45;&gt;Node12 -->
<g id="edge52" class="edge"><title>Node21&#45;&gt;Node12</title>
<path fill="none" stroke="midnightblue" d="M1072.61,-116.897C1045.81,-107.362 1005.45,-92.9992 975.907,-82.4885"/>
<polygon fill="midnightblue" stroke="midnightblue" points="976.935,-79.1392 966.34,-79.0842 974.588,-85.7341 976.935,-79.1392"/>
</g>
<!-- Node23 -->
<g id="node51" class="node"><title>Node23</title>
<a xlink:href="_color_8h.html" target="_top" xlink:title="../Display/Color.h">
<polygon fill="none" stroke="black" points="654.5,-175 654.5,-195 743.5,-195 743.5,-175 654.5,-175"/>
<text text-anchor="middle" x="699" y="-182" font-family="FreeSans" font-size="10.00">../Display/Color.h</text>
</a>
</g>
<!-- Node22&#45;&gt;Node23 -->
<g id="edge56" class="edge"><title>Node22&#45;&gt;Node23</title>
<path fill="none" stroke="midnightblue" d="M710.222,-360.948C695.202,-352.33 679.409,-340.115 671,-324 650.513,-284.737 672.649,-232.011 687.619,-204.135"/>
<polygon fill="midnightblue" stroke="midnightblue" points="690.87,-205.493 692.718,-195.06 684.768,-202.064 690.87,-205.493"/>
</g>
<!-- Node26 -->
<g id="node59" class="node"><title>Node26</title>
<a xlink:href="_maze_element_8h.html" target="_top" xlink:title="../Model/MazeElement.h">
<polygon fill="none" stroke="black" points="869.5,-303 869.5,-323 988.5,-323 988.5,-303 869.5,-303"/>
<text text-anchor="middle" x="929" y="-310" font-family="FreeSans" font-size="10.00">../Model/MazeElement.h</text>
</a>
</g>
<!-- Node22&#45;&gt;Node26 -->
<g id="edge66" class="edge"><title>Node22&#45;&gt;Node26</title>
<path fill="none" stroke="midnightblue" d="M792.926,-360.85C823.164,-350.217 862.284,-336.46 890.814,-326.428"/>
<polygon fill="midnightblue" stroke="midnightblue" points="892.159,-329.665 900.431,-323.046 889.836,-323.062 892.159,-329.665"/>
</g>
<!-- Node33 -->
<g id="node80" class="node"><title>Node33</title>
<a xlink:href="_physical_collision_8h.html" target="_top" xlink:title="../Model/PhysicalCollision.h">
<polygon fill="none" stroke="black" points="680,-303 680,-323 814,-323 814,-303 680,-303"/>
<text text-anchor="middle" x="747" y="-310" font-family="FreeSans" font-size="10.00">../Model/PhysicalCollision.h</text>
</a>
</g>
<!-- Node22&#45;&gt;Node33 -->
<g id="edge94" class="edge"><title>Node22&#45;&gt;Node33</title>
<path fill="none" stroke="midnightblue" d="M747,-360.85C747,-352.518 747,-342.269 747,-333.396"/>
<polygon fill="midnightblue" stroke="midnightblue" points="750.5,-333.141 747,-323.141 743.5,-333.141 750.5,-333.141"/>
</g>
<!-- Node34 -->
<g id="node84" class="node"><title>Node34</title>
<a xlink:href="_fast_fifo_8h.html" target="_top" xlink:title="../Util/FastFifo.h">
<polygon fill="none" stroke="black" points="526,-303 526,-323 612,-323 612,-303 526,-303"/>
<text text-anchor="middle" x="569" y="-310" font-family="FreeSans" font-size="10.00">../Util/FastFifo.h</text>
</a>
</g>
<!-- Node22&#45;&gt;Node34 -->
<g id="edge100" class="edge"><title>Node22&#45;&gt;Node34</title>
<path fill="none" stroke="midnightblue" d="M702.083,-360.85C672.639,-350.264 634.583,-336.58 606.713,-326.56"/>
<polygon fill="midnightblue" stroke="midnightblue" points="607.535,-323.136 596.941,-323.046 605.167,-329.723 607.535,-323.136"/>
</g>
<!-- Node23&#45;&gt;Node12 -->
<g id="edge60" class="edge"><title>Node23&#45;&gt;Node12</title>
<path fill="none" stroke="midnightblue" d="M727.634,-174.928C751.846,-166.098 787.244,-152.445 817,-138 834.556,-129.478 838.065,-125.697 855,-116 873.74,-105.27 894.925,-93.2754 911.202,-84.0894"/>
<polygon fill="midnightblue" stroke="midnightblue" points="913.171,-86.997 920.162,-79.036 909.733,-80.8997 913.171,-86.997"/>
</g>
<!-- Node24 -->
<g id="node53" class="node"><title>Node24</title>
<polygon fill="none" stroke="#bfbfbf" points="547.5,-117 547.5,-137 636.5,-137 636.5,-117 547.5,-117"/>
<text text-anchor="middle" x="592" y="-124" font-family="FreeSans" font-size="10.00">boost/format.hpp</text>
</g>
<!-- Node23&#45;&gt;Node24 -->
<g id="edge58" class="edge"><title>Node23&#45;&gt;Node24</title>
<path fill="none" stroke="midnightblue" d="M680.362,-174.897C663.588,-165.804 638.714,-152.322 619.628,-141.976"/>
<polygon fill="midnightblue" stroke="midnightblue" points="621.243,-138.87 610.783,-137.182 617.907,-145.024 621.243,-138.87"/>
</g>
<!-- Node25 -->
<g id="node56" class="node"><title>Node25</title>
<a xlink:href="_sel_fmt_8h.html" target="_top" xlink:title="../Util/SelFmt.h">
<polygon fill="none" stroke="black" points="863.5,-117 863.5,-137 944.5,-137 944.5,-117 863.5,-117"/>
<text text-anchor="middle" x="904" y="-124" font-family="FreeSans" font-size="10.00">../Util/SelFmt.h</text>
</a>
</g>
<!-- Node23&#45;&gt;Node25 -->
<g id="edge62" class="edge"><title>Node23&#45;&gt;Node25</title>
<path fill="none" stroke="midnightblue" d="M734.708,-174.897C769.143,-165.155 821.391,-150.372 858.728,-139.809"/>
<polygon fill="midnightblue" stroke="midnightblue" points="859.688,-143.174 868.358,-137.084 857.782,-136.439 859.688,-143.174"/>
</g>
<!-- Node25&#45;&gt;Node12 -->
<g id="edge64" class="edge"><title>Node25&#45;&gt;Node12</title>
<path fill="none" stroke="midnightblue" d="M909.922,-116.897C914.546,-109.01 921.105,-97.8209 926.721,-88.2401"/>
<polygon fill="midnightblue" stroke="midnightblue" points="929.879,-89.7746 931.917,-79.3776 923.84,-86.2346 929.879,-89.7746"/>
</g>
<!-- Node26&#45;&gt;Node15 -->
<g id="edge92" class="edge"><title>Node26&#45;&gt;Node15</title>
<path fill="none" stroke="midnightblue" d="M969.754,-302.93C1008.59,-293.333 1067.94,-278.667 1114.95,-267.051"/>
<polygon fill="midnightblue" stroke="midnightblue" points="1115.92,-270.418 1124.78,-264.621 1114.24,-263.622 1115.92,-270.418"/>
</g>
<!-- Node27 -->
<g id="node61" class="node"><title>Node27</title>
<a xlink:href="_shapes_8h.html" target="_top" xlink:title="Shapes.h">
<polygon fill="none" stroke="black" points="872.5,-239 872.5,-259 929.5,-259 929.5,-239 872.5,-239"/>
<text text-anchor="middle" x="901" y="-246" font-family="FreeSans" font-size="10.00">Shapes.h</text>
</a>
</g>
<!-- Node26&#45;&gt;Node27 -->
<g id="edge68" class="edge"><title>Node26&#45;&gt;Node27</title>
<path fill="none" stroke="midnightblue" d="M924.501,-302.717C920.477,-293.519 914.47,-279.789 909.536,-268.512"/>
<polygon fill="midnightblue" stroke="midnightblue" points="912.61,-266.805 905.395,-259.046 906.197,-269.611 912.61,-266.805"/>
</g>
<!-- Node28 -->
<g id="node64" class="node"><title>Node28</title>
<a xlink:href="_contact_effect_8h.html" target="_top" xlink:title="ContactEffect.h">
<polygon fill="none" stroke="black" points="705.5,-239 705.5,-259 788.5,-259 788.5,-239 705.5,-239"/>
<text text-anchor="middle" x="747" y="-246" font-family="FreeSans" font-size="10.00">ContactEffect.h</text>
</a>
</g>
<!-- Node26&#45;&gt;Node28 -->
<g id="edge72" class="edge"><title>Node26&#45;&gt;Node28</title>
<path fill="none" stroke="midnightblue" d="M900.162,-302.859C869.144,-291.952 819.671,-274.555 785.382,-262.497"/>
<polygon fill="midnightblue" stroke="midnightblue" points="786.298,-259.109 775.704,-259.094 783.976,-265.713 786.298,-259.109"/>
</g>
<!-- Node29 -->
<g id="node67" class="node"><title>Node29</title>
<a xlink:href="_dll_object_factory_8h.html" target="_top" xlink:title="../Util/DllObjectFactory.h">
<polygon fill="none" stroke="black" points="947,-239 947,-259 1069,-259 1069,-239 947,-239"/>
<text text-anchor="middle" x="1008" y="-246" font-family="FreeSans" font-size="10.00">../Util/DllObjectFactory.h</text>
</a>
</g>
<!-- Node26&#45;&gt;Node29 -->
<g id="edge76" class="edge"><title>Node26&#45;&gt;Node29</title>
<path fill="none" stroke="midnightblue" d="M941.693,-302.717C954.089,-292.675 973.156,-277.228 987.667,-265.473"/>
<polygon fill="midnightblue" stroke="midnightblue" points="990.032,-268.061 995.599,-259.046 985.626,-262.621 990.032,-268.061"/>
</g>
<!-- Node27&#45;&gt;Node21 -->
<g id="edge70" class="edge"><title>Node27&#45;&gt;Node21</title>
<path fill="none" stroke="midnightblue" d="M917.708,-238.808C952.795,-217.405 1034.32,-167.674 1075.8,-142.375"/>
<polygon fill="midnightblue" stroke="midnightblue" points="1077.77,-145.273 1084.48,-137.077 1074.12,-139.297 1077.77,-145.273"/>
</g>
<!-- Node28&#45;&gt;Node10 -->
<g id="edge74" class="edge"><title>Node28&#45;&gt;Node10</title>
<path fill="none" stroke="midnightblue" d="M705.157,-246.937C579.821,-240.516 213.11,-219.879 165,-196 115.976,-171.667 77.6902,-117.079 59.8951,-88.0304"/>
<polygon fill="midnightblue" stroke="midnightblue" points="62.7835,-86.0401 54.6599,-79.2388 56.7691,-89.6216 62.7835,-86.0401"/>
</g>
<!-- Node29&#45;&gt;Node12 -->
<g id="edge90" class="edge"><title>Node29&#45;&gt;Node12</title>
<path fill="none" stroke="midnightblue" d="M1006.12,-238.959C1001.66,-216.278 989.244,-159.66 969,-116 964.41,-106.101 957.929,-95.8989 952.079,-87.5398"/>
<polygon fill="midnightblue" stroke="midnightblue" points="954.802,-85.3336 946.097,-79.2943 949.136,-89.444 954.802,-85.3336"/>
</g>
<!-- Node30 -->
<g id="node69" class="node"><title>Node30</title>
<a xlink:href="_obj_stream_8h.html" target="_top" xlink:title="../Parcel/ObjStream.h">
<polygon fill="none" stroke="black" points="345.5,-175 345.5,-195 454.5,-195 454.5,-175 345.5,-175"/>
<text text-anchor="middle" x="400" y="-182" font-family="FreeSans" font-size="10.00">../Parcel/ObjStream.h</text>
</a>
</g>
<!-- Node29&#45;&gt;Node30 -->
<g id="edge78" class="edge"><title>Node29&#45;&gt;Node30</title>
<path fill="none" stroke="midnightblue" d="M971.159,-238.948C960.525,-236.348 948.86,-233.783 938,-232 768.495,-204.177 566.061,-192.106 464.643,-187.49"/>
<polygon fill="midnightblue" stroke="midnightblue" points="464.703,-183.99 454.557,-187.041 464.391,-190.983 464.703,-183.99"/>
</g>
<!-- Node30&#45;&gt;Node5 -->
<g id="edge80" class="edge"><title>Node30&#45;&gt;Node5</title>
<path fill="none" stroke="midnightblue" d="M375.176,-174.832C359.998,-167.158 341.85,-155.018 333,-138 325.131,-122.868 327.824,-103.321 331.791,-88.8979"/>
<polygon fill="midnightblue" stroke="midnightblue" points="335.235,-89.6149 334.918,-79.0248 328.562,-87.5009 335.235,-89.6149"/>
</g>
<!-- Node30&#45;&gt;Node7 -->
<g id="edge88" class="edge"><title>Node30&#45;&gt;Node7</title>
<path fill="none" stroke="midnightblue" d="M370.214,-174.897C338.749,-164.225 289.453,-147.505 258.208,-136.907"/>
<polygon fill="midnightblue" stroke="midnightblue" points="258.95,-133.463 248.356,-133.565 256.702,-140.092 258.95,-133.463"/>
</g>
<!-- Node30&#45;&gt;Node12 -->
<g id="edge86" class="edge"><title>Node30&#45;&gt;Node12</title>
<path fill="none" stroke="midnightblue" d="M406.486,-174.865C417.168,-159.157 440.083,-129.354 468,-116 542.291,-80.4624 789.323,-71.7574 892.307,-69.6561"/>
<polygon fill="midnightblue" stroke="midnightblue" points="892.464,-73.1538 902.395,-69.4621 892.329,-66.1551 892.464,-73.1538"/>
</g>
<!-- Node31 -->
<g id="node72" class="node"><title>Node31</title>
<a xlink:href="_exception_8h.html" target="_top" xlink:title="../Exception.h">
<polygon fill="none" stroke="black" points="342,-117 342,-137 416,-137 416,-117 342,-117"/>
<text text-anchor="middle" x="379" y="-124" font-family="FreeSans" font-size="10.00">../Exception.h</text>
</a>
</g>
<!-- Node30&#45;&gt;Node31 -->
<g id="edge82" class="edge"><title>Node30&#45;&gt;Node31</title>
<path fill="none" stroke="midnightblue" d="M396.342,-174.897C393.546,-167.175 389.603,-156.286 386.184,-146.841"/>
<polygon fill="midnightblue" stroke="midnightblue" points="389.453,-145.589 382.757,-137.378 382.871,-147.972 389.453,-145.589"/>
</g>
<!-- Node32 -->
<g id="node74" class="node"><title>Node32</title>
<polygon fill="none" stroke="#bfbfbf" points="377,-59 377,-79 435,-79 435,-59 377,-59"/>
<text text-anchor="middle" x="406" y="-66" font-family="FreeSans" font-size="10.00">exception</text>
</g>
<!-- Node31&#45;&gt;Node32 -->
<g id="edge84" class="edge"><title>Node31&#45;&gt;Node32</title>
<path fill="none" stroke="midnightblue" d="M383.703,-116.897C387.336,-109.093 392.475,-98.0536 396.904,-88.5401"/>
<polygon fill="midnightblue" stroke="midnightblue" points="400.122,-89.9206 401.169,-79.3776 393.776,-86.9663 400.122,-89.9206"/>
</g>
<!-- Node33&#45;&gt;Node27 -->
<g id="edge98" class="edge"><title>Node33&#45;&gt;Node27</title>
<path fill="none" stroke="midnightblue" d="M771.402,-302.859C797.309,-292.092 838.434,-275.001 867.396,-262.965"/>
<polygon fill="midnightblue" stroke="midnightblue" points="868.821,-266.163 876.712,-259.094 866.135,-259.699 868.821,-266.163"/>
</g>
<!-- Node33&#45;&gt;Node28 -->
<g id="edge96" class="edge"><title>Node33&#45;&gt;Node28</title>
<path fill="none" stroke="midnightblue" d="M747,-302.717C747,-293.707 747,-280.347 747,-269.205"/>
<polygon fill="midnightblue" stroke="midnightblue" points="750.5,-269.046 747,-259.046 743.5,-269.046 750.5,-269.046"/>
</g>
<!-- Node34&#45;&gt;Node12 -->
<g id="edge102" class="edge"><title>Node34&#45;&gt;Node12</title>
<path fill="none" stroke="midnightblue" d="M562.601,-302.854C543.32,-270.878 490.037,-171.069 539,-116 562.164,-89.947 792.495,-75.9215 892.289,-71.0272"/>
<polygon fill="midnightblue" stroke="midnightblue" points="892.558,-74.5184 902.378,-70.5418 892.222,-67.5265 892.558,-74.5184"/>
</g>
<!-- Node36 -->
<g id="node89" class="node"><title>Node36</title>
<a xlink:href="_resource_lib_8h.html" target="_top" xlink:title="ResourceLib.h">
<polygon fill="none" stroke="black" points="845.5,-431 845.5,-451 924.5,-451 924.5,-431 845.5,-431"/>
<text text-anchor="middle" x="885" y="-438" font-family="FreeSans" font-size="10.00">ResourceLib.h</text>
</a>
</g>
<!-- Node35&#45;&gt;Node36 -->
<g id="edge106" class="edge"><title>Node35&#45;&gt;Node36</title>
<path fill="none" stroke="midnightblue" d="M879.766,-488.85C880.688,-480.426 881.824,-470.041 882.802,-461.1"/>
<polygon fill="midnightblue" stroke="midnightblue" points="886.283,-461.462 883.891,-451.141 879.324,-460.701 886.283,-461.462"/>
</g>
<!-- Node36&#45;&gt;Node7 -->
<g id="edge110" class="edge"><title>Node36&#45;&gt;Node7</title>
<path fill="none" stroke="midnightblue" d="M845.13,-436.266C716.068,-420.409 318,-367.115 318,-313 318,-313 318,-313 318,-249 318,-214.614 318.806,-202.109 299,-174 288.556,-159.178 271.831,-147.696 257.348,-139.792"/>
<polygon fill="midnightblue" stroke="midnightblue" points="258.737,-136.571 248.243,-135.115 255.539,-142.797 258.737,-136.571"/>
</g>
<!-- Node37 -->
<g id="node91" class="node"><title>Node37</title>
<polygon fill="none" stroke="#bfbfbf" points="869.5,-367 869.5,-387 904.5,-387 904.5,-367 869.5,-367"/>
<text text-anchor="middle" x="887" y="-374" font-family="FreeSans" font-size="10.00">map</text>
</g>
<!-- Node36&#45;&gt;Node37 -->
<g id="edge108" class="edge"><title>Node36&#45;&gt;Node37</title>
<path fill="none" stroke="midnightblue" d="M885.321,-430.717C885.603,-421.707 886.02,-408.347 886.369,-397.205"/>
<polygon fill="midnightblue" stroke="midnightblue" points="889.872,-397.151 886.686,-387.046 882.875,-396.932 889.872,-397.151"/>
</g>
<!-- Node38 -->
<g id="node94" class="node"><title>Node38</title>
<a xlink:href="_res_actor_8h.html" target="_top" xlink:title="ResActor.h">
<polygon fill="none" stroke="black" points="1145.5,-303 1145.5,-323 1210.5,-323 1210.5,-303 1145.5,-303"/>
<text text-anchor="middle" x="1178" y="-310" font-family="FreeSans" font-size="10.00">ResActor.h</text>
</a>
</g>
<!-- Node36&#45;&gt;Node38 -->
<g id="edge112" class="edge"><title>Node36&#45;&gt;Node38</title>
<path fill="none" stroke="midnightblue" d="M924.533,-433.48C959.342,-426.039 1010.9,-412.997 1053,-394 1092.26,-376.286 1133.34,-347.338 1157.26,-329.27"/>
<polygon fill="midnightblue" stroke="midnightblue" points="1159.45,-332.004 1165.26,-323.147 1155.19,-326.445 1159.45,-332.004"/>
</g>
<!-- Node40 -->
<g id="node100" class="node"><title>Node40</title>
<a xlink:href="_res_sprite_8h.html" target="_top" xlink:title="ResSprite.h">
<polygon fill="none" stroke="black" points="977.5,-367 977.5,-387 1044.5,-387 1044.5,-367 977.5,-367"/>
<text text-anchor="middle" x="1011" y="-374" font-family="FreeSans" font-size="10.00">ResSprite.h</text>
</a>
</g>
<!-- Node36&#45;&gt;Node40 -->
<g id="edge120" class="edge"><title>Node36&#45;&gt;Node40</title>
<path fill="none" stroke="midnightblue" d="M904.965,-430.859C925.701,-420.326 958.353,-403.742 981.947,-391.757"/>
<polygon fill="midnightblue" stroke="midnightblue" points="983.798,-394.743 991.128,-387.094 980.627,-388.502 983.798,-394.743"/>
</g>
<!-- Node42 -->
<g id="node106" class="node"><title>Node42</title>
<a xlink:href="_res_sound_8h.html" target="_top" xlink:title="ResSound.h">
<polygon fill="none" stroke="black" points="807.5,-175 807.5,-195 876.5,-195 876.5,-175 807.5,-175"/>
<text text-anchor="middle" x="842" y="-182" font-family="FreeSans" font-size="10.00">ResSound.h</text>
</a>
</g>
<!-- Node36&#45;&gt;Node42 -->
<g id="edge128" class="edge"><title>Node36&#45;&gt;Node42</title>
<path fill="none" stroke="midnightblue" d="M878.25,-430.656C872.603,-421.439 864.867,-407.379 861,-394 841.653,-327.071 840.608,-243.519 841.318,-205.519"/>
<polygon fill="midnightblue" stroke="midnightblue" points="844.823,-205.342 841.576,-195.257 837.825,-205.166 844.823,-205.342"/>
</g>
<!-- Node38&#45;&gt;Node15 -->
<g id="edge118" class="edge"><title>Node38&#45;&gt;Node15</title>
<path fill="none" stroke="midnightblue" d="M1179.61,-302.717C1180.77,-295.244 1182.41,-284.779 1183.93,-275.068"/>
<polygon fill="midnightblue" stroke="midnightblue" points="1187.41,-275.426 1185.5,-265.005 1180.5,-274.345 1187.41,-275.426"/>
</g>
<!-- Node39 -->
<g id="node96" class="node"><title>Node39</title>
<a xlink:href="_res_bitmap_8h.html" target="_top" xlink:title="ResBitmap.h">
<polygon fill="none" stroke="black" points="1293,-239 1293,-259 1365,-259 1365,-239 1293,-239"/>
<text text-anchor="middle" x="1329" y="-246" font-family="FreeSans" font-size="10.00">ResBitmap.h</text>
</a>
</g>
<!-- Node38&#45;&gt;Node39 -->
<g id="edge114" class="edge"><title>Node38&#45;&gt;Node39</title>
<path fill="none" stroke="midnightblue" d="M1201.93,-302.859C1227.22,-292.139 1267.3,-275.15 1295.68,-263.122"/>
<polygon fill="midnightblue" stroke="midnightblue" points="1297.34,-266.218 1305.19,-259.094 1294.61,-259.773 1297.34,-266.218"/>
</g>
<!-- Node39&#45;&gt;Node19 -->
<g id="edge116" class="edge"><title>Node39&#45;&gt;Node19</title>
<path fill="none" stroke="midnightblue" d="M1333.34,-238.717C1337.22,-229.519 1343.01,-215.789 1347.77,-204.512"/>
<polygon fill="midnightblue" stroke="midnightblue" points="1351.1,-205.62 1351.76,-195.046 1344.65,-202.899 1351.1,-205.62"/>
</g>
<!-- Node41 -->
<g id="node102" class="node"><title>Node41</title>
<a xlink:href="_sprite_8h.html" target="_top" xlink:title="../VideoServices/Sprite.h">
<polygon fill="none" stroke="black" points="1005.5,-303 1005.5,-323 1128.5,-323 1128.5,-303 1005.5,-303"/>
<text text-anchor="middle" x="1067" y="-310" font-family="FreeSans" font-size="10.00">../VideoServices/Sprite.h</text>
</a>
</g>
<!-- Node40&#45;&gt;Node41 -->
<g id="edge122" class="edge"><title>Node40&#45;&gt;Node41</title>
<path fill="none" stroke="midnightblue" d="M1020,-366.717C1028.46,-357.05 1041.3,-342.376 1051.42,-330.806"/>
<polygon fill="midnightblue" stroke="midnightblue" points="1054.26,-332.877 1058.21,-323.046 1048.99,-328.267 1054.26,-332.877"/>
</g>
<!-- Node41&#45;&gt;Node16 -->
<g id="edge124" class="edge"><title>Node41&#45;&gt;Node16</title>
<path fill="none" stroke="midnightblue" d="M1071.48,-302.943C1079.03,-286.747 1095.48,-254.439 1116,-232 1127,-219.966 1141.5,-209.018 1153.92,-200.722"/>
<polygon fill="midnightblue" stroke="midnightblue" points="1156.01,-203.538 1162.51,-195.172 1152.21,-197.658 1156.01,-203.538"/>
</g>
<!-- Node41&#45;&gt;Node29 -->
<g id="edge126" class="edge"><title>Node41&#45;&gt;Node29</title>
<path fill="none" stroke="midnightblue" d="M1057.52,-302.717C1048.52,-292.956 1034.82,-278.09 1024.11,-266.47"/>
<polygon fill="midnightblue" stroke="midnightblue" points="1026.61,-264.026 1017.26,-259.046 1021.47,-268.771 1026.61,-264.026"/>
</g>
<!-- Node42&#45;&gt;Node12 -->
<g id="edge134" class="edge"><title>Node42&#45;&gt;Node12</title>
<path fill="none" stroke="midnightblue" d="M876.523,-180.532C902.395,-175.176 936.125,-163.471 953,-138 962.792,-123.22 956.733,-103.118 949.607,-88.4238"/>
<polygon fill="midnightblue" stroke="midnightblue" points="952.496,-86.4054 944.685,-79.2471 946.328,-89.7139 952.496,-86.4054"/>
</g>
<!-- Node43 -->
<g id="node108" class="node"><title>Node43</title>
<a xlink:href="_sound_server_8h.html" target="_top" xlink:title="../VideoServices/SoundServer.h">
<polygon fill="none" stroke="black" points="654,-117 654,-137 808,-137 808,-117 654,-117"/>
<text text-anchor="middle" x="731" y="-124" font-family="FreeSans" font-size="10.00">../VideoServices/SoundServer.h</text>
</a>
</g>
<!-- Node42&#45;&gt;Node43 -->
<g id="edge130" class="edge"><title>Node42&#45;&gt;Node43</title>
<path fill="none" stroke="midnightblue" d="M822.665,-174.897C805.185,-165.763 779.226,-152.199 759.391,-141.835"/>
<polygon fill="midnightblue" stroke="midnightblue" points="760.97,-138.711 750.486,-137.182 757.728,-144.915 760.97,-138.711"/>
</g>
<!-- Node43&#45;&gt;Node5 -->
<g id="edge132" class="edge"><title>Node43&#45;&gt;Node5</title>
<path fill="none" stroke="midnightblue" d="M653.612,-117.093C559.999,-105.095 410.549,-85.8902 369.713,-79.3644"/>
<polygon fill="midnightblue" stroke="midnightblue" points="370.191,-75.8937 359.722,-77.5256 368.924,-82.778 370.191,-75.8937"/>
</g>
<!-- Node46 -->
<g id="node116" class="node"><title>Node46</title>
<polygon fill="none" stroke="#bfbfbf" points="543.5,-495 543.5,-515 638.5,-515 638.5,-495 543.5,-495"/>
<text text-anchor="middle" x="591" y="-502" font-family="FreeSans" font-size="10.00">luabind/object.hpp</text>
</g>
<!-- Node45&#45;&gt;Node46 -->
<g id="edge140" class="edge"><title>Node45&#45;&gt;Node46</title>
<path fill="none" stroke="midnightblue" d="M527.211,-558.717C539.025,-548.768 557.136,-533.517 571.046,-521.803"/>
<polygon fill="midnightblue" stroke="midnightblue" points="573.676,-524.165 579.07,-515.046 569.167,-518.81 573.676,-524.165"/>
</g>
<!-- Node47 -->
<g id="node118" class="node"><title>Node47</title>
<a xlink:href="_game_options_8h.html" target="_top" xlink:title="../../engine/Model\l/GameOptions.h">
<polygon fill="none" stroke="black" points="437.5,-489 437.5,-521 526.5,-521 526.5,-489 437.5,-489"/>
<text text-anchor="start" x="445.5" y="-508" font-family="FreeSans" font-size="10.00">../../engine/Model</text>
<text text-anchor="middle" x="482" y="-496" font-family="FreeSans" font-size="10.00">/GameOptions.h</text>
</a>
</g>
<!-- Node45&#45;&gt;Node47 -->
<g id="edge142" class="edge"><title>Node45&#45;&gt;Node47</title>
<path fill="none" stroke="midnightblue" d="M509.698,-558.717C505.722,-551.006 500.102,-540.108 494.963,-530.141"/>
<polygon fill="midnightblue" stroke="midnightblue" points="497.947,-528.289 490.253,-521.005 491.725,-531.497 497.947,-528.289"/>
</g>
<!-- Node47&#45;&gt;Node12 -->
<g id="edge146" class="edge"><title>Node47&#45;&gt;Node12</title>
<path fill="none" stroke="midnightblue" d="M482,-488.835C482,-464.554 482,-417.222 482,-377 482,-377 482,-377 482,-185 482,-149.553 492.33,-135.395 522,-116 552.48,-96.0752 790.181,-78.5428 891.98,-71.8678"/>
<polygon fill="midnightblue" stroke="midnightblue" points="892.51,-75.3408 902.262,-71.2003 892.056,-68.3555 892.51,-75.3408"/>
</g>
<!-- Node48 -->
<g id="node120" class="node"><title>Node48</title>
<polygon fill="none" stroke="#bfbfbf" points="509.5,-431 509.5,-451 550.5,-451 550.5,-431 509.5,-431"/>
<text text-anchor="middle" x="530" y="-438" font-family="FreeSans" font-size="10.00">bitset</text>
</g>
<!-- Node47&#45;&gt;Node48 -->
<g id="edge144" class="edge"><title>Node47&#45;&gt;Node48</title>
<path fill="none" stroke="midnightblue" d="M494.112,-488.85C500.847,-479.87 509.253,-468.663 516.236,-459.352"/>
<polygon fill="midnightblue" stroke="midnightblue" points="519.194,-461.241 522.394,-451.141 513.594,-457.041 519.194,-461.241"/>
</g>
<!-- Node50 -->
<g id="node125" class="node"><title>Node50</title>
<a xlink:href="_scene_8h.html" target="_top" xlink:title="Scene.h">
<polygon fill="none" stroke="black" points="120,-495 120,-515 172,-515 172,-495 120,-495"/>
<text text-anchor="middle" x="146" y="-502" font-family="FreeSans" font-size="10.00">Scene.h</text>
</a>
</g>
<!-- Node49&#45;&gt;Node50 -->
<g id="edge150" class="edge"><title>Node49&#45;&gt;Node50</title>
<path fill="none" stroke="midnightblue" d="M177.055,-558.717C171.629,-549.332 163.475,-535.226 156.883,-523.825"/>
<polygon fill="midnightblue" stroke="midnightblue" points="159.843,-521.952 151.808,-515.046 153.783,-525.455 159.843,-521.952"/>
</g>
<!-- Node50&#45;&gt;Node7 -->
<g id="edge152" class="edge"><title>Node50&#45;&gt;Node7</title>
<path fill="none" stroke="midnightblue" d="M146,-494.713C146,-472.978 146,-420.778 146,-377 146,-377 146,-377 146,-249 146,-214.614 145.791,-202.52 165,-174 174.048,-160.567 188.27,-149.565 201.012,-141.591"/>
<polygon fill="midnightblue" stroke="midnightblue" points="203.098,-144.424 209.933,-136.329 199.542,-138.395 203.098,-144.424"/>
</g>
<!-- Node51 -->
<g id="node128" class="node"><title>Node51</title>
<a xlink:href="_profiler_8h.html" target="_top" xlink:title="../../engine/Util/Profiler.h">
<polygon fill="none" stroke="black" points="-0.5,-431 -0.5,-451 118.5,-451 118.5,-431 -0.5,-431"/>
<text text-anchor="middle" x="59" y="-438" font-family="FreeSans" font-size="10.00">../../engine/Util/Profiler.h</text>
</a>
</g>
<!-- Node50&#45;&gt;Node51 -->
<g id="edge154" class="edge"><title>Node50&#45;&gt;Node51</title>
<path fill="none" stroke="midnightblue" d="M132.022,-494.717C118.242,-484.581 96.9799,-468.939 80.9458,-457.144"/>
<polygon fill="midnightblue" stroke="midnightblue" points="82.7858,-454.153 72.6565,-451.046 78.6378,-459.791 82.7858,-454.153"/>
</g>
<!-- Node52 -->
<g id="node130" class="node"><title>Node52</title>
<polygon fill="none" stroke="#bfbfbf" points="36,-367 36,-387 82,-387 82,-367 36,-367"/>
<text text-anchor="middle" x="59" y="-374" font-family="FreeSans" font-size="10.00">chrono</text>
</g>
<!-- Node51&#45;&gt;Node52 -->
<g id="edge156" class="edge"><title>Node51&#45;&gt;Node52</title>
<path fill="none" stroke="midnightblue" d="M59,-430.717C59,-421.707 59,-408.347 59,-397.205"/>
<polygon fill="midnightblue" stroke="midnightblue" points="62.5001,-397.046 59,-387.046 55.5001,-397.046 62.5001,-397.046"/>
</g>
</g>
</svg>
