<?xml version="1.0" encoding="UTF-8" standalone="no"?>
<!DOCTYPE svg PUBLIC "-//W3C//DTD SVG 1.1//EN"
 "http://www.w3.org/Graphics/SVG/1.1/DTD/svg11.dtd">
<!-- Generated by graphviz version 2.26.3 (20100126.1600)
 -->
<!-- Title: PlayerBar.cpp Pages: 1 -->
<!--zoomable 692 -->
<svg id="main" version="1.1" xmlns="http://www.w3.org/2000/svg" xmlns:xlink="http://www.w3.org/1999/xlink" xml:space="preserve" onload="init(evt)">
<style type="text/css"><![CDATA[
.edge:hover path { stroke: red; }
.edge:hover polygon { stroke: red; fill: red; }
]]></style>
<script type="text/javascript"><![CDATA[
var edges = document.getElementsByTagName('g');
if (edges && edges.length) {
  for (var i=0;i<edges.length;i++) {
    if (edges[i].id.substr(0,4)=='edge') {
      edges[i].setAttribute('class','edge');
    }
  }
}
]]></script>
        <defs>
                <circle id="rim" cx="0" cy="0" r="7"/>
                <circle id="rim2" cx="0" cy="0" r="3.5"/>
                <g id="zoomPlus">
                        <use xlink:href="#rim" fill="#404040">
                                <set attributeName="fill" to="#808080" begin="zoomplus.mouseover" end="zoomplus.mouseout"/>
                        </use>
                        <path d="M-4,0h8M0,-4v8" fill="none" stroke="white" stroke-width="1.5" pointer-events="none"/>
                </g>
                <g id="zoomMin">
                        <use xlink:href="#rim" fill="#404040">
                                <set attributeName="fill" to="#808080" begin="zoomminus.mouseover" end="zoomminus.mouseout"/>
                        </use>
                        <path d="M-4,0h8" fill="none" stroke="white" stroke-width="1.5" pointer-events="none"/>
                </g>
                <g id="dirArrow">
                        <path fill="none" stroke="white" stroke-width="1.5" d="M0,-3.0v7 M-2.5,-0.5L0,-3.0L2.5,-0.5"/>
                </g>
               <g id="resetDef">
                       <use xlink:href="#rim2" fill="#404040">
                               <set attributeName="fill" to="#808080" begin="reset.mouseover" end="reset.mouseout"/>
                       </use>
               </g>
        </defs>

<script type="text/javascript">
var viewWidth = 785;
var viewHeight = 692;
var sectionId = 'dynsection-0';
</script>
<script xlink:href="svgpan.js"/>
<svg id="graph" class="graph">
<g id="viewport">
<title>PlayerBar.cpp</title>
<!-- Node1 -->
<g id="node1" class="node"><title>Node1</title>
<polygon fill="#bfbfbf" stroke="black" points="233.5,-663 233.5,-683 310.5,-683 310.5,-663 233.5,-663"/>
<text text-anchor="middle" x="272" y="-670" font-family="FreeSans" font-size="10.00">PlayerBar.cpp</text>
</g>
<!-- Node2 -->
<g id="node3" class="node"><title>Node2</title>
<polygon fill="none" stroke="#bfbfbf" points="0,-593 0,-625 90,-625 90,-593 0,-593"/>
<text text-anchor="start" x="8" y="-612" font-family="FreeSans" font-size="10.00">../../engine/Player</text>
<text text-anchor="middle" x="45" y="-600" font-family="FreeSans" font-size="10.00">/Player.h</text>
</g>
<!-- Node1&#45;&gt;Node2 -->
<g id="edge2" class="edge"><title>Node1&#45;&gt;Node2</title>
<path fill="none" stroke="midnightblue" d="M233.398,-662.983C200.316,-654.293 151.174,-641.137 99.6797,-626.146"/>
<polygon fill="midnightblue" stroke="midnightblue" points="100.621,-622.775 90.0405,-623.326 98.6555,-629.493 100.621,-622.775"/>
</g>
<!-- Node3 -->
<g id="node5" class="node"><title>Node3</title>
<a xlink:href="_log_8h.html" target="_top" xlink:title="../../engine/Util/Log.h">
<polygon fill="none" stroke="black" points="107.5,-599 107.5,-619 212.5,-619 212.5,-599 107.5,-599"/>
<text text-anchor="middle" x="160" y="-606" font-family="FreeSans" font-size="10.00">../../engine/Util/Log.h</text>
</a>
</g>
<!-- Node1&#45;&gt;Node3 -->
<g id="edge4" class="edge"><title>Node1&#45;&gt;Node3</title>
<path fill="none" stroke="midnightblue" d="M254.005,-662.717C235.691,-652.252 207.109,-635.92 186.267,-624.01"/>
<polygon fill="midnightblue" stroke="midnightblue" points="188,-620.969 177.581,-619.046 184.527,-627.046 188,-620.969"/>
</g>
<!-- Node5 -->
<g id="node9" class="node"><title>Node5</title>
<a xlink:href="_game_director_8h.html" target="_top" xlink:title="GameDirector.h">
<polygon fill="none" stroke="black" points="230,-599 230,-619 314,-619 314,-599 230,-599"/>
<text text-anchor="middle" x="272" y="-606" font-family="FreeSans" font-size="10.00">GameDirector.h</text>
</a>
</g>
<!-- Node1&#45;&gt;Node5 -->
<g id="edge8" class="edge"><title>Node1&#45;&gt;Node5</title>
<path fill="none" stroke="midnightblue" d="M272,-662.717C272,-653.707 272,-640.347 272,-629.205"/>
<polygon fill="midnightblue" stroke="midnightblue" points="275.5,-629.046 272,-619.046 268.5,-629.046 275.5,-629.046"/>
</g>
<!-- Node6 -->
<g id="node11" class="node"><title>Node6</title>
<a xlink:href="_roster_8h.html" target="_top" xlink:title="Roster.h">
<polygon fill="none" stroke="black" points="331.5,-599 331.5,-619 384.5,-619 384.5,-599 331.5,-599"/>
<text text-anchor="middle" x="358" y="-606" font-family="FreeSans" font-size="10.00">Roster.h</text>
</a>
</g>
<!-- Node1&#45;&gt;Node6 -->
<g id="edge10" class="edge"><title>Node1&#45;&gt;Node6</title>
<path fill="none" stroke="midnightblue" d="M285.817,-662.717C299.438,-652.581 320.457,-636.939 336.306,-625.144"/>
<polygon fill="midnightblue" stroke="midnightblue" points="338.568,-627.824 344.5,-619.046 334.389,-622.209 338.568,-627.824"/>
</g>
<!-- Node7 -->
<g id="node13" class="node"><title>Node7</title>
<a xlink:href="_player_bar_8h.html" target="_top" xlink:title="PlayerBar.h">
<polygon fill="none" stroke="black" points="402,-599 402,-619 468,-619 468,-599 402,-599"/>
<text text-anchor="middle" x="435" y="-606" font-family="FreeSans" font-size="10.00">PlayerBar.h</text>
</a>
</g>
<!-- Node1&#45;&gt;Node7 -->
<g id="edge12" class="edge"><title>Node1&#45;&gt;Node7</title>
<path fill="none" stroke="midnightblue" d="M298.479,-662.838C323.021,-653.391 360.529,-638.877 393,-626 395.518,-625.001 398.119,-623.964 400.734,-622.916"/>
<polygon fill="midnightblue" stroke="midnightblue" points="402.18,-626.107 410.15,-619.126 399.566,-619.613 402.18,-626.107"/>
</g>
<!-- Node4 -->
<g id="node7" class="node"><title>Node4</title>
<polygon fill="none" stroke="#bfbfbf" points="109.5,-529 109.5,-549 210.5,-549 210.5,-529 109.5,-529"/>
<text text-anchor="middle" x="160" y="-536" font-family="FreeSans" font-size="10.00">boost/log/trivial.hpp</text>
</g>
<!-- Node3&#45;&gt;Node4 -->
<g id="edge6" class="edge"><title>Node3&#45;&gt;Node4</title>
<path fill="none" stroke="midnightblue" d="M160,-598.971C160,-588.679 160,-572.375 160,-559.364"/>
<polygon fill="midnightblue" stroke="midnightblue" points="163.5,-559.011 160,-549.011 156.5,-559.011 163.5,-559.011"/>
</g>
<!-- Node8 -->
<g id="node15" class="node"><title>Node8</title>
<a xlink:href="_container_8h.html" target="_top" xlink:title="../../engine/Display\l/Container.h">
<polygon fill="none" stroke="black" points="387.5,-523 387.5,-555 482.5,-555 482.5,-523 387.5,-523"/>
<text text-anchor="start" x="395.5" y="-542" font-family="FreeSans" font-size="10.00">../../engine/Display</text>
<text text-anchor="middle" x="435" y="-530" font-family="FreeSans" font-size="10.00">/Container.h</text>
</a>
</g>
<!-- Node7&#45;&gt;Node8 -->
<g id="edge14" class="edge"><title>Node7&#45;&gt;Node8</title>
<path fill="none" stroke="midnightblue" d="M435,-598.971C435,-590.23 435,-577.153 435,-565.439"/>
<polygon fill="midnightblue" stroke="midnightblue" points="438.5,-565.228 435,-555.228 431.5,-565.229 438.5,-565.228"/>
</g>
<!-- Node9 -->
<g id="node17" class="node"><title>Node9</title>
<a xlink:href="_base_container_8h.html" target="_top" xlink:title="BaseContainer.h">
<polygon fill="none" stroke="black" points="391,-465 391,-485 479,-485 479,-465 391,-465"/>
<text text-anchor="middle" x="435" y="-472" font-family="FreeSans" font-size="10.00">BaseContainer.h</text>
</a>
</g>
<!-- Node8&#45;&gt;Node9 -->
<g id="edge16" class="edge"><title>Node8&#45;&gt;Node9</title>
<path fill="none" stroke="midnightblue" d="M435,-522.85C435,-514.518 435,-504.269 435,-495.396"/>
<polygon fill="midnightblue" stroke="midnightblue" points="438.5,-495.141 435,-485.141 431.5,-495.141 438.5,-495.141"/>
</g>
<!-- Node10 -->
<g id="node19" class="node"><title>Node10</title>
<a xlink:href="_ui_view_model_8h.html" target="_top" xlink:title="UiViewModel.h">
<polygon fill="none" stroke="black" points="394,-407 394,-427 476,-427 476,-407 394,-407"/>
<text text-anchor="middle" x="435" y="-414" font-family="FreeSans" font-size="10.00">UiViewModel.h</text>
</a>
</g>
<!-- Node9&#45;&gt;Node10 -->
<g id="edge18" class="edge"><title>Node9&#45;&gt;Node10</title>
<path fill="none" stroke="midnightblue" d="M435,-464.897C435,-457.339 435,-446.748 435,-437.446"/>
<polygon fill="midnightblue" stroke="midnightblue" points="438.5,-437.378 435,-427.378 431.5,-437.378 438.5,-437.378"/>
</g>
<!-- Node11 -->
<g id="node21" class="node"><title>Node11</title>
<a xlink:href="_nav_8h.html" target="_top" xlink:title="../Control/Nav.h">
<polygon fill="none" stroke="black" points="253.5,-349 253.5,-369 336.5,-369 336.5,-349 253.5,-349"/>
<text text-anchor="middle" x="295" y="-356" font-family="FreeSans" font-size="10.00">../Control/Nav.h</text>
</a>
</g>
<!-- Node10&#45;&gt;Node11 -->
<g id="edge20" class="edge"><title>Node10&#45;&gt;Node11</title>
<path fill="none" stroke="midnightblue" d="M410.614,-406.897C388.067,-397.556 354.338,-383.583 329.122,-373.136"/>
<polygon fill="midnightblue" stroke="midnightblue" points="330.155,-369.776 319.576,-369.182 327.475,-376.243 330.155,-369.776"/>
</g>
<!-- Node12 -->
<g id="node23" class="node"><title>Node12</title>
<a xlink:href="_m_r___types_8h.html" target="_top" xlink:title="../Util/MR_Types.h">
<polygon fill="none" stroke="black" points="466,-59 466,-79 562,-79 562,-59 466,-59"/>
<text text-anchor="middle" x="514" y="-66" font-family="FreeSans" font-size="10.00">../Util/MR_Types.h</text>
</a>
</g>
<!-- Node10&#45;&gt;Node12 -->
<g id="edge22" class="edge"><title>Node10&#45;&gt;Node12</title>
<path fill="none" stroke="midnightblue" d="M423.276,-406.791C403.11,-388.03 364,-345.862 364,-301 364,-301 364,-301 364,-185 364,-131.174 425.187,-98.7855 469.404,-82.4072"/>
<polygon fill="midnightblue" stroke="midnightblue" points="470.58,-85.7036 478.832,-79.0583 468.237,-79.1074 470.58,-85.7036"/>
</g>
<!-- Node14 -->
<g id="node27" class="node"><title>Node14</title>
<a xlink:href="_vec_8h.html" target="_top" xlink:title="../Vec.h">
<polygon fill="none" stroke="black" points="500.5,-175 500.5,-195 549.5,-195 549.5,-175 500.5,-175"/>
<text text-anchor="middle" x="525" y="-182" font-family="FreeSans" font-size="10.00">../Vec.h</text>
</a>
</g>
<!-- Node10&#45;&gt;Node14 -->
<g id="edge26" class="edge"><title>Node10&#45;&gt;Node14</title>
<path fill="none" stroke="midnightblue" d="M438.983,-406.732C452.836,-371.023 499.062,-251.862 517.405,-204.577"/>
<polygon fill="midnightblue" stroke="midnightblue" points="520.709,-205.738 521.063,-195.15 514.183,-203.207 520.709,-205.738"/>
</g>
<!-- Node15 -->
<g id="node29" class="node"><title>Node15</title>
<a xlink:href="_ui_layout_flags_8h.html" target="_top" xlink:title="UiLayoutFlags.h">
<polygon fill="none" stroke="black" points="391.5,-233 391.5,-253 478.5,-253 478.5,-233 391.5,-233"/>
<text text-anchor="middle" x="435" y="-240" font-family="FreeSans" font-size="10.00">UiLayoutFlags.h</text>
</a>
</g>
<!-- Node10&#45;&gt;Node15 -->
<g id="edge28" class="edge"><title>Node10&#45;&gt;Node15</title>
<path fill="none" stroke="midnightblue" d="M435,-406.893C435,-379.023 435,-300.675 435,-263.313"/>
<polygon fill="midnightblue" stroke="midnightblue" points="438.5,-263.135 435,-253.135 431.5,-263.135 438.5,-263.135"/>
</g>
<!-- Node16 -->
<g id="node32" class="node"><title>Node16</title>
<a xlink:href="_view_model_8h.html" target="_top" xlink:title="ViewModel.h">
<polygon fill="none" stroke="black" points="575,-349 575,-369 647,-369 647,-349 575,-349"/>
<text text-anchor="middle" x="611" y="-356" font-family="FreeSans" font-size="10.00">ViewModel.h</text>
</a>
</g>
<!-- Node10&#45;&gt;Node16 -->
<g id="edge32" class="edge"><title>Node10&#45;&gt;Node16</title>
<path fill="none" stroke="midnightblue" d="M465.657,-406.897C494.843,-397.279 538.934,-382.749 570.899,-372.215"/>
<polygon fill="midnightblue" stroke="midnightblue" points="571.998,-375.538 580.4,-369.084 569.807,-368.89 571.998,-375.538"/>
</g>
<!-- Node13 -->
<g id="node25" class="node"><title>Node13</title>
<polygon fill="none" stroke="#bfbfbf" points="485,-1 485,-21 543,-21 543,-1 485,-1"/>
<text text-anchor="middle" x="514" y="-8" font-family="FreeSans" font-size="10.00">inttypes.h</text>
</g>
<!-- Node12&#45;&gt;Node13 -->
<g id="edge24" class="edge"><title>Node12&#45;&gt;Node13</title>
<path fill="none" stroke="midnightblue" d="M514,-58.8972C514,-51.339 514,-40.7476 514,-31.4458"/>
<polygon fill="midnightblue" stroke="midnightblue" points="517.5,-31.3776 514,-21.3776 510.5,-31.3776 517.5,-31.3776"/>
</g>
<!-- Node15&#45;&gt;Node12 -->
<g id="edge30" class="edge"><title>Node15&#45;&gt;Node12</title>
<path fill="none" stroke="midnightblue" d="M434.108,-232.958C432.586,-210.371 431.559,-154.529 454,-116 461.536,-103.062 474.132,-92.3784 485.844,-84.4846"/>
<polygon fill="midnightblue" stroke="midnightblue" points="487.941,-87.2993 494.528,-79.0007 484.204,-81.3806 487.941,-87.2993"/>
</g>
<!-- Node17 -->
<g id="node34" class="node"><title>Node17</title>
<a xlink:href="_display_8h.html" target="_top" xlink:title="Display.h">
<polygon fill="none" stroke="black" points="551,-291 551,-311 607,-311 607,-291 551,-291"/>
<text text-anchor="middle" x="579" y="-298" font-family="FreeSans" font-size="10.00">Display.h</text>
</a>
</g>
<!-- Node16&#45;&gt;Node17 -->
<g id="edge34" class="edge"><title>Node16&#45;&gt;Node17</title>
<path fill="none" stroke="midnightblue" d="M605.426,-348.897C601.075,-341.01 594.901,-329.821 589.615,-320.24"/>
<polygon fill="midnightblue" stroke="midnightblue" points="592.621,-318.443 584.726,-311.378 586.492,-321.824 592.621,-318.443"/>
</g>
<!-- Node24 -->
<g id="node54" class="node"><title>Node24</title>
<a xlink:href="_view_attacher_8h.html" target="_top" xlink:title="ViewAttacher.h">
<polygon fill="none" stroke="black" points="639.5,-233 639.5,-253 722.5,-253 722.5,-233 639.5,-233"/>
<text text-anchor="middle" x="681" y="-240" font-family="FreeSans" font-size="10.00">ViewAttacher.h</text>
</a>
</g>
<!-- Node16&#45;&gt;Node24 -->
<g id="edge64" class="edge"><title>Node16&#45;&gt;Node24</title>
<path fill="none" stroke="midnightblue" d="M617.212,-348.706C628.969,-329.223 654.629,-286.7 669.574,-261.934"/>
<polygon fill="midnightblue" stroke="midnightblue" points="672.732,-263.476 674.902,-253.106 666.738,-259.859 672.732,-263.476"/>
</g>
<!-- Node25 -->
<g id="node56" class="node"><title>Node25</title>
<a xlink:href="_view_8h.html" target="_top" xlink:title="View.h">
<polygon fill="none" stroke="black" points="663,-291 663,-311 709,-311 709,-291 663,-291"/>
<text text-anchor="middle" x="686" y="-298" font-family="FreeSans" font-size="10.00">View.h</text>
</a>
</g>
<!-- Node16&#45;&gt;Node25 -->
<g id="edge62" class="edge"><title>Node16&#45;&gt;Node25</title>
<path fill="none" stroke="midnightblue" d="M624.064,-348.897C635.287,-340.218 651.683,-327.538 664.786,-317.405"/>
<polygon fill="midnightblue" stroke="midnightblue" points="667.065,-320.068 672.834,-311.182 662.782,-314.53 667.065,-320.068"/>
</g>
<!-- Node17&#45;&gt;Node14 -->
<g id="edge36" class="edge"><title>Node17&#45;&gt;Node14</title>
<path fill="none" stroke="midnightblue" d="M574.208,-290.706C565.179,-271.31 545.518,-229.076 533.968,-204.264"/>
<polygon fill="midnightblue" stroke="midnightblue" points="537.098,-202.694 529.704,-195.106 530.752,-205.648 537.098,-202.694"/>
</g>
<!-- Node17&#45;&gt;Node15 -->
<g id="edge58" class="edge"><title>Node17&#45;&gt;Node15</title>
<path fill="none" stroke="midnightblue" d="M553.917,-290.897C530.624,-281.515 495.727,-267.459 469.753,-256.998"/>
<polygon fill="midnightblue" stroke="midnightblue" points="470.862,-253.671 460.279,-253.182 468.247,-260.164 470.862,-253.671"/>
</g>
<!-- Node18 -->
<g id="node37" class="node"><title>Node18</title>
<a xlink:href="_styles_8h.html" target="_top" xlink:title="Styles.h">
<polygon fill="none" stroke="black" points="571.5,-233 571.5,-253 622.5,-253 622.5,-233 571.5,-233"/>
<text text-anchor="middle" x="597" y="-240" font-family="FreeSans" font-size="10.00">Styles.h</text>
</a>
</g>
<!-- Node17&#45;&gt;Node18 -->
<g id="edge38" class="edge"><title>Node17&#45;&gt;Node18</title>
<path fill="none" stroke="midnightblue" d="M582.135,-290.897C584.506,-283.257 587.84,-272.517 590.749,-263.143"/>
<polygon fill="midnightblue" stroke="midnightblue" points="594.158,-263.966 593.779,-253.378 587.473,-261.891 594.158,-263.966"/>
</g>
<!-- Node17&#45;&gt;Node24 -->
<g id="edge60" class="edge"><title>Node17&#45;&gt;Node24</title>
<path fill="none" stroke="midnightblue" d="M596.767,-290.897C612.612,-281.887 636.038,-268.567 654.166,-258.259"/>
<polygon fill="midnightblue" stroke="midnightblue" points="656.131,-261.167 663.094,-253.182 652.671,-255.082 656.131,-261.167"/>
</g>
<!-- Node18&#45;&gt;Node14 -->
<g id="edge40" class="edge"><title>Node18&#45;&gt;Node14</title>
<path fill="none" stroke="midnightblue" d="M584.459,-232.897C573.852,-224.353 558.434,-211.933 545.956,-201.881"/>
<polygon fill="midnightblue" stroke="midnightblue" points="547.866,-198.925 537.883,-195.378 543.474,-204.377 547.866,-198.925"/>
</g>
<!-- Node19 -->
<g id="node40" class="node"><title>Node19</title>
<a xlink:href="_ui_font_8h.html" target="_top" xlink:title="UiFont.h">
<polygon fill="none" stroke="black" points="566.5,-175 566.5,-195 619.5,-195 619.5,-175 566.5,-175"/>
<text text-anchor="middle" x="593" y="-182" font-family="FreeSans" font-size="10.00">UiFont.h</text>
</a>
</g>
<!-- Node18&#45;&gt;Node19 -->
<g id="edge42" class="edge"><title>Node18&#45;&gt;Node19</title>
<path fill="none" stroke="midnightblue" d="M596.303,-232.897C595.782,-225.339 595.052,-214.748 594.41,-205.446"/>
<polygon fill="midnightblue" stroke="midnightblue" points="597.896,-205.113 593.716,-195.378 590.912,-205.595 597.896,-205.113"/>
</g>
<!-- Node22 -->
<g id="node47" class="node"><title>Node22</title>
<a xlink:href="_color_8h.html" target="_top" xlink:title="Color.h">
<polygon fill="none" stroke="black" points="637.5,-175 637.5,-195 684.5,-195 684.5,-175 637.5,-175"/>
<text text-anchor="middle" x="661" y="-182" font-family="FreeSans" font-size="10.00">Color.h</text>
</a>
</g>
<!-- Node18&#45;&gt;Node22 -->
<g id="edge50" class="edge"><title>Node18&#45;&gt;Node22</title>
<path fill="none" stroke="midnightblue" d="M608.148,-232.897C617.485,-224.435 631.018,-212.172 642.052,-202.172"/>
<polygon fill="midnightblue" stroke="midnightblue" points="644.489,-204.686 649.549,-195.378 639.789,-199.499 644.489,-204.686"/>
</g>
<!-- Node20 -->
<g id="node42" class="node"><title>Node20</title>
<a xlink:href="_hash_8h.html" target="_top" xlink:title="../Util/Hash.h">
<polygon fill="none" stroke="black" points="462.5,-117 462.5,-137 535.5,-137 535.5,-117 462.5,-117"/>
<text text-anchor="middle" x="499" y="-124" font-family="FreeSans" font-size="10.00">../Util/Hash.h</text>
</a>
</g>
<!-- Node19&#45;&gt;Node20 -->
<g id="edge44" class="edge"><title>Node19&#45;&gt;Node20</title>
<path fill="none" stroke="midnightblue" d="M576.626,-174.897C562.158,-165.97 540.831,-152.811 524.191,-142.543"/>
<polygon fill="midnightblue" stroke="midnightblue" points="525.85,-139.454 515.501,-137.182 522.174,-145.411 525.85,-139.454"/>
</g>
<!-- Node21 -->
<g id="node44" class="node"><title>Node21</title>
<a xlink:href="_sel_fmt_8h.html" target="_top" xlink:title="../Util/SelFmt.h">
<polygon fill="none" stroke="black" points="552.5,-117 552.5,-137 633.5,-137 633.5,-117 552.5,-117"/>
<text text-anchor="middle" x="593" y="-124" font-family="FreeSans" font-size="10.00">../Util/SelFmt.h</text>
</a>
</g>
<!-- Node19&#45;&gt;Node21 -->
<g id="edge46" class="edge"><title>Node19&#45;&gt;Node21</title>
<path fill="none" stroke="midnightblue" d="M593,-174.897C593,-167.339 593,-156.748 593,-147.446"/>
<polygon fill="midnightblue" stroke="midnightblue" points="596.5,-147.378 593,-137.378 589.5,-147.378 596.5,-147.378"/>
</g>
<!-- Node21&#45;&gt;Node12 -->
<g id="edge48" class="edge"><title>Node21&#45;&gt;Node12</title>
<path fill="none" stroke="midnightblue" d="M579.239,-116.897C567.305,-108.135 549.818,-95.2965 535.952,-85.1164"/>
<polygon fill="midnightblue" stroke="midnightblue" points="538,-82.2785 527.868,-79.1817 533.858,-87.921 538,-82.2785"/>
</g>
<!-- Node22&#45;&gt;Node12 -->
<g id="edge54" class="edge"><title>Node22&#45;&gt;Node12</title>
<path fill="none" stroke="midnightblue" d="M660.974,-174.719C660.385,-159.885 657.143,-132.458 642,-116 623.897,-96.3248 596.855,-84.8622 572.283,-78.1953"/>
<polygon fill="midnightblue" stroke="midnightblue" points="572.848,-74.7288 562.298,-75.7038 571.153,-81.5206 572.848,-74.7288"/>
</g>
<!-- Node22&#45;&gt;Node21 -->
<g id="edge56" class="edge"><title>Node22&#45;&gt;Node21</title>
<path fill="none" stroke="midnightblue" d="M649.155,-174.897C639.138,-166.353 624.577,-153.933 612.792,-143.881"/>
<polygon fill="midnightblue" stroke="midnightblue" points="615.047,-141.204 605.167,-137.378 610.504,-146.53 615.047,-141.204"/>
</g>
<!-- Node23 -->
<g id="node49" class="node"><title>Node23</title>
<polygon fill="none" stroke="#bfbfbf" points="688.5,-117 688.5,-137 777.5,-137 777.5,-117 688.5,-117"/>
<text text-anchor="middle" x="733" y="-124" font-family="FreeSans" font-size="10.00">boost/format.hpp</text>
</g>
<!-- Node22&#45;&gt;Node23 -->
<g id="edge52" class="edge"><title>Node22&#45;&gt;Node23</title>
<path fill="none" stroke="midnightblue" d="M673.541,-174.897C684.148,-166.353 699.566,-153.933 712.044,-143.881"/>
<polygon fill="midnightblue" stroke="midnightblue" points="714.526,-146.377 720.117,-137.378 710.134,-140.925 714.526,-146.377"/>
</g>
</g>
</svg>
        <g id="navigator" transform="translate(0 0)" fill="#404254">
                <rect fill="#f2f5e9" fill-opacity="0.5" stroke="#606060" stroke-width=".5" x="0" y="0" width="60" height="60"/>
                <use id="zoomplus" xlink:href="#zoomPlus" x="17" y="9" onmousedown="handleZoom(evt,'in')"/>
                <use id="zoomminus" xlink:href="#zoomMin" x="42" y="9" onmousedown="handleZoom(evt,'out')"/>
                <use id="reset" xlink:href="#resetDef" x="30" y="36" onmousedown="handleReset()"/>
                <g id="arrowUp" xlink:href="#dirArrow" transform="translate(30 24)" onmousedown="handlePan(0,-1)">
                  <use xlink:href="#rim" fill="#404040">
                        <set attributeName="fill" to="#808080" begin="arrowUp.mouseover" end="arrowUp.mouseout"/>
                  </use>
                  <path fill="none" stroke="white" stroke-width="1.5" d="M0,-3.0v7 M-2.5,-0.5L0,-3.0L2.5,-0.5"/>
                </g>
                <g id="arrowRight" xlink:href="#dirArrow" transform="rotate(90) translate(36 -43)" onmousedown="handlePan(1,0)">
                  <use xlink:href="#rim" fill="#404040">
                        <set attributeName="fill" to="#808080" begin="arrowRight.mouseover" end="arrowRight.mouseout"/>
                  </use>
                  <path fill="none" stroke="white" stroke-width="1.5" d="M0,-3.0v7 M-2.5,-0.5L0,-3.0L2.5,-0.5"/>
                </g>
                <g id="arrowDown" xlink:href="#dirArrow" transform="rotate(180) translate(-30 -48)" onmousedown="handlePan(0,1)">
                  <use xlink:href="#rim" fill="#404040">
                        <set attributeName="fill" to="#808080" begin="arrowDown.mouseover" end="arrowDown.mouseout"/>
                  </use>
                  <path fill="none" stroke="white" stroke-width="1.5" d="M0,-3.0v7 M-2.5,-0.5L0,-3.0L2.5,-0.5"/>
                </g>
                <g id="arrowLeft" xlink:href="#dirArrow" transform="rotate(270) translate(-36 17)" onmousedown="handlePan(-1,0)">
                  <use xlink:href="#rim" fill="#404040">
                        <set attributeName="fill" to="#808080" begin="arrowLeft.mouseover" end="arrowLeft.mouseout"/>
                  </use>
                  <path fill="none" stroke="white" stroke-width="1.5" d="M0,-3.0v7 M-2.5,-0.5L0,-3.0L2.5,-0.5"/>
                </g>
        </g>
        <svg viewBox="0 0 15 15" width="100%" height="30px" preserveAspectRatio="xMaxYMin meet">
         <g id="arrow_out" transform="scale(0.3 0.3)">
          <a xlink:href="_player_bar_8cpp__incl_org.svg" target="_base">
           <rect id="button" ry="5" rx="5" y="6" x="6" height="38" width="38"
                fill="#f2f5e9" fill-opacity="0.5" stroke="#606060" stroke-width="1.0"/>
           <path id="arrow"
             d="M 11.500037,31.436501 C 11.940474,20.09759 22.043105,11.32322 32.158766,21.979434 L 37.068811,17.246167 C 37.068811,17.246167 37.088388,32 37.088388,32 L 22.160133,31.978069 C 22.160133,31.978069 26.997745,27.140456 26.997745,27.140456 C 18.528582,18.264221 13.291696,25.230495 11.500037,31.436501 z"
             style="fill:#404040;"/>
          </a>
         </g>
        </svg>
</svg>
