<?xml version="1.0" encoding="UTF-8" standalone="no"?>
<!DOCTYPE svg PUBLIC "-//W3C//DTD SVG 1.1//EN"
 "http://www.w3.org/Graphics/SVG/1.1/DTD/svg11.dtd">
<!-- Generated by graphviz version 2.38.0 (20140413.2041)
 -->
<!-- Title: Profile.cpp Pages: 1 -->
<!--zoomable 364 -->
<svg id="main" version="1.1" xmlns="http://www.w3.org/2000/svg" xmlns:xlink="http://www.w3.org/1999/xlink" xml:space="preserve" onload="init(evt)">
<style type="text/css"><![CDATA[
.edge:hover path { stroke: red; }
.edge:hover polygon { stroke: red; fill: red; }
]]></style>
<script type="text/javascript"><![CDATA[
var edges = document.getElementsByTagName('g');
if (edges && edges.length) {
  for (var i=0;i<edges.length;i++) {
    if (edges[i].id.substr(0,4)=='edge') {
      edges[i].setAttribute('class','edge');
    }
  }
}
]]></script>
        <defs>
                <circle id="rim" cx="0" cy="0" r="7"/>
                <circle id="rim2" cx="0" cy="0" r="3.5"/>
                <g id="zoomPlus">
                        <use xlink:href="#rim" fill="#404040">
                                <set attributeName="fill" to="#808080" begin="zoomplus.mouseover" end="zoomplus.mouseout"/>
                        </use>
                        <path d="M-4,0h8M0,-4v8" fill="none" stroke="white" stroke-width="1.5" pointer-events="none"/>
                </g>
                <g id="zoomMin">
                        <use xlink:href="#rim" fill="#404040">
                                <set attributeName="fill" to="#808080" begin="zoomminus.mouseover" end="zoomminus.mouseout"/>
                        </use>
                        <path d="M-4,0h8" fill="none" stroke="white" stroke-width="1.5" pointer-events="none"/>
                </g>
                <g id="dirArrow">
                        <path fill="none" stroke="white" stroke-width="1.5" d="M0,-3.0v7 M-2.5,-0.5L0,-3.0L2.5,-0.5"/>
                </g>
               <g id="resetDef">
                       <use xlink:href="#rim2" fill="#404040">
                               <set attributeName="fill" to="#808080" begin="reset.mouseover" end="reset.mouseout"/>
                       </use>
               </g>
        </defs>

<script type="text/javascript">
var viewWidth = 1011;
var viewHeight = 364;
var sectionId = 'dynsection-0';
</script>
<script xlink:href="svgpan.js"/>
<svg id="graph" class="graph">
<g id="viewport">
<title>Profile.cpp</title>
<!-- Node1 -->
<g id="node1" class="node"><title>Node1</title>
<polygon fill="#bfbfbf" stroke="black" points="437,-336.5 437,-355.5 500,-355.5 500,-336.5 437,-336.5"/>
<text text-anchor="middle" x="468.5" y="-343.5" font-family="Helvetica,sans-Serif" font-size="10.00">Profile.cpp</text>
</g>
<!-- Node2 -->
<g id="node2" class="node"><title>Node2</title>
<polygon fill="none" stroke="#bfbfbf" points="0,-280.5 0,-299.5 139,-299.5 139,-280.5 0,-280.5"/>
<text text-anchor="middle" x="69.5" y="-287.5" font-family="Helvetica,sans-Serif" font-size="10.00">boost/uuid/nil_generator.hpp</text>
</g>
<!-- Node1&#45;&gt;Node2 -->
<g id="edge1" class="edge"><title>Node1&#45;&gt;Node2</title>
<path fill="none" stroke="midnightblue" d="M436.858,-340.718C373.65,-332.163 230.318,-312.765 142.546,-300.886"/>
<polygon fill="midnightblue" stroke="midnightblue" points="142.769,-297.384 132.39,-299.511 141.83,-304.321 142.769,-297.384"/>
</g>
<!-- Node3 -->
<g id="node3" class="node"><title>Node3</title>
<polygon fill="none" stroke="#bfbfbf" points="157.5,-280.5 157.5,-299.5 271.5,-299.5 271.5,-280.5 157.5,-280.5"/>
<text text-anchor="middle" x="214.5" y="-287.5" font-family="Helvetica,sans-Serif" font-size="10.00">boost/uuid/uuid_io.hpp</text>
</g>
<!-- Node1&#45;&gt;Node3 -->
<g id="edge2" class="edge"><title>Node1&#45;&gt;Node3</title>
<path fill="none" stroke="midnightblue" d="M436.844,-338.27C393.582,-329.073 315.534,-312.48 264.37,-301.602"/>
<polygon fill="midnightblue" stroke="midnightblue" points="265.023,-298.163 254.514,-299.507 263.567,-305.01 265.023,-298.163"/>
</g>
<!-- Node4 -->
<g id="node4" class="node"><title>Node4</title>
<polygon fill="none" stroke="#bfbfbf" points="290,-280.5 290,-299.5 351,-299.5 351,-280.5 290,-280.5"/>
<text text-anchor="middle" x="320.5" y="-287.5" font-family="Helvetica,sans-Serif" font-size="10.00">utf8/utf8.h</text>
</g>
<!-- Node1&#45;&gt;Node4 -->
<g id="edge3" class="edge"><title>Node1&#45;&gt;Node4</title>
<path fill="none" stroke="midnightblue" d="M445.049,-336.444C420.367,-327.438 381.315,-313.189 353.523,-303.049"/>
<polygon fill="midnightblue" stroke="midnightblue" points="354.435,-299.656 343.841,-299.516 352.036,-306.232 354.435,-299.656"/>
</g>
<!-- Node5 -->
<g id="node5" class="node"><title>Node5</title>
<g id="a_node5"><a xlink:href="_media_res_8h.html" target="_top" xlink:title="../Display/MediaRes.h">
<polygon fill="none" stroke="black" points="369.5,-280.5 369.5,-299.5 483.5,-299.5 483.5,-280.5 369.5,-280.5"/>
<text text-anchor="middle" x="426.5" y="-287.5" font-family="Helvetica,sans-Serif" font-size="10.00">../Display/MediaRes.h</text>
</a>
</g>
</g>
<!-- Node1&#45;&gt;Node5 -->
<g id="edge4" class="edge"><title>Node1&#45;&gt;Node5</title>
<path fill="none" stroke="midnightblue" d="M461.565,-336.083C455.571,-328.377 446.748,-317.033 439.452,-307.653"/>
<polygon fill="midnightblue" stroke="midnightblue" points="442.209,-305.496 433.306,-299.751 436.683,-309.793 442.209,-305.496"/>
</g>
<!-- Node17 -->
<g id="node17" class="node"><title>Node17</title>
<g id="a_node17"><a xlink:href="_str_8h.html" target="_top" xlink:title="../Util/Str.h">
<polygon fill="none" stroke="black" points="455,-224.5 455,-243.5 520,-243.5 520,-224.5 455,-224.5"/>
<text text-anchor="middle" x="487.5" y="-231.5" font-family="Helvetica,sans-Serif" font-size="10.00">../Util/Str.h</text>
</a>
</g>
</g>
<!-- Node1&#45;&gt;Node17 -->
<g id="edge25" class="edge"><title>Node1&#45;&gt;Node17</title>
<path fill="none" stroke="midnightblue" d="M474.867,-336.232C480.76,-327.532 489.107,-313.572 492.5,-300 496.322,-284.714 494.508,-266.83 492.058,-253.695"/>
<polygon fill="midnightblue" stroke="midnightblue" points="495.401,-252.594 489.867,-243.559 488.559,-254.073 495.401,-252.594"/>
</g>
<!-- Node21 -->
<g id="node21" class="node"><title>Node21</title>
<g id="a_node21"><a xlink:href="_log_8h.html" target="_top" xlink:title="../Util/Log.h">
<polygon fill="none" stroke="black" points="815.5,-280.5 815.5,-299.5 883.5,-299.5 883.5,-280.5 815.5,-280.5"/>
<text text-anchor="middle" x="849.5" y="-287.5" font-family="Helvetica,sans-Serif" font-size="10.00">../Util/Log.h</text>
</a>
</g>
</g>
<!-- Node1&#45;&gt;Node21 -->
<g id="edge23" class="edge"><title>Node1&#45;&gt;Node21</title>
<path fill="none" stroke="midnightblue" d="M500.003,-340.535C567.741,-330.934 727.405,-308.305 805.261,-297.27"/>
<polygon fill="midnightblue" stroke="midnightblue" points="805.827,-300.725 815.237,-295.856 804.845,-293.794 805.827,-300.725"/>
</g>
<!-- Node23 -->
<g id="node23" class="node"><title>Node23</title>
<g id="a_node23"><a xlink:href="_avatar_gallery_8h.html" target="_top" xlink:title="AvatarGallery.h">
<polygon fill="none" stroke="black" points="539.5,-280.5 539.5,-299.5 623.5,-299.5 623.5,-280.5 539.5,-280.5"/>
<text text-anchor="middle" x="581.5" y="-287.5" font-family="Helvetica,sans-Serif" font-size="10.00">AvatarGallery.h</text>
</a>
</g>
</g>
<!-- Node1&#45;&gt;Node23 -->
<g id="edge26" class="edge"><title>Node1&#45;&gt;Node23</title>
<path fill="none" stroke="midnightblue" d="M486.405,-336.444C504.754,-327.675 533.505,-313.935 554.594,-303.858"/>
<polygon fill="midnightblue" stroke="midnightblue" points="556.165,-306.986 563.679,-299.516 553.147,-300.67 556.165,-306.986"/>
</g>
<!-- Node24 -->
<g id="node24" class="node"><title>Node24</title>
<g id="a_node24"><a xlink:href="_profile_8h.html" target="_top" xlink:title="Profile.h">
<polygon fill="none" stroke="black" points="641,-280.5 641,-299.5 694,-299.5 694,-280.5 641,-280.5"/>
<text text-anchor="middle" x="667.5" y="-287.5" font-family="Helvetica,sans-Serif" font-size="10.00">Profile.h</text>
</a>
</g>
</g>
<!-- Node1&#45;&gt;Node24 -->
<g id="edge29" class="edge"><title>Node1&#45;&gt;Node24</title>
<path fill="none" stroke="midnightblue" d="M500.032,-336.444C535.595,-326.793 593.347,-311.122 630.878,-300.938"/>
<polygon fill="midnightblue" stroke="midnightblue" points="632.157,-304.217 640.892,-298.22 630.324,-297.461 632.157,-304.217"/>
</g>
<!-- Node6 -->
<g id="node6" class="node"><title>Node6</title>
<polygon fill="none" stroke="#bfbfbf" points="255,-224.5 255,-243.5 398,-243.5 398,-224.5 255,-224.5"/>
<text text-anchor="middle" x="326.5" y="-231.5" font-family="Helvetica,sans-Serif" font-size="10.00">boost/filesystem/fstream.hpp</text>
</g>
<!-- Node5&#45;&gt;Node6 -->
<g id="edge5" class="edge"><title>Node5&#45;&gt;Node6</title>
<path fill="none" stroke="midnightblue" d="M410.433,-280.324C394.542,-271.743 369.993,-258.486 351.542,-248.522"/>
<polygon fill="midnightblue" stroke="midnightblue" points="352.989,-245.326 342.527,-243.655 349.663,-251.486 352.989,-245.326"/>
</g>
<!-- Node7 -->
<g id="node7" class="node"><title>Node7</title>
<g id="a_node7"><a xlink:href="_config_8h.html" target="_top" xlink:title="../Util/Config.h">
<polygon fill="none" stroke="black" points="156.5,-224.5 156.5,-243.5 236.5,-243.5 236.5,-224.5 156.5,-224.5"/>
<text text-anchor="middle" x="196.5" y="-231.5" font-family="Helvetica,sans-Serif" font-size="10.00">../Util/Config.h</text>
</a>
</g>
</g>
<!-- Node5&#45;&gt;Node7 -->
<g id="edge6" class="edge"><title>Node5&#45;&gt;Node7</title>
<path fill="none" stroke="midnightblue" d="M390.056,-280.444C350.101,-271.063 285.913,-255.993 242.515,-245.804"/>
<polygon fill="midnightblue" stroke="midnightblue" points="243.309,-242.395 232.774,-243.516 241.709,-249.21 243.309,-242.395"/>
</g>
<!-- Node9 -->
<g id="node9" class="node"><title>Node9</title>
<g id="a_node9"><a xlink:href="_o_s_8h.html" target="_top" xlink:title="OS.h">
<polygon fill="none" stroke="black" points="407,-168.5 407,-187.5 446,-187.5 446,-168.5 407,-168.5"/>
<text text-anchor="middle" x="426.5" y="-175.5" font-family="Helvetica,sans-Serif" font-size="10.00">OS.h</text>
</a>
</g>
</g>
<!-- Node5&#45;&gt;Node9 -->
<g id="edge16" class="edge"><title>Node5&#45;&gt;Node9</title>
<path fill="none" stroke="midnightblue" d="M426.5,-280.368C426.5,-262.617 426.5,-221.666 426.5,-197.597"/>
<polygon fill="midnightblue" stroke="midnightblue" points="430,-197.591 426.5,-187.591 423,-197.591 430,-197.591"/>
</g>
<!-- Node5&#45;&gt;Node17 -->
<g id="edge17" class="edge"><title>Node5&#45;&gt;Node17</title>
<path fill="none" stroke="midnightblue" d="M436.301,-280.324C445.318,-272.341 458.906,-260.313 469.818,-250.653"/>
<polygon fill="midnightblue" stroke="midnightblue" points="472.353,-253.083 477.521,-243.834 467.713,-247.842 472.353,-253.083"/>
</g>
<!-- Node18 -->
<g id="node18" class="node"><title>Node18</title>
<g id="a_node18"><a xlink:href="_res_8h.html" target="_top" xlink:title="Res.h">
<polygon fill="none" stroke="black" points="577,-224.5 577,-243.5 620,-243.5 620,-224.5 577,-224.5"/>
<text text-anchor="middle" x="598.5" y="-231.5" font-family="Helvetica,sans-Serif" font-size="10.00">Res.h</text>
</a>
</g>
</g>
<!-- Node5&#45;&gt;Node18 -->
<g id="edge19" class="edge"><title>Node5&#45;&gt;Node18</title>
<path fill="none" stroke="midnightblue" d="M453.754,-280.444C484.525,-270.783 534.516,-255.088 566.952,-244.905"/>
<polygon fill="midnightblue" stroke="midnightblue" points="568.327,-248.141 576.82,-241.807 566.23,-241.463 568.327,-248.141"/>
</g>
<!-- Node8 -->
<g id="node8" class="node"><title>Node8</title>
<polygon fill="none" stroke="#bfbfbf" points="168.5,-168.5 168.5,-187.5 224.5,-187.5 224.5,-168.5 168.5,-168.5"/>
<text text-anchor="middle" x="196.5" y="-175.5" font-family="Helvetica,sans-Serif" font-size="10.00">basedir.h</text>
</g>
<!-- Node7&#45;&gt;Node8 -->
<g id="edge7" class="edge"><title>Node7&#45;&gt;Node8</title>
<path fill="none" stroke="midnightblue" d="M196.5,-224.083C196.5,-217.006 196.5,-206.861 196.5,-197.986"/>
<polygon fill="midnightblue" stroke="midnightblue" points="200,-197.751 196.5,-187.751 193,-197.751 200,-197.751"/>
</g>
<!-- Node7&#45;&gt;Node9 -->
<g id="edge8" class="edge"><title>Node7&#45;&gt;Node9</title>
<path fill="none" stroke="midnightblue" d="M232.944,-224.444C278.368,-213.779 355.115,-195.76 397.023,-185.921"/>
<polygon fill="midnightblue" stroke="midnightblue" points="397.951,-189.298 406.886,-183.605 396.351,-182.483 397.951,-189.298"/>
</g>
<!-- Node10 -->
<g id="node10" class="node"><title>Node10</title>
<polygon fill="none" stroke="#bfbfbf" points="406.5,-112.5 406.5,-131.5 448.5,-131.5 448.5,-112.5 406.5,-112.5"/>
<text text-anchor="middle" x="427.5" y="-119.5" font-family="Helvetica,sans-Serif" font-size="10.00">locale</text>
</g>
<!-- Node9&#45;&gt;Node10 -->
<g id="edge9" class="edge"><title>Node9&#45;&gt;Node10</title>
<path fill="none" stroke="midnightblue" d="M426.665,-168.083C426.796,-161.006 426.984,-150.861 427.148,-141.986"/>
<polygon fill="midnightblue" stroke="midnightblue" points="430.652,-141.814 427.338,-131.751 423.653,-141.685 430.652,-141.814"/>
</g>
<!-- Node11 -->
<g id="node11" class="node"><title>Node11</title>
<polygon fill="none" stroke="#bfbfbf" points="466.5,-112.5 466.5,-131.5 496.5,-131.5 496.5,-112.5 466.5,-112.5"/>
<text text-anchor="middle" x="481.5" y="-119.5" font-family="Helvetica,sans-Serif" font-size="10.00">set</text>
</g>
<!-- Node9&#45;&gt;Node11 -->
<g id="edge10" class="edge"><title>Node9&#45;&gt;Node11</title>
<path fill="none" stroke="midnightblue" d="M435.582,-168.083C443.671,-160.141 455.695,-148.335 465.41,-138.797"/>
<polygon fill="midnightblue" stroke="midnightblue" points="467.903,-141.254 472.587,-131.751 462.999,-136.26 467.903,-141.254"/>
</g>
<!-- Node12 -->
<g id="node12" class="node"><title>Node12</title>
<polygon fill="none" stroke="#bfbfbf" points="161,-112.5 161,-131.5 202,-131.5 202,-112.5 161,-112.5"/>
<text text-anchor="middle" x="181.5" y="-119.5" font-family="Helvetica,sans-Serif" font-size="10.00">string</text>
</g>
<!-- Node9&#45;&gt;Node12 -->
<g id="edge11" class="edge"><title>Node9&#45;&gt;Node12</title>
<path fill="none" stroke="midnightblue" d="M406.806,-173.459C370.368,-166.786 289.805,-151.457 212.05,-131.954"/>
<polygon fill="midnightblue" stroke="midnightblue" points="212.646,-128.495 202.092,-129.429 210.925,-135.28 212.646,-128.495"/>
</g>
<!-- Node13 -->
<g id="node13" class="node"><title>Node13</title>
<polygon fill="none" stroke="#bfbfbf" points="220.5,-112.5 220.5,-131.5 264.5,-131.5 264.5,-112.5 220.5,-112.5"/>
<text text-anchor="middle" x="242.5" y="-119.5" font-family="Helvetica,sans-Serif" font-size="10.00">vector</text>
</g>
<!-- Node9&#45;&gt;Node13 -->
<g id="edge12" class="edge"><title>Node9&#45;&gt;Node13</title>
<path fill="none" stroke="midnightblue" d="M406.809,-171.221C375.2,-161.945 312.828,-143.64 274.681,-132.444"/>
<polygon fill="midnightblue" stroke="midnightblue" points="275.19,-128.946 264.609,-129.488 273.219,-135.663 275.19,-128.946"/>
</g>
<!-- Node14 -->
<g id="node14" class="node"><title>Node14</title>
<polygon fill="none" stroke="#bfbfbf" points="282,-112.5 282,-131.5 389,-131.5 389,-112.5 282,-112.5"/>
<text text-anchor="middle" x="335.5" y="-119.5" font-family="Helvetica,sans-Serif" font-size="10.00">boost/filesystem.hpp</text>
</g>
<!-- Node9&#45;&gt;Node14 -->
<g id="edge13" class="edge"><title>Node9&#45;&gt;Node14</title>
<path fill="none" stroke="midnightblue" d="M411.879,-168.324C397.551,-159.822 375.487,-146.729 358.751,-136.797"/>
<polygon fill="midnightblue" stroke="midnightblue" points="360.47,-133.748 350.084,-131.655 356.898,-139.768 360.47,-133.748"/>
</g>
<!-- Node15 -->
<g id="node15" class="node"><title>Node15</title>
<g id="a_node15"><a xlink:href="_m_r___types_8h.html" target="_top" xlink:title="MR_Types.h">
<polygon fill="none" stroke="black" points="624,-56.5 624,-75.5 697,-75.5 697,-56.5 624,-56.5"/>
<text text-anchor="middle" x="660.5" y="-63.5" font-family="Helvetica,sans-Serif" font-size="10.00">MR_Types.h</text>
</a>
</g>
</g>
<!-- Node9&#45;&gt;Node15 -->
<g id="edge14" class="edge"><title>Node9&#45;&gt;Node15</title>
<path fill="none" stroke="midnightblue" d="M441.544,-168.384C468.537,-152.981 524.261,-121.449 544.5,-112 571.389,-99.447 602.823,-87.4081 626.181,-78.9464"/>
<polygon fill="midnightblue" stroke="midnightblue" points="627.429,-82.2174 635.661,-75.5478 625.066,-75.6281 627.429,-82.2174"/>
</g>
<!-- Node16 -->
<g id="node16" class="node"><title>Node16</title>
<polygon fill="none" stroke="#bfbfbf" points="631,-0.5 631,-19.5 690,-19.5 690,-0.5 631,-0.5"/>
<text text-anchor="middle" x="660.5" y="-7.5" font-family="Helvetica,sans-Serif" font-size="10.00">inttypes.h</text>
</g>
<!-- Node15&#45;&gt;Node16 -->
<g id="edge15" class="edge"><title>Node15&#45;&gt;Node16</title>
<path fill="none" stroke="midnightblue" d="M660.5,-56.083C660.5,-49.0059 660.5,-38.8611 660.5,-29.9865"/>
<polygon fill="midnightblue" stroke="midnightblue" points="664,-29.751 660.5,-19.7511 657,-29.7511 664,-29.751"/>
</g>
<!-- Node17&#45;&gt;Node9 -->
<g id="edge18" class="edge"><title>Node17&#45;&gt;Node9</title>
<path fill="none" stroke="midnightblue" d="M477.699,-224.324C468.682,-216.341 455.094,-204.313 444.182,-194.653"/>
<polygon fill="midnightblue" stroke="midnightblue" points="446.287,-191.842 436.479,-187.834 441.647,-197.083 446.287,-191.842"/>
</g>
<!-- Node18&#45;&gt;Node15 -->
<g id="edge20" class="edge"><title>Node18&#45;&gt;Node15</title>
<path fill="none" stroke="midnightblue" d="M603.782,-224.273C609.016,-215.376 617.021,-201.064 622.5,-188 637.277,-152.767 649.48,-109.706 655.81,-85.6156"/>
<polygon fill="midnightblue" stroke="midnightblue" points="659.258,-86.2608 658.362,-75.7039 652.479,-84.5153 659.258,-86.2608"/>
</g>
<!-- Node19 -->
<g id="node19" class="node"><title>Node19</title>
<g id="a_node19"><a xlink:href="_exception_8h.html" target="_top" xlink:title="../Exception.h">
<polygon fill="none" stroke="black" points="536,-168.5 536,-187.5 613,-187.5 613,-168.5 536,-168.5"/>
<text text-anchor="middle" x="574.5" y="-175.5" font-family="Helvetica,sans-Serif" font-size="10.00">../Exception.h</text>
</a>
</g>
</g>
<!-- Node18&#45;&gt;Node19 -->
<g id="edge21" class="edge"><title>Node18&#45;&gt;Node19</title>
<path fill="none" stroke="midnightblue" d="M594.537,-224.083C591.287,-216.77 586.581,-206.181 582.546,-197.103"/>
<polygon fill="midnightblue" stroke="midnightblue" points="585.649,-195.468 578.389,-187.751 579.252,-198.311 585.649,-195.468"/>
</g>
<!-- Node20 -->
<g id="node20" class="node"><title>Node20</title>
<polygon fill="none" stroke="#bfbfbf" points="553,-112.5 553,-131.5 612,-131.5 612,-112.5 553,-112.5"/>
<text text-anchor="middle" x="582.5" y="-119.5" font-family="Helvetica,sans-Serif" font-size="10.00">exception</text>
</g>
<!-- Node19&#45;&gt;Node20 -->
<g id="edge22" class="edge"><title>Node19&#45;&gt;Node20</title>
<path fill="none" stroke="midnightblue" d="M575.821,-168.083C576.881,-160.927 578.406,-150.635 579.731,-141.691"/>
<polygon fill="midnightblue" stroke="midnightblue" points="583.2,-142.156 581.204,-131.751 576.276,-141.13 583.2,-142.156"/>
</g>
<!-- Node22 -->
<g id="node22" class="node"><title>Node22</title>
<polygon fill="none" stroke="#bfbfbf" points="902,-224.5 902,-243.5 1003,-243.5 1003,-224.5 902,-224.5"/>
<text text-anchor="middle" x="952.5" y="-231.5" font-family="Helvetica,sans-Serif" font-size="10.00">boost/log/trivial.hpp</text>
</g>
<!-- Node21&#45;&gt;Node22 -->
<g id="edge24" class="edge"><title>Node21&#45;&gt;Node22</title>
<path fill="none" stroke="midnightblue" d="M866.049,-280.324C882.492,-271.703 907.935,-258.364 926.968,-248.386"/>
<polygon fill="midnightblue" stroke="midnightblue" points="928.761,-251.398 935.992,-243.655 925.511,-245.198 928.761,-251.398"/>
</g>
<!-- Node23&#45;&gt;Node9 -->
<g id="edge28" class="edge"><title>Node23&#45;&gt;Node9</title>
<path fill="none" stroke="midnightblue" d="M576.482,-280.306C568.234,-266.678 550.604,-240.176 529.5,-224 507.305,-206.988 477.683,-194.921 455.904,-187.593"/>
<polygon fill="midnightblue" stroke="midnightblue" points="456.799,-184.205 446.207,-184.468 454.651,-190.867 456.799,-184.205"/>
</g>
<!-- Node23&#45;&gt;Node18 -->
<g id="edge27" class="edge"><title>Node23&#45;&gt;Node18</title>
<path fill="none" stroke="midnightblue" d="M584.307,-280.083C586.585,-272.849 589.871,-262.409 592.708,-253.397"/>
<polygon fill="midnightblue" stroke="midnightblue" points="596.081,-254.341 595.745,-243.751 589.404,-252.239 596.081,-254.341"/>
</g>
<!-- Node24&#45;&gt;Node18 -->
<g id="edge35" class="edge"><title>Node24&#45;&gt;Node18</title>
<path fill="none" stroke="midnightblue" d="M656.414,-280.324C646.014,-272.185 630.239,-259.839 617.778,-250.087"/>
<polygon fill="midnightblue" stroke="midnightblue" points="619.82,-247.241 609.788,-243.834 615.506,-252.753 619.82,-247.241"/>
</g>
<!-- Node25 -->
<g id="node25" class="node"><title>Node25</title>
<polygon fill="none" stroke="#bfbfbf" points="783,-224.5 783,-243.5 884,-243.5 884,-224.5 783,-224.5"/>
<text text-anchor="middle" x="833.5" y="-231.5" font-family="Helvetica,sans-Serif" font-size="10.00">boost/uuid/uuid.hpp</text>
</g>
<!-- Node24&#45;&gt;Node25 -->
<g id="edge30" class="edge"><title>Node24&#45;&gt;Node25</title>
<path fill="none" stroke="midnightblue" d="M693.803,-280.444C721.851,-271.32 766.444,-256.813 797.684,-246.651"/>
<polygon fill="midnightblue" stroke="midnightblue" points="798.893,-249.938 807.32,-243.516 796.728,-243.282 798.893,-249.938"/>
</g>
<!-- Node26 -->
<g id="node26" class="node"><title>Node26</title>
<g id="a_node26"><a xlink:href="_color_8h.html" target="_top" xlink:title="../Display/Color.h">
<polygon fill="none" stroke="black" points="673,-168.5 673,-187.5 766,-187.5 766,-168.5 673,-168.5"/>
<text text-anchor="middle" x="719.5" y="-175.5" font-family="Helvetica,sans-Serif" font-size="10.00">../Display/Color.h</text>
</a>
</g>
</g>
<!-- Node24&#45;&gt;Node26 -->
<g id="edge31" class="edge"><title>Node24&#45;&gt;Node26</title>
<path fill="none" stroke="midnightblue" d="M665.267,-280.1C662.486,-267.104 659.056,-242.474 667.5,-224 673.277,-211.36 684.552,-200.911 695.131,-193.274"/>
<polygon fill="midnightblue" stroke="midnightblue" points="697.349,-196.001 703.717,-187.533 693.458,-190.182 697.349,-196.001"/>
</g>
<!-- Node28 -->
<g id="node28" class="node"><title>Node28</title>
<g id="a_node28"><a xlink:href="_editable_profile_8h.html" target="_top" xlink:title="EditableProfile.h">
<polygon fill="none" stroke="black" points="676.5,-224.5 676.5,-243.5 764.5,-243.5 764.5,-224.5 676.5,-224.5"/>
<text text-anchor="middle" x="720.5" y="-231.5" font-family="Helvetica,sans-Serif" font-size="10.00">EditableProfile.h</text>
</a>
</g>
</g>
<!-- Node24&#45;&gt;Node28 -->
<g id="edge36" class="edge"><title>Node24&#45;&gt;Node28</title>
<path fill="none" stroke="midnightblue" d="M676.252,-280.083C683.97,-272.22 695.405,-260.569 704.717,-251.081"/>
<polygon fill="midnightblue" stroke="midnightblue" points="707.404,-253.34 711.911,-243.751 702.408,-248.436 707.404,-253.34"/>
</g>
<!-- Node26&#45;&gt;Node15 -->
<g id="edge32" class="edge"><title>Node26&#45;&gt;Node15</title>
<path fill="none" stroke="midnightblue" d="M714.87,-168.368C705.22,-150.376 682.786,-108.55 669.954,-84.6267"/>
<polygon fill="midnightblue" stroke="midnightblue" points="672.919,-82.7495 665.108,-75.5914 666.75,-86.0582 672.919,-82.7495"/>
</g>
<!-- Node27 -->
<g id="node27" class="node"><title>Node27</title>
<g id="a_node27"><a xlink:href="_sel_fmt_8h.html" target="_top" xlink:title="../Util/SelFmt.h">
<polygon fill="none" stroke="black" points="708,-112.5 708,-131.5 791,-131.5 791,-112.5 708,-112.5"/>
<text text-anchor="middle" x="749.5" y="-119.5" font-family="Helvetica,sans-Serif" font-size="10.00">../Util/SelFmt.h</text>
</a>
</g>
</g>
<!-- Node26&#45;&gt;Node27 -->
<g id="edge33" class="edge"><title>Node26&#45;&gt;Node27</title>
<path fill="none" stroke="midnightblue" d="M724.454,-168.083C728.604,-160.613 734.653,-149.724 739.767,-140.52"/>
<polygon fill="midnightblue" stroke="midnightblue" points="742.841,-142.192 744.638,-131.751 736.722,-138.793 742.841,-142.192"/>
</g>
<!-- Node27&#45;&gt;Node15 -->
<g id="edge34" class="edge"><title>Node27&#45;&gt;Node15</title>
<path fill="none" stroke="midnightblue" d="M735.201,-112.324C721.317,-103.9 700.008,-90.9709 683.696,-81.0741"/>
<polygon fill="midnightblue" stroke="midnightblue" points="685.129,-77.8495 674.764,-75.6545 681.498,-83.8341 685.129,-77.8495"/>
</g>
<!-- Node28&#45;&gt;Node26 -->
<g id="edge37" class="edge"><title>Node28&#45;&gt;Node26</title>
<path fill="none" stroke="midnightblue" d="M720.335,-224.083C720.204,-217.006 720.016,-206.861 719.852,-197.986"/>
<polygon fill="midnightblue" stroke="midnightblue" points="723.347,-197.685 719.662,-187.751 716.348,-197.814 723.347,-197.685"/>
</g>
</g>
</svg>
        <g id="navigator" transform="translate(0 0)" fill="#404254">
                <rect fill="#f2f5e9" fill-opacity="0.5" stroke="#606060" stroke-width=".5" x="0" y="0" width="60" height="60"/>
                <use id="zoomplus" xlink:href="#zoomPlus" x="17" y="9" onmousedown="handleZoom(evt,'in')"/>
                <use id="zoomminus" xlink:href="#zoomMin" x="42" y="9" onmousedown="handleZoom(evt,'out')"/>
                <use id="reset" xlink:href="#resetDef" x="30" y="36" onmousedown="handleReset()"/>
                <g id="arrowUp" xlink:href="#dirArrow" transform="translate(30 24)" onmousedown="handlePan(0,-1)">
                  <use xlink:href="#rim" fill="#404040">
                        <set attributeName="fill" to="#808080" begin="arrowUp.mouseover" end="arrowUp.mouseout"/>
                  </use>
                  <path fill="none" stroke="white" stroke-width="1.5" d="M0,-3.0v7 M-2.5,-0.5L0,-3.0L2.5,-0.5"/>
                </g>
                <g id="arrowRight" xlink:href="#dirArrow" transform="rotate(90) translate(36 -43)" onmousedown="handlePan(1,0)">
                  <use xlink:href="#rim" fill="#404040">
                        <set attributeName="fill" to="#808080" begin="arrowRight.mouseover" end="arrowRight.mouseout"/>
                  </use>
                  <path fill="none" stroke="white" stroke-width="1.5" d="M0,-3.0v7 M-2.5,-0.5L0,-3.0L2.5,-0.5"/>
                </g>
                <g id="arrowDown" xlink:href="#dirArrow" transform="rotate(180) translate(-30 -48)" onmousedown="handlePan(0,1)">
                  <use xlink:href="#rim" fill="#404040">
                        <set attributeName="fill" to="#808080" begin="arrowDown.mouseover" end="arrowDown.mouseout"/>
                  </use>
                  <path fill="none" stroke="white" stroke-width="1.5" d="M0,-3.0v7 M-2.5,-0.5L0,-3.0L2.5,-0.5"/>
                </g>
                <g id="arrowLeft" xlink:href="#dirArrow" transform="rotate(270) translate(-36 17)" onmousedown="handlePan(-1,0)">
                  <use xlink:href="#rim" fill="#404040">
                        <set attributeName="fill" to="#808080" begin="arrowLeft.mouseover" end="arrowLeft.mouseout"/>
                  </use>
                  <path fill="none" stroke="white" stroke-width="1.5" d="M0,-3.0v7 M-2.5,-0.5L0,-3.0L2.5,-0.5"/>
                </g>
        </g>
        <svg viewBox="0 0 15 15" width="100%" height="30px" preserveAspectRatio="xMaxYMin meet">
         <g id="arrow_out" transform="scale(0.3 0.3)">
          <a xlink:href="_profile_8cpp__incl_org.svg" target="_base">
           <rect id="button" ry="5" rx="5" y="6" x="6" height="38" width="38"
                fill="#f2f5e9" fill-opacity="0.5" stroke="#606060" stroke-width="1.0"/>
           <path id="arrow"
             d="M 11.500037,31.436501 C 11.940474,20.09759 22.043105,11.32322 32.158766,21.979434 L 37.068811,17.246167 C 37.068811,17.246167 37.088388,32 37.088388,32 L 22.160133,31.978069 C 22.160133,31.978069 26.997745,27.140456 26.997745,27.140456 C 18.528582,18.264221 13.291696,25.230495 11.500037,31.436501 z"
             style="fill:#404040;"/>
          </a>
         </g>
        </svg>
</svg>
