<?xml version="1.0" encoding="UTF-8" standalone="no"?>
<!DOCTYPE svg PUBLIC "-//W3C//DTD SVG 1.1//EN"
 "http://www.w3.org/Graphics/SVG/1.1/DTD/svg11.dtd">
<!-- Generated by graphviz version 2.26.3 (20100126.1600)
 -->
<!-- Title: RadioButton.cpp Pages: 1 -->
<svg width="433pt" height="726pt"
 viewBox="0.00 0.00 432.66 726.00" xmlns="http://www.w3.org/2000/svg" xmlns:xlink="http://www.w3.org/1999/xlink">
<g id="graph1" class="graph" transform="scale(1 1) rotate(0) translate(4 722)">
<title>RadioButton.cpp</title>
<!-- Node1 -->
<g id="node1" class="node"><title>Node1</title>
<polygon fill="#bfbfbf" stroke="black" points="192.703,-697 192.703,-717 280.703,-717 280.703,-697 192.703,-697"/>
<text text-anchor="middle" x="236.703" y="-704" font-family="FreeSans" font-size="10.00">RadioButton.cpp</text>
</g>
<!-- Node2 -->
<g id="node3" class="node"><title>Node2</title>
<a xlink:href="_symbol_8h.html" target="_top" xlink:title="../Util/Symbol.h">
<polygon fill="none" stroke="black" points="98.703,-639 98.703,-659 180.703,-659 180.703,-639 98.703,-639"/>
<text text-anchor="middle" x="139.703" y="-646" font-family="FreeSans" font-size="10.00">../Util/Symbol.h</text>
</a>
</g>
<!-- Node1&#45;&gt;Node2 -->
<g id="edge2" class="edge"><title>Node1&#45;&gt;Node2</title>
<path fill="none" stroke="midnightblue" d="M219.807,-696.897C204.877,-687.97 182.869,-674.811 165.697,-664.543"/>
<polygon fill="midnightblue" stroke="midnightblue" points="167.11,-661.31 156.731,-659.182 163.518,-667.318 167.11,-661.31"/>
</g>
<!-- Node3 -->
<g id="node5" class="node"><title>Node3</title>
<a xlink:href="_symbol_icon_8h.html" target="_top" xlink:title="SymbolIcon.h">
<polygon fill="none" stroke="black" points="292.203,-639 292.203,-659 367.203,-659 367.203,-639 292.203,-639"/>
<text text-anchor="middle" x="329.703" y="-646" font-family="FreeSans" font-size="10.00">SymbolIcon.h</text>
</a>
</g>
<!-- Node1&#45;&gt;Node3 -->
<g id="edge4" class="edge"><title>Node1&#45;&gt;Node3</title>
<path fill="none" stroke="midnightblue" d="M252.902,-696.897C267.217,-687.97 288.317,-674.811 304.78,-664.543"/>
<polygon fill="midnightblue" stroke="midnightblue" points="306.744,-667.443 313.377,-659.182 303.04,-661.504 306.744,-667.443"/>
</g>
<!-- Node21 -->
<g id="node50" class="node"><title>Node21</title>
<a xlink:href="_radio_button_8h.html" target="_top" xlink:title="RadioButton.h">
<polygon fill="none" stroke="black" points="198.203,-639 198.203,-659 275.203,-659 275.203,-639 198.203,-639"/>
<text text-anchor="middle" x="236.703" y="-646" font-family="FreeSans" font-size="10.00">RadioButton.h</text>
</a>
</g>
<!-- Node1&#45;&gt;Node21 -->
<g id="edge58" class="edge"><title>Node1&#45;&gt;Node21</title>
<path fill="none" stroke="midnightblue" d="M236.703,-696.897C236.703,-689.339 236.703,-678.748 236.703,-669.446"/>
<polygon fill="midnightblue" stroke="midnightblue" points="240.203,-669.378 236.703,-659.378 233.203,-669.378 240.203,-669.378"/>
</g>
<!-- Node4 -->
<g id="node7" class="node"><title>Node4</title>
<a xlink:href="_fill_box_8h.html" target="_top" xlink:title="FillBox.h">
<polygon fill="none" stroke="black" points="303.203,-465 303.203,-485 356.203,-485 356.203,-465 303.203,-465"/>
<text text-anchor="middle" x="329.703" y="-472" font-family="FreeSans" font-size="10.00">FillBox.h</text>
</a>
</g>
<!-- Node3&#45;&gt;Node4 -->
<g id="edge6" class="edge"><title>Node3&#45;&gt;Node4</title>
<path fill="none" stroke="midnightblue" d="M329.703,-638.893C329.703,-611.023 329.703,-532.675 329.703,-495.313"/>
<polygon fill="midnightblue" stroke="midnightblue" points="333.203,-495.135 329.703,-485.135 326.203,-495.135 333.203,-495.135"/>
</g>
<!-- Node5 -->
<g id="node9" class="node"><title>Node5</title>
<a xlink:href="_color_8h.html" target="_top" xlink:title="Color.h">
<polygon fill="none" stroke="black" points="343.203,-175 343.203,-195 390.203,-195 390.203,-175 343.203,-175"/>
<text text-anchor="middle" x="366.703" y="-182" font-family="FreeSans" font-size="10.00">Color.h</text>
</a>
</g>
<!-- Node4&#45;&gt;Node5 -->
<g id="edge8" class="edge"><title>Node4&#45;&gt;Node5</title>
<path fill="none" stroke="midnightblue" d="M345.554,-464.98C371.626,-447.124 420.703,-407.121 420.703,-359 420.703,-359 420.703,-359 420.703,-301 420.703,-269.192 415.664,-260.58 401.703,-232 396.665,-221.687 389.271,-211.337 382.575,-202.984"/>
<polygon fill="midnightblue" stroke="midnightblue" points="385.076,-200.518 375.978,-195.089 379.704,-205.007 385.076,-200.518"/>
</g>
<!-- Node10 -->
<g id="node20" class="node"><title>Node10</title>
<a xlink:href="_ui_view_model_8h.html" target="_top" xlink:title="UiViewModel.h">
<polygon fill="none" stroke="black" points="116.703,-407 116.703,-427 198.703,-427 198.703,-407 116.703,-407"/>
<text text-anchor="middle" x="157.703" y="-414" font-family="FreeSans" font-size="10.00">UiViewModel.h</text>
</a>
</g>
<!-- Node4&#45;&gt;Node10 -->
<g id="edge20" class="edge"><title>Node4&#45;&gt;Node10</title>
<path fill="none" stroke="midnightblue" d="M302.828,-465.938C274.486,-456.38 229.54,-441.224 197.173,-430.31"/>
<polygon fill="midnightblue" stroke="midnightblue" points="198.159,-426.949 187.565,-427.07 195.922,-433.582 198.159,-426.949"/>
</g>
<!-- Node6 -->
<g id="node11" class="node"><title>Node6</title>
<polygon fill="none" stroke="#bfbfbf" points="322.203,-117 322.203,-137 411.203,-137 411.203,-117 322.203,-117"/>
<text text-anchor="middle" x="366.703" y="-124" font-family="FreeSans" font-size="10.00">boost/format.hpp</text>
</g>
<!-- Node5&#45;&gt;Node6 -->
<g id="edge10" class="edge"><title>Node5&#45;&gt;Node6</title>
<path fill="none" stroke="midnightblue" d="M366.703,-174.897C366.703,-167.339 366.703,-156.748 366.703,-147.446"/>
<polygon fill="midnightblue" stroke="midnightblue" points="370.203,-147.378 366.703,-137.378 363.203,-147.378 370.203,-147.378"/>
</g>
<!-- Node7 -->
<g id="node13" class="node"><title>Node7</title>
<a xlink:href="_m_r___types_8h.html" target="_top" xlink:title="../Util/MR_Types.h">
<polygon fill="none" stroke="black" points="137.703,-59 137.703,-79 233.703,-79 233.703,-59 137.703,-59"/>
<text text-anchor="middle" x="185.703" y="-66" font-family="FreeSans" font-size="10.00">../Util/MR_Types.h</text>
</a>
</g>
<!-- Node5&#45;&gt;Node7 -->
<g id="edge12" class="edge"><title>Node5&#45;&gt;Node7</title>
<path fill="none" stroke="midnightblue" d="M384.294,-174.79C405.536,-161.184 436.454,-136.449 419.703,-116 397.878,-89.3548 305.718,-77.4956 243.777,-72.4551"/>
<polygon fill="midnightblue" stroke="midnightblue" points="243.972,-68.9598 233.731,-71.6753 243.43,-75.9388 243.972,-68.9598"/>
</g>
<!-- Node9 -->
<g id="node17" class="node"><title>Node9</title>
<a xlink:href="_sel_fmt_8h.html" target="_top" xlink:title="../Util/SelFmt.h">
<polygon fill="none" stroke="black" points="224.203,-117 224.203,-137 305.203,-137 305.203,-117 224.203,-117"/>
<text text-anchor="middle" x="264.703" y="-124" font-family="FreeSans" font-size="10.00">../Util/SelFmt.h</text>
</a>
</g>
<!-- Node5&#45;&gt;Node9 -->
<g id="edge16" class="edge"><title>Node5&#45;&gt;Node9</title>
<path fill="none" stroke="midnightblue" d="M348.936,-174.897C333.091,-165.887 309.665,-152.567 291.537,-142.259"/>
<polygon fill="midnightblue" stroke="midnightblue" points="293.032,-139.082 282.609,-137.182 289.572,-145.167 293.032,-139.082"/>
</g>
<!-- Node8 -->
<g id="node15" class="node"><title>Node8</title>
<polygon fill="none" stroke="#bfbfbf" points="156.703,-1 156.703,-21 214.703,-21 214.703,-1 156.703,-1"/>
<text text-anchor="middle" x="185.703" y="-8" font-family="FreeSans" font-size="10.00">inttypes.h</text>
</g>
<!-- Node7&#45;&gt;Node8 -->
<g id="edge14" class="edge"><title>Node7&#45;&gt;Node8</title>
<path fill="none" stroke="midnightblue" d="M185.703,-58.8972C185.703,-51.339 185.703,-40.7476 185.703,-31.4458"/>
<polygon fill="midnightblue" stroke="midnightblue" points="189.203,-31.3776 185.703,-21.3776 182.203,-31.3776 189.203,-31.3776"/>
</g>
<!-- Node9&#45;&gt;Node7 -->
<g id="edge18" class="edge"><title>Node9&#45;&gt;Node7</title>
<path fill="none" stroke="midnightblue" d="M250.942,-116.897C239.008,-108.135 221.521,-95.2965 207.655,-85.1164"/>
<polygon fill="midnightblue" stroke="midnightblue" points="209.703,-82.2785 199.571,-79.1817 205.561,-87.921 209.703,-82.2785"/>
</g>
<!-- Node10&#45;&gt;Node7 -->
<g id="edge24" class="edge"><title>Node10&#45;&gt;Node7</title>
<path fill="none" stroke="midnightblue" d="M116.492,-407.492C80.9063,-398.495 33.1539,-384.277 19.703,-370 -2.10906,-346.849 0.70302,-332.808 0.70302,-301 0.70302,-301 0.70302,-301 0.70302,-185 0.70302,-124.151 73.4299,-94.0041 127.685,-79.98"/>
<polygon fill="midnightblue" stroke="midnightblue" points="128.705,-83.3335 137.579,-77.5452 127.033,-76.5362 128.705,-83.3335"/>
</g>
<!-- Node11 -->
<g id="node22" class="node"><title>Node11</title>
<a xlink:href="_nav_8h.html" target="_top" xlink:title="../Control/Nav.h">
<polygon fill="none" stroke="black" points="28.203,-349 28.203,-369 111.203,-369 111.203,-349 28.203,-349"/>
<text text-anchor="middle" x="69.703" y="-356" font-family="FreeSans" font-size="10.00">../Control/Nav.h</text>
</a>
</g>
<!-- Node10&#45;&gt;Node11 -->
<g id="edge22" class="edge"><title>Node10&#45;&gt;Node11</title>
<path fill="none" stroke="midnightblue" d="M142.375,-406.897C128.955,-398.052 109.233,-385.054 93.7195,-374.829"/>
<polygon fill="midnightblue" stroke="midnightblue" points="95.4268,-371.762 85.1511,-369.182 91.5745,-377.607 95.4268,-371.762"/>
</g>
<!-- Node12 -->
<g id="node25" class="node"><title>Node12</title>
<a xlink:href="_vec_8h.html" target="_top" xlink:title="../Vec.h">
<polygon fill="none" stroke="black" points="174.203,-175 174.203,-195 223.203,-195 223.203,-175 174.203,-175"/>
<text text-anchor="middle" x="198.703" y="-182" font-family="FreeSans" font-size="10.00">../Vec.h</text>
</a>
</g>
<!-- Node10&#45;&gt;Node12 -->
<g id="edge26" class="edge"><title>Node10&#45;&gt;Node12</title>
<path fill="none" stroke="midnightblue" d="M159.518,-406.732C165.802,-371.173 186.71,-252.861 195.137,-205.177"/>
<polygon fill="midnightblue" stroke="midnightblue" points="198.616,-205.606 196.909,-195.15 191.722,-204.388 198.616,-205.606"/>
</g>
<!-- Node13 -->
<g id="node27" class="node"><title>Node13</title>
<a xlink:href="_ui_layout_flags_8h.html" target="_top" xlink:title="UiLayoutFlags.h">
<polygon fill="none" stroke="black" points="62.203,-233 62.203,-253 149.203,-253 149.203,-233 62.203,-233"/>
<text text-anchor="middle" x="105.703" y="-240" font-family="FreeSans" font-size="10.00">UiLayoutFlags.h</text>
</a>
</g>
<!-- Node10&#45;&gt;Node13 -->
<g id="edge28" class="edge"><title>Node10&#45;&gt;Node13</title>
<path fill="none" stroke="midnightblue" d="M154.683,-406.893C146.318,-378.903 122.737,-299.999 111.63,-262.832"/>
<polygon fill="midnightblue" stroke="midnightblue" points="114.949,-261.714 108.732,-253.135 108.242,-263.718 114.949,-261.714"/>
</g>
<!-- Node14 -->
<g id="node30" class="node"><title>Node14</title>
<a xlink:href="_view_model_8h.html" target="_top" xlink:title="ViewModel.h">
<polygon fill="none" stroke="black" points="235.703,-349 235.703,-369 307.703,-369 307.703,-349 235.703,-349"/>
<text text-anchor="middle" x="271.703" y="-356" font-family="FreeSans" font-size="10.00">ViewModel.h</text>
</a>
</g>
<!-- Node10&#45;&gt;Node14 -->
<g id="edge32" class="edge"><title>Node10&#45;&gt;Node14</title>
<path fill="none" stroke="midnightblue" d="M177.56,-406.897C195.513,-397.763 222.174,-384.199 242.545,-373.835"/>
<polygon fill="midnightblue" stroke="midnightblue" points="244.365,-376.836 251.691,-369.182 241.191,-370.597 244.365,-376.836"/>
</g>
<!-- Node13&#45;&gt;Node7 -->
<g id="edge30" class="edge"><title>Node13&#45;&gt;Node7</title>
<path fill="none" stroke="midnightblue" d="M104.909,-232.952C103.602,-210.353 103.088,-154.488 125.703,-116 133.288,-103.091 145.891,-92.4109 157.593,-84.5118"/>
<polygon fill="midnightblue" stroke="midnightblue" points="159.689,-87.3272 166.268,-79.0224 155.946,-81.4119 159.689,-87.3272"/>
</g>
<!-- Node15 -->
<g id="node32" class="node"><title>Node15</title>
<a xlink:href="_display_8h.html" target="_top" xlink:title="Display.h">
<polygon fill="none" stroke="black" points="204.703,-291 204.703,-311 260.703,-311 260.703,-291 204.703,-291"/>
<text text-anchor="middle" x="232.703" y="-298" font-family="FreeSans" font-size="10.00">Display.h</text>
</a>
</g>
<!-- Node14&#45;&gt;Node15 -->
<g id="edge34" class="edge"><title>Node14&#45;&gt;Node15</title>
<path fill="none" stroke="midnightblue" d="M264.91,-348.897C259.551,-340.928 251.926,-329.587 245.439,-319.941"/>
<polygon fill="midnightblue" stroke="midnightblue" points="248.166,-317.723 239.681,-311.378 242.357,-321.629 248.166,-317.723"/>
</g>
<!-- Node19 -->
<g id="node45" class="node"><title>Node19</title>
<a xlink:href="_view_attacher_8h.html" target="_top" xlink:title="ViewAttacher.h">
<polygon fill="none" stroke="black" points="310.203,-233 310.203,-253 393.203,-253 393.203,-233 310.203,-233"/>
<text text-anchor="middle" x="351.703" y="-240" font-family="FreeSans" font-size="10.00">ViewAttacher.h</text>
</a>
</g>
<!-- Node14&#45;&gt;Node19 -->
<g id="edge56" class="edge"><title>Node14&#45;&gt;Node19</title>
<path fill="none" stroke="midnightblue" d="M291.302,-348.83C305.142,-340.668 323.053,-327.952 333.703,-312 343.453,-297.395 347.925,-277.792 349.974,-263.213"/>
<polygon fill="midnightblue" stroke="midnightblue" points="353.459,-263.542 351.116,-253.209 346.504,-262.748 353.459,-263.542"/>
</g>
<!-- Node20 -->
<g id="node47" class="node"><title>Node20</title>
<a xlink:href="_view_8h.html" target="_top" xlink:title="View.h">
<polygon fill="none" stroke="black" points="278.703,-291 278.703,-311 324.703,-311 324.703,-291 278.703,-291"/>
<text text-anchor="middle" x="301.703" y="-298" font-family="FreeSans" font-size="10.00">View.h</text>
</a>
</g>
<!-- Node14&#45;&gt;Node20 -->
<g id="edge54" class="edge"><title>Node14&#45;&gt;Node20</title>
<path fill="none" stroke="midnightblue" d="M276.929,-348.897C280.965,-341.093 286.675,-330.054 291.596,-320.54"/>
<polygon fill="midnightblue" stroke="midnightblue" points="294.85,-321.868 296.335,-311.378 288.632,-318.652 294.85,-321.868"/>
</g>
<!-- Node15&#45;&gt;Node12 -->
<g id="edge36" class="edge"><title>Node15&#45;&gt;Node12</title>
<path fill="none" stroke="midnightblue" d="M229.686,-290.706C224.051,-271.482 211.841,-229.825 204.544,-204.929"/>
<polygon fill="midnightblue" stroke="midnightblue" points="207.836,-203.717 201.665,-195.106 201.119,-205.686 207.836,-203.717"/>
</g>
<!-- Node15&#45;&gt;Node13 -->
<g id="edge50" class="edge"><title>Node15&#45;&gt;Node13</title>
<path fill="none" stroke="midnightblue" d="M210.581,-290.897C190.309,-281.639 160.072,-267.83 137.266,-257.415"/>
<polygon fill="midnightblue" stroke="midnightblue" points="138.548,-254.152 127.997,-253.182 135.64,-260.52 138.548,-254.152"/>
</g>
<!-- Node16 -->
<g id="node35" class="node"><title>Node16</title>
<a xlink:href="_styles_8h.html" target="_top" xlink:title="Styles.h">
<polygon fill="none" stroke="black" points="242.203,-233 242.203,-253 293.203,-253 293.203,-233 242.203,-233"/>
<text text-anchor="middle" x="267.703" y="-240" font-family="FreeSans" font-size="10.00">Styles.h</text>
</a>
</g>
<!-- Node15&#45;&gt;Node16 -->
<g id="edge38" class="edge"><title>Node15&#45;&gt;Node16</title>
<path fill="none" stroke="midnightblue" d="M238.8,-290.897C243.608,-282.928 250.452,-271.587 256.273,-261.941"/>
<polygon fill="midnightblue" stroke="midnightblue" points="259.271,-263.748 261.441,-253.378 253.277,-260.131 259.271,-263.748"/>
</g>
<!-- Node15&#45;&gt;Node19 -->
<g id="edge52" class="edge"><title>Node15&#45;&gt;Node19</title>
<path fill="none" stroke="midnightblue" d="M253.431,-290.897C272.257,-281.722 300.253,-268.076 321.554,-257.694"/>
<polygon fill="midnightblue" stroke="midnightblue" points="323.357,-260.709 330.813,-253.182 320.29,-254.417 323.357,-260.709"/>
</g>
<!-- Node16&#45;&gt;Node5 -->
<g id="edge48" class="edge"><title>Node16&#45;&gt;Node5</title>
<path fill="none" stroke="midnightblue" d="M284.948,-232.897C300.327,-223.887 323.064,-210.567 340.658,-200.259"/>
<polygon fill="midnightblue" stroke="midnightblue" points="342.465,-203.257 349.324,-195.182 338.926,-197.217 342.465,-203.257"/>
</g>
<!-- Node16&#45;&gt;Node12 -->
<g id="edge40" class="edge"><title>Node16&#45;&gt;Node12</title>
<path fill="none" stroke="midnightblue" d="M255.684,-232.897C245.52,-224.353 230.744,-211.933 218.786,-201.881"/>
<polygon fill="midnightblue" stroke="midnightblue" points="220.956,-199.133 211.049,-195.378 216.452,-204.491 220.956,-199.133"/>
</g>
<!-- Node17 -->
<g id="node38" class="node"><title>Node17</title>
<a xlink:href="_ui_font_8h.html" target="_top" xlink:title="UiFont.h">
<polygon fill="none" stroke="black" points="240.203,-175 240.203,-195 293.203,-195 293.203,-175 240.203,-175"/>
<text text-anchor="middle" x="266.703" y="-182" font-family="FreeSans" font-size="10.00">UiFont.h</text>
</a>
</g>
<!-- Node16&#45;&gt;Node17 -->
<g id="edge42" class="edge"><title>Node16&#45;&gt;Node17</title>
<path fill="none" stroke="midnightblue" d="M267.529,-232.897C267.399,-225.339 267.216,-214.748 267.056,-205.446"/>
<polygon fill="midnightblue" stroke="midnightblue" points="270.554,-205.316 266.882,-195.378 263.555,-205.436 270.554,-205.316"/>
</g>
<!-- Node17&#45;&gt;Node9 -->
<g id="edge46" class="edge"><title>Node17&#45;&gt;Node9</title>
<path fill="none" stroke="midnightblue" d="M266.355,-174.897C266.094,-167.339 265.729,-156.748 265.408,-147.446"/>
<polygon fill="midnightblue" stroke="midnightblue" points="268.904,-147.251 265.061,-137.378 261.908,-147.492 268.904,-147.251"/>
</g>
<!-- Node18 -->
<g id="node40" class="node"><title>Node18</title>
<a xlink:href="_hash_8h.html" target="_top" xlink:title="../Util/Hash.h">
<polygon fill="none" stroke="black" points="134.203,-117 134.203,-137 207.203,-137 207.203,-117 134.203,-117"/>
<text text-anchor="middle" x="170.703" y="-124" font-family="FreeSans" font-size="10.00">../Util/Hash.h</text>
</a>
</g>
<!-- Node17&#45;&gt;Node18 -->
<g id="edge44" class="edge"><title>Node17&#45;&gt;Node18</title>
<path fill="none" stroke="midnightblue" d="M249.981,-174.897C235.205,-165.97 213.424,-152.811 196.43,-142.543"/>
<polygon fill="midnightblue" stroke="midnightblue" points="197.925,-139.357 187.555,-137.182 194.305,-145.349 197.925,-139.357"/>
</g>
<!-- Node22 -->
<g id="node52" class="node"><title>Node22</title>
<a xlink:href="_exception_8h.html" target="_top" xlink:title="../Exception.h">
<polygon fill="none" stroke="black" points="213.703,-581 213.703,-601 287.703,-601 287.703,-581 213.703,-581"/>
<text text-anchor="middle" x="250.703" y="-588" font-family="FreeSans" font-size="10.00">../Exception.h</text>
</a>
</g>
<!-- Node21&#45;&gt;Node22 -->
<g id="edge60" class="edge"><title>Node21&#45;&gt;Node22</title>
<path fill="none" stroke="midnightblue" d="M239.142,-638.897C240.986,-631.257 243.578,-620.517 245.841,-611.143"/>
<polygon fill="midnightblue" stroke="midnightblue" points="249.254,-611.92 248.198,-601.378 242.449,-610.277 249.254,-611.92"/>
</g>
<!-- Node24 -->
<g id="node56" class="node"><title>Node24</title>
<a xlink:href="_state_button_8h.html" target="_top" xlink:title="StateButton.h">
<polygon fill="none" stroke="black" points="119.703,-581 119.703,-601 195.703,-601 195.703,-581 119.703,-581"/>
<text text-anchor="middle" x="157.703" y="-588" font-family="FreeSans" font-size="10.00">StateButton.h</text>
</a>
</g>
<!-- Node21&#45;&gt;Node24 -->
<g id="edge64" class="edge"><title>Node21&#45;&gt;Node24</title>
<path fill="none" stroke="midnightblue" d="M222.942,-638.897C211.008,-630.135 193.521,-617.297 179.655,-607.116"/>
<polygon fill="midnightblue" stroke="midnightblue" points="181.703,-604.278 171.571,-601.182 177.561,-609.921 181.703,-604.278"/>
</g>
<!-- Node23 -->
<g id="node54" class="node"><title>Node23</title>
<polygon fill="none" stroke="#bfbfbf" points="221.703,-523 221.703,-543 279.703,-543 279.703,-523 221.703,-523"/>
<text text-anchor="middle" x="250.703" y="-530" font-family="FreeSans" font-size="10.00">exception</text>
</g>
<!-- Node22&#45;&gt;Node23 -->
<g id="edge62" class="edge"><title>Node22&#45;&gt;Node23</title>
<path fill="none" stroke="midnightblue" d="M250.703,-580.897C250.703,-573.339 250.703,-562.748 250.703,-553.446"/>
<polygon fill="midnightblue" stroke="midnightblue" points="254.203,-553.378 250.703,-543.378 247.203,-553.378 254.203,-553.378"/>
</g>
<!-- Node25 -->
<g id="node58" class="node"><title>Node25</title>
<a xlink:href="_button_8h.html" target="_top" xlink:title="Button.h">
<polygon fill="none" stroke="black" points="131.203,-523 131.203,-543 184.203,-543 184.203,-523 131.203,-523"/>
<text text-anchor="middle" x="157.703" y="-530" font-family="FreeSans" font-size="10.00">Button.h</text>
</a>
</g>
<!-- Node24&#45;&gt;Node25 -->
<g id="edge66" class="edge"><title>Node24&#45;&gt;Node25</title>
<path fill="none" stroke="midnightblue" d="M157.703,-580.897C157.703,-573.339 157.703,-562.748 157.703,-553.446"/>
<polygon fill="midnightblue" stroke="midnightblue" points="161.203,-553.378 157.703,-543.378 154.203,-553.378 161.203,-553.378"/>
</g>
<!-- Node26 -->
<g id="node60" class="node"><title>Node26</title>
<a xlink:href="_click_region_8h.html" target="_top" xlink:title="ClickRegion.h">
<polygon fill="none" stroke="black" points="119.703,-465 119.703,-485 195.703,-485 195.703,-465 119.703,-465"/>
<text text-anchor="middle" x="157.703" y="-472" font-family="FreeSans" font-size="10.00">ClickRegion.h</text>
</a>
</g>
<!-- Node25&#45;&gt;Node26 -->
<g id="edge68" class="edge"><title>Node25&#45;&gt;Node26</title>
<path fill="none" stroke="midnightblue" d="M157.703,-522.897C157.703,-515.339 157.703,-504.748 157.703,-495.446"/>
<polygon fill="midnightblue" stroke="midnightblue" points="161.203,-495.378 157.703,-485.378 154.203,-495.378 161.203,-495.378"/>
</g>
<!-- Node26&#45;&gt;Node10 -->
<g id="edge70" class="edge"><title>Node26&#45;&gt;Node10</title>
<path fill="none" stroke="midnightblue" d="M157.703,-464.897C157.703,-457.339 157.703,-446.748 157.703,-437.446"/>
<polygon fill="midnightblue" stroke="midnightblue" points="161.203,-437.378 157.703,-427.378 154.203,-437.378 161.203,-437.378"/>
</g>
</g>
</svg>
