<?xml version="1.0" encoding="UTF-8" standalone="no"?>
<!DOCTYPE svg PUBLIC "-//W3C//DTD SVG 1.1//EN"
 "http://www.w3.org/Graphics/SVG/1.1/DTD/svg11.dtd">
<!-- Generated by graphviz version 2.26.3 (20100126.1600)
 -->
<!-- Title: RecordFile.h Pages: 1 -->
<svg width="938pt" height="320pt"
 viewBox="0.00 0.00 938.00 320.00" xmlns="http://www.w3.org/2000/svg" xmlns:xlink="http://www.w3.org/1999/xlink">
<g id="graph1" class="graph" transform="scale(1 1) rotate(0) translate(4 316)">
<title>RecordFile.h</title>
<!-- Node1 -->
<g id="node1" class="node"><title>Node1</title>
<polygon fill="#bfbfbf" stroke="black" points="675.5,-291 675.5,-311 746.5,-311 746.5,-291 675.5,-291"/>
<text text-anchor="middle" x="711" y="-298" font-family="FreeSans" font-size="10.00">RecordFile.h</text>
</g>
<!-- Node2 -->
<g id="node3" class="node"><title>Node2</title>
<a xlink:href="_game_session_8h.html" target="_top" xlink:title="GameSession.h">
<polygon fill="none" stroke="black" points="405,-233 405,-253 491,-253 491,-233 405,-233"/>
<text text-anchor="middle" x="448" y="-240" font-family="FreeSans" font-size="10.00">GameSession.h</text>
</a>
</g>
<!-- Node1&#45;&gt;Node2 -->
<g id="edge2" class="edge"><title>Node1&#45;&gt;Node2</title>
<path fill="none" stroke="midnightblue" d="M665.247,-290.91C616.236,-280.101 539.049,-263.079 491.089,-252.503"/>
<polygon fill="midnightblue" stroke="midnightblue" points="664.738,-294.382 675.257,-293.118 666.245,-287.546 664.738,-294.382"/>
</g>
<!-- Node18 -->
<g id="node38" class="node"><title>Node18</title>
<a xlink:href="_classic_record_file_8h.html" target="_top" xlink:title="ClassicRecordFile.h">
<polygon fill="none" stroke="black" points="610.5,-233 610.5,-253 713.5,-253 713.5,-233 610.5,-233"/>
<text text-anchor="middle" x="662" y="-240" font-family="FreeSans" font-size="10.00">ClassicRecordFile.h</text>
</a>
</g>
<!-- Node1&#45;&gt;Node18 -->
<g id="edge40" class="edge"><title>Node1&#45;&gt;Node18</title>
<path fill="none" stroke="midnightblue" d="M695.777,-282.981C687.558,-273.252 677.704,-261.589 670.767,-253.378"/>
<polygon fill="midnightblue" stroke="midnightblue" points="693.338,-285.517 702.465,-290.897 698.685,-281 693.338,-285.517"/>
</g>
<!-- Node23 -->
<g id="node48" class="node"><title>Node23</title>
<a xlink:href="_track_8cpp.html" target="_top" xlink:title="Track.cpp">
<polygon fill="none" stroke="black" points="730.5,-233 730.5,-253 789.5,-253 789.5,-233 730.5,-233"/>
<text text-anchor="middle" x="760" y="-240" font-family="FreeSans" font-size="10.00">Track.cpp</text>
</a>
</g>
<!-- Node1&#45;&gt;Node23 -->
<g id="edge50" class="edge"><title>Node1&#45;&gt;Node23</title>
<path fill="none" stroke="midnightblue" d="M726.223,-282.981C734.442,-273.252 744.296,-261.589 751.233,-253.378"/>
<polygon fill="midnightblue" stroke="midnightblue" points="723.315,-281 719.535,-290.897 728.662,-285.517 723.315,-281"/>
</g>
<!-- Node24 -->
<g id="node50" class="node"><title>Node24</title>
<a xlink:href="_track_bundle_8cpp.html" target="_top" xlink:title="TrackBundle.cpp">
<polygon fill="none" stroke="black" points="806.5,-233 806.5,-253 895.5,-253 895.5,-233 806.5,-233"/>
<text text-anchor="middle" x="851" y="-240" font-family="FreeSans" font-size="10.00">TrackBundle.cpp</text>
</a>
</g>
<!-- Node1&#45;&gt;Node24 -->
<g id="edge52" class="edge"><title>Node1&#45;&gt;Node24</title>
<path fill="none" stroke="midnightblue" d="M744.91,-286.952C770.078,-276.525 803.814,-262.548 826.424,-253.182"/>
<polygon fill="midnightblue" stroke="midnightblue" points="743.285,-283.836 735.386,-290.897 745.964,-290.303 743.285,-283.836"/>
</g>
<!-- Node3 -->
<g id="node5" class="node"><title>Node3</title>
<a xlink:href="_client_session_8h.html" target="_top" xlink:title="ClientSession.h">
<polygon fill="none" stroke="black" points="298,-175 298,-195 382,-195 382,-175 298,-175"/>
<text text-anchor="middle" x="340" y="-182" font-family="FreeSans" font-size="10.00">ClientSession.h</text>
</a>
</g>
<!-- Node2&#45;&gt;Node3 -->
<g id="edge4" class="edge"><title>Node2&#45;&gt;Node3</title>
<path fill="none" stroke="midnightblue" d="M420.281,-228.114C401.05,-217.786 375.937,-204.3 358.959,-195.182"/>
<polygon fill="midnightblue" stroke="midnightblue" points="418.722,-231.249 429.188,-232.897 422.034,-225.082 418.722,-231.249"/>
</g>
<!-- Node17 -->
<g id="node36" class="node"><title>Node17</title>
<a xlink:href="_game_session_8cpp.html" target="_top" xlink:title="GameSession.cpp">
<polygon fill="none" stroke="black" points="400,-175 400,-195 496,-195 496,-175 400,-175"/>
<text text-anchor="middle" x="448" y="-182" font-family="FreeSans" font-size="10.00">GameSession.cpp</text>
</a>
</g>
<!-- Node2&#45;&gt;Node17 -->
<g id="edge38" class="edge"><title>Node2&#45;&gt;Node17</title>
<path fill="none" stroke="midnightblue" d="M448,-222.89C448,-213.62 448,-203.008 448,-195.378"/>
<polygon fill="midnightblue" stroke="midnightblue" points="444.5,-222.897 448,-232.897 451.5,-222.897 444.5,-222.897"/>
</g>
<!-- Node4 -->
<g id="node7" class="node"><title>Node4</title>
<a xlink:href="_client_app_8cpp.html" target="_top" xlink:title="ClientApp.cpp">
<polygon fill="none" stroke="black" points="-0.5,-117 -0.5,-137 76.5,-137 76.5,-117 -0.5,-117"/>
<text text-anchor="middle" x="38" y="-124" font-family="FreeSans" font-size="10.00">ClientApp.cpp</text>
</a>
</g>
<!-- Node3&#45;&gt;Node4 -->
<g id="edge6" class="edge"><title>Node3&#45;&gt;Node4</title>
<path fill="none" stroke="midnightblue" d="M287.998,-176.163C236.366,-167.213 155.02,-152.638 85,-138 82.293,-137.434 79.503,-136.831 76.6962,-136.211"/>
<polygon fill="midnightblue" stroke="midnightblue" points="287.466,-179.623 297.916,-177.876 288.657,-172.725 287.466,-179.623"/>
</g>
<!-- Node5 -->
<g id="node9" class="node"><title>Node5</title>
<a xlink:href="_client_session_8cpp.html" target="_top" xlink:title="ClientSession.cpp">
<polygon fill="none" stroke="black" points="93.5,-117 93.5,-137 188.5,-137 188.5,-117 93.5,-117"/>
<text text-anchor="middle" x="141" y="-124" font-family="FreeSans" font-size="10.00">ClientSession.cpp</text>
</a>
</g>
<!-- Node3&#45;&gt;Node5 -->
<g id="edge8" class="edge"><title>Node3&#45;&gt;Node5</title>
<path fill="none" stroke="midnightblue" d="M295.52,-172.036C259.289,-161.476 208.862,-146.779 175.599,-137.084"/>
<polygon fill="midnightblue" stroke="midnightblue" points="294.757,-175.459 305.337,-174.897 296.716,-168.739 294.757,-175.459"/>
</g>
<!-- Node6 -->
<g id="node11" class="node"><title>Node6</title>
<a xlink:href="_game_app_8h.html" target="_top" xlink:title="GameApp.h">
<polygon fill="none" stroke="black" points="206,-117 206,-137 274,-137 274,-117 206,-117"/>
<text text-anchor="middle" x="240" y="-124" font-family="FreeSans" font-size="10.00">GameApp.h</text>
</a>
</g>
<!-- Node3&#45;&gt;Node6 -->
<g id="edge10" class="edge"><title>Node3&#45;&gt;Node6</title>
<path fill="none" stroke="midnightblue" d="M313.847,-169.831C296.105,-159.541 273.132,-146.217 257.555,-137.182"/>
<polygon fill="midnightblue" stroke="midnightblue" points="312.175,-172.908 322.581,-174.897 315.687,-166.852 312.175,-172.908"/>
</g>
<!-- Node10 -->
<g id="node19" class="node"><title>Node10</title>
<a xlink:href="_network_session_8h.html" target="_top" xlink:title="NetworkSession.h">
<polygon fill="none" stroke="black" points="292,-117 292,-137 388,-137 388,-117 292,-117"/>
<text text-anchor="middle" x="340" y="-124" font-family="FreeSans" font-size="10.00">NetworkSession.h</text>
</a>
</g>
<!-- Node3&#45;&gt;Node10 -->
<g id="edge18" class="edge"><title>Node3&#45;&gt;Node10</title>
<path fill="none" stroke="midnightblue" d="M340,-164.89C340,-155.62 340,-145.008 340,-137.378"/>
<polygon fill="midnightblue" stroke="midnightblue" points="336.5,-164.897 340,-174.897 343.5,-164.897 336.5,-164.897"/>
</g>
<!-- Node14 -->
<g id="node30" class="node"><title>Node14</title>
<a xlink:href="_game_scene_8cpp.html" target="_top" xlink:title="GameScene.cpp">
<polygon fill="none" stroke="black" points="405.5,-117 405.5,-137 494.5,-137 494.5,-117 405.5,-117"/>
<text text-anchor="middle" x="450" y="-124" font-family="FreeSans" font-size="10.00">GameScene.cpp</text>
</a>
</g>
<!-- Node3&#45;&gt;Node14 -->
<g id="edge32" class="edge"><title>Node3&#45;&gt;Node14</title>
<path fill="none" stroke="midnightblue" d="M368.232,-170.114C387.82,-159.786 413.397,-146.3 430.69,-137.182"/>
<polygon fill="midnightblue" stroke="midnightblue" points="366.374,-167.137 359.161,-174.897 369.639,-173.329 366.374,-167.137"/>
</g>
<!-- Node15 -->
<g id="node32" class="node"><title>Node15</title>
<a xlink:href="_observer_8cpp.html" target="_top" xlink:title="Observer.cpp">
<polygon fill="none" stroke="black" points="512,-117 512,-137 586,-137 586,-117 512,-117"/>
<text text-anchor="middle" x="549" y="-124" font-family="FreeSans" font-size="10.00">Observer.cpp</text>
</a>
</g>
<!-- Node3&#45;&gt;Node15 -->
<g id="edge34" class="edge"><title>Node3&#45;&gt;Node15</title>
<path fill="none" stroke="midnightblue" d="M386.228,-172.171C424.314,-161.602 477.579,-146.82 512.662,-137.084"/>
<polygon fill="midnightblue" stroke="midnightblue" points="385.105,-168.85 376.405,-174.897 386.977,-175.596 385.105,-168.85"/>
</g>
<!-- Node16 -->
<g id="node34" class="node"><title>Node16</title>
<a xlink:href="_session_peer_8cpp.html" target="_top" xlink:title="SessionPeer.cpp">
<polygon fill="none" stroke="black" points="604,-117 604,-137 694,-137 694,-117 604,-117"/>
<text text-anchor="middle" x="649" y="-124" font-family="FreeSans" font-size="10.00">SessionPeer.cpp</text>
</a>
</g>
<!-- Node3&#45;&gt;Node16 -->
<g id="edge36" class="edge"><title>Node3&#45;&gt;Node16</title>
<path fill="none" stroke="midnightblue" d="M392.174,-173.821C483.013,-156.197 507.643,-154.602 595,-138 597.914,-137.446 600.914,-136.865 603.936,-136.272"/>
<polygon fill="midnightblue" stroke="midnightblue" points="391.419,-170.402 382.275,-175.753 392.761,-177.272 391.419,-170.402"/>
</g>
<!-- Node7 -->
<g id="node13" class="node"><title>Node7</title>
<a xlink:href="_game_app_8cpp.html" target="_top" xlink:title="GameApp.cpp">
<polygon fill="none" stroke="black" points="240,-1 240,-21 318,-21 318,-1 240,-1"/>
<text text-anchor="middle" x="279" y="-8" font-family="FreeSans" font-size="10.00">GameApp.cpp</text>
</a>
</g>
<!-- Node6&#45;&gt;Node7 -->
<g id="edge12" class="edge"><title>Node6&#45;&gt;Node7</title>
<path fill="none" stroke="midnightblue" d="M195.919,-114.536C158.375,-103.478 109.622,-87.891 104,-80 98.3265,-72.0366 98.0499,-65.759 104,-58 120.416,-36.5939 193.376,-22.7753 239.753,-15.985"/>
<polygon fill="midnightblue" stroke="midnightblue" points="195.096,-117.942 205.676,-117.383 197.057,-111.222 195.096,-117.942"/>
</g>
<!-- Node8 -->
<g id="node15" class="node"><title>Node8</title>
<a xlink:href="_gif_decoder_8cpp.html" target="_top" xlink:title="GifDecoder.cpp">
<polygon fill="none" stroke="black" points="112.5,-59 112.5,-79 195.5,-79 195.5,-59 112.5,-59"/>
<text text-anchor="middle" x="154" y="-66" font-family="FreeSans" font-size="10.00">GifDecoder.cpp</text>
</a>
</g>
<!-- Node6&#45;&gt;Node8 -->
<g id="edge14" class="edge"><title>Node6&#45;&gt;Node8</title>
<path fill="none" stroke="midnightblue" d="M216.664,-111.262C201.528,-101.054 182.248,-88.051 169.097,-79.1817"/>
<polygon fill="midnightblue" stroke="midnightblue" points="214.772,-114.207 225.02,-116.897 218.686,-108.404 214.772,-114.207"/>
</g>
<!-- Node9 -->
<g id="node17" class="node"><title>Node9</title>
<a xlink:href="_prefs_dialog_8cpp.html" target="_top" xlink:title="PrefsDialog.cpp">
<polygon fill="none" stroke="black" points="212.5,-59 212.5,-79 297.5,-79 297.5,-59 212.5,-59"/>
<text text-anchor="middle" x="255" y="-66" font-family="FreeSans" font-size="10.00">PrefsDialog.cpp</text>
</a>
</g>
<!-- Node6&#45;&gt;Node9 -->
<g id="edge16" class="edge"><title>Node6&#45;&gt;Node9</title>
<path fill="none" stroke="midnightblue" d="M245.123,-107.192C247.538,-97.8512 250.321,-87.0912 252.316,-79.3776"/>
<polygon fill="midnightblue" stroke="midnightblue" points="241.728,-106.339 242.613,-116.897 248.505,-108.092 241.728,-106.339"/>
</g>
<!-- Node10&#45;&gt;Node7 -->
<g id="edge20" class="edge"><title>Node10&#45;&gt;Node7</title>
<path fill="none" stroke="midnightblue" d="M330.802,-107.505C324.139,-93.593 314.794,-74.5014 306,-58 299.184,-45.2109 290.798,-30.8004 285.197,-21.3474"/>
<polygon fill="midnightblue" stroke="midnightblue" points="327.676,-109.083 335.133,-116.609 333.998,-106.075 327.676,-109.083"/>
</g>
<!-- Node11 -->
<g id="node22" class="node"><title>Node11</title>
<a xlink:href="_internet_room_8h.html" target="_top" xlink:title="InternetRoom.h">
<polygon fill="none" stroke="black" points="352.5,-59 352.5,-79 435.5,-79 435.5,-59 352.5,-59"/>
<text text-anchor="middle" x="394" y="-66" font-family="FreeSans" font-size="10.00">InternetRoom.h</text>
</a>
</g>
<!-- Node10&#45;&gt;Node11 -->
<g id="edge22" class="edge"><title>Node10&#45;&gt;Node11</title>
<path fill="none" stroke="midnightblue" d="M356.23,-109.568C365.394,-99.7249 376.539,-87.7548 384.338,-79.3776"/>
<polygon fill="midnightblue" stroke="midnightblue" points="353.659,-107.193 349.406,-116.897 358.782,-111.963 353.659,-107.193"/>
</g>
<!-- Node13 -->
<g id="node27" class="node"><title>Node13</title>
<a xlink:href="_network_session_8cpp.html" target="_top" xlink:title="NetworkSession.cpp">
<polygon fill="none" stroke="black" points="445.5,-1 445.5,-21 552.5,-21 552.5,-1 445.5,-1"/>
<text text-anchor="middle" x="499" y="-8" font-family="FreeSans" font-size="10.00">NetworkSession.cpp</text>
</a>
</g>
<!-- Node10&#45;&gt;Node13 -->
<g id="edge30" class="edge"><title>Node10&#45;&gt;Node13</title>
<path fill="none" stroke="midnightblue" d="M381.692,-113.384C401.771,-105.575 425.453,-94.4281 444,-80 465.764,-63.0688 484.114,-35.8346 493.091,-21.1565"/>
<polygon fill="midnightblue" stroke="midnightblue" points="380.302,-110.167 372.163,-116.949 382.755,-116.723 380.302,-110.167"/>
</g>
<!-- Node11&#45;&gt;Node7 -->
<g id="edge24" class="edge"><title>Node11&#45;&gt;Node7</title>
<path fill="none" stroke="midnightblue" d="M364.763,-54.2544C344.25,-43.9086 317.349,-30.3411 299.188,-21.1817"/>
<polygon fill="midnightblue" stroke="midnightblue" points="363.464,-57.519 373.969,-58.8972 366.616,-51.2689 363.464,-57.519"/>
</g>
<!-- Node12 -->
<g id="node25" class="node"><title>Node12</title>
<a xlink:href="_internet_room_8cpp.html" target="_top" xlink:title="InternetRoom.cpp">
<polygon fill="none" stroke="black" points="335.5,-1 335.5,-21 428.5,-21 428.5,-1 335.5,-1"/>
<text text-anchor="middle" x="382" y="-8" font-family="FreeSans" font-size="10.00">InternetRoom.cpp</text>
</a>
</g>
<!-- Node11&#45;&gt;Node12 -->
<g id="edge26" class="edge"><title>Node11&#45;&gt;Node12</title>
<path fill="none" stroke="midnightblue" d="M389.839,-48.8902C387.921,-39.6201 385.726,-29.0083 384.147,-21.3776"/>
<polygon fill="midnightblue" stroke="midnightblue" points="386.456,-49.8137 391.91,-58.8972 393.311,-48.3954 386.456,-49.8137"/>
</g>
<!-- Node11&#45;&gt;Node13 -->
<g id="edge28" class="edge"><title>Node11&#45;&gt;Node13</title>
<path fill="none" stroke="midnightblue" d="M421.204,-53.9728C439.868,-43.6634 464.136,-30.2582 480.568,-21.1817"/>
<polygon fill="midnightblue" stroke="midnightblue" points="419.351,-50.9983 412.29,-58.8972 422.735,-57.1256 419.351,-50.9983"/>
</g>
<!-- Node19 -->
<g id="node40" class="node"><title>Node19</title>
<a xlink:href="_track_compiler_8cpp.html" target="_top" xlink:title="TrackCompiler.cpp">
<polygon fill="none" stroke="black" points="514,-175 514,-195 612,-195 612,-175 514,-175"/>
<text text-anchor="middle" x="563" y="-182" font-family="FreeSans" font-size="10.00">TrackCompiler.cpp</text>
</a>
</g>
<!-- Node18&#45;&gt;Node19 -->
<g id="edge42" class="edge"><title>Node18&#45;&gt;Node19</title>
<path fill="none" stroke="midnightblue" d="M636.109,-227.831C618.544,-217.541 595.801,-204.217 580.379,-195.182"/>
<polygon fill="midnightblue" stroke="midnightblue" points="634.358,-230.862 644.756,-232.897 637.896,-224.822 634.358,-230.862"/>
</g>
<!-- Node20 -->
<g id="node42" class="node"><title>Node20</title>
<a xlink:href="_bundle_8cpp.html" target="_top" xlink:title="Bundle.cpp">
<polygon fill="none" stroke="black" points="629.5,-175 629.5,-195 694.5,-195 694.5,-175 629.5,-175"/>
<text text-anchor="middle" x="662" y="-182" font-family="FreeSans" font-size="10.00">Bundle.cpp</text>
</a>
</g>
<!-- Node18&#45;&gt;Node20 -->
<g id="edge44" class="edge"><title>Node18&#45;&gt;Node20</title>
<path fill="none" stroke="midnightblue" d="M662,-222.89C662,-213.62 662,-203.008 662,-195.378"/>
<polygon fill="midnightblue" stroke="midnightblue" points="658.5,-222.897 662,-232.897 665.5,-222.897 658.5,-222.897"/>
</g>
<!-- Node21 -->
<g id="node44" class="node"><title>Node21</title>
<a xlink:href="_classic_record_file_8cpp.html" target="_top" xlink:title="ClassicRecordFile.cpp">
<polygon fill="none" stroke="black" points="711.5,-175 711.5,-195 824.5,-195 824.5,-175 711.5,-175"/>
<text text-anchor="middle" x="768" y="-182" font-family="FreeSans" font-size="10.00">ClassicRecordFile.cpp</text>
</a>
</g>
<!-- Node18&#45;&gt;Node21 -->
<g id="edge46" class="edge"><title>Node18&#45;&gt;Node21</title>
<path fill="none" stroke="midnightblue" d="M689.464,-227.973C708.305,-217.663 732.804,-204.258 749.392,-195.182"/>
<polygon fill="midnightblue" stroke="midnightblue" points="687.556,-225.027 680.464,-232.897 690.916,-231.167 687.556,-225.027"/>
</g>
<!-- Node22 -->
<g id="node46" class="node"><title>Node22</title>
<a xlink:href="_resource_lib_8cpp.html" target="_top" xlink:title="ResourceLib.cpp">
<polygon fill="none" stroke="black" points="841.5,-175 841.5,-195 930.5,-195 930.5,-175 841.5,-175"/>
<text text-anchor="middle" x="886" y="-182" font-family="FreeSans" font-size="10.00">ResourceLib.cpp</text>
</a>
</g>
<!-- Node18&#45;&gt;Node22 -->
<g id="edge48" class="edge"><title>Node18&#45;&gt;Node22</title>
<path fill="none" stroke="midnightblue" d="M710.534,-230.433C751.519,-219.821 809.43,-204.826 847.338,-195.011"/>
<polygon fill="midnightblue" stroke="midnightblue" points="709.566,-227.068 700.762,-232.963 711.32,-233.845 709.566,-227.068"/>
</g>
</g>
</svg>
