<?xml version="1.0" encoding="UTF-8" standalone="no"?>
<!DOCTYPE svg PUBLIC "-//W3C//DTD SVG 1.1//EN"
 "http://www.w3.org/Graphics/SVG/1.1/DTD/svg11.dtd">
<!-- Generated by graphviz version 2.26.3 (20100126.1600)
 -->
<!-- Title: ResSound.h Pages: 1 -->
<!--zoomable 378 -->
<svg id="main" version="1.1" xmlns="http://www.w3.org/2000/svg" xmlns:xlink="http://www.w3.org/1999/xlink" xml:space="preserve" onload="init(evt)">
<style type="text/css"><![CDATA[
.edge:hover path { stroke: red; }
.edge:hover polygon { stroke: red; fill: red; }
]]></style>
<script type="text/javascript"><![CDATA[
var edges = document.getElementsByTagName('g');
if (edges && edges.length) {
  for (var i=0;i<edges.length;i++) {
    if (edges[i].id.substr(0,4)=='edge') {
      edges[i].setAttribute('class','edge');
    }
  }
}
]]></script>
        <defs>
                <circle id="rim" cx="0" cy="0" r="7"/>
                <circle id="rim2" cx="0" cy="0" r="3.5"/>
                <g id="zoomPlus">
                        <use xlink:href="#rim" fill="#404040">
                                <set attributeName="fill" to="#808080" begin="zoomplus.mouseover" end="zoomplus.mouseout"/>
                        </use>
                        <path d="M-4,0h8M0,-4v8" fill="none" stroke="white" stroke-width="1.5" pointer-events="none"/>
                </g>
                <g id="zoomMin">
                        <use xlink:href="#rim" fill="#404040">
                                <set attributeName="fill" to="#808080" begin="zoomminus.mouseover" end="zoomminus.mouseout"/>
                        </use>
                        <path d="M-4,0h8" fill="none" stroke="white" stroke-width="1.5" pointer-events="none"/>
                </g>
                <g id="dirArrow">
                        <path fill="none" stroke="white" stroke-width="1.5" d="M0,-3.0v7 M-2.5,-0.5L0,-3.0L2.5,-0.5"/>
                </g>
               <g id="resetDef">
                       <use xlink:href="#rim2" fill="#404040">
                               <set attributeName="fill" to="#808080" begin="reset.mouseover" end="reset.mouseout"/>
                       </use>
               </g>
        </defs>

<script type="text/javascript">
var viewWidth = 1888;
var viewHeight = 378;
var sectionId = 'dynsection-1';
</script>
<script xlink:href="svgpan.js"/>
<svg id="graph" class="graph">
<g id="viewport">
<title>ResSound.h</title>
<!-- Node1 -->
<g id="node1" class="node"><title>Node1</title>
<polygon fill="#bfbfbf" stroke="black" points="1402.5,-349 1402.5,-369 1471.5,-369 1471.5,-349 1402.5,-349"/>
<text text-anchor="middle" x="1437" y="-356" font-family="FreeSans" font-size="10.00">ResSound.h</text>
</g>
<!-- Node2 -->
<g id="node3" class="node"><title>Node2</title>
<a xlink:href="_resource_lib_8h.html" target="_top" xlink:title="ResourceLib.h">
<polygon fill="none" stroke="black" points="1349.5,-291 1349.5,-311 1428.5,-311 1428.5,-291 1349.5,-291"/>
<text text-anchor="middle" x="1389" y="-298" font-family="FreeSans" font-size="10.00">ResourceLib.h</text>
</a>
</g>
<!-- Node1&#45;&gt;Node2 -->
<g id="edge2" class="edge"><title>Node1&#45;&gt;Node2</title>
<path fill="none" stroke="midnightblue" d="M1422.09,-340.981C1414.04,-331.252 1404.38,-319.589 1397.59,-311.378"/>
<polygon fill="midnightblue" stroke="midnightblue" points="1419.57,-343.425 1428.64,-348.897 1424.96,-338.962 1419.57,-343.425"/>
</g>
<!-- Node46 -->
<g id="node103" class="node"><title>Node46</title>
<a xlink:href="_res_sound_8cpp.html" target="_top" xlink:title="ResSound.cpp">
<polygon fill="none" stroke="black" points="1446,-291 1446,-311 1526,-311 1526,-291 1446,-291"/>
<text text-anchor="middle" x="1486" y="-298" font-family="FreeSans" font-size="10.00">ResSound.cpp</text>
</a>
</g>
<!-- Node1&#45;&gt;Node46 -->
<g id="edge114" class="edge"><title>Node1&#45;&gt;Node46</title>
<path fill="none" stroke="midnightblue" d="M1452.22,-340.981C1460.44,-331.252 1470.3,-319.589 1477.23,-311.378"/>
<polygon fill="midnightblue" stroke="midnightblue" points="1449.32,-339 1445.54,-348.897 1454.66,-343.517 1449.32,-339"/>
</g>
<!-- Node3 -->
<g id="node5" class="node"><title>Node3</title>
<a xlink:href="_audio_settings_scene_8cpp.html" target="_top" xlink:title="AudioSettingsScene.cpp">
<polygon fill="none" stroke="black" points="679.5,-233 679.5,-253 802.5,-253 802.5,-233 679.5,-233"/>
<text text-anchor="middle" x="741" y="-240" font-family="FreeSans" font-size="10.00">AudioSettingsScene.cpp</text>
</a>
</g>
<!-- Node2&#45;&gt;Node3 -->
<g id="edge4" class="edge"><title>Node2&#45;&gt;Node3</title>
<path fill="none" stroke="midnightblue" d="M1339.17,-298.206C1238.92,-292.309 1005.8,-277.193 811,-254 808.313,-253.68 805.57,-253.334 802.802,-252.968"/>
<polygon fill="midnightblue" stroke="midnightblue" points="1339.12,-301.709 1349.3,-298.798 1339.53,-294.721 1339.12,-301.709"/>
</g>
<!-- Node4 -->
<g id="node7" class="node"><title>Node4</title>
<a xlink:href="_sprite_handle_8h.html" target="_top" xlink:title="SpriteHandle.h">
<polygon fill="none" stroke="black" points="820,-233 820,-253 900,-253 900,-233 820,-233"/>
<text text-anchor="middle" x="860" y="-240" font-family="FreeSans" font-size="10.00">SpriteHandle.h</text>
</a>
</g>
<!-- Node2&#45;&gt;Node4 -->
<g id="edge6" class="edge"><title>Node2&#45;&gt;Node4</title>
<path fill="none" stroke="midnightblue" d="M1339.1,-298.147C1251.59,-292.691 1064.91,-279.035 909,-254 906.073,-253.53 903.059,-252.991 900.034,-252.409"/>
<polygon fill="midnightblue" stroke="midnightblue" points="1339.08,-301.652 1349.28,-298.772 1339.51,-294.665 1339.08,-301.652"/>
</g>
<!-- Node18 -->
<g id="node37" class="node"><title>Node18</title>
<a xlink:href="_free_element_base_8h.html" target="_top" xlink:title="FreeElementBase.h">
<polygon fill="none" stroke="black" points="917.5,-233 917.5,-253 1018.5,-253 1018.5,-233 917.5,-233"/>
<text text-anchor="middle" x="968" y="-240" font-family="FreeSans" font-size="10.00">FreeElementBase.h</text>
</a>
</g>
<!-- Node2&#45;&gt;Node18 -->
<g id="edge38" class="edge"><title>Node2&#45;&gt;Node18</title>
<path fill="none" stroke="midnightblue" d="M1339,-294.112C1258.27,-282.99 1100.07,-261.195 1018.82,-250.001"/>
<polygon fill="midnightblue" stroke="midnightblue" points="1339.01,-297.646 1349.39,-295.544 1339.96,-290.711 1339.01,-297.646"/>
</g>
<!-- Node34 -->
<g id="node76" class="node"><title>Node34</title>
<a xlink:href="_bitmap_surface_8h.html" target="_top" xlink:title="BitmapSurface.h">
<polygon fill="none" stroke="black" points="1344.5,-233 1344.5,-253 1433.5,-253 1433.5,-233 1344.5,-233"/>
<text text-anchor="middle" x="1389" y="-240" font-family="FreeSans" font-size="10.00">BitmapSurface.h</text>
</a>
</g>
<!-- Node2&#45;&gt;Node34 -->
<g id="edge84" class="edge"><title>Node2&#45;&gt;Node34</title>
<path fill="none" stroke="midnightblue" d="M1389,-280.89C1389,-271.62 1389,-261.008 1389,-253.378"/>
<polygon fill="midnightblue" stroke="midnightblue" points="1385.5,-280.897 1389,-290.897 1392.5,-280.897 1385.5,-280.897"/>
</g>
<!-- Node40 -->
<g id="node90" class="node"><title>Node40</title>
<a xlink:href="_free_element_base_renderer_8h.html" target="_top" xlink:title="FreeElementBaseRenderer.h">
<polygon fill="none" stroke="black" points="1451,-233 1451,-253 1591,-253 1591,-233 1451,-233"/>
<text text-anchor="middle" x="1521" y="-240" font-family="FreeSans" font-size="10.00">FreeElementBaseRenderer.h</text>
</a>
</g>
<!-- Node2&#45;&gt;Node40 -->
<g id="edge100" class="edge"><title>Node2&#45;&gt;Node40</title>
<path fill="none" stroke="midnightblue" d="M1421.29,-286.813C1444.98,-276.401 1476.61,-262.507 1497.83,-253.182"/>
<polygon fill="midnightblue" stroke="midnightblue" points="1419.74,-283.67 1411.99,-290.897 1422.56,-290.079 1419.74,-283.67"/>
</g>
<!-- Node44 -->
<g id="node99" class="node"><title>Node44</title>
<a xlink:href="_res_actor_8cpp.html" target="_top" xlink:title="ResActor.cpp">
<polygon fill="none" stroke="black" points="1608.5,-233 1608.5,-253 1683.5,-253 1683.5,-233 1608.5,-233"/>
<text text-anchor="middle" x="1646" y="-240" font-family="FreeSans" font-size="10.00">ResActor.cpp</text>
</a>
</g>
<!-- Node2&#45;&gt;Node44 -->
<g id="edge110" class="edge"><title>Node2&#45;&gt;Node44</title>
<path fill="none" stroke="midnightblue" d="M1438.63,-289.647C1511.05,-273.424 1530.8,-269.913 1600,-254 1602.72,-253.374 1605.53,-252.721 1608.36,-252.058"/>
<polygon fill="midnightblue" stroke="midnightblue" points="1437.54,-286.305 1428.55,-291.911 1439.07,-293.135 1437.54,-286.305"/>
</g>
<!-- Node45 -->
<g id="node101" class="node"><title>Node45</title>
<a xlink:href="_resource_lib_8cpp.html" target="_top" xlink:title="ResourceLib.cpp">
<polygon fill="none" stroke="black" points="1700.5,-233 1700.5,-253 1789.5,-253 1789.5,-233 1700.5,-233"/>
<text text-anchor="middle" x="1745" y="-240" font-family="FreeSans" font-size="10.00">ResourceLib.cpp</text>
</a>
</g>
<!-- Node2&#45;&gt;Node45 -->
<g id="edge112" class="edge"><title>Node2&#45;&gt;Node45</title>
<path fill="none" stroke="midnightblue" d="M1438.81,-289.774C1551.3,-269.43 1582.43,-273.084 1692,-254 1694.68,-253.532 1697.44,-253.03 1700.22,-252.505"/>
<polygon fill="midnightblue" stroke="midnightblue" points="1437.96,-286.37 1428.76,-291.615 1439.23,-293.255 1437.96,-286.37"/>
</g>
<!-- Node5 -->
<g id="node9" class="node"><title>Node5</title>
<a xlink:href="_observer_8h.html" target="_top" xlink:title="Observer.h">
<polygon fill="none" stroke="black" points="330,-175 330,-195 394,-195 394,-175 330,-175"/>
<text text-anchor="middle" x="362" y="-182" font-family="FreeSans" font-size="10.00">Observer.h</text>
</a>
</g>
<!-- Node4&#45;&gt;Node5 -->
<g id="edge8" class="edge"><title>Node4&#45;&gt;Node5</title>
<path fill="none" stroke="midnightblue" d="M810.013,-232.025C632.006,-205.009 582.902,-223.994 409,-196 404.201,-195.228 399.164,-194.24 394.244,-193.176"/>
<polygon fill="midnightblue" stroke="midnightblue" points="809.554,-235.495 819.971,-233.563 810.623,-228.578 809.554,-235.495"/>
</g>
<!-- Node16 -->
<g id="node33" class="node"><title>Node16</title>
<a xlink:href="_obj_fac1_8cpp.html" target="_top" xlink:title="ObjFac1.cpp">
<polygon fill="none" stroke="black" points="893.5,-117 893.5,-137 964.5,-137 964.5,-117 893.5,-117"/>
<text text-anchor="middle" x="929" y="-124" font-family="FreeSans" font-size="10.00">ObjFac1.cpp</text>
</a>
</g>
<!-- Node4&#45;&gt;Node16 -->
<g id="edge34" class="edge"><title>Node4&#45;&gt;Node16</title>
<path fill="none" stroke="midnightblue" d="M871.406,-223.825C886.206,-198.944 911.489,-156.438 922.989,-137.106"/>
<polygon fill="midnightblue" stroke="midnightblue" points="868.227,-222.322 866.123,-232.706 874.244,-225.901 868.227,-222.322"/>
</g>
<!-- Node17 -->
<g id="node35" class="node"><title>Node17</title>
<a xlink:href="_sprite_handle_8cpp.html" target="_top" xlink:title="SpriteHandle.cpp">
<polygon fill="none" stroke="black" points="417.5,-175 417.5,-195 508.5,-195 508.5,-175 417.5,-175"/>
<text text-anchor="middle" x="463" y="-182" font-family="FreeSans" font-size="10.00">SpriteHandle.cpp</text>
</a>
</g>
<!-- Node4&#45;&gt;Node17 -->
<g id="edge36" class="edge"><title>Node4&#45;&gt;Node17</title>
<path fill="none" stroke="midnightblue" d="M809.98,-231.96C679.551,-209.909 643.76,-216.638 517,-196 514.261,-195.554 511.45,-195.068 508.618,-194.557"/>
<polygon fill="midnightblue" stroke="midnightblue" points="809.505,-235.43 819.953,-233.671 810.689,-228.531 809.505,-235.43"/>
</g>
<!-- Node6 -->
<g id="node11" class="node"><title>Node6</title>
<a xlink:href="_game_scene_8h.html" target="_top" xlink:title="GameScene.h">
<polygon fill="none" stroke="black" points="180,-117 180,-137 258,-137 258,-117 180,-117"/>
<text text-anchor="middle" x="219" y="-124" font-family="FreeSans" font-size="10.00">GameScene.h</text>
</a>
</g>
<!-- Node5&#45;&gt;Node6 -->
<g id="edge10" class="edge"><title>Node5&#45;&gt;Node6</title>
<path fill="none" stroke="midnightblue" d="M327.704,-171.09C301.961,-160.649 267.299,-146.59 244.103,-137.182"/>
<polygon fill="midnightblue" stroke="midnightblue" points="326.509,-174.382 337.091,-174.897 329.14,-167.895 326.509,-174.382"/>
</g>
<!-- Node13 -->
<g id="node26" class="node"><title>Node13</title>
<a xlink:href="_client_app_8h.html" target="_top" xlink:title="ClientApp.h">
<polygon fill="none" stroke="black" points="324,-117 324,-137 390,-137 390,-117 324,-117"/>
<text text-anchor="middle" x="357" y="-124" font-family="FreeSans" font-size="10.00">ClientApp.h</text>
</a>
</g>
<!-- Node5&#45;&gt;Node13 -->
<g id="edge26" class="edge"><title>Node5&#45;&gt;Node13</title>
<path fill="none" stroke="midnightblue" d="M360.266,-164.89C359.467,-155.62 358.552,-145.008 357.895,-137.378"/>
<polygon fill="midnightblue" stroke="midnightblue" points="356.783,-165.235 361.129,-174.897 363.757,-164.633 356.783,-165.235"/>
</g>
<!-- Node15 -->
<g id="node31" class="node"><title>Node15</title>
<a xlink:href="_observer_8cpp.html" target="_top" xlink:title="Observer.cpp">
<polygon fill="none" stroke="black" points="408,-117 408,-137 482,-137 482,-117 408,-117"/>
<text text-anchor="middle" x="445" y="-124" font-family="FreeSans" font-size="10.00">Observer.cpp</text>
</a>
</g>
<!-- Node5&#45;&gt;Node15 -->
<g id="edge32" class="edge"><title>Node5&#45;&gt;Node15</title>
<path fill="none" stroke="midnightblue" d="M384.932,-168.975C399.478,-158.811 417.856,-145.968 430.43,-137.182"/>
<polygon fill="midnightblue" stroke="midnightblue" points="382.65,-166.3 376.457,-174.897 386.659,-172.038 382.65,-166.3"/>
</g>
<!-- Node7 -->
<g id="node13" class="node"><title>Node7</title>
<a xlink:href="_demo_game_scene_8h.html" target="_top" xlink:title="DemoGameScene.h">
<polygon fill="none" stroke="black" points="5,-59 5,-79 109,-79 109,-59 5,-59"/>
<text text-anchor="middle" x="57" y="-66" font-family="FreeSans" font-size="10.00">DemoGameScene.h</text>
</a>
</g>
<!-- Node6&#45;&gt;Node7 -->
<g id="edge12" class="edge"><title>Node6&#45;&gt;Node7</title>
<path fill="none" stroke="midnightblue" d="M181.268,-113.491C151.896,-102.975 111.781,-88.6131 85.1662,-79.0842"/>
<polygon fill="midnightblue" stroke="midnightblue" points="180.187,-116.822 190.782,-116.897 182.547,-110.231 180.187,-116.822"/>
</g>
<!-- Node10 -->
<g id="node19" class="node"><title>Node10</title>
<a xlink:href="_play_game_scene_8h.html" target="_top" xlink:title="PlayGameScene.h">
<polygon fill="none" stroke="black" points="232.5,-59 232.5,-79 329.5,-79 329.5,-59 232.5,-59"/>
<text text-anchor="middle" x="281" y="-66" font-family="FreeSans" font-size="10.00">PlayGameScene.h</text>
</a>
</g>
<!-- Node6&#45;&gt;Node10 -->
<g id="edge18" class="edge"><title>Node6&#45;&gt;Node10</title>
<path fill="none" stroke="midnightblue" d="M237.322,-109.86C247.902,-99.9622 260.863,-87.8377 269.907,-79.3776"/>
<polygon fill="midnightblue" stroke="midnightblue" points="234.711,-107.51 229.8,-116.897 239.493,-112.622 234.711,-107.51"/>
</g>
<!-- Node12 -->
<g id="node24" class="node"><title>Node12</title>
<a xlink:href="_game_scene_8cpp.html" target="_top" xlink:title="GameScene.cpp">
<polygon fill="none" stroke="black" points="126.5,-59 126.5,-79 215.5,-79 215.5,-59 126.5,-59"/>
<text text-anchor="middle" x="171" y="-66" font-family="FreeSans" font-size="10.00">GameScene.cpp</text>
</a>
</g>
<!-- Node6&#45;&gt;Node12 -->
<g id="edge24" class="edge"><title>Node6&#45;&gt;Node12</title>
<path fill="none" stroke="midnightblue" d="M204.088,-108.981C196.036,-99.2522 186.384,-87.5889 179.588,-79.3776"/>
<polygon fill="midnightblue" stroke="midnightblue" points="201.567,-111.425 210.639,-116.897 206.96,-106.962 201.567,-111.425"/>
</g>
<!-- Node8 -->
<g id="node15" class="node"><title>Node8</title>
<a xlink:href="_client_app_8cpp.html" target="_top" xlink:title="ClientApp.cpp">
<polygon fill="none" stroke="black" points="286.5,-1 286.5,-21 363.5,-21 363.5,-1 286.5,-1"/>
<text text-anchor="middle" x="325" y="-8" font-family="FreeSans" font-size="10.00">ClientApp.cpp</text>
</a>
</g>
<!-- Node7&#45;&gt;Node8 -->
<g id="edge14" class="edge"><title>Node7&#45;&gt;Node8</title>
<path fill="none" stroke="midnightblue" d="M115.572,-56.8824C160.156,-47.5766 223.012,-34.2807 278,-22 280.699,-21.3972 283.483,-20.7671 286.286,-20.1266"/>
<polygon fill="midnightblue" stroke="midnightblue" points="114.856,-53.4562 105.781,-58.9232 116.285,-60.3089 114.856,-53.4562"/>
</g>
<!-- Node9 -->
<g id="node17" class="node"><title>Node9</title>
<a xlink:href="_demo_game_scene_8cpp.html" target="_top" xlink:title="DemoGameScene.cpp">
<polygon fill="none" stroke="black" points="0,-1 0,-21 114,-21 114,-1 0,-1"/>
<text text-anchor="middle" x="57" y="-8" font-family="FreeSans" font-size="10.00">DemoGameScene.cpp</text>
</a>
</g>
<!-- Node7&#45;&gt;Node9 -->
<g id="edge16" class="edge"><title>Node7&#45;&gt;Node9</title>
<path fill="none" stroke="midnightblue" d="M57,-48.8902C57,-39.6201 57,-29.0083 57,-21.3776"/>
<polygon fill="midnightblue" stroke="midnightblue" points="53.5001,-48.8971 57,-58.8972 60.5001,-48.8972 53.5001,-48.8971"/>
</g>
<!-- Node10&#45;&gt;Node8 -->
<g id="edge20" class="edge"><title>Node10&#45;&gt;Node8</title>
<path fill="none" stroke="midnightblue" d="M294.894,-50.6856C302.229,-41.0169 310.961,-29.5059 317.127,-21.3776"/>
<polygon fill="midnightblue" stroke="midnightblue" points="291.92,-48.8149 288.664,-58.8972 297.497,-53.0456 291.92,-48.8149"/>
</g>
<!-- Node11 -->
<g id="node22" class="node"><title>Node11</title>
<a xlink:href="_play_game_scene_8cpp.html" target="_top" xlink:title="PlayGameScene.cpp">
<polygon fill="none" stroke="black" points="162.5,-1 162.5,-21 269.5,-21 269.5,-1 162.5,-1"/>
<text text-anchor="middle" x="216" y="-8" font-family="FreeSans" font-size="10.00">PlayGameScene.cpp</text>
</a>
</g>
<!-- Node10&#45;&gt;Node11 -->
<g id="edge22" class="edge"><title>Node10&#45;&gt;Node11</title>
<path fill="none" stroke="midnightblue" d="M262.117,-52.1504C250.966,-42.2003 237.204,-29.9207 227.63,-21.3776"/>
<polygon fill="midnightblue" stroke="midnightblue" points="259.886,-54.8508 269.678,-58.8972 264.547,-49.6278 259.886,-54.8508"/>
</g>
<!-- Node13&#45;&gt;Node8 -->
<g id="edge28" class="edge"><title>Node13&#45;&gt;Node8</title>
<path fill="none" stroke="midnightblue" d="M351.46,-106.859C347.674,-93.0968 342.538,-74.4444 338,-58 334.486,-45.2688 330.428,-30.6009 327.793,-21.0842"/>
<polygon fill="midnightblue" stroke="midnightblue" points="348.144,-107.998 354.171,-116.712 354.893,-106.142 348.144,-107.998"/>
</g>
<!-- Node14 -->
<g id="node29" class="node"><title>Node14</title>
<a xlink:href="main_8cpp.html" target="_top" xlink:title="main.cpp">
<polygon fill="none" stroke="black" points="385,-59 385,-79 441,-79 441,-59 385,-59"/>
<text text-anchor="middle" x="413" y="-66" font-family="FreeSans" font-size="10.00">main.cpp</text>
</a>
</g>
<!-- Node13&#45;&gt;Node14 -->
<g id="edge30" class="edge"><title>Node13&#45;&gt;Node14</title>
<path fill="none" stroke="midnightblue" d="M373.831,-109.568C383.335,-99.7249 394.892,-87.7548 402.98,-79.3776"/>
<polygon fill="midnightblue" stroke="midnightblue" points="371.183,-107.272 366.754,-116.897 376.218,-112.134 371.183,-107.272"/>
</g>
<!-- Node19 -->
<g id="node39" class="node"><title>Node19</title>
<a xlink:href="_ball_element_8h.html" target="_top" xlink:title="BallElement.h">
<polygon fill="none" stroke="black" points="526,-175 526,-195 602,-195 602,-175 526,-175"/>
<text text-anchor="middle" x="564" y="-182" font-family="FreeSans" font-size="10.00">BallElement.h</text>
</a>
</g>
<!-- Node18&#45;&gt;Node19 -->
<g id="edge40" class="edge"><title>Node18&#45;&gt;Node19</title>
<path fill="none" stroke="midnightblue" d="M907.114,-231.785C775.381,-212.111 739.161,-218.668 611,-196 608.112,-195.489 605.135,-194.912 602.147,-194.297"/>
<polygon fill="midnightblue" stroke="midnightblue" points="906.775,-235.274 917.186,-233.312 907.824,-228.353 906.775,-235.274"/>
</g>
<!-- Node21 -->
<g id="node44" class="node"><title>Node21</title>
<a xlink:href="_bumper_gate_8h.html" target="_top" xlink:title="BumperGate.h">
<polygon fill="none" stroke="black" points="619.5,-175 619.5,-195 698.5,-195 698.5,-175 619.5,-175"/>
<text text-anchor="middle" x="659" y="-182" font-family="FreeSans" font-size="10.00">BumperGate.h</text>
</a>
</g>
<!-- Node18&#45;&gt;Node21 -->
<g id="edge46" class="edge"><title>Node18&#45;&gt;Node21</title>
<path fill="none" stroke="midnightblue" d="M907.392,-231.723C817.592,-215.52 793.218,-213.551 707,-196 704.235,-195.437 701.386,-194.837 698.519,-194.218"/>
<polygon fill="midnightblue" stroke="midnightblue" points="907.01,-235.211 917.474,-233.553 908.26,-228.324 907.01,-235.211"/>
</g>
<!-- Node23 -->
<g id="node49" class="node"><title>Node23</title>
<a xlink:href="_hover_render_8h.html" target="_top" xlink:title="HoverRender.h">
<polygon fill="none" stroke="black" points="715.5,-175 715.5,-195 796.5,-195 796.5,-175 715.5,-175"/>
<text text-anchor="middle" x="756" y="-182" font-family="FreeSans" font-size="10.00">HoverRender.h</text>
</a>
</g>
<!-- Node18&#45;&gt;Node23 -->
<g id="edge52" class="edge"><title>Node18&#45;&gt;Node23</title>
<path fill="none" stroke="midnightblue" d="M921.109,-230.171C882.476,-219.602 828.446,-204.82 792.859,-195.084"/>
<polygon fill="midnightblue" stroke="midnightblue" points="920.503,-233.634 931.072,-232.897 922.351,-226.882 920.503,-233.634"/>
</g>
<!-- Node25 -->
<g id="node54" class="node"><title>Node25</title>
<a xlink:href="_mine_8h.html" target="_top" xlink:title="Mine.h">
<polygon fill="none" stroke="black" points="813.5,-175 813.5,-195 858.5,-195 858.5,-175 813.5,-175"/>
<text text-anchor="middle" x="836" y="-182" font-family="FreeSans" font-size="10.00">Mine.h</text>
</a>
</g>
<!-- Node18&#45;&gt;Node25 -->
<g id="edge58" class="edge"><title>Node18&#45;&gt;Node25</title>
<path fill="none" stroke="midnightblue" d="M935.652,-228.787C911.798,-218.305 879.935,-204.305 858.729,-194.987"/>
<polygon fill="midnightblue" stroke="midnightblue" points="934.444,-232.079 945.007,-232.897 937.26,-225.67 934.444,-232.079"/>
</g>
<!-- Node27 -->
<g id="node59" class="node"><title>Node27</title>
<a xlink:href="_missile_8h.html" target="_top" xlink:title="Missile.h">
<polygon fill="none" stroke="black" points="913.5,-175 913.5,-195 968.5,-195 968.5,-175 913.5,-175"/>
<text text-anchor="middle" x="941" y="-182" font-family="FreeSans" font-size="10.00">Missile.h</text>
</a>
</g>
<!-- Node18&#45;&gt;Node27 -->
<g id="edge64" class="edge"><title>Node18&#45;&gt;Node27</title>
<path fill="none" stroke="midnightblue" d="M959.059,-223.793C954.647,-214.315 949.499,-203.257 945.831,-195.378"/>
<polygon fill="midnightblue" stroke="midnightblue" points="955.904,-225.308 963.297,-232.897 962.25,-222.354 955.904,-225.308"/>
</g>
<!-- Node29 -->
<g id="node64" class="node"><title>Node29</title>
<a xlink:href="_test_element_8h.html" target="_top" xlink:title="TestElement.h">
<polygon fill="none" stroke="black" points="985.5,-175 985.5,-195 1064.5,-195 1064.5,-175 985.5,-175"/>
<text text-anchor="middle" x="1025" y="-182" font-family="FreeSans" font-size="10.00">TestElement.h</text>
</a>
</g>
<!-- Node18&#45;&gt;Node29 -->
<g id="edge70" class="edge"><title>Node18&#45;&gt;Node29</title>
<path fill="none" stroke="midnightblue" d="M985.131,-225.568C994.805,-215.725 1006.57,-203.755 1014.8,-195.378"/>
<polygon fill="midnightblue" stroke="midnightblue" points="982.442,-223.312 977.929,-232.897 987.434,-228.218 982.442,-223.312"/>
</g>
<!-- Node31 -->
<g id="node69" class="node"><title>Node31</title>
<a xlink:href="_power_up_8h.html" target="_top" xlink:title="PowerUp.h">
<polygon fill="none" stroke="black" points="1081.5,-175 1081.5,-195 1146.5,-195 1146.5,-175 1081.5,-175"/>
<text text-anchor="middle" x="1114" y="-182" font-family="FreeSans" font-size="10.00">PowerUp.h</text>
</a>
</g>
<!-- Node18&#45;&gt;Node31 -->
<g id="edge76" class="edge"><title>Node18&#45;&gt;Node31</title>
<path fill="none" stroke="midnightblue" d="M1003.02,-229.09C1029.3,-218.649 1064.69,-204.59 1088.37,-195.182"/>
<polygon fill="midnightblue" stroke="midnightblue" points="1001.43,-225.952 993.431,-232.897 1004.02,-232.458 1001.43,-225.952"/>
</g>
<!-- Node33 -->
<g id="node74" class="node"><title>Node33</title>
<a xlink:href="_free_element_base_8cpp.html" target="_top" xlink:title="FreeElementBase.cpp">
<polygon fill="none" stroke="black" points="1164,-175 1164,-195 1276,-195 1276,-175 1164,-175"/>
<text text-anchor="middle" x="1220" y="-182" font-family="FreeSans" font-size="10.00">FreeElementBase.cpp</text>
</a>
</g>
<!-- Node18&#45;&gt;Node33 -->
<g id="edge82" class="edge"><title>Node18&#45;&gt;Node33</title>
<path fill="none" stroke="midnightblue" d="M1021.44,-230.701C1067.61,-220.075 1133.5,-204.909 1176.5,-195.011"/>
<polygon fill="midnightblue" stroke="midnightblue" points="1020.57,-227.31 1011.61,-232.963 1022.14,-234.131 1020.57,-227.31"/>
</g>
<!-- Node19&#45;&gt;Node16 -->
<g id="edge44" class="edge"><title>Node19&#45;&gt;Node16</title>
<path fill="none" stroke="midnightblue" d="M612.212,-173.924C733.609,-152.428 767.517,-160.327 885,-138 887.63,-137.5 890.338,-136.939 893.056,-136.342"/>
<polygon fill="midnightblue" stroke="midnightblue" points="611.374,-170.519 602.153,-175.736 612.615,-177.408 611.374,-170.519"/>
</g>
<!-- Node20 -->
<g id="node41" class="node"><title>Node20</title>
<a xlink:href="_ball_element_8cpp.html" target="_top" xlink:title="BallElement.cpp">
<polygon fill="none" stroke="black" points="500,-117 500,-137 586,-137 586,-117 500,-117"/>
<text text-anchor="middle" x="543" y="-124" font-family="FreeSans" font-size="10.00">BallElement.cpp</text>
</a>
</g>
<!-- Node19&#45;&gt;Node20 -->
<g id="edge42" class="edge"><title>Node19&#45;&gt;Node20</title>
<path fill="none" stroke="midnightblue" d="M556.937,-165.493C553.53,-156.083 549.58,-145.174 546.757,-137.378"/>
<polygon fill="midnightblue" stroke="midnightblue" points="553.647,-166.686 560.342,-174.897 560.229,-164.303 553.647,-166.686"/>
</g>
<!-- Node21&#45;&gt;Node16 -->
<g id="edge50" class="edge"><title>Node21&#45;&gt;Node16</title>
<path fill="none" stroke="midnightblue" d="M708.474,-173.723C787.58,-156.866 809.348,-155.097 885,-138 887.765,-137.375 890.622,-136.708 893.491,-136.024"/>
<polygon fill="midnightblue" stroke="midnightblue" points="707.578,-170.335 698.535,-175.855 709.047,-177.179 707.578,-170.335"/>
</g>
<!-- Node22 -->
<g id="node46" class="node"><title>Node22</title>
<a xlink:href="_bumper_gate_8cpp.html" target="_top" xlink:title="BumperGate.cpp">
<polygon fill="none" stroke="black" points="603.5,-117 603.5,-137 692.5,-137 692.5,-117 603.5,-117"/>
<text text-anchor="middle" x="648" y="-124" font-family="FreeSans" font-size="10.00">BumperGate.cpp</text>
</a>
</g>
<!-- Node21&#45;&gt;Node22 -->
<g id="edge48" class="edge"><title>Node21&#45;&gt;Node22</title>
<path fill="none" stroke="midnightblue" d="M655.186,-164.89C653.428,-155.62 651.415,-145.008 649.968,-137.378"/>
<polygon fill="midnightblue" stroke="midnightblue" points="651.782,-165.724 657.084,-174.897 658.659,-164.42 651.782,-165.724"/>
</g>
<!-- Node23&#45;&gt;Node16 -->
<g id="edge56" class="edge"><title>Node23&#45;&gt;Node16</title>
<path fill="none" stroke="midnightblue" d="M795.886,-171.628C827.287,-161.1 870.375,-146.654 898.921,-137.084"/>
<polygon fill="midnightblue" stroke="midnightblue" points="794.503,-168.4 786.134,-174.897 796.728,-175.037 794.503,-168.4"/>
</g>
<!-- Node24 -->
<g id="node51" class="node"><title>Node24</title>
<a xlink:href="_hover_render_8cpp.html" target="_top" xlink:title="HoverRender.cpp">
<polygon fill="none" stroke="black" points="710,-117 710,-137 802,-137 802,-117 710,-117"/>
<text text-anchor="middle" x="756" y="-124" font-family="FreeSans" font-size="10.00">HoverRender.cpp</text>
</a>
</g>
<!-- Node23&#45;&gt;Node24 -->
<g id="edge54" class="edge"><title>Node23&#45;&gt;Node24</title>
<path fill="none" stroke="midnightblue" d="M756,-164.89C756,-155.62 756,-145.008 756,-137.378"/>
<polygon fill="midnightblue" stroke="midnightblue" points="752.5,-164.897 756,-174.897 759.5,-164.897 752.5,-164.897"/>
</g>
<!-- Node25&#45;&gt;Node16 -->
<g id="edge62" class="edge"><title>Node25&#45;&gt;Node16</title>
<path fill="none" stroke="midnightblue" d="M860.777,-169.547C877.214,-159.297 898.32,-146.134 912.674,-137.182"/>
<polygon fill="midnightblue" stroke="midnightblue" points="858.832,-166.636 852.199,-174.897 862.537,-172.575 858.832,-166.636"/>
</g>
<!-- Node26 -->
<g id="node56" class="node"><title>Node26</title>
<a xlink:href="_mine_8cpp.html" target="_top" xlink:title="Mine.cpp">
<polygon fill="none" stroke="black" points="820,-117 820,-137 876,-137 876,-117 820,-117"/>
<text text-anchor="middle" x="848" y="-124" font-family="FreeSans" font-size="10.00">Mine.cpp</text>
</a>
</g>
<!-- Node25&#45;&gt;Node26 -->
<g id="edge60" class="edge"><title>Node25&#45;&gt;Node26</title>
<path fill="none" stroke="midnightblue" d="M840.161,-164.89C842.079,-155.62 844.274,-145.008 845.853,-137.378"/>
<polygon fill="midnightblue" stroke="midnightblue" points="836.689,-164.395 838.09,-174.897 843.544,-165.814 836.689,-164.395"/>
</g>
<!-- Node27&#45;&gt;Node16 -->
<g id="edge68" class="edge"><title>Node27&#45;&gt;Node16</title>
<path fill="none" stroke="midnightblue" d="M936.839,-164.89C934.921,-155.62 932.726,-145.008 931.147,-137.378"/>
<polygon fill="midnightblue" stroke="midnightblue" points="933.456,-165.814 938.91,-174.897 940.311,-164.395 933.456,-165.814"/>
</g>
<!-- Node28 -->
<g id="node61" class="node"><title>Node28</title>
<a xlink:href="_missile_8cpp.html" target="_top" xlink:title="Missile.cpp">
<polygon fill="none" stroke="black" points="981.5,-117 981.5,-137 1046.5,-137 1046.5,-117 981.5,-117"/>
<text text-anchor="middle" x="1014" y="-124" font-family="FreeSans" font-size="10.00">Missile.cpp</text>
</a>
</g>
<!-- Node27&#45;&gt;Node28 -->
<g id="edge66" class="edge"><title>Node27&#45;&gt;Node28</title>
<path fill="none" stroke="midnightblue" d="M961.843,-168.44C974.43,-158.439 990.082,-146.004 1000.94,-137.378"/>
<polygon fill="midnightblue" stroke="midnightblue" points="959.368,-165.936 953.716,-174.897 963.722,-171.417 959.368,-165.936"/>
</g>
<!-- Node29&#45;&gt;Node16 -->
<g id="edge72" class="edge"><title>Node29&#45;&gt;Node16</title>
<path fill="none" stroke="midnightblue" d="M999.423,-169.547C982.457,-159.297 960.67,-146.134 945.852,-137.182"/>
<polygon fill="midnightblue" stroke="midnightblue" points="997.909,-172.722 1008.28,-174.897 1001.53,-166.73 997.909,-172.722"/>
</g>
<!-- Node30 -->
<g id="node67" class="node"><title>Node30</title>
<a xlink:href="_test_element_8cpp.html" target="_top" xlink:title="TestElement.cpp">
<polygon fill="none" stroke="black" points="1063.5,-117 1063.5,-137 1152.5,-137 1152.5,-117 1063.5,-117"/>
<text text-anchor="middle" x="1108" y="-124" font-family="FreeSans" font-size="10.00">TestElement.cpp</text>
</a>
</g>
<!-- Node29&#45;&gt;Node30 -->
<g id="edge74" class="edge"><title>Node29&#45;&gt;Node30</title>
<path fill="none" stroke="midnightblue" d="M1047.93,-168.975C1062.48,-158.811 1080.86,-145.968 1093.43,-137.182"/>
<polygon fill="midnightblue" stroke="midnightblue" points="1045.65,-166.3 1039.46,-174.897 1049.66,-172.038 1045.65,-166.3"/>
</g>
<!-- Node31&#45;&gt;Node16 -->
<g id="edge78" class="edge"><title>Node31&#45;&gt;Node16</title>
<path fill="none" stroke="midnightblue" d="M1072.22,-171.9C1038.57,-161.351 991.955,-146.737 961.165,-137.084"/>
<polygon fill="midnightblue" stroke="midnightblue" points="1071.19,-175.245 1081.78,-174.897 1073.28,-168.566 1071.19,-175.245"/>
</g>
<!-- Node32 -->
<g id="node72" class="node"><title>Node32</title>
<a xlink:href="_power_up_8cpp.html" target="_top" xlink:title="PowerUp.cpp">
<polygon fill="none" stroke="black" points="1169.5,-117 1169.5,-137 1244.5,-137 1244.5,-117 1169.5,-117"/>
<text text-anchor="middle" x="1207" y="-124" font-family="FreeSans" font-size="10.00">PowerUp.cpp</text>
</a>
</g>
<!-- Node31&#45;&gt;Node32 -->
<g id="edge80" class="edge"><title>Node31&#45;&gt;Node32</title>
<path fill="none" stroke="midnightblue" d="M1138.78,-169.547C1155.21,-159.297 1176.32,-146.134 1190.67,-137.182"/>
<polygon fill="midnightblue" stroke="midnightblue" points="1136.83,-166.636 1130.2,-174.897 1140.54,-172.575 1136.83,-166.636"/>
</g>
<!-- Node35 -->
<g id="node78" class="node"><title>Node35</title>
<a xlink:href="_default_surface_8h.html" target="_top" xlink:title="DefaultSurface.h">
<polygon fill="none" stroke="black" points="1293.5,-175 1293.5,-195 1382.5,-195 1382.5,-175 1293.5,-175"/>
<text text-anchor="middle" x="1338" y="-182" font-family="FreeSans" font-size="10.00">DefaultSurface.h</text>
</a>
</g>
<!-- Node34&#45;&gt;Node35 -->
<g id="edge86" class="edge"><title>Node34&#45;&gt;Node35</title>
<path fill="none" stroke="midnightblue" d="M1373.41,-225.275C1364.81,-215.488 1354.42,-203.672 1347.13,-195.378"/>
<polygon fill="midnightblue" stroke="midnightblue" points="1370.88,-227.699 1380.12,-232.897 1376.14,-223.076 1370.88,-227.699"/>
</g>
<!-- Node37 -->
<g id="node83" class="node"><title>Node37</title>
<a xlink:href="_wood_surface_8h.html" target="_top" xlink:title="WoodSurface.h">
<polygon fill="none" stroke="black" points="1399.5,-175 1399.5,-195 1482.5,-195 1482.5,-175 1399.5,-175"/>
<text text-anchor="middle" x="1441" y="-182" font-family="FreeSans" font-size="10.00">WoodSurface.h</text>
</a>
</g>
<!-- Node34&#45;&gt;Node37 -->
<g id="edge92" class="edge"><title>Node34&#45;&gt;Node37</title>
<path fill="none" stroke="midnightblue" d="M1404.89,-225.275C1413.67,-215.488 1424.26,-203.672 1431.7,-195.378"/>
<polygon fill="midnightblue" stroke="midnightblue" points="1402.13,-223.115 1398.06,-232.897 1407.34,-227.788 1402.13,-223.115"/>
</g>
<!-- Node39 -->
<g id="node88" class="node"><title>Node39</title>
<a xlink:href="_bitmap_surface_8cpp.html" target="_top" xlink:title="BitmapSurface.cpp">
<polygon fill="none" stroke="black" points="1499.5,-175 1499.5,-195 1598.5,-195 1598.5,-175 1499.5,-175"/>
<text text-anchor="middle" x="1549" y="-182" font-family="FreeSans" font-size="10.00">BitmapSurface.cpp</text>
</a>
</g>
<!-- Node34&#45;&gt;Node39 -->
<g id="edge98" class="edge"><title>Node34&#45;&gt;Node39</title>
<path fill="none" stroke="midnightblue" d="M1426.65,-229.354C1455.62,-218.85 1495.01,-204.572 1521.18,-195.084"/>
<polygon fill="midnightblue" stroke="midnightblue" points="1425.08,-226.199 1416.87,-232.897 1427.46,-232.78 1425.08,-226.199"/>
</g>
<!-- Node35&#45;&gt;Node16 -->
<g id="edge90" class="edge"><title>Node35&#45;&gt;Node16</title>
<path fill="none" stroke="midnightblue" d="M1283.14,-173.81C1145.41,-152.299 1107.11,-162.395 973,-138 970.366,-137.521 967.656,-136.975 964.936,-136.389"/>
<polygon fill="midnightblue" stroke="midnightblue" points="1282.81,-177.301 1293.23,-175.414 1283.91,-170.387 1282.81,-177.301"/>
</g>
<!-- Node36 -->
<g id="node80" class="node"><title>Node36</title>
<a xlink:href="_default_surface_8cpp.html" target="_top" xlink:title="DefaultSurface.cpp">
<polygon fill="none" stroke="black" points="1283.5,-117 1283.5,-137 1382.5,-137 1382.5,-117 1283.5,-117"/>
<text text-anchor="middle" x="1333" y="-124" font-family="FreeSans" font-size="10.00">DefaultSurface.cpp</text>
</a>
</g>
<!-- Node35&#45;&gt;Node36 -->
<g id="edge88" class="edge"><title>Node35&#45;&gt;Node36</title>
<path fill="none" stroke="midnightblue" d="M1336.27,-164.89C1335.47,-155.62 1334.55,-145.008 1333.89,-137.378"/>
<polygon fill="midnightblue" stroke="midnightblue" points="1332.78,-165.235 1337.13,-174.897 1339.76,-164.633 1332.78,-165.235"/>
</g>
<!-- Node37&#45;&gt;Node16 -->
<g id="edge94" class="edge"><title>Node37&#45;&gt;Node16</title>
<path fill="none" stroke="midnightblue" d="M1389.3,-173.899C1204.87,-146.693 1153.69,-168.17 973,-138 970.359,-137.559 967.644,-137.041 964.92,-136.475"/>
<polygon fill="midnightblue" stroke="midnightblue" points="1388.93,-177.381 1399.33,-175.407 1389.97,-170.459 1388.93,-177.381"/>
</g>
<!-- Node38 -->
<g id="node86" class="node"><title>Node38</title>
<a xlink:href="_wood_surface_8cpp.html" target="_top" xlink:title="WoodSurface.cpp">
<polygon fill="none" stroke="black" points="1399.5,-117 1399.5,-137 1492.5,-137 1492.5,-117 1399.5,-117"/>
<text text-anchor="middle" x="1446" y="-124" font-family="FreeSans" font-size="10.00">WoodSurface.cpp</text>
</a>
</g>
<!-- Node37&#45;&gt;Node38 -->
<g id="edge96" class="edge"><title>Node37&#45;&gt;Node38</title>
<path fill="none" stroke="midnightblue" d="M1442.73,-164.89C1443.53,-155.62 1444.45,-145.008 1445.11,-137.378"/>
<polygon fill="midnightblue" stroke="midnightblue" points="1439.24,-164.633 1441.87,-174.897 1446.22,-165.235 1439.24,-164.633"/>
</g>
<!-- Node41 -->
<g id="node92" class="node"><title>Node41</title>
<a xlink:href="_generic_renderer_8h.html" target="_top" xlink:title="GenericRenderer.h">
<polygon fill="none" stroke="black" points="1615.5,-175 1615.5,-195 1712.5,-195 1712.5,-175 1615.5,-175"/>
<text text-anchor="middle" x="1664" y="-182" font-family="FreeSans" font-size="10.00">GenericRenderer.h</text>
</a>
</g>
<!-- Node40&#45;&gt;Node41 -->
<g id="edge102" class="edge"><title>Node40&#45;&gt;Node41</title>
<path fill="none" stroke="midnightblue" d="M1555.3,-229.09C1581.04,-218.649 1615.7,-204.59 1638.9,-195.182"/>
<polygon fill="midnightblue" stroke="midnightblue" points="1553.86,-225.895 1545.91,-232.897 1556.49,-232.382 1553.86,-225.895"/>
</g>
<!-- Node43 -->
<g id="node97" class="node"><title>Node43</title>
<a xlink:href="_free_element_base_renderer_8cpp.html" target="_top" xlink:title="FreeElementBaseRenderer.cpp">
<polygon fill="none" stroke="black" points="1729.5,-175 1729.5,-195 1880.5,-195 1880.5,-175 1729.5,-175"/>
<text text-anchor="middle" x="1805" y="-182" font-family="FreeSans" font-size="10.00">FreeElementBaseRenderer.cpp</text>
</a>
</g>
<!-- Node40&#45;&gt;Node43 -->
<g id="edge108" class="edge"><title>Node40&#45;&gt;Node43</title>
<path fill="none" stroke="midnightblue" d="M1580.24,-230.901C1632.32,-220.266 1707.21,-204.972 1755.98,-195.011"/>
<polygon fill="midnightblue" stroke="midnightblue" points="1579.24,-227.533 1570.14,-232.963 1580.64,-234.392 1579.24,-227.533"/>
</g>
<!-- Node41&#45;&gt;Node16 -->
<g id="edge106" class="edge"><title>Node41&#45;&gt;Node16</title>
<path fill="none" stroke="midnightblue" d="M1605.2,-173.914C1325.14,-140.137 1248.76,-179.916 973,-138 970.353,-137.598 967.633,-137.108 964.907,-136.562"/>
<polygon fill="midnightblue" stroke="midnightblue" points="1604.9,-177.403 1615.25,-175.147 1605.75,-170.455 1604.9,-177.403"/>
</g>
<!-- Node42 -->
<g id="node94" class="node"><title>Node42</title>
<a xlink:href="_generic_renderer_8cpp.html" target="_top" xlink:title="GenericRenderer.cpp">
<polygon fill="none" stroke="black" points="1610.5,-117 1610.5,-137 1717.5,-137 1717.5,-117 1610.5,-117"/>
<text text-anchor="middle" x="1664" y="-124" font-family="FreeSans" font-size="10.00">GenericRenderer.cpp</text>
</a>
</g>
<!-- Node41&#45;&gt;Node42 -->
<g id="edge104" class="edge"><title>Node41&#45;&gt;Node42</title>
<path fill="none" stroke="midnightblue" d="M1664,-164.89C1664,-155.62 1664,-145.008 1664,-137.378"/>
<polygon fill="midnightblue" stroke="midnightblue" points="1660.5,-164.897 1664,-174.897 1667.5,-164.897 1660.5,-164.897"/>
</g>
</g>
</svg>
        <g id="navigator" transform="translate(0 0)" fill="#404254">
                <rect fill="#f2f5e9" fill-opacity="0.5" stroke="#606060" stroke-width=".5" x="0" y="0" width="60" height="60"/>
                <use id="zoomplus" xlink:href="#zoomPlus" x="17" y="9" onmousedown="handleZoom(evt,'in')"/>
                <use id="zoomminus" xlink:href="#zoomMin" x="42" y="9" onmousedown="handleZoom(evt,'out')"/>
                <use id="reset" xlink:href="#resetDef" x="30" y="36" onmousedown="handleReset()"/>
                <g id="arrowUp" xlink:href="#dirArrow" transform="translate(30 24)" onmousedown="handlePan(0,-1)">
                  <use xlink:href="#rim" fill="#404040">
                        <set attributeName="fill" to="#808080" begin="arrowUp.mouseover" end="arrowUp.mouseout"/>
                  </use>
                  <path fill="none" stroke="white" stroke-width="1.5" d="M0,-3.0v7 M-2.5,-0.5L0,-3.0L2.5,-0.5"/>
                </g>
                <g id="arrowRight" xlink:href="#dirArrow" transform="rotate(90) translate(36 -43)" onmousedown="handlePan(1,0)">
                  <use xlink:href="#rim" fill="#404040">
                        <set attributeName="fill" to="#808080" begin="arrowRight.mouseover" end="arrowRight.mouseout"/>
                  </use>
                  <path fill="none" stroke="white" stroke-width="1.5" d="M0,-3.0v7 M-2.5,-0.5L0,-3.0L2.5,-0.5"/>
                </g>
                <g id="arrowDown" xlink:href="#dirArrow" transform="rotate(180) translate(-30 -48)" onmousedown="handlePan(0,1)">
                  <use xlink:href="#rim" fill="#404040">
                        <set attributeName="fill" to="#808080" begin="arrowDown.mouseover" end="arrowDown.mouseout"/>
                  </use>
                  <path fill="none" stroke="white" stroke-width="1.5" d="M0,-3.0v7 M-2.5,-0.5L0,-3.0L2.5,-0.5"/>
                </g>
                <g id="arrowLeft" xlink:href="#dirArrow" transform="rotate(270) translate(-36 17)" onmousedown="handlePan(-1,0)">
                  <use xlink:href="#rim" fill="#404040">
                        <set attributeName="fill" to="#808080" begin="arrowLeft.mouseover" end="arrowLeft.mouseout"/>
                  </use>
                  <path fill="none" stroke="white" stroke-width="1.5" d="M0,-3.0v7 M-2.5,-0.5L0,-3.0L2.5,-0.5"/>
                </g>
        </g>
        <svg viewBox="0 0 15 15" width="100%" height="30px" preserveAspectRatio="xMaxYMin meet">
         <g id="arrow_out" transform="scale(0.3 0.3)">
          <a xlink:href="_res_sound_8h__dep__incl_org.svg" target="_base">
           <rect id="button" ry="5" rx="5" y="6" x="6" height="38" width="38"
                fill="#f2f5e9" fill-opacity="0.5" stroke="#606060" stroke-width="1.0"/>
           <path id="arrow"
             d="M 11.500037,31.436501 C 11.940474,20.09759 22.043105,11.32322 32.158766,21.979434 L 37.068811,17.246167 C 37.068811,17.246167 37.088388,32 37.088388,32 L 22.160133,31.978069 C 22.160133,31.978069 26.997745,27.140456 26.997745,27.140456 C 18.528582,18.264221 13.291696,25.230495 11.500037,31.436501 z"
             style="fill:#404040;"/>
          </a>
         </g>
        </svg>
</svg>
