<?xml version="1.0" encoding="UTF-8" standalone="no"?>
<!DOCTYPE svg PUBLIC "-//W3C//DTD SVG 1.1//EN"
 "http://www.w3.org/Graphics/SVG/1.1/DTD/svg11.dtd">
<!-- Generated by graphviz version 2.38.0 (20140413.2041)
 -->
<!-- Title: ResSprite.h Pages: 1 -->
<svg width="1686pt" height="364pt"
 viewBox="0.00 0.00 1686.01 364.00" xmlns="http://www.w3.org/2000/svg" xmlns:xlink="http://www.w3.org/1999/xlink">
<g id="graph0" class="graph" transform="scale(1 1) rotate(0) translate(4 360)">
<title>ResSprite.h</title>
<!-- Node1 -->
<g id="node1" class="node"><title>Node1</title>
<polygon fill="#bfbfbf" stroke="black" points="980.505,-336.5 980.505,-355.5 1048.51,-355.5 1048.51,-336.5 980.505,-336.5"/>
<text text-anchor="middle" x="1014.51" y="-343.5" font-family="Helvetica,sans-Serif" font-size="10.00">ResSprite.h</text>
</g>
<!-- Node2 -->
<g id="node2" class="node"><title>Node2</title>
<g id="a_node2"><a xlink:href="_resource_lib_8h.html" target="_top" xlink:title="ResourceLib.h">
<polygon fill="none" stroke="black" points="925.505,-280.5 925.505,-299.5 1005.51,-299.5 1005.51,-280.5 925.505,-280.5"/>
<text text-anchor="middle" x="965.505" y="-287.5" font-family="Helvetica,sans-Serif" font-size="10.00">ResourceLib.h</text>
</a>
</g>
</g>
<!-- Node1&#45;&gt;Node2 -->
<g id="edge1" class="edge"><title>Node1&#45;&gt;Node2</title>
<path fill="none" stroke="midnightblue" d="M999.471,-328.431C990.883,-318.967 980.462,-307.483 973.446,-299.751"/>
<polygon fill="midnightblue" stroke="midnightblue" points="997.102,-331.029 1006.41,-336.083 1002.29,-326.325 997.102,-331.029"/>
</g>
<!-- Node37 -->
<g id="node37" class="node"><title>Node37</title>
<g id="a_node37"><a xlink:href="_res_sprite_8cpp.html" target="_top" xlink:title="ResSprite.cpp">
<polygon fill="none" stroke="black" points="1024.01,-280.5 1024.01,-299.5 1103.01,-299.5 1103.01,-280.5 1024.01,-280.5"/>
<text text-anchor="middle" x="1063.51" y="-287.5" font-family="Helvetica,sans-Serif" font-size="10.00">ResSprite.cpp</text>
</a>
</g>
</g>
<!-- Node1&#45;&gt;Node37 -->
<g id="edge42" class="edge"><title>Node1&#45;&gt;Node37</title>
<path fill="none" stroke="midnightblue" d="M1029.54,-328.431C1038.13,-318.967 1048.55,-307.483 1055.56,-299.751"/>
<polygon fill="midnightblue" stroke="midnightblue" points="1026.72,-326.325 1022.6,-336.083 1031.91,-331.029 1026.72,-326.325"/>
</g>
<!-- Node3 -->
<g id="node3" class="node"><title>Node3</title>
<g id="a_node3"><a xlink:href="_audio_settings_scene_8cpp.html" target="_top" xlink:title="AudioSettingsScene.cpp">
<polygon fill="none" stroke="black" points="102.505,-224.5 102.505,-243.5 226.505,-243.5 226.505,-224.5 102.505,-224.5"/>
<text text-anchor="middle" x="164.505" y="-231.5" font-family="Helvetica,sans-Serif" font-size="10.00">AudioSettingsScene.cpp</text>
</a>
</g>
</g>
<!-- Node2&#45;&gt;Node3 -->
<g id="edge2" class="edge"><title>Node2&#45;&gt;Node3</title>
<path fill="none" stroke="midnightblue" d="M914.904,-286.97C796.232,-281.971 490.81,-267.719 236.505,-244 233.244,-243.696 229.903,-243.361 226.531,-243.004"/>
<polygon fill="midnightblue" stroke="midnightblue" points="914.995,-290.477 925.132,-287.398 915.287,-283.483 914.995,-290.477"/>
</g>
<!-- Node4 -->
<g id="node4" class="node"><title>Node4</title>
<g id="a_node4"><a xlink:href="_sprite_handle_8h.html" target="_top" xlink:title="SpriteHandle.h">
<polygon fill="none" stroke="black" points="245.005,-224.5 245.005,-243.5 326.005,-243.5 326.005,-224.5 245.005,-224.5"/>
<text text-anchor="middle" x="285.505" y="-231.5" font-family="Helvetica,sans-Serif" font-size="10.00">SpriteHandle.h</text>
</a>
</g>
</g>
<!-- Node2&#45;&gt;Node4 -->
<g id="edge3" class="edge"><title>Node2&#45;&gt;Node4</title>
<path fill="none" stroke="midnightblue" d="M915.037,-286.915C808.575,-282.175 553.289,-269.018 340.505,-244 335.893,-243.458 331.076,-242.802 326.295,-242.095"/>
<polygon fill="midnightblue" stroke="midnightblue" points="915.027,-290.417 925.171,-287.36 915.334,-283.424 915.027,-290.417"/>
</g>
<!-- Node16 -->
<g id="node16" class="node"><title>Node16</title>
<g id="a_node16"><a xlink:href="_obj_fac1_8cpp.html" target="_top" xlink:title="ObjFac1.cpp">
<polygon fill="none" stroke="black" points="348.505,-112.5 348.505,-131.5 420.505,-131.5 420.505,-112.5 348.505,-112.5"/>
<text text-anchor="middle" x="384.505" y="-119.5" font-family="Helvetica,sans-Serif" font-size="10.00">ObjFac1.cpp</text>
</a>
</g>
</g>
<!-- Node2&#45;&gt;Node16 -->
<g id="edge36" class="edge"><title>Node2&#45;&gt;Node16</title>
<path fill="none" stroke="midnightblue" d="M915.041,-289.26C798.283,-289.151 512.973,-284.604 427.505,-244 396.275,-229.163 386.446,-220.062 373.505,-188 365.795,-168.896 374.366,-144.522 380.134,-131.734"/>
<polygon fill="midnightblue" stroke="midnightblue" points="915.143,-292.76 925.142,-289.259 915.142,-285.76 915.143,-292.76"/>
</g>
<!-- Node17 -->
<g id="node17" class="node"><title>Node17</title>
<g id="a_node17"><a xlink:href="_ball_element_8cpp.html" target="_top" xlink:title="BallElement.cpp">
<polygon fill="none" stroke="black" points="704.505,-224.5 704.505,-243.5 792.505,-243.5 792.505,-224.5 704.505,-224.5"/>
<text text-anchor="middle" x="748.505" y="-231.5" font-family="Helvetica,sans-Serif" font-size="10.00">BallElement.cpp</text>
</a>
</g>
</g>
<!-- Node2&#45;&gt;Node17 -->
<g id="edge18" class="edge"><title>Node2&#45;&gt;Node17</title>
<path fill="none" stroke="midnightblue" d="M921.397,-278.024C880.406,-267.823 820.202,-252.841 782.729,-243.516"/>
<polygon fill="midnightblue" stroke="midnightblue" points="920.572,-281.425 931.121,-280.444 922.262,-274.632 920.572,-281.425"/>
</g>
<!-- Node18 -->
<g id="node18" class="node"><title>Node18</title>
<g id="a_node18"><a xlink:href="_bumper_gate_8cpp.html" target="_top" xlink:title="BumperGate.cpp">
<polygon fill="none" stroke="black" points="810.505,-224.5 810.505,-243.5 900.505,-243.5 900.505,-224.5 810.505,-224.5"/>
<text text-anchor="middle" x="855.505" y="-231.5" font-family="Helvetica,sans-Serif" font-size="10.00">BumperGate.cpp</text>
</a>
</g>
</g>
<!-- Node2&#45;&gt;Node18 -->
<g id="edge19" class="edge"><title>Node2&#45;&gt;Node18</title>
<path fill="none" stroke="midnightblue" d="M938.743,-275.862C918.346,-265.849 890.84,-252.346 873.135,-243.655"/>
<polygon fill="midnightblue" stroke="midnightblue" points="937.313,-279.059 947.832,-280.324 940.398,-272.775 937.313,-279.059"/>
</g>
<!-- Node19 -->
<g id="node19" class="node"><title>Node19</title>
<g id="a_node19"><a xlink:href="_bitmap_surface_8h.html" target="_top" xlink:title="BitmapSurface.h">
<polygon fill="none" stroke="black" points="436.005,-224.5 436.005,-243.5 525.005,-243.5 525.005,-224.5 436.005,-224.5"/>
<text text-anchor="middle" x="480.505" y="-231.5" font-family="Helvetica,sans-Serif" font-size="10.00">BitmapSurface.h</text>
</a>
</g>
</g>
<!-- Node2&#45;&gt;Node19 -->
<g id="edge20" class="edge"><title>Node2&#45;&gt;Node19</title>
<path fill="none" stroke="midnightblue" d="M914.943,-284.73C834.304,-277.694 671.674,-262.574 534.505,-244 531.492,-243.592 528.387,-243.145 525.263,-242.676"/>
<polygon fill="midnightblue" stroke="midnightblue" points="915.034,-288.251 925.299,-285.629 915.639,-281.277 915.034,-288.251"/>
</g>
<!-- Node25 -->
<g id="node25" class="node"><title>Node25</title>
<g id="a_node25"><a xlink:href="_free_element_base_renderer_8h.html" target="_top" xlink:title="FreeElementBaseRenderer.h">
<polygon fill="none" stroke="black" points="543.005,-224.5 543.005,-243.5 686.005,-243.5 686.005,-224.5 543.005,-224.5"/>
<text text-anchor="middle" x="614.505" y="-231.5" font-family="Helvetica,sans-Serif" font-size="10.00">FreeElementBaseRenderer.h</text>
</a>
</g>
</g>
<!-- Node2&#45;&gt;Node25 -->
<g id="edge28" class="edge"><title>Node2&#45;&gt;Node25</title>
<path fill="none" stroke="midnightblue" d="M915.227,-281.265C850.182,-271.258 737.242,-253.883 669.826,-243.511"/>
<polygon fill="midnightblue" stroke="midnightblue" points="914.825,-284.744 925.241,-282.806 915.89,-277.826 914.825,-284.744"/>
</g>
<!-- Node29 -->
<g id="node29" class="node"><title>Node29</title>
<g id="a_node29"><a xlink:href="_hover_render_8cpp.html" target="_top" xlink:title="HoverRender.cpp">
<polygon fill="none" stroke="black" points="919.005,-224.5 919.005,-243.5 1012.01,-243.5 1012.01,-224.5 919.005,-224.5"/>
<text text-anchor="middle" x="965.505" y="-231.5" font-family="Helvetica,sans-Serif" font-size="10.00">HoverRender.cpp</text>
</a>
</g>
</g>
<!-- Node2&#45;&gt;Node29 -->
<g id="edge33" class="edge"><title>Node2&#45;&gt;Node29</title>
<path fill="none" stroke="midnightblue" d="M965.505,-269.805C965.505,-260.91 965.505,-250.78 965.505,-243.751"/>
<polygon fill="midnightblue" stroke="midnightblue" points="962.006,-270.083 965.505,-280.083 969.006,-270.083 962.006,-270.083"/>
</g>
<!-- Node30 -->
<g id="node30" class="node"><title>Node30</title>
<g id="a_node30"><a xlink:href="_mine_8cpp.html" target="_top" xlink:title="Mine.cpp">
<polygon fill="none" stroke="black" points="1029.51,-224.5 1029.51,-243.5 1085.51,-243.5 1085.51,-224.5 1029.51,-224.5"/>
<text text-anchor="middle" x="1057.51" y="-231.5" font-family="Helvetica,sans-Serif" font-size="10.00">Mine.cpp</text>
</a>
</g>
</g>
<!-- Node2&#45;&gt;Node30 -->
<g id="edge34" class="edge"><title>Node2&#45;&gt;Node30</title>
<path fill="none" stroke="midnightblue" d="M989.055,-275.177C1005.98,-265.241 1028.29,-252.149 1042.76,-243.655"/>
<polygon fill="midnightblue" stroke="midnightblue" points="987.139,-272.243 980.287,-280.324 990.683,-278.28 987.139,-272.243"/>
</g>
<!-- Node31 -->
<g id="node31" class="node"><title>Node31</title>
<g id="a_node31"><a xlink:href="_missile_8cpp.html" target="_top" xlink:title="Missile.cpp">
<polygon fill="none" stroke="black" points="1103.51,-224.5 1103.51,-243.5 1169.51,-243.5 1169.51,-224.5 1103.51,-224.5"/>
<text text-anchor="middle" x="1136.51" y="-231.5" font-family="Helvetica,sans-Serif" font-size="10.00">Missile.cpp</text>
</a>
</g>
</g>
<!-- Node2&#45;&gt;Node31 -->
<g id="edge35" class="edge"><title>Node2&#45;&gt;Node31</title>
<path fill="none" stroke="midnightblue" d="M1002.54,-277.304C1034.76,-267.129 1080.69,-252.625 1109.54,-243.516"/>
<polygon fill="midnightblue" stroke="midnightblue" points="1001.08,-274.095 992.601,-280.444 1003.19,-280.77 1001.08,-274.095"/>
</g>
<!-- Node32 -->
<g id="node32" class="node"><title>Node32</title>
<g id="a_node32"><a xlink:href="_power_up_8cpp.html" target="_top" xlink:title="PowerUp.cpp">
<polygon fill="none" stroke="black" points="1187.51,-224.5 1187.51,-243.5 1263.51,-243.5 1263.51,-224.5 1187.51,-224.5"/>
<text text-anchor="middle" x="1225.51" y="-231.5" font-family="Helvetica,sans-Serif" font-size="10.00">PowerUp.cpp</text>
</a>
</g>
</g>
<!-- Node2&#45;&gt;Node32 -->
<g id="edge37" class="edge"><title>Node2&#45;&gt;Node32</title>
<path fill="none" stroke="midnightblue" d="M1015.52,-278.612C1065.6,-268.211 1141.58,-252.43 1187.1,-242.976"/>
<polygon fill="midnightblue" stroke="midnightblue" points="1014.64,-275.22 1005.56,-280.681 1016.06,-282.074 1014.64,-275.22"/>
</g>
<!-- Node33 -->
<g id="node33" class="node"><title>Node33</title>
<g id="a_node33"><a xlink:href="_test_element_8cpp.html" target="_top" xlink:title="TestElement.cpp">
<polygon fill="none" stroke="black" points="1282.01,-224.5 1282.01,-243.5 1373.01,-243.5 1373.01,-224.5 1282.01,-224.5"/>
<text text-anchor="middle" x="1327.51" y="-231.5" font-family="Helvetica,sans-Serif" font-size="10.00">TestElement.cpp</text>
</a>
</g>
</g>
<!-- Node2&#45;&gt;Node33 -->
<g id="edge38" class="edge"><title>Node2&#45;&gt;Node33</title>
<path fill="none" stroke="midnightblue" d="M1015.2,-280.048C1015.3,-280.032 1015.4,-280.016 1015.51,-280 1129.39,-261.78 1158.47,-261.314 1272.51,-244 1275.57,-243.535 1278.72,-243.046 1281.9,-242.546"/>
<polygon fill="midnightblue" stroke="midnightblue" points="1014.89,-276.552 1005.6,-281.641 1016.04,-283.458 1014.89,-276.552"/>
</g>
<!-- Node34 -->
<g id="node34" class="node"><title>Node34</title>
<g id="a_node34"><a xlink:href="_res_actor_8cpp.html" target="_top" xlink:title="ResActor.cpp">
<polygon fill="none" stroke="black" points="1391.01,-224.5 1391.01,-243.5 1468.01,-243.5 1468.01,-224.5 1391.01,-224.5"/>
<text text-anchor="middle" x="1429.51" y="-231.5" font-family="Helvetica,sans-Serif" font-size="10.00">ResActor.cpp</text>
</a>
</g>
</g>
<!-- Node2&#45;&gt;Node34 -->
<g id="edge39" class="edge"><title>Node2&#45;&gt;Node34</title>
<path fill="none" stroke="midnightblue" d="M1015.2,-280.042C1015.3,-280.028 1015.4,-280.014 1015.51,-280 1177.84,-257.465 1220.3,-267.436 1382.51,-244 1385.22,-243.608 1388.01,-243.167 1390.82,-242.697"/>
<polygon fill="midnightblue" stroke="midnightblue" points="1014.94,-276.542 1005.58,-281.495 1015.99,-283.463 1014.94,-276.542"/>
</g>
<!-- Node35 -->
<g id="node35" class="node"><title>Node35</title>
<g id="a_node35"><a xlink:href="_resource_lib_8cpp.html" target="_top" xlink:title="ResourceLib.cpp">
<polygon fill="none" stroke="black" points="1486.51,-224.5 1486.51,-243.5 1576.51,-243.5 1576.51,-224.5 1486.51,-224.5"/>
<text text-anchor="middle" x="1531.51" y="-231.5" font-family="Helvetica,sans-Serif" font-size="10.00">ResourceLib.cpp</text>
</a>
</g>
</g>
<!-- Node2&#45;&gt;Node35 -->
<g id="edge40" class="edge"><title>Node2&#45;&gt;Node35</title>
<path fill="none" stroke="midnightblue" d="M1015.2,-280.039C1015.3,-280.026 1015.4,-280.013 1015.51,-280 1219.78,-253.724 1273.07,-268.953 1477.51,-244 1480.43,-243.643 1483.44,-243.241 1486.47,-242.809"/>
<polygon fill="midnightblue" stroke="midnightblue" points="1014.97,-276.537 1005.57,-281.424 1015.96,-283.466 1014.97,-276.537"/>
</g>
<!-- Node36 -->
<g id="node36" class="node"><title>Node36</title>
<g id="a_node36"><a xlink:href="_res_bundle_8cpp.html" target="_top" xlink:title="ResBundle.cpp">
<polygon fill="none" stroke="black" points="1595.01,-224.5 1595.01,-243.5 1678.01,-243.5 1678.01,-224.5 1595.01,-224.5"/>
<text text-anchor="middle" x="1636.51" y="-231.5" font-family="Helvetica,sans-Serif" font-size="10.00">ResBundle.cpp</text>
</a>
</g>
</g>
<!-- Node2&#45;&gt;Node36 -->
<g id="edge41" class="edge"><title>Node2&#45;&gt;Node36</title>
<path fill="none" stroke="midnightblue" d="M1015.2,-280.037C1015.3,-280.025 1015.4,-280.012 1015.51,-280 1267.5,-249.465 1333.46,-274.104 1585.51,-244 1588.54,-243.637 1591.67,-243.212 1594.81,-242.748"/>
<polygon fill="midnightblue" stroke="midnightblue" points="1014.99,-276.533 1005.56,-281.372 1015.95,-283.467 1014.99,-276.533"/>
</g>
<!-- Node5 -->
<g id="node5" class="node"><title>Node5</title>
<g id="a_node5"><a xlink:href="_observer_8h.html" target="_top" xlink:title="Observer.h">
<polygon fill="none" stroke="black" points="179.005,-168.5 179.005,-187.5 244.005,-187.5 244.005,-168.5 179.005,-168.5"/>
<text text-anchor="middle" x="211.505" y="-175.5" font-family="Helvetica,sans-Serif" font-size="10.00">Observer.h</text>
</a>
</g>
</g>
<!-- Node4&#45;&gt;Node5 -->
<g id="edge4" class="edge"><title>Node4&#45;&gt;Node5</title>
<path fill="none" stroke="midnightblue" d="M265.471,-218.38C252.096,-208.62 234.947,-196.106 223.611,-187.834"/>
<polygon fill="midnightblue" stroke="midnightblue" points="263.475,-221.257 273.616,-224.324 267.601,-215.602 263.475,-221.257"/>
</g>
<!-- Node4&#45;&gt;Node16 -->
<g id="edge17" class="edge"><title>Node4&#45;&gt;Node16</title>
<path fill="none" stroke="midnightblue" d="M298.828,-216.603C309.775,-203.29 325.816,-184.145 340.505,-168 352.27,-155.069 366.517,-140.723 375.547,-131.783"/>
<polygon fill="midnightblue" stroke="midnightblue" points="296.057,-214.462 292.435,-224.419 301.475,-218.894 296.057,-214.462"/>
</g>
<!-- Node6 -->
<g id="node6" class="node"><title>Node6</title>
<g id="a_node6"><a xlink:href="_game_scene_8h.html" target="_top" xlink:title="GameScene.h">
<polygon fill="none" stroke="black" points="158.005,-112.5 158.005,-131.5 237.005,-131.5 237.005,-112.5 158.005,-112.5"/>
<text text-anchor="middle" x="197.505" y="-119.5" font-family="Helvetica,sans-Serif" font-size="10.00">GameScene.h</text>
</a>
</g>
</g>
<!-- Node5&#45;&gt;Node6 -->
<g id="edge5" class="edge"><title>Node5&#45;&gt;Node6</title>
<path fill="none" stroke="midnightblue" d="M206.682,-158.396C204.34,-149.362 201.637,-138.936 199.774,-131.751"/>
<polygon fill="midnightblue" stroke="midnightblue" points="203.296,-159.281 209.194,-168.083 210.072,-157.525 203.296,-159.281"/>
</g>
<!-- Node13 -->
<g id="node13" class="node"><title>Node13</title>
<g id="a_node13"><a xlink:href="_client_app_8h.html" target="_top" xlink:title="ClientApp.h">
<polygon fill="none" stroke="black" points="7.50541,-112.5 7.50541,-131.5 75.5054,-131.5 75.5054,-112.5 7.50541,-112.5"/>
<text text-anchor="middle" x="41.5054" y="-119.5" font-family="Helvetica,sans-Serif" font-size="10.00">ClientApp.h</text>
</a>
</g>
</g>
<!-- Node5&#45;&gt;Node13 -->
<g id="edge13" class="edge"><title>Node5&#45;&gt;Node13</title>
<path fill="none" stroke="midnightblue" d="M174.686,-165.304C142.653,-155.129 96.9902,-140.625 68.3164,-131.516"/>
<polygon fill="midnightblue" stroke="midnightblue" points="173.978,-168.752 184.568,-168.444 176.097,-162.08 173.978,-168.752"/>
</g>
<!-- Node15 -->
<g id="node15" class="node"><title>Node15</title>
<g id="a_node15"><a xlink:href="_observer_8cpp.html" target="_top" xlink:title="Observer.cpp">
<polygon fill="none" stroke="black" points="255.005,-112.5 255.005,-131.5 330.005,-131.5 330.005,-112.5 255.005,-112.5"/>
<text text-anchor="middle" x="292.505" y="-119.5" font-family="Helvetica,sans-Serif" font-size="10.00">Observer.cpp</text>
</a>
</g>
</g>
<!-- Node5&#45;&gt;Node15 -->
<g id="edge16" class="edge"><title>Node5&#45;&gt;Node15</title>
<path fill="none" stroke="midnightblue" d="M233.072,-162.622C247.869,-152.757 267.018,-139.992 279.524,-131.655"/>
<polygon fill="midnightblue" stroke="midnightblue" points="230.899,-159.865 224.519,-168.324 234.781,-165.689 230.899,-159.865"/>
</g>
<!-- Node7 -->
<g id="node7" class="node"><title>Node7</title>
<g id="a_node7"><a xlink:href="_demo_game_scene_8h.html" target="_top" xlink:title="DemoGameScene.h">
<polygon fill="none" stroke="black" points="88.0054,-56.5 88.0054,-75.5 193.005,-75.5 193.005,-56.5 88.0054,-56.5"/>
<text text-anchor="middle" x="140.505" y="-63.5" font-family="Helvetica,sans-Serif" font-size="10.00">DemoGameScene.h</text>
</a>
</g>
</g>
<!-- Node6&#45;&gt;Node7 -->
<g id="edge6" class="edge"><title>Node6&#45;&gt;Node7</title>
<path fill="none" stroke="midnightblue" d="M180.884,-105.253C170.771,-95.6731 158.229,-83.7906 149.83,-75.8339"/>
<polygon fill="midnightblue" stroke="midnightblue" points="178.681,-107.987 188.347,-112.324 183.495,-102.906 178.681,-107.987"/>
</g>
<!-- Node10 -->
<g id="node10" class="node"><title>Node10</title>
<g id="a_node10"><a xlink:href="_play_game_scene_8h.html" target="_top" xlink:title="PlayGameScene.h">
<polygon fill="none" stroke="black" points="317.505,-56.5 317.505,-75.5 415.505,-75.5 415.505,-56.5 317.505,-56.5"/>
<text text-anchor="middle" x="366.505" y="-63.5" font-family="Helvetica,sans-Serif" font-size="10.00">PlayGameScene.h</text>
</a>
</g>
</g>
<!-- Node6&#45;&gt;Node10 -->
<g id="edge9" class="edge"><title>Node6&#45;&gt;Node10</title>
<path fill="none" stroke="midnightblue" d="M234.108,-109.304C265.952,-99.1294 311.347,-84.6246 339.852,-75.5164"/>
<polygon fill="midnightblue" stroke="midnightblue" points="232.744,-106.066 224.284,-112.444 234.875,-112.734 232.744,-106.066"/>
</g>
<!-- Node12 -->
<g id="node12" class="node"><title>Node12</title>
<g id="a_node12"><a xlink:href="_game_scene_8cpp.html" target="_top" xlink:title="GameScene.cpp">
<polygon fill="none" stroke="black" points="211.005,-56.5 211.005,-75.5 300.005,-75.5 300.005,-56.5 211.005,-56.5"/>
<text text-anchor="middle" x="255.505" y="-63.5" font-family="Helvetica,sans-Serif" font-size="10.00">GameScene.cpp</text>
</a>
</g>
</g>
<!-- Node6&#45;&gt;Node12 -->
<g id="edge12" class="edge"><title>Node6&#45;&gt;Node12</title>
<path fill="none" stroke="midnightblue" d="M214.419,-105.253C224.708,-95.6731 237.471,-83.7906 246.017,-75.8339"/>
<polygon fill="midnightblue" stroke="midnightblue" points="211.758,-102.948 206.824,-112.324 216.528,-108.071 211.758,-102.948"/>
</g>
<!-- Node8 -->
<g id="node8" class="node"><title>Node8</title>
<g id="a_node8"><a xlink:href="_client_app_8cpp.html" target="_top" xlink:title="ClientApp.cpp">
<polygon fill="none" stroke="black" points="158.505,-0.5 158.505,-19.5 236.505,-19.5 236.505,-0.5 158.505,-0.5"/>
<text text-anchor="middle" x="197.505" y="-7.5" font-family="Helvetica,sans-Serif" font-size="10.00">ClientApp.cpp</text>
</a>
</g>
</g>
<!-- Node7&#45;&gt;Node8 -->
<g id="edge7" class="edge"><title>Node7&#45;&gt;Node8</title>
<path fill="none" stroke="midnightblue" d="M157.127,-49.2533C167.239,-39.6731 179.782,-27.7906 188.181,-19.8339"/>
<polygon fill="midnightblue" stroke="midnightblue" points="154.516,-46.9056 149.663,-56.324 159.33,-51.9873 154.516,-46.9056"/>
</g>
<!-- Node9 -->
<g id="node9" class="node"><title>Node9</title>
<g id="a_node9"><a xlink:href="_demo_game_scene_8cpp.html" target="_top" xlink:title="DemoGameScene.cpp">
<polygon fill="none" stroke="black" points="24.5054,-0.5 24.5054,-19.5 140.505,-19.5 140.505,-0.5 24.5054,-0.5"/>
<text text-anchor="middle" x="82.5054" y="-7.5" font-family="Helvetica,sans-Serif" font-size="10.00">DemoGameScene.cpp</text>
</a>
</g>
</g>
<!-- Node7&#45;&gt;Node9 -->
<g id="edge8" class="edge"><title>Node7&#45;&gt;Node9</title>
<path fill="none" stroke="midnightblue" d="M123.592,-49.2533C113.302,-39.6731 100.54,-27.7906 91.9937,-19.8339"/>
<polygon fill="midnightblue" stroke="midnightblue" points="121.483,-52.0714 131.187,-56.324 126.253,-46.9481 121.483,-52.0714"/>
</g>
<!-- Node10&#45;&gt;Node8 -->
<g id="edge10" class="edge"><title>Node10&#45;&gt;Node8</title>
<path fill="none" stroke="midnightblue" d="M329.903,-53.3044C298.059,-43.1294 252.664,-28.6246 224.159,-19.5164"/>
<polygon fill="midnightblue" stroke="midnightblue" points="329.136,-56.7337 339.727,-56.4435 331.267,-50.0659 329.136,-56.7337"/>
</g>
<!-- Node11 -->
<g id="node11" class="node"><title>Node11</title>
<g id="a_node11"><a xlink:href="_play_game_scene_8cpp.html" target="_top" xlink:title="PlayGameScene.cpp">
<polygon fill="none" stroke="black" points="312.005,-0.5 312.005,-19.5 421.005,-19.5 421.005,-0.5 312.005,-0.5"/>
<text text-anchor="middle" x="366.505" y="-7.5" font-family="Helvetica,sans-Serif" font-size="10.00">PlayGameScene.cpp</text>
</a>
</g>
</g>
<!-- Node10&#45;&gt;Node11 -->
<g id="edge11" class="edge"><title>Node10&#45;&gt;Node11</title>
<path fill="none" stroke="midnightblue" d="M366.505,-45.8045C366.505,-36.9102 366.505,-26.7798 366.505,-19.7511"/>
<polygon fill="midnightblue" stroke="midnightblue" points="363.006,-46.083 366.505,-56.083 370.006,-46.083 363.006,-46.083"/>
</g>
<!-- Node13&#45;&gt;Node8 -->
<g id="edge14" class="edge"><title>Node13&#45;&gt;Node8</title>
<path fill="none" stroke="midnightblue" d="M22.5192,-105.609C7.89854,-91.8881 -7.89051,-71.6187 4.50541,-56 9.33125,-49.9195 103.299,-30.0424 158.306,-18.8469"/>
<polygon fill="midnightblue" stroke="midnightblue" points="20.5157,-108.508 30.3352,-112.486 25.14,-103.253 20.5157,-108.508"/>
</g>
<!-- Node14 -->
<g id="node14" class="node"><title>Node14</title>
<g id="a_node14"><a xlink:href="main_8cpp.html" target="_top" xlink:title="main.cpp">
<polygon fill="none" stroke="black" points="13.5054,-56.5 13.5054,-75.5 69.5054,-75.5 69.5054,-56.5 13.5054,-56.5"/>
<text text-anchor="middle" x="41.5054" y="-63.5" font-family="Helvetica,sans-Serif" font-size="10.00">main.cpp</text>
</a>
</g>
</g>
<!-- Node13&#45;&gt;Node14 -->
<g id="edge15" class="edge"><title>Node13&#45;&gt;Node14</title>
<path fill="none" stroke="midnightblue" d="M41.5054,-101.805C41.5054,-92.9102 41.5054,-82.7798 41.5054,-75.7511"/>
<polygon fill="midnightblue" stroke="midnightblue" points="38.0055,-102.083 41.5054,-112.083 45.0055,-102.083 38.0055,-102.083"/>
</g>
<!-- Node20 -->
<g id="node20" class="node"><title>Node20</title>
<g id="a_node20"><a xlink:href="_default_surface_8h.html" target="_top" xlink:title="DefaultSurface.h">
<polygon fill="none" stroke="black" points="382.505,-168.5 382.505,-187.5 472.505,-187.5 472.505,-168.5 382.505,-168.5"/>
<text text-anchor="middle" x="427.505" y="-175.5" font-family="Helvetica,sans-Serif" font-size="10.00">DefaultSurface.h</text>
</a>
</g>
</g>
<!-- Node19&#45;&gt;Node20 -->
<g id="edge21" class="edge"><title>Node19&#45;&gt;Node20</title>
<path fill="none" stroke="midnightblue" d="M464.524,-216.718C455.183,-207.2 443.76,-195.561 436.094,-187.751"/>
<polygon fill="midnightblue" stroke="midnightblue" points="462.251,-219.398 471.754,-224.083 467.247,-214.494 462.251,-219.398"/>
</g>
<!-- Node22 -->
<g id="node22" class="node"><title>Node22</title>
<g id="a_node22"><a xlink:href="_wood_surface_8h.html" target="_top" xlink:title="WoodSurface.h">
<polygon fill="none" stroke="black" points="490.505,-168.5 490.505,-187.5 574.505,-187.5 574.505,-168.5 490.505,-168.5"/>
<text text-anchor="middle" x="532.505" y="-175.5" font-family="Helvetica,sans-Serif" font-size="10.00">WoodSurface.h</text>
</a>
</g>
</g>
<!-- Node19&#45;&gt;Node22 -->
<g id="edge24" class="edge"><title>Node19&#45;&gt;Node22</title>
<path fill="none" stroke="midnightblue" d="M496.185,-216.718C505.35,-207.2 516.558,-195.561 524.078,-187.751"/>
<polygon fill="midnightblue" stroke="midnightblue" points="493.507,-214.452 489.092,-224.083 498.55,-219.308 493.507,-214.452"/>
</g>
<!-- Node24 -->
<g id="node24" class="node"><title>Node24</title>
<g id="a_node24"><a xlink:href="_bitmap_surface_8cpp.html" target="_top" xlink:title="BitmapSurface.cpp">
<polygon fill="none" stroke="black" points="592.505,-168.5 592.505,-187.5 692.505,-187.5 692.505,-168.5 592.505,-168.5"/>
<text text-anchor="middle" x="642.505" y="-175.5" font-family="Helvetica,sans-Serif" font-size="10.00">BitmapSurface.cpp</text>
</a>
</g>
</g>
<!-- Node19&#45;&gt;Node24 -->
<g id="edge27" class="edge"><title>Node19&#45;&gt;Node24</title>
<path fill="none" stroke="midnightblue" d="M515.989,-221.172C546.494,-211.004 589.75,-196.585 616.956,-187.516"/>
<polygon fill="midnightblue" stroke="midnightblue" points="514.555,-217.961 506.175,-224.444 516.768,-224.602 514.555,-217.961"/>
</g>
<!-- Node20&#45;&gt;Node16 -->
<g id="edge23" class="edge"><title>Node20&#45;&gt;Node16</title>
<path fill="none" stroke="midnightblue" d="M414.083,-160.144C406.591,-150.736 397.568,-139.405 391.474,-131.751"/>
<polygon fill="midnightblue" stroke="midnightblue" points="411.438,-162.44 420.405,-168.083 416.914,-158.08 411.438,-162.44"/>
</g>
<!-- Node21 -->
<g id="node21" class="node"><title>Node21</title>
<g id="a_node21"><a xlink:href="_default_surface_8cpp.html" target="_top" xlink:title="DefaultSurface.cpp">
<polygon fill="none" stroke="black" points="439.005,-112.5 439.005,-131.5 540.005,-131.5 540.005,-112.5 439.005,-112.5"/>
<text text-anchor="middle" x="489.505" y="-119.5" font-family="Helvetica,sans-Serif" font-size="10.00">DefaultSurface.cpp</text>
</a>
</g>
</g>
<!-- Node20&#45;&gt;Node21 -->
<g id="edge22" class="edge"><title>Node20&#45;&gt;Node21</title>
<path fill="none" stroke="midnightblue" d="M445.259,-161.537C456.314,-151.909 470.137,-139.869 479.363,-131.834"/>
<polygon fill="midnightblue" stroke="midnightblue" points="442.709,-159.117 437.467,-168.324 447.306,-164.395 442.709,-159.117"/>
</g>
<!-- Node22&#45;&gt;Node16 -->
<g id="edge25" class="edge"><title>Node22&#45;&gt;Node16</title>
<path fill="none" stroke="midnightblue" d="M499.358,-164.906C471.534,-154.754 432.486,-140.506 407.847,-131.516"/>
<polygon fill="midnightblue" stroke="midnightblue" points="498.46,-168.304 509.054,-168.444 500.86,-161.728 498.46,-168.304"/>
</g>
<!-- Node23 -->
<g id="node23" class="node"><title>Node23</title>
<g id="a_node23"><a xlink:href="_wood_surface_8cpp.html" target="_top" xlink:title="WoodSurface.cpp">
<polygon fill="none" stroke="black" points="558.005,-112.5 558.005,-131.5 653.005,-131.5 653.005,-112.5 558.005,-112.5"/>
<text text-anchor="middle" x="605.505" y="-119.5" font-family="Helvetica,sans-Serif" font-size="10.00">WoodSurface.cpp</text>
</a>
</g>
</g>
<!-- Node22&#45;&gt;Node23 -->
<g id="edge26" class="edge"><title>Node22&#45;&gt;Node23</title>
<path fill="none" stroke="midnightblue" d="M552.647,-162.101C565.785,-152.382 582.488,-140.027 593.563,-131.834"/>
<polygon fill="midnightblue" stroke="midnightblue" points="550.192,-159.563 544.234,-168.324 554.355,-165.191 550.192,-159.563"/>
</g>
<!-- Node26 -->
<g id="node26" class="node"><title>Node26</title>
<g id="a_node26"><a xlink:href="_generic_renderer_8h.html" target="_top" xlink:title="GenericRenderer.h">
<polygon fill="none" stroke="black" points="710.505,-168.5 710.505,-187.5 808.505,-187.5 808.505,-168.5 710.505,-168.5"/>
<text text-anchor="middle" x="759.505" y="-175.5" font-family="Helvetica,sans-Serif" font-size="10.00">GenericRenderer.h</text>
</a>
</g>
</g>
<!-- Node25&#45;&gt;Node26 -->
<g id="edge29" class="edge"><title>Node25&#45;&gt;Node26</title>
<path fill="none" stroke="midnightblue" d="M646.981,-220.906C674.241,-210.754 712.498,-196.506 736.637,-187.516"/>
<polygon fill="midnightblue" stroke="midnightblue" points="645.631,-217.674 637.481,-224.444 648.074,-224.233 645.631,-217.674"/>
</g>
<!-- Node28 -->
<g id="node28" class="node"><title>Node28</title>
<g id="a_node28"><a xlink:href="_free_element_base_renderer_8cpp.html" target="_top" xlink:title="FreeElementBaseRenderer.cpp">
<polygon fill="none" stroke="black" points="827.005,-168.5 827.005,-187.5 980.005,-187.5 980.005,-168.5 827.005,-168.5"/>
<text text-anchor="middle" x="903.505" y="-175.5" font-family="Helvetica,sans-Serif" font-size="10.00">FreeElementBaseRenderer.cpp</text>
</a>
</g>
</g>
<!-- Node25&#45;&gt;Node28 -->
<g id="edge32" class="edge"><title>Node25&#45;&gt;Node28</title>
<path fill="none" stroke="midnightblue" d="M670.161,-222.601C724.779,-212.395 807.071,-197.019 857.927,-187.516"/>
<polygon fill="midnightblue" stroke="midnightblue" points="669.485,-219.166 660.298,-224.444 670.771,-226.047 669.485,-219.166"/>
</g>
<!-- Node26&#45;&gt;Node16 -->
<g id="edge31" class="edge"><title>Node26&#45;&gt;Node16</title>
<path fill="none" stroke="midnightblue" d="M700.449,-167.88C579.555,-150.721 547.243,-151.155 430.505,-132 427.293,-131.473 423.962,-130.891 420.627,-130.284"/>
<polygon fill="midnightblue" stroke="midnightblue" points="700.074,-171.362 710.469,-169.314 701.065,-164.433 700.074,-171.362"/>
</g>
<!-- Node27 -->
<g id="node27" class="node"><title>Node27</title>
<g id="a_node27"><a xlink:href="_generic_renderer_8cpp.html" target="_top" xlink:title="GenericRenderer.cpp">
<polygon fill="none" stroke="black" points="705.005,-112.5 705.005,-131.5 814.005,-131.5 814.005,-112.5 705.005,-112.5"/>
<text text-anchor="middle" x="759.505" y="-119.5" font-family="Helvetica,sans-Serif" font-size="10.00">GenericRenderer.cpp</text>
</a>
</g>
</g>
<!-- Node26&#45;&gt;Node27 -->
<g id="edge30" class="edge"><title>Node26&#45;&gt;Node27</title>
<path fill="none" stroke="midnightblue" d="M759.505,-157.805C759.505,-148.91 759.505,-138.78 759.505,-131.751"/>
<polygon fill="midnightblue" stroke="midnightblue" points="756.006,-158.083 759.505,-168.083 763.006,-158.083 756.006,-158.083"/>
</g>
</g>
</svg>
