<?xml version="1.0" encoding="UTF-8" standalone="no"?>
<!DOCTYPE svg PUBLIC "-//W3C//DTD SVG 1.1//EN"
 "http://www.w3.org/Graphics/SVG/1.1/DTD/svg11.dtd">
<!-- Generated by graphviz version 2.26.3 (20100126.1600)
 -->
<!-- Title: ResourceLib.cpp Pages: 1 -->
<!--zoomable 436 -->
<svg id="main" version="1.1" xmlns="http://www.w3.org/2000/svg" xmlns:xlink="http://www.w3.org/1999/xlink" xml:space="preserve" onload="init(evt)">
<style type="text/css"><![CDATA[
.edge:hover path { stroke: red; }
.edge:hover polygon { stroke: red; fill: red; }
]]></style>
<script type="text/javascript"><![CDATA[
var edges = document.getElementsByTagName('g');
if (edges && edges.length) {
  for (var i=0;i<edges.length;i++) {
    if (edges[i].id.substr(0,4)=='edge') {
      edges[i].setAttribute('class','edge');
    }
  }
}
]]></script>
        <defs>
                <circle id="rim" cx="0" cy="0" r="7"/>
                <circle id="rim2" cx="0" cy="0" r="3.5"/>
                <g id="zoomPlus">
                        <use xlink:href="#rim" fill="#404040">
                                <set attributeName="fill" to="#808080" begin="zoomplus.mouseover" end="zoomplus.mouseout"/>
                        </use>
                        <path d="M-4,0h8M0,-4v8" fill="none" stroke="white" stroke-width="1.5" pointer-events="none"/>
                </g>
                <g id="zoomMin">
                        <use xlink:href="#rim" fill="#404040">
                                <set attributeName="fill" to="#808080" begin="zoomminus.mouseover" end="zoomminus.mouseout"/>
                        </use>
                        <path d="M-4,0h8" fill="none" stroke="white" stroke-width="1.5" pointer-events="none"/>
                </g>
                <g id="dirArrow">
                        <path fill="none" stroke="white" stroke-width="1.5" d="M0,-3.0v7 M-2.5,-0.5L0,-3.0L2.5,-0.5"/>
                </g>
               <g id="resetDef">
                       <use xlink:href="#rim2" fill="#404040">
                               <set attributeName="fill" to="#808080" begin="reset.mouseover" end="reset.mouseout"/>
                       </use>
               </g>
        </defs>

<script type="text/javascript">
var viewWidth = 1245;
var viewHeight = 436;
var sectionId = 'dynsection-0';
</script>
<script xlink:href="svgpan.js"/>
<svg id="graph" class="graph">
<g id="viewport">
<title>ResourceLib.cpp</title>
<!-- Node1 -->
<g id="node1" class="node"><title>Node1</title>
<polygon fill="#bfbfbf" stroke="black" points="367.5,-407 367.5,-427 456.5,-427 456.5,-407 367.5,-407"/>
<text text-anchor="middle" x="412" y="-414" font-family="FreeSans" font-size="10.00">ResourceLib.cpp</text>
</g>
<!-- Node2 -->
<g id="node3" class="node"><title>Node2</title>
<a xlink:href="_classic_record_file_8h.html" target="_top" xlink:title="../Parcel/ClassicRecordFile.h">
<polygon fill="none" stroke="black" points="238.5,-349 238.5,-369 379.5,-369 379.5,-349 238.5,-349"/>
<text text-anchor="middle" x="309" y="-356" font-family="FreeSans" font-size="10.00">../Parcel/ClassicRecordFile.h</text>
</a>
</g>
<!-- Node1&#45;&gt;Node2 -->
<g id="edge2" class="edge"><title>Node1&#45;&gt;Node2</title>
<path fill="none" stroke="midnightblue" d="M394.059,-406.897C377.985,-397.846 354.185,-384.444 335.846,-374.117"/>
<polygon fill="midnightblue" stroke="midnightblue" points="337.512,-371.039 327.081,-369.182 334.077,-377.138 337.512,-371.039"/>
</g>
<!-- Node14 -->
<g id="node28" class="node"><title>Node14</title>
<a xlink:href="_obj_stream_8h.html" target="_top" xlink:title="ObjStream.h">
<polygon fill="none" stroke="black" points="376.5,-233 376.5,-253 447.5,-253 447.5,-233 376.5,-233"/>
<text text-anchor="middle" x="412" y="-240" font-family="FreeSans" font-size="10.00">ObjStream.h</text>
</a>
</g>
<!-- Node1&#45;&gt;Node14 -->
<g id="edge40" class="edge"><title>Node1&#45;&gt;Node14</title>
<path fill="none" stroke="midnightblue" d="M412,-406.893C412,-379.023 412,-300.675 412,-263.313"/>
<polygon fill="midnightblue" stroke="midnightblue" points="415.5,-263.135 412,-253.135 408.5,-263.135 415.5,-263.135"/>
</g>
<!-- Node17 -->
<g id="node38" class="node"><title>Node17</title>
<a xlink:href="_resource_lib_8h.html" target="_top" xlink:title="ResourceLib.h">
<polygon fill="none" stroke="black" points="613.5,-349 613.5,-369 692.5,-369 692.5,-349 613.5,-349"/>
<text text-anchor="middle" x="653" y="-356" font-family="FreeSans" font-size="10.00">ResourceLib.h</text>
</a>
</g>
<!-- Node1&#45;&gt;Node17 -->
<g id="edge42" class="edge"><title>Node1&#45;&gt;Node17</title>
<path fill="none" stroke="midnightblue" d="M453.704,-406.963C495.324,-396.947 559.277,-381.556 603.46,-370.923"/>
<polygon fill="midnightblue" stroke="midnightblue" points="604.501,-374.272 613.405,-368.529 602.863,-367.466 604.501,-374.272"/>
</g>
<!-- Node3 -->
<g id="node5" class="node"><title>Node3</title>
<polygon fill="none" stroke="#bfbfbf" points="115,-291 115,-311 165,-311 165,-291 115,-291"/>
<text text-anchor="middle" x="140" y="-298" font-family="FreeSans" font-size="10.00">fstream</text>
</g>
<!-- Node2&#45;&gt;Node3 -->
<g id="edge4" class="edge"><title>Node2&#45;&gt;Node3</title>
<path fill="none" stroke="midnightblue" d="M279.562,-348.897C250.378,-338.881 205.673,-323.539 174.759,-312.929"/>
<polygon fill="midnightblue" stroke="midnightblue" points="175.839,-309.599 165.244,-309.664 173.566,-316.22 175.839,-309.599"/>
</g>
<!-- Node4 -->
<g id="node7" class="node"><title>Node4</title>
<a xlink:href="_record_file_8h.html" target="_top" xlink:title="RecordFile.h">
<polygon fill="none" stroke="black" points="273.5,-291 273.5,-311 344.5,-311 344.5,-291 273.5,-291"/>
<text text-anchor="middle" x="309" y="-298" font-family="FreeSans" font-size="10.00">RecordFile.h</text>
</a>
</g>
<!-- Node2&#45;&gt;Node4 -->
<g id="edge6" class="edge"><title>Node2&#45;&gt;Node4</title>
<path fill="none" stroke="midnightblue" d="M309,-348.897C309,-341.339 309,-330.748 309,-321.446"/>
<polygon fill="midnightblue" stroke="midnightblue" points="312.5,-321.378 309,-311.378 305.5,-321.378 312.5,-321.378"/>
</g>
<!-- Node5 -->
<g id="node9" class="node"><title>Node5</title>
<a xlink:href="_inspectable_8h.html" target="_top" xlink:title="../Util/Inspectable.h">
<polygon fill="none" stroke="black" points="259,-233 259,-253 359,-253 359,-233 259,-233"/>
<text text-anchor="middle" x="309" y="-240" font-family="FreeSans" font-size="10.00">../Util/Inspectable.h</text>
</a>
</g>
<!-- Node4&#45;&gt;Node5 -->
<g id="edge8" class="edge"><title>Node4&#45;&gt;Node5</title>
<path fill="none" stroke="midnightblue" d="M309,-290.897C309,-283.339 309,-272.748 309,-263.446"/>
<polygon fill="midnightblue" stroke="midnightblue" points="312.5,-263.378 309,-253.378 305.5,-263.378 312.5,-263.378"/>
</g>
<!-- Node7 -->
<g id="node13" class="node"><title>Node7</title>
<a xlink:href="_o_s_8h.html" target="_top" xlink:title="../Util/OS.h">
<polygon fill="none" stroke="black" points="190,-175 190,-195 254,-195 254,-175 190,-175"/>
<text text-anchor="middle" x="222" y="-182" font-family="FreeSans" font-size="10.00">../Util/OS.h</text>
</a>
</g>
<!-- Node4&#45;&gt;Node7 -->
<g id="edge12" class="edge"><title>Node4&#45;&gt;Node7</title>
<path fill="none" stroke="midnightblue" d="M292.022,-290.907C279.027,-282.449 261.446,-269.315 250,-254 239.022,-239.311 231.614,-219.717 227.189,-205.163"/>
<polygon fill="midnightblue" stroke="midnightblue" points="230.457,-203.856 224.377,-195.18 223.72,-205.754 230.457,-203.856"/>
</g>
<!-- Node4&#45;&gt;Node14 -->
<g id="edge28" class="edge"><title>Node4&#45;&gt;Node14</title>
<path fill="none" stroke="midnightblue" d="M326.941,-290.897C343.015,-281.846 366.815,-268.444 385.154,-258.117"/>
<polygon fill="midnightblue" stroke="midnightblue" points="386.923,-261.138 393.919,-253.182 383.488,-255.039 386.923,-261.138"/>
</g>
<!-- Node6 -->
<g id="node11" class="node"><title>Node6</title>
<polygon fill="none" stroke="#bfbfbf" points="329.5,-117 329.5,-137 370.5,-137 370.5,-117 329.5,-117"/>
<text text-anchor="middle" x="350" y="-124" font-family="FreeSans" font-size="10.00">string</text>
</g>
<!-- Node5&#45;&gt;Node6 -->
<g id="edge10" class="edge"><title>Node5&#45;&gt;Node6</title>
<path fill="none" stroke="midnightblue" d="M312.539,-232.699C317.186,-219.2 325.622,-194.799 333,-174 336.182,-165.03 339.758,-155.118 342.807,-146.719"/>
<polygon fill="midnightblue" stroke="midnightblue" points="346.186,-147.666 346.316,-137.072 339.608,-145.273 346.186,-147.666"/>
</g>
<!-- Node7&#45;&gt;Node6 -->
<g id="edge18" class="edge"><title>Node7&#45;&gt;Node6</title>
<path fill="none" stroke="midnightblue" d="M244.296,-174.897C265.229,-165.412 296.704,-151.15 319.867,-140.654"/>
<polygon fill="midnightblue" stroke="midnightblue" points="321.566,-143.727 329.23,-136.411 318.677,-137.351 321.566,-143.727"/>
</g>
<!-- Node8 -->
<g id="node15" class="node"><title>Node8</title>
<polygon fill="none" stroke="#bfbfbf" points="0,-117 0,-137 42,-137 42,-117 0,-117"/>
<text text-anchor="middle" x="21" y="-124" font-family="FreeSans" font-size="10.00">locale</text>
</g>
<!-- Node7&#45;&gt;Node8 -->
<g id="edge14" class="edge"><title>Node7&#45;&gt;Node8</title>
<path fill="none" stroke="midnightblue" d="M189.935,-177.037C157.353,-168.76 105.267,-155.018 51.86,-138.111"/>
<polygon fill="midnightblue" stroke="midnightblue" points="52.8206,-134.744 42.2297,-135.032 50.6887,-141.411 52.8206,-134.744"/>
</g>
<!-- Node9 -->
<g id="node17" class="node"><title>Node9</title>
<polygon fill="none" stroke="#bfbfbf" points="60,-117 60,-137 90,-137 90,-117 60,-117"/>
<text text-anchor="middle" x="75" y="-124" font-family="FreeSans" font-size="10.00">set</text>
</g>
<!-- Node7&#45;&gt;Node9 -->
<g id="edge16" class="edge"><title>Node7&#45;&gt;Node9</title>
<path fill="none" stroke="midnightblue" d="M193.951,-174.871C170.844,-166.398 137.054,-153.716 99.7307,-138.151"/>
<polygon fill="midnightblue" stroke="midnightblue" points="100.745,-134.781 90.1698,-134.132 98.0325,-141.234 100.745,-134.781"/>
</g>
<!-- Node10 -->
<g id="node20" class="node"><title>Node10</title>
<polygon fill="none" stroke="#bfbfbf" points="108,-117 108,-137 152,-137 152,-117 108,-117"/>
<text text-anchor="middle" x="130" y="-124" font-family="FreeSans" font-size="10.00">vector</text>
</g>
<!-- Node7&#45;&gt;Node10 -->
<g id="edge20" class="edge"><title>Node7&#45;&gt;Node10</title>
<path fill="none" stroke="midnightblue" d="M205.975,-174.897C191.814,-165.97 170.941,-152.811 154.655,-142.543"/>
<polygon fill="midnightblue" stroke="midnightblue" points="156.476,-139.554 146.15,-137.182 152.743,-145.475 156.476,-139.554"/>
</g>
<!-- Node11 -->
<g id="node22" class="node"><title>Node11</title>
<polygon fill="none" stroke="#bfbfbf" points="169.5,-117 169.5,-137 274.5,-137 274.5,-117 169.5,-117"/>
<text text-anchor="middle" x="222" y="-124" font-family="FreeSans" font-size="10.00">boost/filesystem.hpp</text>
</g>
<!-- Node7&#45;&gt;Node11 -->
<g id="edge22" class="edge"><title>Node7&#45;&gt;Node11</title>
<path fill="none" stroke="midnightblue" d="M222,-174.897C222,-167.339 222,-156.748 222,-147.446"/>
<polygon fill="midnightblue" stroke="midnightblue" points="225.5,-147.378 222,-137.378 218.5,-147.378 225.5,-147.378"/>
</g>
<!-- Node12 -->
<g id="node24" class="node"><title>Node12</title>
<a xlink:href="_m_r___types_8h.html" target="_top" xlink:title="MR_Types.h">
<polygon fill="none" stroke="black" points="759.5,-59 759.5,-79 830.5,-79 830.5,-59 759.5,-59"/>
<text text-anchor="middle" x="795" y="-66" font-family="FreeSans" font-size="10.00">MR_Types.h</text>
</a>
</g>
<!-- Node7&#45;&gt;Node12 -->
<g id="edge24" class="edge"><title>Node7&#45;&gt;Node12</title>
<path fill="none" stroke="midnightblue" d="M234.625,-174.981C256.84,-157.563 302.33,-122.895 321,-116 398.905,-87.23 646.342,-74.6732 749.333,-70.5983"/>
<polygon fill="midnightblue" stroke="midnightblue" points="749.563,-74.0921 759.42,-70.2081 749.293,-67.0973 749.563,-74.0921"/>
</g>
<!-- Node13 -->
<g id="node26" class="node"><title>Node13</title>
<polygon fill="none" stroke="#bfbfbf" points="766,-1 766,-21 824,-21 824,-1 766,-1"/>
<text text-anchor="middle" x="795" y="-8" font-family="FreeSans" font-size="10.00">inttypes.h</text>
</g>
<!-- Node12&#45;&gt;Node13 -->
<g id="edge26" class="edge"><title>Node12&#45;&gt;Node13</title>
<path fill="none" stroke="midnightblue" d="M795,-58.8972C795,-51.339 795,-40.7476 795,-31.4458"/>
<polygon fill="midnightblue" stroke="midnightblue" points="798.5,-31.3776 795,-21.3776 791.5,-31.3776 798.5,-31.3776"/>
</g>
<!-- Node14&#45;&gt;Node6 -->
<g id="edge30" class="edge"><title>Node14&#45;&gt;Node6</title>
<path fill="none" stroke="midnightblue" d="M398.682,-232.875C388.226,-224.212 374.12,-210.819 366,-196 357.794,-181.023 353.783,-161.99 351.83,-147.709"/>
<polygon fill="midnightblue" stroke="midnightblue" points="355.27,-146.984 350.664,-137.443 348.315,-147.774 355.27,-146.984"/>
</g>
<!-- Node14&#45;&gt;Node7 -->
<g id="edge38" class="edge"><title>Node14&#45;&gt;Node7</title>
<path fill="none" stroke="midnightblue" d="M378.905,-232.897C346.971,-223.149 298.508,-208.355 263.898,-197.79"/>
<polygon fill="midnightblue" stroke="midnightblue" points="264.669,-194.366 254.083,-194.794 262.626,-201.061 264.669,-194.366"/>
</g>
<!-- Node14&#45;&gt;Node12 -->
<g id="edge36" class="edge"><title>Node14&#45;&gt;Node12</title>
<path fill="none" stroke="midnightblue" d="M421.987,-232.773C436.895,-218.007 466.397,-190.664 496,-174 579.845,-126.803 688.671,-95.0894 749.218,-79.7299"/>
<polygon fill="midnightblue" stroke="midnightblue" points="750.375,-83.0487 759.228,-77.2286 748.677,-76.2575 750.375,-83.0487"/>
</g>
<!-- Node15 -->
<g id="node31" class="node"><title>Node15</title>
<a xlink:href="_exception_8h.html" target="_top" xlink:title="../Exception.h">
<polygon fill="none" stroke="black" points="375,-175 375,-195 449,-195 449,-175 375,-175"/>
<text text-anchor="middle" x="412" y="-182" font-family="FreeSans" font-size="10.00">../Exception.h</text>
</a>
</g>
<!-- Node14&#45;&gt;Node15 -->
<g id="edge32" class="edge"><title>Node14&#45;&gt;Node15</title>
<path fill="none" stroke="midnightblue" d="M412,-232.897C412,-225.339 412,-214.748 412,-205.446"/>
<polygon fill="midnightblue" stroke="midnightblue" points="415.5,-205.378 412,-195.378 408.5,-205.378 415.5,-205.378"/>
</g>
<!-- Node16 -->
<g id="node33" class="node"><title>Node16</title>
<polygon fill="none" stroke="#bfbfbf" points="388,-117 388,-137 446,-137 446,-117 388,-117"/>
<text text-anchor="middle" x="417" y="-124" font-family="FreeSans" font-size="10.00">exception</text>
</g>
<!-- Node15&#45;&gt;Node16 -->
<g id="edge34" class="edge"><title>Node15&#45;&gt;Node16</title>
<path fill="none" stroke="midnightblue" d="M412.871,-174.897C413.522,-167.339 414.436,-156.748 415.237,-147.446"/>
<polygon fill="midnightblue" stroke="midnightblue" points="418.733,-147.641 416.105,-137.378 411.759,-147.04 418.733,-147.641"/>
</g>
<!-- Node17&#45;&gt;Node7 -->
<g id="edge46" class="edge"><title>Node17&#45;&gt;Node7</title>
<path fill="none" stroke="midnightblue" d="M613.305,-356.267C520.181,-349.563 293.381,-331.427 265,-312 230.406,-288.32 223.204,-235.105 221.975,-205.63"/>
<polygon fill="midnightblue" stroke="midnightblue" points="225.467,-205.193 221.751,-195.271 218.468,-205.344 225.467,-205.193"/>
</g>
<!-- Node18 -->
<g id="node40" class="node"><title>Node18</title>
<polygon fill="none" stroke="#bfbfbf" points="734.5,-291 734.5,-311 769.5,-311 769.5,-291 734.5,-291"/>
<text text-anchor="middle" x="752" y="-298" font-family="FreeSans" font-size="10.00">map</text>
</g>
<!-- Node17&#45;&gt;Node18 -->
<g id="edge44" class="edge"><title>Node17&#45;&gt;Node18</title>
<path fill="none" stroke="midnightblue" d="M670.244,-348.897C685.624,-339.887 708.361,-326.567 725.955,-316.259"/>
<polygon fill="midnightblue" stroke="midnightblue" points="727.762,-319.257 734.621,-311.182 724.223,-313.217 727.762,-319.257"/>
</g>
<!-- Node19 -->
<g id="node43" class="node"><title>Node19</title>
<a xlink:href="_res_actor_8h.html" target="_top" xlink:title="ResActor.h">
<polygon fill="none" stroke="black" points="957.5,-291 957.5,-311 1022.5,-311 1022.5,-291 957.5,-291"/>
<text text-anchor="middle" x="990" y="-298" font-family="FreeSans" font-size="10.00">ResActor.h</text>
</a>
</g>
<!-- Node17&#45;&gt;Node19 -->
<g id="edge48" class="edge"><title>Node17&#45;&gt;Node19</title>
<path fill="none" stroke="midnightblue" d="M692.649,-352.176C756.399,-341.204 881.185,-319.728 947.002,-308.4"/>
<polygon fill="midnightblue" stroke="midnightblue" points="947.78,-311.818 957.041,-306.672 946.592,-304.919 947.78,-311.818"/>
</g>
<!-- Node28 -->
<g id="node66" class="node"><title>Node28</title>
<a xlink:href="_res_sprite_8h.html" target="_top" xlink:title="ResSprite.h">
<polygon fill="none" stroke="black" points="650.5,-291 650.5,-311 717.5,-311 717.5,-291 650.5,-291"/>
<text text-anchor="middle" x="684" y="-298" font-family="FreeSans" font-size="10.00">ResSprite.h</text>
</a>
</g>
<!-- Node17&#45;&gt;Node28 -->
<g id="edge76" class="edge"><title>Node17&#45;&gt;Node28</title>
<path fill="none" stroke="midnightblue" d="M658.4,-348.897C662.615,-341.01 668.596,-329.821 673.716,-320.24"/>
<polygon fill="midnightblue" stroke="midnightblue" points="676.826,-321.847 678.453,-311.378 670.653,-318.547 676.826,-321.847"/>
</g>
<!-- Node31 -->
<g id="node74" class="node"><title>Node31</title>
<a xlink:href="_res_sound_8h.html" target="_top" xlink:title="ResSound.h">
<polygon fill="none" stroke="black" points="588.5,-233 588.5,-253 657.5,-253 657.5,-233 588.5,-233"/>
<text text-anchor="middle" x="623" y="-240" font-family="FreeSans" font-size="10.00">ResSound.h</text>
</a>
</g>
<!-- Node17&#45;&gt;Node31 -->
<g id="edge86" class="edge"><title>Node17&#45;&gt;Node31</title>
<path fill="none" stroke="midnightblue" d="M650.338,-348.706C645.366,-329.482 634.593,-287.825 628.154,-262.929"/>
<polygon fill="midnightblue" stroke="midnightblue" points="631.506,-261.911 625.613,-253.106 624.729,-263.663 631.506,-261.911"/>
</g>
<!-- Node20 -->
<g id="node45" class="node"><title>Node20</title>
<a xlink:href="_res_bitmap_8h.html" target="_top" xlink:title="ResBitmap.h">
<polygon fill="none" stroke="black" points="1118,-233 1118,-253 1190,-253 1190,-233 1118,-233"/>
<text text-anchor="middle" x="1154" y="-240" font-family="FreeSans" font-size="10.00">ResBitmap.h</text>
</a>
</g>
<!-- Node19&#45;&gt;Node20 -->
<g id="edge50" class="edge"><title>Node19&#45;&gt;Node20</title>
<path fill="none" stroke="midnightblue" d="M1018.57,-290.897C1045.53,-281.362 1086.14,-266.999 1115.86,-256.488"/>
<polygon fill="midnightblue" stroke="midnightblue" points="1117.23,-259.718 1125.49,-253.084 1114.89,-253.119 1117.23,-259.718"/>
</g>
<!-- Node22 -->
<g id="node50" class="node"><title>Node22</title>
<a xlink:href="_viewport3_d_8h.html" target="_top" xlink:title="../VideoServices/Viewport3D.h">
<polygon fill="none" stroke="black" points="916,-233 916,-253 1064,-253 1064,-233 916,-233"/>
<text text-anchor="middle" x="990" y="-240" font-family="FreeSans" font-size="10.00">../VideoServices/Viewport3D.h</text>
</a>
</g>
<!-- Node19&#45;&gt;Node22 -->
<g id="edge56" class="edge"><title>Node19&#45;&gt;Node22</title>
<path fill="none" stroke="midnightblue" d="M990,-290.897C990,-283.339 990,-272.748 990,-263.446"/>
<polygon fill="midnightblue" stroke="midnightblue" points="993.5,-263.378 990,-253.378 986.5,-263.378 993.5,-263.378"/>
</g>
<!-- Node21 -->
<g id="node47" class="node"><title>Node21</title>
<a xlink:href="_bitmap_8h.html" target="_top" xlink:title="../VideoServices/Bitmap.h">
<polygon fill="none" stroke="black" points="1109,-175 1109,-195 1237,-195 1237,-175 1109,-175"/>
<text text-anchor="middle" x="1173" y="-182" font-family="FreeSans" font-size="10.00">../VideoServices/Bitmap.h</text>
</a>
</g>
<!-- Node20&#45;&gt;Node21 -->
<g id="edge52" class="edge"><title>Node20&#45;&gt;Node21</title>
<path fill="none" stroke="midnightblue" d="M1157.31,-232.897C1159.81,-225.257 1163.33,-214.517 1166.4,-205.143"/>
<polygon fill="midnightblue" stroke="midnightblue" points="1169.81,-205.97 1169.6,-195.378 1163.16,-203.791 1169.81,-205.97"/>
</g>
<!-- Node21&#45;&gt;Node12 -->
<g id="edge54" class="edge"><title>Node21&#45;&gt;Node12</title>
<path fill="none" stroke="midnightblue" d="M1163.15,-174.86C1147.52,-159.423 1115.34,-130.314 1082,-116 1039.47,-97.7404 910.657,-81.5286 840.96,-73.7967"/>
<polygon fill="midnightblue" stroke="midnightblue" points="841.035,-70.2841 830.713,-72.6739 840.272,-77.2424 841.035,-70.2841"/>
</g>
<!-- Node22&#45;&gt;Node21 -->
<g id="edge68" class="edge"><title>Node22&#45;&gt;Node21</title>
<path fill="none" stroke="midnightblue" d="M1021.88,-232.897C1052.22,-223.279 1098.07,-208.749 1131.3,-198.215"/>
<polygon fill="midnightblue" stroke="midnightblue" points="1132.71,-201.442 1141.18,-195.084 1130.59,-194.769 1132.71,-201.442"/>
</g>
<!-- Node23 -->
<g id="node52" class="node"><title>Node23</title>
<a xlink:href="_viewport2_d_8h.html" target="_top" xlink:title="Viewport2D.h">
<polygon fill="none" stroke="black" points="855,-175 855,-195 929,-195 929,-175 855,-175"/>
<text text-anchor="middle" x="892" y="-182" font-family="FreeSans" font-size="10.00">Viewport2D.h</text>
</a>
</g>
<!-- Node22&#45;&gt;Node23 -->
<g id="edge58" class="edge"><title>Node22&#45;&gt;Node23</title>
<path fill="none" stroke="midnightblue" d="M972.93,-232.897C957.846,-223.97 935.611,-210.811 918.262,-200.543"/>
<polygon fill="midnightblue" stroke="midnightblue" points="919.592,-197.263 909.203,-195.182 916.027,-203.287 919.592,-197.263"/>
</g>
<!-- Node24 -->
<g id="node55" class="node"><title>Node24</title>
<a xlink:href="_color_palette_8h.html" target="_top" xlink:title="ColorPalette.h">
<polygon fill="none" stroke="black" points="1014.5,-175 1014.5,-195 1091.5,-195 1091.5,-175 1014.5,-175"/>
<text text-anchor="middle" x="1053" y="-182" font-family="FreeSans" font-size="10.00">ColorPalette.h</text>
</a>
</g>
<!-- Node22&#45;&gt;Node24 -->
<g id="edge62" class="edge"><title>Node22&#45;&gt;Node24</title>
<path fill="none" stroke="midnightblue" d="M1000.97,-232.897C1010.17,-224.435 1023.49,-212.172 1034.35,-202.172"/>
<polygon fill="midnightblue" stroke="midnightblue" points="1036.74,-204.726 1041.73,-195.378 1032,-199.576 1036.74,-204.726"/>
</g>
<!-- Node26 -->
<g id="node61" class="node"><title>Node26</title>
<a xlink:href="_patch_8h.html" target="_top" xlink:title="Patch.h">
<polygon fill="none" stroke="black" points="947,-175 947,-195 997,-195 997,-175 947,-175"/>
<text text-anchor="middle" x="972" y="-182" font-family="FreeSans" font-size="10.00">Patch.h</text>
</a>
</g>
<!-- Node22&#45;&gt;Node26 -->
<g id="edge70" class="edge"><title>Node22&#45;&gt;Node26</title>
<path fill="none" stroke="midnightblue" d="M986.865,-232.897C984.494,-225.257 981.16,-214.517 978.251,-205.143"/>
<polygon fill="midnightblue" stroke="midnightblue" points="981.527,-203.891 975.221,-195.378 974.842,-205.966 981.527,-203.891"/>
</g>
<!-- Node23&#45;&gt;Node12 -->
<g id="edge60" class="edge"><title>Node23&#45;&gt;Node12</title>
<path fill="none" stroke="midnightblue" d="M876.031,-174.873C863.264,-166.209 845.497,-152.815 833,-138 820.369,-123.028 809.977,-103.209 803.272,-88.6546"/>
<polygon fill="midnightblue" stroke="midnightblue" points="806.306,-86.8625 799.062,-79.1314 799.904,-89.6927 806.306,-86.8625"/>
</g>
<!-- Node24&#45;&gt;Node12 -->
<g id="edge66" class="edge"><title>Node24&#45;&gt;Node12</title>
<path fill="none" stroke="midnightblue" d="M1059.27,-174.796C1067.43,-160.058 1079.09,-132.75 1065,-116 1036.89,-82.5755 910.255,-72.9195 840.853,-70.1312"/>
<polygon fill="midnightblue" stroke="midnightblue" points="840.76,-66.6255 830.638,-69.7538 840.502,-73.6207 840.76,-66.6255"/>
</g>
<!-- Node25 -->
<g id="node57" class="node"><title>Node25</title>
<polygon fill="none" stroke="#bfbfbf" points="985.5,-117 985.5,-137 1056.5,-137 1056.5,-117 985.5,-117"/>
<text text-anchor="middle" x="1021" y="-124" font-family="FreeSans" font-size="10.00">SDL2/SDL.h</text>
</g>
<!-- Node24&#45;&gt;Node25 -->
<g id="edge64" class="edge"><title>Node24&#45;&gt;Node25</title>
<path fill="none" stroke="midnightblue" d="M1047.43,-174.897C1043.07,-167.01 1036.9,-155.821 1031.62,-146.24"/>
<polygon fill="midnightblue" stroke="midnightblue" points="1034.62,-144.443 1026.73,-137.378 1028.49,-147.824 1034.62,-144.443"/>
</g>
<!-- Node27 -->
<g id="node63" class="node"><title>Node27</title>
<a xlink:href="_world_coordinates_8h.html" target="_top" xlink:title="../Util/WorldCoordinates.h">
<polygon fill="none" stroke="black" points="842,-117 842,-137 968,-137 968,-117 842,-117"/>
<text text-anchor="middle" x="905" y="-124" font-family="FreeSans" font-size="10.00">../Util/WorldCoordinates.h</text>
</a>
</g>
<!-- Node26&#45;&gt;Node27 -->
<g id="edge72" class="edge"><title>Node26&#45;&gt;Node27</title>
<path fill="none" stroke="midnightblue" d="M960.329,-174.897C950.555,-166.435 936.388,-154.172 924.837,-144.172"/>
<polygon fill="midnightblue" stroke="midnightblue" points="926.839,-141.276 916.988,-137.378 922.258,-146.569 926.839,-141.276"/>
</g>
<!-- Node27&#45;&gt;Node12 -->
<g id="edge74" class="edge"><title>Node27&#45;&gt;Node12</title>
<path fill="none" stroke="midnightblue" d="M885.839,-116.897C868.595,-107.804 843.024,-94.3218 823.402,-83.9757"/>
<polygon fill="midnightblue" stroke="midnightblue" points="824.788,-80.7498 814.31,-79.1817 821.523,-86.9418 824.788,-80.7498"/>
</g>
<!-- Node29 -->
<g id="node68" class="node"><title>Node29</title>
<a xlink:href="_sprite_8h.html" target="_top" xlink:title="../VideoServices/Sprite.h">
<polygon fill="none" stroke="black" points="714.5,-233 714.5,-253 837.5,-253 837.5,-233 714.5,-233"/>
<text text-anchor="middle" x="776" y="-240" font-family="FreeSans" font-size="10.00">../VideoServices/Sprite.h</text>
</a>
</g>
<!-- Node28&#45;&gt;Node29 -->
<g id="edge78" class="edge"><title>Node28&#45;&gt;Node29</title>
<path fill="none" stroke="midnightblue" d="M700.025,-290.897C714.186,-281.97 735.059,-268.811 751.345,-258.543"/>
<polygon fill="midnightblue" stroke="midnightblue" points="753.257,-261.475 759.85,-253.182 749.524,-255.554 753.257,-261.475"/>
</g>
<!-- Node29&#45;&gt;Node23 -->
<g id="edge80" class="edge"><title>Node29&#45;&gt;Node23</title>
<path fill="none" stroke="midnightblue" d="M796.206,-232.897C814.556,-223.722 841.848,-210.076 862.611,-199.694"/>
<polygon fill="midnightblue" stroke="midnightblue" points="864.258,-202.784 871.637,-195.182 861.127,-196.523 864.258,-202.784"/>
</g>
<!-- Node30 -->
<g id="node71" class="node"><title>Node30</title>
<a xlink:href="_dll_object_factory_8h.html" target="_top" xlink:title="../Util/DllObjectFactory.h">
<polygon fill="none" stroke="black" points="715,-175 715,-195 837,-195 837,-175 715,-175"/>
<text text-anchor="middle" x="776" y="-182" font-family="FreeSans" font-size="10.00">../Util/DllObjectFactory.h</text>
</a>
</g>
<!-- Node29&#45;&gt;Node30 -->
<g id="edge82" class="edge"><title>Node29&#45;&gt;Node30</title>
<path fill="none" stroke="midnightblue" d="M776,-232.897C776,-225.339 776,-214.748 776,-205.446"/>
<polygon fill="midnightblue" stroke="midnightblue" points="779.5,-205.378 776,-195.378 772.5,-205.378 779.5,-205.378"/>
</g>
<!-- Node30&#45;&gt;Node12 -->
<g id="edge84" class="edge"><title>Node30&#45;&gt;Node12</title>
<path fill="none" stroke="midnightblue" d="M777.686,-174.706C780.821,-155.568 787.597,-114.198 791.681,-89.2654"/>
<polygon fill="midnightblue" stroke="midnightblue" points="795.182,-89.5398 793.345,-79.1055 788.274,-88.4083 795.182,-89.5398"/>
</g>
<!-- Node31&#45;&gt;Node12 -->
<g id="edge92" class="edge"><title>Node31&#45;&gt;Node12</title>
<path fill="none" stroke="midnightblue" d="M632.991,-232.893C661.253,-204.302 742.027,-122.589 777.703,-86.4981"/>
<polygon fill="midnightblue" stroke="midnightblue" points="780.441,-88.7074 784.982,-79.135 775.462,-83.7863 780.441,-88.7074"/>
</g>
<!-- Node32 -->
<g id="node76" class="node"><title>Node32</title>
<a xlink:href="_sound_server_8h.html" target="_top" xlink:title="../VideoServices/SoundServer.h">
<polygon fill="none" stroke="black" points="505,-175 505,-195 659,-195 659,-175 505,-175"/>
<text text-anchor="middle" x="582" y="-182" font-family="FreeSans" font-size="10.00">../VideoServices/SoundServer.h</text>
</a>
</g>
<!-- Node31&#45;&gt;Node32 -->
<g id="edge88" class="edge"><title>Node31&#45;&gt;Node32</title>
<path fill="none" stroke="midnightblue" d="M615.858,-232.897C610.167,-224.846 602.043,-213.353 595.179,-203.643"/>
<polygon fill="midnightblue" stroke="midnightblue" points="597.966,-201.523 589.336,-195.378 592.25,-205.564 597.966,-201.523"/>
</g>
<!-- Node32&#45;&gt;Node6 -->
<g id="edge90" class="edge"><title>Node32&#45;&gt;Node6</title>
<path fill="none" stroke="midnightblue" d="M529.759,-174.931C490.714,-166.947 435.926,-154.779 380.429,-138.194"/>
<polygon fill="midnightblue" stroke="midnightblue" points="381.378,-134.825 370.793,-135.272 379.346,-141.524 381.378,-134.825"/>
</g>
</g>
</svg>
        <g id="navigator" transform="translate(0 0)" fill="#404254">
                <rect fill="#f2f5e9" fill-opacity="0.5" stroke="#606060" stroke-width=".5" x="0" y="0" width="60" height="60"/>
                <use id="zoomplus" xlink:href="#zoomPlus" x="17" y="9" onmousedown="handleZoom(evt,'in')"/>
                <use id="zoomminus" xlink:href="#zoomMin" x="42" y="9" onmousedown="handleZoom(evt,'out')"/>
                <use id="reset" xlink:href="#resetDef" x="30" y="36" onmousedown="handleReset()"/>
                <g id="arrowUp" xlink:href="#dirArrow" transform="translate(30 24)" onmousedown="handlePan(0,-1)">
                  <use xlink:href="#rim" fill="#404040">
                        <set attributeName="fill" to="#808080" begin="arrowUp.mouseover" end="arrowUp.mouseout"/>
                  </use>
                  <path fill="none" stroke="white" stroke-width="1.5" d="M0,-3.0v7 M-2.5,-0.5L0,-3.0L2.5,-0.5"/>
                </g>
                <g id="arrowRight" xlink:href="#dirArrow" transform="rotate(90) translate(36 -43)" onmousedown="handlePan(1,0)">
                  <use xlink:href="#rim" fill="#404040">
                        <set attributeName="fill" to="#808080" begin="arrowRight.mouseover" end="arrowRight.mouseout"/>
                  </use>
                  <path fill="none" stroke="white" stroke-width="1.5" d="M0,-3.0v7 M-2.5,-0.5L0,-3.0L2.5,-0.5"/>
                </g>
                <g id="arrowDown" xlink:href="#dirArrow" transform="rotate(180) translate(-30 -48)" onmousedown="handlePan(0,1)">
                  <use xlink:href="#rim" fill="#404040">
                        <set attributeName="fill" to="#808080" begin="arrowDown.mouseover" end="arrowDown.mouseout"/>
                  </use>
                  <path fill="none" stroke="white" stroke-width="1.5" d="M0,-3.0v7 M-2.5,-0.5L0,-3.0L2.5,-0.5"/>
                </g>
                <g id="arrowLeft" xlink:href="#dirArrow" transform="rotate(270) translate(-36 17)" onmousedown="handlePan(-1,0)">
                  <use xlink:href="#rim" fill="#404040">
                        <set attributeName="fill" to="#808080" begin="arrowLeft.mouseover" end="arrowLeft.mouseout"/>
                  </use>
                  <path fill="none" stroke="white" stroke-width="1.5" d="M0,-3.0v7 M-2.5,-0.5L0,-3.0L2.5,-0.5"/>
                </g>
        </g>
        <svg viewBox="0 0 15 15" width="100%" height="30px" preserveAspectRatio="xMaxYMin meet">
         <g id="arrow_out" transform="scale(0.3 0.3)">
          <a xlink:href="_resource_lib_8cpp__incl_org.svg" target="_base">
           <rect id="button" ry="5" rx="5" y="6" x="6" height="38" width="38"
                fill="#f2f5e9" fill-opacity="0.5" stroke="#606060" stroke-width="1.0"/>
           <path id="arrow"
             d="M 11.500037,31.436501 C 11.940474,20.09759 22.043105,11.32322 32.158766,21.979434 L 37.068811,17.246167 C 37.068811,17.246167 37.088388,32 37.088388,32 L 22.160133,31.978069 C 22.160133,31.978069 26.997745,27.140456 26.997745,27.140456 C 18.528582,18.264221 13.291696,25.230495 11.500037,31.436501 z"
             style="fill:#404040;"/>
          </a>
         </g>
        </svg>
</svg>
