<?xml version="1.0" encoding="UTF-8" standalone="no"?>
<!DOCTYPE svg PUBLIC "-//W3C//DTD SVG 1.1//EN"
 "http://www.w3.org/Graphics/SVG/1.1/DTD/svg11.dtd">
<!-- Generated by graphviz version 2.26.3 (20100126.1600)
 -->
<!-- Title: Rulebook.h Pages: 1 -->
<svg width="158pt" height="158pt"
 viewBox="0.00 0.00 158.00 158.00" xmlns="http://www.w3.org/2000/svg" xmlns:xlink="http://www.w3.org/1999/xlink">
<g id="graph1" class="graph" transform="scale(1 1) rotate(0) translate(4 154)">
<title>Rulebook.h</title>
<!-- Node1 -->
<g id="node1" class="node"><title>Node1</title>
<polygon fill="#bfbfbf" stroke="black" points="53.5,-129 53.5,-149 118.5,-149 118.5,-129 53.5,-129"/>
<text text-anchor="middle" x="86" y="-136" font-family="FreeSans" font-size="10.00">Rulebook.h</text>
</g>
<!-- Node2 -->
<g id="node3" class="node"><title>Node2</title>
<a xlink:href="_handlers_8h.html" target="_top" xlink:title="../../engine/Script\l/Handlers.h">
<polygon fill="none" stroke="black" points="-0.5,-59 -0.5,-91 88.5,-91 88.5,-59 -0.5,-59"/>
<text text-anchor="start" x="7.5" y="-78" font-family="FreeSans" font-size="10.00">../../engine/Script</text>
<text text-anchor="middle" x="44" y="-66" font-family="FreeSans" font-size="10.00">/Handlers.h</text>
</a>
</g>
<!-- Node1&#45;&gt;Node2 -->
<g id="edge2" class="edge"><title>Node1&#45;&gt;Node2</title>
<path fill="none" stroke="midnightblue" d="M79.252,-128.717C74.0868,-120.847 66.7435,-109.657 60.0951,-99.5258"/>
<polygon fill="midnightblue" stroke="midnightblue" points="62.9163,-97.4456 54.5036,-91.0054 57.064,-101.286 62.9163,-97.4456"/>
</g>
<!-- Node4 -->
<g id="node7" class="node"><title>Node4</title>
<a xlink:href="_rule_8h.html" target="_top" xlink:title="Rule.h">
<polygon fill="none" stroke="black" points="106,-65 106,-85 150,-85 150,-65 106,-65"/>
<text text-anchor="middle" x="128" y="-72" font-family="FreeSans" font-size="10.00">Rule.h</text>
</a>
</g>
<!-- Node1&#45;&gt;Node4 -->
<g id="edge6" class="edge"><title>Node1&#45;&gt;Node4</title>
<path fill="none" stroke="midnightblue" d="M92.748,-128.717C98.969,-119.238 108.349,-104.944 115.87,-93.4835"/>
<polygon fill="midnightblue" stroke="midnightblue" points="118.847,-95.327 121.407,-85.0462 112.994,-91.4864 118.847,-95.327"/>
</g>
<!-- Node3 -->
<g id="node5" class="node"><title>Node3</title>
<polygon fill="none" stroke="#bfbfbf" points="38.5,-1 38.5,-21 133.5,-21 133.5,-1 38.5,-1"/>
<text text-anchor="middle" x="86" y="-8" font-family="FreeSans" font-size="10.00">luabind/object.hpp</text>
</g>
<!-- Node2&#45;&gt;Node3 -->
<g id="edge4" class="edge"><title>Node2&#45;&gt;Node3</title>
<path fill="none" stroke="midnightblue" d="M54.5984,-58.8501C60.4306,-49.9628 67.6949,-38.8935 73.7672,-29.6404"/>
<polygon fill="midnightblue" stroke="midnightblue" points="76.7845,-31.4218 79.345,-21.141 70.9322,-27.5812 76.7845,-31.4218"/>
</g>
<!-- Node4&#45;&gt;Node3 -->
<g id="edge8" class="edge"><title>Node4&#45;&gt;Node3</title>
<path fill="none" stroke="midnightblue" d="M121.252,-64.7173C115.031,-55.2377 105.651,-40.9437 98.1298,-29.4835"/>
<polygon fill="midnightblue" stroke="midnightblue" points="101.006,-27.4864 92.5928,-21.0462 95.1532,-31.327 101.006,-27.4864"/>
</g>
</g>
</svg>
