<?xml version="1.0" encoding="UTF-8" standalone="no"?>
<!DOCTYPE svg PUBLIC "-//W3C//DTD SVG 1.1//EN"
 "http://www.w3.org/Graphics/SVG/1.1/DTD/svg11.dtd">
<!-- Generated by graphviz version 2.26.3 (20100126.1600)
 -->
<!-- Title: Rules.cpp Pages: 1 -->
<svg width="914pt" height="332pt"
 viewBox="0.00 0.00 914.00 332.00" xmlns="http://www.w3.org/2000/svg" xmlns:xlink="http://www.w3.org/1999/xlink">
<g id="graph1" class="graph" transform="scale(1 1) rotate(0) translate(4 328)">
<title>Rules.cpp</title>
<!-- Node1 -->
<g id="node1" class="node"><title>Node1</title>
<polygon fill="#bfbfbf" stroke="black" points="185.5,-303 185.5,-323 244.5,-323 244.5,-303 185.5,-303"/>
<text text-anchor="middle" x="215" y="-310" font-family="FreeSans" font-size="10.00">Rules.cpp</text>
</g>
<!-- Node2 -->
<g id="node3" class="node"><title>Node2</title>
<a xlink:href="_rulebook_8h.html" target="_top" xlink:title="Rulebook.h">
<polygon fill="none" stroke="black" points="145.5,-245 145.5,-265 210.5,-265 210.5,-245 145.5,-245"/>
<text text-anchor="middle" x="178" y="-252" font-family="FreeSans" font-size="10.00">Rulebook.h</text>
</a>
</g>
<!-- Node1&#45;&gt;Node2 -->
<g id="edge2" class="edge"><title>Node1&#45;&gt;Node2</title>
<path fill="none" stroke="midnightblue" d="M208.555,-302.897C203.471,-294.928 196.237,-283.587 190.083,-273.941"/>
<polygon fill="midnightblue" stroke="midnightblue" points="192.949,-271.926 184.62,-265.378 187.048,-275.691 192.949,-271.926"/>
</g>
<!-- Node25 -->
<g id="node54" class="node"><title>Node25</title>
<a xlink:href="_rules_8h.html" target="_top" xlink:title="Rules.h">
<polygon fill="none" stroke="black" points="227.5,-245 227.5,-265 276.5,-265 276.5,-245 227.5,-245"/>
<text text-anchor="middle" x="252" y="-252" font-family="FreeSans" font-size="10.00">Rules.h</text>
</a>
</g>
<!-- Node1&#45;&gt;Node25 -->
<g id="edge58" class="edge"><title>Node1&#45;&gt;Node25</title>
<path fill="none" stroke="midnightblue" d="M221.445,-302.897C226.529,-294.928 233.763,-283.587 239.917,-273.941"/>
<polygon fill="midnightblue" stroke="midnightblue" points="242.952,-275.691 245.38,-265.378 237.051,-271.926 242.952,-275.691"/>
</g>
<!-- Node3 -->
<g id="node5" class="node"><title>Node3</title>
<a xlink:href="_handlers_8h.html" target="_top" xlink:title="../../engine/Script\l/Handlers.h">
<polygon fill="none" stroke="black" points="61.5,-175 61.5,-207 150.5,-207 150.5,-175 61.5,-175"/>
<text text-anchor="start" x="69.5" y="-194" font-family="FreeSans" font-size="10.00">../../engine/Script</text>
<text text-anchor="middle" x="106" y="-182" font-family="FreeSans" font-size="10.00">/Handlers.h</text>
</a>
</g>
<!-- Node2&#45;&gt;Node3 -->
<g id="edge4" class="edge"><title>Node2&#45;&gt;Node3</title>
<path fill="none" stroke="midnightblue" d="M166.432,-244.717C157.041,-236.369 143.449,-224.288 131.534,-213.696"/>
<polygon fill="midnightblue" stroke="midnightblue" points="133.806,-211.033 124.006,-207.005 129.155,-216.265 133.806,-211.033"/>
</g>
<!-- Node5 -->
<g id="node9" class="node"><title>Node5</title>
<a xlink:href="_registry_ref_8h.html" target="_top" xlink:title="RegistryRef.h">
<polygon fill="none" stroke="black" points="114,-117 114,-137 188,-137 188,-117 114,-117"/>
<text text-anchor="middle" x="151" y="-124" font-family="FreeSans" font-size="10.00">RegistryRef.h</text>
</a>
</g>
<!-- Node2&#45;&gt;Node5 -->
<g id="edge10" class="edge"><title>Node2&#45;&gt;Node5</title>
<path fill="none" stroke="midnightblue" d="M175.881,-244.956C171.448,-223.936 161.117,-174.964 155.257,-147.181"/>
<polygon fill="midnightblue" stroke="midnightblue" points="158.672,-146.415 153.184,-137.353 151.823,-147.86 158.672,-146.415"/>
</g>
<!-- Node6 -->
<g id="node12" class="node"><title>Node6</title>
<a xlink:href="_wrapper_factory_8h.html" target="_top" xlink:title="../../engine/Script\l/WrapperFactory.h">
<polygon fill="none" stroke="black" points="243.5,-175 243.5,-207 338.5,-207 338.5,-175 243.5,-175"/>
<text text-anchor="start" x="251.5" y="-194" font-family="FreeSans" font-size="10.00">../../engine/Script</text>
<text text-anchor="middle" x="291" y="-182" font-family="FreeSans" font-size="10.00">/WrapperFactory.h</text>
</a>
</g>
<!-- Node2&#45;&gt;Node6 -->
<g id="edge12" class="edge"><title>Node2&#45;&gt;Node6</title>
<path fill="none" stroke="midnightblue" d="M195.905,-244.859C211.378,-236.096 234.247,-223.143 253.681,-212.136"/>
<polygon fill="midnightblue" stroke="midnightblue" points="255.637,-215.051 262.613,-207.078 252.187,-208.96 255.637,-215.051"/>
</g>
<!-- Node16 -->
<g id="node35" class="node"><title>Node16</title>
<a xlink:href="_o_s_8h.html" target="_top" xlink:title="../../engine/Util/OS.h">
<polygon fill="none" stroke="black" points="504.5,-181 504.5,-201 607.5,-201 607.5,-181 504.5,-181"/>
<text text-anchor="middle" x="556" y="-188" font-family="FreeSans" font-size="10.00">../../engine/Util/OS.h</text>
</a>
</g>
<!-- Node2&#45;&gt;Node16 -->
<g id="edge38" class="edge"><title>Node2&#45;&gt;Node16</title>
<path fill="none" stroke="midnightblue" d="M210.598,-245.92C213.431,-245.232 216.26,-244.581 219,-244 314.336,-223.774 426.35,-207.652 494.211,-198.714"/>
<polygon fill="midnightblue" stroke="midnightblue" points="494.842,-202.162 504.305,-197.395 493.935,-195.221 494.842,-202.162"/>
</g>
<!-- Node24 -->
<g id="node51" class="node"><title>Node24</title>
<a xlink:href="_rule_8h.html" target="_top" xlink:title="Rule.h">
<polygon fill="none" stroke="black" points="0,-181 0,-201 44,-201 44,-181 0,-181"/>
<text text-anchor="middle" x="22" y="-188" font-family="FreeSans" font-size="10.00">Rule.h</text>
</a>
</g>
<!-- Node2&#45;&gt;Node24 -->
<g id="edge54" class="edge"><title>Node2&#45;&gt;Node24</title>
<path fill="none" stroke="midnightblue" d="M147.709,-244.966C122.086,-236.158 84.6021,-222.517 53,-208 51.6056,-207.359 50.1879,-206.682 48.7647,-205.981"/>
<polygon fill="midnightblue" stroke="midnightblue" points="49.9693,-202.662 39.4829,-201.151 46.738,-208.872 49.9693,-202.662"/>
</g>
<!-- Node4 -->
<g id="node7" class="node"><title>Node4</title>
<polygon fill="none" stroke="#bfbfbf" points="42.5,-59 42.5,-79 137.5,-79 137.5,-59 42.5,-59"/>
<text text-anchor="middle" x="90" y="-66" font-family="FreeSans" font-size="10.00">luabind/object.hpp</text>
</g>
<!-- Node3&#45;&gt;Node4 -->
<g id="edge6" class="edge"><title>Node3&#45;&gt;Node4</title>
<path fill="none" stroke="midnightblue" d="M103.875,-174.799C100.984,-152.753 95.8107,-113.307 92.6634,-89.3082"/>
<polygon fill="midnightblue" stroke="midnightblue" points="96.1083,-88.6591 91.3376,-79.1992 89.1677,-89.5694 96.1083,-88.6591"/>
</g>
<!-- Node3&#45;&gt;Node5 -->
<g id="edge8" class="edge"><title>Node3&#45;&gt;Node5</title>
<path fill="none" stroke="midnightblue" d="M117.355,-174.85C123.669,-165.87 131.55,-154.663 138.096,-145.352"/>
<polygon fill="midnightblue" stroke="midnightblue" points="140.981,-147.334 143.87,-137.141 135.255,-143.308 140.981,-147.334"/>
</g>
<!-- Node6&#45;&gt;Node5 -->
<g id="edge34" class="edge"><title>Node6&#45;&gt;Node5</title>
<path fill="none" stroke="midnightblue" d="M255.672,-174.85C233.092,-164.528 204.073,-151.262 182.319,-141.317"/>
<polygon fill="midnightblue" stroke="midnightblue" points="183.733,-138.115 173.183,-137.141 180.823,-144.482 183.733,-138.115"/>
</g>
<!-- Node7 -->
<g id="node14" class="node"><title>Node7</title>
<a xlink:href="_log_8h.html" target="_top" xlink:title="../Util/Log.h">
<polygon fill="none" stroke="black" points="244,-117 244,-137 310,-137 310,-117 244,-117"/>
<text text-anchor="middle" x="277" y="-124" font-family="FreeSans" font-size="10.00">../Util/Log.h</text>
</a>
</g>
<!-- Node6&#45;&gt;Node7 -->
<g id="edge14" class="edge"><title>Node6&#45;&gt;Node7</title>
<path fill="none" stroke="midnightblue" d="M287.467,-174.85C285.624,-166.426 283.353,-156.041 281.397,-147.1"/>
<polygon fill="midnightblue" stroke="midnightblue" points="284.775,-146.162 279.218,-137.141 277.936,-147.658 284.775,-146.162"/>
</g>
<!-- Node9 -->
<g id="node18" class="node"><title>Node9</title>
<a xlink:href="_core_8h.html" target="_top" xlink:title="Core.h">
<polygon fill="none" stroke="black" points="328,-117 328,-137 372,-137 372,-117 328,-117"/>
<text text-anchor="middle" x="350" y="-124" font-family="FreeSans" font-size="10.00">Core.h</text>
</a>
</g>
<!-- Node6&#45;&gt;Node9 -->
<g id="edge18" class="edge"><title>Node6&#45;&gt;Node9</title>
<path fill="none" stroke="midnightblue" d="M305.888,-174.85C314.422,-165.593 325.14,-153.967 333.873,-144.494"/>
<polygon fill="midnightblue" stroke="midnightblue" points="336.447,-146.866 340.651,-137.141 331.3,-142.121 336.447,-146.866"/>
</g>
<!-- Node15 -->
<g id="node31" class="node"><title>Node15</title>
<a xlink:href="_script_exn_8h.html" target="_top" xlink:title="ScriptExn.h">
<polygon fill="none" stroke="black" points="381.5,-59 381.5,-79 446.5,-79 446.5,-59 381.5,-59"/>
<text text-anchor="middle" x="414" y="-66" font-family="FreeSans" font-size="10.00">ScriptExn.h</text>
</a>
</g>
<!-- Node6&#45;&gt;Node15 -->
<g id="edge36" class="edge"><title>Node6&#45;&gt;Node15</title>
<path fill="none" stroke="midnightblue" d="M329.102,-174.919C346.626,-166.047 366.658,-153.633 381,-138 393.858,-123.985 402.658,-104.052 407.916,-89.2116"/>
<polygon fill="midnightblue" stroke="midnightblue" points="411.323,-90.0556 411.126,-79.4626 404.674,-87.8663 411.323,-90.0556"/>
</g>
<!-- Node8 -->
<g id="node16" class="node"><title>Node8</title>
<polygon fill="none" stroke="#bfbfbf" points="159.5,-59 159.5,-79 260.5,-79 260.5,-59 159.5,-59"/>
<text text-anchor="middle" x="210" y="-66" font-family="FreeSans" font-size="10.00">boost/log/trivial.hpp</text>
</g>
<!-- Node7&#45;&gt;Node8 -->
<g id="edge16" class="edge"><title>Node7&#45;&gt;Node8</title>
<path fill="none" stroke="midnightblue" d="M265.329,-116.897C255.555,-108.435 241.388,-96.1715 229.837,-86.1719"/>
<polygon fill="midnightblue" stroke="midnightblue" points="231.839,-83.2764 221.988,-79.3776 227.258,-88.5689 231.839,-83.2764"/>
</g>
<!-- Node9&#45;&gt;Node4 -->
<g id="edge22" class="edge"><title>Node9&#45;&gt;Node4</title>
<path fill="none" stroke="midnightblue" d="M327.767,-118.695C324.838,-117.724 321.861,-116.797 319,-116 287.466,-107.215 204.744,-90.839 147.866,-79.9272"/>
<polygon fill="midnightblue" stroke="midnightblue" points="148.397,-76.4653 137.917,-78.0236 147.082,-83.3406 148.397,-76.4653"/>
</g>
<!-- Node10 -->
<g id="node20" class="node"><title>Node10</title>
<polygon fill="none" stroke="#bfbfbf" points="335.5,-59 335.5,-79 364.5,-79 364.5,-59 335.5,-59"/>
<text text-anchor="middle" x="350" y="-66" font-family="FreeSans" font-size="10.00">list</text>
</g>
<!-- Node9&#45;&gt;Node10 -->
<g id="edge20" class="edge"><title>Node9&#45;&gt;Node10</title>
<path fill="none" stroke="midnightblue" d="M350,-116.897C350,-109.339 350,-98.7476 350,-89.4458"/>
<polygon fill="midnightblue" stroke="midnightblue" points="353.5,-89.3776 350,-79.3776 346.5,-89.3776 353.5,-89.3776"/>
</g>
<!-- Node11 -->
<g id="node23" class="node"><title>Node11</title>
<a xlink:href="_lua_8h.html" target="_top" xlink:title="Lua.h">
<polygon fill="none" stroke="black" points="277.5,-59 277.5,-79 318.5,-79 318.5,-59 277.5,-59"/>
<text text-anchor="middle" x="298" y="-66" font-family="FreeSans" font-size="10.00">Lua.h</text>
</a>
</g>
<!-- Node9&#45;&gt;Node11 -->
<g id="edge24" class="edge"><title>Node9&#45;&gt;Node11</title>
<path fill="none" stroke="midnightblue" d="M340.942,-116.897C333.577,-108.682 322.998,-96.8827 314.184,-87.0513"/>
<polygon fill="midnightblue" stroke="midnightblue" points="316.586,-84.4869 307.304,-79.3776 311.374,-89.1597 316.586,-84.4869"/>
</g>
<!-- Node9&#45;&gt;Node15 -->
<g id="edge32" class="edge"><title>Node9&#45;&gt;Node15</title>
<path fill="none" stroke="midnightblue" d="M361.148,-116.897C370.485,-108.435 384.018,-96.1715 395.052,-86.1719"/>
<polygon fill="midnightblue" stroke="midnightblue" points="397.489,-88.6863 402.549,-79.3776 392.789,-83.4994 397.489,-88.6863"/>
</g>
<!-- Node12 -->
<g id="node25" class="node"><title>Node12</title>
<polygon fill="none" stroke="#bfbfbf" points="220.5,-1 220.5,-21 257.5,-21 257.5,-1 220.5,-1"/>
<text text-anchor="middle" x="239" y="-8" font-family="FreeSans" font-size="10.00">lua.h</text>
</g>
<!-- Node11&#45;&gt;Node12 -->
<g id="edge26" class="edge"><title>Node11&#45;&gt;Node12</title>
<path fill="none" stroke="midnightblue" d="M287.723,-58.8972C279.199,-50.5175 266.882,-38.4093 256.765,-28.4638"/>
<polygon fill="midnightblue" stroke="midnightblue" points="259.141,-25.8921 249.557,-21.3776 254.234,-30.884 259.141,-25.8921"/>
</g>
<!-- Node13 -->
<g id="node27" class="node"><title>Node13</title>
<polygon fill="none" stroke="#bfbfbf" points="274.5,-1 274.5,-21 321.5,-21 321.5,-1 274.5,-1"/>
<text text-anchor="middle" x="298" y="-8" font-family="FreeSans" font-size="10.00">lualib.h</text>
</g>
<!-- Node11&#45;&gt;Node13 -->
<g id="edge28" class="edge"><title>Node11&#45;&gt;Node13</title>
<path fill="none" stroke="midnightblue" d="M298,-58.8972C298,-51.339 298,-40.7476 298,-31.4458"/>
<polygon fill="midnightblue" stroke="midnightblue" points="301.5,-31.3776 298,-21.3776 294.5,-31.3776 301.5,-31.3776"/>
</g>
<!-- Node14 -->
<g id="node29" class="node"><title>Node14</title>
<polygon fill="none" stroke="#bfbfbf" points="338.5,-1 338.5,-21 389.5,-21 389.5,-1 338.5,-1"/>
<text text-anchor="middle" x="364" y="-8" font-family="FreeSans" font-size="10.00">lauxlib.h</text>
</g>
<!-- Node11&#45;&gt;Node14 -->
<g id="edge30" class="edge"><title>Node11&#45;&gt;Node14</title>
<path fill="none" stroke="midnightblue" d="M309.496,-58.8972C319.125,-50.4353 333.081,-38.1715 344.46,-28.1719"/>
<polygon fill="midnightblue" stroke="midnightblue" points="346.99,-30.6079 352.191,-21.3776 342.369,-25.3497 346.99,-30.6079"/>
</g>
<!-- Node17 -->
<g id="node37" class="node"><title>Node17</title>
<polygon fill="none" stroke="#bfbfbf" points="718,-117 718,-137 760,-137 760,-117 718,-117"/>
<text text-anchor="middle" x="739" y="-124" font-family="FreeSans" font-size="10.00">locale</text>
</g>
<!-- Node16&#45;&gt;Node17 -->
<g id="edge40" class="edge"><title>Node16&#45;&gt;Node17</title>
<path fill="none" stroke="midnightblue" d="M585.386,-180.996C614.302,-171.113 659.944,-155.412 708.06,-138.299"/>
<polygon fill="midnightblue" stroke="midnightblue" points="709.467,-141.513 717.712,-134.859 707.117,-134.92 709.467,-141.513"/>
</g>
<!-- Node18 -->
<g id="node39" class="node"><title>Node18</title>
<polygon fill="none" stroke="#bfbfbf" points="428,-117 428,-137 458,-137 458,-117 428,-117"/>
<text text-anchor="middle" x="443" y="-124" font-family="FreeSans" font-size="10.00">set</text>
</g>
<!-- Node16&#45;&gt;Node18 -->
<g id="edge42" class="edge"><title>Node16&#45;&gt;Node18</title>
<path fill="none" stroke="midnightblue" d="M538.095,-180.859C518.904,-169.99 488.335,-152.677 467.055,-140.624"/>
<polygon fill="midnightblue" stroke="midnightblue" points="468.711,-137.54 458.285,-135.657 465.261,-143.63 468.711,-137.54"/>
</g>
<!-- Node19 -->
<g id="node41" class="node"><title>Node19</title>
<polygon fill="none" stroke="#bfbfbf" points="475.5,-117 475.5,-137 516.5,-137 516.5,-117 475.5,-117"/>
<text text-anchor="middle" x="496" y="-124" font-family="FreeSans" font-size="10.00">string</text>
</g>
<!-- Node16&#45;&gt;Node19 -->
<g id="edge44" class="edge"><title>Node16&#45;&gt;Node19</title>
<path fill="none" stroke="midnightblue" d="M546.36,-180.717C537.209,-170.956 523.272,-156.09 512.378,-144.47"/>
<polygon fill="midnightblue" stroke="midnightblue" points="514.811,-141.948 505.418,-137.046 509.704,-146.735 514.811,-141.948"/>
</g>
<!-- Node20 -->
<g id="node43" class="node"><title>Node20</title>
<polygon fill="none" stroke="#bfbfbf" points="534,-117 534,-137 578,-137 578,-117 534,-117"/>
<text text-anchor="middle" x="556" y="-124" font-family="FreeSans" font-size="10.00">vector</text>
</g>
<!-- Node16&#45;&gt;Node20 -->
<g id="edge46" class="edge"><title>Node16&#45;&gt;Node20</title>
<path fill="none" stroke="midnightblue" d="M556,-180.717C556,-171.707 556,-158.347 556,-147.205"/>
<polygon fill="midnightblue" stroke="midnightblue" points="559.5,-147.046 556,-137.046 552.5,-147.046 559.5,-147.046"/>
</g>
<!-- Node21 -->
<g id="node45" class="node"><title>Node21</title>
<polygon fill="none" stroke="#bfbfbf" points="595.5,-117 595.5,-137 700.5,-137 700.5,-117 595.5,-117"/>
<text text-anchor="middle" x="648" y="-124" font-family="FreeSans" font-size="10.00">boost/filesystem.hpp</text>
</g>
<!-- Node16&#45;&gt;Node21 -->
<g id="edge48" class="edge"><title>Node16&#45;&gt;Node21</title>
<path fill="none" stroke="midnightblue" d="M570.781,-180.717C585.488,-170.487 608.254,-154.649 625.263,-142.817"/>
<polygon fill="midnightblue" stroke="midnightblue" points="627.348,-145.63 633.559,-137.046 623.351,-139.884 627.348,-145.63"/>
</g>
<!-- Node22 -->
<g id="node47" class="node"><title>Node22</title>
<a xlink:href="_m_r___types_8h.html" target="_top" xlink:title="MR_Types.h">
<polygon fill="none" stroke="black" points="777.5,-117 777.5,-137 848.5,-137 848.5,-117 777.5,-117"/>
<text text-anchor="middle" x="813" y="-124" font-family="FreeSans" font-size="10.00">MR_Types.h</text>
</a>
</g>
<!-- Node16&#45;&gt;Node22 -->
<g id="edge50" class="edge"><title>Node16&#45;&gt;Node22</title>
<path fill="none" stroke="midnightblue" d="M596.441,-180.951C637.196,-170.822 702.181,-154.661 767.414,-138.394"/>
<polygon fill="midnightblue" stroke="midnightblue" points="768.603,-141.705 777.459,-135.889 766.91,-134.913 768.603,-141.705"/>
</g>
<!-- Node23 -->
<g id="node49" class="node"><title>Node23</title>
<polygon fill="none" stroke="#bfbfbf" points="784,-59 784,-79 842,-79 842,-59 784,-59"/>
<text text-anchor="middle" x="813" y="-66" font-family="FreeSans" font-size="10.00">inttypes.h</text>
</g>
<!-- Node22&#45;&gt;Node23 -->
<g id="edge52" class="edge"><title>Node22&#45;&gt;Node23</title>
<path fill="none" stroke="midnightblue" d="M813,-116.897C813,-109.339 813,-98.7476 813,-89.4458"/>
<polygon fill="midnightblue" stroke="midnightblue" points="816.5,-89.3776 813,-79.3776 809.5,-89.3776 816.5,-89.3776"/>
</g>
<!-- Node24&#45;&gt;Node4 -->
<g id="edge56" class="edge"><title>Node24&#45;&gt;Node4</title>
<path fill="none" stroke="midnightblue" d="M27.7976,-180.598C39.2464,-160.058 64.9038,-114.025 79.4361,-87.9529"/>
<polygon fill="midnightblue" stroke="midnightblue" points="82.5967,-89.4712 84.4082,-79.0324 76.4824,-86.0632 82.5967,-89.4712"/>
</g>
<!-- Node25&#45;&gt;Node4 -->
<g id="edge60" class="edge"><title>Node25&#45;&gt;Node4</title>
<path fill="none" stroke="midnightblue" d="M248.272,-244.974C236.686,-213.898 201.795,-120.976 197,-116 182.006,-100.439 160.968,-89.6908 141.51,-82.4442"/>
<polygon fill="midnightblue" stroke="midnightblue" points="142.414,-79.053 131.82,-79.0648 140.109,-85.6626 142.414,-79.053"/>
</g>
<!-- Node26 -->
<g id="node57" class="node"><title>Node26</title>
<a xlink:href="_game_options_8h.html" target="_top" xlink:title="../../engine/Model\l/GameOptions.h">
<polygon fill="none" stroke="black" points="768.5,-175 768.5,-207 857.5,-207 857.5,-175 768.5,-175"/>
<text text-anchor="start" x="776.5" y="-194" font-family="FreeSans" font-size="10.00">../../engine/Model</text>
<text text-anchor="middle" x="813" y="-182" font-family="FreeSans" font-size="10.00">/GameOptions.h</text>
</a>
</g>
<!-- Node25&#45;&gt;Node26 -->
<g id="edge62" class="edge"><title>Node25&#45;&gt;Node26</title>
<path fill="none" stroke="midnightblue" d="M276.829,-252.167C361.411,-242.518 639.619,-210.78 758.429,-197.226"/>
<polygon fill="midnightblue" stroke="midnightblue" points="758.864,-200.699 768.403,-196.088 758.071,-193.744 758.864,-200.699"/>
</g>
<!-- Node26&#45;&gt;Node22 -->
<g id="edge66" class="edge"><title>Node26&#45;&gt;Node22</title>
<path fill="none" stroke="midnightblue" d="M813,-174.85C813,-166.518 813,-156.269 813,-147.396"/>
<polygon fill="midnightblue" stroke="midnightblue" points="816.5,-147.141 813,-137.141 809.5,-147.141 816.5,-147.141"/>
</g>
<!-- Node27 -->
<g id="node59" class="node"><title>Node27</title>
<polygon fill="none" stroke="#bfbfbf" points="865.5,-117 865.5,-137 906.5,-137 906.5,-117 865.5,-117"/>
<text text-anchor="middle" x="886" y="-124" font-family="FreeSans" font-size="10.00">bitset</text>
</g>
<!-- Node26&#45;&gt;Node27 -->
<g id="edge64" class="edge"><title>Node26&#45;&gt;Node27</title>
<path fill="none" stroke="midnightblue" d="M831.421,-174.85C842.192,-165.407 855.772,-153.501 866.692,-143.928"/>
<polygon fill="midnightblue" stroke="midnightblue" points="869.221,-146.365 874.433,-137.141 864.606,-141.102 869.221,-146.365"/>
</g>
</g>
</svg>
