<?xml version="1.0" encoding="UTF-8" standalone="no"?>
<!DOCTYPE svg PUBLIC "-//W3C//DTD SVG 1.1//EN"
 "http://www.w3.org/Graphics/SVG/1.1/DTD/svg11.dtd">
<!-- Generated by graphviz version 2.26.3 (20100126.1600)
 -->
<!-- Title: RuleLine.cpp Pages: 1 -->
<svg width="564pt" height="494pt"
 viewBox="0.00 0.00 564.00 494.00" xmlns="http://www.w3.org/2000/svg" xmlns:xlink="http://www.w3.org/1999/xlink">
<g id="graph1" class="graph" transform="scale(1 1) rotate(0) translate(4 490)">
<title>RuleLine.cpp</title>
<!-- Node1 -->
<g id="node1" class="node"><title>Node1</title>
<polygon fill="#bfbfbf" stroke="black" points="78.5,-465 78.5,-485 151.5,-485 151.5,-465 78.5,-465"/>
<text text-anchor="middle" x="115" y="-472" font-family="FreeSans" font-size="10.00">RuleLine.cpp</text>
</g>
<!-- Node2 -->
<g id="node3" class="node"><title>Node2</title>
<polygon fill="none" stroke="#bfbfbf" points="-0.5,-407 -0.5,-427 60.5,-427 60.5,-407 -0.5,-407"/>
<text text-anchor="middle" x="30" y="-414" font-family="FreeSans" font-size="10.00">../StdAfx.h</text>
</g>
<!-- Node1&#45;&gt;Node2 -->
<g id="edge2" class="edge"><title>Node1&#45;&gt;Node2</title>
<path fill="none" stroke="midnightblue" d="M100.194,-464.897C87.232,-456.052 68.1824,-443.054 53.1977,-432.829"/>
<polygon fill="midnightblue" stroke="midnightblue" points="55.1544,-429.927 44.9214,-427.182 51.2089,-435.709 55.1544,-429.927"/>
</g>
<!-- Node3 -->
<g id="node5" class="node"><title>Node3</title>
<a xlink:href="_exception_8h.html" target="_top" xlink:title="../Exception.h">
<polygon fill="none" stroke="black" points="78,-407 78,-427 152,-427 152,-407 78,-407"/>
<text text-anchor="middle" x="115" y="-414" font-family="FreeSans" font-size="10.00">../Exception.h</text>
</a>
</g>
<!-- Node1&#45;&gt;Node3 -->
<g id="edge4" class="edge"><title>Node1&#45;&gt;Node3</title>
<path fill="none" stroke="midnightblue" d="M115,-464.897C115,-457.339 115,-446.748 115,-437.446"/>
<polygon fill="midnightblue" stroke="midnightblue" points="118.5,-437.378 115,-427.378 111.5,-437.378 118.5,-437.378"/>
</g>
<!-- Node5 -->
<g id="node9" class="node"><title>Node5</title>
<a xlink:href="_rule_line_8h.html" target="_top" xlink:title="RuleLine.h">
<polygon fill="none" stroke="black" points="170,-407 170,-427 232,-427 232,-407 170,-407"/>
<text text-anchor="middle" x="201" y="-414" font-family="FreeSans" font-size="10.00">RuleLine.h</text>
</a>
</g>
<!-- Node1&#45;&gt;Node5 -->
<g id="edge8" class="edge"><title>Node1&#45;&gt;Node5</title>
<path fill="none" stroke="midnightblue" d="M129.98,-464.897C143.095,-456.052 162.368,-443.054 177.529,-432.829"/>
<polygon fill="midnightblue" stroke="midnightblue" points="179.569,-435.675 185.903,-427.182 175.655,-429.871 179.569,-435.675"/>
</g>
<!-- Node4 -->
<g id="node7" class="node"><title>Node4</title>
<polygon fill="none" stroke="#bfbfbf" points="86,-349 86,-369 144,-369 144,-349 86,-349"/>
<text text-anchor="middle" x="115" y="-356" font-family="FreeSans" font-size="10.00">exception</text>
</g>
<!-- Node3&#45;&gt;Node4 -->
<g id="edge6" class="edge"><title>Node3&#45;&gt;Node4</title>
<path fill="none" stroke="midnightblue" d="M115,-406.897C115,-399.339 115,-388.748 115,-379.446"/>
<polygon fill="midnightblue" stroke="midnightblue" points="118.5,-379.378 115,-369.378 111.5,-379.378 118.5,-379.378"/>
</g>
<!-- Node6 -->
<g id="node11" class="node"><title>Node6</title>
<a xlink:href="_color_8h.html" target="_top" xlink:title="Color.h">
<polygon fill="none" stroke="black" points="141.5,-175 141.5,-195 188.5,-195 188.5,-175 141.5,-175"/>
<text text-anchor="middle" x="165" y="-182" font-family="FreeSans" font-size="10.00">Color.h</text>
</a>
</g>
<!-- Node5&#45;&gt;Node6 -->
<g id="edge10" class="edge"><title>Node5&#45;&gt;Node6</title>
<path fill="none" stroke="midnightblue" d="M199.407,-406.732C193.889,-371.173 175.53,-252.861 168.131,-205.177"/>
<polygon fill="midnightblue" stroke="midnightblue" points="171.567,-204.495 166.575,-195.15 164.65,-205.568 171.567,-204.495"/>
</g>
<!-- Node11 -->
<g id="node22" class="node"><title>Node11</title>
<a xlink:href="_ui_view_model_8h.html" target="_top" xlink:title="UiViewModel.h">
<polygon fill="none" stroke="black" points="324,-349 324,-369 406,-369 406,-349 324,-349"/>
<text text-anchor="middle" x="365" y="-356" font-family="FreeSans" font-size="10.00">UiViewModel.h</text>
</a>
</g>
<!-- Node5&#45;&gt;Node11 -->
<g id="edge22" class="edge"><title>Node5&#45;&gt;Node11</title>
<path fill="none" stroke="midnightblue" d="M229.567,-406.897C256.528,-397.362 297.14,-382.999 326.86,-372.488"/>
<polygon fill="midnightblue" stroke="midnightblue" points="328.225,-375.718 336.486,-369.084 325.891,-369.119 328.225,-375.718"/>
</g>
<!-- Node7 -->
<g id="node13" class="node"><title>Node7</title>
<polygon fill="none" stroke="#bfbfbf" points="172.5,-117 172.5,-137 261.5,-137 261.5,-117 172.5,-117"/>
<text text-anchor="middle" x="217" y="-124" font-family="FreeSans" font-size="10.00">boost/format.hpp</text>
</g>
<!-- Node6&#45;&gt;Node7 -->
<g id="edge12" class="edge"><title>Node6&#45;&gt;Node7</title>
<path fill="none" stroke="midnightblue" d="M174.058,-174.897C181.423,-166.682 192.002,-154.883 200.816,-145.051"/>
<polygon fill="midnightblue" stroke="midnightblue" points="203.626,-147.16 207.696,-137.378 198.414,-142.487 203.626,-147.16"/>
</g>
<!-- Node8 -->
<g id="node15" class="node"><title>Node8</title>
<a xlink:href="_m_r___types_8h.html" target="_top" xlink:title="../Util/MR_Types.h">
<polygon fill="none" stroke="black" points="329,-59 329,-79 425,-79 425,-59 329,-59"/>
<text text-anchor="middle" x="377" y="-66" font-family="FreeSans" font-size="10.00">../Util/MR_Types.h</text>
</a>
</g>
<!-- Node6&#45;&gt;Node8 -->
<g id="edge14" class="edge"><title>Node6&#45;&gt;Node8</title>
<path fill="none" stroke="midnightblue" d="M161.217,-174.812C156.475,-160.094 150.494,-132.811 164,-116 183.09,-92.2381 262.397,-79.7755 318.64,-73.7976"/>
<polygon fill="midnightblue" stroke="midnightblue" points="319.261,-77.2526 328.854,-72.7556 318.55,-70.2887 319.261,-77.2526"/>
</g>
<!-- Node10 -->
<g id="node19" class="node"><title>Node10</title>
<a xlink:href="_sel_fmt_8h.html" target="_top" xlink:title="../Util/SelFmt.h">
<polygon fill="none" stroke="black" points="278.5,-117 278.5,-137 359.5,-137 359.5,-117 278.5,-117"/>
<text text-anchor="middle" x="319" y="-124" font-family="FreeSans" font-size="10.00">../Util/SelFmt.h</text>
</a>
</g>
<!-- Node6&#45;&gt;Node10 -->
<g id="edge18" class="edge"><title>Node6&#45;&gt;Node10</title>
<path fill="none" stroke="midnightblue" d="M188.725,-176.065C213.891,-166.586 253.95,-151.499 283.008,-140.555"/>
<polygon fill="midnightblue" stroke="midnightblue" points="284.278,-143.817 292.403,-137.017 281.811,-137.266 284.278,-143.817"/>
</g>
<!-- Node9 -->
<g id="node17" class="node"><title>Node9</title>
<polygon fill="none" stroke="#bfbfbf" points="348,-1 348,-21 406,-21 406,-1 348,-1"/>
<text text-anchor="middle" x="377" y="-8" font-family="FreeSans" font-size="10.00">inttypes.h</text>
</g>
<!-- Node8&#45;&gt;Node9 -->
<g id="edge16" class="edge"><title>Node8&#45;&gt;Node9</title>
<path fill="none" stroke="midnightblue" d="M377,-58.8972C377,-51.339 377,-40.7476 377,-31.4458"/>
<polygon fill="midnightblue" stroke="midnightblue" points="380.5,-31.3776 377,-21.3776 373.5,-31.3776 380.5,-31.3776"/>
</g>
<!-- Node10&#45;&gt;Node8 -->
<g id="edge20" class="edge"><title>Node10&#45;&gt;Node8</title>
<path fill="none" stroke="midnightblue" d="M329.103,-116.897C337.483,-108.517 349.591,-96.4093 359.536,-86.4638"/>
<polygon fill="midnightblue" stroke="midnightblue" points="362.026,-88.9236 366.622,-79.3776 357.076,-83.9738 362.026,-88.9236"/>
</g>
<!-- Node11&#45;&gt;Node8 -->
<g id="edge24" class="edge"><title>Node11&#45;&gt;Node8</title>
<path fill="none" stroke="midnightblue" d="M406.444,-352.678C462.619,-341.489 556,-312.445 556,-243 556,-243 556,-243 556,-185 556,-126.38 487.558,-95.9021 435.316,-81.1766"/>
<polygon fill="midnightblue" stroke="midnightblue" points="436.006,-77.7377 425.44,-78.5224 434.189,-84.4979 436.006,-77.7377"/>
</g>
<!-- Node12 -->
<g id="node25" class="node"><title>Node12</title>
<a xlink:href="_vec_8h.html" target="_top" xlink:title="../Vec.h">
<polygon fill="none" stroke="black" points="205.5,-175 205.5,-195 254.5,-195 254.5,-175 205.5,-175"/>
<text text-anchor="middle" x="230" y="-182" font-family="FreeSans" font-size="10.00">../Vec.h</text>
</a>
</g>
<!-- Node11&#45;&gt;Node12 -->
<g id="edge26" class="edge"><title>Node11&#45;&gt;Node12</title>
<path fill="none" stroke="midnightblue" d="M353.354,-348.897C333.419,-331.175 292.272,-292.678 265,-254 254.038,-238.453 244.493,-218.99 238.152,-204.702"/>
<polygon fill="midnightblue" stroke="midnightblue" points="241.293,-203.147 234.127,-195.343 234.862,-205.912 241.293,-203.147"/>
</g>
<!-- Node13 -->
<g id="node27" class="node"><title>Node13</title>
<a xlink:href="_ui_layout_flags_8h.html" target="_top" xlink:title="UiLayoutFlags.h">
<polygon fill="none" stroke="black" points="441.5,-175 441.5,-195 528.5,-195 528.5,-175 441.5,-175"/>
<text text-anchor="middle" x="485" y="-182" font-family="FreeSans" font-size="10.00">UiLayoutFlags.h</text>
</a>
</g>
<!-- Node11&#45;&gt;Node13 -->
<g id="edge28" class="edge"><title>Node11&#45;&gt;Node13</title>
<path fill="none" stroke="midnightblue" d="M375.954,-348.686C385.452,-339.489 399.312,-325.439 410,-312 438,-276.791 462.89,-230.097 475.753,-204.263"/>
<polygon fill="midnightblue" stroke="midnightblue" points="478.959,-205.673 480.218,-195.153 472.674,-202.592 478.959,-205.673"/>
</g>
<!-- Node14 -->
<g id="node30" class="node"><title>Node14</title>
<a xlink:href="_view_model_8h.html" target="_top" xlink:title="ViewModel.h">
<polygon fill="none" stroke="black" points="329,-291 329,-311 401,-311 401,-291 329,-291"/>
<text text-anchor="middle" x="365" y="-298" font-family="FreeSans" font-size="10.00">ViewModel.h</text>
</a>
</g>
<!-- Node11&#45;&gt;Node14 -->
<g id="edge32" class="edge"><title>Node11&#45;&gt;Node14</title>
<path fill="none" stroke="midnightblue" d="M365,-348.897C365,-341.339 365,-330.748 365,-321.446"/>
<polygon fill="midnightblue" stroke="midnightblue" points="368.5,-321.378 365,-311.378 361.5,-321.378 368.5,-321.378"/>
</g>
<!-- Node13&#45;&gt;Node8 -->
<g id="edge30" class="edge"><title>Node13&#45;&gt;Node8</title>
<path fill="none" stroke="midnightblue" d="M475.416,-174.706C456.956,-154.879 416.278,-111.187 393.42,-86.6358"/>
<polygon fill="midnightblue" stroke="midnightblue" points="395.784,-84.0395 386.409,-79.1055 390.661,-88.8095 395.784,-84.0395"/>
</g>
<!-- Node15 -->
<g id="node32" class="node"><title>Node15</title>
<a xlink:href="_display_8h.html" target="_top" xlink:title="Display.h">
<polygon fill="none" stroke="black" points="274,-233 274,-253 330,-253 330,-233 274,-233"/>
<text text-anchor="middle" x="302" y="-240" font-family="FreeSans" font-size="10.00">Display.h</text>
</a>
</g>
<!-- Node14&#45;&gt;Node15 -->
<g id="edge34" class="edge"><title>Node14&#45;&gt;Node15</title>
<path fill="none" stroke="midnightblue" d="M354.026,-290.897C344.835,-282.435 331.514,-270.172 320.652,-260.172"/>
<polygon fill="midnightblue" stroke="midnightblue" points="323,-257.576 313.272,-253.378 318.259,-262.726 323,-257.576"/>
</g>
<!-- Node17 -->
<g id="node40" class="node"><title>Node17</title>
<a xlink:href="_view_attacher_8h.html" target="_top" xlink:title="ViewAttacher.h">
<polygon fill="none" stroke="black" points="341.5,-175 341.5,-195 424.5,-195 424.5,-175 341.5,-175"/>
<text text-anchor="middle" x="383" y="-182" font-family="FreeSans" font-size="10.00">ViewAttacher.h</text>
</a>
</g>
<!-- Node14&#45;&gt;Node17 -->
<g id="edge50" class="edge"><title>Node14&#45;&gt;Node17</title>
<path fill="none" stroke="midnightblue" d="M366.597,-290.706C369.567,-271.568 375.987,-230.198 379.855,-205.265"/>
<polygon fill="midnightblue" stroke="midnightblue" points="383.357,-205.524 381.432,-195.106 376.44,-204.451 383.357,-205.524"/>
</g>
<!-- Node18 -->
<g id="node42" class="node"><title>Node18</title>
<a xlink:href="_view_8h.html" target="_top" xlink:title="View.h">
<polygon fill="none" stroke="black" points="393,-233 393,-253 439,-253 439,-233 393,-233"/>
<text text-anchor="middle" x="416" y="-240" font-family="FreeSans" font-size="10.00">View.h</text>
</a>
</g>
<!-- Node14&#45;&gt;Node18 -->
<g id="edge48" class="edge"><title>Node14&#45;&gt;Node18</title>
<path fill="none" stroke="midnightblue" d="M373.884,-290.897C381.107,-282.682 391.482,-270.883 400.127,-261.051"/>
<polygon fill="midnightblue" stroke="midnightblue" points="402.9,-263.199 406.875,-253.378 397.643,-258.576 402.9,-263.199"/>
</g>
<!-- Node15&#45;&gt;Node6 -->
<g id="edge42" class="edge"><title>Node15&#45;&gt;Node6</title>
<path fill="none" stroke="midnightblue" d="M278.136,-232.897C255.938,-223.499 222.661,-209.411 197.938,-198.944"/>
<polygon fill="midnightblue" stroke="midnightblue" points="199.163,-195.663 188.59,-194.987 196.434,-202.109 199.163,-195.663"/>
</g>
<!-- Node15&#45;&gt;Node12 -->
<g id="edge36" class="edge"><title>Node15&#45;&gt;Node12</title>
<path fill="none" stroke="midnightblue" d="M289.459,-232.897C278.852,-224.353 263.434,-211.933 250.956,-201.881"/>
<polygon fill="midnightblue" stroke="midnightblue" points="252.866,-198.925 242.883,-195.378 248.474,-204.377 252.866,-198.925"/>
</g>
<!-- Node15&#45;&gt;Node13 -->
<g id="edge44" class="edge"><title>Node15&#45;&gt;Node13</title>
<path fill="none" stroke="midnightblue" d="M330.193,-234.065C360.488,-224.463 408.945,-209.105 443.575,-198.129"/>
<polygon fill="midnightblue" stroke="midnightblue" points="444.919,-201.375 453.395,-195.017 442.805,-194.702 444.919,-201.375"/>
</g>
<!-- Node16 -->
<g id="node35" class="node"><title>Node16</title>
<a xlink:href="_ui_font_8h.html" target="_top" xlink:title="UiFont.h">
<polygon fill="none" stroke="black" points="271.5,-175 271.5,-195 324.5,-195 324.5,-175 271.5,-175"/>
<text text-anchor="middle" x="298" y="-182" font-family="FreeSans" font-size="10.00">UiFont.h</text>
</a>
</g>
<!-- Node15&#45;&gt;Node16 -->
<g id="edge38" class="edge"><title>Node15&#45;&gt;Node16</title>
<path fill="none" stroke="midnightblue" d="M301.303,-232.897C300.782,-225.339 300.052,-214.748 299.41,-205.446"/>
<polygon fill="midnightblue" stroke="midnightblue" points="302.896,-205.113 298.716,-195.378 295.912,-205.595 302.896,-205.113"/>
</g>
<!-- Node15&#45;&gt;Node17 -->
<g id="edge46" class="edge"><title>Node15&#45;&gt;Node17</title>
<path fill="none" stroke="midnightblue" d="M316.109,-232.897C328.346,-224.135 346.276,-211.297 360.493,-201.116"/>
<polygon fill="midnightblue" stroke="midnightblue" points="362.688,-203.849 368.781,-195.182 358.613,-198.158 362.688,-203.849"/>
</g>
<!-- Node16&#45;&gt;Node10 -->
<g id="edge40" class="edge"><title>Node16&#45;&gt;Node10</title>
<path fill="none" stroke="midnightblue" d="M301.658,-174.897C304.454,-167.175 308.397,-156.286 311.816,-146.841"/>
<polygon fill="midnightblue" stroke="midnightblue" points="315.129,-147.972 315.243,-137.378 308.547,-145.589 315.129,-147.972"/>
</g>
</g>
</svg>
