<?xml version="1.0" encoding="UTF-8" standalone="no"?>
<!DOCTYPE svg PUBLIC "-//W3C//DTD SVG 1.1//EN"
 "http://www.w3.org/Graphics/SVG/1.1/DTD/svg11.dtd">
<!-- Generated by graphviz version 2.26.3 (20100126.1600)
 -->
<!-- Title: Rulebook.h Pages: 1 -->
<svg width="882pt" height="88pt"
 viewBox="0.00 0.00 882.00 88.00" xmlns="http://www.w3.org/2000/svg" xmlns:xlink="http://www.w3.org/1999/xlink">
<g id="graph1" class="graph" transform="scale(1 1) rotate(0) translate(4 84)">
<title>Rulebook.h</title>
<!-- Node1 -->
<g id="node1" class="node"><title>Node1</title>
<polygon fill="#bfbfbf" stroke="black" points="367.5,-59 367.5,-79 432.5,-79 432.5,-59 367.5,-59"/>
<text text-anchor="middle" x="400" y="-66" font-family="FreeSans" font-size="10.00">Rulebook.h</text>
</g>
<!-- Node2 -->
<g id="node3" class="node"><title>Node2</title>
<a xlink:href="_client_app_8cpp.html" target="_top" xlink:title="ClientApp.cpp">
<polygon fill="none" stroke="black" points="-0.5,-1 -0.5,-21 76.5,-21 76.5,-1 -0.5,-1"/>
<text text-anchor="middle" x="38" y="-8" font-family="FreeSans" font-size="10.00">ClientApp.cpp</text>
</a>
</g>
<!-- Node1&#45;&gt;Node2 -->
<g id="edge2" class="edge"><title>Node1&#45;&gt;Node2</title>
<path fill="none" stroke="midnightblue" d="M357.21,-63.7442C296.443,-56.0245 181.772,-40.5118 85,-22 82.2838,-21.4804 79.4868,-20.912 76.6751,-20.316"/>
<polygon fill="midnightblue" stroke="midnightblue" points="356.841,-67.2253 367.201,-65.0048 357.718,-60.2804 356.841,-67.2253"/>
</g>
<!-- Node3 -->
<g id="node5" class="node"><title>Node3</title>
<a xlink:href="_game_app_8cpp.html" target="_top" xlink:title="GameApp.cpp">
<polygon fill="none" stroke="black" points="94,-1 94,-21 172,-21 172,-1 94,-1"/>
<text text-anchor="middle" x="133" y="-8" font-family="FreeSans" font-size="10.00">GameApp.cpp</text>
</a>
</g>
<!-- Node1&#45;&gt;Node3 -->
<g id="edge4" class="edge"><title>Node1&#45;&gt;Node3</title>
<path fill="none" stroke="midnightblue" d="M357.508,-60.0631C313.358,-50.7345 242.283,-35.5973 181,-22 178.079,-21.3518 175.059,-20.6753 172.022,-19.9903"/>
<polygon fill="midnightblue" stroke="midnightblue" points="356.811,-63.493 367.318,-62.1339 358.257,-56.6439 356.811,-63.493"/>
</g>
<!-- Node4 -->
<g id="node7" class="node"><title>Node4</title>
<a xlink:href="_game_scene_8cpp.html" target="_top" xlink:title="GameScene.cpp">
<polygon fill="none" stroke="black" points="189.5,-1 189.5,-21 278.5,-21 278.5,-1 189.5,-1"/>
<text text-anchor="middle" x="234" y="-8" font-family="FreeSans" font-size="10.00">GameScene.cpp</text>
</a>
</g>
<!-- Node1&#45;&gt;Node4 -->
<g id="edge6" class="edge"><title>Node1&#45;&gt;Node4</title>
<path fill="none" stroke="midnightblue" d="M361.336,-55.491C331.24,-44.9752 290.134,-30.6131 262.862,-21.0842"/>
<polygon fill="midnightblue" stroke="midnightblue" points="360.49,-58.9028 371.085,-58.8972 362.799,-52.2945 360.49,-58.9028"/>
</g>
<!-- Node5 -->
<g id="node9" class="node"><title>Node5</title>
<a xlink:href="_internet_room_8cpp.html" target="_top" xlink:title="InternetRoom.cpp">
<polygon fill="none" stroke="black" points="295.5,-1 295.5,-21 388.5,-21 388.5,-1 295.5,-1"/>
<text text-anchor="middle" x="342" y="-8" font-family="FreeSans" font-size="10.00">InternetRoom.cpp</text>
</a>
</g>
<!-- Node1&#45;&gt;Node5 -->
<g id="edge8" class="edge"><title>Node1&#45;&gt;Node5</title>
<path fill="none" stroke="midnightblue" d="M382.568,-51.5682C372.725,-41.7249 360.755,-29.7548 352.378,-21.3776"/>
<polygon fill="midnightblue" stroke="midnightblue" points="380.351,-54.301 389.897,-58.8972 385.301,-49.3512 380.351,-54.301"/>
</g>
<!-- Node6 -->
<g id="node11" class="node"><title>Node6</title>
<a xlink:href="_main_menu_scene_8cpp.html" target="_top" xlink:title="MainMenuScene.cpp">
<polygon fill="none" stroke="black" points="405.5,-1 405.5,-21 512.5,-21 512.5,-1 405.5,-1"/>
<text text-anchor="middle" x="459" y="-8" font-family="FreeSans" font-size="10.00">MainMenuScene.cpp</text>
</a>
</g>
<!-- Node1&#45;&gt;Node6 -->
<g id="edge10" class="edge"><title>Node1&#45;&gt;Node6</title>
<path fill="none" stroke="midnightblue" d="M417.436,-51.86C427.504,-41.9622 439.838,-29.8377 448.443,-21.3776"/>
<polygon fill="midnightblue" stroke="midnightblue" points="414.955,-49.3908 410.277,-58.8972 419.862,-54.3827 414.955,-49.3908"/>
</g>
<!-- Node7 -->
<g id="node13" class="node"><title>Node7</title>
<a xlink:href="_track_select_dialog_8cpp.html" target="_top" xlink:title="TrackSelectDialog.cpp">
<polygon fill="none" stroke="black" points="530,-1 530,-21 644,-21 644,-1 530,-1"/>
<text text-anchor="middle" x="587" y="-8" font-family="FreeSans" font-size="10.00">TrackSelectDialog.cpp</text>
</a>
</g>
<!-- Node1&#45;&gt;Node7 -->
<g id="edge12" class="edge"><title>Node1&#45;&gt;Node7</title>
<path fill="none" stroke="midnightblue" d="M442.235,-55.9005C476.248,-45.3507 523.364,-30.7374 554.487,-21.0842"/>
<polygon fill="midnightblue" stroke="midnightblue" points="441.087,-52.5918 432.573,-58.8972 443.161,-59.2776 441.087,-52.5918"/>
</g>
<!-- Node8 -->
<g id="node15" class="node"><title>Node8</title>
<a xlink:href="_track_select_scene_8cpp.html" target="_top" xlink:title="TrackSelectScene.cpp">
<polygon fill="none" stroke="black" points="661.5,-1 661.5,-21 776.5,-21 776.5,-1 661.5,-1"/>
<text text-anchor="middle" x="719" y="-8" font-family="FreeSans" font-size="10.00">TrackSelectScene.cpp</text>
</a>
</g>
<!-- Node1&#45;&gt;Node8 -->
<g id="edge14" class="edge"><title>Node1&#45;&gt;Node8</title>
<path fill="none" stroke="midnightblue" d="M442.766,-61.2244C499.848,-50.8457 601.02,-32.4508 663.801,-21.0362"/>
<polygon fill="midnightblue" stroke="midnightblue" points="441.852,-57.8331 432.639,-63.0656 443.104,-64.7202 441.852,-57.8331"/>
</g>
<!-- Node9 -->
<g id="node17" class="node"><title>Node9</title>
<a xlink:href="_game_peer_8cpp.html" target="_top" xlink:title="GamePeer.cpp">
<polygon fill="none" stroke="black" points="793.5,-1 793.5,-21 874.5,-21 874.5,-1 793.5,-1"/>
<text text-anchor="middle" x="834" y="-8" font-family="FreeSans" font-size="10.00">GamePeer.cpp</text>
</a>
</g>
<!-- Node1&#45;&gt;Node9 -->
<g id="edge16" class="edge"><title>Node1&#45;&gt;Node9</title>
<path fill="none" stroke="midnightblue" d="M442.985,-65.1593C514.341,-58.4693 661.615,-43.3264 785,-22 787.749,-21.5248 790.577,-20.9966 793.42,-20.4359"/>
<polygon fill="midnightblue" stroke="midnightblue" points="442.243,-61.713 432.61,-66.1225 442.89,-68.6831 442.243,-61.713"/>
</g>
</g>
</svg>
