<?xml version="1.0" encoding="UTF-8" standalone="no"?>
<!DOCTYPE svg PUBLIC "-//W3C//DTD SVG 1.1//EN"
 "http://www.w3.org/Graphics/SVG/1.1/DTD/svg11.dtd">
<!-- Generated by graphviz version 2.38.0 (20140413.2041)
 -->
<!-- Title: RuntimeEnv.h Pages: 1 -->
<svg width="770pt" height="140pt"
 viewBox="0.00 0.00 769.50 140.00" xmlns="http://www.w3.org/2000/svg" xmlns:xlink="http://www.w3.org/1999/xlink">
<g id="graph0" class="graph" transform="scale(1 1) rotate(0) translate(4 136)">
<title>RuntimeEnv.h</title>
<!-- Node1 -->
<g id="node1" class="node"><title>Node1</title>
<polygon fill="#bfbfbf" stroke="black" points="337,-112.5 337,-131.5 418,-131.5 418,-112.5 337,-112.5"/>
<text text-anchor="middle" x="377.5" y="-119.5" font-family="FreeSans" font-size="10.00">RuntimeEnv.h</text>
</g>
<!-- Node2 -->
<g id="node2" class="node"><title>Node2</title>
<g id="a_node2"><a xlink:href="_style_env_8h.html" target="_top" xlink:title="StyleEnv.h">
<polygon fill="none" stroke="black" points="182.5,-56.5 182.5,-75.5 248.5,-75.5 248.5,-56.5 182.5,-56.5"/>
<text text-anchor="middle" x="215.5" y="-63.5" font-family="FreeSans" font-size="10.00">StyleEnv.h</text>
</a>
</g>
</g>
<!-- Node1&#45;&gt;Node2 -->
<g id="edge1" class="edge"><title>Node1&#45;&gt;Node2</title>
<path fill="none" stroke="midnightblue" d="M342.016,-109.172C311.512,-99.0039 268.255,-84.5852 241.049,-75.5164"/>
<polygon fill="midnightblue" stroke="midnightblue" points="341.237,-112.602 351.831,-112.444 343.451,-105.961 341.237,-112.602"/>
</g>
<!-- Node6 -->
<g id="node6" class="node"><title>Node6</title>
<g id="a_node6"><a xlink:href="_rulebook_env_8h.html" target="_top" xlink:title="RulebookEnv.h">
<polygon fill="none" stroke="black" points="440,-56.5 440,-75.5 525,-75.5 525,-56.5 440,-56.5"/>
<text text-anchor="middle" x="482.5" y="-63.5" font-family="FreeSans" font-size="10.00">RulebookEnv.h</text>
</a>
</g>
</g>
<!-- Node1&#45;&gt;Node6 -->
<g id="edge5" class="edge"><title>Node1&#45;&gt;Node6</title>
<path fill="none" stroke="midnightblue" d="M403.31,-107.726C422.753,-97.7271 448.848,-84.3065 465.672,-75.6545"/>
<polygon fill="midnightblue" stroke="midnightblue" points="401.662,-104.638 394.37,-112.324 404.864,-110.863 401.662,-104.638"/>
</g>
<!-- Node3 -->
<g id="node3" class="node"><title>Node3</title>
<g id="a_node3"><a xlink:href="_client_app_8cpp.html" target="_top" xlink:title="ClientApp.cpp">
<polygon fill="none" stroke="black" points="0,-0.5 0,-19.5 83,-19.5 83,-0.5 0,-0.5"/>
<text text-anchor="middle" x="41.5" y="-7.5" font-family="FreeSans" font-size="10.00">ClientApp.cpp</text>
</a>
</g>
</g>
<!-- Node2&#45;&gt;Node3 -->
<g id="edge2" class="edge"><title>Node2&#45;&gt;Node3</title>
<path fill="none" stroke="midnightblue" d="M178.239,-53.4363C145.433,-43.2551 98.4174,-28.664 68.9418,-19.5164"/>
<polygon fill="midnightblue" stroke="midnightblue" points="177.341,-56.8222 187.929,-56.4435 179.416,-50.1368 177.341,-56.8222"/>
</g>
<!-- Node4 -->
<g id="node4" class="node"><title>Node4</title>
<g id="a_node4"><a xlink:href="_client_script_core_8cpp.html" target="_top" xlink:title="ClientScriptCore.cpp">
<polygon fill="none" stroke="black" points="101.5,-0.5 101.5,-19.5 215.5,-19.5 215.5,-0.5 101.5,-0.5"/>
<text text-anchor="middle" x="158.5" y="-7.5" font-family="FreeSans" font-size="10.00">ClientScriptCore.cpp</text>
</a>
</g>
</g>
<!-- Node2&#45;&gt;Node4 -->
<g id="edge3" class="edge"><title>Node2&#45;&gt;Node4</title>
<path fill="none" stroke="midnightblue" d="M198.879,-49.2533C188.766,-39.6731 176.223,-27.7906 167.825,-19.8339"/>
<polygon fill="midnightblue" stroke="midnightblue" points="196.675,-51.9873 206.342,-56.324 201.49,-46.9056 196.675,-51.9873"/>
</g>
<!-- Node5 -->
<g id="node5" class="node"><title>Node5</title>
<g id="a_node5"><a xlink:href="_style_env_8cpp.html" target="_top" xlink:title="StyleEnv.cpp">
<polygon fill="none" stroke="black" points="234,-0.5 234,-19.5 311,-19.5 311,-0.5 234,-0.5"/>
<text text-anchor="middle" x="272.5" y="-7.5" font-family="FreeSans" font-size="10.00">StyleEnv.cpp</text>
</a>
</g>
</g>
<!-- Node2&#45;&gt;Node5 -->
<g id="edge4" class="edge"><title>Node2&#45;&gt;Node5</title>
<path fill="none" stroke="midnightblue" d="M232.121,-49.2533C242.234,-39.6731 254.777,-27.7906 263.175,-19.8339"/>
<polygon fill="midnightblue" stroke="midnightblue" points="229.51,-46.9056 224.658,-56.324 234.325,-51.9873 229.51,-46.9056"/>
</g>
<!-- Node7 -->
<g id="node7" class="node"><title>Node7</title>
<g id="a_node7"><a xlink:href="_rulebook_8cpp.html" target="_top" xlink:title="Rulebook.cpp">
<polygon fill="none" stroke="black" points="329.5,-0.5 329.5,-19.5 409.5,-19.5 409.5,-0.5 329.5,-0.5"/>
<text text-anchor="middle" x="369.5" y="-7.5" font-family="FreeSans" font-size="10.00">Rulebook.cpp</text>
</a>
</g>
</g>
<!-- Node6&#45;&gt;Node7 -->
<g id="edge6" class="edge"><title>Node6&#45;&gt;Node7</title>
<path fill="none" stroke="midnightblue" d="M455.497,-52.096C434.386,-42.0073 405.638,-28.2697 387.321,-19.5164"/>
<polygon fill="midnightblue" stroke="midnightblue" points="454.063,-55.2897 464.595,-56.4435 457.081,-48.9738 454.063,-55.2897"/>
</g>
<!-- Node8 -->
<g id="node8" class="node"><title>Node8</title>
<g id="a_node8"><a xlink:href="_rulebook_library_8cpp.html" target="_top" xlink:title="RulebookLibrary.cpp">
<polygon fill="none" stroke="black" points="427.5,-0.5 427.5,-19.5 537.5,-19.5 537.5,-0.5 427.5,-0.5"/>
<text text-anchor="middle" x="482.5" y="-7.5" font-family="FreeSans" font-size="10.00">RulebookLibrary.cpp</text>
</a>
</g>
</g>
<!-- Node6&#45;&gt;Node8 -->
<g id="edge7" class="edge"><title>Node6&#45;&gt;Node8</title>
<path fill="none" stroke="midnightblue" d="M482.5,-45.8045C482.5,-36.9102 482.5,-26.7798 482.5,-19.7511"/>
<polygon fill="midnightblue" stroke="midnightblue" points="479,-46.083 482.5,-56.083 486,-46.083 479,-46.083"/>
</g>
<!-- Node9 -->
<g id="node9" class="node"><title>Node9</title>
<g id="a_node9"><a xlink:href="_rulebook_env_8cpp.html" target="_top" xlink:title="RulebookEnv.cpp">
<polygon fill="none" stroke="black" points="555.5,-0.5 555.5,-19.5 651.5,-19.5 651.5,-0.5 555.5,-0.5"/>
<text text-anchor="middle" x="603.5" y="-7.5" font-family="FreeSans" font-size="10.00">RulebookEnv.cpp</text>
</a>
</g>
</g>
<!-- Node6&#45;&gt;Node9 -->
<g id="edge8" class="edge"><title>Node6&#45;&gt;Node9</title>
<path fill="none" stroke="midnightblue" d="M510.806,-52.3678C533.465,-42.2553 564.626,-28.3486 584.417,-19.5164"/>
<polygon fill="midnightblue" stroke="midnightblue" points="509.378,-49.1719 501.673,-56.4435 512.231,-55.5643 509.378,-49.1719"/>
</g>
<!-- Node10 -->
<g id="node10" class="node"><title>Node10</title>
<g id="a_node10"><a xlink:href="_runtime_env_8cpp.html" target="_top" xlink:title="RuntimeEnv.cpp">
<polygon fill="none" stroke="black" points="669.5,-0.5 669.5,-19.5 761.5,-19.5 761.5,-0.5 669.5,-0.5"/>
<text text-anchor="middle" x="715.5" y="-7.5" font-family="FreeSans" font-size="10.00">RuntimeEnv.cpp</text>
</a>
</g>
</g>
<!-- Node6&#45;&gt;Node10 -->
<g id="edge9" class="edge"><title>Node6&#45;&gt;Node10</title>
<path fill="none" stroke="midnightblue" d="M529.303,-54.1529C573.327,-43.95 638.347,-28.8809 678.753,-19.5164"/>
<polygon fill="midnightblue" stroke="midnightblue" points="528.371,-50.7761 519.42,-56.4435 529.952,-57.5953 528.371,-50.7761"/>
</g>
</g>
</svg>
