<?xml version="1.0" encoding="UTF-8" standalone="no"?>
<!DOCTYPE svg PUBLIC "-//W3C//DTD SVG 1.1//EN"
 "http://www.w3.org/Graphics/SVG/1.1/DTD/svg11.dtd">
<!-- Generated by graphviz version 2.38.0 (20140413.2041)
 -->
<!-- Title: ScalarNode.cpp Pages: 1 -->
<!--zoomable 252 -->
<svg id="main" version="1.1" xmlns="http://www.w3.org/2000/svg" xmlns:xlink="http://www.w3.org/1999/xlink" xml:space="preserve" onload="init(evt)">
<style type="text/css"><![CDATA[
.edge:hover path { stroke: red; }
.edge:hover polygon { stroke: red; fill: red; }
]]></style>
<script type="text/javascript"><![CDATA[
var edges = document.getElementsByTagName('g');
if (edges && edges.length) {
  for (var i=0;i<edges.length;i++) {
    if (edges[i].id.substr(0,4)=='edge') {
      edges[i].setAttribute('class','edge');
    }
  }
}
]]></script>
        <defs>
                <circle id="rim" cx="0" cy="0" r="7"/>
                <circle id="rim2" cx="0" cy="0" r="3.5"/>
                <g id="zoomPlus">
                        <use xlink:href="#rim" fill="#404040">
                                <set attributeName="fill" to="#808080" begin="zoomplus.mouseover" end="zoomplus.mouseout"/>
                        </use>
                        <path d="M-4,0h8M0,-4v8" fill="none" stroke="white" stroke-width="1.5" pointer-events="none"/>
                </g>
                <g id="zoomMin">
                        <use xlink:href="#rim" fill="#404040">
                                <set attributeName="fill" to="#808080" begin="zoomminus.mouseover" end="zoomminus.mouseout"/>
                        </use>
                        <path d="M-4,0h8" fill="none" stroke="white" stroke-width="1.5" pointer-events="none"/>
                </g>
                <g id="dirArrow">
                        <path fill="none" stroke="white" stroke-width="1.5" d="M0,-3.0v7 M-2.5,-0.5L0,-3.0L2.5,-0.5"/>
                </g>
               <g id="resetDef">
                       <use xlink:href="#rim2" fill="#404040">
                               <set attributeName="fill" to="#808080" begin="reset.mouseover" end="reset.mouseout"/>
                       </use>
               </g>
        </defs>

<script type="text/javascript">
var viewWidth = 566;
var viewHeight = 252;
var sectionId = 'dynsection-0';
</script>
<script xlink:href="svgpan.js"/>
<svg id="graph" class="graph">
<g id="viewport">
<title>ScalarNode.cpp</title>
<!-- Node1 -->
<g id="node1" class="node"><title>Node1</title>
<polygon fill="#bfbfbf" stroke="black" points="222,-224.5 222,-243.5 308,-243.5 308,-224.5 222,-224.5"/>
<text text-anchor="middle" x="265" y="-231.5" font-family="Helvetica,sans-Serif" font-size="10.00">ScalarNode.cpp</text>
</g>
<!-- Node2 -->
<g id="node2" class="node"><title>Node2</title>
<polygon fill="none" stroke="#bfbfbf" points="131,-168.5 131,-187.5 183,-187.5 183,-168.5 131,-168.5"/>
<text text-anchor="middle" x="157" y="-175.5" font-family="Helvetica,sans-Serif" font-size="10.00">sstream</text>
</g>
<!-- Node1&#45;&gt;Node2 -->
<g id="edge1" class="edge"><title>Node1&#45;&gt;Node2</title>
<path fill="none" stroke="midnightblue" d="M247.648,-224.324C230.328,-215.664 203.485,-202.242 183.498,-192.249"/>
<polygon fill="midnightblue" stroke="midnightblue" points="184.819,-188.996 174.309,-187.655 181.688,-195.257 184.819,-188.996"/>
</g>
<!-- Node3 -->
<g id="node3" class="node"><title>Node3</title>
<g id="a_node3"><a xlink:href="_str_8h.html" target="_top" xlink:title="../Str.h">
<polygon fill="none" stroke="black" points="201.5,-168.5 201.5,-187.5 248.5,-187.5 248.5,-168.5 201.5,-168.5"/>
<text text-anchor="middle" x="225" y="-175.5" font-family="Helvetica,sans-Serif" font-size="10.00">../Str.h</text>
</a>
</g>
</g>
<!-- Node1&#45;&gt;Node3 -->
<g id="edge2" class="edge"><title>Node1&#45;&gt;Node3</title>
<path fill="none" stroke="midnightblue" d="M258.395,-224.083C252.745,-216.455 244.455,-205.264 237.549,-195.941"/>
<polygon fill="midnightblue" stroke="midnightblue" points="240.247,-193.703 231.482,-187.751 234.622,-197.87 240.247,-193.703"/>
</g>
<!-- Node13 -->
<g id="node13" class="node"><title>Node13</title>
<g id="a_node13"><a xlink:href="_scalar_node_8h.html" target="_top" xlink:title="ScalarNode.h">
<polygon fill="none" stroke="black" points="267,-168.5 267,-187.5 343,-187.5 343,-168.5 267,-168.5"/>
<text text-anchor="middle" x="305" y="-175.5" font-family="Helvetica,sans-Serif" font-size="10.00">ScalarNode.h</text>
</a>
</g>
</g>
<!-- Node1&#45;&gt;Node13 -->
<g id="edge12" class="edge"><title>Node1&#45;&gt;Node13</title>
<path fill="none" stroke="midnightblue" d="M271.605,-224.083C277.255,-216.455 285.545,-205.264 292.451,-195.941"/>
<polygon fill="midnightblue" stroke="midnightblue" points="295.378,-197.87 298.518,-187.751 289.753,-193.703 295.378,-197.87"/>
</g>
<!-- Node17 -->
<g id="node17" class="node"><title>Node17</title>
<polygon fill="none" stroke="#bfbfbf" points="361,-168.5 361,-187.5 415,-187.5 415,-168.5 361,-168.5"/>
<text text-anchor="middle" x="388" y="-175.5" font-family="Helvetica,sans-Serif" font-size="10.00">strings.h</text>
</g>
<!-- Node1&#45;&gt;Node17 -->
<g id="edge17" class="edge"><title>Node1&#45;&gt;Node17</title>
<path fill="none" stroke="midnightblue" d="M284.49,-224.444C304.642,-215.596 336.323,-201.687 359.331,-191.586"/>
<polygon fill="midnightblue" stroke="midnightblue" points="360.852,-194.741 368.601,-187.516 358.038,-188.332 360.852,-194.741"/>
</g>
<!-- Node4 -->
<g id="node4" class="node"><title>Node4</title>
<g id="a_node4"><a xlink:href="_o_s_8h.html" target="_top" xlink:title="OS.h">
<polygon fill="none" stroke="black" points="205.5,-112.5 205.5,-131.5 244.5,-131.5 244.5,-112.5 205.5,-112.5"/>
<text text-anchor="middle" x="225" y="-119.5" font-family="Helvetica,sans-Serif" font-size="10.00">OS.h</text>
</a>
</g>
</g>
<!-- Node3&#45;&gt;Node4 -->
<g id="edge3" class="edge"><title>Node3&#45;&gt;Node4</title>
<path fill="none" stroke="midnightblue" d="M225,-168.083C225,-161.006 225,-150.861 225,-141.986"/>
<polygon fill="midnightblue" stroke="midnightblue" points="228.5,-141.751 225,-131.751 221.5,-141.751 228.5,-141.751"/>
</g>
<!-- Node5 -->
<g id="node5" class="node"><title>Node5</title>
<polygon fill="none" stroke="#bfbfbf" points="0,-56.5 0,-75.5 42,-75.5 42,-56.5 0,-56.5"/>
<text text-anchor="middle" x="21" y="-63.5" font-family="Helvetica,sans-Serif" font-size="10.00">locale</text>
</g>
<!-- Node4&#45;&gt;Node5 -->
<g id="edge4" class="edge"><title>Node4&#45;&gt;Node5</title>
<path fill="none" stroke="midnightblue" d="M205.494,-116.317C174.726,-108.859 112.846,-93.5754 51.9477,-76.4677"/>
<polygon fill="midnightblue" stroke="midnightblue" points="52.7624,-73.0609 42.1873,-73.7073 50.8574,-79.7967 52.7624,-73.0609"/>
</g>
<!-- Node6 -->
<g id="node6" class="node"><title>Node6</title>
<polygon fill="none" stroke="#bfbfbf" points="59.5,-56.5 59.5,-75.5 108.5,-75.5 108.5,-56.5 59.5,-56.5"/>
<text text-anchor="middle" x="84" y="-63.5" font-family="Helvetica,sans-Serif" font-size="10.00">random</text>
</g>
<!-- Node4&#45;&gt;Node6 -->
<g id="edge5" class="edge"><title>Node4&#45;&gt;Node6</title>
<path fill="none" stroke="midnightblue" d="M205.395,-113.492C182.211,-104.613 143.306,-89.7128 115.795,-79.1768"/>
<polygon fill="midnightblue" stroke="midnightblue" points="116.816,-75.8198 106.225,-75.5118 114.312,-82.3568 116.816,-75.8198"/>
</g>
<!-- Node7 -->
<g id="node7" class="node"><title>Node7</title>
<polygon fill="none" stroke="#bfbfbf" points="126,-56.5 126,-75.5 156,-75.5 156,-56.5 126,-56.5"/>
<text text-anchor="middle" x="141" y="-63.5" font-family="Helvetica,sans-Serif" font-size="10.00">set</text>
</g>
<!-- Node4&#45;&gt;Node7 -->
<g id="edge6" class="edge"><title>Node4&#45;&gt;Node7</title>
<path fill="none" stroke="midnightblue" d="M211.504,-112.324C198.4,-103.9 178.288,-90.9709 162.893,-81.0741"/>
<polygon fill="midnightblue" stroke="midnightblue" points="164.767,-78.118 154.463,-75.6545 160.982,-84.0063 164.767,-78.118"/>
</g>
<!-- Node8 -->
<g id="node8" class="node"><title>Node8</title>
<polygon fill="none" stroke="#bfbfbf" points="174.5,-56.5 174.5,-75.5 215.5,-75.5 215.5,-56.5 174.5,-56.5"/>
<text text-anchor="middle" x="195" y="-63.5" font-family="Helvetica,sans-Serif" font-size="10.00">string</text>
</g>
<!-- Node4&#45;&gt;Node8 -->
<g id="edge7" class="edge"><title>Node4&#45;&gt;Node8</title>
<path fill="none" stroke="midnightblue" d="M220.046,-112.083C215.896,-104.613 209.847,-93.7244 204.733,-84.5199"/>
<polygon fill="midnightblue" stroke="midnightblue" points="207.778,-82.7929 199.862,-75.7511 201.659,-86.1924 207.778,-82.7929"/>
</g>
<!-- Node9 -->
<g id="node9" class="node"><title>Node9</title>
<polygon fill="none" stroke="#bfbfbf" points="234,-56.5 234,-75.5 278,-75.5 278,-56.5 234,-56.5"/>
<text text-anchor="middle" x="256" y="-63.5" font-family="Helvetica,sans-Serif" font-size="10.00">vector</text>
</g>
<!-- Node4&#45;&gt;Node9 -->
<g id="edge8" class="edge"><title>Node4&#45;&gt;Node9</title>
<path fill="none" stroke="midnightblue" d="M230.119,-112.083C234.408,-104.613 240.658,-93.7244 245.942,-84.5199"/>
<polygon fill="midnightblue" stroke="midnightblue" points="249.033,-86.1662 250.976,-75.7511 242.962,-82.6811 249.033,-86.1662"/>
</g>
<!-- Node10 -->
<g id="node10" class="node"><title>Node10</title>
<polygon fill="none" stroke="#bfbfbf" points="295.5,-56.5 295.5,-75.5 402.5,-75.5 402.5,-56.5 295.5,-56.5"/>
<text text-anchor="middle" x="349" y="-63.5" font-family="Helvetica,sans-Serif" font-size="10.00">boost/filesystem.hpp</text>
</g>
<!-- Node4&#45;&gt;Node10 -->
<g id="edge9" class="edge"><title>Node4&#45;&gt;Node10</title>
<path fill="none" stroke="midnightblue" d="M244.648,-112.444C264.965,-103.596 296.903,-89.6875 320.098,-79.5865"/>
<polygon fill="midnightblue" stroke="midnightblue" points="321.673,-82.7181 329.444,-75.5164 318.878,-76.3002 321.673,-82.7181"/>
</g>
<!-- Node11 -->
<g id="node11" class="node"><title>Node11</title>
<g id="a_node11"><a xlink:href="_m_r___types_8h.html" target="_top" xlink:title="MR_Types.h">
<polygon fill="none" stroke="black" points="420.5,-56.5 420.5,-75.5 493.5,-75.5 493.5,-56.5 420.5,-56.5"/>
<text text-anchor="middle" x="457" y="-63.5" font-family="Helvetica,sans-Serif" font-size="10.00">MR_Types.h</text>
</a>
</g>
</g>
<!-- Node4&#45;&gt;Node11 -->
<g id="edge10" class="edge"><title>Node4&#45;&gt;Node11</title>
<path fill="none" stroke="midnightblue" d="M244.78,-116.396C281.173,-107.925 359.648,-89.6594 410.298,-77.8703"/>
<polygon fill="midnightblue" stroke="midnightblue" points="411.401,-81.2073 420.347,-75.5313 409.814,-74.3895 411.401,-81.2073"/>
</g>
<!-- Node12 -->
<g id="node12" class="node"><title>Node12</title>
<polygon fill="none" stroke="#bfbfbf" points="427.5,-0.5 427.5,-19.5 486.5,-19.5 486.5,-0.5 427.5,-0.5"/>
<text text-anchor="middle" x="457" y="-7.5" font-family="Helvetica,sans-Serif" font-size="10.00">inttypes.h</text>
</g>
<!-- Node11&#45;&gt;Node12 -->
<g id="edge11" class="edge"><title>Node11&#45;&gt;Node12</title>
<path fill="none" stroke="midnightblue" d="M457,-56.083C457,-49.0059 457,-38.8611 457,-29.9865"/>
<polygon fill="midnightblue" stroke="midnightblue" points="460.5,-29.751 457,-19.7511 453.5,-29.7511 460.5,-29.751"/>
</g>
<!-- Node13&#45;&gt;Node4 -->
<g id="edge14" class="edge"><title>Node13&#45;&gt;Node4</title>
<path fill="none" stroke="midnightblue" d="M292.147,-168.324C279.784,-159.979 260.87,-147.212 246.263,-137.352"/>
<polygon fill="midnightblue" stroke="midnightblue" points="248.068,-134.348 237.821,-131.655 244.152,-140.15 248.068,-134.348"/>
</g>
<!-- Node14 -->
<g id="node14" class="node"><title>Node14</title>
<polygon fill="none" stroke="#bfbfbf" points="281,-112.5 281,-131.5 329,-131.5 329,-112.5 281,-112.5"/>
<text text-anchor="middle" x="305" y="-119.5" font-family="Helvetica,sans-Serif" font-size="10.00">limits.h</text>
</g>
<!-- Node13&#45;&gt;Node14 -->
<g id="edge13" class="edge"><title>Node13&#45;&gt;Node14</title>
<path fill="none" stroke="midnightblue" d="M305,-168.083C305,-161.006 305,-150.861 305,-141.986"/>
<polygon fill="midnightblue" stroke="midnightblue" points="308.5,-141.751 305,-131.751 301.5,-141.751 308.5,-141.751"/>
</g>
<!-- Node15 -->
<g id="node15" class="node"><title>Node15</title>
<g id="a_node15"><a xlink:href="_node_8h.html" target="_top" xlink:title="Node.h">
<polygon fill="none" stroke="black" points="444,-112.5 444,-131.5 492,-131.5 492,-112.5 444,-112.5"/>
<text text-anchor="middle" x="468" y="-119.5" font-family="Helvetica,sans-Serif" font-size="10.00">Node.h</text>
</a>
</g>
</g>
<!-- Node13&#45;&gt;Node15 -->
<g id="edge15" class="edge"><title>Node13&#45;&gt;Node15</title>
<path fill="none" stroke="midnightblue" d="M330.828,-168.444C358.733,-159.199 403.319,-144.428 434.043,-134.25"/>
<polygon fill="midnightblue" stroke="midnightblue" points="435.495,-137.456 443.887,-130.988 433.294,-130.811 435.495,-137.456"/>
</g>
<!-- Node16 -->
<g id="node16" class="node"><title>Node16</title>
<polygon fill="none" stroke="#bfbfbf" points="512,-56.5 512,-75.5 558,-75.5 558,-56.5 512,-56.5"/>
<text text-anchor="middle" x="535" y="-63.5" font-family="Helvetica,sans-Serif" font-size="10.00">yaml.h</text>
</g>
<!-- Node15&#45;&gt;Node16 -->
<g id="edge16" class="edge"><title>Node15&#45;&gt;Node16</title>
<path fill="none" stroke="midnightblue" d="M478.765,-112.324C488.766,-104.263 503.887,-92.0765 515.93,-82.3695"/>
<polygon fill="midnightblue" stroke="midnightblue" points="518.45,-84.8343 524.039,-75.8339 514.057,-79.3841 518.45,-84.8343"/>
</g>
</g>
</svg>
        <g id="navigator" transform="translate(0 0)" fill="#404254">
                <rect fill="#f2f5e9" fill-opacity="0.5" stroke="#606060" stroke-width=".5" x="0" y="0" width="60" height="60"/>
                <use id="zoomplus" xlink:href="#zoomPlus" x="17" y="9" onmousedown="handleZoom(evt,'in')"/>
                <use id="zoomminus" xlink:href="#zoomMin" x="42" y="9" onmousedown="handleZoom(evt,'out')"/>
                <use id="reset" xlink:href="#resetDef" x="30" y="36" onmousedown="handleReset()"/>
                <g id="arrowUp" xlink:href="#dirArrow" transform="translate(30 24)" onmousedown="handlePan(0,-1)">
                  <use xlink:href="#rim" fill="#404040">
                        <set attributeName="fill" to="#808080" begin="arrowUp.mouseover" end="arrowUp.mouseout"/>
                  </use>
                  <path fill="none" stroke="white" stroke-width="1.5" d="M0,-3.0v7 M-2.5,-0.5L0,-3.0L2.5,-0.5"/>
                </g>
                <g id="arrowRight" xlink:href="#dirArrow" transform="rotate(90) translate(36 -43)" onmousedown="handlePan(1,0)">
                  <use xlink:href="#rim" fill="#404040">
                        <set attributeName="fill" to="#808080" begin="arrowRight.mouseover" end="arrowRight.mouseout"/>
                  </use>
                  <path fill="none" stroke="white" stroke-width="1.5" d="M0,-3.0v7 M-2.5,-0.5L0,-3.0L2.5,-0.5"/>
                </g>
                <g id="arrowDown" xlink:href="#dirArrow" transform="rotate(180) translate(-30 -48)" onmousedown="handlePan(0,1)">
                  <use xlink:href="#rim" fill="#404040">
                        <set attributeName="fill" to="#808080" begin="arrowDown.mouseover" end="arrowDown.mouseout"/>
                  </use>
                  <path fill="none" stroke="white" stroke-width="1.5" d="M0,-3.0v7 M-2.5,-0.5L0,-3.0L2.5,-0.5"/>
                </g>
                <g id="arrowLeft" xlink:href="#dirArrow" transform="rotate(270) translate(-36 17)" onmousedown="handlePan(-1,0)">
                  <use xlink:href="#rim" fill="#404040">
                        <set attributeName="fill" to="#808080" begin="arrowLeft.mouseover" end="arrowLeft.mouseout"/>
                  </use>
                  <path fill="none" stroke="white" stroke-width="1.5" d="M0,-3.0v7 M-2.5,-0.5L0,-3.0L2.5,-0.5"/>
                </g>
        </g>
        <svg viewBox="0 0 15 15" width="100%" height="30px" preserveAspectRatio="xMaxYMin meet">
         <g id="arrow_out" transform="scale(0.3 0.3)">
          <a xlink:href="_scalar_node_8cpp__incl_org.svg" target="_base">
           <rect id="button" ry="5" rx="5" y="6" x="6" height="38" width="38"
                fill="#f2f5e9" fill-opacity="0.5" stroke="#606060" stroke-width="1.0"/>
           <path id="arrow"
             d="M 11.500037,31.436501 C 11.940474,20.09759 22.043105,11.32322 32.158766,21.979434 L 37.068811,17.246167 C 37.068811,17.246167 37.088388,32 37.088388,32 L 22.160133,31.978069 C 22.160133,31.978069 26.997745,27.140456 26.997745,27.140456 C 18.528582,18.264221 13.291696,25.230495 11.500037,31.436501 z"
             style="fill:#404040;"/>
          </a>
         </g>
        </svg>
</svg>
