<?xml version="1.0" encoding="UTF-8" standalone="no"?>
<!DOCTYPE svg PUBLIC "-//W3C//DTD SVG 1.1//EN"
 "http://www.w3.org/Graphics/SVG/1.1/DTD/svg11.dtd">
<!-- Generated by graphviz version 2.26.3 (20100126.1600)
 -->
<!-- Title: ScalarNode.cpp Pages: 1 -->
<svg width="490pt" height="262pt"
 viewBox="0.00 0.00 490.00 262.00" xmlns="http://www.w3.org/2000/svg" xmlns:xlink="http://www.w3.org/1999/xlink">
<g id="graph1" class="graph" transform="scale(1 1) rotate(0) translate(4 258)">
<title>ScalarNode.cpp</title>
<!-- Node1 -->
<g id="node1" class="node"><title>Node1</title>
<polygon fill="#bfbfbf" stroke="black" points="179,-233 179,-253 265,-253 265,-233 179,-233"/>
<text text-anchor="middle" x="222" y="-240" font-family="FreeSans" font-size="10.00">ScalarNode.cpp</text>
</g>
<!-- Node2 -->
<g id="node3" class="node"><title>Node2</title>
<polygon fill="none" stroke="#bfbfbf" points="59.5,-175 59.5,-195 112.5,-195 112.5,-175 59.5,-175"/>
<text text-anchor="middle" x="86" y="-182" font-family="FreeSans" font-size="10.00">StdAfx.h</text>
</g>
<!-- Node1&#45;&gt;Node2 -->
<g id="edge2" class="edge"><title>Node1&#45;&gt;Node2</title>
<path fill="none" stroke="midnightblue" d="M198.311,-232.897C176.408,-223.556 143.643,-209.583 119.147,-199.136"/>
<polygon fill="midnightblue" stroke="midnightblue" points="120.446,-195.885 109.874,-195.182 117.7,-202.324 120.446,-195.885"/>
</g>
<!-- Node3 -->
<g id="node5" class="node"><title>Node3</title>
<polygon fill="none" stroke="#bfbfbf" points="130,-175 130,-195 182,-195 182,-175 130,-175"/>
<text text-anchor="middle" x="156" y="-182" font-family="FreeSans" font-size="10.00">sstream</text>
</g>
<!-- Node1&#45;&gt;Node3 -->
<g id="edge4" class="edge"><title>Node1&#45;&gt;Node3</title>
<path fill="none" stroke="midnightblue" d="M210.504,-232.897C200.875,-224.435 186.919,-212.172 175.54,-202.172"/>
<polygon fill="midnightblue" stroke="midnightblue" points="177.631,-199.35 167.809,-195.378 173.01,-204.608 177.631,-199.35"/>
</g>
<!-- Node4 -->
<g id="node7" class="node"><title>Node4</title>
<a xlink:href="_str_8h.html" target="_top" xlink:title="../Str.h">
<polygon fill="none" stroke="black" points="200,-175 200,-195 244,-195 244,-175 200,-175"/>
<text text-anchor="middle" x="222" y="-182" font-family="FreeSans" font-size="10.00">../Str.h</text>
</a>
</g>
<!-- Node1&#45;&gt;Node4 -->
<g id="edge6" class="edge"><title>Node1&#45;&gt;Node4</title>
<path fill="none" stroke="midnightblue" d="M222,-232.897C222,-225.339 222,-214.748 222,-205.446"/>
<polygon fill="midnightblue" stroke="midnightblue" points="225.5,-205.378 222,-195.378 218.5,-205.378 225.5,-205.378"/>
</g>
<!-- Node13 -->
<g id="node25" class="node"><title>Node13</title>
<a xlink:href="_scalar_node_8h.html" target="_top" xlink:title="ScalarNode.h">
<polygon fill="none" stroke="black" points="261.5,-175 261.5,-195 336.5,-195 336.5,-175 261.5,-175"/>
<text text-anchor="middle" x="299" y="-182" font-family="FreeSans" font-size="10.00">ScalarNode.h</text>
</a>
</g>
<!-- Node1&#45;&gt;Node13 -->
<g id="edge24" class="edge"><title>Node1&#45;&gt;Node13</title>
<path fill="none" stroke="midnightblue" d="M235.412,-232.897C246.935,-224.218 263.768,-211.538 277.221,-201.405"/>
<polygon fill="midnightblue" stroke="midnightblue" points="279.601,-203.994 285.483,-195.182 275.39,-198.403 279.601,-203.994"/>
</g>
<!-- Node17 -->
<g id="node35" class="node"><title>Node17</title>
<polygon fill="none" stroke="#bfbfbf" points="353.5,-175 353.5,-195 406.5,-195 406.5,-175 353.5,-175"/>
<text text-anchor="middle" x="380" y="-182" font-family="FreeSans" font-size="10.00">strings.h</text>
</g>
<!-- Node1&#45;&gt;Node17 -->
<g id="edge36" class="edge"><title>Node1&#45;&gt;Node17</title>
<path fill="none" stroke="midnightblue" d="M249.521,-232.897C275.621,-223.316 314.998,-208.862 343.666,-198.338"/>
<polygon fill="midnightblue" stroke="midnightblue" points="345.139,-201.526 353.32,-194.794 342.727,-194.954 345.139,-201.526"/>
</g>
<!-- Node5 -->
<g id="node9" class="node"><title>Node5</title>
<a xlink:href="_o_s_8h.html" target="_top" xlink:title="OS.h">
<polygon fill="none" stroke="black" points="203,-117 203,-137 241,-137 241,-117 203,-117"/>
<text text-anchor="middle" x="222" y="-124" font-family="FreeSans" font-size="10.00">OS.h</text>
</a>
</g>
<!-- Node4&#45;&gt;Node5 -->
<g id="edge8" class="edge"><title>Node4&#45;&gt;Node5</title>
<path fill="none" stroke="midnightblue" d="M222,-174.897C222,-167.339 222,-156.748 222,-147.446"/>
<polygon fill="midnightblue" stroke="midnightblue" points="225.5,-147.378 222,-137.378 218.5,-147.378 225.5,-147.378"/>
</g>
<!-- Node6 -->
<g id="node11" class="node"><title>Node6</title>
<polygon fill="none" stroke="#bfbfbf" points="0,-59 0,-79 42,-79 42,-59 0,-59"/>
<text text-anchor="middle" x="21" y="-66" font-family="FreeSans" font-size="10.00">locale</text>
</g>
<!-- Node5&#45;&gt;Node6 -->
<g id="edge10" class="edge"><title>Node5&#45;&gt;Node6</title>
<path fill="none" stroke="midnightblue" d="M202.869,-122.296C172.71,-114.763 112.111,-99.154 51.8872,-80.1163"/>
<polygon fill="midnightblue" stroke="midnightblue" points="52.8205,-76.7402 42.2297,-77.0321 50.6909,-83.4085 52.8205,-76.7402"/>
</g>
<!-- Node7 -->
<g id="node13" class="node"><title>Node7</title>
<polygon fill="none" stroke="#bfbfbf" points="60,-59 60,-79 90,-79 90,-59 60,-59"/>
<text text-anchor="middle" x="75" y="-66" font-family="FreeSans" font-size="10.00">set</text>
</g>
<!-- Node5&#45;&gt;Node7 -->
<g id="edge12" class="edge"><title>Node5&#45;&gt;Node7</title>
<path fill="none" stroke="midnightblue" d="M202.672,-120.055C180.029,-111.825 141.219,-97.4294 99.6442,-80.1106"/>
<polygon fill="midnightblue" stroke="midnightblue" points="100.745,-76.7769 90.1698,-76.1324 98.0349,-83.231 100.745,-76.7769"/>
</g>
<!-- Node8 -->
<g id="node15" class="node"><title>Node8</title>
<polygon fill="none" stroke="#bfbfbf" points="379.5,-59 379.5,-79 420.5,-79 420.5,-59 379.5,-59"/>
<text text-anchor="middle" x="400" y="-66" font-family="FreeSans" font-size="10.00">string</text>
</g>
<!-- Node5&#45;&gt;Node8 -->
<g id="edge14" class="edge"><title>Node5&#45;&gt;Node8</title>
<path fill="none" stroke="midnightblue" d="M241.403,-121.265C268.277,-113.24 318.529,-97.9408 369.865,-80.2811"/>
<polygon fill="midnightblue" stroke="midnightblue" points="371.155,-83.5384 379.458,-76.9574 368.863,-76.9242 371.155,-83.5384"/>
</g>
<!-- Node9 -->
<g id="node17" class="node"><title>Node9</title>
<polygon fill="none" stroke="#bfbfbf" points="108,-59 108,-79 152,-79 152,-59 108,-59"/>
<text text-anchor="middle" x="130" y="-66" font-family="FreeSans" font-size="10.00">vector</text>
</g>
<!-- Node5&#45;&gt;Node9 -->
<g id="edge16" class="edge"><title>Node5&#45;&gt;Node9</title>
<path fill="none" stroke="midnightblue" d="M205.975,-116.897C191.814,-107.97 170.941,-94.8106 154.655,-84.5431"/>
<polygon fill="midnightblue" stroke="midnightblue" points="156.476,-81.554 146.15,-79.1817 152.743,-87.4755 156.476,-81.554"/>
</g>
<!-- Node10 -->
<g id="node19" class="node"><title>Node10</title>
<polygon fill="none" stroke="#bfbfbf" points="169.5,-59 169.5,-79 274.5,-79 274.5,-59 169.5,-59"/>
<text text-anchor="middle" x="222" y="-66" font-family="FreeSans" font-size="10.00">boost/filesystem.hpp</text>
</g>
<!-- Node5&#45;&gt;Node10 -->
<g id="edge18" class="edge"><title>Node5&#45;&gt;Node10</title>
<path fill="none" stroke="midnightblue" d="M222,-116.897C222,-109.339 222,-98.7476 222,-89.4458"/>
<polygon fill="midnightblue" stroke="midnightblue" points="225.5,-89.3776 222,-79.3776 218.5,-89.3776 225.5,-89.3776"/>
</g>
<!-- Node11 -->
<g id="node21" class="node"><title>Node11</title>
<a xlink:href="_m_r___types_8h.html" target="_top" xlink:title="MR_Types.h">
<polygon fill="none" stroke="black" points="291.5,-59 291.5,-79 362.5,-79 362.5,-59 291.5,-59"/>
<text text-anchor="middle" x="327" y="-66" font-family="FreeSans" font-size="10.00">MR_Types.h</text>
</a>
</g>
<!-- Node5&#45;&gt;Node11 -->
<g id="edge20" class="edge"><title>Node5&#45;&gt;Node11</title>
<path fill="none" stroke="midnightblue" d="M240.29,-116.897C256.676,-107.846 280.937,-94.4442 299.633,-84.117"/>
<polygon fill="midnightblue" stroke="midnightblue" points="301.507,-87.0806 308.568,-79.1817 298.122,-80.9532 301.507,-87.0806"/>
</g>
<!-- Node12 -->
<g id="node23" class="node"><title>Node12</title>
<polygon fill="none" stroke="#bfbfbf" points="298,-1 298,-21 356,-21 356,-1 298,-1"/>
<text text-anchor="middle" x="327" y="-8" font-family="FreeSans" font-size="10.00">inttypes.h</text>
</g>
<!-- Node11&#45;&gt;Node12 -->
<g id="edge22" class="edge"><title>Node11&#45;&gt;Node12</title>
<path fill="none" stroke="midnightblue" d="M327,-58.8972C327,-51.339 327,-40.7476 327,-31.4458"/>
<polygon fill="midnightblue" stroke="midnightblue" points="330.5,-31.3776 327,-21.3776 323.5,-31.3776 330.5,-31.3776"/>
</g>
<!-- Node13&#45;&gt;Node5 -->
<g id="edge28" class="edge"><title>Node13&#45;&gt;Node5</title>
<path fill="none" stroke="midnightblue" d="M285.588,-174.897C274.065,-166.218 257.232,-153.538 243.779,-143.405"/>
<polygon fill="midnightblue" stroke="midnightblue" points="245.61,-140.403 235.517,-137.182 241.399,-145.994 245.61,-140.403"/>
</g>
<!-- Node14 -->
<g id="node27" class="node"><title>Node14</title>
<polygon fill="none" stroke="#bfbfbf" points="275.5,-117 275.5,-137 322.5,-137 322.5,-117 275.5,-117"/>
<text text-anchor="middle" x="299" y="-124" font-family="FreeSans" font-size="10.00">limits.h</text>
</g>
<!-- Node13&#45;&gt;Node14 -->
<g id="edge26" class="edge"><title>Node13&#45;&gt;Node14</title>
<path fill="none" stroke="midnightblue" d="M299,-174.897C299,-167.339 299,-156.748 299,-147.446"/>
<polygon fill="midnightblue" stroke="midnightblue" points="302.5,-147.378 299,-137.378 295.5,-147.378 302.5,-147.378"/>
</g>
<!-- Node15 -->
<g id="node30" class="node"><title>Node15</title>
<a xlink:href="_node_8h.html" target="_top" xlink:title="Node.h">
<polygon fill="none" stroke="black" points="376.5,-117 376.5,-137 423.5,-137 423.5,-117 376.5,-117"/>
<text text-anchor="middle" x="400" y="-124" font-family="FreeSans" font-size="10.00">Node.h</text>
</a>
</g>
<!-- Node13&#45;&gt;Node15 -->
<g id="edge30" class="edge"><title>Node13&#45;&gt;Node15</title>
<path fill="none" stroke="midnightblue" d="M316.593,-174.897C332.283,-165.887 355.479,-152.567 373.429,-142.259"/>
<polygon fill="midnightblue" stroke="midnightblue" points="375.341,-145.197 382.27,-137.182 371.855,-139.126 375.341,-145.197"/>
</g>
<!-- Node15&#45;&gt;Node8 -->
<g id="edge34" class="edge"><title>Node15&#45;&gt;Node8</title>
<path fill="none" stroke="midnightblue" d="M400,-116.897C400,-109.339 400,-98.7476 400,-89.4458"/>
<polygon fill="midnightblue" stroke="midnightblue" points="403.5,-89.3776 400,-79.3776 396.5,-89.3776 403.5,-89.3776"/>
</g>
<!-- Node16 -->
<g id="node32" class="node"><title>Node16</title>
<polygon fill="none" stroke="#bfbfbf" points="438,-59 438,-79 482,-79 482,-59 438,-59"/>
<text text-anchor="middle" x="460" y="-66" font-family="FreeSans" font-size="10.00">yaml.h</text>
</g>
<!-- Node15&#45;&gt;Node16 -->
<g id="edge32" class="edge"><title>Node15&#45;&gt;Node16</title>
<path fill="none" stroke="midnightblue" d="M410.451,-116.897C419.12,-108.517 431.646,-96.4093 441.934,-86.4638"/>
<polygon fill="midnightblue" stroke="midnightblue" points="444.507,-88.8443 449.265,-79.3776 439.642,-83.8114 444.507,-88.8443"/>
</g>
</g>
</svg>
