<?xml version="1.0" encoding="UTF-8" standalone="no"?>
<!DOCTYPE svg PUBLIC "-//W3C//DTD SVG 1.1//EN"
 "http://www.w3.org/Graphics/SVG/1.1/DTD/svg11.dtd">
<!-- Generated by graphviz version 2.26.3 (20100126.1600)
 -->
<!-- Title: Scene.h Pages: 1 -->
<svg width="2924pt" height="378pt"
 viewBox="0.00 0.00 2924.00 378.00" xmlns="http://www.w3.org/2000/svg" xmlns:xlink="http://www.w3.org/1999/xlink">
<g id="graph1" class="graph" transform="scale(1 1) rotate(0) translate(4 374)">
<title>Scene.h</title>
<!-- Node1 -->
<g id="node1" class="node"><title>Node1</title>
<polygon fill="#bfbfbf" stroke="black" points="2800,-349 2800,-369 2852,-369 2852,-349 2800,-349"/>
<text text-anchor="middle" x="2826" y="-356" font-family="FreeSans" font-size="10.00">Scene.h</text>
</g>
<!-- Node2 -->
<g id="node3" class="node"><title>Node2</title>
<a xlink:href="_ui_scene_8h.html" target="_top" xlink:title="UiScene.h">
<polygon fill="none" stroke="black" points="2392,-291 2392,-311 2454,-311 2454,-291 2392,-291"/>
<text text-anchor="middle" x="2423" y="-298" font-family="FreeSans" font-size="10.00">UiScene.h</text>
</a>
</g>
<!-- Node1&#45;&gt;Node2 -->
<g id="edge2" class="edge"><title>Node1&#45;&gt;Node2</title>
<path fill="none" stroke="midnightblue" d="M2789.52,-353.75C2711.12,-342.467 2527.7,-316.069 2454.24,-305.496"/>
<polygon fill="midnightblue" stroke="midnightblue" points="2789.47,-357.279 2799.87,-355.239 2790.47,-350.35 2789.47,-357.279"/>
</g>
<!-- Node24 -->
<g id="node53" class="node"><title>Node24</title>
<a xlink:href="_client_app_8cpp.html" target="_top" xlink:title="ClientApp.cpp">
<polygon fill="none" stroke="black" points="1876.5,-117 1876.5,-137 1953.5,-137 1953.5,-117 1876.5,-117"/>
<text text-anchor="middle" x="1915" y="-124" font-family="FreeSans" font-size="10.00">ClientApp.cpp</text>
</a>
</g>
<!-- Node1&#45;&gt;Node24 -->
<g id="edge150" class="edge"><title>Node1&#45;&gt;Node24</title>
<path fill="none" stroke="midnightblue" d="M2831.35,-338.645C2840.11,-300.158 2852.31,-216.756 2807,-174 2774.2,-143.047 2040.92,-142.039 1996,-138 1982.15,-136.755 1967.03,-134.851 1953.65,-132.975"/>
<polygon fill="midnightblue" stroke="midnightblue" points="2827.88,-338.103 2828.92,-348.647 2834.69,-339.758 2827.88,-338.103"/>
</g>
<!-- Node52 -->
<g id="node128" class="node"><title>Node52</title>
<a xlink:href="_scene_8cpp.html" target="_top" xlink:title="Scene.cpp">
<polygon fill="none" stroke="black" points="2854,-291 2854,-311 2916,-311 2916,-291 2854,-291"/>
<text text-anchor="middle" x="2885" y="-298" font-family="FreeSans" font-size="10.00">Scene.cpp</text>
</a>
</g>
<!-- Node1&#45;&gt;Node52 -->
<g id="edge152" class="edge"><title>Node1&#45;&gt;Node52</title>
<path fill="none" stroke="midnightblue" d="M2843.44,-341.86C2853.5,-331.962 2865.84,-319.838 2874.44,-311.378"/>
<polygon fill="midnightblue" stroke="midnightblue" points="2840.95,-339.391 2836.28,-348.897 2845.86,-344.383 2840.95,-339.391"/>
</g>
<!-- Node3 -->
<g id="node5" class="node"><title>Node3</title>
<a xlink:href="_form_scene_8h.html" target="_top" xlink:title="FormScene.h">
<polygon fill="none" stroke="black" points="1469,-233 1469,-253 1543,-253 1543,-233 1469,-233"/>
<text text-anchor="middle" x="1506" y="-240" font-family="FreeSans" font-size="10.00">FormScene.h</text>
</a>
</g>
<!-- Node2&#45;&gt;Node3 -->
<g id="edge4" class="edge"><title>Node2&#45;&gt;Node3</title>
<path fill="none" stroke="midnightblue" d="M2381.55,-298.378C2227.56,-288.639 1689.73,-254.621 1543.14,-245.349"/>
<polygon fill="midnightblue" stroke="midnightblue" points="2381.76,-301.899 2391.96,-299.037 2382.21,-294.913 2381.76,-301.899"/>
</g>
<!-- Node38 -->
<g id="node92" class="node"><title>Node38</title>
<a xlink:href="_console_scene_8h.html" target="_top" xlink:title="ConsoleScene.h">
<polygon fill="none" stroke="black" points="1889.5,-233 1889.5,-253 1976.5,-253 1976.5,-233 1889.5,-233"/>
<text text-anchor="middle" x="1933" y="-240" font-family="FreeSans" font-size="10.00">ConsoleScene.h</text>
</a>
</g>
<!-- Node2&#45;&gt;Node38 -->
<g id="edge108" class="edge"><title>Node2&#45;&gt;Node38</title>
<path fill="none" stroke="midnightblue" d="M2382,-296.146C2290.59,-285.328 2070.82,-259.313 1976.83,-248.188"/>
<polygon fill="midnightblue" stroke="midnightblue" points="2381.63,-299.628 2391.98,-297.328 2382.46,-292.677 2381.63,-299.628"/>
</g>
<!-- Node40 -->
<g id="node97" class="node"><title>Node40</title>
<a xlink:href="_debug_scene_8h.html" target="_top" xlink:title="DebugScene.h">
<polygon fill="none" stroke="black" points="2043,-233 2043,-253 2123,-253 2123,-233 2043,-233"/>
<text text-anchor="middle" x="2083" y="-240" font-family="FreeSans" font-size="10.00">DebugScene.h</text>
</a>
</g>
<!-- Node2&#45;&gt;Node40 -->
<g id="edge114" class="edge"><title>Node2&#45;&gt;Node40</title>
<path fill="none" stroke="midnightblue" d="M2381.94,-293.995C2316.26,-282.791 2188.36,-260.973 2123.22,-249.86"/>
<polygon fill="midnightblue" stroke="midnightblue" points="2381.48,-297.468 2391.93,-295.699 2382.66,-290.567 2381.48,-297.468"/>
</g>
<!-- Node42 -->
<g id="node102" class="node"><title>Node42</title>
<a xlink:href="_game_scene_8h.html" target="_top" xlink:title="GameScene.h">
<polygon fill="none" stroke="black" points="2309,-233 2309,-253 2387,-253 2387,-233 2309,-233"/>
<text text-anchor="middle" x="2348" y="-240" font-family="FreeSans" font-size="10.00">GameScene.h</text>
</a>
</g>
<!-- Node2&#45;&gt;Node42 -->
<g id="edge120" class="edge"><title>Node2&#45;&gt;Node42</title>
<path fill="none" stroke="midnightblue" d="M2401.91,-284.687C2388.82,-274.569 2372.42,-261.885 2361.17,-253.182"/>
<polygon fill="midnightblue" stroke="midnightblue" points="2399.88,-287.548 2409.94,-290.897 2404.17,-282.011 2399.88,-287.548"/>
</g>
<!-- Node47 -->
<g id="node115" class="node"><title>Node47</title>
<a xlink:href="_status_overlay_scene_8h.html" target="_top" xlink:title="StatusOverlayScene.h">
<polygon fill="none" stroke="black" points="2441.5,-233 2441.5,-253 2554.5,-253 2554.5,-233 2441.5,-233"/>
<text text-anchor="middle" x="2498" y="-240" font-family="FreeSans" font-size="10.00">StatusOverlayScene.h</text>
</a>
</g>
<!-- Node2&#45;&gt;Node47 -->
<g id="edge136" class="edge"><title>Node2&#45;&gt;Node47</title>
<path fill="none" stroke="midnightblue" d="M2444.09,-284.687C2457.18,-274.569 2473.58,-261.885 2484.83,-253.182"/>
<polygon fill="midnightblue" stroke="midnightblue" points="2441.83,-282.011 2436.06,-290.897 2446.12,-287.548 2441.83,-282.011"/>
</g>
<!-- Node49 -->
<g id="node120" class="node"><title>Node49</title>
<a xlink:href="_palette_scene_8h.html" target="_top" xlink:title="PaletteScene.h">
<polygon fill="none" stroke="black" points="2598.5,-233 2598.5,-253 2681.5,-253 2681.5,-233 2598.5,-233"/>
<text text-anchor="middle" x="2640" y="-240" font-family="FreeSans" font-size="10.00">PaletteScene.h</text>
</a>
</g>
<!-- Node2&#45;&gt;Node49 -->
<g id="edge142" class="edge"><title>Node2&#45;&gt;Node49</title>
<path fill="none" stroke="midnightblue" d="M2463.75,-290.108C2503.58,-279.463 2563.7,-263.393 2602.41,-253.048"/>
<polygon fill="midnightblue" stroke="midnightblue" points="2462.85,-286.726 2454.09,-292.69 2464.66,-293.489 2462.85,-286.726"/>
</g>
<!-- Node51 -->
<g id="node125" class="node"><title>Node51</title>
<a xlink:href="_ui_scene_8cpp.html" target="_top" xlink:title="UiScene.cpp">
<polygon fill="none" stroke="black" points="2699,-233 2699,-253 2771,-253 2771,-233 2699,-233"/>
<text text-anchor="middle" x="2735" y="-240" font-family="FreeSans" font-size="10.00">UiScene.cpp</text>
</a>
</g>
<!-- Node2&#45;&gt;Node51 -->
<g id="edge148" class="edge"><title>Node2&#45;&gt;Node51</title>
<path fill="none" stroke="midnightblue" d="M2464.33,-294.587C2516.94,-286.225 2610.54,-270.686 2690,-254 2692.83,-253.405 2695.76,-252.76 2698.7,-252.09"/>
<polygon fill="midnightblue" stroke="midnightblue" points="2463.7,-291.143 2454.37,-296.162 2464.79,-298.057 2463.7,-291.143"/>
</g>
<!-- Node4 -->
<g id="node7" class="node"><title>Node4</title>
<a xlink:href="_dialog_scene_8h.html" target="_top" xlink:title="DialogScene.h">
<polygon fill="none" stroke="black" points="623.5,-175 623.5,-195 702.5,-195 702.5,-175 623.5,-175"/>
<text text-anchor="middle" x="663" y="-182" font-family="FreeSans" font-size="10.00">DialogScene.h</text>
</a>
</g>
<!-- Node3&#45;&gt;Node4 -->
<g id="edge6" class="edge"><title>Node3&#45;&gt;Node4</title>
<path fill="none" stroke="midnightblue" d="M1458.68,-239.744C1308.18,-229.39 842.266,-197.334 702.824,-187.74"/>
<polygon fill="midnightblue" stroke="midnightblue" points="1458.75,-243.257 1468.96,-240.452 1459.23,-236.274 1458.75,-243.257"/>
</g>
<!-- Node23 -->
<g id="node51" class="node"><title>Node23</title>
<a xlink:href="_loading_scene_8h.html" target="_top" xlink:title="LoadingScene.h">
<polygon fill="none" stroke="black" points="1188,-175 1188,-195 1274,-195 1274,-175 1188,-175"/>
<text text-anchor="middle" x="1231" y="-182" font-family="FreeSans" font-size="10.00">LoadingScene.h</text>
</a>
</g>
<!-- Node3&#45;&gt;Node23 -->
<g id="edge56" class="edge"><title>Node3&#45;&gt;Node23</title>
<path fill="none" stroke="midnightblue" d="M1459.11,-233.129C1413.99,-223.625 1343.82,-208.843 1283,-196 1280.11,-195.39 1277.13,-194.761 1274.13,-194.126"/>
<polygon fill="midnightblue" stroke="midnightblue" points="1458.4,-236.555 1468.91,-235.191 1459.84,-229.706 1458.4,-236.555"/>
</g>
<!-- Node28 -->
<g id="node62" class="node"><title>Node28</title>
<a xlink:href="_main_menu_scene_8h.html" target="_top" xlink:title="MainMenuScene.h">
<polygon fill="none" stroke="black" points="1291.5,-175 1291.5,-195 1388.5,-195 1388.5,-175 1291.5,-175"/>
<text text-anchor="middle" x="1340" y="-182" font-family="FreeSans" font-size="10.00">MainMenuScene.h</text>
</a>
</g>
<!-- Node3&#45;&gt;Node28 -->
<g id="edge68" class="edge"><title>Node3&#45;&gt;Node28</title>
<path fill="none" stroke="midnightblue" d="M1467.34,-229.491C1437.24,-218.975 1396.13,-204.613 1368.86,-195.084"/>
<polygon fill="midnightblue" stroke="midnightblue" points="1466.49,-232.903 1477.09,-232.897 1468.8,-226.295 1466.49,-232.903"/>
</g>
<!-- Node29 -->
<g id="node66" class="node"><title>Node29</title>
<a xlink:href="_message_scene_8h.html" target="_top" xlink:title="MessageScene.h">
<polygon fill="none" stroke="black" points="1406,-175 1406,-195 1498,-195 1498,-175 1406,-175"/>
<text text-anchor="middle" x="1452" y="-182" font-family="FreeSans" font-size="10.00">MessageScene.h</text>
</a>
</g>
<!-- Node3&#45;&gt;Node29 -->
<g id="edge74" class="edge"><title>Node3&#45;&gt;Node29</title>
<path fill="none" stroke="midnightblue" d="M1489.77,-225.568C1480.61,-215.725 1469.46,-203.755 1461.66,-195.378"/>
<polygon fill="midnightblue" stroke="midnightblue" points="1487.22,-227.963 1496.59,-232.897 1492.34,-223.193 1487.22,-227.963"/>
</g>
<!-- Node33 -->
<g id="node79" class="node"><title>Node33</title>
<a xlink:href="_test_lab_scene_8h.html" target="_top" xlink:title="TestLabScene.h">
<polygon fill="none" stroke="black" points="1516,-175 1516,-195 1604,-195 1604,-175 1516,-175"/>
<text text-anchor="middle" x="1560" y="-182" font-family="FreeSans" font-size="10.00">TestLabScene.h</text>
</a>
</g>
<!-- Node3&#45;&gt;Node33 -->
<g id="edge92" class="edge"><title>Node3&#45;&gt;Node33</title>
<path fill="none" stroke="midnightblue" d="M1522.23,-225.568C1531.39,-215.725 1542.54,-203.755 1550.34,-195.378"/>
<polygon fill="midnightblue" stroke="midnightblue" points="1519.66,-223.193 1515.41,-232.897 1524.78,-227.963 1519.66,-223.193"/>
</g>
<!-- Node35 -->
<g id="node85" class="node"><title>Node35</title>
<a xlink:href="_form_scene_8cpp.html" target="_top" xlink:title="FormScene.cpp">
<polygon fill="none" stroke="black" points="1621.5,-175 1621.5,-195 1706.5,-195 1706.5,-175 1621.5,-175"/>
<text text-anchor="middle" x="1664" y="-182" font-family="FreeSans" font-size="10.00">FormScene.cpp</text>
</a>
</g>
<!-- Node3&#45;&gt;Node35 -->
<g id="edge100" class="edge"><title>Node3&#45;&gt;Node35</title>
<path fill="none" stroke="midnightblue" d="M1543.17,-229.354C1571.79,-218.85 1610.68,-204.572 1636.53,-195.084"/>
<polygon fill="midnightblue" stroke="midnightblue" points="1541.7,-226.165 1533.52,-232.897 1544.12,-232.737 1541.7,-226.165"/>
</g>
<!-- Node36 -->
<g id="node87" class="node"><title>Node36</title>
<a xlink:href="_pause_menu_scene_8h.html" target="_top" xlink:title="PauseMenuScene.h">
<polygon fill="none" stroke="black" points="1724,-175 1724,-195 1828,-195 1828,-175 1724,-175"/>
<text text-anchor="middle" x="1776" y="-182" font-family="FreeSans" font-size="10.00">PauseMenuScene.h</text>
</a>
</g>
<!-- Node3&#45;&gt;Node36 -->
<g id="edge102" class="edge"><title>Node3&#45;&gt;Node36</title>
<path fill="none" stroke="midnightblue" d="M1553.06,-232.89C1602.5,-222.269 1679.8,-205.664 1729.16,-195.062"/>
<polygon fill="midnightblue" stroke="midnightblue" points="1552.3,-229.474 1543.26,-234.996 1553.77,-236.318 1552.3,-229.474"/>
</g>
<!-- Node5 -->
<g id="node9" class="node"><title>Node5</title>
<a xlink:href="_settings_scene_8h.html" target="_top" xlink:title="SettingsScene.h">
<polygon fill="none" stroke="black" points="181,-117 181,-137 269,-137 269,-117 181,-117"/>
<text text-anchor="middle" x="225" y="-124" font-family="FreeSans" font-size="10.00">SettingsScene.h</text>
</a>
</g>
<!-- Node4&#45;&gt;Node5 -->
<g id="edge8" class="edge"><title>Node4&#45;&gt;Node5</title>
<path fill="none" stroke="midnightblue" d="M613.371,-178.481C544.573,-169.437 416.33,-152.55 307,-138 294.755,-136.37 281.483,-134.594 269.256,-132.954"/>
<polygon fill="midnightblue" stroke="midnightblue" points="613.115,-181.978 623.486,-179.811 614.028,-175.037 613.115,-181.978"/>
</g>
<!-- Node12 -->
<g id="node24" class="node"><title>Node12</title>
<a xlink:href="_dialog_scene_8cpp.html" target="_top" xlink:title="DialogScene.cpp">
<polygon fill="none" stroke="black" points="315.5,-117 315.5,-137 404.5,-137 404.5,-117 315.5,-117"/>
<text text-anchor="middle" x="360" y="-124" font-family="FreeSans" font-size="10.00">DialogScene.cpp</text>
</a>
</g>
<!-- Node4&#45;&gt;Node12 -->
<g id="edge24" class="edge"><title>Node4&#45;&gt;Node12</title>
<path fill="none" stroke="midnightblue" d="M613.122,-175.908C562.624,-166.636 482.309,-151.706 413,-138 410.234,-137.453 407.389,-136.883 404.521,-136.303"/>
<polygon fill="midnightblue" stroke="midnightblue" points="612.654,-179.381 623.121,-177.742 613.916,-172.496 612.654,-179.381"/>
</g>
<!-- Node13 -->
<g id="node26" class="node"><title>Node13</title>
<a xlink:href="_display_select_scene_8h.html" target="_top" xlink:title="DisplaySelectScene.h">
<polygon fill="none" stroke="black" points="421.5,-117 421.5,-137 532.5,-137 532.5,-117 421.5,-117"/>
<text text-anchor="middle" x="477" y="-124" font-family="FreeSans" font-size="10.00">DisplaySelectScene.h</text>
</a>
</g>
<!-- Node4&#45;&gt;Node13 -->
<g id="edge26" class="edge"><title>Node4&#45;&gt;Node13</title>
<path fill="none" stroke="midnightblue" d="M620.991,-171.9C587.159,-161.351 540.296,-146.737 509.339,-137.084"/>
<polygon fill="midnightblue" stroke="midnightblue" points="620.013,-175.262 630.601,-174.897 622.097,-168.579 620.013,-175.262"/>
</g>
<!-- Node15 -->
<g id="node31" class="node"><title>Node15</title>
<a xlink:href="_track_select_scene_8h.html" target="_top" xlink:title="TrackSelectScene.h">
<polygon fill="none" stroke="black" points="550,-117 550,-137 654,-137 654,-117 550,-117"/>
<text text-anchor="middle" x="602" y="-124" font-family="FreeSans" font-size="10.00">TrackSelectScene.h</text>
</a>
</g>
<!-- Node4&#45;&gt;Node15 -->
<g id="edge32" class="edge"><title>Node4&#45;&gt;Node15</title>
<path fill="none" stroke="midnightblue" d="M644.973,-167.86C634.564,-157.962 621.812,-145.838 612.914,-137.378"/>
<polygon fill="midnightblue" stroke="midnightblue" points="642.716,-170.543 652.375,-174.897 647.539,-165.47 642.716,-170.543"/>
</g>
<!-- Node18 -->
<g id="node37" class="node"><title>Node18</title>
<a xlink:href="_game_select_scene_8h.html" target="_top" xlink:title="GameSelectScene.h">
<polygon fill="none" stroke="black" points="672,-117 672,-137 778,-137 778,-117 672,-117"/>
<text text-anchor="middle" x="725" y="-124" font-family="FreeSans" font-size="10.00">GameSelectScene.h</text>
</a>
</g>
<!-- Node4&#45;&gt;Node18 -->
<g id="edge38" class="edge"><title>Node4&#45;&gt;Node18</title>
<path fill="none" stroke="midnightblue" d="M681.322,-167.86C691.902,-157.962 704.863,-145.838 713.907,-137.378"/>
<polygon fill="midnightblue" stroke="midnightblue" points="678.711,-165.51 673.8,-174.897 683.493,-170.622 678.711,-165.51"/>
</g>
<!-- Node20 -->
<g id="node42" class="node"><title>Node20</title>
<a xlink:href="_practice_setup_scene_8h.html" target="_top" xlink:title="PracticeSetupScene.h">
<polygon fill="none" stroke="black" points="795.5,-117 795.5,-137 908.5,-137 908.5,-117 795.5,-117"/>
<text text-anchor="middle" x="852" y="-124" font-family="FreeSans" font-size="10.00">PracticeSetupScene.h</text>
</a>
</g>
<!-- Node4&#45;&gt;Node20 -->
<g id="edge44" class="edge"><title>Node4&#45;&gt;Node20</title>
<path fill="none" stroke="midnightblue" d="M705.686,-171.9C740.064,-161.351 787.683,-146.737 819.139,-137.084"/>
<polygon fill="midnightblue" stroke="midnightblue" points="704.454,-168.617 695.921,-174.897 706.508,-175.309 704.454,-168.617"/>
</g>
<!-- Node22 -->
<g id="node47" class="node"><title>Node22</title>
<a xlink:href="_settings_menu_scene_8h.html" target="_top" xlink:title="SettingsMenuScene.h">
<polygon fill="none" stroke="black" points="926,-117 926,-137 1038,-137 1038,-117 926,-117"/>
<text text-anchor="middle" x="982" y="-124" font-family="FreeSans" font-size="10.00">SettingsMenuScene.h</text>
</a>
</g>
<!-- Node4&#45;&gt;Node22 -->
<g id="edge50" class="edge"><title>Node4&#45;&gt;Node22</title>
<path fill="none" stroke="midnightblue" d="M712.787,-175.948C770.819,-165.397 866.442,-148.011 926.728,-137.05"/>
<polygon fill="midnightblue" stroke="midnightblue" points="711.969,-172.539 702.757,-177.772 713.221,-179.426 711.969,-172.539"/>
</g>
<!-- Node6 -->
<g id="node11" class="node"><title>Node6</title>
<a xlink:href="_audio_settings_scene_8h.html" target="_top" xlink:title="AudioSettingsScene.h">
<polygon fill="none" stroke="black" points="9.5,-59 9.5,-79 122.5,-79 122.5,-59 9.5,-59"/>
<text text-anchor="middle" x="66" y="-66" font-family="FreeSans" font-size="10.00">AudioSettingsScene.h</text>
</a>
</g>
<!-- Node5&#45;&gt;Node6 -->
<g id="edge10" class="edge"><title>Node5&#45;&gt;Node6</title>
<path fill="none" stroke="midnightblue" d="M187.59,-113.354C158.797,-102.85 119.653,-88.5716 93.6446,-79.0842"/>
<polygon fill="midnightblue" stroke="midnightblue" points="186.71,-116.758 197.304,-116.897 189.109,-110.182 186.71,-116.758"/>
</g>
<!-- Node9 -->
<g id="node17" class="node"><title>Node9</title>
<a xlink:href="_video_settings_scene_8h.html" target="_top" xlink:title="VideoSettingsScene.h">
<polygon fill="none" stroke="black" points="139.5,-59 139.5,-79 252.5,-79 252.5,-59 139.5,-59"/>
<text text-anchor="middle" x="196" y="-66" font-family="FreeSans" font-size="10.00">VideoSettingsScene.h</text>
</a>
</g>
<!-- Node5&#45;&gt;Node9 -->
<g id="edge16" class="edge"><title>Node5&#45;&gt;Node9</title>
<path fill="none" stroke="midnightblue" d="M215.396,-107.793C210.658,-98.3154 205.129,-87.2571 201.189,-79.3776"/>
<polygon fill="midnightblue" stroke="midnightblue" points="212.346,-109.518 219.949,-116.897 218.607,-106.388 212.346,-109.518"/>
</g>
<!-- Node11 -->
<g id="node22" class="node"><title>Node11</title>
<a xlink:href="_settings_scene_8cpp.html" target="_top" xlink:title="SettingsScene.cpp">
<polygon fill="none" stroke="black" points="270,-59 270,-79 368,-79 368,-59 270,-59"/>
<text text-anchor="middle" x="319" y="-66" font-family="FreeSans" font-size="10.00">SettingsScene.cpp</text>
</a>
</g>
<!-- Node5&#45;&gt;Node11 -->
<g id="edge22" class="edge"><title>Node5&#45;&gt;Node11</title>
<path fill="none" stroke="midnightblue" d="M250.044,-111.547C266.657,-101.297 287.99,-88.1339 302.499,-79.1817"/>
<polygon fill="midnightblue" stroke="midnightblue" points="248.046,-108.667 241.374,-116.897 251.722,-114.625 248.046,-108.667"/>
</g>
<!-- Node7 -->
<g id="node13" class="node"><title>Node7</title>
<a xlink:href="_audio_settings_scene_8cpp.html" target="_top" xlink:title="AudioSettingsScene.cpp">
<polygon fill="none" stroke="black" points="-0.5,-1 -0.5,-21 122.5,-21 122.5,-1 -0.5,-1"/>
<text text-anchor="middle" x="61" y="-8" font-family="FreeSans" font-size="10.00">AudioSettingsScene.cpp</text>
</a>
</g>
<!-- Node6&#45;&gt;Node7 -->
<g id="edge12" class="edge"><title>Node6&#45;&gt;Node7</title>
<path fill="none" stroke="midnightblue" d="M64.2664,-48.8902C63.4673,-39.6201 62.5524,-29.0083 61.8946,-21.3776"/>
<polygon fill="midnightblue" stroke="midnightblue" points="60.783,-49.2348 65.1291,-58.8972 67.7572,-48.6335 60.783,-49.2348"/>
</g>
<!-- Node8 -->
<g id="node15" class="node"><title>Node8</title>
<a xlink:href="_settings_menu_scene_8cpp.html" target="_top" xlink:title="SettingsMenuScene.cpp">
<polygon fill="none" stroke="black" points="140,-1 140,-21 262,-21 262,-1 140,-1"/>
<text text-anchor="middle" x="201" y="-8" font-family="FreeSans" font-size="10.00">SettingsMenuScene.cpp</text>
</a>
</g>
<!-- Node6&#45;&gt;Node8 -->
<g id="edge14" class="edge"><title>Node6&#45;&gt;Node8</title>
<path fill="none" stroke="midnightblue" d="M99.0215,-54.813C123.256,-44.4012 155.596,-30.5069 177.301,-21.1817"/>
<polygon fill="midnightblue" stroke="midnightblue" points="97.3215,-51.7339 89.5152,-58.8972 100.085,-58.1655 97.3215,-51.7339"/>
</g>
<!-- Node9&#45;&gt;Node8 -->
<g id="edge18" class="edge"><title>Node9&#45;&gt;Node8</title>
<path fill="none" stroke="midnightblue" d="M197.734,-48.8902C198.533,-39.6201 199.448,-29.0083 200.105,-21.3776"/>
<polygon fill="midnightblue" stroke="midnightblue" points="194.243,-48.6335 196.871,-58.8972 201.217,-49.2348 194.243,-48.6335"/>
</g>
<!-- Node10 -->
<g id="node20" class="node"><title>Node10</title>
<a xlink:href="_video_settings_scene_8cpp.html" target="_top" xlink:title="VideoSettingsScene.cpp">
<polygon fill="none" stroke="black" points="334.5,-1 334.5,-21 457.5,-21 457.5,-1 334.5,-1"/>
<text text-anchor="middle" x="396" y="-8" font-family="FreeSans" font-size="10.00">VideoSettingsScene.cpp</text>
</a>
</g>
<!-- Node9&#45;&gt;Node10 -->
<g id="edge20" class="edge"><title>Node9&#45;&gt;Node10</title>
<path fill="none" stroke="midnightblue" d="M240.703,-56.0361C277.116,-45.4763 327.797,-30.7788 361.227,-21.0842"/>
<polygon fill="midnightblue" stroke="midnightblue" points="239.467,-52.7504 230.837,-58.8972 241.416,-59.4734 239.467,-52.7504"/>
</g>
<!-- Node13&#45;&gt;Node10 -->
<g id="edge30" class="edge"><title>Node13&#45;&gt;Node10</title>
<path fill="none" stroke="midnightblue" d="M449.244,-111.651C437.125,-103.664 423.717,-92.8679 415,-80 402.596,-61.6895 398.255,-35.4834 396.762,-21.2138"/>
<polygon fill="midnightblue" stroke="midnightblue" points="447.419,-114.637 457.756,-116.959 451.123,-108.698 447.419,-114.637"/>
</g>
<!-- Node14 -->
<g id="node28" class="node"><title>Node14</title>
<a xlink:href="_display_select_scene_8cpp.html" target="_top" xlink:title="DisplaySelectScene.cpp">
<polygon fill="none" stroke="black" points="424,-59 424,-79 546,-79 546,-59 424,-59"/>
<text text-anchor="middle" x="485" y="-66" font-family="FreeSans" font-size="10.00">DisplaySelectScene.cpp</text>
</a>
</g>
<!-- Node13&#45;&gt;Node14 -->
<g id="edge28" class="edge"><title>Node13&#45;&gt;Node14</title>
<path fill="none" stroke="midnightblue" d="M479.774,-106.89C481.052,-97.6201 482.516,-87.0083 483.569,-79.3776"/>
<polygon fill="midnightblue" stroke="midnightblue" points="476.293,-106.513 478.393,-116.897 483.227,-107.469 476.293,-106.513"/>
</g>
<!-- Node16 -->
<g id="node33" class="node"><title>Node16</title>
<a xlink:href="_game_select_scene_8cpp.html" target="_top" xlink:title="GameSelectScene.cpp">
<polygon fill="none" stroke="black" points="696,-59 696,-79 812,-79 812,-59 696,-59"/>
<text text-anchor="middle" x="754" y="-66" font-family="FreeSans" font-size="10.00">GameSelectScene.cpp</text>
</a>
</g>
<!-- Node15&#45;&gt;Node16 -->
<g id="edge34" class="edge"><title>Node15&#45;&gt;Node16</title>
<path fill="none" stroke="midnightblue" d="M638.124,-113.216C665.615,-102.726 702.817,-88.5302 727.572,-79.0842"/>
<polygon fill="midnightblue" stroke="midnightblue" points="636.572,-110.062 628.476,-116.897 639.067,-116.602 636.572,-110.062"/>
</g>
<!-- Node17 -->
<g id="node35" class="node"><title>Node17</title>
<a xlink:href="_track_select_scene_8cpp.html" target="_top" xlink:title="TrackSelectScene.cpp">
<polygon fill="none" stroke="black" points="563.5,-59 563.5,-79 678.5,-79 678.5,-59 563.5,-59"/>
<text text-anchor="middle" x="621" y="-66" font-family="FreeSans" font-size="10.00">TrackSelectScene.cpp</text>
</a>
</g>
<!-- Node15&#45;&gt;Node17 -->
<g id="edge36" class="edge"><title>Node15&#45;&gt;Node17</title>
<path fill="none" stroke="midnightblue" d="M608.489,-107.192C611.549,-97.8512 615.074,-87.0912 617.6,-79.3776"/>
<polygon fill="midnightblue" stroke="midnightblue" points="605.097,-106.304 605.31,-116.897 611.749,-108.484 605.097,-106.304"/>
</g>
<!-- Node18&#45;&gt;Node16 -->
<g id="edge40" class="edge"><title>Node18&#45;&gt;Node16</title>
<path fill="none" stroke="midnightblue" d="M734.604,-107.793C739.342,-98.3154 744.871,-87.2571 748.811,-79.3776"/>
<polygon fill="midnightblue" stroke="midnightblue" points="731.393,-106.388 730.051,-116.897 737.654,-109.518 731.393,-106.388"/>
</g>
<!-- Node19 -->
<g id="node40" class="node"><title>Node19</title>
<a xlink:href="_practice_setup_scene_8cpp.html" target="_top" xlink:title="PracticeSetupScene.cpp">
<polygon fill="none" stroke="black" points="830,-59 830,-79 954,-79 954,-59 830,-59"/>
<text text-anchor="middle" x="892" y="-66" font-family="FreeSans" font-size="10.00">PracticeSetupScene.cpp</text>
</a>
</g>
<!-- Node18&#45;&gt;Node19 -->
<g id="edge42" class="edge"><title>Node18&#45;&gt;Node19</title>
<path fill="none" stroke="midnightblue" d="M763.897,-113.491C794.175,-102.975 835.528,-88.6131 862.964,-79.0842"/>
<polygon fill="midnightblue" stroke="midnightblue" points="762.387,-110.31 754.089,-116.897 764.684,-116.923 762.387,-110.31"/>
</g>
<!-- Node20&#45;&gt;Node19 -->
<g id="edge48" class="edge"><title>Node20&#45;&gt;Node19</title>
<path fill="none" stroke="midnightblue" d="M864.835,-108.389C871.46,-98.7824 879.294,-87.423 884.843,-79.3776"/>
<polygon fill="midnightblue" stroke="midnightblue" points="861.764,-106.678 858.967,-116.897 867.526,-110.652 861.764,-106.678"/>
</g>
<!-- Node21 -->
<g id="node44" class="node"><title>Node21</title>
<a xlink:href="_main_menu_scene_8cpp.html" target="_top" xlink:title="MainMenuScene.cpp">
<polygon fill="none" stroke="black" points="1025.5,-59 1025.5,-79 1132.5,-79 1132.5,-59 1025.5,-59"/>
<text text-anchor="middle" x="1079" y="-66" font-family="FreeSans" font-size="10.00">MainMenuScene.cpp</text>
</a>
</g>
<!-- Node20&#45;&gt;Node21 -->
<g id="edge46" class="edge"><title>Node20&#45;&gt;Node21</title>
<path fill="none" stroke="midnightblue" d="M901.184,-114.433C942.718,-103.821 1001.4,-88.8263 1039.82,-79.0108"/>
<polygon fill="midnightblue" stroke="midnightblue" points="900.104,-111.097 891.281,-116.963 901.836,-117.879 900.104,-111.097"/>
</g>
<!-- Node22&#45;&gt;Node8 -->
<g id="edge54" class="edge"><title>Node22&#45;&gt;Node8</title>
<path fill="none" stroke="midnightblue" d="M982.333,-106.449C981.381,-90.5963 977.235,-69.4946 963,-58 907.845,-13.4644 396.706,-27.1078 326,-22 305.141,-20.4931 282.348,-18.5695 262.005,-16.7537"/>
<polygon fill="midnightblue" stroke="midnightblue" points="978.843,-106.932 982.562,-116.852 985.841,-106.778 978.843,-106.932"/>
</g>
<!-- Node22&#45;&gt;Node21 -->
<g id="edge52" class="edge"><title>Node22&#45;&gt;Node21</title>
<path fill="none" stroke="midnightblue" d="M1007.84,-111.547C1024.99,-101.297 1047,-88.1339 1061.97,-79.1817"/>
<polygon fill="midnightblue" stroke="midnightblue" points="1005.68,-108.761 998.896,-116.897 1009.28,-114.769 1005.68,-108.761"/>
</g>
<!-- Node23&#45;&gt;Node24 -->
<g id="edge58" class="edge"><title>Node23&#45;&gt;Node24</title>
<path fill="none" stroke="midnightblue" d="M1283.97,-174.049C1538.89,-140.153 1607.83,-170.374 1859,-138 1864.6,-137.278 1870.48,-136.332 1876.25,-135.298"/>
<polygon fill="midnightblue" stroke="midnightblue" points="1283.49,-170.582 1274.05,-175.388 1284.42,-177.52 1283.49,-170.582"/>
</g>
<!-- Node25 -->
<g id="node55" class="node"><title>Node25</title>
<a xlink:href="_loading_scene_8cpp.html" target="_top" xlink:title="LoadingScene.cpp">
<polygon fill="none" stroke="black" points="1055.5,-117 1055.5,-137 1152.5,-137 1152.5,-117 1055.5,-117"/>
<text text-anchor="middle" x="1104" y="-124" font-family="FreeSans" font-size="10.00">LoadingScene.cpp</text>
</a>
</g>
<!-- Node23&#45;&gt;Node25 -->
<g id="edge60" class="edge"><title>Node23&#45;&gt;Node25</title>
<path fill="none" stroke="midnightblue" d="M1199.63,-170.674C1176.87,-160.278 1146.62,-146.465 1126.29,-137.182"/>
<polygon fill="midnightblue" stroke="midnightblue" points="1198.33,-173.927 1208.88,-174.897 1201.24,-167.559 1198.33,-173.927"/>
</g>
<!-- Node26 -->
<g id="node57" class="node"><title>Node26</title>
<a xlink:href="_session_loading_scene_8h.html" target="_top" xlink:title="SessionLoadingScene.h">
<polygon fill="none" stroke="black" points="1170,-117 1170,-137 1292,-137 1292,-117 1170,-117"/>
<text text-anchor="middle" x="1231" y="-124" font-family="FreeSans" font-size="10.00">SessionLoadingScene.h</text>
</a>
</g>
<!-- Node23&#45;&gt;Node26 -->
<g id="edge62" class="edge"><title>Node23&#45;&gt;Node26</title>
<path fill="none" stroke="midnightblue" d="M1231,-164.89C1231,-155.62 1231,-145.008 1231,-137.378"/>
<polygon fill="midnightblue" stroke="midnightblue" points="1227.5,-164.897 1231,-174.897 1234.5,-164.897 1227.5,-164.897"/>
</g>
<!-- Node26&#45;&gt;Node19 -->
<g id="edge64" class="edge"><title>Node26&#45;&gt;Node19</title>
<path fill="none" stroke="midnightblue" d="M1162.22,-115.232C1099.99,-104.585 1009.34,-89.0753 950.511,-79.0108"/>
<polygon fill="midnightblue" stroke="midnightblue" points="1161.89,-118.727 1172.34,-116.963 1163.07,-111.827 1161.89,-118.727"/>
</g>
<!-- Node27 -->
<g id="node60" class="node"><title>Node27</title>
<a xlink:href="_session_loading_scene_8cpp.html" target="_top" xlink:title="SessionLoadingScene.cpp">
<polygon fill="none" stroke="black" points="1165,-59 1165,-79 1297,-79 1297,-59 1165,-59"/>
<text text-anchor="middle" x="1231" y="-66" font-family="FreeSans" font-size="10.00">SessionLoadingScene.cpp</text>
</a>
</g>
<!-- Node26&#45;&gt;Node27 -->
<g id="edge66" class="edge"><title>Node26&#45;&gt;Node27</title>
<path fill="none" stroke="midnightblue" d="M1231,-106.89C1231,-97.6201 1231,-87.0083 1231,-79.3776"/>
<polygon fill="midnightblue" stroke="midnightblue" points="1227.5,-106.897 1231,-116.897 1234.5,-106.897 1227.5,-106.897"/>
</g>
<!-- Node28&#45;&gt;Node21 -->
<g id="edge72" class="edge"><title>Node28&#45;&gt;Node21</title>
<path fill="none" stroke="midnightblue" d="M1333.89,-165.167C1327.99,-149.417 1317.5,-128.095 1301,-116 1287.5,-106.102 1194.03,-88.6239 1132.76,-77.9977"/>
<polygon fill="midnightblue" stroke="midnightblue" points="1330.7,-166.671 1337.25,-174.999 1337.32,-164.405 1330.7,-166.671"/>
</g>
<!-- Node28&#45;&gt;Node24 -->
<g id="edge70" class="edge"><title>Node28&#45;&gt;Node24</title>
<path fill="none" stroke="midnightblue" d="M1398.9,-173.862C1602.88,-147.058 1658.23,-165.446 1859,-138 1864.6,-137.235 1870.48,-136.265 1876.24,-135.22"/>
<polygon fill="midnightblue" stroke="midnightblue" points="1398.21,-170.423 1388.76,-175.215 1399.13,-177.362 1398.21,-170.423"/>
</g>
<!-- Node29&#45;&gt;Node10 -->
<g id="edge90" class="edge"><title>Node29&#45;&gt;Node10</title>
<path fill="none" stroke="midnightblue" d="M1451.26,-164.587C1449.71,-149.603 1445.44,-129.579 1434,-116 1393.75,-68.2411 1366.69,-72.7567 1306,-58 1224.19,-38.1083 649.206,-18.7994 457.806,-12.8585"/>
<polygon fill="midnightblue" stroke="midnightblue" points="1447.79,-165.142 1451.98,-174.872 1454.77,-164.652 1447.79,-165.142"/>
</g>
<!-- Node29&#45;&gt;Node11 -->
<g id="edge86" class="edge"><title>Node29&#45;&gt;Node11</title>
<path fill="none" stroke="midnightblue" d="M1426.88,-169.817C1397.77,-153.123 1347.8,-127.185 1301,-116 1109.35,-70.1916 611.462,-95.2263 415,-80 399.78,-78.8204 383.25,-77.0895 368.264,-75.3482"/>
<polygon fill="midnightblue" stroke="midnightblue" points="1425.16,-172.869 1435.57,-174.882 1428.69,-166.822 1425.16,-172.869"/>
</g>
<!-- Node29&#45;&gt;Node14 -->
<g id="edge78" class="edge"><title>Node29&#45;&gt;Node14</title>
<path fill="none" stroke="midnightblue" d="M1437.52,-166.961C1422.95,-150.331 1398.86,-126.66 1372,-116 1287.54,-82.4757 645.412,-89.0671 555,-80 552.062,-79.7054 549.06,-79.3693 546.031,-79.0022"/>
<polygon fill="midnightblue" stroke="midnightblue" points="1435.1,-169.527 1444.23,-174.91 1440.45,-165.012 1435.1,-169.527"/>
</g>
<!-- Node29&#45;&gt;Node21 -->
<g id="edge80" class="edge"><title>Node29&#45;&gt;Node21</title>
<path fill="none" stroke="midnightblue" d="M1445.41,-165.296C1438.99,-149.305 1427.58,-127.579 1410,-116 1314.78,-53.2871 1268.88,-96.0622 1156,-80 1148.51,-78.9347 1140.62,-77.8091 1132.85,-76.7005"/>
<polygon fill="midnightblue" stroke="midnightblue" points="1442.18,-166.646 1448.93,-174.811 1448.74,-164.218 1442.18,-166.646"/>
</g>
<!-- Node29&#45;&gt;Node24 -->
<g id="edge76" class="edge"><title>Node29&#45;&gt;Node24</title>
<path fill="none" stroke="midnightblue" d="M1508.11,-173.949C1664.23,-150.974 1706.65,-160.705 1859,-138 1864.59,-137.168 1870.46,-136.16 1876.22,-135.098"/>
<polygon fill="midnightblue" stroke="midnightblue" points="1507.53,-170.498 1498.16,-175.436 1508.56,-177.421 1507.53,-170.498"/>
</g>
<!-- Node30 -->
<g id="node71" class="node"><title>Node30</title>
<a xlink:href="_message_scene_8cpp.html" target="_top" xlink:title="MessageScene.cpp">
<polygon fill="none" stroke="black" points="1500,-117 1500,-137 1602,-137 1602,-117 1500,-117"/>
<text text-anchor="middle" x="1551" y="-124" font-family="FreeSans" font-size="10.00">MessageScene.cpp</text>
</a>
</g>
<!-- Node29&#45;&gt;Node30 -->
<g id="edge82" class="edge"><title>Node29&#45;&gt;Node30</title>
<path fill="none" stroke="midnightblue" d="M1477.89,-169.831C1495.46,-159.541 1518.2,-146.217 1533.62,-137.182"/>
<polygon fill="midnightblue" stroke="midnightblue" points="1476.1,-166.822 1469.24,-174.897 1479.64,-172.862 1476.1,-166.822"/>
</g>
<!-- Node31 -->
<g id="node73" class="node"><title>Node31</title>
<a xlink:href="_pause_menu_scene_8cpp.html" target="_top" xlink:title="PauseMenuScene.cpp">
<polygon fill="none" stroke="black" points="1736,-117 1736,-137 1850,-137 1850,-117 1736,-117"/>
<text text-anchor="middle" x="1793" y="-124" font-family="FreeSans" font-size="10.00">PauseMenuScene.cpp</text>
</a>
</g>
<!-- Node29&#45;&gt;Node31 -->
<g id="edge84" class="edge"><title>Node29&#45;&gt;Node31</title>
<path fill="none" stroke="midnightblue" d="M1508.22,-173.82C1606.15,-156.13 1632.4,-153.624 1727,-138 1729.87,-137.527 1732.8,-137.041 1735.76,-136.55"/>
<polygon fill="midnightblue" stroke="midnightblue" points="1507.41,-170.411 1498.19,-175.639 1508.66,-177.298 1507.41,-170.411"/>
</g>
<!-- Node32 -->
<g id="node76" class="node"><title>Node32</title>
<a xlink:href="_test_lab_scene_8cpp.html" target="_top" xlink:title="TestLabScene.cpp">
<polygon fill="none" stroke="black" points="1620,-117 1620,-137 1718,-137 1718,-117 1620,-117"/>
<text text-anchor="middle" x="1669" y="-124" font-family="FreeSans" font-size="10.00">TestLabScene.cpp</text>
</a>
</g>
<!-- Node29&#45;&gt;Node32 -->
<g id="edge88" class="edge"><title>Node29&#45;&gt;Node32</title>
<path fill="none" stroke="midnightblue" d="M1499.49,-172.306C1539.07,-161.728 1594.69,-146.862 1631.27,-137.084"/>
<polygon fill="midnightblue" stroke="midnightblue" points="1498.56,-168.934 1489.8,-174.897 1500.36,-175.696 1498.56,-168.934"/>
</g>
<!-- Node33&#45;&gt;Node24 -->
<g id="edge94" class="edge"><title>Node33&#45;&gt;Node24</title>
<path fill="none" stroke="midnightblue" d="M1614.32,-173.845C1723.54,-154.857 1753.28,-156.108 1859,-138 1864.66,-137.03 1870.64,-135.935 1876.49,-134.821"/>
<polygon fill="midnightblue" stroke="midnightblue" points="1613.45,-170.443 1604.21,-175.62 1614.66,-177.338 1613.45,-170.443"/>
</g>
<!-- Node33&#45;&gt;Node32 -->
<g id="edge96" class="edge"><title>Node33&#45;&gt;Node32</title>
<path fill="none" stroke="midnightblue" d="M1587.98,-170.114C1607.39,-159.786 1632.73,-146.3 1649.87,-137.182"/>
<polygon fill="midnightblue" stroke="midnightblue" points="1586.17,-167.11 1578.99,-174.897 1589.46,-173.289 1586.17,-167.11"/>
</g>
<!-- Node34 -->
<g id="node83" class="node"><title>Node34</title>
<a xlink:href="_debug_peer_8cpp.html" target="_top" xlink:title="DebugPeer.cpp">
<polygon fill="none" stroke="black" points="2004.5,-117 2004.5,-137 2087.5,-137 2087.5,-117 2004.5,-117"/>
<text text-anchor="middle" x="2046" y="-124" font-family="FreeSans" font-size="10.00">DebugPeer.cpp</text>
</a>
</g>
<!-- Node33&#45;&gt;Node34 -->
<g id="edge98" class="edge"><title>Node33&#45;&gt;Node34</title>
<path fill="none" stroke="midnightblue" d="M1614.52,-173.887C1768.87,-150.372 1810.45,-155.736 1962,-138 1975.73,-136.393 1990.7,-134.483 2004.16,-132.709"/>
<polygon fill="midnightblue" stroke="midnightblue" points="1613.54,-170.497 1604.19,-175.479 1614.6,-177.416 1613.54,-170.497"/>
</g>
<!-- Node36&#45;&gt;Node31 -->
<g id="edge104" class="edge"><title>Node36&#45;&gt;Node31</title>
<path fill="none" stroke="midnightblue" d="M1781.81,-165.192C1784.54,-155.851 1787.7,-145.091 1789.96,-137.378"/>
<polygon fill="midnightblue" stroke="midnightblue" points="1778.42,-164.316 1778.96,-174.897 1785.13,-166.285 1778.42,-164.316"/>
</g>
<!-- Node37 -->
<g id="node90" class="node"><title>Node37</title>
<a xlink:href="_play_game_scene_8cpp.html" target="_top" xlink:title="PlayGameScene.cpp">
<polygon fill="none" stroke="black" points="2121.5,-117 2121.5,-137 2228.5,-137 2228.5,-117 2121.5,-117"/>
<text text-anchor="middle" x="2175" y="-124" font-family="FreeSans" font-size="10.00">PlayGameScene.cpp</text>
</a>
</g>
<!-- Node36&#45;&gt;Node37 -->
<g id="edge106" class="edge"><title>Node36&#45;&gt;Node37</title>
<path fill="none" stroke="midnightblue" d="M1838.3,-175.944C1916.04,-164.643 2047.7,-145.505 2121.23,-134.816"/>
<polygon fill="midnightblue" stroke="midnightblue" points="1837.55,-172.515 1828.16,-177.418 1838.56,-179.443 1837.55,-172.515"/>
</g>
<!-- Node38&#45;&gt;Node24 -->
<g id="edge110" class="edge"><title>Node38&#45;&gt;Node24</title>
<path fill="none" stroke="midnightblue" d="M1904.39,-227.462C1893.04,-219.654 1881.22,-209.052 1875,-196 1864.63,-174.252 1886.84,-150.192 1902.13,-137.009"/>
<polygon fill="midnightblue" stroke="midnightblue" points="1902.56,-230.451 1912.88,-232.884 1906.33,-224.551 1902.56,-230.451"/>
</g>
<!-- Node39 -->
<g id="node95" class="node"><title>Node39</title>
<a xlink:href="_console_scene_8cpp.html" target="_top" xlink:title="ConsoleScene.cpp">
<polygon fill="none" stroke="black" points="1884,-175 1884,-195 1982,-195 1982,-175 1884,-175"/>
<text text-anchor="middle" x="1933" y="-182" font-family="FreeSans" font-size="10.00">ConsoleScene.cpp</text>
</a>
</g>
<!-- Node38&#45;&gt;Node39 -->
<g id="edge112" class="edge"><title>Node38&#45;&gt;Node39</title>
<path fill="none" stroke="midnightblue" d="M1933,-222.89C1933,-213.62 1933,-203.008 1933,-195.378"/>
<polygon fill="midnightblue" stroke="midnightblue" points="1929.5,-222.897 1933,-232.897 1936.5,-222.897 1929.5,-222.897"/>
</g>
<!-- Node40&#45;&gt;Node24 -->
<g id="edge116" class="edge"><title>Node40&#45;&gt;Node24</title>
<path fill="none" stroke="midnightblue" d="M2061.93,-226.344C2043.53,-212.012 2015.95,-191.018 1991,-174 1971.26,-160.536 1947.77,-146.263 1932.18,-137.026"/>
<polygon fill="midnightblue" stroke="midnightblue" points="2060.14,-229.388 2070.17,-232.798 2064.45,-223.877 2060.14,-229.388"/>
</g>
<!-- Node41 -->
<g id="node100" class="node"><title>Node41</title>
<a xlink:href="_debug_scene_8cpp.html" target="_top" xlink:title="DebugScene.cpp">
<polygon fill="none" stroke="black" points="2038,-175 2038,-195 2128,-195 2128,-175 2038,-175"/>
<text text-anchor="middle" x="2083" y="-182" font-family="FreeSans" font-size="10.00">DebugScene.cpp</text>
</a>
</g>
<!-- Node40&#45;&gt;Node41 -->
<g id="edge118" class="edge"><title>Node40&#45;&gt;Node41</title>
<path fill="none" stroke="midnightblue" d="M2083,-222.89C2083,-213.62 2083,-203.008 2083,-195.378"/>
<polygon fill="midnightblue" stroke="midnightblue" points="2079.5,-222.897 2083,-232.897 2086.5,-222.897 2079.5,-222.897"/>
</g>
<!-- Node43 -->
<g id="node104" class="node"><title>Node43</title>
<a xlink:href="_demo_game_scene_8h.html" target="_top" xlink:title="DemoGameScene.h">
<polygon fill="none" stroke="black" points="2260,-175 2260,-195 2364,-195 2364,-175 2260,-175"/>
<text text-anchor="middle" x="2312" y="-182" font-family="FreeSans" font-size="10.00">DemoGameScene.h</text>
</a>
</g>
<!-- Node42&#45;&gt;Node43 -->
<g id="edge122" class="edge"><title>Node42&#45;&gt;Node43</title>
<path fill="none" stroke="midnightblue" d="M2336.45,-224.389C2330.49,-214.782 2323.43,-203.423 2318.44,-195.378"/>
<polygon fill="midnightblue" stroke="midnightblue" points="2333.48,-226.247 2341.73,-232.897 2339.43,-222.555 2333.48,-226.247"/>
</g>
<!-- Node45 -->
<g id="node109" class="node"><title>Node45</title>
<a xlink:href="_play_game_scene_8h.html" target="_top" xlink:title="PlayGameScene.h">
<polygon fill="none" stroke="black" points="2145.5,-175 2145.5,-195 2242.5,-195 2242.5,-175 2145.5,-175"/>
<text text-anchor="middle" x="2194" y="-182" font-family="FreeSans" font-size="10.00">PlayGameScene.h</text>
</a>
</g>
<!-- Node42&#45;&gt;Node45 -->
<g id="edge128" class="edge"><title>Node42&#45;&gt;Node45</title>
<path fill="none" stroke="midnightblue" d="M2311.77,-229.354C2283.88,-218.85 2245.97,-204.572 2220.78,-195.084"/>
<polygon fill="midnightblue" stroke="midnightblue" points="2310.58,-232.648 2321.18,-232.897 2313.05,-226.097 2310.58,-232.648"/>
</g>
<!-- Node46 -->
<g id="node113" class="node"><title>Node46</title>
<a xlink:href="_game_scene_8cpp.html" target="_top" xlink:title="GameScene.cpp">
<polygon fill="none" stroke="black" points="2381.5,-175 2381.5,-195 2470.5,-195 2470.5,-175 2381.5,-175"/>
<text text-anchor="middle" x="2426" y="-182" font-family="FreeSans" font-size="10.00">GameScene.cpp</text>
</a>
</g>
<!-- Node42&#45;&gt;Node46 -->
<g id="edge134" class="edge"><title>Node42&#45;&gt;Node46</title>
<path fill="none" stroke="midnightblue" d="M2369.94,-226.687C2383.55,-216.569 2400.6,-203.885 2412.31,-195.182"/>
<polygon fill="midnightblue" stroke="midnightblue" points="2367.52,-224.121 2361.59,-232.897 2371.7,-229.739 2367.52,-224.121"/>
</g>
<!-- Node43&#45;&gt;Node24 -->
<g id="edge124" class="edge"><title>Node43&#45;&gt;Node24</title>
<path fill="none" stroke="midnightblue" d="M2249.71,-173.883C2196.38,-165.822 2029.79,-142.808 1953.56,-132.306"/>
<polygon fill="midnightblue" stroke="midnightblue" points="2249.36,-177.37 2259.78,-175.443 2250.43,-170.453 2249.36,-177.37"/>
</g>
<!-- Node44 -->
<g id="node107" class="node"><title>Node44</title>
<a xlink:href="_demo_game_scene_8cpp.html" target="_top" xlink:title="DemoGameScene.cpp">
<polygon fill="none" stroke="black" points="2255,-117 2255,-137 2369,-137 2369,-117 2255,-117"/>
<text text-anchor="middle" x="2312" y="-124" font-family="FreeSans" font-size="10.00">DemoGameScene.cpp</text>
</a>
</g>
<!-- Node43&#45;&gt;Node44 -->
<g id="edge126" class="edge"><title>Node43&#45;&gt;Node44</title>
<path fill="none" stroke="midnightblue" d="M2312,-164.89C2312,-155.62 2312,-145.008 2312,-137.378"/>
<polygon fill="midnightblue" stroke="midnightblue" points="2308.5,-164.897 2312,-174.897 2315.5,-164.897 2308.5,-164.897"/>
</g>
<!-- Node45&#45;&gt;Node24 -->
<g id="edge130" class="edge"><title>Node45&#45;&gt;Node24</title>
<path fill="none" stroke="midnightblue" d="M2135.83,-172.907C2081.17,-161.545 2000.92,-144.862 1953.71,-135.048"/>
<polygon fill="midnightblue" stroke="midnightblue" points="2135.22,-176.355 2145.72,-174.963 2136.64,-169.501 2135.22,-176.355"/>
</g>
<!-- Node45&#45;&gt;Node37 -->
<g id="edge132" class="edge"><title>Node45&#45;&gt;Node37</title>
<path fill="none" stroke="midnightblue" d="M2187.51,-165.192C2184.45,-155.851 2180.93,-145.091 2178.4,-137.378"/>
<polygon fill="midnightblue" stroke="midnightblue" points="2184.25,-166.484 2190.69,-174.897 2190.9,-164.304 2184.25,-166.484"/>
</g>
<!-- Node47&#45;&gt;Node24 -->
<g id="edge138" class="edge"><title>Node47&#45;&gt;Node24</title>
<path fill="none" stroke="midnightblue" d="M2498.28,-222.518C2497.29,-206.704 2493.13,-185.622 2479,-174 2437.43,-139.817 2049.52,-143.623 1996,-138 1982.17,-136.547 1967.06,-134.594 1953.67,-132.737"/>
<polygon fill="midnightblue" stroke="midnightblue" points="2494.79,-222.979 2498.53,-232.891 2501.79,-222.809 2494.79,-222.979"/>
</g>
<!-- Node48 -->
<g id="node118" class="node"><title>Node48</title>
<a xlink:href="_status_overlay_scene_8cpp.html" target="_top" xlink:title="StatusOverlayScene.cpp">
<polygon fill="none" stroke="black" points="2526,-175 2526,-195 2650,-195 2650,-175 2526,-175"/>
<text text-anchor="middle" x="2588" y="-182" font-family="FreeSans" font-size="10.00">StatusOverlayScene.cpp</text>
</a>
</g>
<!-- Node47&#45;&gt;Node48 -->
<g id="edge140" class="edge"><title>Node47&#45;&gt;Node48</title>
<path fill="none" stroke="midnightblue" d="M2522.42,-227.262C2538.26,-217.054 2558.44,-204.051 2572.2,-195.182"/>
<polygon fill="midnightblue" stroke="midnightblue" points="2520.19,-224.538 2513.68,-232.897 2523.98,-230.422 2520.19,-224.538"/>
</g>
<!-- Node49&#45;&gt;Node34 -->
<g id="edge146" class="edge"><title>Node49&#45;&gt;Node34</title>
<path fill="none" stroke="midnightblue" d="M2653.8,-224.016C2663.13,-208.69 2671.66,-187.52 2659,-174 2617.45,-129.617 2173.4,-144.933 2113,-138 2104.8,-137.059 2096.08,-135.81 2087.73,-134.492"/>
<polygon fill="midnightblue" stroke="midnightblue" points="2650.67,-222.412 2648.07,-232.684 2656.51,-226.273 2650.67,-222.412"/>
</g>
<!-- Node50 -->
<g id="node122" class="node"><title>Node50</title>
<a xlink:href="_palette_scene_8cpp.html" target="_top" xlink:title="PaletteScene.cpp">
<polygon fill="none" stroke="black" points="2705.5,-175 2705.5,-195 2798.5,-195 2798.5,-175 2705.5,-175"/>
<text text-anchor="middle" x="2752" y="-182" font-family="FreeSans" font-size="10.00">PaletteScene.cpp</text>
</a>
</g>
<!-- Node49&#45;&gt;Node50 -->
<g id="edge144" class="edge"><title>Node49&#45;&gt;Node50</title>
<path fill="none" stroke="midnightblue" d="M2668.47,-228.254C2688.45,-217.909 2714.65,-204.341 2732.34,-195.182"/>
<polygon fill="midnightblue" stroke="midnightblue" points="2666.78,-225.191 2659.51,-232.897 2670,-231.407 2666.78,-225.191"/>
</g>
</g>
</svg>
