<?xml version="1.0" encoding="UTF-8" standalone="no"?>
<!DOCTYPE svg PUBLIC "-//W3C//DTD SVG 1.1//EN"
 "http://www.w3.org/Graphics/SVG/1.1/DTD/svg11.dtd">
<!-- Generated by graphviz version 2.38.0 (20140413.2041)
 -->
<!-- Title: Scene.h Pages: 1 -->
<svg width="500pt" height="196pt"
 viewBox="0.00 0.00 500.00 196.00" xmlns="http://www.w3.org/2000/svg" xmlns:xlink="http://www.w3.org/1999/xlink">
<g id="graph0" class="graph" transform="scale(1 1) rotate(0) translate(4 192)">
<title>Scene.h</title>
<!-- Node1 -->
<g id="node1" class="node"><title>Node1</title>
<polygon fill="#bfbfbf" stroke="black" points="266.5,-168.5 266.5,-187.5 319.5,-187.5 319.5,-168.5 266.5,-168.5"/>
<text text-anchor="middle" x="293" y="-175.5" font-family="Helvetica,sans-Serif" font-size="10.00">Scene.h</text>
</g>
<!-- Node2 -->
<g id="node2" class="node"><title>Node2</title>
<g id="a_node2"><a xlink:href="_o_s_8h.html" target="_top" xlink:title="../../engine/Util/OS.h">
<polygon fill="none" stroke="black" points="136.5,-112.5 136.5,-131.5 243.5,-131.5 243.5,-112.5 136.5,-112.5"/>
<text text-anchor="middle" x="190" y="-119.5" font-family="Helvetica,sans-Serif" font-size="10.00">../../engine/Util/OS.h</text>
</a>
</g>
</g>
<!-- Node1&#45;&gt;Node2 -->
<g id="edge1" class="edge"><title>Node1&#45;&gt;Node2</title>
<path fill="none" stroke="midnightblue" d="M276.451,-168.324C260.008,-159.703 234.565,-146.364 215.532,-136.386"/>
<polygon fill="midnightblue" stroke="midnightblue" points="216.989,-133.198 206.508,-131.655 213.739,-139.398 216.989,-133.198"/>
</g>
<!-- Node10 -->
<g id="node10" class="node"><title>Node10</title>
<g id="a_node10"><a xlink:href="_profiler_8h.html" target="_top" xlink:title="../../engine/Util/Profiler.h">
<polygon fill="none" stroke="black" points="334.5,-112.5 334.5,-131.5 457.5,-131.5 457.5,-112.5 334.5,-112.5"/>
<text text-anchor="middle" x="396" y="-119.5" font-family="Helvetica,sans-Serif" font-size="10.00">../../engine/Util/Profiler.h</text>
</a>
</g>
</g>
<!-- Node1&#45;&gt;Node10 -->
<g id="edge9" class="edge"><title>Node1&#45;&gt;Node10</title>
<path fill="none" stroke="midnightblue" d="M309.549,-168.324C325.992,-159.703 351.435,-146.364 370.468,-136.386"/>
<polygon fill="midnightblue" stroke="midnightblue" points="372.261,-139.398 379.492,-131.655 369.011,-133.198 372.261,-139.398"/>
</g>
<!-- Node3 -->
<g id="node3" class="node"><title>Node3</title>
<polygon fill="none" stroke="#bfbfbf" points="0,-56.5 0,-75.5 42,-75.5 42,-56.5 0,-56.5"/>
<text text-anchor="middle" x="21" y="-63.5" font-family="Helvetica,sans-Serif" font-size="10.00">locale</text>
</g>
<!-- Node2&#45;&gt;Node3 -->
<g id="edge2" class="edge"><title>Node2&#45;&gt;Node3</title>
<path fill="none" stroke="midnightblue" d="M163.221,-112.444C132.903,-102.756 83.595,-87.0008 51.7327,-76.8199"/>
<polygon fill="midnightblue" stroke="midnightblue" points="52.6378,-73.4349 42.047,-73.7251 50.5072,-80.1027 52.6378,-73.4349"/>
</g>
<!-- Node4 -->
<g id="node4" class="node"><title>Node4</title>
<polygon fill="none" stroke="#bfbfbf" points="60,-56.5 60,-75.5 90,-75.5 90,-56.5 60,-56.5"/>
<text text-anchor="middle" x="75" y="-63.5" font-family="Helvetica,sans-Serif" font-size="10.00">set</text>
</g>
<!-- Node2&#45;&gt;Node4 -->
<g id="edge3" class="edge"><title>Node2&#45;&gt;Node4</title>
<path fill="none" stroke="midnightblue" d="M171.778,-112.444C152.226,-103.262 121.067,-88.6313 99.4065,-78.4605"/>
<polygon fill="midnightblue" stroke="midnightblue" points="100.738,-75.2192 90.1988,-74.1368 97.7629,-81.5554 100.738,-75.2192"/>
</g>
<!-- Node5 -->
<g id="node5" class="node"><title>Node5</title>
<polygon fill="none" stroke="#bfbfbf" points="108.5,-56.5 108.5,-75.5 149.5,-75.5 149.5,-56.5 108.5,-56.5"/>
<text text-anchor="middle" x="129" y="-63.5" font-family="Helvetica,sans-Serif" font-size="10.00">string</text>
</g>
<!-- Node2&#45;&gt;Node5 -->
<g id="edge4" class="edge"><title>Node2&#45;&gt;Node5</title>
<path fill="none" stroke="midnightblue" d="M180.199,-112.324C171.182,-104.341 157.594,-92.3128 146.682,-82.6529"/>
<polygon fill="midnightblue" stroke="midnightblue" points="148.787,-79.8416 138.979,-75.8339 144.147,-85.083 148.787,-79.8416"/>
</g>
<!-- Node6 -->
<g id="node6" class="node"><title>Node6</title>
<polygon fill="none" stroke="#bfbfbf" points="168,-56.5 168,-75.5 212,-75.5 212,-56.5 168,-56.5"/>
<text text-anchor="middle" x="190" y="-63.5" font-family="Helvetica,sans-Serif" font-size="10.00">vector</text>
</g>
<!-- Node2&#45;&gt;Node6 -->
<g id="edge5" class="edge"><title>Node2&#45;&gt;Node6</title>
<path fill="none" stroke="midnightblue" d="M190,-112.083C190,-105.006 190,-94.8611 190,-85.9865"/>
<polygon fill="midnightblue" stroke="midnightblue" points="193.5,-85.751 190,-75.7511 186.5,-85.7511 193.5,-85.751"/>
</g>
<!-- Node7 -->
<g id="node7" class="node"><title>Node7</title>
<polygon fill="none" stroke="#bfbfbf" points="229.5,-56.5 229.5,-75.5 336.5,-75.5 336.5,-56.5 229.5,-56.5"/>
<text text-anchor="middle" x="283" y="-63.5" font-family="Helvetica,sans-Serif" font-size="10.00">boost/filesystem.hpp</text>
</g>
<!-- Node2&#45;&gt;Node7 -->
<g id="edge6" class="edge"><title>Node2&#45;&gt;Node7</title>
<path fill="none" stroke="midnightblue" d="M204.942,-112.324C219.585,-103.822 242.134,-90.7288 259.238,-80.7975"/>
<polygon fill="midnightblue" stroke="midnightblue" points="261.205,-83.7027 268.095,-75.6545 257.69,-77.6491 261.205,-83.7027"/>
</g>
<!-- Node8 -->
<g id="node8" class="node"><title>Node8</title>
<g id="a_node8"><a xlink:href="_m_r___types_8h.html" target="_top" xlink:title="MR_Types.h">
<polygon fill="none" stroke="black" points="354.5,-56.5 354.5,-75.5 427.5,-75.5 427.5,-56.5 354.5,-56.5"/>
<text text-anchor="middle" x="391" y="-63.5" font-family="Helvetica,sans-Serif" font-size="10.00">MR_Types.h</text>
</a>
</g>
</g>
<!-- Node2&#45;&gt;Node8 -->
<g id="edge7" class="edge"><title>Node2&#45;&gt;Node8</title>
<path fill="none" stroke="midnightblue" d="M221.849,-112.444C256.398,-103.162 311.682,-88.3093 349.583,-78.127"/>
<polygon fill="midnightblue" stroke="midnightblue" points="350.551,-81.4912 359.3,-75.5164 348.734,-74.7309 350.551,-81.4912"/>
</g>
<!-- Node9 -->
<g id="node9" class="node"><title>Node9</title>
<polygon fill="none" stroke="#bfbfbf" points="361.5,-0.5 361.5,-19.5 420.5,-19.5 420.5,-0.5 361.5,-0.5"/>
<text text-anchor="middle" x="391" y="-7.5" font-family="Helvetica,sans-Serif" font-size="10.00">inttypes.h</text>
</g>
<!-- Node8&#45;&gt;Node9 -->
<g id="edge8" class="edge"><title>Node8&#45;&gt;Node9</title>
<path fill="none" stroke="midnightblue" d="M391,-56.083C391,-49.0059 391,-38.8611 391,-29.9865"/>
<polygon fill="midnightblue" stroke="midnightblue" points="394.5,-29.751 391,-19.7511 387.5,-29.7511 394.5,-29.751"/>
</g>
<!-- Node11 -->
<g id="node11" class="node"><title>Node11</title>
<polygon fill="none" stroke="#bfbfbf" points="446,-56.5 446,-75.5 492,-75.5 492,-56.5 446,-56.5"/>
<text text-anchor="middle" x="469" y="-63.5" font-family="Helvetica,sans-Serif" font-size="10.00">chrono</text>
</g>
<!-- Node10&#45;&gt;Node11 -->
<g id="edge10" class="edge"><title>Node10&#45;&gt;Node11</title>
<path fill="none" stroke="midnightblue" d="M407.729,-112.324C418.837,-104.107 435.742,-91.6017 448.983,-81.8069"/>
<polygon fill="midnightblue" stroke="midnightblue" points="451.1,-84.5948 457.058,-75.8339 446.937,-78.9671 451.1,-84.5948"/>
</g>
</g>
</svg>
