<?xml version="1.0" encoding="UTF-8" standalone="no"?>
<!DOCTYPE svg PUBLIC "-//W3C//DTD SVG 1.1//EN"
 "http://www.w3.org/Graphics/SVG/1.1/DTD/svg11.dtd">
<!-- Generated by graphviz version 2.26.3 (20100126.1600)
 -->
<!-- Title: ScreenFade.h Pages: 1 -->
<svg width="403pt" height="378pt"
 viewBox="0.00 0.00 403.00 378.00" xmlns="http://www.w3.org/2000/svg" xmlns:xlink="http://www.w3.org/1999/xlink">
<g id="graph1" class="graph" transform="scale(1 1) rotate(0) translate(4 374)">
<title>ScreenFade.h</title>
<!-- Node1 -->
<g id="node1" class="node"><title>Node1</title>
<polygon fill="#bfbfbf" stroke="black" points="163.5,-349 163.5,-369 240.5,-369 240.5,-349 163.5,-349"/>
<text text-anchor="middle" x="202" y="-356" font-family="FreeSans" font-size="10.00">ScreenFade.h</text>
</g>
<!-- Node2 -->
<g id="node3" class="node"><title>Node2</title>
<a xlink:href="_color_8h.html" target="_top" xlink:title="Color.h">
<polygon fill="none" stroke="black" points="74.5,-175 74.5,-195 121.5,-195 121.5,-175 74.5,-175"/>
<text text-anchor="middle" x="98" y="-182" font-family="FreeSans" font-size="10.00">Color.h</text>
</a>
</g>
<!-- Node1&#45;&gt;Node2 -->
<g id="edge2" class="edge"><title>Node1&#45;&gt;Node2</title>
<path fill="none" stroke="midnightblue" d="M195.959,-348.893C179.086,-320.663 131.256,-240.641 109.287,-203.884"/>
<polygon fill="midnightblue" stroke="midnightblue" points="112.192,-201.923 104.058,-195.135 106.184,-205.514 112.192,-201.923"/>
</g>
<!-- Node7 -->
<g id="node14" class="node"><title>Node7</title>
<a xlink:href="_view_model_8h.html" target="_top" xlink:title="ViewModel.h">
<polygon fill="none" stroke="black" points="223,-291 223,-311 295,-311 295,-291 223,-291"/>
<text text-anchor="middle" x="259" y="-298" font-family="FreeSans" font-size="10.00">ViewModel.h</text>
</a>
</g>
<!-- Node1&#45;&gt;Node7 -->
<g id="edge14" class="edge"><title>Node1&#45;&gt;Node7</title>
<path fill="none" stroke="midnightblue" d="M211.929,-348.897C220.083,-340.6 231.83,-328.646 241.549,-318.757"/>
<polygon fill="midnightblue" stroke="midnightblue" points="244.288,-320.963 248.801,-311.378 239.296,-316.057 244.288,-320.963"/>
</g>
<!-- Node3 -->
<g id="node5" class="node"><title>Node3</title>
<polygon fill="none" stroke="#bfbfbf" points="-0.5,-117 -0.5,-137 88.5,-137 88.5,-117 -0.5,-117"/>
<text text-anchor="middle" x="44" y="-124" font-family="FreeSans" font-size="10.00">boost/format.hpp</text>
</g>
<!-- Node2&#45;&gt;Node3 -->
<g id="edge4" class="edge"><title>Node2&#45;&gt;Node3</title>
<path fill="none" stroke="midnightblue" d="M88.5939,-174.897C80.8686,-166.6 69.7397,-154.646 60.5323,-144.757"/>
<polygon fill="midnightblue" stroke="midnightblue" points="63.0378,-142.312 53.6619,-137.378 57.9145,-147.082 63.0378,-142.312"/>
</g>
<!-- Node4 -->
<g id="node7" class="node"><title>Node4</title>
<a xlink:href="_m_r___types_8h.html" target="_top" xlink:title="../Util/MR_Types.h">
<polygon fill="none" stroke="black" points="136,-59 136,-79 232,-79 232,-59 136,-59"/>
<text text-anchor="middle" x="184" y="-66" font-family="FreeSans" font-size="10.00">../Util/MR_Types.h</text>
</a>
</g>
<!-- Node2&#45;&gt;Node4 -->
<g id="edge6" class="edge"><title>Node2&#45;&gt;Node4</title>
<path fill="none" stroke="midnightblue" d="M102.344,-174.579C108.472,-160.523 120.537,-135.056 135,-116 143.268,-105.107 154.105,-94.434 163.486,-86.0192"/>
<polygon fill="midnightblue" stroke="midnightblue" points="166.009,-88.4632 171.252,-79.2569 161.412,-83.1838 166.009,-88.4632"/>
</g>
<!-- Node6 -->
<g id="node11" class="node"><title>Node6</title>
<a xlink:href="_sel_fmt_8h.html" target="_top" xlink:title="../Util/SelFmt.h">
<polygon fill="none" stroke="black" points="143.5,-117 143.5,-137 224.5,-137 224.5,-117 143.5,-117"/>
<text text-anchor="middle" x="184" y="-124" font-family="FreeSans" font-size="10.00">../Util/SelFmt.h</text>
</a>
</g>
<!-- Node2&#45;&gt;Node6 -->
<g id="edge10" class="edge"><title>Node2&#45;&gt;Node6</title>
<path fill="none" stroke="midnightblue" d="M112.98,-174.897C126.095,-166.052 145.368,-153.054 160.529,-142.829"/>
<polygon fill="midnightblue" stroke="midnightblue" points="162.569,-145.675 168.903,-137.182 158.655,-139.871 162.569,-145.675"/>
</g>
<!-- Node5 -->
<g id="node9" class="node"><title>Node5</title>
<polygon fill="none" stroke="#bfbfbf" points="155,-1 155,-21 213,-21 213,-1 155,-1"/>
<text text-anchor="middle" x="184" y="-8" font-family="FreeSans" font-size="10.00">inttypes.h</text>
</g>
<!-- Node4&#45;&gt;Node5 -->
<g id="edge8" class="edge"><title>Node4&#45;&gt;Node5</title>
<path fill="none" stroke="midnightblue" d="M184,-58.8972C184,-51.339 184,-40.7476 184,-31.4458"/>
<polygon fill="midnightblue" stroke="midnightblue" points="187.5,-31.3776 184,-21.3776 180.5,-31.3776 187.5,-31.3776"/>
</g>
<!-- Node6&#45;&gt;Node4 -->
<g id="edge12" class="edge"><title>Node6&#45;&gt;Node4</title>
<path fill="none" stroke="midnightblue" d="M184,-116.897C184,-109.339 184,-98.7476 184,-89.4458"/>
<polygon fill="midnightblue" stroke="midnightblue" points="187.5,-89.3776 184,-79.3776 180.5,-89.3776 187.5,-89.3776"/>
</g>
<!-- Node8 -->
<g id="node16" class="node"><title>Node8</title>
<a xlink:href="_display_8h.html" target="_top" xlink:title="Display.h">
<polygon fill="none" stroke="black" points="203,-233 203,-253 259,-253 259,-233 203,-233"/>
<text text-anchor="middle" x="231" y="-240" font-family="FreeSans" font-size="10.00">Display.h</text>
</a>
</g>
<!-- Node7&#45;&gt;Node8 -->
<g id="edge16" class="edge"><title>Node7&#45;&gt;Node8</title>
<path fill="none" stroke="midnightblue" d="M254.123,-290.897C250.355,-283.093 245.026,-272.054 240.433,-262.54"/>
<polygon fill="midnightblue" stroke="midnightblue" points="243.509,-260.861 236.01,-253.378 237.205,-263.905 243.509,-260.861"/>
</g>
<!-- Node12 -->
<g id="node27" class="node"><title>Node12</title>
<a xlink:href="_view_attacher_8h.html" target="_top" xlink:title="ViewAttacher.h">
<polygon fill="none" stroke="black" points="312.5,-175 312.5,-195 395.5,-195 395.5,-175 312.5,-175"/>
<text text-anchor="middle" x="354" y="-182" font-family="FreeSans" font-size="10.00">ViewAttacher.h</text>
</a>
</g>
<!-- Node7&#45;&gt;Node12 -->
<g id="edge34" class="edge"><title>Node7&#45;&gt;Node12</title>
<path fill="none" stroke="midnightblue" d="M265.104,-290.727C273.551,-276.839 289.626,-251.561 306,-232 314.801,-221.486 325.641,-210.717 334.792,-202.144"/>
<polygon fill="midnightblue" stroke="midnightblue" points="337.312,-204.582 342.305,-195.238 332.574,-199.429 337.312,-204.582"/>
</g>
<!-- Node13 -->
<g id="node29" class="node"><title>Node13</title>
<a xlink:href="_view_8h.html" target="_top" xlink:title="View.h">
<polygon fill="none" stroke="black" points="315,-233 315,-253 361,-253 361,-233 315,-233"/>
<text text-anchor="middle" x="338" y="-240" font-family="FreeSans" font-size="10.00">View.h</text>
</a>
</g>
<!-- Node7&#45;&gt;Node13 -->
<g id="edge32" class="edge"><title>Node7&#45;&gt;Node13</title>
<path fill="none" stroke="midnightblue" d="M272.761,-290.897C284.695,-282.135 302.182,-269.297 316.048,-259.116"/>
<polygon fill="midnightblue" stroke="midnightblue" points="318.142,-261.921 324.132,-253.182 314,-256.278 318.142,-261.921"/>
</g>
<!-- Node8&#45;&gt;Node2 -->
<g id="edge24" class="edge"><title>Node8&#45;&gt;Node2</title>
<path fill="none" stroke="midnightblue" d="M207.833,-232.897C186.509,-223.598 154.655,-209.707 130.735,-199.275"/>
<polygon fill="midnightblue" stroke="midnightblue" points="131.913,-195.971 121.348,-195.182 129.115,-202.387 131.913,-195.971"/>
</g>
<!-- Node9 -->
<g id="node18" class="node"><title>Node9</title>
<a xlink:href="_vec_8h.html" target="_top" xlink:title="../Vec.h">
<polygon fill="none" stroke="black" points="138.5,-175 138.5,-195 187.5,-195 187.5,-175 138.5,-175"/>
<text text-anchor="middle" x="163" y="-182" font-family="FreeSans" font-size="10.00">../Vec.h</text>
</a>
</g>
<!-- Node8&#45;&gt;Node9 -->
<g id="edge18" class="edge"><title>Node8&#45;&gt;Node9</title>
<path fill="none" stroke="midnightblue" d="M219.155,-232.897C209.138,-224.353 194.577,-211.933 182.792,-201.881"/>
<polygon fill="midnightblue" stroke="midnightblue" points="185.047,-199.204 175.167,-195.378 180.504,-204.53 185.047,-199.204"/>
</g>
<!-- Node10 -->
<g id="node20" class="node"><title>Node10</title>
<a xlink:href="_ui_font_8h.html" target="_top" xlink:title="UiFont.h">
<polygon fill="none" stroke="black" points="204.5,-175 204.5,-195 257.5,-195 257.5,-175 204.5,-175"/>
<text text-anchor="middle" x="231" y="-182" font-family="FreeSans" font-size="10.00">UiFont.h</text>
</a>
</g>
<!-- Node8&#45;&gt;Node10 -->
<g id="edge20" class="edge"><title>Node8&#45;&gt;Node10</title>
<path fill="none" stroke="midnightblue" d="M231,-232.897C231,-225.339 231,-214.748 231,-205.446"/>
<polygon fill="midnightblue" stroke="midnightblue" points="234.5,-205.378 231,-195.378 227.5,-205.378 234.5,-205.378"/>
</g>
<!-- Node11 -->
<g id="node24" class="node"><title>Node11</title>
<a xlink:href="_ui_layout_flags_8h.html" target="_top" xlink:title="UiLayoutFlags.h">
<polygon fill="none" stroke="black" points="241.5,-117 241.5,-137 328.5,-137 328.5,-117 241.5,-117"/>
<text text-anchor="middle" x="285" y="-124" font-family="FreeSans" font-size="10.00">UiLayoutFlags.h</text>
</a>
</g>
<!-- Node8&#45;&gt;Node11 -->
<g id="edge26" class="edge"><title>Node8&#45;&gt;Node11</title>
<path fill="none" stroke="midnightblue" d="M240.275,-232.911C248.146,-223.859 259.213,-209.895 266,-196 273.574,-180.496 278.522,-161.507 281.464,-147.378"/>
<polygon fill="midnightblue" stroke="midnightblue" points="284.961,-147.727 283.405,-137.247 278.086,-146.409 284.961,-147.727"/>
</g>
<!-- Node8&#45;&gt;Node12 -->
<g id="edge30" class="edge"><title>Node8&#45;&gt;Node12</title>
<path fill="none" stroke="midnightblue" d="M252.425,-232.897C271.971,-223.68 301.082,-209.953 323.135,-199.554"/>
<polygon fill="midnightblue" stroke="midnightblue" points="324.856,-202.612 332.408,-195.182 321.87,-196.281 324.856,-202.612"/>
</g>
<!-- Node10&#45;&gt;Node6 -->
<g id="edge22" class="edge"><title>Node10&#45;&gt;Node6</title>
<path fill="none" stroke="midnightblue" d="M222.813,-174.897C216.223,-166.764 206.786,-155.118 198.867,-145.347"/>
<polygon fill="midnightblue" stroke="midnightblue" points="201.425,-142.943 192.409,-137.378 195.986,-147.351 201.425,-142.943"/>
</g>
<!-- Node11&#45;&gt;Node4 -->
<g id="edge28" class="edge"><title>Node11&#45;&gt;Node4</title>
<path fill="none" stroke="midnightblue" d="M267.407,-116.897C251.717,-107.887 228.521,-94.5665 210.571,-84.2586"/>
<polygon fill="midnightblue" stroke="midnightblue" points="212.145,-81.1264 201.73,-79.1817 208.659,-87.1967 212.145,-81.1264"/>
</g>
</g>
</svg>
