<?xml version="1.0" encoding="UTF-8" standalone="no"?>
<!DOCTYPE svg PUBLIC "-//W3C//DTD SVG 1.1//EN"
 "http://www.w3.org/Graphics/SVG/1.1/DTD/svg11.dtd">
<!-- Generated by graphviz version 2.26.3 (20100126.1600)
 -->
<!-- Title: ScreenFade.cpp Pages: 1 -->
<svg width="393pt" height="552pt"
 viewBox="0.00 0.00 393.00 552.00" xmlns="http://www.w3.org/2000/svg" xmlns:xlink="http://www.w3.org/1999/xlink">
<g id="graph1" class="graph" transform="scale(1 1) rotate(0) translate(4 548)">
<title>ScreenFade.cpp</title>
<!-- Node1 -->
<g id="node1" class="node"><title>Node1</title>
<polygon fill="#bfbfbf" stroke="black" points="57.5,-523 57.5,-543 144.5,-543 144.5,-523 57.5,-523"/>
<text text-anchor="middle" x="101" y="-530" font-family="FreeSans" font-size="10.00">ScreenFade.cpp</text>
</g>
<!-- Node2 -->
<g id="node3" class="node"><title>Node2</title>
<a xlink:href="_screen_fade_8h.html" target="_top" xlink:title="ScreenFade.h">
<polygon fill="none" stroke="black" points="62.5,-465 62.5,-485 139.5,-485 139.5,-465 62.5,-465"/>
<text text-anchor="middle" x="101" y="-472" font-family="FreeSans" font-size="10.00">ScreenFade.h</text>
</a>
</g>
<!-- Node1&#45;&gt;Node2 -->
<g id="edge2" class="edge"><title>Node1&#45;&gt;Node2</title>
<path fill="none" stroke="midnightblue" d="M101,-522.897C101,-515.339 101,-504.748 101,-495.446"/>
<polygon fill="midnightblue" stroke="midnightblue" points="104.5,-495.378 101,-485.378 97.5001,-495.378 104.5,-495.378"/>
</g>
<!-- Node3 -->
<g id="node5" class="node"><title>Node3</title>
<a xlink:href="_color_8h.html" target="_top" xlink:title="Color.h">
<polygon fill="none" stroke="black" points="92.5,-175 92.5,-195 139.5,-195 139.5,-175 92.5,-175"/>
<text text-anchor="middle" x="116" y="-182" font-family="FreeSans" font-size="10.00">Color.h</text>
</a>
</g>
<!-- Node2&#45;&gt;Node3 -->
<g id="edge4" class="edge"><title>Node2&#45;&gt;Node3</title>
<path fill="none" stroke="midnightblue" d="M95.5324,-464.776C85.4615,-444.962 65,-399.697 65,-359 65,-359 65,-359 65,-301 65,-269.192 70.6468,-260.869 84,-232 88.6258,-221.999 95.3017,-211.784 101.36,-203.442"/>
<polygon fill="midnightblue" stroke="midnightblue" points="104.332,-205.315 107.566,-195.225 98.7463,-201.096 104.332,-205.315"/>
</g>
<!-- Node8 -->
<g id="node16" class="node"><title>Node8</title>
<a xlink:href="_background_8h.html" target="_top" xlink:title="Background.h">
<polygon fill="none" stroke="black" points="99,-407 99,-427 175,-427 175,-407 99,-407"/>
<text text-anchor="middle" x="137" y="-414" font-family="FreeSans" font-size="10.00">Background.h</text>
</a>
</g>
<!-- Node2&#45;&gt;Node8 -->
<g id="edge16" class="edge"><title>Node2&#45;&gt;Node8</title>
<path fill="none" stroke="midnightblue" d="M107.271,-464.897C112.217,-456.928 119.256,-445.587 125.243,-435.941"/>
<polygon fill="midnightblue" stroke="midnightblue" points="128.259,-437.72 130.559,-427.378 122.311,-434.028 128.259,-437.72"/>
</g>
<!-- Node4 -->
<g id="node7" class="node"><title>Node4</title>
<polygon fill="none" stroke="#bfbfbf" points="-0.5,-117 -0.5,-137 88.5,-137 88.5,-117 -0.5,-117"/>
<text text-anchor="middle" x="44" y="-124" font-family="FreeSans" font-size="10.00">boost/format.hpp</text>
</g>
<!-- Node3&#45;&gt;Node4 -->
<g id="edge6" class="edge"><title>Node3&#45;&gt;Node4</title>
<path fill="none" stroke="midnightblue" d="M103.459,-174.897C92.8522,-166.353 77.4341,-153.933 64.9561,-143.881"/>
<polygon fill="midnightblue" stroke="midnightblue" points="66.8658,-140.925 56.8825,-137.378 62.4744,-146.377 66.8658,-140.925"/>
</g>
<!-- Node5 -->
<g id="node9" class="node"><title>Node5</title>
<a xlink:href="_m_r___types_8h.html" target="_top" xlink:title="../Util/MR_Types.h">
<polygon fill="none" stroke="black" points="136,-59 136,-79 232,-79 232,-59 136,-59"/>
<text text-anchor="middle" x="184" y="-66" font-family="FreeSans" font-size="10.00">../Util/MR_Types.h</text>
</a>
</g>
<!-- Node3&#45;&gt;Node5 -->
<g id="edge8" class="edge"><title>Node3&#45;&gt;Node5</title>
<path fill="none" stroke="midnightblue" d="M117.063,-174.978C118.914,-160.936 123.677,-134.998 135,-116 141.908,-104.409 152.435,-93.7869 161.964,-85.5843"/>
<polygon fill="midnightblue" stroke="midnightblue" points="164.443,-88.0779 169.964,-79.0354 160.009,-82.6612 164.443,-88.0779"/>
</g>
<!-- Node7 -->
<g id="node13" class="node"><title>Node7</title>
<a xlink:href="_sel_fmt_8h.html" target="_top" xlink:title="../Util/SelFmt.h">
<polygon fill="none" stroke="black" points="143.5,-117 143.5,-137 224.5,-137 224.5,-117 143.5,-117"/>
<text text-anchor="middle" x="184" y="-124" font-family="FreeSans" font-size="10.00">../Util/SelFmt.h</text>
</a>
</g>
<!-- Node3&#45;&gt;Node7 -->
<g id="edge12" class="edge"><title>Node3&#45;&gt;Node7</title>
<path fill="none" stroke="midnightblue" d="M127.845,-174.897C137.862,-166.353 152.423,-153.933 164.208,-143.881"/>
<polygon fill="midnightblue" stroke="midnightblue" points="166.496,-146.53 171.833,-137.378 161.953,-141.204 166.496,-146.53"/>
</g>
<!-- Node6 -->
<g id="node11" class="node"><title>Node6</title>
<polygon fill="none" stroke="#bfbfbf" points="155,-1 155,-21 213,-21 213,-1 155,-1"/>
<text text-anchor="middle" x="184" y="-8" font-family="FreeSans" font-size="10.00">inttypes.h</text>
</g>
<!-- Node5&#45;&gt;Node6 -->
<g id="edge10" class="edge"><title>Node5&#45;&gt;Node6</title>
<path fill="none" stroke="midnightblue" d="M184,-58.8972C184,-51.339 184,-40.7476 184,-31.4458"/>
<polygon fill="midnightblue" stroke="midnightblue" points="187.5,-31.3776 184,-21.3776 180.5,-31.3776 187.5,-31.3776"/>
</g>
<!-- Node7&#45;&gt;Node5 -->
<g id="edge14" class="edge"><title>Node7&#45;&gt;Node5</title>
<path fill="none" stroke="midnightblue" d="M184,-116.897C184,-109.339 184,-98.7476 184,-89.4458"/>
<polygon fill="midnightblue" stroke="midnightblue" points="187.5,-89.3776 184,-79.3776 180.5,-89.3776 187.5,-89.3776"/>
</g>
<!-- Node9 -->
<g id="node18" class="node"><title>Node9</title>
<a xlink:href="_view_model_8h.html" target="_top" xlink:title="ViewModel.h">
<polygon fill="none" stroke="black" points="112,-349 112,-369 184,-369 184,-349 112,-349"/>
<text text-anchor="middle" x="148" y="-356" font-family="FreeSans" font-size="10.00">ViewModel.h</text>
</a>
</g>
<!-- Node8&#45;&gt;Node9 -->
<g id="edge18" class="edge"><title>Node8&#45;&gt;Node9</title>
<path fill="none" stroke="midnightblue" d="M138.916,-406.897C140.349,-399.339 142.358,-388.748 144.122,-379.446"/>
<polygon fill="midnightblue" stroke="midnightblue" points="147.607,-379.855 146.032,-369.378 140.73,-378.55 147.607,-379.855"/>
</g>
<!-- Node10 -->
<g id="node20" class="node"><title>Node10</title>
<a xlink:href="_display_8h.html" target="_top" xlink:title="Display.h">
<polygon fill="none" stroke="black" points="210,-291 210,-311 266,-311 266,-291 210,-291"/>
<text text-anchor="middle" x="238" y="-298" font-family="FreeSans" font-size="10.00">Display.h</text>
</a>
</g>
<!-- Node9&#45;&gt;Node10 -->
<g id="edge20" class="edge"><title>Node9&#45;&gt;Node10</title>
<path fill="none" stroke="midnightblue" d="M163.677,-348.897C177.401,-340.052 197.572,-327.054 213.438,-316.829"/>
<polygon fill="midnightblue" stroke="midnightblue" points="215.691,-319.541 222.201,-311.182 211.899,-313.657 215.691,-319.541"/>
</g>
<!-- Node16 -->
<g id="node36" class="node"><title>Node16</title>
<a xlink:href="_view_attacher_8h.html" target="_top" xlink:title="ViewAttacher.h">
<polygon fill="none" stroke="black" points="92.5,-233 92.5,-253 175.5,-253 175.5,-233 92.5,-233"/>
<text text-anchor="middle" x="134" y="-240" font-family="FreeSans" font-size="10.00">ViewAttacher.h</text>
</a>
</g>
<!-- Node9&#45;&gt;Node16 -->
<g id="edge44" class="edge"><title>Node9&#45;&gt;Node16</title>
<path fill="none" stroke="midnightblue" d="M144.99,-348.651C142.382,-339.196 138.758,-324.785 137,-312 134.779,-295.852 134.071,-277.398 133.895,-263.64"/>
<polygon fill="midnightblue" stroke="midnightblue" points="137.394,-263.326 133.851,-253.341 130.394,-263.356 137.394,-263.326"/>
</g>
<!-- Node17 -->
<g id="node38" class="node"><title>Node17</title>
<a xlink:href="_view_8h.html" target="_top" xlink:title="View.h">
<polygon fill="none" stroke="black" points="146,-291 146,-311 192,-311 192,-291 146,-291"/>
<text text-anchor="middle" x="169" y="-298" font-family="FreeSans" font-size="10.00">View.h</text>
</a>
</g>
<!-- Node9&#45;&gt;Node17 -->
<g id="edge42" class="edge"><title>Node9&#45;&gt;Node17</title>
<path fill="none" stroke="midnightblue" d="M151.658,-348.897C154.454,-341.175 158.397,-330.286 161.816,-320.841"/>
<polygon fill="midnightblue" stroke="midnightblue" points="165.129,-321.972 165.243,-311.378 158.547,-319.589 165.129,-321.972"/>
</g>
<!-- Node11 -->
<g id="node22" class="node"><title>Node11</title>
<a xlink:href="_vec_8h.html" target="_top" xlink:title="../Vec.h">
<polygon fill="none" stroke="black" points="246.5,-175 246.5,-195 295.5,-195 295.5,-175 246.5,-175"/>
<text text-anchor="middle" x="271" y="-182" font-family="FreeSans" font-size="10.00">../Vec.h</text>
</a>
</g>
<!-- Node10&#45;&gt;Node11 -->
<g id="edge22" class="edge"><title>Node10&#45;&gt;Node11</title>
<path fill="none" stroke="midnightblue" d="M241.065,-290.933C243.943,-281.428 248.341,-266.768 252,-254 256.7,-237.601 261.823,-218.945 265.565,-205.17"/>
<polygon fill="midnightblue" stroke="midnightblue" points="269,-205.873 268.234,-195.306 262.243,-204.045 269,-205.873"/>
</g>
<!-- Node12 -->
<g id="node24" class="node"><title>Node12</title>
<a xlink:href="_styles_8h.html" target="_top" xlink:title="Styles.h">
<polygon fill="none" stroke="black" points="192.5,-233 192.5,-253 243.5,-253 243.5,-233 192.5,-233"/>
<text text-anchor="middle" x="218" y="-240" font-family="FreeSans" font-size="10.00">Styles.h</text>
</a>
</g>
<!-- Node10&#45;&gt;Node12 -->
<g id="edge24" class="edge"><title>Node10&#45;&gt;Node12</title>
<path fill="none" stroke="midnightblue" d="M234.516,-290.897C231.853,-283.175 228.099,-272.286 224.842,-262.841"/>
<polygon fill="midnightblue" stroke="midnightblue" points="228.147,-261.69 221.578,-253.378 221.53,-263.972 228.147,-261.69"/>
</g>
<!-- Node15 -->
<g id="node33" class="node"><title>Node15</title>
<a xlink:href="_ui_layout_flags_8h.html" target="_top" xlink:title="UiLayoutFlags.h">
<polygon fill="none" stroke="black" points="298.5,-233 298.5,-253 385.5,-253 385.5,-233 298.5,-233"/>
<text text-anchor="middle" x="342" y="-240" font-family="FreeSans" font-size="10.00">UiLayoutFlags.h</text>
</a>
</g>
<!-- Node10&#45;&gt;Node15 -->
<g id="edge36" class="edge"><title>Node10&#45;&gt;Node15</title>
<path fill="none" stroke="midnightblue" d="M256.115,-290.897C272.345,-281.846 296.376,-268.444 314.894,-258.117"/>
<polygon fill="midnightblue" stroke="midnightblue" points="316.714,-261.109 323.743,-253.182 313.305,-254.996 316.714,-261.109"/>
</g>
<!-- Node10&#45;&gt;Node16 -->
<g id="edge40" class="edge"><title>Node10&#45;&gt;Node16</title>
<path fill="none" stroke="midnightblue" d="M219.885,-290.897C203.655,-281.846 179.624,-268.444 161.106,-258.117"/>
<polygon fill="midnightblue" stroke="midnightblue" points="162.695,-254.996 152.257,-253.182 159.286,-261.109 162.695,-254.996"/>
</g>
<!-- Node12&#45;&gt;Node3 -->
<g id="edge34" class="edge"><title>Node12&#45;&gt;Node3</title>
<path fill="none" stroke="midnightblue" d="M200.233,-232.897C184.388,-223.887 160.962,-210.567 142.834,-200.259"/>
<polygon fill="midnightblue" stroke="midnightblue" points="144.329,-197.082 133.906,-195.182 140.869,-203.167 144.329,-197.082"/>
</g>
<!-- Node12&#45;&gt;Node11 -->
<g id="edge26" class="edge"><title>Node12&#45;&gt;Node11</title>
<path fill="none" stroke="midnightblue" d="M227.232,-232.897C234.739,-224.682 245.521,-212.883 254.505,-203.051"/>
<polygon fill="midnightblue" stroke="midnightblue" points="257.355,-205.121 261.517,-195.378 252.188,-200.399 257.355,-205.121"/>
</g>
<!-- Node13 -->
<g id="node27" class="node"><title>Node13</title>
<a xlink:href="_ui_font_8h.html" target="_top" xlink:title="UiFont.h">
<polygon fill="none" stroke="black" points="176.5,-175 176.5,-195 229.5,-195 229.5,-175 176.5,-175"/>
<text text-anchor="middle" x="203" y="-182" font-family="FreeSans" font-size="10.00">UiFont.h</text>
</a>
</g>
<!-- Node12&#45;&gt;Node13 -->
<g id="edge28" class="edge"><title>Node12&#45;&gt;Node13</title>
<path fill="none" stroke="midnightblue" d="M215.387,-232.897C213.411,-225.257 210.634,-214.517 208.209,-205.143"/>
<polygon fill="midnightblue" stroke="midnightblue" points="211.576,-204.183 205.684,-195.378 204.799,-205.935 211.576,-204.183"/>
</g>
<!-- Node13&#45;&gt;Node7 -->
<g id="edge32" class="edge"><title>Node13&#45;&gt;Node7</title>
<path fill="none" stroke="midnightblue" d="M199.69,-174.897C197.188,-167.257 193.669,-156.517 190.599,-147.143"/>
<polygon fill="midnightblue" stroke="midnightblue" points="193.839,-145.791 187.4,-137.378 187.187,-147.97 193.839,-145.791"/>
</g>
<!-- Node14 -->
<g id="node29" class="node"><title>Node14</title>
<a xlink:href="_hash_8h.html" target="_top" xlink:title="../Util/Hash.h">
<polygon fill="none" stroke="black" points="241.5,-117 241.5,-137 314.5,-137 314.5,-117 241.5,-117"/>
<text text-anchor="middle" x="278" y="-124" font-family="FreeSans" font-size="10.00">../Util/Hash.h</text>
</a>
</g>
<!-- Node13&#45;&gt;Node14 -->
<g id="edge30" class="edge"><title>Node13&#45;&gt;Node14</title>
<path fill="none" stroke="midnightblue" d="M216.064,-174.897C227.287,-166.218 243.683,-153.538 256.786,-143.405"/>
<polygon fill="midnightblue" stroke="midnightblue" points="259.065,-146.068 264.834,-137.182 254.782,-140.53 259.065,-146.068"/>
</g>
<!-- Node15&#45;&gt;Node5 -->
<g id="edge38" class="edge"><title>Node15&#45;&gt;Node5</title>
<path fill="none" stroke="midnightblue" d="M343.727,-232.692C347.067,-209.06 351.752,-150.371 323,-116 311.88,-102.707 273.312,-90.2667 239.616,-81.5283"/>
<polygon fill="midnightblue" stroke="midnightblue" points="240.363,-78.1073 229.81,-79.0515 238.649,-84.8941 240.363,-78.1073"/>
</g>
</g>
</svg>
