<?xml version="1.0" encoding="UTF-8" standalone="no"?>
<!DOCTYPE svg PUBLIC "-//W3C//DTD SVG 1.1//EN"
 "http://www.w3.org/Graphics/SVG/1.1/DTD/svg11.dtd">
<!-- Generated by graphviz version 2.38.0 (20140413.2041)
 -->
<!-- Title: SdlLegacyDisplay.h Pages: 1 -->
<svg width="980pt" height="543pt"
 viewBox="0.00 0.00 980.00 543.00" xmlns="http://www.w3.org/2000/svg" xmlns:xlink="http://www.w3.org/1999/xlink">
<g id="graph0" class="graph" transform="scale(1 1) rotate(0) translate(4 539)">
<title>SdlLegacyDisplay.h</title>
<!-- Node1 -->
<g id="node1" class="node"><title>Node1</title>
<polygon fill="#bfbfbf" stroke="black" points="430,-515.5 430,-534.5 534,-534.5 534,-515.5 430,-515.5"/>
<text text-anchor="middle" x="482" y="-522.5" font-family="Helvetica,sans-Serif" font-size="10.00">SdlLegacyDisplay.h</text>
</g>
<!-- Node2 -->
<g id="node2" class="node"><title>Node2</title>
<g id="a_node2"><a xlink:href="_video_buffer_8h.html" target="_top" xlink:title="../../VideoServices\l/VideoBuffer.h">
<polygon fill="none" stroke="black" points="315,-168.5 315,-198.5 413,-198.5 413,-168.5 315,-168.5"/>
<text text-anchor="start" x="323" y="-186.5" font-family="Helvetica,sans-Serif" font-size="10.00">../../VideoServices</text>
<text text-anchor="middle" x="364" y="-175.5" font-family="Helvetica,sans-Serif" font-size="10.00">/VideoBuffer.h</text>
</a>
</g>
</g>
<!-- Node1&#45;&gt;Node2 -->
<g id="edge1" class="edge"><title>Node1&#45;&gt;Node2</title>
<path fill="none" stroke="midnightblue" d="M465.376,-515.273C437.416,-499.26 384,-462.34 384,-414 384,-414 384,-414 384,-300 384,-268.026 376.466,-231.793 370.647,-208.573"/>
<polygon fill="midnightblue" stroke="midnightblue" points="373.954,-207.384 368.047,-198.589 367.18,-209.148 373.954,-207.384"/>
</g>
<!-- Node14 -->
<g id="node14" class="node"><title>Node14</title>
<g id="a_node14"><a xlink:href="_sdl_display_8h.html" target="_top" xlink:title="SdlDisplay.h">
<polygon fill="none" stroke="black" points="544,-459.5 544,-478.5 616,-478.5 616,-459.5 544,-459.5"/>
<text text-anchor="middle" x="580" y="-466.5" font-family="Helvetica,sans-Serif" font-size="10.00">SdlDisplay.h</text>
</a>
</g>
</g>
<!-- Node1&#45;&gt;Node14 -->
<g id="edge15" class="edge"><title>Node1&#45;&gt;Node14</title>
<path fill="none" stroke="midnightblue" d="M497.745,-515.324C513.319,-506.743 537.377,-493.486 555.459,-483.522"/>
<polygon fill="midnightblue" stroke="midnightblue" points="557.224,-486.546 564.294,-478.655 553.846,-480.415 557.224,-486.546"/>
</g>
<!-- Node3 -->
<g id="node3" class="node"><title>Node3</title>
<g id="a_node3"><a xlink:href="_m_r___types_8h.html" target="_top" xlink:title="../Util/MR_Types.h">
<polygon fill="none" stroke="black" points="512,-56.5 512,-75.5 612,-75.5 612,-56.5 512,-56.5"/>
<text text-anchor="middle" x="562" y="-63.5" font-family="Helvetica,sans-Serif" font-size="10.00">../Util/MR_Types.h</text>
</a>
</g>
</g>
<!-- Node2&#45;&gt;Node3 -->
<g id="edge2" class="edge"><title>Node2&#45;&gt;Node3</title>
<path fill="none" stroke="midnightblue" d="M386.495,-168.423C409.738,-153.974 447.149,-130.984 480,-112 498.923,-101.065 520.613,-89.1898 536.931,-80.3858"/>
<polygon fill="midnightblue" stroke="midnightblue" points="538.706,-83.4053 545.856,-75.5872 535.391,-77.2399 538.706,-83.4053"/>
</g>
<!-- Node5 -->
<g id="node5" class="node"><title>Node5</title>
<g id="a_node5"><a xlink:href="_o_s_8h.html" target="_top" xlink:title="../Util/OS.h">
<polygon fill="none" stroke="black" points="192,-112.5 192,-131.5 258,-131.5 258,-112.5 192,-112.5"/>
<text text-anchor="middle" x="225" y="-119.5" font-family="Helvetica,sans-Serif" font-size="10.00">../Util/OS.h</text>
</a>
</g>
</g>
<!-- Node2&#45;&gt;Node5 -->
<g id="edge4" class="edge"><title>Node2&#45;&gt;Node5</title>
<path fill="none" stroke="midnightblue" d="M331.059,-168.399C307.841,-158.461 277.014,-145.265 254.581,-135.662"/>
<polygon fill="midnightblue" stroke="midnightblue" points="255.796,-132.375 245.226,-131.658 253.042,-138.811 255.796,-132.375"/>
</g>
<!-- Node12 -->
<g id="node12" class="node"><title>Node12</title>
<g id="a_node12"><a xlink:href="_color_palette_8h.html" target="_top" xlink:title="ColorPalette.h">
<polygon fill="none" stroke="black" points="310.5,-112.5 310.5,-131.5 389.5,-131.5 389.5,-112.5 310.5,-112.5"/>
<text text-anchor="middle" x="350" y="-119.5" font-family="Helvetica,sans-Serif" font-size="10.00">ColorPalette.h</text>
</a>
</g>
</g>
<!-- Node2&#45;&gt;Node12 -->
<g id="edge12" class="edge"><title>Node2&#45;&gt;Node12</title>
<path fill="none" stroke="midnightblue" d="M360.682,-168.399C358.795,-160.377 356.408,-150.233 354.369,-141.569"/>
<polygon fill="midnightblue" stroke="midnightblue" points="357.735,-140.59 352.037,-131.658 350.921,-142.194 357.735,-140.59"/>
</g>
<!-- Node4 -->
<g id="node4" class="node"><title>Node4</title>
<polygon fill="none" stroke="#bfbfbf" points="532.5,-0.5 532.5,-19.5 591.5,-19.5 591.5,-0.5 532.5,-0.5"/>
<text text-anchor="middle" x="562" y="-7.5" font-family="Helvetica,sans-Serif" font-size="10.00">inttypes.h</text>
</g>
<!-- Node3&#45;&gt;Node4 -->
<g id="edge3" class="edge"><title>Node3&#45;&gt;Node4</title>
<path fill="none" stroke="midnightblue" d="M562,-56.083C562,-49.0059 562,-38.8611 562,-29.9865"/>
<polygon fill="midnightblue" stroke="midnightblue" points="565.5,-29.751 562,-19.7511 558.5,-29.7511 565.5,-29.751"/>
</g>
<!-- Node5&#45;&gt;Node3 -->
<g id="edge11" class="edge"><title>Node5&#45;&gt;Node3</title>
<path fill="none" stroke="midnightblue" d="M258.235,-115.674C314.817,-106.608 430.626,-88.051 501.77,-76.6512"/>
<polygon fill="midnightblue" stroke="midnightblue" points="502.609,-80.0613 511.93,-75.0231 501.502,-73.1495 502.609,-80.0613"/>
</g>
<!-- Node6 -->
<g id="node6" class="node"><title>Node6</title>
<polygon fill="none" stroke="#bfbfbf" points="0,-56.5 0,-75.5 42,-75.5 42,-56.5 0,-56.5"/>
<text text-anchor="middle" x="21" y="-63.5" font-family="Helvetica,sans-Serif" font-size="10.00">locale</text>
</g>
<!-- Node5&#45;&gt;Node6 -->
<g id="edge5" class="edge"><title>Node5&#45;&gt;Node6</title>
<path fill="none" stroke="midnightblue" d="M191.971,-113.021C158.688,-104.868 105.636,-91.5654 51.8746,-76.449"/>
<polygon fill="midnightblue" stroke="midnightblue" points="52.7626,-73.0629 42.1873,-73.7073 50.8562,-79.7984 52.7626,-73.0629"/>
</g>
<!-- Node7 -->
<g id="node7" class="node"><title>Node7</title>
<polygon fill="none" stroke="#bfbfbf" points="59.5,-56.5 59.5,-75.5 108.5,-75.5 108.5,-56.5 59.5,-56.5"/>
<text text-anchor="middle" x="84" y="-63.5" font-family="Helvetica,sans-Serif" font-size="10.00">random</text>
</g>
<!-- Node5&#45;&gt;Node7 -->
<g id="edge6" class="edge"><title>Node5&#45;&gt;Node7</title>
<path fill="none" stroke="midnightblue" d="M202.658,-112.444C179.247,-103.478 142.264,-89.314 115.81,-79.1827"/>
<polygon fill="midnightblue" stroke="midnightblue" points="116.828,-75.8245 106.237,-75.5164 114.324,-82.3615 116.828,-75.8245"/>
</g>
<!-- Node8 -->
<g id="node8" class="node"><title>Node8</title>
<polygon fill="none" stroke="#bfbfbf" points="126,-56.5 126,-75.5 156,-75.5 156,-56.5 126,-56.5"/>
<text text-anchor="middle" x="141" y="-63.5" font-family="Helvetica,sans-Serif" font-size="10.00">set</text>
</g>
<!-- Node5&#45;&gt;Node8 -->
<g id="edge7" class="edge"><title>Node5&#45;&gt;Node8</title>
<path fill="none" stroke="midnightblue" d="M211.504,-112.324C198.4,-103.9 178.288,-90.9709 162.893,-81.0741"/>
<polygon fill="midnightblue" stroke="midnightblue" points="164.767,-78.118 154.463,-75.6545 160.982,-84.0063 164.767,-78.118"/>
</g>
<!-- Node9 -->
<g id="node9" class="node"><title>Node9</title>
<polygon fill="none" stroke="#bfbfbf" points="174.5,-56.5 174.5,-75.5 215.5,-75.5 215.5,-56.5 174.5,-56.5"/>
<text text-anchor="middle" x="195" y="-63.5" font-family="Helvetica,sans-Serif" font-size="10.00">string</text>
</g>
<!-- Node5&#45;&gt;Node9 -->
<g id="edge8" class="edge"><title>Node5&#45;&gt;Node9</title>
<path fill="none" stroke="midnightblue" d="M220.046,-112.083C215.896,-104.613 209.847,-93.7244 204.733,-84.5199"/>
<polygon fill="midnightblue" stroke="midnightblue" points="207.778,-82.7929 199.862,-75.7511 201.659,-86.1924 207.778,-82.7929"/>
</g>
<!-- Node10 -->
<g id="node10" class="node"><title>Node10</title>
<polygon fill="none" stroke="#bfbfbf" points="234,-56.5 234,-75.5 278,-75.5 278,-56.5 234,-56.5"/>
<text text-anchor="middle" x="256" y="-63.5" font-family="Helvetica,sans-Serif" font-size="10.00">vector</text>
</g>
<!-- Node5&#45;&gt;Node10 -->
<g id="edge9" class="edge"><title>Node5&#45;&gt;Node10</title>
<path fill="none" stroke="midnightblue" d="M230.119,-112.083C234.408,-104.613 240.658,-93.7244 245.942,-84.5199"/>
<polygon fill="midnightblue" stroke="midnightblue" points="249.033,-86.1662 250.976,-75.7511 242.962,-82.6811 249.033,-86.1662"/>
</g>
<!-- Node11 -->
<g id="node11" class="node"><title>Node11</title>
<polygon fill="none" stroke="#bfbfbf" points="295.5,-56.5 295.5,-75.5 402.5,-75.5 402.5,-56.5 295.5,-56.5"/>
<text text-anchor="middle" x="349" y="-63.5" font-family="Helvetica,sans-Serif" font-size="10.00">boost/filesystem.hpp</text>
</g>
<!-- Node5&#45;&gt;Node11 -->
<g id="edge10" class="edge"><title>Node5&#45;&gt;Node11</title>
<path fill="none" stroke="midnightblue" d="M244.648,-112.444C264.965,-103.596 296.903,-89.6875 320.098,-79.5865"/>
<polygon fill="midnightblue" stroke="midnightblue" points="321.673,-82.7181 329.444,-75.5164 318.878,-76.3002 321.673,-82.7181"/>
</g>
<!-- Node12&#45;&gt;Node3 -->
<g id="edge14" class="edge"><title>Node12&#45;&gt;Node3</title>
<path fill="none" stroke="midnightblue" d="M383.592,-112.444C420.187,-103.122 478.838,-88.1828 518.826,-77.9972"/>
<polygon fill="midnightblue" stroke="midnightblue" points="519.739,-81.3766 528.565,-75.5164 518.011,-74.5932 519.739,-81.3766"/>
</g>
<!-- Node13 -->
<g id="node13" class="node"><title>Node13</title>
<polygon fill="none" stroke="#bfbfbf" points="421,-56.5 421,-75.5 493,-75.5 493,-56.5 421,-56.5"/>
<text text-anchor="middle" x="457" y="-63.5" font-family="Helvetica,sans-Serif" font-size="10.00">SDL2/SDL.h</text>
</g>
<!-- Node12&#45;&gt;Node13 -->
<g id="edge13" class="edge"><title>Node12&#45;&gt;Node13</title>
<path fill="none" stroke="midnightblue" d="M367.191,-112.324C384.351,-103.664 410.946,-90.2424 430.747,-80.249"/>
<polygon fill="midnightblue" stroke="midnightblue" points="432.501,-83.2847 439.851,-75.6545 429.347,-77.0354 432.501,-83.2847"/>
</g>
<!-- Node14&#45;&gt;Node13 -->
<g id="edge16" class="edge"><title>Node14&#45;&gt;Node13</title>
<path fill="none" stroke="midnightblue" d="M543.956,-460.843C521.196,-454.541 492.824,-443.112 475,-423 455.038,-400.475 456,-388.098 456,-358 456,-358 456,-358 456,-182.5 456,-148.362 456.442,-108.551 456.739,-85.7087"/>
<polygon fill="midnightblue" stroke="midnightblue" points="460.238,-85.7394 456.873,-75.6932 453.239,-85.6451 460.238,-85.7394"/>
</g>
<!-- Node15 -->
<g id="node15" class="node"><title>Node15</title>
<polygon fill="none" stroke="#bfbfbf" points="484,-403.5 484,-422.5 570,-422.5 570,-403.5 484,-403.5"/>
<text text-anchor="middle" x="527" y="-410.5" font-family="Helvetica,sans-Serif" font-size="10.00">SDL2/SDL_ttf.h</text>
</g>
<!-- Node14&#45;&gt;Node15 -->
<g id="edge17" class="edge"><title>Node14&#45;&gt;Node15</title>
<path fill="none" stroke="midnightblue" d="M571.248,-459.083C563.53,-451.22 552.095,-439.569 542.783,-430.081"/>
<polygon fill="midnightblue" stroke="midnightblue" points="545.092,-427.436 535.589,-422.751 540.096,-432.34 545.092,-427.436"/>
</g>
<!-- Node16 -->
<g id="node16" class="node"><title>Node16</title>
<g id="a_node16"><a xlink:href="_display_8h.html" target="_top" xlink:title="../Display.h">
<polygon fill="none" stroke="black" points="740.5,-291.5 740.5,-310.5 807.5,-310.5 807.5,-291.5 740.5,-291.5"/>
<text text-anchor="middle" x="774" y="-298.5" font-family="Helvetica,sans-Serif" font-size="10.00">../Display.h</text>
</a>
</g>
</g>
<!-- Node14&#45;&gt;Node16 -->
<g id="edge18" class="edge"><title>Node14&#45;&gt;Node16</title>
<path fill="none" stroke="midnightblue" d="M616.164,-464.844C671.027,-457.884 773.685,-435.861 819,-367 830.501,-349.523 812.352,-329.814 795.784,-316.727"/>
<polygon fill="midnightblue" stroke="midnightblue" points="797.548,-313.678 787.43,-310.534 793.379,-319.301 797.548,-313.678"/>
</g>
<!-- Node25 -->
<g id="node25" class="node"><title>Node25</title>
<g id="a_node25"><a xlink:href="_res_8h.html" target="_top" xlink:title="../Res.h">
<polygon fill="none" stroke="black" points="879,-403.5 879,-422.5 931,-422.5 931,-403.5 879,-403.5"/>
<text text-anchor="middle" x="905" y="-410.5" font-family="Helvetica,sans-Serif" font-size="10.00">../Res.h</text>
</a>
</g>
</g>
<!-- Node14&#45;&gt;Node25 -->
<g id="edge32" class="edge"><title>Node14&#45;&gt;Node25</title>
<path fill="none" stroke="midnightblue" d="M616.087,-462.08C668.187,-453.521 767.502,-437.164 852,-423 857.465,-422.084 863.246,-421.109 868.903,-420.151"/>
<polygon fill="midnightblue" stroke="midnightblue" points="869.581,-423.586 878.855,-418.462 868.41,-416.684 869.581,-423.586"/>
</g>
<!-- Node28 -->
<g id="node28" class="node"><title>Node28</title>
<g id="a_node28"><a xlink:href="_ui_view_model_8h.html" target="_top" xlink:title="../UiViewModel.h">
<polygon fill="none" stroke="black" points="588,-403.5 588,-422.5 680,-422.5 680,-403.5 588,-403.5"/>
<text text-anchor="middle" x="634" y="-410.5" font-family="Helvetica,sans-Serif" font-size="10.00">../UiViewModel.h</text>
</a>
</g>
</g>
<!-- Node14&#45;&gt;Node28 -->
<g id="edge36" class="edge"><title>Node14&#45;&gt;Node28</title>
<path fill="none" stroke="midnightblue" d="M588.917,-459.083C596.78,-451.22 608.431,-439.569 617.919,-430.081"/>
<polygon fill="midnightblue" stroke="midnightblue" points="620.653,-432.297 625.249,-422.751 615.703,-427.347 620.653,-432.297"/>
</g>
<!-- Node17 -->
<g id="node17" class="node"><title>Node17</title>
<g id="a_node17"><a xlink:href="_vec_8h.html" target="_top" xlink:title="../Vec.h">
<polygon fill="none" stroke="black" points="666.5,-174 666.5,-193 717.5,-193 717.5,-174 666.5,-174"/>
<text text-anchor="middle" x="692" y="-181" font-family="Helvetica,sans-Serif" font-size="10.00">../Vec.h</text>
</a>
</g>
</g>
<!-- Node16&#45;&gt;Node17 -->
<g id="edge19" class="edge"><title>Node16&#45;&gt;Node17</title>
<path fill="none" stroke="midnightblue" d="M773.666,-291.283C772.783,-278.085 769.583,-252.698 758,-235 747.954,-219.65 731.606,-207.091 717.694,-198.336"/>
<polygon fill="midnightblue" stroke="midnightblue" points="719.375,-195.263 708.995,-193.141 715.786,-201.273 719.375,-195.263"/>
</g>
<!-- Node18 -->
<g id="node18" class="node"><title>Node18</title>
<g id="a_node18"><a xlink:href="_styles_8h.html" target="_top" xlink:title="Styles.h">
<polygon fill="none" stroke="black" points="806.5,-235.5 806.5,-254.5 859.5,-254.5 859.5,-235.5 806.5,-235.5"/>
<text text-anchor="middle" x="833" y="-242.5" font-family="Helvetica,sans-Serif" font-size="10.00">Styles.h</text>
</a>
</g>
</g>
<!-- Node16&#45;&gt;Node18 -->
<g id="edge20" class="edge"><title>Node16&#45;&gt;Node18</title>
<path fill="none" stroke="midnightblue" d="M783.479,-291.324C792.201,-283.341 805.343,-271.313 815.898,-261.653"/>
<polygon fill="midnightblue" stroke="midnightblue" points="818.334,-264.167 823.348,-254.834 813.608,-259.004 818.334,-264.167"/>
</g>
<!-- Node23 -->
<g id="node23" class="node"><title>Node23</title>
<g id="a_node23"><a xlink:href="_ui_layout_flags_8h.html" target="_top" xlink:title="UiLayoutFlags.h">
<polygon fill="none" stroke="black" points="522,-235.5 522,-254.5 610,-254.5 610,-235.5 522,-235.5"/>
<text text-anchor="middle" x="566" y="-242.5" font-family="Helvetica,sans-Serif" font-size="10.00">UiLayoutFlags.h</text>
</a>
</g>
</g>
<!-- Node16&#45;&gt;Node23 -->
<g id="edge29" class="edge"><title>Node16&#45;&gt;Node23</title>
<path fill="none" stroke="midnightblue" d="M741.042,-291.444C705.213,-282.142 647.837,-267.246 608.609,-257.062"/>
<polygon fill="midnightblue" stroke="midnightblue" points="609.363,-253.642 598.804,-254.516 607.604,-260.417 609.363,-253.642"/>
</g>
<!-- Node24 -->
<g id="node24" class="node"><title>Node24</title>
<g id="a_node24"><a xlink:href="_view_attacher_8h.html" target="_top" xlink:title="ViewAttacher.h">
<polygon fill="none" stroke="black" points="666.5,-235.5 666.5,-254.5 749.5,-254.5 749.5,-235.5 666.5,-235.5"/>
<text text-anchor="middle" x="708" y="-242.5" font-family="Helvetica,sans-Serif" font-size="10.00">ViewAttacher.h</text>
</a>
</g>
</g>
<!-- Node16&#45;&gt;Node24 -->
<g id="edge31" class="edge"><title>Node16&#45;&gt;Node24</title>
<path fill="none" stroke="midnightblue" d="M763.396,-291.324C753.544,-283.263 738.649,-271.077 726.785,-261.369"/>
<polygon fill="midnightblue" stroke="midnightblue" points="728.753,-258.457 718.797,-254.834 724.32,-263.875 728.753,-258.457"/>
</g>
<!-- Node18&#45;&gt;Node17 -->
<g id="edge21" class="edge"><title>Node18&#45;&gt;Node17</title>
<path fill="none" stroke="midnightblue" d="M812.798,-235.475C788.926,-225.401 748.998,-208.553 721.627,-197.002"/>
<polygon fill="midnightblue" stroke="midnightblue" points="722.738,-193.672 712.164,-193.009 720.017,-200.122 722.738,-193.672"/>
</g>
<!-- Node19 -->
<g id="node19" class="node"><title>Node19</title>
<g id="a_node19"><a xlink:href="_ui_font_8h.html" target="_top" xlink:title="UiFont.h">
<polygon fill="none" stroke="black" points="736,-174 736,-193 790,-193 790,-174 736,-174"/>
<text text-anchor="middle" x="763" y="-181" font-family="Helvetica,sans-Serif" font-size="10.00">UiFont.h</text>
</a>
</g>
</g>
<!-- Node18&#45;&gt;Node19 -->
<g id="edge22" class="edge"><title>Node18&#45;&gt;Node19</title>
<path fill="none" stroke="midnightblue" d="M822.971,-235.475C811.951,-226.108 794.04,-210.884 780.657,-199.508"/>
<polygon fill="midnightblue" stroke="midnightblue" points="782.897,-196.819 773.011,-193.009 778.363,-202.152 782.897,-196.819"/>
</g>
<!-- Node22 -->
<g id="node22" class="node"><title>Node22</title>
<g id="a_node22"><a xlink:href="_color_8h.html" target="_top" xlink:title="Color.h">
<polygon fill="none" stroke="black" points="809,-174 809,-193 857,-193 857,-174 809,-174"/>
<text text-anchor="middle" x="833" y="-181" font-family="Helvetica,sans-Serif" font-size="10.00">Color.h</text>
</a>
</g>
</g>
<!-- Node18&#45;&gt;Node22 -->
<g id="edge26" class="edge"><title>Node18&#45;&gt;Node22</title>
<path fill="none" stroke="midnightblue" d="M833,-235.475C833,-227.08 833,-213.981 833,-203.163"/>
<polygon fill="midnightblue" stroke="midnightblue" points="836.5,-203.009 833,-193.009 829.5,-203.009 836.5,-203.009"/>
</g>
<!-- Node20 -->
<g id="node20" class="node"><title>Node20</title>
<g id="a_node20"><a xlink:href="_hash_8h.html" target="_top" xlink:title="../Util/Hash.h">
<polygon fill="none" stroke="black" points="628.5,-112.5 628.5,-131.5 703.5,-131.5 703.5,-112.5 628.5,-112.5"/>
<text text-anchor="middle" x="666" y="-119.5" font-family="Helvetica,sans-Serif" font-size="10.00">../Util/Hash.h</text>
</a>
</g>
</g>
<!-- Node19&#45;&gt;Node20 -->
<g id="edge23" class="edge"><title>Node19&#45;&gt;Node20</title>
<path fill="none" stroke="midnightblue" d="M749.102,-173.975C733.328,-164.299 707.363,-148.372 688.651,-136.894"/>
<polygon fill="midnightblue" stroke="midnightblue" points="690.226,-133.754 679.872,-131.509 686.566,-139.721 690.226,-133.754"/>
</g>
<!-- Node21 -->
<g id="node21" class="node"><title>Node21</title>
<g id="a_node21"><a xlink:href="_sel_fmt_8h.html" target="_top" xlink:title="../Util/SelFmt.h">
<polygon fill="none" stroke="black" points="721.5,-112.5 721.5,-131.5 804.5,-131.5 804.5,-112.5 721.5,-112.5"/>
<text text-anchor="middle" x="763" y="-119.5" font-family="Helvetica,sans-Serif" font-size="10.00">../Util/SelFmt.h</text>
</a>
</g>
</g>
<!-- Node19&#45;&gt;Node21 -->
<g id="edge24" class="edge"><title>Node19&#45;&gt;Node21</title>
<path fill="none" stroke="midnightblue" d="M763,-173.975C763,-165.58 763,-152.481 763,-141.663"/>
<polygon fill="midnightblue" stroke="midnightblue" points="766.5,-141.509 763,-131.509 759.5,-141.509 766.5,-141.509"/>
</g>
<!-- Node21&#45;&gt;Node3 -->
<g id="edge25" class="edge"><title>Node21&#45;&gt;Node3</title>
<path fill="none" stroke="midnightblue" d="M731.151,-112.444C696.602,-103.162 641.318,-88.3093 603.417,-78.127"/>
<polygon fill="midnightblue" stroke="midnightblue" points="604.266,-74.7309 593.7,-75.5164 602.449,-81.4912 604.266,-74.7309"/>
</g>
<!-- Node22&#45;&gt;Node3 -->
<g id="edge27" class="edge"><title>Node22&#45;&gt;Node3</title>
<path fill="none" stroke="midnightblue" d="M833.269,-173.618C833.205,-158.55 830.729,-128.055 813,-112 785.628,-87.2125 687.34,-75.6213 622.187,-70.5537"/>
<polygon fill="midnightblue" stroke="midnightblue" points="622.263,-67.0498 612.03,-69.7954 621.742,-74.0303 622.263,-67.0498"/>
</g>
<!-- Node22&#45;&gt;Node21 -->
<g id="edge28" class="edge"><title>Node22&#45;&gt;Node21</title>
<path fill="none" stroke="midnightblue" d="M822.971,-173.975C811.951,-164.608 794.04,-149.384 780.657,-138.008"/>
<polygon fill="midnightblue" stroke="midnightblue" points="782.897,-135.319 773.011,-131.509 778.363,-140.652 782.897,-135.319"/>
</g>
<!-- Node23&#45;&gt;Node3 -->
<g id="edge30" class="edge"><title>Node23&#45;&gt;Node3</title>
<path fill="none" stroke="midnightblue" d="M565.807,-235.463C565.196,-208.428 563.294,-124.239 562.432,-86.109"/>
<polygon fill="midnightblue" stroke="midnightblue" points="565.926,-85.7867 562.2,-75.8684 558.927,-85.9449 565.926,-85.7867"/>
</g>
<!-- Node25&#45;&gt;Node3 -->
<g id="edge33" class="edge"><title>Node25&#45;&gt;Node3</title>
<path fill="none" stroke="midnightblue" d="M917.088,-403.312C927.712,-395.083 942.865,-381.806 952,-367 967.871,-341.277 972,-332.225 972,-302 972,-302 972,-302 972,-182.5 972,-110.715 736.204,-81.3827 622.249,-71.3983"/>
<polygon fill="midnightblue" stroke="midnightblue" points="622.536,-67.9101 612.274,-70.5465 621.94,-74.8848 622.536,-67.9101"/>
</g>
<!-- Node26 -->
<g id="node26" class="node"><title>Node26</title>
<g id="a_node26"><a xlink:href="_exception_8h.html" target="_top" xlink:title="../Exception.h">
<polygon fill="none" stroke="black" points="866.5,-347.5 866.5,-366.5 943.5,-366.5 943.5,-347.5 866.5,-347.5"/>
<text text-anchor="middle" x="905" y="-354.5" font-family="Helvetica,sans-Serif" font-size="10.00">../Exception.h</text>
</a>
</g>
</g>
<!-- Node25&#45;&gt;Node26 -->
<g id="edge34" class="edge"><title>Node25&#45;&gt;Node26</title>
<path fill="none" stroke="midnightblue" d="M905,-403.083C905,-396.006 905,-385.861 905,-376.986"/>
<polygon fill="midnightblue" stroke="midnightblue" points="908.5,-376.751 905,-366.751 901.5,-376.751 908.5,-376.751"/>
</g>
<!-- Node27 -->
<g id="node27" class="node"><title>Node27</title>
<polygon fill="none" stroke="#bfbfbf" points="875.5,-291.5 875.5,-310.5 934.5,-310.5 934.5,-291.5 875.5,-291.5"/>
<text text-anchor="middle" x="905" y="-298.5" font-family="Helvetica,sans-Serif" font-size="10.00">exception</text>
</g>
<!-- Node26&#45;&gt;Node27 -->
<g id="edge35" class="edge"><title>Node26&#45;&gt;Node27</title>
<path fill="none" stroke="midnightblue" d="M905,-347.083C905,-340.006 905,-329.861 905,-320.986"/>
<polygon fill="midnightblue" stroke="midnightblue" points="908.5,-320.751 905,-310.751 901.5,-320.751 908.5,-320.751"/>
</g>
<!-- Node28&#45;&gt;Node3 -->
<g id="edge38" class="edge"><title>Node28&#45;&gt;Node3</title>
<path fill="none" stroke="midnightblue" d="M604.651,-403.499C563.599,-389.594 494,-357.794 494,-302 494,-302 494,-302 494,-182.5 494,-142.237 525.065,-103.636 545.202,-82.8445"/>
<polygon fill="midnightblue" stroke="midnightblue" points="547.921,-85.0765 552.545,-75.5439 542.986,-80.1125 547.921,-85.0765"/>
</g>
<!-- Node28&#45;&gt;Node17 -->
<g id="edge39" class="edge"><title>Node28&#45;&gt;Node17</title>
<path fill="none" stroke="midnightblue" d="M631.113,-403.298C624.872,-383.137 611.576,-331.83 623,-291 632.98,-255.331 659.611,-220.58 676.718,-200.924"/>
<polygon fill="midnightblue" stroke="midnightblue" points="679.539,-203.02 683.602,-193.236 674.324,-198.351 679.539,-203.02"/>
</g>
<!-- Node28&#45;&gt;Node23 -->
<g id="edge40" class="edge"><title>Node28&#45;&gt;Node23</title>
<path fill="none" stroke="midnightblue" d="M622.347,-403.351C612.174,-395.147 597.845,-381.886 590,-367 572.589,-333.961 567.762,-289.788 566.454,-264.98"/>
<polygon fill="midnightblue" stroke="midnightblue" points="569.943,-264.63 566.061,-254.772 562.948,-264.899 569.943,-264.63"/>
</g>
<!-- Node29 -->
<g id="node29" class="node"><title>Node29</title>
<g id="a_node29"><a xlink:href="_nav_8h.html" target="_top" xlink:title="../Control/Nav.h">
<polygon fill="none" stroke="black" points="724,-347.5 724,-366.5 810,-366.5 810,-347.5 724,-347.5"/>
<text text-anchor="middle" x="767" y="-354.5" font-family="Helvetica,sans-Serif" font-size="10.00">../Control/Nav.h</text>
</a>
</g>
</g>
<!-- Node28&#45;&gt;Node29 -->
<g id="edge37" class="edge"><title>Node28&#45;&gt;Node29</title>
<path fill="none" stroke="midnightblue" d="M655.074,-403.444C677.06,-394.517 711.734,-380.439 736.664,-370.317"/>
<polygon fill="midnightblue" stroke="midnightblue" points="738.076,-373.521 746.024,-366.516 735.442,-367.035 738.076,-373.521"/>
</g>
<!-- Node30 -->
<g id="node30" class="node"><title>Node30</title>
<g id="a_node30"><a xlink:href="_view_model_8h.html" target="_top" xlink:title="ViewModel.h">
<polygon fill="none" stroke="black" points="632.5,-347.5 632.5,-366.5 705.5,-366.5 705.5,-347.5 632.5,-347.5"/>
<text text-anchor="middle" x="669" y="-354.5" font-family="Helvetica,sans-Serif" font-size="10.00">ViewModel.h</text>
</a>
</g>
</g>
<!-- Node28&#45;&gt;Node30 -->
<g id="edge41" class="edge"><title>Node28&#45;&gt;Node30</title>
<path fill="none" stroke="midnightblue" d="M639.78,-403.083C644.672,-395.534 651.827,-384.495 657.833,-375.23"/>
<polygon fill="midnightblue" stroke="midnightblue" points="660.826,-377.046 663.328,-366.751 654.952,-373.239 660.826,-377.046"/>
</g>
<!-- Node30&#45;&gt;Node16 -->
<g id="edge42" class="edge"><title>Node30&#45;&gt;Node16</title>
<path fill="none" stroke="midnightblue" d="M685.87,-347.324C702.709,-338.664 728.807,-325.242 748.238,-315.249"/>
<polygon fill="midnightblue" stroke="midnightblue" points="749.88,-318.341 757.172,-310.655 746.678,-312.116 749.88,-318.341"/>
</g>
<!-- Node30&#45;&gt;Node24 -->
<g id="edge44" class="edge"><title>Node30&#45;&gt;Node24</title>
<path fill="none" stroke="midnightblue" d="M672.904,-347.476C676.941,-338.501 683.302,-323.91 688,-311 693.678,-295.398 699.153,-277.323 702.934,-264.2"/>
<polygon fill="midnightblue" stroke="midnightblue" points="706.323,-265.08 705.68,-254.504 699.588,-263.172 706.323,-265.08"/>
</g>
<!-- Node31 -->
<g id="node31" class="node"><title>Node31</title>
<g id="a_node31"><a xlink:href="_view_8h.html" target="_top" xlink:title="View.h">
<polygon fill="none" stroke="black" points="632.5,-291.5 632.5,-310.5 679.5,-310.5 679.5,-291.5 632.5,-291.5"/>
<text text-anchor="middle" x="656" y="-298.5" font-family="Helvetica,sans-Serif" font-size="10.00">View.h</text>
</a>
</g>
</g>
<!-- Node30&#45;&gt;Node31 -->
<g id="edge43" class="edge"><title>Node30&#45;&gt;Node31</title>
<path fill="none" stroke="midnightblue" d="M666.853,-347.083C665.131,-339.927 662.653,-329.635 660.5,-320.691"/>
<polygon fill="midnightblue" stroke="midnightblue" points="663.85,-319.654 658.107,-310.751 657.045,-321.293 663.85,-319.654"/>
</g>
</g>
</svg>
