<?xml version="1.0" encoding="UTF-8" standalone="no"?>
<!DOCTYPE svg PUBLIC "-//W3C//DTD SVG 1.1//EN"
 "http://www.w3.org/Graphics/SVG/1.1/DTD/svg11.dtd">
<!-- Generated by graphviz version 2.38.0 (20140413.2041)
 -->
<!-- Title: SdlTexture.h Pages: 1 -->
<!--zoomable 140 -->
<svg id="main" version="1.1" xmlns="http://www.w3.org/2000/svg" xmlns:xlink="http://www.w3.org/1999/xlink" xml:space="preserve" onload="init(evt)">
<style type="text/css"><![CDATA[
.edge:hover path { stroke: red; }
.edge:hover polygon { stroke: red; fill: red; }
]]></style>
<script type="text/javascript"><![CDATA[
var edges = document.getElementsByTagName('g');
if (edges && edges.length) {
  for (var i=0;i<edges.length;i++) {
    if (edges[i].id.substr(0,4)=='edge') {
      edges[i].setAttribute('class','edge');
    }
  }
}
]]></script>
        <defs>
                <circle id="rim" cx="0" cy="0" r="7"/>
                <circle id="rim2" cx="0" cy="0" r="3.5"/>
                <g id="zoomPlus">
                        <use xlink:href="#rim" fill="#404040">
                                <set attributeName="fill" to="#808080" begin="zoomplus.mouseover" end="zoomplus.mouseout"/>
                        </use>
                        <path d="M-4,0h8M0,-4v8" fill="none" stroke="white" stroke-width="1.5" pointer-events="none"/>
                </g>
                <g id="zoomMin">
                        <use xlink:href="#rim" fill="#404040">
                                <set attributeName="fill" to="#808080" begin="zoomminus.mouseover" end="zoomminus.mouseout"/>
                        </use>
                        <path d="M-4,0h8" fill="none" stroke="white" stroke-width="1.5" pointer-events="none"/>
                </g>
                <g id="dirArrow">
                        <path fill="none" stroke="white" stroke-width="1.5" d="M0,-3.0v7 M-2.5,-0.5L0,-3.0L2.5,-0.5"/>
                </g>
               <g id="resetDef">
                       <use xlink:href="#rim2" fill="#404040">
                               <set attributeName="fill" to="#808080" begin="reset.mouseover" end="reset.mouseout"/>
                       </use>
               </g>
        </defs>

<script type="text/javascript">
var viewWidth = 928;
var viewHeight = 140;
var sectionId = 'dynsection-1';
</script>
<script xlink:href="svgpan.js"/>
<svg id="graph" class="graph">
<g id="viewport">
<title>SdlTexture.h</title>
<!-- Node1 -->
<g id="node1" class="node"><title>Node1</title>
<polygon fill="#bfbfbf" stroke="black" points="380,-112.5 380,-131.5 452,-131.5 452,-112.5 380,-112.5"/>
<text text-anchor="middle" x="416" y="-119.5" font-family="Helvetica,sans-Serif" font-size="10.00">SdlTexture.h</text>
</g>
<!-- Node2 -->
<g id="node2" class="node"><title>Node2</title>
<g id="a_node2"><a xlink:href="_sdl_base_container_view_8cpp.html" target="_top" xlink:title="SdlBaseContainerView.cpp">
<polygon fill="none" stroke="black" points="0,-56.5 0,-75.5 136,-75.5 136,-56.5 0,-56.5"/>
<text text-anchor="middle" x="68" y="-63.5" font-family="Helvetica,sans-Serif" font-size="10.00">SdlBaseContainerView.cpp</text>
</a>
</g>
</g>
<!-- Node1&#45;&gt;Node2 -->
<g id="edge1" class="edge"><title>Node1&#45;&gt;Node2</title>
<path fill="none" stroke="midnightblue" d="M369.569,-113.795C305.723,-103.888 191.015,-86.0885 122.964,-75.5289"/>
<polygon fill="midnightblue" stroke="midnightblue" points="369.324,-117.299 379.743,-115.374 370.398,-110.382 369.324,-117.299"/>
</g>
<!-- Node3 -->
<g id="node3" class="node"><title>Node3</title>
<g id="a_node3"><a xlink:href="_sdl_keycap_icon_view_8h.html" target="_top" xlink:title="SdlKeycapIconView.h">
<polygon fill="none" stroke="black" points="425.5,-56.5 425.5,-75.5 538.5,-75.5 538.5,-56.5 425.5,-56.5"/>
<text text-anchor="middle" x="482" y="-63.5" font-family="Helvetica,sans-Serif" font-size="10.00">SdlKeycapIconView.h</text>
</a>
</g>
</g>
<!-- Node1&#45;&gt;Node3 -->
<g id="edge2" class="edge"><title>Node1&#45;&gt;Node3</title>
<path fill="none" stroke="midnightblue" d="M434.554,-105.82C446.378,-96.1452 461.286,-83.9481 471.203,-75.8339"/>
<polygon fill="midnightblue" stroke="midnightblue" points="432.127,-103.283 426.604,-112.324 436.56,-108.7 432.127,-103.283"/>
</g>
<!-- Node4 -->
<g id="node4" class="node"><title>Node4</title>
<g id="a_node4"><a xlink:href="_sdl_display_8cpp.html" target="_top" xlink:title="SdlDisplay.cpp">
<polygon fill="none" stroke="black" points="188.5,-0.5 188.5,-19.5 271.5,-19.5 271.5,-0.5 188.5,-0.5"/>
<text text-anchor="middle" x="230" y="-7.5" font-family="Helvetica,sans-Serif" font-size="10.00">SdlDisplay.cpp</text>
</a>
</g>
</g>
<!-- Node1&#45;&gt;Node4 -->
<g id="edge11" class="edge"><title>Node1&#45;&gt;Node4</title>
<path fill="none" stroke="midnightblue" d="M370.05,-111.4C343.859,-104.445 311.318,-93.1892 286,-76 263.325,-60.6053 244.316,-33.7614 235.416,-19.8794"/>
<polygon fill="midnightblue" stroke="midnightblue" points="369.195,-114.794 379.748,-113.859 370.915,-108.009 369.195,-114.794"/>
</g>
<!-- Node6 -->
<g id="node6" class="node"><title>Node6</title>
<g id="a_node6"><a xlink:href="_sdl_label_view_8h.html" target="_top" xlink:title="SdlLabelView.h">
<polygon fill="none" stroke="black" points="154,-56.5 154,-75.5 238,-75.5 238,-56.5 154,-56.5"/>
<text text-anchor="middle" x="196" y="-63.5" font-family="Helvetica,sans-Serif" font-size="10.00">SdlLabelView.h</text>
</a>
</g>
</g>
<!-- Node1&#45;&gt;Node6 -->
<g id="edge5" class="edge"><title>Node1&#45;&gt;Node6</title>
<path fill="none" stroke="midnightblue" d="M371.282,-110.024C329.724,-99.8232 268.687,-84.8414 230.697,-75.5164"/>
<polygon fill="midnightblue" stroke="midnightblue" points="370.594,-113.459 381.14,-112.444 372.263,-106.661 370.594,-113.459"/>
</g>
<!-- Node8 -->
<g id="node8" class="node"><title>Node8</title>
<g id="a_node8"><a xlink:href="_sdl_symbol_icon_view_8h.html" target="_top" xlink:title="SdlSymbolIconView.h">
<polygon fill="none" stroke="black" points="294.5,-56.5 294.5,-75.5 407.5,-75.5 407.5,-56.5 294.5,-56.5"/>
<text text-anchor="middle" x="351" y="-63.5" font-family="Helvetica,sans-Serif" font-size="10.00">SdlSymbolIconView.h</text>
</a>
</g>
</g>
<!-- Node1&#45;&gt;Node8 -->
<g id="edge8" class="edge"><title>Node1&#45;&gt;Node8</title>
<path fill="none" stroke="midnightblue" d="M397.727,-105.82C386.082,-96.1452 371.401,-83.9481 361.633,-75.8339"/>
<polygon fill="midnightblue" stroke="midnightblue" points="395.628,-108.626 405.557,-112.324 400.101,-103.242 395.628,-108.626"/>
</g>
<!-- Node10 -->
<g id="node10" class="node"><title>Node10</title>
<g id="a_node10"><a xlink:href="_sdl_dynamic_texture_8h.html" target="_top" xlink:title="SdlDynamicTexture.h">
<polygon fill="none" stroke="black" points="556.5,-56.5 556.5,-75.5 667.5,-75.5 667.5,-56.5 556.5,-56.5"/>
<text text-anchor="middle" x="612" y="-63.5" font-family="Helvetica,sans-Serif" font-size="10.00">SdlDynamicTexture.h</text>
</a>
</g>
</g>
<!-- Node1&#45;&gt;Node10 -->
<g id="edge12" class="edge"><title>Node1&#45;&gt;Node10</title>
<path fill="none" stroke="midnightblue" d="M457.02,-109.699C494.011,-99.507 547.6,-84.7429 581.089,-75.5164"/>
<polygon fill="midnightblue" stroke="midnightblue" points="455.768,-106.413 447.057,-112.444 457.627,-113.162 455.768,-106.413"/>
</g>
<!-- Node13 -->
<g id="node13" class="node"><title>Node13</title>
<g id="a_node13"><a xlink:href="_sdl_picture_view_8cpp.html" target="_top" xlink:title="SdlPictureView.cpp">
<polygon fill="none" stroke="black" points="685,-56.5 685,-75.5 787,-75.5 787,-56.5 685,-56.5"/>
<text text-anchor="middle" x="736" y="-63.5" font-family="Helvetica,sans-Serif" font-size="10.00">SdlPictureView.cpp</text>
</a>
</g>
</g>
<!-- Node1&#45;&gt;Node13 -->
<g id="edge15" class="edge"><title>Node1&#45;&gt;Node13</title>
<path fill="none" stroke="midnightblue" d="M462.297,-113.187C521.687,-103.165 624.323,-85.8455 685.62,-75.5017"/>
<polygon fill="midnightblue" stroke="midnightblue" points="461.364,-109.795 452.086,-114.91 462.529,-116.698 461.364,-109.795"/>
</g>
<!-- Node14 -->
<g id="node14" class="node"><title>Node14</title>
<g id="a_node14"><a xlink:href="_sdl_wallpaper_view_8cpp.html" target="_top" xlink:title="SdlWallpaperView.cpp">
<polygon fill="none" stroke="black" points="804.5,-56.5 804.5,-75.5 919.5,-75.5 919.5,-56.5 804.5,-56.5"/>
<text text-anchor="middle" x="862" y="-63.5" font-family="Helvetica,sans-Serif" font-size="10.00">SdlWallpaperView.cpp</text>
</a>
</g>
</g>
<!-- Node1&#45;&gt;Node14 -->
<g id="edge16" class="edge"><title>Node1&#45;&gt;Node14</title>
<path fill="none" stroke="midnightblue" d="M462.216,-115.793C533.782,-107.671 675.716,-91.3221 796,-76 798.753,-75.6493 801.57,-75.2852 804.415,-74.9134"/>
<polygon fill="midnightblue" stroke="midnightblue" points="461.721,-112.327 452.178,-116.931 462.509,-119.283 461.721,-112.327"/>
</g>
<!-- Node3&#45;&gt;Node4 -->
<g id="edge3" class="edge"><title>Node3&#45;&gt;Node4</title>
<path fill="none" stroke="midnightblue" d="M432.279,-54.3456C384.656,-44.1405 313.72,-28.94 269.743,-19.5164"/>
<polygon fill="midnightblue" stroke="midnightblue" points="431.558,-57.7705 442.07,-56.4435 433.025,-50.9259 431.558,-57.7705"/>
</g>
<!-- Node5 -->
<g id="node5" class="node"><title>Node5</title>
<g id="a_node5"><a xlink:href="_sdl_keycap_icon_view_8cpp.html" target="_top" xlink:title="SdlKeycapIconView.cpp">
<polygon fill="none" stroke="black" points="430.5,-0.5 430.5,-19.5 553.5,-19.5 553.5,-0.5 430.5,-0.5"/>
<text text-anchor="middle" x="492" y="-7.5" font-family="Helvetica,sans-Serif" font-size="10.00">SdlKeycapIconView.cpp</text>
</a>
</g>
</g>
<!-- Node3&#45;&gt;Node5 -->
<g id="edge4" class="edge"><title>Node3&#45;&gt;Node5</title>
<path fill="none" stroke="midnightblue" d="M485.5,-46.1005C487.16,-37.1357 489.063,-26.8579 490.379,-19.7511"/>
<polygon fill="midnightblue" stroke="midnightblue" points="482.031,-45.6128 483.651,-56.083 488.914,-46.8875 482.031,-45.6128"/>
</g>
<!-- Node6&#45;&gt;Node4 -->
<g id="edge6" class="edge"><title>Node6&#45;&gt;Node4</title>
<path fill="none" stroke="midnightblue" d="M206.977,-47.5656C212.827,-38.2747 219.77,-27.2484 224.49,-19.7511"/>
<polygon fill="midnightblue" stroke="midnightblue" points="203.981,-45.7558 201.614,-56.083 209.904,-49.4855 203.981,-45.7558"/>
</g>
<!-- Node7 -->
<g id="node7" class="node"><title>Node7</title>
<g id="a_node7"><a xlink:href="_sdl_label_view_8cpp.html" target="_top" xlink:title="SdlLabelView.cpp">
<polygon fill="none" stroke="black" points="75.5,-0.5 75.5,-19.5 170.5,-19.5 170.5,-0.5 75.5,-0.5"/>
<text text-anchor="middle" x="123" y="-7.5" font-family="Helvetica,sans-Serif" font-size="10.00">SdlLabelView.cpp</text>
</a>
</g>
</g>
<!-- Node6&#45;&gt;Node7 -->
<g id="edge7" class="edge"><title>Node6&#45;&gt;Node7</title>
<path fill="none" stroke="midnightblue" d="M175.858,-50.1008C162.721,-40.3824 146.018,-28.0269 134.942,-19.8339"/>
<polygon fill="midnightblue" stroke="midnightblue" points="174.15,-53.1907 184.271,-56.324 178.313,-47.5631 174.15,-53.1907"/>
</g>
<!-- Node8&#45;&gt;Node4 -->
<g id="edge9" class="edge"><title>Node8&#45;&gt;Node4</title>
<path fill="none" stroke="midnightblue" d="M322.694,-52.3678C300.035,-42.2553 268.874,-28.3486 249.083,-19.5164"/>
<polygon fill="midnightblue" stroke="midnightblue" points="321.269,-55.5643 331.827,-56.4435 324.122,-49.1719 321.269,-55.5643"/>
</g>
<!-- Node9 -->
<g id="node9" class="node"><title>Node9</title>
<g id="a_node9"><a xlink:href="_sdl_symbol_icon_view_8cpp.html" target="_top" xlink:title="SdlSymbolIconView.cpp">
<polygon fill="none" stroke="black" points="289.5,-0.5 289.5,-19.5 412.5,-19.5 412.5,-0.5 289.5,-0.5"/>
<text text-anchor="middle" x="351" y="-7.5" font-family="Helvetica,sans-Serif" font-size="10.00">SdlSymbolIconView.cpp</text>
</a>
</g>
</g>
<!-- Node8&#45;&gt;Node9 -->
<g id="edge10" class="edge"><title>Node8&#45;&gt;Node9</title>
<path fill="none" stroke="midnightblue" d="M351,-45.8045C351,-36.9102 351,-26.7798 351,-19.7511"/>
<polygon fill="midnightblue" stroke="midnightblue" points="347.5,-46.083 351,-56.083 354.5,-46.083 347.5,-46.083"/>
</g>
<!-- Node11 -->
<g id="node11" class="node"><title>Node11</title>
<g id="a_node11"><a xlink:href="_sdl_dynamic_texture_8cpp.html" target="_top" xlink:title="SdlDynamicTexture.cpp">
<polygon fill="none" stroke="black" points="572,-0.5 572,-19.5 694,-19.5 694,-0.5 572,-0.5"/>
<text text-anchor="middle" x="633" y="-7.5" font-family="Helvetica,sans-Serif" font-size="10.00">SdlDynamicTexture.cpp</text>
</a>
</g>
</g>
<!-- Node10&#45;&gt;Node11 -->
<g id="edge13" class="edge"><title>Node10&#45;&gt;Node11</title>
<path fill="none" stroke="midnightblue" d="M619.121,-46.6897C622.66,-37.589 626.772,-27.0141 629.597,-19.7511"/>
<polygon fill="midnightblue" stroke="midnightblue" points="615.83,-45.4944 615.468,-56.083 622.354,-48.0315 615.83,-45.4944"/>
</g>
<!-- Node12 -->
<g id="node12" class="node"><title>Node12</title>
<g id="a_node12"><a xlink:href="_sdl_type_case_8cpp.html" target="_top" xlink:title="SdlTypeCase.cpp">
<polygon fill="none" stroke="black" points="712.5,-0.5 712.5,-19.5 807.5,-19.5 807.5,-0.5 712.5,-0.5"/>
<text text-anchor="middle" x="760" y="-7.5" font-family="Helvetica,sans-Serif" font-size="10.00">SdlTypeCase.cpp</text>
</a>
</g>
</g>
<!-- Node10&#45;&gt;Node12 -->
<g id="edge14" class="edge"><title>Node10&#45;&gt;Node12</title>
<path fill="none" stroke="midnightblue" d="M645.147,-52.9058C672.972,-42.7536 712.02,-28.5063 736.659,-19.5164"/>
<polygon fill="midnightblue" stroke="midnightblue" points="643.646,-49.7279 635.451,-56.4435 646.045,-56.3038 643.646,-49.7279"/>
</g>
</g>
</svg>
        <g id="navigator" transform="translate(0 0)" fill="#404254">
                <rect fill="#f2f5e9" fill-opacity="0.5" stroke="#606060" stroke-width=".5" x="0" y="0" width="60" height="60"/>
                <use id="zoomplus" xlink:href="#zoomPlus" x="17" y="9" onmousedown="handleZoom(evt,'in')"/>
                <use id="zoomminus" xlink:href="#zoomMin" x="42" y="9" onmousedown="handleZoom(evt,'out')"/>
                <use id="reset" xlink:href="#resetDef" x="30" y="36" onmousedown="handleReset()"/>
                <g id="arrowUp" xlink:href="#dirArrow" transform="translate(30 24)" onmousedown="handlePan(0,-1)">
                  <use xlink:href="#rim" fill="#404040">
                        <set attributeName="fill" to="#808080" begin="arrowUp.mouseover" end="arrowUp.mouseout"/>
                  </use>
                  <path fill="none" stroke="white" stroke-width="1.5" d="M0,-3.0v7 M-2.5,-0.5L0,-3.0L2.5,-0.5"/>
                </g>
                <g id="arrowRight" xlink:href="#dirArrow" transform="rotate(90) translate(36 -43)" onmousedown="handlePan(1,0)">
                  <use xlink:href="#rim" fill="#404040">
                        <set attributeName="fill" to="#808080" begin="arrowRight.mouseover" end="arrowRight.mouseout"/>
                  </use>
                  <path fill="none" stroke="white" stroke-width="1.5" d="M0,-3.0v7 M-2.5,-0.5L0,-3.0L2.5,-0.5"/>
                </g>
                <g id="arrowDown" xlink:href="#dirArrow" transform="rotate(180) translate(-30 -48)" onmousedown="handlePan(0,1)">
                  <use xlink:href="#rim" fill="#404040">
                        <set attributeName="fill" to="#808080" begin="arrowDown.mouseover" end="arrowDown.mouseout"/>
                  </use>
                  <path fill="none" stroke="white" stroke-width="1.5" d="M0,-3.0v7 M-2.5,-0.5L0,-3.0L2.5,-0.5"/>
                </g>
                <g id="arrowLeft" xlink:href="#dirArrow" transform="rotate(270) translate(-36 17)" onmousedown="handlePan(-1,0)">
                  <use xlink:href="#rim" fill="#404040">
                        <set attributeName="fill" to="#808080" begin="arrowLeft.mouseover" end="arrowLeft.mouseout"/>
                  </use>
                  <path fill="none" stroke="white" stroke-width="1.5" d="M0,-3.0v7 M-2.5,-0.5L0,-3.0L2.5,-0.5"/>
                </g>
        </g>
        <svg viewBox="0 0 15 15" width="100%" height="30px" preserveAspectRatio="xMaxYMin meet">
         <g id="arrow_out" transform="scale(0.3 0.3)">
          <a xlink:href="_sdl_texture_8h__dep__incl_org.svg" target="_base">
           <rect id="button" ry="5" rx="5" y="6" x="6" height="38" width="38"
                fill="#f2f5e9" fill-opacity="0.5" stroke="#606060" stroke-width="1.0"/>
           <path id="arrow"
             d="M 11.500037,31.436501 C 11.940474,20.09759 22.043105,11.32322 32.158766,21.979434 L 37.068811,17.246167 C 37.068811,17.246167 37.088388,32 37.088388,32 L 22.160133,31.978069 C 22.160133,31.978069 26.997745,27.140456 26.997745,27.140456 C 18.528582,18.264221 13.291696,25.230495 11.500037,31.436501 z"
             style="fill:#404040;"/>
          </a>
         </g>
        </svg>
</svg>
