<?xml version="1.0" encoding="UTF-8" standalone="no"?>
<!DOCTYPE svg PUBLIC "-//W3C//DTD SVG 1.1//EN"
 "http://www.w3.org/Graphics/SVG/1.1/DTD/svg11.dtd">
<!-- Generated by graphviz version 2.26.3 (20100126.1600)
 -->
<!-- Title: SdlSurfaceText.cpp Pages: 1 -->
<!--zoomable 610 -->
<svg id="main" version="1.1" xmlns="http://www.w3.org/2000/svg" xmlns:xlink="http://www.w3.org/1999/xlink" xml:space="preserve" onload="init(evt)">
<style type="text/css"><![CDATA[
.edge:hover path { stroke: red; }
.edge:hover polygon { stroke: red; fill: red; }
]]></style>
<script type="text/javascript"><![CDATA[
var edges = document.getElementsByTagName('g');
if (edges && edges.length) {
  for (var i=0;i<edges.length;i++) {
    if (edges[i].id.substr(0,4)=='edge') {
      edges[i].setAttribute('class','edge');
    }
  }
}
]]></script>
        <defs>
                <circle id="rim" cx="0" cy="0" r="7"/>
                <circle id="rim2" cx="0" cy="0" r="3.5"/>
                <g id="zoomPlus">
                        <use xlink:href="#rim" fill="#404040">
                                <set attributeName="fill" to="#808080" begin="zoomplus.mouseover" end="zoomplus.mouseout"/>
                        </use>
                        <path d="M-4,0h8M0,-4v8" fill="none" stroke="white" stroke-width="1.5" pointer-events="none"/>
                </g>
                <g id="zoomMin">
                        <use xlink:href="#rim" fill="#404040">
                                <set attributeName="fill" to="#808080" begin="zoomminus.mouseover" end="zoomminus.mouseout"/>
                        </use>
                        <path d="M-4,0h8" fill="none" stroke="white" stroke-width="1.5" pointer-events="none"/>
                </g>
                <g id="dirArrow">
                        <path fill="none" stroke="white" stroke-width="1.5" d="M0,-3.0v7 M-2.5,-0.5L0,-3.0L2.5,-0.5"/>
                </g>
               <g id="resetDef">
                       <use xlink:href="#rim2" fill="#404040">
                               <set attributeName="fill" to="#808080" begin="reset.mouseover" end="reset.mouseout"/>
                       </use>
               </g>
        </defs>

<script type="text/javascript">
var viewWidth = 1104;
var viewHeight = 610;
var sectionId = 'dynsection-0';
</script>
<script xlink:href="svgpan.js"/>
<svg id="graph" class="graph">
<g id="viewport">
<title>SdlSurfaceText.cpp</title>
<!-- Node1 -->
<g id="node1" class="node"><title>Node1</title>
<polygon fill="#bfbfbf" stroke="black" points="482.5,-581 482.5,-601 583.5,-601 583.5,-581 482.5,-581"/>
<text text-anchor="middle" x="533" y="-588" font-family="FreeSans" font-size="10.00">SdlSurfaceText.cpp</text>
</g>
<!-- Node2 -->
<g id="node3" class="node"><title>Node2</title>
<polygon fill="none" stroke="#bfbfbf" points="325.5,-407 325.5,-427 396.5,-427 396.5,-407 325.5,-407"/>
<text text-anchor="middle" x="361" y="-414" font-family="FreeSans" font-size="10.00">SDL2/SDL.h</text>
</g>
<!-- Node1&#45;&gt;Node2 -->
<g id="edge2" class="edge"><title>Node1&#45;&gt;Node2</title>
<path fill="none" stroke="midnightblue" d="M482.178,-585.486C451.52,-579.734 413.575,-567.987 388,-544 358.665,-516.487 357.105,-465.636 358.854,-437.342"/>
<polygon fill="midnightblue" stroke="midnightblue" points="362.369,-437.305 359.701,-427.051 355.392,-436.73 362.369,-437.305"/>
</g>
<!-- Node3 -->
<g id="node5" class="node"><title>Node3</title>
<polygon fill="none" stroke="#bfbfbf" points="490,-407 490,-427 576,-427 576,-407 490,-407"/>
<text text-anchor="middle" x="533" y="-414" font-family="FreeSans" font-size="10.00">SDL2/SDL_ttf.h</text>
</g>
<!-- Node1&#45;&gt;Node3 -->
<g id="edge4" class="edge"><title>Node1&#45;&gt;Node3</title>
<path fill="none" stroke="midnightblue" d="M533,-580.893C533,-553.023 533,-474.675 533,-437.313"/>
<polygon fill="midnightblue" stroke="midnightblue" points="536.5,-437.135 533,-427.135 529.5,-437.135 536.5,-437.135"/>
</g>
<!-- Node4 -->
<g id="node7" class="node"><title>Node4</title>
<a xlink:href="_sel_fmt_8h.html" target="_top" xlink:title="../../Util/SelFmt.h">
<polygon fill="none" stroke="black" points="395.5,-117 395.5,-137 484.5,-137 484.5,-117 395.5,-117"/>
<text text-anchor="middle" x="440" y="-124" font-family="FreeSans" font-size="10.00">../../Util/SelFmt.h</text>
</a>
</g>
<!-- Node1&#45;&gt;Node4 -->
<g id="edge6" class="edge"><title>Node1&#45;&gt;Node4</title>
<path fill="none" stroke="midnightblue" d="M539.653,-580.667C556.806,-552.75 600.164,-473.376 585,-406 559.944,-294.671 533.809,-271.793 475,-174 469.007,-164.035 461.389,-153.599 454.791,-145.1"/>
<polygon fill="midnightblue" stroke="midnightblue" points="457.355,-142.7 448.396,-137.044 451.872,-147.052 457.355,-142.7"/>
</g>
<!-- Node7 -->
<g id="node13" class="node"><title>Node7</title>
<a xlink:href="_str_8h.html" target="_top" xlink:title="../../Util/Str.h">
<polygon fill="none" stroke="black" points="712,-523 712,-543 782,-543 782,-523 712,-523"/>
<text text-anchor="middle" x="747" y="-530" font-family="FreeSans" font-size="10.00">../../Util/Str.h</text>
</a>
</g>
<!-- Node1&#45;&gt;Node7 -->
<g id="edge12" class="edge"><title>Node1&#45;&gt;Node7</title>
<path fill="none" stroke="midnightblue" d="M570.276,-580.897C606.96,-570.955 663.01,-555.764 702.12,-545.164"/>
<polygon fill="midnightblue" stroke="midnightblue" points="703.188,-548.501 711.924,-542.506 701.357,-541.744 703.188,-548.501"/>
</g>
<!-- Node14 -->
<g id="node28" class="node"><title>Node14</title>
<a xlink:href="_exception_8h.html" target="_top" xlink:title="../../Exception.h">
<polygon fill="none" stroke="black" points="835.5,-349 835.5,-369 916.5,-369 916.5,-349 835.5,-349"/>
<text text-anchor="middle" x="876" y="-356" font-family="FreeSans" font-size="10.00">../../Exception.h</text>
</a>
</g>
<!-- Node1&#45;&gt;Node14 -->
<g id="edge28" class="edge"><title>Node1&#45;&gt;Node14</title>
<path fill="none" stroke="midnightblue" d="M583.878,-585.652C636.604,-579.206 720.95,-566.35 791,-544 906.926,-507.012 973.68,-530.665 1039,-428 1067.32,-383.486 984.337,-367.644 926.607,-362.038"/>
<polygon fill="midnightblue" stroke="midnightblue" points="926.783,-358.54 916.511,-361.135 926.16,-365.512 926.783,-358.54"/>
</g>
<!-- Node16 -->
<g id="node32" class="node"><title>Node16</title>
<a xlink:href="_label_8h.html" target="_top" xlink:title="../Label.h">
<polygon fill="none" stroke="black" points="237,-523 237,-543 293,-543 293,-523 237,-523"/>
<text text-anchor="middle" x="265" y="-530" font-family="FreeSans" font-size="10.00">../Label.h</text>
</a>
</g>
<!-- Node1&#45;&gt;Node16 -->
<g id="edge32" class="edge"><title>Node1&#45;&gt;Node16</title>
<path fill="none" stroke="midnightblue" d="M482.615,-581C437.137,-571.838 368.445,-557.662 309,-544 307.101,-543.563 305.157,-543.109 303.196,-542.643"/>
<polygon fill="midnightblue" stroke="midnightblue" points="303.908,-539.214 293.365,-540.26 302.259,-546.017 303.908,-539.214"/>
</g>
<!-- Node31 -->
<g id="node73" class="node"><title>Node31</title>
<a xlink:href="_sdl_surface_text_8h.html" target="_top" xlink:title="SdlSurfaceText.h">
<polygon fill="none" stroke="black" points="396.5,-523 396.5,-543 487.5,-543 487.5,-523 396.5,-523"/>
<text text-anchor="middle" x="442" y="-530" font-family="FreeSans" font-size="10.00">SdlSurfaceText.h</text>
</a>
</g>
<!-- Node1&#45;&gt;Node31 -->
<g id="edge84" class="edge"><title>Node1&#45;&gt;Node31</title>
<path fill="none" stroke="midnightblue" d="M517.149,-580.897C503.272,-572.052 482.878,-559.054 466.835,-548.829"/>
<polygon fill="midnightblue" stroke="midnightblue" points="468.289,-545.605 457.975,-543.182 464.526,-551.508 468.289,-545.605"/>
</g>
<!-- Node5 -->
<g id="node9" class="node"><title>Node5</title>
<a xlink:href="_m_r___types_8h.html" target="_top" xlink:title="../Util/MR_Types.h">
<polygon fill="none" stroke="black" points="481,-59 481,-79 577,-79 577,-59 481,-59"/>
<text text-anchor="middle" x="529" y="-66" font-family="FreeSans" font-size="10.00">../Util/MR_Types.h</text>
</a>
</g>
<!-- Node4&#45;&gt;Node5 -->
<g id="edge8" class="edge"><title>Node4&#45;&gt;Node5</title>
<path fill="none" stroke="midnightblue" d="M455.503,-116.897C469.075,-108.052 489.021,-95.0539 504.711,-84.829"/>
<polygon fill="midnightblue" stroke="midnightblue" points="506.909,-87.5738 513.376,-79.1817 503.087,-81.7092 506.909,-87.5738"/>
</g>
<!-- Node6 -->
<g id="node11" class="node"><title>Node6</title>
<polygon fill="none" stroke="#bfbfbf" points="500,-1 500,-21 558,-21 558,-1 500,-1"/>
<text text-anchor="middle" x="529" y="-8" font-family="FreeSans" font-size="10.00">inttypes.h</text>
</g>
<!-- Node5&#45;&gt;Node6 -->
<g id="edge10" class="edge"><title>Node5&#45;&gt;Node6</title>
<path fill="none" stroke="midnightblue" d="M529,-58.8972C529,-51.339 529,-40.7476 529,-31.4458"/>
<polygon fill="midnightblue" stroke="midnightblue" points="532.5,-31.3776 529,-21.3776 525.5,-31.3776 532.5,-31.3776"/>
</g>
<!-- Node8 -->
<g id="node15" class="node"><title>Node8</title>
<a xlink:href="_o_s_8h.html" target="_top" xlink:title="OS.h">
<polygon fill="none" stroke="black" points="807,-465 807,-485 845,-485 845,-465 807,-465"/>
<text text-anchor="middle" x="826" y="-472" font-family="FreeSans" font-size="10.00">OS.h</text>
</a>
</g>
<!-- Node7&#45;&gt;Node8 -->
<g id="edge14" class="edge"><title>Node7&#45;&gt;Node8</title>
<path fill="none" stroke="midnightblue" d="M760.761,-522.897C772.695,-514.135 790.182,-501.297 804.048,-491.116"/>
<polygon fill="midnightblue" stroke="midnightblue" points="806.142,-493.921 812.132,-485.182 802,-488.278 806.142,-493.921"/>
</g>
<!-- Node8&#45;&gt;Node5 -->
<g id="edge26" class="edge"><title>Node8&#45;&gt;Node5</title>
<path fill="none" stroke="midnightblue" d="M845.052,-472.417C890.922,-465.943 1006.13,-448.099 1039,-428 1072.94,-407.251 1096,-398.777 1096,-359 1096,-359 1096,-359 1096,-185 1096,-133.486 732.134,-90.0646 587.378,-74.8286"/>
<polygon fill="midnightblue" stroke="midnightblue" points="587.652,-71.3382 577.342,-73.7806 586.924,-78.3004 587.652,-71.3382"/>
</g>
<!-- Node9 -->
<g id="node17" class="node"><title>Node9</title>
<polygon fill="none" stroke="#bfbfbf" points="988,-407 988,-427 1030,-427 1030,-407 988,-407"/>
<text text-anchor="middle" x="1009" y="-414" font-family="FreeSans" font-size="10.00">locale</text>
</g>
<!-- Node8&#45;&gt;Node9 -->
<g id="edge16" class="edge"><title>Node8&#45;&gt;Node9</title>
<path fill="none" stroke="midnightblue" d="M845.428,-469.394C872.935,-461.379 924.994,-445.93 978.161,-428.175"/>
<polygon fill="midnightblue" stroke="midnightblue" points="979.381,-431.457 987.744,-424.953 977.15,-424.822 979.381,-431.457"/>
</g>
<!-- Node10 -->
<g id="node19" class="node"><title>Node10</title>
<polygon fill="none" stroke="#bfbfbf" points="698,-407 698,-427 728,-427 728,-407 698,-407"/>
<text text-anchor="middle" x="713" y="-414" font-family="FreeSans" font-size="10.00">set</text>
</g>
<!-- Node8&#45;&gt;Node10 -->
<g id="edge18" class="edge"><title>Node8&#45;&gt;Node10</title>
<path fill="none" stroke="midnightblue" d="M806.831,-465.161C787.697,-455.34 758.223,-440.212 737.423,-429.536"/>
<polygon fill="midnightblue" stroke="midnightblue" points="738.764,-426.29 728.269,-424.837 735.567,-432.517 738.764,-426.29"/>
</g>
<!-- Node11 -->
<g id="node21" class="node"><title>Node11</title>
<polygon fill="none" stroke="#bfbfbf" points="745.5,-407 745.5,-427 786.5,-427 786.5,-407 745.5,-407"/>
<text text-anchor="middle" x="766" y="-414" font-family="FreeSans" font-size="10.00">string</text>
</g>
<!-- Node8&#45;&gt;Node11 -->
<g id="edge20" class="edge"><title>Node8&#45;&gt;Node11</title>
<path fill="none" stroke="midnightblue" d="M815.549,-464.897C806.88,-456.517 794.354,-444.409 784.066,-434.464"/>
<polygon fill="midnightblue" stroke="midnightblue" points="786.358,-431.811 776.735,-427.378 781.493,-436.844 786.358,-431.811"/>
</g>
<!-- Node12 -->
<g id="node23" class="node"><title>Node12</title>
<polygon fill="none" stroke="#bfbfbf" points="804,-407 804,-427 848,-427 848,-407 804,-407"/>
<text text-anchor="middle" x="826" y="-414" font-family="FreeSans" font-size="10.00">vector</text>
</g>
<!-- Node8&#45;&gt;Node12 -->
<g id="edge22" class="edge"><title>Node8&#45;&gt;Node12</title>
<path fill="none" stroke="midnightblue" d="M826,-464.897C826,-457.339 826,-446.748 826,-437.446"/>
<polygon fill="midnightblue" stroke="midnightblue" points="829.5,-437.378 826,-427.378 822.5,-437.378 829.5,-437.378"/>
</g>
<!-- Node13 -->
<g id="node25" class="node"><title>Node13</title>
<polygon fill="none" stroke="#bfbfbf" points="865.5,-407 865.5,-427 970.5,-427 970.5,-407 865.5,-407"/>
<text text-anchor="middle" x="918" y="-414" font-family="FreeSans" font-size="10.00">boost/filesystem.hpp</text>
</g>
<!-- Node8&#45;&gt;Node13 -->
<g id="edge24" class="edge"><title>Node8&#45;&gt;Node13</title>
<path fill="none" stroke="midnightblue" d="M842.025,-464.897C856.186,-455.97 877.059,-442.811 893.345,-432.543"/>
<polygon fill="midnightblue" stroke="midnightblue" points="895.257,-435.475 901.85,-427.182 891.524,-429.554 895.257,-435.475"/>
</g>
<!-- Node15 -->
<g id="node30" class="node"><title>Node15</title>
<polygon fill="none" stroke="#bfbfbf" points="847,-291 847,-311 905,-311 905,-291 847,-291"/>
<text text-anchor="middle" x="876" y="-298" font-family="FreeSans" font-size="10.00">exception</text>
</g>
<!-- Node14&#45;&gt;Node15 -->
<g id="edge30" class="edge"><title>Node14&#45;&gt;Node15</title>
<path fill="none" stroke="midnightblue" d="M876,-348.897C876,-341.339 876,-330.748 876,-321.446"/>
<polygon fill="midnightblue" stroke="midnightblue" points="879.5,-321.378 876,-311.378 872.5,-321.378 879.5,-321.378"/>
</g>
<!-- Node17 -->
<g id="node34" class="node"><title>Node17</title>
<a xlink:href="_base_text_8h.html" target="_top" xlink:title="BaseText.h">
<polygon fill="none" stroke="black" points="213.5,-465 213.5,-485 278.5,-485 278.5,-465 213.5,-465"/>
<text text-anchor="middle" x="246" y="-472" font-family="FreeSans" font-size="10.00">BaseText.h</text>
</a>
</g>
<!-- Node16&#45;&gt;Node17 -->
<g id="edge34" class="edge"><title>Node16&#45;&gt;Node17</title>
<path fill="none" stroke="midnightblue" d="M261.69,-522.897C259.188,-515.257 255.669,-504.517 252.599,-495.143"/>
<polygon fill="midnightblue" stroke="midnightblue" points="255.839,-493.791 249.4,-485.378 249.187,-495.97 255.839,-493.791"/>
</g>
<!-- Node18 -->
<g id="node36" class="node"><title>Node18</title>
<a xlink:href="_color_8h.html" target="_top" xlink:title="Color.h">
<polygon fill="none" stroke="black" points="193.5,-175 193.5,-195 240.5,-195 240.5,-175 193.5,-175"/>
<text text-anchor="middle" x="217" y="-182" font-family="FreeSans" font-size="10.00">Color.h</text>
</a>
</g>
<!-- Node17&#45;&gt;Node18 -->
<g id="edge36" class="edge"><title>Node17&#45;&gt;Node18</title>
<path fill="none" stroke="midnightblue" d="M213.042,-471.699C154.391,-463.81 38,-438.18 38,-359 38,-359 38,-359 38,-301 38,-265.328 51.295,-254.471 79,-232 109.332,-207.399 153.236,-195.379 183.331,-189.711"/>
<polygon fill="midnightblue" stroke="midnightblue" points="184.106,-193.129 193.355,-187.961 182.902,-186.233 184.106,-193.129"/>
</g>
<!-- Node20 -->
<g id="node42" class="node"><title>Node20</title>
<a xlink:href="_ui_font_8h.html" target="_top" xlink:title="UiFont.h">
<polygon fill="none" stroke="black" points="413.5,-175 413.5,-195 466.5,-195 466.5,-175 413.5,-175"/>
<text text-anchor="middle" x="440" y="-182" font-family="FreeSans" font-size="10.00">UiFont.h</text>
</a>
</g>
<!-- Node17&#45;&gt;Node20 -->
<g id="edge44" class="edge"><title>Node17&#45;&gt;Node20</title>
<path fill="none" stroke="midnightblue" d="M256.559,-464.728C281.487,-440.422 342.469,-380.623 350,-370 389.125,-314.811 419.622,-240.017 432.841,-204.839"/>
<polygon fill="midnightblue" stroke="midnightblue" points="436.197,-205.853 436.379,-195.26 429.631,-203.428 436.197,-205.853"/>
</g>
<!-- Node22 -->
<g id="node47" class="node"><title>Node22</title>
<a xlink:href="_ui_view_model_8h.html" target="_top" xlink:title="UiViewModel.h">
<polygon fill="none" stroke="black" points="188,-407 188,-427 270,-427 270,-407 188,-407"/>
<text text-anchor="middle" x="229" y="-414" font-family="FreeSans" font-size="10.00">UiViewModel.h</text>
</a>
</g>
<!-- Node17&#45;&gt;Node22 -->
<g id="edge50" class="edge"><title>Node17&#45;&gt;Node22</title>
<path fill="none" stroke="midnightblue" d="M243.039,-464.897C240.799,-457.257 237.652,-446.517 234.904,-437.143"/>
<polygon fill="midnightblue" stroke="midnightblue" points="238.213,-435.989 232.042,-427.378 231.496,-437.958 238.213,-435.989"/>
</g>
<!-- Node18&#45;&gt;Node4 -->
<g id="edge42" class="edge"><title>Node18&#45;&gt;Node4</title>
<path fill="none" stroke="midnightblue" d="M240.689,-176.592C243.479,-175.68 246.295,-174.796 249,-174 294.56,-160.593 346.987,-147.882 385.375,-139.068"/>
<polygon fill="midnightblue" stroke="midnightblue" points="386.343,-142.437 395.315,-136.8 384.787,-135.612 386.343,-142.437"/>
</g>
<!-- Node18&#45;&gt;Node5 -->
<g id="edge40" class="edge"><title>Node18&#45;&gt;Node5</title>
<path fill="none" stroke="midnightblue" d="M216.623,-174.819C216.66,-159.599 219.158,-131.09 236,-116 269.715,-85.793 395.212,-74.9101 470.594,-71.0552"/>
<polygon fill="midnightblue" stroke="midnightblue" points="471.065,-74.5366 480.884,-70.5566 470.726,-67.5448 471.065,-74.5366"/>
</g>
<!-- Node19 -->
<g id="node38" class="node"><title>Node19</title>
<polygon fill="none" stroke="#bfbfbf" points="244.5,-117 244.5,-137 333.5,-137 333.5,-117 244.5,-117"/>
<text text-anchor="middle" x="289" y="-124" font-family="FreeSans" font-size="10.00">boost/format.hpp</text>
</g>
<!-- Node18&#45;&gt;Node19 -->
<g id="edge38" class="edge"><title>Node18&#45;&gt;Node19</title>
<path fill="none" stroke="midnightblue" d="M229.541,-174.897C240.148,-166.353 255.566,-153.933 268.044,-143.881"/>
<polygon fill="midnightblue" stroke="midnightblue" points="270.526,-146.377 276.117,-137.378 266.134,-140.925 270.526,-146.377"/>
</g>
<!-- Node20&#45;&gt;Node4 -->
<g id="edge48" class="edge"><title>Node20&#45;&gt;Node4</title>
<path fill="none" stroke="midnightblue" d="M440,-174.897C440,-167.339 440,-156.748 440,-147.446"/>
<polygon fill="midnightblue" stroke="midnightblue" points="443.5,-147.378 440,-137.378 436.5,-147.378 443.5,-147.378"/>
</g>
<!-- Node21 -->
<g id="node44" class="node"><title>Node21</title>
<a xlink:href="_hash_8h.html" target="_top" xlink:title="../Util/Hash.h">
<polygon fill="none" stroke="black" points="501.5,-117 501.5,-137 574.5,-137 574.5,-117 501.5,-117"/>
<text text-anchor="middle" x="538" y="-124" font-family="FreeSans" font-size="10.00">../Util/Hash.h</text>
</a>
</g>
<!-- Node20&#45;&gt;Node21 -->
<g id="edge46" class="edge"><title>Node20&#45;&gt;Node21</title>
<path fill="none" stroke="midnightblue" d="M457.07,-174.897C472.154,-165.97 494.389,-152.811 511.738,-142.543"/>
<polygon fill="midnightblue" stroke="midnightblue" points="513.973,-145.287 520.797,-137.182 510.408,-139.263 513.973,-145.287"/>
</g>
<!-- Node22&#45;&gt;Node5 -->
<g id="edge54" class="edge"><title>Node22&#45;&gt;Node5</title>
<path fill="none" stroke="midnightblue" d="M187.795,-414.398C121.864,-407.758 0,-384.228 0,-301 0,-301 0,-301 0,-185 0,-137.245 333.178,-92.2282 470.704,-75.681"/>
<polygon fill="midnightblue" stroke="midnightblue" points="471.138,-79.1541 480.652,-74.4926 470.308,-72.2035 471.138,-79.1541"/>
</g>
<!-- Node23 -->
<g id="node49" class="node"><title>Node23</title>
<a xlink:href="_nav_8h.html" target="_top" xlink:title="../Control/Nav.h">
<polygon fill="none" stroke="black" points="237.5,-349 237.5,-369 320.5,-369 320.5,-349 237.5,-349"/>
<text text-anchor="middle" x="279" y="-356" font-family="FreeSans" font-size="10.00">../Control/Nav.h</text>
</a>
</g>
<!-- Node22&#45;&gt;Node23 -->
<g id="edge52" class="edge"><title>Node22&#45;&gt;Node23</title>
<path fill="none" stroke="midnightblue" d="M237.709,-406.897C244.792,-398.682 254.963,-386.883 263.439,-377.051"/>
<polygon fill="midnightblue" stroke="midnightblue" points="266.175,-379.237 270.054,-369.378 260.873,-374.666 266.175,-379.237"/>
</g>
<!-- Node24 -->
<g id="node52" class="node"><title>Node24</title>
<a xlink:href="_vec_8h.html" target="_top" xlink:title="../Vec.h">
<polygon fill="none" stroke="black" points="257.5,-175 257.5,-195 306.5,-195 306.5,-175 257.5,-175"/>
<text text-anchor="middle" x="282" y="-182" font-family="FreeSans" font-size="10.00">../Vec.h</text>
</a>
</g>
<!-- Node22&#45;&gt;Node24 -->
<g id="edge56" class="edge"><title>Node22&#45;&gt;Node24</title>
<path fill="none" stroke="midnightblue" d="M196.982,-406.848C177.893,-399.352 154.448,-387.4 139,-370 96.2604,-321.859 54.9946,-282.436 95,-232 136.718,-179.404 177.528,-211.89 247.186,-196.098"/>
<polygon fill="midnightblue" stroke="midnightblue" points="248.388,-199.403 257.21,-193.536 246.654,-192.622 248.388,-199.403"/>
</g>
<!-- Node25 -->
<g id="node54" class="node"><title>Node25</title>
<a xlink:href="_ui_layout_flags_8h.html" target="_top" xlink:title="UiLayoutFlags.h">
<polygon fill="none" stroke="black" points="309.5,-233 309.5,-253 396.5,-253 396.5,-233 309.5,-233"/>
<text text-anchor="middle" x="353" y="-240" font-family="FreeSans" font-size="10.00">UiLayoutFlags.h</text>
</a>
</g>
<!-- Node22&#45;&gt;Node25 -->
<g id="edge58" class="edge"><title>Node22&#45;&gt;Node25</title>
<path fill="none" stroke="midnightblue" d="M270.228,-407.228C290.901,-400.232 314.55,-388.653 329,-370 353.168,-338.802 355.456,-290.529 354.521,-263.367"/>
<polygon fill="midnightblue" stroke="midnightblue" points="358.003,-262.93 353.977,-253.13 351.013,-263.302 358.003,-262.93"/>
</g>
<!-- Node26 -->
<g id="node57" class="node"><title>Node26</title>
<a xlink:href="_view_model_8h.html" target="_top" xlink:title="ViewModel.h">
<polygon fill="none" stroke="black" points="148,-349 148,-369 220,-369 220,-349 148,-349"/>
<text text-anchor="middle" x="184" y="-356" font-family="FreeSans" font-size="10.00">ViewModel.h</text>
</a>
</g>
<!-- Node22&#45;&gt;Node26 -->
<g id="edge62" class="edge"><title>Node22&#45;&gt;Node26</title>
<path fill="none" stroke="midnightblue" d="M221.162,-406.897C214.851,-398.764 205.816,-387.118 198.235,-377.347"/>
<polygon fill="midnightblue" stroke="midnightblue" points="200.947,-375.133 192.052,-369.378 195.416,-379.424 200.947,-375.133"/>
</g>
<!-- Node25&#45;&gt;Node5 -->
<g id="edge60" class="edge"><title>Node25&#45;&gt;Node5</title>
<path fill="none" stroke="midnightblue" d="M396.61,-237.758C451.632,-228.5 543.799,-203.549 583,-138 594.645,-118.528 574.389,-98.3225 555.452,-84.8489"/>
<polygon fill="midnightblue" stroke="midnightblue" points="557.219,-81.8197 546.964,-79.1588 553.322,-87.6342 557.219,-81.8197"/>
</g>
<!-- Node27 -->
<g id="node59" class="node"><title>Node27</title>
<a xlink:href="_display_8h.html" target="_top" xlink:title="Display.h">
<polygon fill="none" stroke="black" points="246,-291 246,-311 302,-311 302,-291 246,-291"/>
<text text-anchor="middle" x="274" y="-298" font-family="FreeSans" font-size="10.00">Display.h</text>
</a>
</g>
<!-- Node26&#45;&gt;Node27 -->
<g id="edge64" class="edge"><title>Node26&#45;&gt;Node27</title>
<path fill="none" stroke="midnightblue" d="M199.677,-348.897C213.401,-340.052 233.572,-327.054 249.438,-316.829"/>
<polygon fill="midnightblue" stroke="midnightblue" points="251.691,-319.541 258.201,-311.182 247.899,-313.657 251.691,-319.541"/>
</g>
<!-- Node29 -->
<g id="node68" class="node"><title>Node29</title>
<a xlink:href="_view_attacher_8h.html" target="_top" xlink:title="ViewAttacher.h">
<polygon fill="none" stroke="black" points="103.5,-233 103.5,-253 186.5,-253 186.5,-233 103.5,-233"/>
<text text-anchor="middle" x="145" y="-240" font-family="FreeSans" font-size="10.00">ViewAttacher.h</text>
</a>
</g>
<!-- Node26&#45;&gt;Node29 -->
<g id="edge82" class="edge"><title>Node26&#45;&gt;Node29</title>
<path fill="none" stroke="midnightblue" d="M179.146,-348.703C174.821,-339.284 168.496,-324.895 164,-312 158.383,-295.892 153.326,-277.215 149.844,-263.358"/>
<polygon fill="midnightblue" stroke="midnightblue" points="153.188,-262.299 147.408,-253.42 146.389,-263.965 153.188,-262.299"/>
</g>
<!-- Node30 -->
<g id="node70" class="node"><title>Node30</title>
<a xlink:href="_view_8h.html" target="_top" xlink:title="View.h">
<polygon fill="none" stroke="black" points="173,-291 173,-311 219,-311 219,-291 173,-291"/>
<text text-anchor="middle" x="196" y="-298" font-family="FreeSans" font-size="10.00">View.h</text>
</a>
</g>
<!-- Node26&#45;&gt;Node30 -->
<g id="edge80" class="edge"><title>Node26&#45;&gt;Node30</title>
<path fill="none" stroke="midnightblue" d="M186.09,-348.897C187.654,-341.339 189.845,-330.748 191.77,-321.446"/>
<polygon fill="midnightblue" stroke="midnightblue" points="195.254,-321.879 193.853,-311.378 188.399,-320.461 195.254,-321.879"/>
</g>
<!-- Node27&#45;&gt;Node24 -->
<g id="edge66" class="edge"><title>Node27&#45;&gt;Node24</title>
<path fill="none" stroke="midnightblue" d="M274.71,-290.706C276.03,-271.568 278.883,-230.198 280.602,-205.265"/>
<polygon fill="midnightblue" stroke="midnightblue" points="284.107,-205.323 281.303,-195.106 277.123,-204.841 284.107,-205.323"/>
</g>
<!-- Node27&#45;&gt;Node25 -->
<g id="edge76" class="edge"><title>Node27&#45;&gt;Node25</title>
<path fill="none" stroke="midnightblue" d="M287.761,-290.897C299.695,-282.135 317.182,-269.297 331.048,-259.116"/>
<polygon fill="midnightblue" stroke="midnightblue" points="333.142,-261.921 339.132,-253.182 329,-256.278 333.142,-261.921"/>
</g>
<!-- Node28 -->
<g id="node62" class="node"><title>Node28</title>
<a xlink:href="_styles_8h.html" target="_top" xlink:title="Styles.h">
<polygon fill="none" stroke="black" points="203.5,-233 203.5,-253 254.5,-253 254.5,-233 203.5,-233"/>
<text text-anchor="middle" x="229" y="-240" font-family="FreeSans" font-size="10.00">Styles.h</text>
</a>
</g>
<!-- Node27&#45;&gt;Node28 -->
<g id="edge68" class="edge"><title>Node27&#45;&gt;Node28</title>
<path fill="none" stroke="midnightblue" d="M266.162,-290.897C259.851,-282.764 250.816,-271.118 243.235,-261.347"/>
<polygon fill="midnightblue" stroke="midnightblue" points="245.947,-259.133 237.052,-253.378 240.416,-263.424 245.947,-259.133"/>
</g>
<!-- Node27&#45;&gt;Node29 -->
<g id="edge78" class="edge"><title>Node27&#45;&gt;Node29</title>
<path fill="none" stroke="midnightblue" d="M251.53,-290.897C230.939,-281.639 200.225,-267.83 177.06,-257.415"/>
<polygon fill="midnightblue" stroke="midnightblue" points="178.201,-254.09 167.645,-253.182 175.331,-260.475 178.201,-254.09"/>
</g>
<!-- Node28&#45;&gt;Node18 -->
<g id="edge74" class="edge"><title>Node28&#45;&gt;Node18</title>
<path fill="none" stroke="midnightblue" d="M226.91,-232.897C225.346,-225.339 223.155,-214.748 221.23,-205.446"/>
<polygon fill="midnightblue" stroke="midnightblue" points="224.601,-204.461 219.147,-195.378 217.746,-205.879 224.601,-204.461"/>
</g>
<!-- Node28&#45;&gt;Node20 -->
<g id="edge72" class="edge"><title>Node28&#45;&gt;Node20</title>
<path fill="none" stroke="midnightblue" d="M254.873,-235.888C292.16,-225.638 361.174,-206.668 403.591,-195.008"/>
<polygon fill="midnightblue" stroke="midnightblue" points="404.535,-198.378 413.25,-192.353 402.68,-191.629 404.535,-198.378"/>
</g>
<!-- Node28&#45;&gt;Node24 -->
<g id="edge70" class="edge"><title>Node28&#45;&gt;Node24</title>
<path fill="none" stroke="midnightblue" d="M238.232,-232.897C245.739,-224.682 256.521,-212.883 265.505,-203.051"/>
<polygon fill="midnightblue" stroke="midnightblue" points="268.355,-205.121 272.517,-195.378 263.188,-200.399 268.355,-205.121"/>
</g>
<!-- Node31&#45;&gt;Node2 -->
<g id="edge86" class="edge"><title>Node31&#45;&gt;Node2</title>
<path fill="none" stroke="midnightblue" d="M422.756,-522.959C408.909,-514.783 390.833,-501.991 380,-486 370.115,-471.409 365.351,-451.804 363.068,-437.221"/>
<polygon fill="midnightblue" stroke="midnightblue" points="366.527,-436.677 361.762,-427.214 359.586,-437.583 366.527,-436.677"/>
</g>
<!-- Node31&#45;&gt;Node20 -->
<g id="edge88" class="edge"><title>Node31&#45;&gt;Node20</title>
<path fill="none" stroke="midnightblue" d="M449.632,-522.827C455.955,-513.72 464.457,-499.724 468,-486 470.444,-476.533 468.279,-473.774 468,-464 466.666,-417.276 462,-405.743 462,-359 462,-359 462,-359 462,-301 462,-266.826 452.669,-227.965 446.161,-205.016"/>
<polygon fill="midnightblue" stroke="midnightblue" points="449.429,-203.723 443.246,-195.119 442.714,-205.7 449.429,-203.723"/>
</g>
<!-- Node32 -->
<g id="node77" class="node"><title>Node32</title>
<a xlink:href="_sdl_display_8h.html" target="_top" xlink:title="SdlDisplay.h">
<polygon fill="none" stroke="black" points="389,-465 389,-485 459,-485 459,-465 389,-465"/>
<text text-anchor="middle" x="424" y="-472" font-family="FreeSans" font-size="10.00">SdlDisplay.h</text>
</a>
</g>
<!-- Node31&#45;&gt;Node32 -->
<g id="edge90" class="edge"><title>Node31&#45;&gt;Node32</title>
<path fill="none" stroke="midnightblue" d="M438.865,-522.897C436.494,-515.257 433.16,-504.517 430.251,-495.143"/>
<polygon fill="midnightblue" stroke="midnightblue" points="433.527,-493.891 427.221,-485.378 426.842,-495.966 433.527,-493.891"/>
</g>
<!-- Node32&#45;&gt;Node2 -->
<g id="edge92" class="edge"><title>Node32&#45;&gt;Node2</title>
<path fill="none" stroke="midnightblue" d="M413.026,-464.897C403.835,-456.435 390.514,-444.172 379.652,-434.172"/>
<polygon fill="midnightblue" stroke="midnightblue" points="382,-431.576 372.272,-427.378 377.259,-436.726 382,-431.576"/>
</g>
<!-- Node32&#45;&gt;Node3 -->
<g id="edge94" class="edge"><title>Node32&#45;&gt;Node3</title>
<path fill="none" stroke="midnightblue" d="M442.986,-464.897C460.074,-455.804 485.413,-442.322 504.856,-431.976"/>
<polygon fill="midnightblue" stroke="midnightblue" points="506.682,-434.969 513.865,-427.182 503.393,-428.789 506.682,-434.969"/>
</g>
<!-- Node32&#45;&gt;Node22 -->
<g id="edge104" class="edge"><title>Node32&#45;&gt;Node22</title>
<path fill="none" stroke="midnightblue" d="M390.034,-464.897C357.418,-455.196 308.002,-440.498 272.517,-429.944"/>
<polygon fill="midnightblue" stroke="midnightblue" points="273.487,-426.58 262.904,-427.084 271.491,-433.29 273.487,-426.58"/>
</g>
<!-- Node32&#45;&gt;Node27 -->
<g id="edge96" class="edge"><title>Node32&#45;&gt;Node27</title>
<path fill="none" stroke="midnightblue" d="M423.169,-464.832C421.593,-450.618 417.156,-424.476 405,-406 378.577,-365.838 331.823,-333.842 301.905,-316.16"/>
<polygon fill="midnightblue" stroke="midnightblue" points="303.612,-313.105 293.201,-311.139 300.114,-319.168 303.612,-313.105"/>
</g>
<!-- Node33 -->
<g id="node82" class="node"><title>Node33</title>
<a xlink:href="_res_8h.html" target="_top" xlink:title="../Res.h">
<polygon fill="none" stroke="black" points="631.5,-407 631.5,-427 680.5,-427 680.5,-407 631.5,-407"/>
<text text-anchor="middle" x="656" y="-414" font-family="FreeSans" font-size="10.00">../Res.h</text>
</a>
</g>
<!-- Node32&#45;&gt;Node33 -->
<g id="edge98" class="edge"><title>Node32&#45;&gt;Node33</title>
<path fill="none" stroke="midnightblue" d="M459.236,-466.191C503.243,-455.189 578.037,-436.491 621.634,-425.592"/>
<polygon fill="midnightblue" stroke="midnightblue" points="622.633,-428.95 631.486,-423.129 620.935,-422.159 622.633,-428.95"/>
</g>
<!-- Node33&#45;&gt;Node5 -->
<g id="edge100" class="edge"><title>Node33&#45;&gt;Node5</title>
<path fill="none" stroke="midnightblue" d="M656,-406.759C656,-386.541 656,-340.069 656,-301 656,-301 656,-301 656,-185 656,-135.173 602.046,-101.019 564.472,-83.2751"/>
<polygon fill="midnightblue" stroke="midnightblue" points="565.867,-80.0648 555.314,-79.118 562.973,-86.4388 565.867,-80.0648"/>
</g>
<!-- Node33&#45;&gt;Node14 -->
<g id="edge102" class="edge"><title>Node33&#45;&gt;Node14</title>
<path fill="none" stroke="midnightblue" d="M680.803,-408.509C683.559,-407.632 686.333,-406.778 689,-406 734.87,-392.611 787.726,-379.541 825.517,-370.596"/>
<polygon fill="midnightblue" stroke="midnightblue" points="826.339,-373.998 835.271,-368.3 824.735,-367.185 826.339,-373.998"/>
</g>
</g>
</svg>
        <g id="navigator" transform="translate(0 0)" fill="#404254">
                <rect fill="#f2f5e9" fill-opacity="0.5" stroke="#606060" stroke-width=".5" x="0" y="0" width="60" height="60"/>
                <use id="zoomplus" xlink:href="#zoomPlus" x="17" y="9" onmousedown="handleZoom(evt,'in')"/>
                <use id="zoomminus" xlink:href="#zoomMin" x="42" y="9" onmousedown="handleZoom(evt,'out')"/>
                <use id="reset" xlink:href="#resetDef" x="30" y="36" onmousedown="handleReset()"/>
                <g id="arrowUp" xlink:href="#dirArrow" transform="translate(30 24)" onmousedown="handlePan(0,-1)">
                  <use xlink:href="#rim" fill="#404040">
                        <set attributeName="fill" to="#808080" begin="arrowUp.mouseover" end="arrowUp.mouseout"/>
                  </use>
                  <path fill="none" stroke="white" stroke-width="1.5" d="M0,-3.0v7 M-2.5,-0.5L0,-3.0L2.5,-0.5"/>
                </g>
                <g id="arrowRight" xlink:href="#dirArrow" transform="rotate(90) translate(36 -43)" onmousedown="handlePan(1,0)">
                  <use xlink:href="#rim" fill="#404040">
                        <set attributeName="fill" to="#808080" begin="arrowRight.mouseover" end="arrowRight.mouseout"/>
                  </use>
                  <path fill="none" stroke="white" stroke-width="1.5" d="M0,-3.0v7 M-2.5,-0.5L0,-3.0L2.5,-0.5"/>
                </g>
                <g id="arrowDown" xlink:href="#dirArrow" transform="rotate(180) translate(-30 -48)" onmousedown="handlePan(0,1)">
                  <use xlink:href="#rim" fill="#404040">
                        <set attributeName="fill" to="#808080" begin="arrowDown.mouseover" end="arrowDown.mouseout"/>
                  </use>
                  <path fill="none" stroke="white" stroke-width="1.5" d="M0,-3.0v7 M-2.5,-0.5L0,-3.0L2.5,-0.5"/>
                </g>
                <g id="arrowLeft" xlink:href="#dirArrow" transform="rotate(270) translate(-36 17)" onmousedown="handlePan(-1,0)">
                  <use xlink:href="#rim" fill="#404040">
                        <set attributeName="fill" to="#808080" begin="arrowLeft.mouseover" end="arrowLeft.mouseout"/>
                  </use>
                  <path fill="none" stroke="white" stroke-width="1.5" d="M0,-3.0v7 M-2.5,-0.5L0,-3.0L2.5,-0.5"/>
                </g>
        </g>
        <svg viewBox="0 0 15 15" width="100%" height="30px" preserveAspectRatio="xMaxYMin meet">
         <g id="arrow_out" transform="scale(0.3 0.3)">
          <a xlink:href="_sdl_surface_text_8cpp__incl_org.svg" target="_base">
           <rect id="button" ry="5" rx="5" y="6" x="6" height="38" width="38"
                fill="#f2f5e9" fill-opacity="0.5" stroke="#606060" stroke-width="1.0"/>
           <path id="arrow"
             d="M 11.500037,31.436501 C 11.940474,20.09759 22.043105,11.32322 32.158766,21.979434 L 37.068811,17.246167 C 37.068811,17.246167 37.088388,32 37.088388,32 L 22.160133,31.978069 C 22.160133,31.978069 26.997745,27.140456 26.997745,27.140456 C 18.528582,18.264221 13.291696,25.230495 11.500037,31.436501 z"
             style="fill:#404040;"/>
          </a>
         </g>
        </svg>
</svg>
