<?xml version="1.0" encoding="UTF-8" standalone="no"?>
<!DOCTYPE svg PUBLIC "-//W3C//DTD SVG 1.1//EN"
 "http://www.w3.org/Graphics/SVG/1.1/DTD/svg11.dtd">
<!-- Generated by graphviz version 2.38.0 (20140413.2041)
 -->
<!-- Title: SdlFillBoxView.cpp Pages: 1 -->
<svg width="644pt" height="588pt"
 viewBox="0.00 0.00 644.49 588.00" xmlns="http://www.w3.org/2000/svg" xmlns:xlink="http://www.w3.org/1999/xlink">
<g id="graph0" class="graph" transform="scale(1 1) rotate(0) translate(4 584)">
<title>SdlFillBoxView.cpp</title>
<!-- Node1 -->
<g id="node1" class="node"><title>Node1</title>
<polygon fill="#bfbfbf" stroke="black" points="311.493,-560.5 311.493,-579.5 412.493,-579.5 412.493,-560.5 311.493,-560.5"/>
<text text-anchor="middle" x="361.993" y="-567.5" font-family="Helvetica,sans-Serif" font-size="10.00">SdlFillBoxView.cpp</text>
</g>
<!-- Node2 -->
<g id="node2" class="node"><title>Node2</title>
<polygon fill="none" stroke="#bfbfbf" points="301.993,-392.5 301.993,-411.5 373.993,-411.5 373.993,-392.5 301.993,-392.5"/>
<text text-anchor="middle" x="337.993" y="-399.5" font-family="Helvetica,sans-Serif" font-size="10.00">SDL2/SDL.h</text>
</g>
<!-- Node1&#45;&gt;Node2 -->
<g id="edge1" class="edge"><title>Node1&#45;&gt;Node2</title>
<path fill="none" stroke="midnightblue" d="M360.702,-560.075C356.925,-533.945 345.83,-457.211 340.679,-421.577"/>
<polygon fill="midnightblue" stroke="midnightblue" points="344.127,-420.964 339.232,-411.568 337.199,-421.966 344.127,-420.964"/>
</g>
<!-- Node3 -->
<g id="node3" class="node"><title>Node3</title>
<g id="a_node3"><a xlink:href="_fill_box_8h.html" target="_top" xlink:title="../FillBox.h">
<polygon fill="none" stroke="black" points="121.993,-504.5 121.993,-523.5 185.993,-523.5 185.993,-504.5 121.993,-504.5"/>
<text text-anchor="middle" x="153.993" y="-511.5" font-family="Helvetica,sans-Serif" font-size="10.00">../FillBox.h</text>
</a>
</g>
</g>
<!-- Node1&#45;&gt;Node3 -->
<g id="edge2" class="edge"><title>Node1&#45;&gt;Node3</title>
<path fill="none" stroke="midnightblue" d="M329.035,-560.444C292.995,-551.087 235.154,-536.071 195.912,-525.883"/>
<polygon fill="midnightblue" stroke="midnightblue" points="196.672,-522.464 186.113,-523.339 194.913,-529.24 196.672,-522.464"/>
</g>
<!-- Node20 -->
<g id="node20" class="node"><title>Node20</title>
<g id="a_node20"><a xlink:href="_sdl_display_8h.html" target="_top" xlink:title="SdlDisplay.h">
<polygon fill="none" stroke="black" points="365.993,-448.5 365.993,-467.5 437.993,-467.5 437.993,-448.5 365.993,-448.5"/>
<text text-anchor="middle" x="401.993" y="-455.5" font-family="Helvetica,sans-Serif" font-size="10.00">SdlDisplay.h</text>
</a>
</g>
</g>
<!-- Node1&#45;&gt;Node20 -->
<g id="edge29" class="edge"><title>Node1&#45;&gt;Node20</title>
<path fill="none" stroke="midnightblue" d="M365.132,-560.368C371.616,-542.537 386.613,-501.295 395.349,-477.272"/>
<polygon fill="midnightblue" stroke="midnightblue" points="398.74,-478.185 398.869,-467.591 392.162,-475.793 398.74,-478.185"/>
</g>
<!-- Node25 -->
<g id="node25" class="node"><title>Node25</title>
<g id="a_node25"><a xlink:href="_sdl_fill_box_view_8h.html" target="_top" xlink:title="SdlFillBoxView.h">
<polygon fill="none" stroke="black" points="437.493,-504.5 437.493,-523.5 528.493,-523.5 528.493,-504.5 437.493,-504.5"/>
<text text-anchor="middle" x="482.993" y="-511.5" font-family="Helvetica,sans-Serif" font-size="10.00">SdlFillBoxView.h</text>
</a>
</g>
</g>
<!-- Node1&#45;&gt;Node25 -->
<g id="edge38" class="edge"><title>Node1&#45;&gt;Node25</title>
<path fill="none" stroke="midnightblue" d="M381.166,-560.444C400.902,-551.636 431.878,-537.812 454.486,-527.722"/>
<polygon fill="midnightblue" stroke="midnightblue" points="456.204,-530.788 463.91,-523.516 453.351,-524.396 456.204,-530.788"/>
</g>
<!-- Node4 -->
<g id="node4" class="node"><title>Node4</title>
<g id="a_node4"><a xlink:href="_color_8h.html" target="_top" xlink:title="Color.h">
<polygon fill="none" stroke="black" points="30.9928,-168.5 30.9928,-187.5 78.9928,-187.5 78.9928,-168.5 30.9928,-168.5"/>
<text text-anchor="middle" x="54.9928" y="-175.5" font-family="Helvetica,sans-Serif" font-size="10.00">Color.h</text>
</a>
</g>
</g>
<!-- Node3&#45;&gt;Node4 -->
<g id="edge3" class="edge"><title>Node3&#45;&gt;Node4</title>
<path fill="none" stroke="midnightblue" d="M126.876,-504.471C87.7207,-490.267 19.9928,-457.779 19.9928,-403 19.9928,-403 19.9928,-403 19.9928,-289 19.9928,-255.072 35.2996,-217.911 45.668,-196.631"/>
<polygon fill="midnightblue" stroke="midnightblue" points="48.8746,-198.046 50.2725,-187.544 42.6304,-194.882 48.8746,-198.046"/>
</g>
<!-- Node8 -->
<g id="node8" class="node"><title>Node8</title>
<g id="a_node8"><a xlink:href="_box_8h.html" target="_top" xlink:title="Box.h">
<polygon fill="none" stroke="black" points="132.993,-448.5 132.993,-467.5 174.993,-467.5 174.993,-448.5 132.993,-448.5"/>
<text text-anchor="middle" x="153.993" y="-455.5" font-family="Helvetica,sans-Serif" font-size="10.00">Box.h</text>
</a>
</g>
</g>
<!-- Node3&#45;&gt;Node8 -->
<g id="edge8" class="edge"><title>Node3&#45;&gt;Node8</title>
<path fill="none" stroke="midnightblue" d="M153.993,-504.083C153.993,-497.006 153.993,-486.861 153.993,-477.986"/>
<polygon fill="midnightblue" stroke="midnightblue" points="157.493,-477.751 153.993,-467.751 150.493,-477.751 157.493,-477.751"/>
</g>
<!-- Node5 -->
<g id="node5" class="node"><title>Node5</title>
<g id="a_node5"><a xlink:href="_m_r___types_8h.html" target="_top" xlink:title="../Util/MR_Types.h">
<polygon fill="none" stroke="black" points="74.9928,-56.5 74.9928,-75.5 174.993,-75.5 174.993,-56.5 74.9928,-56.5"/>
<text text-anchor="middle" x="124.993" y="-63.5" font-family="Helvetica,sans-Serif" font-size="10.00">../Util/MR_Types.h</text>
</a>
</g>
</g>
<!-- Node4&#45;&gt;Node5 -->
<g id="edge4" class="edge"><title>Node4&#45;&gt;Node5</title>
<path fill="none" stroke="midnightblue" d="M39.6161,-168.413C19.7698,-156.201 -10.5785,-132.965 3.99279,-112 17.9831,-91.8705 42.1061,-80.7272 65.1496,-74.5659"/>
<polygon fill="midnightblue" stroke="midnightblue" points="66.02,-77.9565 74.9266,-72.2187 64.3859,-71.1499 66.02,-77.9565"/>
</g>
<!-- Node7 -->
<g id="node7" class="node"><title>Node7</title>
<g id="a_node7"><a xlink:href="_sel_fmt_8h.html" target="_top" xlink:title="../Util/SelFmt.h">
<polygon fill="none" stroke="black" points="13.4928,-112.5 13.4928,-131.5 96.4928,-131.5 96.4928,-112.5 13.4928,-112.5"/>
<text text-anchor="middle" x="54.9928" y="-119.5" font-family="Helvetica,sans-Serif" font-size="10.00">../Util/SelFmt.h</text>
</a>
</g>
</g>
<!-- Node4&#45;&gt;Node7 -->
<g id="edge6" class="edge"><title>Node4&#45;&gt;Node7</title>
<path fill="none" stroke="midnightblue" d="M54.9928,-168.083C54.9928,-161.006 54.9928,-150.861 54.9928,-141.986"/>
<polygon fill="midnightblue" stroke="midnightblue" points="58.4929,-141.751 54.9928,-131.751 51.4929,-141.751 58.4929,-141.751"/>
</g>
<!-- Node6 -->
<g id="node6" class="node"><title>Node6</title>
<polygon fill="none" stroke="#bfbfbf" points="95.4928,-0.5 95.4928,-19.5 154.493,-19.5 154.493,-0.5 95.4928,-0.5"/>
<text text-anchor="middle" x="124.993" y="-7.5" font-family="Helvetica,sans-Serif" font-size="10.00">inttypes.h</text>
</g>
<!-- Node5&#45;&gt;Node6 -->
<g id="edge5" class="edge"><title>Node5&#45;&gt;Node6</title>
<path fill="none" stroke="midnightblue" d="M124.993,-56.083C124.993,-49.0059 124.993,-38.8611 124.993,-29.9865"/>
<polygon fill="midnightblue" stroke="midnightblue" points="128.493,-29.751 124.993,-19.7511 121.493,-29.7511 128.493,-29.751"/>
</g>
<!-- Node7&#45;&gt;Node5 -->
<g id="edge7" class="edge"><title>Node7&#45;&gt;Node5</title>
<path fill="none" stroke="midnightblue" d="M66.2395,-112.324C76.7902,-104.185 92.7934,-91.8395 105.435,-82.0874"/>
<polygon fill="midnightblue" stroke="midnightblue" points="107.761,-84.7132 113.541,-75.8339 103.486,-79.1707 107.761,-84.7132"/>
</g>
<!-- Node8&#45;&gt;Node4 -->
<g id="edge9" class="edge"><title>Node8&#45;&gt;Node4</title>
<path fill="none" stroke="midnightblue" d="M138.14,-448.439C110.874,-432.425 57.9928,-395.16 57.9928,-347 57.9928,-347 57.9928,-347 57.9928,-289 57.9928,-256.936 56.7033,-219.634 55.8152,-197.745"/>
<polygon fill="midnightblue" stroke="midnightblue" points="59.3038,-197.399 55.385,-187.556 52.31,-197.694 59.3038,-197.399"/>
</g>
<!-- Node9 -->
<g id="node9" class="node"><title>Node9</title>
<g id="a_node9"><a xlink:href="_ui_view_model_8h.html" target="_top" xlink:title="UiViewModel.h">
<polygon fill="none" stroke="black" points="196.493,-392.5 196.493,-411.5 279.493,-411.5 279.493,-392.5 196.493,-392.5"/>
<text text-anchor="middle" x="237.993" y="-399.5" font-family="Helvetica,sans-Serif" font-size="10.00">UiViewModel.h</text>
</a>
</g>
</g>
<!-- Node8&#45;&gt;Node9 -->
<g id="edge10" class="edge"><title>Node8&#45;&gt;Node9</title>
<path fill="none" stroke="midnightblue" d="M167.489,-448.324C180.592,-439.9 200.705,-426.971 216.1,-417.074"/>
<polygon fill="midnightblue" stroke="midnightblue" points="218.011,-420.006 224.53,-411.655 214.226,-414.118 218.011,-420.006"/>
</g>
<!-- Node9&#45;&gt;Node5 -->
<g id="edge12" class="edge"><title>Node9&#45;&gt;Node5</title>
<path fill="none" stroke="midnightblue" d="M196.35,-397.727C168.306,-393.104 133.23,-382.092 114.993,-356 84.5198,-312.403 111.346,-142.971 121.492,-85.8915"/>
<polygon fill="midnightblue" stroke="midnightblue" points="124.987,-86.2361 123.327,-75.772 118.099,-84.9868 124.987,-86.2361"/>
</g>
<!-- Node10 -->
<g id="node10" class="node"><title>Node10</title>
<g id="a_node10"><a xlink:href="_nav_8h.html" target="_top" xlink:title="../Control/Nav.h">
<polygon fill="none" stroke="black" points="123.993,-336.5 123.993,-355.5 209.993,-355.5 209.993,-336.5 123.993,-336.5"/>
<text text-anchor="middle" x="166.993" y="-343.5" font-family="Helvetica,sans-Serif" font-size="10.00">../Control/Nav.h</text>
</a>
</g>
</g>
<!-- Node9&#45;&gt;Node10 -->
<g id="edge11" class="edge"><title>Node9&#45;&gt;Node10</title>
<path fill="none" stroke="midnightblue" d="M226.585,-392.324C215.884,-384.185 199.652,-371.839 186.83,-362.087"/>
<polygon fill="midnightblue" stroke="midnightblue" points="188.686,-359.102 178.608,-355.834 184.448,-364.673 188.686,-359.102"/>
</g>
<!-- Node11 -->
<g id="node11" class="node"><title>Node11</title>
<g id="a_node11"><a xlink:href="_vec_8h.html" target="_top" xlink:title="../Vec.h">
<polygon fill="none" stroke="black" points="250.493,-168.5 250.493,-187.5 301.493,-187.5 301.493,-168.5 250.493,-168.5"/>
<text text-anchor="middle" x="275.993" y="-175.5" font-family="Helvetica,sans-Serif" font-size="10.00">../Vec.h</text>
</a>
</g>
</g>
<!-- Node9&#45;&gt;Node11 -->
<g id="edge13" class="edge"><title>Node9&#45;&gt;Node11</title>
<path fill="none" stroke="midnightblue" d="M236.053,-392.406C233.078,-379.792 226.894,-355.632 218.993,-336 198.772,-285.76 141.18,-269.212 170.993,-224 186.278,-200.82 216.247,-189.535 240.269,-184.067"/>
<polygon fill="midnightblue" stroke="midnightblue" points="241.036,-187.483 250.14,-182.062 239.643,-180.623 241.036,-187.483"/>
</g>
<!-- Node12 -->
<g id="node12" class="node"><title>Node12</title>
<g id="a_node12"><a xlink:href="_ui_layout_flags_8h.html" target="_top" xlink:title="UiLayoutFlags.h">
<polygon fill="none" stroke="black" points="390.993,-224.5 390.993,-243.5 478.993,-243.5 478.993,-224.5 390.993,-224.5"/>
<text text-anchor="middle" x="434.993" y="-231.5" font-family="Helvetica,sans-Serif" font-size="10.00">UiLayoutFlags.h</text>
</a>
</g>
</g>
<!-- Node9&#45;&gt;Node12 -->
<g id="edge14" class="edge"><title>Node9&#45;&gt;Node12</title>
<path fill="none" stroke="midnightblue" d="M269.925,-392.452C293.07,-385.228 324.326,-373.272 347.993,-356 385.816,-328.397 413.641,-279.35 426.702,-252.973"/>
<polygon fill="midnightblue" stroke="midnightblue" points="429.946,-254.301 431.111,-243.771 423.634,-251.276 429.946,-254.301"/>
</g>
<!-- Node13 -->
<g id="node13" class="node"><title>Node13</title>
<g id="a_node13"><a xlink:href="_view_model_8h.html" target="_top" xlink:title="ViewModel.h">
<polygon fill="none" stroke="black" points="266.493,-336.5 266.493,-355.5 339.493,-355.5 339.493,-336.5 266.493,-336.5"/>
<text text-anchor="middle" x="302.993" y="-343.5" font-family="Helvetica,sans-Serif" font-size="10.00">ViewModel.h</text>
</a>
</g>
</g>
<!-- Node9&#45;&gt;Node13 -->
<g id="edge16" class="edge"><title>Node9&#45;&gt;Node13</title>
<path fill="none" stroke="midnightblue" d="M248.436,-392.324C258.139,-384.263 272.808,-372.077 284.493,-362.369"/>
<polygon fill="midnightblue" stroke="midnightblue" points="286.904,-364.916 292.359,-355.834 282.431,-359.532 286.904,-364.916"/>
</g>
<!-- Node12&#45;&gt;Node5 -->
<g id="edge15" class="edge"><title>Node12&#45;&gt;Node5</title>
<path fill="none" stroke="midnightblue" d="M434.816,-224.339C433.857,-201.898 427.983,-141.563 392.993,-112 362.442,-86.1876 254.806,-74.8275 185.59,-70.0986"/>
<polygon fill="midnightblue" stroke="midnightblue" points="185.458,-66.5825 175.25,-69.4216 185,-73.5675 185.458,-66.5825"/>
</g>
<!-- Node14 -->
<g id="node14" class="node"><title>Node14</title>
<g id="a_node14"><a xlink:href="_display_8h.html" target="_top" xlink:title="Display.h">
<polygon fill="none" stroke="black" points="262.993,-280.5 262.993,-299.5 320.993,-299.5 320.993,-280.5 262.993,-280.5"/>
<text text-anchor="middle" x="291.993" y="-287.5" font-family="Helvetica,sans-Serif" font-size="10.00">Display.h</text>
</a>
</g>
</g>
<!-- Node13&#45;&gt;Node14 -->
<g id="edge17" class="edge"><title>Node13&#45;&gt;Node14</title>
<path fill="none" stroke="midnightblue" d="M301.176,-336.083C299.719,-328.927 297.622,-318.635 295.8,-309.691"/>
<polygon fill="midnightblue" stroke="midnightblue" points="299.201,-308.851 293.775,-299.751 292.342,-310.248 299.201,-308.851"/>
</g>
<!-- Node18 -->
<g id="node18" class="node"><title>Node18</title>
<g id="a_node18"><a xlink:href="_view_attacher_8h.html" target="_top" xlink:title="ViewAttacher.h">
<polygon fill="none" stroke="black" points="180.493,-224.5 180.493,-243.5 263.493,-243.5 263.493,-224.5 180.493,-224.5"/>
<text text-anchor="middle" x="221.993" y="-231.5" font-family="Helvetica,sans-Serif" font-size="10.00">ViewAttacher.h</text>
</a>
</g>
</g>
<!-- Node13&#45;&gt;Node18 -->
<g id="edge28" class="edge"><title>Node13&#45;&gt;Node18</title>
<path fill="none" stroke="midnightblue" d="M291.347,-336.367C280.625,-327.978 264.792,-314.423 253.993,-300 243.166,-285.541 234.416,-266.849 228.82,-253.224"/>
<polygon fill="midnightblue" stroke="midnightblue" points="231.94,-251.591 225.029,-243.56 225.423,-254.148 231.94,-251.591"/>
</g>
<!-- Node19 -->
<g id="node19" class="node"><title>Node19</title>
<g id="a_node19"><a xlink:href="_view_8h.html" target="_top" xlink:title="View.h">
<polygon fill="none" stroke="black" points="339.493,-280.5 339.493,-299.5 386.493,-299.5 386.493,-280.5 339.493,-280.5"/>
<text text-anchor="middle" x="362.993" y="-287.5" font-family="Helvetica,sans-Serif" font-size="10.00">View.h</text>
</a>
</g>
</g>
<!-- Node13&#45;&gt;Node19 -->
<g id="edge27" class="edge"><title>Node13&#45;&gt;Node19</title>
<path fill="none" stroke="midnightblue" d="M312.633,-336.324C321.502,-328.341 334.867,-316.313 345.601,-306.653"/>
<polygon fill="midnightblue" stroke="midnightblue" points="348.086,-309.125 353.177,-299.834 343.403,-303.922 348.086,-309.125"/>
</g>
<!-- Node14&#45;&gt;Node11 -->
<g id="edge18" class="edge"><title>Node14&#45;&gt;Node11</title>
<path fill="none" stroke="midnightblue" d="M290.737,-280.368C288.155,-262.617 282.199,-221.666 278.698,-197.597"/>
<polygon fill="midnightblue" stroke="midnightblue" points="282.145,-196.983 277.242,-187.591 275.218,-197.991 282.145,-196.983"/>
</g>
<!-- Node14&#45;&gt;Node12 -->
<g id="edge25" class="edge"><title>Node14&#45;&gt;Node12</title>
<path fill="none" stroke="midnightblue" d="M314.652,-280.444C338.395,-271.478 375.902,-257.314 402.731,-247.183"/>
<polygon fill="midnightblue" stroke="midnightblue" points="404.321,-250.324 412.44,-243.516 401.848,-243.775 404.321,-250.324"/>
</g>
<!-- Node15 -->
<g id="node15" class="node"><title>Node15</title>
<g id="a_node15"><a xlink:href="_styles_8h.html" target="_top" xlink:title="Styles.h">
<polygon fill="none" stroke="black" points="320.493,-224.5 320.493,-243.5 373.493,-243.5 373.493,-224.5 320.493,-224.5"/>
<text text-anchor="middle" x="346.993" y="-231.5" font-family="Helvetica,sans-Serif" font-size="10.00">Styles.h</text>
</a>
</g>
</g>
<!-- Node14&#45;&gt;Node15 -->
<g id="edge19" class="edge"><title>Node14&#45;&gt;Node15</title>
<path fill="none" stroke="midnightblue" d="M301.075,-280.083C309.164,-272.141 321.188,-260.335 330.903,-250.797"/>
<polygon fill="midnightblue" stroke="midnightblue" points="333.396,-253.254 338.08,-243.751 328.492,-248.26 333.396,-253.254"/>
</g>
<!-- Node14&#45;&gt;Node18 -->
<g id="edge26" class="edge"><title>Node14&#45;&gt;Node18</title>
<path fill="none" stroke="midnightblue" d="M280.746,-280.324C270.195,-272.185 254.192,-259.839 241.551,-250.087"/>
<polygon fill="midnightblue" stroke="midnightblue" points="243.5,-247.171 233.444,-243.834 239.224,-252.713 243.5,-247.171"/>
</g>
<!-- Node15&#45;&gt;Node4 -->
<g id="edge24" class="edge"><title>Node15&#45;&gt;Node4</title>
<path fill="none" stroke="midnightblue" d="M320.306,-228.065C267.047,-218.216 147.657,-196.137 88.9299,-185.276"/>
<polygon fill="midnightblue" stroke="midnightblue" points="89.505,-181.823 79.0353,-183.446 88.232,-188.706 89.505,-181.823"/>
</g>
<!-- Node15&#45;&gt;Node11 -->
<g id="edge20" class="edge"><title>Node15&#45;&gt;Node11</title>
<path fill="none" stroke="midnightblue" d="M335.585,-224.324C324.884,-216.185 308.652,-203.839 295.83,-194.087"/>
<polygon fill="midnightblue" stroke="midnightblue" points="297.686,-191.102 287.608,-187.834 293.448,-196.673 297.686,-191.102"/>
</g>
<!-- Node16 -->
<g id="node16" class="node"><title>Node16</title>
<g id="a_node16"><a xlink:href="_ui_font_8h.html" target="_top" xlink:title="UiFont.h">
<polygon fill="none" stroke="black" points="319.993,-168.5 319.993,-187.5 373.993,-187.5 373.993,-168.5 319.993,-168.5"/>
<text text-anchor="middle" x="346.993" y="-175.5" font-family="Helvetica,sans-Serif" font-size="10.00">UiFont.h</text>
</a>
</g>
</g>
<!-- Node15&#45;&gt;Node16 -->
<g id="edge21" class="edge"><title>Node15&#45;&gt;Node16</title>
<path fill="none" stroke="midnightblue" d="M346.993,-224.083C346.993,-217.006 346.993,-206.861 346.993,-197.986"/>
<polygon fill="midnightblue" stroke="midnightblue" points="350.493,-197.751 346.993,-187.751 343.493,-197.751 350.493,-197.751"/>
</g>
<!-- Node16&#45;&gt;Node7 -->
<g id="edge23" class="edge"><title>Node16&#45;&gt;Node7</title>
<path fill="none" stroke="midnightblue" d="M319.96,-170.213C316.611,-169.435 313.228,-168.678 309.993,-168 239.87,-153.3 158.226,-139.462 106.584,-131.11"/>
<polygon fill="midnightblue" stroke="midnightblue" points="107.097,-127.648 96.6675,-129.515 105.984,-134.559 107.097,-127.648"/>
</g>
<!-- Node17 -->
<g id="node17" class="node"><title>Node17</title>
<g id="a_node17"><a xlink:href="_hash_8h.html" target="_top" xlink:title="../Util/Hash.h">
<polygon fill="none" stroke="black" points="309.493,-112.5 309.493,-131.5 384.493,-131.5 384.493,-112.5 309.493,-112.5"/>
<text text-anchor="middle" x="346.993" y="-119.5" font-family="Helvetica,sans-Serif" font-size="10.00">../Util/Hash.h</text>
</a>
</g>
</g>
<!-- Node16&#45;&gt;Node17 -->
<g id="edge22" class="edge"><title>Node16&#45;&gt;Node17</title>
<path fill="none" stroke="midnightblue" d="M346.993,-168.083C346.993,-161.006 346.993,-150.861 346.993,-141.986"/>
<polygon fill="midnightblue" stroke="midnightblue" points="350.493,-141.751 346.993,-131.751 343.493,-141.751 350.493,-141.751"/>
</g>
<!-- Node20&#45;&gt;Node2 -->
<g id="edge30" class="edge"><title>Node20&#45;&gt;Node2</title>
<path fill="none" stroke="midnightblue" d="M391.71,-448.324C382.156,-440.263 367.713,-428.077 356.208,-418.369"/>
<polygon fill="midnightblue" stroke="midnightblue" points="358.363,-415.608 348.463,-411.834 353.848,-420.958 358.363,-415.608"/>
</g>
<!-- Node20&#45;&gt;Node9 -->
<g id="edge37" class="edge"><title>Node20&#45;&gt;Node9</title>
<path fill="none" stroke="midnightblue" d="M376.006,-448.444C348.297,-439.32 304.24,-424.813 273.377,-414.651"/>
<polygon fill="midnightblue" stroke="midnightblue" points="274.451,-411.32 263.857,-411.516 272.261,-417.968 274.451,-411.32"/>
</g>
<!-- Node20&#45;&gt;Node14 -->
<g id="edge32" class="edge"><title>Node20&#45;&gt;Node14</title>
<path fill="none" stroke="midnightblue" d="M400.253,-448.321C397.527,-435.601 391.651,-411.31 382.993,-392 370.985,-365.219 367.483,-357.944 347.993,-336 337.798,-324.521 324.46,-313.677 313.358,-305.511"/>
<polygon fill="midnightblue" stroke="midnightblue" points="315.211,-302.534 305.037,-299.576 311.146,-308.232 315.211,-302.534"/>
</g>
<!-- Node21 -->
<g id="node21" class="node"><title>Node21</title>
<polygon fill="none" stroke="#bfbfbf" points="429.993,-392.5 429.993,-411.5 515.993,-411.5 515.993,-392.5 429.993,-392.5"/>
<text text-anchor="middle" x="472.993" y="-399.5" font-family="Helvetica,sans-Serif" font-size="10.00">SDL2/SDL_ttf.h</text>
</g>
<!-- Node20&#45;&gt;Node21 -->
<g id="edge31" class="edge"><title>Node20&#45;&gt;Node21</title>
<path fill="none" stroke="midnightblue" d="M413.4,-448.324C424.102,-440.185 440.333,-427.839 453.156,-418.087"/>
<polygon fill="midnightblue" stroke="midnightblue" points="455.537,-420.673 461.378,-411.834 451.3,-415.102 455.537,-420.673"/>
</g>
<!-- Node22 -->
<g id="node22" class="node"><title>Node22</title>
<g id="a_node22"><a xlink:href="_res_8h.html" target="_top" xlink:title="../Res.h">
<polygon fill="none" stroke="black" points="571.993,-392.5 571.993,-411.5 623.993,-411.5 623.993,-392.5 571.993,-392.5"/>
<text text-anchor="middle" x="597.993" y="-399.5" font-family="Helvetica,sans-Serif" font-size="10.00">../Res.h</text>
</a>
</g>
</g>
<!-- Node20&#45;&gt;Node22 -->
<g id="edge33" class="edge"><title>Node20&#45;&gt;Node22</title>
<path fill="none" stroke="midnightblue" d="M433.05,-448.444C468.076,-438.793 524.957,-423.122 561.923,-412.938"/>
<polygon fill="midnightblue" stroke="midnightblue" points="563.075,-416.251 571.786,-410.22 561.215,-409.502 563.075,-416.251"/>
</g>
<!-- Node22&#45;&gt;Node5 -->
<g id="edge34" class="edge"><title>Node22&#45;&gt;Node5</title>
<path fill="none" stroke="midnightblue" d="M585.691,-392.337C574.869,-384.123 559.412,-370.857 549.993,-356 533.736,-330.36 528.993,-321.359 528.993,-291 528.993,-291 528.993,-291 528.993,-177 528.993,-106.685 298.272,-79.8247 185.545,-70.8976"/>
<polygon fill="midnightblue" stroke="midnightblue" points="185.582,-67.3902 175.343,-70.1132 185.045,-74.3696 185.582,-67.3902"/>
</g>
<!-- Node23 -->
<g id="node23" class="node"><title>Node23</title>
<g id="a_node23"><a xlink:href="_exception_8h.html" target="_top" xlink:title="../Exception.h">
<polygon fill="none" stroke="black" points="559.493,-336.5 559.493,-355.5 636.493,-355.5 636.493,-336.5 559.493,-336.5"/>
<text text-anchor="middle" x="597.993" y="-343.5" font-family="Helvetica,sans-Serif" font-size="10.00">../Exception.h</text>
</a>
</g>
</g>
<!-- Node22&#45;&gt;Node23 -->
<g id="edge35" class="edge"><title>Node22&#45;&gt;Node23</title>
<path fill="none" stroke="midnightblue" d="M597.993,-392.083C597.993,-385.006 597.993,-374.861 597.993,-365.986"/>
<polygon fill="midnightblue" stroke="midnightblue" points="601.493,-365.751 597.993,-355.751 594.493,-365.751 601.493,-365.751"/>
</g>
<!-- Node24 -->
<g id="node24" class="node"><title>Node24</title>
<polygon fill="none" stroke="#bfbfbf" points="568.493,-280.5 568.493,-299.5 627.493,-299.5 627.493,-280.5 568.493,-280.5"/>
<text text-anchor="middle" x="597.993" y="-287.5" font-family="Helvetica,sans-Serif" font-size="10.00">exception</text>
</g>
<!-- Node23&#45;&gt;Node24 -->
<g id="edge36" class="edge"><title>Node23&#45;&gt;Node24</title>
<path fill="none" stroke="midnightblue" d="M597.993,-336.083C597.993,-329.006 597.993,-318.861 597.993,-309.986"/>
<polygon fill="midnightblue" stroke="midnightblue" points="601.493,-309.751 597.993,-299.751 594.493,-309.751 601.493,-309.751"/>
</g>
<!-- Node26 -->
<g id="node26" class="node"><title>Node26</title>
<g id="a_node26"><a xlink:href="_sdl_box_view_8h.html" target="_top" xlink:title="SdlBoxView.h">
<polygon fill="none" stroke="black" points="479.993,-448.5 479.993,-467.5 557.993,-467.5 557.993,-448.5 479.993,-448.5"/>
<text text-anchor="middle" x="518.993" y="-455.5" font-family="Helvetica,sans-Serif" font-size="10.00">SdlBoxView.h</text>
</a>
</g>
</g>
<!-- Node25&#45;&gt;Node26 -->
<g id="edge39" class="edge"><title>Node25&#45;&gt;Node26</title>
<path fill="none" stroke="midnightblue" d="M488.937,-504.083C493.97,-496.534 501.33,-485.495 507.506,-476.23"/>
<polygon fill="midnightblue" stroke="midnightblue" points="510.524,-478.013 513.159,-467.751 504.7,-474.13 510.524,-478.013"/>
</g>
<!-- Node27 -->
<g id="node27" class="node"><title>Node27</title>
<g id="a_node27"><a xlink:href="_sdl_view_8h.html" target="_top" xlink:title="SdlView.h">
<polygon fill="none" stroke="black" points="436.493,-336.5 436.493,-355.5 497.493,-355.5 497.493,-336.5 436.493,-336.5"/>
<text text-anchor="middle" x="466.993" y="-343.5" font-family="Helvetica,sans-Serif" font-size="10.00">SdlView.h</text>
</a>
</g>
</g>
<!-- Node26&#45;&gt;Node27 -->
<g id="edge40" class="edge"><title>Node26&#45;&gt;Node27</title>
<path fill="none" stroke="midnightblue" d="M522.481,-448.489C527.205,-435.562 534.066,-410.523 524.993,-392 518.47,-378.684 505.897,-368.177 494.12,-360.676"/>
<polygon fill="midnightblue" stroke="midnightblue" points="495.775,-357.589 485.382,-355.529 492.222,-363.621 495.775,-357.589"/>
</g>
<!-- Node27&#45;&gt;Node19 -->
<g id="edge41" class="edge"><title>Node27&#45;&gt;Node19</title>
<path fill="none" stroke="midnightblue" d="M450.283,-336.324C433.681,-327.703 407.991,-314.364 388.772,-304.386"/>
<polygon fill="midnightblue" stroke="midnightblue" points="390.149,-301.156 379.661,-299.655 386.923,-307.369 390.149,-301.156"/>
</g>
</g>
</svg>
