<?xml version="1.0" encoding="UTF-8" standalone="no"?>
<!DOCTYPE svg PUBLIC "-//W3C//DTD SVG 1.1//EN"
 "http://www.w3.org/Graphics/SVG/1.1/DTD/svg11.dtd">
<!-- Generated by graphviz version 2.26.3 (20100126.1600)
 -->
<!-- Title: SdlLabelView.h Pages: 1 -->
<!--zoomable 494 -->
<svg id="main" version="1.1" xmlns="http://www.w3.org/2000/svg" xmlns:xlink="http://www.w3.org/1999/xlink" xml:space="preserve" onload="init(evt)">
<style type="text/css"><![CDATA[
.edge:hover path { stroke: red; }
.edge:hover polygon { stroke: red; fill: red; }
]]></style>
<script type="text/javascript"><![CDATA[
var edges = document.getElementsByTagName('g');
if (edges && edges.length) {
  for (var i=0;i<edges.length;i++) {
    if (edges[i].id.substr(0,4)=='edge') {
      edges[i].setAttribute('class','edge');
    }
  }
}
]]></script>
        <defs>
                <circle id="rim" cx="0" cy="0" r="7"/>
                <circle id="rim2" cx="0" cy="0" r="3.5"/>
                <g id="zoomPlus">
                        <use xlink:href="#rim" fill="#404040">
                                <set attributeName="fill" to="#808080" begin="zoomplus.mouseover" end="zoomplus.mouseout"/>
                        </use>
                        <path d="M-4,0h8M0,-4v8" fill="none" stroke="white" stroke-width="1.5" pointer-events="none"/>
                </g>
                <g id="zoomMin">
                        <use xlink:href="#rim" fill="#404040">
                                <set attributeName="fill" to="#808080" begin="zoomminus.mouseover" end="zoomminus.mouseout"/>
                        </use>
                        <path d="M-4,0h8" fill="none" stroke="white" stroke-width="1.5" pointer-events="none"/>
                </g>
                <g id="dirArrow">
                        <path fill="none" stroke="white" stroke-width="1.5" d="M0,-3.0v7 M-2.5,-0.5L0,-3.0L2.5,-0.5"/>
                </g>
               <g id="resetDef">
                       <use xlink:href="#rim2" fill="#404040">
                               <set attributeName="fill" to="#808080" begin="reset.mouseover" end="reset.mouseout"/>
                       </use>
               </g>
        </defs>

<script type="text/javascript">
var viewWidth = 600;
var viewHeight = 494;
var sectionId = 'dynsection-0';
</script>
<script xlink:href="svgpan.js"/>
<svg id="graph" class="graph">
<g id="viewport">
<title>SdlLabelView.h</title>
<!-- Node1 -->
<g id="node1" class="node"><title>Node1</title>
<polygon fill="#bfbfbf" stroke="black" points="233,-465 233,-485 317,-485 317,-465 233,-465"/>
<text text-anchor="middle" x="275" y="-472" font-family="FreeSans" font-size="10.00">SdlLabelView.h</text>
</g>
<!-- Node2 -->
<g id="node3" class="node"><title>Node2</title>
<a xlink:href="_sdl_display_8h.html" target="_top" xlink:title="SdlDisplay.h">
<polygon fill="none" stroke="black" points="240,-407 240,-427 310,-427 310,-407 240,-407"/>
<text text-anchor="middle" x="275" y="-414" font-family="FreeSans" font-size="10.00">SdlDisplay.h</text>
</a>
</g>
<!-- Node1&#45;&gt;Node2 -->
<g id="edge2" class="edge"><title>Node1&#45;&gt;Node2</title>
<path fill="none" stroke="midnightblue" d="M275,-464.897C275,-457.339 275,-446.748 275,-437.446"/>
<polygon fill="midnightblue" stroke="midnightblue" points="278.5,-437.378 275,-427.378 271.5,-437.378 278.5,-437.378"/>
</g>
<!-- Node21 -->
<g id="node50" class="node"><title>Node21</title>
<a xlink:href="_sdl_texture_8h.html" target="_top" xlink:title="SdlTexture.h">
<polygon fill="none" stroke="black" points="39.5,-407 39.5,-427 110.5,-427 110.5,-407 39.5,-407"/>
<text text-anchor="middle" x="75" y="-414" font-family="FreeSans" font-size="10.00">SdlTexture.h</text>
</a>
</g>
<!-- Node1&#45;&gt;Node21 -->
<g id="edge58" class="edge"><title>Node1&#45;&gt;Node21</title>
<path fill="none" stroke="midnightblue" d="M240.163,-464.897C206.711,-455.196 156.028,-440.498 119.633,-429.944"/>
<polygon fill="midnightblue" stroke="midnightblue" points="120.352,-426.508 109.773,-427.084 118.403,-433.231 120.352,-426.508"/>
</g>
<!-- Node23 -->
<g id="node56" class="node"><title>Node23</title>
<a xlink:href="_sdl_view_8h.html" target="_top" xlink:title="SdlView.h">
<polygon fill="none" stroke="black" points="374,-407 374,-427 434,-427 434,-407 374,-407"/>
<text text-anchor="middle" x="404" y="-414" font-family="FreeSans" font-size="10.00">SdlView.h</text>
</a>
</g>
<!-- Node1&#45;&gt;Node23 -->
<g id="edge66" class="edge"><title>Node1&#45;&gt;Node23</title>
<path fill="none" stroke="midnightblue" d="M297.47,-464.897C318.061,-455.639 348.775,-441.83 371.94,-431.415"/>
<polygon fill="midnightblue" stroke="midnightblue" points="373.669,-434.475 381.355,-427.182 370.799,-428.09 373.669,-434.475"/>
</g>
<!-- Node3 -->
<g id="node5" class="node"><title>Node3</title>
<polygon fill="none" stroke="#bfbfbf" points="39.5,-291 39.5,-311 110.5,-311 110.5,-291 39.5,-291"/>
<text text-anchor="middle" x="75" y="-298" font-family="FreeSans" font-size="10.00">SDL2/SDL.h</text>
</g>
<!-- Node2&#45;&gt;Node3 -->
<g id="edge4" class="edge"><title>Node2&#45;&gt;Node3</title>
<path fill="none" stroke="midnightblue" d="M243.012,-406.978C219.006,-398.771 185.803,-385.933 159,-370 134.133,-355.219 108.93,-333.401 92.7083,-318.272"/>
<polygon fill="midnightblue" stroke="midnightblue" points="94.7556,-315.39 85.0933,-311.044 89.9362,-320.467 94.7556,-315.39"/>
</g>
<!-- Node4 -->
<g id="node7" class="node"><title>Node4</title>
<polygon fill="none" stroke="#bfbfbf" points="337,-349 337,-369 423,-369 423,-349 337,-349"/>
<text text-anchor="middle" x="380" y="-356" font-family="FreeSans" font-size="10.00">SDL2/SDL_ttf.h</text>
</g>
<!-- Node2&#45;&gt;Node4 -->
<g id="edge6" class="edge"><title>Node2&#45;&gt;Node4</title>
<path fill="none" stroke="midnightblue" d="M293.29,-406.897C309.676,-397.846 333.937,-384.444 352.633,-374.117"/>
<polygon fill="midnightblue" stroke="midnightblue" points="354.507,-377.081 361.568,-369.182 351.122,-370.953 354.507,-377.081"/>
</g>
<!-- Node5 -->
<g id="node9" class="node"><title>Node5</title>
<a xlink:href="_display_8h.html" target="_top" xlink:title="../Display.h">
<polygon fill="none" stroke="black" points="183.5,-233 183.5,-253 246.5,-253 246.5,-233 183.5,-233"/>
<text text-anchor="middle" x="215" y="-240" font-family="FreeSans" font-size="10.00">../Display.h</text>
</a>
</g>
<!-- Node2&#45;&gt;Node5 -->
<g id="edge8" class="edge"><title>Node2&#45;&gt;Node5</title>
<path fill="none" stroke="midnightblue" d="M257.61,-406.867C245.293,-398.644 229.653,-385.834 222,-370 205.343,-335.535 208.035,-289.514 211.509,-263.389"/>
<polygon fill="midnightblue" stroke="midnightblue" points="215.015,-263.61 213.043,-253.2 208.093,-262.568 215.015,-263.61"/>
</g>
<!-- Node15 -->
<g id="node32" class="node"><title>Node15</title>
<a xlink:href="_res_8h.html" target="_top" xlink:title="../Res.h">
<polygon fill="none" stroke="black" points="479.5,-349 479.5,-369 528.5,-369 528.5,-349 479.5,-349"/>
<text text-anchor="middle" x="504" y="-356" font-family="FreeSans" font-size="10.00">../Res.h</text>
</a>
</g>
<!-- Node2&#45;&gt;Node15 -->
<g id="edge34" class="edge"><title>Node2&#45;&gt;Node15</title>
<path fill="none" stroke="midnightblue" d="M310.279,-408.065C353.603,-397.092 426.607,-378.602 469.549,-367.726"/>
<polygon fill="midnightblue" stroke="midnightblue" points="470.431,-371.113 479.266,-365.264 468.713,-364.327 470.431,-371.113"/>
</g>
<!-- Node18 -->
<g id="node39" class="node"><title>Node18</title>
<a xlink:href="_ui_view_model_8h.html" target="_top" xlink:title="../UiViewModel.h">
<polygon fill="none" stroke="black" points="230.5,-349 230.5,-369 319.5,-369 319.5,-349 230.5,-349"/>
<text text-anchor="middle" x="275" y="-356" font-family="FreeSans" font-size="10.00">../UiViewModel.h</text>
</a>
</g>
<!-- Node2&#45;&gt;Node18 -->
<g id="edge42" class="edge"><title>Node2&#45;&gt;Node18</title>
<path fill="none" stroke="midnightblue" d="M275,-406.897C275,-399.339 275,-388.748 275,-379.446"/>
<polygon fill="midnightblue" stroke="midnightblue" points="278.5,-379.378 275,-369.378 271.5,-379.378 278.5,-379.378"/>
</g>
<!-- Node6 -->
<g id="node11" class="node"><title>Node6</title>
<a xlink:href="_vec_8h.html" target="_top" xlink:title="../Vec.h">
<polygon fill="none" stroke="black" points="337.5,-175 337.5,-195 386.5,-195 386.5,-175 337.5,-175"/>
<text text-anchor="middle" x="362" y="-182" font-family="FreeSans" font-size="10.00">../Vec.h</text>
</a>
</g>
<!-- Node5&#45;&gt;Node6 -->
<g id="edge10" class="edge"><title>Node5&#45;&gt;Node6</title>
<path fill="none" stroke="midnightblue" d="M240.605,-232.897C264.782,-223.358 301.204,-208.988 327.846,-198.476"/>
<polygon fill="midnightblue" stroke="midnightblue" points="329.16,-201.72 337.178,-194.794 326.591,-195.208 329.16,-201.72"/>
</g>
<!-- Node7 -->
<g id="node13" class="node"><title>Node7</title>
<a xlink:href="_ui_font_8h.html" target="_top" xlink:title="UiFont.h">
<polygon fill="none" stroke="black" points="167.5,-175 167.5,-195 220.5,-195 220.5,-175 167.5,-175"/>
<text text-anchor="middle" x="194" y="-182" font-family="FreeSans" font-size="10.00">UiFont.h</text>
</a>
</g>
<!-- Node5&#45;&gt;Node7 -->
<g id="edge12" class="edge"><title>Node5&#45;&gt;Node7</title>
<path fill="none" stroke="midnightblue" d="M211.342,-232.897C208.546,-225.175 204.603,-214.286 201.184,-204.841"/>
<polygon fill="midnightblue" stroke="midnightblue" points="204.453,-203.589 197.757,-195.378 197.871,-205.972 204.453,-203.589"/>
</g>
<!-- Node11 -->
<g id="node21" class="node"><title>Node11</title>
<a xlink:href="_color_8h.html" target="_top" xlink:title="Color.h">
<polygon fill="none" stroke="black" points="103.5,-175 103.5,-195 150.5,-195 150.5,-175 103.5,-175"/>
<text text-anchor="middle" x="127" y="-182" font-family="FreeSans" font-size="10.00">Color.h</text>
</a>
</g>
<!-- Node5&#45;&gt;Node11 -->
<g id="edge20" class="edge"><title>Node5&#45;&gt;Node11</title>
<path fill="none" stroke="midnightblue" d="M199.672,-232.897C186.252,-224.052 166.53,-211.054 151.016,-200.829"/>
<polygon fill="midnightblue" stroke="midnightblue" points="152.724,-197.762 142.448,-195.182 148.872,-203.607 152.724,-197.762"/>
</g>
<!-- Node13 -->
<g id="node27" class="node"><title>Node13</title>
<a xlink:href="_ui_layout_flags_8h.html" target="_top" xlink:title="UiLayoutFlags.h">
<polygon fill="none" stroke="black" points="-0.5,-175 -0.5,-195 86.5,-195 86.5,-175 -0.5,-175"/>
<text text-anchor="middle" x="43" y="-182" font-family="FreeSans" font-size="10.00">UiLayoutFlags.h</text>
</a>
</g>
<!-- Node5&#45;&gt;Node13 -->
<g id="edge28" class="edge"><title>Node5&#45;&gt;Node13</title>
<path fill="none" stroke="midnightblue" d="M185.04,-232.897C156.64,-223.321 113.799,-208.874 82.5944,-198.352"/>
<polygon fill="midnightblue" stroke="midnightblue" points="83.499,-194.963 72.9048,-195.084 81.2622,-201.596 83.499,-194.963"/>
</g>
<!-- Node14 -->
<g id="node30" class="node"><title>Node14</title>
<a xlink:href="_view_attacher_8h.html" target="_top" xlink:title="ViewAttacher.h">
<polygon fill="none" stroke="black" points="237.5,-175 237.5,-195 320.5,-195 320.5,-175 237.5,-175"/>
<text text-anchor="middle" x="279" y="-182" font-family="FreeSans" font-size="10.00">ViewAttacher.h</text>
</a>
</g>
<!-- Node5&#45;&gt;Node14 -->
<g id="edge32" class="edge"><title>Node5&#45;&gt;Node14</title>
<path fill="none" stroke="midnightblue" d="M226.148,-232.897C235.485,-224.435 249.018,-212.172 260.052,-202.172"/>
<polygon fill="midnightblue" stroke="midnightblue" points="262.489,-204.686 267.549,-195.378 257.789,-199.499 262.489,-204.686"/>
</g>
<!-- Node8 -->
<g id="node15" class="node"><title>Node8</title>
<a xlink:href="_sel_fmt_8h.html" target="_top" xlink:title="../Util/SelFmt.h">
<polygon fill="none" stroke="black" points="214.5,-117 214.5,-137 295.5,-137 295.5,-117 214.5,-117"/>
<text text-anchor="middle" x="255" y="-124" font-family="FreeSans" font-size="10.00">../Util/SelFmt.h</text>
</a>
</g>
<!-- Node7&#45;&gt;Node8 -->
<g id="edge14" class="edge"><title>Node7&#45;&gt;Node8</title>
<path fill="none" stroke="midnightblue" d="M204.625,-174.897C213.439,-166.517 226.173,-154.409 236.633,-144.464"/>
<polygon fill="midnightblue" stroke="midnightblue" points="239.25,-146.805 244.086,-137.378 234.427,-141.732 239.25,-146.805"/>
</g>
<!-- Node9 -->
<g id="node17" class="node"><title>Node9</title>
<a xlink:href="_m_r___types_8h.html" target="_top" xlink:title="../Util/MR_Types.h">
<polygon fill="none" stroke="black" points="207,-59 207,-79 303,-79 303,-59 207,-59"/>
<text text-anchor="middle" x="255" y="-66" font-family="FreeSans" font-size="10.00">../Util/MR_Types.h</text>
</a>
</g>
<!-- Node8&#45;&gt;Node9 -->
<g id="edge16" class="edge"><title>Node8&#45;&gt;Node9</title>
<path fill="none" stroke="midnightblue" d="M255,-116.897C255,-109.339 255,-98.7476 255,-89.4458"/>
<polygon fill="midnightblue" stroke="midnightblue" points="258.5,-89.3776 255,-79.3776 251.5,-89.3776 258.5,-89.3776"/>
</g>
<!-- Node10 -->
<g id="node19" class="node"><title>Node10</title>
<polygon fill="none" stroke="#bfbfbf" points="226,-1 226,-21 284,-21 284,-1 226,-1"/>
<text text-anchor="middle" x="255" y="-8" font-family="FreeSans" font-size="10.00">inttypes.h</text>
</g>
<!-- Node9&#45;&gt;Node10 -->
<g id="edge18" class="edge"><title>Node9&#45;&gt;Node10</title>
<path fill="none" stroke="midnightblue" d="M255,-58.8972C255,-51.339 255,-40.7476 255,-31.4458"/>
<polygon fill="midnightblue" stroke="midnightblue" points="258.5,-31.3776 255,-21.3776 251.5,-31.3776 258.5,-31.3776"/>
</g>
<!-- Node11&#45;&gt;Node8 -->
<g id="edge26" class="edge"><title>Node11&#45;&gt;Node8</title>
<path fill="none" stroke="midnightblue" d="M149.296,-174.897C169.727,-165.639 200.203,-151.83 223.189,-141.415"/>
<polygon fill="midnightblue" stroke="midnightblue" points="224.866,-144.497 232.53,-137.182 221.977,-138.121 224.866,-144.497"/>
</g>
<!-- Node11&#45;&gt;Node9 -->
<g id="edge24" class="edge"><title>Node11&#45;&gt;Node9</title>
<path fill="none" stroke="midnightblue" d="M117.209,-174.808C104.741,-160.565 86.3591,-134.391 100,-116 111.841,-100.036 157.87,-87.371 196.719,-79.2294"/>
<polygon fill="midnightblue" stroke="midnightblue" points="197.828,-82.5757 206.932,-77.156 196.435,-75.7156 197.828,-82.5757"/>
</g>
<!-- Node12 -->
<g id="node23" class="node"><title>Node12</title>
<polygon fill="none" stroke="#bfbfbf" points="108.5,-117 108.5,-137 197.5,-137 197.5,-117 108.5,-117"/>
<text text-anchor="middle" x="153" y="-124" font-family="FreeSans" font-size="10.00">boost/format.hpp</text>
</g>
<!-- Node11&#45;&gt;Node12 -->
<g id="edge22" class="edge"><title>Node11&#45;&gt;Node12</title>
<path fill="none" stroke="midnightblue" d="M131.529,-174.897C135.027,-167.093 139.976,-156.054 144.241,-146.54"/>
<polygon fill="midnightblue" stroke="midnightblue" points="147.451,-147.934 148.348,-137.378 141.064,-145.071 147.451,-147.934"/>
</g>
<!-- Node13&#45;&gt;Node9 -->
<g id="edge30" class="edge"><title>Node13&#45;&gt;Node9</title>
<path fill="none" stroke="midnightblue" d="M47.4488,-174.915C54.6251,-159.82 70.1903,-131.472 92,-116 122.803,-94.148 163.646,-82.395 196.742,-76.1064"/>
<polygon fill="midnightblue" stroke="midnightblue" points="197.513,-79.5242 206.744,-74.3251 196.286,-72.6327 197.513,-79.5242"/>
</g>
<!-- Node15&#45;&gt;Node9 -->
<g id="edge36" class="edge"><title>Node15&#45;&gt;Node9</title>
<path fill="none" stroke="midnightblue" d="M501.934,-348.809C498.04,-328.678 490,-282.353 490,-243 490,-243 490,-243 490,-185 490,-143.423 370.227,-102.089 301.696,-81.8414"/>
<polygon fill="midnightblue" stroke="midnightblue" points="302.557,-78.4468 291.977,-79.0095 300.599,-85.1673 302.557,-78.4468"/>
</g>
<!-- Node16 -->
<g id="node35" class="node"><title>Node16</title>
<a xlink:href="_exception_8h.html" target="_top" xlink:title="../Exception.h">
<polygon fill="none" stroke="black" points="518,-291 518,-311 592,-311 592,-291 518,-291"/>
<text text-anchor="middle" x="555" y="-298" font-family="FreeSans" font-size="10.00">../Exception.h</text>
</a>
</g>
<!-- Node15&#45;&gt;Node16 -->
<g id="edge38" class="edge"><title>Node15&#45;&gt;Node16</title>
<path fill="none" stroke="midnightblue" d="M512.884,-348.897C520.107,-340.682 530.482,-328.883 539.127,-319.051"/>
<polygon fill="midnightblue" stroke="midnightblue" points="541.9,-321.199 545.875,-311.378 536.643,-316.576 541.9,-321.199"/>
</g>
<!-- Node17 -->
<g id="node37" class="node"><title>Node17</title>
<polygon fill="none" stroke="#bfbfbf" points="526,-233 526,-253 584,-253 584,-233 526,-233"/>
<text text-anchor="middle" x="555" y="-240" font-family="FreeSans" font-size="10.00">exception</text>
</g>
<!-- Node16&#45;&gt;Node17 -->
<g id="edge40" class="edge"><title>Node16&#45;&gt;Node17</title>
<path fill="none" stroke="midnightblue" d="M555,-290.897C555,-283.339 555,-272.748 555,-263.446"/>
<polygon fill="midnightblue" stroke="midnightblue" points="558.5,-263.378 555,-253.378 551.5,-263.378 558.5,-263.378"/>
</g>
<!-- Node18&#45;&gt;Node6 -->
<g id="edge46" class="edge"><title>Node18&#45;&gt;Node6</title>
<path fill="none" stroke="midnightblue" d="M287.004,-348.901C306.31,-331.761 343.463,-294.836 357,-254 362.248,-238.168 363.274,-219.207 363.114,-205.171"/>
<polygon fill="midnightblue" stroke="midnightblue" points="366.61,-205.007 362.789,-195.125 359.614,-205.233 366.61,-205.007"/>
</g>
<!-- Node18&#45;&gt;Node9 -->
<g id="edge44" class="edge"><title>Node18&#45;&gt;Node9</title>
<path fill="none" stroke="midnightblue" d="M305.504,-348.969C346.421,-333.367 414,-299.105 414,-243 414,-243 414,-243 414,-185 414,-129.812 350.711,-98.088 303.992,-82.188"/>
<polygon fill="midnightblue" stroke="midnightblue" points="304.896,-78.8013 294.303,-79.0325 302.728,-85.4572 304.896,-78.8013"/>
</g>
<!-- Node18&#45;&gt;Node13 -->
<g id="edge48" class="edge"><title>Node18&#45;&gt;Node13</title>
<path fill="none" stroke="midnightblue" d="M261.524,-348.893C222.922,-319.942 111.694,-236.521 64.5403,-201.155"/>
<polygon fill="midnightblue" stroke="midnightblue" points="66.6133,-198.335 56.5133,-195.135 62.4133,-203.935 66.6133,-198.335"/>
</g>
<!-- Node19 -->
<g id="node44" class="node"><title>Node19</title>
<a xlink:href="_view_model_8h.html" target="_top" xlink:title="ViewModel.h">
<polygon fill="none" stroke="black" points="239,-291 239,-311 311,-311 311,-291 239,-291"/>
<text text-anchor="middle" x="275" y="-298" font-family="FreeSans" font-size="10.00">ViewModel.h</text>
</a>
</g>
<!-- Node18&#45;&gt;Node19 -->
<g id="edge50" class="edge"><title>Node18&#45;&gt;Node19</title>
<path fill="none" stroke="midnightblue" d="M275,-348.897C275,-341.339 275,-330.748 275,-321.446"/>
<polygon fill="midnightblue" stroke="midnightblue" points="278.5,-321.378 275,-311.378 271.5,-321.378 278.5,-321.378"/>
</g>
<!-- Node19&#45;&gt;Node5 -->
<g id="edge52" class="edge"><title>Node19&#45;&gt;Node5</title>
<path fill="none" stroke="midnightblue" d="M264.549,-290.897C255.88,-282.517 243.354,-270.409 233.066,-260.464"/>
<polygon fill="midnightblue" stroke="midnightblue" points="235.358,-257.811 225.735,-253.378 230.493,-262.844 235.358,-257.811"/>
</g>
<!-- Node19&#45;&gt;Node14 -->
<g id="edge56" class="edge"><title>Node19&#45;&gt;Node14</title>
<path fill="none" stroke="midnightblue" d="M275.355,-290.706C276.015,-271.568 277.441,-230.198 278.301,-205.265"/>
<polygon fill="midnightblue" stroke="midnightblue" points="281.805,-205.22 278.652,-195.106 274.809,-204.979 281.805,-205.22"/>
</g>
<!-- Node20 -->
<g id="node47" class="node"><title>Node20</title>
<a xlink:href="_view_8h.html" target="_top" xlink:title="View.h">
<polygon fill="none" stroke="black" points="302,-233 302,-253 348,-253 348,-233 302,-233"/>
<text text-anchor="middle" x="325" y="-240" font-family="FreeSans" font-size="10.00">View.h</text>
</a>
</g>
<!-- Node19&#45;&gt;Node20 -->
<g id="edge54" class="edge"><title>Node19&#45;&gt;Node20</title>
<path fill="none" stroke="midnightblue" d="M283.709,-290.897C290.792,-282.682 300.963,-270.883 309.439,-261.051"/>
<polygon fill="midnightblue" stroke="midnightblue" points="312.175,-263.237 316.054,-253.378 306.873,-258.666 312.175,-263.237"/>
</g>
<!-- Node21&#45;&gt;Node3 -->
<g id="edge60" class="edge"><title>Node21&#45;&gt;Node3</title>
<path fill="none" stroke="midnightblue" d="M62.2691,-406.975C52.4497,-398.37 39.6253,-385.006 34,-370 30.5678,-360.844 30.5678,-357.156 34,-348 38.219,-336.746 46.4875,-326.415 54.5006,-318.322"/>
<polygon fill="midnightblue" stroke="midnightblue" points="57.3769,-320.423 62.2691,-311.025 52.5842,-315.321 57.3769,-320.423"/>
</g>
<!-- Node22 -->
<g id="node53" class="node"><title>Node22</title>
<a xlink:href="_texture_8h.html" target="_top" xlink:title="../Texture.h">
<polygon fill="none" stroke="black" points="43,-349 43,-369 107,-369 107,-349 43,-349"/>
<text text-anchor="middle" x="75" y="-356" font-family="FreeSans" font-size="10.00">../Texture.h</text>
</a>
</g>
<!-- Node21&#45;&gt;Node22 -->
<g id="edge62" class="edge"><title>Node21&#45;&gt;Node22</title>
<path fill="none" stroke="midnightblue" d="M75,-406.897C75,-399.339 75,-388.748 75,-379.446"/>
<polygon fill="midnightblue" stroke="midnightblue" points="78.5001,-379.378 75,-369.378 71.5001,-379.378 78.5001,-379.378"/>
</g>
<!-- Node22&#45;&gt;Node3 -->
<g id="edge64" class="edge"><title>Node22&#45;&gt;Node3</title>
<path fill="none" stroke="midnightblue" d="M75,-348.897C75,-341.339 75,-330.748 75,-321.446"/>
<polygon fill="midnightblue" stroke="midnightblue" points="78.5001,-321.378 75,-311.378 71.5001,-321.378 78.5001,-321.378"/>
</g>
<!-- Node23&#45;&gt;Node20 -->
<g id="edge68" class="edge"><title>Node23&#45;&gt;Node20</title>
<path fill="none" stroke="midnightblue" d="M413.458,-406.681C424.642,-393.164 440.706,-368.741 432,-348 415.51,-308.715 376.357,-276.738 350.268,-258.785"/>
<polygon fill="midnightblue" stroke="midnightblue" points="351.904,-255.67 341.643,-253.031 348.019,-261.493 351.904,-255.67"/>
</g>
</g>
</svg>
        <g id="navigator" transform="translate(0 0)" fill="#404254">
                <rect fill="#f2f5e9" fill-opacity="0.5" stroke="#606060" stroke-width=".5" x="0" y="0" width="60" height="60"/>
                <use id="zoomplus" xlink:href="#zoomPlus" x="17" y="9" onmousedown="handleZoom(evt,'in')"/>
                <use id="zoomminus" xlink:href="#zoomMin" x="42" y="9" onmousedown="handleZoom(evt,'out')"/>
                <use id="reset" xlink:href="#resetDef" x="30" y="36" onmousedown="handleReset()"/>
                <g id="arrowUp" xlink:href="#dirArrow" transform="translate(30 24)" onmousedown="handlePan(0,-1)">
                  <use xlink:href="#rim" fill="#404040">
                        <set attributeName="fill" to="#808080" begin="arrowUp.mouseover" end="arrowUp.mouseout"/>
                  </use>
                  <path fill="none" stroke="white" stroke-width="1.5" d="M0,-3.0v7 M-2.5,-0.5L0,-3.0L2.5,-0.5"/>
                </g>
                <g id="arrowRight" xlink:href="#dirArrow" transform="rotate(90) translate(36 -43)" onmousedown="handlePan(1,0)">
                  <use xlink:href="#rim" fill="#404040">
                        <set attributeName="fill" to="#808080" begin="arrowRight.mouseover" end="arrowRight.mouseout"/>
                  </use>
                  <path fill="none" stroke="white" stroke-width="1.5" d="M0,-3.0v7 M-2.5,-0.5L0,-3.0L2.5,-0.5"/>
                </g>
                <g id="arrowDown" xlink:href="#dirArrow" transform="rotate(180) translate(-30 -48)" onmousedown="handlePan(0,1)">
                  <use xlink:href="#rim" fill="#404040">
                        <set attributeName="fill" to="#808080" begin="arrowDown.mouseover" end="arrowDown.mouseout"/>
                  </use>
                  <path fill="none" stroke="white" stroke-width="1.5" d="M0,-3.0v7 M-2.5,-0.5L0,-3.0L2.5,-0.5"/>
                </g>
                <g id="arrowLeft" xlink:href="#dirArrow" transform="rotate(270) translate(-36 17)" onmousedown="handlePan(-1,0)">
                  <use xlink:href="#rim" fill="#404040">
                        <set attributeName="fill" to="#808080" begin="arrowLeft.mouseover" end="arrowLeft.mouseout"/>
                  </use>
                  <path fill="none" stroke="white" stroke-width="1.5" d="M0,-3.0v7 M-2.5,-0.5L0,-3.0L2.5,-0.5"/>
                </g>
        </g>
        <svg viewBox="0 0 15 15" width="100%" height="30px" preserveAspectRatio="xMaxYMin meet">
         <g id="arrow_out" transform="scale(0.3 0.3)">
          <a xlink:href="_sdl_label_view_8h__incl_org.svg" target="_base">
           <rect id="button" ry="5" rx="5" y="6" x="6" height="38" width="38"
                fill="#f2f5e9" fill-opacity="0.5" stroke="#606060" stroke-width="1.0"/>
           <path id="arrow"
             d="M 11.500037,31.436501 C 11.940474,20.09759 22.043105,11.32322 32.158766,21.979434 L 37.068811,17.246167 C 37.068811,17.246167 37.088388,32 37.088388,32 L 22.160133,31.978069 C 22.160133,31.978069 26.997745,27.140456 26.997745,27.140456 C 18.528582,18.264221 13.291696,25.230495 11.500037,31.436501 z"
             style="fill:#404040;"/>
          </a>
         </g>
        </svg>
</svg>
