<?xml version="1.0" encoding="UTF-8" standalone="no"?>
<!DOCTYPE svg PUBLIC "-//W3C//DTD SVG 1.1//EN"
 "http://www.w3.org/Graphics/SVG/1.1/DTD/svg11.dtd">
<!-- Generated by graphviz version 2.38.0 (20140413.2041)
 -->
<!-- Title: SdlPictureView.cpp Pages: 1 -->
<!--zoomable 588 -->
<svg id="main" version="1.1" xmlns="http://www.w3.org/2000/svg" xmlns:xlink="http://www.w3.org/1999/xlink" xml:space="preserve" onload="init(evt)">
<style type="text/css"><![CDATA[
.edge:hover path { stroke: red; }
.edge:hover polygon { stroke: red; fill: red; }
]]></style>
<script type="text/javascript"><![CDATA[
var edges = document.getElementsByTagName('g');
if (edges && edges.length) {
  for (var i=0;i<edges.length;i++) {
    if (edges[i].id.substr(0,4)=='edge') {
      edges[i].setAttribute('class','edge');
    }
  }
}
]]></script>
        <defs>
                <circle id="rim" cx="0" cy="0" r="7"/>
                <circle id="rim2" cx="0" cy="0" r="3.5"/>
                <g id="zoomPlus">
                        <use xlink:href="#rim" fill="#404040">
                                <set attributeName="fill" to="#808080" begin="zoomplus.mouseover" end="zoomplus.mouseout"/>
                        </use>
                        <path d="M-4,0h8M0,-4v8" fill="none" stroke="white" stroke-width="1.5" pointer-events="none"/>
                </g>
                <g id="zoomMin">
                        <use xlink:href="#rim" fill="#404040">
                                <set attributeName="fill" to="#808080" begin="zoomminus.mouseover" end="zoomminus.mouseout"/>
                        </use>
                        <path d="M-4,0h8" fill="none" stroke="white" stroke-width="1.5" pointer-events="none"/>
                </g>
                <g id="dirArrow">
                        <path fill="none" stroke="white" stroke-width="1.5" d="M0,-3.0v7 M-2.5,-0.5L0,-3.0L2.5,-0.5"/>
                </g>
               <g id="resetDef">
                       <use xlink:href="#rim2" fill="#404040">
                               <set attributeName="fill" to="#808080" begin="reset.mouseover" end="reset.mouseout"/>
                       </use>
               </g>
        </defs>

<script type="text/javascript">
var viewWidth = 672;
var viewHeight = 588;
var sectionId = 'dynsection-0';
</script>
<script xlink:href="svgpan.js"/>
<svg id="graph" class="graph">
<g id="viewport">
<title>SdlPictureView.cpp</title>
<!-- Node1 -->
<g id="node1" class="node"><title>Node1</title>
<polygon fill="#bfbfbf" stroke="black" points="127,-560.5 127,-579.5 229,-579.5 229,-560.5 127,-560.5"/>
<text text-anchor="middle" x="178" y="-567.5" font-family="Helvetica,sans-Serif" font-size="10.00">SdlPictureView.cpp</text>
</g>
<!-- Node2 -->
<g id="node2" class="node"><title>Node2</title>
<polygon fill="none" stroke="#bfbfbf" points="0,-392.5 0,-411.5 72,-411.5 72,-392.5 0,-392.5"/>
<text text-anchor="middle" x="36" y="-399.5" font-family="Helvetica,sans-Serif" font-size="10.00">SDL2/SDL.h</text>
</g>
<!-- Node1&#45;&gt;Node2 -->
<g id="edge1" class="edge"><title>Node1&#45;&gt;Node2</title>
<path fill="none" stroke="midnightblue" d="M150.352,-560.391C131.3,-553.255 106.531,-541.431 90,-524 61.8695,-494.339 46.7729,-447.553 40.1699,-421.709"/>
<polygon fill="midnightblue" stroke="midnightblue" points="43.5141,-420.645 37.7817,-411.734 36.7065,-422.275 43.5141,-420.645"/>
</g>
<!-- Node3 -->
<g id="node3" class="node"><title>Node3</title>
<g id="a_node3"><a xlink:href="_picture_8h.html" target="_top" xlink:title="../Picture.h">
<polygon fill="none" stroke="black" points="189.5,-504.5 189.5,-523.5 254.5,-523.5 254.5,-504.5 189.5,-504.5"/>
<text text-anchor="middle" x="222" y="-511.5" font-family="Helvetica,sans-Serif" font-size="10.00">../Picture.h</text>
</a>
</g>
</g>
<!-- Node1&#45;&gt;Node3 -->
<g id="edge2" class="edge"><title>Node1&#45;&gt;Node3</title>
<path fill="none" stroke="midnightblue" d="M185.266,-560.083C191.545,-552.377 200.788,-541.033 208.431,-531.653"/>
<polygon fill="midnightblue" stroke="midnightblue" points="211.266,-533.714 214.869,-523.751 205.839,-529.293 211.266,-533.714"/>
</g>
<!-- Node23 -->
<g id="node23" class="node"><title>Node23</title>
<g id="a_node23"><a xlink:href="_sdl_texture_8h.html" target="_top" xlink:title="SdlTexture.h">
<polygon fill="none" stroke="black" points="99,-504.5 99,-523.5 171,-523.5 171,-504.5 99,-504.5"/>
<text text-anchor="middle" x="135" y="-511.5" font-family="Helvetica,sans-Serif" font-size="10.00">SdlTexture.h</text>
</a>
</g>
</g>
<!-- Node1&#45;&gt;Node23 -->
<g id="edge32" class="edge"><title>Node1&#45;&gt;Node23</title>
<path fill="none" stroke="midnightblue" d="M170.899,-560.083C164.763,-552.377 155.73,-541.033 148.261,-531.653"/>
<polygon fill="midnightblue" stroke="midnightblue" points="150.936,-529.394 141.968,-523.751 145.46,-533.754 150.936,-529.394"/>
</g>
<!-- Node25 -->
<g id="node25" class="node"><title>Node25</title>
<g id="a_node25"><a xlink:href="_sdl_picture_view_8h.html" target="_top" xlink:title="SdlPictureView.h">
<polygon fill="none" stroke="black" points="273,-504.5 273,-523.5 365,-523.5 365,-504.5 273,-504.5"/>
<text text-anchor="middle" x="319" y="-511.5" font-family="Helvetica,sans-Serif" font-size="10.00">SdlPictureView.h</text>
</a>
</g>
</g>
<!-- Node1&#45;&gt;Node25 -->
<g id="edge35" class="edge"><title>Node1&#45;&gt;Node25</title>
<path fill="none" stroke="midnightblue" d="M200.342,-560.444C223.753,-551.478 260.736,-537.314 287.19,-527.183"/>
<polygon fill="midnightblue" stroke="midnightblue" points="288.676,-530.361 296.763,-523.516 286.172,-523.824 288.676,-530.361"/>
</g>
<!-- Node4 -->
<g id="node4" class="node"><title>Node4</title>
<g id="a_node4"><a xlink:href="_res_8h.html" target="_top" xlink:title="Res.h">
<polygon fill="none" stroke="black" points="450.5,-392.5 450.5,-411.5 493.5,-411.5 493.5,-392.5 450.5,-392.5"/>
<text text-anchor="middle" x="472" y="-399.5" font-family="Helvetica,sans-Serif" font-size="10.00">Res.h</text>
</a>
</g>
</g>
<!-- Node3&#45;&gt;Node4 -->
<g id="edge3" class="edge"><title>Node3&#45;&gt;Node4</title>
<path fill="none" stroke="midnightblue" d="M254.665,-504.995C283.977,-497.267 327.824,-484.344 364,-468 395.965,-453.559 430.24,-431.721 451.401,-417.409"/>
<polygon fill="midnightblue" stroke="midnightblue" points="453.612,-420.137 459.884,-411.599 449.656,-414.362 453.612,-420.137"/>
</g>
<!-- Node9 -->
<g id="node9" class="node"><title>Node9</title>
<g id="a_node9"><a xlink:href="_fill_box_8h.html" target="_top" xlink:title="FillBox.h">
<polygon fill="none" stroke="black" points="194.5,-448.5 194.5,-467.5 249.5,-467.5 249.5,-448.5 194.5,-448.5"/>
<text text-anchor="middle" x="222" y="-455.5" font-family="Helvetica,sans-Serif" font-size="10.00">FillBox.h</text>
</a>
</g>
</g>
<!-- Node3&#45;&gt;Node9 -->
<g id="edge8" class="edge"><title>Node3&#45;&gt;Node9</title>
<path fill="none" stroke="midnightblue" d="M222,-504.083C222,-497.006 222,-486.861 222,-477.986"/>
<polygon fill="midnightblue" stroke="midnightblue" points="225.5,-477.751 222,-467.751 218.5,-477.751 225.5,-477.751"/>
</g>
<!-- Node5 -->
<g id="node5" class="node"><title>Node5</title>
<g id="a_node5"><a xlink:href="_m_r___types_8h.html" target="_top" xlink:title="../Util/MR_Types.h">
<polygon fill="none" stroke="black" points="127,-56.5 127,-75.5 227,-75.5 227,-56.5 127,-56.5"/>
<text text-anchor="middle" x="177" y="-63.5" font-family="Helvetica,sans-Serif" font-size="10.00">../Util/MR_Types.h</text>
</a>
</g>
</g>
<!-- Node4&#45;&gt;Node5 -->
<g id="edge4" class="edge"><title>Node4&#45;&gt;Node5</title>
<path fill="none" stroke="midnightblue" d="M493.668,-401.658C529.758,-401.539 602.326,-395.935 644,-356 665.823,-335.087 664,-321.225 664,-291 664,-291 664,-291 664,-177 664,-90.4971 367.962,-72.0142 237.508,-68.0689"/>
<polygon fill="midnightblue" stroke="midnightblue" points="237.378,-64.5639 227.283,-67.7793 237.18,-71.5611 237.378,-64.5639"/>
</g>
<!-- Node7 -->
<g id="node7" class="node"><title>Node7</title>
<g id="a_node7"><a xlink:href="_exception_8h.html" target="_top" xlink:title="../Exception.h">
<polygon fill="none" stroke="black" points="558.5,-336.5 558.5,-355.5 635.5,-355.5 635.5,-336.5 558.5,-336.5"/>
<text text-anchor="middle" x="597" y="-343.5" font-family="Helvetica,sans-Serif" font-size="10.00">../Exception.h</text>
</a>
</g>
</g>
<!-- Node4&#45;&gt;Node7 -->
<g id="edge6" class="edge"><title>Node4&#45;&gt;Node7</title>
<path fill="none" stroke="midnightblue" d="M491.807,-392.444C512.287,-383.596 544.483,-369.687 567.865,-359.586"/>
<polygon fill="midnightblue" stroke="midnightblue" points="569.494,-362.695 577.286,-355.516 566.718,-356.269 569.494,-362.695"/>
</g>
<!-- Node6 -->
<g id="node6" class="node"><title>Node6</title>
<polygon fill="none" stroke="#bfbfbf" points="147.5,-0.5 147.5,-19.5 206.5,-19.5 206.5,-0.5 147.5,-0.5"/>
<text text-anchor="middle" x="177" y="-7.5" font-family="Helvetica,sans-Serif" font-size="10.00">inttypes.h</text>
</g>
<!-- Node5&#45;&gt;Node6 -->
<g id="edge5" class="edge"><title>Node5&#45;&gt;Node6</title>
<path fill="none" stroke="midnightblue" d="M177,-56.083C177,-49.0059 177,-38.8611 177,-29.9865"/>
<polygon fill="midnightblue" stroke="midnightblue" points="180.5,-29.751 177,-19.7511 173.5,-29.7511 180.5,-29.751"/>
</g>
<!-- Node8 -->
<g id="node8" class="node"><title>Node8</title>
<polygon fill="none" stroke="#bfbfbf" points="567.5,-280.5 567.5,-299.5 626.5,-299.5 626.5,-280.5 567.5,-280.5"/>
<text text-anchor="middle" x="597" y="-287.5" font-family="Helvetica,sans-Serif" font-size="10.00">exception</text>
</g>
<!-- Node7&#45;&gt;Node8 -->
<g id="edge7" class="edge"><title>Node7&#45;&gt;Node8</title>
<path fill="none" stroke="midnightblue" d="M597,-336.083C597,-329.006 597,-318.861 597,-309.986"/>
<polygon fill="midnightblue" stroke="midnightblue" points="600.5,-309.751 597,-299.751 593.5,-309.751 600.5,-309.751"/>
</g>
<!-- Node10 -->
<g id="node10" class="node"><title>Node10</title>
<g id="a_node10"><a xlink:href="_color_8h.html" target="_top" xlink:title="Color.h">
<polygon fill="none" stroke="black" points="167,-168.5 167,-187.5 215,-187.5 215,-168.5 167,-168.5"/>
<text text-anchor="middle" x="191" y="-175.5" font-family="Helvetica,sans-Serif" font-size="10.00">Color.h</text>
</a>
</g>
</g>
<!-- Node9&#45;&gt;Node10 -->
<g id="edge9" class="edge"><title>Node9&#45;&gt;Node10</title>
<path fill="none" stroke="midnightblue" d="M199.053,-448.485C163.712,-433.711 100,-399.76 100,-347 100,-347 100,-347 100,-289 100,-258.902 100.826,-247.991 119,-224 129.514,-210.12 145.655,-199.468 159.991,-192.021"/>
<polygon fill="midnightblue" stroke="midnightblue" points="161.623,-195.119 169.075,-187.587 158.553,-188.828 161.623,-195.119"/>
</g>
<!-- Node12 -->
<g id="node12" class="node"><title>Node12</title>
<g id="a_node12"><a xlink:href="_ui_view_model_8h.html" target="_top" xlink:title="UiViewModel.h">
<polygon fill="none" stroke="black" points="205.5,-392.5 205.5,-411.5 288.5,-411.5 288.5,-392.5 205.5,-392.5"/>
<text text-anchor="middle" x="247" y="-399.5" font-family="Helvetica,sans-Serif" font-size="10.00">UiViewModel.h</text>
</a>
</g>
</g>
<!-- Node9&#45;&gt;Node12 -->
<g id="edge13" class="edge"><title>Node9&#45;&gt;Node12</title>
<path fill="none" stroke="midnightblue" d="M226.128,-448.083C229.514,-440.77 234.416,-430.181 238.619,-421.103"/>
<polygon fill="midnightblue" stroke="midnightblue" points="241.923,-422.296 242.949,-411.751 235.571,-419.355 241.923,-422.296"/>
</g>
<!-- Node10&#45;&gt;Node5 -->
<g id="edge10" class="edge"><title>Node10&#45;&gt;Node5</title>
<path fill="none" stroke="midnightblue" d="M189.901,-168.368C187.642,-150.617 182.43,-109.666 179.367,-85.5974"/>
<polygon fill="midnightblue" stroke="midnightblue" points="182.828,-85.0695 178.093,-75.5914 175.884,-85.9533 182.828,-85.0695"/>
</g>
<!-- Node11 -->
<g id="node11" class="node"><title>Node11</title>
<g id="a_node11"><a xlink:href="_sel_fmt_8h.html" target="_top" xlink:title="../Util/SelFmt.h">
<polygon fill="none" stroke="black" points="205.5,-112.5 205.5,-131.5 288.5,-131.5 288.5,-112.5 205.5,-112.5"/>
<text text-anchor="middle" x="247" y="-119.5" font-family="Helvetica,sans-Serif" font-size="10.00">../Util/SelFmt.h</text>
</a>
</g>
</g>
<!-- Node10&#45;&gt;Node11 -->
<g id="edge11" class="edge"><title>Node10&#45;&gt;Node11</title>
<path fill="none" stroke="midnightblue" d="M199.997,-168.324C208.194,-160.42 220.506,-148.548 230.472,-138.938"/>
<polygon fill="midnightblue" stroke="midnightblue" points="233.07,-141.295 237.839,-131.834 228.211,-136.256 233.07,-141.295"/>
</g>
<!-- Node11&#45;&gt;Node5 -->
<g id="edge12" class="edge"><title>Node11&#45;&gt;Node5</title>
<path fill="none" stroke="midnightblue" d="M235.753,-112.324C225.203,-104.185 209.199,-91.8395 196.558,-82.0874"/>
<polygon fill="midnightblue" stroke="midnightblue" points="198.507,-79.1707 188.451,-75.8339 194.231,-84.7132 198.507,-79.1707"/>
</g>
<!-- Node12&#45;&gt;Node5 -->
<g id="edge15" class="edge"><title>Node12&#45;&gt;Node5</title>
<path fill="none" stroke="midnightblue" d="M230.489,-392.39C216.33,-384.395 196.049,-371.423 182,-356 143.54,-313.779 133.472,-299.248 119,-244 103.405,-184.467 143.051,-115.629 164.423,-84.2215"/>
<polygon fill="midnightblue" stroke="midnightblue" points="167.505,-85.923 170.388,-75.7279 161.777,-81.9001 167.505,-85.923"/>
</g>
<!-- Node13 -->
<g id="node13" class="node"><title>Node13</title>
<g id="a_node13"><a xlink:href="_nav_8h.html" target="_top" xlink:title="../Control/Nav.h">
<polygon fill="none" stroke="black" points="204,-336.5 204,-355.5 290,-355.5 290,-336.5 204,-336.5"/>
<text text-anchor="middle" x="247" y="-343.5" font-family="Helvetica,sans-Serif" font-size="10.00">../Control/Nav.h</text>
</a>
</g>
</g>
<!-- Node12&#45;&gt;Node13 -->
<g id="edge14" class="edge"><title>Node12&#45;&gt;Node13</title>
<path fill="none" stroke="midnightblue" d="M247,-392.083C247,-385.006 247,-374.861 247,-365.986"/>
<polygon fill="midnightblue" stroke="midnightblue" points="250.5,-365.751 247,-355.751 243.5,-365.751 250.5,-365.751"/>
</g>
<!-- Node14 -->
<g id="node14" class="node"><title>Node14</title>
<g id="a_node14"><a xlink:href="_vec_8h.html" target="_top" xlink:title="../Vec.h">
<polygon fill="none" stroke="black" points="305.5,-168.5 305.5,-187.5 356.5,-187.5 356.5,-168.5 305.5,-168.5"/>
<text text-anchor="middle" x="331" y="-175.5" font-family="Helvetica,sans-Serif" font-size="10.00">../Vec.h</text>
</a>
</g>
</g>
<!-- Node12&#45;&gt;Node14 -->
<g id="edge16" class="edge"><title>Node12&#45;&gt;Node14</title>
<path fill="none" stroke="midnightblue" d="M288.849,-396.395C336.896,-390.169 411.369,-377.321 429,-356 466.426,-310.743 467.244,-273.084 435,-224 419.946,-201.083 390.457,-189.781 366.713,-184.24"/>
<polygon fill="midnightblue" stroke="midnightblue" points="367.119,-180.749 356.615,-182.139 365.693,-187.603 367.119,-180.749"/>
</g>
<!-- Node15 -->
<g id="node15" class="node"><title>Node15</title>
<g id="a_node15"><a xlink:href="_ui_layout_flags_8h.html" target="_top" xlink:title="UiLayoutFlags.h">
<polygon fill="none" stroke="black" points="128,-224.5 128,-243.5 216,-243.5 216,-224.5 128,-224.5"/>
<text text-anchor="middle" x="172" y="-231.5" font-family="Helvetica,sans-Serif" font-size="10.00">UiLayoutFlags.h</text>
</a>
</g>
</g>
<!-- Node12&#45;&gt;Node15 -->
<g id="edge17" class="edge"><title>Node12&#45;&gt;Node15</title>
<path fill="none" stroke="midnightblue" d="M232.235,-392.225C220.256,-384.3 203.939,-371.518 195,-356 176.295,-323.529 172.421,-278.812 171.838,-253.831"/>
<polygon fill="midnightblue" stroke="midnightblue" points="175.336,-253.549 171.763,-243.575 168.336,-253.6 175.336,-253.549"/>
</g>
<!-- Node16 -->
<g id="node16" class="node"><title>Node16</title>
<g id="a_node16"><a xlink:href="_view_model_8h.html" target="_top" xlink:title="ViewModel.h">
<polygon fill="none" stroke="black" points="347.5,-336.5 347.5,-355.5 420.5,-355.5 420.5,-336.5 347.5,-336.5"/>
<text text-anchor="middle" x="384" y="-343.5" font-family="Helvetica,sans-Serif" font-size="10.00">ViewModel.h</text>
</a>
</g>
</g>
<!-- Node12&#45;&gt;Node16 -->
<g id="edge19" class="edge"><title>Node12&#45;&gt;Node16</title>
<path fill="none" stroke="midnightblue" d="M268.708,-392.444C291.355,-383.517 327.072,-369.439 352.752,-359.317"/>
<polygon fill="midnightblue" stroke="midnightblue" points="354.374,-362.44 362.394,-355.516 351.807,-355.927 354.374,-362.44"/>
</g>
<!-- Node15&#45;&gt;Node5 -->
<g id="edge18" class="edge"><title>Node15&#45;&gt;Node5</title>
<path fill="none" stroke="midnightblue" d="M168.4,-224.222C164.944,-215.285 159.967,-200.942 158,-188 152.457,-151.521 163.157,-108.903 170.628,-85.2276"/>
<polygon fill="midnightblue" stroke="midnightblue" points="174.027,-86.0976 173.857,-75.5041 167.383,-83.8914 174.027,-86.0976"/>
</g>
<!-- Node17 -->
<g id="node17" class="node"><title>Node17</title>
<g id="a_node17"><a xlink:href="_display_8h.html" target="_top" xlink:title="Display.h">
<polygon fill="none" stroke="black" points="288,-280.5 288,-299.5 346,-299.5 346,-280.5 288,-280.5"/>
<text text-anchor="middle" x="317" y="-287.5" font-family="Helvetica,sans-Serif" font-size="10.00">Display.h</text>
</a>
</g>
</g>
<!-- Node16&#45;&gt;Node17 -->
<g id="edge20" class="edge"><title>Node16&#45;&gt;Node17</title>
<path fill="none" stroke="midnightblue" d="M373.235,-336.324C363.234,-328.263 348.113,-316.077 336.07,-306.369"/>
<polygon fill="midnightblue" stroke="midnightblue" points="337.943,-303.384 327.961,-299.834 333.55,-308.834 337.943,-303.384"/>
</g>
<!-- Node21 -->
<g id="node21" class="node"><title>Node21</title>
<g id="a_node21"><a xlink:href="_view_attacher_8h.html" target="_top" xlink:title="ViewAttacher.h">
<polygon fill="none" stroke="black" points="343.5,-224.5 343.5,-243.5 426.5,-243.5 426.5,-224.5 343.5,-224.5"/>
<text text-anchor="middle" x="385" y="-231.5" font-family="Helvetica,sans-Serif" font-size="10.00">ViewAttacher.h</text>
</a>
</g>
</g>
<!-- Node16&#45;&gt;Node21 -->
<g id="edge31" class="edge"><title>Node16&#45;&gt;Node21</title>
<path fill="none" stroke="midnightblue" d="M384.078,-336.368C384.24,-318.617 384.612,-277.666 384.831,-253.597"/>
<polygon fill="midnightblue" stroke="midnightblue" points="388.331,-253.623 384.922,-243.591 381.331,-253.559 388.331,-253.623"/>
</g>
<!-- Node22 -->
<g id="node22" class="node"><title>Node22</title>
<g id="a_node22"><a xlink:href="_view_8h.html" target="_top" xlink:title="View.h">
<polygon fill="none" stroke="black" points="483.5,-280.5 483.5,-299.5 530.5,-299.5 530.5,-280.5 483.5,-280.5"/>
<text text-anchor="middle" x="507" y="-287.5" font-family="Helvetica,sans-Serif" font-size="10.00">View.h</text>
</a>
</g>
</g>
<!-- Node16&#45;&gt;Node22 -->
<g id="edge30" class="edge"><title>Node16&#45;&gt;Node22</title>
<path fill="none" stroke="midnightblue" d="M403.49,-336.444C423.642,-327.596 455.323,-313.687 478.331,-303.586"/>
<polygon fill="midnightblue" stroke="midnightblue" points="479.852,-306.741 487.601,-299.516 477.038,-300.332 479.852,-306.741"/>
</g>
<!-- Node17&#45;&gt;Node14 -->
<g id="edge21" class="edge"><title>Node17&#45;&gt;Node14</title>
<path fill="none" stroke="midnightblue" d="M318.099,-280.368C320.358,-262.617 325.57,-221.666 328.633,-197.597"/>
<polygon fill="midnightblue" stroke="midnightblue" points="332.116,-197.953 329.907,-187.591 325.172,-197.069 332.116,-197.953"/>
</g>
<!-- Node17&#45;&gt;Node15 -->
<g id="edge28" class="edge"><title>Node17&#45;&gt;Node15</title>
<path fill="none" stroke="midnightblue" d="M294.024,-280.444C269.843,-271.438 231.582,-257.189 204.354,-247.049"/>
<polygon fill="midnightblue" stroke="midnightblue" points="205.461,-243.727 194.868,-243.516 203.018,-250.286 205.461,-243.727"/>
</g>
<!-- Node18 -->
<g id="node18" class="node"><title>Node18</title>
<g id="a_node18"><a xlink:href="_styles_8h.html" target="_top" xlink:title="Styles.h">
<polygon fill="none" stroke="black" points="233.5,-224.5 233.5,-243.5 286.5,-243.5 286.5,-224.5 233.5,-224.5"/>
<text text-anchor="middle" x="260" y="-231.5" font-family="Helvetica,sans-Serif" font-size="10.00">Styles.h</text>
</a>
</g>
</g>
<!-- Node17&#45;&gt;Node18 -->
<g id="edge22" class="edge"><title>Node17&#45;&gt;Node18</title>
<path fill="none" stroke="midnightblue" d="M307.842,-280.324C299.499,-272.42 286.968,-260.548 276.823,-250.938"/>
<polygon fill="midnightblue" stroke="midnightblue" points="278.991,-248.171 269.325,-243.834 274.177,-253.252 278.991,-248.171"/>
</g>
<!-- Node17&#45;&gt;Node21 -->
<g id="edge29" class="edge"><title>Node17&#45;&gt;Node21</title>
<path fill="none" stroke="midnightblue" d="M327.925,-280.324C338.175,-272.185 353.721,-259.839 366.001,-250.087"/>
<polygon fill="midnightblue" stroke="midnightblue" points="368.221,-252.794 373.876,-243.834 363.868,-247.312 368.221,-252.794"/>
</g>
<!-- Node18&#45;&gt;Node10 -->
<g id="edge27" class="edge"><title>Node18&#45;&gt;Node10</title>
<path fill="none" stroke="midnightblue" d="M248.914,-224.324C238.514,-216.185 222.739,-203.839 210.278,-194.087"/>
<polygon fill="midnightblue" stroke="midnightblue" points="212.32,-191.241 202.288,-187.834 208.006,-196.753 212.32,-191.241"/>
</g>
<!-- Node18&#45;&gt;Node14 -->
<g id="edge23" class="edge"><title>Node18&#45;&gt;Node14</title>
<path fill="none" stroke="midnightblue" d="M271.407,-224.324C282.109,-216.185 298.341,-203.839 311.163,-194.087"/>
<polygon fill="midnightblue" stroke="midnightblue" points="313.544,-196.673 319.385,-187.834 309.307,-191.102 313.544,-196.673"/>
</g>
<!-- Node19 -->
<g id="node19" class="node"><title>Node19</title>
<g id="a_node19"><a xlink:href="_ui_font_8h.html" target="_top" xlink:title="UiFont.h">
<polygon fill="none" stroke="black" points="233,-168.5 233,-187.5 287,-187.5 287,-168.5 233,-168.5"/>
<text text-anchor="middle" x="260" y="-175.5" font-family="Helvetica,sans-Serif" font-size="10.00">UiFont.h</text>
</a>
</g>
</g>
<!-- Node18&#45;&gt;Node19 -->
<g id="edge24" class="edge"><title>Node18&#45;&gt;Node19</title>
<path fill="none" stroke="midnightblue" d="M260,-224.083C260,-217.006 260,-206.861 260,-197.986"/>
<polygon fill="midnightblue" stroke="midnightblue" points="263.5,-197.751 260,-187.751 256.5,-197.751 263.5,-197.751"/>
</g>
<!-- Node19&#45;&gt;Node11 -->
<g id="edge26" class="edge"><title>Node19&#45;&gt;Node11</title>
<path fill="none" stroke="midnightblue" d="M257.853,-168.083C256.131,-160.927 253.653,-150.635 251.5,-141.691"/>
<polygon fill="midnightblue" stroke="midnightblue" points="254.85,-140.654 249.107,-131.751 248.045,-142.293 254.85,-140.654"/>
</g>
<!-- Node20 -->
<g id="node20" class="node"><title>Node20</title>
<g id="a_node20"><a xlink:href="_hash_8h.html" target="_top" xlink:title="../Util/Hash.h">
<polygon fill="none" stroke="black" points="306.5,-112.5 306.5,-131.5 381.5,-131.5 381.5,-112.5 306.5,-112.5"/>
<text text-anchor="middle" x="344" y="-119.5" font-family="Helvetica,sans-Serif" font-size="10.00">../Util/Hash.h</text>
</a>
</g>
</g>
<!-- Node19&#45;&gt;Node20 -->
<g id="edge25" class="edge"><title>Node19&#45;&gt;Node20</title>
<path fill="none" stroke="midnightblue" d="M273.496,-168.324C286.6,-159.9 306.712,-146.971 322.107,-137.074"/>
<polygon fill="midnightblue" stroke="midnightblue" points="324.018,-140.006 330.537,-131.655 320.233,-134.118 324.018,-140.006"/>
</g>
<!-- Node23&#45;&gt;Node2 -->
<g id="edge33" class="edge"><title>Node23&#45;&gt;Node2</title>
<path fill="none" stroke="midnightblue" d="M126.868,-504.447C118.349,-495.448 104.615,-480.838 93,-468 78.2968,-451.749 61.8226,-432.89 50.3811,-419.685"/>
<polygon fill="midnightblue" stroke="midnightblue" points="52.8459,-417.184 43.6583,-411.908 47.5503,-421.762 52.8459,-417.184"/>
</g>
<!-- Node24 -->
<g id="node24" class="node"><title>Node24</title>
<g id="a_node24"><a xlink:href="_texture_8h.html" target="_top" xlink:title="../Texture.h">
<polygon fill="none" stroke="black" points="102.5,-448.5 102.5,-467.5 169.5,-467.5 169.5,-448.5 102.5,-448.5"/>
<text text-anchor="middle" x="136" y="-455.5" font-family="Helvetica,sans-Serif" font-size="10.00">../Texture.h</text>
</a>
</g>
</g>
<!-- Node23&#45;&gt;Node24 -->
<g id="edge34" class="edge"><title>Node23&#45;&gt;Node24</title>
<path fill="none" stroke="midnightblue" d="M135.165,-504.083C135.296,-497.006 135.484,-486.861 135.648,-477.986"/>
<polygon fill="midnightblue" stroke="midnightblue" points="139.152,-477.814 135.838,-467.751 132.153,-477.685 139.152,-477.814"/>
</g>
<!-- Node26 -->
<g id="node26" class="node"><title>Node26</title>
<g id="a_node26"><a xlink:href="_sdl_display_8h.html" target="_top" xlink:title="SdlDisplay.h">
<polygon fill="none" stroke="black" points="283,-448.5 283,-467.5 355,-467.5 355,-448.5 283,-448.5"/>
<text text-anchor="middle" x="319" y="-455.5" font-family="Helvetica,sans-Serif" font-size="10.00">SdlDisplay.h</text>
</a>
</g>
</g>
<!-- Node25&#45;&gt;Node26 -->
<g id="edge36" class="edge"><title>Node25&#45;&gt;Node26</title>
<path fill="none" stroke="midnightblue" d="M319,-504.083C319,-497.006 319,-486.861 319,-477.986"/>
<polygon fill="midnightblue" stroke="midnightblue" points="322.5,-477.751 319,-467.751 315.5,-477.751 322.5,-477.751"/>
</g>
<!-- Node28 -->
<g id="node28" class="node"><title>Node28</title>
<g id="a_node28"><a xlink:href="_sdl_view_8h.html" target="_top" xlink:title="SdlView.h">
<polygon fill="none" stroke="black" points="479.5,-336.5 479.5,-355.5 540.5,-355.5 540.5,-336.5 479.5,-336.5"/>
<text text-anchor="middle" x="510" y="-343.5" font-family="Helvetica,sans-Serif" font-size="10.00">SdlView.h</text>
</a>
</g>
</g>
<!-- Node25&#45;&gt;Node28 -->
<g id="edge42" class="edge"><title>Node25&#45;&gt;Node28</title>
<path fill="none" stroke="midnightblue" d="M353.148,-504.435C395.628,-491.849 466.839,-464.009 502,-412 511.054,-398.607 512.519,-380.039 512.031,-366.177"/>
<polygon fill="midnightblue" stroke="midnightblue" points="515.497,-365.578 511.286,-355.856 508.515,-366.082 515.497,-365.578"/>
</g>
<!-- Node26&#45;&gt;Node2 -->
<g id="edge37" class="edge"><title>Node26&#45;&gt;Node2</title>
<path fill="none" stroke="midnightblue" d="M282.87,-450.106C231.809,-440.363 138.514,-422.561 82.39,-411.852"/>
<polygon fill="midnightblue" stroke="midnightblue" points="82.8404,-408.375 72.3616,-409.938 81.5283,-415.251 82.8404,-408.375"/>
</g>
<!-- Node26&#45;&gt;Node4 -->
<g id="edge40" class="edge"><title>Node26&#45;&gt;Node4</title>
<path fill="none" stroke="midnightblue" d="M343.243,-448.444C369.624,-439.133 411.887,-424.216 440.744,-414.032"/>
<polygon fill="midnightblue" stroke="midnightblue" points="442.079,-417.272 450.344,-410.643 439.749,-410.671 442.079,-417.272"/>
</g>
<!-- Node26&#45;&gt;Node12 -->
<g id="edge41" class="edge"><title>Node26&#45;&gt;Node12</title>
<path fill="none" stroke="midnightblue" d="M307.432,-448.324C296.58,-440.185 280.119,-427.839 267.117,-418.087"/>
<polygon fill="midnightblue" stroke="midnightblue" points="268.879,-415.034 258.779,-411.834 264.679,-420.634 268.879,-415.034"/>
</g>
<!-- Node26&#45;&gt;Node17 -->
<g id="edge39" class="edge"><title>Node26&#45;&gt;Node17</title>
<path fill="none" stroke="midnightblue" d="M318.892,-448.075C318.578,-421.945 317.653,-345.211 317.224,-309.577"/>
<polygon fill="midnightblue" stroke="midnightblue" points="320.724,-309.525 317.103,-299.568 313.724,-309.61 320.724,-309.525"/>
</g>
<!-- Node27 -->
<g id="node27" class="node"><title>Node27</title>
<polygon fill="none" stroke="#bfbfbf" points="346,-392.5 346,-411.5 432,-411.5 432,-392.5 346,-392.5"/>
<text text-anchor="middle" x="389" y="-399.5" font-family="Helvetica,sans-Serif" font-size="10.00">SDL2/SDL_ttf.h</text>
</g>
<!-- Node26&#45;&gt;Node27 -->
<g id="edge38" class="edge"><title>Node26&#45;&gt;Node27</title>
<path fill="none" stroke="midnightblue" d="M330.247,-448.324C340.797,-440.185 356.801,-427.839 369.442,-418.087"/>
<polygon fill="midnightblue" stroke="midnightblue" points="371.769,-420.713 377.549,-411.834 367.493,-415.171 371.769,-420.713"/>
</g>
<!-- Node28&#45;&gt;Node22 -->
<g id="edge43" class="edge"><title>Node28&#45;&gt;Node22</title>
<path fill="none" stroke="midnightblue" d="M509.505,-336.083C509.111,-329.006 508.548,-318.861 508.055,-309.986"/>
<polygon fill="midnightblue" stroke="midnightblue" points="511.536,-309.542 507.486,-299.751 504.546,-309.93 511.536,-309.542"/>
</g>
</g>
</svg>
        <g id="navigator" transform="translate(0 0)" fill="#404254">
                <rect fill="#f2f5e9" fill-opacity="0.5" stroke="#606060" stroke-width=".5" x="0" y="0" width="60" height="60"/>
                <use id="zoomplus" xlink:href="#zoomPlus" x="17" y="9" onmousedown="handleZoom(evt,'in')"/>
                <use id="zoomminus" xlink:href="#zoomMin" x="42" y="9" onmousedown="handleZoom(evt,'out')"/>
                <use id="reset" xlink:href="#resetDef" x="30" y="36" onmousedown="handleReset()"/>
                <g id="arrowUp" xlink:href="#dirArrow" transform="translate(30 24)" onmousedown="handlePan(0,-1)">
                  <use xlink:href="#rim" fill="#404040">
                        <set attributeName="fill" to="#808080" begin="arrowUp.mouseover" end="arrowUp.mouseout"/>
                  </use>
                  <path fill="none" stroke="white" stroke-width="1.5" d="M0,-3.0v7 M-2.5,-0.5L0,-3.0L2.5,-0.5"/>
                </g>
                <g id="arrowRight" xlink:href="#dirArrow" transform="rotate(90) translate(36 -43)" onmousedown="handlePan(1,0)">
                  <use xlink:href="#rim" fill="#404040">
                        <set attributeName="fill" to="#808080" begin="arrowRight.mouseover" end="arrowRight.mouseout"/>
                  </use>
                  <path fill="none" stroke="white" stroke-width="1.5" d="M0,-3.0v7 M-2.5,-0.5L0,-3.0L2.5,-0.5"/>
                </g>
                <g id="arrowDown" xlink:href="#dirArrow" transform="rotate(180) translate(-30 -48)" onmousedown="handlePan(0,1)">
                  <use xlink:href="#rim" fill="#404040">
                        <set attributeName="fill" to="#808080" begin="arrowDown.mouseover" end="arrowDown.mouseout"/>
                  </use>
                  <path fill="none" stroke="white" stroke-width="1.5" d="M0,-3.0v7 M-2.5,-0.5L0,-3.0L2.5,-0.5"/>
                </g>
                <g id="arrowLeft" xlink:href="#dirArrow" transform="rotate(270) translate(-36 17)" onmousedown="handlePan(-1,0)">
                  <use xlink:href="#rim" fill="#404040">
                        <set attributeName="fill" to="#808080" begin="arrowLeft.mouseover" end="arrowLeft.mouseout"/>
                  </use>
                  <path fill="none" stroke="white" stroke-width="1.5" d="M0,-3.0v7 M-2.5,-0.5L0,-3.0L2.5,-0.5"/>
                </g>
        </g>
        <svg viewBox="0 0 15 15" width="100%" height="30px" preserveAspectRatio="xMaxYMin meet">
         <g id="arrow_out" transform="scale(0.3 0.3)">
          <a xlink:href="_sdl_picture_view_8cpp__incl_org.svg" target="_base">
           <rect id="button" ry="5" rx="5" y="6" x="6" height="38" width="38"
                fill="#f2f5e9" fill-opacity="0.5" stroke="#606060" stroke-width="1.0"/>
           <path id="arrow"
             d="M 11.500037,31.436501 C 11.940474,20.09759 22.043105,11.32322 32.158766,21.979434 L 37.068811,17.246167 C 37.068811,17.246167 37.088388,32 37.088388,32 L 22.160133,31.978069 C 22.160133,31.978069 26.997745,27.140456 26.997745,27.140456 C 18.528582,18.264221 13.291696,25.230495 11.500037,31.436501 z"
             style="fill:#404040;"/>
          </a>
         </g>
        </svg>
</svg>
