<?xml version="1.0" encoding="UTF-8" standalone="no"?>
<!DOCTYPE svg PUBLIC "-//W3C//DTD SVG 1.1//EN"
 "http://www.w3.org/Graphics/SVG/1.1/DTD/svg11.dtd">
<!-- Generated by graphviz version 2.38.0 (20140413.2041)
 -->
<!-- Title: SdlBaseContainerView.cpp Pages: 1 -->
<!--zoomable 588 -->
<svg id="main" version="1.1" xmlns="http://www.w3.org/2000/svg" xmlns:xlink="http://www.w3.org/1999/xlink" xml:space="preserve" onload="init(evt)">
<style type="text/css"><![CDATA[
.edge:hover path { stroke: red; }
.edge:hover polygon { stroke: red; fill: red; }
]]></style>
<script type="text/javascript"><![CDATA[
var edges = document.getElementsByTagName('g');
if (edges && edges.length) {
  for (var i=0;i<edges.length;i++) {
    if (edges[i].id.substr(0,4)=='edge') {
      edges[i].setAttribute('class','edge');
    }
  }
}
]]></script>
        <defs>
                <circle id="rim" cx="0" cy="0" r="7"/>
                <circle id="rim2" cx="0" cy="0" r="3.5"/>
                <g id="zoomPlus">
                        <use xlink:href="#rim" fill="#404040">
                                <set attributeName="fill" to="#808080" begin="zoomplus.mouseover" end="zoomplus.mouseout"/>
                        </use>
                        <path d="M-4,0h8M0,-4v8" fill="none" stroke="white" stroke-width="1.5" pointer-events="none"/>
                </g>
                <g id="zoomMin">
                        <use xlink:href="#rim" fill="#404040">
                                <set attributeName="fill" to="#808080" begin="zoomminus.mouseover" end="zoomminus.mouseout"/>
                        </use>
                        <path d="M-4,0h8" fill="none" stroke="white" stroke-width="1.5" pointer-events="none"/>
                </g>
                <g id="dirArrow">
                        <path fill="none" stroke="white" stroke-width="1.5" d="M0,-3.0v7 M-2.5,-0.5L0,-3.0L2.5,-0.5"/>
                </g>
               <g id="resetDef">
                       <use xlink:href="#rim2" fill="#404040">
                               <set attributeName="fill" to="#808080" begin="reset.mouseover" end="reset.mouseout"/>
                       </use>
               </g>
        </defs>

<script type="text/javascript">
var viewWidth = 575;
var viewHeight = 588;
var sectionId = 'dynsection-0';
</script>
<script xlink:href="svgpan.js"/>
<svg id="graph" class="graph">
<g id="viewport">
<title>SdlBaseContainerView.cpp</title>
<!-- Node1 -->
<g id="node1" class="node"><title>Node1</title>
<polygon fill="#bfbfbf" stroke="black" points="174.5,-560.5 174.5,-579.5 317.5,-579.5 317.5,-560.5 174.5,-560.5"/>
<text text-anchor="middle" x="246" y="-567.5" font-family="FreeSans" font-size="10.00">SdlBaseContainerView.cpp</text>
</g>
<!-- Node2 -->
<g id="node2" class="node"><title>Node2</title>
<polygon fill="none" stroke="#bfbfbf" points="0,-392.5 0,-411.5 74,-411.5 74,-392.5 0,-392.5"/>
<text text-anchor="middle" x="37" y="-399.5" font-family="FreeSans" font-size="10.00">SDL2/SDL.h</text>
</g>
<!-- Node1&#45;&gt;Node2 -->
<g id="edge1" class="edge"><title>Node1&#45;&gt;Node2</title>
<path fill="none" stroke="midnightblue" d="M225.923,-560.479C209.609,-552.788 186.793,-540.201 171,-524 143.91,-496.209 156.195,-474.668 128,-448 112.659,-433.489 91.7447,-422.704 73.8346,-415.336"/>
<polygon fill="midnightblue" stroke="midnightblue" points="74.8362,-411.97 64.2481,-411.592 72.2897,-418.49 74.8362,-411.97"/>
</g>
<!-- Node3 -->
<g id="node3" class="node"><title>Node3</title>
<g id="a_node3"><a xlink:href="_log_8h.html" target="_top" xlink:title="../../Util/Log.h">
<polygon fill="none" stroke="black" points="418,-504.5 418,-523.5 498,-523.5 498,-504.5 418,-504.5"/>
<text text-anchor="middle" x="458" y="-511.5" font-family="FreeSans" font-size="10.00">../../Util/Log.h</text>
</a>
</g>
</g>
<!-- Node1&#45;&gt;Node3 -->
<g id="edge2" class="edge"><title>Node1&#45;&gt;Node3</title>
<path fill="none" stroke="midnightblue" d="M279.592,-560.444C316.187,-551.122 374.838,-536.183 414.826,-525.997"/>
<polygon fill="midnightblue" stroke="midnightblue" points="415.739,-529.377 424.565,-523.516 414.011,-522.593 415.739,-529.377"/>
</g>
<!-- Node5 -->
<g id="node5" class="node"><title>Node5</title>
<g id="a_node5"><a xlink:href="_base_container_8h.html" target="_top" xlink:title="../BaseContainer.h">
<polygon fill="none" stroke="black" points="306,-448.5 306,-467.5 410,-467.5 410,-448.5 306,-448.5"/>
<text text-anchor="middle" x="358" y="-455.5" font-family="FreeSans" font-size="10.00">../BaseContainer.h</text>
</a>
</g>
</g>
<!-- Node1&#45;&gt;Node5 -->
<g id="edge4" class="edge"><title>Node1&#45;&gt;Node5</title>
<path fill="none" stroke="midnightblue" d="M266.066,-560.468C282.373,-552.77 305.186,-540.181 321,-524 334.163,-510.532 344.287,-491.462 350.59,-477.46"/>
<polygon fill="midnightblue" stroke="midnightblue" points="353.956,-478.489 354.653,-467.917 347.516,-475.747 353.956,-478.489"/>
</g>
<!-- Node22 -->
<g id="node22" class="node"><title>Node22</title>
<g id="a_node22"><a xlink:href="_sdl_texture_8h.html" target="_top" xlink:title="SdlTexture.h">
<polygon fill="none" stroke="black" points="44.5,-504.5 44.5,-523.5 119.5,-523.5 119.5,-504.5 44.5,-504.5"/>
<text text-anchor="middle" x="82" y="-511.5" font-family="FreeSans" font-size="10.00">SdlTexture.h</text>
</a>
</g>
</g>
<!-- Node1&#45;&gt;Node22 -->
<g id="edge29" class="edge"><title>Node1&#45;&gt;Node22</title>
<path fill="none" stroke="midnightblue" d="M220.014,-560.444C192.304,-551.32 148.248,-536.813 117.384,-526.651"/>
<polygon fill="midnightblue" stroke="midnightblue" points="118.458,-523.32 107.865,-523.516 116.268,-529.968 118.458,-523.32"/>
</g>
<!-- Node24 -->
<g id="node24" class="node"><title>Node24</title>
<g id="a_node24"><a xlink:href="_sdl_base_container_view_8h.html" target="_top" xlink:title="SdlBaseContainerView.h">
<polygon fill="none" stroke="black" points="180,-504.5 180,-523.5 312,-523.5 312,-504.5 180,-504.5"/>
<text text-anchor="middle" x="246" y="-511.5" font-family="FreeSans" font-size="10.00">SdlBaseContainerView.h</text>
</a>
</g>
</g>
<!-- Node1&#45;&gt;Node24 -->
<g id="edge32" class="edge"><title>Node1&#45;&gt;Node24</title>
<path fill="none" stroke="midnightblue" d="M246,-560.083C246,-553.006 246,-542.861 246,-533.986"/>
<polygon fill="midnightblue" stroke="midnightblue" points="249.5,-533.751 246,-523.751 242.5,-533.751 249.5,-533.751"/>
</g>
<!-- Node4 -->
<g id="node4" class="node"><title>Node4</title>
<polygon fill="none" stroke="#bfbfbf" points="428,-448.5 428,-467.5 538,-467.5 538,-448.5 428,-448.5"/>
<text text-anchor="middle" x="483" y="-455.5" font-family="FreeSans" font-size="10.00">boost/log/trivial.hpp</text>
</g>
<!-- Node3&#45;&gt;Node4 -->
<g id="edge3" class="edge"><title>Node3&#45;&gt;Node4</title>
<path fill="none" stroke="midnightblue" d="M462.128,-504.083C465.514,-496.77 470.416,-486.181 474.619,-477.103"/>
<polygon fill="midnightblue" stroke="midnightblue" points="477.923,-478.296 478.949,-467.751 471.571,-475.355 477.923,-478.296"/>
</g>
<!-- Node6 -->
<g id="node6" class="node"><title>Node6</title>
<g id="a_node6"><a xlink:href="_ui_view_model_8h.html" target="_top" xlink:title="UiViewModel.h">
<polygon fill="none" stroke="black" points="381,-392.5 381,-411.5 467,-411.5 467,-392.5 381,-392.5"/>
<text text-anchor="middle" x="424" y="-399.5" font-family="FreeSans" font-size="10.00">UiViewModel.h</text>
</a>
</g>
</g>
<!-- Node5&#45;&gt;Node6 -->
<g id="edge5" class="edge"><title>Node5&#45;&gt;Node6</title>
<path fill="none" stroke="midnightblue" d="M368.604,-448.324C378.456,-440.263 393.351,-428.077 405.215,-418.369"/>
<polygon fill="midnightblue" stroke="midnightblue" points="407.68,-420.875 413.203,-411.834 403.247,-415.457 407.68,-420.875"/>
</g>
<!-- Node7 -->
<g id="node7" class="node"><title>Node7</title>
<g id="a_node7"><a xlink:href="_nav_8h.html" target="_top" xlink:title="../Control/Nav.h">
<polygon fill="none" stroke="black" points="449,-336.5 449,-355.5 539,-355.5 539,-336.5 449,-336.5"/>
<text text-anchor="middle" x="494" y="-343.5" font-family="FreeSans" font-size="10.00">../Control/Nav.h</text>
</a>
</g>
</g>
<!-- Node6&#45;&gt;Node7 -->
<g id="edge6" class="edge"><title>Node6&#45;&gt;Node7</title>
<path fill="none" stroke="midnightblue" d="M435.247,-392.324C445.797,-384.185 461.801,-371.839 474.442,-362.087"/>
<polygon fill="midnightblue" stroke="midnightblue" points="476.769,-364.713 482.549,-355.834 472.493,-359.171 476.769,-364.713"/>
</g>
<!-- Node8 -->
<g id="node8" class="node"><title>Node8</title>
<g id="a_node8"><a xlink:href="_m_r___types_8h.html" target="_top" xlink:title="../Util/MR_Types.h">
<polygon fill="none" stroke="black" points="343.5,-56.5 343.5,-75.5 442.5,-75.5 442.5,-56.5 343.5,-56.5"/>
<text text-anchor="middle" x="393" y="-63.5" font-family="FreeSans" font-size="10.00">../Util/MR_Types.h</text>
</a>
</g>
</g>
<!-- Node6&#45;&gt;Node8 -->
<g id="edge7" class="edge"><title>Node6&#45;&gt;Node8</title>
<path fill="none" stroke="midnightblue" d="M467.039,-395.392C493.766,-389.745 526.924,-378.464 548,-356 568.593,-334.05 567,-321.098 567,-291 567,-291 567,-291 567,-177 567,-120.377 500.352,-91.7077 449.553,-78.0799"/>
<polygon fill="midnightblue" stroke="midnightblue" points="450.183,-74.6288 439.629,-75.5511 448.455,-81.4121 450.183,-74.6288"/>
</g>
<!-- Node10 -->
<g id="node10" class="node"><title>Node10</title>
<g id="a_node10"><a xlink:href="_vec_8h.html" target="_top" xlink:title="../Vec.h">
<polygon fill="none" stroke="black" points="275,-168.5 275,-187.5 327,-187.5 327,-168.5 275,-168.5"/>
<text text-anchor="middle" x="301" y="-175.5" font-family="FreeSans" font-size="10.00">../Vec.h</text>
</a>
</g>
</g>
<!-- Node6&#45;&gt;Node10 -->
<g id="edge9" class="edge"><title>Node6&#45;&gt;Node10</title>
<path fill="none" stroke="midnightblue" d="M422.977,-392.393C419.377,-365.173 405.2,-279.488 364,-224 354.393,-211.061 339.965,-200.371 327.34,-192.662"/>
<polygon fill="midnightblue" stroke="midnightblue" points="328.969,-189.561 318.56,-187.585 325.466,-195.621 328.969,-189.561"/>
</g>
<!-- Node11 -->
<g id="node11" class="node"><title>Node11</title>
<g id="a_node11"><a xlink:href="_ui_layout_flags_8h.html" target="_top" xlink:title="UiLayoutFlags.h">
<polygon fill="none" stroke="black" points="411,-224.5 411,-243.5 503,-243.5 503,-224.5 411,-224.5"/>
<text text-anchor="middle" x="457" y="-231.5" font-family="FreeSans" font-size="10.00">UiLayoutFlags.h</text>
</a>
</g>
</g>
<!-- Node6&#45;&gt;Node11 -->
<g id="edge10" class="edge"><title>Node6&#45;&gt;Node11</title>
<path fill="none" stroke="midnightblue" d="M425.774,-392.075C430.969,-365.945 446.223,-289.211 453.307,-253.577"/>
<polygon fill="midnightblue" stroke="midnightblue" points="456.78,-254.059 455.297,-243.568 449.914,-252.694 456.78,-254.059"/>
</g>
<!-- Node12 -->
<g id="node12" class="node"><title>Node12</title>
<g id="a_node12"><a xlink:href="_view_model_8h.html" target="_top" xlink:title="ViewModel.h">
<polygon fill="none" stroke="black" points="275,-336.5 275,-355.5 351,-355.5 351,-336.5 275,-336.5"/>
<text text-anchor="middle" x="313" y="-343.5" font-family="FreeSans" font-size="10.00">ViewModel.h</text>
</a>
</g>
</g>
<!-- Node6&#45;&gt;Node12 -->
<g id="edge12" class="edge"><title>Node6&#45;&gt;Node12</title>
<path fill="none" stroke="midnightblue" d="M406.166,-392.324C388.284,-383.625 360.525,-370.12 339.954,-360.113"/>
<polygon fill="midnightblue" stroke="midnightblue" points="341.313,-356.882 330.79,-355.655 338.251,-363.177 341.313,-356.882"/>
</g>
<!-- Node9 -->
<g id="node9" class="node"><title>Node9</title>
<polygon fill="none" stroke="#bfbfbf" points="361,-0.5 361,-19.5 425,-19.5 425,-0.5 361,-0.5"/>
<text text-anchor="middle" x="393" y="-7.5" font-family="FreeSans" font-size="10.00">inttypes.h</text>
</g>
<!-- Node8&#45;&gt;Node9 -->
<g id="edge8" class="edge"><title>Node8&#45;&gt;Node9</title>
<path fill="none" stroke="midnightblue" d="M393,-56.083C393,-49.0059 393,-38.8611 393,-29.9865"/>
<polygon fill="midnightblue" stroke="midnightblue" points="396.5,-29.751 393,-19.7511 389.5,-29.7511 396.5,-29.751"/>
</g>
<!-- Node11&#45;&gt;Node8 -->
<g id="edge11" class="edge"><title>Node11&#45;&gt;Node8</title>
<path fill="none" stroke="midnightblue" d="M453.559,-224.075C443.441,-197.832 413.644,-120.545 399.985,-85.1165"/>
<polygon fill="midnightblue" stroke="midnightblue" points="403.166,-83.6396 396.303,-75.5681 396.635,-86.1578 403.166,-83.6396"/>
</g>
<!-- Node13 -->
<g id="node13" class="node"><title>Node13</title>
<g id="a_node13"><a xlink:href="_display_8h.html" target="_top" xlink:title="Display.h">
<polygon fill="none" stroke="black" points="226.5,-280.5 226.5,-299.5 285.5,-299.5 285.5,-280.5 226.5,-280.5"/>
<text text-anchor="middle" x="256" y="-287.5" font-family="FreeSans" font-size="10.00">Display.h</text>
</a>
</g>
</g>
<!-- Node12&#45;&gt;Node13 -->
<g id="edge13" class="edge"><title>Node12&#45;&gt;Node13</title>
<path fill="none" stroke="midnightblue" d="M303.842,-336.324C295.499,-328.42 282.968,-316.548 272.823,-306.938"/>
<polygon fill="midnightblue" stroke="midnightblue" points="274.991,-304.171 265.325,-299.834 270.177,-309.252 274.991,-304.171"/>
</g>
<!-- Node20 -->
<g id="node20" class="node"><title>Node20</title>
<g id="a_node20"><a xlink:href="_view_attacher_8h.html" target="_top" xlink:title="ViewAttacher.h">
<polygon fill="none" stroke="black" points="267,-224.5 267,-243.5 355,-243.5 355,-224.5 267,-224.5"/>
<text text-anchor="middle" x="311" y="-231.5" font-family="FreeSans" font-size="10.00">ViewAttacher.h</text>
</a>
</g>
</g>
<!-- Node12&#45;&gt;Node20 -->
<g id="edge28" class="edge"><title>Node12&#45;&gt;Node20</title>
<path fill="none" stroke="midnightblue" d="M312.843,-336.368C312.52,-318.617 311.776,-277.666 311.338,-253.597"/>
<polygon fill="midnightblue" stroke="midnightblue" points="314.838,-253.526 311.156,-243.591 307.839,-253.653 314.838,-253.526"/>
</g>
<!-- Node21 -->
<g id="node21" class="node"><title>Node21</title>
<g id="a_node21"><a xlink:href="_view_8h.html" target="_top" xlink:title="View.h">
<polygon fill="none" stroke="black" points="161.5,-280.5 161.5,-299.5 208.5,-299.5 208.5,-280.5 161.5,-280.5"/>
<text text-anchor="middle" x="185" y="-287.5" font-family="FreeSans" font-size="10.00">View.h</text>
</a>
</g>
</g>
<!-- Node12&#45;&gt;Node21 -->
<g id="edge27" class="edge"><title>Node12&#45;&gt;Node21</title>
<path fill="none" stroke="midnightblue" d="M292.718,-336.444C271.653,-327.557 238.483,-313.563 214.514,-303.451"/>
<polygon fill="midnightblue" stroke="midnightblue" points="215.761,-300.179 205.187,-299.516 213.04,-306.628 215.761,-300.179"/>
</g>
<!-- Node13&#45;&gt;Node10 -->
<g id="edge14" class="edge"><title>Node13&#45;&gt;Node10</title>
<path fill="none" stroke="midnightblue" d="M254.348,-280.171C252.349,-267.264 250.148,-242.744 258,-224 262.859,-212.401 272.186,-202.049 280.915,-194.206"/>
<polygon fill="midnightblue" stroke="midnightblue" points="283.206,-196.853 288.618,-187.745 278.707,-191.49 283.206,-196.853"/>
</g>
<!-- Node13&#45;&gt;Node11 -->
<g id="edge25" class="edge"><title>Node13&#45;&gt;Node11</title>
<path fill="none" stroke="midnightblue" d="M285.658,-281.032C319.942,-271.822 376.603,-256.599 415.31,-246.2"/>
<polygon fill="midnightblue" stroke="midnightblue" points="416.478,-249.511 425.227,-243.536 414.662,-242.75 416.478,-249.511"/>
</g>
<!-- Node14 -->
<g id="node14" class="node"><title>Node14</title>
<g id="a_node14"><a xlink:href="_styles_8h.html" target="_top" xlink:title="Styles.h">
<polygon fill="none" stroke="black" points="155.5,-224.5 155.5,-243.5 210.5,-243.5 210.5,-224.5 155.5,-224.5"/>
<text text-anchor="middle" x="183" y="-231.5" font-family="FreeSans" font-size="10.00">Styles.h</text>
</a>
</g>
</g>
<!-- Node13&#45;&gt;Node14 -->
<g id="edge15" class="edge"><title>Node13&#45;&gt;Node14</title>
<path fill="none" stroke="midnightblue" d="M244.271,-280.324C233.163,-272.107 216.258,-259.602 203.017,-249.807"/>
<polygon fill="midnightblue" stroke="midnightblue" points="205.063,-246.967 194.942,-243.834 200.9,-252.595 205.063,-246.967"/>
</g>
<!-- Node13&#45;&gt;Node20 -->
<g id="edge26" class="edge"><title>Node13&#45;&gt;Node20</title>
<path fill="none" stroke="midnightblue" d="M265.082,-280.083C273.171,-272.141 285.195,-260.335 294.91,-250.797"/>
<polygon fill="midnightblue" stroke="midnightblue" points="297.403,-253.254 302.087,-243.751 292.499,-248.26 297.403,-253.254"/>
</g>
<!-- Node14&#45;&gt;Node10 -->
<g id="edge16" class="edge"><title>Node14&#45;&gt;Node10</title>
<path fill="none" stroke="midnightblue" d="M201.697,-224.444C220.944,-215.636 251.152,-201.812 273.2,-191.722"/>
<polygon fill="midnightblue" stroke="midnightblue" points="274.753,-194.86 282.39,-187.516 271.84,-188.495 274.753,-194.86"/>
</g>
<!-- Node15 -->
<g id="node15" class="node"><title>Node15</title>
<g id="a_node15"><a xlink:href="_ui_font_8h.html" target="_top" xlink:title="UiFont.h">
<polygon fill="none" stroke="black" points="133,-168.5 133,-187.5 189,-187.5 189,-168.5 133,-168.5"/>
<text text-anchor="middle" x="161" y="-175.5" font-family="FreeSans" font-size="10.00">UiFont.h</text>
</a>
</g>
</g>
<!-- Node14&#45;&gt;Node15 -->
<g id="edge17" class="edge"><title>Node14&#45;&gt;Node15</title>
<path fill="none" stroke="midnightblue" d="M179.367,-224.083C176.388,-216.77 172.074,-206.181 168.375,-197.103"/>
<polygon fill="midnightblue" stroke="midnightblue" points="171.58,-195.691 164.565,-187.751 165.097,-198.333 171.58,-195.691"/>
</g>
<!-- Node18 -->
<g id="node18" class="node"><title>Node18</title>
<g id="a_node18"><a xlink:href="_color_8h.html" target="_top" xlink:title="Color.h">
<polygon fill="none" stroke="black" points="207,-168.5 207,-187.5 257,-187.5 257,-168.5 207,-168.5"/>
<text text-anchor="middle" x="232" y="-175.5" font-family="FreeSans" font-size="10.00">Color.h</text>
</a>
</g>
</g>
<!-- Node14&#45;&gt;Node18 -->
<g id="edge21" class="edge"><title>Node14&#45;&gt;Node18</title>
<path fill="none" stroke="midnightblue" d="M191.091,-224.083C198.155,-216.298 208.588,-204.801 217.149,-195.367"/>
<polygon fill="midnightblue" stroke="midnightblue" points="219.931,-197.509 224.059,-187.751 214.747,-192.805 219.931,-197.509"/>
</g>
<!-- Node16 -->
<g id="node16" class="node"><title>Node16</title>
<g id="a_node16"><a xlink:href="_hash_8h.html" target="_top" xlink:title="../Util/Hash.h">
<polygon fill="none" stroke="black" points="63,-112.5 63,-131.5 141,-131.5 141,-112.5 63,-112.5"/>
<text text-anchor="middle" x="102" y="-119.5" font-family="FreeSans" font-size="10.00">../Util/Hash.h</text>
</a>
</g>
</g>
<!-- Node15&#45;&gt;Node16 -->
<g id="edge18" class="edge"><title>Node15&#45;&gt;Node16</title>
<path fill="none" stroke="midnightblue" d="M151.521,-168.324C142.799,-160.341 129.657,-148.313 119.102,-138.653"/>
<polygon fill="midnightblue" stroke="midnightblue" points="121.392,-136.004 111.652,-131.834 116.666,-141.167 121.392,-136.004"/>
</g>
<!-- Node17 -->
<g id="node17" class="node"><title>Node17</title>
<g id="a_node17"><a xlink:href="_sel_fmt_8h.html" target="_top" xlink:title="../Util/SelFmt.h">
<polygon fill="none" stroke="black" points="159.5,-112.5 159.5,-131.5 246.5,-131.5 246.5,-112.5 159.5,-112.5"/>
<text text-anchor="middle" x="203" y="-119.5" font-family="FreeSans" font-size="10.00">../Util/SelFmt.h</text>
</a>
</g>
</g>
<!-- Node15&#45;&gt;Node17 -->
<g id="edge19" class="edge"><title>Node15&#45;&gt;Node17</title>
<path fill="none" stroke="midnightblue" d="M167.935,-168.083C173.929,-160.377 182.752,-149.033 190.048,-139.653"/>
<polygon fill="midnightblue" stroke="midnightblue" points="192.817,-141.793 196.194,-131.751 187.291,-137.496 192.817,-141.793"/>
</g>
<!-- Node17&#45;&gt;Node8 -->
<g id="edge20" class="edge"><title>Node17&#45;&gt;Node8</title>
<path fill="none" stroke="midnightblue" d="M233.106,-112.444C265.626,-103.201 317.579,-88.4356 353.391,-78.2572"/>
<polygon fill="midnightblue" stroke="midnightblue" points="354.373,-81.617 363.035,-75.5164 352.459,-74.8837 354.373,-81.617"/>
</g>
<!-- Node18&#45;&gt;Node8 -->
<g id="edge23" class="edge"><title>Node18&#45;&gt;Node8</title>
<path fill="none" stroke="midnightblue" d="M257.102,-169.711C296.74,-158.106 369.796,-136.299 374,-132 385.933,-119.795 390.442,-100.527 392.11,-86.1328"/>
<polygon fill="midnightblue" stroke="midnightblue" points="395.623,-86.1078 392.926,-75.8621 388.645,-85.5536 395.623,-86.1078"/>
</g>
<!-- Node18&#45;&gt;Node17 -->
<g id="edge24" class="edge"><title>Node18&#45;&gt;Node17</title>
<path fill="none" stroke="midnightblue" d="M227.211,-168.083C223.242,-160.691 217.475,-149.953 212.565,-140.811"/>
<polygon fill="midnightblue" stroke="midnightblue" points="215.514,-138.905 207.7,-131.751 209.347,-142.217 215.514,-138.905"/>
</g>
<!-- Node19 -->
<g id="node19" class="node"><title>Node19</title>
<polygon fill="none" stroke="#bfbfbf" points="265,-112.5 265,-131.5 365,-131.5 365,-112.5 265,-112.5"/>
<text text-anchor="middle" x="315" y="-119.5" font-family="FreeSans" font-size="10.00">boost/format.hpp</text>
</g>
<!-- Node18&#45;&gt;Node19 -->
<g id="edge22" class="edge"><title>Node18&#45;&gt;Node19</title>
<path fill="none" stroke="midnightblue" d="M245.335,-168.324C258.162,-159.979 277.785,-147.212 292.94,-137.352"/>
<polygon fill="midnightblue" stroke="midnightblue" points="295.224,-140.042 301.698,-131.655 291.407,-134.174 295.224,-140.042"/>
</g>
<!-- Node22&#45;&gt;Node2 -->
<g id="edge30" class="edge"><title>Node22&#45;&gt;Node2</title>
<path fill="none" stroke="midnightblue" d="M70.6802,-504.4C60.89,-496.23 47.3411,-482.99 41,-468 34.8677,-453.504 34.2222,-435.551 34.9094,-422.188"/>
<polygon fill="midnightblue" stroke="midnightblue" points="38.4297,-422.08 35.7519,-411.829 31.4527,-421.512 38.4297,-422.08"/>
</g>
<!-- Node23 -->
<g id="node23" class="node"><title>Node23</title>
<g id="a_node23"><a xlink:href="_texture_8h.html" target="_top" xlink:title="../Texture.h">
<polygon fill="none" stroke="black" points="50.5,-448.5 50.5,-467.5 119.5,-467.5 119.5,-448.5 50.5,-448.5"/>
<text text-anchor="middle" x="85" y="-455.5" font-family="FreeSans" font-size="10.00">../Texture.h</text>
</a>
</g>
</g>
<!-- Node22&#45;&gt;Node23 -->
<g id="edge31" class="edge"><title>Node22&#45;&gt;Node23</title>
<path fill="none" stroke="midnightblue" d="M82.4954,-504.083C82.8886,-497.006 83.4522,-486.861 83.9452,-477.986"/>
<polygon fill="midnightblue" stroke="midnightblue" points="87.4536,-477.93 84.5138,-467.751 80.4644,-477.542 87.4536,-477.93"/>
</g>
<!-- Node25 -->
<g id="node25" class="node"><title>Node25</title>
<g id="a_node25"><a xlink:href="_sdl_display_8h.html" target="_top" xlink:title="SdlDisplay.h">
<polygon fill="none" stroke="black" points="214,-448.5 214,-467.5 288,-467.5 288,-448.5 214,-448.5"/>
<text text-anchor="middle" x="251" y="-455.5" font-family="FreeSans" font-size="10.00">SdlDisplay.h</text>
</a>
</g>
</g>
<!-- Node24&#45;&gt;Node25 -->
<g id="edge33" class="edge"><title>Node24&#45;&gt;Node25</title>
<path fill="none" stroke="midnightblue" d="M246.826,-504.083C247.481,-497.006 248.42,-486.861 249.242,-477.986"/>
<polygon fill="midnightblue" stroke="midnightblue" points="252.753,-478.031 250.19,-467.751 245.783,-477.386 252.753,-478.031"/>
</g>
<!-- Node30 -->
<g id="node30" class="node"><title>Node30</title>
<g id="a_node30"><a xlink:href="_sdl_view_8h.html" target="_top" xlink:title="SdlView.h">
<polygon fill="none" stroke="black" points="155,-336.5 155,-355.5 217,-355.5 217,-336.5 155,-336.5"/>
<text text-anchor="middle" x="186" y="-343.5" font-family="FreeSans" font-size="10.00">SdlView.h</text>
</a>
</g>
</g>
<!-- Node24&#45;&gt;Node30 -->
<g id="edge42" class="edge"><title>Node24&#45;&gt;Node30</title>
<path fill="none" stroke="midnightblue" d="M235.013,-504.25C225.447,-495.978 212.04,-482.675 205,-468 188.96,-434.567 185.956,-390.537 185.671,-365.86"/>
<polygon fill="midnightblue" stroke="midnightblue" points="189.171,-365.72 185.699,-355.711 182.171,-365.701 189.171,-365.72"/>
</g>
<!-- Node25&#45;&gt;Node2 -->
<g id="edge34" class="edge"><title>Node25&#45;&gt;Node2</title>
<path fill="none" stroke="midnightblue" d="M217.091,-448.444C180.151,-439.122 120.946,-424.183 80.5816,-413.997"/>
<polygon fill="midnightblue" stroke="midnightblue" points="81.3027,-410.57 70.7503,-411.516 79.59,-417.357 81.3027,-410.57"/>
</g>
<!-- Node25&#45;&gt;Node6 -->
<g id="edge41" class="edge"><title>Node25&#45;&gt;Node6</title>
<path fill="none" stroke="midnightblue" d="M278.412,-448.444C307.769,-439.28 354.519,-424.688 387.096,-414.519"/>
<polygon fill="midnightblue" stroke="midnightblue" points="388.213,-417.837 396.716,-411.516 386.127,-411.155 388.213,-417.837"/>
</g>
<!-- Node25&#45;&gt;Node13 -->
<g id="edge36" class="edge"><title>Node25&#45;&gt;Node13</title>
<path fill="none" stroke="midnightblue" d="M251.269,-448.075C252.056,-421.945 254.367,-345.211 255.44,-309.577"/>
<polygon fill="midnightblue" stroke="midnightblue" points="258.939,-309.669 255.742,-299.568 251.942,-309.458 258.939,-309.669"/>
</g>
<!-- Node26 -->
<g id="node26" class="node"><title>Node26</title>
<polygon fill="none" stroke="#bfbfbf" points="273.5,-392.5 273.5,-411.5 362.5,-411.5 362.5,-392.5 273.5,-392.5"/>
<text text-anchor="middle" x="318" y="-399.5" font-family="FreeSans" font-size="10.00">SDL2/SDL_ttf.h</text>
</g>
<!-- Node25&#45;&gt;Node26 -->
<g id="edge35" class="edge"><title>Node25&#45;&gt;Node26</title>
<path fill="none" stroke="midnightblue" d="M261.765,-448.324C271.766,-440.263 286.887,-428.077 298.93,-418.369"/>
<polygon fill="midnightblue" stroke="midnightblue" points="301.45,-420.834 307.039,-411.834 297.057,-415.384 301.45,-420.834"/>
</g>
<!-- Node27 -->
<g id="node27" class="node"><title>Node27</title>
<g id="a_node27"><a xlink:href="_res_8h.html" target="_top" xlink:title="../Res.h">
<polygon fill="none" stroke="black" points="92.5,-392.5 92.5,-411.5 143.5,-411.5 143.5,-392.5 92.5,-392.5"/>
<text text-anchor="middle" x="118" y="-399.5" font-family="FreeSans" font-size="10.00">../Res.h</text>
</a>
</g>
</g>
<!-- Node25&#45;&gt;Node27 -->
<g id="edge37" class="edge"><title>Node25&#45;&gt;Node27</title>
<path fill="none" stroke="midnightblue" d="M229.926,-448.444C207.94,-439.517 173.266,-425.439 148.336,-415.317"/>
<polygon fill="midnightblue" stroke="midnightblue" points="149.558,-412.035 138.976,-411.516 146.924,-418.521 149.558,-412.035"/>
</g>
<!-- Node27&#45;&gt;Node8 -->
<g id="edge38" class="edge"><title>Node27&#45;&gt;Node8</title>
<path fill="none" stroke="midnightblue" d="M96.0746,-392.413C79.9962,-385.043 58.8171,-372.92 46,-356 27.8262,-332.009 27,-321.098 27,-291 27,-291 27,-291 27,-177 27,-145.718 29.183,-131.044 54,-112 96.5449,-79.3517 247.864,-70.3726 333.248,-67.9153"/>
<polygon fill="midnightblue" stroke="midnightblue" points="333.419,-71.4121 343.322,-67.6468 333.233,-64.4146 333.419,-71.4121"/>
</g>
<!-- Node28 -->
<g id="node28" class="node"><title>Node28</title>
<g id="a_node28"><a xlink:href="_exception_8h.html" target="_top" xlink:title="../Exception.h">
<polygon fill="none" stroke="black" points="55.5,-336.5 55.5,-355.5 136.5,-355.5 136.5,-336.5 55.5,-336.5"/>
<text text-anchor="middle" x="96" y="-343.5" font-family="FreeSans" font-size="10.00">../Exception.h</text>
</a>
</g>
</g>
<!-- Node27&#45;&gt;Node28 -->
<g id="edge39" class="edge"><title>Node27&#45;&gt;Node28</title>
<path fill="none" stroke="midnightblue" d="M114.367,-392.083C111.388,-384.77 107.074,-374.181 103.375,-365.103"/>
<polygon fill="midnightblue" stroke="midnightblue" points="106.58,-363.691 99.5653,-355.751 100.097,-366.333 106.58,-363.691"/>
</g>
<!-- Node29 -->
<g id="node29" class="node"><title>Node29</title>
<polygon fill="none" stroke="#bfbfbf" points="64.5,-280.5 64.5,-299.5 127.5,-299.5 127.5,-280.5 64.5,-280.5"/>
<text text-anchor="middle" x="96" y="-287.5" font-family="FreeSans" font-size="10.00">exception</text>
</g>
<!-- Node28&#45;&gt;Node29 -->
<g id="edge40" class="edge"><title>Node28&#45;&gt;Node29</title>
<path fill="none" stroke="midnightblue" d="M96,-336.083C96,-329.006 96,-318.861 96,-309.986"/>
<polygon fill="midnightblue" stroke="midnightblue" points="99.5001,-309.751 96,-299.751 92.5001,-309.751 99.5001,-309.751"/>
</g>
<!-- Node30&#45;&gt;Node21 -->
<g id="edge43" class="edge"><title>Node30&#45;&gt;Node21</title>
<path fill="none" stroke="midnightblue" d="M185.835,-336.083C185.704,-329.006 185.516,-318.861 185.352,-309.986"/>
<polygon fill="midnightblue" stroke="midnightblue" points="188.847,-309.685 185.162,-299.751 181.848,-309.814 188.847,-309.685"/>
</g>
</g>
</svg>
        <g id="navigator" transform="translate(0 0)" fill="#404254">
                <rect fill="#f2f5e9" fill-opacity="0.5" stroke="#606060" stroke-width=".5" x="0" y="0" width="60" height="60"/>
                <use id="zoomplus" xlink:href="#zoomPlus" x="17" y="9" onmousedown="handleZoom(evt,'in')"/>
                <use id="zoomminus" xlink:href="#zoomMin" x="42" y="9" onmousedown="handleZoom(evt,'out')"/>
                <use id="reset" xlink:href="#resetDef" x="30" y="36" onmousedown="handleReset()"/>
                <g id="arrowUp" xlink:href="#dirArrow" transform="translate(30 24)" onmousedown="handlePan(0,-1)">
                  <use xlink:href="#rim" fill="#404040">
                        <set attributeName="fill" to="#808080" begin="arrowUp.mouseover" end="arrowUp.mouseout"/>
                  </use>
                  <path fill="none" stroke="white" stroke-width="1.5" d="M0,-3.0v7 M-2.5,-0.5L0,-3.0L2.5,-0.5"/>
                </g>
                <g id="arrowRight" xlink:href="#dirArrow" transform="rotate(90) translate(36 -43)" onmousedown="handlePan(1,0)">
                  <use xlink:href="#rim" fill="#404040">
                        <set attributeName="fill" to="#808080" begin="arrowRight.mouseover" end="arrowRight.mouseout"/>
                  </use>
                  <path fill="none" stroke="white" stroke-width="1.5" d="M0,-3.0v7 M-2.5,-0.5L0,-3.0L2.5,-0.5"/>
                </g>
                <g id="arrowDown" xlink:href="#dirArrow" transform="rotate(180) translate(-30 -48)" onmousedown="handlePan(0,1)">
                  <use xlink:href="#rim" fill="#404040">
                        <set attributeName="fill" to="#808080" begin="arrowDown.mouseover" end="arrowDown.mouseout"/>
                  </use>
                  <path fill="none" stroke="white" stroke-width="1.5" d="M0,-3.0v7 M-2.5,-0.5L0,-3.0L2.5,-0.5"/>
                </g>
                <g id="arrowLeft" xlink:href="#dirArrow" transform="rotate(270) translate(-36 17)" onmousedown="handlePan(-1,0)">
                  <use xlink:href="#rim" fill="#404040">
                        <set attributeName="fill" to="#808080" begin="arrowLeft.mouseover" end="arrowLeft.mouseout"/>
                  </use>
                  <path fill="none" stroke="white" stroke-width="1.5" d="M0,-3.0v7 M-2.5,-0.5L0,-3.0L2.5,-0.5"/>
                </g>
        </g>
        <svg viewBox="0 0 15 15" width="100%" height="30px" preserveAspectRatio="xMaxYMin meet">
         <g id="arrow_out" transform="scale(0.3 0.3)">
          <a xlink:href="_sdl_base_container_view_8cpp__incl_org.svg" target="_base">
           <rect id="button" ry="5" rx="5" y="6" x="6" height="38" width="38"
                fill="#f2f5e9" fill-opacity="0.5" stroke="#606060" stroke-width="1.0"/>
           <path id="arrow"
             d="M 11.500037,31.436501 C 11.940474,20.09759 22.043105,11.32322 32.158766,21.979434 L 37.068811,17.246167 C 37.068811,17.246167 37.088388,32 37.088388,32 L 22.160133,31.978069 C 22.160133,31.978069 26.997745,27.140456 26.997745,27.140456 C 18.528582,18.264221 13.291696,25.230495 11.500037,31.436501 z"
             style="fill:#404040;"/>
          </a>
         </g>
        </svg>
</svg>
