<?xml version="1.0" encoding="UTF-8" standalone="no"?>
<!DOCTYPE svg PUBLIC "-//W3C//DTD SVG 1.1//EN"
 "http://www.w3.org/Graphics/SVG/1.1/DTD/svg11.dtd">
<!-- Generated by graphviz version 2.38.0 (20140413.2041)
 -->
<!-- Title: SdlLabelView.cpp Pages: 1 -->
<!--zoomable 588 -->
<svg id="main" version="1.1" xmlns="http://www.w3.org/2000/svg" xmlns:xlink="http://www.w3.org/1999/xlink" xml:space="preserve" onload="init(evt)">
<style type="text/css"><![CDATA[
.edge:hover path { stroke: red; }
.edge:hover polygon { stroke: red; fill: red; }
]]></style>
<script type="text/javascript"><![CDATA[
var edges = document.getElementsByTagName('g');
if (edges && edges.length) {
  for (var i=0;i<edges.length;i++) {
    if (edges[i].id.substr(0,4)=='edge') {
      edges[i].setAttribute('class','edge');
    }
  }
}
]]></script>
        <defs>
                <circle id="rim" cx="0" cy="0" r="7"/>
                <circle id="rim2" cx="0" cy="0" r="3.5"/>
                <g id="zoomPlus">
                        <use xlink:href="#rim" fill="#404040">
                                <set attributeName="fill" to="#808080" begin="zoomplus.mouseover" end="zoomplus.mouseout"/>
                        </use>
                        <path d="M-4,0h8M0,-4v8" fill="none" stroke="white" stroke-width="1.5" pointer-events="none"/>
                </g>
                <g id="zoomMin">
                        <use xlink:href="#rim" fill="#404040">
                                <set attributeName="fill" to="#808080" begin="zoomminus.mouseover" end="zoomminus.mouseout"/>
                        </use>
                        <path d="M-4,0h8" fill="none" stroke="white" stroke-width="1.5" pointer-events="none"/>
                </g>
                <g id="dirArrow">
                        <path fill="none" stroke="white" stroke-width="1.5" d="M0,-3.0v7 M-2.5,-0.5L0,-3.0L2.5,-0.5"/>
                </g>
               <g id="resetDef">
                       <use xlink:href="#rim2" fill="#404040">
                               <set attributeName="fill" to="#808080" begin="reset.mouseover" end="reset.mouseout"/>
                       </use>
               </g>
        </defs>

<script type="text/javascript">
var viewWidth = 724;
var viewHeight = 588;
var sectionId = 'dynsection-0';
</script>
<script xlink:href="svgpan.js"/>
<svg id="graph" class="graph">
<g id="viewport">
<title>SdlLabelView.cpp</title>
<!-- Node1 -->
<g id="node1" class="node"><title>Node1</title>
<polygon fill="#bfbfbf" stroke="black" points="450,-560.5 450,-579.5 545,-579.5 545,-560.5 450,-560.5"/>
<text text-anchor="middle" x="497.5" y="-567.5" font-family="Helvetica,sans-Serif" font-size="10.00">SdlLabelView.cpp</text>
</g>
<!-- Node2 -->
<g id="node2" class="node"><title>Node2</title>
<polygon fill="none" stroke="#bfbfbf" points="540.5,-392.5 540.5,-411.5 612.5,-411.5 612.5,-392.5 540.5,-392.5"/>
<text text-anchor="middle" x="576.5" y="-399.5" font-family="Helvetica,sans-Serif" font-size="10.00">SDL2/SDL.h</text>
</g>
<!-- Node1&#45;&gt;Node2 -->
<g id="edge1" class="edge"><title>Node1&#45;&gt;Node2</title>
<path fill="none" stroke="midnightblue" d="M501.747,-560.075C514.29,-533.719 551.335,-455.878 568.095,-420.661"/>
<polygon fill="midnightblue" stroke="midnightblue" points="571.285,-422.102 572.422,-411.568 564.965,-419.094 571.285,-422.102"/>
</g>
<!-- Node3 -->
<g id="node3" class="node"><title>Node3</title>
<g id="a_node3"><a xlink:href="_label_8h.html" target="_top" xlink:title="../Label.h">
<polygon fill="none" stroke="black" points="206,-504.5 206,-523.5 263,-523.5 263,-504.5 206,-504.5"/>
<text text-anchor="middle" x="234.5" y="-511.5" font-family="Helvetica,sans-Serif" font-size="10.00">../Label.h</text>
</a>
</g>
</g>
<!-- Node1&#45;&gt;Node3 -->
<g id="edge2" class="edge"><title>Node1&#45;&gt;Node3</title>
<path fill="none" stroke="midnightblue" d="M455.827,-560.444C405.524,-550.115 321.629,-532.89 272.858,-522.876"/>
<polygon fill="midnightblue" stroke="midnightblue" points="273.509,-519.436 263.009,-520.854 272.101,-526.293 273.509,-519.436"/>
</g>
<!-- Node20 -->
<g id="node20" class="node"><title>Node20</title>
<g id="a_node20"><a xlink:href="_sdl_surface_text_8h.html" target="_top" xlink:title="SdlSurfaceText.h">
<polygon fill="none" stroke="black" points="407.5,-504.5 407.5,-523.5 499.5,-523.5 499.5,-504.5 407.5,-504.5"/>
<text text-anchor="middle" x="453.5" y="-511.5" font-family="Helvetica,sans-Serif" font-size="10.00">SdlSurfaceText.h</text>
</a>
</g>
</g>
<!-- Node1&#45;&gt;Node20 -->
<g id="edge29" class="edge"><title>Node1&#45;&gt;Node20</title>
<path fill="none" stroke="midnightblue" d="M490.234,-560.083C483.955,-552.377 474.712,-541.033 467.069,-531.653"/>
<polygon fill="midnightblue" stroke="midnightblue" points="469.661,-529.293 460.631,-523.751 464.234,-533.714 469.661,-529.293"/>
</g>
<!-- Node26 -->
<g id="node26" class="node"><title>Node26</title>
<g id="a_node26"><a xlink:href="_sdl_label_view_8h.html" target="_top" xlink:title="SdlLabelView.h">
<polygon fill="none" stroke="black" points="569.5,-504.5 569.5,-523.5 653.5,-523.5 653.5,-504.5 569.5,-504.5"/>
<text text-anchor="middle" x="611.5" y="-511.5" font-family="Helvetica,sans-Serif" font-size="10.00">SdlLabelView.h</text>
</a>
</g>
</g>
<!-- Node1&#45;&gt;Node26 -->
<g id="edge41" class="edge"><title>Node1&#45;&gt;Node26</title>
<path fill="none" stroke="midnightblue" d="M515.564,-560.444C534.075,-551.675 563.081,-537.935 584.355,-527.858"/>
<polygon fill="midnightblue" stroke="midnightblue" points="585.982,-530.96 593.521,-523.516 582.985,-524.634 585.982,-530.96"/>
</g>
<!-- Node4 -->
<g id="node4" class="node"><title>Node4</title>
<g id="a_node4"><a xlink:href="_base_text_8h.html" target="_top" xlink:title="BaseText.h">
<polygon fill="none" stroke="black" points="20,-448.5 20,-467.5 87,-467.5 87,-448.5 20,-448.5"/>
<text text-anchor="middle" x="53.5" y="-455.5" font-family="Helvetica,sans-Serif" font-size="10.00">BaseText.h</text>
</a>
</g>
</g>
<!-- Node3&#45;&gt;Node4 -->
<g id="edge3" class="edge"><title>Node3&#45;&gt;Node4</title>
<path fill="none" stroke="midnightblue" d="M205.82,-504.444C174.973,-495.241 125.772,-480.562 91.6707,-470.388"/>
<polygon fill="midnightblue" stroke="midnightblue" points="92.6291,-467.021 82.0458,-467.516 90.6278,-473.729 92.6291,-467.021"/>
</g>
<!-- Node5 -->
<g id="node5" class="node"><title>Node5</title>
<g id="a_node5"><a xlink:href="_color_8h.html" target="_top" xlink:title="Color.h">
<polygon fill="none" stroke="black" points="110.5,-168.5 110.5,-187.5 158.5,-187.5 158.5,-168.5 110.5,-168.5"/>
<text text-anchor="middle" x="134.5" y="-175.5" font-family="Helvetica,sans-Serif" font-size="10.00">Color.h</text>
</a>
</g>
</g>
<!-- Node4&#45;&gt;Node5 -->
<g id="edge4" class="edge"><title>Node4&#45;&gt;Node5</title>
<path fill="none" stroke="midnightblue" d="M53.7045,-448.076C54.7428,-416.144 61.0067,-305.16 98.5,-224 103.358,-213.484 111.185,-203.276 118.303,-195.247"/>
<polygon fill="midnightblue" stroke="midnightblue" points="121.039,-197.446 125.308,-187.749 115.924,-192.667 121.039,-197.446"/>
</g>
<!-- Node9 -->
<g id="node9" class="node"><title>Node9</title>
<g id="a_node9"><a xlink:href="_ui_font_8h.html" target="_top" xlink:title="UiFont.h">
<polygon fill="none" stroke="black" points="14.5,-168.5 14.5,-187.5 68.5,-187.5 68.5,-168.5 14.5,-168.5"/>
<text text-anchor="middle" x="41.5" y="-175.5" font-family="Helvetica,sans-Serif" font-size="10.00">UiFont.h</text>
</a>
</g>
</g>
<!-- Node4&#45;&gt;Node9 -->
<g id="edge9" class="edge"><title>Node4&#45;&gt;Node9</title>
<path fill="none" stroke="midnightblue" d="M46.5477,-448.481C32.8091,-430.753 3.5,-388.116 3.5,-347 3.5,-347 3.5,-347 3.5,-289 3.5,-254.813 20.1005,-217.764 31.3573,-196.571"/>
<polygon fill="midnightblue" stroke="midnightblue" points="34.4473,-198.215 36.2163,-187.769 28.3191,-194.832 34.4473,-198.215"/>
</g>
<!-- Node11 -->
<g id="node11" class="node"><title>Node11</title>
<g id="a_node11"><a xlink:href="_ui_view_model_8h.html" target="_top" xlink:title="UiViewModel.h">
<polygon fill="none" stroke="black" points="227,-392.5 227,-411.5 310,-411.5 310,-392.5 227,-392.5"/>
<text text-anchor="middle" x="268.5" y="-399.5" font-family="Helvetica,sans-Serif" font-size="10.00">UiViewModel.h</text>
</a>
</g>
</g>
<!-- Node4&#45;&gt;Node11 -->
<g id="edge12" class="edge"><title>Node4&#45;&gt;Node11</title>
<path fill="none" stroke="midnightblue" d="M87.0938,-448.562C124.112,-439.265 183.791,-424.276 224.513,-414.048"/>
<polygon fill="midnightblue" stroke="midnightblue" points="225.586,-417.387 234.433,-411.556 223.881,-410.598 225.586,-417.387"/>
</g>
<!-- Node6 -->
<g id="node6" class="node"><title>Node6</title>
<g id="a_node6"><a xlink:href="_m_r___types_8h.html" target="_top" xlink:title="../Util/MR_Types.h">
<polygon fill="none" stroke="black" points="192.5,-56.5 192.5,-75.5 292.5,-75.5 292.5,-56.5 192.5,-56.5"/>
<text text-anchor="middle" x="242.5" y="-63.5" font-family="Helvetica,sans-Serif" font-size="10.00">../Util/MR_Types.h</text>
</a>
</g>
</g>
<!-- Node5&#45;&gt;Node6 -->
<g id="edge5" class="edge"><title>Node5&#45;&gt;Node6</title>
<path fill="none" stroke="midnightblue" d="M144.758,-168.348C155.08,-159.509 171.316,-145.241 184.5,-132 200.257,-116.175 217.133,-96.9815 228.595,-83.5694"/>
<polygon fill="midnightblue" stroke="midnightblue" points="231.482,-85.5756 235.279,-75.6842 226.142,-81.0492 231.482,-85.5756"/>
</g>
<!-- Node8 -->
<g id="node8" class="node"><title>Node8</title>
<g id="a_node8"><a xlink:href="_sel_fmt_8h.html" target="_top" xlink:title="../Util/SelFmt.h">
<polygon fill="none" stroke="black" points="93,-112.5 93,-131.5 176,-131.5 176,-112.5 93,-112.5"/>
<text text-anchor="middle" x="134.5" y="-119.5" font-family="Helvetica,sans-Serif" font-size="10.00">../Util/SelFmt.h</text>
</a>
</g>
</g>
<!-- Node5&#45;&gt;Node8 -->
<g id="edge7" class="edge"><title>Node5&#45;&gt;Node8</title>
<path fill="none" stroke="midnightblue" d="M134.5,-168.083C134.5,-161.006 134.5,-150.861 134.5,-141.986"/>
<polygon fill="midnightblue" stroke="midnightblue" points="138,-141.751 134.5,-131.751 131,-141.751 138,-141.751"/>
</g>
<!-- Node7 -->
<g id="node7" class="node"><title>Node7</title>
<polygon fill="none" stroke="#bfbfbf" points="213,-0.5 213,-19.5 272,-19.5 272,-0.5 213,-0.5"/>
<text text-anchor="middle" x="242.5" y="-7.5" font-family="Helvetica,sans-Serif" font-size="10.00">inttypes.h</text>
</g>
<!-- Node6&#45;&gt;Node7 -->
<g id="edge6" class="edge"><title>Node6&#45;&gt;Node7</title>
<path fill="none" stroke="midnightblue" d="M242.5,-56.083C242.5,-49.0059 242.5,-38.8611 242.5,-29.9865"/>
<polygon fill="midnightblue" stroke="midnightblue" points="246,-29.751 242.5,-19.7511 239,-29.7511 246,-29.751"/>
</g>
<!-- Node8&#45;&gt;Node6 -->
<g id="edge8" class="edge"><title>Node8&#45;&gt;Node6</title>
<path fill="none" stroke="midnightblue" d="M151.852,-112.324C169.172,-103.664 196.015,-90.2424 216.002,-80.249"/>
<polygon fill="midnightblue" stroke="midnightblue" points="217.812,-83.2572 225.191,-75.6545 214.681,-76.9962 217.812,-83.2572"/>
</g>
<!-- Node9&#45;&gt;Node8 -->
<g id="edge11" class="edge"><title>Node9&#45;&gt;Node8</title>
<path fill="none" stroke="midnightblue" d="M56.4421,-168.324C71.0852,-159.822 93.6337,-146.729 110.738,-136.797"/>
<polygon fill="midnightblue" stroke="midnightblue" points="112.705,-139.703 119.595,-131.655 109.19,-133.649 112.705,-139.703"/>
</g>
<!-- Node10 -->
<g id="node10" class="node"><title>Node10</title>
<g id="a_node10"><a xlink:href="_hash_8h.html" target="_top" xlink:title="../Util/Hash.h">
<polygon fill="none" stroke="black" points="0,-112.5 0,-131.5 75,-131.5 75,-112.5 0,-112.5"/>
<text text-anchor="middle" x="37.5" y="-119.5" font-family="Helvetica,sans-Serif" font-size="10.00">../Util/Hash.h</text>
</a>
</g>
</g>
<!-- Node9&#45;&gt;Node10 -->
<g id="edge10" class="edge"><title>Node9&#45;&gt;Node10</title>
<path fill="none" stroke="midnightblue" d="M40.8395,-168.083C40.3152,-161.006 39.5638,-150.861 38.9064,-141.986"/>
<polygon fill="midnightblue" stroke="midnightblue" points="42.3775,-141.465 38.1482,-131.751 35.3966,-141.982 42.3775,-141.465"/>
</g>
<!-- Node11&#45;&gt;Node6 -->
<g id="edge14" class="edge"><title>Node11&#45;&gt;Node6</title>
<path fill="none" stroke="midnightblue" d="M270.807,-392.434C277.171,-368.028 294.5,-295.967 294.5,-235 294.5,-235 294.5,-235 294.5,-177 294.5,-141.119 271.606,-104.424 256.2,-83.7932"/>
<polygon fill="midnightblue" stroke="midnightblue" points="258.848,-81.4965 249.95,-75.7441 253.318,-85.7894 258.848,-81.4965"/>
</g>
<!-- Node12 -->
<g id="node12" class="node"><title>Node12</title>
<g id="a_node12"><a xlink:href="_nav_8h.html" target="_top" xlink:title="../Control/Nav.h">
<polygon fill="none" stroke="black" points="181.5,-336.5 181.5,-355.5 267.5,-355.5 267.5,-336.5 181.5,-336.5"/>
<text text-anchor="middle" x="224.5" y="-343.5" font-family="Helvetica,sans-Serif" font-size="10.00">../Control/Nav.h</text>
</a>
</g>
</g>
<!-- Node11&#45;&gt;Node12 -->
<g id="edge13" class="edge"><title>Node11&#45;&gt;Node12</title>
<path fill="none" stroke="midnightblue" d="M261.234,-392.083C254.955,-384.377 245.712,-373.033 238.069,-363.653"/>
<polygon fill="midnightblue" stroke="midnightblue" points="240.661,-361.293 231.631,-355.751 235.234,-365.714 240.661,-361.293"/>
</g>
<!-- Node13 -->
<g id="node13" class="node"><title>Node13</title>
<g id="a_node13"><a xlink:href="_vec_8h.html" target="_top" xlink:title="../Vec.h">
<polygon fill="none" stroke="black" points="323,-168.5 323,-187.5 374,-187.5 374,-168.5 323,-168.5"/>
<text text-anchor="middle" x="348.5" y="-175.5" font-family="Helvetica,sans-Serif" font-size="10.00">../Vec.h</text>
</a>
</g>
</g>
<!-- Node11&#45;&gt;Node13 -->
<g id="edge15" class="edge"><title>Node11&#45;&gt;Node13</title>
<path fill="none" stroke="midnightblue" d="M310.286,-398.837C349.658,-395.028 408.817,-384.577 451.5,-356 477.132,-338.839 482.914,-329.319 492.5,-300 503.735,-265.637 490.369,-248.19 463.5,-224 441.094,-203.828 408.603,-192.239 383.867,-185.89"/>
<polygon fill="midnightblue" stroke="midnightblue" points="384.672,-182.484 374.132,-183.556 383.04,-189.291 384.672,-182.484"/>
</g>
<!-- Node14 -->
<g id="node14" class="node"><title>Node14</title>
<g id="a_node14"><a xlink:href="_ui_layout_flags_8h.html" target="_top" xlink:title="UiLayoutFlags.h">
<polygon fill="none" stroke="black" points="178.5,-224.5 178.5,-243.5 266.5,-243.5 266.5,-224.5 178.5,-224.5"/>
<text text-anchor="middle" x="222.5" y="-231.5" font-family="Helvetica,sans-Serif" font-size="10.00">UiLayoutFlags.h</text>
</a>
</g>
</g>
<!-- Node11&#45;&gt;Node14 -->
<g id="edge16" class="edge"><title>Node11&#45;&gt;Node14</title>
<path fill="none" stroke="midnightblue" d="M227.029,-392.497C206.914,-386.06 184.547,-374.952 172.5,-356 150.467,-321.338 184.448,-275.324 206.346,-251.253"/>
<polygon fill="midnightblue" stroke="midnightblue" points="209.152,-253.38 213.477,-243.708 204.064,-248.572 209.152,-253.38"/>
</g>
<!-- Node15 -->
<g id="node15" class="node"><title>Node15</title>
<g id="a_node15"><a xlink:href="_view_model_8h.html" target="_top" xlink:title="ViewModel.h">
<polygon fill="none" stroke="black" points="370,-336.5 370,-355.5 443,-355.5 443,-336.5 370,-336.5"/>
<text text-anchor="middle" x="406.5" y="-343.5" font-family="Helvetica,sans-Serif" font-size="10.00">ViewModel.h</text>
</a>
</g>
</g>
<!-- Node11&#45;&gt;Node15 -->
<g id="edge18" class="edge"><title>Node11&#45;&gt;Node15</title>
<path fill="none" stroke="midnightblue" d="M290.367,-392.444C313.279,-383.478 349.475,-369.314 375.366,-359.183"/>
<polygon fill="midnightblue" stroke="midnightblue" points="376.699,-362.42 384.736,-355.516 374.148,-355.901 376.699,-362.42"/>
</g>
<!-- Node14&#45;&gt;Node6 -->
<g id="edge17" class="edge"><title>Node14&#45;&gt;Node6</title>
<path fill="none" stroke="midnightblue" d="M223.575,-224.075C226.723,-197.945 235.969,-121.211 240.262,-85.577"/>
<polygon fill="midnightblue" stroke="midnightblue" points="243.746,-85.915 241.468,-75.5681 236.797,-85.0776 243.746,-85.915"/>
</g>
<!-- Node16 -->
<g id="node16" class="node"><title>Node16</title>
<g id="a_node16"><a xlink:href="_display_8h.html" target="_top" xlink:title="Display.h">
<polygon fill="none" stroke="black" points="322.5,-280.5 322.5,-299.5 380.5,-299.5 380.5,-280.5 322.5,-280.5"/>
<text text-anchor="middle" x="351.5" y="-287.5" font-family="Helvetica,sans-Serif" font-size="10.00">Display.h</text>
</a>
</g>
</g>
<!-- Node15&#45;&gt;Node16 -->
<g id="edge19" class="edge"><title>Node15&#45;&gt;Node16</title>
<path fill="none" stroke="midnightblue" d="M397.418,-336.083C389.329,-328.141 377.305,-316.335 367.59,-306.797"/>
<polygon fill="midnightblue" stroke="midnightblue" points="370.001,-304.26 360.413,-299.751 365.097,-309.254 370.001,-304.26"/>
</g>
<!-- Node18 -->
<g id="node18" class="node"><title>Node18</title>
<g id="a_node18"><a xlink:href="_view_attacher_8h.html" target="_top" xlink:title="ViewAttacher.h">
<polygon fill="none" stroke="black" points="372,-224.5 372,-243.5 455,-243.5 455,-224.5 372,-224.5"/>
<text text-anchor="middle" x="413.5" y="-231.5" font-family="Helvetica,sans-Serif" font-size="10.00">ViewAttacher.h</text>
</a>
</g>
</g>
<!-- Node15&#45;&gt;Node18 -->
<g id="edge28" class="edge"><title>Node15&#45;&gt;Node18</title>
<path fill="none" stroke="midnightblue" d="M407.049,-336.368C408.179,-318.617 410.785,-277.666 412.317,-253.597"/>
<polygon fill="midnightblue" stroke="midnightblue" points="415.811,-253.794 412.953,-243.591 408.825,-253.349 415.811,-253.794"/>
</g>
<!-- Node19 -->
<g id="node19" class="node"><title>Node19</title>
<g id="a_node19"><a xlink:href="_view_8h.html" target="_top" xlink:title="View.h">
<polygon fill="none" stroke="black" points="437,-280.5 437,-299.5 484,-299.5 484,-280.5 437,-280.5"/>
<text text-anchor="middle" x="460.5" y="-287.5" font-family="Helvetica,sans-Serif" font-size="10.00">View.h</text>
</a>
</g>
</g>
<!-- Node15&#45;&gt;Node19 -->
<g id="edge27" class="edge"><title>Node15&#45;&gt;Node19</title>
<path fill="none" stroke="midnightblue" d="M415.417,-336.083C423.28,-328.22 434.931,-316.569 444.419,-307.081"/>
<polygon fill="midnightblue" stroke="midnightblue" points="447.153,-309.297 451.749,-299.751 442.203,-304.347 447.153,-309.297"/>
</g>
<!-- Node16&#45;&gt;Node13 -->
<g id="edge20" class="edge"><title>Node16&#45;&gt;Node13</title>
<path fill="none" stroke="midnightblue" d="M351.265,-280.368C350.78,-262.617 349.664,-221.666 349.007,-197.597"/>
<polygon fill="midnightblue" stroke="midnightblue" points="352.506,-197.492 348.734,-187.591 345.508,-197.683 352.506,-197.492"/>
</g>
<!-- Node16&#45;&gt;Node14 -->
<g id="edge25" class="edge"><title>Node16&#45;&gt;Node14</title>
<path fill="none" stroke="midnightblue" d="M331.06,-280.444C309.83,-271.557 276.401,-257.563 252.245,-247.451"/>
<polygon fill="midnightblue" stroke="midnightblue" points="253.421,-244.149 242.845,-243.516 250.718,-250.606 253.421,-244.149"/>
</g>
<!-- Node17 -->
<g id="node17" class="node"><title>Node17</title>
<g id="a_node17"><a xlink:href="_styles_8h.html" target="_top" xlink:title="Styles.h">
<polygon fill="none" stroke="black" points="108,-224.5 108,-243.5 161,-243.5 161,-224.5 108,-224.5"/>
<text text-anchor="middle" x="134.5" y="-231.5" font-family="Helvetica,sans-Serif" font-size="10.00">Styles.h</text>
</a>
</g>
</g>
<!-- Node16&#45;&gt;Node17 -->
<g id="edge21" class="edge"><title>Node16&#45;&gt;Node17</title>
<path fill="none" stroke="midnightblue" d="M322.48,-281.913C288.439,-273.58 230.046,-259.227 171.093,-244.387"/>
<polygon fill="midnightblue" stroke="midnightblue" points="171.799,-240.955 161.246,-241.905 170.088,-247.743 171.799,-240.955"/>
</g>
<!-- Node16&#45;&gt;Node18 -->
<g id="edge26" class="edge"><title>Node16&#45;&gt;Node18</title>
<path fill="none" stroke="midnightblue" d="M361.461,-280.324C370.627,-272.341 384.437,-260.313 395.528,-250.653"/>
<polygon fill="midnightblue" stroke="midnightblue" points="398.115,-253.041 403.357,-243.834 393.518,-247.762 398.115,-253.041"/>
</g>
<!-- Node17&#45;&gt;Node5 -->
<g id="edge24" class="edge"><title>Node17&#45;&gt;Node5</title>
<path fill="none" stroke="midnightblue" d="M134.5,-224.083C134.5,-217.006 134.5,-206.861 134.5,-197.986"/>
<polygon fill="midnightblue" stroke="midnightblue" points="138,-197.751 134.5,-187.751 131,-197.751 138,-197.751"/>
</g>
<!-- Node17&#45;&gt;Node9 -->
<g id="edge23" class="edge"><title>Node17&#45;&gt;Node9</title>
<path fill="none" stroke="midnightblue" d="M119.558,-224.324C104.915,-215.822 82.3663,-202.729 65.2623,-192.797"/>
<polygon fill="midnightblue" stroke="midnightblue" points="66.8104,-189.649 56.405,-187.655 63.2954,-195.703 66.8104,-189.649"/>
</g>
<!-- Node17&#45;&gt;Node13 -->
<g id="edge22" class="edge"><title>Node17&#45;&gt;Node13</title>
<path fill="none" stroke="midnightblue" d="M161.249,-226.106C164.035,-225.393 166.825,-224.68 169.5,-224 219.247,-211.351 276.823,-196.912 312.952,-187.877"/>
<polygon fill="midnightblue" stroke="midnightblue" points="314.144,-191.186 322.997,-185.365 312.446,-184.395 314.144,-191.186"/>
</g>
<!-- Node20&#45;&gt;Node2 -->
<g id="edge30" class="edge"><title>Node20&#45;&gt;Node2</title>
<path fill="none" stroke="midnightblue" d="M463.152,-504.368C483.899,-485.814 532.988,-441.913 559.238,-418.438"/>
<polygon fill="midnightblue" stroke="midnightblue" points="561.772,-420.867 566.893,-411.591 557.106,-415.649 561.772,-420.867"/>
</g>
<!-- Node20&#45;&gt;Node9 -->
<g id="edge31" class="edge"><title>Node20&#45;&gt;Node9</title>
<path fill="none" stroke="midnightblue" d="M423.684,-504.387C377.002,-490.025 285.024,-458.135 217.5,-412 132.248,-353.752 71.2453,-240.706 49.8687,-196.925"/>
<polygon fill="midnightblue" stroke="midnightblue" points="52.9732,-195.304 45.4994,-187.794 46.659,-198.326 52.9732,-195.304"/>
</g>
<!-- Node21 -->
<g id="node21" class="node"><title>Node21</title>
<g id="a_node21"><a xlink:href="_sdl_display_8h.html" target="_top" xlink:title="SdlDisplay.h">
<polygon fill="none" stroke="black" points="403.5,-448.5 403.5,-467.5 475.5,-467.5 475.5,-448.5 403.5,-448.5"/>
<text text-anchor="middle" x="439.5" y="-455.5" font-family="Helvetica,sans-Serif" font-size="10.00">SdlDisplay.h</text>
</a>
</g>
</g>
<!-- Node20&#45;&gt;Node21 -->
<g id="edge32" class="edge"><title>Node20&#45;&gt;Node21</title>
<path fill="none" stroke="midnightblue" d="M451.188,-504.083C449.333,-496.927 446.665,-486.635 444.346,-477.691"/>
<polygon fill="midnightblue" stroke="midnightblue" points="447.666,-476.553 441.769,-467.751 440.891,-478.309 447.666,-476.553"/>
</g>
<!-- Node21&#45;&gt;Node2 -->
<g id="edge33" class="edge"><title>Node21&#45;&gt;Node2</title>
<path fill="none" stroke="midnightblue" d="M461.208,-448.444C483.855,-439.517 519.572,-425.439 545.252,-415.317"/>
<polygon fill="midnightblue" stroke="midnightblue" points="546.874,-418.44 554.894,-411.516 544.307,-411.927 546.874,-418.44"/>
</g>
<!-- Node21&#45;&gt;Node11 -->
<g id="edge40" class="edge"><title>Node21&#45;&gt;Node11</title>
<path fill="none" stroke="midnightblue" d="M412.405,-448.444C383.512,-439.32 337.575,-424.813 305.395,-414.651"/>
<polygon fill="midnightblue" stroke="midnightblue" points="306.059,-411.19 295.469,-411.516 303.951,-417.865 306.059,-411.19"/>
</g>
<!-- Node21&#45;&gt;Node16 -->
<g id="edge35" class="edge"><title>Node21&#45;&gt;Node16</title>
<path fill="none" stroke="midnightblue" d="M408.836,-448.497C390.643,-441.739 368.958,-430.308 357.5,-412 337.857,-380.614 342.392,-335.177 347.141,-309.854"/>
<polygon fill="midnightblue" stroke="midnightblue" points="350.632,-310.262 349.252,-299.758 343.78,-308.83 350.632,-310.262"/>
</g>
<!-- Node22 -->
<g id="node22" class="node"><title>Node22</title>
<polygon fill="none" stroke="#bfbfbf" points="436.5,-392.5 436.5,-411.5 522.5,-411.5 522.5,-392.5 436.5,-392.5"/>
<text text-anchor="middle" x="479.5" y="-399.5" font-family="Helvetica,sans-Serif" font-size="10.00">SDL2/SDL_ttf.h</text>
</g>
<!-- Node21&#45;&gt;Node22 -->
<g id="edge34" class="edge"><title>Node21&#45;&gt;Node22</title>
<path fill="none" stroke="midnightblue" d="M446.105,-448.083C451.755,-440.455 460.045,-429.264 466.951,-419.941"/>
<polygon fill="midnightblue" stroke="midnightblue" points="469.878,-421.87 473.018,-411.751 464.253,-417.703 469.878,-421.87"/>
</g>
<!-- Node23 -->
<g id="node23" class="node"><title>Node23</title>
<g id="a_node23"><a xlink:href="_res_8h.html" target="_top" xlink:title="../Res.h">
<polygon fill="none" stroke="black" points="366.5,-392.5 366.5,-411.5 418.5,-411.5 418.5,-392.5 366.5,-392.5"/>
<text text-anchor="middle" x="392.5" y="-399.5" font-family="Helvetica,sans-Serif" font-size="10.00">../Res.h</text>
</a>
</g>
</g>
<!-- Node21&#45;&gt;Node23 -->
<g id="edge36" class="edge"><title>Node21&#45;&gt;Node23</title>
<path fill="none" stroke="midnightblue" d="M431.739,-448.083C424.963,-440.298 414.957,-428.801 406.745,-419.367"/>
<polygon fill="midnightblue" stroke="midnightblue" points="409.322,-416.996 400.117,-411.751 404.042,-421.592 409.322,-416.996"/>
</g>
<!-- Node23&#45;&gt;Node6 -->
<g id="edge37" class="edge"><title>Node23&#45;&gt;Node6</title>
<path fill="none" stroke="midnightblue" d="M418.848,-394.118C421.764,-393.388 424.693,-392.669 427.5,-392 500.093,-374.705 536.962,-406.935 591.5,-356 613.497,-335.457 610.5,-321.098 610.5,-291 610.5,-291 610.5,-291 610.5,-177 610.5,-113.516 406.915,-83.6148 302.593,-72.4604"/>
<polygon fill="midnightblue" stroke="midnightblue" points="302.823,-68.9653 292.513,-71.4078 302.096,-75.9275 302.823,-68.9653"/>
</g>
<!-- Node24 -->
<g id="node24" class="node"><title>Node24</title>
<g id="a_node24"><a xlink:href="_exception_8h.html" target="_top" xlink:title="../Exception.h">
<polygon fill="none" stroke="black" points="639,-336.5 639,-355.5 716,-355.5 716,-336.5 639,-336.5"/>
<text text-anchor="middle" x="677.5" y="-343.5" font-family="Helvetica,sans-Serif" font-size="10.00">../Exception.h</text>
</a>
</g>
</g>
<!-- Node23&#45;&gt;Node24 -->
<g id="edge38" class="edge"><title>Node23&#45;&gt;Node24</title>
<path fill="none" stroke="midnightblue" d="M418.824,-394.01C421.744,-393.3 424.68,-392.615 427.5,-392 465.049,-383.805 567.356,-365.909 628.834,-355.321"/>
<polygon fill="midnightblue" stroke="midnightblue" points="629.442,-358.768 638.704,-353.623 628.255,-351.869 629.442,-358.768"/>
</g>
<!-- Node25 -->
<g id="node25" class="node"><title>Node25</title>
<polygon fill="none" stroke="#bfbfbf" points="648,-280.5 648,-299.5 707,-299.5 707,-280.5 648,-280.5"/>
<text text-anchor="middle" x="677.5" y="-287.5" font-family="Helvetica,sans-Serif" font-size="10.00">exception</text>
</g>
<!-- Node24&#45;&gt;Node25 -->
<g id="edge39" class="edge"><title>Node24&#45;&gt;Node25</title>
<path fill="none" stroke="midnightblue" d="M677.5,-336.083C677.5,-329.006 677.5,-318.861 677.5,-309.986"/>
<polygon fill="midnightblue" stroke="midnightblue" points="681,-309.751 677.5,-299.751 674,-309.751 681,-309.751"/>
</g>
<!-- Node26&#45;&gt;Node21 -->
<g id="edge42" class="edge"><title>Node26&#45;&gt;Node21</title>
<path fill="none" stroke="midnightblue" d="M584.246,-504.444C555.059,-495.28 508.579,-480.688 476.191,-470.519"/>
<polygon fill="midnightblue" stroke="midnightblue" points="477.216,-467.173 466.626,-467.516 475.119,-473.851 477.216,-467.173"/>
</g>
<!-- Node27 -->
<g id="node27" class="node"><title>Node27</title>
<g id="a_node27"><a xlink:href="_sdl_texture_8h.html" target="_top" xlink:title="SdlTexture.h">
<polygon fill="none" stroke="black" points="575.5,-448.5 575.5,-467.5 647.5,-467.5 647.5,-448.5 575.5,-448.5"/>
<text text-anchor="middle" x="611.5" y="-455.5" font-family="Helvetica,sans-Serif" font-size="10.00">SdlTexture.h</text>
</a>
</g>
</g>
<!-- Node26&#45;&gt;Node27 -->
<g id="edge43" class="edge"><title>Node26&#45;&gt;Node27</title>
<path fill="none" stroke="midnightblue" d="M611.5,-504.083C611.5,-497.006 611.5,-486.861 611.5,-477.986"/>
<polygon fill="midnightblue" stroke="midnightblue" points="615,-477.751 611.5,-467.751 608,-477.751 615,-477.751"/>
</g>
<!-- Node29 -->
<g id="node29" class="node"><title>Node29</title>
<g id="a_node29"><a xlink:href="_sdl_view_8h.html" target="_top" xlink:title="SdlView.h">
<polygon fill="none" stroke="black" points="521,-336.5 521,-355.5 582,-355.5 582,-336.5 521,-336.5"/>
<text text-anchor="middle" x="551.5" y="-343.5" font-family="Helvetica,sans-Serif" font-size="10.00">SdlView.h</text>
</a>
</g>
</g>
<!-- Node26&#45;&gt;Node29 -->
<g id="edge46" class="edge"><title>Node26&#45;&gt;Node29</title>
<path fill="none" stroke="midnightblue" d="M627.637,-504.463C662.628,-484.851 739.823,-434.964 707.5,-392 693.635,-373.571 633.759,-360.316 592.356,-353.15"/>
<polygon fill="midnightblue" stroke="midnightblue" points="592.708,-349.66 582.267,-351.46 591.551,-356.564 592.708,-349.66"/>
</g>
<!-- Node27&#45;&gt;Node2 -->
<g id="edge44" class="edge"><title>Node27&#45;&gt;Node2</title>
<path fill="none" stroke="midnightblue" d="M605.72,-448.083C600.828,-440.534 593.673,-429.495 587.667,-420.23"/>
<polygon fill="midnightblue" stroke="midnightblue" points="590.548,-418.239 582.172,-411.751 584.674,-422.046 590.548,-418.239"/>
</g>
<!-- Node28 -->
<g id="node28" class="node"><title>Node28</title>
<g id="a_node28"><a xlink:href="_texture_8h.html" target="_top" xlink:title="../Texture.h">
<polygon fill="none" stroke="black" points="631,-392.5 631,-411.5 698,-411.5 698,-392.5 631,-392.5"/>
<text text-anchor="middle" x="664.5" y="-399.5" font-family="Helvetica,sans-Serif" font-size="10.00">../Texture.h</text>
</a>
</g>
</g>
<!-- Node27&#45;&gt;Node28 -->
<g id="edge45" class="edge"><title>Node27&#45;&gt;Node28</title>
<path fill="none" stroke="midnightblue" d="M620.252,-448.083C627.97,-440.22 639.405,-428.569 648.717,-419.081"/>
<polygon fill="midnightblue" stroke="midnightblue" points="651.404,-421.34 655.911,-411.751 646.408,-416.436 651.404,-421.34"/>
</g>
<!-- Node29&#45;&gt;Node19 -->
<g id="edge47" class="edge"><title>Node29&#45;&gt;Node19</title>
<path fill="none" stroke="midnightblue" d="M536.879,-336.324C522.551,-327.822 500.487,-314.729 483.751,-304.797"/>
<polygon fill="midnightblue" stroke="midnightblue" points="485.47,-301.748 475.084,-299.655 481.898,-307.768 485.47,-301.748"/>
</g>
</g>
</svg>
        <g id="navigator" transform="translate(0 0)" fill="#404254">
                <rect fill="#f2f5e9" fill-opacity="0.5" stroke="#606060" stroke-width=".5" x="0" y="0" width="60" height="60"/>
                <use id="zoomplus" xlink:href="#zoomPlus" x="17" y="9" onmousedown="handleZoom(evt,'in')"/>
                <use id="zoomminus" xlink:href="#zoomMin" x="42" y="9" onmousedown="handleZoom(evt,'out')"/>
                <use id="reset" xlink:href="#resetDef" x="30" y="36" onmousedown="handleReset()"/>
                <g id="arrowUp" xlink:href="#dirArrow" transform="translate(30 24)" onmousedown="handlePan(0,-1)">
                  <use xlink:href="#rim" fill="#404040">
                        <set attributeName="fill" to="#808080" begin="arrowUp.mouseover" end="arrowUp.mouseout"/>
                  </use>
                  <path fill="none" stroke="white" stroke-width="1.5" d="M0,-3.0v7 M-2.5,-0.5L0,-3.0L2.5,-0.5"/>
                </g>
                <g id="arrowRight" xlink:href="#dirArrow" transform="rotate(90) translate(36 -43)" onmousedown="handlePan(1,0)">
                  <use xlink:href="#rim" fill="#404040">
                        <set attributeName="fill" to="#808080" begin="arrowRight.mouseover" end="arrowRight.mouseout"/>
                  </use>
                  <path fill="none" stroke="white" stroke-width="1.5" d="M0,-3.0v7 M-2.5,-0.5L0,-3.0L2.5,-0.5"/>
                </g>
                <g id="arrowDown" xlink:href="#dirArrow" transform="rotate(180) translate(-30 -48)" onmousedown="handlePan(0,1)">
                  <use xlink:href="#rim" fill="#404040">
                        <set attributeName="fill" to="#808080" begin="arrowDown.mouseover" end="arrowDown.mouseout"/>
                  </use>
                  <path fill="none" stroke="white" stroke-width="1.5" d="M0,-3.0v7 M-2.5,-0.5L0,-3.0L2.5,-0.5"/>
                </g>
                <g id="arrowLeft" xlink:href="#dirArrow" transform="rotate(270) translate(-36 17)" onmousedown="handlePan(-1,0)">
                  <use xlink:href="#rim" fill="#404040">
                        <set attributeName="fill" to="#808080" begin="arrowLeft.mouseover" end="arrowLeft.mouseout"/>
                  </use>
                  <path fill="none" stroke="white" stroke-width="1.5" d="M0,-3.0v7 M-2.5,-0.5L0,-3.0L2.5,-0.5"/>
                </g>
        </g>
        <svg viewBox="0 0 15 15" width="100%" height="30px" preserveAspectRatio="xMaxYMin meet">
         <g id="arrow_out" transform="scale(0.3 0.3)">
          <a xlink:href="_sdl_label_view_8cpp__incl_org.svg" target="_base">
           <rect id="button" ry="5" rx="5" y="6" x="6" height="38" width="38"
                fill="#f2f5e9" fill-opacity="0.5" stroke="#606060" stroke-width="1.0"/>
           <path id="arrow"
             d="M 11.500037,31.436501 C 11.940474,20.09759 22.043105,11.32322 32.158766,21.979434 L 37.068811,17.246167 C 37.068811,17.246167 37.088388,32 37.088388,32 L 22.160133,31.978069 C 22.160133,31.978069 26.997745,27.140456 26.997745,27.140456 C 18.528582,18.264221 13.291696,25.230495 11.500037,31.436501 z"
             style="fill:#404040;"/>
          </a>
         </g>
        </svg>
</svg>
