<?xml version="1.0" encoding="UTF-8" standalone="no"?>
<!DOCTYPE svg PUBLIC "-//W3C//DTD SVG 1.1//EN"
 "http://www.w3.org/Graphics/SVG/1.1/DTD/svg11.dtd">
<!-- Generated by graphviz version 2.38.0 (20140413.2041)
 -->
<!-- Title: SdlDynamicTexture.h Pages: 1 -->
<svg width="252pt" height="84pt"
 viewBox="0.00 0.00 251.50 84.00" xmlns="http://www.w3.org/2000/svg" xmlns:xlink="http://www.w3.org/1999/xlink">
<g id="graph0" class="graph" transform="scale(1 1) rotate(0) translate(4 80)">
<title>SdlDynamicTexture.h</title>
<!-- Node1 -->
<g id="node1" class="node"><title>Node1</title>
<polygon fill="#bfbfbf" stroke="black" points="70.5,-56.5 70.5,-75.5 187.5,-75.5 187.5,-56.5 70.5,-56.5"/>
<text text-anchor="middle" x="129" y="-63.5" font-family="FreeSans" font-size="10.00">SdlDynamicTexture.h</text>
</g>
<!-- Node2 -->
<g id="node2" class="node"><title>Node2</title>
<g id="a_node2"><a xlink:href="_sdl_dynamic_texture_8cpp.html" target="_top" xlink:title="SdlDynamicTexture.cpp">
<polygon fill="none" stroke="black" points="0,-0.5 0,-19.5 128,-19.5 128,-0.5 0,-0.5"/>
<text text-anchor="middle" x="64" y="-7.5" font-family="FreeSans" font-size="10.00">SdlDynamicTexture.cpp</text>
</a>
</g>
</g>
<!-- Node1&#45;&gt;Node2 -->
<g id="edge1" class="edge"><title>Node1&#45;&gt;Node2</title>
<path fill="none" stroke="midnightblue" d="M110.727,-49.8197C99.0822,-40.1452 84.4005,-27.9481 74.6334,-19.8339"/>
<polygon fill="midnightblue" stroke="midnightblue" points="108.628,-52.6259 118.557,-56.324 113.101,-47.2416 108.628,-52.6259"/>
</g>
<!-- Node3 -->
<g id="node3" class="node"><title>Node3</title>
<g id="a_node3"><a xlink:href="_sdl_type_case_8cpp.html" target="_top" xlink:title="SdlTypeCase.cpp">
<polygon fill="none" stroke="black" points="146.5,-0.5 146.5,-19.5 243.5,-19.5 243.5,-0.5 146.5,-0.5"/>
<text text-anchor="middle" x="195" y="-7.5" font-family="FreeSans" font-size="10.00">SdlTypeCase.cpp</text>
</a>
</g>
</g>
<!-- Node1&#45;&gt;Node3 -->
<g id="edge2" class="edge"><title>Node1&#45;&gt;Node3</title>
<path fill="none" stroke="midnightblue" d="M147.554,-49.8197C159.378,-40.1452 174.286,-27.9481 184.203,-19.8339"/>
<polygon fill="midnightblue" stroke="midnightblue" points="145.127,-47.2827 139.604,-56.324 149.56,-52.7004 145.127,-47.2827"/>
</g>
</g>
</svg>
