<?xml version="1.0" encoding="UTF-8" standalone="no"?>
<!DOCTYPE svg PUBLIC "-//W3C//DTD SVG 1.1//EN"
 "http://www.w3.org/Graphics/SVG/1.1/DTD/svg11.dtd">
<!-- Generated by graphviz version 2.26.3 (20100126.1600)
 -->
<!-- Title: SelFmt.cpp Pages: 1 -->
<svg width="104pt" height="204pt"
 viewBox="0.00 0.00 104.00 204.00" xmlns="http://www.w3.org/2000/svg" xmlns:xlink="http://www.w3.org/1999/xlink">
<g id="graph1" class="graph" transform="scale(1 1) rotate(0) translate(4 200)">
<title>SelFmt.cpp</title>
<!-- Node1 -->
<g id="node1" class="node"><title>Node1</title>
<polygon fill="#bfbfbf" stroke="black" points="15,-175 15,-195 81,-195 81,-175 15,-175"/>
<text text-anchor="middle" x="48" y="-182" font-family="FreeSans" font-size="10.00">SelFmt.cpp</text>
</g>
<!-- Node2 -->
<g id="node3" class="node"><title>Node2</title>
<a xlink:href="_sel_fmt_8h.html" target="_top" xlink:title="SelFmt.h">
<polygon fill="none" stroke="black" points="20,-117 20,-137 76,-137 76,-117 20,-117"/>
<text text-anchor="middle" x="48" y="-124" font-family="FreeSans" font-size="10.00">SelFmt.h</text>
</a>
</g>
<!-- Node1&#45;&gt;Node2 -->
<g id="edge2" class="edge"><title>Node1&#45;&gt;Node2</title>
<path fill="none" stroke="midnightblue" d="M48,-174.897C48,-167.339 48,-156.748 48,-147.446"/>
<polygon fill="midnightblue" stroke="midnightblue" points="51.5001,-147.378 48,-137.378 44.5001,-147.378 51.5001,-147.378"/>
</g>
<!-- Node3 -->
<g id="node5" class="node"><title>Node3</title>
<a xlink:href="_m_r___types_8h.html" target="_top" xlink:title="../Util/MR_Types.h">
<polygon fill="none" stroke="black" points="0,-59 0,-79 96,-79 96,-59 0,-59"/>
<text text-anchor="middle" x="48" y="-66" font-family="FreeSans" font-size="10.00">../Util/MR_Types.h</text>
</a>
</g>
<!-- Node2&#45;&gt;Node3 -->
<g id="edge4" class="edge"><title>Node2&#45;&gt;Node3</title>
<path fill="none" stroke="midnightblue" d="M48,-116.897C48,-109.339 48,-98.7476 48,-89.4458"/>
<polygon fill="midnightblue" stroke="midnightblue" points="51.5001,-89.3776 48,-79.3776 44.5001,-89.3776 51.5001,-89.3776"/>
</g>
<!-- Node4 -->
<g id="node7" class="node"><title>Node4</title>
<polygon fill="none" stroke="#bfbfbf" points="19,-1 19,-21 77,-21 77,-1 19,-1"/>
<text text-anchor="middle" x="48" y="-8" font-family="FreeSans" font-size="10.00">inttypes.h</text>
</g>
<!-- Node3&#45;&gt;Node4 -->
<g id="edge6" class="edge"><title>Node3&#45;&gt;Node4</title>
<path fill="none" stroke="midnightblue" d="M48,-58.8972C48,-51.339 48,-40.7476 48,-31.4458"/>
<polygon fill="midnightblue" stroke="midnightblue" points="51.5001,-31.3776 48,-21.3776 44.5001,-31.3776 51.5001,-31.3776"/>
</g>
</g>
</svg>
