<?xml version="1.0" encoding="UTF-8" standalone="no"?>
<!DOCTYPE svg PUBLIC "-//W3C//DTD SVG 1.1//EN"
 "http://www.w3.org/Graphics/SVG/1.1/DTD/svg11.dtd">
<!-- Generated by graphviz version 2.26.3 (20100126.1600)
 -->
<!-- Title: SeqNode.h Pages: 1 -->
<svg width="502pt" height="88pt"
 viewBox="0.00 0.00 502.00 88.00" xmlns="http://www.w3.org/2000/svg" xmlns:xlink="http://www.w3.org/1999/xlink">
<g id="graph1" class="graph" transform="scale(1 1) rotate(0) translate(4 84)">
<title>SeqNode.h</title>
<!-- Node1 -->
<g id="node1" class="node"><title>Node1</title>
<polygon fill="#bfbfbf" stroke="black" points="189.5,-59 189.5,-79 254.5,-79 254.5,-59 189.5,-59"/>
<text text-anchor="middle" x="222" y="-66" font-family="FreeSans" font-size="10.00">SeqNode.h</text>
</g>
<!-- Node2 -->
<g id="node3" class="node"><title>Node2</title>
<a xlink:href="_core_8cpp.html" target="_top" xlink:title="Core.cpp">
<polygon fill="none" stroke="black" points="-0.5,-1 -0.5,-21 54.5,-21 54.5,-1 -0.5,-1"/>
<text text-anchor="middle" x="27" y="-8" font-family="FreeSans" font-size="10.00">Core.cpp</text>
</a>
</g>
<!-- Node1&#45;&gt;Node2 -->
<g id="edge2" class="edge"><title>Node1&#45;&gt;Node2</title>
<path fill="none" stroke="midnightblue" d="M179.467,-56.5419C147.427,-47.1293 102.426,-33.8503 63,-22 60.2462,-21.1723 57.3755,-20.3042 54.5095,-19.4339"/>
<polygon fill="midnightblue" stroke="midnightblue" points="178.81,-59.9966 189.391,-59.4553 180.782,-53.2801 178.81,-59.9966"/>
</g>
<!-- Node3 -->
<g id="node5" class="node"><title>Node3</title>
<a xlink:href="_event_8cpp.html" target="_top" xlink:title="Event.cpp">
<polygon fill="none" stroke="black" points="71.5,-1 71.5,-21 130.5,-21 130.5,-1 71.5,-1"/>
<text text-anchor="middle" x="101" y="-8" font-family="FreeSans" font-size="10.00">Event.cpp</text>
</a>
</g>
<!-- Node1&#45;&gt;Node3 -->
<g id="edge4" class="edge"><title>Node1&#45;&gt;Node3</title>
<path fill="none" stroke="midnightblue" d="M191.822,-54.5345C170.167,-44.1545 141.522,-30.424 122.241,-21.1817"/>
<polygon fill="midnightblue" stroke="midnightblue" points="190.393,-57.7308 200.923,-58.8972 193.419,-51.4185 190.393,-57.7308"/>
</g>
<!-- Node4 -->
<g id="node7" class="node"><title>Node4</title>
<a xlink:href="_method_8cpp.html" target="_top" xlink:title="Method.cpp">
<polygon fill="none" stroke="black" points="147.5,-1 147.5,-21 214.5,-21 214.5,-1 147.5,-1"/>
<text text-anchor="middle" x="181" y="-8" font-family="FreeSans" font-size="10.00">Method.cpp</text>
</a>
</g>
<!-- Node1&#45;&gt;Node4 -->
<g id="edge6" class="edge"><title>Node1&#45;&gt;Node4</title>
<path fill="none" stroke="midnightblue" d="M209.054,-50.6856C202.219,-41.0169 194.082,-29.5059 188.336,-21.3776"/>
<polygon fill="midnightblue" stroke="midnightblue" points="206.228,-52.7517 214.858,-58.8972 211.944,-48.711 206.228,-52.7517"/>
</g>
<!-- Node5 -->
<g id="node9" class="node"><title>Node5</title>
<a xlink:href="_config_8cpp.html" target="_top" xlink:title="Config.cpp">
<polygon fill="none" stroke="black" points="232,-1 232,-21 294,-21 294,-1 232,-1"/>
<text text-anchor="middle" x="263" y="-8" font-family="FreeSans" font-size="10.00">Config.cpp</text>
</a>
</g>
<!-- Node1&#45;&gt;Node5 -->
<g id="edge8" class="edge"><title>Node1&#45;&gt;Node5</title>
<path fill="none" stroke="midnightblue" d="M234.946,-50.6856C241.781,-41.0169 249.918,-29.5059 255.664,-21.3776"/>
<polygon fill="midnightblue" stroke="midnightblue" points="232.056,-48.711 229.142,-58.8972 237.772,-52.7517 232.056,-48.711"/>
</g>
<!-- Node6 -->
<g id="node11" class="node"><title>Node6</title>
<a xlink:href="_node_factory_8cpp.html" target="_top" xlink:title="NodeFactory.cpp">
<polygon fill="none" stroke="black" points="312,-1 312,-21 402,-21 402,-1 312,-1"/>
<text text-anchor="middle" x="357" y="-8" font-family="FreeSans" font-size="10.00">NodeFactory.cpp</text>
</a>
</g>
<!-- Node1&#45;&gt;Node6 -->
<g id="edge10" class="edge"><title>Node1&#45;&gt;Node6</title>
<path fill="none" stroke="midnightblue" d="M255.021,-54.813C279.256,-44.4012 311.596,-30.5069 333.301,-21.1817"/>
<polygon fill="midnightblue" stroke="midnightblue" points="253.322,-51.7339 245.515,-58.8972 256.085,-58.1655 253.322,-51.7339"/>
</g>
<!-- Node7 -->
<g id="node13" class="node"><title>Node7</title>
<a xlink:href="_seq_node_8cpp.html" target="_top" xlink:title="SeqNode.cpp">
<polygon fill="none" stroke="black" points="419.5,-1 419.5,-21 494.5,-21 494.5,-1 419.5,-1"/>
<text text-anchor="middle" x="457" y="-8" font-family="FreeSans" font-size="10.00">SeqNode.cpp</text>
</a>
</g>
<!-- Node1&#45;&gt;Node7 -->
<g id="edge12" class="edge"><title>Node1&#45;&gt;Node7</title>
<path fill="none" stroke="midnightblue" d="M264.514,-58.5071C308.603,-47.6257 376.885,-30.7732 419.162,-20.3388"/>
<polygon fill="midnightblue" stroke="midnightblue" points="263.546,-55.1411 254.676,-60.9353 265.223,-61.9371 263.546,-55.1411"/>
</g>
</g>
</svg>
