<?xml version="1.0" encoding="UTF-8" standalone="no"?>
<!DOCTYPE svg PUBLIC "-//W3C//DTD SVG 1.1//EN"
 "http://www.w3.org/Graphics/SVG/1.1/DTD/svg11.dtd">
<!-- Generated by graphviz version 2.26.3 (20100126.1600)
 -->
<!-- Title: SeqNode.cpp Pages: 1 -->
<svg width="256pt" height="204pt"
 viewBox="0.00 0.00 256.00 204.00" xmlns="http://www.w3.org/2000/svg" xmlns:xlink="http://www.w3.org/1999/xlink">
<g id="graph1" class="graph" transform="scale(1 1) rotate(0) translate(4 200)">
<title>SeqNode.cpp</title>
<!-- Node1 -->
<g id="node1" class="node"><title>Node1</title>
<polygon fill="#bfbfbf" stroke="black" points="88.5,-175 88.5,-195 163.5,-195 163.5,-175 88.5,-175"/>
<text text-anchor="middle" x="126" y="-182" font-family="FreeSans" font-size="10.00">SeqNode.cpp</text>
</g>
<!-- Node2 -->
<g id="node3" class="node"><title>Node2</title>
<polygon fill="none" stroke="#bfbfbf" points="0,-117 0,-137 68,-137 68,-117 0,-117"/>
<text text-anchor="middle" x="34" y="-124" font-family="FreeSans" font-size="10.00">../../StdAfx.h</text>
</g>
<!-- Node1&#45;&gt;Node2 -->
<g id="edge2" class="edge"><title>Node1&#45;&gt;Node2</title>
<path fill="none" stroke="midnightblue" d="M109.975,-174.897C95.8141,-165.97 74.9409,-152.811 58.6545,-142.543"/>
<polygon fill="midnightblue" stroke="midnightblue" points="60.4761,-139.554 50.1502,-137.182 56.7429,-145.475 60.4761,-139.554"/>
</g>
<!-- Node3 -->
<g id="node5" class="node"><title>Node3</title>
<a xlink:href="_node_factory_8h.html" target="_top" xlink:title="NodeFactory.h">
<polygon fill="none" stroke="black" points="86,-117 86,-137 166,-137 166,-117 86,-117"/>
<text text-anchor="middle" x="126" y="-124" font-family="FreeSans" font-size="10.00">NodeFactory.h</text>
</a>
</g>
<!-- Node1&#45;&gt;Node3 -->
<g id="edge4" class="edge"><title>Node1&#45;&gt;Node3</title>
<path fill="none" stroke="midnightblue" d="M126,-174.897C126,-167.339 126,-156.748 126,-147.446"/>
<polygon fill="midnightblue" stroke="midnightblue" points="129.5,-147.378 126,-137.378 122.5,-147.378 129.5,-147.378"/>
</g>
<!-- Node7 -->
<g id="node13" class="node"><title>Node7</title>
<a xlink:href="_seq_node_8h.html" target="_top" xlink:title="SeqNode.h">
<polygon fill="none" stroke="black" points="183.5,-117 183.5,-137 248.5,-137 248.5,-117 183.5,-117"/>
<text text-anchor="middle" x="216" y="-124" font-family="FreeSans" font-size="10.00">SeqNode.h</text>
</a>
</g>
<!-- Node1&#45;&gt;Node7 -->
<g id="edge12" class="edge"><title>Node1&#45;&gt;Node7</title>
<path fill="none" stroke="midnightblue" d="M141.677,-174.897C155.401,-166.052 175.572,-153.054 191.438,-142.829"/>
<polygon fill="midnightblue" stroke="midnightblue" points="193.691,-145.541 200.201,-137.182 189.899,-139.657 193.691,-145.541"/>
</g>
<!-- Node4 -->
<g id="node7" class="node"><title>Node4</title>
<a xlink:href="_node_8h.html" target="_top" xlink:title="Node.h">
<polygon fill="none" stroke="black" points="115.5,-59 115.5,-79 162.5,-79 162.5,-59 115.5,-59"/>
<text text-anchor="middle" x="139" y="-66" font-family="FreeSans" font-size="10.00">Node.h</text>
</a>
</g>
<!-- Node3&#45;&gt;Node4 -->
<g id="edge6" class="edge"><title>Node3&#45;&gt;Node4</title>
<path fill="none" stroke="midnightblue" d="M128.264,-116.897C129.977,-109.257 132.384,-98.517 134.485,-89.1429"/>
<polygon fill="midnightblue" stroke="midnightblue" points="137.902,-89.901 136.674,-79.3776 131.072,-88.37 137.902,-89.901"/>
</g>
<!-- Node5 -->
<g id="node9" class="node"><title>Node5</title>
<polygon fill="none" stroke="#bfbfbf" points="87,-1 87,-21 131,-21 131,-1 87,-1"/>
<text text-anchor="middle" x="109" y="-8" font-family="FreeSans" font-size="10.00">yaml.h</text>
</g>
<!-- Node4&#45;&gt;Node5 -->
<g id="edge8" class="edge"><title>Node4&#45;&gt;Node5</title>
<path fill="none" stroke="midnightblue" d="M133.774,-58.8972C129.738,-51.0926 124.028,-40.0536 119.107,-30.5401"/>
<polygon fill="midnightblue" stroke="midnightblue" points="122.071,-28.6518 114.368,-21.3776 115.853,-31.8678 122.071,-28.6518"/>
</g>
<!-- Node6 -->
<g id="node11" class="node"><title>Node6</title>
<polygon fill="none" stroke="#bfbfbf" points="148.5,-1 148.5,-21 189.5,-21 189.5,-1 148.5,-1"/>
<text text-anchor="middle" x="169" y="-8" font-family="FreeSans" font-size="10.00">string</text>
</g>
<!-- Node4&#45;&gt;Node6 -->
<g id="edge10" class="edge"><title>Node4&#45;&gt;Node6</title>
<path fill="none" stroke="midnightblue" d="M144.226,-58.8972C148.262,-51.0926 153.972,-40.0536 158.893,-30.5401"/>
<polygon fill="midnightblue" stroke="midnightblue" points="162.147,-31.8678 163.632,-21.3776 155.929,-28.6518 162.147,-31.8678"/>
</g>
<!-- Node7&#45;&gt;Node4 -->
<g id="edge14" class="edge"><title>Node7&#45;&gt;Node4</title>
<path fill="none" stroke="midnightblue" d="M202.588,-116.897C191.065,-108.218 174.232,-95.5384 160.779,-85.4053"/>
<polygon fill="midnightblue" stroke="midnightblue" points="162.61,-82.4026 152.517,-79.1817 158.399,-87.9939 162.61,-82.4026"/>
</g>
<!-- Node8 -->
<g id="node16" class="node"><title>Node8</title>
<polygon fill="none" stroke="#bfbfbf" points="194,-59 194,-79 238,-79 238,-59 194,-59"/>
<text text-anchor="middle" x="216" y="-66" font-family="FreeSans" font-size="10.00">vector</text>
</g>
<!-- Node7&#45;&gt;Node8 -->
<g id="edge16" class="edge"><title>Node7&#45;&gt;Node8</title>
<path fill="none" stroke="midnightblue" d="M216,-116.897C216,-109.339 216,-98.7476 216,-89.4458"/>
<polygon fill="midnightblue" stroke="midnightblue" points="219.5,-89.3776 216,-79.3776 212.5,-89.3776 219.5,-89.3776"/>
</g>
</g>
</svg>
