<?xml version="1.0" encoding="UTF-8" standalone="no"?>
<!DOCTYPE svg PUBLIC "-//W3C//DTD SVG 1.1//EN"
 "http://www.w3.org/Graphics/SVG/1.1/DTD/svg11.dtd">
<!-- Generated by graphviz version 2.26.3 (20100126.1600)
 -->
<!-- Title: SessionPeer.h Pages: 1 -->
<svg width="720pt" height="88pt"
 viewBox="0.00 0.00 720.00 88.00" xmlns="http://www.w3.org/2000/svg" xmlns:xlink="http://www.w3.org/1999/xlink">
<g id="graph1" class="graph" transform="scale(1 1) rotate(0) translate(4 84)">
<title>SessionPeer.h</title>
<!-- Node1 -->
<g id="node1" class="node"><title>Node1</title>
<polygon fill="#bfbfbf" stroke="black" points="304,-59 304,-79 384,-79 384,-59 304,-59"/>
<text text-anchor="middle" x="344" y="-66" font-family="FreeSans" font-size="10.00">SessionPeer.h</text>
</g>
<!-- Node2 -->
<g id="node3" class="node"><title>Node2</title>
<a xlink:href="_client_app_8cpp.html" target="_top" xlink:title="ClientApp.cpp">
<polygon fill="none" stroke="black" points="-0.5,-1 -0.5,-21 76.5,-21 76.5,-1 -0.5,-1"/>
<text text-anchor="middle" x="38" y="-8" font-family="FreeSans" font-size="10.00">ClientApp.cpp</text>
</a>
</g>
<!-- Node1&#45;&gt;Node2 -->
<g id="edge2" class="edge"><title>Node1&#45;&gt;Node2</title>
<path fill="none" stroke="midnightblue" d="M293.931,-60.6842C241.657,-51.8219 157.362,-37.0236 85,-22 82.2923,-21.4378 79.5016,-20.8378 76.6945,-20.219"/>
<polygon fill="midnightblue" stroke="midnightblue" points="293.503,-64.1613 303.946,-62.3758 294.669,-57.2591 293.503,-64.1613"/>
</g>
<!-- Node3 -->
<g id="node5" class="node"><title>Node3</title>
<a xlink:href="_game_scene_8cpp.html" target="_top" xlink:title="GameScene.cpp">
<polygon fill="none" stroke="black" points="93.5,-1 93.5,-21 182.5,-21 182.5,-1 93.5,-1"/>
<text text-anchor="middle" x="138" y="-8" font-family="FreeSans" font-size="10.00">GameScene.cpp</text>
</a>
</g>
<!-- Node1&#45;&gt;Node3 -->
<g id="edge4" class="edge"><title>Node1&#45;&gt;Node3</title>
<path fill="none" stroke="midnightblue" d="M298.436,-56.1712C260.897,-45.602 208.396,-30.8202 173.816,-21.0842"/>
<polygon fill="midnightblue" stroke="midnightblue" points="297.543,-59.5559 308.118,-58.8972 299.44,-52.8179 297.543,-59.5559"/>
</g>
<!-- Node4 -->
<g id="node7" class="node"><title>Node4</title>
<a xlink:href="_rulebook_8cpp.html" target="_top" xlink:title="Rulebook.cpp">
<polygon fill="none" stroke="black" points="199.5,-1 199.5,-21 274.5,-21 274.5,-1 199.5,-1"/>
<text text-anchor="middle" x="237" y="-8" font-family="FreeSans" font-size="10.00">Rulebook.cpp</text>
</a>
</g>
<!-- Node1&#45;&gt;Node4 -->
<g id="edge6" class="edge"><title>Node1&#45;&gt;Node4</title>
<path fill="none" stroke="midnightblue" d="M316.538,-54.1138C297.484,-43.7859 272.605,-30.2996 255.783,-21.1817"/>
<polygon fill="midnightblue" stroke="midnightblue" points="314.903,-57.2087 325.362,-58.8972 318.238,-51.0546 314.903,-57.2087"/>
</g>
<!-- Node5 -->
<g id="node9" class="node"><title>Node5</title>
<a xlink:href="_client_script_core_8cpp.html" target="_top" xlink:title="ClientScriptCore.cpp">
<polygon fill="none" stroke="black" points="291.5,-1 291.5,-21 396.5,-21 396.5,-1 291.5,-1"/>
<text text-anchor="middle" x="344" y="-8" font-family="FreeSans" font-size="10.00">ClientScriptCore.cpp</text>
</a>
</g>
<!-- Node1&#45;&gt;Node5 -->
<g id="edge8" class="edge"><title>Node1&#45;&gt;Node5</title>
<path fill="none" stroke="midnightblue" d="M344,-48.8902C344,-39.6201 344,-29.0083 344,-21.3776"/>
<polygon fill="midnightblue" stroke="midnightblue" points="340.5,-48.8971 344,-58.8972 347.5,-48.8972 340.5,-48.8971"/>
</g>
<!-- Node6 -->
<g id="node11" class="node"><title>Node6</title>
<a xlink:href="_game_peer_8cpp.html" target="_top" xlink:title="GamePeer.cpp">
<polygon fill="none" stroke="black" points="413.5,-1 413.5,-21 494.5,-21 494.5,-1 413.5,-1"/>
<text text-anchor="middle" x="454" y="-8" font-family="FreeSans" font-size="10.00">GamePeer.cpp</text>
</a>
</g>
<!-- Node1&#45;&gt;Node6 -->
<g id="edge10" class="edge"><title>Node1&#45;&gt;Node6</title>
<path fill="none" stroke="midnightblue" d="M372.232,-54.1138C391.82,-43.7859 417.397,-30.2996 434.69,-21.1817"/>
<polygon fill="midnightblue" stroke="midnightblue" points="370.374,-51.137 363.161,-58.8972 373.639,-57.329 370.374,-51.137"/>
</g>
<!-- Node7 -->
<g id="node13" class="node"><title>Node7</title>
<a xlink:href="_meta_session_8cpp.html" target="_top" xlink:title="MetaSession.cpp">
<polygon fill="none" stroke="black" points="512,-1 512,-21 604,-21 604,-1 512,-1"/>
<text text-anchor="middle" x="558" y="-8" font-family="FreeSans" font-size="10.00">MetaSession.cpp</text>
</a>
</g>
<!-- Node1&#45;&gt;Node7 -->
<g id="edge12" class="edge"><title>Node1&#45;&gt;Node7</title>
<path fill="none" stroke="midnightblue" d="M391.334,-56.1712C430.331,-45.602 484.87,-30.8202 520.793,-21.0842"/>
<polygon fill="midnightblue" stroke="midnightblue" points="390.012,-52.9031 381.276,-58.8972 391.843,-59.6593 390.012,-52.9031"/>
</g>
<!-- Node8 -->
<g id="node15" class="node"><title>Node8</title>
<a xlink:href="_session_peer_8cpp.html" target="_top" xlink:title="SessionPeer.cpp">
<polygon fill="none" stroke="black" points="622,-1 622,-21 712,-21 712,-1 622,-1"/>
<text text-anchor="middle" x="667" y="-8" font-family="FreeSans" font-size="10.00">SessionPeer.cpp</text>
</a>
</g>
<!-- Node1&#45;&gt;Node8 -->
<g id="edge14" class="edge"><title>Node1&#45;&gt;Node8</title>
<path fill="none" stroke="midnightblue" d="M394.185,-60.6631C448.273,-51.5769 536.854,-36.4049 613,-22 615.914,-21.4487 618.915,-20.8696 621.937,-20.2776"/>
<polygon fill="midnightblue" stroke="midnightblue" points="393.453,-57.2368 384.169,-62.3422 394.61,-64.1405 393.453,-57.2368"/>
</g>
</g>
</svg>
