<?xml version="1.0" encoding="UTF-8" standalone="no"?>
<!DOCTYPE svg PUBLIC "-//W3C//DTD SVG 1.1//EN"
 "http://www.w3.org/Graphics/SVG/1.1/DTD/svg11.dtd">
<!-- Generated by graphviz version 2.26.3 (20100126.1600)
 -->
<!-- Title: SessionPeer.h Pages: 1 -->
<!--zoomable 88 -->
<svg id="main" version="1.1" xmlns="http://www.w3.org/2000/svg" xmlns:xlink="http://www.w3.org/1999/xlink" xml:space="preserve" onload="init(evt)">
        <defs>
                <circle id="rim" cx="0" cy="0" r="7"/>
                <circle id="rim2" cx="0" cy="0" r="3.5"/>
                <g id="zoomPlus">
                        <use xlink:href="#rim" fill="#404040">
                                <set attributeName="fill" to="#808080" begin="zoomplus.mouseover" end="zoomplus.mouseout"/>
                        </use>
                        <path d="M-4,0h8M0,-4v8" fill="none" stroke="white" stroke-width="1.5" pointer-events="none"/>
                </g>
                <g id="zoomMin">
                        <use xlink:href="#rim" fill="#404040">
                                <set attributeName="fill" to="#808080" begin="zoomminus.mouseover" end="zoomminus.mouseout"/>
                        </use>
                        <path d="M-4,0h8" fill="none" stroke="white" stroke-width="1.5" pointer-events="none"/>
                </g>
                <g id="dirArrow">
                        <path fill="none" stroke="white" stroke-width="1.5" d="M0,-3.0v7 M-2.5,-0.5L0,-3.0L2.5,-0.5"/>
                </g>
               <g id="resetDef">
                       <use xlink:href="#rim2" fill="#404040">
                               <set attributeName="fill" to="#808080" begin="reset.mouseover" end="reset.mouseout"/>
                       </use>
               </g>
        </defs>

<script type="text/javascript">
var viewWidth = 714;
var viewHeight = 88;
var sectionId = 'dynsection-1';
</script>
<script xlink:href="svgpan.js"/>
<svg id="graph" class="graph">
<g id="viewport">
<title>SessionPeer.h</title>
<!-- Node1 -->
<g id="node1" class="node"><title>Node1</title>
<polygon fill="#bfbfbf" stroke="black" points="304,-59 304,-79 384,-79 384,-59 304,-59"/>
<text text-anchor="middle" x="344" y="-66" font-family="FreeSans" font-size="10.00">SessionPeer.h</text>
</g>
<!-- Node2 -->
<g id="node3" class="node"><title>Node2</title>
<a xlink:href="_client_app_8cpp.html" target="_top" xlink:title="ClientApp.cpp">
<polygon fill="none" stroke="black" points="-0.5,-1 -0.5,-21 76.5,-21 76.5,-1 -0.5,-1"/>
<text text-anchor="middle" x="38" y="-8" font-family="FreeSans" font-size="10.00">ClientApp.cpp</text>
</a>
</g>
<!-- Node1&#45;&gt;Node2 -->
<g id="edge2" class="edge"><title>Node1&#45;&gt;Node2</title>
<path fill="none" stroke="midnightblue" d="M293.931,-60.6842C241.657,-51.8219 157.362,-37.0236 85,-22 82.2923,-21.4378 79.5016,-20.8378 76.6945,-20.219"/>
<polygon fill="midnightblue" stroke="midnightblue" points="293.503,-64.1613 303.946,-62.3758 294.669,-57.2591 293.503,-64.1613"/>
</g>
<!-- Node3 -->
<g id="node5" class="node"><title>Node3</title>
<a xlink:href="_game_scene_8cpp.html" target="_top" xlink:title="GameScene.cpp">
<polygon fill="none" stroke="black" points="93.5,-1 93.5,-21 182.5,-21 182.5,-1 93.5,-1"/>
<text text-anchor="middle" x="138" y="-8" font-family="FreeSans" font-size="10.00">GameScene.cpp</text>
</a>
</g>
<!-- Node1&#45;&gt;Node3 -->
<g id="edge4" class="edge"><title>Node1&#45;&gt;Node3</title>
<path fill="none" stroke="midnightblue" d="M298.436,-56.1712C260.897,-45.602 208.396,-30.8202 173.816,-21.0842"/>
<polygon fill="midnightblue" stroke="midnightblue" points="297.543,-59.5559 308.118,-58.8972 299.44,-52.8179 297.543,-59.5559"/>
</g>
<!-- Node4 -->
<g id="node7" class="node"><title>Node4</title>
<a xlink:href="_rulebook_8cpp.html" target="_top" xlink:title="Rulebook.cpp">
<polygon fill="none" stroke="black" points="199.5,-1 199.5,-21 274.5,-21 274.5,-1 199.5,-1"/>
<text text-anchor="middle" x="237" y="-8" font-family="FreeSans" font-size="10.00">Rulebook.cpp</text>
</a>
</g>
<!-- Node1&#45;&gt;Node4 -->
<g id="edge6" class="edge"><title>Node1&#45;&gt;Node4</title>
<path fill="none" stroke="midnightblue" d="M316.538,-54.1138C297.484,-43.7859 272.605,-30.2996 255.783,-21.1817"/>
<polygon fill="midnightblue" stroke="midnightblue" points="314.903,-57.2087 325.362,-58.8972 318.238,-51.0546 314.903,-57.2087"/>
</g>
<!-- Node5 -->
<g id="node9" class="node"><title>Node5</title>
<a xlink:href="_client_script_core_8cpp.html" target="_top" xlink:title="ClientScriptCore.cpp">
<polygon fill="none" stroke="black" points="291.5,-1 291.5,-21 396.5,-21 396.5,-1 291.5,-1"/>
<text text-anchor="middle" x="344" y="-8" font-family="FreeSans" font-size="10.00">ClientScriptCore.cpp</text>
</a>
</g>
<!-- Node1&#45;&gt;Node5 -->
<g id="edge8" class="edge"><title>Node1&#45;&gt;Node5</title>
<path fill="none" stroke="midnightblue" d="M344,-48.8902C344,-39.6201 344,-29.0083 344,-21.3776"/>
<polygon fill="midnightblue" stroke="midnightblue" points="340.5,-48.8971 344,-58.8972 347.5,-48.8972 340.5,-48.8971"/>
</g>
<!-- Node6 -->
<g id="node11" class="node"><title>Node6</title>
<a xlink:href="_game_peer_8cpp.html" target="_top" xlink:title="GamePeer.cpp">
<polygon fill="none" stroke="black" points="413.5,-1 413.5,-21 494.5,-21 494.5,-1 413.5,-1"/>
<text text-anchor="middle" x="454" y="-8" font-family="FreeSans" font-size="10.00">GamePeer.cpp</text>
</a>
</g>
<!-- Node1&#45;&gt;Node6 -->
<g id="edge10" class="edge"><title>Node1&#45;&gt;Node6</title>
<path fill="none" stroke="midnightblue" d="M372.232,-54.1138C391.82,-43.7859 417.397,-30.2996 434.69,-21.1817"/>
<polygon fill="midnightblue" stroke="midnightblue" points="370.374,-51.137 363.161,-58.8972 373.639,-57.329 370.374,-51.137"/>
</g>
<!-- Node7 -->
<g id="node13" class="node"><title>Node7</title>
<a xlink:href="_session_peer_8cpp.html" target="_top" xlink:title="SessionPeer.cpp">
<polygon fill="none" stroke="black" points="512,-1 512,-21 602,-21 602,-1 512,-1"/>
<text text-anchor="middle" x="557" y="-8" font-family="FreeSans" font-size="10.00">SessionPeer.cpp</text>
</a>
</g>
<!-- Node1&#45;&gt;Node7 -->
<g id="edge12" class="edge"><title>Node1&#45;&gt;Node7</title>
<path fill="none" stroke="midnightblue" d="M391.113,-56.1712C429.927,-45.602 484.212,-30.8202 519.967,-21.0842"/>
<polygon fill="midnightblue" stroke="midnightblue" points="389.831,-52.8927 381.102,-58.8972 391.67,-59.6468 389.831,-52.8927"/>
</g>
<!-- Node8 -->
<g id="node15" class="node"><title>Node8</title>
<a xlink:href="_sys_console_8cpp.html" target="_top" xlink:title="SysConsole.cpp">
<polygon fill="none" stroke="black" points="620,-1 620,-21 706,-21 706,-1 620,-1"/>
<text text-anchor="middle" x="663" y="-8" font-family="FreeSans" font-size="10.00">SysConsole.cpp</text>
</a>
</g>
<!-- Node1&#45;&gt;Node8 -->
<g id="edge14" class="edge"><title>Node1&#45;&gt;Node8</title>
<path fill="none" stroke="midnightblue" d="M394.293,-60.6746C448.037,-51.6548 535.684,-36.5907 611,-22 613.899,-21.4384 616.886,-20.8453 619.893,-20.2374"/>
<polygon fill="midnightblue" stroke="midnightblue" points="393.622,-57.2382 384.337,-62.3414 394.778,-64.1421 393.622,-57.2382"/>
</g>
</g>
</svg>
        <g id="navigator" transform="translate(0 0)" fill="#404254">
                <rect fill="#f2f5e9" fill-opacity="0.5" stroke="#606060" stroke-width=".5" x="0" y="0" width="60" height="60"/>
                <use id="zoomplus" xlink:href="#zoomPlus" x="17" y="9" onmousedown="handleZoom(evt,'in')"/>
                <use id="zoomminus" xlink:href="#zoomMin" x="42" y="9" onmousedown="handleZoom(evt,'out')"/>
                <use id="reset" xlink:href="#resetDef" x="30" y="36" onmousedown="handleReset()"/>
                <g id="arrowUp" xlink:href="#dirArrow" transform="translate(30 24)" onmousedown="handlePan(0,-1)">
                  <use xlink:href="#rim" fill="#404040">
                        <set attributeName="fill" to="#808080" begin="arrowUp.mouseover" end="arrowUp.mouseout"/>
                  </use>
                  <path fill="none" stroke="white" stroke-width="1.5" d="M0,-3.0v7 M-2.5,-0.5L0,-3.0L2.5,-0.5"/>
                </g>
                <g id="arrowRight" xlink:href="#dirArrow" transform="rotate(90) translate(36 -43)" onmousedown="handlePan(1,0)">
                  <use xlink:href="#rim" fill="#404040">
                        <set attributeName="fill" to="#808080" begin="arrowRight.mouseover" end="arrowRight.mouseout"/>
                  </use>
                  <path fill="none" stroke="white" stroke-width="1.5" d="M0,-3.0v7 M-2.5,-0.5L0,-3.0L2.5,-0.5"/>
                </g>
                <g id="arrowDown" xlink:href="#dirArrow" transform="rotate(180) translate(-30 -48)" onmousedown="handlePan(0,1)">
                  <use xlink:href="#rim" fill="#404040">
                        <set attributeName="fill" to="#808080" begin="arrowDown.mouseover" end="arrowDown.mouseout"/>
                  </use>
                  <path fill="none" stroke="white" stroke-width="1.5" d="M0,-3.0v7 M-2.5,-0.5L0,-3.0L2.5,-0.5"/>
                </g>
                <g id="arrowLeft" xlink:href="#dirArrow" transform="rotate(270) translate(-36 17)" onmousedown="handlePan(-1,0)">
                  <use xlink:href="#rim" fill="#404040">
                        <set attributeName="fill" to="#808080" begin="arrowLeft.mouseover" end="arrowLeft.mouseout"/>
                  </use>
                  <path fill="none" stroke="white" stroke-width="1.5" d="M0,-3.0v7 M-2.5,-0.5L0,-3.0L2.5,-0.5"/>
                </g>
        </g>
        <svg viewBox="0 0 15 15" width="100%" height="30px" preserveAspectRatio="xMaxYMin meet">
         <g id="arrow_out" transform="scale(0.3 0.3)">
          <a xlink:href="_session_peer_8h__dep__incl_org.svg" target="_base">
           <rect id="button" ry="5" rx="5" y="6" x="6" height="38" width="38"
                fill="#f2f5e9" fill-opacity="0.5" stroke="#606060" stroke-width="1.0"/>
           <path id="arrow"
             d="M 11.500037,31.436501 C 11.940474,20.09759 22.043105,11.32322 32.158766,21.979434 L 37.068811,17.246167 C 37.068811,17.246167 37.088388,32 37.088388,32 L 22.160133,31.978069 C 22.160133,31.978069 26.997745,27.140456 26.997745,27.140456 C 18.528582,18.264221 13.291696,25.230495 11.500037,31.436501 z"
             style="fill:#404040;"/>
          </a>
         </g>
        </svg>
</svg>
