<?xml version="1.0" encoding="UTF-8" standalone="no"?>
<!DOCTYPE svg PUBLIC "-//W3C//DTD SVG 1.1//EN"
 "http://www.w3.org/Graphics/SVG/1.1/DTD/svg11.dtd">
<!-- Generated by graphviz version 2.26.3 (20100126.1600)
 -->
<!-- Title: SessionPeer.h Pages: 1 -->
<svg width="610pt" height="88pt"
 viewBox="0.00 0.00 610.00 88.00" xmlns="http://www.w3.org/2000/svg" xmlns:xlink="http://www.w3.org/1999/xlink">
<g id="graph1" class="graph" transform="scale(1 1) rotate(0) translate(4 84)">
<title>SessionPeer.h</title>
<!-- Node1 -->
<g id="node1" class="node"><title>Node1</title>
<polygon fill="#bfbfbf" stroke="black" points="250,-59 250,-79 330,-79 330,-59 250,-59"/>
<text text-anchor="middle" x="290" y="-66" font-family="FreeSans" font-size="10.00">SessionPeer.h</text>
</g>
<!-- Node2 -->
<g id="node3" class="node"><title>Node2</title>
<a xlink:href="_client_app_8cpp.html" target="_top" xlink:title="ClientApp.cpp">
<polygon fill="none" stroke="black" points="-0.5,-1 -0.5,-21 76.5,-21 76.5,-1 -0.5,-1"/>
<text text-anchor="middle" x="38" y="-8" font-family="FreeSans" font-size="10.00">ClientApp.cpp</text>
</a>
</g>
<!-- Node1&#45;&gt;Node2 -->
<g id="edge2" class="edge"><title>Node1&#45;&gt;Node2</title>
<path fill="none" stroke="midnightblue" d="M240.056,-57.6158C198.537,-48.1362 137.908,-34.2564 85,-22 82.3059,-21.3759 79.5253,-20.7299 76.7254,-20.078"/>
<polygon fill="midnightblue" stroke="midnightblue" points="239.393,-61.0544 249.921,-59.8675 240.95,-54.2299 239.393,-61.0544"/>
</g>
<!-- Node3 -->
<g id="node5" class="node"><title>Node3</title>
<a xlink:href="_game_scene_8cpp.html" target="_top" xlink:title="GameScene.cpp">
<polygon fill="none" stroke="black" points="93.5,-1 93.5,-21 182.5,-21 182.5,-1 93.5,-1"/>
<text text-anchor="middle" x="138" y="-8" font-family="FreeSans" font-size="10.00">GameScene.cpp</text>
</a>
</g>
<!-- Node1&#45;&gt;Node3 -->
<g id="edge4" class="edge"><title>Node1&#45;&gt;Node3</title>
<path fill="none" stroke="midnightblue" d="M253.876,-55.2158C226.385,-44.7258 189.183,-30.5302 164.428,-21.0842"/>
<polygon fill="midnightblue" stroke="midnightblue" points="252.933,-58.6021 263.524,-58.8972 255.428,-52.062 252.933,-58.6021"/>
</g>
<!-- Node4 -->
<g id="node7" class="node"><title>Node4</title>
<a xlink:href="_rulebook_8cpp.html" target="_top" xlink:title="Rulebook.cpp">
<polygon fill="none" stroke="black" points="199.5,-1 199.5,-21 274.5,-21 274.5,-1 199.5,-1"/>
<text text-anchor="middle" x="237" y="-8" font-family="FreeSans" font-size="10.00">Rulebook.cpp</text>
</a>
</g>
<!-- Node1&#45;&gt;Node4 -->
<g id="edge6" class="edge"><title>Node1&#45;&gt;Node4</title>
<path fill="none" stroke="midnightblue" d="M273.803,-51.2752C264.86,-41.4882 254.062,-29.6718 246.483,-21.3776"/>
<polygon fill="midnightblue" stroke="midnightblue" points="271.439,-53.8761 280.768,-58.8972 276.606,-49.154 271.439,-53.8761"/>
</g>
<!-- Node5 -->
<g id="node9" class="node"><title>Node5</title>
<a xlink:href="_client_script_core_8cpp.html" target="_top" xlink:title="ClientScriptCore.cpp">
<polygon fill="none" stroke="black" points="291.5,-1 291.5,-21 396.5,-21 396.5,-1 291.5,-1"/>
<text text-anchor="middle" x="344" y="-8" font-family="FreeSans" font-size="10.00">ClientScriptCore.cpp</text>
</a>
</g>
<!-- Node1&#45;&gt;Node5 -->
<g id="edge8" class="edge"><title>Node1&#45;&gt;Node5</title>
<path fill="none" stroke="midnightblue" d="M306.23,-51.5682C315.394,-41.7249 326.539,-29.7548 334.338,-21.3776"/>
<polygon fill="midnightblue" stroke="midnightblue" points="303.659,-49.1932 299.406,-58.8972 308.782,-53.9632 303.659,-49.1932"/>
</g>
<!-- Node6 -->
<g id="node11" class="node"><title>Node6</title>
<a xlink:href="_game_peer_8cpp.html" target="_top" xlink:title="GamePeer.cpp">
<polygon fill="none" stroke="black" points="413.5,-1 413.5,-21 494.5,-21 494.5,-1 413.5,-1"/>
<text text-anchor="middle" x="454" y="-8" font-family="FreeSans" font-size="10.00">GamePeer.cpp</text>
</a>
</g>
<!-- Node1&#45;&gt;Node6 -->
<g id="edge10" class="edge"><title>Node1&#45;&gt;Node6</title>
<path fill="none" stroke="midnightblue" d="M328.198,-55.491C357.932,-44.9752 398.542,-30.6131 425.486,-21.0842"/>
<polygon fill="midnightblue" stroke="midnightblue" points="326.827,-52.2632 318.567,-58.8972 329.161,-58.8626 326.827,-52.2632"/>
</g>
<!-- Node7 -->
<g id="node13" class="node"><title>Node7</title>
<a xlink:href="_session_peer_8cpp.html" target="_top" xlink:title="SessionPeer.cpp">
<polygon fill="none" stroke="black" points="512,-1 512,-21 602,-21 602,-1 512,-1"/>
<text text-anchor="middle" x="557" y="-8" font-family="FreeSans" font-size="10.00">SessionPeer.cpp</text>
</a>
</g>
<!-- Node1&#45;&gt;Node7 -->
<g id="edge12" class="edge"><title>Node1&#45;&gt;Node7</title>
<path fill="none" stroke="midnightblue" d="M340.095,-58.118C389.507,-47.3843 464.351,-31.126 511.94,-20.7883"/>
<polygon fill="midnightblue" stroke="midnightblue" points="339.291,-54.7109 330.262,-60.254 340.777,-61.5514 339.291,-54.7109"/>
</g>
</g>
</svg>
