<?xml version="1.0" encoding="UTF-8" standalone="no"?>
<!DOCTYPE svg PUBLIC "-//W3C//DTD SVG 1.1//EN"
 "http://www.w3.org/Graphics/SVG/1.1/DTD/svg11.dtd">
<!-- Generated by graphviz version 2.26.3 (20100126.1600)
 -->
<!-- Title: SettingsMenuScene.cpp Pages: 1 -->
<!--zoomable 820 -->
<svg id="main" version="1.1" xmlns="http://www.w3.org/2000/svg" xmlns:xlink="http://www.w3.org/1999/xlink" xml:space="preserve" onload="init(evt)">
<style type="text/css"><![CDATA[
.edge:hover path { stroke: red; }
.edge:hover polygon { stroke: red; fill: red; }
]]></style>
<script type="text/javascript"><![CDATA[
var edges = document.getElementsByTagName('g');
if (edges && edges.length) {
  for (var i=0;i<edges.length;i++) {
    if (edges[i].id.substr(0,4)=='edge') {
      edges[i].setAttribute('class','edge');
    }
  }
}
]]></script>
        <defs>
                <circle id="rim" cx="0" cy="0" r="7"/>
                <circle id="rim2" cx="0" cy="0" r="3.5"/>
                <g id="zoomPlus">
                        <use xlink:href="#rim" fill="#404040">
                                <set attributeName="fill" to="#808080" begin="zoomplus.mouseover" end="zoomplus.mouseout"/>
                        </use>
                        <path d="M-4,0h8M0,-4v8" fill="none" stroke="white" stroke-width="1.5" pointer-events="none"/>
                </g>
                <g id="zoomMin">
                        <use xlink:href="#rim" fill="#404040">
                                <set attributeName="fill" to="#808080" begin="zoomminus.mouseover" end="zoomminus.mouseout"/>
                        </use>
                        <path d="M-4,0h8" fill="none" stroke="white" stroke-width="1.5" pointer-events="none"/>
                </g>
                <g id="dirArrow">
                        <path fill="none" stroke="white" stroke-width="1.5" d="M0,-3.0v7 M-2.5,-0.5L0,-3.0L2.5,-0.5"/>
                </g>
               <g id="resetDef">
                       <use xlink:href="#rim2" fill="#404040">
                               <set attributeName="fill" to="#808080" begin="reset.mouseover" end="reset.mouseout"/>
                       </use>
               </g>
        </defs>

<script type="text/javascript">
var viewWidth = 954;
var viewHeight = 820;
var sectionId = 'dynsection-0';
</script>
<script xlink:href="svgpan.js"/>
<svg id="graph" class="graph">
<g id="viewport">
<title>SettingsMenuScene.cpp</title>
<!-- Node1 -->
<g id="node1" class="node"><title>Node1</title>
<polygon fill="#bfbfbf" stroke="black" points="499,-791 499,-811 621,-811 621,-791 499,-791"/>
<text text-anchor="middle" x="560" y="-798" font-family="FreeSans" font-size="10.00">SettingsMenuScene.cpp</text>
</g>
<!-- Node2 -->
<g id="node3" class="node"><title>Node2</title>
<a xlink:href="_button_8h.html" target="_top" xlink:title="../../engine/Display\l/Button.h">
<polygon fill="none" stroke="black" points="165.5,-523 165.5,-555 260.5,-555 260.5,-523 165.5,-523"/>
<text text-anchor="start" x="173.5" y="-542" font-family="FreeSans" font-size="10.00">../../engine/Display</text>
<text text-anchor="middle" x="213" y="-530" font-family="FreeSans" font-size="10.00">/Button.h</text>
</a>
</g>
<!-- Node1&#45;&gt;Node2 -->
<g id="edge2" class="edge"><title>Node1&#45;&gt;Node2</title>
<path fill="none" stroke="midnightblue" d="M505.87,-790.97C422.293,-774.328 267.811,-738.588 233,-696 202.716,-658.95 204.38,-599.652 208.539,-565.522"/>
<polygon fill="midnightblue" stroke="midnightblue" points="212.038,-565.77 209.94,-555.385 205.104,-564.812 212.038,-565.77"/>
</g>
<!-- Node20 -->
<g id="node47" class="node"><title>Node20</title>
<a xlink:href="_container_8h.html" target="_top" xlink:title="../../engine/Display\l/Container.h">
<polygon fill="none" stroke="black" points="241.5,-663 241.5,-695 336.5,-695 336.5,-663 241.5,-663"/>
<text text-anchor="start" x="249.5" y="-682" font-family="FreeSans" font-size="10.00">../../engine/Display</text>
<text text-anchor="middle" x="289" y="-670" font-family="FreeSans" font-size="10.00">/Container.h</text>
</a>
</g>
<!-- Node1&#45;&gt;Node20 -->
<g id="edge54" class="edge"><title>Node1&#45;&gt;Node20</title>
<path fill="none" stroke="midnightblue" d="M537.361,-790.808C492.775,-770.736 392.848,-725.751 334.241,-699.367"/>
<polygon fill="midnightblue" stroke="midnightblue" points="335.409,-696.054 324.853,-695.141 332.535,-702.437 335.409,-696.054"/>
</g>
<!-- Node22 -->
<g id="node52" class="node"><title>Node22</title>
<a xlink:href="_flex_grid_8h.html" target="_top" xlink:title="../../engine/Display\l/FlexGrid.h">
<polygon fill="none" stroke="black" points="447.5,-593 447.5,-625 542.5,-625 542.5,-593 447.5,-593"/>
<text text-anchor="start" x="455.5" y="-612" font-family="FreeSans" font-size="10.00">../../engine/Display</text>
<text text-anchor="middle" x="495" y="-600" font-family="FreeSans" font-size="10.00">/FlexGrid.h</text>
</a>
</g>
<!-- Node1&#45;&gt;Node22 -->
<g id="edge60" class="edge"><title>Node1&#45;&gt;Node22</title>
<path fill="none" stroke="midnightblue" d="M536.549,-790.987C521.686,-783.255 503.681,-770.989 495,-754 475.738,-716.301 481.783,-665.559 488.198,-635.178"/>
<polygon fill="midnightblue" stroke="midnightblue" points="491.632,-635.864 490.442,-625.337 484.807,-634.308 491.632,-635.864"/>
</g>
<!-- Node26 -->
<g id="node61" class="node"><title>Node26</title>
<a xlink:href="_audio_settings_scene_8h.html" target="_top" xlink:title="AudioSettingsScene.h">
<polygon fill="none" stroke="black" points="633.5,-733 633.5,-753 746.5,-753 746.5,-733 633.5,-733"/>
<text text-anchor="middle" x="690" y="-740" font-family="FreeSans" font-size="10.00">AudioSettingsScene.h</text>
</a>
</g>
<!-- Node1&#45;&gt;Node26 -->
<g id="edge70" class="edge"><title>Node1&#45;&gt;Node26</title>
<path fill="none" stroke="midnightblue" d="M582.644,-790.897C603.488,-781.598 634.623,-767.707 658.004,-757.275"/>
<polygon fill="midnightblue" stroke="midnightblue" points="659.473,-760.452 667.179,-753.182 656.621,-754.06 659.473,-760.452"/>
</g>
<!-- Node37 -->
<g id="node86" class="node"><title>Node37</title>
<a xlink:href="_game_director_8h.html" target="_top" xlink:title="GameDirector.h">
<polygon fill="none" stroke="black" points="862,-529 862,-549 946,-549 946,-529 862,-529"/>
<text text-anchor="middle" x="904" y="-536" font-family="FreeSans" font-size="10.00">GameDirector.h</text>
</a>
</g>
<!-- Node1&#45;&gt;Node37 -->
<g id="edge114" class="edge"><title>Node1&#45;&gt;Node37</title>
<path fill="none" stroke="midnightblue" d="M621.3,-796.212C710.429,-788.649 867.174,-772.844 885,-754 935.824,-700.275 919.575,-601.6 909.465,-559.216"/>
<polygon fill="midnightblue" stroke="midnightblue" points="912.797,-558.113 906.954,-549.274 906.01,-559.827 912.797,-558.113"/>
</g>
<!-- Node43 -->
<g id="node101" class="node"><title>Node43</title>
<a xlink:href="_video_settings_scene_8h.html" target="_top" xlink:title="VideoSettingsScene.h">
<polygon fill="none" stroke="black" points="503.5,-733 503.5,-753 616.5,-753 616.5,-733 503.5,-733"/>
<text text-anchor="middle" x="560" y="-740" font-family="FreeSans" font-size="10.00">VideoSettingsScene.h</text>
</a>
</g>
<!-- Node1&#45;&gt;Node43 -->
<g id="edge116" class="edge"><title>Node1&#45;&gt;Node43</title>
<path fill="none" stroke="midnightblue" d="M560,-790.897C560,-783.339 560,-772.748 560,-763.446"/>
<polygon fill="midnightblue" stroke="midnightblue" points="563.5,-763.378 560,-753.378 556.5,-763.378 563.5,-763.378"/>
</g>
<!-- Node46 -->
<g id="node111" class="node"><title>Node46</title>
<a xlink:href="_settings_menu_scene_8h.html" target="_top" xlink:title="SettingsMenuScene.h">
<polygon fill="none" stroke="black" points="764,-733 764,-753 876,-753 876,-733 764,-733"/>
<text text-anchor="middle" x="820" y="-740" font-family="FreeSans" font-size="10.00">SettingsMenuScene.h</text>
</a>
</g>
<!-- Node1&#45;&gt;Node46 -->
<g id="edge130" class="edge"><title>Node1&#45;&gt;Node46</title>
<path fill="none" stroke="midnightblue" d="M604.992,-790.963C649.498,-781.035 717.677,-765.826 765.292,-755.204"/>
<polygon fill="midnightblue" stroke="midnightblue" points="766.126,-758.604 775.124,-753.011 764.602,-751.772 766.126,-758.604"/>
</g>
<!-- Node3 -->
<g id="node5" class="node"><title>Node3</title>
<a xlink:href="_click_region_8h.html" target="_top" xlink:title="ClickRegion.h">
<polygon fill="none" stroke="black" points="175,-465 175,-485 251,-485 251,-465 175,-465"/>
<text text-anchor="middle" x="213" y="-472" font-family="FreeSans" font-size="10.00">ClickRegion.h</text>
</a>
</g>
<!-- Node2&#45;&gt;Node3 -->
<g id="edge4" class="edge"><title>Node2&#45;&gt;Node3</title>
<path fill="none" stroke="midnightblue" d="M213,-522.85C213,-514.518 213,-504.269 213,-495.396"/>
<polygon fill="midnightblue" stroke="midnightblue" points="216.5,-495.141 213,-485.141 209.5,-495.141 216.5,-495.141"/>
</g>
<!-- Node4 -->
<g id="node7" class="node"><title>Node4</title>
<a xlink:href="_ui_view_model_8h.html" target="_top" xlink:title="UiViewModel.h">
<polygon fill="none" stroke="black" points="172,-407 172,-427 254,-427 254,-407 172,-407"/>
<text text-anchor="middle" x="213" y="-414" font-family="FreeSans" font-size="10.00">UiViewModel.h</text>
</a>
</g>
<!-- Node3&#45;&gt;Node4 -->
<g id="edge6" class="edge"><title>Node3&#45;&gt;Node4</title>
<path fill="none" stroke="midnightblue" d="M213,-464.897C213,-457.339 213,-446.748 213,-437.446"/>
<polygon fill="midnightblue" stroke="midnightblue" points="216.5,-437.378 213,-427.378 209.5,-437.378 216.5,-437.378"/>
</g>
<!-- Node5 -->
<g id="node9" class="node"><title>Node5</title>
<a xlink:href="_nav_8h.html" target="_top" xlink:title="../Control/Nav.h">
<polygon fill="none" stroke="black" points="237.5,-349 237.5,-369 320.5,-369 320.5,-349 237.5,-349"/>
<text text-anchor="middle" x="279" y="-356" font-family="FreeSans" font-size="10.00">../Control/Nav.h</text>
</a>
</g>
<!-- Node4&#45;&gt;Node5 -->
<g id="edge8" class="edge"><title>Node4&#45;&gt;Node5</title>
<path fill="none" stroke="midnightblue" d="M224.496,-406.897C234.125,-398.435 248.081,-386.172 259.46,-376.172"/>
<polygon fill="midnightblue" stroke="midnightblue" points="261.99,-378.608 267.191,-369.378 257.369,-373.35 261.99,-378.608"/>
</g>
<!-- Node6 -->
<g id="node11" class="node"><title>Node6</title>
<a xlink:href="_m_r___types_8h.html" target="_top" xlink:title="../Util/MR_Types.h">
<polygon fill="none" stroke="black" points="37,-59 37,-79 133,-79 133,-59 37,-59"/>
<text text-anchor="middle" x="85" y="-66" font-family="FreeSans" font-size="10.00">../Util/MR_Types.h</text>
</a>
</g>
<!-- Node4&#45;&gt;Node6 -->
<g id="edge10" class="edge"><title>Node4&#45;&gt;Node6</title>
<path fill="none" stroke="midnightblue" d="M171.931,-413.02C110.036,-404.507 0,-378.478 0,-301 0,-301 0,-301 0,-185 0,-142.829 37.0024,-105.809 62.1796,-85.5003"/>
<polygon fill="midnightblue" stroke="midnightblue" points="64.4469,-88.171 70.1941,-79.2704 60.1508,-82.6443 64.4469,-88.171"/>
</g>
<!-- Node8 -->
<g id="node15" class="node"><title>Node8</title>
<a xlink:href="_vec_8h.html" target="_top" xlink:title="../Vec.h">
<polygon fill="none" stroke="black" points="313.5,-175 313.5,-195 362.5,-195 362.5,-175 313.5,-175"/>
<text text-anchor="middle" x="338" y="-182" font-family="FreeSans" font-size="10.00">../Vec.h</text>
</a>
</g>
<!-- Node4&#45;&gt;Node8 -->
<g id="edge14" class="edge"><title>Node4&#45;&gt;Node8</title>
<path fill="none" stroke="midnightblue" d="M254.009,-411.649C279.994,-405.944 311.833,-394.188 329,-370 364.588,-319.857 352.033,-241.405 343.399,-204.911"/>
<polygon fill="midnightblue" stroke="midnightblue" points="346.742,-203.852 340.904,-195.01 339.954,-205.563 346.742,-203.852"/>
</g>
<!-- Node9 -->
<g id="node17" class="node"><title>Node9</title>
<a xlink:href="_ui_layout_flags_8h.html" target="_top" xlink:title="UiLayoutFlags.h">
<polygon fill="none" stroke="black" points="27.5,-233 27.5,-253 114.5,-253 114.5,-233 27.5,-233"/>
<text text-anchor="middle" x="71" y="-240" font-family="FreeSans" font-size="10.00">UiLayoutFlags.h</text>
</a>
</g>
<!-- Node4&#45;&gt;Node9 -->
<g id="edge16" class="edge"><title>Node4&#45;&gt;Node9</title>
<path fill="none" stroke="midnightblue" d="M192.243,-406.84C176.448,-398.433 154.807,-385.4 139,-370 107.212,-339.031 86.8207,-289.977 77.2996,-262.788"/>
<polygon fill="midnightblue" stroke="midnightblue" points="80.5841,-261.574 74.0814,-253.21 73.9487,-263.804 80.5841,-261.574"/>
</g>
<!-- Node10 -->
<g id="node20" class="node"><title>Node10</title>
<a xlink:href="_view_model_8h.html" target="_top" xlink:title="ViewModel.h">
<polygon fill="none" stroke="black" points="148,-349 148,-369 220,-369 220,-349 148,-349"/>
<text text-anchor="middle" x="184" y="-356" font-family="FreeSans" font-size="10.00">ViewModel.h</text>
</a>
</g>
<!-- Node4&#45;&gt;Node10 -->
<g id="edge20" class="edge"><title>Node4&#45;&gt;Node10</title>
<path fill="none" stroke="midnightblue" d="M207.949,-406.897C204.046,-399.093 198.527,-388.054 193.77,-378.54"/>
<polygon fill="midnightblue" stroke="midnightblue" points="196.791,-376.757 189.189,-369.378 190.53,-379.887 196.791,-376.757"/>
</g>
<!-- Node7 -->
<g id="node13" class="node"><title>Node7</title>
<polygon fill="none" stroke="#bfbfbf" points="56,-1 56,-21 114,-21 114,-1 56,-1"/>
<text text-anchor="middle" x="85" y="-8" font-family="FreeSans" font-size="10.00">inttypes.h</text>
</g>
<!-- Node6&#45;&gt;Node7 -->
<g id="edge12" class="edge"><title>Node6&#45;&gt;Node7</title>
<path fill="none" stroke="midnightblue" d="M85,-58.8972C85,-51.339 85,-40.7476 85,-31.4458"/>
<polygon fill="midnightblue" stroke="midnightblue" points="88.5001,-31.3776 85,-21.3776 81.5001,-31.3776 88.5001,-31.3776"/>
</g>
<!-- Node9&#45;&gt;Node6 -->
<g id="edge18" class="edge"><title>Node9&#45;&gt;Node6</title>
<path fill="none" stroke="midnightblue" d="M71.8132,-232.893C74.0556,-205.023 80.3595,-126.675 83.3656,-89.3131"/>
<polygon fill="midnightblue" stroke="midnightblue" points="86.8712,-89.3835 84.1845,-79.135 79.8937,-88.822 86.8712,-89.3835"/>
</g>
<!-- Node11 -->
<g id="node22" class="node"><title>Node11</title>
<a xlink:href="_display_8h.html" target="_top" xlink:title="Display.h">
<polygon fill="none" stroke="black" points="173,-291 173,-311 229,-311 229,-291 173,-291"/>
<text text-anchor="middle" x="201" y="-298" font-family="FreeSans" font-size="10.00">Display.h</text>
</a>
</g>
<!-- Node10&#45;&gt;Node11 -->
<g id="edge22" class="edge"><title>Node10&#45;&gt;Node11</title>
<path fill="none" stroke="midnightblue" d="M186.961,-348.897C189.201,-341.257 192.348,-330.517 195.096,-321.143"/>
<polygon fill="midnightblue" stroke="midnightblue" points="198.504,-321.958 197.958,-311.378 191.787,-319.989 198.504,-321.958"/>
</g>
<!-- Node18 -->
<g id="node42" class="node"><title>Node18</title>
<a xlink:href="_view_attacher_8h.html" target="_top" xlink:title="ViewAttacher.h">
<polygon fill="none" stroke="black" points="237.5,-233 237.5,-253 320.5,-253 320.5,-233 237.5,-233"/>
<text text-anchor="middle" x="279" y="-240" font-family="FreeSans" font-size="10.00">ViewAttacher.h</text>
</a>
</g>
<!-- Node10&#45;&gt;Node18 -->
<g id="edge52" class="edge"><title>Node10&#45;&gt;Node18</title>
<path fill="none" stroke="midnightblue" d="M197.964,-348.861C209.569,-339.99 226.056,-326.314 238,-312 250.911,-296.526 262.32,-276.514 269.803,-262.03"/>
<polygon fill="midnightblue" stroke="midnightblue" points="272.972,-263.517 274.326,-253.009 266.715,-260.379 272.972,-263.517"/>
</g>
<!-- Node19 -->
<g id="node44" class="node"><title>Node19</title>
<a xlink:href="_view_8h.html" target="_top" xlink:title="View.h">
<polygon fill="none" stroke="black" points="109,-291 109,-311 155,-311 155,-291 109,-291"/>
<text text-anchor="middle" x="132" y="-298" font-family="FreeSans" font-size="10.00">View.h</text>
</a>
</g>
<!-- Node10&#45;&gt;Node19 -->
<g id="edge50" class="edge"><title>Node10&#45;&gt;Node19</title>
<path fill="none" stroke="midnightblue" d="M174.942,-348.897C167.577,-340.682 156.998,-328.883 148.184,-319.051"/>
<polygon fill="midnightblue" stroke="midnightblue" points="150.586,-316.487 141.304,-311.378 145.374,-321.16 150.586,-316.487"/>
</g>
<!-- Node11&#45;&gt;Node8 -->
<g id="edge24" class="edge"><title>Node11&#45;&gt;Node8</title>
<path fill="none" stroke="midnightblue" d="M202.635,-290.764C205.493,-275.987 212.724,-248.631 229,-232 239.847,-220.916 275.619,-206.618 303.257,-196.718"/>
<polygon fill="midnightblue" stroke="midnightblue" points="304.74,-199.906 313.01,-193.283 302.415,-193.303 304.74,-199.906"/>
</g>
<!-- Node11&#45;&gt;Node9 -->
<g id="edge46" class="edge"><title>Node11&#45;&gt;Node9</title>
<path fill="none" stroke="midnightblue" d="M178.356,-290.897C157.512,-281.598 126.377,-267.707 102.996,-257.275"/>
<polygon fill="midnightblue" stroke="midnightblue" points="104.379,-254.06 93.821,-253.182 101.527,-260.452 104.379,-254.06"/>
</g>
<!-- Node12 -->
<g id="node25" class="node"><title>Node12</title>
<a xlink:href="_styles_8h.html" target="_top" xlink:title="Styles.h">
<polygon fill="none" stroke="black" points="131.5,-233 131.5,-253 182.5,-253 182.5,-233 131.5,-233"/>
<text text-anchor="middle" x="157" y="-240" font-family="FreeSans" font-size="10.00">Styles.h</text>
</a>
</g>
<!-- Node11&#45;&gt;Node12 -->
<g id="edge26" class="edge"><title>Node11&#45;&gt;Node12</title>
<path fill="none" stroke="midnightblue" d="M193.336,-290.897C187.166,-282.764 178.331,-271.118 170.918,-261.347"/>
<polygon fill="midnightblue" stroke="midnightblue" points="173.705,-259.229 164.873,-253.378 168.128,-263.46 173.705,-259.229"/>
</g>
<!-- Node11&#45;&gt;Node18 -->
<g id="edge48" class="edge"><title>Node11&#45;&gt;Node18</title>
<path fill="none" stroke="midnightblue" d="M214.587,-290.897C226.259,-282.218 243.31,-269.538 256.938,-259.405"/>
<polygon fill="midnightblue" stroke="midnightblue" points="259.371,-261.957 265.307,-253.182 255.194,-256.34 259.371,-261.957"/>
</g>
<!-- Node12&#45;&gt;Node8 -->
<g id="edge28" class="edge"><title>Node12&#45;&gt;Node8</title>
<path fill="none" stroke="midnightblue" d="M182.549,-234.813C214.212,-224.667 268.294,-207.337 303.588,-196.027"/>
<polygon fill="midnightblue" stroke="midnightblue" points="304.996,-199.251 313.451,-192.867 302.859,-192.585 304.996,-199.251"/>
</g>
<!-- Node13 -->
<g id="node28" class="node"><title>Node13</title>
<a xlink:href="_ui_font_8h.html" target="_top" xlink:title="UiFont.h">
<polygon fill="none" stroke="black" points="232.5,-175 232.5,-195 285.5,-195 285.5,-175 232.5,-175"/>
<text text-anchor="middle" x="259" y="-182" font-family="FreeSans" font-size="10.00">UiFont.h</text>
</a>
</g>
<!-- Node12&#45;&gt;Node13 -->
<g id="edge30" class="edge"><title>Node12&#45;&gt;Node13</title>
<path fill="none" stroke="midnightblue" d="M174.767,-232.897C190.612,-223.887 214.038,-210.567 232.166,-200.259"/>
<polygon fill="midnightblue" stroke="midnightblue" points="234.131,-203.167 241.094,-195.182 230.671,-197.082 234.131,-203.167"/>
</g>
<!-- Node16 -->
<g id="node35" class="node"><title>Node16</title>
<a xlink:href="_color_8h.html" target="_top" xlink:title="Color.h">
<polygon fill="none" stroke="black" points="133.5,-175 133.5,-195 180.5,-195 180.5,-175 133.5,-175"/>
<text text-anchor="middle" x="157" y="-182" font-family="FreeSans" font-size="10.00">Color.h</text>
</a>
</g>
<!-- Node12&#45;&gt;Node16 -->
<g id="edge38" class="edge"><title>Node12&#45;&gt;Node16</title>
<path fill="none" stroke="midnightblue" d="M157,-232.897C157,-225.339 157,-214.748 157,-205.446"/>
<polygon fill="midnightblue" stroke="midnightblue" points="160.5,-205.378 157,-195.378 153.5,-205.378 160.5,-205.378"/>
</g>
<!-- Node14 -->
<g id="node30" class="node"><title>Node14</title>
<a xlink:href="_hash_8h.html" target="_top" xlink:title="../Util/Hash.h">
<polygon fill="none" stroke="black" points="316.5,-117 316.5,-137 389.5,-137 389.5,-117 316.5,-117"/>
<text text-anchor="middle" x="353" y="-124" font-family="FreeSans" font-size="10.00">../Util/Hash.h</text>
</a>
</g>
<!-- Node13&#45;&gt;Node14 -->
<g id="edge32" class="edge"><title>Node13&#45;&gt;Node14</title>
<path fill="none" stroke="midnightblue" d="M275.374,-174.897C289.842,-165.97 311.169,-152.811 327.809,-142.543"/>
<polygon fill="midnightblue" stroke="midnightblue" points="329.826,-145.411 336.499,-137.182 326.15,-139.454 329.826,-145.411"/>
</g>
<!-- Node15 -->
<g id="node32" class="node"><title>Node15</title>
<a xlink:href="_sel_fmt_8h.html" target="_top" xlink:title="../Util/SelFmt.h">
<polygon fill="none" stroke="black" points="218.5,-117 218.5,-137 299.5,-137 299.5,-117 218.5,-117"/>
<text text-anchor="middle" x="259" y="-124" font-family="FreeSans" font-size="10.00">../Util/SelFmt.h</text>
</a>
</g>
<!-- Node13&#45;&gt;Node15 -->
<g id="edge34" class="edge"><title>Node13&#45;&gt;Node15</title>
<path fill="none" stroke="midnightblue" d="M259,-174.897C259,-167.339 259,-156.748 259,-147.446"/>
<polygon fill="midnightblue" stroke="midnightblue" points="262.5,-147.378 259,-137.378 255.5,-147.378 262.5,-147.378"/>
</g>
<!-- Node15&#45;&gt;Node6 -->
<g id="edge36" class="edge"><title>Node15&#45;&gt;Node6</title>
<path fill="none" stroke="midnightblue" d="M228.692,-116.897C199.962,-107.321 156.623,-92.8742 125.055,-82.3516"/>
<polygon fill="midnightblue" stroke="midnightblue" points="125.846,-78.9261 115.253,-79.0842 123.633,-85.5669 125.846,-78.9261"/>
</g>
<!-- Node16&#45;&gt;Node6 -->
<g id="edge42" class="edge"><title>Node16&#45;&gt;Node6</title>
<path fill="none" stroke="midnightblue" d="M141.311,-174.866C129.396,-166.385 113.492,-153.241 104,-138 94.6829,-123.04 89.8576,-103.475 87.4068,-89.0006"/>
<polygon fill="midnightblue" stroke="midnightblue" points="90.8673,-88.475 85.9605,-79.0849 83.9406,-89.4854 90.8673,-88.475"/>
</g>
<!-- Node16&#45;&gt;Node15 -->
<g id="edge44" class="edge"><title>Node16&#45;&gt;Node15</title>
<path fill="none" stroke="midnightblue" d="M174.767,-174.897C190.612,-165.887 214.038,-152.567 232.166,-142.259"/>
<polygon fill="midnightblue" stroke="midnightblue" points="234.131,-145.167 241.094,-137.182 230.671,-139.082 234.131,-145.167"/>
</g>
<!-- Node17 -->
<g id="node37" class="node"><title>Node17</title>
<polygon fill="none" stroke="#bfbfbf" points="112.5,-117 112.5,-137 201.5,-137 201.5,-117 112.5,-117"/>
<text text-anchor="middle" x="157" y="-124" font-family="FreeSans" font-size="10.00">boost/format.hpp</text>
</g>
<!-- Node16&#45;&gt;Node17 -->
<g id="edge40" class="edge"><title>Node16&#45;&gt;Node17</title>
<path fill="none" stroke="midnightblue" d="M157,-174.897C157,-167.339 157,-156.748 157,-147.446"/>
<polygon fill="midnightblue" stroke="midnightblue" points="160.5,-147.378 157,-137.378 153.5,-147.378 160.5,-147.378"/>
</g>
<!-- Node21 -->
<g id="node49" class="node"><title>Node21</title>
<a xlink:href="_base_container_8h.html" target="_top" xlink:title="BaseContainer.h">
<polygon fill="none" stroke="black" points="278,-529 278,-549 366,-549 366,-529 278,-529"/>
<text text-anchor="middle" x="322" y="-536" font-family="FreeSans" font-size="10.00">BaseContainer.h</text>
</a>
</g>
<!-- Node20&#45;&gt;Node21 -->
<g id="edge56" class="edge"><title>Node20&#45;&gt;Node21</title>
<path fill="none" stroke="midnightblue" d="M291.974,-662.888C295.293,-645.365 300.989,-616.571 307,-592 309.703,-580.949 313.134,-568.723 316.031,-558.801"/>
<polygon fill="midnightblue" stroke="midnightblue" points="319.42,-559.686 318.907,-549.103 312.708,-557.695 319.42,-559.686"/>
</g>
<!-- Node21&#45;&gt;Node4 -->
<g id="edge58" class="edge"><title>Node21&#45;&gt;Node4</title>
<path fill="none" stroke="midnightblue" d="M313.875,-528.55C302.305,-513.815 280.234,-486.245 260,-464 250.751,-453.832 239.935,-442.952 231.011,-434.223"/>
<polygon fill="midnightblue" stroke="midnightblue" points="233.36,-431.625 223.743,-427.177 228.487,-436.651 233.36,-431.625"/>
</g>
<!-- Node22&#45;&gt;Node21 -->
<g id="edge66" class="edge"><title>Node22&#45;&gt;Node21</title>
<path fill="none" stroke="midnightblue" d="M455.31,-592.941C425.416,-580.845 384.848,-564.43 356.342,-552.896"/>
<polygon fill="midnightblue" stroke="midnightblue" points="357.382,-549.541 346.799,-549.034 354.756,-556.03 357.382,-549.541"/>
</g>
<!-- Node23 -->
<g id="node54" class="node"><title>Node23</title>
<a xlink:href="_exception_8h.html" target="_top" xlink:title="../Exception.h">
<polygon fill="none" stroke="black" points="384,-529 384,-549 458,-549 458,-529 384,-529"/>
<text text-anchor="middle" x="421" y="-536" font-family="FreeSans" font-size="10.00">../Exception.h</text>
</a>
</g>
<!-- Node22&#45;&gt;Node23 -->
<g id="edge62" class="edge"><title>Node22&#45;&gt;Node23</title>
<path fill="none" stroke="midnightblue" d="M477.837,-592.765C466.32,-581.87 451.162,-567.531 439.396,-556.402"/>
<polygon fill="midnightblue" stroke="midnightblue" points="441.549,-553.621 431.879,-549.291 436.739,-558.706 441.549,-553.621"/>
</g>
<!-- Node25 -->
<g id="node59" class="node"><title>Node25</title>
<a xlink:href="_m_p_l_8h.html" target="_top" xlink:title="MPL.h">
<polygon fill="none" stroke="black" points="475.5,-529 475.5,-549 520.5,-549 520.5,-529 475.5,-529"/>
<text text-anchor="middle" x="498" y="-536" font-family="FreeSans" font-size="10.00">MPL.h</text>
</a>
</g>
<!-- Node22&#45;&gt;Node25 -->
<g id="edge68" class="edge"><title>Node22&#45;&gt;Node25</title>
<path fill="none" stroke="midnightblue" d="M495.696,-592.765C496.122,-582.813 496.672,-569.987 497.127,-559.359"/>
<polygon fill="midnightblue" stroke="midnightblue" points="500.627,-559.432 497.559,-549.291 493.634,-559.132 500.627,-559.432"/>
</g>
<!-- Node24 -->
<g id="node56" class="node"><title>Node24</title>
<polygon fill="none" stroke="#bfbfbf" points="392,-465 392,-485 450,-485 450,-465 392,-465"/>
<text text-anchor="middle" x="421" y="-472" font-family="FreeSans" font-size="10.00">exception</text>
</g>
<!-- Node23&#45;&gt;Node24 -->
<g id="edge64" class="edge"><title>Node23&#45;&gt;Node24</title>
<path fill="none" stroke="midnightblue" d="M421,-528.717C421,-519.707 421,-506.347 421,-495.205"/>
<polygon fill="midnightblue" stroke="midnightblue" points="424.5,-495.046 421,-485.046 417.5,-495.046 424.5,-495.046"/>
</g>
<!-- Node27 -->
<g id="node63" class="node"><title>Node27</title>
<a xlink:href="_config_8h.html" target="_top" xlink:title="../../engine/Util/Config.h">
<polygon fill="none" stroke="black" points="512,-669 512,-689 628,-689 628,-669 512,-669"/>
<text text-anchor="middle" x="570" y="-676" font-family="FreeSans" font-size="10.00">../../engine/Util/Config.h</text>
</a>
</g>
<!-- Node26&#45;&gt;Node27 -->
<g id="edge72" class="edge"><title>Node26&#45;&gt;Node27</title>
<path fill="none" stroke="midnightblue" d="M670.986,-732.859C651.325,-722.373 620.417,-705.889 597.97,-693.917"/>
<polygon fill="midnightblue" stroke="midnightblue" points="599.396,-690.711 588.925,-689.094 596.102,-696.888 599.396,-690.711"/>
</g>
<!-- Node35 -->
<g id="node81" class="node"><title>Node35</title>
<a xlink:href="_settings_scene_8h.html" target="_top" xlink:title="SettingsScene.h">
<polygon fill="none" stroke="black" points="646,-669 646,-689 734,-689 734,-669 646,-669"/>
<text text-anchor="middle" x="690" y="-676" font-family="FreeSans" font-size="10.00">SettingsScene.h</text>
</a>
</g>
<!-- Node26&#45;&gt;Node35 -->
<g id="edge92" class="edge"><title>Node26&#45;&gt;Node35</title>
<path fill="none" stroke="midnightblue" d="M690,-732.717C690,-723.707 690,-710.347 690,-699.205"/>
<polygon fill="midnightblue" stroke="midnightblue" points="693.5,-699.046 690,-689.046 686.5,-699.046 693.5,-699.046"/>
</g>
<!-- Node28 -->
<g id="node65" class="node"><title>Node28</title>
<polygon fill="none" stroke="#bfbfbf" points="705.5,-291 705.5,-311 746.5,-311 746.5,-291 705.5,-291"/>
<text text-anchor="middle" x="726" y="-298" font-family="FreeSans" font-size="10.00">string</text>
</g>
<!-- Node27&#45;&gt;Node28 -->
<g id="edge74" class="edge"><title>Node27&#45;&gt;Node28</title>
<path fill="none" stroke="midnightblue" d="M600.933,-668.95C621.597,-660.649 647.7,-646.813 663,-626 686.442,-594.111 682,-578.578 682,-539 682,-539 682,-539 682,-417 682,-380.788 700.977,-342.11 714.005,-319.822"/>
<polygon fill="midnightblue" stroke="midnightblue" points="717.123,-321.43 719.317,-311.065 711.138,-317.799 717.123,-321.43"/>
</g>
<!-- Node29 -->
<g id="node67" class="node"><title>Node29</title>
<polygon fill="none" stroke="#bfbfbf" points="598,-599 598,-619 654,-619 654,-599 598,-599"/>
<text text-anchor="middle" x="626" y="-606" font-family="FreeSans" font-size="10.00">basedir.h</text>
</g>
<!-- Node27&#45;&gt;Node29 -->
<g id="edge76" class="edge"><title>Node27&#45;&gt;Node29</title>
<path fill="none" stroke="midnightblue" d="M578.023,-668.971C586.756,-658.055 600.898,-640.377 611.571,-627.037"/>
<polygon fill="midnightblue" stroke="midnightblue" points="614.478,-629.006 617.991,-619.011 609.011,-624.633 614.478,-629.006"/>
</g>
<!-- Node30 -->
<g id="node69" class="node"><title>Node30</title>
<a xlink:href="_o_s_8h.html" target="_top" xlink:title="OS.h">
<polygon fill="none" stroke="black" points="565,-349 565,-369 603,-369 603,-349 565,-349"/>
<text text-anchor="middle" x="584" y="-356" font-family="FreeSans" font-size="10.00">OS.h</text>
</a>
</g>
<!-- Node27&#45;&gt;Node30 -->
<g id="edge78" class="edge"><title>Node27&#45;&gt;Node30</title>
<path fill="none" stroke="midnightblue" d="M570,-668.812C570,-645.717 570,-587.611 570,-539 570,-539 570,-539 570,-475 570,-441.181 575.938,-402.213 580.079,-379.146"/>
<polygon fill="midnightblue" stroke="midnightblue" points="583.543,-379.663 581.934,-369.191 576.661,-378.381 583.543,-379.663"/>
</g>
<!-- Node30&#45;&gt;Node6 -->
<g id="edge90" class="edge"><title>Node30&#45;&gt;Node6</title>
<path fill="none" stroke="midnightblue" d="M603.17,-351.747C620.284,-344.306 644.779,-331.106 659,-312 677.992,-286.484 678,-274.808 678,-243 678,-243 678,-243 678,-185 678,-130.897 292.905,-88.6616 143.376,-74.3014"/>
<polygon fill="midnightblue" stroke="midnightblue" points="143.312,-70.7796 133.025,-73.3158 142.649,-77.7481 143.312,-70.7796"/>
</g>
<!-- Node30&#45;&gt;Node28 -->
<g id="edge84" class="edge"><title>Node30&#45;&gt;Node28</title>
<path fill="none" stroke="midnightblue" d="M603.151,-351.178C626.988,-341.442 667.969,-324.703 695.992,-313.257"/>
<polygon fill="midnightblue" stroke="midnightblue" points="697.38,-316.471 705.314,-309.449 694.733,-309.99 697.38,-316.471"/>
</g>
<!-- Node31 -->
<g id="node71" class="node"><title>Node31</title>
<polygon fill="none" stroke="#bfbfbf" points="376,-291 376,-311 418,-311 418,-291 376,-291"/>
<text text-anchor="middle" x="397" y="-298" font-family="FreeSans" font-size="10.00">locale</text>
</g>
<!-- Node30&#45;&gt;Node31 -->
<g id="edge80" class="edge"><title>Node30&#45;&gt;Node31</title>
<path fill="none" stroke="midnightblue" d="M564.545,-353.586C536.388,-345.664 482.461,-330.165 427.748,-312.127"/>
<polygon fill="midnightblue" stroke="midnightblue" points="428.843,-308.803 418.249,-308.972 426.636,-315.446 428.843,-308.803"/>
</g>
<!-- Node32 -->
<g id="node73" class="node"><title>Node32</title>
<polygon fill="none" stroke="#bfbfbf" points="436,-291 436,-311 466,-311 466,-291 436,-291"/>
<text text-anchor="middle" x="451" y="-298" font-family="FreeSans" font-size="10.00">set</text>
</g>
<!-- Node30&#45;&gt;Node32 -->
<g id="edge82" class="edge"><title>Node30&#45;&gt;Node32</title>
<path fill="none" stroke="midnightblue" d="M564.647,-350.811C544.515,-342.26 511.879,-328.304 475.528,-312.179"/>
<polygon fill="midnightblue" stroke="midnightblue" points="476.771,-308.902 466.212,-308.035 473.926,-315.297 476.771,-308.902"/>
</g>
<!-- Node33 -->
<g id="node76" class="node"><title>Node33</title>
<polygon fill="none" stroke="#bfbfbf" points="484,-291 484,-311 528,-311 528,-291 484,-291"/>
<text text-anchor="middle" x="506" y="-298" font-family="FreeSans" font-size="10.00">vector</text>
</g>
<!-- Node30&#45;&gt;Node33 -->
<g id="edge86" class="edge"><title>Node30&#45;&gt;Node33</title>
<path fill="none" stroke="midnightblue" d="M570.413,-348.897C558.741,-340.218 541.69,-327.538 528.062,-317.405"/>
<polygon fill="midnightblue" stroke="midnightblue" points="529.806,-314.34 519.693,-311.182 525.629,-319.957 529.806,-314.34"/>
</g>
<!-- Node34 -->
<g id="node78" class="node"><title>Node34</title>
<polygon fill="none" stroke="#bfbfbf" points="545.5,-291 545.5,-311 650.5,-311 650.5,-291 545.5,-291"/>
<text text-anchor="middle" x="598" y="-298" font-family="FreeSans" font-size="10.00">boost/filesystem.hpp</text>
</g>
<!-- Node30&#45;&gt;Node34 -->
<g id="edge88" class="edge"><title>Node30&#45;&gt;Node34</title>
<path fill="none" stroke="midnightblue" d="M586.439,-348.897C588.283,-341.257 590.875,-330.517 593.138,-321.143"/>
<polygon fill="midnightblue" stroke="midnightblue" points="596.551,-321.92 595.495,-311.378 589.746,-320.277 596.551,-321.92"/>
</g>
<!-- Node35&#45;&gt;Node22 -->
<g id="edge94" class="edge"><title>Node35&#45;&gt;Node22</title>
<path fill="none" stroke="midnightblue" d="M662.061,-668.971C632.77,-658.456 586,-641.667 549.387,-628.523"/>
<polygon fill="midnightblue" stroke="midnightblue" points="550.429,-625.179 539.834,-625.094 548.064,-631.767 550.429,-625.179"/>
</g>
<!-- Node36 -->
<g id="node84" class="node"><title>Node36</title>
<a xlink:href="_dialog_scene_8h.html" target="_top" xlink:title="DialogScene.h">
<polygon fill="none" stroke="black" points="771.5,-599 771.5,-619 850.5,-619 850.5,-599 771.5,-599"/>
<text text-anchor="middle" x="811" y="-606" font-family="FreeSans" font-size="10.00">DialogScene.h</text>
</a>
</g>
<!-- Node35&#45;&gt;Node36 -->
<g id="edge96" class="edge"><title>Node35&#45;&gt;Node36</title>
<path fill="none" stroke="midnightblue" d="M707.336,-668.971C727.643,-657.223 761.486,-637.644 784.955,-624.068"/>
<polygon fill="midnightblue" stroke="midnightblue" points="786.793,-627.048 793.696,-619.011 783.287,-620.989 786.793,-627.048"/>
</g>
<!-- Node36&#45;&gt;Node37 -->
<g id="edge98" class="edge"><title>Node36&#45;&gt;Node37</title>
<path fill="none" stroke="midnightblue" d="M824.325,-598.971C839.518,-587.535 864.57,-568.678 882.528,-555.161"/>
<polygon fill="midnightblue" stroke="midnightblue" points="884.815,-557.821 890.7,-549.011 880.606,-552.228 884.815,-557.821"/>
</g>
<!-- Node38 -->
<g id="node88" class="node"><title>Node38</title>
<a xlink:href="_form_scene_8h.html" target="_top" xlink:title="FormScene.h">
<polygon fill="none" stroke="black" points="770,-529 770,-549 844,-549 844,-529 770,-529"/>
<text text-anchor="middle" x="807" y="-536" font-family="FreeSans" font-size="10.00">FormScene.h</text>
</a>
</g>
<!-- Node36&#45;&gt;Node38 -->
<g id="edge100" class="edge"><title>Node36&#45;&gt;Node38</title>
<path fill="none" stroke="midnightblue" d="M810.427,-598.971C809.839,-588.679 808.907,-572.375 808.164,-559.364"/>
<polygon fill="midnightblue" stroke="midnightblue" points="811.637,-558.795 807.572,-549.011 804.648,-559.194 811.637,-558.795"/>
</g>
<!-- Node38&#45;&gt;Node8 -->
<g id="edge102" class="edge"><title>Node38&#45;&gt;Node8</title>
<path fill="none" stroke="midnightblue" d="M814.23,-528.79C827.86,-508.511 856,-461.281 856,-417 856,-417 856,-417 856,-301 856,-251.345 488.86,-203.081 372.757,-189.059"/>
<polygon fill="midnightblue" stroke="midnightblue" points="372.981,-185.561 362.636,-187.847 372.149,-192.511 372.981,-185.561"/>
</g>
<!-- Node39 -->
<g id="node91" class="node"><title>Node39</title>
<a xlink:href="_ui_scene_8h.html" target="_top" xlink:title="UiScene.h">
<polygon fill="none" stroke="black" points="752,-465 752,-485 814,-485 814,-465 752,-465"/>
<text text-anchor="middle" x="783" y="-472" font-family="FreeSans" font-size="10.00">UiScene.h</text>
</a>
</g>
<!-- Node38&#45;&gt;Node39 -->
<g id="edge104" class="edge"><title>Node38&#45;&gt;Node39</title>
<path fill="none" stroke="midnightblue" d="M803.144,-528.717C799.695,-519.519 794.546,-505.789 790.317,-494.512"/>
<polygon fill="midnightblue" stroke="midnightblue" points="793.556,-493.181 786.767,-485.046 787.001,-495.638 793.556,-493.181"/>
</g>
<!-- Node40 -->
<g id="node93" class="node"><title>Node40</title>
<a xlink:href="_scene_8h.html" target="_top" xlink:title="Scene.h">
<polygon fill="none" stroke="black" points="743,-407 743,-427 795,-427 795,-407 743,-407"/>
<text text-anchor="middle" x="769" y="-414" font-family="FreeSans" font-size="10.00">Scene.h</text>
</a>
</g>
<!-- Node39&#45;&gt;Node40 -->
<g id="edge106" class="edge"><title>Node39&#45;&gt;Node40</title>
<path fill="none" stroke="midnightblue" d="M780.561,-464.897C778.717,-457.257 776.125,-446.517 773.862,-437.143"/>
<polygon fill="midnightblue" stroke="midnightblue" points="777.254,-436.277 771.505,-427.378 770.449,-437.92 777.254,-436.277"/>
</g>
<!-- Node40&#45;&gt;Node30 -->
<g id="edge108" class="edge"><title>Node40&#45;&gt;Node30</title>
<path fill="none" stroke="midnightblue" d="M742.886,-408.813C708.62,-398.07 648.664,-379.273 613.015,-368.097"/>
<polygon fill="midnightblue" stroke="midnightblue" points="613.806,-364.677 603.216,-365.025 611.711,-371.356 613.806,-364.677"/>
</g>
<!-- Node41 -->
<g id="node96" class="node"><title>Node41</title>
<a xlink:href="_profiler_8h.html" target="_top" xlink:title="../../engine/Util/Profiler.h">
<polygon fill="none" stroke="black" points="709.5,-349 709.5,-369 828.5,-369 828.5,-349 709.5,-349"/>
<text text-anchor="middle" x="769" y="-356" font-family="FreeSans" font-size="10.00">../../engine/Util/Profiler.h</text>
</a>
</g>
<!-- Node40&#45;&gt;Node41 -->
<g id="edge110" class="edge"><title>Node40&#45;&gt;Node41</title>
<path fill="none" stroke="midnightblue" d="M769,-406.897C769,-399.339 769,-388.748 769,-379.446"/>
<polygon fill="midnightblue" stroke="midnightblue" points="772.5,-379.378 769,-369.378 765.5,-379.378 772.5,-379.378"/>
</g>
<!-- Node42 -->
<g id="node98" class="node"><title>Node42</title>
<polygon fill="none" stroke="#bfbfbf" points="764,-291 764,-311 810,-311 810,-291 764,-291"/>
<text text-anchor="middle" x="787" y="-298" font-family="FreeSans" font-size="10.00">chrono</text>
</g>
<!-- Node41&#45;&gt;Node42 -->
<g id="edge112" class="edge"><title>Node41&#45;&gt;Node42</title>
<path fill="none" stroke="midnightblue" d="M772.135,-348.897C774.506,-341.257 777.84,-330.517 780.749,-321.143"/>
<polygon fill="midnightblue" stroke="midnightblue" points="784.158,-321.966 783.779,-311.378 777.473,-319.891 784.158,-321.966"/>
</g>
<!-- Node43&#45;&gt;Node27 -->
<g id="edge126" class="edge"><title>Node43&#45;&gt;Node27</title>
<path fill="none" stroke="midnightblue" d="M561.607,-732.717C563.015,-723.707 565.102,-710.347 566.843,-699.205"/>
<polygon fill="midnightblue" stroke="midnightblue" points="570.344,-699.467 568.43,-689.046 563.428,-698.386 570.344,-699.467"/>
</g>
<!-- Node43&#45;&gt;Node35 -->
<g id="edge128" class="edge"><title>Node43&#45;&gt;Node35</title>
<path fill="none" stroke="midnightblue" d="M580.599,-732.859C602.088,-722.28 635.981,-705.594 660.348,-693.598"/>
<polygon fill="midnightblue" stroke="midnightblue" points="662.072,-696.651 669.497,-689.094 658.98,-690.37 662.072,-696.651"/>
</g>
<!-- Node44 -->
<g id="node103" class="node"><title>Node44</title>
<a xlink:href="_radio_button_8h.html" target="_top" xlink:title="../../engine/Display\l/RadioButton.h">
<polygon fill="none" stroke="black" points="353.5,-663 353.5,-695 448.5,-695 448.5,-663 353.5,-663"/>
<text text-anchor="start" x="361.5" y="-682" font-family="FreeSans" font-size="10.00">../../engine/Display</text>
<text text-anchor="middle" x="401" y="-670" font-family="FreeSans" font-size="10.00">/RadioButton.h</text>
</a>
</g>
<!-- Node43&#45;&gt;Node44 -->
<g id="edge118" class="edge"><title>Node43&#45;&gt;Node44</title>
<path fill="none" stroke="midnightblue" d="M534.806,-732.859C512.247,-723.779 478.513,-710.2 450.561,-698.949"/>
<polygon fill="midnightblue" stroke="midnightblue" points="451.526,-695.565 440.943,-695.078 448.913,-702.059 451.526,-695.565"/>
</g>
<!-- Node44&#45;&gt;Node23 -->
<g id="edge120" class="edge"><title>Node44&#45;&gt;Node23</title>
<path fill="none" stroke="midnightblue" d="M403.294,-662.94C406.938,-637.437 414.043,-587.697 418.057,-559.604"/>
<polygon fill="midnightblue" stroke="midnightblue" points="421.573,-559.739 419.522,-549.344 414.643,-558.749 421.573,-559.739"/>
</g>
<!-- Node45 -->
<g id="node106" class="node"><title>Node45</title>
<a xlink:href="_state_button_8h.html" target="_top" xlink:title="StateButton.h">
<polygon fill="none" stroke="black" points="316,-599 316,-619 392,-619 392,-599 316,-599"/>
<text text-anchor="middle" x="354" y="-606" font-family="FreeSans" font-size="10.00">StateButton.h</text>
</a>
</g>
<!-- Node44&#45;&gt;Node45 -->
<g id="edge122" class="edge"><title>Node44&#45;&gt;Node45</title>
<path fill="none" stroke="midnightblue" d="M390.099,-662.765C383.065,-652.289 373.894,-638.629 366.556,-627.7"/>
<polygon fill="midnightblue" stroke="midnightblue" points="369.39,-625.642 360.91,-619.291 363.578,-629.544 369.39,-625.642"/>
</g>
<!-- Node45&#45;&gt;Node2 -->
<g id="edge124" class="edge"><title>Node45&#45;&gt;Node2</title>
<path fill="none" stroke="midnightblue" d="M333.798,-598.971C313.249,-588.769 280.803,-572.661 254.711,-559.707"/>
<polygon fill="midnightblue" stroke="midnightblue" points="255.932,-556.406 245.419,-555.094 252.819,-562.676 255.932,-556.406"/>
</g>
<!-- Node46&#45;&gt;Node36 -->
<g id="edge132" class="edge"><title>Node46&#45;&gt;Node36</title>
<path fill="none" stroke="midnightblue" d="M819.324,-732.928C817.851,-711.005 814.331,-658.595 812.373,-629.443"/>
<polygon fill="midnightblue" stroke="midnightblue" points="815.847,-628.932 811.684,-619.189 808.862,-629.401 815.847,-628.932"/>
</g>
</g>
</svg>
        <g id="navigator" transform="translate(0 0)" fill="#404254">
                <rect fill="#f2f5e9" fill-opacity="0.5" stroke="#606060" stroke-width=".5" x="0" y="0" width="60" height="60"/>
                <use id="zoomplus" xlink:href="#zoomPlus" x="17" y="9" onmousedown="handleZoom(evt,'in')"/>
                <use id="zoomminus" xlink:href="#zoomMin" x="42" y="9" onmousedown="handleZoom(evt,'out')"/>
                <use id="reset" xlink:href="#resetDef" x="30" y="36" onmousedown="handleReset()"/>
                <g id="arrowUp" xlink:href="#dirArrow" transform="translate(30 24)" onmousedown="handlePan(0,-1)">
                  <use xlink:href="#rim" fill="#404040">
                        <set attributeName="fill" to="#808080" begin="arrowUp.mouseover" end="arrowUp.mouseout"/>
                  </use>
                  <path fill="none" stroke="white" stroke-width="1.5" d="M0,-3.0v7 M-2.5,-0.5L0,-3.0L2.5,-0.5"/>
                </g>
                <g id="arrowRight" xlink:href="#dirArrow" transform="rotate(90) translate(36 -43)" onmousedown="handlePan(1,0)">
                  <use xlink:href="#rim" fill="#404040">
                        <set attributeName="fill" to="#808080" begin="arrowRight.mouseover" end="arrowRight.mouseout"/>
                  </use>
                  <path fill="none" stroke="white" stroke-width="1.5" d="M0,-3.0v7 M-2.5,-0.5L0,-3.0L2.5,-0.5"/>
                </g>
                <g id="arrowDown" xlink:href="#dirArrow" transform="rotate(180) translate(-30 -48)" onmousedown="handlePan(0,1)">
                  <use xlink:href="#rim" fill="#404040">
                        <set attributeName="fill" to="#808080" begin="arrowDown.mouseover" end="arrowDown.mouseout"/>
                  </use>
                  <path fill="none" stroke="white" stroke-width="1.5" d="M0,-3.0v7 M-2.5,-0.5L0,-3.0L2.5,-0.5"/>
                </g>
                <g id="arrowLeft" xlink:href="#dirArrow" transform="rotate(270) translate(-36 17)" onmousedown="handlePan(-1,0)">
                  <use xlink:href="#rim" fill="#404040">
                        <set attributeName="fill" to="#808080" begin="arrowLeft.mouseover" end="arrowLeft.mouseout"/>
                  </use>
                  <path fill="none" stroke="white" stroke-width="1.5" d="M0,-3.0v7 M-2.5,-0.5L0,-3.0L2.5,-0.5"/>
                </g>
        </g>
        <svg viewBox="0 0 15 15" width="100%" height="30px" preserveAspectRatio="xMaxYMin meet">
         <g id="arrow_out" transform="scale(0.3 0.3)">
          <a xlink:href="_settings_menu_scene_8cpp__incl_org.svg" target="_base">
           <rect id="button" ry="5" rx="5" y="6" x="6" height="38" width="38"
                fill="#f2f5e9" fill-opacity="0.5" stroke="#606060" stroke-width="1.0"/>
           <path id="arrow"
             d="M 11.500037,31.436501 C 11.940474,20.09759 22.043105,11.32322 32.158766,21.979434 L 37.068811,17.246167 C 37.068811,17.246167 37.088388,32 37.088388,32 L 22.160133,31.978069 C 22.160133,31.978069 26.997745,27.140456 26.997745,27.140456 C 18.528582,18.264221 13.291696,25.230495 11.500037,31.436501 z"
             style="fill:#404040;"/>
          </a>
         </g>
        </svg>
</svg>
