<?xml version="1.0" encoding="UTF-8" standalone="no"?>
<!DOCTYPE svg PUBLIC "-//W3C//DTD SVG 1.1//EN"
 "http://www.w3.org/Graphics/SVG/1.1/DTD/svg11.dtd">
<!-- Generated by graphviz version 2.38.0 (20140413.2041)
 -->
<!-- Title: SettingsScene.h Pages: 1 -->
<svg width="760pt" height="599pt"
 viewBox="0.00 0.00 760.00 599.00" xmlns="http://www.w3.org/2000/svg" xmlns:xlink="http://www.w3.org/1999/xlink">
<g id="graph0" class="graph" transform="scale(1 1) rotate(0) translate(4 595)">
<title>SettingsScene.h</title>
<!-- Node1 -->
<g id="node1" class="node"><title>Node1</title>
<polygon fill="#bfbfbf" stroke="black" points="371.5,-571.5 371.5,-590.5 460.5,-590.5 460.5,-571.5 371.5,-571.5"/>
<text text-anchor="middle" x="416" y="-578.5" font-family="Helvetica,sans-Serif" font-size="10.00">SettingsScene.h</text>
</g>
<!-- Node2 -->
<g id="node2" class="node"><title>Node2</title>
<g id="a_node2"><a xlink:href="_flex_grid_8h.html" target="_top" xlink:title="../../engine/Display\l/FlexGrid.h">
<polygon fill="none" stroke="black" points="429.5,-504.5 429.5,-534.5 528.5,-534.5 528.5,-504.5 429.5,-504.5"/>
<text text-anchor="start" x="437.5" y="-522.5" font-family="Helvetica,sans-Serif" font-size="10.00">../../engine/Display</text>
<text text-anchor="middle" x="479" y="-511.5" font-family="Helvetica,sans-Serif" font-size="10.00">/FlexGrid.h</text>
</a>
</g>
</g>
<!-- Node1&#45;&gt;Node2 -->
<g id="edge1" class="edge"><title>Node1&#45;&gt;Node2</title>
<path fill="none" stroke="midnightblue" d="M425.026,-571.475C433.24,-563.718 445.707,-551.943 456.591,-541.665"/>
<polygon fill="midnightblue" stroke="midnightblue" points="459.285,-543.934 464.152,-534.523 454.479,-538.845 459.285,-543.934"/>
</g>
<!-- Node22 -->
<g id="node22" class="node"><title>Node22</title>
<g id="a_node22"><a xlink:href="_dialog_scene_8h.html" target="_top" xlink:title="DialogScene.h">
<polygon fill="none" stroke="black" points="286,-336.5 286,-355.5 366,-355.5 366,-336.5 286,-336.5"/>
<text text-anchor="middle" x="326" y="-343.5" font-family="Helvetica,sans-Serif" font-size="10.00">DialogScene.h</text>
</a>
</g>
</g>
<!-- Node1&#45;&gt;Node22 -->
<g id="edge29" class="edge"><title>Node1&#45;&gt;Node22</title>
<path fill="none" stroke="midnightblue" d="M412.69,-571.431C399.627,-537.612 351.473,-412.946 333.145,-365.498"/>
<polygon fill="midnightblue" stroke="midnightblue" points="336.304,-363.963 329.436,-355.896 329.774,-366.485 336.304,-363.963"/>
</g>
<!-- Node3 -->
<g id="node3" class="node"><title>Node3</title>
<g id="a_node3"><a xlink:href="_exception_8h.html" target="_top" xlink:title="../Exception.h">
<polygon fill="none" stroke="black" points="387.5,-448.5 387.5,-467.5 464.5,-467.5 464.5,-448.5 387.5,-448.5"/>
<text text-anchor="middle" x="426" y="-455.5" font-family="Helvetica,sans-Serif" font-size="10.00">../Exception.h</text>
</a>
</g>
</g>
<!-- Node2&#45;&gt;Node3 -->
<g id="edge2" class="edge"><title>Node2&#45;&gt;Node3</title>
<path fill="none" stroke="midnightblue" d="M466.44,-504.399C458.659,-495.664 448.636,-484.413 440.516,-475.296"/>
<polygon fill="midnightblue" stroke="midnightblue" points="442.977,-472.797 433.712,-467.658 437.75,-477.453 442.977,-472.797"/>
</g>
<!-- Node5 -->
<g id="node5" class="node"><title>Node5</title>
<g id="a_node5"><a xlink:href="_base_container_8h.html" target="_top" xlink:title="BaseContainer.h">
<polygon fill="none" stroke="black" points="482.5,-448.5 482.5,-467.5 571.5,-467.5 571.5,-448.5 482.5,-448.5"/>
<text text-anchor="middle" x="527" y="-455.5" font-family="Helvetica,sans-Serif" font-size="10.00">BaseContainer.h</text>
</a>
</g>
</g>
<!-- Node2&#45;&gt;Node5 -->
<g id="edge4" class="edge"><title>Node2&#45;&gt;Node5</title>
<path fill="none" stroke="midnightblue" d="M490.375,-504.399C497.35,-495.753 506.314,-484.642 513.628,-475.576"/>
<polygon fill="midnightblue" stroke="midnightblue" points="516.461,-477.638 520.016,-467.658 511.013,-473.243 516.461,-477.638"/>
</g>
<!-- Node21 -->
<g id="node21" class="node"><title>Node21</title>
<g id="a_node21"><a xlink:href="_m_p_l_8h.html" target="_top" xlink:title="MPL.h">
<polygon fill="none" stroke="black" points="589.5,-448.5 589.5,-467.5 634.5,-467.5 634.5,-448.5 589.5,-448.5"/>
<text text-anchor="middle" x="612" y="-455.5" font-family="Helvetica,sans-Serif" font-size="10.00">MPL.h</text>
</a>
</g>
</g>
<!-- Node2&#45;&gt;Node21 -->
<g id="edge28" class="edge"><title>Node2&#45;&gt;Node21</title>
<path fill="none" stroke="midnightblue" d="M510.519,-504.399C532.635,-494.505 561.967,-481.383 583.406,-471.792"/>
<polygon fill="midnightblue" stroke="midnightblue" points="584.948,-474.936 592.647,-467.658 582.09,-468.547 584.948,-474.936"/>
</g>
<!-- Node4 -->
<g id="node4" class="node"><title>Node4</title>
<polygon fill="none" stroke="#bfbfbf" points="396.5,-392.5 396.5,-411.5 455.5,-411.5 455.5,-392.5 396.5,-392.5"/>
<text text-anchor="middle" x="426" y="-399.5" font-family="Helvetica,sans-Serif" font-size="10.00">exception</text>
</g>
<!-- Node3&#45;&gt;Node4 -->
<g id="edge3" class="edge"><title>Node3&#45;&gt;Node4</title>
<path fill="none" stroke="midnightblue" d="M426,-448.083C426,-441.006 426,-430.861 426,-421.986"/>
<polygon fill="midnightblue" stroke="midnightblue" points="429.5,-421.751 426,-411.751 422.5,-421.751 429.5,-421.751"/>
</g>
<!-- Node6 -->
<g id="node6" class="node"><title>Node6</title>
<g id="a_node6"><a xlink:href="_ui_view_model_8h.html" target="_top" xlink:title="UiViewModel.h">
<polygon fill="none" stroke="black" points="518.5,-392.5 518.5,-411.5 601.5,-411.5 601.5,-392.5 518.5,-392.5"/>
<text text-anchor="middle" x="560" y="-399.5" font-family="Helvetica,sans-Serif" font-size="10.00">UiViewModel.h</text>
</a>
</g>
</g>
<!-- Node5&#45;&gt;Node6 -->
<g id="edge5" class="edge"><title>Node5&#45;&gt;Node6</title>
<path fill="none" stroke="midnightblue" d="M532.449,-448.083C537.014,-440.613 543.668,-429.724 549.293,-420.52"/>
<polygon fill="midnightblue" stroke="midnightblue" points="552.424,-422.109 554.652,-411.751 546.451,-418.459 552.424,-422.109"/>
</g>
<!-- Node7 -->
<g id="node7" class="node"><title>Node7</title>
<g id="a_node7"><a xlink:href="_nav_8h.html" target="_top" xlink:title="../Control/Nav.h">
<polygon fill="none" stroke="black" points="566,-336.5 566,-355.5 652,-355.5 652,-336.5 566,-336.5"/>
<text text-anchor="middle" x="609" y="-343.5" font-family="Helvetica,sans-Serif" font-size="10.00">../Control/Nav.h</text>
</a>
</g>
</g>
<!-- Node6&#45;&gt;Node7 -->
<g id="edge6" class="edge"><title>Node6&#45;&gt;Node7</title>
<path fill="none" stroke="midnightblue" d="M568.091,-392.083C575.155,-384.298 585.588,-372.801 594.149,-363.367"/>
<polygon fill="midnightblue" stroke="midnightblue" points="596.931,-365.509 601.059,-355.751 591.747,-360.805 596.931,-365.509"/>
</g>
<!-- Node8 -->
<g id="node8" class="node"><title>Node8</title>
<g id="a_node8"><a xlink:href="_m_r___types_8h.html" target="_top" xlink:title="../Util/MR_Types.h">
<polygon fill="none" stroke="black" points="592,-56.5 592,-75.5 692,-75.5 692,-56.5 592,-56.5"/>
<text text-anchor="middle" x="642" y="-63.5" font-family="Helvetica,sans-Serif" font-size="10.00">../Util/MR_Types.h</text>
</a>
</g>
</g>
<!-- Node6&#45;&gt;Node8 -->
<g id="edge7" class="edge"><title>Node6&#45;&gt;Node8</title>
<path fill="none" stroke="midnightblue" d="M601.661,-395.795C658.13,-386.146 752,-359.765 752,-291 752,-291 752,-291 752,-177 752,-130.91 703.118,-97.3874 670.526,-80.158"/>
<polygon fill="midnightblue" stroke="midnightblue" points="671.914,-76.9379 661.413,-75.5356 668.748,-83.1807 671.914,-76.9379"/>
</g>
<!-- Node10 -->
<g id="node10" class="node"><title>Node10</title>
<g id="a_node10"><a xlink:href="_vec_8h.html" target="_top" xlink:title="../Vec.h">
<polygon fill="none" stroke="black" points="382.5,-168.5 382.5,-187.5 433.5,-187.5 433.5,-168.5 382.5,-168.5"/>
<text text-anchor="middle" x="408" y="-175.5" font-family="Helvetica,sans-Serif" font-size="10.00">../Vec.h</text>
</a>
</g>
</g>
<!-- Node6&#45;&gt;Node10 -->
<g id="edge9" class="edge"><title>Node6&#45;&gt;Node10</title>
<path fill="none" stroke="midnightblue" d="M526.366,-392.456C506.021,-385.682 481.004,-374.248 465,-356 424.073,-309.335 412.47,-232.926 409.23,-197.773"/>
<polygon fill="midnightblue" stroke="midnightblue" points="412.698,-197.229 408.421,-187.535 405.719,-197.78 412.698,-197.229"/>
</g>
<!-- Node11 -->
<g id="node11" class="node"><title>Node11</title>
<g id="a_node11"><a xlink:href="_ui_layout_flags_8h.html" target="_top" xlink:title="UiLayoutFlags.h">
<polygon fill="none" stroke="black" points="636,-224.5 636,-243.5 724,-243.5 724,-224.5 636,-224.5"/>
<text text-anchor="middle" x="680" y="-231.5" font-family="Helvetica,sans-Serif" font-size="10.00">UiLayoutFlags.h</text>
</a>
</g>
</g>
<!-- Node6&#45;&gt;Node11 -->
<g id="edge10" class="edge"><title>Node6&#45;&gt;Node11</title>
<path fill="none" stroke="midnightblue" d="M601.575,-392.439C622.57,-385.954 646.583,-374.82 661,-356 683.877,-326.137 684.209,-279.765 682.231,-253.962"/>
<polygon fill="midnightblue" stroke="midnightblue" points="685.683,-253.301 681.232,-243.687 678.716,-253.978 685.683,-253.301"/>
</g>
<!-- Node12 -->
<g id="node12" class="node"><title>Node12</title>
<g id="a_node12"><a xlink:href="_view_model_8h.html" target="_top" xlink:title="ViewModel.h">
<polygon fill="none" stroke="black" points="474.5,-336.5 474.5,-355.5 547.5,-355.5 547.5,-336.5 474.5,-336.5"/>
<text text-anchor="middle" x="511" y="-343.5" font-family="Helvetica,sans-Serif" font-size="10.00">ViewModel.h</text>
</a>
</g>
</g>
<!-- Node6&#45;&gt;Node12 -->
<g id="edge12" class="edge"><title>Node6&#45;&gt;Node12</title>
<path fill="none" stroke="midnightblue" d="M551.909,-392.083C544.845,-384.298 534.412,-372.801 525.851,-363.367"/>
<polygon fill="midnightblue" stroke="midnightblue" points="528.253,-360.805 518.941,-355.751 523.069,-365.509 528.253,-360.805"/>
</g>
<!-- Node9 -->
<g id="node9" class="node"><title>Node9</title>
<polygon fill="none" stroke="#bfbfbf" points="612.5,-0.5 612.5,-19.5 671.5,-19.5 671.5,-0.5 612.5,-0.5"/>
<text text-anchor="middle" x="642" y="-7.5" font-family="Helvetica,sans-Serif" font-size="10.00">inttypes.h</text>
</g>
<!-- Node8&#45;&gt;Node9 -->
<g id="edge8" class="edge"><title>Node8&#45;&gt;Node9</title>
<path fill="none" stroke="midnightblue" d="M642,-56.083C642,-49.0059 642,-38.8611 642,-29.9865"/>
<polygon fill="midnightblue" stroke="midnightblue" points="645.5,-29.751 642,-19.7511 638.5,-29.7511 645.5,-29.751"/>
</g>
<!-- Node11&#45;&gt;Node8 -->
<g id="edge11" class="edge"><title>Node11&#45;&gt;Node8</title>
<path fill="none" stroke="midnightblue" d="M677.957,-224.075C671.975,-197.945 654.41,-121.211 646.253,-85.577"/>
<polygon fill="midnightblue" stroke="midnightblue" points="649.605,-84.5349 643.961,-75.5681 642.781,-86.097 649.605,-84.5349"/>
</g>
<!-- Node13 -->
<g id="node13" class="node"><title>Node13</title>
<g id="a_node13"><a xlink:href="_display_8h.html" target="_top" xlink:title="Display.h">
<polygon fill="none" stroke="black" points="472,-280.5 472,-299.5 530,-299.5 530,-280.5 472,-280.5"/>
<text text-anchor="middle" x="501" y="-287.5" font-family="Helvetica,sans-Serif" font-size="10.00">Display.h</text>
</a>
</g>
</g>
<!-- Node12&#45;&gt;Node13 -->
<g id="edge13" class="edge"><title>Node12&#45;&gt;Node13</title>
<path fill="none" stroke="midnightblue" d="M509.349,-336.083C508.024,-328.927 506.118,-318.635 504.461,-309.691"/>
<polygon fill="midnightblue" stroke="midnightblue" points="507.883,-308.947 502.621,-299.751 501,-310.221 507.883,-308.947"/>
</g>
<!-- Node19 -->
<g id="node19" class="node"><title>Node19</title>
<g id="a_node19"><a xlink:href="_view_attacher_8h.html" target="_top" xlink:title="ViewAttacher.h">
<polygon fill="none" stroke="black" points="534.5,-224.5 534.5,-243.5 617.5,-243.5 617.5,-224.5 534.5,-224.5"/>
<text text-anchor="middle" x="576" y="-231.5" font-family="Helvetica,sans-Serif" font-size="10.00">ViewAttacher.h</text>
</a>
</g>
</g>
<!-- Node12&#45;&gt;Node19 -->
<g id="edge27" class="edge"><title>Node12&#45;&gt;Node19</title>
<path fill="none" stroke="midnightblue" d="M516.468,-336.435C522.187,-327.426 531.374,-312.808 539,-300 548.423,-284.175 558.763,-265.931 566.111,-252.808"/>
<polygon fill="midnightblue" stroke="midnightblue" points="569.267,-254.333 571.082,-243.895 563.154,-250.923 569.267,-254.333"/>
</g>
<!-- Node20 -->
<g id="node20" class="node"><title>Node20</title>
<g id="a_node20"><a xlink:href="_view_8h.html" target="_top" xlink:title="View.h">
<polygon fill="none" stroke="black" points="586.5,-280.5 586.5,-299.5 633.5,-299.5 633.5,-280.5 586.5,-280.5"/>
<text text-anchor="middle" x="610" y="-287.5" font-family="Helvetica,sans-Serif" font-size="10.00">View.h</text>
</a>
</g>
</g>
<!-- Node12&#45;&gt;Node20 -->
<g id="edge26" class="edge"><title>Node12&#45;&gt;Node20</title>
<path fill="none" stroke="midnightblue" d="M526.906,-336.324C542.638,-327.743 566.942,-314.486 585.209,-304.522"/>
<polygon fill="midnightblue" stroke="midnightblue" points="587.03,-307.516 594.133,-299.655 583.678,-301.37 587.03,-307.516"/>
</g>
<!-- Node13&#45;&gt;Node10 -->
<g id="edge14" class="edge"><title>Node13&#45;&gt;Node10</title>
<path fill="none" stroke="midnightblue" d="M490.734,-280.208C480.826,-271.491 465.655,-257.518 454,-244 440.925,-228.834 427.92,-210.022 419.091,-196.544"/>
<polygon fill="midnightblue" stroke="midnightblue" points="421.817,-194.313 413.459,-187.802 415.932,-198.104 421.817,-194.313"/>
</g>
<!-- Node13&#45;&gt;Node11 -->
<g id="edge24" class="edge"><title>Node13&#45;&gt;Node11</title>
<path fill="none" stroke="midnightblue" d="M529.363,-280.444C559.738,-271.28 608.11,-256.688 641.816,-246.519"/>
<polygon fill="midnightblue" stroke="midnightblue" points="643.207,-249.756 651.77,-243.516 641.185,-243.054 643.207,-249.756"/>
</g>
<!-- Node14 -->
<g id="node14" class="node"><title>Node14</title>
<g id="a_node14"><a xlink:href="_styles_8h.html" target="_top" xlink:title="Styles.h">
<polygon fill="none" stroke="black" points="463.5,-224.5 463.5,-243.5 516.5,-243.5 516.5,-224.5 463.5,-224.5"/>
<text text-anchor="middle" x="490" y="-231.5" font-family="Helvetica,sans-Serif" font-size="10.00">Styles.h</text>
</a>
</g>
</g>
<!-- Node13&#45;&gt;Node14 -->
<g id="edge15" class="edge"><title>Node13&#45;&gt;Node14</title>
<path fill="none" stroke="midnightblue" d="M499.184,-280.083C497.726,-272.927 495.629,-262.635 493.807,-253.691"/>
<polygon fill="midnightblue" stroke="midnightblue" points="497.208,-252.851 491.783,-243.751 490.349,-254.248 497.208,-252.851"/>
</g>
<!-- Node13&#45;&gt;Node19 -->
<g id="edge25" class="edge"><title>Node13&#45;&gt;Node19</title>
<path fill="none" stroke="midnightblue" d="M513.05,-280.324C524.463,-272.107 541.831,-259.602 555.435,-249.807"/>
<polygon fill="midnightblue" stroke="midnightblue" points="557.66,-252.517 563.731,-243.834 553.57,-246.837 557.66,-252.517"/>
</g>
<!-- Node14&#45;&gt;Node10 -->
<g id="edge16" class="edge"><title>Node14&#45;&gt;Node10</title>
<path fill="none" stroke="midnightblue" d="M476.825,-224.324C464.153,-215.979 444.767,-203.212 429.794,-193.352"/>
<polygon fill="midnightblue" stroke="midnightblue" points="431.419,-190.231 421.142,-187.655 427.569,-196.078 431.419,-190.231"/>
</g>
<!-- Node15 -->
<g id="node15" class="node"><title>Node15</title>
<g id="a_node15"><a xlink:href="_ui_font_8h.html" target="_top" xlink:title="UiFont.h">
<polygon fill="none" stroke="black" points="463,-168.5 463,-187.5 517,-187.5 517,-168.5 463,-168.5"/>
<text text-anchor="middle" x="490" y="-175.5" font-family="Helvetica,sans-Serif" font-size="10.00">UiFont.h</text>
</a>
</g>
</g>
<!-- Node14&#45;&gt;Node15 -->
<g id="edge17" class="edge"><title>Node14&#45;&gt;Node15</title>
<path fill="none" stroke="midnightblue" d="M490,-224.083C490,-217.006 490,-206.861 490,-197.986"/>
<polygon fill="midnightblue" stroke="midnightblue" points="493.5,-197.751 490,-187.751 486.5,-197.751 493.5,-197.751"/>
</g>
<!-- Node18 -->
<g id="node18" class="node"><title>Node18</title>
<g id="a_node18"><a xlink:href="_color_8h.html" target="_top" xlink:title="Color.h">
<polygon fill="none" stroke="black" points="548,-168.5 548,-187.5 596,-187.5 596,-168.5 548,-168.5"/>
<text text-anchor="middle" x="572" y="-175.5" font-family="Helvetica,sans-Serif" font-size="10.00">Color.h</text>
</a>
</g>
</g>
<!-- Node14&#45;&gt;Node18 -->
<g id="edge21" class="edge"><title>Node14&#45;&gt;Node18</title>
<path fill="none" stroke="midnightblue" d="M503.175,-224.324C515.847,-215.979 535.233,-203.212 550.206,-193.352"/>
<polygon fill="midnightblue" stroke="midnightblue" points="552.431,-196.078 558.858,-187.655 548.581,-190.231 552.431,-196.078"/>
</g>
<!-- Node16 -->
<g id="node16" class="node"><title>Node16</title>
<g id="a_node16"><a xlink:href="_hash_8h.html" target="_top" xlink:title="../Util/Hash.h">
<polygon fill="none" stroke="black" points="437.5,-112.5 437.5,-131.5 512.5,-131.5 512.5,-112.5 437.5,-112.5"/>
<text text-anchor="middle" x="475" y="-119.5" font-family="Helvetica,sans-Serif" font-size="10.00">../Util/Hash.h</text>
</a>
</g>
</g>
<!-- Node15&#45;&gt;Node16 -->
<g id="edge18" class="edge"><title>Node15&#45;&gt;Node16</title>
<path fill="none" stroke="midnightblue" d="M487.523,-168.083C485.514,-160.849 482.614,-150.409 480.11,-141.397"/>
<polygon fill="midnightblue" stroke="midnightblue" points="483.48,-140.449 477.431,-131.751 476.735,-142.323 483.48,-140.449"/>
</g>
<!-- Node17 -->
<g id="node17" class="node"><title>Node17</title>
<g id="a_node17"><a xlink:href="_sel_fmt_8h.html" target="_top" xlink:title="../Util/SelFmt.h">
<polygon fill="none" stroke="black" points="530.5,-112.5 530.5,-131.5 613.5,-131.5 613.5,-112.5 530.5,-112.5"/>
<text text-anchor="middle" x="572" y="-119.5" font-family="Helvetica,sans-Serif" font-size="10.00">../Util/SelFmt.h</text>
</a>
</g>
</g>
<!-- Node15&#45;&gt;Node17 -->
<g id="edge19" class="edge"><title>Node15&#45;&gt;Node17</title>
<path fill="none" stroke="midnightblue" d="M503.175,-168.324C515.847,-159.979 535.233,-147.212 550.206,-137.352"/>
<polygon fill="midnightblue" stroke="midnightblue" points="552.431,-140.078 558.858,-131.655 548.581,-134.231 552.431,-140.078"/>
</g>
<!-- Node17&#45;&gt;Node8 -->
<g id="edge20" class="edge"><title>Node17&#45;&gt;Node8</title>
<path fill="none" stroke="midnightblue" d="M583.247,-112.324C593.797,-104.185 609.801,-91.8395 622.442,-82.0874"/>
<polygon fill="midnightblue" stroke="midnightblue" points="624.769,-84.7132 630.549,-75.8339 620.493,-79.1707 624.769,-84.7132"/>
</g>
<!-- Node18&#45;&gt;Node8 -->
<g id="edge22" class="edge"><title>Node18&#45;&gt;Node8</title>
<path fill="none" stroke="midnightblue" d="M584.878,-168.481C596.194,-160.364 612.321,-147.159 622,-132 631.034,-117.85 636.203,-99.3668 639.013,-85.7286"/>
<polygon fill="midnightblue" stroke="midnightblue" points="642.506,-86.0785 640.851,-75.6137 635.619,-84.8264 642.506,-86.0785"/>
</g>
<!-- Node18&#45;&gt;Node17 -->
<g id="edge23" class="edge"><title>Node18&#45;&gt;Node17</title>
<path fill="none" stroke="midnightblue" d="M572,-168.083C572,-161.006 572,-150.861 572,-141.986"/>
<polygon fill="midnightblue" stroke="midnightblue" points="575.5,-141.751 572,-131.751 568.5,-141.751 575.5,-141.751"/>
</g>
<!-- Node23 -->
<g id="node23" class="node"><title>Node23</title>
<g id="a_node23"><a xlink:href="_game_director_8h.html" target="_top" xlink:title="GameDirector.h">
<polygon fill="none" stroke="black" points="283,-280.5 283,-299.5 369,-299.5 369,-280.5 283,-280.5"/>
<text text-anchor="middle" x="326" y="-287.5" font-family="Helvetica,sans-Serif" font-size="10.00">GameDirector.h</text>
</a>
</g>
</g>
<!-- Node22&#45;&gt;Node23 -->
<g id="edge30" class="edge"><title>Node22&#45;&gt;Node23</title>
<path fill="none" stroke="midnightblue" d="M326,-336.083C326,-329.006 326,-318.861 326,-309.986"/>
<polygon fill="midnightblue" stroke="midnightblue" points="329.5,-309.751 326,-299.751 322.5,-309.751 329.5,-309.751"/>
</g>
<!-- Node24 -->
<g id="node24" class="node"><title>Node24</title>
<g id="a_node24"><a xlink:href="_form_scene_8h.html" target="_top" xlink:title="FormScene.h">
<polygon fill="none" stroke="black" points="189.5,-280.5 189.5,-299.5 264.5,-299.5 264.5,-280.5 189.5,-280.5"/>
<text text-anchor="middle" x="227" y="-287.5" font-family="Helvetica,sans-Serif" font-size="10.00">FormScene.h</text>
</a>
</g>
</g>
<!-- Node22&#45;&gt;Node24 -->
<g id="edge31" class="edge"><title>Node22&#45;&gt;Node24</title>
<path fill="none" stroke="midnightblue" d="M310.094,-336.324C294.362,-327.743 270.058,-314.486 251.791,-304.522"/>
<polygon fill="midnightblue" stroke="midnightblue" points="253.322,-301.37 242.867,-299.655 249.97,-307.516 253.322,-301.37"/>
</g>
<!-- Node24&#45;&gt;Node10 -->
<g id="edge32" class="edge"><title>Node24&#45;&gt;Node10</title>
<path fill="none" stroke="midnightblue" d="M241.203,-280.368C272.395,-261.412 347.117,-216.001 385.058,-192.942"/>
<polygon fill="midnightblue" stroke="midnightblue" points="387.135,-195.776 393.863,-187.591 383.5,-189.794 387.135,-195.776"/>
</g>
<!-- Node25 -->
<g id="node25" class="node"><title>Node25</title>
<g id="a_node25"><a xlink:href="_ui_scene_8h.html" target="_top" xlink:title="UiScene.h">
<polygon fill="none" stroke="black" points="196,-224.5 196,-243.5 258,-243.5 258,-224.5 196,-224.5"/>
<text text-anchor="middle" x="227" y="-231.5" font-family="Helvetica,sans-Serif" font-size="10.00">UiScene.h</text>
</a>
</g>
</g>
<!-- Node24&#45;&gt;Node25 -->
<g id="edge33" class="edge"><title>Node24&#45;&gt;Node25</title>
<path fill="none" stroke="midnightblue" d="M227,-280.083C227,-273.006 227,-262.861 227,-253.986"/>
<polygon fill="midnightblue" stroke="midnightblue" points="230.5,-253.751 227,-243.751 223.5,-253.751 230.5,-253.751"/>
</g>
<!-- Node26 -->
<g id="node26" class="node"><title>Node26</title>
<g id="a_node26"><a xlink:href="_scene_8h.html" target="_top" xlink:title="Scene.h">
<polygon fill="none" stroke="black" points="200.5,-168.5 200.5,-187.5 253.5,-187.5 253.5,-168.5 200.5,-168.5"/>
<text text-anchor="middle" x="227" y="-175.5" font-family="Helvetica,sans-Serif" font-size="10.00">Scene.h</text>
</a>
</g>
</g>
<!-- Node25&#45;&gt;Node26 -->
<g id="edge34" class="edge"><title>Node25&#45;&gt;Node26</title>
<path fill="none" stroke="midnightblue" d="M227,-224.083C227,-217.006 227,-206.861 227,-197.986"/>
<polygon fill="midnightblue" stroke="midnightblue" points="230.5,-197.751 227,-187.751 223.5,-197.751 230.5,-197.751"/>
</g>
<!-- Node27 -->
<g id="node27" class="node"><title>Node27</title>
<g id="a_node27"><a xlink:href="_o_s_8h.html" target="_top" xlink:title="../../engine/Util/OS.h">
<polygon fill="none" stroke="black" points="171.5,-112.5 171.5,-131.5 278.5,-131.5 278.5,-112.5 171.5,-112.5"/>
<text text-anchor="middle" x="225" y="-119.5" font-family="Helvetica,sans-Serif" font-size="10.00">../../engine/Util/OS.h</text>
</a>
</g>
</g>
<!-- Node26&#45;&gt;Node27 -->
<g id="edge35" class="edge"><title>Node26&#45;&gt;Node27</title>
<path fill="none" stroke="midnightblue" d="M226.67,-168.083C226.408,-161.006 226.032,-150.861 225.703,-141.986"/>
<polygon fill="midnightblue" stroke="midnightblue" points="229.192,-141.615 225.324,-131.751 222.197,-141.874 229.192,-141.615"/>
</g>
<!-- Node33 -->
<g id="node33" class="node"><title>Node33</title>
<g id="a_node33"><a xlink:href="_profiler_8h.html" target="_top" xlink:title="../../engine/Util/Profiler.h">
<polygon fill="none" stroke="black" points="296.5,-112.5 296.5,-131.5 419.5,-131.5 419.5,-112.5 296.5,-112.5"/>
<text text-anchor="middle" x="358" y="-119.5" font-family="Helvetica,sans-Serif" font-size="10.00">../../engine/Util/Profiler.h</text>
</a>
</g>
</g>
<!-- Node26&#45;&gt;Node33 -->
<g id="edge42" class="edge"><title>Node26&#45;&gt;Node33</title>
<path fill="none" stroke="midnightblue" d="M247.757,-168.444C269.316,-159.557 303.263,-145.563 327.794,-135.451"/>
<polygon fill="midnightblue" stroke="midnightblue" points="329.428,-138.563 337.34,-131.516 326.761,-132.092 329.428,-138.563"/>
</g>
<!-- Node27&#45;&gt;Node8 -->
<g id="edge41" class="edge"><title>Node27&#45;&gt;Node8</title>
<path fill="none" stroke="midnightblue" d="M278.76,-113.135C281.546,-112.747 284.306,-112.366 287,-112 390.558,-97.9213 511.311,-82.9136 581.942,-74.2774"/>
<polygon fill="midnightblue" stroke="midnightblue" points="582.489,-77.7367 591.991,-73.0504 581.64,-70.7883 582.489,-77.7367"/>
</g>
<!-- Node28 -->
<g id="node28" class="node"><title>Node28</title>
<polygon fill="none" stroke="#bfbfbf" points="186,-56.5 186,-75.5 228,-75.5 228,-56.5 186,-56.5"/>
<text text-anchor="middle" x="207" y="-63.5" font-family="Helvetica,sans-Serif" font-size="10.00">locale</text>
</g>
<!-- Node27&#45;&gt;Node28 -->
<g id="edge36" class="edge"><title>Node27&#45;&gt;Node28</title>
<path fill="none" stroke="midnightblue" d="M222.028,-112.083C219.616,-104.849 216.136,-94.4087 213.132,-85.3968"/>
<polygon fill="midnightblue" stroke="midnightblue" points="216.4,-84.1311 209.917,-75.7511 209.759,-86.3447 216.4,-84.1311"/>
</g>
<!-- Node29 -->
<g id="node29" class="node"><title>Node29</title>
<polygon fill="none" stroke="#bfbfbf" points="246,-56.5 246,-75.5 276,-75.5 276,-56.5 246,-56.5"/>
<text text-anchor="middle" x="261" y="-63.5" font-family="Helvetica,sans-Serif" font-size="10.00">set</text>
</g>
<!-- Node27&#45;&gt;Node29 -->
<g id="edge37" class="edge"><title>Node27&#45;&gt;Node29</title>
<path fill="none" stroke="midnightblue" d="M230.945,-112.083C235.977,-104.534 243.337,-93.4948 249.513,-84.2298"/>
<polygon fill="midnightblue" stroke="midnightblue" points="252.531,-86.0131 255.166,-75.7511 246.707,-82.1301 252.531,-86.0131"/>
</g>
<!-- Node30 -->
<g id="node30" class="node"><title>Node30</title>
<polygon fill="none" stroke="#bfbfbf" points="294.5,-56.5 294.5,-75.5 335.5,-75.5 335.5,-56.5 294.5,-56.5"/>
<text text-anchor="middle" x="315" y="-63.5" font-family="Helvetica,sans-Serif" font-size="10.00">string</text>
</g>
<!-- Node27&#45;&gt;Node30 -->
<g id="edge38" class="edge"><title>Node27&#45;&gt;Node30</title>
<path fill="none" stroke="midnightblue" d="M239.46,-112.324C253.5,-103.9 275.048,-90.9709 291.543,-81.0741"/>
<polygon fill="midnightblue" stroke="midnightblue" points="293.802,-83.8007 300.576,-75.6545 290.2,-77.7983 293.802,-83.8007"/>
</g>
<!-- Node31 -->
<g id="node31" class="node"><title>Node31</title>
<polygon fill="none" stroke="#bfbfbf" points="0,-56.5 0,-75.5 44,-75.5 44,-56.5 0,-56.5"/>
<text text-anchor="middle" x="22" y="-63.5" font-family="Helvetica,sans-Serif" font-size="10.00">vector</text>
</g>
<!-- Node27&#45;&gt;Node31 -->
<g id="edge39" class="edge"><title>Node27&#45;&gt;Node31</title>
<path fill="none" stroke="midnightblue" d="M190.762,-112.491C157.837,-104.222 106.436,-91.0826 54.0437,-76.5123"/>
<polygon fill="midnightblue" stroke="midnightblue" points="54.8267,-73.0971 44.2537,-73.7759 52.9423,-79.8387 54.8267,-73.0971"/>
</g>
<!-- Node32 -->
<g id="node32" class="node"><title>Node32</title>
<polygon fill="none" stroke="#bfbfbf" points="61.5,-56.5 61.5,-75.5 168.5,-75.5 168.5,-56.5 61.5,-56.5"/>
<text text-anchor="middle" x="115" y="-63.5" font-family="Helvetica,sans-Serif" font-size="10.00">boost/filesystem.hpp</text>
</g>
<!-- Node27&#45;&gt;Node32 -->
<g id="edge40" class="edge"><title>Node27&#45;&gt;Node32</title>
<path fill="none" stroke="midnightblue" d="M207.327,-112.324C189.606,-103.625 162.097,-90.1202 141.712,-80.113"/>
<polygon fill="midnightblue" stroke="midnightblue" points="143.149,-76.9195 132.63,-75.6545 140.064,-83.2031 143.149,-76.9195"/>
</g>
<!-- Node34 -->
<g id="node34" class="node"><title>Node34</title>
<polygon fill="none" stroke="#bfbfbf" points="354,-56.5 354,-75.5 400,-75.5 400,-56.5 354,-56.5"/>
<text text-anchor="middle" x="377" y="-63.5" font-family="Helvetica,sans-Serif" font-size="10.00">chrono</text>
</g>
<!-- Node33&#45;&gt;Node34 -->
<g id="edge43" class="edge"><title>Node33&#45;&gt;Node34</title>
<path fill="none" stroke="midnightblue" d="M361.137,-112.083C363.683,-104.849 367.356,-94.4087 370.527,-85.3968"/>
<polygon fill="midnightblue" stroke="midnightblue" points="373.903,-86.3459 373.921,-75.7511 367.3,-84.0225 373.903,-86.3459"/>
</g>
</g>
</svg>
