<?xml version="1.0" encoding="UTF-8" standalone="no"?>
<!DOCTYPE svg PUBLIC "-//W3C//DTD SVG 1.1//EN"
 "http://www.w3.org/Graphics/SVG/1.1/DTD/svg11.dtd">
<!-- Generated by graphviz version 2.38.0 (20140413.2041)
 -->
<!-- Title: SoundServer.h Pages: 1 -->
<svg width="1772pt" height="420pt"
 viewBox="0.00 0.00 1771.50 420.00" xmlns="http://www.w3.org/2000/svg" xmlns:xlink="http://www.w3.org/1999/xlink">
<g id="graph0" class="graph" transform="scale(1 1) rotate(0) translate(4 416)">
<title>SoundServer.h</title>
<!-- Node1 -->
<g id="node1" class="node"><title>Node1</title>
<polygon fill="#bfbfbf" stroke="black" points="987.5,-392.5 987.5,-411.5 1068.5,-411.5 1068.5,-392.5 987.5,-392.5"/>
<text text-anchor="middle" x="1028" y="-399.5" font-family="Helvetica,sans-Serif" font-size="10.00">SoundServer.h</text>
</g>
<!-- Node2 -->
<g id="node2" class="node"><title>Node2</title>
<g id="a_node2"><a xlink:href="_res_sound_8h.html" target="_top" xlink:title="ResSound.h">
<polygon fill="none" stroke="black" points="874.5,-336.5 874.5,-355.5 945.5,-355.5 945.5,-336.5 874.5,-336.5"/>
<text text-anchor="middle" x="910" y="-343.5" font-family="Helvetica,sans-Serif" font-size="10.00">ResSound.h</text>
</a>
</g>
</g>
<!-- Node1&#45;&gt;Node2 -->
<g id="edge1" class="edge"><title>Node1&#45;&gt;Node2</title>
<path fill="none" stroke="midnightblue" d="M1000.1,-388.232C978.027,-378.131 947.824,-364.309 928.61,-355.516"/>
<polygon fill="midnightblue" stroke="midnightblue" points="998.753,-391.465 1009.3,-392.444 1001.67,-385.1 998.753,-391.465"/>
</g>
<!-- Node4 -->
<g id="node4" class="node"><title>Node4</title>
<g id="a_node4"><a xlink:href="_audio_settings_scene_8cpp.html" target="_top" xlink:title="AudioSettingsScene.cpp">
<polygon fill="none" stroke="black" points="28,-224.5 28,-243.5 152,-243.5 152,-224.5 28,-224.5"/>
<text text-anchor="middle" x="90" y="-231.5" font-family="Helvetica,sans-Serif" font-size="10.00">AudioSettingsScene.cpp</text>
</a>
</g>
</g>
<!-- Node1&#45;&gt;Node4 -->
<g id="edge44" class="edge"><title>Node1&#45;&gt;Node4</title>
<path fill="none" stroke="midnightblue" d="M977.087,-391.99C812.804,-362.916 298.158,-271.838 138.038,-243.501"/>
<polygon fill="midnightblue" stroke="midnightblue" points="976.937,-395.518 987.394,-393.814 978.157,-388.625 976.937,-395.518"/>
</g>
<!-- Node13 -->
<g id="node13" class="node"><title>Node13</title>
<g id="a_node13"><a xlink:href="_game_scene_8cpp.html" target="_top" xlink:title="GameScene.cpp">
<polygon fill="none" stroke="black" points="641.5,-56.5 641.5,-75.5 730.5,-75.5 730.5,-56.5 641.5,-56.5"/>
<text text-anchor="middle" x="686" y="-63.5" font-family="Helvetica,sans-Serif" font-size="10.00">GameScene.cpp</text>
</a>
</g>
</g>
<!-- Node1&#45;&gt;Node13 -->
<g id="edge45" class="edge"><title>Node1&#45;&gt;Node13</title>
<path fill="none" stroke="midnightblue" d="M977.087,-400.961C769.755,-400.141 0,-390.404 0,-291 0,-291 0,-291 0,-177 0,-121.737 53.4346,-129.056 106,-112 205.429,-79.7383 523.28,-70.2277 641.315,-67.7689"/>
<polygon fill="midnightblue" stroke="midnightblue" points="977.373,-404.462 987.385,-400.996 977.397,-397.462 977.373,-404.462"/>
</g>
<!-- Node39 -->
<g id="node39" class="node"><title>Node39</title>
<g id="a_node39"><a xlink:href="_main_menu_scene_8cpp.html" target="_top" xlink:title="MainMenuScene.cpp">
<polygon fill="none" stroke="black" points="1110,-336.5 1110,-355.5 1218,-355.5 1218,-336.5 1110,-336.5"/>
<text text-anchor="middle" x="1164" y="-343.5" font-family="Helvetica,sans-Serif" font-size="10.00">MainMenuScene.cpp</text>
</a>
</g>
</g>
<!-- Node1&#45;&gt;Node39 -->
<g id="edge46" class="edge"><title>Node1&#45;&gt;Node39</title>
<path fill="none" stroke="midnightblue" d="M1059.13,-388.638C1084.66,-378.504 1120.11,-364.427 1142.55,-355.516"/>
<polygon fill="midnightblue" stroke="midnightblue" points="1057.55,-385.5 1049.55,-392.444 1060.14,-392.006 1057.55,-385.5"/>
</g>
<!-- Node40 -->
<g id="node40" class="node"><title>Node40</title>
<g id="a_node40"><a xlink:href="_engine_8cpp.html" target="_top" xlink:title="Engine.cpp">
<polygon fill="none" stroke="black" points="1236.5,-336.5 1236.5,-355.5 1301.5,-355.5 1301.5,-336.5 1236.5,-336.5"/>
<text text-anchor="middle" x="1269" y="-343.5" font-family="Helvetica,sans-Serif" font-size="10.00">Engine.cpp</text>
</a>
</g>
</g>
<!-- Node1&#45;&gt;Node40 -->
<g id="edge47" class="edge"><title>Node1&#45;&gt;Node40</title>
<path fill="none" stroke="midnightblue" d="M1075.95,-390.256C1123.51,-379.6 1195.08,-363.563 1236.4,-354.304"/>
<polygon fill="midnightblue" stroke="midnightblue" points="1075.18,-386.842 1066.19,-392.444 1076.71,-393.672 1075.18,-386.842"/>
</g>
<!-- Node41 -->
<g id="node41" class="node"><title>Node41</title>
<g id="a_node41"><a xlink:href="_main_character_renderer_8h.html" target="_top" xlink:title="MainCharacterRenderer.h">
<polygon fill="none" stroke="black" points="964,-336.5 964,-355.5 1092,-355.5 1092,-336.5 964,-336.5"/>
<text text-anchor="middle" x="1028" y="-343.5" font-family="Helvetica,sans-Serif" font-size="10.00">MainCharacterRenderer.h</text>
</a>
</g>
</g>
<!-- Node1&#45;&gt;Node41 -->
<g id="edge48" class="edge"><title>Node1&#45;&gt;Node41</title>
<path fill="none" stroke="midnightblue" d="M1028,-381.805C1028,-372.91 1028,-362.78 1028,-355.751"/>
<polygon fill="midnightblue" stroke="midnightblue" points="1024.5,-382.083 1028,-392.083 1031.5,-382.083 1024.5,-382.083"/>
</g>
<!-- Node45 -->
<g id="node45" class="node"><title>Node45</title>
<g id="a_node45"><a xlink:href="_sound_server_8cpp.html" target="_top" xlink:title="SoundServer.cpp">
<polygon fill="none" stroke="black" points="1320,-336.5 1320,-355.5 1412,-355.5 1412,-336.5 1320,-336.5"/>
<text text-anchor="middle" x="1366" y="-343.5" font-family="Helvetica,sans-Serif" font-size="10.00">SoundServer.cpp</text>
</a>
</g>
</g>
<!-- Node1&#45;&gt;Node45 -->
<g id="edge54" class="edge"><title>Node1&#45;&gt;Node45</title>
<path fill="none" stroke="midnightblue" d="M1078.72,-392.923C1135.18,-383.93 1229.12,-368.953 1310,-356 1313.21,-355.486 1316.52,-354.955 1319.86,-354.42"/>
<polygon fill="midnightblue" stroke="midnightblue" points="1077.96,-389.501 1068.63,-394.531 1079.06,-396.414 1077.96,-389.501"/>
</g>
<!-- Node3 -->
<g id="node3" class="node"><title>Node3</title>
<g id="a_node3"><a xlink:href="_resource_lib_8h.html" target="_top" xlink:title="ResourceLib.h">
<polygon fill="none" stroke="black" points="781,-280.5 781,-299.5 861,-299.5 861,-280.5 781,-280.5"/>
<text text-anchor="middle" x="821" y="-287.5" font-family="Helvetica,sans-Serif" font-size="10.00">ResourceLib.h</text>
</a>
</g>
</g>
<!-- Node2&#45;&gt;Node3 -->
<g id="edge2" class="edge"><title>Node2&#45;&gt;Node3</title>
<path fill="none" stroke="midnightblue" d="M886.762,-330.901C870.442,-320.999 849.135,-308.071 835.264,-299.655"/>
<polygon fill="midnightblue" stroke="midnightblue" points="885.336,-334.129 895.701,-336.324 888.967,-328.144 885.336,-334.129"/>
</g>
<!-- Node38 -->
<g id="node38" class="node"><title>Node38</title>
<g id="a_node38"><a xlink:href="_res_sound_8cpp.html" target="_top" xlink:title="ResSound.cpp">
<polygon fill="none" stroke="black" points="879.5,-280.5 879.5,-299.5 960.5,-299.5 960.5,-280.5 879.5,-280.5"/>
<text text-anchor="middle" x="920" y="-287.5" font-family="Helvetica,sans-Serif" font-size="10.00">ResSound.cpp</text>
</a>
</g>
</g>
<!-- Node2&#45;&gt;Node38 -->
<g id="edge43" class="edge"><title>Node2&#45;&gt;Node38</title>
<path fill="none" stroke="midnightblue" d="M913.5,-326.101C915.16,-317.136 917.063,-306.858 918.379,-299.751"/>
<polygon fill="midnightblue" stroke="midnightblue" points="910.031,-325.613 911.651,-336.083 916.914,-326.888 910.031,-325.613"/>
</g>
<!-- Node3&#45;&gt;Node4 -->
<g id="edge3" class="edge"><title>Node3&#45;&gt;Node4</title>
<path fill="none" stroke="midnightblue" d="M770.566,-286.561C659.998,-280.996 388.01,-266.108 161,-244 158.156,-243.723 155.249,-243.423 152.315,-243.107"/>
<polygon fill="midnightblue" stroke="midnightblue" points="770.593,-290.067 780.755,-287.071 770.942,-283.076 770.593,-290.067"/>
</g>
<!-- Node5 -->
<g id="node5" class="node"><title>Node5</title>
<g id="a_node5"><a xlink:href="_sprite_handle_8h.html" target="_top" xlink:title="SpriteHandle.h">
<polygon fill="none" stroke="black" points="1357.5,-224.5 1357.5,-243.5 1438.5,-243.5 1438.5,-224.5 1357.5,-224.5"/>
<text text-anchor="middle" x="1398" y="-231.5" font-family="Helvetica,sans-Serif" font-size="10.00">SpriteHandle.h</text>
</a>
</g>
</g>
<!-- Node3&#45;&gt;Node5 -->
<g id="edge4" class="edge"><title>Node3&#45;&gt;Node5</title>
<path fill="none" stroke="midnightblue" d="M871.159,-279.989C1080.83,-253.413 1136.93,-268.655 1343,-244 1347.61,-243.448 1352.43,-242.787 1357.21,-242.077"/>
<polygon fill="midnightblue" stroke="midnightblue" points="870.53,-276.541 861.057,-281.286 871.422,-283.484 870.53,-276.541"/>
</g>
<!-- Node17 -->
<g id="node17" class="node"><title>Node17</title>
<g id="a_node17"><a xlink:href="_obj_fac1_8cpp.html" target="_top" xlink:title="ObjFac1.cpp">
<polygon fill="none" stroke="black" points="1156,-112.5 1156,-131.5 1228,-131.5 1228,-112.5 1156,-112.5"/>
<text text-anchor="middle" x="1192" y="-119.5" font-family="Helvetica,sans-Serif" font-size="10.00">ObjFac1.cpp</text>
</a>
</g>
</g>
<!-- Node3&#45;&gt;Node17 -->
<g id="edge38" class="edge"><title>Node3&#45;&gt;Node17</title>
<path fill="none" stroke="midnightblue" d="M871.072,-280.304C951.489,-274.078 1278.32,-278.381 1310,-244 1349.77,-200.845 1255.38,-151.267 1212.18,-131.642"/>
<polygon fill="midnightblue" stroke="midnightblue" points="870.662,-276.828 861.06,-281.305 871.358,-283.793 870.662,-276.828"/>
</g>
<!-- Node18 -->
<g id="node18" class="node"><title>Node18</title>
<g id="a_node18"><a xlink:href="_res_bundle_8cpp.html" target="_top" xlink:title="ResBundle.cpp">
<polygon fill="none" stroke="black" points="438.5,-224.5 438.5,-243.5 521.5,-243.5 521.5,-224.5 438.5,-224.5"/>
<text text-anchor="middle" x="480" y="-231.5" font-family="Helvetica,sans-Serif" font-size="10.00">ResBundle.cpp</text>
</a>
</g>
</g>
<!-- Node3&#45;&gt;Node18 -->
<g id="edge19" class="edge"><title>Node3&#45;&gt;Node18</title>
<path fill="none" stroke="midnightblue" d="M770.629,-281.507C712.745,-272.822 614.927,-257.915 531,-244 527.984,-243.5 524.87,-242.974 521.736,-242.438"/>
<polygon fill="midnightblue" stroke="midnightblue" points="770.203,-284.983 780.611,-283.003 771.24,-278.06 770.203,-284.983"/>
</g>
<!-- Node19 -->
<g id="node19" class="node"><title>Node19</title>
<g id="a_node19"><a xlink:href="_ball_element_8cpp.html" target="_top" xlink:title="BallElement.cpp">
<polygon fill="none" stroke="black" points="540,-224.5 540,-243.5 628,-243.5 628,-224.5 540,-224.5"/>
<text text-anchor="middle" x="584" y="-231.5" font-family="Helvetica,sans-Serif" font-size="10.00">BallElement.cpp</text>
</a>
</g>
</g>
<!-- Node3&#45;&gt;Node19 -->
<g id="edge20" class="edge"><title>Node3&#45;&gt;Node19</title>
<path fill="none" stroke="midnightblue" d="M773.676,-278.217C728.892,-268.013 662.564,-252.901 621.378,-243.516"/>
<polygon fill="midnightblue" stroke="midnightblue" points="772.919,-281.634 783.447,-280.444 774.474,-274.809 772.919,-281.634"/>
</g>
<!-- Node20 -->
<g id="node20" class="node"><title>Node20</title>
<g id="a_node20"><a xlink:href="_bumper_gate_8cpp.html" target="_top" xlink:title="BumperGate.cpp">
<polygon fill="none" stroke="black" points="646,-224.5 646,-243.5 736,-243.5 736,-224.5 646,-224.5"/>
<text text-anchor="middle" x="691" y="-231.5" font-family="Helvetica,sans-Serif" font-size="10.00">BumperGate.cpp</text>
</a>
</g>
</g>
<!-- Node3&#45;&gt;Node20 -->
<g id="edge21" class="edge"><title>Node3&#45;&gt;Node20</title>
<path fill="none" stroke="midnightblue" d="M790.915,-276.503C766.543,-266.38 732.86,-252.388 711.503,-243.516"/>
<polygon fill="midnightblue" stroke="midnightblue" points="789.823,-279.84 800.401,-280.444 792.509,-273.375 789.823,-279.84"/>
</g>
<!-- Node21 -->
<g id="node21" class="node"><title>Node21</title>
<g id="a_node21"><a xlink:href="_bitmap_surface_8h.html" target="_top" xlink:title="BitmapSurface.h">
<polygon fill="none" stroke="black" points="331.5,-224.5 331.5,-243.5 420.5,-243.5 420.5,-224.5 331.5,-224.5"/>
<text text-anchor="middle" x="376" y="-231.5" font-family="Helvetica,sans-Serif" font-size="10.00">BitmapSurface.h</text>
</a>
</g>
</g>
<!-- Node3&#45;&gt;Node21 -->
<g id="edge22" class="edge"><title>Node3&#45;&gt;Node21</title>
<path fill="none" stroke="midnightblue" d="M770.779,-284.11C696.099,-276.64 551.422,-261.408 429,-244 426.228,-243.606 423.378,-243.18 420.506,-242.737"/>
<polygon fill="midnightblue" stroke="midnightblue" points="770.545,-287.604 780.842,-285.112 771.238,-280.638 770.545,-287.604"/>
</g>
<!-- Node27 -->
<g id="node27" class="node"><title>Node27</title>
<g id="a_node27"><a xlink:href="_free_element_base_renderer_8h.html" target="_top" xlink:title="FreeElementBaseRenderer.h">
<polygon fill="none" stroke="black" points="170.5,-224.5 170.5,-243.5 313.5,-243.5 313.5,-224.5 170.5,-224.5"/>
<text text-anchor="middle" x="242" y="-231.5" font-family="Helvetica,sans-Serif" font-size="10.00">FreeElementBaseRenderer.h</text>
</a>
</g>
</g>
<!-- Node3&#45;&gt;Node27 -->
<g id="edge30" class="edge"><title>Node3&#45;&gt;Node27</title>
<path fill="none" stroke="midnightblue" d="M770.672,-284.832C680.62,-277.29 485.991,-260.617 322,-244 319.219,-243.718 316.384,-243.426 313.521,-243.125"/>
<polygon fill="midnightblue" stroke="midnightblue" points="770.612,-288.339 780.869,-285.684 771.195,-281.363 770.612,-288.339"/>
</g>
<!-- Node31 -->
<g id="node31" class="node"><title>Node31</title>
<g id="a_node31"><a xlink:href="_hover_render_8cpp.html" target="_top" xlink:title="HoverRender.cpp">
<polygon fill="none" stroke="black" points="1456.5,-224.5 1456.5,-243.5 1549.5,-243.5 1549.5,-224.5 1456.5,-224.5"/>
<text text-anchor="middle" x="1503" y="-231.5" font-family="Helvetica,sans-Serif" font-size="10.00">HoverRender.cpp</text>
</a>
</g>
</g>
<!-- Node3&#45;&gt;Node31 -->
<g id="edge35" class="edge"><title>Node3&#45;&gt;Node31</title>
<path fill="none" stroke="midnightblue" d="M871.011,-280.03C1126.76,-249.329 1194.88,-272.058 1447,-244 1450.03,-243.662 1453.15,-243.275 1456.3,-242.854"/>
<polygon fill="midnightblue" stroke="midnightblue" points="870.556,-276.56 861.051,-281.241 871.401,-283.509 870.556,-276.56"/>
</g>
<!-- Node32 -->
<g id="node32" class="node"><title>Node32</title>
<g id="a_node32"><a xlink:href="_mine_8cpp.html" target="_top" xlink:title="Mine.cpp">
<polygon fill="none" stroke="black" points="754,-224.5 754,-243.5 810,-243.5 810,-224.5 754,-224.5"/>
<text text-anchor="middle" x="782" y="-231.5" font-family="Helvetica,sans-Serif" font-size="10.00">Mine.cpp</text>
</a>
</g>
</g>
<!-- Node3&#45;&gt;Node32 -->
<g id="edge36" class="edge"><title>Node3&#45;&gt;Node32</title>
<path fill="none" stroke="midnightblue" d="M808.618,-271.855C801.865,-262.505 793.791,-251.327 788.32,-243.751"/>
<polygon fill="midnightblue" stroke="midnightblue" points="805.868,-274.025 814.56,-280.083 811.542,-269.927 805.868,-274.025"/>
</g>
<!-- Node33 -->
<g id="node33" class="node"><title>Node33</title>
<g id="a_node33"><a xlink:href="_missile_8cpp.html" target="_top" xlink:title="Missile.cpp">
<polygon fill="none" stroke="black" points="828,-224.5 828,-243.5 894,-243.5 894,-224.5 828,-224.5"/>
<text text-anchor="middle" x="861" y="-231.5" font-family="Helvetica,sans-Serif" font-size="10.00">Missile.cpp</text>
</a>
</g>
</g>
<!-- Node3&#45;&gt;Node33 -->
<g id="edge37" class="edge"><title>Node3&#45;&gt;Node33</title>
<path fill="none" stroke="midnightblue" d="M833.7,-271.855C840.626,-262.505 848.906,-251.327 854.518,-243.751"/>
<polygon fill="midnightblue" stroke="midnightblue" points="830.745,-269.964 827.605,-280.083 836.37,-274.131 830.745,-269.964"/>
</g>
<!-- Node34 -->
<g id="node34" class="node"><title>Node34</title>
<g id="a_node34"><a xlink:href="_power_up_8cpp.html" target="_top" xlink:title="PowerUp.cpp">
<polygon fill="none" stroke="black" points="912,-224.5 912,-243.5 988,-243.5 988,-224.5 912,-224.5"/>
<text text-anchor="middle" x="950" y="-231.5" font-family="Helvetica,sans-Serif" font-size="10.00">PowerUp.cpp</text>
</a>
</g>
</g>
<!-- Node3&#45;&gt;Node34 -->
<g id="edge39" class="edge"><title>Node3&#45;&gt;Node34</title>
<path fill="none" stroke="midnightblue" d="M850.854,-276.503C875.038,-266.38 908.462,-252.388 929.655,-243.516"/>
<polygon fill="midnightblue" stroke="midnightblue" points="849.313,-273.354 841.44,-280.444 852.016,-279.811 849.313,-273.354"/>
</g>
<!-- Node35 -->
<g id="node35" class="node"><title>Node35</title>
<g id="a_node35"><a xlink:href="_test_element_8cpp.html" target="_top" xlink:title="TestElement.cpp">
<polygon fill="none" stroke="black" points="1006.5,-224.5 1006.5,-243.5 1097.5,-243.5 1097.5,-224.5 1006.5,-224.5"/>
<text text-anchor="middle" x="1052" y="-231.5" font-family="Helvetica,sans-Serif" font-size="10.00">TestElement.cpp</text>
</a>
</g>
</g>
<!-- Node3&#45;&gt;Node35 -->
<g id="edge40" class="edge"><title>Node3&#45;&gt;Node35</title>
<path fill="none" stroke="midnightblue" d="M867.402,-278.153C911.047,-267.95 975.51,-252.881 1015.57,-243.516"/>
<polygon fill="midnightblue" stroke="midnightblue" points="866.543,-274.759 857.603,-280.444 868.137,-281.575 866.543,-274.759"/>
</g>
<!-- Node36 -->
<g id="node36" class="node"><title>Node36</title>
<g id="a_node36"><a xlink:href="_res_actor_8cpp.html" target="_top" xlink:title="ResActor.cpp">
<polygon fill="none" stroke="black" points="1115.5,-224.5 1115.5,-243.5 1192.5,-243.5 1192.5,-224.5 1115.5,-224.5"/>
<text text-anchor="middle" x="1154" y="-231.5" font-family="Helvetica,sans-Serif" font-size="10.00">ResActor.cpp</text>
</a>
</g>
</g>
<!-- Node3&#45;&gt;Node36 -->
<g id="edge41" class="edge"><title>Node3&#45;&gt;Node36</title>
<path fill="none" stroke="midnightblue" d="M871.172,-279.847C976.326,-262.36 1004.56,-261.241 1106,-244 1109.01,-243.489 1112.12,-242.943 1115.25,-242.383"/>
<polygon fill="midnightblue" stroke="midnightblue" points="870.379,-276.431 861.094,-281.534 871.535,-283.335 870.379,-276.431"/>
</g>
<!-- Node37 -->
<g id="node37" class="node"><title>Node37</title>
<g id="a_node37"><a xlink:href="_resource_lib_8cpp.html" target="_top" xlink:title="ResourceLib.cpp">
<polygon fill="none" stroke="black" points="1211,-224.5 1211,-243.5 1301,-243.5 1301,-224.5 1211,-224.5"/>
<text text-anchor="middle" x="1256" y="-231.5" font-family="Helvetica,sans-Serif" font-size="10.00">ResourceLib.cpp</text>
</a>
</g>
</g>
<!-- Node3&#45;&gt;Node37 -->
<g id="edge42" class="edge"><title>Node3&#45;&gt;Node37</title>
<path fill="none" stroke="midnightblue" d="M871.365,-279.9C1018.19,-258.846 1057.67,-263.507 1201,-244 1204.16,-243.569 1207.43,-243.1 1210.71,-242.61"/>
<polygon fill="midnightblue" stroke="midnightblue" points="870.466,-276.494 861.072,-281.393 871.471,-283.421 870.466,-276.494"/>
</g>
<!-- Node6 -->
<g id="node6" class="node"><title>Node6</title>
<g id="a_node6"><a xlink:href="_observer_8h.html" target="_top" xlink:title="Observer.h">
<polygon fill="none" stroke="black" points="1606.5,-168.5 1606.5,-187.5 1671.5,-187.5 1671.5,-168.5 1606.5,-168.5"/>
<text text-anchor="middle" x="1639" y="-175.5" font-family="Helvetica,sans-Serif" font-size="10.00">Observer.h</text>
</a>
</g>
</g>
<!-- Node5&#45;&gt;Node6 -->
<g id="edge5" class="edge"><title>Node5&#45;&gt;Node6</title>
<path fill="none" stroke="midnightblue" d="M1445.95,-222.256C1493.51,-211.6 1565.08,-195.563 1606.4,-186.304"/>
<polygon fill="midnightblue" stroke="midnightblue" points="1445.18,-218.842 1436.19,-224.444 1446.71,-225.672 1445.18,-218.842"/>
</g>
<!-- Node5&#45;&gt;Node17 -->
<g id="edge18" class="edge"><title>Node5&#45;&gt;Node17</title>
<path fill="none" stroke="midnightblue" d="M1387.57,-215.789C1377.79,-201.063 1361.88,-180.343 1343,-168 1307.74,-144.946 1260.26,-133.344 1228.02,-127.759"/>
<polygon fill="midnightblue" stroke="midnightblue" points="1384.76,-217.892 1393.07,-224.453 1390.66,-214.136 1384.76,-217.892"/>
</g>
<!-- Node7 -->
<g id="node7" class="node"><title>Node7</title>
<g id="a_node7"><a xlink:href="_game_scene_8h.html" target="_top" xlink:title="GameScene.h">
<polygon fill="none" stroke="black" points="1553.5,-112.5 1553.5,-131.5 1632.5,-131.5 1632.5,-112.5 1553.5,-112.5"/>
<text text-anchor="middle" x="1593" y="-119.5" font-family="Helvetica,sans-Serif" font-size="10.00">GameScene.h</text>
</a>
</g>
</g>
<!-- Node6&#45;&gt;Node7 -->
<g id="edge6" class="edge"><title>Node6&#45;&gt;Node7</title>
<path fill="none" stroke="midnightblue" d="M1624.89,-160.431C1616.82,-150.967 1607.04,-139.483 1600.45,-131.751"/>
<polygon fill="midnightblue" stroke="midnightblue" points="1622.25,-162.74 1631.4,-168.083 1627.58,-158.201 1622.25,-162.74"/>
</g>
<!-- Node14 -->
<g id="node14" class="node"><title>Node14</title>
<g id="a_node14"><a xlink:href="_client_app_8h.html" target="_top" xlink:title="ClientApp.h">
<polygon fill="none" stroke="black" points="1651,-112.5 1651,-131.5 1719,-131.5 1719,-112.5 1651,-112.5"/>
<text text-anchor="middle" x="1685" y="-119.5" font-family="Helvetica,sans-Serif" font-size="10.00">ClientApp.h</text>
</a>
</g>
</g>
<!-- Node6&#45;&gt;Node14 -->
<g id="edge14" class="edge"><title>Node6&#45;&gt;Node14</title>
<path fill="none" stroke="midnightblue" d="M1653.11,-160.431C1661.18,-150.967 1670.96,-139.483 1677.55,-131.751"/>
<polygon fill="midnightblue" stroke="midnightblue" points="1650.42,-158.201 1646.6,-168.083 1655.75,-162.74 1650.42,-158.201"/>
</g>
<!-- Node16 -->
<g id="node16" class="node"><title>Node16</title>
<g id="a_node16"><a xlink:href="_observer_8cpp.html" target="_top" xlink:title="Observer.cpp">
<polygon fill="none" stroke="black" points="1460.5,-112.5 1460.5,-131.5 1535.5,-131.5 1535.5,-112.5 1460.5,-112.5"/>
<text text-anchor="middle" x="1498" y="-119.5" font-family="Helvetica,sans-Serif" font-size="10.00">Observer.cpp</text>
</a>
</g>
</g>
<!-- Node6&#45;&gt;Node16 -->
<g id="edge17" class="edge"><title>Node6&#45;&gt;Node16</title>
<path fill="none" stroke="midnightblue" d="M1607.07,-164.772C1580.59,-154.629 1543.61,-140.467 1520.24,-131.516"/>
<polygon fill="midnightblue" stroke="midnightblue" points="1606.07,-168.136 1616.66,-168.444 1608.57,-161.599 1606.07,-168.136"/>
</g>
<!-- Node8 -->
<g id="node8" class="node"><title>Node8</title>
<g id="a_node8"><a xlink:href="_demo_game_scene_8h.html" target="_top" xlink:title="DemoGameScene.h">
<polygon fill="none" stroke="black" points="1427.5,-56.5 1427.5,-75.5 1532.5,-75.5 1532.5,-56.5 1427.5,-56.5"/>
<text text-anchor="middle" x="1480" y="-63.5" font-family="Helvetica,sans-Serif" font-size="10.00">DemoGameScene.h</text>
</a>
</g>
</g>
<!-- Node7&#45;&gt;Node8 -->
<g id="edge7" class="edge"><title>Node7&#45;&gt;Node8</title>
<path fill="none" stroke="midnightblue" d="M1566,-108.096C1544.89,-98.0073 1516.14,-84.2697 1497.82,-75.5164"/>
<polygon fill="midnightblue" stroke="midnightblue" points="1564.56,-111.29 1575.09,-112.444 1567.58,-104.974 1564.56,-111.29"/>
</g>
<!-- Node11 -->
<g id="node11" class="node"><title>Node11</title>
<g id="a_node11"><a xlink:href="_play_game_scene_8h.html" target="_top" xlink:title="PlayGameScene.h">
<polygon fill="none" stroke="black" points="1551,-56.5 1551,-75.5 1649,-75.5 1649,-56.5 1551,-56.5"/>
<text text-anchor="middle" x="1600" y="-63.5" font-family="Helvetica,sans-Serif" font-size="10.00">PlayGameScene.h</text>
</a>
</g>
</g>
<!-- Node7&#45;&gt;Node11 -->
<g id="edge10" class="edge"><title>Node7&#45;&gt;Node11</title>
<path fill="none" stroke="midnightblue" d="M1595.45,-102.101C1596.61,-93.1357 1597.94,-82.8579 1598.87,-75.7511"/>
<polygon fill="midnightblue" stroke="midnightblue" points="1591.97,-101.716 1594.16,-112.083 1598.91,-102.616 1591.97,-101.716"/>
</g>
<!-- Node7&#45;&gt;Node13 -->
<g id="edge13" class="edge"><title>Node7&#45;&gt;Node13</title>
<path fill="none" stroke="midnightblue" d="M1543.18,-112.085C1226.33,-75.452 857.068,-68.627 730.833,-67.3128"/>
<polygon fill="midnightblue" stroke="midnightblue" points="1543.15,-115.605 1553.49,-113.289 1543.96,-108.652 1543.15,-115.605"/>
</g>
<!-- Node9 -->
<g id="node9" class="node"><title>Node9</title>
<g id="a_node9"><a xlink:href="_client_app_8cpp.html" target="_top" xlink:title="ClientApp.cpp">
<polygon fill="none" stroke="black" points="1558,-0.5 1558,-19.5 1636,-19.5 1636,-0.5 1558,-0.5"/>
<text text-anchor="middle" x="1597" y="-7.5" font-family="Helvetica,sans-Serif" font-size="10.00">ClientApp.cpp</text>
</a>
</g>
</g>
<!-- Node8&#45;&gt;Node9 -->
<g id="edge8" class="edge"><title>Node8&#45;&gt;Node9</title>
<path fill="none" stroke="midnightblue" d="M1507.66,-52.2321C1529.55,-42.1312 1559.5,-28.3091 1578.55,-19.5164"/>
<polygon fill="midnightblue" stroke="midnightblue" points="1506.15,-49.075 1498.54,-56.4435 1509.09,-55.4308 1506.15,-49.075"/>
</g>
<!-- Node10 -->
<g id="node10" class="node"><title>Node10</title>
<g id="a_node10"><a xlink:href="_demo_game_scene_8cpp.html" target="_top" xlink:title="DemoGameScene.cpp">
<polygon fill="none" stroke="black" points="1422,-0.5 1422,-19.5 1538,-19.5 1538,-0.5 1422,-0.5"/>
<text text-anchor="middle" x="1480" y="-7.5" font-family="Helvetica,sans-Serif" font-size="10.00">DemoGameScene.cpp</text>
</a>
</g>
</g>
<!-- Node8&#45;&gt;Node10 -->
<g id="edge9" class="edge"><title>Node8&#45;&gt;Node10</title>
<path fill="none" stroke="midnightblue" d="M1480,-45.8045C1480,-36.9102 1480,-26.7798 1480,-19.7511"/>
<polygon fill="midnightblue" stroke="midnightblue" points="1476.5,-46.083 1480,-56.083 1483.5,-46.083 1476.5,-46.083"/>
</g>
<!-- Node11&#45;&gt;Node9 -->
<g id="edge11" class="edge"><title>Node11&#45;&gt;Node9</title>
<path fill="none" stroke="midnightblue" d="M1598.93,-45.8045C1598.44,-36.9102 1597.88,-26.7798 1597.49,-19.7511"/>
<polygon fill="midnightblue" stroke="midnightblue" points="1595.46,-46.2926 1599.5,-56.083 1602.44,-45.9042 1595.46,-46.2926"/>
</g>
<!-- Node12 -->
<g id="node12" class="node"><title>Node12</title>
<g id="a_node12"><a xlink:href="_play_game_scene_8cpp.html" target="_top" xlink:title="PlayGameScene.cpp">
<polygon fill="none" stroke="black" points="1654.5,-0.5 1654.5,-19.5 1763.5,-19.5 1763.5,-0.5 1654.5,-0.5"/>
<text text-anchor="middle" x="1709" y="-7.5" font-family="Helvetica,sans-Serif" font-size="10.00">PlayGameScene.cpp</text>
</a>
</g>
</g>
<!-- Node11&#45;&gt;Node12 -->
<g id="edge12" class="edge"><title>Node11&#45;&gt;Node12</title>
<path fill="none" stroke="midnightblue" d="M1626.52,-51.8622C1646.73,-41.8492 1673.99,-28.3458 1691.53,-19.6545"/>
<polygon fill="midnightblue" stroke="midnightblue" points="1624.92,-48.7485 1617.51,-56.324 1628.03,-55.0209 1624.92,-48.7485"/>
</g>
<!-- Node14&#45;&gt;Node9 -->
<g id="edge15" class="edge"><title>Node14&#45;&gt;Node9</title>
<path fill="none" stroke="midnightblue" d="M1680.21,-102.404C1676,-88.5853 1668.82,-69.8151 1658,-56 1645.75,-40.3559 1626.73,-27.5107 1613.18,-19.6055"/>
<polygon fill="midnightblue" stroke="midnightblue" points="1676.9,-103.553 1682.97,-112.235 1683.64,-101.661 1676.9,-103.553"/>
</g>
<!-- Node15 -->
<g id="node15" class="node"><title>Node15</title>
<g id="a_node15"><a xlink:href="main_8cpp.html" target="_top" xlink:title="main.cpp">
<polygon fill="none" stroke="black" points="1705,-56.5 1705,-75.5 1761,-75.5 1761,-56.5 1705,-56.5"/>
<text text-anchor="middle" x="1733" y="-63.5" font-family="Helvetica,sans-Serif" font-size="10.00">main.cpp</text>
</a>
</g>
</g>
<!-- Node14&#45;&gt;Node15 -->
<g id="edge16" class="edge"><title>Node14&#45;&gt;Node15</title>
<path fill="none" stroke="midnightblue" d="M1699.73,-104.431C1708.14,-94.9673 1718.35,-83.4827 1725.22,-75.7511"/>
<polygon fill="midnightblue" stroke="midnightblue" points="1696.95,-102.284 1692.93,-112.083 1702.19,-106.934 1696.95,-102.284"/>
</g>
<!-- Node22 -->
<g id="node22" class="node"><title>Node22</title>
<g id="a_node22"><a xlink:href="_default_surface_8h.html" target="_top" xlink:title="DefaultSurface.h">
<polygon fill="none" stroke="black" points="409,-168.5 409,-187.5 499,-187.5 499,-168.5 409,-168.5"/>
<text text-anchor="middle" x="454" y="-175.5" font-family="Helvetica,sans-Serif" font-size="10.00">DefaultSurface.h</text>
</a>
</g>
</g>
<!-- Node21&#45;&gt;Node22 -->
<g id="edge23" class="edge"><title>Node21&#45;&gt;Node22</title>
<path fill="none" stroke="midnightblue" d="M396.768,-218.622C411.017,-208.757 429.456,-195.992 441.499,-187.655"/>
<polygon fill="midnightblue" stroke="midnightblue" points="394.762,-215.754 388.532,-224.324 398.746,-221.51 394.762,-215.754"/>
</g>
<!-- Node24 -->
<g id="node24" class="node"><title>Node24</title>
<g id="a_node24"><a xlink:href="_wood_surface_8h.html" target="_top" xlink:title="WoodSurface.h">
<polygon fill="none" stroke="black" points="773,-168.5 773,-187.5 857,-187.5 857,-168.5 773,-168.5"/>
<text text-anchor="middle" x="815" y="-175.5" font-family="Helvetica,sans-Serif" font-size="10.00">WoodSurface.h</text>
</a>
</g>
</g>
<!-- Node21&#45;&gt;Node24 -->
<g id="edge26" class="edge"><title>Node21&#45;&gt;Node24</title>
<path fill="none" stroke="midnightblue" d="M430.682,-223.82C561.2,-205.358 703.695,-190.214 772.925,-183.179"/>
<polygon fill="midnightblue" stroke="midnightblue" points="429.913,-220.394 420.507,-225.269 430.9,-227.324 429.913,-220.394"/>
</g>
<!-- Node26 -->
<g id="node26" class="node"><title>Node26</title>
<g id="a_node26"><a xlink:href="_bitmap_surface_8cpp.html" target="_top" xlink:title="BitmapSurface.cpp">
<polygon fill="none" stroke="black" points="517,-168.5 517,-187.5 617,-187.5 617,-168.5 517,-168.5"/>
<text text-anchor="middle" x="567" y="-175.5" font-family="Helvetica,sans-Serif" font-size="10.00">BitmapSurface.cpp</text>
</a>
</g>
</g>
<!-- Node21&#45;&gt;Node26 -->
<g id="edge29" class="edge"><title>Node21&#45;&gt;Node26</title>
<path fill="none" stroke="midnightblue" d="M415.973,-221.699C452.021,-211.507 504.243,-196.743 536.877,-187.516"/>
<polygon fill="midnightblue" stroke="midnightblue" points="414.935,-218.355 406.265,-224.444 416.84,-225.091 414.935,-218.355"/>
</g>
<!-- Node22&#45;&gt;Node17 -->
<g id="edge25" class="edge"><title>Node22&#45;&gt;Node17</title>
<path fill="none" stroke="midnightblue" d="M509.171,-167.983C762.627,-139.078 1055.25,-127.472 1155.92,-124.109"/>
<polygon fill="midnightblue" stroke="midnightblue" points="508.567,-164.529 499.034,-169.15 509.369,-171.483 508.567,-164.529"/>
</g>
<!-- Node23 -->
<g id="node23" class="node"><title>Node23</title>
<g id="a_node23"><a xlink:href="_default_surface_8cpp.html" target="_top" xlink:title="DefaultSurface.cpp">
<polygon fill="none" stroke="black" points="403.5,-112.5 403.5,-131.5 504.5,-131.5 504.5,-112.5 403.5,-112.5"/>
<text text-anchor="middle" x="454" y="-119.5" font-family="Helvetica,sans-Serif" font-size="10.00">DefaultSurface.cpp</text>
</a>
</g>
</g>
<!-- Node22&#45;&gt;Node23 -->
<g id="edge24" class="edge"><title>Node22&#45;&gt;Node23</title>
<path fill="none" stroke="midnightblue" d="M454,-157.805C454,-148.91 454,-138.78 454,-131.751"/>
<polygon fill="midnightblue" stroke="midnightblue" points="450.5,-158.083 454,-168.083 457.5,-158.083 450.5,-158.083"/>
</g>
<!-- Node24&#45;&gt;Node17 -->
<g id="edge27" class="edge"><title>Node24&#45;&gt;Node17</title>
<path fill="none" stroke="midnightblue" d="M867.199,-169.523C944.889,-158.395 1088.96,-137.759 1155.98,-128.159"/>
<polygon fill="midnightblue" stroke="midnightblue" points="866.552,-166.08 857.149,-170.963 867.545,-173.009 866.552,-166.08"/>
</g>
<!-- Node25 -->
<g id="node25" class="node"><title>Node25</title>
<g id="a_node25"><a xlink:href="_wood_surface_8cpp.html" target="_top" xlink:title="WoodSurface.cpp">
<polygon fill="none" stroke="black" points="767.5,-112.5 767.5,-131.5 862.5,-131.5 862.5,-112.5 767.5,-112.5"/>
<text text-anchor="middle" x="815" y="-119.5" font-family="Helvetica,sans-Serif" font-size="10.00">WoodSurface.cpp</text>
</a>
</g>
</g>
<!-- Node24&#45;&gt;Node25 -->
<g id="edge28" class="edge"><title>Node24&#45;&gt;Node25</title>
<path fill="none" stroke="midnightblue" d="M815,-157.805C815,-148.91 815,-138.78 815,-131.751"/>
<polygon fill="midnightblue" stroke="midnightblue" points="811.5,-158.083 815,-168.083 818.5,-158.083 811.5,-158.083"/>
</g>
<!-- Node28 -->
<g id="node28" class="node"><title>Node28</title>
<g id="a_node28"><a xlink:href="_generic_renderer_8h.html" target="_top" xlink:title="GenericRenderer.h">
<polygon fill="none" stroke="black" points="121,-168.5 121,-187.5 219,-187.5 219,-168.5 121,-168.5"/>
<text text-anchor="middle" x="170" y="-175.5" font-family="Helvetica,sans-Serif" font-size="10.00">GenericRenderer.h</text>
</a>
</g>
</g>
<!-- Node27&#45;&gt;Node28 -->
<g id="edge31" class="edge"><title>Node27&#45;&gt;Node28</title>
<path fill="none" stroke="midnightblue" d="M222.134,-218.101C209.177,-208.382 192.703,-196.027 181.779,-187.834"/>
<polygon fill="midnightblue" stroke="midnightblue" points="220.332,-221.124 230.432,-224.324 224.532,-215.524 220.332,-221.124"/>
</g>
<!-- Node30 -->
<g id="node30" class="node"><title>Node30</title>
<g id="a_node30"><a xlink:href="_free_element_base_renderer_8cpp.html" target="_top" xlink:title="FreeElementBaseRenderer.cpp">
<polygon fill="none" stroke="black" points="237.5,-168.5 237.5,-187.5 390.5,-187.5 390.5,-168.5 237.5,-168.5"/>
<text text-anchor="middle" x="314" y="-175.5" font-family="Helvetica,sans-Serif" font-size="10.00">FreeElementBaseRenderer.cpp</text>
</a>
</g>
</g>
<!-- Node27&#45;&gt;Node30 -->
<g id="edge34" class="edge"><title>Node27&#45;&gt;Node30</title>
<path fill="none" stroke="midnightblue" d="M261.866,-218.101C274.823,-208.382 291.297,-196.027 302.221,-187.834"/>
<polygon fill="midnightblue" stroke="midnightblue" points="259.468,-215.524 253.568,-224.324 263.668,-221.124 259.468,-215.524"/>
</g>
<!-- Node28&#45;&gt;Node17 -->
<g id="edge33" class="edge"><title>Node28&#45;&gt;Node17</title>
<path fill="none" stroke="midnightblue" d="M228.998,-168.039C432.722,-148.692 1005.95,-129.085 1155.81,-124.168"/>
<polygon fill="midnightblue" stroke="midnightblue" points="228.611,-164.56 219,-169.018 229.294,-171.526 228.611,-164.56"/>
</g>
<!-- Node29 -->
<g id="node29" class="node"><title>Node29</title>
<g id="a_node29"><a xlink:href="_generic_renderer_8cpp.html" target="_top" xlink:title="GenericRenderer.cpp">
<polygon fill="none" stroke="black" points="115.5,-112.5 115.5,-131.5 224.5,-131.5 224.5,-112.5 115.5,-112.5"/>
<text text-anchor="middle" x="170" y="-119.5" font-family="Helvetica,sans-Serif" font-size="10.00">GenericRenderer.cpp</text>
</a>
</g>
</g>
<!-- Node28&#45;&gt;Node29 -->
<g id="edge32" class="edge"><title>Node28&#45;&gt;Node29</title>
<path fill="none" stroke="midnightblue" d="M170,-157.805C170,-148.91 170,-138.78 170,-131.751"/>
<polygon fill="midnightblue" stroke="midnightblue" points="166.5,-158.083 170,-168.083 173.5,-158.083 166.5,-158.083"/>
</g>
<!-- Node42 -->
<g id="node42" class="node"><title>Node42</title>
<g id="a_node42"><a xlink:href="_main_character_8cpp.html" target="_top" xlink:title="MainCharacter.cpp">
<polygon fill="none" stroke="black" points="978.5,-280.5 978.5,-299.5 1077.5,-299.5 1077.5,-280.5 978.5,-280.5"/>
<text text-anchor="middle" x="1028" y="-287.5" font-family="Helvetica,sans-Serif" font-size="10.00">MainCharacter.cpp</text>
</a>
</g>
</g>
<!-- Node41&#45;&gt;Node42 -->
<g id="edge49" class="edge"><title>Node41&#45;&gt;Node42</title>
<path fill="none" stroke="midnightblue" d="M1028,-325.805C1028,-316.91 1028,-306.78 1028,-299.751"/>
<polygon fill="midnightblue" stroke="midnightblue" points="1024.5,-326.083 1028,-336.083 1031.5,-326.083 1024.5,-326.083"/>
</g>
<!-- Node43 -->
<g id="node43" class="node"><title>Node43</title>
<g id="a_node43"><a xlink:href="_main_character_renderer_8cpp.html" target="_top" xlink:title="MainCharacterRenderer.cpp">
<polygon fill="none" stroke="black" points="1095.5,-280.5 1095.5,-299.5 1234.5,-299.5 1234.5,-280.5 1095.5,-280.5"/>
<text text-anchor="middle" x="1165" y="-287.5" font-family="Helvetica,sans-Serif" font-size="10.00">MainCharacterRenderer.cpp</text>
</a>
</g>
</g>
<!-- Node41&#45;&gt;Node43 -->
<g id="edge50" class="edge"><title>Node41&#45;&gt;Node43</title>
<path fill="none" stroke="midnightblue" d="M1059.02,-332.772C1084.76,-322.629 1120.69,-308.467 1143.39,-299.516"/>
<polygon fill="midnightblue" stroke="midnightblue" points="1057.73,-329.52 1049.71,-336.444 1060.29,-336.033 1057.73,-329.52"/>
</g>
<!-- Node44 -->
<g id="node44" class="node"><title>Node44</title>
<g id="a_node44"><a xlink:href="_hover_render_8h.html" target="_top" xlink:title="HoverRender.h">
<polygon fill="none" stroke="black" points="1461.5,-280.5 1461.5,-299.5 1544.5,-299.5 1544.5,-280.5 1461.5,-280.5"/>
<text text-anchor="middle" x="1503" y="-287.5" font-family="Helvetica,sans-Serif" font-size="10.00">HoverRender.h</text>
</a>
</g>
</g>
<!-- Node41&#45;&gt;Node44 -->
<g id="edge51" class="edge"><title>Node41&#45;&gt;Node44</title>
<path fill="none" stroke="midnightblue" d="M1102.4,-335.847C1240.03,-319.708 1390.07,-303.254 1461.31,-295.511"/>
<polygon fill="midnightblue" stroke="midnightblue" points="1101.61,-332.415 1092.09,-337.057 1102.43,-339.367 1101.61,-332.415"/>
</g>
<!-- Node44&#45;&gt;Node17 -->
<g id="edge53" class="edge"><title>Node44&#45;&gt;Node17</title>
<path fill="none" stroke="midnightblue" d="M1528.31,-275.218C1548.64,-262.329 1571.71,-242.366 1558,-224 1518.07,-170.522 1312.3,-138.452 1228.04,-127.383"/>
<polygon fill="midnightblue" stroke="midnightblue" points="1526.37,-272.301 1519.59,-280.446 1529.97,-278.304 1526.37,-272.301"/>
</g>
<!-- Node44&#45;&gt;Node31 -->
<g id="edge52" class="edge"><title>Node44&#45;&gt;Node31</title>
<path fill="none" stroke="midnightblue" d="M1503,-269.805C1503,-260.91 1503,-250.78 1503,-243.751"/>
<polygon fill="midnightblue" stroke="midnightblue" points="1499.5,-270.083 1503,-280.083 1506.5,-270.083 1499.5,-270.083"/>
</g>
</g>
</svg>
