<?xml version="1.0" encoding="UTF-8" standalone="no"?>
<!DOCTYPE svg PUBLIC "-//W3C//DTD SVG 1.1//EN"
 "http://www.w3.org/Graphics/SVG/1.1/DTD/svg11.dtd">
<!-- Generated by graphviz version 2.38.0 (20140413.2041)
 -->
<!-- Title: Speedometer.cpp Pages: 1 -->
<svg width="1385pt" height="722pt"
 viewBox="0.00 0.00 1385.00 722.00" xmlns="http://www.w3.org/2000/svg" xmlns:xlink="http://www.w3.org/1999/xlink">
<g id="graph0" class="graph" transform="scale(1 1) rotate(0) translate(4 718)">
<title>Speedometer.cpp</title>
<!-- Node1 -->
<g id="node1" class="node"><title>Node1</title>
<polygon fill="#bfbfbf" stroke="black" points="621.5,-694.5 621.5,-713.5 714.5,-713.5 714.5,-694.5 621.5,-694.5"/>
<text text-anchor="middle" x="668" y="-701.5" font-family="Helvetica,sans-Serif" font-size="10.00">Speedometer.cpp</text>
</g>
<!-- Node2 -->
<g id="node2" class="node"><title>Node2</title>
<g id="a_node2"><a xlink:href="_main_character_8h.html" target="_top" xlink:title="../../engine/MainCharacter\l/MainCharacter.h">
<polygon fill="none" stroke="black" points="166,-336.5 166,-366.5 296,-366.5 296,-336.5 166,-336.5"/>
<text text-anchor="start" x="174" y="-354.5" font-family="Helvetica,sans-Serif" font-size="10.00">../../engine/MainCharacter</text>
<text text-anchor="middle" x="231" y="-343.5" font-family="Helvetica,sans-Serif" font-size="10.00">/MainCharacter.h</text>
</a>
</g>
</g>
<!-- Node1&#45;&gt;Node2 -->
<g id="edge1" class="edge"><title>Node1&#45;&gt;Node2</title>
<path fill="none" stroke="midnightblue" d="M621.281,-696.188C528.957,-681.409 332,-642.761 332,-582 332,-582 332,-582 332,-468 332,-426.057 293.791,-392.015 264.375,-372.022"/>
<polygon fill="midnightblue" stroke="midnightblue" points="266.25,-369.066 255.966,-366.518 262.416,-374.923 266.25,-369.066"/>
</g>
<!-- Node29 -->
<g id="node29" class="node"><title>Node29</title>
<g id="a_node29"><a xlink:href="_player_8h.html" target="_top" xlink:title="../../engine/Player\l/Player.h">
<polygon fill="none" stroke="black" points="659,-627.5 659,-657.5 753,-657.5 753,-627.5 659,-627.5"/>
<text text-anchor="start" x="667" y="-645.5" font-family="Helvetica,sans-Serif" font-size="10.00">../../engine/Player</text>
<text text-anchor="middle" x="706" y="-634.5" font-family="Helvetica,sans-Serif" font-size="10.00">/Player.h</text>
</a>
</g>
</g>
<!-- Node1&#45;&gt;Node29 -->
<g id="edge42" class="edge"><title>Node1&#45;&gt;Node29</title>
<path fill="none" stroke="midnightblue" d="M673.444,-694.475C678.158,-687.094 685.194,-676.077 691.521,-666.171"/>
<polygon fill="midnightblue" stroke="midnightblue" points="694.611,-667.835 697.044,-657.523 688.712,-664.067 694.611,-667.835"/>
</g>
<!-- Node34 -->
<g id="node34" class="node"><title>Node34</title>
<g id="a_node34"><a xlink:href="_fill_box_8h.html" target="_top" xlink:title="FillBox.h">
<polygon fill="none" stroke="black" points="603.5,-459.5 603.5,-478.5 658.5,-478.5 658.5,-459.5 603.5,-459.5"/>
<text text-anchor="middle" x="631" y="-466.5" font-family="Helvetica,sans-Serif" font-size="10.00">FillBox.h</text>
</a>
</g>
</g>
<!-- Node1&#45;&gt;Node34 -->
<g id="edge51" class="edge"><title>Node1&#45;&gt;Node34</title>
<path fill="none" stroke="midnightblue" d="M663.658,-694.278C659.437,-685.384 653.208,-671.075 650,-658 635.175,-597.58 631.888,-523.509 631.18,-489.169"/>
<polygon fill="midnightblue" stroke="midnightblue" points="634.673,-488.712 631.022,-478.766 627.674,-488.818 634.673,-488.712"/>
</g>
<!-- Node46 -->
<g id="node46" class="node"><title>Node46</title>
<g id="a_node46"><a xlink:href="_speedometer_8h.html" target="_top" xlink:title="Speedometer.h">
<polygon fill="none" stroke="black" points="885.5,-633 885.5,-652 968.5,-652 968.5,-633 885.5,-633"/>
<text text-anchor="middle" x="927" y="-640" font-family="Helvetica,sans-Serif" font-size="10.00">Speedometer.h</text>
</a>
</g>
</g>
<!-- Node1&#45;&gt;Node46 -->
<g id="edge72" class="edge"><title>Node1&#45;&gt;Node46</title>
<path fill="none" stroke="midnightblue" d="M705.108,-694.475C751.171,-683.893 829.774,-665.836 880.003,-654.297"/>
<polygon fill="midnightblue" stroke="midnightblue" points="880.998,-657.659 889.96,-652.009 879.431,-650.837 880.998,-657.659"/>
</g>
<!-- Node3 -->
<g id="node3" class="node"><title>Node3</title>
<g id="a_node3"><a xlink:href="_color_8h.html" target="_top" xlink:title="../Display/Color.h">
<polygon fill="none" stroke="black" points="548.5,-168.5 548.5,-187.5 641.5,-187.5 641.5,-168.5 548.5,-168.5"/>
<text text-anchor="middle" x="595" y="-175.5" font-family="Helvetica,sans-Serif" font-size="10.00">../Display/Color.h</text>
</a>
</g>
</g>
<!-- Node2&#45;&gt;Node3 -->
<g id="edge2" class="edge"><title>Node2&#45;&gt;Node3</title>
<path fill="none" stroke="midnightblue" d="M195.553,-336.451C167.563,-323.263 135.854,-302.275 153,-280 191.139,-230.452 230.622,-266.395 289,-244 307.187,-237.023 309.512,-230.135 328,-224 398.206,-200.702 482.985,-189.044 537.895,-183.518"/>
<polygon fill="midnightblue" stroke="midnightblue" points="538.513,-186.974 548.128,-182.524 537.836,-180.007 538.513,-186.974"/>
</g>
<!-- Node7 -->
<g id="node7" class="node"><title>Node7</title>
<g id="a_node7"><a xlink:href="_maze_element_8h.html" target="_top" xlink:title="../Model/MazeElement.h">
<polygon fill="none" stroke="black" points="318.5,-280.5 318.5,-299.5 441.5,-299.5 441.5,-280.5 318.5,-280.5"/>
<text text-anchor="middle" x="380" y="-287.5" font-family="Helvetica,sans-Serif" font-size="10.00">../Model/MazeElement.h</text>
</a>
</g>
</g>
<!-- Node2&#45;&gt;Node7 -->
<g id="edge7" class="edge"><title>Node2&#45;&gt;Node7</title>
<path fill="none" stroke="midnightblue" d="M266.311,-336.399C291.422,-326.372 324.837,-313.028 348.935,-303.405"/>
<polygon fill="midnightblue" stroke="midnightblue" points="350.33,-306.617 358.319,-299.658 347.734,-300.116 350.33,-306.617"/>
</g>
<!-- Node27 -->
<g id="node27" class="node"><title>Node27</title>
<g id="a_node27"><a xlink:href="_physical_collision_8h.html" target="_top" xlink:title="../Model/PhysicalCollision.h">
<polygon fill="none" stroke="black" points="162,-280.5 162,-299.5 300,-299.5 300,-280.5 162,-280.5"/>
<text text-anchor="middle" x="231" y="-287.5" font-family="Helvetica,sans-Serif" font-size="10.00">../Model/PhysicalCollision.h</text>
</a>
</g>
</g>
<!-- Node2&#45;&gt;Node27 -->
<g id="edge37" class="edge"><title>Node2&#45;&gt;Node27</title>
<path fill="none" stroke="midnightblue" d="M231,-336.399C231,-328.466 231,-318.458 231,-309.858"/>
<polygon fill="midnightblue" stroke="midnightblue" points="234.5,-309.658 231,-299.658 227.5,-309.658 234.5,-309.658"/>
</g>
<!-- Node28 -->
<g id="node28" class="node"><title>Node28</title>
<g id="a_node28"><a xlink:href="_fast_fifo_8h.html" target="_top" xlink:title="../Util/FastFifo.h">
<polygon fill="none" stroke="black" points="0,-280.5 0,-299.5 88,-299.5 88,-280.5 0,-280.5"/>
<text text-anchor="middle" x="44" y="-287.5" font-family="Helvetica,sans-Serif" font-size="10.00">../Util/FastFifo.h</text>
</a>
</g>
</g>
<!-- Node2&#45;&gt;Node28 -->
<g id="edge40" class="edge"><title>Node2&#45;&gt;Node28</title>
<path fill="none" stroke="midnightblue" d="M186.684,-336.399C154.371,-326.118 111.102,-312.351 80.7143,-302.682"/>
<polygon fill="midnightblue" stroke="midnightblue" points="81.5277,-299.268 70.9372,-299.571 79.4052,-305.938 81.5277,-299.268"/>
</g>
<!-- Node4 -->
<g id="node4" class="node"><title>Node4</title>
<g id="a_node4"><a xlink:href="_m_r___types_8h.html" target="_top" xlink:title="../Util/MR_Types.h">
<polygon fill="none" stroke="black" points="550,-56.5 550,-75.5 650,-75.5 650,-56.5 550,-56.5"/>
<text text-anchor="middle" x="600" y="-63.5" font-family="Helvetica,sans-Serif" font-size="10.00">../Util/MR_Types.h</text>
</a>
</g>
</g>
<!-- Node3&#45;&gt;Node4 -->
<g id="edge3" class="edge"><title>Node3&#45;&gt;Node4</title>
<path fill="none" stroke="midnightblue" d="M581.399,-168.422C564.487,-156.584 538.992,-134.178 549,-112 554.616,-99.5553 565.563,-89.1723 575.879,-81.5273"/>
<polygon fill="midnightblue" stroke="midnightblue" points="578.006,-84.3123 584.266,-75.7643 574.042,-78.5431 578.006,-84.3123"/>
</g>
<!-- Node6 -->
<g id="node6" class="node"><title>Node6</title>
<g id="a_node6"><a xlink:href="_sel_fmt_8h.html" target="_top" xlink:title="../Util/SelFmt.h">
<polygon fill="none" stroke="black" points="558.5,-112.5 558.5,-131.5 641.5,-131.5 641.5,-112.5 558.5,-112.5"/>
<text text-anchor="middle" x="600" y="-119.5" font-family="Helvetica,sans-Serif" font-size="10.00">../Util/SelFmt.h</text>
</a>
</g>
</g>
<!-- Node3&#45;&gt;Node6 -->
<g id="edge5" class="edge"><title>Node3&#45;&gt;Node6</title>
<path fill="none" stroke="midnightblue" d="M595.826,-168.083C596.481,-161.006 597.42,-150.861 598.242,-141.986"/>
<polygon fill="midnightblue" stroke="midnightblue" points="601.753,-142.031 599.19,-131.751 594.783,-141.386 601.753,-142.031"/>
</g>
<!-- Node5 -->
<g id="node5" class="node"><title>Node5</title>
<polygon fill="none" stroke="#bfbfbf" points="570.5,-0.5 570.5,-19.5 629.5,-19.5 629.5,-0.5 570.5,-0.5"/>
<text text-anchor="middle" x="600" y="-7.5" font-family="Helvetica,sans-Serif" font-size="10.00">inttypes.h</text>
</g>
<!-- Node4&#45;&gt;Node5 -->
<g id="edge4" class="edge"><title>Node4&#45;&gt;Node5</title>
<path fill="none" stroke="midnightblue" d="M600,-56.083C600,-49.0059 600,-38.8611 600,-29.9865"/>
<polygon fill="midnightblue" stroke="midnightblue" points="603.5,-29.751 600,-19.7511 596.5,-29.7511 603.5,-29.751"/>
</g>
<!-- Node6&#45;&gt;Node4 -->
<g id="edge6" class="edge"><title>Node6&#45;&gt;Node4</title>
<path fill="none" stroke="midnightblue" d="M600,-112.083C600,-105.006 600,-94.8611 600,-85.9865"/>
<polygon fill="midnightblue" stroke="midnightblue" points="603.5,-85.751 600,-75.7511 596.5,-85.7511 603.5,-85.751"/>
</g>
<!-- Node8 -->
<g id="node8" class="node"><title>Node8</title>
<g id="a_node8"><a xlink:href="_dll_object_factory_8h.html" target="_top" xlink:title="../Util/DllObjectFactory.h">
<polygon fill="none" stroke="black" points="623.5,-224.5 623.5,-243.5 748.5,-243.5 748.5,-224.5 623.5,-224.5"/>
<text text-anchor="middle" x="686" y="-231.5" font-family="Helvetica,sans-Serif" font-size="10.00">../Util/DllObjectFactory.h</text>
</a>
</g>
</g>
<!-- Node7&#45;&gt;Node8 -->
<g id="edge8" class="edge"><title>Node7&#45;&gt;Node8</title>
<path fill="none" stroke="midnightblue" d="M428.487,-280.444C482.539,-270.905 569.928,-255.483 627.673,-245.293"/>
<polygon fill="midnightblue" stroke="midnightblue" points="628.501,-248.701 637.74,-243.516 627.284,-241.808 628.501,-248.701"/>
</g>
<!-- Node18 -->
<g id="node18" class="node"><title>Node18</title>
<g id="a_node18"><a xlink:href="_viewport3_d_8h.html" target="_top" xlink:title="../VideoServices/Viewport3D.h">
<polygon fill="none" stroke="black" points="129.5,-224.5 129.5,-243.5 280.5,-243.5 280.5,-224.5 129.5,-224.5"/>
<text text-anchor="middle" x="205" y="-231.5" font-family="Helvetica,sans-Serif" font-size="10.00">../VideoServices/Viewport3D.h</text>
</a>
</g>
</g>
<!-- Node7&#45;&gt;Node18 -->
<g id="edge22" class="edge"><title>Node7&#45;&gt;Node18</title>
<path fill="none" stroke="midnightblue" d="M352.271,-280.444C322.574,-271.28 275.284,-256.688 242.331,-246.519"/>
<polygon fill="midnightblue" stroke="midnightblue" points="243.187,-243.121 232.6,-243.516 241.123,-249.809 243.187,-243.121"/>
</g>
<!-- Node25 -->
<g id="node25" class="node"><title>Node25</title>
<g id="a_node25"><a xlink:href="_contact_effect_8h.html" target="_top" xlink:title="ContactEffect.h">
<polygon fill="none" stroke="black" points="337,-224.5 337,-243.5 423,-243.5 423,-224.5 337,-224.5"/>
<text text-anchor="middle" x="380" y="-231.5" font-family="Helvetica,sans-Serif" font-size="10.00">ContactEffect.h</text>
</a>
</g>
</g>
<!-- Node7&#45;&gt;Node25 -->
<g id="edge33" class="edge"><title>Node7&#45;&gt;Node25</title>
<path fill="none" stroke="midnightblue" d="M380,-280.083C380,-273.006 380,-262.861 380,-253.986"/>
<polygon fill="midnightblue" stroke="midnightblue" points="383.5,-253.751 380,-243.751 376.5,-253.751 383.5,-253.751"/>
</g>
<!-- Node26 -->
<g id="node26" class="node"><title>Node26</title>
<g id="a_node26"><a xlink:href="_shapes_8h.html" target="_top" xlink:title="Shapes.h">
<polygon fill="none" stroke="black" points="53,-224.5 53,-243.5 111,-243.5 111,-224.5 53,-224.5"/>
<text text-anchor="middle" x="82" y="-231.5" font-family="Helvetica,sans-Serif" font-size="10.00">Shapes.h</text>
</a>
</g>
</g>
<!-- Node7&#45;&gt;Node26 -->
<g id="edge35" class="edge"><title>Node7&#45;&gt;Node26</title>
<path fill="none" stroke="midnightblue" d="M325.036,-280.489C274.552,-272.445 197.438,-259.591 121.258,-244.157"/>
<polygon fill="midnightblue" stroke="midnightblue" points="121.504,-240.635 111.006,-242.063 120.103,-247.493 121.504,-240.635"/>
</g>
<!-- Node8&#45;&gt;Node4 -->
<g id="edge21" class="edge"><title>Node8&#45;&gt;Node4</title>
<path fill="none" stroke="midnightblue" d="M685.066,-224.425C682.478,-203.658 673.768,-149.611 650,-112 642.665,-100.394 631.523,-89.9573 621.616,-82.0638"/>
<polygon fill="midnightblue" stroke="midnightblue" points="623.443,-79.057 613.356,-75.8163 619.22,-84.64 623.443,-79.057"/>
</g>
<!-- Node9 -->
<g id="node9" class="node"><title>Node9</title>
<g id="a_node9"><a xlink:href="_obj_stream_8h.html" target="_top" xlink:title="../Parcel/ObjStream.h">
<polygon fill="none" stroke="black" points="1011.5,-168.5 1011.5,-187.5 1122.5,-187.5 1122.5,-168.5 1011.5,-168.5"/>
<text text-anchor="middle" x="1067" y="-175.5" font-family="Helvetica,sans-Serif" font-size="10.00">../Parcel/ObjStream.h</text>
</a>
</g>
</g>
<!-- Node8&#45;&gt;Node9 -->
<g id="edge9" class="edge"><title>Node8&#45;&gt;Node9</title>
<path fill="none" stroke="midnightblue" d="M746.371,-224.444C815.768,-214.608 929.298,-198.517 1000.99,-188.356"/>
<polygon fill="midnightblue" stroke="midnightblue" points="1001.84,-191.77 1011.25,-186.902 1000.86,-184.84 1001.84,-191.77"/>
</g>
<!-- Node9&#45;&gt;Node4 -->
<g id="edge13" class="edge"><title>Node9&#45;&gt;Node4</title>
<path fill="none" stroke="midnightblue" d="M1069.7,-168.494C1073.5,-154.641 1078.48,-127.228 1064,-112 1036.7,-83.2884 779.746,-72.1725 660.392,-68.532"/>
<polygon fill="midnightblue" stroke="midnightblue" points="660.415,-65.0313 650.315,-68.2325 660.207,-72.0282 660.415,-65.0313"/>
</g>
<!-- Node10 -->
<g id="node10" class="node"><title>Node10</title>
<polygon fill="none" stroke="#bfbfbf" points="1103.5,-56.5 1103.5,-75.5 1144.5,-75.5 1144.5,-56.5 1103.5,-56.5"/>
<text text-anchor="middle" x="1124" y="-63.5" font-family="Helvetica,sans-Serif" font-size="10.00">string</text>
</g>
<!-- Node9&#45;&gt;Node10 -->
<g id="edge10" class="edge"><title>Node9&#45;&gt;Node10</title>
<path fill="none" stroke="midnightblue" d="M1073.5,-168.351C1079.97,-159.515 1089.92,-145.249 1097,-132 1105.18,-116.694 1112.6,-98.3635 1117.58,-85.0765"/>
<polygon fill="midnightblue" stroke="midnightblue" points="1120.87,-86.2497 1121.02,-75.6558 1114.3,-83.8486 1120.87,-86.2497"/>
</g>
<!-- Node11 -->
<g id="node11" class="node"><title>Node11</title>
<g id="a_node11"><a xlink:href="_exception_8h.html" target="_top" xlink:title="../Exception.h">
<polygon fill="none" stroke="black" points="977.5,-112.5 977.5,-131.5 1054.5,-131.5 1054.5,-112.5 977.5,-112.5"/>
<text text-anchor="middle" x="1016" y="-119.5" font-family="Helvetica,sans-Serif" font-size="10.00">../Exception.h</text>
</a>
</g>
</g>
<!-- Node9&#45;&gt;Node11 -->
<g id="edge11" class="edge"><title>Node9&#45;&gt;Node11</title>
<path fill="none" stroke="midnightblue" d="M1058.58,-168.083C1051.15,-160.22 1040.15,-148.569 1031.19,-139.081"/>
<polygon fill="midnightblue" stroke="midnightblue" points="1033.68,-136.618 1024.26,-131.751 1028.59,-141.424 1033.68,-136.618"/>
</g>
<!-- Node13 -->
<g id="node13" class="node"><title>Node13</title>
<g id="a_node13"><a xlink:href="_o_s_8h.html" target="_top" xlink:title="../Util/OS.h">
<polygon fill="none" stroke="black" points="1149,-112.5 1149,-131.5 1215,-131.5 1215,-112.5 1149,-112.5"/>
<text text-anchor="middle" x="1182" y="-119.5" font-family="Helvetica,sans-Serif" font-size="10.00">../Util/OS.h</text>
</a>
</g>
</g>
<!-- Node9&#45;&gt;Node13 -->
<g id="edge14" class="edge"><title>Node9&#45;&gt;Node13</title>
<path fill="none" stroke="midnightblue" d="M1085.22,-168.444C1103.9,-159.675 1133.16,-145.935 1154.62,-135.858"/>
<polygon fill="midnightblue" stroke="midnightblue" points="1156.3,-138.935 1163.86,-131.516 1153.32,-132.599 1156.3,-138.935"/>
</g>
<!-- Node12 -->
<g id="node12" class="node"><title>Node12</title>
<polygon fill="none" stroke="#bfbfbf" points="963.5,-56.5 963.5,-75.5 1022.5,-75.5 1022.5,-56.5 963.5,-56.5"/>
<text text-anchor="middle" x="993" y="-63.5" font-family="Helvetica,sans-Serif" font-size="10.00">exception</text>
</g>
<!-- Node11&#45;&gt;Node12 -->
<g id="edge12" class="edge"><title>Node11&#45;&gt;Node12</title>
<path fill="none" stroke="midnightblue" d="M1012.2,-112.083C1009.09,-104.77 1004.58,-94.1814 1000.71,-85.1034"/>
<polygon fill="midnightblue" stroke="midnightblue" points="1003.87,-83.5798 996.727,-75.7511 997.426,-86.3229 1003.87,-83.5798"/>
</g>
<!-- Node13&#45;&gt;Node4 -->
<g id="edge20" class="edge"><title>Node13&#45;&gt;Node4</title>
<path fill="none" stroke="midnightblue" d="M1148.91,-117.379C1133.19,-115.688 1114.13,-113.682 1097,-112 939.511,-96.5335 753.75,-80.2294 660.232,-72.1564"/>
<polygon fill="midnightblue" stroke="midnightblue" points="660.374,-68.6557 650.11,-71.2837 659.773,-75.6298 660.374,-68.6557"/>
</g>
<!-- Node13&#45;&gt;Node10 -->
<g id="edge17" class="edge"><title>Node13&#45;&gt;Node10</title>
<path fill="none" stroke="midnightblue" d="M1172.68,-112.324C1164.11,-104.341 1151.19,-92.3128 1140.81,-82.6529"/>
<polygon fill="midnightblue" stroke="midnightblue" points="1143.19,-80.0865 1133.49,-75.8339 1138.42,-85.2098 1143.19,-80.0865"/>
</g>
<!-- Node14 -->
<g id="node14" class="node"><title>Node14</title>
<polygon fill="none" stroke="#bfbfbf" points="1335,-56.5 1335,-75.5 1377,-75.5 1377,-56.5 1335,-56.5"/>
<text text-anchor="middle" x="1356" y="-63.5" font-family="Helvetica,sans-Serif" font-size="10.00">locale</text>
</g>
<!-- Node13&#45;&gt;Node14 -->
<g id="edge15" class="edge"><title>Node13&#45;&gt;Node14</title>
<path fill="none" stroke="midnightblue" d="M1209.57,-112.444C1240.96,-102.702 1292.12,-86.826 1324.9,-76.6512"/>
<polygon fill="midnightblue" stroke="midnightblue" points="1326.34,-79.8698 1334.85,-73.5631 1324.26,-73.1844 1326.34,-79.8698"/>
</g>
<!-- Node15 -->
<g id="node15" class="node"><title>Node15</title>
<polygon fill="none" stroke="#bfbfbf" points="1163,-56.5 1163,-75.5 1193,-75.5 1193,-56.5 1163,-56.5"/>
<text text-anchor="middle" x="1178" y="-63.5" font-family="Helvetica,sans-Serif" font-size="10.00">set</text>
</g>
<!-- Node13&#45;&gt;Node15 -->
<g id="edge16" class="edge"><title>Node13&#45;&gt;Node15</title>
<path fill="none" stroke="midnightblue" d="M1181.34,-112.083C1180.82,-105.006 1180.06,-94.8611 1179.41,-85.9865"/>
<polygon fill="midnightblue" stroke="midnightblue" points="1182.88,-85.4652 1178.65,-75.7511 1175.9,-85.9823 1182.88,-85.4652"/>
</g>
<!-- Node16 -->
<g id="node16" class="node"><title>Node16</title>
<polygon fill="none" stroke="#bfbfbf" points="1041,-56.5 1041,-75.5 1085,-75.5 1085,-56.5 1041,-56.5"/>
<text text-anchor="middle" x="1063" y="-63.5" font-family="Helvetica,sans-Serif" font-size="10.00">vector</text>
</g>
<!-- Node13&#45;&gt;Node16 -->
<g id="edge18" class="edge"><title>Node13&#45;&gt;Node16</title>
<path fill="none" stroke="midnightblue" d="M1163.14,-112.444C1143.73,-103.636 1113.27,-89.8116 1091.04,-79.722"/>
<polygon fill="midnightblue" stroke="midnightblue" points="1092.32,-76.4615 1081.77,-75.5164 1089.43,-82.836 1092.32,-76.4615"/>
</g>
<!-- Node17 -->
<g id="node17" class="node"><title>Node17</title>
<polygon fill="none" stroke="#bfbfbf" points="1210.5,-56.5 1210.5,-75.5 1317.5,-75.5 1317.5,-56.5 1210.5,-56.5"/>
<text text-anchor="middle" x="1264" y="-63.5" font-family="Helvetica,sans-Serif" font-size="10.00">boost/filesystem.hpp</text>
</g>
<!-- Node13&#45;&gt;Node17 -->
<g id="edge19" class="edge"><title>Node13&#45;&gt;Node17</title>
<path fill="none" stroke="midnightblue" d="M1195.17,-112.324C1207.85,-103.979 1227.23,-91.2122 1242.21,-81.3524"/>
<polygon fill="midnightblue" stroke="midnightblue" points="1244.43,-84.0776 1250.86,-75.6545 1240.58,-78.2313 1244.43,-84.0776"/>
</g>
<!-- Node19 -->
<g id="node19" class="node"><title>Node19</title>
<g id="a_node19"><a xlink:href="_viewport2_d_8h.html" target="_top" xlink:title="Viewport2D.h">
<polygon fill="none" stroke="black" points="224,-112.5 224,-131.5 300,-131.5 300,-112.5 224,-112.5"/>
<text text-anchor="middle" x="262" y="-119.5" font-family="Helvetica,sans-Serif" font-size="10.00">Viewport2D.h</text>
</a>
</g>
</g>
<!-- Node18&#45;&gt;Node19 -->
<g id="edge23" class="edge"><title>Node18&#45;&gt;Node19</title>
<path fill="none" stroke="midnightblue" d="M209.473,-224.368C218.796,-206.376 240.469,-164.55 252.866,-140.627"/>
<polygon fill="midnightblue" stroke="midnightblue" points="256.055,-142.081 257.548,-131.591 249.84,-138.86 256.055,-142.081"/>
</g>
<!-- Node20 -->
<g id="node20" class="node"><title>Node20</title>
<g id="a_node20"><a xlink:href="_color_palette_8h.html" target="_top" xlink:title="ColorPalette.h">
<polygon fill="none" stroke="black" points="288.5,-168.5 288.5,-187.5 367.5,-187.5 367.5,-168.5 288.5,-168.5"/>
<text text-anchor="middle" x="328" y="-175.5" font-family="Helvetica,sans-Serif" font-size="10.00">ColorPalette.h</text>
</a>
</g>
</g>
<!-- Node18&#45;&gt;Node20 -->
<g id="edge25" class="edge"><title>Node18&#45;&gt;Node20</title>
<path fill="none" stroke="midnightblue" d="M224.49,-224.444C244.642,-215.596 276.323,-201.687 299.331,-191.586"/>
<polygon fill="midnightblue" stroke="midnightblue" points="300.852,-194.741 308.601,-187.516 298.038,-188.332 300.852,-194.741"/>
</g>
<!-- Node22 -->
<g id="node22" class="node"><title>Node22</title>
<g id="a_node22"><a xlink:href="_bitmap_8h.html" target="_top" xlink:title="Bitmap.h">
<polygon fill="none" stroke="black" points="446,-112.5 446,-131.5 502,-131.5 502,-112.5 446,-112.5"/>
<text text-anchor="middle" x="474" y="-119.5" font-family="Helvetica,sans-Serif" font-size="10.00">Bitmap.h</text>
</a>
</g>
</g>
<!-- Node18&#45;&gt;Node22 -->
<g id="edge28" class="edge"><title>Node18&#45;&gt;Node22</title>
<path fill="none" stroke="midnightblue" d="M254.356,-224.485C289.319,-217.393 336.784,-205.583 376,-188 405.752,-174.66 436.524,-152.667 455.463,-138.009"/>
<polygon fill="midnightblue" stroke="midnightblue" points="457.832,-140.599 463.52,-131.66 453.499,-135.1 457.832,-140.599"/>
</g>
<!-- Node23 -->
<g id="node23" class="node"><title>Node23</title>
<g id="a_node23"><a xlink:href="_patch_8h.html" target="_top" xlink:title="Patch.h">
<polygon fill="none" stroke="black" points="135,-168.5 135,-187.5 185,-187.5 185,-168.5 135,-168.5"/>
<text text-anchor="middle" x="160" y="-175.5" font-family="Helvetica,sans-Serif" font-size="10.00">Patch.h</text>
</a>
</g>
</g>
<!-- Node18&#45;&gt;Node23 -->
<g id="edge30" class="edge"><title>Node18&#45;&gt;Node23</title>
<path fill="none" stroke="midnightblue" d="M197.569,-224.083C191.147,-216.377 181.694,-205.033 173.878,-195.653"/>
<polygon fill="midnightblue" stroke="midnightblue" points="176.383,-193.193 167.293,-187.751 171.006,-197.674 176.383,-193.193"/>
</g>
<!-- Node19&#45;&gt;Node4 -->
<g id="edge24" class="edge"><title>Node19&#45;&gt;Node4</title>
<path fill="none" stroke="midnightblue" d="M300.044,-114.346C304.742,-113.545 309.48,-112.747 314,-112 391.893,-99.1321 481.867,-85.1144 539.774,-76.2018"/>
<polygon fill="midnightblue" stroke="midnightblue" points="540.497,-79.632 549.849,-74.6531 539.433,-72.7133 540.497,-79.632"/>
</g>
<!-- Node20&#45;&gt;Node4 -->
<g id="edge27" class="edge"><title>Node20&#45;&gt;Node4</title>
<path fill="none" stroke="midnightblue" d="M327.834,-168.353C328.068,-154.299 330.722,-126.603 347,-112 374.739,-87.1148 474.019,-75.5449 539.653,-70.5095"/>
<polygon fill="midnightblue" stroke="midnightblue" points="540.166,-73.9813 549.882,-69.7564 539.652,-67.0002 540.166,-73.9813"/>
</g>
<!-- Node21 -->
<g id="node21" class="node"><title>Node21</title>
<polygon fill="none" stroke="#bfbfbf" points="356,-112.5 356,-131.5 428,-131.5 428,-112.5 356,-112.5"/>
<text text-anchor="middle" x="392" y="-119.5" font-family="Helvetica,sans-Serif" font-size="10.00">SDL2/SDL.h</text>
</g>
<!-- Node20&#45;&gt;Node21 -->
<g id="edge26" class="edge"><title>Node20&#45;&gt;Node21</title>
<path fill="none" stroke="midnightblue" d="M338.283,-168.324C347.836,-160.263 362.28,-148.077 373.784,-138.369"/>
<polygon fill="midnightblue" stroke="midnightblue" points="376.144,-140.958 381.53,-131.834 371.63,-135.608 376.144,-140.958"/>
</g>
<!-- Node22&#45;&gt;Node4 -->
<g id="edge29" class="edge"><title>Node22&#45;&gt;Node4</title>
<path fill="none" stroke="midnightblue" d="M493.965,-112.444C514.609,-103.596 547.063,-89.6875 570.632,-79.5865"/>
<polygon fill="midnightblue" stroke="midnightblue" points="572.316,-82.6727 580.128,-75.5164 569.558,-76.2387 572.316,-82.6727"/>
</g>
<!-- Node24 -->
<g id="node24" class="node"><title>Node24</title>
<g id="a_node24"><a xlink:href="_world_coordinates_8h.html" target="_top" xlink:title="../Util/WorldCoordinates.h">
<polygon fill="none" stroke="black" points="76,-112.5 76,-131.5 206,-131.5 206,-112.5 76,-112.5"/>
<text text-anchor="middle" x="141" y="-119.5" font-family="Helvetica,sans-Serif" font-size="10.00">../Util/WorldCoordinates.h</text>
</a>
</g>
</g>
<!-- Node23&#45;&gt;Node24 -->
<g id="edge31" class="edge"><title>Node23&#45;&gt;Node24</title>
<path fill="none" stroke="midnightblue" d="M156.863,-168.083C154.317,-160.849 150.644,-150.409 147.473,-141.397"/>
<polygon fill="midnightblue" stroke="midnightblue" points="150.7,-140.023 144.079,-131.751 144.097,-142.346 150.7,-140.023"/>
</g>
<!-- Node24&#45;&gt;Node4 -->
<g id="edge32" class="edge"><title>Node24&#45;&gt;Node4</title>
<path fill="none" stroke="midnightblue" d="M206.368,-113.033C209.285,-112.683 212.173,-112.337 215,-112 329.717,-98.3198 463.713,-82.7506 539.542,-73.9781"/>
<polygon fill="midnightblue" stroke="midnightblue" points="540.316,-77.412 549.848,-72.7863 539.512,-70.4583 540.316,-77.412"/>
</g>
<!-- Node25&#45;&gt;Node16 -->
<g id="edge34" class="edge"><title>Node25&#45;&gt;Node16</title>
<path fill="none" stroke="midnightblue" d="M397.694,-224.369C426.608,-210.587 486.075,-183.579 539,-168 749.69,-105.98 813.298,-126.937 1030.91,-76.069"/>
<polygon fill="midnightblue" stroke="midnightblue" points="1031.79,-79.4573 1040.72,-73.7522 1030.18,-72.6448 1031.79,-79.4573"/>
</g>
<!-- Node26&#45;&gt;Node24 -->
<g id="edge36" class="edge"><title>Node26&#45;&gt;Node24</title>
<path fill="none" stroke="midnightblue" d="M86.6296,-224.368C96.2801,-206.376 118.714,-164.55 131.546,-140.627"/>
<polygon fill="midnightblue" stroke="midnightblue" points="134.75,-142.058 136.392,-131.591 128.581,-138.749 134.75,-142.058"/>
</g>
<!-- Node27&#45;&gt;Node25 -->
<g id="edge38" class="edge"><title>Node27&#45;&gt;Node25</title>
<path fill="none" stroke="midnightblue" d="M254.609,-280.444C279.458,-271.438 318.774,-257.189 346.754,-247.049"/>
<polygon fill="midnightblue" stroke="midnightblue" points="348.292,-250.214 356.501,-243.516 345.907,-243.633 348.292,-250.214"/>
</g>
<!-- Node27&#45;&gt;Node26 -->
<g id="edge39" class="edge"><title>Node27&#45;&gt;Node26</title>
<path fill="none" stroke="midnightblue" d="M207.391,-280.444C182.542,-271.438 143.226,-257.189 115.246,-247.049"/>
<polygon fill="midnightblue" stroke="midnightblue" points="116.093,-243.633 105.499,-243.516 113.708,-250.214 116.093,-243.633"/>
</g>
<!-- Node28&#45;&gt;Node4 -->
<g id="edge41" class="edge"><title>Node28&#45;&gt;Node4</title>
<path fill="none" stroke="midnightblue" d="M41.7478,-280.239C34.8217,-251.016 17.1875,-156.242 67,-112 101.688,-81.1911 407.011,-71.0608 539.306,-68.0987"/>
<polygon fill="midnightblue" stroke="midnightblue" points="539.743,-71.5902 549.665,-67.8736 539.591,-64.5918 539.743,-71.5902"/>
</g>
<!-- Node30 -->
<g id="node30" class="node"><title>Node30</title>
<g id="a_node30"><a xlink:href="_profile_8h.html" target="_top" xlink:title="Profile.h">
<polygon fill="none" stroke="black" points="679.5,-280.5 679.5,-299.5 732.5,-299.5 732.5,-280.5 679.5,-280.5"/>
<text text-anchor="middle" x="706" y="-287.5" font-family="Helvetica,sans-Serif" font-size="10.00">Profile.h</text>
</a>
</g>
</g>
<!-- Node29&#45;&gt;Node30 -->
<g id="edge43" class="edge"><title>Node29&#45;&gt;Node30</title>
<path fill="none" stroke="midnightblue" d="M706,-627.275C706,-605.476 706,-562.495 706,-526 706,-526 706,-526 706,-412 706,-375.714 706,-333.307 706,-309.559"/>
<polygon fill="midnightblue" stroke="midnightblue" points="709.5,-309.509 706,-299.509 702.5,-309.509 709.5,-309.509"/>
</g>
<!-- Node30&#45;&gt;Node3 -->
<g id="edge45" class="edge"><title>Node30&#45;&gt;Node3</title>
<path fill="none" stroke="midnightblue" d="M679.326,-282.344C658.676,-275.859 630.841,-263.989 614,-244 603.002,-230.946 598.367,-211.792 596.416,-197.656"/>
<polygon fill="midnightblue" stroke="midnightblue" points="599.886,-197.184 595.356,-187.607 592.924,-197.919 599.886,-197.184"/>
</g>
<!-- Node31 -->
<g id="node31" class="node"><title>Node31</title>
<polygon fill="none" stroke="#bfbfbf" points="766.5,-224.5 766.5,-243.5 867.5,-243.5 867.5,-224.5 766.5,-224.5"/>
<text text-anchor="middle" x="817" y="-231.5" font-family="Helvetica,sans-Serif" font-size="10.00">boost/uuid/uuid.hpp</text>
</g>
<!-- Node30&#45;&gt;Node31 -->
<g id="edge44" class="edge"><title>Node30&#45;&gt;Node31</title>
<path fill="none" stroke="midnightblue" d="M723.834,-280.324C741.716,-271.625 769.475,-258.12 790.046,-248.113"/>
<polygon fill="midnightblue" stroke="midnightblue" points="791.749,-251.177 799.21,-243.655 788.687,-244.882 791.749,-251.177"/>
</g>
<!-- Node32 -->
<g id="node32" class="node"><title>Node32</title>
<g id="a_node32"><a xlink:href="_res_8h.html" target="_top" xlink:title="../Display/Res.h">
<polygon fill="none" stroke="black" points="702,-168.5 702,-187.5 790,-187.5 790,-168.5 702,-168.5"/>
<text text-anchor="middle" x="746" y="-175.5" font-family="Helvetica,sans-Serif" font-size="10.00">../Display/Res.h</text>
</a>
</g>
</g>
<!-- Node30&#45;&gt;Node32 -->
<g id="edge46" class="edge"><title>Node30&#45;&gt;Node32</title>
<path fill="none" stroke="midnightblue" d="M732.598,-285.885C775.905,-280.205 858.588,-266.621 876,-244 881.422,-236.956 881.156,-231.241 876,-224 866.302,-210.38 828.324,-198.197 795.902,-189.954"/>
<polygon fill="midnightblue" stroke="midnightblue" points="796.603,-186.522 786.056,-187.525 794.927,-193.318 796.603,-186.522"/>
</g>
<!-- Node33 -->
<g id="node33" class="node"><title>Node33</title>
<g id="a_node33"><a xlink:href="_editable_profile_8h.html" target="_top" xlink:title="EditableProfile.h">
<polygon fill="none" stroke="black" points="479,-224.5 479,-243.5 567,-243.5 567,-224.5 479,-224.5"/>
<text text-anchor="middle" x="523" y="-231.5" font-family="Helvetica,sans-Serif" font-size="10.00">EditableProfile.h</text>
</a>
</g>
</g>
<!-- Node30&#45;&gt;Node33 -->
<g id="edge49" class="edge"><title>Node30&#45;&gt;Node33</title>
<path fill="none" stroke="midnightblue" d="M679.39,-281.148C648.534,-272.043 597.393,-256.952 562.036,-246.519"/>
<polygon fill="midnightblue" stroke="midnightblue" points="562.643,-243.049 552.062,-243.576 560.662,-249.763 562.643,-243.049"/>
</g>
<!-- Node32&#45;&gt;Node4 -->
<g id="edge47" class="edge"><title>Node32&#45;&gt;Node4</title>
<path fill="none" stroke="midnightblue" d="M739.116,-168.154C728.396,-154.789 706.588,-129.186 684,-112 667.16,-99.1875 646.18,-87.9452 629.4,-79.9021"/>
<polygon fill="midnightblue" stroke="midnightblue" points="630.611,-76.6048 620.069,-75.5485 627.651,-82.9484 630.611,-76.6048"/>
</g>
<!-- Node32&#45;&gt;Node11 -->
<g id="edge48" class="edge"><title>Node32&#45;&gt;Node11</title>
<path fill="none" stroke="midnightblue" d="M788.782,-168.444C837.333,-158.733 916.364,-142.927 967.256,-132.749"/>
<polygon fill="midnightblue" stroke="midnightblue" points="968.235,-136.122 977.355,-130.729 966.863,-129.258 968.235,-136.122"/>
</g>
<!-- Node33&#45;&gt;Node3 -->
<g id="edge50" class="edge"><title>Node33&#45;&gt;Node3</title>
<path fill="none" stroke="midnightblue" d="M534.568,-224.324C545.42,-216.185 561.881,-203.839 574.883,-194.087"/>
<polygon fill="midnightblue" stroke="midnightblue" points="577.321,-196.634 583.221,-187.834 573.121,-191.034 577.321,-196.634"/>
</g>
<!-- Node34&#45;&gt;Node3 -->
<g id="edge52" class="edge"><title>Node34&#45;&gt;Node3</title>
<path fill="none" stroke="midnightblue" d="M621.546,-459.382C591.963,-431.688 501.274,-341.097 470,-244 459.158,-210.339 500.432,-193.966 538.414,-186.091"/>
<polygon fill="midnightblue" stroke="midnightblue" points="539.308,-189.484 548.478,-184.177 538,-182.607 539.308,-189.484"/>
</g>
<!-- Node35 -->
<g id="node35" class="node"><title>Node35</title>
<g id="a_node35"><a xlink:href="_ui_view_model_8h.html" target="_top" xlink:title="UiViewModel.h">
<polygon fill="none" stroke="black" points="999.5,-403.5 999.5,-422.5 1082.5,-422.5 1082.5,-403.5 999.5,-403.5"/>
<text text-anchor="middle" x="1041" y="-410.5" font-family="Helvetica,sans-Serif" font-size="10.00">UiViewModel.h</text>
</a>
</g>
</g>
<!-- Node34&#45;&gt;Node35 -->
<g id="edge53" class="edge"><title>Node34&#45;&gt;Node35</title>
<path fill="none" stroke="midnightblue" d="M658.538,-464.373C726.239,-455.456 901.661,-432.352 989.419,-420.794"/>
<polygon fill="midnightblue" stroke="midnightblue" points="989.962,-424.252 999.419,-419.477 989.047,-417.312 989.962,-424.252"/>
</g>
<!-- Node35&#45;&gt;Node4 -->
<g id="edge55" class="edge"><title>Node35&#45;&gt;Node4</title>
<path fill="none" stroke="midnightblue" d="M1013.26,-403.475C994.169,-396.378 969.387,-384.567 953,-367 905.868,-316.474 937.101,-276.347 892,-224 830.006,-152.045 794.68,-155.013 710,-112 685.113,-99.3588 655.811,-87.5116 633.71,-79.1493"/>
<polygon fill="midnightblue" stroke="midnightblue" points="634.697,-75.7816 624.104,-75.562 632.248,-82.3393 634.697,-75.7816"/>
</g>
<!-- Node36 -->
<g id="node36" class="node"><title>Node36</title>
<g id="a_node36"><a xlink:href="_nav_8h.html" target="_top" xlink:title="../Control/Nav.h">
<polygon fill="none" stroke="black" points="962,-342 962,-361 1048,-361 1048,-342 962,-342"/>
<text text-anchor="middle" x="1005" y="-349" font-family="Helvetica,sans-Serif" font-size="10.00">../Control/Nav.h</text>
</a>
</g>
</g>
<!-- Node35&#45;&gt;Node36 -->
<g id="edge54" class="edge"><title>Node35&#45;&gt;Node36</title>
<path fill="none" stroke="midnightblue" d="M1035.84,-403.475C1030.55,-394.727 1022.16,-380.869 1015.47,-369.809"/>
<polygon fill="midnightblue" stroke="midnightblue" points="1018.32,-367.753 1010.15,-361.009 1012.33,-371.377 1018.32,-367.753"/>
</g>
<!-- Node37 -->
<g id="node37" class="node"><title>Node37</title>
<g id="a_node37"><a xlink:href="_vec_8h.html" target="_top" xlink:title="../Vec.h">
<polygon fill="none" stroke="black" points="1140.5,-168.5 1140.5,-187.5 1191.5,-187.5 1191.5,-168.5 1140.5,-168.5"/>
<text text-anchor="middle" x="1166" y="-175.5" font-family="Helvetica,sans-Serif" font-size="10.00">../Vec.h</text>
</a>
</g>
</g>
<!-- Node35&#45;&gt;Node37 -->
<g id="edge56" class="edge"><title>Node35&#45;&gt;Node37</title>
<path fill="none" stroke="midnightblue" d="M1082.52,-408.613C1116.6,-403.976 1164.52,-392.996 1198,-367 1248.03,-328.154 1253.42,-305.136 1270,-244 1272.33,-235.421 1274.88,-231.429 1270,-224 1254.95,-201.083 1225.46,-189.781 1201.71,-184.24"/>
<polygon fill="midnightblue" stroke="midnightblue" points="1202.12,-180.749 1191.62,-182.139 1200.69,-187.603 1202.12,-180.749"/>
</g>
<!-- Node38 -->
<g id="node38" class="node"><title>Node38</title>
<g id="a_node38"><a xlink:href="_ui_layout_flags_8h.html" target="_top" xlink:title="UiLayoutFlags.h">
<polygon fill="none" stroke="black" points="962,-224.5 962,-243.5 1050,-243.5 1050,-224.5 962,-224.5"/>
<text text-anchor="middle" x="1006" y="-231.5" font-family="Helvetica,sans-Serif" font-size="10.00">UiLayoutFlags.h</text>
</a>
</g>
</g>
<!-- Node35&#45;&gt;Node38 -->
<g id="edge57" class="edge"><title>Node35&#45;&gt;Node38</title>
<path fill="none" stroke="midnightblue" d="M1045.45,-403.074C1051.97,-388.838 1062.75,-360.135 1057,-336 1049.45,-304.306 1030.28,-271.285 1017.71,-251.96"/>
<polygon fill="midnightblue" stroke="midnightblue" points="1020.62,-250.01 1012.15,-243.639 1014.79,-253.898 1020.62,-250.01"/>
</g>
<!-- Node39 -->
<g id="node39" class="node"><title>Node39</title>
<g id="a_node39"><a xlink:href="_view_model_8h.html" target="_top" xlink:title="ViewModel.h">
<polygon fill="none" stroke="black" points="1115.5,-342 1115.5,-361 1188.5,-361 1188.5,-342 1115.5,-342"/>
<text text-anchor="middle" x="1152" y="-349" font-family="Helvetica,sans-Serif" font-size="10.00">ViewModel.h</text>
</a>
</g>
</g>
<!-- Node35&#45;&gt;Node39 -->
<g id="edge59" class="edge"><title>Node35&#45;&gt;Node39</title>
<path fill="none" stroke="midnightblue" d="M1056.9,-403.475C1075.28,-393.622 1105.76,-377.288 1127.24,-365.77"/>
<polygon fill="midnightblue" stroke="midnightblue" points="1128.97,-368.818 1136.13,-361.009 1125.66,-362.649 1128.97,-368.818"/>
</g>
<!-- Node38&#45;&gt;Node4 -->
<g id="edge58" class="edge"><title>Node38&#45;&gt;Node4</title>
<path fill="none" stroke="midnightblue" d="M966.314,-224.47C941.399,-217.661 909.628,-206.183 886,-188 853.162,-162.729 866.833,-134.441 832,-112 804.164,-94.067 719.198,-80.8583 660.212,-73.5457"/>
<polygon fill="midnightblue" stroke="midnightblue" points="660.6,-70.0673 650.251,-72.336 659.756,-77.0162 660.6,-70.0673"/>
</g>
<!-- Node40 -->
<g id="node40" class="node"><title>Node40</title>
<g id="a_node40"><a xlink:href="_display_8h.html" target="_top" xlink:title="Display.h">
<polygon fill="none" stroke="black" points="1133,-280.5 1133,-299.5 1191,-299.5 1191,-280.5 1133,-280.5"/>
<text text-anchor="middle" x="1162" y="-287.5" font-family="Helvetica,sans-Serif" font-size="10.00">Display.h</text>
</a>
</g>
</g>
<!-- Node39&#45;&gt;Node40 -->
<g id="edge60" class="edge"><title>Node39&#45;&gt;Node40</title>
<path fill="none" stroke="midnightblue" d="M1153.43,-341.975C1154.84,-333.58 1157.05,-320.481 1158.86,-309.663"/>
<polygon fill="midnightblue" stroke="midnightblue" points="1162.36,-309.951 1160.57,-299.509 1155.46,-308.791 1162.36,-309.951"/>
</g>
<!-- Node44 -->
<g id="node44" class="node"><title>Node44</title>
<g id="a_node44"><a xlink:href="_view_attacher_8h.html" target="_top" xlink:title="ViewAttacher.h">
<polygon fill="none" stroke="black" points="1177.5,-224.5 1177.5,-243.5 1260.5,-243.5 1260.5,-224.5 1177.5,-224.5"/>
<text text-anchor="middle" x="1219" y="-231.5" font-family="Helvetica,sans-Serif" font-size="10.00">ViewAttacher.h</text>
</a>
</g>
</g>
<!-- Node39&#45;&gt;Node44 -->
<g id="edge71" class="edge"><title>Node39&#45;&gt;Node44</title>
<path fill="none" stroke="midnightblue" d="M1162.71,-341.944C1173.6,-332.695 1190.23,-316.984 1200,-300 1208.34,-285.511 1213.28,-267.065 1216.02,-253.527"/>
<polygon fill="midnightblue" stroke="midnightblue" points="1219.49,-253.968 1217.83,-243.505 1212.61,-252.722 1219.49,-253.968"/>
</g>
<!-- Node45 -->
<g id="node45" class="node"><title>Node45</title>
<g id="a_node45"><a xlink:href="_view_8h.html" target="_top" xlink:title="View.h">
<polygon fill="none" stroke="black" points="1067.5,-280.5 1067.5,-299.5 1114.5,-299.5 1114.5,-280.5 1067.5,-280.5"/>
<text text-anchor="middle" x="1091" y="-287.5" font-family="Helvetica,sans-Serif" font-size="10.00">View.h</text>
</a>
</g>
</g>
<!-- Node39&#45;&gt;Node45 -->
<g id="edge70" class="edge"><title>Node39&#45;&gt;Node45</title>
<path fill="none" stroke="midnightblue" d="M1143.26,-341.975C1133.84,-332.785 1118.64,-317.956 1107.05,-306.656"/>
<polygon fill="midnightblue" stroke="midnightblue" points="1109.33,-303.986 1099.72,-299.509 1104.44,-308.997 1109.33,-303.986"/>
</g>
<!-- Node40&#45;&gt;Node37 -->
<g id="edge61" class="edge"><title>Node40&#45;&gt;Node37</title>
<path fill="none" stroke="midnightblue" d="M1162.31,-280.368C1162.96,-262.617 1164.45,-221.666 1165.32,-197.597"/>
<polygon fill="midnightblue" stroke="midnightblue" points="1168.82,-197.712 1165.69,-187.591 1161.83,-197.458 1168.82,-197.712"/>
</g>
<!-- Node40&#45;&gt;Node38 -->
<g id="edge68" class="edge"><title>Node40&#45;&gt;Node38</title>
<path fill="none" stroke="midnightblue" d="M1137.28,-280.444C1111.15,-271.399 1069.74,-257.064 1040.42,-246.916"/>
<polygon fill="midnightblue" stroke="midnightblue" points="1041.2,-243.48 1030.6,-243.516 1038.91,-250.095 1041.2,-243.48"/>
</g>
<!-- Node41 -->
<g id="node41" class="node"><title>Node41</title>
<g id="a_node41"><a xlink:href="_styles_8h.html" target="_top" xlink:title="Styles.h">
<polygon fill="none" stroke="black" points="1067.5,-224.5 1067.5,-243.5 1120.5,-243.5 1120.5,-224.5 1067.5,-224.5"/>
<text text-anchor="middle" x="1094" y="-231.5" font-family="Helvetica,sans-Serif" font-size="10.00">Styles.h</text>
</a>
</g>
</g>
<!-- Node40&#45;&gt;Node41 -->
<g id="edge62" class="edge"><title>Node40&#45;&gt;Node41</title>
<path fill="none" stroke="midnightblue" d="M1151.07,-280.324C1140.83,-272.185 1125.28,-259.839 1113,-250.087"/>
<polygon fill="midnightblue" stroke="midnightblue" points="1115.13,-247.312 1105.12,-243.834 1110.78,-252.794 1115.13,-247.312"/>
</g>
<!-- Node40&#45;&gt;Node44 -->
<g id="edge69" class="edge"><title>Node40&#45;&gt;Node44</title>
<path fill="none" stroke="midnightblue" d="M1171.16,-280.324C1179.5,-272.42 1192.03,-260.548 1202.18,-250.938"/>
<polygon fill="midnightblue" stroke="midnightblue" points="1204.82,-253.252 1209.68,-243.834 1200.01,-248.171 1204.82,-253.252"/>
</g>
<!-- Node41&#45;&gt;Node3 -->
<g id="edge67" class="edge"><title>Node41&#45;&gt;Node3</title>
<path fill="none" stroke="midnightblue" d="M1067.34,-225.691C1064.54,-225.058 1061.72,-224.478 1059,-224 1039.23,-220.52 771.237,-195.39 651.779,-184.27"/>
<polygon fill="midnightblue" stroke="midnightblue" points="652.003,-180.776 641.722,-183.334 651.355,-187.746 652.003,-180.776"/>
</g>
<!-- Node41&#45;&gt;Node37 -->
<g id="edge63" class="edge"><title>Node41&#45;&gt;Node37</title>
<path fill="none" stroke="midnightblue" d="M1105.57,-224.324C1116.42,-216.185 1132.88,-203.839 1145.88,-194.087"/>
<polygon fill="midnightblue" stroke="midnightblue" points="1148.32,-196.634 1154.22,-187.834 1144.12,-191.034 1148.32,-196.634"/>
</g>
<!-- Node42 -->
<g id="node42" class="node"><title>Node42</title>
<g id="a_node42"><a xlink:href="_ui_font_8h.html" target="_top" xlink:title="UiFont.h">
<polygon fill="none" stroke="black" points="895,-168.5 895,-187.5 949,-187.5 949,-168.5 895,-168.5"/>
<text text-anchor="middle" x="922" y="-175.5" font-family="Helvetica,sans-Serif" font-size="10.00">UiFont.h</text>
</a>
</g>
</g>
<!-- Node41&#45;&gt;Node42 -->
<g id="edge64" class="edge"><title>Node41&#45;&gt;Node42</title>
<path fill="none" stroke="midnightblue" d="M1067.12,-224.562C1038.01,-215.423 991.38,-200.782 958.859,-190.572"/>
<polygon fill="midnightblue" stroke="midnightblue" points="959.843,-187.213 949.254,-187.556 957.746,-193.891 959.843,-187.213"/>
</g>
<!-- Node42&#45;&gt;Node6 -->
<g id="edge66" class="edge"><title>Node42&#45;&gt;Node6</title>
<path fill="none" stroke="midnightblue" d="M894.824,-172.443C841.247,-163.458 721.194,-143.324 651.942,-131.711"/>
<polygon fill="midnightblue" stroke="midnightblue" points="652.135,-128.194 641.694,-129.992 650.977,-135.098 652.135,-128.194"/>
</g>
<!-- Node43 -->
<g id="node43" class="node"><title>Node43</title>
<g id="a_node43"><a xlink:href="_hash_8h.html" target="_top" xlink:title="../Util/Hash.h">
<polygon fill="none" stroke="black" points="884.5,-112.5 884.5,-131.5 959.5,-131.5 959.5,-112.5 884.5,-112.5"/>
<text text-anchor="middle" x="922" y="-119.5" font-family="Helvetica,sans-Serif" font-size="10.00">../Util/Hash.h</text>
</a>
</g>
</g>
<!-- Node42&#45;&gt;Node43 -->
<g id="edge65" class="edge"><title>Node42&#45;&gt;Node43</title>
<path fill="none" stroke="midnightblue" d="M922,-168.083C922,-161.006 922,-150.861 922,-141.986"/>
<polygon fill="midnightblue" stroke="midnightblue" points="925.5,-141.751 922,-131.751 918.5,-141.751 925.5,-141.751"/>
</g>
<!-- Node47 -->
<g id="node47" class="node"><title>Node47</title>
<g id="a_node47"><a xlink:href="_hud_decor_8h.html" target="_top" xlink:title="HudDecor.h">
<polygon fill="none" stroke="black" points="1006.5,-571.5 1006.5,-590.5 1075.5,-590.5 1075.5,-571.5 1006.5,-571.5"/>
<text text-anchor="middle" x="1041" y="-578.5" font-family="Helvetica,sans-Serif" font-size="10.00">HudDecor.h</text>
</a>
</g>
</g>
<!-- Node46&#45;&gt;Node47 -->
<g id="edge73" class="edge"><title>Node46&#45;&gt;Node47</title>
<path fill="none" stroke="midnightblue" d="M943.333,-632.975C962.211,-623.122 993.507,-606.788 1015.58,-595.27"/>
<polygon fill="midnightblue" stroke="midnightblue" points="1017.45,-598.239 1024.7,-590.509 1014.21,-592.033 1017.45,-598.239"/>
</g>
<!-- Node47&#45;&gt;Node13 -->
<g id="edge74" class="edge"><title>Node47&#45;&gt;Node13</title>
<path fill="none" stroke="midnightblue" d="M1075.78,-574.2C1152,-560.506 1327,-523.265 1327,-470 1327,-470 1327,-470 1327,-233 1327,-180.527 1265.98,-149.844 1223.11,-134.761"/>
<polygon fill="midnightblue" stroke="midnightblue" points="1224.06,-131.386 1213.46,-131.518 1221.83,-138.021 1224.06,-131.386"/>
</g>
<!-- Node48 -->
<g id="node48" class="node"><title>Node48</title>
<g id="a_node48"><a xlink:href="_container_8h.html" target="_top" xlink:title="Container.h">
<polygon fill="none" stroke="black" points="1007.5,-515.5 1007.5,-534.5 1074.5,-534.5 1074.5,-515.5 1007.5,-515.5"/>
<text text-anchor="middle" x="1041" y="-522.5" font-family="Helvetica,sans-Serif" font-size="10.00">Container.h</text>
</a>
</g>
</g>
<!-- Node47&#45;&gt;Node48 -->
<g id="edge75" class="edge"><title>Node47&#45;&gt;Node48</title>
<path fill="none" stroke="midnightblue" d="M1041,-571.083C1041,-564.006 1041,-553.861 1041,-544.986"/>
<polygon fill="midnightblue" stroke="midnightblue" points="1044.5,-544.751 1041,-534.751 1037.5,-544.751 1044.5,-544.751"/>
</g>
<!-- Node49 -->
<g id="node49" class="node"><title>Node49</title>
<g id="a_node49"><a xlink:href="_base_container_8h.html" target="_top" xlink:title="BaseContainer.h">
<polygon fill="none" stroke="black" points="996.5,-459.5 996.5,-478.5 1085.5,-478.5 1085.5,-459.5 996.5,-459.5"/>
<text text-anchor="middle" x="1041" y="-466.5" font-family="Helvetica,sans-Serif" font-size="10.00">BaseContainer.h</text>
</a>
</g>
</g>
<!-- Node48&#45;&gt;Node49 -->
<g id="edge76" class="edge"><title>Node48&#45;&gt;Node49</title>
<path fill="none" stroke="midnightblue" d="M1041,-515.083C1041,-508.006 1041,-497.861 1041,-488.986"/>
<polygon fill="midnightblue" stroke="midnightblue" points="1044.5,-488.751 1041,-478.751 1037.5,-488.751 1044.5,-488.751"/>
</g>
<!-- Node49&#45;&gt;Node35 -->
<g id="edge77" class="edge"><title>Node49&#45;&gt;Node35</title>
<path fill="none" stroke="midnightblue" d="M1041,-459.083C1041,-452.006 1041,-441.861 1041,-432.986"/>
<polygon fill="midnightblue" stroke="midnightblue" points="1044.5,-432.751 1041,-422.751 1037.5,-432.751 1044.5,-432.751"/>
</g>
</g>
</svg>
