<?xml version="1.0" encoding="UTF-8" standalone="no"?>
<!DOCTYPE svg PUBLIC "-//W3C//DTD SVG 1.1//EN"
 "http://www.w3.org/Graphics/SVG/1.1/DTD/svg11.dtd">
<!-- Generated by graphviz version 2.26.3 (20100126.1600)
 -->
<!-- Title: StaticText.h Pages: 1 -->
<svg width="404pt" height="88pt"
 viewBox="0.00 0.00 404.00 88.00" xmlns="http://www.w3.org/2000/svg" xmlns:xlink="http://www.w3.org/1999/xlink">
<g id="graph1" class="graph" transform="scale(1 1) rotate(0) translate(4 84)">
<title>StaticText.h</title>
<!-- Node1 -->
<g id="node1" class="node"><title>Node1</title>
<polygon fill="#bfbfbf" stroke="black" points="159,-59 159,-79 227,-79 227,-59 159,-59"/>
<text text-anchor="middle" x="193" y="-66" font-family="FreeSans" font-size="10.00">StaticText.h</text>
</g>
<!-- Node2 -->
<g id="node3" class="node"><title>Node2</title>
<a xlink:href="_observer_8cpp.html" target="_top" xlink:title="Observer.cpp">
<polygon fill="none" stroke="black" points="0,-1 0,-21 74,-21 74,-1 0,-1"/>
<text text-anchor="middle" x="37" y="-8" font-family="FreeSans" font-size="10.00">Observer.cpp</text>
</a>
</g>
<!-- Node1&#45;&gt;Node2 -->
<g id="edge2" class="edge"><title>Node1&#45;&gt;Node2</title>
<path fill="none" stroke="midnightblue" d="M156.296,-55.3536C128.046,-44.8504 89.6409,-30.5716 64.123,-21.0842"/>
<polygon fill="midnightblue" stroke="midnightblue" points="155.234,-58.6928 165.827,-58.8972 157.673,-52.1316 155.234,-58.6928"/>
</g>
<!-- Node3 -->
<g id="node5" class="node"><title>Node3</title>
<a xlink:href="_multipart_text_8cpp.html" target="_top" xlink:title="MultipartText.cpp">
<polygon fill="none" stroke="black" points="91.5,-1 91.5,-21 182.5,-21 182.5,-1 91.5,-1"/>
<text text-anchor="middle" x="137" y="-8" font-family="FreeSans" font-size="10.00">MultipartText.cpp</text>
</a>
</g>
<!-- Node1&#45;&gt;Node3 -->
<g id="edge4" class="edge"><title>Node1&#45;&gt;Node3</title>
<path fill="none" stroke="midnightblue" d="M176.169,-51.5682C166.665,-41.7249 155.108,-29.7548 147.02,-21.3776"/>
<polygon fill="midnightblue" stroke="midnightblue" points="173.782,-54.1342 183.246,-58.8972 178.817,-49.272 173.782,-54.1342"/>
</g>
<!-- Node4 -->
<g id="node7" class="node"><title>Node4</title>
<a xlink:href="_numeric_glyphs_8cpp.html" target="_top" xlink:title="NumericGlyphs.cpp">
<polygon fill="none" stroke="black" points="199.5,-1 199.5,-21 300.5,-21 300.5,-1 199.5,-1"/>
<text text-anchor="middle" x="250" y="-8" font-family="FreeSans" font-size="10.00">NumericGlyphs.cpp</text>
</a>
</g>
<!-- Node1&#45;&gt;Node4 -->
<g id="edge6" class="edge"><title>Node1&#45;&gt;Node4</title>
<path fill="none" stroke="midnightblue" d="M210.131,-51.5682C219.805,-41.7249 231.569,-29.7548 239.801,-21.3776"/>
<polygon fill="midnightblue" stroke="midnightblue" points="207.442,-49.3116 202.929,-58.8972 212.434,-54.2181 207.442,-49.3116"/>
</g>
<!-- Node5 -->
<g id="node9" class="node"><title>Node5</title>
<a xlink:href="_static_text_8cpp.html" target="_top" xlink:title="StaticText.cpp">
<polygon fill="none" stroke="black" points="317.5,-1 317.5,-21 396.5,-21 396.5,-1 317.5,-1"/>
<text text-anchor="middle" x="357" y="-8" font-family="FreeSans" font-size="10.00">StaticText.cpp</text>
</a>
</g>
<!-- Node1&#45;&gt;Node5 -->
<g id="edge8" class="edge"><title>Node1&#45;&gt;Node5</title>
<path fill="none" stroke="midnightblue" d="M231.198,-55.491C260.932,-44.9752 301.542,-30.6131 328.486,-21.0842"/>
<polygon fill="midnightblue" stroke="midnightblue" points="229.827,-52.2632 221.567,-58.8972 232.161,-58.8626 229.827,-52.2632"/>
</g>
</g>
</svg>
