<?xml version="1.0" encoding="UTF-8" standalone="no"?>
<!DOCTYPE svg PUBLIC "-//W3C//DTD SVG 1.1//EN"
 "http://www.w3.org/Graphics/SVG/1.1/DTD/svg11.dtd">
<!-- Generated by graphviz version 2.26.3 (20100126.1600)
 -->
<!-- Title: StateButton.h Pages: 1 -->
<!--zoomable 204 -->
<svg id="main" version="1.1" xmlns="http://www.w3.org/2000/svg" xmlns:xlink="http://www.w3.org/1999/xlink" xml:space="preserve" onload="init(evt)">
<style type="text/css"><![CDATA[
.edge:hover path { stroke: red; }
.edge:hover polygon { stroke: red; fill: red; }
]]></style>
<script type="text/javascript"><![CDATA[
var edges = document.getElementsByTagName('g');
if (edges && edges.length) {
  for (var i=0;i<edges.length;i++) {
    if (edges[i].id.substr(0,4)=='edge') {
      edges[i].setAttribute('class','edge');
    }
  }
}
]]></script>
        <defs>
                <circle id="rim" cx="0" cy="0" r="7"/>
                <circle id="rim2" cx="0" cy="0" r="3.5"/>
                <g id="zoomPlus">
                        <use xlink:href="#rim" fill="#404040">
                                <set attributeName="fill" to="#808080" begin="zoomplus.mouseover" end="zoomplus.mouseout"/>
                        </use>
                        <path d="M-4,0h8M0,-4v8" fill="none" stroke="white" stroke-width="1.5" pointer-events="none"/>
                </g>
                <g id="zoomMin">
                        <use xlink:href="#rim" fill="#404040">
                                <set attributeName="fill" to="#808080" begin="zoomminus.mouseover" end="zoomminus.mouseout"/>
                        </use>
                        <path d="M-4,0h8" fill="none" stroke="white" stroke-width="1.5" pointer-events="none"/>
                </g>
                <g id="dirArrow">
                        <path fill="none" stroke="white" stroke-width="1.5" d="M0,-3.0v7 M-2.5,-0.5L0,-3.0L2.5,-0.5"/>
                </g>
               <g id="resetDef">
                       <use xlink:href="#rim2" fill="#404040">
                               <set attributeName="fill" to="#808080" begin="reset.mouseover" end="reset.mouseout"/>
                       </use>
               </g>
        </defs>

<script type="text/javascript">
var viewWidth = 696;
var viewHeight = 204;
var sectionId = 'dynsection-1';
</script>
<script xlink:href="svgpan.js"/>
<svg id="graph" class="graph">
<g id="viewport">
<title>StateButton.h</title>
<!-- Node1 -->
<g id="node1" class="node"><title>Node1</title>
<polygon fill="#bfbfbf" stroke="black" points="423,-175 423,-195 499,-195 499,-175 423,-175"/>
<text text-anchor="middle" x="461" y="-182" font-family="FreeSans" font-size="10.00">StateButton.h</text>
</g>
<!-- Node2 -->
<g id="node3" class="node"><title>Node2</title>
<a xlink:href="_radio_button_8h.html" target="_top" xlink:title="RadioButton.h">
<polygon fill="none" stroke="black" points="257.5,-117 257.5,-137 334.5,-137 334.5,-117 257.5,-117"/>
<text text-anchor="middle" x="296" y="-124" font-family="FreeSans" font-size="10.00">RadioButton.h</text>
</a>
</g>
<!-- Node1&#45;&gt;Node2 -->
<g id="edge2" class="edge"><title>Node1&#45;&gt;Node2</title>
<path fill="none" stroke="midnightblue" d="M422.569,-171.491C392.654,-160.975 351.796,-146.613 324.688,-137.084"/>
<polygon fill="midnightblue" stroke="midnightblue" points="421.664,-174.883 432.259,-174.897 423.986,-168.279 421.664,-174.883"/>
</g>
<!-- Node10 -->
<g id="node20" class="node"><title>Node10</title>
<a xlink:href="_checkbox_8h.html" target="_top" xlink:title="Checkbox.h">
<polygon fill="none" stroke="black" points="387.5,-117 387.5,-137 454.5,-137 454.5,-117 387.5,-117"/>
<text text-anchor="middle" x="421" y="-124" font-family="FreeSans" font-size="10.00">Checkbox.h</text>
</a>
</g>
<!-- Node1&#45;&gt;Node10 -->
<g id="edge20" class="edge"><title>Node1&#45;&gt;Node10</title>
<path fill="none" stroke="midnightblue" d="M448.165,-166.389C441.54,-156.782 433.706,-145.423 428.157,-137.378"/>
<polygon fill="midnightblue" stroke="midnightblue" points="445.474,-168.652 454.033,-174.897 451.236,-164.678 445.474,-168.652"/>
</g>
<!-- Node12 -->
<g id="node26" class="node"><title>Node12</title>
<a xlink:href="_pick_list_8h.html" target="_top" xlink:title="PickList.h">
<polygon fill="none" stroke="black" points="472,-117 472,-137 532,-137 532,-117 472,-117"/>
<text text-anchor="middle" x="502" y="-124" font-family="FreeSans" font-size="10.00">PickList.h</text>
</a>
</g>
<!-- Node1&#45;&gt;Node12 -->
<g id="edge28" class="edge"><title>Node1&#45;&gt;Node12</title>
<path fill="none" stroke="midnightblue" d="M473.946,-166.686C480.781,-157.017 488.918,-145.506 494.664,-137.378"/>
<polygon fill="midnightblue" stroke="midnightblue" points="471.056,-164.711 468.142,-174.897 476.772,-168.752 471.056,-164.711"/>
</g>
<!-- Node14 -->
<g id="node31" class="node"><title>Node14</title>
<a xlink:href="_state_button_8cpp.html" target="_top" xlink:title="StateButton.cpp">
<polygon fill="none" stroke="black" points="550,-117 550,-137 636,-137 636,-117 550,-117"/>
<text text-anchor="middle" x="593" y="-124" font-family="FreeSans" font-size="10.00">StateButton.cpp</text>
</a>
</g>
<!-- Node1&#45;&gt;Node14 -->
<g id="edge34" class="edge"><title>Node1&#45;&gt;Node14</title>
<path fill="none" stroke="midnightblue" d="M493.288,-170.813C516.984,-160.401 548.605,-146.507 569.828,-137.182"/>
<polygon fill="midnightblue" stroke="midnightblue" points="491.74,-167.67 483.993,-174.897 494.556,-174.079 491.74,-167.67"/>
</g>
<!-- Node3 -->
<g id="node5" class="node"><title>Node3</title>
<a xlink:href="_display_select_scene_8h.html" target="_top" xlink:title="DisplaySelectScene.h">
<polygon fill="none" stroke="black" points="5.5,-59 5.5,-79 116.5,-79 116.5,-59 5.5,-59"/>
<text text-anchor="middle" x="61" y="-66" font-family="FreeSans" font-size="10.00">DisplaySelectScene.h</text>
</a>
</g>
<!-- Node2&#45;&gt;Node3 -->
<g id="edge4" class="edge"><title>Node2&#45;&gt;Node3</title>
<path fill="none" stroke="midnightblue" d="M247.478,-115.024C204.357,-104.382 142.048,-89.0034 101.535,-79.0043"/>
<polygon fill="midnightblue" stroke="midnightblue" points="246.91,-118.489 257.458,-117.487 248.588,-111.693 246.91,-118.489"/>
</g>
<!-- Node6 -->
<g id="node11" class="node"><title>Node6</title>
<a xlink:href="_video_settings_scene_8h.html" target="_top" xlink:title="VideoSettingsScene.h">
<polygon fill="none" stroke="black" points="239.5,-59 239.5,-79 352.5,-79 352.5,-59 239.5,-59"/>
<text text-anchor="middle" x="296" y="-66" font-family="FreeSans" font-size="10.00">VideoSettingsScene.h</text>
</a>
</g>
<!-- Node2&#45;&gt;Node6 -->
<g id="edge10" class="edge"><title>Node2&#45;&gt;Node6</title>
<path fill="none" stroke="midnightblue" d="M296,-106.89C296,-97.6201 296,-87.0083 296,-79.3776"/>
<polygon fill="midnightblue" stroke="midnightblue" points="292.5,-106.897 296,-116.897 299.5,-106.897 292.5,-106.897"/>
</g>
<!-- Node8 -->
<g id="node16" class="node"><title>Node8</title>
<a xlink:href="_test_lab_scene_8cpp.html" target="_top" xlink:title="TestLabScene.cpp">
<polygon fill="none" stroke="black" points="408,-59 408,-79 506,-79 506,-59 408,-59"/>
<text text-anchor="middle" x="457" y="-66" font-family="FreeSans" font-size="10.00">TestLabScene.cpp</text>
</a>
</g>
<!-- Node2&#45;&gt;Node8 -->
<g id="edge16" class="edge"><title>Node2&#45;&gt;Node8</title>
<path fill="none" stroke="midnightblue" d="M333.499,-113.491C362.689,-102.975 402.557,-88.6131 429.008,-79.0842"/>
<polygon fill="midnightblue" stroke="midnightblue" points="332.266,-110.215 324.044,-116.897 334.638,-116.801 332.266,-110.215"/>
</g>
<!-- Node9 -->
<g id="node18" class="node"><title>Node9</title>
<a xlink:href="_radio_button_8cpp.html" target="_top" xlink:title="RadioButton.cpp">
<polygon fill="none" stroke="black" points="134,-59 134,-79 222,-79 222,-59 134,-59"/>
<text text-anchor="middle" x="178" y="-66" font-family="FreeSans" font-size="10.00">RadioButton.cpp</text>
</a>
</g>
<!-- Node2&#45;&gt;Node9 -->
<g id="edge18" class="edge"><title>Node2&#45;&gt;Node9</title>
<path fill="none" stroke="midnightblue" d="M266.286,-112.395C245.202,-102.031 217.433,-88.3825 198.714,-79.1817"/>
<polygon fill="midnightblue" stroke="midnightblue" points="264.928,-115.627 275.446,-116.897 268.015,-109.345 264.928,-115.627"/>
</g>
<!-- Node4 -->
<g id="node7" class="node"><title>Node4</title>
<a xlink:href="_display_select_scene_8cpp.html" target="_top" xlink:title="DisplaySelectScene.cpp">
<polygon fill="none" stroke="black" points="0,-1 0,-21 122,-21 122,-1 0,-1"/>
<text text-anchor="middle" x="61" y="-8" font-family="FreeSans" font-size="10.00">DisplaySelectScene.cpp</text>
</a>
</g>
<!-- Node3&#45;&gt;Node4 -->
<g id="edge6" class="edge"><title>Node3&#45;&gt;Node4</title>
<path fill="none" stroke="midnightblue" d="M61,-48.8902C61,-39.6201 61,-29.0083 61,-21.3776"/>
<polygon fill="midnightblue" stroke="midnightblue" points="57.5001,-48.8971 61,-58.8972 64.5001,-48.8972 57.5001,-48.8971"/>
</g>
<!-- Node5 -->
<g id="node9" class="node"><title>Node5</title>
<a xlink:href="_video_settings_scene_8cpp.html" target="_top" xlink:title="VideoSettingsScene.cpp">
<polygon fill="none" stroke="black" points="298.5,-1 298.5,-21 421.5,-21 421.5,-1 298.5,-1"/>
<text text-anchor="middle" x="360" y="-8" font-family="FreeSans" font-size="10.00">VideoSettingsScene.cpp</text>
</a>
</g>
<!-- Node3&#45;&gt;Node5 -->
<g id="edge8" class="edge"><title>Node3&#45;&gt;Node5</title>
<path fill="none" stroke="midnightblue" d="M122.686,-57.0341C177.541,-46.3934 256.829,-31.013 308.393,-21.0108"/>
<polygon fill="midnightblue" stroke="midnightblue" points="121.891,-53.6231 112.74,-58.9634 123.224,-60.495 121.891,-53.6231"/>
</g>
<!-- Node6&#45;&gt;Node5 -->
<g id="edge14" class="edge"><title>Node6&#45;&gt;Node5</title>
<path fill="none" stroke="midnightblue" d="M314.593,-52.1504C325.572,-42.2003 339.122,-29.9207 348.549,-21.3776"/>
<polygon fill="midnightblue" stroke="midnightblue" points="312.208,-49.5885 307.148,-58.8972 316.908,-54.7754 312.208,-49.5885"/>
</g>
<!-- Node7 -->
<g id="node13" class="node"><title>Node7</title>
<a xlink:href="_settings_menu_scene_8cpp.html" target="_top" xlink:title="SettingsMenuScene.cpp">
<polygon fill="none" stroke="black" points="159,-1 159,-21 281,-21 281,-1 159,-1"/>
<text text-anchor="middle" x="220" y="-8" font-family="FreeSans" font-size="10.00">SettingsMenuScene.cpp</text>
</a>
</g>
<!-- Node6&#45;&gt;Node7 -->
<g id="edge12" class="edge"><title>Node6&#45;&gt;Node7</title>
<path fill="none" stroke="midnightblue" d="M274.624,-52.6866C261.366,-42.5689 244.746,-29.8852 233.341,-21.1817"/>
<polygon fill="midnightblue" stroke="midnightblue" points="272.689,-55.6127 282.762,-58.8972 276.936,-50.0481 272.689,-55.6127"/>
</g>
<!-- Node10&#45;&gt;Node5 -->
<g id="edge24" class="edge"><title>Node10&#45;&gt;Node5</title>
<path fill="none" stroke="midnightblue" d="M410.916,-107.825C397.833,-82.9442 375.48,-40.438 365.314,-21.1055"/>
<polygon fill="midnightblue" stroke="midnightblue" points="407.834,-109.484 415.587,-116.706 414.03,-106.226 407.834,-109.484"/>
</g>
<!-- Node10&#45;&gt;Node8 -->
<g id="edge22" class="edge"><title>Node10&#45;&gt;Node8</title>
<path fill="none" stroke="midnightblue" d="M432.552,-108.389C438.514,-98.7824 445.565,-87.423 450.559,-79.3776"/>
<polygon fill="midnightblue" stroke="midnightblue" points="429.571,-106.555 427.271,-116.897 435.518,-110.247 429.571,-106.555"/>
</g>
<!-- Node11 -->
<g id="node24" class="node"><title>Node11</title>
<a xlink:href="_checkbox_8cpp.html" target="_top" xlink:title="Checkbox.cpp">
<polygon fill="none" stroke="black" points="523.5,-59 523.5,-79 600.5,-79 600.5,-59 523.5,-59"/>
<text text-anchor="middle" x="562" y="-66" font-family="FreeSans" font-size="10.00">Checkbox.cpp</text>
</a>
</g>
<!-- Node10&#45;&gt;Node11 -->
<g id="edge26" class="edge"><title>Node10&#45;&gt;Node11</title>
<path fill="none" stroke="midnightblue" d="M454.816,-113.09C480.199,-102.649 514.377,-88.5898 537.248,-79.1817"/>
<polygon fill="midnightblue" stroke="midnightblue" points="453.477,-109.856 445.56,-116.897 456.14,-116.33 453.477,-109.856"/>
</g>
<!-- Node12&#45;&gt;Node8 -->
<g id="edge30" class="edge"><title>Node12&#45;&gt;Node8</title>
<path fill="none" stroke="midnightblue" d="M488.02,-108.981C480.472,-99.2522 471.422,-87.5889 465.052,-79.3776"/>
<polygon fill="midnightblue" stroke="midnightblue" points="485.266,-111.142 494.162,-116.897 490.797,-106.851 485.266,-111.142"/>
</g>
<!-- Node13 -->
<g id="node29" class="node"><title>Node13</title>
<a xlink:href="_pick_list_8cpp.html" target="_top" xlink:title="PickList.cpp">
<polygon fill="none" stroke="black" points="617.5,-59 617.5,-79 688.5,-79 688.5,-59 617.5,-59"/>
<text text-anchor="middle" x="653" y="-66" font-family="FreeSans" font-size="10.00">PickList.cpp</text>
</a>
</g>
<!-- Node12&#45;&gt;Node13 -->
<g id="edge32" class="edge"><title>Node12&#45;&gt;Node13</title>
<path fill="none" stroke="midnightblue" d="M537.887,-113.216C565.197,-102.726 602.154,-88.5302 626.746,-79.0842"/>
<polygon fill="midnightblue" stroke="midnightblue" points="536.382,-110.044 528.302,-116.897 538.892,-116.579 536.382,-110.044"/>
</g>
</g>
</svg>
        <g id="navigator" transform="translate(0 0)" fill="#404254">
                <rect fill="#f2f5e9" fill-opacity="0.5" stroke="#606060" stroke-width=".5" x="0" y="0" width="60" height="60"/>
                <use id="zoomplus" xlink:href="#zoomPlus" x="17" y="9" onmousedown="handleZoom(evt,'in')"/>
                <use id="zoomminus" xlink:href="#zoomMin" x="42" y="9" onmousedown="handleZoom(evt,'out')"/>
                <use id="reset" xlink:href="#resetDef" x="30" y="36" onmousedown="handleReset()"/>
                <g id="arrowUp" xlink:href="#dirArrow" transform="translate(30 24)" onmousedown="handlePan(0,-1)">
                  <use xlink:href="#rim" fill="#404040">
                        <set attributeName="fill" to="#808080" begin="arrowUp.mouseover" end="arrowUp.mouseout"/>
                  </use>
                  <path fill="none" stroke="white" stroke-width="1.5" d="M0,-3.0v7 M-2.5,-0.5L0,-3.0L2.5,-0.5"/>
                </g>
                <g id="arrowRight" xlink:href="#dirArrow" transform="rotate(90) translate(36 -43)" onmousedown="handlePan(1,0)">
                  <use xlink:href="#rim" fill="#404040">
                        <set attributeName="fill" to="#808080" begin="arrowRight.mouseover" end="arrowRight.mouseout"/>
                  </use>
                  <path fill="none" stroke="white" stroke-width="1.5" d="M0,-3.0v7 M-2.5,-0.5L0,-3.0L2.5,-0.5"/>
                </g>
                <g id="arrowDown" xlink:href="#dirArrow" transform="rotate(180) translate(-30 -48)" onmousedown="handlePan(0,1)">
                  <use xlink:href="#rim" fill="#404040">
                        <set attributeName="fill" to="#808080" begin="arrowDown.mouseover" end="arrowDown.mouseout"/>
                  </use>
                  <path fill="none" stroke="white" stroke-width="1.5" d="M0,-3.0v7 M-2.5,-0.5L0,-3.0L2.5,-0.5"/>
                </g>
                <g id="arrowLeft" xlink:href="#dirArrow" transform="rotate(270) translate(-36 17)" onmousedown="handlePan(-1,0)">
                  <use xlink:href="#rim" fill="#404040">
                        <set attributeName="fill" to="#808080" begin="arrowLeft.mouseover" end="arrowLeft.mouseout"/>
                  </use>
                  <path fill="none" stroke="white" stroke-width="1.5" d="M0,-3.0v7 M-2.5,-0.5L0,-3.0L2.5,-0.5"/>
                </g>
        </g>
        <svg viewBox="0 0 15 15" width="100%" height="30px" preserveAspectRatio="xMaxYMin meet">
         <g id="arrow_out" transform="scale(0.3 0.3)">
          <a xlink:href="_state_button_8h__dep__incl_org.svg" target="_base">
           <rect id="button" ry="5" rx="5" y="6" x="6" height="38" width="38"
                fill="#f2f5e9" fill-opacity="0.5" stroke="#606060" stroke-width="1.0"/>
           <path id="arrow"
             d="M 11.500037,31.436501 C 11.940474,20.09759 22.043105,11.32322 32.158766,21.979434 L 37.068811,17.246167 C 37.068811,17.246167 37.088388,32 37.088388,32 L 22.160133,31.978069 C 22.160133,31.978069 26.997745,27.140456 26.997745,27.140456 C 18.528582,18.264221 13.291696,25.230495 11.500037,31.436501 z"
             style="fill:#404040;"/>
          </a>
         </g>
        </svg>
</svg>
