<?xml version="1.0" encoding="UTF-8" standalone="no"?>
<!DOCTYPE svg PUBLIC "-//W3C//DTD SVG 1.1//EN"
 "http://www.w3.org/Graphics/SVG/1.1/DTD/svg11.dtd">
<!-- Generated by graphviz version 2.26.3 (20100126.1600)
 -->
<!-- Title: StatusOverlayScene.cpp Pages: 1 -->
<svg width="1457pt" height="576pt"
 viewBox="0.00 0.00 1457.00 576.00" xmlns="http://www.w3.org/2000/svg" xmlns:xlink="http://www.w3.org/1999/xlink">
<g id="graph1" class="graph" transform="scale(1 1) rotate(0) translate(4 572)">
<title>StatusOverlayScene.cpp</title>
<!-- Node1 -->
<g id="node1" class="node"><title>Node1</title>
<polygon fill="#bfbfbf" stroke="black" points="933,-547 933,-567 1057,-567 1057,-547 933,-547"/>
<text text-anchor="middle" x="995" y="-554" font-family="FreeSans" font-size="10.00">StatusOverlayScene.cpp</text>
</g>
<!-- Node2 -->
<g id="node3" class="node"><title>Node2</title>
<polygon fill="none" stroke="#bfbfbf" points="555.5,-483 555.5,-503 616.5,-503 616.5,-483 555.5,-483"/>
<text text-anchor="middle" x="586" y="-490" font-family="FreeSans" font-size="10.00">../StdAfx.h</text>
</g>
<!-- Node1&#45;&gt;Node2 -->
<g id="edge2" class="edge"><title>Node1&#45;&gt;Node2</title>
<path fill="none" stroke="midnightblue" d="M932.799,-553.557C859.465,-548.454 734.353,-536.466 630,-510 626.18,-509.031 622.241,-507.826 618.363,-506.507"/>
<polygon fill="midnightblue" stroke="midnightblue" points="619.546,-503.213 608.952,-503.066 617.142,-509.787 619.546,-503.213"/>
</g>
<!-- Node3 -->
<g id="node5" class="node"><title>Node3</title>
<a xlink:href="_controller_8h.html" target="_top" xlink:title="../../engine/Control\l/Controller.h">
<polygon fill="none" stroke="black" points="536,-407 536,-439 630,-439 630,-407 536,-407"/>
<text text-anchor="start" x="544" y="-426" font-family="FreeSans" font-size="10.00">../../engine/Control</text>
<text text-anchor="middle" x="583" y="-414" font-family="FreeSans" font-size="10.00">/Controller.h</text>
</a>
</g>
<!-- Node1&#45;&gt;Node3 -->
<g id="edge4" class="edge"><title>Node1&#45;&gt;Node3</title>
<path fill="none" stroke="midnightblue" d="M932.689,-552.821C851.076,-546.537 713.065,-532.885 668,-510 652.842,-502.302 623.126,-469.871 603.161,-446.864"/>
<polygon fill="midnightblue" stroke="midnightblue" points="605.721,-444.473 596.546,-439.175 600.415,-449.038 605.721,-444.473"/>
</g>
<!-- Node14 -->
<g id="node29" class="node"><title>Node14</title>
<a xlink:href="_container_8h.html" target="_top" xlink:title="../../engine/Display\l/Container.h">
<polygon fill="none" stroke="black" points="929.5,-407 929.5,-439 1024.5,-439 1024.5,-407 929.5,-407"/>
<text text-anchor="start" x="937.5" y="-426" font-family="FreeSans" font-size="10.00">../../engine/Display</text>
<text text-anchor="middle" x="977" y="-414" font-family="FreeSans" font-size="10.00">/Container.h</text>
</a>
</g>
<!-- Node1&#45;&gt;Node14 -->
<g id="edge30" class="edge"><title>Node1&#45;&gt;Node14</title>
<path fill="none" stroke="midnightblue" d="M993.647,-546.928C990.895,-526.437 984.564,-479.313 980.552,-449.439"/>
<polygon fill="midnightblue" stroke="midnightblue" points="983.989,-448.74 979.189,-439.295 977.051,-449.672 983.989,-448.74"/>
</g>
<!-- Node20 -->
<g id="node43" class="node"><title>Node20</title>
<a xlink:href="_display_8h.html" target="_top" xlink:title="Display.h">
<polygon fill="none" stroke="black" points="1058,-233 1058,-253 1114,-253 1114,-233 1058,-233"/>
<text text-anchor="middle" x="1086" y="-240" font-family="FreeSans" font-size="10.00">Display.h</text>
</a>
</g>
<!-- Node1&#45;&gt;Node20 -->
<g id="edge72" class="edge"><title>Node1&#45;&gt;Node20</title>
<path fill="none" stroke="midnightblue" d="M998.533,-546.726C1005.47,-526.431 1021.21,-479.721 1033,-440 1052,-375.965 1071.77,-299.365 1080.86,-263.465"/>
<polygon fill="midnightblue" stroke="midnightblue" points="1084.37,-263.859 1083.43,-253.306 1077.59,-262.146 1084.37,-263.859"/>
</g>
<!-- Node27 -->
<g id="node64" class="node"><title>Node27</title>
<polygon fill="none" stroke="#bfbfbf" points="1061,-477 1061,-509 1151,-509 1151,-477 1061,-477"/>
<text text-anchor="start" x="1069" y="-496" font-family="FreeSans" font-size="10.00">../../engine/Player</text>
<text text-anchor="middle" x="1106" y="-484" font-family="FreeSans" font-size="10.00">/Player.h</text>
</g>
<!-- Node1&#45;&gt;Node27 -->
<g id="edge74" class="edge"><title>Node1&#45;&gt;Node27</title>
<path fill="none" stroke="midnightblue" d="M1012.83,-546.717C1028.07,-537.932 1050.48,-525.012 1069.5,-514.045"/>
<polygon fill="midnightblue" stroke="midnightblue" points="1071.33,-517.033 1078.24,-509.005 1067.83,-510.968 1071.33,-517.033"/>
</g>
<!-- Node28 -->
<g id="node66" class="node"><title>Node28</title>
<a xlink:href="_config_8h.html" target="_top" xlink:title="../../engine/Util/Config.h">
<polygon fill="none" stroke="black" points="663,-349 663,-369 779,-369 779,-349 663,-349"/>
<text text-anchor="middle" x="721" y="-356" font-family="FreeSans" font-size="10.00">../../engine/Util/Config.h</text>
</a>
</g>
<!-- Node1&#45;&gt;Node28 -->
<g id="edge76" class="edge"><title>Node1&#45;&gt;Node28</title>
<path fill="none" stroke="midnightblue" d="M932.938,-550.931C869.405,-543.737 775.869,-530.129 746,-510 715.33,-489.331 711.422,-475.486 701,-440 694.848,-419.053 702.872,-394.695 710.513,-378.203"/>
<polygon fill="midnightblue" stroke="midnightblue" points="713.747,-379.56 715.09,-369.051 707.487,-376.429 713.747,-379.56"/>
</g>
<!-- Node34 -->
<g id="node82" class="node"><title>Node34</title>
<a xlink:href="_log_8h.html" target="_top" xlink:title="../../engine/Util/Log.h">
<polygon fill="none" stroke="black" points="1168.5,-483 1168.5,-503 1273.5,-503 1273.5,-483 1168.5,-483"/>
<text text-anchor="middle" x="1221" y="-490" font-family="FreeSans" font-size="10.00">../../engine/Util/Log.h</text>
</a>
</g>
<!-- Node1&#45;&gt;Node34 -->
<g id="edge96" class="edge"><title>Node1&#45;&gt;Node34</title>
<path fill="none" stroke="midnightblue" d="M1030.56,-546.93C1069.8,-535.817 1133.05,-517.905 1175.79,-505.804"/>
<polygon fill="midnightblue" stroke="midnightblue" points="1176.98,-509.104 1185.65,-503.012 1175.07,-502.369 1176.98,-509.104"/>
</g>
<!-- Node36 -->
<g id="node86" class="node"><title>Node36</title>
<a xlink:href="_announcement_8h.html" target="_top" xlink:title="Announcement.h">
<polygon fill="none" stroke="black" points="1290.5,-483 1290.5,-503 1379.5,-503 1379.5,-483 1290.5,-483"/>
<text text-anchor="middle" x="1335" y="-490" font-family="FreeSans" font-size="10.00">Announcement.h</text>
</a>
</g>
<!-- Node1&#45;&gt;Node36 -->
<g id="edge100" class="edge"><title>Node1&#45;&gt;Node36</title>
<path fill="none" stroke="midnightblue" d="M1057.11,-549.531C1115.6,-541.862 1205.43,-528.444 1282,-510 1286.74,-508.858 1291.67,-507.506 1296.54,-506.07"/>
<polygon fill="midnightblue" stroke="midnightblue" points="1297.81,-509.339 1306.34,-503.048 1295.75,-502.65 1297.81,-509.339"/>
</g>
<!-- Node37 -->
<g id="node88" class="node"><title>Node37</title>
<a xlink:href="_bulletin_board_8h.html" target="_top" xlink:title="BulletinBoard.h">
<polygon fill="none" stroke="black" points="885,-483 885,-503 967,-503 967,-483 885,-483"/>
<text text-anchor="middle" x="926" y="-490" font-family="FreeSans" font-size="10.00">BulletinBoard.h</text>
</a>
</g>
<!-- Node1&#45;&gt;Node37 -->
<g id="edge102" class="edge"><title>Node1&#45;&gt;Node37</title>
<path fill="none" stroke="midnightblue" d="M983.914,-546.717C973.289,-536.862 957.054,-521.804 944.474,-510.136"/>
<polygon fill="midnightblue" stroke="midnightblue" points="946.543,-507.281 936.831,-503.046 941.783,-512.413 946.543,-507.281"/>
</g>
<!-- Node38 -->
<g id="node92" class="node"><title>Node38</title>
<a xlink:href="_roster_8h.html" target="_top" xlink:title="Roster.h">
<polygon fill="none" stroke="black" points="1396.5,-483 1396.5,-503 1449.5,-503 1449.5,-483 1396.5,-483"/>
<text text-anchor="middle" x="1423" y="-490" font-family="FreeSans" font-size="10.00">Roster.h</text>
</a>
</g>
<!-- Node1&#45;&gt;Node38 -->
<g id="edge108" class="edge"><title>Node1&#45;&gt;Node38</title>
<path fill="none" stroke="midnightblue" d="M1057.15,-552.1C1151.81,-544.209 1327.51,-527.762 1388,-510 1390.64,-509.224 1393.33,-508.264 1395.99,-507.198"/>
<polygon fill="midnightblue" stroke="midnightblue" points="1397.61,-510.306 1405.29,-503.013 1394.74,-503.921 1397.61,-510.306"/>
</g>
<!-- Node39 -->
<g id="node94" class="node"><title>Node39</title>
<a xlink:href="_status_overlay_scene_8h.html" target="_top" xlink:title="StatusOverlayScene.h">
<polygon fill="none" stroke="black" points="754.5,-483 754.5,-503 867.5,-503 867.5,-483 754.5,-483"/>
<text text-anchor="middle" x="811" y="-490" font-family="FreeSans" font-size="10.00">StatusOverlayScene.h</text>
</a>
</g>
<!-- Node1&#45;&gt;Node39 -->
<g id="edge110" class="edge"><title>Node1&#45;&gt;Node39</title>
<path fill="none" stroke="midnightblue" d="M965.845,-546.859C934.487,-535.952 884.469,-518.555 849.803,-506.497"/>
<polygon fill="midnightblue" stroke="midnightblue" points="850.614,-503.073 840.019,-503.094 848.314,-509.685 850.614,-503.073"/>
</g>
<!-- Node4 -->
<g id="node7" class="node"><title>Node4</title>
<polygon fill="none" stroke="#bfbfbf" points="532,-233 532,-253 576,-253 576,-233 532,-233"/>
<text text-anchor="middle" x="554" y="-240" font-family="FreeSans" font-size="10.00">vector</text>
</g>
<!-- Node3&#45;&gt;Node4 -->
<g id="edge6" class="edge"><title>Node3&#45;&gt;Node4</title>
<path fill="none" stroke="midnightblue" d="M589.567,-406.889C594.919,-391.69 600.991,-368.274 597,-348 590.788,-316.441 575.008,-282.425 564.391,-261.924"/>
<polygon fill="midnightblue" stroke="midnightblue" points="567.442,-260.205 559.659,-253.016 561.26,-263.489 567.442,-260.205"/>
</g>
<!-- Node5 -->
<g id="node9" class="node"><title>Node5</title>
<polygon fill="none" stroke="#bfbfbf" points="473.5,-233 473.5,-253 514.5,-253 514.5,-233 473.5,-233"/>
<text text-anchor="middle" x="494" y="-240" font-family="FreeSans" font-size="10.00">string</text>
</g>
<!-- Node3&#45;&gt;Node5 -->
<g id="edge8" class="edge"><title>Node3&#45;&gt;Node5</title>
<path fill="none" stroke="midnightblue" d="M535.801,-407.739C518.212,-399.498 500.084,-387.353 490,-370 470.518,-336.473 479.676,-289.11 487.329,-262.719"/>
<polygon fill="midnightblue" stroke="midnightblue" points="490.694,-263.685 490.327,-253.097 484.011,-261.603 490.694,-263.685"/>
</g>
<!-- Node6 -->
<g id="node11" class="node"><title>Node6</title>
<polygon fill="none" stroke="#bfbfbf" points="498.5,-349 498.5,-369 569.5,-369 569.5,-349 498.5,-349"/>
<text text-anchor="middle" x="534" y="-356" font-family="FreeSans" font-size="10.00">SDL2/SDL.h</text>
</g>
<!-- Node3&#45;&gt;Node6 -->
<g id="edge10" class="edge"><title>Node3&#45;&gt;Node6</title>
<path fill="none" stroke="midnightblue" d="M570.635,-406.85C563.76,-397.87 555.179,-386.663 548.051,-377.352"/>
<polygon fill="midnightblue" stroke="midnightblue" points="550.622,-374.953 541.764,-369.141 545.064,-379.209 550.622,-374.953"/>
</g>
<!-- Node7 -->
<g id="node13" class="node"><title>Node7</title>
<a xlink:href="_action_8h.html" target="_top" xlink:title="Action.h">
<polygon fill="none" stroke="black" points="288,-349 288,-369 340,-369 340,-349 288,-349"/>
<text text-anchor="middle" x="314" y="-356" font-family="FreeSans" font-size="10.00">Action.h</text>
</a>
</g>
<!-- Node3&#45;&gt;Node7 -->
<g id="edge12" class="edge"><title>Node3&#45;&gt;Node7</title>
<path fill="none" stroke="midnightblue" d="M535.836,-411.779C482.913,-399.187 398.207,-379.034 350.228,-367.619"/>
<polygon fill="midnightblue" stroke="midnightblue" points="350.826,-364.164 340.287,-365.254 349.205,-370.974 350.826,-364.164"/>
</g>
<!-- Node13 -->
<g id="node25" class="node"><title>Node13</title>
<a xlink:href="_control_action_8h.html" target="_top" xlink:title="ControlAction.h">
<polygon fill="none" stroke="black" points="383.5,-291 383.5,-311 466.5,-311 466.5,-291 383.5,-291"/>
<text text-anchor="middle" x="425" y="-298" font-family="FreeSans" font-size="10.00">ControlAction.h</text>
</a>
</g>
<!-- Node3&#45;&gt;Node13 -->
<g id="edge28" class="edge"><title>Node3&#45;&gt;Node13</title>
<path fill="none" stroke="midnightblue" d="M586.78,-406.794C589.639,-390.206 591.122,-364.575 578,-348 565.227,-331.866 516.022,-318.669 476.816,-310.411"/>
<polygon fill="midnightblue" stroke="midnightblue" points="477.334,-306.945 466.835,-308.368 475.93,-313.802 477.334,-306.945"/>
</g>
<!-- Node8 -->
<g id="node15" class="node"><title>Node8</title>
<polygon fill="none" stroke="#bfbfbf" points="215.5,-291 215.5,-311 328.5,-311 328.5,-291 215.5,-291"/>
<text text-anchor="middle" x="272" y="-298" font-family="FreeSans" font-size="10.00">SDL2/SDL_keycode.h</text>
</g>
<!-- Node7&#45;&gt;Node8 -->
<g id="edge14" class="edge"><title>Node7&#45;&gt;Node8</title>
<path fill="none" stroke="midnightblue" d="M306.684,-348.897C300.854,-340.846 292.532,-329.353 285.5,-319.643"/>
<polygon fill="midnightblue" stroke="midnightblue" points="288.215,-317.424 279.515,-311.378 282.545,-321.53 288.215,-317.424"/>
</g>
<!-- Node9 -->
<g id="node17" class="node"><title>Node9</title>
<polygon fill="none" stroke="#bfbfbf" points="0,-291 0,-311 106,-311 106,-291 0,-291"/>
<text text-anchor="middle" x="53" y="-298" font-family="FreeSans" font-size="10.00">SDL2/SDL_mouse.h</text>
</g>
<!-- Node7&#45;&gt;Node9 -->
<g id="edge16" class="edge"><title>Node7&#45;&gt;Node9</title>
<path fill="none" stroke="midnightblue" d="M287.538,-353.119C245.69,-343.82 163.341,-325.52 108.221,-313.271"/>
<polygon fill="midnightblue" stroke="midnightblue" points="108.782,-309.811 98.2613,-311.058 107.264,-316.644 108.782,-309.811"/>
</g>
<!-- Node10 -->
<g id="node19" class="node"><title>Node10</title>
<a xlink:href="_vec_8h.html" target="_top" xlink:title="../Vec.h">
<polygon fill="none" stroke="black" points="899.5,-175 899.5,-195 948.5,-195 948.5,-175 899.5,-175"/>
<text text-anchor="middle" x="924" y="-182" font-family="FreeSans" font-size="10.00">../Vec.h</text>
</a>
</g>
<!-- Node7&#45;&gt;Node10 -->
<g id="edge18" class="edge"><title>Node7&#45;&gt;Node10</title>
<path fill="none" stroke="midnightblue" d="M321.525,-348.851C332.353,-334.659 353.41,-308.544 375,-290 411.098,-258.994 420.094,-247.746 465,-232 543.428,-204.5 796.28,-190.701 889.267,-186.46"/>
<polygon fill="midnightblue" stroke="midnightblue" points="889.453,-189.956 899.287,-186.012 889.14,-182.963 889.453,-189.956"/>
</g>
<!-- Node11 -->
<g id="node21" class="node"><title>Node11</title>
<a xlink:href="_exception_8h.html" target="_top" xlink:title="../Exception.h">
<polygon fill="none" stroke="black" points="124,-291 124,-311 198,-311 198,-291 124,-291"/>
<text text-anchor="middle" x="161" y="-298" font-family="FreeSans" font-size="10.00">../Exception.h</text>
</a>
</g>
<!-- Node7&#45;&gt;Node11 -->
<g id="edge20" class="edge"><title>Node7&#45;&gt;Node11</title>
<path fill="none" stroke="midnightblue" d="M287.698,-349.029C262.63,-339.526 224.686,-325.142 196.855,-314.592"/>
<polygon fill="midnightblue" stroke="midnightblue" points="198.062,-311.307 187.47,-311.035 195.58,-317.852 198.062,-311.307"/>
</g>
<!-- Node7&#45;&gt;Node13 -->
<g id="edge24" class="edge"><title>Node7&#45;&gt;Node13</title>
<path fill="none" stroke="midnightblue" d="M333.335,-348.897C350.815,-339.763 376.774,-326.199 396.609,-315.835"/>
<polygon fill="midnightblue" stroke="midnightblue" points="398.272,-318.915 405.514,-311.182 395.03,-312.711 398.272,-318.915"/>
</g>
<!-- Node12 -->
<g id="node23" class="node"><title>Node12</title>
<polygon fill="none" stroke="#bfbfbf" points="132,-233 132,-253 190,-253 190,-233 132,-233"/>
<text text-anchor="middle" x="161" y="-240" font-family="FreeSans" font-size="10.00">exception</text>
</g>
<!-- Node11&#45;&gt;Node12 -->
<g id="edge22" class="edge"><title>Node11&#45;&gt;Node12</title>
<path fill="none" stroke="midnightblue" d="M161,-290.897C161,-283.339 161,-272.748 161,-263.446"/>
<polygon fill="midnightblue" stroke="midnightblue" points="164.5,-263.378 161,-253.378 157.5,-263.378 164.5,-263.378"/>
</g>
<!-- Node13&#45;&gt;Node5 -->
<g id="edge26" class="edge"><title>Node13&#45;&gt;Node5</title>
<path fill="none" stroke="midnightblue" d="M437.019,-290.897C447.183,-282.353 461.959,-269.933 473.917,-259.881"/>
<polygon fill="midnightblue" stroke="midnightblue" points="476.251,-262.491 481.654,-253.378 471.747,-257.133 476.251,-262.491"/>
</g>
<!-- Node15 -->
<g id="node31" class="node"><title>Node15</title>
<a xlink:href="_ui_view_model_8h.html" target="_top" xlink:title="UiViewModel.h">
<polygon fill="none" stroke="black" points="936,-349 936,-369 1018,-369 1018,-349 936,-349"/>
<text text-anchor="middle" x="977" y="-356" font-family="FreeSans" font-size="10.00">UiViewModel.h</text>
</a>
</g>
<!-- Node14&#45;&gt;Node15 -->
<g id="edge32" class="edge"><title>Node14&#45;&gt;Node15</title>
<path fill="none" stroke="midnightblue" d="M977,-406.85C977,-398.518 977,-388.269 977,-379.396"/>
<polygon fill="midnightblue" stroke="midnightblue" points="980.5,-379.141 977,-369.141 973.5,-379.141 980.5,-379.141"/>
</g>
<!-- Node15&#45;&gt;Node10 -->
<g id="edge38" class="edge"><title>Node15&#45;&gt;Node10</title>
<path fill="none" stroke="midnightblue" d="M967.275,-348.693C959.399,-339.719 948.707,-325.987 943,-312 928.474,-276.397 924.897,-231.12 924.109,-205.366"/>
<polygon fill="midnightblue" stroke="midnightblue" points="927.607,-205.24 923.916,-195.309 920.609,-205.375 927.607,-205.24"/>
</g>
<!-- Node16 -->
<g id="node33" class="node"><title>Node16</title>
<a xlink:href="_m_r___types_8h.html" target="_top" xlink:title="../Util/MR_Types.h">
<polygon fill="none" stroke="black" points="934,-59 934,-79 1030,-79 1030,-59 934,-59"/>
<text text-anchor="middle" x="982" y="-66" font-family="FreeSans" font-size="10.00">../Util/MR_Types.h</text>
</a>
</g>
<!-- Node15&#45;&gt;Node16 -->
<g id="edge34" class="edge"><title>Node15&#45;&gt;Node16</title>
<path fill="none" stroke="midnightblue" d="M957.25,-348.778C926.834,-331.454 872,-293.253 872,-243 872,-243 872,-243 872,-185 872,-138.395 919.33,-103.019 951.898,-84.1944"/>
<polygon fill="midnightblue" stroke="midnightblue" points="954.01,-87.025 961.051,-79.1085 950.61,-80.9061 954.01,-87.025"/>
</g>
<!-- Node18 -->
<g id="node38" class="node"><title>Node18</title>
<a xlink:href="_ui_layout_flags_8h.html" target="_top" xlink:title="UiLayoutFlags.h">
<polygon fill="none" stroke="black" points="1199.5,-175 1199.5,-195 1286.5,-195 1286.5,-175 1199.5,-175"/>
<text text-anchor="middle" x="1243" y="-182" font-family="FreeSans" font-size="10.00">UiLayoutFlags.h</text>
</a>
</g>
<!-- Node15&#45;&gt;Node18 -->
<g id="edge40" class="edge"><title>Node15&#45;&gt;Node18</title>
<path fill="none" stroke="midnightblue" d="M992.451,-348.893C1036.89,-319.822 1165.3,-235.827 1218.97,-200.718"/>
<polygon fill="midnightblue" stroke="midnightblue" points="1221.05,-203.538 1227.51,-195.135 1217.22,-197.68 1221.05,-203.538"/>
</g>
<!-- Node19 -->
<g id="node41" class="node"><title>Node19</title>
<a xlink:href="_view_model_8h.html" target="_top" xlink:title="ViewModel.h">
<polygon fill="none" stroke="black" points="952,-291 952,-311 1024,-311 1024,-291 952,-291"/>
<text text-anchor="middle" x="988" y="-298" font-family="FreeSans" font-size="10.00">ViewModel.h</text>
</a>
</g>
<!-- Node15&#45;&gt;Node19 -->
<g id="edge44" class="edge"><title>Node15&#45;&gt;Node19</title>
<path fill="none" stroke="midnightblue" d="M978.916,-348.897C980.349,-341.339 982.358,-330.748 984.122,-321.446"/>
<polygon fill="midnightblue" stroke="midnightblue" points="987.607,-321.855 986.032,-311.378 980.73,-320.55 987.607,-321.855"/>
</g>
<!-- Node17 -->
<g id="node35" class="node"><title>Node17</title>
<polygon fill="none" stroke="#bfbfbf" points="953,-1 953,-21 1011,-21 1011,-1 953,-1"/>
<text text-anchor="middle" x="982" y="-8" font-family="FreeSans" font-size="10.00">inttypes.h</text>
</g>
<!-- Node16&#45;&gt;Node17 -->
<g id="edge36" class="edge"><title>Node16&#45;&gt;Node17</title>
<path fill="none" stroke="midnightblue" d="M982,-58.8972C982,-51.339 982,-40.7476 982,-31.4458"/>
<polygon fill="midnightblue" stroke="midnightblue" points="985.5,-31.3776 982,-21.3776 978.5,-31.3776 985.5,-31.3776"/>
</g>
<!-- Node18&#45;&gt;Node16 -->
<g id="edge42" class="edge"><title>Node18&#45;&gt;Node16</title>
<path fill="none" stroke="midnightblue" d="M1240.32,-174.751C1235.77,-159.44 1225,-130.815 1205,-116 1179.36,-97.0044 1097.48,-83.2861 1040.43,-75.7369"/>
<polygon fill="midnightblue" stroke="midnightblue" points="1040.8,-72.2563 1030.44,-74.444 1039.91,-79.1985 1040.8,-72.2563"/>
</g>
<!-- Node19&#45;&gt;Node20 -->
<g id="edge46" class="edge"><title>Node19&#45;&gt;Node20</title>
<path fill="none" stroke="midnightblue" d="M1005.07,-290.897C1020.15,-281.97 1042.39,-268.811 1059.74,-258.543"/>
<polygon fill="midnightblue" stroke="midnightblue" points="1061.97,-261.287 1068.8,-253.182 1058.41,-255.263 1061.97,-261.287"/>
</g>
<!-- Node25 -->
<g id="node58" class="node"><title>Node25</title>
<a xlink:href="_view_attacher_8h.html" target="_top" xlink:title="ViewAttacher.h">
<polygon fill="none" stroke="black" points="965.5,-175 965.5,-195 1048.5,-195 1048.5,-175 965.5,-175"/>
<text text-anchor="middle" x="1007" y="-182" font-family="FreeSans" font-size="10.00">ViewAttacher.h</text>
</a>
</g>
<!-- Node19&#45;&gt;Node25 -->
<g id="edge70" class="edge"><title>Node19&#45;&gt;Node25</title>
<path fill="none" stroke="midnightblue" d="M985.879,-290.566C983.484,-276.923 980.469,-252.366 985,-232 987.137,-222.392 991.457,-212.425 995.707,-204.155"/>
<polygon fill="midnightblue" stroke="midnightblue" points="998.796,-205.802 1000.53,-195.35 992.657,-202.439 998.796,-205.802"/>
</g>
<!-- Node26 -->
<g id="node60" class="node"><title>Node26</title>
<a xlink:href="_view_8h.html" target="_top" xlink:title="View.h">
<polygon fill="none" stroke="black" points="994,-233 994,-253 1040,-253 1040,-233 994,-233"/>
<text text-anchor="middle" x="1017" y="-240" font-family="FreeSans" font-size="10.00">View.h</text>
</a>
</g>
<!-- Node19&#45;&gt;Node26 -->
<g id="edge68" class="edge"><title>Node19&#45;&gt;Node26</title>
<path fill="none" stroke="midnightblue" d="M993.051,-290.897C996.954,-283.093 1002.47,-272.054 1007.23,-262.54"/>
<polygon fill="midnightblue" stroke="midnightblue" points="1010.47,-263.887 1011.81,-253.378 1004.21,-260.757 1010.47,-263.887"/>
</g>
<!-- Node20&#45;&gt;Node10 -->
<g id="edge48" class="edge"><title>Node20&#45;&gt;Node10</title>
<path fill="none" stroke="midnightblue" d="M1057.78,-232.897C1030.09,-222.983 987.821,-207.85 958.226,-197.254"/>
<polygon fill="midnightblue" stroke="midnightblue" points="959.309,-193.924 948.714,-193.848 956.949,-200.514 959.309,-193.924"/>
</g>
<!-- Node20&#45;&gt;Node18 -->
<g id="edge64" class="edge"><title>Node20&#45;&gt;Node18</title>
<path fill="none" stroke="midnightblue" d="M1113.35,-232.897C1139.05,-223.403 1177.7,-209.124 1206.12,-198.626"/>
<polygon fill="midnightblue" stroke="midnightblue" points="1207.54,-201.833 1215.7,-195.084 1205.11,-195.266 1207.54,-201.833"/>
</g>
<!-- Node21 -->
<g id="node46" class="node"><title>Node21</title>
<a xlink:href="_ui_font_8h.html" target="_top" xlink:title="UiFont.h">
<polygon fill="none" stroke="black" points="1129.5,-175 1129.5,-195 1182.5,-195 1182.5,-175 1129.5,-175"/>
<text text-anchor="middle" x="1156" y="-182" font-family="FreeSans" font-size="10.00">UiFont.h</text>
</a>
</g>
<!-- Node20&#45;&gt;Node21 -->
<g id="edge50" class="edge"><title>Node20&#45;&gt;Node21</title>
<path fill="none" stroke="midnightblue" d="M1098.19,-232.897C1108.5,-224.353 1123.49,-211.933 1135.63,-201.881"/>
<polygon fill="midnightblue" stroke="midnightblue" points="1138.01,-204.453 1143.48,-195.378 1133.54,-199.063 1138.01,-204.453"/>
</g>
<!-- Node23 -->
<g id="node51" class="node"><title>Node23</title>
<a xlink:href="_color_8h.html" target="_top" xlink:title="Color.h">
<polygon fill="none" stroke="black" points="1065.5,-175 1065.5,-195 1112.5,-195 1112.5,-175 1065.5,-175"/>
<text text-anchor="middle" x="1089" y="-182" font-family="FreeSans" font-size="10.00">Color.h</text>
</a>
</g>
<!-- Node20&#45;&gt;Node23 -->
<g id="edge56" class="edge"><title>Node20&#45;&gt;Node23</title>
<path fill="none" stroke="midnightblue" d="M1086.52,-232.897C1086.91,-225.339 1087.46,-214.748 1087.94,-205.446"/>
<polygon fill="midnightblue" stroke="midnightblue" points="1091.44,-205.545 1088.46,-195.378 1084.45,-205.183 1091.44,-205.545"/>
</g>
<!-- Node20&#45;&gt;Node25 -->
<g id="edge66" class="edge"><title>Node20&#45;&gt;Node25</title>
<path fill="none" stroke="midnightblue" d="M1072.24,-232.897C1060.3,-224.135 1042.82,-211.297 1028.95,-201.116"/>
<polygon fill="midnightblue" stroke="midnightblue" points="1031,-198.278 1020.87,-195.182 1026.86,-203.921 1031,-198.278"/>
</g>
<!-- Node22 -->
<g id="node48" class="node"><title>Node22</title>
<a xlink:href="_sel_fmt_8h.html" target="_top" xlink:title="../Util/SelFmt.h">
<polygon fill="none" stroke="black" points="1115.5,-117 1115.5,-137 1196.5,-137 1196.5,-117 1115.5,-117"/>
<text text-anchor="middle" x="1156" y="-124" font-family="FreeSans" font-size="10.00">../Util/SelFmt.h</text>
</a>
</g>
<!-- Node21&#45;&gt;Node22 -->
<g id="edge52" class="edge"><title>Node21&#45;&gt;Node22</title>
<path fill="none" stroke="midnightblue" d="M1156,-174.897C1156,-167.339 1156,-156.748 1156,-147.446"/>
<polygon fill="midnightblue" stroke="midnightblue" points="1159.5,-147.378 1156,-137.378 1152.5,-147.378 1159.5,-147.378"/>
</g>
<!-- Node22&#45;&gt;Node16 -->
<g id="edge54" class="edge"><title>Node22&#45;&gt;Node16</title>
<path fill="none" stroke="midnightblue" d="M1125.69,-116.897C1096.96,-107.321 1053.62,-92.8742 1022.05,-82.3516"/>
<polygon fill="midnightblue" stroke="midnightblue" points="1022.85,-78.9261 1012.25,-79.0842 1020.63,-85.5669 1022.85,-78.9261"/>
</g>
<!-- Node23&#45;&gt;Node16 -->
<g id="edge60" class="edge"><title>Node23&#45;&gt;Node16</title>
<path fill="none" stroke="midnightblue" d="M1065.24,-174.885C1042.27,-164.672 1009.71,-148.89 1001,-138 989.87,-124.08 985.248,-104.097 983.334,-89.2155"/>
<polygon fill="midnightblue" stroke="midnightblue" points="986.794,-88.6262 982.337,-79.0145 979.827,-89.3078 986.794,-88.6262"/>
</g>
<!-- Node23&#45;&gt;Node22 -->
<g id="edge62" class="edge"><title>Node23&#45;&gt;Node22</title>
<path fill="none" stroke="midnightblue" d="M1100.67,-174.897C1110.45,-166.435 1124.61,-154.172 1136.16,-144.172"/>
<polygon fill="midnightblue" stroke="midnightblue" points="1138.74,-146.569 1144.01,-137.378 1134.16,-141.276 1138.74,-146.569"/>
</g>
<!-- Node24 -->
<g id="node53" class="node"><title>Node24</title>
<polygon fill="none" stroke="#bfbfbf" points="1009.5,-117 1009.5,-137 1098.5,-137 1098.5,-117 1009.5,-117"/>
<text text-anchor="middle" x="1054" y="-124" font-family="FreeSans" font-size="10.00">boost/format.hpp</text>
</g>
<!-- Node23&#45;&gt;Node24 -->
<g id="edge58" class="edge"><title>Node23&#45;&gt;Node24</title>
<path fill="none" stroke="midnightblue" d="M1082.9,-174.897C1078.09,-166.928 1071.25,-155.587 1065.43,-145.941"/>
<polygon fill="midnightblue" stroke="midnightblue" points="1068.43,-144.131 1060.26,-137.378 1062.43,-147.748 1068.43,-144.131"/>
</g>
<!-- Node28&#45;&gt;Node5 -->
<g id="edge78" class="edge"><title>Node28&#45;&gt;Node5</title>
<path fill="none" stroke="midnightblue" d="M701.252,-348.909C661.088,-328.384 569.731,-281.699 522.881,-257.759"/>
<polygon fill="midnightblue" stroke="midnightblue" points="524.361,-254.584 513.864,-253.151 521.176,-260.818 524.361,-254.584"/>
</g>
<!-- Node29 -->
<g id="node69" class="node"><title>Node29</title>
<polygon fill="none" stroke="#bfbfbf" points="678,-291 678,-311 734,-311 734,-291 678,-291"/>
<text text-anchor="middle" x="706" y="-298" font-family="FreeSans" font-size="10.00">basedir.h</text>
</g>
<!-- Node28&#45;&gt;Node29 -->
<g id="edge80" class="edge"><title>Node28&#45;&gt;Node29</title>
<path fill="none" stroke="midnightblue" d="M718.387,-348.897C716.411,-341.257 713.634,-330.517 711.209,-321.143"/>
<polygon fill="midnightblue" stroke="midnightblue" points="714.576,-320.183 708.684,-311.378 707.799,-321.935 714.576,-320.183"/>
</g>
<!-- Node30 -->
<g id="node71" class="node"><title>Node30</title>
<a xlink:href="_o_s_8h.html" target="_top" xlink:title="OS.h">
<polygon fill="none" stroke="black" points="752,-291 752,-311 790,-311 790,-291 752,-291"/>
<text text-anchor="middle" x="771" y="-298" font-family="FreeSans" font-size="10.00">OS.h</text>
</a>
</g>
<!-- Node28&#45;&gt;Node30 -->
<g id="edge82" class="edge"><title>Node28&#45;&gt;Node30</title>
<path fill="none" stroke="midnightblue" d="M729.709,-348.897C736.792,-340.682 746.963,-328.883 755.439,-319.051"/>
<polygon fill="midnightblue" stroke="midnightblue" points="758.175,-321.237 762.054,-311.378 752.873,-316.666 758.175,-321.237"/>
</g>
<!-- Node30&#45;&gt;Node4 -->
<g id="edge90" class="edge"><title>Node30&#45;&gt;Node4</title>
<path fill="none" stroke="midnightblue" d="M751.855,-293.04C748.915,-291.946 745.895,-290.893 743,-290 677.135,-269.685 655.977,-273.67 585.981,-254.037"/>
<polygon fill="midnightblue" stroke="midnightblue" points="586.827,-250.639 576.25,-251.246 584.897,-257.368 586.827,-250.639"/>
</g>
<!-- Node30&#45;&gt;Node5 -->
<g id="edge88" class="edge"><title>Node30&#45;&gt;Node5</title>
<path fill="none" stroke="midnightblue" d="M751.902,-292.879C748.955,-291.807 745.921,-290.803 743,-290 650.544,-264.585 620.612,-278.713 524.565,-254.036"/>
<polygon fill="midnightblue" stroke="midnightblue" points="525.307,-250.613 514.745,-251.439 523.517,-257.38 525.307,-250.613"/>
</g>
<!-- Node30&#45;&gt;Node16 -->
<g id="edge94" class="edge"><title>Node30&#45;&gt;Node16</title>
<path fill="none" stroke="midnightblue" d="M783.045,-290.951C792.908,-282.135 806.564,-268.489 815,-254 847.324,-198.483 813.963,-162.773 858,-116 875.399,-97.5198 900.81,-86.2399 924.106,-79.3861"/>
<polygon fill="midnightblue" stroke="midnightblue" points="925.201,-82.7155 933.93,-76.7117 923.362,-75.9613 925.201,-82.7155"/>
</g>
<!-- Node31 -->
<g id="node73" class="node"><title>Node31</title>
<polygon fill="none" stroke="#bfbfbf" points="764,-233 764,-253 806,-253 806,-233 764,-233"/>
<text text-anchor="middle" x="785" y="-240" font-family="FreeSans" font-size="10.00">locale</text>
</g>
<!-- Node30&#45;&gt;Node31 -->
<g id="edge84" class="edge"><title>Node30&#45;&gt;Node31</title>
<path fill="none" stroke="midnightblue" d="M773.439,-290.897C775.283,-283.257 777.875,-272.517 780.138,-263.143"/>
<polygon fill="midnightblue" stroke="midnightblue" points="783.551,-263.92 782.495,-253.378 776.746,-262.277 783.551,-263.92"/>
</g>
<!-- Node32 -->
<g id="node75" class="node"><title>Node32</title>
<polygon fill="none" stroke="#bfbfbf" points="594,-233 594,-253 624,-253 624,-233 594,-233"/>
<text text-anchor="middle" x="609" y="-240" font-family="FreeSans" font-size="10.00">set</text>
</g>
<!-- Node30&#45;&gt;Node32 -->
<g id="edge86" class="edge"><title>Node30&#45;&gt;Node32</title>
<path fill="none" stroke="midnightblue" d="M751.776,-293.278C748.846,-292.151 745.85,-291.025 743,-290 697.432,-273.608 682.627,-272.788 633.676,-253.976"/>
<polygon fill="midnightblue" stroke="midnightblue" points="634.712,-250.623 624.124,-250.246 632.166,-257.144 634.712,-250.623"/>
</g>
<!-- Node33 -->
<g id="node79" class="node"><title>Node33</title>
<polygon fill="none" stroke="#bfbfbf" points="641.5,-233 641.5,-253 746.5,-253 746.5,-233 641.5,-233"/>
<text text-anchor="middle" x="694" y="-240" font-family="FreeSans" font-size="10.00">boost/filesystem.hpp</text>
</g>
<!-- Node30&#45;&gt;Node33 -->
<g id="edge92" class="edge"><title>Node30&#45;&gt;Node33</title>
<path fill="none" stroke="midnightblue" d="M757.588,-290.897C746.065,-282.218 729.232,-269.538 715.779,-259.405"/>
<polygon fill="midnightblue" stroke="midnightblue" points="717.61,-256.403 707.517,-253.182 713.399,-261.994 717.61,-256.403"/>
</g>
<!-- Node35 -->
<g id="node84" class="node"><title>Node35</title>
<polygon fill="none" stroke="#bfbfbf" points="1170.5,-413 1170.5,-433 1271.5,-433 1271.5,-413 1170.5,-413"/>
<text text-anchor="middle" x="1221" y="-420" font-family="FreeSans" font-size="10.00">boost/log/trivial.hpp</text>
</g>
<!-- Node34&#45;&gt;Node35 -->
<g id="edge98" class="edge"><title>Node34&#45;&gt;Node35</title>
<path fill="none" stroke="midnightblue" d="M1221,-482.971C1221,-472.679 1221,-456.375 1221,-443.364"/>
<polygon fill="midnightblue" stroke="midnightblue" points="1224.5,-443.011 1221,-433.011 1217.5,-443.011 1224.5,-443.011"/>
</g>
<!-- Node37&#45;&gt;Node14 -->
<g id="edge104" class="edge"><title>Node37&#45;&gt;Node14</title>
<path fill="none" stroke="midnightblue" d="M933.307,-482.971C940,-473.784 950.183,-459.807 959.035,-447.658"/>
<polygon fill="midnightblue" stroke="midnightblue" points="962.117,-449.372 965.176,-439.228 956.459,-445.25 962.117,-449.372"/>
</g>
<!-- Node37&#45;&gt;Node30 -->
<g id="edge106" class="edge"><title>Node37&#45;&gt;Node30</title>
<path fill="none" stroke="midnightblue" d="M924.523,-482.87C920.289,-457.184 905.888,-388.666 868,-348 849.693,-328.351 821.427,-315.961 800.121,-308.867"/>
<polygon fill="midnightblue" stroke="midnightblue" points="800.884,-305.439 790.296,-305.802 798.799,-312.121 800.884,-305.439"/>
</g>
<!-- Node40 -->
<g id="node96" class="node"><title>Node40</title>
<a xlink:href="_game_director_8h.html" target="_top" xlink:title="GameDirector.h">
<polygon fill="none" stroke="black" points="710,-413 710,-433 794,-433 794,-413 710,-413"/>
<text text-anchor="middle" x="752" y="-420" font-family="FreeSans" font-size="10.00">GameDirector.h</text>
</a>
</g>
<!-- Node39&#45;&gt;Node40 -->
<g id="edge112" class="edge"><title>Node39&#45;&gt;Node40</title>
<path fill="none" stroke="midnightblue" d="M802.547,-482.971C793.346,-472.055 778.447,-454.377 767.202,-441.037"/>
<polygon fill="midnightblue" stroke="midnightblue" points="769.559,-438.401 760.438,-433.011 764.206,-442.913 769.559,-438.401"/>
</g>
<!-- Node41 -->
<g id="node98" class="node"><title>Node41</title>
<a xlink:href="_ui_scene_8h.html" target="_top" xlink:title="UiScene.h">
<polygon fill="none" stroke="black" points="812,-413 812,-433 874,-433 874,-413 812,-413"/>
<text text-anchor="middle" x="843" y="-420" font-family="FreeSans" font-size="10.00">UiScene.h</text>
</a>
</g>
<!-- Node39&#45;&gt;Node41 -->
<g id="edge114" class="edge"><title>Node39&#45;&gt;Node41</title>
<path fill="none" stroke="midnightblue" d="M815.585,-482.971C820.432,-472.367 828.197,-455.382 834.227,-442.19"/>
<polygon fill="midnightblue" stroke="midnightblue" points="837.449,-443.561 838.424,-433.011 831.083,-440.65 837.449,-443.561"/>
</g>
<!-- Node42 -->
<g id="node100" class="node"><title>Node42</title>
<a xlink:href="_scene_8h.html" target="_top" xlink:title="Scene.h">
<polygon fill="none" stroke="black" points="807,-349 807,-369 859,-369 859,-349 807,-349"/>
<text text-anchor="middle" x="833" y="-356" font-family="FreeSans" font-size="10.00">Scene.h</text>
</a>
</g>
<!-- Node41&#45;&gt;Node42 -->
<g id="edge116" class="edge"><title>Node41&#45;&gt;Node42</title>
<path fill="none" stroke="midnightblue" d="M841.393,-412.717C839.985,-403.707 837.898,-390.347 836.157,-379.205"/>
<polygon fill="midnightblue" stroke="midnightblue" points="839.572,-378.386 834.57,-369.046 832.656,-379.467 839.572,-378.386"/>
</g>
<!-- Node42&#45;&gt;Node30 -->
<g id="edge118" class="edge"><title>Node42&#45;&gt;Node30</title>
<path fill="none" stroke="midnightblue" d="M822.2,-348.897C813.243,-340.517 800.3,-328.409 789.668,-318.464"/>
<polygon fill="midnightblue" stroke="midnightblue" points="791.787,-315.653 782.093,-311.378 787.005,-320.765 791.787,-315.653"/>
</g>
</g>
</svg>
