<?xml version="1.0" encoding="UTF-8" standalone="no"?>
<!DOCTYPE svg PUBLIC "-//W3C//DTD SVG 1.1//EN"
 "http://www.w3.org/Graphics/SVG/1.1/DTD/svg11.dtd">
<!-- Generated by graphviz version 2.26.3 (20100126.1600)
 -->
<!-- Title: Str.cpp Pages: 1 -->
<!--zoomable 262 -->
<svg id="main" version="1.1" xmlns="http://www.w3.org/2000/svg" xmlns:xlink="http://www.w3.org/1999/xlink" xml:space="preserve" onload="init(evt)">
<style type="text/css"><![CDATA[
.edge:hover path { stroke: red; }
.edge:hover polygon { stroke: red; fill: red; }
]]></style>
<script type="text/javascript"><![CDATA[
var edges = document.getElementsByTagName('g');
if (edges && edges.length) {
  for (var i=0;i<edges.length;i++) {
    if (edges[i].id.substr(0,4)=='edge') {
      edges[i].setAttribute('class','edge');
    }
  }
}
]]></script>
        <defs>
                <circle id="rim" cx="0" cy="0" r="7"/>
                <circle id="rim2" cx="0" cy="0" r="3.5"/>
                <g id="zoomPlus">
                        <use xlink:href="#rim" fill="#404040">
                                <set attributeName="fill" to="#808080" begin="zoomplus.mouseover" end="zoomplus.mouseout"/>
                        </use>
                        <path d="M-4,0h8M0,-4v8" fill="none" stroke="white" stroke-width="1.5" pointer-events="none"/>
                </g>
                <g id="zoomMin">
                        <use xlink:href="#rim" fill="#404040">
                                <set attributeName="fill" to="#808080" begin="zoomminus.mouseover" end="zoomminus.mouseout"/>
                        </use>
                        <path d="M-4,0h8" fill="none" stroke="white" stroke-width="1.5" pointer-events="none"/>
                </g>
                <g id="dirArrow">
                        <path fill="none" stroke="white" stroke-width="1.5" d="M0,-3.0v7 M-2.5,-0.5L0,-3.0L2.5,-0.5"/>
                </g>
               <g id="resetDef">
                       <use xlink:href="#rim2" fill="#404040">
                               <set attributeName="fill" to="#808080" begin="reset.mouseover" end="reset.mouseout"/>
                       </use>
               </g>
        </defs>

<script type="text/javascript">
var viewWidth = 562;
var viewHeight = 262;
var sectionId = 'dynsection-0';
</script>
<script xlink:href="svgpan.js"/>
<svg id="graph" class="graph">
<g id="viewport">
<title>Str.cpp</title>
<!-- Node1 -->
<g id="node1" class="node"><title>Node1</title>
<polygon fill="#bfbfbf" stroke="black" points="144.5,-233 144.5,-253 191.5,-253 191.5,-233 144.5,-233"/>
<text text-anchor="middle" x="168" y="-240" font-family="FreeSans" font-size="10.00">Str.cpp</text>
</g>
<!-- Node2 -->
<g id="node3" class="node"><title>Node2</title>
<polygon fill="none" stroke="#bfbfbf" points="-0.5,-175 -0.5,-195 52.5,-195 52.5,-175 -0.5,-175"/>
<text text-anchor="middle" x="26" y="-182" font-family="FreeSans" font-size="10.00">StdAfx.h</text>
</g>
<!-- Node1&#45;&gt;Node2 -->
<g id="edge2" class="edge"><title>Node1&#45;&gt;Node2</title>
<path fill="none" stroke="midnightblue" d="M144.232,-233.292C121.269,-223.913 86.243,-209.606 60.2683,-198.997"/>
<polygon fill="midnightblue" stroke="midnightblue" points="61.3815,-195.671 50.8005,-195.13 58.7346,-202.151 61.3815,-195.671"/>
</g>
<!-- Node3 -->
<g id="node5" class="node"><title>Node3</title>
<polygon fill="none" stroke="#bfbfbf" points="70,-175 70,-195 120,-195 120,-175 70,-175"/>
<text text-anchor="middle" x="95" y="-182" font-family="FreeSans" font-size="10.00">iomanip</text>
</g>
<!-- Node1&#45;&gt;Node3 -->
<g id="edge4" class="edge"><title>Node1&#45;&gt;Node3</title>
<path fill="none" stroke="midnightblue" d="M155.284,-232.897C144.531,-224.353 128.898,-211.933 116.247,-201.881"/>
<polygon fill="midnightblue" stroke="midnightblue" points="118.068,-198.858 108.061,-195.378 113.714,-204.339 118.068,-198.858"/>
</g>
<!-- Node4 -->
<g id="node7" class="node"><title>Node4</title>
<polygon fill="none" stroke="#bfbfbf" points="138,-175 138,-195 198,-195 198,-175 138,-175"/>
<text text-anchor="middle" x="168" y="-182" font-family="FreeSans" font-size="10.00">utf8/utf8.h</text>
</g>
<!-- Node1&#45;&gt;Node4 -->
<g id="edge6" class="edge"><title>Node1&#45;&gt;Node4</title>
<path fill="none" stroke="midnightblue" d="M168,-232.897C168,-225.339 168,-214.748 168,-205.446"/>
<polygon fill="midnightblue" stroke="midnightblue" points="171.5,-205.378 168,-195.378 164.5,-205.378 171.5,-205.378"/>
</g>
<!-- Node5 -->
<g id="node9" class="node"><title>Node5</title>
<a xlink:href="_log_8h.html" target="_top" xlink:title="Log.h">
<polygon fill="none" stroke="black" points="215.5,-175 215.5,-195 256.5,-195 256.5,-175 215.5,-175"/>
<text text-anchor="middle" x="236" y="-182" font-family="FreeSans" font-size="10.00">Log.h</text>
</a>
</g>
<!-- Node1&#45;&gt;Node5 -->
<g id="edge8" class="edge"><title>Node1&#45;&gt;Node5</title>
<path fill="none" stroke="midnightblue" d="M179.845,-232.897C189.862,-224.353 204.423,-211.933 216.208,-201.881"/>
<polygon fill="midnightblue" stroke="midnightblue" points="218.496,-204.53 223.833,-195.378 213.953,-199.204 218.496,-204.53"/>
</g>
<!-- Node6 -->
<g id="node11" class="node"><title>Node6</title>
<a xlink:href="_str_8h.html" target="_top" xlink:title="Str.h">
<polygon fill="none" stroke="black" points="273.5,-175 273.5,-195 310.5,-195 310.5,-175 273.5,-175"/>
<text text-anchor="middle" x="292" y="-182" font-family="FreeSans" font-size="10.00">Str.h</text>
</a>
</g>
<!-- Node1&#45;&gt;Node6 -->
<g id="edge10" class="edge"><title>Node1&#45;&gt;Node6</title>
<path fill="none" stroke="midnightblue" d="M189.599,-232.897C210.364,-223.185 241.837,-208.464 264.407,-197.906"/>
<polygon fill="midnightblue" stroke="midnightblue" points="265.903,-201.071 273.478,-193.664 262.937,-194.73 265.903,-201.071"/>
</g>
<!-- Node7 -->
<g id="node13" class="node"><title>Node7</title>
<a xlink:href="_o_s_8h.html" target="_top" xlink:title="OS.h">
<polygon fill="none" stroke="black" points="273,-117 273,-137 311,-137 311,-117 273,-117"/>
<text text-anchor="middle" x="292" y="-124" font-family="FreeSans" font-size="10.00">OS.h</text>
</a>
</g>
<!-- Node6&#45;&gt;Node7 -->
<g id="edge12" class="edge"><title>Node6&#45;&gt;Node7</title>
<path fill="none" stroke="midnightblue" d="M292,-174.897C292,-167.339 292,-156.748 292,-147.446"/>
<polygon fill="midnightblue" stroke="midnightblue" points="295.5,-147.378 292,-137.378 288.5,-147.378 295.5,-147.378"/>
</g>
<!-- Node8 -->
<g id="node15" class="node"><title>Node8</title>
<polygon fill="none" stroke="#bfbfbf" points="134,-59 134,-79 176,-79 176,-59 134,-59"/>
<text text-anchor="middle" x="155" y="-66" font-family="FreeSans" font-size="10.00">locale</text>
</g>
<!-- Node7&#45;&gt;Node8 -->
<g id="edge14" class="edge"><title>Node7&#45;&gt;Node8</title>
<path fill="none" stroke="midnightblue" d="M272.951,-118.935C250.294,-109.343 212.183,-93.2089 185.428,-81.8819"/>
<polygon fill="midnightblue" stroke="midnightblue" points="186.707,-78.6229 176.134,-77.9473 183.978,-85.069 186.707,-78.6229"/>
</g>
<!-- Node9 -->
<g id="node17" class="node"><title>Node9</title>
<polygon fill="none" stroke="#bfbfbf" points="194,-59 194,-79 224,-79 224,-59 194,-59"/>
<text text-anchor="middle" x="209" y="-66" font-family="FreeSans" font-size="10.00">set</text>
</g>
<!-- Node7&#45;&gt;Node9 -->
<g id="edge16" class="edge"><title>Node7&#45;&gt;Node9</title>
<path fill="none" stroke="midnightblue" d="M277.543,-116.897C265.004,-108.135 246.631,-95.2965 232.063,-85.1164"/>
<polygon fill="midnightblue" stroke="midnightblue" points="233.772,-82.0408 223.57,-79.1817 229.762,-87.7786 233.772,-82.0408"/>
</g>
<!-- Node10 -->
<g id="node19" class="node"><title>Node10</title>
<polygon fill="none" stroke="#bfbfbf" points="241.5,-59 241.5,-79 282.5,-79 282.5,-59 241.5,-59"/>
<text text-anchor="middle" x="262" y="-66" font-family="FreeSans" font-size="10.00">string</text>
</g>
<!-- Node7&#45;&gt;Node10 -->
<g id="edge18" class="edge"><title>Node7&#45;&gt;Node10</title>
<path fill="none" stroke="midnightblue" d="M286.774,-116.897C282.738,-109.093 277.028,-98.0536 272.107,-88.5401"/>
<polygon fill="midnightblue" stroke="midnightblue" points="275.071,-86.6518 267.368,-79.3776 268.853,-89.8678 275.071,-86.6518"/>
</g>
<!-- Node11 -->
<g id="node21" class="node"><title>Node11</title>
<polygon fill="none" stroke="#bfbfbf" points="300,-59 300,-79 344,-79 344,-59 300,-59"/>
<text text-anchor="middle" x="322" y="-66" font-family="FreeSans" font-size="10.00">vector</text>
</g>
<!-- Node7&#45;&gt;Node11 -->
<g id="edge20" class="edge"><title>Node7&#45;&gt;Node11</title>
<path fill="none" stroke="midnightblue" d="M297.226,-116.897C301.262,-109.093 306.972,-98.0536 311.893,-88.5401"/>
<polygon fill="midnightblue" stroke="midnightblue" points="315.147,-89.8678 316.632,-79.3776 308.929,-86.6518 315.147,-89.8678"/>
</g>
<!-- Node12 -->
<g id="node23" class="node"><title>Node12</title>
<polygon fill="none" stroke="#bfbfbf" points="361.5,-59 361.5,-79 466.5,-79 466.5,-59 361.5,-59"/>
<text text-anchor="middle" x="414" y="-66" font-family="FreeSans" font-size="10.00">boost/filesystem.hpp</text>
</g>
<!-- Node7&#45;&gt;Node12 -->
<g id="edge22" class="edge"><title>Node7&#45;&gt;Node12</title>
<path fill="none" stroke="midnightblue" d="M311.062,-117.938C330.414,-108.738 360.678,-94.3499 383.391,-83.5516"/>
<polygon fill="midnightblue" stroke="midnightblue" points="385.081,-86.6238 392.61,-79.1692 382.075,-80.3019 385.081,-86.6238"/>
</g>
<!-- Node13 -->
<g id="node25" class="node"><title>Node13</title>
<a xlink:href="_m_r___types_8h.html" target="_top" xlink:title="MR_Types.h">
<polygon fill="none" stroke="black" points="483.5,-59 483.5,-79 554.5,-79 554.5,-59 483.5,-59"/>
<text text-anchor="middle" x="519" y="-66" font-family="FreeSans" font-size="10.00">MR_Types.h</text>
</a>
</g>
<!-- Node7&#45;&gt;Node13 -->
<g id="edge24" class="edge"><title>Node7&#45;&gt;Node13</title>
<path fill="none" stroke="midnightblue" d="M311.354,-122.055C346.963,-112.957 423.747,-93.3379 473.304,-80.6756"/>
<polygon fill="midnightblue" stroke="midnightblue" points="474.315,-84.0299 483.137,-78.1633 472.582,-77.2478 474.315,-84.0299"/>
</g>
<!-- Node14 -->
<g id="node27" class="node"><title>Node14</title>
<polygon fill="none" stroke="#bfbfbf" points="490,-1 490,-21 548,-21 548,-1 490,-1"/>
<text text-anchor="middle" x="519" y="-8" font-family="FreeSans" font-size="10.00">inttypes.h</text>
</g>
<!-- Node13&#45;&gt;Node14 -->
<g id="edge26" class="edge"><title>Node13&#45;&gt;Node14</title>
<path fill="none" stroke="midnightblue" d="M519,-58.8972C519,-51.339 519,-40.7476 519,-31.4458"/>
<polygon fill="midnightblue" stroke="midnightblue" points="522.5,-31.3776 519,-21.3776 515.5,-31.3776 522.5,-31.3776"/>
</g>
</g>
</svg>
        <g id="navigator" transform="translate(0 0)" fill="#404254">
                <rect fill="#f2f5e9" fill-opacity="0.5" stroke="#606060" stroke-width=".5" x="0" y="0" width="60" height="60"/>
                <use id="zoomplus" xlink:href="#zoomPlus" x="17" y="9" onmousedown="handleZoom(evt,'in')"/>
                <use id="zoomminus" xlink:href="#zoomMin" x="42" y="9" onmousedown="handleZoom(evt,'out')"/>
                <use id="reset" xlink:href="#resetDef" x="30" y="36" onmousedown="handleReset()"/>
                <g id="arrowUp" xlink:href="#dirArrow" transform="translate(30 24)" onmousedown="handlePan(0,-1)">
                  <use xlink:href="#rim" fill="#404040">
                        <set attributeName="fill" to="#808080" begin="arrowUp.mouseover" end="arrowUp.mouseout"/>
                  </use>
                  <path fill="none" stroke="white" stroke-width="1.5" d="M0,-3.0v7 M-2.5,-0.5L0,-3.0L2.5,-0.5"/>
                </g>
                <g id="arrowRight" xlink:href="#dirArrow" transform="rotate(90) translate(36 -43)" onmousedown="handlePan(1,0)">
                  <use xlink:href="#rim" fill="#404040">
                        <set attributeName="fill" to="#808080" begin="arrowRight.mouseover" end="arrowRight.mouseout"/>
                  </use>
                  <path fill="none" stroke="white" stroke-width="1.5" d="M0,-3.0v7 M-2.5,-0.5L0,-3.0L2.5,-0.5"/>
                </g>
                <g id="arrowDown" xlink:href="#dirArrow" transform="rotate(180) translate(-30 -48)" onmousedown="handlePan(0,1)">
                  <use xlink:href="#rim" fill="#404040">
                        <set attributeName="fill" to="#808080" begin="arrowDown.mouseover" end="arrowDown.mouseout"/>
                  </use>
                  <path fill="none" stroke="white" stroke-width="1.5" d="M0,-3.0v7 M-2.5,-0.5L0,-3.0L2.5,-0.5"/>
                </g>
                <g id="arrowLeft" xlink:href="#dirArrow" transform="rotate(270) translate(-36 17)" onmousedown="handlePan(-1,0)">
                  <use xlink:href="#rim" fill="#404040">
                        <set attributeName="fill" to="#808080" begin="arrowLeft.mouseover" end="arrowLeft.mouseout"/>
                  </use>
                  <path fill="none" stroke="white" stroke-width="1.5" d="M0,-3.0v7 M-2.5,-0.5L0,-3.0L2.5,-0.5"/>
                </g>
        </g>
        <svg viewBox="0 0 15 15" width="100%" height="30px" preserveAspectRatio="xMaxYMin meet">
         <g id="arrow_out" transform="scale(0.3 0.3)">
          <a xlink:href="_str_8cpp__incl_org.svg" target="_base">
           <rect id="button" ry="5" rx="5" y="6" x="6" height="38" width="38"
                fill="#f2f5e9" fill-opacity="0.5" stroke="#606060" stroke-width="1.0"/>
           <path id="arrow"
             d="M 11.500037,31.436501 C 11.940474,20.09759 22.043105,11.32322 32.158766,21.979434 L 37.068811,17.246167 C 37.068811,17.246167 37.088388,32 37.088388,32 L 22.160133,31.978069 C 22.160133,31.978069 26.997745,27.140456 26.997745,27.140456 C 18.528582,18.264221 13.291696,25.230495 11.500037,31.436501 z"
             style="fill:#404040;"/>
          </a>
         </g>
        </svg>
</svg>
