<?xml version="1.0" encoding="UTF-8" standalone="no"?>
<!DOCTYPE svg PUBLIC "-//W3C//DTD SVG 1.1//EN"
 "http://www.w3.org/Graphics/SVG/1.1/DTD/svg11.dtd">
<!-- Generated by graphviz version 2.26.3 (20100126.1600)
 -->
<!-- Title: Str.cpp Pages: 1 -->
<svg width="456pt" height="204pt"
 viewBox="0.00 0.00 456.00 204.00" xmlns="http://www.w3.org/2000/svg" xmlns:xlink="http://www.w3.org/1999/xlink">
<g id="graph1" class="graph" transform="scale(1 1) rotate(0) translate(4 200)">
<title>Str.cpp</title>
<!-- Node1 -->
<g id="node1" class="node"><title>Node1</title>
<polygon fill="#bfbfbf" stroke="black" points="108.5,-175 108.5,-195 155.5,-195 155.5,-175 108.5,-175"/>
<text text-anchor="middle" x="132" y="-182" font-family="FreeSans" font-size="10.00">Str.cpp</text>
</g>
<!-- Node2 -->
<g id="node3" class="node"><title>Node2</title>
<polygon fill="none" stroke="#bfbfbf" points="-0.5,-117 -0.5,-137 52.5,-137 52.5,-117 -0.5,-117"/>
<text text-anchor="middle" x="26" y="-124" font-family="FreeSans" font-size="10.00">StdAfx.h</text>
</g>
<!-- Node1&#45;&gt;Node2 -->
<g id="edge2" class="edge"><title>Node1&#45;&gt;Node2</title>
<path fill="none" stroke="midnightblue" d="M113.536,-174.897C96.994,-165.846 72.5015,-152.444 53.6276,-142.117"/>
<polygon fill="midnightblue" stroke="midnightblue" points="55.0606,-138.911 44.6079,-137.182 51.7004,-145.052 55.0606,-138.911"/>
</g>
<!-- Node3 -->
<g id="node5" class="node"><title>Node3</title>
<polygon fill="none" stroke="#bfbfbf" points="69.5,-117 69.5,-137 116.5,-137 116.5,-117 69.5,-117"/>
<text text-anchor="middle" x="93" y="-124" font-family="FreeSans" font-size="10.00">iconv.h</text>
</g>
<!-- Node1&#45;&gt;Node3 -->
<g id="edge4" class="edge"><title>Node1&#45;&gt;Node3</title>
<path fill="none" stroke="midnightblue" d="M125.207,-174.897C119.848,-166.928 112.223,-155.587 105.736,-145.941"/>
<polygon fill="midnightblue" stroke="midnightblue" points="108.463,-143.723 99.978,-137.378 102.654,-147.629 108.463,-143.723"/>
</g>
<!-- Node4 -->
<g id="node7" class="node"><title>Node4</title>
<a xlink:href="_exception_8h.html" target="_top" xlink:title="../Exception.h">
<polygon fill="none" stroke="black" points="134,-117 134,-137 208,-137 208,-117 134,-117"/>
<text text-anchor="middle" x="171" y="-124" font-family="FreeSans" font-size="10.00">../Exception.h</text>
</a>
</g>
<!-- Node1&#45;&gt;Node4 -->
<g id="edge6" class="edge"><title>Node1&#45;&gt;Node4</title>
<path fill="none" stroke="midnightblue" d="M138.793,-174.897C144.152,-166.928 151.777,-155.587 158.264,-145.941"/>
<polygon fill="midnightblue" stroke="midnightblue" points="161.346,-147.629 164.022,-137.378 155.537,-143.723 161.346,-147.629"/>
</g>
<!-- Node6 -->
<g id="node11" class="node"><title>Node6</title>
<a xlink:href="_str_8h.html" target="_top" xlink:title="Str.h">
<polygon fill="none" stroke="black" points="225.5,-117 225.5,-137 262.5,-137 262.5,-117 225.5,-117"/>
<text text-anchor="middle" x="244" y="-124" font-family="FreeSans" font-size="10.00">Str.h</text>
</a>
</g>
<!-- Node1&#45;&gt;Node6 -->
<g id="edge10" class="edge"><title>Node1&#45;&gt;Node6</title>
<path fill="none" stroke="midnightblue" d="M151.509,-174.897C169.472,-165.595 196.307,-151.698 216.452,-141.266"/>
<polygon fill="midnightblue" stroke="midnightblue" points="218.188,-144.308 225.458,-136.602 214.969,-138.093 218.188,-144.308"/>
</g>
<!-- Node5 -->
<g id="node9" class="node"><title>Node5</title>
<polygon fill="none" stroke="#bfbfbf" points="142,-59 142,-79 200,-79 200,-59 142,-59"/>
<text text-anchor="middle" x="171" y="-66" font-family="FreeSans" font-size="10.00">exception</text>
</g>
<!-- Node4&#45;&gt;Node5 -->
<g id="edge8" class="edge"><title>Node4&#45;&gt;Node5</title>
<path fill="none" stroke="midnightblue" d="M171,-116.897C171,-109.339 171,-98.7476 171,-89.4458"/>
<polygon fill="midnightblue" stroke="midnightblue" points="174.5,-89.3776 171,-79.3776 167.5,-89.3776 174.5,-89.3776"/>
</g>
<!-- Node7 -->
<g id="node13" class="node"><title>Node7</title>
<a xlink:href="_o_s_8h.html" target="_top" xlink:title="OS.h">
<polygon fill="none" stroke="black" points="225,-59 225,-79 263,-79 263,-59 225,-59"/>
<text text-anchor="middle" x="244" y="-66" font-family="FreeSans" font-size="10.00">OS.h</text>
</a>
</g>
<!-- Node6&#45;&gt;Node7 -->
<g id="edge12" class="edge"><title>Node6&#45;&gt;Node7</title>
<path fill="none" stroke="midnightblue" d="M244,-116.897C244,-109.339 244,-98.7476 244,-89.4458"/>
<polygon fill="midnightblue" stroke="midnightblue" points="247.5,-89.3776 244,-79.3776 240.5,-89.3776 247.5,-89.3776"/>
</g>
<!-- Node8 -->
<g id="node15" class="node"><title>Node8</title>
<polygon fill="none" stroke="#bfbfbf" points="116,-1 116,-21 158,-21 158,-1 116,-1"/>
<text text-anchor="middle" x="137" y="-8" font-family="FreeSans" font-size="10.00">locale</text>
</g>
<!-- Node7&#45;&gt;Node8 -->
<g id="edge14" class="edge"><title>Node7&#45;&gt;Node8</title>
<path fill="none" stroke="midnightblue" d="M225.362,-58.8972C208.588,-49.8045 183.714,-36.3218 164.628,-25.9757"/>
<polygon fill="midnightblue" stroke="midnightblue" points="166.243,-22.8702 155.783,-21.1817 162.907,-29.0242 166.243,-22.8702"/>
</g>
<!-- Node9 -->
<g id="node17" class="node"><title>Node9</title>
<polygon fill="none" stroke="#bfbfbf" points="176,-1 176,-21 206,-21 206,-1 176,-1"/>
<text text-anchor="middle" x="191" y="-8" font-family="FreeSans" font-size="10.00">set</text>
</g>
<!-- Node7&#45;&gt;Node9 -->
<g id="edge16" class="edge"><title>Node7&#45;&gt;Node9</title>
<path fill="none" stroke="midnightblue" d="M234.768,-58.8972C227.261,-50.6818 216.479,-38.8827 207.495,-29.0513"/>
<polygon fill="midnightblue" stroke="midnightblue" points="209.812,-26.3987 200.483,-21.3776 204.645,-31.1207 209.812,-26.3987"/>
</g>
<!-- Node10 -->
<g id="node19" class="node"><title>Node10</title>
<polygon fill="none" stroke="#bfbfbf" points="223.5,-1 223.5,-21 264.5,-21 264.5,-1 223.5,-1"/>
<text text-anchor="middle" x="244" y="-8" font-family="FreeSans" font-size="10.00">string</text>
</g>
<!-- Node7&#45;&gt;Node10 -->
<g id="edge18" class="edge"><title>Node7&#45;&gt;Node10</title>
<path fill="none" stroke="midnightblue" d="M244,-58.8972C244,-51.339 244,-40.7476 244,-31.4458"/>
<polygon fill="midnightblue" stroke="midnightblue" points="247.5,-31.3776 244,-21.3776 240.5,-31.3776 247.5,-31.3776"/>
</g>
<!-- Node11 -->
<g id="node21" class="node"><title>Node11</title>
<polygon fill="none" stroke="#bfbfbf" points="282,-1 282,-21 326,-21 326,-1 282,-1"/>
<text text-anchor="middle" x="304" y="-8" font-family="FreeSans" font-size="10.00">vector</text>
</g>
<!-- Node7&#45;&gt;Node11 -->
<g id="edge20" class="edge"><title>Node7&#45;&gt;Node11</title>
<path fill="none" stroke="midnightblue" d="M254.451,-58.8972C263.12,-50.5175 275.646,-38.4093 285.934,-28.4638"/>
<polygon fill="midnightblue" stroke="midnightblue" points="288.507,-30.8443 293.265,-21.3776 283.642,-25.8114 288.507,-30.8443"/>
</g>
<!-- Node12 -->
<g id="node23" class="node"><title>Node12</title>
<polygon fill="none" stroke="#bfbfbf" points="343.5,-1 343.5,-21 448.5,-21 448.5,-1 343.5,-1"/>
<text text-anchor="middle" x="396" y="-8" font-family="FreeSans" font-size="10.00">boost/filesystem.hpp</text>
</g>
<!-- Node7&#45;&gt;Node12 -->
<g id="edge22" class="edge"><title>Node7&#45;&gt;Node12</title>
<path fill="none" stroke="midnightblue" d="M263.251,-61.6543C287.615,-52.3574 330.058,-36.1622 360.395,-24.5862"/>
<polygon fill="midnightblue" stroke="midnightblue" points="361.686,-27.8398 369.781,-21.0046 359.19,-21.2997 361.686,-27.8398"/>
</g>
</g>
</svg>
