<?xml version="1.0" encoding="UTF-8" standalone="no"?>
<!DOCTYPE svg PUBLIC "-//W3C//DTD SVG 1.1//EN"
 "http://www.w3.org/Graphics/SVG/1.1/DTD/svg11.dtd">
<!-- Generated by graphviz version 2.26.3 (20100126.1600)
 -->
<!-- Title: Str.h Pages: 1 -->
<!--zoomable 88 -->
<svg id="main" version="1.1" xmlns="http://www.w3.org/2000/svg" xmlns:xlink="http://www.w3.org/1999/xlink" xml:space="preserve" onload="init(evt)">
        <defs>
                <circle id="rim" cx="0" cy="0" r="7"/>
                <circle id="rim2" cx="0" cy="0" r="3.5"/>
                <g id="zoomPlus">
                        <use xlink:href="#rim" fill="#404040">
                                <set attributeName="fill" to="#808080" begin="zoomplus.mouseover" end="zoomplus.mouseout"/>
                        </use>
                        <path d="M-4,0h8M0,-4v8" fill="none" stroke="white" stroke-width="1.5" pointer-events="none"/>
                </g>
                <g id="zoomMin">
                        <use xlink:href="#rim" fill="#404040">
                                <set attributeName="fill" to="#808080" begin="zoomminus.mouseover" end="zoomminus.mouseout"/>
                        </use>
                        <path d="M-4,0h8" fill="none" stroke="white" stroke-width="1.5" pointer-events="none"/>
                </g>
                <g id="dirArrow">
                        <path fill="none" stroke="white" stroke-width="1.5" d="M0,-3.0v7 M-2.5,-0.5L0,-3.0L2.5,-0.5"/>
                </g>
               <g id="resetDef">
                       <use xlink:href="#rim2" fill="#404040">
                               <set attributeName="fill" to="#808080" begin="reset.mouseover" end="reset.mouseout"/>
                       </use>
               </g>
        </defs>

<script type="text/javascript">
var viewWidth = 2156;
var viewHeight = 88;
var sectionId = 'dynsection-1';
</script>
<script xlink:href="svgpan.js"/>
<svg id="graph" class="graph">
<g id="viewport">
<title>Str.h</title>
<!-- Node1 -->
<g id="node1" class="node"><title>Node1</title>
<polygon fill="#bfbfbf" stroke="black" points="1140.5,-59 1140.5,-79 1177.5,-79 1177.5,-59 1140.5,-59"/>
<text text-anchor="middle" x="1159" y="-66" font-family="FreeSans" font-size="10.00">Str.h</text>
</g>
<!-- Node2 -->
<g id="node3" class="node"><title>Node2</title>
<a xlink:href="_client_app_8cpp.html" target="_top" xlink:title="ClientApp.cpp">
<polygon fill="none" stroke="black" points="-0.5,-1 -0.5,-21 76.5,-21 76.5,-1 -0.5,-1"/>
<text text-anchor="middle" x="38" y="-8" font-family="FreeSans" font-size="10.00">ClientApp.cpp</text>
</a>
</g>
<!-- Node1&#45;&gt;Node2 -->
<g id="edge2" class="edge"><title>Node1&#45;&gt;Node2</title>
<path fill="none" stroke="midnightblue" d="M1129.96,-68.4609C980.34,-65.572 295.367,-50.9631 85,-22 82.2604,-21.6228 79.4461,-21.1601 76.6218,-20.6401"/>
<polygon fill="midnightblue" stroke="midnightblue" points="1130.11,-71.9642 1140.17,-68.6558 1130.24,-64.9655 1130.11,-71.9642"/>
</g>
<!-- Node3 -->
<g id="node5" class="node"><title>Node3</title>
<a xlink:href="_folder_viewer_8cpp.html" target="_top" xlink:title="FolderViewer.cpp">
<polygon fill="none" stroke="black" points="94,-1 94,-21 186,-21 186,-1 94,-1"/>
<text text-anchor="middle" x="140" y="-8" font-family="FreeSans" font-size="10.00">FolderViewer.cpp</text>
</a>
</g>
<!-- Node1&#45;&gt;Node3 -->
<g id="edge4" class="edge"><title>Node1&#45;&gt;Node3</title>
<path fill="none" stroke="midnightblue" d="M1129.91,-68.1661C989.713,-64.0574 382.813,-45.229 195,-22 192.101,-21.6414 189.126,-21.2158 186.132,-20.7438"/>
<polygon fill="midnightblue" stroke="midnightblue" points="1130.16,-71.6747 1140.26,-68.4673 1130.36,-64.6776 1130.16,-71.6747"/>
</g>
<!-- Node4 -->
<g id="node7" class="node"><title>Node4</title>
<a xlink:href="main_8cpp.html" target="_top" xlink:title="main.cpp">
<polygon fill="none" stroke="black" points="204,-1 204,-21 260,-21 260,-1 204,-1"/>
<text text-anchor="middle" x="232" y="-8" font-family="FreeSans" font-size="10.00">main.cpp</text>
</a>
</g>
<!-- Node1&#45;&gt;Node4 -->
<g id="edge6" class="edge"><title>Node1&#45;&gt;Node4</title>
<path fill="none" stroke="midnightblue" d="M1129.99,-68.389C996.48,-65.4357 440.294,-51.5569 269,-22 266.094,-21.4986 263.094,-20.8446 260.119,-20.1053"/>
<polygon fill="midnightblue" stroke="midnightblue" points="1130.16,-71.8933 1140.23,-68.6123 1130.31,-64.895 1130.16,-71.8933"/>
</g>
<!-- Node5 -->
<g id="node9" class="node"><title>Node5</title>
<a xlink:href="_debug_peer_8cpp.html" target="_top" xlink:title="DebugPeer.cpp">
<polygon fill="none" stroke="black" points="277.5,-1 277.5,-21 360.5,-21 360.5,-1 277.5,-1"/>
<text text-anchor="middle" x="319" y="-8" font-family="FreeSans" font-size="10.00">DebugPeer.cpp</text>
</a>
</g>
<!-- Node1&#45;&gt;Node5 -->
<g id="edge8" class="edge"><title>Node1&#45;&gt;Node5</title>
<path fill="none" stroke="midnightblue" d="M1130.2,-67.8943C1006.6,-63.0563 520.587,-43.0509 369,-22 366.271,-21.621 363.47,-21.1725 360.653,-20.6769"/>
<polygon fill="midnightblue" stroke="midnightblue" points="1130.25,-71.3989 1140.38,-68.2905 1130.52,-64.4042 1130.25,-71.3989"/>
</g>
<!-- Node6 -->
<g id="node11" class="node"><title>Node6</title>
<a xlink:href="_rulebook_env_8cpp.html" target="_top" xlink:title="RulebookEnv.cpp">
<polygon fill="none" stroke="black" points="378,-1 378,-21 470,-21 470,-1 378,-1"/>
<text text-anchor="middle" x="424" y="-8" font-family="FreeSans" font-size="10.00">RulebookEnv.cpp</text>
</a>
</g>
<!-- Node1&#45;&gt;Node6 -->
<g id="edge10" class="edge"><title>Node1&#45;&gt;Node6</title>
<path fill="none" stroke="midnightblue" d="M1130.08,-68.3283C1035.92,-65.8583 729.747,-55.5988 479,-22 476.105,-21.612 473.132,-21.1639 470.141,-20.6751"/>
<polygon fill="midnightblue" stroke="midnightblue" points="1130.17,-71.8315 1140.25,-68.586 1130.34,-64.8337 1130.17,-71.8315"/>
</g>
<!-- Node7 -->
<g id="node13" class="node"><title>Node7</title>
<a xlink:href="_runtime_env_8cpp.html" target="_top" xlink:title="RuntimeEnv.cpp">
<polygon fill="none" stroke="black" points="487.5,-1 487.5,-21 574.5,-21 574.5,-1 487.5,-1"/>
<text text-anchor="middle" x="531" y="-8" font-family="FreeSans" font-size="10.00">RuntimeEnv.cpp</text>
</a>
</g>
<!-- Node1&#45;&gt;Node7 -->
<g id="edge12" class="edge"><title>Node1&#45;&gt;Node7</title>
<path fill="none" stroke="midnightblue" d="M1129.85,-67.931C1045.05,-64.5407 791.294,-52.4035 583,-22 580.261,-21.6002 577.449,-21.143 574.62,-20.6474"/>
<polygon fill="midnightblue" stroke="midnightblue" points="1129.88,-71.4348 1140.01,-68.3273 1130.15,-64.4401 1129.88,-71.4348"/>
</g>
<!-- Node8 -->
<g id="node15" class="node"><title>Node8</title>
<a xlink:href="_sys_env_8cpp.html" target="_top" xlink:title="SysEnv.cpp">
<polygon fill="none" stroke="black" points="592,-1 592,-21 660,-21 660,-1 592,-1"/>
<text text-anchor="middle" x="626" y="-8" font-family="FreeSans" font-size="10.00">SysEnv.cpp</text>
</a>
</g>
<!-- Node1&#45;&gt;Node8 -->
<g id="edge14" class="edge"><title>Node1&#45;&gt;Node8</title>
<path fill="none" stroke="midnightblue" d="M1129.93,-67.784C1053.77,-64.259 842.313,-52.2921 669,-22 666.116,-21.4959 663.14,-20.899 660.164,-20.2481"/>
<polygon fill="midnightblue" stroke="midnightblue" points="1130.02,-71.2914 1140.17,-68.244 1130.34,-64.2984 1130.02,-71.2914"/>
</g>
<!-- Node9 -->
<g id="node17" class="node"><title>Node9</title>
<a xlink:href="_label_8cpp.html" target="_top" xlink:title="Label.cpp">
<polygon fill="none" stroke="black" points="677.5,-1 677.5,-21 736.5,-21 736.5,-1 677.5,-1"/>
<text text-anchor="middle" x="707" y="-8" font-family="FreeSans" font-size="10.00">Label.cpp</text>
</a>
</g>
<!-- Node1&#45;&gt;Node9 -->
<g id="edge16" class="edge"><title>Node1&#45;&gt;Node9</title>
<path fill="none" stroke="midnightblue" d="M1129.92,-67.3908C1061.99,-63.2644 887.781,-50.558 745,-22 742.306,-21.4612 739.526,-20.8222 736.753,-20.1275"/>
<polygon fill="midnightblue" stroke="midnightblue" points="1130.07,-70.9054 1140.26,-68.0014 1130.48,-63.9176 1130.07,-70.9054"/>
</g>
<!-- Node10 -->
<g id="node19" class="node"><title>Node10</title>
<a xlink:href="_sdl_display_8cpp.html" target="_top" xlink:title="SdlDisplay.cpp">
<polygon fill="none" stroke="black" points="754,-1 754,-21 834,-21 834,-1 754,-1"/>
<text text-anchor="middle" x="794" y="-8" font-family="FreeSans" font-size="10.00">SdlDisplay.cpp</text>
</a>
</g>
<!-- Node1&#45;&gt;Node10 -->
<g id="edge18" class="edge"><title>Node1&#45;&gt;Node10</title>
<path fill="none" stroke="midnightblue" d="M1130.23,-65.4385C1074.57,-58.3876 948.303,-41.6236 843,-22 840.086,-21.4569 837.081,-20.8641 834.062,-20.2443"/>
<polygon fill="midnightblue" stroke="midnightblue" points="1130.04,-68.9417 1140.4,-66.7171 1130.91,-61.9964 1130.04,-68.9417"/>
</g>
<!-- Node11 -->
<g id="node21" class="node"><title>Node11</title>
<a xlink:href="_sdl_surface_text_8cpp.html" target="_top" xlink:title="SdlSurfaceText.cpp">
<polygon fill="none" stroke="black" points="851.5,-1 851.5,-21 952.5,-21 952.5,-1 851.5,-1"/>
<text text-anchor="middle" x="902" y="-8" font-family="FreeSans" font-size="10.00">SdlSurfaceText.cpp</text>
</a>
</g>
<!-- Node1&#45;&gt;Node11 -->
<g id="edge20" class="edge"><title>Node1&#45;&gt;Node11</title>
<path fill="none" stroke="midnightblue" d="M1130.22,-62.504C1085.62,-52.4397 999.484,-33.0002 946.73,-21.0948"/>
<polygon fill="midnightblue" stroke="midnightblue" points="1129.58,-65.9477 1140.1,-64.7351 1131.12,-59.1195 1129.58,-65.9477"/>
</g>
<!-- Node12 -->
<g id="node23" class="node"><title>Node12</title>
<a xlink:href="_sdl_symbol_icon_view_8cpp.html" target="_top" xlink:title="SdlSymbolIconView.cpp">
<polygon fill="none" stroke="black" points="970,-1 970,-21 1092,-21 1092,-1 970,-1"/>
<text text-anchor="middle" x="1031" y="-8" font-family="FreeSans" font-size="10.00">SdlSymbolIconView.cpp</text>
</a>
</g>
<!-- Node1&#45;&gt;Node12 -->
<g id="edge22" class="edge"><title>Node1&#45;&gt;Node12</title>
<path fill="none" stroke="midnightblue" d="M1131,-56.3118C1107.59,-45.7037 1074.65,-30.78 1053.07,-21.002"/>
<polygon fill="midnightblue" stroke="midnightblue" points="1129.83,-59.6269 1140.39,-60.5663 1132.72,-53.251 1129.83,-59.6269"/>
</g>
<!-- Node13 -->
<g id="node25" class="node"><title>Node13</title>
<a xlink:href="_track_compiler_8cpp.html" target="_top" xlink:title="TrackCompiler.cpp">
<polygon fill="none" stroke="black" points="1110,-1 1110,-21 1208,-21 1208,-1 1110,-1"/>
<text text-anchor="middle" x="1159" y="-8" font-family="FreeSans" font-size="10.00">TrackCompiler.cpp</text>
</a>
</g>
<!-- Node1&#45;&gt;Node13 -->
<g id="edge24" class="edge"><title>Node1&#45;&gt;Node13</title>
<path fill="none" stroke="midnightblue" d="M1159,-48.8902C1159,-39.6201 1159,-29.0083 1159,-21.3776"/>
<polygon fill="midnightblue" stroke="midnightblue" points="1155.5,-48.8971 1159,-58.8972 1162.5,-48.8972 1155.5,-48.8971"/>
</g>
<!-- Node14 -->
<g id="node27" class="node"><title>Node14</title>
<a xlink:href="_track_list_8cpp.html" target="_top" xlink:title="TrackList.cpp">
<polygon fill="none" stroke="black" points="1226,-1 1226,-21 1302,-21 1302,-1 1226,-1"/>
<text text-anchor="middle" x="1264" y="-8" font-family="FreeSans" font-size="10.00">TrackList.cpp</text>
</a>
</g>
<!-- Node1&#45;&gt;Node14 -->
<g id="edge26" class="edge"><title>Node1&#45;&gt;Node14</title>
<path fill="none" stroke="midnightblue" d="M1186.2,-53.9728C1204.87,-43.6634 1229.14,-30.2582 1245.57,-21.1817"/>
<polygon fill="midnightblue" stroke="midnightblue" points="1184.35,-50.9983 1177.29,-58.8972 1187.74,-57.1256 1184.35,-50.9983"/>
</g>
<!-- Node15 -->
<g id="node29" class="node"><title>Node15</title>
<a xlink:href="_bundle_8cpp.html" target="_top" xlink:title="Bundle.cpp">
<polygon fill="none" stroke="black" points="1319.5,-1 1319.5,-21 1384.5,-21 1384.5,-1 1319.5,-1"/>
<text text-anchor="middle" x="1352" y="-8" font-family="FreeSans" font-size="10.00">Bundle.cpp</text>
</a>
</g>
<!-- Node1&#45;&gt;Node15 -->
<g id="edge28" class="edge"><title>Node1&#45;&gt;Node15</title>
<path fill="none" stroke="midnightblue" d="M1187.12,-60.5494C1222.19,-50.0116 1282.03,-32.0281 1319.16,-20.8687"/>
<polygon fill="midnightblue" stroke="midnightblue" points="1186.08,-57.2087 1177.51,-63.4387 1188.09,-63.9125 1186.08,-57.2087"/>
</g>
<!-- Node16 -->
<g id="node31" class="node"><title>Node16</title>
<a xlink:href="_classic_record_file_8cpp.html" target="_top" xlink:title="ClassicRecordFile.cpp">
<polygon fill="none" stroke="black" points="1401.5,-1 1401.5,-21 1514.5,-21 1514.5,-1 1401.5,-1"/>
<text text-anchor="middle" x="1458" y="-8" font-family="FreeSans" font-size="10.00">ClassicRecordFile.cpp</text>
</a>
</g>
<!-- Node1&#45;&gt;Node16 -->
<g id="edge30" class="edge"><title>Node1&#45;&gt;Node16</title>
<path fill="none" stroke="midnightblue" d="M1187.57,-63.4583C1237.85,-53.7047 1342.82,-33.3425 1406.17,-21.0532"/>
<polygon fill="midnightblue" stroke="midnightblue" points="1186.85,-60.0315 1177.7,-65.3718 1188.19,-66.9034 1186.85,-60.0315"/>
</g>
<!-- Node17 -->
<g id="node33" class="node"><title>Node17</title>
<a xlink:href="_obj_stream_8cpp.html" target="_top" xlink:title="ObjStream.cpp">
<polygon fill="none" stroke="black" points="1531.5,-1 1531.5,-21 1612.5,-21 1612.5,-1 1531.5,-1"/>
<text text-anchor="middle" x="1572" y="-8" font-family="FreeSans" font-size="10.00">ObjStream.cpp</text>
</a>
</g>
<!-- Node1&#45;&gt;Node17 -->
<g id="edge32" class="edge"><title>Node1&#45;&gt;Node17</title>
<path fill="none" stroke="midnightblue" d="M1187.8,-66.1965C1249.51,-59.988 1398.98,-43.8783 1523,-22 1525.75,-21.5153 1528.57,-20.9799 1531.42,-20.414"/>
<polygon fill="midnightblue" stroke="midnightblue" points="1187.26,-62.7327 1177.65,-67.2068 1187.95,-69.6982 1187.26,-62.7327"/>
</g>
<!-- Node18 -->
<g id="node35" class="node"><title>Node18</title>
<a xlink:href="_core_8cpp.html" target="_top" xlink:title="Core.cpp">
<polygon fill="none" stroke="black" points="1629.5,-1 1629.5,-21 1684.5,-21 1684.5,-1 1629.5,-1"/>
<text text-anchor="middle" x="1657" y="-8" font-family="FreeSans" font-size="10.00">Core.cpp</text>
</a>
</g>
<!-- Node1&#45;&gt;Node18 -->
<g id="edge34" class="edge"><title>Node1&#45;&gt;Node18</title>
<path fill="none" stroke="midnightblue" d="M1187.94,-68.0156C1261.16,-65.1036 1459.38,-54.5881 1621,-22 1623.69,-21.4575 1626.47,-20.7969 1629.23,-20.0716"/>
<polygon fill="midnightblue" stroke="midnightblue" points="1187.54,-64.5284 1177.68,-68.4059 1187.81,-71.5233 1187.54,-64.5284"/>
</g>
<!-- Node19 -->
<g id="node37" class="node"><title>Node19</title>
<a xlink:href="_env_8cpp.html" target="_top" xlink:title="Env.cpp">
<polygon fill="none" stroke="black" points="1701.5,-1 1701.5,-21 1752.5,-21 1752.5,-1 1701.5,-1"/>
<text text-anchor="middle" x="1727" y="-8" font-family="FreeSans" font-size="10.00">Env.cpp</text>
</a>
</g>
<!-- Node1&#45;&gt;Node19 -->
<g id="edge36" class="edge"><title>Node1&#45;&gt;Node19</title>
<path fill="none" stroke="midnightblue" d="M1187.88,-67.3181C1284.35,-61.5659 1594.86,-41.9291 1693,-22 1695.68,-21.4568 1698.44,-20.7753 1701.17,-20.0192"/>
<polygon fill="midnightblue" stroke="midnightblue" points="1187.48,-63.8356 1177.71,-67.9206 1187.9,-70.8233 1187.48,-63.8356"/>
</g>
<!-- Node20 -->
<g id="node39" class="node"><title>Node20</title>
<a xlink:href="_config_8cpp.html" target="_top" xlink:title="Config.cpp">
<polygon fill="none" stroke="black" points="1770,-1 1770,-21 1832,-21 1832,-1 1770,-1"/>
<text text-anchor="middle" x="1801" y="-8" font-family="FreeSans" font-size="10.00">Config.cpp</text>
</a>
</g>
<!-- Node1&#45;&gt;Node20 -->
<g id="edge38" class="edge"><title>Node1&#45;&gt;Node20</title>
<path fill="none" stroke="midnightblue" d="M1188.1,-68.6857C1275.5,-67.3242 1543.14,-60.1026 1761,-22 1763.84,-21.5037 1766.77,-20.8939 1769.69,-20.2183"/>
<polygon fill="midnightblue" stroke="midnightblue" points="1187.84,-65.1889 1177.89,-68.8302 1187.94,-72.1882 1187.84,-65.1889"/>
</g>
<!-- Node21 -->
<g id="node41" class="node"><title>Node21</title>
<a xlink:href="_o_s_8cpp.html" target="_top" xlink:title="OS.cpp">
<polygon fill="none" stroke="black" points="1849.5,-1 1849.5,-21 1898.5,-21 1898.5,-1 1849.5,-1"/>
<text text-anchor="middle" x="1874" y="-8" font-family="FreeSans" font-size="10.00">OS.cpp</text>
</a>
</g>
<!-- Node1&#45;&gt;Node21 -->
<g id="edge40" class="edge"><title>Node1&#45;&gt;Node21</title>
<path fill="none" stroke="midnightblue" d="M1187.81,-67.9854C1300.68,-63.8607 1712.83,-47.3517 1841,-22 1843.73,-21.461 1846.54,-20.7605 1849.31,-19.974"/>
<polygon fill="midnightblue" stroke="midnightblue" points="1187.42,-64.4972 1177.55,-68.3562 1187.67,-71.4926 1187.42,-64.4972"/>
</g>
<!-- Node22 -->
<g id="node43" class="node"><title>Node22</title>
<a xlink:href="_str_8cpp.html" target="_top" xlink:title="Str.cpp">
<polygon fill="none" stroke="black" points="1915.5,-1 1915.5,-21 1962.5,-21 1962.5,-1 1915.5,-1"/>
<text text-anchor="middle" x="1939" y="-8" font-family="FreeSans" font-size="10.00">Str.cpp</text>
</a>
</g>
<!-- Node1&#45;&gt;Node22 -->
<g id="edge42" class="edge"><title>Node1&#45;&gt;Node22</title>
<path fill="none" stroke="midnightblue" d="M1187.87,-68.2204C1307.59,-64.8277 1765.47,-50.236 1907,-22 1909.77,-21.4483 1912.62,-20.7168 1915.43,-19.8922"/>
<polygon fill="midnightblue" stroke="midnightblue" points="1187.56,-64.7275 1177.66,-68.5055 1187.75,-71.7248 1187.56,-64.7275"/>
</g>
<!-- Node23 -->
<g id="node45" class="node"><title>Node23</title>
<a xlink:href="_emitter_8cpp.html" target="_top" xlink:title="Emitter.cpp">
<polygon fill="none" stroke="black" points="1979.5,-1 1979.5,-21 2044.5,-21 2044.5,-1 1979.5,-1"/>
<text text-anchor="middle" x="2012" y="-8" font-family="FreeSans" font-size="10.00">Emitter.cpp</text>
</a>
</g>
<!-- Node1&#45;&gt;Node23 -->
<g id="edge44" class="edge"><title>Node1&#45;&gt;Node23</title>
<path fill="none" stroke="midnightblue" d="M1187.84,-68.1216C1313.68,-64.1668 1815.39,-47.1067 1971,-22 1973.76,-21.5539 1976.61,-20.9979 1979.46,-20.3744"/>
<polygon fill="midnightblue" stroke="midnightblue" points="1187.7,-64.6242 1177.81,-68.4338 1187.91,-71.6208 1187.7,-64.6242"/>
</g>
<!-- Node24 -->
<g id="node47" class="node"><title>Node24</title>
<a xlink:href="_scalar_node_8cpp.html" target="_top" xlink:title="ScalarNode.cpp">
<polygon fill="none" stroke="black" points="2062,-1 2062,-21 2148,-21 2148,-1 2062,-1"/>
<text text-anchor="middle" x="2105" y="-8" font-family="FreeSans" font-size="10.00">ScalarNode.cpp</text>
</a>
</g>
<!-- Node1&#45;&gt;Node24 -->
<g id="edge46" class="edge"><title>Node1&#45;&gt;Node24</title>
<path fill="none" stroke="midnightblue" d="M1188.09,-68.0821C1321.99,-63.7631 1879.88,-44.7204 2053,-22 2055.93,-21.6158 2058.94,-21.1557 2061.96,-20.6448"/>
<polygon fill="midnightblue" stroke="midnightblue" points="1187.7,-64.5926 1177.82,-68.4112 1187.93,-71.589 1187.7,-64.5926"/>
</g>
</g>
</svg>
        <g id="navigator" transform="translate(0 0)" fill="#404254">
                <rect fill="#f2f5e9" fill-opacity="0.5" stroke="#606060" stroke-width=".5" x="0" y="0" width="60" height="60"/>
                <use id="zoomplus" xlink:href="#zoomPlus" x="17" y="9" onmousedown="handleZoom(evt,'in')"/>
                <use id="zoomminus" xlink:href="#zoomMin" x="42" y="9" onmousedown="handleZoom(evt,'out')"/>
                <use id="reset" xlink:href="#resetDef" x="30" y="36" onmousedown="handleReset()"/>
                <g id="arrowUp" xlink:href="#dirArrow" transform="translate(30 24)" onmousedown="handlePan(0,-1)">
                  <use xlink:href="#rim" fill="#404040">
                        <set attributeName="fill" to="#808080" begin="arrowUp.mouseover" end="arrowUp.mouseout"/>
                  </use>
                  <path fill="none" stroke="white" stroke-width="1.5" d="M0,-3.0v7 M-2.5,-0.5L0,-3.0L2.5,-0.5"/>
                </g>
                <g id="arrowRight" xlink:href="#dirArrow" transform="rotate(90) translate(36 -43)" onmousedown="handlePan(1,0)">
                  <use xlink:href="#rim" fill="#404040">
                        <set attributeName="fill" to="#808080" begin="arrowRight.mouseover" end="arrowRight.mouseout"/>
                  </use>
                  <path fill="none" stroke="white" stroke-width="1.5" d="M0,-3.0v7 M-2.5,-0.5L0,-3.0L2.5,-0.5"/>
                </g>
                <g id="arrowDown" xlink:href="#dirArrow" transform="rotate(180) translate(-30 -48)" onmousedown="handlePan(0,1)">
                  <use xlink:href="#rim" fill="#404040">
                        <set attributeName="fill" to="#808080" begin="arrowDown.mouseover" end="arrowDown.mouseout"/>
                  </use>
                  <path fill="none" stroke="white" stroke-width="1.5" d="M0,-3.0v7 M-2.5,-0.5L0,-3.0L2.5,-0.5"/>
                </g>
                <g id="arrowLeft" xlink:href="#dirArrow" transform="rotate(270) translate(-36 17)" onmousedown="handlePan(-1,0)">
                  <use xlink:href="#rim" fill="#404040">
                        <set attributeName="fill" to="#808080" begin="arrowLeft.mouseover" end="arrowLeft.mouseout"/>
                  </use>
                  <path fill="none" stroke="white" stroke-width="1.5" d="M0,-3.0v7 M-2.5,-0.5L0,-3.0L2.5,-0.5"/>
                </g>
        </g>
        <svg viewBox="0 0 15 15" width="100%" height="30px" preserveAspectRatio="xMaxYMin meet">
         <g id="arrow_out" transform="scale(0.3 0.3)">
          <a xlink:href="_str_8h__dep__incl_org.svg" target="_base">
           <rect id="button" ry="5" rx="5" y="6" x="6" height="38" width="38"
                fill="#f2f5e9" fill-opacity="0.5" stroke="#606060" stroke-width="1.0"/>
           <path id="arrow"
             d="M 11.500037,31.436501 C 11.940474,20.09759 22.043105,11.32322 32.158766,21.979434 L 37.068811,17.246167 C 37.068811,17.246167 37.088388,32 37.088388,32 L 22.160133,31.978069 C 22.160133,31.978069 26.997745,27.140456 26.997745,27.140456 C 18.528582,18.264221 13.291696,25.230495 11.500037,31.436501 z"
             style="fill:#404040;"/>
          </a>
         </g>
        </svg>
</svg>
