<?xml version="1.0" encoding="UTF-8" standalone="no"?>
<!DOCTYPE svg PUBLIC "-//W3C//DTD SVG 1.1//EN"
 "http://www.w3.org/Graphics/SVG/1.1/DTD/svg11.dtd">
<!-- Generated by graphviz version 2.26.3 (20100126.1600)
 -->
<!-- Title: Str.h Pages: 1 -->
<svg width="2742pt" height="146pt"
 viewBox="0.00 0.00 2742.00 146.00" xmlns="http://www.w3.org/2000/svg" xmlns:xlink="http://www.w3.org/1999/xlink">
<g id="graph1" class="graph" transform="scale(1 1) rotate(0) translate(4 142)">
<title>Str.h</title>
<!-- Node1 -->
<g id="node1" class="node"><title>Node1</title>
<polygon fill="#bfbfbf" stroke="black" points="1401.5,-117 1401.5,-137 1438.5,-137 1438.5,-117 1401.5,-117"/>
<text text-anchor="middle" x="1420" y="-124" font-family="FreeSans" font-size="10.00">Str.h</text>
</g>
<!-- Node2 -->
<g id="node3" class="node"><title>Node2</title>
<a xlink:href="_client_app_8cpp.html" target="_top" xlink:title="ClientApp.cpp">
<polygon fill="none" stroke="black" points="-0.5,-59 -0.5,-79 76.5,-79 76.5,-59 -0.5,-59"/>
<text text-anchor="middle" x="38" y="-66" font-family="FreeSans" font-size="10.00">ClientApp.cpp</text>
</a>
</g>
<!-- Node1&#45;&gt;Node2 -->
<g id="edge2" class="edge"><title>Node1&#45;&gt;Node2</title>
<path fill="none" stroke="midnightblue" d="M1391.2,-126.749C1221.47,-125.156 350.15,-115.352 85,-80 82.2588,-79.6345 79.4433,-79.1805 76.6182,-78.6668"/>
<polygon fill="midnightblue" stroke="midnightblue" points="1391.32,-130.25 1401.35,-126.842 1391.38,-123.251 1391.32,-130.25"/>
</g>
<!-- Node3 -->
<g id="node5" class="node"><title>Node3</title>
<a xlink:href="main_8cpp.html" target="_top" xlink:title="main.cpp">
<polygon fill="none" stroke="black" points="94,-59 94,-79 150,-79 150,-59 94,-59"/>
<text text-anchor="middle" x="122" y="-66" font-family="FreeSans" font-size="10.00">main.cpp</text>
</a>
</g>
<!-- Node1&#45;&gt;Node3 -->
<g id="edge4" class="edge"><title>Node1&#45;&gt;Node3</title>
<path fill="none" stroke="midnightblue" d="M1390.72,-126.908C1225.38,-126.235 407.292,-120.863 159,-80 156.09,-79.5212 153.088,-78.882 150.111,-78.1517"/>
<polygon fill="midnightblue" stroke="midnightblue" points="1391.05,-130.409 1401.06,-126.947 1391.08,-123.409 1391.05,-130.409"/>
</g>
<!-- Node4 -->
<g id="node7" class="node"><title>Node4</title>
<a xlink:href="_media_res_8h.html" target="_top" xlink:title="MediaRes.h">
<polygon fill="none" stroke="black" points="168,-59 168,-79 236,-79 236,-59 168,-59"/>
<text text-anchor="middle" x="202" y="-66" font-family="FreeSans" font-size="10.00">MediaRes.h</text>
</a>
</g>
<!-- Node1&#45;&gt;Node4 -->
<g id="edge6" class="edge"><title>Node1&#45;&gt;Node4</title>
<path fill="none" stroke="midnightblue" d="M1390.77,-126.665C1232.42,-124.721 476.056,-113.79 245,-80 242.103,-79.5763 239.118,-79.036 236.136,-78.4231"/>
<polygon fill="midnightblue" stroke="midnightblue" points="1391.08,-130.168 1401.12,-126.789 1391.16,-123.169 1391.08,-130.168"/>
</g>
<!-- Node7 -->
<g id="node13" class="node"><title>Node7</title>
<a xlink:href="_rulebook_8cpp.html" target="_top" xlink:title="Rulebook.cpp">
<polygon fill="none" stroke="black" points="253.5,-59 253.5,-79 328.5,-79 328.5,-59 253.5,-59"/>
<text text-anchor="middle" x="291" y="-66" font-family="FreeSans" font-size="10.00">Rulebook.cpp</text>
</a>
</g>
<!-- Node1&#45;&gt;Node7 -->
<g id="edge12" class="edge"><title>Node1&#45;&gt;Node7</title>
<path fill="none" stroke="midnightblue" d="M1391.2,-126.496C1241.31,-123.761 549.288,-109.71 337,-80 334.235,-79.6131 331.393,-79.1349 328.544,-78.5965"/>
<polygon fill="midnightblue" stroke="midnightblue" points="1391.35,-130 1401.42,-126.68 1391.48,-123.001 1391.35,-130"/>
</g>
<!-- Node8 -->
<g id="node15" class="node"><title>Node8</title>
<a xlink:href="_rulebook_library_8cpp.html" target="_top" xlink:title="RulebookLibrary.cpp">
<polygon fill="none" stroke="black" points="346,-59 346,-79 450,-79 450,-59 346,-59"/>
<text text-anchor="middle" x="398" y="-66" font-family="FreeSans" font-size="10.00">RulebookLibrary.cpp</text>
</a>
</g>
<!-- Node1&#45;&gt;Node8 -->
<g id="edge14" class="edge"><title>Node1&#45;&gt;Node8</title>
<path fill="none" stroke="midnightblue" d="M1391.01,-126.09C1251.29,-121.625 646.44,-101.393 459,-80 456.113,-79.6705 453.157,-79.2882 450.178,-78.8678"/>
<polygon fill="midnightblue" stroke="midnightblue" points="1391.21,-129.598 1401.32,-126.418 1391.44,-122.602 1391.21,-129.598"/>
</g>
<!-- Node9 -->
<g id="node17" class="node"><title>Node9</title>
<a xlink:href="_debug_peer_8cpp.html" target="_top" xlink:title="DebugPeer.cpp">
<polygon fill="none" stroke="black" points="467.5,-59 467.5,-79 550.5,-79 550.5,-59 467.5,-59"/>
<text text-anchor="middle" x="509" y="-66" font-family="FreeSans" font-size="10.00">DebugPeer.cpp</text>
</a>
</g>
<!-- Node1&#45;&gt;Node9 -->
<g id="edge16" class="edge"><title>Node1&#45;&gt;Node9</title>
<path fill="none" stroke="midnightblue" d="M1391.14,-126.054C1260.68,-121.682 725.274,-102.676 559,-80 556.27,-79.6277 553.468,-79.1842 550.651,-78.6923"/>
<polygon fill="midnightblue" stroke="midnightblue" points="1391.05,-129.553 1401.16,-126.388 1391.28,-122.557 1391.05,-129.553"/>
</g>
<!-- Node10 -->
<g id="node19" class="node"><title>Node10</title>
<a xlink:href="_player_peer_8cpp.html" target="_top" xlink:title="PlayerPeer.cpp">
<polygon fill="none" stroke="black" points="568,-59 568,-79 650,-79 650,-59 568,-59"/>
<text text-anchor="middle" x="609" y="-66" font-family="FreeSans" font-size="10.00">PlayerPeer.cpp</text>
</a>
</g>
<!-- Node1&#45;&gt;Node10 -->
<g id="edge18" class="edge"><title>Node1&#45;&gt;Node10</title>
<path fill="none" stroke="midnightblue" d="M1391.32,-126.825C1290.43,-125.871 942.637,-119.715 659,-80 656.095,-79.5933 653.109,-79.1086 650.109,-78.5729"/>
<polygon fill="midnightblue" stroke="midnightblue" points="1391.32,-130.325 1401.35,-126.91 1391.38,-123.325 1391.32,-130.325"/>
</g>
<!-- Node11 -->
<g id="node21" class="node"><title>Node11</title>
<a xlink:href="_rulebook_env_8cpp.html" target="_top" xlink:title="RulebookEnv.cpp">
<polygon fill="none" stroke="black" points="668,-59 668,-79 760,-79 760,-59 668,-59"/>
<text text-anchor="middle" x="714" y="-66" font-family="FreeSans" font-size="10.00">RulebookEnv.cpp</text>
</a>
</g>
<!-- Node1&#45;&gt;Node11 -->
<g id="edge20" class="edge"><title>Node1&#45;&gt;Node11</title>
<path fill="none" stroke="midnightblue" d="M1391.12,-126.206C1299.6,-123.413 1008,-112.398 769,-80 766.105,-79.6076 763.133,-79.1561 760.143,-78.6647"/>
<polygon fill="midnightblue" stroke="midnightblue" points="1391.17,-129.709 1401.27,-126.506 1391.38,-122.712 1391.17,-129.709"/>
</g>
<!-- Node12 -->
<g id="node23" class="node"><title>Node12</title>
<a xlink:href="_runtime_env_8cpp.html" target="_top" xlink:title="RuntimeEnv.cpp">
<polygon fill="none" stroke="black" points="777.5,-59 777.5,-79 864.5,-79 864.5,-59 777.5,-59"/>
<text text-anchor="middle" x="821" y="-66" font-family="FreeSans" font-size="10.00">RuntimeEnv.cpp</text>
</a>
</g>
<!-- Node1&#45;&gt;Node12 -->
<g id="edge22" class="edge"><title>Node1&#45;&gt;Node12</title>
<path fill="none" stroke="midnightblue" d="M1391.01,-125.764C1309.22,-122.008 1069.76,-109.152 873,-80 870.262,-79.5943 867.451,-79.1326 864.623,-78.6336"/>
<polygon fill="midnightblue" stroke="midnightblue" points="1391.34,-129.283 1401.49,-126.235 1391.66,-122.29 1391.34,-129.283"/>
</g>
<!-- Node13 -->
<g id="node25" class="node"><title>Node13</title>
<a xlink:href="_style_env_8cpp.html" target="_top" xlink:title="StyleEnv.cpp">
<polygon fill="none" stroke="black" points="881.5,-59 881.5,-79 954.5,-79 954.5,-59 881.5,-59"/>
<text text-anchor="middle" x="918" y="-66" font-family="FreeSans" font-size="10.00">StyleEnv.cpp</text>
</a>
</g>
<!-- Node1&#45;&gt;Node13 -->
<g id="edge24" class="edge"><title>Node1&#45;&gt;Node13</title>
<path fill="none" stroke="midnightblue" d="M1390.97,-125.401C1318.38,-121.104 1123.35,-107.709 963,-80 960.305,-79.5344 957.533,-78.9984 954.751,-78.419"/>
<polygon fill="midnightblue" stroke="midnightblue" points="1390.97,-128.907 1401.16,-125.992 1391.37,-121.919 1390.97,-128.907"/>
</g>
<!-- Node14 -->
<g id="node27" class="node"><title>Node14</title>
<a xlink:href="_sys_env_8cpp.html" target="_top" xlink:title="SysEnv.cpp">
<polygon fill="none" stroke="black" points="972,-59 972,-79 1040,-79 1040,-59 972,-59"/>
<text text-anchor="middle" x="1006" y="-66" font-family="FreeSans" font-size="10.00">SysEnv.cpp</text>
</a>
</g>
<!-- Node1&#45;&gt;Node14 -->
<g id="edge26" class="edge"><title>Node1&#45;&gt;Node14</title>
<path fill="none" stroke="midnightblue" d="M1391.04,-124.569C1328.32,-119.031 1175.35,-104.067 1049,-80 1046.12,-79.4521 1043.15,-78.8245 1040.18,-78.1529"/>
<polygon fill="midnightblue" stroke="midnightblue" points="1391.08,-128.084 1401.34,-125.464 1391.68,-121.111 1391.08,-128.084"/>
</g>
<!-- Node15 -->
<g id="node29" class="node"><title>Node15</title>
<a xlink:href="_avatar_texture_res_8cpp.html" target="_top" xlink:title="AvatarTextureRes.cpp">
<polygon fill="none" stroke="black" points="1057.5,-59 1057.5,-79 1170.5,-79 1170.5,-59 1057.5,-59"/>
<text text-anchor="middle" x="1114" y="-66" font-family="FreeSans" font-size="10.00">AvatarTextureRes.cpp</text>
</a>
</g>
<!-- Node1&#45;&gt;Node15 -->
<g id="edge28" class="edge"><title>Node1&#45;&gt;Node15</title>
<path fill="none" stroke="midnightblue" d="M1391.27,-121.555C1340,-111.836 1232,-91.3669 1166.96,-79.0383"/>
<polygon fill="midnightblue" stroke="midnightblue" points="1390.84,-125.036 1401.32,-123.459 1392.15,-118.158 1390.84,-125.036"/>
</g>
<!-- Node16 -->
<g id="node31" class="node"><title>Node16</title>
<a xlink:href="_display_8cpp.html" target="_top" xlink:title="Display.cpp">
<polygon fill="none" stroke="black" points="1188,-59 1188,-79 1254,-79 1254,-59 1188,-59"/>
<text text-anchor="middle" x="1221" y="-66" font-family="FreeSans" font-size="10.00">Display.cpp</text>
</a>
</g>
<!-- Node1&#45;&gt;Node16 -->
<g id="edge30" class="edge"><title>Node1&#45;&gt;Node16</title>
<path fill="none" stroke="midnightblue" d="M1391.34,-118.648C1355.05,-108.07 1292.64,-89.8793 1254.28,-78.6987"/>
<polygon fill="midnightblue" stroke="midnightblue" points="1390.7,-122.105 1401.28,-121.544 1392.66,-115.385 1390.7,-122.105"/>
</g>
<!-- Node17 -->
<g id="node33" class="node"><title>Node17</title>
<a xlink:href="_sdl_display_8cpp.html" target="_top" xlink:title="SdlDisplay.cpp">
<polygon fill="none" stroke="black" points="1272,-59 1272,-79 1352,-79 1352,-59 1272,-59"/>
<text text-anchor="middle" x="1312" y="-66" font-family="FreeSans" font-size="10.00">SdlDisplay.cpp</text>
</a>
</g>
<!-- Node1&#45;&gt;Node17 -->
<g id="edge32" class="edge"><title>Node1&#45;&gt;Node17</title>
<path fill="none" stroke="midnightblue" d="M1392.28,-112.114C1373.05,-101.786 1347.94,-88.2996 1330.96,-79.1817"/>
<polygon fill="midnightblue" stroke="midnightblue" points="1390.72,-115.249 1401.19,-116.897 1394.03,-109.082 1390.72,-115.249"/>
</g>
<!-- Node18 -->
<g id="node35" class="node"><title>Node18</title>
<a xlink:href="_sdl_surface_text_8cpp.html" target="_top" xlink:title="SdlSurfaceText.cpp">
<polygon fill="none" stroke="black" points="1369.5,-59 1369.5,-79 1470.5,-79 1470.5,-59 1369.5,-59"/>
<text text-anchor="middle" x="1420" y="-66" font-family="FreeSans" font-size="10.00">SdlSurfaceText.cpp</text>
</a>
</g>
<!-- Node1&#45;&gt;Node18 -->
<g id="edge34" class="edge"><title>Node1&#45;&gt;Node18</title>
<path fill="none" stroke="midnightblue" d="M1420,-106.89C1420,-97.6201 1420,-87.0083 1420,-79.3776"/>
<polygon fill="midnightblue" stroke="midnightblue" points="1416.5,-106.897 1420,-116.897 1423.5,-106.897 1416.5,-106.897"/>
</g>
<!-- Node19 -->
<g id="node37" class="node"><title>Node19</title>
<a xlink:href="_sdl_symbol_icon_view_8cpp.html" target="_top" xlink:title="SdlSymbolIconView.cpp">
<polygon fill="none" stroke="black" points="1488,-59 1488,-79 1610,-79 1610,-59 1488,-59"/>
<text text-anchor="middle" x="1549" y="-66" font-family="FreeSans" font-size="10.00">SdlSymbolIconView.cpp</text>
</a>
</g>
<!-- Node1&#45;&gt;Node19 -->
<g id="edge36" class="edge"><title>Node1&#45;&gt;Node19</title>
<path fill="none" stroke="midnightblue" d="M1447.9,-114.454C1471.52,-103.837 1504.91,-88.8236 1526.75,-79.002"/>
<polygon fill="midnightblue" stroke="midnightblue" points="1446.44,-111.273 1438.76,-118.566 1449.31,-117.658 1446.44,-111.273"/>
</g>
<!-- Node20 -->
<g id="node39" class="node"><title>Node20</title>
<a xlink:href="_track_compiler_8cpp.html" target="_top" xlink:title="TrackCompiler.cpp">
<polygon fill="none" stroke="black" points="1628,-59 1628,-79 1726,-79 1726,-59 1628,-59"/>
<text text-anchor="middle" x="1677" y="-66" font-family="FreeSans" font-size="10.00">TrackCompiler.cpp</text>
</a>
</g>
<!-- Node1&#45;&gt;Node20 -->
<g id="edge38" class="edge"><title>Node1&#45;&gt;Node20</title>
<path fill="none" stroke="midnightblue" d="M1448.78,-120.504C1493.38,-110.44 1579.52,-91.0002 1632.27,-79.0948"/>
<polygon fill="midnightblue" stroke="midnightblue" points="1447.88,-117.119 1438.9,-122.735 1449.42,-123.948 1447.88,-117.119"/>
</g>
<!-- Node21 -->
<g id="node41" class="node"><title>Node21</title>
<a xlink:href="_track_list_8cpp.html" target="_top" xlink:title="TrackList.cpp">
<polygon fill="none" stroke="black" points="1744,-59 1744,-79 1820,-79 1820,-59 1744,-59"/>
<text text-anchor="middle" x="1782" y="-66" font-family="FreeSans" font-size="10.00">TrackList.cpp</text>
</a>
</g>
<!-- Node1&#45;&gt;Node21 -->
<g id="edge40" class="edge"><title>Node1&#45;&gt;Node21</title>
<path fill="none" stroke="midnightblue" d="M1448.69,-123.518C1504.21,-116.604 1630.12,-100.063 1735,-80 1737.88,-79.4489 1740.85,-78.8429 1743.84,-78.2073"/>
<polygon fill="midnightblue" stroke="midnightblue" points="1448.05,-120.071 1438.55,-124.771 1448.91,-127.018 1448.05,-120.071"/>
</g>
<!-- Node22 -->
<g id="node43" class="node"><title>Node22</title>
<a xlink:href="_bundle_8cpp.html" target="_top" xlink:title="Bundle.cpp">
<polygon fill="none" stroke="black" points="1837.5,-59 1837.5,-79 1902.5,-79 1902.5,-59 1837.5,-59"/>
<text text-anchor="middle" x="1870" y="-66" font-family="FreeSans" font-size="10.00">Bundle.cpp</text>
</a>
</g>
<!-- Node1&#45;&gt;Node22 -->
<g id="edge42" class="edge"><title>Node1&#45;&gt;Node22</title>
<path fill="none" stroke="midnightblue" d="M1449.16,-125.135C1516.53,-120.503 1688,-106.863 1829,-80 1831.75,-79.4759 1834.59,-78.865 1837.43,-78.2046"/>
<polygon fill="midnightblue" stroke="midnightblue" points="1448.64,-121.662 1438.9,-125.825 1449.11,-128.646 1448.64,-121.662"/>
</g>
<!-- Node23 -->
<g id="node45" class="node"><title>Node23</title>
<a xlink:href="_classic_record_file_8cpp.html" target="_top" xlink:title="ClassicRecordFile.cpp">
<polygon fill="none" stroke="black" points="1919.5,-59 1919.5,-79 2032.5,-79 2032.5,-59 1919.5,-59"/>
<text text-anchor="middle" x="1976" y="-66" font-family="FreeSans" font-size="10.00">ClassicRecordFile.cpp</text>
</a>
</g>
<!-- Node1&#45;&gt;Node23 -->
<g id="edge44" class="edge"><title>Node1&#45;&gt;Node23</title>
<path fill="none" stroke="midnightblue" d="M1449,-124.959C1525.01,-119.452 1736.23,-103.123 1911,-80 1913.72,-79.6397 1916.51,-79.2503 1919.32,-78.8404"/>
<polygon fill="midnightblue" stroke="midnightblue" points="1448.51,-121.485 1438.79,-125.693 1449.01,-128.467 1448.51,-121.485"/>
</g>
<!-- Node24 -->
<g id="node47" class="node"><title>Node24</title>
<a xlink:href="_obj_stream_8cpp.html" target="_top" xlink:title="ObjStream.cpp">
<polygon fill="none" stroke="black" points="2049.5,-59 2049.5,-79 2130.5,-79 2130.5,-59 2049.5,-59"/>
<text text-anchor="middle" x="2090" y="-66" font-family="FreeSans" font-size="10.00">ObjStream.cpp</text>
</a>
</g>
<!-- Node1&#45;&gt;Node24 -->
<g id="edge46" class="edge"><title>Node1&#45;&gt;Node24</title>
<path fill="none" stroke="midnightblue" d="M1448.75,-126.308C1537.43,-123.857 1814.39,-113.828 2041,-80 2043.76,-79.5881 2046.59,-79.1073 2049.44,-78.5812"/>
<polygon fill="midnightblue" stroke="midnightblue" points="1448.56,-122.812 1438.65,-126.576 1448.74,-129.809 1448.56,-122.812"/>
</g>
<!-- Node25 -->
<g id="node49" class="node"><title>Node25</title>
<a xlink:href="_core_8cpp.html" target="_top" xlink:title="Core.cpp">
<polygon fill="none" stroke="black" points="2147.5,-59 2147.5,-79 2202.5,-79 2202.5,-59 2147.5,-59"/>
<text text-anchor="middle" x="2175" y="-66" font-family="FreeSans" font-size="10.00">Core.cpp</text>
</a>
</g>
<!-- Node1&#45;&gt;Node25 -->
<g id="edge48" class="edge"><title>Node1&#45;&gt;Node25</title>
<path fill="none" stroke="midnightblue" d="M1448.83,-126.006C1565.52,-121.846 2002.96,-104.884 2139,-80 2141.7,-79.5061 2144.48,-78.8782 2147.25,-78.1736"/>
<polygon fill="midnightblue" stroke="midnightblue" points="1448.43,-122.518 1438.56,-126.368 1448.68,-129.513 1448.43,-122.518"/>
</g>
<!-- Node26 -->
<g id="node51" class="node"><title>Node26</title>
<a xlink:href="_env_8cpp.html" target="_top" xlink:title="Env.cpp">
<polygon fill="none" stroke="black" points="2219.5,-59 2219.5,-79 2270.5,-79 2270.5,-59 2219.5,-59"/>
<text text-anchor="middle" x="2245" y="-66" font-family="FreeSans" font-size="10.00">Env.cpp</text>
</a>
</g>
<!-- Node1&#45;&gt;Node26 -->
<g id="edge50" class="edge"><title>Node1&#45;&gt;Node26</title>
<path fill="none" stroke="midnightblue" d="M1448.9,-126.263C1572.9,-122.953 2060.41,-108.356 2211,-80 2213.68,-79.4949 2216.45,-78.8384 2219.19,-78.0976"/>
<polygon fill="midnightblue" stroke="midnightblue" points="1448.59,-122.77 1438.69,-126.532 1448.77,-129.768 1448.59,-122.77"/>
</g>
<!-- Node27 -->
<g id="node53" class="node"><title>Node27</title>
<a xlink:href="_config_8cpp.html" target="_top" xlink:title="Config.cpp">
<polygon fill="none" stroke="black" points="2288,-59 2288,-79 2350,-79 2350,-59 2288,-59"/>
<text text-anchor="middle" x="2319" y="-66" font-family="FreeSans" font-size="10.00">Config.cpp</text>
</a>
</g>
<!-- Node1&#45;&gt;Node27 -->
<g id="edge52" class="edge"><title>Node1&#45;&gt;Node27</title>
<path fill="none" stroke="midnightblue" d="M1448.83,-126.251C1579.11,-122.737 2113.75,-106.924 2279,-80 2281.84,-79.5367 2284.77,-78.9497 2287.7,-78.2888"/>
<polygon fill="midnightblue" stroke="midnightblue" points="1448.72,-122.752 1438.81,-126.518 1448.9,-129.75 1448.72,-122.752"/>
</g>
<!-- Node28 -->
<g id="node55" class="node"><title>Node28</title>
<a xlink:href="_log_8cpp.html" target="_top" xlink:title="Log.cpp">
<polygon fill="none" stroke="black" points="2367.5,-59 2367.5,-79 2418.5,-79 2418.5,-59 2367.5,-59"/>
<text text-anchor="middle" x="2393" y="-66" font-family="FreeSans" font-size="10.00">Log.cpp</text>
</a>
</g>
<!-- Node1&#45;&gt;Node28 -->
<g id="edge54" class="edge"><title>Node1&#45;&gt;Node28</title>
<path fill="none" stroke="midnightblue" d="M1448.85,-126.576C1586.55,-124.395 2177.87,-113.232 2359,-80 2361.68,-79.5074 2364.45,-78.8591 2367.19,-78.1233"/>
<polygon fill="midnightblue" stroke="midnightblue" points="1448.62,-123.079 1438.67,-126.734 1448.73,-130.078 1448.62,-123.079"/>
</g>
<!-- Node29 -->
<g id="node57" class="node"><title>Node29</title>
<a xlink:href="_o_s_8cpp.html" target="_top" xlink:title="OS.cpp">
<polygon fill="none" stroke="black" points="2435.5,-59 2435.5,-79 2484.5,-79 2484.5,-59 2435.5,-59"/>
<text text-anchor="middle" x="2460" y="-66" font-family="FreeSans" font-size="10.00">OS.cpp</text>
</a>
</g>
<!-- Node1&#45;&gt;Node29 -->
<g id="edge56" class="edge"><title>Node1&#45;&gt;Node29</title>
<path fill="none" stroke="midnightblue" d="M1449.09,-126.72C1593.26,-125.166 2232.06,-116.318 2427,-80 2429.73,-79.4912 2432.55,-78.8101 2435.33,-78.035"/>
<polygon fill="midnightblue" stroke="midnightblue" points="1448.81,-123.222 1438.84,-126.827 1448.88,-130.222 1448.81,-123.222"/>
</g>
<!-- Node30 -->
<g id="node59" class="node"><title>Node30</title>
<a xlink:href="_str_8cpp.html" target="_top" xlink:title="Str.cpp">
<polygon fill="none" stroke="black" points="2501.5,-59 2501.5,-79 2548.5,-79 2548.5,-59 2501.5,-59"/>
<text text-anchor="middle" x="2525" y="-66" font-family="FreeSans" font-size="10.00">Str.cpp</text>
</a>
</g>
<!-- Node1&#45;&gt;Node30 -->
<g id="edge58" class="edge"><title>Node1&#45;&gt;Node30</title>
<path fill="none" stroke="midnightblue" d="M1449.08,-126.852C1598.88,-125.921 2284.56,-119.533 2493,-80 2495.77,-79.4746 2498.63,-78.7594 2501.44,-77.9442"/>
<polygon fill="midnightblue" stroke="midnightblue" points="1448.83,-123.354 1438.85,-126.912 1448.87,-130.354 1448.83,-123.354"/>
</g>
<!-- Node31 -->
<g id="node61" class="node"><title>Node31</title>
<a xlink:href="_emitter_8cpp.html" target="_top" xlink:title="Emitter.cpp">
<polygon fill="none" stroke="black" points="2565.5,-59 2565.5,-79 2630.5,-79 2630.5,-59 2565.5,-59"/>
<text text-anchor="middle" x="2598" y="-66" font-family="FreeSans" font-size="10.00">Emitter.cpp</text>
</a>
</g>
<!-- Node1&#45;&gt;Node31 -->
<g id="edge60" class="edge"><title>Node1&#45;&gt;Node31</title>
<path fill="none" stroke="midnightblue" d="M1448.79,-126.671C1603.12,-124.775 2333.86,-114.116 2557,-80 2559.77,-79.5767 2562.62,-79.0368 2565.46,-78.4241"/>
<polygon fill="midnightblue" stroke="midnightblue" points="1448.64,-123.172 1438.69,-126.792 1448.73,-130.172 1448.64,-123.172"/>
</g>
<!-- Node32 -->
<g id="node63" class="node"><title>Node32</title>
<a xlink:href="_scalar_node_8cpp.html" target="_top" xlink:title="ScalarNode.cpp">
<polygon fill="none" stroke="black" points="2648,-59 2648,-79 2734,-79 2734,-59 2648,-59"/>
<text text-anchor="middle" x="2691" y="-66" font-family="FreeSans" font-size="10.00">ScalarNode.cpp</text>
</a>
</g>
<!-- Node1&#45;&gt;Node32 -->
<g id="edge62" class="edge"><title>Node1&#45;&gt;Node32</title>
<path fill="none" stroke="midnightblue" d="M1448.78,-126.555C1609.53,-123.968 2397.85,-109.935 2639,-80 2641.93,-79.6362 2644.94,-79.1916 2647.96,-78.6919"/>
<polygon fill="midnightblue" stroke="midnightblue" points="1448.65,-123.057 1438.7,-126.715 1448.76,-130.056 1448.65,-123.057"/>
</g>
<!-- Node5 -->
<g id="node9" class="node"><title>Node5</title>
<a xlink:href="_practice_setup_scene_8cpp.html" target="_top" xlink:title="PracticeSetupScene.cpp">
<polygon fill="none" stroke="black" points="75,-1 75,-21 199,-21 199,-1 75,-1"/>
<text text-anchor="middle" x="137" y="-8" font-family="FreeSans" font-size="10.00">PracticeSetupScene.cpp</text>
</a>
</g>
<!-- Node4&#45;&gt;Node5 -->
<g id="edge8" class="edge"><title>Node4&#45;&gt;Node5</title>
<path fill="none" stroke="midnightblue" d="M183.117,-52.1504C171.966,-42.2003 158.204,-29.9207 148.63,-21.3776"/>
<polygon fill="midnightblue" stroke="midnightblue" points="180.886,-54.8508 190.678,-58.8972 185.547,-49.6278 180.886,-54.8508"/>
</g>
<!-- Node6 -->
<g id="node11" class="node"><title>Node6</title>
<a xlink:href="_test_lab_scene_8cpp.html" target="_top" xlink:title="TestLabScene.cpp">
<polygon fill="none" stroke="black" points="217,-1 217,-21 315,-21 315,-1 217,-1"/>
<text text-anchor="middle" x="266" y="-8" font-family="FreeSans" font-size="10.00">TestLabScene.cpp</text>
</a>
</g>
<!-- Node4&#45;&gt;Node6 -->
<g id="edge10" class="edge"><title>Node4&#45;&gt;Node6</title>
<path fill="none" stroke="midnightblue" d="M220.593,-52.1504C231.572,-42.2003 245.122,-29.9207 254.549,-21.3776"/>
<polygon fill="midnightblue" stroke="midnightblue" points="218.208,-49.5885 213.148,-58.8972 222.908,-54.7754 218.208,-49.5885"/>
</g>
</g>
</svg>
