<?xml version="1.0" encoding="UTF-8" standalone="no"?>
<!DOCTYPE svg PUBLIC "-//W3C//DTD SVG 1.1//EN"
 "http://www.w3.org/Graphics/SVG/1.1/DTD/svg11.dtd">
<!-- Generated by graphviz version 2.38.0 (20140413.2041)
 -->
<!-- Title: Symbol.h Pages: 1 -->
<svg width="619pt" height="84pt"
 viewBox="0.00 0.00 618.50 84.00" xmlns="http://www.w3.org/2000/svg" xmlns:xlink="http://www.w3.org/1999/xlink">
<g id="graph0" class="graph" transform="scale(1 1) rotate(0) translate(4 80)">
<title>Symbol.h</title>
<!-- Node1 -->
<g id="node1" class="node"><title>Node1</title>
<polygon fill="#bfbfbf" stroke="black" points="305,-56.5 305,-75.5 363,-75.5 363,-56.5 305,-56.5"/>
<text text-anchor="middle" x="334" y="-63.5" font-family="Helvetica,sans-Serif" font-size="10.00">Symbol.h</text>
</g>
<!-- Node2 -->
<g id="node2" class="node"><title>Node2</title>
<g id="a_node2"><a xlink:href="_message_announcement_8cpp.html" target="_top" xlink:title="MessageAnnouncement.cpp">
<polygon fill="none" stroke="black" points="0,-0.5 0,-19.5 140,-19.5 140,-0.5 0,-0.5"/>
<text text-anchor="middle" x="70" y="-7.5" font-family="Helvetica,sans-Serif" font-size="10.00">MessageAnnouncement.cpp</text>
</a>
</g>
</g>
<!-- Node1&#45;&gt;Node2 -->
<g id="edge1" class="edge"><title>Node1&#45;&gt;Node2</title>
<path fill="none" stroke="midnightblue" d="M295.073,-57.0376C245.984,-46.9967 161.934,-29.8047 111.61,-19.5111"/>
<polygon fill="midnightblue" stroke="midnightblue" points="294.494,-60.4915 304.992,-59.0666 295.896,-53.6335 294.494,-60.4915"/>
</g>
<!-- Node3 -->
<g id="node3" class="node"><title>Node3</title>
<g id="a_node3"><a xlink:href="_checkbox_8cpp.html" target="_top" xlink:title="Checkbox.cpp">
<polygon fill="none" stroke="black" points="158,-0.5 158,-19.5 238,-19.5 238,-0.5 158,-0.5"/>
<text text-anchor="middle" x="198" y="-7.5" font-family="Helvetica,sans-Serif" font-size="10.00">Checkbox.cpp</text>
</a>
</g>
</g>
<!-- Node1&#45;&gt;Node3 -->
<g id="edge2" class="edge"><title>Node1&#45;&gt;Node3</title>
<path fill="none" stroke="midnightblue" d="M302.865,-52.6377C277.343,-42.504 241.891,-28.4274 219.449,-19.5164"/>
<polygon fill="midnightblue" stroke="midnightblue" points="301.865,-56.0061 312.45,-56.4435 304.448,-49.5002 301.865,-56.0061"/>
</g>
<!-- Node4 -->
<g id="node4" class="node"><title>Node4</title>
<g id="a_node4"><a xlink:href="_display_8cpp.html" target="_top" xlink:title="Display.cpp">
<polygon fill="none" stroke="black" points="256,-0.5 256,-19.5 324,-19.5 324,-0.5 256,-0.5"/>
<text text-anchor="middle" x="290" y="-7.5" font-family="Helvetica,sans-Serif" font-size="10.00">Display.cpp</text>
</a>
</g>
</g>
<!-- Node1&#45;&gt;Node4 -->
<g id="edge3" class="edge"><title>Node1&#45;&gt;Node4</title>
<path fill="none" stroke="midnightblue" d="M320.265,-48.144C312.599,-38.7357 303.367,-27.4046 297.131,-19.7511"/>
<polygon fill="midnightblue" stroke="midnightblue" points="317.704,-50.5415 326.734,-56.083 323.131,-46.1198 317.704,-50.5415"/>
</g>
<!-- Node5 -->
<g id="node5" class="node"><title>Node5</title>
<g id="a_node5"><a xlink:href="_minimap_8cpp.html" target="_top" xlink:title="Minimap.cpp">
<polygon fill="none" stroke="black" points="342,-0.5 342,-19.5 414,-19.5 414,-0.5 342,-0.5"/>
<text text-anchor="middle" x="378" y="-7.5" font-family="Helvetica,sans-Serif" font-size="10.00">Minimap.cpp</text>
</a>
</g>
</g>
<!-- Node1&#45;&gt;Node5 -->
<g id="edge4" class="edge"><title>Node1&#45;&gt;Node5</title>
<path fill="none" stroke="midnightblue" d="M347.735,-48.144C355.401,-38.7357 364.633,-27.4046 370.869,-19.7511"/>
<polygon fill="midnightblue" stroke="midnightblue" points="344.869,-46.1198 341.266,-56.083 350.296,-50.5415 344.869,-46.1198"/>
</g>
<!-- Node6 -->
<g id="node6" class="node"><title>Node6</title>
<g id="a_node6"><a xlink:href="_pick_list_8cpp.html" target="_top" xlink:title="PickList.cpp">
<polygon fill="none" stroke="black" points="432.5,-0.5 432.5,-19.5 503.5,-19.5 503.5,-0.5 432.5,-0.5"/>
<text text-anchor="middle" x="468" y="-7.5" font-family="Helvetica,sans-Serif" font-size="10.00">PickList.cpp</text>
</a>
</g>
</g>
<!-- Node1&#45;&gt;Node6 -->
<g id="edge5" class="edge"><title>Node1&#45;&gt;Node6</title>
<path fill="none" stroke="midnightblue" d="M364.677,-52.6377C389.823,-42.504 424.754,-28.4274 446.867,-19.5164"/>
<polygon fill="midnightblue" stroke="midnightblue" points="363.2,-49.4594 355.233,-56.4435 365.816,-55.952 363.2,-49.4594"/>
</g>
<!-- Node7 -->
<g id="node7" class="node"><title>Node7</title>
<g id="a_node7"><a xlink:href="_radio_button_8cpp.html" target="_top" xlink:title="RadioButton.cpp">
<polygon fill="none" stroke="black" points="521.5,-0.5 521.5,-19.5 610.5,-19.5 610.5,-0.5 521.5,-0.5"/>
<text text-anchor="middle" x="566" y="-7.5" font-family="Helvetica,sans-Serif" font-size="10.00">RadioButton.cpp</text>
</a>
</g>
</g>
<!-- Node1&#45;&gt;Node7 -->
<g id="edge6" class="edge"><title>Node1&#45;&gt;Node7</title>
<path fill="none" stroke="midnightblue" d="M373.336,-55.8443C416.929,-45.6975 486.68,-29.4623 529.219,-19.5611"/>
<polygon fill="midnightblue" stroke="midnightblue" points="372.329,-52.4849 363.383,-58.1609 373.916,-59.3027 372.329,-52.4849"/>
</g>
</g>
</svg>
