<?xml version="1.0" encoding="UTF-8" standalone="no"?>
<!DOCTYPE svg PUBLIC "-//W3C//DTD SVG 1.1//EN"
 "http://www.w3.org/Graphics/SVG/1.1/DTD/svg11.dtd">
<!-- Generated by graphviz version 2.26.3 (20100126.1600)
 -->
<!-- Title: SymbolIcon.cpp Pages: 1 -->
<!--zoomable 552 -->
<svg id="main" version="1.1" xmlns="http://www.w3.org/2000/svg" xmlns:xlink="http://www.w3.org/1999/xlink" xml:space="preserve" onload="init(evt)">
<style type="text/css"><![CDATA[
.edge:hover path { stroke: red; }
.edge:hover polygon { stroke: red; fill: red; }
]]></style>
<script type="text/javascript"><![CDATA[
var edges = document.getElementsByTagName('g');
if (edges && edges.length) {
  for (var i=0;i<edges.length;i++) {
    if (edges[i].id.substr(0,4)=='edge') {
      edges[i].setAttribute('class','edge');
    }
  }
}
]]></script>
        <defs>
                <circle id="rim" cx="0" cy="0" r="7"/>
                <circle id="rim2" cx="0" cy="0" r="3.5"/>
                <g id="zoomPlus">
                        <use xlink:href="#rim" fill="#404040">
                                <set attributeName="fill" to="#808080" begin="zoomplus.mouseover" end="zoomplus.mouseout"/>
                        </use>
                        <path d="M-4,0h8M0,-4v8" fill="none" stroke="white" stroke-width="1.5" pointer-events="none"/>
                </g>
                <g id="zoomMin">
                        <use xlink:href="#rim" fill="#404040">
                                <set attributeName="fill" to="#808080" begin="zoomminus.mouseover" end="zoomminus.mouseout"/>
                        </use>
                        <path d="M-4,0h8" fill="none" stroke="white" stroke-width="1.5" pointer-events="none"/>
                </g>
                <g id="dirArrow">
                        <path fill="none" stroke="white" stroke-width="1.5" d="M0,-3.0v7 M-2.5,-0.5L0,-3.0L2.5,-0.5"/>
                </g>
               <g id="resetDef">
                       <use xlink:href="#rim2" fill="#404040">
                               <set attributeName="fill" to="#808080" begin="reset.mouseover" end="reset.mouseout"/>
                       </use>
               </g>
        </defs>

<script type="text/javascript">
var viewWidth = 443;
var viewHeight = 552;
var sectionId = 'dynsection-0';
</script>
<script xlink:href="svgpan.js"/>
<svg id="graph" class="graph">
<g id="viewport">
<title>SymbolIcon.cpp</title>
<!-- Node1 -->
<g id="node1" class="node"><title>Node1</title>
<polygon fill="#bfbfbf" stroke="black" points="106,-523 106,-543 192,-543 192,-523 106,-523"/>
<text text-anchor="middle" x="149" y="-530" font-family="FreeSans" font-size="10.00">SymbolIcon.cpp</text>
</g>
<!-- Node2 -->
<g id="node3" class="node"><title>Node2</title>
<a xlink:href="_log_8h.html" target="_top" xlink:title="../Util/Log.h">
<polygon fill="none" stroke="black" points="72,-465 72,-485 138,-485 138,-465 72,-465"/>
<text text-anchor="middle" x="105" y="-472" font-family="FreeSans" font-size="10.00">../Util/Log.h</text>
</a>
</g>
<!-- Node1&#45;&gt;Node2 -->
<g id="edge2" class="edge"><title>Node1&#45;&gt;Node2</title>
<path fill="none" stroke="midnightblue" d="M141.336,-522.897C135.166,-514.764 126.331,-503.118 118.918,-493.347"/>
<polygon fill="midnightblue" stroke="midnightblue" points="121.705,-491.229 112.873,-485.378 116.128,-495.46 121.705,-491.229"/>
</g>
<!-- Node4 -->
<g id="node7" class="node"><title>Node4</title>
<a xlink:href="_symbol_icon_8h.html" target="_top" xlink:title="SymbolIcon.h">
<polygon fill="none" stroke="black" points="156.5,-465 156.5,-485 231.5,-485 231.5,-465 156.5,-465"/>
<text text-anchor="middle" x="194" y="-472" font-family="FreeSans" font-size="10.00">SymbolIcon.h</text>
</a>
</g>
<!-- Node1&#45;&gt;Node4 -->
<g id="edge6" class="edge"><title>Node1&#45;&gt;Node4</title>
<path fill="none" stroke="midnightblue" d="M156.838,-522.897C163.149,-514.764 172.184,-503.118 179.765,-493.347"/>
<polygon fill="midnightblue" stroke="midnightblue" points="182.584,-495.424 185.948,-485.378 177.053,-491.133 182.584,-495.424"/>
</g>
<!-- Node3 -->
<g id="node5" class="node"><title>Node3</title>
<polygon fill="none" stroke="#bfbfbf" points="51.5,-407 51.5,-427 152.5,-427 152.5,-407 51.5,-407"/>
<text text-anchor="middle" x="102" y="-414" font-family="FreeSans" font-size="10.00">boost/log/trivial.hpp</text>
</g>
<!-- Node2&#45;&gt;Node3 -->
<g id="edge4" class="edge"><title>Node2&#45;&gt;Node3</title>
<path fill="none" stroke="midnightblue" d="M104.477,-464.897C104.087,-457.339 103.539,-446.748 103.058,-437.446"/>
<polygon fill="midnightblue" stroke="midnightblue" points="106.549,-437.183 102.537,-427.378 99.5581,-437.545 106.549,-437.183"/>
</g>
<!-- Node5 -->
<g id="node9" class="node"><title>Node5</title>
<a xlink:href="_fill_box_8h.html" target="_top" xlink:title="FillBox.h">
<polygon fill="none" stroke="black" points="169.5,-407 169.5,-427 222.5,-427 222.5,-407 169.5,-407"/>
<text text-anchor="middle" x="196" y="-414" font-family="FreeSans" font-size="10.00">FillBox.h</text>
</a>
</g>
<!-- Node4&#45;&gt;Node5 -->
<g id="edge8" class="edge"><title>Node4&#45;&gt;Node5</title>
<path fill="none" stroke="midnightblue" d="M194.348,-464.897C194.609,-457.339 194.974,-446.748 195.295,-437.446"/>
<polygon fill="midnightblue" stroke="midnightblue" points="198.795,-437.492 195.642,-427.378 191.8,-437.251 198.795,-437.492"/>
</g>
<!-- Node6 -->
<g id="node11" class="node"><title>Node6</title>
<a xlink:href="_color_8h.html" target="_top" xlink:title="Color.h">
<polygon fill="none" stroke="black" points="20.5,-175 20.5,-195 67.5,-195 67.5,-175 20.5,-175"/>
<text text-anchor="middle" x="44" y="-182" font-family="FreeSans" font-size="10.00">Color.h</text>
</a>
</g>
<!-- Node5&#45;&gt;Node6 -->
<g id="edge10" class="edge"><title>Node5&#45;&gt;Node6</title>
<path fill="none" stroke="midnightblue" d="M187.715,-406.875C172.827,-388.491 140.875,-348.176 117,-312 92.5138,-274.898 67.4322,-229.253 53.9841,-204.029"/>
<polygon fill="midnightblue" stroke="midnightblue" points="57.0453,-202.331 49.2723,-195.131 50.8591,-205.607 57.0453,-202.331"/>
</g>
<!-- Node11 -->
<g id="node22" class="node"><title>Node11</title>
<a xlink:href="_ui_view_model_8h.html" target="_top" xlink:title="UiViewModel.h">
<polygon fill="none" stroke="black" points="250,-349 250,-369 332,-369 332,-349 250,-349"/>
<text text-anchor="middle" x="291" y="-356" font-family="FreeSans" font-size="10.00">UiViewModel.h</text>
</a>
</g>
<!-- Node5&#45;&gt;Node11 -->
<g id="edge22" class="edge"><title>Node5&#45;&gt;Node11</title>
<path fill="none" stroke="midnightblue" d="M212.548,-406.897C227.17,-397.97 248.724,-384.811 265.541,-374.543"/>
<polygon fill="midnightblue" stroke="midnightblue" points="267.612,-377.38 274.323,-369.182 263.964,-371.405 267.612,-377.38"/>
</g>
<!-- Node7 -->
<g id="node13" class="node"><title>Node7</title>
<polygon fill="none" stroke="#bfbfbf" points="-0.5,-117 -0.5,-137 88.5,-137 88.5,-117 -0.5,-117"/>
<text text-anchor="middle" x="44" y="-124" font-family="FreeSans" font-size="10.00">boost/format.hpp</text>
</g>
<!-- Node6&#45;&gt;Node7 -->
<g id="edge12" class="edge"><title>Node6&#45;&gt;Node7</title>
<path fill="none" stroke="midnightblue" d="M44,-174.897C44,-167.339 44,-156.748 44,-147.446"/>
<polygon fill="midnightblue" stroke="midnightblue" points="47.5001,-147.378 44,-137.378 40.5001,-147.378 47.5001,-147.378"/>
</g>
<!-- Node8 -->
<g id="node15" class="node"><title>Node8</title>
<a xlink:href="_m_r___types_8h.html" target="_top" xlink:title="../Util/MR_Types.h">
<polygon fill="none" stroke="black" points="218,-59 218,-79 314,-79 314,-59 218,-59"/>
<text text-anchor="middle" x="266" y="-66" font-family="FreeSans" font-size="10.00">../Util/MR_Types.h</text>
</a>
</g>
<!-- Node6&#45;&gt;Node8 -->
<g id="edge14" class="edge"><title>Node6&#45;&gt;Node8</title>
<path fill="none" stroke="midnightblue" d="M60.1141,-174.85C82.5575,-160.883 124.68,-135.277 162,-116 185.1,-104.068 211.843,-92.0198 232.425,-83.1093"/>
<polygon fill="midnightblue" stroke="midnightblue" points="233.895,-86.2873 241.702,-79.1248 231.132,-79.8555 233.895,-86.2873"/>
</g>
<!-- Node10 -->
<g id="node19" class="node"><title>Node10</title>
<a xlink:href="_sel_fmt_8h.html" target="_top" xlink:title="../Util/SelFmt.h">
<polygon fill="none" stroke="black" points="170.5,-117 170.5,-137 251.5,-137 251.5,-117 170.5,-117"/>
<text text-anchor="middle" x="211" y="-124" font-family="FreeSans" font-size="10.00">../Util/SelFmt.h</text>
</a>
</g>
<!-- Node6&#45;&gt;Node10 -->
<g id="edge18" class="edge"><title>Node6&#45;&gt;Node10</title>
<path fill="none" stroke="midnightblue" d="M67.5728,-176.813C94.7873,-167.361 139.952,-151.675 172.332,-140.43"/>
<polygon fill="midnightblue" stroke="midnightblue" points="173.638,-143.681 181.936,-137.094 171.341,-137.069 173.638,-143.681"/>
</g>
<!-- Node9 -->
<g id="node17" class="node"><title>Node9</title>
<polygon fill="none" stroke="#bfbfbf" points="237,-1 237,-21 295,-21 295,-1 237,-1"/>
<text text-anchor="middle" x="266" y="-8" font-family="FreeSans" font-size="10.00">inttypes.h</text>
</g>
<!-- Node8&#45;&gt;Node9 -->
<g id="edge16" class="edge"><title>Node8&#45;&gt;Node9</title>
<path fill="none" stroke="midnightblue" d="M266,-58.8972C266,-51.339 266,-40.7476 266,-31.4458"/>
<polygon fill="midnightblue" stroke="midnightblue" points="269.5,-31.3776 266,-21.3776 262.5,-31.3776 269.5,-31.3776"/>
</g>
<!-- Node10&#45;&gt;Node8 -->
<g id="edge20" class="edge"><title>Node10&#45;&gt;Node8</title>
<path fill="none" stroke="midnightblue" d="M220.58,-116.897C228.449,-108.6 239.784,-96.6463 249.162,-86.7569"/>
<polygon fill="midnightblue" stroke="midnightblue" points="251.818,-89.0422 256.159,-79.3776 246.739,-84.2255 251.818,-89.0422"/>
</g>
<!-- Node11&#45;&gt;Node8 -->
<g id="edge26" class="edge"><title>Node11&#45;&gt;Node8</title>
<path fill="none" stroke="midnightblue" d="M323.676,-348.911C366.162,-333.522 435,-299.822 435,-243 435,-243 435,-243 435,-185 435,-128.45 369.884,-97.4093 320.49,-81.998"/>
<polygon fill="midnightblue" stroke="midnightblue" points="321.428,-78.6255 310.845,-79.1212 319.428,-85.3335 321.428,-78.6255"/>
</g>
<!-- Node12 -->
<g id="node24" class="node"><title>Node12</title>
<a xlink:href="_nav_8h.html" target="_top" xlink:title="../Control/Nav.h">
<polygon fill="none" stroke="black" points="215.5,-291 215.5,-311 298.5,-311 298.5,-291 215.5,-291"/>
<text text-anchor="middle" x="257" y="-298" font-family="FreeSans" font-size="10.00">../Control/Nav.h</text>
</a>
</g>
<!-- Node11&#45;&gt;Node12 -->
<g id="edge24" class="edge"><title>Node11&#45;&gt;Node12</title>
<path fill="none" stroke="midnightblue" d="M285.078,-348.897C280.454,-341.01 273.895,-329.821 268.279,-320.24"/>
<polygon fill="midnightblue" stroke="midnightblue" points="271.16,-318.235 263.083,-311.378 265.121,-321.775 271.16,-318.235"/>
</g>
<!-- Node13 -->
<g id="node27" class="node"><title>Node13</title>
<a xlink:href="_vec_8h.html" target="_top" xlink:title="../Vec.h">
<polygon fill="none" stroke="black" points="254.5,-175 254.5,-195 303.5,-195 303.5,-175 254.5,-175"/>
<text text-anchor="middle" x="279" y="-182" font-family="FreeSans" font-size="10.00">../Vec.h</text>
</a>
</g>
<!-- Node11&#45;&gt;Node13 -->
<g id="edge28" class="edge"><title>Node11&#45;&gt;Node13</title>
<path fill="none" stroke="midnightblue" d="M295.563,-348.799C299.482,-339.444 304.832,-325.096 307,-312 313.356,-273.604 298.458,-229.335 288.046,-204.51"/>
<polygon fill="midnightblue" stroke="midnightblue" points="291.156,-202.887 283.934,-195.135 284.746,-205.699 291.156,-202.887"/>
</g>
<!-- Node14 -->
<g id="node29" class="node"><title>Node14</title>
<a xlink:href="_ui_layout_flags_8h.html" target="_top" xlink:title="UiLayoutFlags.h">
<polygon fill="none" stroke="black" points="320.5,-175 320.5,-195 407.5,-195 407.5,-175 320.5,-175"/>
<text text-anchor="middle" x="364" y="-182" font-family="FreeSans" font-size="10.00">UiLayoutFlags.h</text>
</a>
</g>
<!-- Node11&#45;&gt;Node14 -->
<g id="edge30" class="edge"><title>Node11&#45;&gt;Node14</title>
<path fill="none" stroke="midnightblue" d="M298.422,-348.963C305.006,-339.719 314.552,-325.441 321,-312 338.365,-275.8 351.85,-230.731 358.801,-205.175"/>
<polygon fill="midnightblue" stroke="midnightblue" points="362.265,-205.767 361.448,-195.204 355.499,-203.97 362.265,-205.767"/>
</g>
<!-- Node15 -->
<g id="node32" class="node"><title>Node15</title>
<a xlink:href="_view_model_8h.html" target="_top" xlink:title="ViewModel.h">
<polygon fill="none" stroke="black" points="126,-291 126,-311 198,-311 198,-291 126,-291"/>
<text text-anchor="middle" x="162" y="-298" font-family="FreeSans" font-size="10.00">ViewModel.h</text>
</a>
</g>
<!-- Node11&#45;&gt;Node15 -->
<g id="edge34" class="edge"><title>Node11&#45;&gt;Node15</title>
<path fill="none" stroke="midnightblue" d="M268.53,-348.897C247.939,-339.639 217.225,-325.83 194.06,-315.415"/>
<polygon fill="midnightblue" stroke="midnightblue" points="195.201,-312.09 184.645,-311.182 192.331,-318.475 195.201,-312.09"/>
</g>
<!-- Node14&#45;&gt;Node8 -->
<g id="edge32" class="edge"><title>Node14&#45;&gt;Node8</title>
<path fill="none" stroke="midnightblue" d="M355.303,-174.706C338.625,-154.965 301.962,-111.567 281.171,-86.9571"/>
<polygon fill="midnightblue" stroke="midnightblue" points="283.665,-84.4857 274.537,-79.1055 278.317,-89.0031 283.665,-84.4857"/>
</g>
<!-- Node16 -->
<g id="node34" class="node"><title>Node16</title>
<a xlink:href="_display_8h.html" target="_top" xlink:title="Display.h">
<polygon fill="none" stroke="black" points="154,-233 154,-253 210,-253 210,-233 154,-233"/>
<text text-anchor="middle" x="182" y="-240" font-family="FreeSans" font-size="10.00">Display.h</text>
</a>
</g>
<!-- Node15&#45;&gt;Node16 -->
<g id="edge36" class="edge"><title>Node15&#45;&gt;Node16</title>
<path fill="none" stroke="midnightblue" d="M165.484,-290.897C168.147,-283.175 171.901,-272.286 175.158,-262.841"/>
<polygon fill="midnightblue" stroke="midnightblue" points="178.47,-263.972 178.422,-253.378 171.853,-261.69 178.47,-263.972"/>
</g>
<!-- Node18 -->
<g id="node42" class="node"><title>Node18</title>
<a xlink:href="_view_attacher_8h.html" target="_top" xlink:title="ViewAttacher.h">
<polygon fill="none" stroke="black" points="84.5,-175 84.5,-195 167.5,-195 167.5,-175 84.5,-175"/>
<text text-anchor="middle" x="126" y="-182" font-family="FreeSans" font-size="10.00">ViewAttacher.h</text>
</a>
</g>
<!-- Node15&#45;&gt;Node18 -->
<g id="edge52" class="edge"><title>Node15&#45;&gt;Node18</title>
<path fill="none" stroke="midnightblue" d="M158.122,-290.993C154.517,-281.531 149.102,-266.9 145,-254 139.83,-237.743 134.741,-219.077 131.132,-205.262"/>
<polygon fill="midnightblue" stroke="midnightblue" points="134.466,-204.173 128.583,-195.361 127.687,-205.918 134.466,-204.173"/>
</g>
<!-- Node19 -->
<g id="node44" class="node"><title>Node19</title>
<a xlink:href="_view_8h.html" target="_top" xlink:title="View.h">
<polygon fill="none" stroke="black" points="228,-233 228,-253 274,-253 274,-233 228,-233"/>
<text text-anchor="middle" x="251" y="-240" font-family="FreeSans" font-size="10.00">View.h</text>
</a>
</g>
<!-- Node15&#45;&gt;Node19 -->
<g id="edge50" class="edge"><title>Node15&#45;&gt;Node19</title>
<path fill="none" stroke="midnightblue" d="M177.503,-290.897C191.075,-282.052 211.021,-269.054 226.711,-258.829"/>
<polygon fill="midnightblue" stroke="midnightblue" points="228.909,-261.574 235.376,-253.182 225.087,-255.709 228.909,-261.574"/>
</g>
<!-- Node16&#45;&gt;Node6 -->
<g id="edge44" class="edge"><title>Node16&#45;&gt;Node6</title>
<path fill="none" stroke="midnightblue" d="M157.962,-232.897C135.601,-223.499 102.082,-209.411 77.1782,-198.944"/>
<polygon fill="midnightblue" stroke="midnightblue" points="78.3373,-195.635 67.7623,-194.987 75.625,-202.088 78.3373,-195.635"/>
</g>
<!-- Node16&#45;&gt;Node13 -->
<g id="edge38" class="edge"><title>Node16&#45;&gt;Node13</title>
<path fill="none" stroke="midnightblue" d="M198.896,-232.897C213.826,-223.97 235.834,-210.811 253.006,-200.543"/>
<polygon fill="midnightblue" stroke="midnightblue" points="255.186,-203.318 261.972,-195.182 251.593,-197.31 255.186,-203.318"/>
</g>
<!-- Node16&#45;&gt;Node14 -->
<g id="edge46" class="edge"><title>Node16&#45;&gt;Node14</title>
<path fill="none" stroke="midnightblue" d="M210.039,-234.065C240.169,-224.463 288.361,-209.105 322.801,-198.129"/>
<polygon fill="midnightblue" stroke="midnightblue" points="324.102,-201.388 332.567,-195.017 321.977,-194.719 324.102,-201.388"/>
</g>
<!-- Node17 -->
<g id="node37" class="node"><title>Node17</title>
<a xlink:href="_ui_font_8h.html" target="_top" xlink:title="UiFont.h">
<polygon fill="none" stroke="black" points="184.5,-175 184.5,-195 237.5,-195 237.5,-175 184.5,-175"/>
<text text-anchor="middle" x="211" y="-182" font-family="FreeSans" font-size="10.00">UiFont.h</text>
</a>
</g>
<!-- Node16&#45;&gt;Node17 -->
<g id="edge40" class="edge"><title>Node16&#45;&gt;Node17</title>
<path fill="none" stroke="midnightblue" d="M187.051,-232.897C190.954,-225.093 196.473,-214.054 201.23,-204.54"/>
<polygon fill="midnightblue" stroke="midnightblue" points="204.47,-205.887 205.811,-195.378 198.209,-202.757 204.47,-205.887"/>
</g>
<!-- Node16&#45;&gt;Node18 -->
<g id="edge48" class="edge"><title>Node16&#45;&gt;Node18</title>
<path fill="none" stroke="midnightblue" d="M172.246,-232.897C164.234,-224.6 152.693,-212.646 143.145,-202.757"/>
<polygon fill="midnightblue" stroke="midnightblue" points="145.484,-200.141 136.02,-195.378 140.448,-205.003 145.484,-200.141"/>
</g>
<!-- Node17&#45;&gt;Node10 -->
<g id="edge42" class="edge"><title>Node17&#45;&gt;Node10</title>
<path fill="none" stroke="midnightblue" d="M211,-174.897C211,-167.339 211,-156.748 211,-147.446"/>
<polygon fill="midnightblue" stroke="midnightblue" points="214.5,-147.378 211,-137.378 207.5,-147.378 214.5,-147.378"/>
</g>
</g>
</svg>
        <g id="navigator" transform="translate(0 0)" fill="#404254">
                <rect fill="#f2f5e9" fill-opacity="0.5" stroke="#606060" stroke-width=".5" x="0" y="0" width="60" height="60"/>
                <use id="zoomplus" xlink:href="#zoomPlus" x="17" y="9" onmousedown="handleZoom(evt,'in')"/>
                <use id="zoomminus" xlink:href="#zoomMin" x="42" y="9" onmousedown="handleZoom(evt,'out')"/>
                <use id="reset" xlink:href="#resetDef" x="30" y="36" onmousedown="handleReset()"/>
                <g id="arrowUp" xlink:href="#dirArrow" transform="translate(30 24)" onmousedown="handlePan(0,-1)">
                  <use xlink:href="#rim" fill="#404040">
                        <set attributeName="fill" to="#808080" begin="arrowUp.mouseover" end="arrowUp.mouseout"/>
                  </use>
                  <path fill="none" stroke="white" stroke-width="1.5" d="M0,-3.0v7 M-2.5,-0.5L0,-3.0L2.5,-0.5"/>
                </g>
                <g id="arrowRight" xlink:href="#dirArrow" transform="rotate(90) translate(36 -43)" onmousedown="handlePan(1,0)">
                  <use xlink:href="#rim" fill="#404040">
                        <set attributeName="fill" to="#808080" begin="arrowRight.mouseover" end="arrowRight.mouseout"/>
                  </use>
                  <path fill="none" stroke="white" stroke-width="1.5" d="M0,-3.0v7 M-2.5,-0.5L0,-3.0L2.5,-0.5"/>
                </g>
                <g id="arrowDown" xlink:href="#dirArrow" transform="rotate(180) translate(-30 -48)" onmousedown="handlePan(0,1)">
                  <use xlink:href="#rim" fill="#404040">
                        <set attributeName="fill" to="#808080" begin="arrowDown.mouseover" end="arrowDown.mouseout"/>
                  </use>
                  <path fill="none" stroke="white" stroke-width="1.5" d="M0,-3.0v7 M-2.5,-0.5L0,-3.0L2.5,-0.5"/>
                </g>
                <g id="arrowLeft" xlink:href="#dirArrow" transform="rotate(270) translate(-36 17)" onmousedown="handlePan(-1,0)">
                  <use xlink:href="#rim" fill="#404040">
                        <set attributeName="fill" to="#808080" begin="arrowLeft.mouseover" end="arrowLeft.mouseout"/>
                  </use>
                  <path fill="none" stroke="white" stroke-width="1.5" d="M0,-3.0v7 M-2.5,-0.5L0,-3.0L2.5,-0.5"/>
                </g>
        </g>
        <svg viewBox="0 0 15 15" width="100%" height="30px" preserveAspectRatio="xMaxYMin meet">
         <g id="arrow_out" transform="scale(0.3 0.3)">
          <a xlink:href="_symbol_icon_8cpp__incl_org.svg" target="_base">
           <rect id="button" ry="5" rx="5" y="6" x="6" height="38" width="38"
                fill="#f2f5e9" fill-opacity="0.5" stroke="#606060" stroke-width="1.0"/>
           <path id="arrow"
             d="M 11.500037,31.436501 C 11.940474,20.09759 22.043105,11.32322 32.158766,21.979434 L 37.068811,17.246167 C 37.068811,17.246167 37.088388,32 37.088388,32 L 22.160133,31.978069 C 22.160133,31.978069 26.997745,27.140456 26.997745,27.140456 C 18.528582,18.264221 13.291696,25.230495 11.500037,31.436501 z"
             style="fill:#404040;"/>
          </a>
         </g>
        </svg>
</svg>
