<?xml version="1.0" encoding="UTF-8" standalone="no"?>
<!DOCTYPE svg PUBLIC "-//W3C//DTD SVG 1.1//EN"
 "http://www.w3.org/Graphics/SVG/1.1/DTD/svg11.dtd">
<!-- Generated by graphviz version 2.38.0 (20140413.2041)
 -->
<!-- Title: SysConsole.h Pages: 1 -->
<!--zoomable 330 -->
<svg id="main" version="1.1" xmlns="http://www.w3.org/2000/svg" xmlns:xlink="http://www.w3.org/1999/xlink" xml:space="preserve" onload="init(evt)">
<style type="text/css"><![CDATA[
.edge:hover path { stroke: red; }
.edge:hover polygon { stroke: red; fill: red; }
]]></style>
<script type="text/javascript"><![CDATA[
var edges = document.getElementsByTagName('g');
if (edges && edges.length) {
  for (var i=0;i<edges.length;i++) {
    if (edges[i].id.substr(0,4)=='edge') {
      edges[i].setAttribute('class','edge');
    }
  }
}
]]></script>
        <defs>
                <circle id="rim" cx="0" cy="0" r="7"/>
                <circle id="rim2" cx="0" cy="0" r="3.5"/>
                <g id="zoomPlus">
                        <use xlink:href="#rim" fill="#404040">
                                <set attributeName="fill" to="#808080" begin="zoomplus.mouseover" end="zoomplus.mouseout"/>
                        </use>
                        <path d="M-4,0h8M0,-4v8" fill="none" stroke="white" stroke-width="1.5" pointer-events="none"/>
                </g>
                <g id="zoomMin">
                        <use xlink:href="#rim" fill="#404040">
                                <set attributeName="fill" to="#808080" begin="zoomminus.mouseover" end="zoomminus.mouseout"/>
                        </use>
                        <path d="M-4,0h8" fill="none" stroke="white" stroke-width="1.5" pointer-events="none"/>
                </g>
                <g id="dirArrow">
                        <path fill="none" stroke="white" stroke-width="1.5" d="M0,-3.0v7 M-2.5,-0.5L0,-3.0L2.5,-0.5"/>
                </g>
               <g id="resetDef">
                       <use xlink:href="#rim2" fill="#404040">
                               <set attributeName="fill" to="#808080" begin="reset.mouseover" end="reset.mouseout"/>
                       </use>
               </g>
        </defs>

<script type="text/javascript">
var viewWidth = 775;
var viewHeight = 330;
var sectionId = 'dynsection-0';
</script>
<script xlink:href="svgpan.js"/>
<svg id="graph" class="graph">
<g id="viewport">
<title>SysConsole.h</title>
<!-- Node1 -->
<g id="node1" class="node"><title>Node1</title>
<polygon fill="#bfbfbf" stroke="black" points="233.5,-302.5 233.5,-321.5 314.5,-321.5 314.5,-302.5 233.5,-302.5"/>
<text text-anchor="middle" x="274" y="-309.5" font-family="FreeSans" font-size="10.00">SysConsole.h</text>
</g>
<!-- Node2 -->
<g id="node2" class="node"><title>Node2</title>
<polygon fill="none" stroke="#bfbfbf" points="74,-241 74,-260 208,-260 208,-241 74,-241"/>
<text text-anchor="middle" x="141" y="-248" font-family="FreeSans" font-size="10.00">boost/circular_buffer.hpp</text>
</g>
<!-- Node1&#45;&gt;Node2 -->
<g id="edge1" class="edge"><title>Node1&#45;&gt;Node2</title>
<path fill="none" stroke="midnightblue" d="M254.944,-302.475C232.525,-292.445 195.095,-275.7 169.287,-264.155"/>
<polygon fill="midnightblue" stroke="midnightblue" points="170.578,-260.898 160.02,-260.009 167.719,-267.288 170.578,-260.898"/>
</g>
<!-- Node3 -->
<g id="node3" class="node"><title>Node3</title>
<g id="a_node3"><a xlink:href="_log_8h.html" target="_top" xlink:title="../../../engine/Util\l/Log.h">
<polygon fill="none" stroke="black" points="226.5,-235.5 226.5,-265.5 321.5,-265.5 321.5,-235.5 226.5,-235.5"/>
<text text-anchor="start" x="234.5" y="-253.5" font-family="FreeSans" font-size="10.00">../../../engine/Util</text>
<text text-anchor="middle" x="274" y="-242.5" font-family="FreeSans" font-size="10.00">/Log.h</text>
</a>
</g>
</g>
<!-- Node1&#45;&gt;Node3 -->
<g id="edge2" class="edge"><title>Node1&#45;&gt;Node3</title>
<path fill="none" stroke="midnightblue" d="M274,-302.475C274,-295.471 274,-285.192 274,-275.696"/>
<polygon fill="midnightblue" stroke="midnightblue" points="277.5,-275.523 274,-265.523 270.5,-275.523 277.5,-275.523"/>
</g>
<!-- Node5 -->
<g id="node5" class="node"><title>Node5</title>
<g id="a_node5"><a xlink:href="_console_8h.html" target="_top" xlink:title="Console.h">
<polygon fill="none" stroke="black" points="373,-241 373,-260 437,-260 437,-241 373,-241"/>
<text text-anchor="middle" x="405" y="-248" font-family="FreeSans" font-size="10.00">Console.h</text>
</a>
</g>
</g>
<!-- Node1&#45;&gt;Node5 -->
<g id="edge4" class="edge"><title>Node1&#45;&gt;Node5</title>
<path fill="none" stroke="midnightblue" d="M292.769,-302.475C314.851,-292.445 351.719,-275.7 377.139,-264.155"/>
<polygon fill="midnightblue" stroke="midnightblue" points="378.608,-267.331 386.266,-260.009 375.713,-260.958 378.608,-267.331"/>
</g>
<!-- Node4 -->
<g id="node4" class="node"><title>Node4</title>
<polygon fill="none" stroke="#bfbfbf" points="202,-174 202,-193 312,-193 312,-174 202,-174"/>
<text text-anchor="middle" x="257" y="-181" font-family="FreeSans" font-size="10.00">boost/log/trivial.hpp</text>
</g>
<!-- Node3&#45;&gt;Node4 -->
<g id="edge3" class="edge"><title>Node3&#45;&gt;Node4</title>
<path fill="none" stroke="midnightblue" d="M270.311,-235.396C267.844,-225.963 264.571,-213.448 261.888,-203.189"/>
<polygon fill="midnightblue" stroke="midnightblue" points="265.19,-201.984 259.274,-193.195 258.418,-203.755 265.19,-201.984"/>
</g>
<!-- Node6 -->
<g id="node6" class="node"><title>Node6</title>
<g id="a_node6"><a xlink:href="_env_8h.html" target="_top" xlink:title="../../../engine/Script\l/Env.h">
<polygon fill="none" stroke="black" points="368.5,-168.5 368.5,-198.5 475.5,-198.5 475.5,-168.5 368.5,-168.5"/>
<text text-anchor="start" x="376.5" y="-186.5" font-family="FreeSans" font-size="10.00">../../../engine/Script</text>
<text text-anchor="middle" x="422" y="-175.5" font-family="FreeSans" font-size="10.00">/Env.h</text>
</a>
</g>
</g>
<!-- Node5&#45;&gt;Node6 -->
<g id="edge5" class="edge"><title>Node5&#45;&gt;Node6</title>
<path fill="none" stroke="midnightblue" d="M407.293,-240.734C409.458,-232.456 412.804,-219.662 415.758,-208.367"/>
<polygon fill="midnightblue" stroke="midnightblue" points="419.171,-209.149 418.315,-198.589 412.399,-207.378 419.171,-209.149"/>
</g>
<!-- Node7 -->
<g id="node7" class="node"><title>Node7</title>
<g id="a_node7"><a xlink:href="_o_s_8h.html" target="_top" xlink:title="../Util/OS.h">
<polygon fill="none" stroke="black" points="214,-112.5 214,-131.5 282,-131.5 282,-112.5 214,-112.5"/>
<text text-anchor="middle" x="248" y="-119.5" font-family="FreeSans" font-size="10.00">../Util/OS.h</text>
</a>
</g>
</g>
<!-- Node5&#45;&gt;Node7 -->
<g id="edge23" class="edge"><title>Node5&#45;&gt;Node7</title>
<path fill="none" stroke="midnightblue" d="M397.204,-240.77C382.98,-225.12 351.467,-191.712 321,-168 305.868,-156.223 287.486,-144.907 272.953,-136.568"/>
<polygon fill="midnightblue" stroke="midnightblue" points="274.463,-133.401 264.032,-131.543 271.027,-139.5 274.463,-133.401"/>
</g>
<!-- Node24 -->
<g id="node24" class="node"><title>Node24</title>
<g id="a_node24"><a xlink:href="_help_handler_8h.html" target="_top" xlink:title="../../../engine/Script\l/Help/HelpHandler.h">
<polygon fill="none" stroke="black" points="493,-168.5 493,-198.5 605,-198.5 605,-168.5 493,-168.5"/>
<text text-anchor="start" x="501" y="-186.5" font-family="FreeSans" font-size="10.00">../../../engine/Script</text>
<text text-anchor="middle" x="549" y="-175.5" font-family="FreeSans" font-size="10.00">/Help/HelpHandler.h</text>
</a>
</g>
</g>
<!-- Node5&#45;&gt;Node24 -->
<g id="edge24" class="edge"><title>Node5&#45;&gt;Node24</title>
<path fill="none" stroke="midnightblue" d="M424.122,-240.869C445.543,-231.199 480.88,-215.249 508.507,-202.778"/>
<polygon fill="midnightblue" stroke="midnightblue" points="510.248,-205.832 517.922,-198.528 507.368,-199.452 510.248,-205.832"/>
</g>
<!-- Node6&#45;&gt;Node7 -->
<g id="edge6" class="edge"><title>Node6&#45;&gt;Node7</title>
<path fill="none" stroke="midnightblue" d="M380.764,-168.399C350.829,-158.163 310.787,-144.47 282.531,-134.808"/>
<polygon fill="midnightblue" stroke="midnightblue" points="283.659,-131.495 273.065,-131.571 281.394,-138.118 283.659,-131.495"/>
</g>
<!-- Node15 -->
<g id="node15" class="node"><title>Node15</title>
<g id="a_node15"><a xlink:href="_core_8h.html" target="_top" xlink:title="Core.h">
<polygon fill="none" stroke="black" points="497,-112.5 497,-131.5 545,-131.5 545,-112.5 497,-112.5"/>
<text text-anchor="middle" x="521" y="-119.5" font-family="FreeSans" font-size="10.00">Core.h</text>
</a>
</g>
</g>
<!-- Node6&#45;&gt;Node15 -->
<g id="edge14" class="edge"><title>Node6&#45;&gt;Node15</title>
<path fill="none" stroke="midnightblue" d="M445.462,-168.399C461.331,-158.862 482.191,-146.325 497.968,-136.842"/>
<polygon fill="midnightblue" stroke="midnightblue" points="499.826,-139.809 506.595,-131.658 496.221,-133.809 499.826,-139.809"/>
</g>
<!-- Node23 -->
<g id="node23" class="node"><title>Node23</title>
<g id="a_node23"><a xlink:href="_registry_ref_8h.html" target="_top" xlink:title="RegistryRef.h">
<polygon fill="none" stroke="black" points="563.5,-112.5 563.5,-131.5 640.5,-131.5 640.5,-112.5 563.5,-112.5"/>
<text text-anchor="middle" x="602" y="-119.5" font-family="FreeSans" font-size="10.00">RegistryRef.h</text>
</a>
</g>
</g>
<!-- Node6&#45;&gt;Node23 -->
<g id="edge22" class="edge"><title>Node6&#45;&gt;Node23</title>
<path fill="none" stroke="midnightblue" d="M464.657,-168.399C495.626,-158.163 537.048,-144.47 566.278,-134.808"/>
<polygon fill="midnightblue" stroke="midnightblue" points="567.675,-138.033 576.071,-131.571 565.478,-131.386 567.675,-138.033"/>
</g>
<!-- Node8 -->
<g id="node8" class="node"><title>Node8</title>
<polygon fill="none" stroke="#bfbfbf" points="0,-56.5 0,-75.5 44,-75.5 44,-56.5 0,-56.5"/>
<text text-anchor="middle" x="22" y="-63.5" font-family="FreeSans" font-size="10.00">locale</text>
</g>
<!-- Node7&#45;&gt;Node8 -->
<g id="edge7" class="edge"><title>Node7&#45;&gt;Node8</title>
<path fill="none" stroke="midnightblue" d="M213.69,-113.689C176.614,-105.656 115.582,-92.0461 54.1664,-76.2001"/>
<polygon fill="midnightblue" stroke="midnightblue" points="54.8689,-72.7665 44.3099,-73.6382 53.1079,-79.5413 54.8689,-72.7665"/>
</g>
<!-- Node9 -->
<g id="node9" class="node"><title>Node9</title>
<polygon fill="none" stroke="#bfbfbf" points="62,-56.5 62,-75.5 94,-75.5 94,-56.5 62,-56.5"/>
<text text-anchor="middle" x="78" y="-63.5" font-family="FreeSans" font-size="10.00">set</text>
</g>
<!-- Node7&#45;&gt;Node9 -->
<g id="edge8" class="edge"><title>Node7&#45;&gt;Node9</title>
<path fill="none" stroke="midnightblue" d="M219.266,-112.495C191.872,-104.297 149.254,-91.3094 103.832,-76.1765"/>
<polygon fill="midnightblue" stroke="midnightblue" points="104.695,-72.7746 94.1011,-72.9157 102.471,-79.4118 104.695,-72.7746"/>
</g>
<!-- Node10 -->
<g id="node10" class="node"><title>Node10</title>
<polygon fill="none" stroke="#bfbfbf" points="112,-56.5 112,-75.5 156,-75.5 156,-56.5 112,-56.5"/>
<text text-anchor="middle" x="134" y="-63.5" font-family="FreeSans" font-size="10.00">string</text>
</g>
<!-- Node7&#45;&gt;Node10 -->
<g id="edge9" class="edge"><title>Node7&#45;&gt;Node10</title>
<path fill="none" stroke="midnightblue" d="M229.936,-112.444C211.425,-103.675 182.419,-89.9355 161.145,-79.8579"/>
<polygon fill="midnightblue" stroke="midnightblue" points="162.515,-76.6343 151.979,-75.5164 159.518,-82.9604 162.515,-76.6343"/>
</g>
<!-- Node11 -->
<g id="node11" class="node"><title>Node11</title>
<polygon fill="none" stroke="#bfbfbf" points="174.5,-56.5 174.5,-75.5 221.5,-75.5 221.5,-56.5 174.5,-56.5"/>
<text text-anchor="middle" x="198" y="-63.5" font-family="FreeSans" font-size="10.00">vector</text>
</g>
<!-- Node7&#45;&gt;Node11 -->
<g id="edge10" class="edge"><title>Node7&#45;&gt;Node11</title>
<path fill="none" stroke="midnightblue" d="M239.744,-112.083C232.535,-104.298 221.89,-92.8015 213.154,-83.3665"/>
<polygon fill="midnightblue" stroke="midnightblue" points="215.465,-80.7108 206.103,-75.7511 210.329,-85.4666 215.465,-80.7108"/>
</g>
<!-- Node12 -->
<g id="node12" class="node"><title>Node12</title>
<polygon fill="none" stroke="#bfbfbf" points="240,-56.5 240,-75.5 356,-75.5 356,-56.5 240,-56.5"/>
<text text-anchor="middle" x="298" y="-63.5" font-family="FreeSans" font-size="10.00">boost/filesystem.hpp</text>
</g>
<!-- Node7&#45;&gt;Node12 -->
<g id="edge11" class="edge"><title>Node7&#45;&gt;Node12</title>
<path fill="none" stroke="midnightblue" d="M256.256,-112.083C263.465,-104.298 274.11,-92.8015 282.846,-83.3665"/>
<polygon fill="midnightblue" stroke="midnightblue" points="285.671,-85.4666 289.897,-75.7511 280.535,-80.7108 285.671,-85.4666"/>
</g>
<!-- Node13 -->
<g id="node13" class="node"><title>Node13</title>
<g id="a_node13"><a xlink:href="_m_r___types_8h.html" target="_top" xlink:title="MR_Types.h">
<polygon fill="none" stroke="black" points="374.5,-56.5 374.5,-75.5 445.5,-75.5 445.5,-56.5 374.5,-56.5"/>
<text text-anchor="middle" x="410" y="-63.5" font-family="FreeSans" font-size="10.00">MR_Types.h</text>
</a>
</g>
</g>
<!-- Node7&#45;&gt;Node13 -->
<g id="edge12" class="edge"><title>Node7&#45;&gt;Node13</title>
<path fill="none" stroke="midnightblue" d="M273.669,-112.444C300.923,-103.359 344.184,-88.9388 374.651,-78.7831"/>
<polygon fill="midnightblue" stroke="midnightblue" points="376.071,-81.9992 384.451,-75.5164 373.857,-75.3584 376.071,-81.9992"/>
</g>
<!-- Node14 -->
<g id="node14" class="node"><title>Node14</title>
<polygon fill="none" stroke="#bfbfbf" points="378,-0.5 378,-19.5 442,-19.5 442,-0.5 378,-0.5"/>
<text text-anchor="middle" x="410" y="-7.5" font-family="FreeSans" font-size="10.00">inttypes.h</text>
</g>
<!-- Node13&#45;&gt;Node14 -->
<g id="edge13" class="edge"><title>Node13&#45;&gt;Node14</title>
<path fill="none" stroke="midnightblue" d="M410,-56.083C410,-49.0059 410,-38.8611 410,-29.9865"/>
<polygon fill="midnightblue" stroke="midnightblue" points="413.5,-29.751 410,-19.7511 406.5,-29.7511 413.5,-29.751"/>
</g>
<!-- Node16 -->
<g id="node16" class="node"><title>Node16</title>
<polygon fill="none" stroke="#bfbfbf" points="464,-56.5 464,-75.5 494,-75.5 494,-56.5 464,-56.5"/>
<text text-anchor="middle" x="479" y="-63.5" font-family="FreeSans" font-size="10.00">list</text>
</g>
<!-- Node15&#45;&gt;Node16 -->
<g id="edge15" class="edge"><title>Node15&#45;&gt;Node16</title>
<path fill="none" stroke="midnightblue" d="M514.065,-112.083C508.071,-104.377 499.248,-93.0333 491.952,-83.6531"/>
<polygon fill="midnightblue" stroke="midnightblue" points="494.709,-81.4958 485.806,-75.7511 489.183,-85.7934 494.709,-81.4958"/>
</g>
<!-- Node17 -->
<g id="node17" class="node"><title>Node17</title>
<polygon fill="none" stroke="#bfbfbf" points="512,-56.5 512,-75.5 616,-75.5 616,-56.5 512,-56.5"/>
<text text-anchor="middle" x="564" y="-63.5" font-family="FreeSans" font-size="10.00">luabind/object.hpp</text>
</g>
<!-- Node15&#45;&gt;Node17 -->
<g id="edge16" class="edge"><title>Node15&#45;&gt;Node17</title>
<path fill="none" stroke="midnightblue" d="M528.101,-112.083C534.237,-104.377 543.27,-93.0333 550.739,-83.6531"/>
<polygon fill="midnightblue" stroke="midnightblue" points="553.54,-85.7542 557.032,-75.7511 548.064,-81.3936 553.54,-85.7542"/>
</g>
<!-- Node18 -->
<g id="node18" class="node"><title>Node18</title>
<g id="a_node18"><a xlink:href="_lua_8h.html" target="_top" xlink:title="Lua.h">
<polygon fill="none" stroke="black" points="634.5,-56.5 634.5,-75.5 677.5,-75.5 677.5,-56.5 634.5,-56.5"/>
<text text-anchor="middle" x="656" y="-63.5" font-family="FreeSans" font-size="10.00">Lua.h</text>
</a>
</g>
</g>
<!-- Node15&#45;&gt;Node18 -->
<g id="edge17" class="edge"><title>Node15&#45;&gt;Node18</title>
<path fill="none" stroke="midnightblue" d="M542.391,-112.444C564.707,-103.517 599.903,-89.4387 625.208,-79.3168"/>
<polygon fill="midnightblue" stroke="midnightblue" points="626.724,-82.4801 634.709,-75.5164 624.124,-75.9807 626.724,-82.4801"/>
</g>
<!-- Node22 -->
<g id="node22" class="node"><title>Node22</title>
<g id="a_node22"><a xlink:href="_script_exn_8h.html" target="_top" xlink:title="ScriptExn.h">
<polygon fill="none" stroke="black" points="695.5,-56.5 695.5,-75.5 766.5,-75.5 766.5,-56.5 695.5,-56.5"/>
<text text-anchor="middle" x="731" y="-63.5" font-family="FreeSans" font-size="10.00">ScriptExn.h</text>
</a>
</g>
</g>
<!-- Node15&#45;&gt;Node22 -->
<g id="edge21" class="edge"><title>Node15&#45;&gt;Node22</title>
<path fill="none" stroke="midnightblue" d="M545.139,-114.583C548.451,-113.711 551.809,-112.83 555,-112 600.004,-100.291 651.551,-87.1417 687.175,-78.0958"/>
<polygon fill="midnightblue" stroke="midnightblue" points="688.406,-81.3945 697.238,-75.5422 686.684,-74.6095 688.406,-81.3945"/>
</g>
<!-- Node19 -->
<g id="node19" class="node"><title>Node19</title>
<polygon fill="none" stroke="#bfbfbf" points="573,-0.5 573,-19.5 613,-19.5 613,-0.5 573,-0.5"/>
<text text-anchor="middle" x="593" y="-7.5" font-family="FreeSans" font-size="10.00">lua.h</text>
</g>
<!-- Node18&#45;&gt;Node19 -->
<g id="edge18" class="edge"><title>Node18&#45;&gt;Node19</title>
<path fill="none" stroke="midnightblue" d="M645.878,-56.324C636.474,-48.2631 622.256,-36.0765 610.931,-26.3695"/>
<polygon fill="midnightblue" stroke="midnightblue" points="613.177,-23.6844 603.306,-19.8339 608.621,-28.9993 613.177,-23.6844"/>
</g>
<!-- Node20 -->
<g id="node20" class="node"><title>Node20</title>
<polygon fill="none" stroke="#bfbfbf" points="631,-0.5 631,-19.5 681,-19.5 681,-0.5 631,-0.5"/>
<text text-anchor="middle" x="656" y="-7.5" font-family="FreeSans" font-size="10.00">lualib.h</text>
</g>
<!-- Node18&#45;&gt;Node20 -->
<g id="edge19" class="edge"><title>Node18&#45;&gt;Node20</title>
<path fill="none" stroke="midnightblue" d="M656,-56.083C656,-49.0059 656,-38.8611 656,-29.9865"/>
<polygon fill="midnightblue" stroke="midnightblue" points="659.5,-29.751 656,-19.7511 652.5,-29.7511 659.5,-29.751"/>
</g>
<!-- Node21 -->
<g id="node21" class="node"><title>Node21</title>
<polygon fill="none" stroke="#bfbfbf" points="699,-0.5 699,-19.5 755,-19.5 755,-0.5 699,-0.5"/>
<text text-anchor="middle" x="727" y="-7.5" font-family="FreeSans" font-size="10.00">lauxlib.h</text>
</g>
<!-- Node18&#45;&gt;Node21 -->
<g id="edge20" class="edge"><title>Node18&#45;&gt;Node21</title>
<path fill="none" stroke="midnightblue" d="M667.407,-56.324C678.109,-48.1849 694.341,-35.8395 707.163,-26.0874"/>
<polygon fill="midnightblue" stroke="midnightblue" points="709.544,-28.6734 715.385,-19.8339 705.307,-23.1018 709.544,-28.6734"/>
</g>
</g>
</svg>
        <g id="navigator" transform="translate(0 0)" fill="#404254">
                <rect fill="#f2f5e9" fill-opacity="0.5" stroke="#606060" stroke-width=".5" x="0" y="0" width="60" height="60"/>
                <use id="zoomplus" xlink:href="#zoomPlus" x="17" y="9" onmousedown="handleZoom(evt,'in')"/>
                <use id="zoomminus" xlink:href="#zoomMin" x="42" y="9" onmousedown="handleZoom(evt,'out')"/>
                <use id="reset" xlink:href="#resetDef" x="30" y="36" onmousedown="handleReset()"/>
                <g id="arrowUp" xlink:href="#dirArrow" transform="translate(30 24)" onmousedown="handlePan(0,-1)">
                  <use xlink:href="#rim" fill="#404040">
                        <set attributeName="fill" to="#808080" begin="arrowUp.mouseover" end="arrowUp.mouseout"/>
                  </use>
                  <path fill="none" stroke="white" stroke-width="1.5" d="M0,-3.0v7 M-2.5,-0.5L0,-3.0L2.5,-0.5"/>
                </g>
                <g id="arrowRight" xlink:href="#dirArrow" transform="rotate(90) translate(36 -43)" onmousedown="handlePan(1,0)">
                  <use xlink:href="#rim" fill="#404040">
                        <set attributeName="fill" to="#808080" begin="arrowRight.mouseover" end="arrowRight.mouseout"/>
                  </use>
                  <path fill="none" stroke="white" stroke-width="1.5" d="M0,-3.0v7 M-2.5,-0.5L0,-3.0L2.5,-0.5"/>
                </g>
                <g id="arrowDown" xlink:href="#dirArrow" transform="rotate(180) translate(-30 -48)" onmousedown="handlePan(0,1)">
                  <use xlink:href="#rim" fill="#404040">
                        <set attributeName="fill" to="#808080" begin="arrowDown.mouseover" end="arrowDown.mouseout"/>
                  </use>
                  <path fill="none" stroke="white" stroke-width="1.5" d="M0,-3.0v7 M-2.5,-0.5L0,-3.0L2.5,-0.5"/>
                </g>
                <g id="arrowLeft" xlink:href="#dirArrow" transform="rotate(270) translate(-36 17)" onmousedown="handlePan(-1,0)">
                  <use xlink:href="#rim" fill="#404040">
                        <set attributeName="fill" to="#808080" begin="arrowLeft.mouseover" end="arrowLeft.mouseout"/>
                  </use>
                  <path fill="none" stroke="white" stroke-width="1.5" d="M0,-3.0v7 M-2.5,-0.5L0,-3.0L2.5,-0.5"/>
                </g>
        </g>
        <svg viewBox="0 0 15 15" width="100%" height="30px" preserveAspectRatio="xMaxYMin meet">
         <g id="arrow_out" transform="scale(0.3 0.3)">
          <a xlink:href="_sys_console_8h__incl_org.svg" target="_base">
           <rect id="button" ry="5" rx="5" y="6" x="6" height="38" width="38"
                fill="#f2f5e9" fill-opacity="0.5" stroke="#606060" stroke-width="1.0"/>
           <path id="arrow"
             d="M 11.500037,31.436501 C 11.940474,20.09759 22.043105,11.32322 32.158766,21.979434 L 37.068811,17.246167 C 37.068811,17.246167 37.088388,32 37.088388,32 L 22.160133,31.978069 C 22.160133,31.978069 26.997745,27.140456 26.997745,27.140456 C 18.528582,18.264221 13.291696,25.230495 11.500037,31.436501 z"
             style="fill:#404040;"/>
          </a>
         </g>
        </svg>
</svg>
