<?xml version="1.0" encoding="UTF-8" standalone="no"?>
<!DOCTYPE svg PUBLIC "-//W3C//DTD SVG 1.1//EN"
 "http://www.w3.org/Graphics/SVG/1.1/DTD/svg11.dtd">
<!-- Generated by graphviz version 2.26.3 (20100126.1600)
 -->
<!-- Title: SysEnv.h Pages: 1 -->
<svg width="449pt" height="216pt"
 viewBox="0.00 0.00 449.00 216.00" xmlns="http://www.w3.org/2000/svg" xmlns:xlink="http://www.w3.org/1999/xlink">
<g id="graph1" class="graph" transform="scale(1 1) rotate(0) translate(4 212)">
<title>SysEnv.h</title>
<!-- Node1 -->
<g id="node1" class="node"><title>Node1</title>
<polygon fill="#bfbfbf" stroke="black" points="124.5,-187 124.5,-207 181.5,-207 181.5,-187 124.5,-187"/>
<text text-anchor="middle" x="153" y="-194" font-family="FreeSans" font-size="10.00">SysEnv.h</text>
</g>
<!-- Node2 -->
<g id="node3" class="node"><title>Node2</title>
<a xlink:href="_env_8h.html" target="_top" xlink:title="../../../engine/Script\l/Env.h">
<polygon fill="none" stroke="black" points="33,-117 33,-149 129,-149 129,-117 33,-117"/>
<text text-anchor="start" x="41" y="-136" font-family="FreeSans" font-size="10.00">../../../engine/Script</text>
<text text-anchor="middle" x="81" y="-124" font-family="FreeSans" font-size="10.00">/Env.h</text>
</a>
</g>
<!-- Node1&#45;&gt;Node2 -->
<g id="edge2" class="edge"><title>Node1&#45;&gt;Node2</title>
<path fill="none" stroke="midnightblue" d="M141.432,-186.717C132.041,-178.369 118.449,-166.288 106.534,-155.696"/>
<polygon fill="midnightblue" stroke="midnightblue" points="108.806,-153.033 99.0061,-149.005 104.155,-158.265 108.806,-153.033"/>
</g>
<!-- Node7 -->
<g id="node13" class="node"><title>Node7</title>
<a xlink:href="_o_s_8h.html" target="_top" xlink:title="../../../engine/Util/OS.h">
<polygon fill="none" stroke="black" points="170,-123 170,-143 280,-143 280,-123 170,-123"/>
<text text-anchor="middle" x="225" y="-130" font-family="FreeSans" font-size="10.00">../../../engine/Util/OS.h</text>
</a>
</g>
<!-- Node1&#45;&gt;Node7 -->
<g id="edge12" class="edge"><title>Node1&#45;&gt;Node7</title>
<path fill="none" stroke="midnightblue" d="M164.568,-186.717C175.761,-176.768 192.919,-161.517 206.096,-149.803"/>
<polygon fill="midnightblue" stroke="midnightblue" points="208.549,-152.306 213.698,-143.046 203.899,-147.074 208.549,-152.306"/>
</g>
<!-- Node3 -->
<g id="node5" class="node"><title>Node3</title>
<a xlink:href="_core_8h.html" target="_top" xlink:title="Core.h">
<polygon fill="none" stroke="black" points="47,-59 47,-79 91,-79 91,-59 47,-59"/>
<text text-anchor="middle" x="69" y="-66" font-family="FreeSans" font-size="10.00">Core.h</text>
</a>
</g>
<!-- Node2&#45;&gt;Node3 -->
<g id="edge4" class="edge"><title>Node2&#45;&gt;Node3</title>
<path fill="none" stroke="midnightblue" d="M77.9719,-116.85C76.3923,-108.426 74.4451,-98.0406 72.7688,-89.1004"/>
<polygon fill="midnightblue" stroke="midnightblue" points="76.1845,-88.3247 70.9014,-79.141 69.3043,-89.6148 76.1845,-88.3247"/>
</g>
<!-- Node4 -->
<g id="node7" class="node"><title>Node4</title>
<polygon fill="none" stroke="#bfbfbf" points="-0.5,-1 -0.5,-21 28.5,-21 28.5,-1 -0.5,-1"/>
<text text-anchor="middle" x="14" y="-8" font-family="FreeSans" font-size="10.00">list</text>
</g>
<!-- Node3&#45;&gt;Node4 -->
<g id="edge6" class="edge"><title>Node3&#45;&gt;Node4</title>
<path fill="none" stroke="midnightblue" d="M59.4197,-58.8972C51.5514,-50.5996 40.2164,-38.6463 30.8385,-28.7569"/>
<polygon fill="midnightblue" stroke="midnightblue" points="33.2615,-26.2255 23.8408,-21.3776 28.1821,-31.0422 33.2615,-26.2255"/>
</g>
<!-- Node5 -->
<g id="node9" class="node"><title>Node5</title>
<polygon fill="none" stroke="#bfbfbf" points="45.5,-1 45.5,-21 92.5,-21 92.5,-1 45.5,-1"/>
<text text-anchor="middle" x="69" y="-8" font-family="FreeSans" font-size="10.00">lua.hpp</text>
</g>
<!-- Node3&#45;&gt;Node5 -->
<g id="edge8" class="edge"><title>Node3&#45;&gt;Node5</title>
<path fill="none" stroke="midnightblue" d="M69,-58.8972C69,-51.339 69,-40.7476 69,-31.4458"/>
<polygon fill="midnightblue" stroke="midnightblue" points="72.5001,-31.3776 69,-21.3776 65.5001,-31.3776 72.5001,-31.3776"/>
</g>
<!-- Node6 -->
<g id="node11" class="node"><title>Node6</title>
<a xlink:href="_script_exn_8h.html" target="_top" xlink:title="ScriptExn.h">
<polygon fill="none" stroke="black" points="109.5,-1 109.5,-21 174.5,-21 174.5,-1 109.5,-1"/>
<text text-anchor="middle" x="142" y="-8" font-family="FreeSans" font-size="10.00">ScriptExn.h</text>
</a>
</g>
<!-- Node3&#45;&gt;Node6 -->
<g id="edge10" class="edge"><title>Node3&#45;&gt;Node6</title>
<path fill="none" stroke="midnightblue" d="M81.7156,-58.8972C92.4693,-50.3532 108.102,-37.933 120.753,-27.8813"/>
<polygon fill="midnightblue" stroke="midnightblue" points="123.286,-30.3388 128.939,-21.3776 118.932,-24.858 123.286,-30.3388"/>
</g>
<!-- Node8 -->
<g id="node15" class="node"><title>Node8</title>
<polygon fill="none" stroke="#bfbfbf" points="109,-59 109,-79 151,-79 151,-59 109,-59"/>
<text text-anchor="middle" x="130" y="-66" font-family="FreeSans" font-size="10.00">locale</text>
</g>
<!-- Node7&#45;&gt;Node8 -->
<g id="edge14" class="edge"><title>Node7&#45;&gt;Node8</title>
<path fill="none" stroke="midnightblue" d="M209.737,-122.717C194.551,-112.487 171.042,-96.6491 153.479,-84.8174"/>
<polygon fill="midnightblue" stroke="midnightblue" points="155.161,-81.7307 144.912,-79.0462 151.25,-87.5362 155.161,-81.7307"/>
</g>
<!-- Node9 -->
<g id="node17" class="node"><title>Node9</title>
<polygon fill="none" stroke="#bfbfbf" points="169,-59 169,-79 199,-79 199,-59 169,-59"/>
<text text-anchor="middle" x="184" y="-66" font-family="FreeSans" font-size="10.00">set</text>
</g>
<!-- Node7&#45;&gt;Node9 -->
<g id="edge16" class="edge"><title>Node7&#45;&gt;Node9</title>
<path fill="none" stroke="midnightblue" d="M218.413,-122.717C212.34,-113.238 203.183,-98.9437 195.841,-87.4835"/>
<polygon fill="midnightblue" stroke="midnightblue" points="198.777,-85.5785 190.436,-79.0462 192.883,-89.3545 198.777,-85.5785"/>
</g>
<!-- Node10 -->
<g id="node19" class="node"><title>Node10</title>
<polygon fill="none" stroke="#bfbfbf" points="216.5,-59 216.5,-79 257.5,-79 257.5,-59 216.5,-59"/>
<text text-anchor="middle" x="237" y="-66" font-family="FreeSans" font-size="10.00">string</text>
</g>
<!-- Node7&#45;&gt;Node10 -->
<g id="edge18" class="edge"><title>Node7&#45;&gt;Node10</title>
<path fill="none" stroke="midnightblue" d="M226.928,-122.717C228.617,-113.707 231.122,-100.347 233.211,-89.2054"/>
<polygon fill="midnightblue" stroke="midnightblue" points="236.713,-89.5199 235.116,-79.0462 229.833,-88.2299 236.713,-89.5199"/>
</g>
<!-- Node11 -->
<g id="node21" class="node"><title>Node11</title>
<polygon fill="none" stroke="#bfbfbf" points="275,-59 275,-79 319,-79 319,-59 275,-59"/>
<text text-anchor="middle" x="297" y="-66" font-family="FreeSans" font-size="10.00">vector</text>
</g>
<!-- Node7&#45;&gt;Node11 -->
<g id="edge20" class="edge"><title>Node7&#45;&gt;Node11</title>
<path fill="none" stroke="midnightblue" d="M236.568,-122.717C247.761,-112.768 264.919,-97.5167 278.096,-85.8032"/>
<polygon fill="midnightblue" stroke="midnightblue" points="280.549,-88.3058 285.698,-79.0462 275.899,-83.0739 280.549,-88.3058"/>
</g>
<!-- Node12 -->
<g id="node23" class="node"><title>Node12</title>
<polygon fill="none" stroke="#bfbfbf" points="336.5,-59 336.5,-79 441.5,-79 441.5,-59 336.5,-59"/>
<text text-anchor="middle" x="389" y="-66" font-family="FreeSans" font-size="10.00">boost/filesystem.hpp</text>
</g>
<!-- Node7&#45;&gt;Node12 -->
<g id="edge22" class="edge"><title>Node7&#45;&gt;Node12</title>
<path fill="none" stroke="midnightblue" d="M250.986,-122.859C278.696,-112.045 322.752,-94.8528 353.616,-82.8085"/>
<polygon fill="midnightblue" stroke="midnightblue" points="355.092,-85.9896 363.135,-79.0935 352.547,-79.4685 355.092,-85.9896"/>
</g>
</g>
</svg>
