<?xml version="1.0" encoding="UTF-8" standalone="no"?>
<!DOCTYPE svg PUBLIC "-//W3C//DTD SVG 1.1//EN"
 "http://www.w3.org/Graphics/SVG/1.1/DTD/svg11.dtd">
<!-- Generated by graphviz version 2.26.3 (20100126.1600)
 -->
<!-- Title: SysConsole.cpp Pages: 1 -->
<!--zoomable 414 -->
<svg id="main" version="1.1" xmlns="http://www.w3.org/2000/svg" xmlns:xlink="http://www.w3.org/1999/xlink" xml:space="preserve" onload="init(evt)">
<style type="text/css"><![CDATA[
.edge:hover path { stroke: red; }
.edge:hover polygon { stroke: red; fill: red; }
]]></style>
<script type="text/javascript"><![CDATA[
var edges = document.getElementsByTagName('g');
if (edges && edges.length) {
  for (var i=0;i<edges.length;i++) {
    if (edges[i].id.substr(0,4)=='edge') {
      edges[i].setAttribute('class','edge');
    }
  }
}
]]></script>
        <defs>
                <circle id="rim" cx="0" cy="0" r="7"/>
                <circle id="rim2" cx="0" cy="0" r="3.5"/>
                <g id="zoomPlus">
                        <use xlink:href="#rim" fill="#404040">
                                <set attributeName="fill" to="#808080" begin="zoomplus.mouseover" end="zoomplus.mouseout"/>
                        </use>
                        <path d="M-4,0h8M0,-4v8" fill="none" stroke="white" stroke-width="1.5" pointer-events="none"/>
                </g>
                <g id="zoomMin">
                        <use xlink:href="#rim" fill="#404040">
                                <set attributeName="fill" to="#808080" begin="zoomminus.mouseover" end="zoomminus.mouseout"/>
                        </use>
                        <path d="M-4,0h8" fill="none" stroke="white" stroke-width="1.5" pointer-events="none"/>
                </g>
                <g id="dirArrow">
                        <path fill="none" stroke="white" stroke-width="1.5" d="M0,-3.0v7 M-2.5,-0.5L0,-3.0L2.5,-0.5"/>
                </g>
               <g id="resetDef">
                       <use xlink:href="#rim2" fill="#404040">
                               <set attributeName="fill" to="#808080" begin="reset.mouseover" end="reset.mouseout"/>
                       </use>
               </g>
        </defs>

<script type="text/javascript">
var viewWidth = 1100;
var viewHeight = 414;
var sectionId = 'dynsection-0';
</script>
<script xlink:href="svgpan.js"/>
<svg id="graph" class="graph">
<g id="viewport">
<title>SysConsole.cpp</title>
<!-- Node1 -->
<g id="node1" class="node"><title>Node1</title>
<polygon fill="#bfbfbf" stroke="black" points="618,-385 618,-405 704,-405 704,-385 618,-385"/>
<text text-anchor="middle" x="661" y="-392" font-family="FreeSans" font-size="10.00">SysConsole.cpp</text>
</g>
<!-- Node2 -->
<g id="node3" class="node"><title>Node2</title>
<a xlink:href="_help_handler_8h.html" target="_top" xlink:title="../../../engine/Script\l/Help/HelpHandler.h">
<polygon fill="none" stroke="black" points="0,-175 0,-207 104,-207 104,-175 0,-175"/>
<text text-anchor="start" x="8" y="-194" font-family="FreeSans" font-size="10.00">../../../engine/Script</text>
<text text-anchor="middle" x="52" y="-182" font-family="FreeSans" font-size="10.00">/Help/HelpHandler.h</text>
</a>
</g>
<!-- Node1&#45;&gt;Node2 -->
<g id="edge2" class="edge"><title>Node1&#45;&gt;Node2</title>
<path fill="none" stroke="midnightblue" d="M617.964,-391.099C539.588,-383.652 376.706,-366.493 323,-348 228.138,-315.335 129.238,-248.196 81.4011,-213.248"/>
<polygon fill="midnightblue" stroke="midnightblue" points="83.2022,-210.227 73.0757,-207.112 79.0494,-215.862 83.2022,-210.227"/>
</g>
<!-- Node3 -->
<g id="node5" class="node"><title>Node3</title>
<a xlink:href="_class_8h.html" target="_top" xlink:title="../../../engine/Script\l/Help/Class.h">
<polygon fill="none" stroke="black" points="788,-315 788,-347 884,-347 884,-315 788,-315"/>
<text text-anchor="start" x="796" y="-334" font-family="FreeSans" font-size="10.00">../../../engine/Script</text>
<text text-anchor="middle" x="836" y="-322" font-family="FreeSans" font-size="10.00">/Help/Class.h</text>
</a>
</g>
<!-- Node1&#45;&gt;Node3 -->
<g id="edge4" class="edge"><title>Node1&#45;&gt;Node3</title>
<path fill="none" stroke="midnightblue" d="M688.729,-384.859C713.775,-375.699 751.337,-361.962 782.257,-350.655"/>
<polygon fill="midnightblue" stroke="midnightblue" points="783.848,-353.799 792.038,-347.078 781.444,-347.225 783.848,-353.799"/>
</g>
<!-- Node5 -->
<g id="node9" class="node"><title>Node5</title>
<a xlink:href="_config_8h.html" target="_top" xlink:title="../../../engine/Util\l/Config.h">
<polygon fill="none" stroke="black" points="122,-175 122,-207 208,-207 208,-175 122,-175"/>
<text text-anchor="start" x="130" y="-194" font-family="FreeSans" font-size="10.00">../../../engine/Util</text>
<text text-anchor="middle" x="165" y="-182" font-family="FreeSans" font-size="10.00">/Config.h</text>
</a>
</g>
<!-- Node1&#45;&gt;Node5 -->
<g id="edge8" class="edge"><title>Node1&#45;&gt;Node5</title>
<path fill="none" stroke="midnightblue" d="M617.722,-389.781C540.05,-378.911 373.837,-348.715 253,-278 225.257,-261.764 199.882,-234.787 183.585,-215.171"/>
<polygon fill="midnightblue" stroke="midnightblue" points="186.193,-212.83 177.176,-207.268 180.756,-217.239 186.193,-212.83"/>
</g>
<!-- Node15 -->
<g id="node30" class="node"><title>Node15</title>
<a xlink:href="_log_8h.html" target="_top" xlink:title="../../../engine/Util\l/Log.h">
<polygon fill="none" stroke="black" points="831,-245 831,-277 917,-277 917,-245 831,-245"/>
<text text-anchor="start" x="839" y="-264" font-family="FreeSans" font-size="10.00">../../../engine/Util</text>
<text text-anchor="middle" x="874" y="-252" font-family="FreeSans" font-size="10.00">/Log.h</text>
</a>
</g>
<!-- Node1&#45;&gt;Node15 -->
<g id="edge30" class="edge"><title>Node1&#45;&gt;Node15</title>
<path fill="none" stroke="midnightblue" d="M680.751,-384.826C697.372,-375.933 721.484,-362.246 741,-348 759.305,-334.639 760.548,-327.156 779,-314 795.478,-302.251 814.806,-291.052 831.711,-282.001"/>
<polygon fill="midnightblue" stroke="midnightblue" points="833.603,-284.96 840.82,-277.203 830.341,-278.766 833.603,-284.96"/>
</g>
<!-- Node17 -->
<g id="node34" class="node"><title>Node17</title>
<a xlink:href="_game_director_8h.html" target="_top" xlink:title="../GameDirector.h">
<polygon fill="none" stroke="black" points="902,-321 902,-341 994,-341 994,-321 902,-321"/>
<text text-anchor="middle" x="948" y="-328" font-family="FreeSans" font-size="10.00">../GameDirector.h</text>
</a>
</g>
<!-- Node1&#45;&gt;Node17 -->
<g id="edge34" class="edge"><title>Node1&#45;&gt;Node17</title>
<path fill="none" stroke="midnightblue" d="M704.05,-387.609C750.849,-379.265 827.695,-364.663 893,-348 897.715,-346.797 902.626,-345.437 907.488,-344.022"/>
<polygon fill="midnightblue" stroke="midnightblue" points="908.745,-347.299 917.319,-341.077 906.736,-340.594 908.745,-347.299"/>
</g>
<!-- Node18 -->
<g id="node36" class="node"><title>Node18</title>
<a xlink:href="_debug_peer_8h.html" target="_top" xlink:title="DebugPeer.h">
<polygon fill="none" stroke="black" points="429,-251 429,-271 501,-271 501,-251 429,-251"/>
<text text-anchor="middle" x="465" y="-258" font-family="FreeSans" font-size="10.00">DebugPeer.h</text>
</a>
</g>
<!-- Node1&#45;&gt;Node18 -->
<g id="edge36" class="edge"><title>Node1&#45;&gt;Node18</title>
<path fill="none" stroke="midnightblue" d="M646.268,-384.928C612.416,-361.785 528.868,-304.665 488.109,-276.799"/>
<polygon fill="midnightblue" stroke="midnightblue" points="489.866,-273.76 479.635,-271.006 485.915,-279.539 489.866,-273.76"/>
</g>
<!-- Node24 -->
<g id="node49" class="node"><title>Node24</title>
<a xlink:href="_game_peer_8h.html" target="_top" xlink:title="GamePeer.h">
<polygon fill="none" stroke="black" points="518.5,-251 518.5,-271 589.5,-271 589.5,-251 518.5,-251"/>
<text text-anchor="middle" x="554" y="-258" font-family="FreeSans" font-size="10.00">GamePeer.h</text>
</a>
</g>
<!-- Node1&#45;&gt;Node24 -->
<g id="edge50" class="edge"><title>Node1&#45;&gt;Node24</title>
<path fill="none" stroke="midnightblue" d="M652.958,-384.928C634.987,-362.423 591.363,-307.791 568.51,-279.171"/>
<polygon fill="midnightblue" stroke="midnightblue" points="571.111,-276.819 562.136,-271.189 565.641,-281.187 571.111,-276.819"/>
</g>
<!-- Node25 -->
<g id="node55" class="node"><title>Node25</title>
<a xlink:href="_input_peer_8h.html" target="_top" xlink:title="InputPeer.h">
<polygon fill="none" stroke="black" points="607,-251 607,-271 673,-271 673,-251 607,-251"/>
<text text-anchor="middle" x="640" y="-258" font-family="FreeSans" font-size="10.00">InputPeer.h</text>
</a>
</g>
<!-- Node1&#45;&gt;Node25 -->
<g id="edge60" class="edge"><title>Node1&#45;&gt;Node25</title>
<path fill="none" stroke="midnightblue" d="M657.251,-384.7C653.987,-375.278 649.41,-360.888 647,-348 642.752,-325.288 641.081,-298.767 640.424,-281.032"/>
<polygon fill="midnightblue" stroke="midnightblue" points="643.922,-280.897 640.127,-271.005 636.925,-281.105 643.922,-280.897"/>
</g>
<!-- Node26 -->
<g id="node59" class="node"><title>Node26</title>
<a xlink:href="_meta_session_8h.html" target="_top" xlink:title="MetaSession.h">
<polygon fill="none" stroke="black" points="1011.5,-321 1011.5,-341 1092.5,-341 1092.5,-321 1011.5,-321"/>
<text text-anchor="middle" x="1052" y="-328" font-family="FreeSans" font-size="10.00">MetaSession.h</text>
</a>
</g>
<!-- Node1&#45;&gt;Node26 -->
<g id="edge66" class="edge"><title>Node1&#45;&gt;Node26</title>
<path fill="none" stroke="midnightblue" d="M704.158,-391.818C769.522,-386.383 897.218,-373.356 1003,-348 1007.4,-346.944 1011.97,-345.647 1016.46,-344.244"/>
<polygon fill="midnightblue" stroke="midnightblue" points="1017.7,-347.522 1026.09,-341.057 1015.5,-340.877 1017.7,-347.522"/>
</g>
<!-- Node27 -->
<g id="node61" class="node"><title>Node27</title>
<a xlink:href="_sys_console_8h.html" target="_top" xlink:title="SysConsole.h">
<polygon fill="none" stroke="black" points="656,-321 656,-341 732,-341 732,-321 656,-321"/>
<text text-anchor="middle" x="694" y="-328" font-family="FreeSans" font-size="10.00">SysConsole.h</text>
</a>
</g>
<!-- Node1&#45;&gt;Node27 -->
<g id="edge68" class="edge"><title>Node1&#45;&gt;Node27</title>
<path fill="none" stroke="midnightblue" d="M666.302,-384.717C671.093,-375.425 678.269,-361.508 684.117,-350.168"/>
<polygon fill="midnightblue" stroke="midnightblue" points="687.348,-351.538 688.82,-341.046 681.126,-348.33 687.348,-351.538"/>
</g>
<!-- Node4 -->
<g id="node7" class="node"><title>Node4</title>
<a xlink:href="_method_8h.html" target="_top" xlink:title="Method.h">
<polygon fill="none" stroke="black" points="935,-251 935,-271 991,-271 991,-251 935,-251"/>
<text text-anchor="middle" x="963" y="-258" font-family="FreeSans" font-size="10.00">Method.h</text>
</a>
</g>
<!-- Node3&#45;&gt;Node4 -->
<g id="edge6" class="edge"><title>Node3&#45;&gt;Node4</title>
<path fill="none" stroke="midnightblue" d="M865.136,-314.941C886.347,-303.25 914.878,-287.524 935.66,-276.069"/>
<polygon fill="midnightblue" stroke="midnightblue" points="937.54,-279.03 944.608,-271.137 934.161,-272.899 937.54,-279.03"/>
</g>
<!-- Node6 -->
<g id="node11" class="node"><title>Node6</title>
<polygon fill="none" stroke="#bfbfbf" points="91.5,-59 91.5,-79 132.5,-79 132.5,-59 91.5,-59"/>
<text text-anchor="middle" x="112" y="-66" font-family="FreeSans" font-size="10.00">string</text>
</g>
<!-- Node5&#45;&gt;Node6 -->
<g id="edge10" class="edge"><title>Node5&#45;&gt;Node6</title>
<path fill="none" stroke="midnightblue" d="M152.606,-174.554C145.466,-164.444 136.789,-150.979 131,-138 123.971,-122.241 118.977,-103.274 115.878,-89.2178"/>
<polygon fill="midnightblue" stroke="midnightblue" points="119.25,-88.2365 113.797,-79.1524 112.395,-89.654 119.25,-88.2365"/>
</g>
<!-- Node7 -->
<g id="node13" class="node"><title>Node7</title>
<polygon fill="none" stroke="#bfbfbf" points="140,-117 140,-137 196,-137 196,-117 140,-117"/>
<text text-anchor="middle" x="168" y="-124" font-family="FreeSans" font-size="10.00">basedir.h</text>
</g>
<!-- Node5&#45;&gt;Node7 -->
<g id="edge12" class="edge"><title>Node5&#45;&gt;Node7</title>
<path fill="none" stroke="midnightblue" d="M165.757,-174.85C166.148,-166.518 166.628,-156.269 167.044,-147.396"/>
<polygon fill="midnightblue" stroke="midnightblue" points="170.552,-147.294 167.525,-137.141 163.56,-146.966 170.552,-147.294"/>
</g>
<!-- Node8 -->
<g id="node15" class="node"><title>Node8</title>
<a xlink:href="_o_s_8h.html" target="_top" xlink:title="OS.h">
<polygon fill="none" stroke="black" points="217,-117 217,-137 255,-137 255,-117 217,-117"/>
<text text-anchor="middle" x="236" y="-124" font-family="FreeSans" font-size="10.00">OS.h</text>
</a>
</g>
<!-- Node5&#45;&gt;Node8 -->
<g id="edge14" class="edge"><title>Node5&#45;&gt;Node8</title>
<path fill="none" stroke="midnightblue" d="M182.916,-174.85C193.392,-165.407 206.6,-153.501 217.221,-143.928"/>
<polygon fill="midnightblue" stroke="midnightblue" points="219.665,-146.436 224.75,-137.141 214.979,-141.237 219.665,-146.436"/>
</g>
<!-- Node8&#45;&gt;Node6 -->
<g id="edge20" class="edge"><title>Node8&#45;&gt;Node6</title>
<path fill="none" stroke="midnightblue" d="M216.897,-118.065C196.835,-108.681 165.019,-93.799 141.682,-82.8834"/>
<polygon fill="midnightblue" stroke="midnightblue" points="143.113,-79.6888 132.572,-78.6223 140.147,-86.0295 143.113,-79.6888"/>
</g>
<!-- Node9 -->
<g id="node17" class="node"><title>Node9</title>
<polygon fill="none" stroke="#bfbfbf" points="150,-59 150,-79 192,-79 192,-59 150,-59"/>
<text text-anchor="middle" x="171" y="-66" font-family="FreeSans" font-size="10.00">locale</text>
</g>
<!-- Node8&#45;&gt;Node9 -->
<g id="edge16" class="edge"><title>Node8&#45;&gt;Node9</title>
<path fill="none" stroke="midnightblue" d="M224.678,-116.897C215.195,-108.435 201.451,-96.1715 190.244,-86.1719"/>
<polygon fill="midnightblue" stroke="midnightblue" points="192.422,-83.424 182.63,-79.3776 187.761,-88.647 192.422,-83.424"/>
</g>
<!-- Node10 -->
<g id="node19" class="node"><title>Node10</title>
<polygon fill="none" stroke="#bfbfbf" points="210,-59 210,-79 240,-79 240,-59 210,-59"/>
<text text-anchor="middle" x="225" y="-66" font-family="FreeSans" font-size="10.00">set</text>
</g>
<!-- Node8&#45;&gt;Node10 -->
<g id="edge18" class="edge"><title>Node8&#45;&gt;Node10</title>
<path fill="none" stroke="midnightblue" d="M234.084,-116.897C232.651,-109.339 230.642,-98.7476 228.878,-89.4458"/>
<polygon fill="midnightblue" stroke="midnightblue" points="232.27,-88.5503 226.968,-79.3776 225.393,-89.8547 232.27,-88.5503"/>
</g>
<!-- Node11 -->
<g id="node22" class="node"><title>Node11</title>
<polygon fill="none" stroke="#bfbfbf" points="258,-59 258,-79 302,-79 302,-59 258,-59"/>
<text text-anchor="middle" x="280" y="-66" font-family="FreeSans" font-size="10.00">vector</text>
</g>
<!-- Node8&#45;&gt;Node11 -->
<g id="edge22" class="edge"><title>Node8&#45;&gt;Node11</title>
<path fill="none" stroke="midnightblue" d="M243.664,-116.897C249.834,-108.764 258.669,-97.1183 266.082,-87.3468"/>
<polygon fill="midnightblue" stroke="midnightblue" points="268.872,-89.4599 272.127,-79.3776 263.295,-85.2292 268.872,-89.4599"/>
</g>
<!-- Node12 -->
<g id="node24" class="node"><title>Node12</title>
<polygon fill="none" stroke="#bfbfbf" points="319.5,-59 319.5,-79 424.5,-79 424.5,-59 319.5,-59"/>
<text text-anchor="middle" x="372" y="-66" font-family="FreeSans" font-size="10.00">boost/filesystem.hpp</text>
</g>
<!-- Node8&#45;&gt;Node12 -->
<g id="edge24" class="edge"><title>Node8&#45;&gt;Node12</title>
<path fill="none" stroke="midnightblue" d="M255.197,-118.813C276.882,-109.565 312.562,-94.3485 338.791,-83.1628"/>
<polygon fill="midnightblue" stroke="midnightblue" points="340.506,-86.2364 348.331,-79.094 337.76,-79.7975 340.506,-86.2364"/>
</g>
<!-- Node13 -->
<g id="node26" class="node"><title>Node13</title>
<a xlink:href="_m_r___types_8h.html" target="_top" xlink:title="MR_Types.h">
<polygon fill="none" stroke="black" points="441.5,-59 441.5,-79 512.5,-79 512.5,-59 441.5,-59"/>
<text text-anchor="middle" x="477" y="-66" font-family="FreeSans" font-size="10.00">MR_Types.h</text>
</a>
</g>
<!-- Node8&#45;&gt;Node13 -->
<g id="edge26" class="edge"><title>Node8&#45;&gt;Node13</title>
<path fill="none" stroke="midnightblue" d="M255.169,-120.65C260.287,-119.044 265.832,-117.384 271,-116 339.186,-97.745 359.49,-96.9792 431.462,-80.3101"/>
<polygon fill="midnightblue" stroke="midnightblue" points="432.539,-83.6528 441.478,-77.9657 430.943,-76.837 432.539,-83.6528"/>
</g>
<!-- Node14 -->
<g id="node28" class="node"><title>Node14</title>
<polygon fill="none" stroke="#bfbfbf" points="448,-1 448,-21 506,-21 506,-1 448,-1"/>
<text text-anchor="middle" x="477" y="-8" font-family="FreeSans" font-size="10.00">inttypes.h</text>
</g>
<!-- Node13&#45;&gt;Node14 -->
<g id="edge28" class="edge"><title>Node13&#45;&gt;Node14</title>
<path fill="none" stroke="midnightblue" d="M477,-58.8972C477,-51.339 477,-40.7476 477,-31.4458"/>
<polygon fill="midnightblue" stroke="midnightblue" points="480.5,-31.3776 477,-21.3776 473.5,-31.3776 480.5,-31.3776"/>
</g>
<!-- Node16 -->
<g id="node32" class="node"><title>Node16</title>
<polygon fill="none" stroke="#bfbfbf" points="823.5,-181 823.5,-201 924.5,-201 924.5,-181 823.5,-181"/>
<text text-anchor="middle" x="874" y="-188" font-family="FreeSans" font-size="10.00">boost/log/trivial.hpp</text>
</g>
<!-- Node15&#45;&gt;Node16 -->
<g id="edge32" class="edge"><title>Node15&#45;&gt;Node16</title>
<path fill="none" stroke="midnightblue" d="M874,-244.765C874,-234.813 874,-221.987 874,-211.359"/>
<polygon fill="midnightblue" stroke="midnightblue" points="877.5,-211.291 874,-201.291 870.5,-211.291 877.5,-211.291"/>
</g>
<!-- Node19 -->
<g id="node38" class="node"><title>Node19</title>
<polygon fill="none" stroke="#bfbfbf" points="415.5,-181 415.5,-201 514.5,-201 514.5,-181 415.5,-181"/>
<text text-anchor="middle" x="465" y="-188" font-family="FreeSans" font-size="10.00">luabind/luabind.hpp</text>
</g>
<!-- Node18&#45;&gt;Node19 -->
<g id="edge38" class="edge"><title>Node18&#45;&gt;Node19</title>
<path fill="none" stroke="midnightblue" d="M465,-250.971C465,-240.679 465,-224.375 465,-211.364"/>
<polygon fill="midnightblue" stroke="midnightblue" points="468.5,-211.011 465,-201.011 461.5,-211.011 468.5,-211.011"/>
</g>
<!-- Node20 -->
<g id="node40" class="node"><title>Node20</title>
<polygon fill="none" stroke="#bfbfbf" points="532.5,-59 532.5,-79 627.5,-79 627.5,-59 532.5,-59"/>
<text text-anchor="middle" x="580" y="-66" font-family="FreeSans" font-size="10.00">luabind/object.hpp</text>
</g>
<!-- Node18&#45;&gt;Node20 -->
<g id="edge40" class="edge"><title>Node18&#45;&gt;Node20</title>
<path fill="none" stroke="midnightblue" d="M447.648,-250.894C433.748,-241.7 415.253,-226.722 407,-208 400.904,-194.173 399.588,-187.169 407,-174 434.041,-125.955 492.933,-97.3586 534.468,-82.4199"/>
<polygon fill="midnightblue" stroke="midnightblue" points="535.792,-85.6654 544.098,-79.0873 533.503,-79.0503 535.792,-85.6654"/>
</g>
<!-- Node21 -->
<g id="node42" class="node"><title>Node21</title>
<a xlink:href="_handlers_8h.html" target="_top" xlink:title="../../../engine/Script\l/Handlers.h">
<polygon fill="none" stroke="black" points="532,-175 532,-207 628,-207 628,-175 532,-175"/>
<text text-anchor="start" x="540" y="-194" font-family="FreeSans" font-size="10.00">../../../engine/Script</text>
<text text-anchor="middle" x="580" y="-182" font-family="FreeSans" font-size="10.00">/Handlers.h</text>
</a>
</g>
<!-- Node18&#45;&gt;Node21 -->
<g id="edge42" class="edge"><title>Node18&#45;&gt;Node21</title>
<path fill="none" stroke="midnightblue" d="M481.477,-250.971C497.888,-240.981 523.603,-225.328 544.647,-212.519"/>
<polygon fill="midnightblue" stroke="midnightblue" points="546.617,-215.418 553.339,-207.228 542.977,-209.438 546.617,-215.418"/>
</g>
<!-- Node23 -->
<g id="node47" class="node"><title>Node23</title>
<a xlink:href="_peer_8h.html" target="_top" xlink:title="../../../engine/Script\l/Peer.h">
<polygon fill="none" stroke="black" points="684,-175 684,-207 780,-207 780,-175 684,-175"/>
<text text-anchor="start" x="692" y="-194" font-family="FreeSans" font-size="10.00">../../../engine/Script</text>
<text text-anchor="middle" x="732" y="-182" font-family="FreeSans" font-size="10.00">/Peer.h</text>
</a>
</g>
<!-- Node18&#45;&gt;Node23 -->
<g id="edge48" class="edge"><title>Node18&#45;&gt;Node23</title>
<path fill="none" stroke="midnightblue" d="M490.033,-250.9C496.483,-248.475 503.453,-246.009 510,-244 564.939,-227.139 628.881,-212.372 673.992,-202.738"/>
<polygon fill="midnightblue" stroke="midnightblue" points="674.834,-206.137 683.892,-200.641 673.384,-199.289 674.834,-206.137"/>
</g>
<!-- Node21&#45;&gt;Node20 -->
<g id="edge44" class="edge"><title>Node21&#45;&gt;Node20</title>
<path fill="none" stroke="midnightblue" d="M580,-174.799C580,-152.753 580,-113.307 580,-89.3082"/>
<polygon fill="midnightblue" stroke="midnightblue" points="583.5,-89.1991 580,-79.1992 576.5,-89.1992 583.5,-89.1991"/>
</g>
<!-- Node22 -->
<g id="node45" class="node"><title>Node22</title>
<a xlink:href="_registry_ref_8h.html" target="_top" xlink:title="RegistryRef.h">
<polygon fill="none" stroke="black" points="280,-117 280,-137 354,-137 354,-117 280,-117"/>
<text text-anchor="middle" x="317" y="-124" font-family="FreeSans" font-size="10.00">RegistryRef.h</text>
</a>
</g>
<!-- Node21&#45;&gt;Node22 -->
<g id="edge46" class="edge"><title>Node21&#45;&gt;Node22</title>
<path fill="none" stroke="midnightblue" d="M531.86,-176.401C528.868,-175.569 525.896,-174.761 523,-174 468.757,-159.74 405.827,-145.748 363.935,-136.791"/>
<polygon fill="midnightblue" stroke="midnightblue" points="364.527,-133.339 354.018,-134.681 363.07,-140.186 364.527,-133.339"/>
</g>
<!-- Node24&#45;&gt;Node19 -->
<g id="edge52" class="edge"><title>Node24&#45;&gt;Node19</title>
<path fill="none" stroke="midnightblue" d="M541.248,-250.971C526.841,-239.639 503.169,-221.021 486.018,-207.531"/>
<polygon fill="midnightblue" stroke="midnightblue" points="487.752,-204.442 477.728,-201.011 483.424,-209.944 487.752,-204.442"/>
</g>
<!-- Node24&#45;&gt;Node20 -->
<g id="edge54" class="edge"><title>Node24&#45;&gt;Node20</title>
<path fill="none" stroke="midnightblue" d="M583.008,-250.967C602.092,-242.675 625.58,-228.841 637,-208 659.83,-166.334 621.312,-113.587 597.191,-86.6239"/>
<polygon fill="midnightblue" stroke="midnightblue" points="599.612,-84.087 590.251,-79.1245 594.474,-88.8414 599.612,-84.087"/>
</g>
<!-- Node24&#45;&gt;Node21 -->
<g id="edge56" class="edge"><title>Node24&#45;&gt;Node21</title>
<path fill="none" stroke="midnightblue" d="M557.725,-250.971C561.038,-242.051 566.028,-228.618 570.445,-216.724"/>
<polygon fill="midnightblue" stroke="midnightblue" points="573.771,-217.821 573.972,-207.228 567.209,-215.384 573.771,-217.821"/>
</g>
<!-- Node24&#45;&gt;Node23 -->
<g id="edge58" class="edge"><title>Node24&#45;&gt;Node23</title>
<path fill="none" stroke="midnightblue" d="M579.503,-250.971C606.014,-240.545 648.208,-223.952 681.499,-210.86"/>
<polygon fill="midnightblue" stroke="midnightblue" points="683.049,-214.011 691.074,-207.094 680.487,-207.497 683.049,-214.011"/>
</g>
<!-- Node25&#45;&gt;Node21 -->
<g id="edge62" class="edge"><title>Node25&#45;&gt;Node21</title>
<path fill="none" stroke="midnightblue" d="M631.403,-250.971C623.376,-241.605 611.082,-227.263 600.53,-214.952"/>
<polygon fill="midnightblue" stroke="midnightblue" points="603.075,-212.543 593.91,-207.228 597.761,-217.099 603.075,-212.543"/>
</g>
<!-- Node25&#45;&gt;Node23 -->
<g id="edge64" class="edge"><title>Node25&#45;&gt;Node23</title>
<path fill="none" stroke="midnightblue" d="M653.181,-250.971C665.959,-241.249 685.786,-226.163 702.357,-213.554"/>
<polygon fill="midnightblue" stroke="midnightblue" points="704.832,-216.069 710.671,-207.228 700.594,-210.498 704.832,-216.069"/>
</g>
<!-- Node27&#45;&gt;Node15 -->
<g id="edge72" class="edge"><title>Node27&#45;&gt;Node15</title>
<path fill="none" stroke="midnightblue" d="M719.79,-320.971C746.598,-310.545 789.266,-293.952 822.932,-280.86"/>
<polygon fill="midnightblue" stroke="midnightblue" points="824.563,-283.981 832.614,-277.094 822.026,-277.457 824.563,-283.981"/>
</g>
<!-- Node28 -->
<g id="node63" class="node"><title>Node28</title>
<polygon fill="none" stroke="#bfbfbf" points="691,-251 691,-271 813,-271 813,-251 691,-251"/>
<text text-anchor="middle" x="752" y="-258" font-family="FreeSans" font-size="10.00">boost/circular_buffer.hpp</text>
</g>
<!-- Node27&#45;&gt;Node28 -->
<g id="edge70" class="edge"><title>Node27&#45;&gt;Node28</title>
<path fill="none" stroke="midnightblue" d="M702.31,-320.971C711.355,-310.055 726.002,-292.377 737.055,-279.037"/>
<polygon fill="midnightblue" stroke="midnightblue" points="740.02,-280.944 743.705,-271.011 734.63,-276.478 740.02,-280.944"/>
</g>
<!-- Node29 -->
<g id="node66" class="node"><title>Node29</title>
<a xlink:href="_console_8h.html" target="_top" xlink:title="Console.h">
<polygon fill="none" stroke="black" points="261.5,-251 261.5,-271 320.5,-271 320.5,-251 261.5,-251"/>
<text text-anchor="middle" x="291" y="-258" font-family="FreeSans" font-size="10.00">Console.h</text>
</a>
</g>
<!-- Node27&#45;&gt;Node29 -->
<g id="edge74" class="edge"><title>Node27&#45;&gt;Node29</title>
<path fill="none" stroke="midnightblue" d="M655.723,-324.351C579.194,-311.058 408.018,-281.326 330.495,-267.86"/>
<polygon fill="midnightblue" stroke="midnightblue" points="331.088,-264.411 320.637,-266.148 329.89,-271.308 331.088,-264.411"/>
</g>
<!-- Node29&#45;&gt;Node2 -->
<g id="edge100" class="edge"><title>Node29&#45;&gt;Node2</title>
<path fill="none" stroke="midnightblue" d="M261.214,-252.276C224.531,-241.532 161.27,-223.004 113.891,-209.127"/>
<polygon fill="midnightblue" stroke="midnightblue" points="114.617,-205.693 104.037,-206.241 112.65,-212.411 114.617,-205.693"/>
</g>
<!-- Node29&#45;&gt;Node8 -->
<g id="edge98" class="edge"><title>Node29&#45;&gt;Node8</title>
<path fill="none" stroke="midnightblue" d="M282.317,-250.721C274.12,-240.51 262.062,-224.093 255,-208 246.37,-188.334 241.355,-164.188 238.667,-147.4"/>
<polygon fill="midnightblue" stroke="midnightblue" points="242.071,-146.487 237.163,-137.098 235.145,-147.499 242.071,-146.487"/>
</g>
<!-- Node30 -->
<g id="node68" class="node"><title>Node30</title>
<a xlink:href="_env_8h.html" target="_top" xlink:title="../../../engine/Script\l/Env.h">
<polygon fill="none" stroke="black" points="264,-175 264,-207 360,-207 360,-175 264,-175"/>
<text text-anchor="start" x="272" y="-194" font-family="FreeSans" font-size="10.00">../../../engine/Script</text>
<text text-anchor="middle" x="312" y="-182" font-family="FreeSans" font-size="10.00">/Env.h</text>
</a>
</g>
<!-- Node29&#45;&gt;Node30 -->
<g id="edge76" class="edge"><title>Node29&#45;&gt;Node30</title>
<path fill="none" stroke="midnightblue" d="M294.009,-250.971C296.658,-242.141 300.634,-228.886 304.176,-217.081"/>
<polygon fill="midnightblue" stroke="midnightblue" points="307.61,-217.812 307.131,-207.228 300.906,-215.801 307.61,-217.812"/>
</g>
<!-- Node30&#45;&gt;Node8 -->
<g id="edge78" class="edge"><title>Node30&#45;&gt;Node8</title>
<path fill="none" stroke="midnightblue" d="M292.822,-174.85C281.499,-165.315 267.193,-153.268 255.768,-143.647"/>
<polygon fill="midnightblue" stroke="midnightblue" points="257.946,-140.905 248.042,-137.141 253.437,-146.26 257.946,-140.905"/>
</g>
<!-- Node30&#45;&gt;Node22 -->
<g id="edge96" class="edge"><title>Node30&#45;&gt;Node22</title>
<path fill="none" stroke="midnightblue" d="M313.262,-174.85C313.913,-166.518 314.713,-156.269 315.407,-147.396"/>
<polygon fill="midnightblue" stroke="midnightblue" points="318.918,-147.383 316.208,-137.141 311.939,-146.838 318.918,-147.383"/>
</g>
<!-- Node31 -->
<g id="node71" class="node"><title>Node31</title>
<a xlink:href="_core_8h.html" target="_top" xlink:title="Core.h">
<polygon fill="none" stroke="black" points="684,-117 684,-137 728,-137 728,-117 684,-117"/>
<text text-anchor="middle" x="706" y="-124" font-family="FreeSans" font-size="10.00">Core.h</text>
</a>
</g>
<!-- Node30&#45;&gt;Node31 -->
<g id="edge80" class="edge"><title>Node30&#45;&gt;Node31</title>
<path fill="none" stroke="midnightblue" d="M360.295,-182.154C375.254,-179.469 391.799,-176.555 407,-174 503.921,-157.713 618.818,-140.137 673.692,-131.849"/>
<polygon fill="midnightblue" stroke="midnightblue" points="674.477,-135.271 683.843,-130.319 673.433,-128.349 674.477,-135.271"/>
</g>
<!-- Node31&#45;&gt;Node20 -->
<g id="edge84" class="edge"><title>Node31&#45;&gt;Node20</title>
<path fill="none" stroke="midnightblue" d="M684.052,-116.897C663.94,-107.639 633.941,-93.83 611.314,-83.4145"/>
<polygon fill="midnightblue" stroke="midnightblue" points="612.666,-80.1838 602.119,-79.1817 609.739,-86.5425 612.666,-80.1838"/>
</g>
<!-- Node32 -->
<g id="node73" class="node"><title>Node32</title>
<polygon fill="none" stroke="#bfbfbf" points="644.5,-59 644.5,-79 673.5,-79 673.5,-59 644.5,-59"/>
<text text-anchor="middle" x="659" y="-66" font-family="FreeSans" font-size="10.00">list</text>
</g>
<!-- Node31&#45;&gt;Node32 -->
<g id="edge82" class="edge"><title>Node31&#45;&gt;Node32</title>
<path fill="none" stroke="midnightblue" d="M697.813,-116.897C691.223,-108.764 681.786,-97.1183 673.867,-87.3468"/>
<polygon fill="midnightblue" stroke="midnightblue" points="676.425,-84.9434 667.409,-79.3776 670.986,-89.3505 676.425,-84.9434"/>
</g>
<!-- Node33 -->
<g id="node76" class="node"><title>Node33</title>
<a xlink:href="_lua_8h.html" target="_top" xlink:title="Lua.h">
<polygon fill="none" stroke="black" points="690.5,-59 690.5,-79 731.5,-79 731.5,-59 690.5,-59"/>
<text text-anchor="middle" x="711" y="-66" font-family="FreeSans" font-size="10.00">Lua.h</text>
</a>
</g>
<!-- Node31&#45;&gt;Node33 -->
<g id="edge86" class="edge"><title>Node31&#45;&gt;Node33</title>
<path fill="none" stroke="midnightblue" d="M706.871,-116.897C707.522,-109.339 708.436,-98.7476 709.237,-89.4458"/>
<polygon fill="midnightblue" stroke="midnightblue" points="712.733,-89.6413 710.105,-79.3776 705.759,-89.04 712.733,-89.6413"/>
</g>
<!-- Node37 -->
<g id="node84" class="node"><title>Node37</title>
<a xlink:href="_script_exn_8h.html" target="_top" xlink:title="ScriptExn.h">
<polygon fill="none" stroke="black" points="748.5,-59 748.5,-79 813.5,-79 813.5,-59 748.5,-59"/>
<text text-anchor="middle" x="781" y="-66" font-family="FreeSans" font-size="10.00">ScriptExn.h</text>
</a>
</g>
<!-- Node31&#45;&gt;Node37 -->
<g id="edge94" class="edge"><title>Node31&#45;&gt;Node37</title>
<path fill="none" stroke="midnightblue" d="M719.064,-116.897C730.287,-108.218 746.683,-95.5384 759.786,-85.4053"/>
<polygon fill="midnightblue" stroke="midnightblue" points="762.065,-88.0679 767.834,-79.1817 757.782,-82.5305 762.065,-88.0679"/>
</g>
<!-- Node34 -->
<g id="node78" class="node"><title>Node34</title>
<polygon fill="none" stroke="#bfbfbf" points="633.5,-1 633.5,-21 670.5,-21 670.5,-1 633.5,-1"/>
<text text-anchor="middle" x="652" y="-8" font-family="FreeSans" font-size="10.00">lua.h</text>
</g>
<!-- Node33&#45;&gt;Node34 -->
<g id="edge88" class="edge"><title>Node33&#45;&gt;Node34</title>
<path fill="none" stroke="midnightblue" d="M700.723,-58.8972C692.199,-50.5175 679.882,-38.4093 669.765,-28.4638"/>
<polygon fill="midnightblue" stroke="midnightblue" points="672.141,-25.8921 662.557,-21.3776 667.234,-30.884 672.141,-25.8921"/>
</g>
<!-- Node35 -->
<g id="node80" class="node"><title>Node35</title>
<polygon fill="none" stroke="#bfbfbf" points="687.5,-1 687.5,-21 734.5,-21 734.5,-1 687.5,-1"/>
<text text-anchor="middle" x="711" y="-8" font-family="FreeSans" font-size="10.00">lualib.h</text>
</g>
<!-- Node33&#45;&gt;Node35 -->
<g id="edge90" class="edge"><title>Node33&#45;&gt;Node35</title>
<path fill="none" stroke="midnightblue" d="M711,-58.8972C711,-51.339 711,-40.7476 711,-31.4458"/>
<polygon fill="midnightblue" stroke="midnightblue" points="714.5,-31.3776 711,-21.3776 707.5,-31.3776 714.5,-31.3776"/>
</g>
<!-- Node36 -->
<g id="node82" class="node"><title>Node36</title>
<polygon fill="none" stroke="#bfbfbf" points="751.5,-1 751.5,-21 802.5,-21 802.5,-1 751.5,-1"/>
<text text-anchor="middle" x="777" y="-8" font-family="FreeSans" font-size="10.00">lauxlib.h</text>
</g>
<!-- Node33&#45;&gt;Node36 -->
<g id="edge92" class="edge"><title>Node33&#45;&gt;Node36</title>
<path fill="none" stroke="midnightblue" d="M722.496,-58.8972C732.125,-50.4353 746.081,-38.1715 757.46,-28.1719"/>
<polygon fill="midnightblue" stroke="midnightblue" points="759.99,-30.6079 765.191,-21.3776 755.369,-25.3497 759.99,-30.6079"/>
</g>
</g>
</svg>
        <g id="navigator" transform="translate(0 0)" fill="#404254">
                <rect fill="#f2f5e9" fill-opacity="0.5" stroke="#606060" stroke-width=".5" x="0" y="0" width="60" height="60"/>
                <use id="zoomplus" xlink:href="#zoomPlus" x="17" y="9" onmousedown="handleZoom(evt,'in')"/>
                <use id="zoomminus" xlink:href="#zoomMin" x="42" y="9" onmousedown="handleZoom(evt,'out')"/>
                <use id="reset" xlink:href="#resetDef" x="30" y="36" onmousedown="handleReset()"/>
                <g id="arrowUp" xlink:href="#dirArrow" transform="translate(30 24)" onmousedown="handlePan(0,-1)">
                  <use xlink:href="#rim" fill="#404040">
                        <set attributeName="fill" to="#808080" begin="arrowUp.mouseover" end="arrowUp.mouseout"/>
                  </use>
                  <path fill="none" stroke="white" stroke-width="1.5" d="M0,-3.0v7 M-2.5,-0.5L0,-3.0L2.5,-0.5"/>
                </g>
                <g id="arrowRight" xlink:href="#dirArrow" transform="rotate(90) translate(36 -43)" onmousedown="handlePan(1,0)">
                  <use xlink:href="#rim" fill="#404040">
                        <set attributeName="fill" to="#808080" begin="arrowRight.mouseover" end="arrowRight.mouseout"/>
                  </use>
                  <path fill="none" stroke="white" stroke-width="1.5" d="M0,-3.0v7 M-2.5,-0.5L0,-3.0L2.5,-0.5"/>
                </g>
                <g id="arrowDown" xlink:href="#dirArrow" transform="rotate(180) translate(-30 -48)" onmousedown="handlePan(0,1)">
                  <use xlink:href="#rim" fill="#404040">
                        <set attributeName="fill" to="#808080" begin="arrowDown.mouseover" end="arrowDown.mouseout"/>
                  </use>
                  <path fill="none" stroke="white" stroke-width="1.5" d="M0,-3.0v7 M-2.5,-0.5L0,-3.0L2.5,-0.5"/>
                </g>
                <g id="arrowLeft" xlink:href="#dirArrow" transform="rotate(270) translate(-36 17)" onmousedown="handlePan(-1,0)">
                  <use xlink:href="#rim" fill="#404040">
                        <set attributeName="fill" to="#808080" begin="arrowLeft.mouseover" end="arrowLeft.mouseout"/>
                  </use>
                  <path fill="none" stroke="white" stroke-width="1.5" d="M0,-3.0v7 M-2.5,-0.5L0,-3.0L2.5,-0.5"/>
                </g>
        </g>
        <svg viewBox="0 0 15 15" width="100%" height="30px" preserveAspectRatio="xMaxYMin meet">
         <g id="arrow_out" transform="scale(0.3 0.3)">
          <a xlink:href="_sys_console_8cpp__incl_org.svg" target="_base">
           <rect id="button" ry="5" rx="5" y="6" x="6" height="38" width="38"
                fill="#f2f5e9" fill-opacity="0.5" stroke="#606060" stroke-width="1.0"/>
           <path id="arrow"
             d="M 11.500037,31.436501 C 11.940474,20.09759 22.043105,11.32322 32.158766,21.979434 L 37.068811,17.246167 C 37.068811,17.246167 37.088388,32 37.088388,32 L 22.160133,31.978069 C 22.160133,31.978069 26.997745,27.140456 26.997745,27.140456 C 18.528582,18.264221 13.291696,25.230495 11.500037,31.436501 z"
             style="fill:#404040;"/>
          </a>
         </g>
        </svg>
</svg>
