<?xml version="1.0" encoding="UTF-8" standalone="no"?>
<!DOCTYPE svg PUBLIC "-//W3C//DTD SVG 1.1//EN"
 "http://www.w3.org/Graphics/SVG/1.1/DTD/svg11.dtd">
<!-- Generated by graphviz version 2.26.3 (20100126.1600)
 -->
<!-- Title: Texture.h Pages: 1 -->
<!--zoomable 204 -->
<svg id="main" version="1.1" xmlns="http://www.w3.org/2000/svg" xmlns:xlink="http://www.w3.org/1999/xlink" xml:space="preserve" onload="init(evt)">
<style type="text/css"><![CDATA[
.edge:hover path { stroke: red; }
.edge:hover polygon { stroke: red; fill: red; }
]]></style>
<script type="text/javascript"><![CDATA[
var edges = document.getElementsByTagName('g');
if (edges && edges.length) {
  for (var i=0;i<edges.length;i++) {
    if (edges[i].id.substr(0,4)=='edge') {
      edges[i].setAttribute('class','edge');
    }
  }
}
]]></script>
        <defs>
                <circle id="rim" cx="0" cy="0" r="7"/>
                <circle id="rim2" cx="0" cy="0" r="3.5"/>
                <g id="zoomPlus">
                        <use xlink:href="#rim" fill="#404040">
                                <set attributeName="fill" to="#808080" begin="zoomplus.mouseover" end="zoomplus.mouseout"/>
                        </use>
                        <path d="M-4,0h8M0,-4v8" fill="none" stroke="white" stroke-width="1.5" pointer-events="none"/>
                </g>
                <g id="zoomMin">
                        <use xlink:href="#rim" fill="#404040">
                                <set attributeName="fill" to="#808080" begin="zoomminus.mouseover" end="zoomminus.mouseout"/>
                        </use>
                        <path d="M-4,0h8" fill="none" stroke="white" stroke-width="1.5" pointer-events="none"/>
                </g>
                <g id="dirArrow">
                        <path fill="none" stroke="white" stroke-width="1.5" d="M0,-3.0v7 M-2.5,-0.5L0,-3.0L2.5,-0.5"/>
                </g>
               <g id="resetDef">
                       <use xlink:href="#rim2" fill="#404040">
                               <set attributeName="fill" to="#808080" begin="reset.mouseover" end="reset.mouseout"/>
                       </use>
               </g>
        </defs>

<script type="text/javascript">
var viewWidth = 786;
var viewHeight = 204;
var sectionId = 'dynsection-0';
</script>
<script xlink:href="svgpan.js"/>
<svg id="graph" class="graph">
<g id="viewport">
<title>Texture.h</title>
<!-- Node1 -->
<g id="node1" class="node"><title>Node1</title>
<polygon fill="#bfbfbf" stroke="black" points="265,-175 265,-195 321,-195 321,-175 265,-175"/>
<text text-anchor="middle" x="293" y="-182" font-family="FreeSans" font-size="10.00">Texture.h</text>
</g>
<!-- Node2 -->
<g id="node3" class="node"><title>Node2</title>
<a xlink:href="_practice_setup_scene_8cpp.html" target="_top" xlink:title="PracticeSetupScene.cpp">
<polygon fill="none" stroke="black" points="42,-117 42,-137 166,-137 166,-117 42,-117"/>
<text text-anchor="middle" x="104" y="-124" font-family="FreeSans" font-size="10.00">PracticeSetupScene.cpp</text>
</a>
</g>
<!-- Node1&#45;&gt;Node2 -->
<g id="edge2" class="edge"><title>Node1&#45;&gt;Node2</title>
<path fill="none" stroke="midnightblue" d="M254.929,-173.317C220.225,-162.667 169.502,-147.101 136.619,-137.01"/>
<polygon fill="midnightblue" stroke="midnightblue" points="254.118,-176.729 264.705,-176.317 256.172,-170.037 254.118,-176.729"/>
</g>
<!-- Node3 -->
<g id="node5" class="node"><title>Node3</title>
<a xlink:href="_sprite_texture_res_8cpp.html" target="_top" xlink:title="SpriteTextureRes.cpp">
<polygon fill="none" stroke="black" points="184,-117 184,-137 294,-137 294,-117 184,-117"/>
<text text-anchor="middle" x="239" y="-124" font-family="FreeSans" font-size="10.00">SpriteTextureRes.cpp</text>
</a>
</g>
<!-- Node1&#45;&gt;Node3 -->
<g id="edge4" class="edge"><title>Node1&#45;&gt;Node3</title>
<path fill="none" stroke="midnightblue" d="M276.77,-167.568C267.606,-157.725 256.461,-145.755 248.662,-137.378"/>
<polygon fill="midnightblue" stroke="midnightblue" points="274.218,-169.963 283.594,-174.897 279.341,-165.193 274.218,-169.963"/>
</g>
<!-- Node4 -->
<g id="node7" class="node"><title>Node4</title>
<a xlink:href="_sdl_texture_8h.html" target="_top" xlink:title="SdlTexture.h">
<polygon fill="none" stroke="black" points="311.5,-117 311.5,-137 382.5,-137 382.5,-117 311.5,-117"/>
<text text-anchor="middle" x="347" y="-124" font-family="FreeSans" font-size="10.00">SdlTexture.h</text>
</a>
</g>
<!-- Node1&#45;&gt;Node4 -->
<g id="edge6" class="edge"><title>Node1&#45;&gt;Node4</title>
<path fill="none" stroke="midnightblue" d="M309.23,-167.568C318.394,-157.725 329.539,-145.755 337.338,-137.378"/>
<polygon fill="midnightblue" stroke="midnightblue" points="306.659,-165.193 302.406,-174.897 311.782,-169.963 306.659,-165.193"/>
</g>
<!-- Node15 -->
<g id="node32" class="node"><title>Node15</title>
<a xlink:href="_track_bundle_8cpp.html" target="_top" xlink:title="TrackBundle.cpp">
<polygon fill="none" stroke="black" points="399.5,-117 399.5,-137 488.5,-137 488.5,-117 399.5,-117"/>
<text text-anchor="middle" x="444" y="-124" font-family="FreeSans" font-size="10.00">TrackBundle.cpp</text>
</a>
</g>
<!-- Node1&#45;&gt;Node15 -->
<g id="edge34" class="edge"><title>Node1&#45;&gt;Node15</title>
<path fill="none" stroke="midnightblue" d="M328.887,-171.216C356.197,-160.726 393.154,-146.53 417.746,-137.084"/>
<polygon fill="midnightblue" stroke="midnightblue" points="327.382,-168.044 319.302,-174.897 329.892,-174.579 327.382,-168.044"/>
</g>
<!-- Node5 -->
<g id="node9" class="node"><title>Node5</title>
<a xlink:href="_sdl_base_container_view_8cpp.html" target="_top" xlink:title="SdlBaseContainerView.cpp">
<polygon fill="none" stroke="black" points="0,-59 0,-79 134,-79 134,-59 0,-59"/>
<text text-anchor="middle" x="67" y="-66" font-family="FreeSans" font-size="10.00">SdlBaseContainerView.cpp</text>
</a>
</g>
<!-- Node4&#45;&gt;Node5 -->
<g id="edge8" class="edge"><title>Node4&#45;&gt;Node5</title>
<path fill="none" stroke="midnightblue" d="M301.581,-115.748C234.382,-100.796 167.212,-87.7078 121.524,-79.0829"/>
<polygon fill="midnightblue" stroke="midnightblue" points="300.97,-119.197 311.494,-117.967 302.5,-112.366 300.97,-119.197"/>
</g>
<!-- Node6 -->
<g id="node11" class="node"><title>Node6</title>
<a xlink:href="_sdl_keycap_icon_view_8h.html" target="_top" xlink:title="SdlKeycapIconView.h">
<polygon fill="none" stroke="black" points="419.5,-59 419.5,-79 530.5,-79 530.5,-59 419.5,-59"/>
<text text-anchor="middle" x="475" y="-66" font-family="FreeSans" font-size="10.00">SdlKeycapIconView.h</text>
</a>
</g>
<!-- Node4&#45;&gt;Node6 -->
<g id="edge10" class="edge"><title>Node4&#45;&gt;Node6</title>
<path fill="none" stroke="midnightblue" d="M378.616,-112.674C401.559,-102.278 432.042,-88.4654 452.53,-79.1817"/>
<polygon fill="midnightblue" stroke="midnightblue" points="376.96,-109.582 369.296,-116.897 379.849,-115.958 376.96,-109.582"/>
</g>
<!-- Node7 -->
<g id="node13" class="node"><title>Node7</title>
<a xlink:href="_sdl_display_8cpp.html" target="_top" xlink:title="SdlDisplay.cpp">
<polygon fill="none" stroke="black" points="224,-1 224,-21 304,-21 304,-1 224,-1"/>
<text text-anchor="middle" x="264" y="-8" font-family="FreeSans" font-size="10.00">SdlDisplay.cpp</text>
</a>
</g>
<!-- Node4&#45;&gt;Node7 -->
<g id="edge28" class="edge"><title>Node4&#45;&gt;Node7</title>
<path fill="none" stroke="midnightblue" d="M318.085,-111.663C305.643,-103.729 291.934,-92.9736 283,-80 270.457,-61.7844 266.171,-35.5412 264.723,-21.2402"/>
<polygon fill="midnightblue" stroke="midnightblue" points="316.462,-114.771 326.834,-116.932 320.073,-108.774 316.462,-114.771"/>
</g>
<!-- Node9 -->
<g id="node17" class="node"><title>Node9</title>
<a xlink:href="_sdl_label_view_8h.html" target="_top" xlink:title="SdlLabelView.h">
<polygon fill="none" stroke="black" points="152,-59 152,-79 236,-79 236,-59 152,-59"/>
<text text-anchor="middle" x="194" y="-66" font-family="FreeSans" font-size="10.00">SdlLabelView.h</text>
</a>
</g>
<!-- Node4&#45;&gt;Node9 -->
<g id="edge16" class="edge"><title>Node4&#45;&gt;Node9</title>
<path fill="none" stroke="midnightblue" d="M310.638,-113.216C282.966,-102.726 245.519,-88.5302 220.601,-79.0842"/>
<polygon fill="midnightblue" stroke="midnightblue" points="309.758,-116.625 320.349,-116.897 312.239,-110.08 309.758,-116.625"/>
</g>
<!-- Node11 -->
<g id="node22" class="node"><title>Node11</title>
<a xlink:href="_sdl_symbol_icon_view_8h.html" target="_top" xlink:title="SdlSymbolIconView.h">
<polygon fill="none" stroke="black" points="291.5,-59 291.5,-79 402.5,-79 402.5,-59 291.5,-59"/>
<text text-anchor="middle" x="347" y="-66" font-family="FreeSans" font-size="10.00">SdlSymbolIconView.h</text>
</a>
</g>
<!-- Node4&#45;&gt;Node11 -->
<g id="edge22" class="edge"><title>Node4&#45;&gt;Node11</title>
<path fill="none" stroke="midnightblue" d="M347,-106.89C347,-97.6201 347,-87.0083 347,-79.3776"/>
<polygon fill="midnightblue" stroke="midnightblue" points="343.5,-106.897 347,-116.897 350.5,-106.897 343.5,-106.897"/>
</g>
<!-- Node13 -->
<g id="node28" class="node"><title>Node13</title>
<a xlink:href="_sdl_picture_view_8cpp.html" target="_top" xlink:title="SdlPictureView.cpp">
<polygon fill="none" stroke="black" points="547.5,-59 547.5,-79 648.5,-79 648.5,-59 547.5,-59"/>
<text text-anchor="middle" x="598" y="-66" font-family="FreeSans" font-size="10.00">SdlPictureView.cpp</text>
</a>
</g>
<!-- Node4&#45;&gt;Node13 -->
<g id="edge30" class="edge"><title>Node4&#45;&gt;Node13</title>
<path fill="none" stroke="midnightblue" d="M392.625,-115.643C453.065,-101.288 512.527,-87.915 552.301,-79.0772"/>
<polygon fill="midnightblue" stroke="midnightblue" points="391.442,-112.326 382.525,-118.048 393.064,-119.136 391.442,-112.326"/>
</g>
<!-- Node14 -->
<g id="node30" class="node"><title>Node14</title>
<a xlink:href="_sdl_wallpaper_view_8cpp.html" target="_top" xlink:title="SdlWallpaperView.cpp">
<polygon fill="none" stroke="black" points="665.5,-59 665.5,-79 778.5,-79 778.5,-59 665.5,-59"/>
<text text-anchor="middle" x="722" y="-66" font-family="FreeSans" font-size="10.00">SdlWallpaperView.cpp</text>
</a>
</g>
<!-- Node4&#45;&gt;Node14 -->
<g id="edge32" class="edge"><title>Node4&#45;&gt;Node14</title>
<path fill="none" stroke="midnightblue" d="M393.01,-115.75C509.914,-93.7254 542.284,-97.4646 657,-80 659.716,-79.5866 662.493,-79.154 665.298,-78.7095"/>
<polygon fill="midnightblue" stroke="midnightblue" points="392.113,-112.358 382.946,-117.67 393.425,-119.234 392.113,-112.358"/>
</g>
<!-- Node6&#45;&gt;Node7 -->
<g id="edge12" class="edge"><title>Node6&#45;&gt;Node7</title>
<path fill="none" stroke="midnightblue" d="M428.33,-56.1712C389.88,-45.602 336.105,-30.8202 300.686,-21.0842"/>
<polygon fill="midnightblue" stroke="midnightblue" points="427.677,-59.6214 438.247,-58.8972 429.532,-52.8718 427.677,-59.6214"/>
</g>
<!-- Node8 -->
<g id="node15" class="node"><title>Node8</title>
<a xlink:href="_sdl_keycap_icon_view_8cpp.html" target="_top" xlink:title="SdlKeycapIconView.cpp">
<polygon fill="none" stroke="black" points="462,-1 462,-21 584,-21 584,-1 462,-1"/>
<text text-anchor="middle" x="523" y="-8" font-family="FreeSans" font-size="10.00">SdlKeycapIconView.cpp</text>
</a>
</g>
<!-- Node6&#45;&gt;Node8 -->
<g id="edge14" class="edge"><title>Node6&#45;&gt;Node8</title>
<path fill="none" stroke="midnightblue" d="M489.912,-50.981C497.964,-41.2522 507.616,-29.5889 514.412,-21.3776"/>
<polygon fill="midnightblue" stroke="midnightblue" points="487.04,-48.9617 483.361,-58.8972 492.433,-53.4247 487.04,-48.9617"/>
</g>
<!-- Node9&#45;&gt;Node7 -->
<g id="edge18" class="edge"><title>Node9&#45;&gt;Node7</title>
<path fill="none" stroke="midnightblue" d="M213.987,-52.4396C226.056,-42.4391 241.065,-30.0036 251.475,-21.3776"/>
<polygon fill="midnightblue" stroke="midnightblue" points="211.66,-49.8219 206.193,-58.8972 216.126,-55.212 211.66,-49.8219"/>
</g>
<!-- Node10 -->
<g id="node20" class="node"><title>Node10</title>
<a xlink:href="_sdl_label_view_8cpp.html" target="_top" xlink:title="SdlLabelView.cpp">
<polygon fill="none" stroke="black" points="111.5,-1 111.5,-21 206.5,-21 206.5,-1 111.5,-1"/>
<text text-anchor="middle" x="159" y="-8" font-family="FreeSans" font-size="10.00">SdlLabelView.cpp</text>
</a>
</g>
<!-- Node9&#45;&gt;Node10 -->
<g id="edge20" class="edge"><title>Node9&#45;&gt;Node10</title>
<path fill="none" stroke="midnightblue" d="M182.59,-50.0914C176.831,-40.5485 170.067,-29.3401 165.262,-21.3776"/>
<polygon fill="midnightblue" stroke="midnightblue" points="179.74,-52.1436 187.903,-58.8972 185.733,-48.5269 179.74,-52.1436"/>
</g>
<!-- Node11&#45;&gt;Node7 -->
<g id="edge24" class="edge"><title>Node11&#45;&gt;Node7</title>
<path fill="none" stroke="midnightblue" d="M324.068,-52.975C309.522,-42.8109 291.144,-29.9681 278.57,-21.1817"/>
<polygon fill="midnightblue" stroke="midnightblue" points="322.341,-56.0381 332.543,-58.8972 326.35,-50.3002 322.341,-56.0381"/>
</g>
<!-- Node12 -->
<g id="node25" class="node"><title>Node12</title>
<a xlink:href="_sdl_symbol_icon_view_8cpp.html" target="_top" xlink:title="SdlSymbolIconView.cpp">
<polygon fill="none" stroke="black" points="322,-1 322,-21 444,-21 444,-1 322,-1"/>
<text text-anchor="middle" x="383" y="-8" font-family="FreeSans" font-size="10.00">SdlSymbolIconView.cpp</text>
</a>
</g>
<!-- Node11&#45;&gt;Node12 -->
<g id="edge26" class="edge"><title>Node11&#45;&gt;Node12</title>
<path fill="none" stroke="midnightblue" d="M358.552,-50.3891C364.514,-40.7824 371.565,-29.423 376.559,-21.3776"/>
<polygon fill="midnightblue" stroke="midnightblue" points="355.571,-48.555 353.271,-58.8972 361.518,-52.2465 355.571,-48.555"/>
</g>
</g>
</svg>
        <g id="navigator" transform="translate(0 0)" fill="#404254">
                <rect fill="#f2f5e9" fill-opacity="0.5" stroke="#606060" stroke-width=".5" x="0" y="0" width="60" height="60"/>
                <use id="zoomplus" xlink:href="#zoomPlus" x="17" y="9" onmousedown="handleZoom(evt,'in')"/>
                <use id="zoomminus" xlink:href="#zoomMin" x="42" y="9" onmousedown="handleZoom(evt,'out')"/>
                <use id="reset" xlink:href="#resetDef" x="30" y="36" onmousedown="handleReset()"/>
                <g id="arrowUp" xlink:href="#dirArrow" transform="translate(30 24)" onmousedown="handlePan(0,-1)">
                  <use xlink:href="#rim" fill="#404040">
                        <set attributeName="fill" to="#808080" begin="arrowUp.mouseover" end="arrowUp.mouseout"/>
                  </use>
                  <path fill="none" stroke="white" stroke-width="1.5" d="M0,-3.0v7 M-2.5,-0.5L0,-3.0L2.5,-0.5"/>
                </g>
                <g id="arrowRight" xlink:href="#dirArrow" transform="rotate(90) translate(36 -43)" onmousedown="handlePan(1,0)">
                  <use xlink:href="#rim" fill="#404040">
                        <set attributeName="fill" to="#808080" begin="arrowRight.mouseover" end="arrowRight.mouseout"/>
                  </use>
                  <path fill="none" stroke="white" stroke-width="1.5" d="M0,-3.0v7 M-2.5,-0.5L0,-3.0L2.5,-0.5"/>
                </g>
                <g id="arrowDown" xlink:href="#dirArrow" transform="rotate(180) translate(-30 -48)" onmousedown="handlePan(0,1)">
                  <use xlink:href="#rim" fill="#404040">
                        <set attributeName="fill" to="#808080" begin="arrowDown.mouseover" end="arrowDown.mouseout"/>
                  </use>
                  <path fill="none" stroke="white" stroke-width="1.5" d="M0,-3.0v7 M-2.5,-0.5L0,-3.0L2.5,-0.5"/>
                </g>
                <g id="arrowLeft" xlink:href="#dirArrow" transform="rotate(270) translate(-36 17)" onmousedown="handlePan(-1,0)">
                  <use xlink:href="#rim" fill="#404040">
                        <set attributeName="fill" to="#808080" begin="arrowLeft.mouseover" end="arrowLeft.mouseout"/>
                  </use>
                  <path fill="none" stroke="white" stroke-width="1.5" d="M0,-3.0v7 M-2.5,-0.5L0,-3.0L2.5,-0.5"/>
                </g>
        </g>
        <svg viewBox="0 0 15 15" width="100%" height="30px" preserveAspectRatio="xMaxYMin meet">
         <g id="arrow_out" transform="scale(0.3 0.3)">
          <a xlink:href="_texture_8h__dep__incl_org.svg" target="_base">
           <rect id="button" ry="5" rx="5" y="6" x="6" height="38" width="38"
                fill="#f2f5e9" fill-opacity="0.5" stroke="#606060" stroke-width="1.0"/>
           <path id="arrow"
             d="M 11.500037,31.436501 C 11.940474,20.09759 22.043105,11.32322 32.158766,21.979434 L 37.068811,17.246167 C 37.068811,17.246167 37.088388,32 37.088388,32 L 22.160133,31.978069 C 22.160133,31.978069 26.997745,27.140456 26.997745,27.140456 C 18.528582,18.264221 13.291696,25.230495 11.500037,31.436501 z"
             style="fill:#404040;"/>
          </a>
         </g>
        </svg>
</svg>
