<?xml version="1.0" encoding="UTF-8" standalone="no"?>
<!DOCTYPE svg PUBLIC "-//W3C//DTD SVG 1.1//EN"
 "http://www.w3.org/Graphics/SVG/1.1/DTD/svg11.dtd">
<!-- Generated by graphviz version 2.38.0 (20140413.2041)
 -->
<!-- Title: Track.h Pages: 1 -->
<svg width="539pt" height="252pt"
 viewBox="0.00 0.00 539.00 252.00" xmlns="http://www.w3.org/2000/svg" xmlns:xlink="http://www.w3.org/1999/xlink">
<g id="graph0" class="graph" transform="scale(1 1) rotate(0) translate(4 248)">
<title>Track.h</title>
<!-- Node1 -->
<g id="node1" class="node"><title>Node1</title>
<polygon fill="#bfbfbf" stroke="black" points="313.5,-224.5 313.5,-243.5 363.5,-243.5 363.5,-224.5 313.5,-224.5"/>
<text text-anchor="middle" x="338.5" y="-231.5" font-family="Helvetica,sans-Serif" font-size="10.00">Track.h</text>
</g>
<!-- Node2 -->
<g id="node2" class="node"><title>Node2</title>
<g id="a_node2"><a xlink:href="_res_8h.html" target="_top" xlink:title="../Display/Res.h">
<polygon fill="none" stroke="black" points="381.5,-168.5 381.5,-187.5 469.5,-187.5 469.5,-168.5 381.5,-168.5"/>
<text text-anchor="middle" x="425.5" y="-175.5" font-family="Helvetica,sans-Serif" font-size="10.00">../Display/Res.h</text>
</a>
</g>
</g>
<!-- Node1&#45;&gt;Node2 -->
<g id="edge1" class="edge"><title>Node1&#45;&gt;Node2</title>
<path fill="none" stroke="midnightblue" d="M352.478,-224.324C366.05,-215.9 386.88,-202.971 402.825,-193.074"/>
<polygon fill="midnightblue" stroke="midnightblue" points="404.906,-195.902 411.557,-187.655 401.214,-189.954 404.906,-195.902"/>
</g>
<!-- Node7 -->
<g id="node7" class="node"><title>Node7</title>
<g id="a_node7"><a xlink:href="_vec_8h.html" target="_top" xlink:title="../Vec.h">
<polygon fill="none" stroke="black" points="313,-168.5 313,-187.5 364,-187.5 364,-168.5 313,-168.5"/>
<text text-anchor="middle" x="338.5" y="-175.5" font-family="Helvetica,sans-Serif" font-size="10.00">../Vec.h</text>
</a>
</g>
</g>
<!-- Node1&#45;&gt;Node7 -->
<g id="edge6" class="edge"><title>Node1&#45;&gt;Node7</title>
<path fill="none" stroke="midnightblue" d="M338.5,-224.083C338.5,-217.006 338.5,-206.861 338.5,-197.986"/>
<polygon fill="midnightblue" stroke="midnightblue" points="342,-197.751 338.5,-187.751 335,-197.751 342,-197.751"/>
</g>
<!-- Node8 -->
<g id="node8" class="node"><title>Node8</title>
<g id="a_node8"><a xlink:href="_track_entry_8h.html" target="_top" xlink:title="TrackEntry.h">
<polygon fill="none" stroke="black" points="222,-168.5 222,-187.5 295,-187.5 295,-168.5 222,-168.5"/>
<text text-anchor="middle" x="258.5" y="-175.5" font-family="Helvetica,sans-Serif" font-size="10.00">TrackEntry.h</text>
</a>
</g>
</g>
<!-- Node1&#45;&gt;Node8 -->
<g id="edge7" class="edge"><title>Node1&#45;&gt;Node8</title>
<path fill="none" stroke="midnightblue" d="M325.647,-224.324C313.284,-215.979 294.37,-203.212 279.763,-193.352"/>
<polygon fill="midnightblue" stroke="midnightblue" points="281.568,-190.348 271.321,-187.655 277.652,-196.15 281.568,-190.348"/>
</g>
<!-- Node3 -->
<g id="node3" class="node"><title>Node3</title>
<g id="a_node3"><a xlink:href="_m_r___types_8h.html" target="_top" xlink:title="../Util/MR_Types.h">
<polygon fill="none" stroke="black" points="353.5,-56.5 353.5,-75.5 453.5,-75.5 453.5,-56.5 353.5,-56.5"/>
<text text-anchor="middle" x="403.5" y="-63.5" font-family="Helvetica,sans-Serif" font-size="10.00">../Util/MR_Types.h</text>
</a>
</g>
</g>
<!-- Node2&#45;&gt;Node3 -->
<g id="edge2" class="edge"><title>Node2&#45;&gt;Node3</title>
<path fill="none" stroke="midnightblue" d="M423.774,-168.368C420.223,-150.617 412.033,-109.666 407.219,-85.5974"/>
<polygon fill="midnightblue" stroke="midnightblue" points="410.612,-84.7108 405.218,-75.5914 403.747,-86.0837 410.612,-84.7108"/>
</g>
<!-- Node5 -->
<g id="node5" class="node"><title>Node5</title>
<g id="a_node5"><a xlink:href="_exception_8h.html" target="_top" xlink:title="../Exception.h">
<polygon fill="none" stroke="black" points="454,-112.5 454,-131.5 531,-131.5 531,-112.5 454,-112.5"/>
<text text-anchor="middle" x="492.5" y="-119.5" font-family="Helvetica,sans-Serif" font-size="10.00">../Exception.h</text>
</a>
</g>
</g>
<!-- Node2&#45;&gt;Node5 -->
<g id="edge4" class="edge"><title>Node2&#45;&gt;Node5</title>
<path fill="none" stroke="midnightblue" d="M436.265,-168.324C446.266,-160.263 461.387,-148.077 473.43,-138.369"/>
<polygon fill="midnightblue" stroke="midnightblue" points="475.95,-140.834 481.539,-131.834 471.557,-135.384 475.95,-140.834"/>
</g>
<!-- Node4 -->
<g id="node4" class="node"><title>Node4</title>
<polygon fill="none" stroke="#bfbfbf" points="374,-0.5 374,-19.5 433,-19.5 433,-0.5 374,-0.5"/>
<text text-anchor="middle" x="403.5" y="-7.5" font-family="Helvetica,sans-Serif" font-size="10.00">inttypes.h</text>
</g>
<!-- Node3&#45;&gt;Node4 -->
<g id="edge3" class="edge"><title>Node3&#45;&gt;Node4</title>
<path fill="none" stroke="midnightblue" d="M403.5,-56.083C403.5,-49.0059 403.5,-38.8611 403.5,-29.9865"/>
<polygon fill="midnightblue" stroke="midnightblue" points="407,-29.751 403.5,-19.7511 400,-29.7511 407,-29.751"/>
</g>
<!-- Node6 -->
<g id="node6" class="node"><title>Node6</title>
<polygon fill="none" stroke="#bfbfbf" points="472,-56.5 472,-75.5 531,-75.5 531,-56.5 472,-56.5"/>
<text text-anchor="middle" x="501.5" y="-63.5" font-family="Helvetica,sans-Serif" font-size="10.00">exception</text>
</g>
<!-- Node5&#45;&gt;Node6 -->
<g id="edge5" class="edge"><title>Node5&#45;&gt;Node6</title>
<path fill="none" stroke="midnightblue" d="M493.986,-112.083C495.179,-104.927 496.894,-94.6353 498.385,-85.6911"/>
<polygon fill="midnightblue" stroke="midnightblue" points="501.85,-86.1904 500.041,-75.7511 494.945,-85.0396 501.85,-86.1904"/>
</g>
<!-- Node8&#45;&gt;Node3 -->
<g id="edge10" class="edge"><title>Node8&#45;&gt;Node3</title>
<path fill="none" stroke="midnightblue" d="M269.878,-168.368C294.548,-149.653 353.21,-105.151 383.948,-81.8324"/>
<polygon fill="midnightblue" stroke="midnightblue" points="386.323,-84.4237 392.175,-75.5914 382.093,-78.8469 386.323,-84.4237"/>
</g>
<!-- Node9 -->
<g id="node9" class="node"><title>Node9</title>
<g id="a_node9"><a xlink:href="_inspectable_8h.html" target="_top" xlink:title="../Util/Inspectable.h">
<polygon fill="none" stroke="black" points="48.5,-112.5 48.5,-131.5 150.5,-131.5 150.5,-112.5 48.5,-112.5"/>
<text text-anchor="middle" x="99.5" y="-119.5" font-family="Helvetica,sans-Serif" font-size="10.00">../Util/Inspectable.h</text>
</a>
</g>
</g>
<!-- Node8&#45;&gt;Node9 -->
<g id="edge8" class="edge"><title>Node8&#45;&gt;Node9</title>
<path fill="none" stroke="midnightblue" d="M233.306,-168.444C206.557,-159.359 164.097,-144.939 134.195,-134.783"/>
<polygon fill="midnightblue" stroke="midnightblue" points="135.171,-131.418 124.576,-131.516 132.919,-138.046 135.171,-131.418"/>
</g>
<!-- Node11 -->
<g id="node11" class="node"><title>Node11</title>
<g id="a_node11"><a xlink:href="_o_s_8h.html" target="_top" xlink:title="../Util/OS.h">
<polygon fill="none" stroke="black" points="225.5,-112.5 225.5,-131.5 291.5,-131.5 291.5,-112.5 225.5,-112.5"/>
<text text-anchor="middle" x="258.5" y="-119.5" font-family="Helvetica,sans-Serif" font-size="10.00">../Util/OS.h</text>
</a>
</g>
</g>
<!-- Node8&#45;&gt;Node11 -->
<g id="edge11" class="edge"><title>Node8&#45;&gt;Node11</title>
<path fill="none" stroke="midnightblue" d="M258.5,-168.083C258.5,-161.006 258.5,-150.861 258.5,-141.986"/>
<polygon fill="midnightblue" stroke="midnightblue" points="262,-141.751 258.5,-131.751 255,-141.751 262,-141.751"/>
</g>
<!-- Node10 -->
<g id="node10" class="node"><title>Node10</title>
<polygon fill="none" stroke="#bfbfbf" points="0,-56.5 0,-75.5 41,-75.5 41,-56.5 0,-56.5"/>
<text text-anchor="middle" x="20.5" y="-63.5" font-family="Helvetica,sans-Serif" font-size="10.00">string</text>
</g>
<!-- Node9&#45;&gt;Node10 -->
<g id="edge9" class="edge"><title>Node9&#45;&gt;Node10</title>
<path fill="none" stroke="midnightblue" d="M86.8073,-112.324C74.5989,-103.979 55.9215,-91.2122 41.4971,-81.3524"/>
<polygon fill="midnightblue" stroke="midnightblue" points="43.392,-78.4082 33.1612,-75.6545 39.4418,-84.1871 43.392,-78.4082"/>
</g>
<!-- Node11&#45;&gt;Node3 -->
<g id="edge17" class="edge"><title>Node11&#45;&gt;Node3</title>
<path fill="none" stroke="midnightblue" d="M281.476,-112.444C305.657,-103.438 343.918,-89.1891 371.146,-79.049"/>
<polygon fill="midnightblue" stroke="midnightblue" points="372.482,-82.2864 380.632,-75.5164 370.039,-75.7265 372.482,-82.2864"/>
</g>
<!-- Node11&#45;&gt;Node10 -->
<g id="edge14" class="edge"><title>Node11&#45;&gt;Node10</title>
<path fill="none" stroke="midnightblue" d="M225.169,-114.627C185.866,-106.928 118.385,-93.1399 51.0304,-75.9684"/>
<polygon fill="midnightblue" stroke="midnightblue" points="51.6541,-72.5149 41.0972,-73.4107 49.9086,-79.2938 51.6541,-72.5149"/>
</g>
<!-- Node12 -->
<g id="node12" class="node"><title>Node12</title>
<polygon fill="none" stroke="#bfbfbf" points="245.5,-56.5 245.5,-75.5 287.5,-75.5 287.5,-56.5 245.5,-56.5"/>
<text text-anchor="middle" x="266.5" y="-63.5" font-family="Helvetica,sans-Serif" font-size="10.00">locale</text>
</g>
<!-- Node11&#45;&gt;Node12 -->
<g id="edge12" class="edge"><title>Node11&#45;&gt;Node12</title>
<path fill="none" stroke="midnightblue" d="M259.821,-112.083C260.881,-104.927 262.406,-94.6353 263.731,-85.6911"/>
<polygon fill="midnightblue" stroke="midnightblue" points="267.2,-86.1561 265.204,-75.7511 260.276,-85.1302 267.2,-86.1561"/>
</g>
<!-- Node13 -->
<g id="node13" class="node"><title>Node13</title>
<polygon fill="none" stroke="#bfbfbf" points="305.5,-56.5 305.5,-75.5 335.5,-75.5 335.5,-56.5 305.5,-56.5"/>
<text text-anchor="middle" x="320.5" y="-63.5" font-family="Helvetica,sans-Serif" font-size="10.00">set</text>
</g>
<!-- Node11&#45;&gt;Node13 -->
<g id="edge13" class="edge"><title>Node11&#45;&gt;Node13</title>
<path fill="none" stroke="midnightblue" d="M268.461,-112.324C277.627,-104.341 291.437,-92.3128 302.528,-82.6529"/>
<polygon fill="midnightblue" stroke="midnightblue" points="305.115,-85.041 310.357,-75.8339 300.518,-79.7624 305.115,-85.041"/>
</g>
<!-- Node14 -->
<g id="node14" class="node"><title>Node14</title>
<polygon fill="none" stroke="#bfbfbf" points="59.5,-56.5 59.5,-75.5 103.5,-75.5 103.5,-56.5 59.5,-56.5"/>
<text text-anchor="middle" x="81.5" y="-63.5" font-family="Helvetica,sans-Serif" font-size="10.00">vector</text>
</g>
<!-- Node11&#45;&gt;Node14 -->
<g id="edge15" class="edge"><title>Node11&#45;&gt;Node14</title>
<path fill="none" stroke="midnightblue" d="M230.454,-112.444C198.563,-102.714 146.611,-86.8642 113.255,-76.688"/>
<polygon fill="midnightblue" stroke="midnightblue" points="114.129,-73.2955 103.543,-73.7251 112.087,-79.9909 114.129,-73.2955"/>
</g>
<!-- Node15 -->
<g id="node15" class="node"><title>Node15</title>
<polygon fill="none" stroke="#bfbfbf" points="121,-56.5 121,-75.5 228,-75.5 228,-56.5 121,-56.5"/>
<text text-anchor="middle" x="174.5" y="-63.5" font-family="Helvetica,sans-Serif" font-size="10.00">boost/filesystem.hpp</text>
</g>
<!-- Node11&#45;&gt;Node15 -->
<g id="edge16" class="edge"><title>Node11&#45;&gt;Node15</title>
<path fill="none" stroke="midnightblue" d="M245.004,-112.324C231.9,-103.9 211.788,-90.9709 196.393,-81.0741"/>
<polygon fill="midnightblue" stroke="midnightblue" points="198.267,-78.118 187.963,-75.6545 194.482,-84.0063 198.267,-78.118"/>
</g>
</g>
</svg>
