<?xml version="1.0" encoding="UTF-8" standalone="no"?>
<!DOCTYPE svg PUBLIC "-//W3C//DTD SVG 1.1//EN"
 "http://www.w3.org/Graphics/SVG/1.1/DTD/svg11.dtd">
<!-- Generated by graphviz version 2.26.3 (20100126.1600)
 -->
<!-- Title: TrackEntry.h Pages: 1 -->
<!--zoomable 204 -->
<svg id="main" version="1.1" xmlns="http://www.w3.org/2000/svg" xmlns:xlink="http://www.w3.org/1999/xlink" xml:space="preserve" onload="init(evt)">
        <defs>
                <circle id="rim" cx="0" cy="0" r="7"/>
                <circle id="rim2" cx="0" cy="0" r="3.5"/>
                <g id="zoomPlus">
                        <use xlink:href="#rim" fill="#404040">
                                <set attributeName="fill" to="#808080" begin="zoomplus.mouseover" end="zoomplus.mouseout"/>
                        </use>
                        <path d="M-4,0h8M0,-4v8" fill="none" stroke="white" stroke-width="1.5" pointer-events="none"/>
                </g>
                <g id="zoomMin">
                        <use xlink:href="#rim" fill="#404040">
                                <set attributeName="fill" to="#808080" begin="zoomminus.mouseover" end="zoomminus.mouseout"/>
                        </use>
                        <path d="M-4,0h8" fill="none" stroke="white" stroke-width="1.5" pointer-events="none"/>
                </g>
                <g id="dirArrow">
                        <path fill="none" stroke="white" stroke-width="1.5" d="M0,-3.0v7 M-2.5,-0.5L0,-3.0L2.5,-0.5"/>
                </g>
               <g id="resetDef">
                       <use xlink:href="#rim2" fill="#404040">
                               <set attributeName="fill" to="#808080" begin="reset.mouseover" end="reset.mouseout"/>
                       </use>
               </g>
        </defs>

<script type="text/javascript">
var viewWidth = 848;
var viewHeight = 204;
var sectionId = 'dynsection-1';
</script>
<script xlink:href="svgpan.js"/>
<svg id="graph" class="graph">
<g id="viewport">
<title>TrackEntry.h</title>
<!-- Node1 -->
<g id="node1" class="node"><title>Node1</title>
<polygon fill="#bfbfbf" stroke="black" points="493.5,-175 493.5,-195 564.5,-195 564.5,-175 493.5,-175"/>
<text text-anchor="middle" x="529" y="-182" font-family="FreeSans" font-size="10.00">TrackEntry.h</text>
</g>
<!-- Node2 -->
<g id="node3" class="node"><title>Node2</title>
<a xlink:href="_track_8h.html" target="_top" xlink:title="Track.h">
<polygon fill="none" stroke="black" points="189.5,-117 189.5,-137 238.5,-137 238.5,-117 189.5,-117"/>
<text text-anchor="middle" x="214" y="-124" font-family="FreeSans" font-size="10.00">Track.h</text>
</a>
</g>
<!-- Node1&#45;&gt;Node2 -->
<g id="edge2" class="edge"><title>Node1&#45;&gt;Node2</title>
<path fill="none" stroke="midnightblue" d="M483.541,-176.63C415.974,-164.189 291.361,-141.244 238.614,-131.532"/>
<polygon fill="midnightblue" stroke="midnightblue" points="483.009,-180.091 493.478,-178.459 484.277,-173.206 483.009,-180.091"/>
</g>
<!-- Node6 -->
<g id="node11" class="node"><title>Node6</title>
<a xlink:href="_track_bundle_8cpp.html" target="_top" xlink:title="TrackBundle.cpp">
<polygon fill="none" stroke="black" points="275.5,-59 275.5,-79 364.5,-79 364.5,-59 275.5,-59"/>
<text text-anchor="middle" x="320" y="-66" font-family="FreeSans" font-size="10.00">TrackBundle.cpp</text>
</a>
</g>
<!-- Node1&#45;&gt;Node6 -->
<g id="edge32" class="edge"><title>Node1&#45;&gt;Node6</title>
<path fill="none" stroke="midnightblue" d="M501.992,-170.01C458.776,-146.024 375.203,-99.6392 338.289,-79.1506"/>
<polygon fill="midnightblue" stroke="midnightblue" points="500.376,-173.116 510.818,-174.909 503.773,-166.996 500.376,-173.116"/>
</g>
<!-- Node7 -->
<g id="node13" class="node"><title>Node7</title>
<a xlink:href="_track_list_8h.html" target="_top" xlink:title="TrackList.h">
<polygon fill="none" stroke="black" points="496.5,-117 496.5,-137 561.5,-137 561.5,-117 496.5,-117"/>
<text text-anchor="middle" x="529" y="-124" font-family="FreeSans" font-size="10.00">TrackList.h</text>
</a>
</g>
<!-- Node1&#45;&gt;Node7 -->
<g id="edge12" class="edge"><title>Node1&#45;&gt;Node7</title>
<path fill="none" stroke="midnightblue" d="M529,-164.89C529,-155.62 529,-145.008 529,-137.378"/>
<polygon fill="midnightblue" stroke="midnightblue" points="525.5,-164.897 529,-174.897 532.5,-164.897 525.5,-164.897"/>
</g>
<!-- Node10 -->
<g id="node19" class="node"><title>Node10</title>
<a xlink:href="_track_select_scene_8cpp.html" target="_top" xlink:title="TrackSelectScene.cpp">
<polygon fill="none" stroke="black" points="674.5,-1 674.5,-21 789.5,-21 789.5,-1 674.5,-1"/>
<text text-anchor="middle" x="732" y="-8" font-family="FreeSans" font-size="10.00">TrackSelectScene.cpp</text>
</a>
</g>
<!-- Node1&#45;&gt;Node10 -->
<g id="edge28" class="edge"><title>Node1&#45;&gt;Node10</title>
<path fill="none" stroke="midnightblue" d="M571.596,-171.527C613.657,-156.053 676.785,-126.617 713,-80 726.568,-62.5345 730.454,-35.9982 731.562,-21.4491"/>
<polygon fill="midnightblue" stroke="midnightblue" points="570.414,-168.233 562.173,-174.891 572.768,-174.825 570.414,-168.233"/>
</g>
<!-- Node14 -->
<g id="node29" class="node"><title>Node14</title>
<a xlink:href="_track_entry_8cpp.html" target="_top" xlink:title="TrackEntry.cpp">
<polygon fill="none" stroke="black" points="759.5,-117 759.5,-137 840.5,-137 840.5,-117 759.5,-117"/>
<text text-anchor="middle" x="800" y="-124" font-family="FreeSans" font-size="10.00">TrackEntry.cpp</text>
</a>
</g>
<!-- Node1&#45;&gt;Node14 -->
<g id="edge30" class="edge"><title>Node1&#45;&gt;Node14</title>
<path fill="none" stroke="midnightblue" d="M574.602,-175.24C626.296,-164.177 709.796,-146.306 759.347,-135.701"/>
<polygon fill="midnightblue" stroke="midnightblue" points="573.753,-171.842 564.707,-177.358 575.218,-178.687 573.753,-171.842"/>
</g>
<!-- Node3 -->
<g id="node5" class="node"><title>Node3</title>
<a xlink:href="_client_app_8cpp.html" target="_top" xlink:title="ClientApp.cpp">
<polygon fill="none" stroke="black" points="75.5,-59 75.5,-79 152.5,-79 152.5,-59 75.5,-59"/>
<text text-anchor="middle" x="114" y="-66" font-family="FreeSans" font-size="10.00">ClientApp.cpp</text>
</a>
</g>
<!-- Node2&#45;&gt;Node3 -->
<g id="edge4" class="edge"><title>Node2&#45;&gt;Node3</title>
<path fill="none" stroke="midnightblue" d="M187.847,-111.831C170.105,-101.541 147.132,-88.2168 131.555,-79.1817"/>
<polygon fill="midnightblue" stroke="midnightblue" points="186.175,-114.908 196.581,-116.897 189.687,-108.852 186.175,-114.908"/>
</g>
<!-- Node4 -->
<g id="node7" class="node"><title>Node4</title>
<a xlink:href="_game_scene_8cpp.html" target="_top" xlink:title="GameScene.cpp">
<polygon fill="none" stroke="black" points="169.5,-59 169.5,-79 258.5,-79 258.5,-59 169.5,-59"/>
<text text-anchor="middle" x="214" y="-66" font-family="FreeSans" font-size="10.00">GameScene.cpp</text>
</a>
</g>
<!-- Node2&#45;&gt;Node4 -->
<g id="edge6" class="edge"><title>Node2&#45;&gt;Node4</title>
<path fill="none" stroke="midnightblue" d="M214,-106.89C214,-97.6201 214,-87.0083 214,-79.3776"/>
<polygon fill="midnightblue" stroke="midnightblue" points="210.5,-106.897 214,-116.897 217.5,-106.897 210.5,-106.897"/>
</g>
<!-- Node5 -->
<g id="node9" class="node"><title>Node5</title>
<a xlink:href="_track_8cpp.html" target="_top" xlink:title="Track.cpp">
<polygon fill="none" stroke="black" points="-0.5,-59 -0.5,-79 58.5,-79 58.5,-59 -0.5,-59"/>
<text text-anchor="middle" x="29" y="-66" font-family="FreeSans" font-size="10.00">Track.cpp</text>
</a>
</g>
<!-- Node2&#45;&gt;Node5 -->
<g id="edge8" class="edge"><title>Node2&#45;&gt;Node5</title>
<path fill="none" stroke="midnightblue" d="M179.704,-116.248C144.895,-105.335 91.5649,-88.615 58.5632,-78.2685"/>
<polygon fill="midnightblue" stroke="midnightblue" points="178.844,-119.646 189.433,-119.298 180.938,-112.967 178.844,-119.646"/>
</g>
<!-- Node2&#45;&gt;Node6 -->
<g id="edge10" class="edge"><title>Node2&#45;&gt;Node6</title>
<path fill="none" stroke="midnightblue" d="M241.464,-111.973C260.305,-101.663 284.804,-88.2582 301.392,-79.1817"/>
<polygon fill="midnightblue" stroke="midnightblue" points="239.556,-109.027 232.464,-116.897 242.916,-115.167 239.556,-109.027"/>
</g>
<!-- Node8 -->
<g id="node15" class="node"><title>Node8</title>
<a xlink:href="_track_select_scene_8h.html" target="_top" xlink:title="TrackSelectScene.h">
<polygon fill="none" stroke="black" points="600,-59 600,-79 704,-79 704,-59 600,-59"/>
<text text-anchor="middle" x="652" y="-66" font-family="FreeSans" font-size="10.00">TrackSelectScene.h</text>
</a>
</g>
<!-- Node7&#45;&gt;Node8 -->
<g id="edge14" class="edge"><title>Node7&#45;&gt;Node8</title>
<path fill="none" stroke="midnightblue" d="M559.677,-112.535C581.69,-102.155 610.808,-88.424 630.408,-79.1817"/>
<polygon fill="midnightblue" stroke="midnightblue" points="557.977,-109.466 550.425,-116.897 560.963,-115.798 557.977,-109.466"/>
</g>
<!-- Node11 -->
<g id="node21" class="node"><title>Node11</title>
<a xlink:href="_game_select_scene_8h.html" target="_top" xlink:title="GameSelectScene.h">
<polygon fill="none" stroke="black" points="476,-59 476,-79 582,-79 582,-59 476,-59"/>
<text text-anchor="middle" x="529" y="-66" font-family="FreeSans" font-size="10.00">GameSelectScene.h</text>
</a>
</g>
<!-- Node7&#45;&gt;Node11 -->
<g id="edge20" class="edge"><title>Node7&#45;&gt;Node11</title>
<path fill="none" stroke="midnightblue" d="M529,-106.89C529,-97.6201 529,-87.0083 529,-79.3776"/>
<polygon fill="midnightblue" stroke="midnightblue" points="525.5,-106.897 529,-116.897 532.5,-106.897 525.5,-106.897"/>
</g>
<!-- Node13 -->
<g id="node26" class="node"><title>Node13</title>
<a xlink:href="_track_list_8cpp.html" target="_top" xlink:title="TrackList.cpp">
<polygon fill="none" stroke="black" points="382,-59 382,-79 458,-79 458,-59 382,-59"/>
<text text-anchor="middle" x="420" y="-66" font-family="FreeSans" font-size="10.00">TrackList.cpp</text>
</a>
</g>
<!-- Node7&#45;&gt;Node13 -->
<g id="edge26" class="edge"><title>Node7&#45;&gt;Node13</title>
<path fill="none" stroke="midnightblue" d="M501.024,-112.114C481.615,-101.786 456.27,-88.2996 439.135,-79.1817"/>
<polygon fill="midnightblue" stroke="midnightblue" points="499.541,-115.289 510.014,-116.897 502.83,-109.11 499.541,-115.289"/>
</g>
<!-- Node9 -->
<g id="node17" class="node"><title>Node9</title>
<a xlink:href="_game_select_scene_8cpp.html" target="_top" xlink:title="GameSelectScene.cpp">
<polygon fill="none" stroke="black" points="541,-1 541,-21 657,-21 657,-1 541,-1"/>
<text text-anchor="middle" x="599" y="-8" font-family="FreeSans" font-size="10.00">GameSelectScene.cpp</text>
</a>
</g>
<!-- Node8&#45;&gt;Node9 -->
<g id="edge16" class="edge"><title>Node8&#45;&gt;Node9</title>
<path fill="none" stroke="midnightblue" d="M635.803,-51.2752C626.86,-41.4882 616.062,-29.6718 608.483,-21.3776"/>
<polygon fill="midnightblue" stroke="midnightblue" points="633.439,-53.8761 642.768,-58.8972 638.606,-49.154 633.439,-53.8761"/>
</g>
<!-- Node8&#45;&gt;Node10 -->
<g id="edge18" class="edge"><title>Node8&#45;&gt;Node10</title>
<path fill="none" stroke="midnightblue" d="M674.104,-52.975C688.123,-42.8109 705.837,-29.9681 717.956,-21.1817"/>
<polygon fill="midnightblue" stroke="midnightblue" points="671.977,-50.1938 665.935,-58.8972 676.085,-55.8611 671.977,-50.1938"/>
</g>
<!-- Node11&#45;&gt;Node9 -->
<g id="edge22" class="edge"><title>Node11&#45;&gt;Node9</title>
<path fill="none" stroke="midnightblue" d="M548.987,-52.4396C561.056,-42.4391 576.065,-30.0036 586.475,-21.3776"/>
<polygon fill="midnightblue" stroke="midnightblue" points="546.66,-49.8219 541.193,-58.8972 551.126,-55.212 546.66,-49.8219"/>
</g>
<!-- Node12 -->
<g id="node24" class="node"><title>Node12</title>
<a xlink:href="_practice_setup_scene_8cpp.html" target="_top" xlink:title="PracticeSetupScene.cpp">
<polygon fill="none" stroke="black" points="399,-1 399,-21 523,-21 523,-1 399,-1"/>
<text text-anchor="middle" x="461" y="-8" font-family="FreeSans" font-size="10.00">PracticeSetupScene.cpp</text>
</a>
</g>
<!-- Node11&#45;&gt;Node12 -->
<g id="edge24" class="edge"><title>Node11&#45;&gt;Node12</title>
<path fill="none" stroke="midnightblue" d="M509.245,-52.1504C497.58,-42.2003 483.183,-29.9207 473.167,-21.3776"/>
<polygon fill="midnightblue" stroke="midnightblue" points="507.276,-55.0706 517.155,-58.8972 511.818,-49.7447 507.276,-55.0706"/>
</g>
</g>
</svg>
        <g id="navigator" transform="translate(0 0)" fill="#404254">
                <rect fill="#f2f5e9" fill-opacity="0.5" stroke="#606060" stroke-width=".5" x="0" y="0" width="60" height="60"/>
                <use id="zoomplus" xlink:href="#zoomPlus" x="17" y="9" onmousedown="handleZoom(evt,'in')"/>
                <use id="zoomminus" xlink:href="#zoomMin" x="42" y="9" onmousedown="handleZoom(evt,'out')"/>
                <use id="reset" xlink:href="#resetDef" x="30" y="36" onmousedown="handleReset()"/>
                <g id="arrowUp" xlink:href="#dirArrow" transform="translate(30 24)" onmousedown="handlePan(0,-1)">
                  <use xlink:href="#rim" fill="#404040">
                        <set attributeName="fill" to="#808080" begin="arrowUp.mouseover" end="arrowUp.mouseout"/>
                  </use>
                  <path fill="none" stroke="white" stroke-width="1.5" d="M0,-3.0v7 M-2.5,-0.5L0,-3.0L2.5,-0.5"/>
                </g>
                <g id="arrowRight" xlink:href="#dirArrow" transform="rotate(90) translate(36 -43)" onmousedown="handlePan(1,0)">
                  <use xlink:href="#rim" fill="#404040">
                        <set attributeName="fill" to="#808080" begin="arrowRight.mouseover" end="arrowRight.mouseout"/>
                  </use>
                  <path fill="none" stroke="white" stroke-width="1.5" d="M0,-3.0v7 M-2.5,-0.5L0,-3.0L2.5,-0.5"/>
                </g>
                <g id="arrowDown" xlink:href="#dirArrow" transform="rotate(180) translate(-30 -48)" onmousedown="handlePan(0,1)">
                  <use xlink:href="#rim" fill="#404040">
                        <set attributeName="fill" to="#808080" begin="arrowDown.mouseover" end="arrowDown.mouseout"/>
                  </use>
                  <path fill="none" stroke="white" stroke-width="1.5" d="M0,-3.0v7 M-2.5,-0.5L0,-3.0L2.5,-0.5"/>
                </g>
                <g id="arrowLeft" xlink:href="#dirArrow" transform="rotate(270) translate(-36 17)" onmousedown="handlePan(-1,0)">
                  <use xlink:href="#rim" fill="#404040">
                        <set attributeName="fill" to="#808080" begin="arrowLeft.mouseover" end="arrowLeft.mouseout"/>
                  </use>
                  <path fill="none" stroke="white" stroke-width="1.5" d="M0,-3.0v7 M-2.5,-0.5L0,-3.0L2.5,-0.5"/>
                </g>
        </g>
        <svg viewBox="0 0 15 15" width="100%" height="30px" preserveAspectRatio="xMaxYMin meet">
         <g id="arrow_out" transform="scale(0.3 0.3)">
          <a xlink:href="_track_entry_8h__dep__incl_org.svg" target="_base">
           <rect id="button" ry="5" rx="5" y="6" x="6" height="38" width="38"
                fill="#f2f5e9" fill-opacity="0.5" stroke="#606060" stroke-width="1.0"/>
           <path id="arrow"
             d="M 11.500037,31.436501 C 11.940474,20.09759 22.043105,11.32322 32.158766,21.979434 L 37.068811,17.246167 C 37.068811,17.246167 37.088388,32 37.088388,32 L 22.160133,31.978069 C 22.160133,31.978069 26.997745,27.140456 26.997745,27.140456 C 18.528582,18.264221 13.291696,25.230495 11.500037,31.436501 z"
             style="fill:#404040;"/>
          </a>
         </g>
        </svg>
</svg>
