<?xml version="1.0" encoding="UTF-8" standalone="no"?>
<!DOCTYPE svg PUBLIC "-//W3C//DTD SVG 1.1//EN"
 "http://www.w3.org/Graphics/SVG/1.1/DTD/svg11.dtd">
<!-- Generated by graphviz version 2.26.3 (20100126.1600)
 -->
<!-- Title: TrackDownloadDialog.cpp Pages: 1 -->
<svg width="956pt" height="204pt"
 viewBox="0.00 0.00 956.00 204.00" xmlns="http://www.w3.org/2000/svg" xmlns:xlink="http://www.w3.org/1999/xlink">
<g id="graph1" class="graph" transform="scale(1 1) rotate(0) translate(4 200)">
<title>TrackDownloadDialog.cpp</title>
<!-- Node1 -->
<g id="node1" class="node"><title>Node1</title>
<polygon fill="#bfbfbf" stroke="black" points="276.5,-175 276.5,-195 405.5,-195 405.5,-175 276.5,-175"/>
<text text-anchor="middle" x="341" y="-182" font-family="FreeSans" font-size="10.00">TrackDownloadDialog.cpp</text>
</g>
<!-- Node2 -->
<g id="node3" class="node"><title>Node2</title>
<polygon fill="none" stroke="#bfbfbf" points="-0.5,-117 -0.5,-137 52.5,-137 52.5,-117 -0.5,-117"/>
<text text-anchor="middle" x="26" y="-124" font-family="FreeSans" font-size="10.00">StdAfx.h</text>
</g>
<!-- Node1&#45;&gt;Node2 -->
<g id="edge2" class="edge"><title>Node1&#45;&gt;Node2</title>
<path fill="none" stroke="midnightblue" d="M276.47,-175.82C220.516,-167.42 137.512,-153.903 66,-138 64.9103,-137.758 63.8059,-137.504 62.6926,-137.242"/>
<polygon fill="midnightblue" stroke="midnightblue" points="63.1393,-133.746 52.5882,-134.707 61.4357,-140.535 63.1393,-133.746"/>
</g>
<!-- Node3 -->
<g id="node5" class="node"><title>Node3</title>
<a xlink:href="_track_download_dialog_8h.html" target="_top" xlink:title="TrackDownloadDialog.h">
<polygon fill="none" stroke="black" points="253.5,-59 253.5,-79 372.5,-79 372.5,-59 253.5,-59"/>
<text text-anchor="middle" x="313" y="-66" font-family="FreeSans" font-size="10.00">TrackDownloadDialog.h</text>
</a>
</g>
<!-- Node1&#45;&gt;Node3 -->
<g id="edge4" class="edge"><title>Node1&#45;&gt;Node3</title>
<path fill="none" stroke="midnightblue" d="M276.293,-181.485C212.386,-176.501 121.087,-164.79 99,-138 92.78,-130.456 92.8723,-123.619 99,-116 116.953,-93.6759 187.864,-81.3509 243.2,-74.9869"/>
<polygon fill="midnightblue" stroke="midnightblue" points="243.779,-78.4443 253.334,-73.8669 243.011,-71.4866 243.779,-78.4443"/>
</g>
<!-- Node5 -->
<g id="node9" class="node"><title>Node5</title>
<a xlink:href="resource_8h.html" target="_top" xlink:title="resource.h">
<polygon fill="none" stroke="black" points="108,-117 108,-137 170,-137 170,-117 108,-117"/>
<text text-anchor="middle" x="139" y="-124" font-family="FreeSans" font-size="10.00">resource.h</text>
</a>
</g>
<!-- Node1&#45;&gt;Node5 -->
<g id="edge8" class="edge"><title>Node1&#45;&gt;Node5</title>
<path fill="none" stroke="midnightblue" d="M305.814,-174.897C270.788,-164.84 217.058,-149.413 180.093,-138.799"/>
<polygon fill="midnightblue" stroke="midnightblue" points="180.718,-135.337 170.141,-135.941 178.786,-142.065 180.718,-135.337"/>
</g>
<!-- Node6 -->
<g id="node11" class="node"><title>Node6</title>
<polygon fill="none" stroke="#bfbfbf" points="187.5,-117 187.5,-137 246.5,-137 246.5,-117 187.5,-117"/>
<text text-anchor="middle" x="217" y="-124" font-family="FreeSans" font-size="10.00">curl/curl.h</text>
</g>
<!-- Node1&#45;&gt;Node6 -->
<g id="edge10" class="edge"><title>Node1&#45;&gt;Node6</title>
<path fill="none" stroke="midnightblue" d="M319.401,-174.897C299.696,-165.68 270.348,-151.953 248.116,-141.554"/>
<polygon fill="midnightblue" stroke="midnightblue" points="249.309,-138.248 238.768,-137.182 246.343,-144.589 249.309,-138.248"/>
</g>
<!-- Node7 -->
<g id="node13" class="node"><title>Node7</title>
<polygon fill="none" stroke="#bfbfbf" points="263.5,-117 263.5,-137 328.5,-137 328.5,-117 263.5,-117"/>
<text text-anchor="middle" x="296" y="-124" font-family="FreeSans" font-size="10.00">LiteUnzip.h</text>
</g>
<!-- Node1&#45;&gt;Node7 -->
<g id="edge12" class="edge"><title>Node1&#45;&gt;Node7</title>
<path fill="none" stroke="midnightblue" d="M333.162,-174.897C326.851,-166.764 317.816,-155.118 310.235,-145.347"/>
<polygon fill="midnightblue" stroke="midnightblue" points="312.947,-143.133 304.052,-137.378 307.416,-147.424 312.947,-143.133"/>
</g>
<!-- Node8 -->
<g id="node15" class="node"><title>Node8</title>
<polygon fill="none" stroke="#bfbfbf" points="346,-117 346,-137 426,-137 426,-117 346,-117"/>
<text text-anchor="middle" x="386" y="-124" font-family="FreeSans" font-size="10.00">boost/bind.hpp</text>
</g>
<!-- Node1&#45;&gt;Node8 -->
<g id="edge14" class="edge"><title>Node1&#45;&gt;Node8</title>
<path fill="none" stroke="midnightblue" d="M348.838,-174.897C355.149,-166.764 364.184,-155.118 371.765,-145.347"/>
<polygon fill="midnightblue" stroke="midnightblue" points="374.584,-147.424 377.948,-137.378 369.053,-143.133 374.584,-147.424"/>
</g>
<!-- Node9 -->
<g id="node17" class="node"><title>Node9</title>
<polygon fill="none" stroke="#bfbfbf" points="443.5,-117 443.5,-137 562.5,-137 562.5,-117 443.5,-117"/>
<text text-anchor="middle" x="503" y="-124" font-family="FreeSans" font-size="10.00">boost/thread/thread.hpp</text>
</g>
<!-- Node1&#45;&gt;Node9 -->
<g id="edge16" class="edge"><title>Node1&#45;&gt;Node9</title>
<path fill="none" stroke="midnightblue" d="M369.218,-174.897C395.851,-165.362 435.968,-150.999 465.325,-140.488"/>
<polygon fill="midnightblue" stroke="midnightblue" points="466.599,-143.75 474.834,-137.084 464.239,-137.16 466.599,-143.75"/>
</g>
<!-- Node10 -->
<g id="node19" class="node"><title>Node10</title>
<polygon fill="none" stroke="#bfbfbf" points="580,-117 580,-137 612,-137 612,-117 580,-117"/>
<text text-anchor="middle" x="596" y="-124" font-family="FreeSans" font-size="10.00">io.h</text>
</g>
<!-- Node1&#45;&gt;Node10 -->
<g id="edge18" class="edge"><title>Node1&#45;&gt;Node10</title>
<path fill="none" stroke="midnightblue" d="M405.886,-175.533C450.117,-168.214 509.983,-156.615 570.133,-137.809"/>
<polygon fill="midnightblue" stroke="midnightblue" points="571.324,-141.103 579.786,-134.729 569.196,-134.434 571.324,-141.103"/>
</g>
<!-- Node11 -->
<g id="node21" class="node"><title>Node11</title>
<a xlink:href="_config_8h.html" target="_top" xlink:title="../../engine/Util/Config.h">
<polygon fill="none" stroke="black" points="630,-117 630,-137 746,-137 746,-117 630,-117"/>
<text text-anchor="middle" x="688" y="-124" font-family="FreeSans" font-size="10.00">../../engine/Util/Config.h</text>
</a>
</g>
<!-- Node1&#45;&gt;Node11 -->
<g id="edge20" class="edge"><title>Node1&#45;&gt;Node11</title>
<path fill="none" stroke="midnightblue" d="M401.047,-174.963C461.992,-164.776 556.198,-149.03 619.892,-138.384"/>
<polygon fill="midnightblue" stroke="midnightblue" points="620.557,-141.822 629.843,-136.721 619.403,-134.917 620.557,-141.822"/>
</g>
<!-- Node18 -->
<g id="node37" class="node"><title>Node18</title>
<a xlink:href="_str_8h.html" target="_top" xlink:title="../../engine/Util/Str.h">
<polygon fill="none" stroke="black" points="763.5,-117 763.5,-137 864.5,-137 864.5,-117 763.5,-117"/>
<text text-anchor="middle" x="814" y="-124" font-family="FreeSans" font-size="10.00">../../engine/Util/Str.h</text>
</a>
</g>
<!-- Node1&#45;&gt;Node18 -->
<g id="edge38" class="edge"><title>Node1&#45;&gt;Node18</title>
<path fill="none" stroke="midnightblue" d="M405.726,-179.093C485.292,-171.509 624.652,-157.182 753.169,-138.204"/>
<polygon fill="midnightblue" stroke="midnightblue" points="753.815,-141.646 763.19,-136.711 752.783,-134.722 753.815,-141.646"/>
</g>
<!-- Node4 -->
<g id="node7" class="node"><title>Node4</title>
<polygon fill="none" stroke="#bfbfbf" points="611.5,-1 611.5,-21 652.5,-21 652.5,-1 611.5,-1"/>
<text text-anchor="middle" x="632" y="-8" font-family="FreeSans" font-size="10.00">string</text>
</g>
<!-- Node3&#45;&gt;Node4 -->
<g id="edge6" class="edge"><title>Node3&#45;&gt;Node4</title>
<path fill="none" stroke="midnightblue" d="M368.201,-58.9634C435.742,-46.6833 547.714,-26.3248 601.421,-16.5598"/>
<polygon fill="midnightblue" stroke="midnightblue" points="602.143,-19.986 611.356,-14.7535 600.891,-13.0989 602.143,-19.986"/>
</g>
<!-- Node11&#45;&gt;Node4 -->
<g id="edge22" class="edge"><title>Node11&#45;&gt;Node4</title>
<path fill="none" stroke="midnightblue" d="M677.835,-116.65C669.52,-107.65 658.024,-93.9036 651,-80 643.219,-64.5987 638.289,-45.6015 635.406,-31.4422"/>
<polygon fill="midnightblue" stroke="midnightblue" points="638.787,-30.4769 633.518,-21.2851 631.905,-31.7564 638.787,-30.4769"/>
</g>
<!-- Node12 -->
<g id="node24" class="node"><title>Node12</title>
<polygon fill="none" stroke="#bfbfbf" points="660,-59 660,-79 716,-79 716,-59 660,-59"/>
<text text-anchor="middle" x="688" y="-66" font-family="FreeSans" font-size="10.00">basedir.h</text>
</g>
<!-- Node11&#45;&gt;Node12 -->
<g id="edge24" class="edge"><title>Node11&#45;&gt;Node12</title>
<path fill="none" stroke="midnightblue" d="M688,-116.897C688,-109.339 688,-98.7476 688,-89.4458"/>
<polygon fill="midnightblue" stroke="midnightblue" points="691.5,-89.3776 688,-79.3776 684.5,-89.3776 691.5,-89.3776"/>
</g>
<!-- Node13 -->
<g id="node26" class="node"><title>Node13</title>
<a xlink:href="_o_s_8h.html" target="_top" xlink:title="OS.h">
<polygon fill="none" stroke="black" points="734,-59 734,-79 772,-79 772,-59 734,-59"/>
<text text-anchor="middle" x="753" y="-66" font-family="FreeSans" font-size="10.00">OS.h</text>
</a>
</g>
<!-- Node11&#45;&gt;Node13 -->
<g id="edge26" class="edge"><title>Node11&#45;&gt;Node13</title>
<path fill="none" stroke="midnightblue" d="M699.322,-116.897C708.805,-108.435 722.549,-96.1715 733.756,-86.1719"/>
<polygon fill="midnightblue" stroke="midnightblue" points="736.239,-88.647 741.37,-79.3776 731.578,-83.424 736.239,-88.647"/>
</g>
<!-- Node13&#45;&gt;Node4 -->
<g id="edge32" class="edge"><title>Node13&#45;&gt;Node4</title>
<path fill="none" stroke="midnightblue" d="M733.827,-59.8097C714.469,-50.5305 684.297,-36.068 661.815,-25.2913"/>
<polygon fill="midnightblue" stroke="midnightblue" points="663.234,-22.0906 652.704,-20.9242 660.209,-28.4029 663.234,-22.0906"/>
</g>
<!-- Node14 -->
<g id="node28" class="node"><title>Node14</title>
<polygon fill="none" stroke="#bfbfbf" points="674,-1 674,-21 716,-21 716,-1 674,-1"/>
<text text-anchor="middle" x="695" y="-8" font-family="FreeSans" font-size="10.00">locale</text>
</g>
<!-- Node13&#45;&gt;Node14 -->
<g id="edge28" class="edge"><title>Node13&#45;&gt;Node14</title>
<path fill="none" stroke="midnightblue" d="M742.897,-58.8972C734.517,-50.5175 722.409,-38.4093 712.464,-28.4638"/>
<polygon fill="midnightblue" stroke="midnightblue" points="714.924,-25.9738 705.378,-21.3776 709.974,-30.9236 714.924,-25.9738"/>
</g>
<!-- Node15 -->
<g id="node30" class="node"><title>Node15</title>
<polygon fill="none" stroke="#bfbfbf" points="734,-1 734,-21 764,-21 764,-1 734,-1"/>
<text text-anchor="middle" x="749" y="-8" font-family="FreeSans" font-size="10.00">set</text>
</g>
<!-- Node13&#45;&gt;Node15 -->
<g id="edge30" class="edge"><title>Node13&#45;&gt;Node15</title>
<path fill="none" stroke="midnightblue" d="M752.303,-58.8972C751.782,-51.339 751.052,-40.7476 750.41,-31.4458"/>
<polygon fill="midnightblue" stroke="midnightblue" points="753.896,-31.1131 749.716,-21.3776 746.912,-31.5947 753.896,-31.1131"/>
</g>
<!-- Node16 -->
<g id="node33" class="node"><title>Node16</title>
<polygon fill="none" stroke="#bfbfbf" points="782,-1 782,-21 826,-21 826,-1 782,-1"/>
<text text-anchor="middle" x="804" y="-8" font-family="FreeSans" font-size="10.00">vector</text>
</g>
<!-- Node13&#45;&gt;Node16 -->
<g id="edge34" class="edge"><title>Node13&#45;&gt;Node16</title>
<path fill="none" stroke="midnightblue" d="M761.884,-58.8972C769.107,-50.6818 779.482,-38.8827 788.127,-29.0513"/>
<polygon fill="midnightblue" stroke="midnightblue" points="790.9,-31.1985 794.875,-21.3776 785.643,-26.5761 790.9,-31.1985"/>
</g>
<!-- Node17 -->
<g id="node35" class="node"><title>Node17</title>
<polygon fill="none" stroke="#bfbfbf" points="843.5,-1 843.5,-21 948.5,-21 948.5,-1 843.5,-1"/>
<text text-anchor="middle" x="896" y="-8" font-family="FreeSans" font-size="10.00">boost/filesystem.hpp</text>
</g>
<!-- Node13&#45;&gt;Node17 -->
<g id="edge36" class="edge"><title>Node13&#45;&gt;Node17</title>
<path fill="none" stroke="midnightblue" d="M772.286,-61.1779C795.199,-51.8842 833.844,-36.2101 861.854,-24.8494"/>
<polygon fill="midnightblue" stroke="midnightblue" points="863.324,-28.0303 871.275,-21.0283 860.693,-21.5436 863.324,-28.0303"/>
</g>
<!-- Node18&#45;&gt;Node13 -->
<g id="edge40" class="edge"><title>Node18&#45;&gt;Node13</title>
<path fill="none" stroke="midnightblue" d="M803.375,-116.897C794.561,-108.517 781.827,-96.4093 771.367,-86.4638"/>
<polygon fill="midnightblue" stroke="midnightblue" points="773.573,-83.7318 763.914,-79.3776 768.75,-88.8047 773.573,-83.7318"/>
</g>
</g>
</svg>
