<?xml version="1.0" encoding="UTF-8" standalone="no"?>
<!DOCTYPE svg PUBLIC "-//W3C//DTD SVG 1.1//EN"
 "http://www.w3.org/Graphics/SVG/1.1/DTD/svg11.dtd">
<!-- Generated by graphviz version 2.26.3 (20100126.1600)
 -->
<!-- Title: TrackList.h Pages: 1 -->
<svg width="722pt" height="204pt"
 viewBox="0.00 0.00 722.00 204.00" xmlns="http://www.w3.org/2000/svg" xmlns:xlink="http://www.w3.org/1999/xlink">
<g id="graph1" class="graph" transform="scale(1 1) rotate(0) translate(4 200)">
<title>TrackList.h</title>
<!-- Node1 -->
<g id="node1" class="node"><title>Node1</title>
<polygon fill="#bfbfbf" stroke="black" points="419.5,-175 419.5,-195 484.5,-195 484.5,-175 419.5,-175"/>
<text text-anchor="middle" x="452" y="-182" font-family="FreeSans" font-size="10.00">TrackList.h</text>
</g>
<!-- Node2 -->
<g id="node3" class="node"><title>Node2</title>
<a xlink:href="_track_select_dialog_8h.html" target="_top" xlink:title="TrackSelectDialog.h">
<polygon fill="none" stroke="black" points="139,-117 139,-137 243,-137 243,-117 139,-117"/>
<text text-anchor="middle" x="191" y="-124" font-family="FreeSans" font-size="10.00">TrackSelectDialog.h</text>
</a>
</g>
<!-- Node1&#45;&gt;Node2 -->
<g id="edge2" class="edge"><title>Node1&#45;&gt;Node2</title>
<path fill="none" stroke="midnightblue" d="M409.481,-175.551C361.845,-164.966 284.935,-147.874 236.223,-137.05"/>
<polygon fill="midnightblue" stroke="midnightblue" points="408.951,-179.019 419.472,-177.772 410.469,-172.185 408.951,-179.019"/>
</g>
<!-- Node8 -->
<g id="node16" class="node"><title>Node8</title>
<a xlink:href="_track_select_scene_8h.html" target="_top" xlink:title="TrackSelectScene.h">
<polygon fill="none" stroke="black" points="339,-117 339,-137 443,-137 443,-117 339,-117"/>
<text text-anchor="middle" x="391" y="-124" font-family="FreeSans" font-size="10.00">TrackSelectScene.h</text>
</a>
</g>
<!-- Node1&#45;&gt;Node8 -->
<g id="edge16" class="edge"><title>Node1&#45;&gt;Node8</title>
<path fill="none" stroke="midnightblue" d="M433.973,-167.86C423.564,-157.962 410.812,-145.838 401.914,-137.378"/>
<polygon fill="midnightblue" stroke="midnightblue" points="431.716,-170.543 441.375,-174.897 436.539,-165.47 431.716,-170.543"/>
</g>
<!-- Node11 -->
<g id="node22" class="node"><title>Node11</title>
<a xlink:href="_game_select_scene_8h.html" target="_top" xlink:title="GameSelectScene.h">
<polygon fill="none" stroke="black" points="461,-117 461,-137 567,-137 567,-117 461,-117"/>
<text text-anchor="middle" x="514" y="-124" font-family="FreeSans" font-size="10.00">GameSelectScene.h</text>
</a>
</g>
<!-- Node1&#45;&gt;Node11 -->
<g id="edge22" class="edge"><title>Node1&#45;&gt;Node11</title>
<path fill="none" stroke="midnightblue" d="M470.322,-167.86C480.902,-157.962 493.863,-145.838 502.907,-137.378"/>
<polygon fill="midnightblue" stroke="midnightblue" points="467.711,-165.51 462.8,-174.897 472.493,-170.622 467.711,-165.51"/>
</g>
<!-- Node13 -->
<g id="node27" class="node"><title>Node13</title>
<a xlink:href="_track_list_8cpp.html" target="_top" xlink:title="TrackList.cpp">
<polygon fill="none" stroke="black" points="585,-117 585,-137 661,-137 661,-117 585,-117"/>
<text text-anchor="middle" x="623" y="-124" font-family="FreeSans" font-size="10.00">TrackList.cpp</text>
</a>
</g>
<!-- Node1&#45;&gt;Node13 -->
<g id="edge28" class="edge"><title>Node1&#45;&gt;Node13</title>
<path fill="none" stroke="midnightblue" d="M491.425,-171.628C522.463,-161.1 565.053,-146.654 593.269,-137.084"/>
<polygon fill="midnightblue" stroke="midnightblue" points="490.132,-168.37 481.786,-174.897 492.38,-175 490.132,-168.37"/>
</g>
<!-- Node3 -->
<g id="node5" class="node"><title>Node3</title>
<a xlink:href="_game_app_8cpp.html" target="_top" xlink:title="GameApp.cpp">
<polygon fill="none" stroke="black" points="0,-1 0,-21 78,-21 78,-1 0,-1"/>
<text text-anchor="middle" x="39" y="-8" font-family="FreeSans" font-size="10.00">GameApp.cpp</text>
</a>
</g>
<!-- Node2&#45;&gt;Node3 -->
<g id="edge4" class="edge"><title>Node2&#45;&gt;Node3</title>
<path fill="none" stroke="midnightblue" d="M144.513,-113.624C124.063,-106.105 100.72,-95.1322 83,-80 63.5528,-63.3925 49.7003,-36.0268 43.1893,-21.242"/>
<polygon fill="midnightblue" stroke="midnightblue" points="143.383,-116.936 153.978,-116.939 145.697,-110.33 143.383,-116.936"/>
</g>
<!-- Node4 -->
<g id="node7" class="node"><title>Node4</title>
<a xlink:href="_internet_room_8h.html" target="_top" xlink:title="InternetRoom.h">
<polygon fill="none" stroke="black" points="91.5,-59 91.5,-79 174.5,-79 174.5,-59 91.5,-59"/>
<text text-anchor="middle" x="133" y="-66" font-family="FreeSans" font-size="10.00">InternetRoom.h</text>
</a>
</g>
<!-- Node2&#45;&gt;Node4 -->
<g id="edge6" class="edge"><title>Node2&#45;&gt;Node4</title>
<path fill="none" stroke="midnightblue" d="M173.568,-109.568C163.725,-99.7249 151.755,-87.7548 143.378,-79.3776"/>
<polygon fill="midnightblue" stroke="midnightblue" points="171.351,-112.301 180.897,-116.897 176.301,-107.351 171.351,-112.301"/>
</g>
<!-- Node7 -->
<g id="node14" class="node"><title>Node7</title>
<a xlink:href="_track_select_dialog_8cpp.html" target="_top" xlink:title="TrackSelectDialog.cpp">
<polygon fill="none" stroke="black" points="192,-59 192,-79 306,-79 306,-59 192,-59"/>
<text text-anchor="middle" x="249" y="-66" font-family="FreeSans" font-size="10.00">TrackSelectDialog.cpp</text>
</a>
</g>
<!-- Node2&#45;&gt;Node7 -->
<g id="edge14" class="edge"><title>Node2&#45;&gt;Node7</title>
<path fill="none" stroke="midnightblue" d="M208.432,-109.568C218.275,-99.7249 230.245,-87.7548 238.622,-79.3776"/>
<polygon fill="midnightblue" stroke="midnightblue" points="205.699,-107.351 201.103,-116.897 210.649,-112.301 205.699,-107.351"/>
</g>
<!-- Node4&#45;&gt;Node3 -->
<g id="edge8" class="edge"><title>Node4&#45;&gt;Node3</title>
<path fill="none" stroke="midnightblue" d="M107.956,-53.5474C91.3433,-43.2969 70.01,-30.1339 55.5013,-21.1817"/>
<polygon fill="midnightblue" stroke="midnightblue" points="106.278,-56.6247 116.626,-58.8972 109.954,-50.6674 106.278,-56.6247"/>
</g>
<!-- Node5 -->
<g id="node10" class="node"><title>Node5</title>
<a xlink:href="_internet_room_8cpp.html" target="_top" xlink:title="InternetRoom.cpp">
<polygon fill="none" stroke="black" points="95.5,-1 95.5,-21 188.5,-21 188.5,-1 95.5,-1"/>
<text text-anchor="middle" x="142" y="-8" font-family="FreeSans" font-size="10.00">InternetRoom.cpp</text>
</a>
</g>
<!-- Node4&#45;&gt;Node5 -->
<g id="edge10" class="edge"><title>Node4&#45;&gt;Node5</title>
<path fill="none" stroke="midnightblue" d="M136.12,-48.8902C137.559,-39.6201 139.206,-29.0083 140.39,-21.3776"/>
<polygon fill="midnightblue" stroke="midnightblue" points="132.643,-48.4787 134.568,-58.8972 139.56,-49.5521 132.643,-48.4787"/>
</g>
<!-- Node6 -->
<g id="node12" class="node"><title>Node6</title>
<a xlink:href="_network_session_8cpp.html" target="_top" xlink:title="NetworkSession.cpp">
<polygon fill="none" stroke="black" points="205.5,-1 205.5,-21 312.5,-21 312.5,-1 205.5,-1"/>
<text text-anchor="middle" x="259" y="-8" font-family="FreeSans" font-size="10.00">NetworkSession.cpp</text>
</a>
</g>
<!-- Node4&#45;&gt;Node6 -->
<g id="edge12" class="edge"><title>Node4&#45;&gt;Node6</title>
<path fill="none" stroke="midnightblue" d="M164.122,-54.674C186.707,-44.2778 216.713,-30.4654 236.881,-21.1817"/>
<polygon fill="midnightblue" stroke="midnightblue" points="162.568,-51.5363 154.948,-58.8972 165.495,-57.895 162.568,-51.5363"/>
</g>
<!-- Node9 -->
<g id="node18" class="node"><title>Node9</title>
<a xlink:href="_game_select_scene_8cpp.html" target="_top" xlink:title="GameSelectScene.cpp">
<polygon fill="none" stroke="black" points="456,-59 456,-79 572,-79 572,-59 456,-59"/>
<text text-anchor="middle" x="514" y="-66" font-family="FreeSans" font-size="10.00">GameSelectScene.cpp</text>
</a>
</g>
<!-- Node8&#45;&gt;Node9 -->
<g id="edge18" class="edge"><title>Node8&#45;&gt;Node9</title>
<path fill="none" stroke="midnightblue" d="M421.677,-112.535C443.69,-102.155 472.808,-88.424 492.408,-79.1817"/>
<polygon fill="midnightblue" stroke="midnightblue" points="419.977,-109.466 412.425,-116.897 422.963,-115.798 419.977,-109.466"/>
</g>
<!-- Node10 -->
<g id="node20" class="node"><title>Node10</title>
<a xlink:href="_track_select_scene_8cpp.html" target="_top" xlink:title="TrackSelectScene.cpp">
<polygon fill="none" stroke="black" points="323.5,-59 323.5,-79 438.5,-79 438.5,-59 323.5,-59"/>
<text text-anchor="middle" x="381" y="-66" font-family="FreeSans" font-size="10.00">TrackSelectScene.cpp</text>
</a>
</g>
<!-- Node8&#45;&gt;Node10 -->
<g id="edge20" class="edge"><title>Node8&#45;&gt;Node10</title>
<path fill="none" stroke="midnightblue" d="M387.533,-106.89C385.935,-97.6201 384.105,-87.0083 382.789,-79.3776"/>
<polygon fill="midnightblue" stroke="midnightblue" points="384.11,-107.637 389.258,-116.897 391.008,-106.448 384.11,-107.637"/>
</g>
<!-- Node11&#45;&gt;Node9 -->
<g id="edge24" class="edge"><title>Node11&#45;&gt;Node9</title>
<path fill="none" stroke="midnightblue" d="M514,-106.89C514,-97.6201 514,-87.0083 514,-79.3776"/>
<polygon fill="midnightblue" stroke="midnightblue" points="510.5,-106.897 514,-116.897 517.5,-106.897 510.5,-106.897"/>
</g>
<!-- Node12 -->
<g id="node25" class="node"><title>Node12</title>
<a xlink:href="_practice_setup_scene_8cpp.html" target="_top" xlink:title="PracticeSetupScene.cpp">
<polygon fill="none" stroke="black" points="590,-59 590,-79 714,-79 714,-59 590,-59"/>
<text text-anchor="middle" x="652" y="-66" font-family="FreeSans" font-size="10.00">PracticeSetupScene.cpp</text>
</a>
</g>
<!-- Node11&#45;&gt;Node12 -->
<g id="edge26" class="edge"><title>Node11&#45;&gt;Node12</title>
<path fill="none" stroke="midnightblue" d="M547.425,-112.952C572.234,-102.525 605.488,-88.5483 627.775,-79.1817"/>
<polygon fill="midnightblue" stroke="midnightblue" points="545.901,-109.796 538.038,-116.897 548.613,-116.249 545.901,-109.796"/>
</g>
</g>
</svg>
