<?xml version="1.0" encoding="UTF-8" standalone="no"?>
<!DOCTYPE svg PUBLIC "-//W3C//DTD SVG 1.1//EN"
 "http://www.w3.org/Graphics/SVG/1.1/DTD/svg11.dtd">
<!-- Generated by graphviz version 2.38.0 (20140413.2041)
 -->
<!-- Title: TrackEntry.h Pages: 1 -->
<!--zoomable 196 -->
<svg id="main" version="1.1" xmlns="http://www.w3.org/2000/svg" xmlns:xlink="http://www.w3.org/1999/xlink" xml:space="preserve" onload="init(evt)">
<style type="text/css"><![CDATA[
.edge:hover path { stroke: red; }
.edge:hover polygon { stroke: red; fill: red; }
]]></style>
<script type="text/javascript"><![CDATA[
var edges = document.getElementsByTagName('g');
if (edges && edges.length) {
  for (var i=0;i<edges.length;i++) {
    if (edges[i].id.substr(0,4)=='edge') {
      edges[i].setAttribute('class','edge');
    }
  }
}
]]></script>
        <defs>
                <circle id="rim" cx="0" cy="0" r="7"/>
                <circle id="rim2" cx="0" cy="0" r="3.5"/>
                <g id="zoomPlus">
                        <use xlink:href="#rim" fill="#404040">
                                <set attributeName="fill" to="#808080" begin="zoomplus.mouseover" end="zoomplus.mouseout"/>
                        </use>
                        <path d="M-4,0h8M0,-4v8" fill="none" stroke="white" stroke-width="1.5" pointer-events="none"/>
                </g>
                <g id="zoomMin">
                        <use xlink:href="#rim" fill="#404040">
                                <set attributeName="fill" to="#808080" begin="zoomminus.mouseover" end="zoomminus.mouseout"/>
                        </use>
                        <path d="M-4,0h8" fill="none" stroke="white" stroke-width="1.5" pointer-events="none"/>
                </g>
                <g id="dirArrow">
                        <path fill="none" stroke="white" stroke-width="1.5" d="M0,-3.0v7 M-2.5,-0.5L0,-3.0L2.5,-0.5"/>
                </g>
               <g id="resetDef">
                       <use xlink:href="#rim2" fill="#404040">
                               <set attributeName="fill" to="#808080" begin="reset.mouseover" end="reset.mouseout"/>
                       </use>
               </g>
        </defs>

<script type="text/javascript">
var viewWidth = 1762;
var viewHeight = 196;
var sectionId = 'dynsection-1';
</script>
<script xlink:href="svgpan.js"/>
<svg id="graph" class="graph">
<g id="viewport">
<title>TrackEntry.h</title>
<!-- Node1 -->
<g id="node1" class="node"><title>Node1</title>
<polygon fill="#bfbfbf" stroke="black" points="1401,-168.5 1401,-187.5 1474,-187.5 1474,-168.5 1401,-168.5"/>
<text text-anchor="middle" x="1437.5" y="-175.5" font-family="Helvetica,sans-Serif" font-size="10.00">TrackEntry.h</text>
</g>
<!-- Node2 -->
<g id="node2" class="node"><title>Node2</title>
<g id="a_node2"><a xlink:href="_track_8h.html" target="_top" xlink:title="Track.h">
<polygon fill="none" stroke="black" points="618.5,-112.5 618.5,-131.5 668.5,-131.5 668.5,-112.5 618.5,-112.5"/>
<text text-anchor="middle" x="643.5" y="-119.5" font-family="Helvetica,sans-Serif" font-size="10.00">Track.h</text>
</a>
</g>
</g>
<!-- Node1&#45;&gt;Node2 -->
<g id="edge1" class="edge"><title>Node1&#45;&gt;Node2</title>
<path fill="none" stroke="midnightblue" d="M1390.61,-173.811C1241.59,-163.676 781.985,-132.418 668.856,-124.724"/>
<polygon fill="midnightblue" stroke="midnightblue" points="1390.58,-177.317 1400.8,-174.504 1391.06,-170.333 1390.58,-177.317"/>
</g>
<!-- Node15 -->
<g id="node15" class="node"><title>Node15</title>
<g id="a_node15"><a xlink:href="_track_bundle_8cpp.html" target="_top" xlink:title="TrackBundle.cpp">
<polygon fill="none" stroke="black" points="1181.5,-56.5 1181.5,-75.5 1271.5,-75.5 1271.5,-56.5 1181.5,-56.5"/>
<text text-anchor="middle" x="1226.5" y="-63.5" font-family="Helvetica,sans-Serif" font-size="10.00">TrackBundle.cpp</text>
</a>
</g>
</g>
<!-- Node1&#45;&gt;Node15 -->
<g id="edge25" class="edge"><title>Node1&#45;&gt;Node15</title>
<path fill="none" stroke="midnightblue" d="M1412.06,-163.735C1368.22,-140.884 1279.65,-94.7108 1242.98,-75.5914"/>
<polygon fill="midnightblue" stroke="midnightblue" points="1410.46,-166.849 1420.94,-168.368 1413.69,-160.642 1410.46,-166.849"/>
</g>
<!-- Node16 -->
<g id="node16" class="node"><title>Node16</title>
<g id="a_node16"><a xlink:href="_track_list_8h.html" target="_top" xlink:title="TrackList.h">
<polygon fill="none" stroke="black" points="1405,-112.5 1405,-131.5 1470,-131.5 1470,-112.5 1405,-112.5"/>
<text text-anchor="middle" x="1437.5" y="-119.5" font-family="Helvetica,sans-Serif" font-size="10.00">TrackList.h</text>
</a>
</g>
</g>
<!-- Node1&#45;&gt;Node16 -->
<g id="edge15" class="edge"><title>Node1&#45;&gt;Node16</title>
<path fill="none" stroke="midnightblue" d="M1437.5,-157.805C1437.5,-148.91 1437.5,-138.78 1437.5,-131.751"/>
<polygon fill="midnightblue" stroke="midnightblue" points="1434,-158.083 1437.5,-168.083 1441,-158.083 1434,-158.083"/>
</g>
<!-- Node19 -->
<g id="node19" class="node"><title>Node19</title>
<g id="a_node19"><a xlink:href="_track_select_scene_8cpp.html" target="_top" xlink:title="TrackSelectScene.cpp">
<polygon fill="none" stroke="black" points="1584.5,-0.5 1584.5,-19.5 1700.5,-19.5 1700.5,-0.5 1584.5,-0.5"/>
<text text-anchor="middle" x="1642.5" y="-7.5" font-family="Helvetica,sans-Serif" font-size="10.00">TrackSelectScene.cpp</text>
</a>
</g>
</g>
<!-- Node1&#45;&gt;Node19 -->
<g id="edge23" class="edge"><title>Node1&#45;&gt;Node19</title>
<path fill="none" stroke="midnightblue" d="M1477.4,-165.217C1519.4,-150.813 1584.57,-122.444 1622.5,-76 1636.24,-59.1731 1640.56,-32.9558 1641.9,-19.5396"/>
<polygon fill="midnightblue" stroke="midnightblue" points="1476.16,-161.941 1467.78,-168.414 1478.37,-168.584 1476.16,-161.941"/>
</g>
<!-- Node23 -->
<g id="node23" class="node"><title>Node23</title>
<g id="a_node23"><a xlink:href="_track_entry_8cpp.html" target="_top" xlink:title="TrackEntry.cpp">
<polygon fill="none" stroke="black" points="1671,-112.5 1671,-131.5 1754,-131.5 1754,-112.5 1671,-112.5"/>
<text text-anchor="middle" x="1712.5" y="-119.5" font-family="Helvetica,sans-Serif" font-size="10.00">TrackEntry.cpp</text>
</a>
</g>
</g>
<!-- Node1&#45;&gt;Node23 -->
<g id="edge24" class="edge"><title>Node1&#45;&gt;Node23</title>
<path fill="none" stroke="midnightblue" d="M1484.04,-167.861C1536.39,-157.581 1620.64,-141.038 1670.88,-131.172"/>
<polygon fill="midnightblue" stroke="midnightblue" points="1483.16,-164.468 1474.02,-169.829 1484.5,-171.337 1483.16,-164.468"/>
</g>
<!-- Node3 -->
<g id="node3" class="node"><title>Node3</title>
<g id="a_node3"><a xlink:href="_client_app_8cpp.html" target="_top" xlink:title="ClientApp.cpp">
<polygon fill="none" stroke="black" points="655.5,-56.5 655.5,-75.5 733.5,-75.5 733.5,-56.5 655.5,-56.5"/>
<text text-anchor="middle" x="694.5" y="-63.5" font-family="Helvetica,sans-Serif" font-size="10.00">ClientApp.cpp</text>
</a>
</g>
</g>
<!-- Node2&#45;&gt;Node3 -->
<g id="edge2" class="edge"><title>Node2&#45;&gt;Node3</title>
<path fill="none" stroke="midnightblue" d="M658.878,-104.718C667.867,-95.1997 678.859,-83.5608 686.235,-75.7511"/>
<polygon fill="midnightblue" stroke="midnightblue" points="656.243,-102.41 651.922,-112.083 661.332,-107.216 656.243,-102.41"/>
</g>
<!-- Node4 -->
<g id="node4" class="node"><title>Node4</title>
<g id="a_node4"><a xlink:href="_client_session_8cpp.html" target="_top" xlink:title="ClientSession.cpp">
<polygon fill="none" stroke="black" points="751.5,-56.5 751.5,-75.5 847.5,-75.5 847.5,-56.5 751.5,-56.5"/>
<text text-anchor="middle" x="799.5" y="-63.5" font-family="Helvetica,sans-Serif" font-size="10.00">ClientSession.cpp</text>
</a>
</g>
</g>
<!-- Node2&#45;&gt;Node4 -->
<g id="edge3" class="edge"><title>Node2&#45;&gt;Node4</title>
<path fill="none" stroke="midnightblue" d="M677.67,-109.172C707.044,-99.0039 748.698,-84.5852 774.897,-75.5164"/>
<polygon fill="midnightblue" stroke="midnightblue" points="676.524,-105.865 668.219,-112.444 678.813,-112.48 676.524,-105.865"/>
</g>
<!-- Node5 -->
<g id="node5" class="node"><title>Node5</title>
<g id="a_node5"><a xlink:href="_game_scene_8cpp.html" target="_top" xlink:title="GameScene.cpp">
<polygon fill="none" stroke="black" points="866,-56.5 866,-75.5 955,-75.5 955,-56.5 866,-56.5"/>
<text text-anchor="middle" x="910.5" y="-63.5" font-family="Helvetica,sans-Serif" font-size="10.00">GameScene.cpp</text>
</a>
</g>
</g>
<!-- Node2&#45;&gt;Node5 -->
<g id="edge4" class="edge"><title>Node2&#45;&gt;Node5</title>
<path fill="none" stroke="midnightblue" d="M678.713,-113.878C727.596,-103.992 815.9,-86.1326 868.266,-75.5418"/>
<polygon fill="midnightblue" stroke="midnightblue" points="677.726,-110.507 668.619,-115.92 679.114,-117.368 677.726,-110.507"/>
</g>
<!-- Node6 -->
<g id="node6" class="node"><title>Node6</title>
<g id="a_node6"><a xlink:href="_minimap_8cpp.html" target="_top" xlink:title="Minimap.cpp">
<polygon fill="none" stroke="black" points="973.5,-56.5 973.5,-75.5 1045.5,-75.5 1045.5,-56.5 973.5,-56.5"/>
<text text-anchor="middle" x="1009.5" y="-63.5" font-family="Helvetica,sans-Serif" font-size="10.00">Minimap.cpp</text>
</a>
</g>
</g>
<!-- Node2&#45;&gt;Node6 -->
<g id="edge5" class="edge"><title>Node2&#45;&gt;Node6</title>
<path fill="none" stroke="midnightblue" d="M678.812,-116.662C737.884,-109.264 860.419,-93.3192 963.5,-76 966.71,-75.4607 970.04,-74.8702 973.374,-74.2576"/>
<polygon fill="midnightblue" stroke="midnightblue" points="678.366,-113.19 668.875,-117.9 679.232,-120.137 678.366,-113.19"/>
</g>
<!-- Node7 -->
<g id="node7" class="node"><title>Node7</title>
<g id="a_node7"><a xlink:href="_main_character_8cpp.html" target="_top" xlink:title="MainCharacter.cpp">
<polygon fill="none" stroke="black" points="1064,-56.5 1064,-75.5 1163,-75.5 1163,-56.5 1064,-56.5"/>
<text text-anchor="middle" x="1113.5" y="-63.5" font-family="Helvetica,sans-Serif" font-size="10.00">MainCharacter.cpp</text>
</a>
</g>
</g>
<!-- Node2&#45;&gt;Node7 -->
<g id="edge6" class="edge"><title>Node2&#45;&gt;Node7</title>
<path fill="none" stroke="midnightblue" d="M678.757,-117.647C749.907,-110.77 915.72,-94.1741 1054.5,-76 1057.58,-75.5964 1060.75,-75.1638 1063.95,-74.7145"/>
<polygon fill="midnightblue" stroke="midnightblue" points="678.183,-114.186 668.564,-118.629 678.854,-121.154 678.183,-114.186"/>
</g>
<!-- Node8 -->
<g id="node8" class="node"><title>Node8</title>
<g id="a_node8"><a xlink:href="_track_compiler_8cpp.html" target="_top" xlink:title="TrackCompiler.cpp">
<polygon fill="none" stroke="black" points="0,-56.5 0,-75.5 99,-75.5 99,-56.5 0,-56.5"/>
<text text-anchor="middle" x="49.5" y="-63.5" font-family="Helvetica,sans-Serif" font-size="10.00">TrackCompiler.cpp</text>
</a>
</g>
</g>
<!-- Node2&#45;&gt;Node8 -->
<g id="edge7" class="edge"><title>Node2&#45;&gt;Node8</title>
<path fill="none" stroke="midnightblue" d="M608.335,-118.905C522.546,-113.608 295.759,-98.4809 107.5,-76 104.768,-75.6738 101.967,-75.3162 99.1425,-74.9377"/>
<polygon fill="midnightblue" stroke="midnightblue" points="608.125,-122.399 618.32,-119.516 608.553,-115.412 608.125,-122.399"/>
</g>
<!-- Node9 -->
<g id="node9" class="node"><title>Node9</title>
<g id="a_node9"><a xlink:href="_game_session_8cpp.html" target="_top" xlink:title="GameSession.cpp">
<polygon fill="none" stroke="black" points="117,-56.5 117,-75.5 214,-75.5 214,-56.5 117,-56.5"/>
<text text-anchor="middle" x="165.5" y="-63.5" font-family="Helvetica,sans-Serif" font-size="10.00">GameSession.cpp</text>
</a>
</g>
</g>
<!-- Node2&#45;&gt;Node9 -->
<g id="edge8" class="edge"><title>Node2&#45;&gt;Node9</title>
<path fill="none" stroke="midnightblue" d="M607.906,-117.803C535.302,-111.147 364.939,-94.8457 222.5,-76 219.818,-75.6452 217.068,-75.2651 214.294,-74.8691"/>
<polygon fill="midnightblue" stroke="midnightblue" points="608.021,-121.328 618.298,-118.751 608.657,-114.357 608.021,-121.328"/>
</g>
<!-- Node10 -->
<g id="node10" class="node"><title>Node10</title>
<g id="a_node10"><a xlink:href="_level_8cpp.html" target="_top" xlink:title="Level.cpp">
<polygon fill="none" stroke="black" points="232,-56.5 232,-75.5 291,-75.5 291,-56.5 232,-56.5"/>
<text text-anchor="middle" x="261.5" y="-63.5" font-family="Helvetica,sans-Serif" font-size="10.00">Level.cpp</text>
</a>
</g>
</g>
<!-- Node2&#45;&gt;Node10 -->
<g id="edge9" class="edge"><title>Node2&#45;&gt;Node10</title>
<path fill="none" stroke="midnightblue" d="M608.331,-117.517C546.014,-111.094 412.242,-96.1749 300.5,-76 297.491,-75.4568 294.365,-74.8344 291.249,-74.1761"/>
<polygon fill="midnightblue" stroke="midnightblue" points="608.107,-121.012 618.411,-118.546 608.818,-114.049 608.107,-121.012"/>
</g>
<!-- Node11 -->
<g id="node11" class="node"><title>Node11</title>
<g id="a_node11"><a xlink:href="_track_8cpp.html" target="_top" xlink:title="Track.cpp">
<polygon fill="none" stroke="black" points="309.5,-56.5 309.5,-75.5 369.5,-75.5 369.5,-56.5 309.5,-56.5"/>
<text text-anchor="middle" x="339.5" y="-63.5" font-family="Helvetica,sans-Serif" font-size="10.00">Track.cpp</text>
</a>
</g>
</g>
<!-- Node2&#45;&gt;Node11 -->
<g id="edge10" class="edge"><title>Node2&#45;&gt;Node11</title>
<path fill="none" stroke="midnightblue" d="M608.044,-115.656C557.098,-107.823 460.308,-92.3708 378.5,-76 375.638,-75.4273 372.666,-74.8003 369.696,-74.1522"/>
<polygon fill="midnightblue" stroke="midnightblue" points="607.783,-119.157 618.198,-117.209 608.842,-112.237 607.783,-119.157"/>
</g>
<!-- Node12 -->
<g id="node12" class="node"><title>Node12</title>
<g id="a_node12"><a xlink:href="_mine_8cpp.html" target="_top" xlink:title="Mine.cpp">
<polygon fill="none" stroke="black" points="387.5,-56.5 387.5,-75.5 443.5,-75.5 443.5,-56.5 387.5,-56.5"/>
<text text-anchor="middle" x="415.5" y="-63.5" font-family="Helvetica,sans-Serif" font-size="10.00">Mine.cpp</text>
</a>
</g>
</g>
<!-- Node2&#45;&gt;Node12 -->
<g id="edge11" class="edge"><title>Node2&#45;&gt;Node12</title>
<path fill="none" stroke="midnightblue" d="M608.331,-112.794C569.997,-103.832 506.86,-89.0148 452.5,-76 449.671,-75.3227 446.722,-74.6124 443.777,-73.9004"/>
<polygon fill="midnightblue" stroke="midnightblue" points="607.923,-116.293 618.458,-115.161 609.516,-109.477 607.923,-116.293"/>
</g>
<!-- Node13 -->
<g id="node13" class="node"><title>Node13</title>
<g id="a_node13"><a xlink:href="_missile_8cpp.html" target="_top" xlink:title="Missile.cpp">
<polygon fill="none" stroke="black" points="461.5,-56.5 461.5,-75.5 527.5,-75.5 527.5,-56.5 461.5,-56.5"/>
<text text-anchor="middle" x="494.5" y="-63.5" font-family="Helvetica,sans-Serif" font-size="10.00">Missile.cpp</text>
</a>
</g>
</g>
<!-- Node2&#45;&gt;Node13 -->
<g id="edge12" class="edge"><title>Node2&#45;&gt;Node13</title>
<path fill="none" stroke="midnightblue" d="M610.129,-108.906C582.116,-98.7536 542.804,-84.5063 517.999,-75.5164"/>
<polygon fill="midnightblue" stroke="midnightblue" points="609.296,-112.327 619.891,-112.444 611.681,-105.746 609.296,-112.327"/>
</g>
<!-- Node14 -->
<g id="node14" class="node"><title>Node14</title>
<g id="a_node14"><a xlink:href="_test_element_8cpp.html" target="_top" xlink:title="TestElement.cpp">
<polygon fill="none" stroke="black" points="546,-56.5 546,-75.5 637,-75.5 637,-56.5 546,-56.5"/>
<text text-anchor="middle" x="591.5" y="-63.5" font-family="Helvetica,sans-Serif" font-size="10.00">TestElement.cpp</text>
</a>
</g>
</g>
<!-- Node2&#45;&gt;Node14 -->
<g id="edge13" class="edge"><title>Node2&#45;&gt;Node14</title>
<path fill="none" stroke="midnightblue" d="M627.821,-104.718C618.655,-95.1997 607.447,-83.5608 599.927,-75.7511"/>
<polygon fill="midnightblue" stroke="midnightblue" points="625.456,-107.308 634.913,-112.083 630.498,-102.452 625.456,-107.308"/>
</g>
<!-- Node2&#45;&gt;Node15 -->
<g id="edge14" class="edge"><title>Node2&#45;&gt;Node15</title>
<path fill="none" stroke="midnightblue" d="M678.711,-118.942C763.667,-113.77 986.546,-98.9794 1171.5,-76 1174.67,-75.6063 1177.93,-75.1646 1181.22,-74.6937"/>
<polygon fill="midnightblue" stroke="midnightblue" points="678.353,-115.457 668.581,-119.552 678.774,-122.444 678.353,-115.457"/>
</g>
<!-- Node17 -->
<g id="node17" class="node"><title>Node17</title>
<g id="a_node17"><a xlink:href="_track_select_scene_8h.html" target="_top" xlink:title="TrackSelectScene.h">
<polygon fill="none" stroke="black" points="1509,-56.5 1509,-75.5 1614,-75.5 1614,-56.5 1509,-56.5"/>
<text text-anchor="middle" x="1561.5" y="-63.5" font-family="Helvetica,sans-Serif" font-size="10.00">TrackSelectScene.h</text>
</a>
</g>
</g>
<!-- Node16&#45;&gt;Node17 -->
<g id="edge16" class="edge"><title>Node16&#45;&gt;Node17</title>
<path fill="none" stroke="midnightblue" d="M1466.51,-108.368C1489.73,-98.2553 1521.66,-84.3486 1541.94,-75.5164"/>
<polygon fill="midnightblue" stroke="midnightblue" points="1464.92,-105.242 1457.15,-112.444 1467.71,-111.66 1464.92,-105.242"/>
</g>
<!-- Node20 -->
<g id="node20" class="node"><title>Node20</title>
<g id="a_node20"><a xlink:href="_game_select_scene_8h.html" target="_top" xlink:title="GameSelectScene.h">
<polygon fill="none" stroke="black" points="1384,-56.5 1384,-75.5 1491,-75.5 1491,-56.5 1384,-56.5"/>
<text text-anchor="middle" x="1437.5" y="-63.5" font-family="Helvetica,sans-Serif" font-size="10.00">GameSelectScene.h</text>
</a>
</g>
</g>
<!-- Node16&#45;&gt;Node20 -->
<g id="edge19" class="edge"><title>Node16&#45;&gt;Node20</title>
<path fill="none" stroke="midnightblue" d="M1437.5,-101.805C1437.5,-92.9102 1437.5,-82.7798 1437.5,-75.7511"/>
<polygon fill="midnightblue" stroke="midnightblue" points="1434,-102.083 1437.5,-112.083 1441,-102.083 1434,-102.083"/>
</g>
<!-- Node22 -->
<g id="node22" class="node"><title>Node22</title>
<g id="a_node22"><a xlink:href="_track_list_8cpp.html" target="_top" xlink:title="TrackList.cpp">
<polygon fill="none" stroke="black" points="1289.5,-56.5 1289.5,-75.5 1365.5,-75.5 1365.5,-56.5 1289.5,-56.5"/>
<text text-anchor="middle" x="1327.5" y="-63.5" font-family="Helvetica,sans-Serif" font-size="10.00">TrackList.cpp</text>
</a>
</g>
</g>
<!-- Node16&#45;&gt;Node22 -->
<g id="edge22" class="edge"><title>Node16&#45;&gt;Node22</title>
<path fill="none" stroke="midnightblue" d="M1410.74,-107.862C1390.34,-97.8492 1362.83,-84.3458 1345.13,-75.6545"/>
<polygon fill="midnightblue" stroke="midnightblue" points="1409.31,-111.059 1419.83,-112.324 1412.39,-104.775 1409.31,-111.059"/>
</g>
<!-- Node18 -->
<g id="node18" class="node"><title>Node18</title>
<g id="a_node18"><a xlink:href="_game_select_scene_8cpp.html" target="_top" xlink:title="GameSelectScene.cpp">
<polygon fill="none" stroke="black" points="1449,-0.5 1449,-19.5 1566,-19.5 1566,-0.5 1449,-0.5"/>
<text text-anchor="middle" x="1507.5" y="-7.5" font-family="Helvetica,sans-Serif" font-size="10.00">GameSelectScene.cpp</text>
</a>
</g>
</g>
<!-- Node17&#45;&gt;Node18 -->
<g id="edge17" class="edge"><title>Node17&#45;&gt;Node18</title>
<path fill="none" stroke="midnightblue" d="M1545.5,-49.0024C1535.93,-39.4329 1524.14,-27.6389 1516.25,-19.7511"/>
<polygon fill="midnightblue" stroke="midnightblue" points="1543.04,-51.4868 1552.58,-56.083 1547.99,-46.537 1543.04,-51.4868"/>
</g>
<!-- Node17&#45;&gt;Node19 -->
<g id="edge18" class="edge"><title>Node17&#45;&gt;Node19</title>
<path fill="none" stroke="midnightblue" d="M1583.07,-50.6221C1597.86,-40.7574 1617.01,-27.9919 1629.52,-19.6545"/>
<polygon fill="midnightblue" stroke="midnightblue" points="1580.89,-47.8647 1574.51,-56.324 1584.78,-53.6891 1580.89,-47.8647"/>
</g>
<!-- Node20&#45;&gt;Node18 -->
<g id="edge20" class="edge"><title>Node20&#45;&gt;Node18</title>
<path fill="none" stroke="midnightblue" d="M1456.81,-50.1008C1469.41,-40.3824 1485.43,-28.0269 1496.05,-19.8339"/>
<polygon fill="midnightblue" stroke="midnightblue" points="1454.53,-47.4446 1448.75,-56.324 1458.8,-52.9871 1454.53,-47.4446"/>
</g>
<!-- Node21 -->
<g id="node21" class="node"><title>Node21</title>
<g id="a_node21"><a xlink:href="_practice_setup_scene_8cpp.html" target="_top" xlink:title="PracticeSetupScene.cpp">
<polygon fill="none" stroke="black" points="1306,-0.5 1306,-19.5 1431,-19.5 1431,-0.5 1306,-0.5"/>
<text text-anchor="middle" x="1368.5" y="-7.5" font-family="Helvetica,sans-Serif" font-size="10.00">PracticeSetupScene.cpp</text>
</a>
</g>
</g>
<!-- Node20&#45;&gt;Node21 -->
<g id="edge21" class="edge"><title>Node20&#45;&gt;Node21</title>
<path fill="none" stroke="midnightblue" d="M1418.46,-50.1008C1406.04,-40.3824 1390.26,-28.0269 1379.79,-19.8339"/>
<polygon fill="midnightblue" stroke="midnightblue" points="1416.38,-52.9171 1426.41,-56.324 1420.7,-47.4046 1416.38,-52.9171"/>
</g>
</g>
</svg>
        <g id="navigator" transform="translate(0 0)" fill="#404254">
                <rect fill="#f2f5e9" fill-opacity="0.5" stroke="#606060" stroke-width=".5" x="0" y="0" width="60" height="60"/>
                <use id="zoomplus" xlink:href="#zoomPlus" x="17" y="9" onmousedown="handleZoom(evt,'in')"/>
                <use id="zoomminus" xlink:href="#zoomMin" x="42" y="9" onmousedown="handleZoom(evt,'out')"/>
                <use id="reset" xlink:href="#resetDef" x="30" y="36" onmousedown="handleReset()"/>
                <g id="arrowUp" xlink:href="#dirArrow" transform="translate(30 24)" onmousedown="handlePan(0,-1)">
                  <use xlink:href="#rim" fill="#404040">
                        <set attributeName="fill" to="#808080" begin="arrowUp.mouseover" end="arrowUp.mouseout"/>
                  </use>
                  <path fill="none" stroke="white" stroke-width="1.5" d="M0,-3.0v7 M-2.5,-0.5L0,-3.0L2.5,-0.5"/>
                </g>
                <g id="arrowRight" xlink:href="#dirArrow" transform="rotate(90) translate(36 -43)" onmousedown="handlePan(1,0)">
                  <use xlink:href="#rim" fill="#404040">
                        <set attributeName="fill" to="#808080" begin="arrowRight.mouseover" end="arrowRight.mouseout"/>
                  </use>
                  <path fill="none" stroke="white" stroke-width="1.5" d="M0,-3.0v7 M-2.5,-0.5L0,-3.0L2.5,-0.5"/>
                </g>
                <g id="arrowDown" xlink:href="#dirArrow" transform="rotate(180) translate(-30 -48)" onmousedown="handlePan(0,1)">
                  <use xlink:href="#rim" fill="#404040">
                        <set attributeName="fill" to="#808080" begin="arrowDown.mouseover" end="arrowDown.mouseout"/>
                  </use>
                  <path fill="none" stroke="white" stroke-width="1.5" d="M0,-3.0v7 M-2.5,-0.5L0,-3.0L2.5,-0.5"/>
                </g>
                <g id="arrowLeft" xlink:href="#dirArrow" transform="rotate(270) translate(-36 17)" onmousedown="handlePan(-1,0)">
                  <use xlink:href="#rim" fill="#404040">
                        <set attributeName="fill" to="#808080" begin="arrowLeft.mouseover" end="arrowLeft.mouseout"/>
                  </use>
                  <path fill="none" stroke="white" stroke-width="1.5" d="M0,-3.0v7 M-2.5,-0.5L0,-3.0L2.5,-0.5"/>
                </g>
        </g>
        <svg viewBox="0 0 15 15" width="100%" height="30px" preserveAspectRatio="xMaxYMin meet">
         <g id="arrow_out" transform="scale(0.3 0.3)">
          <a xlink:href="_track_entry_8h__dep__incl_org.svg" target="_base">
           <rect id="button" ry="5" rx="5" y="6" x="6" height="38" width="38"
                fill="#f2f5e9" fill-opacity="0.5" stroke="#606060" stroke-width="1.0"/>
           <path id="arrow"
             d="M 11.500037,31.436501 C 11.940474,20.09759 22.043105,11.32322 32.158766,21.979434 L 37.068811,17.246167 C 37.068811,17.246167 37.088388,32 37.088388,32 L 22.160133,31.978069 C 22.160133,31.978069 26.997745,27.140456 26.997745,27.140456 C 18.528582,18.264221 13.291696,25.230495 11.500037,31.436501 z"
             style="fill:#404040;"/>
          </a>
         </g>
        </svg>
</svg>
