<?xml version="1.0" encoding="UTF-8" standalone="no"?>
<!DOCTYPE svg PUBLIC "-//W3C//DTD SVG 1.1//EN"
 "http://www.w3.org/Graphics/SVG/1.1/DTD/svg11.dtd">
<!-- Generated by graphviz version 2.26.3 (20100126.1600)
 -->
<!-- Title: TrackCompiler.cpp Pages: 1 -->
<svg width="1551pt" height="494pt"
 viewBox="0.00 0.00 1551.00 494.00" xmlns="http://www.w3.org/2000/svg" xmlns:xlink="http://www.w3.org/1999/xlink">
<g id="graph1" class="graph" transform="scale(1 1) rotate(0) translate(4 490)">
<title>TrackCompiler.cpp</title>
<!-- Node1 -->
<g id="node1" class="node"><title>Node1</title>
<polygon fill="#bfbfbf" stroke="black" points="598,-465 598,-485 696,-485 696,-465 598,-465"/>
<text text-anchor="middle" x="647" y="-472" font-family="FreeSans" font-size="10.00">TrackCompiler.cpp</text>
</g>
<!-- Node2 -->
<g id="node3" class="node"><title>Node2</title>
<polygon fill="none" stroke="#bfbfbf" points="-0.5,-407 -0.5,-427 140.5,-427 140.5,-407 -0.5,-407"/>
<text text-anchor="middle" x="70" y="-414" font-family="FreeSans" font-size="10.00">boost/filesystem/fstream.hpp</text>
</g>
<!-- Node1&#45;&gt;Node2 -->
<g id="edge2" class="edge"><title>Node1&#45;&gt;Node2</title>
<path fill="none" stroke="midnightblue" d="M597.798,-471.083C510.084,-463.942 320.689,-447.806 150.747,-428.168"/>
<polygon fill="midnightblue" stroke="midnightblue" points="150.953,-424.668 140.615,-426.99 150.144,-431.622 150.953,-424.668"/>
</g>
<!-- Node3 -->
<g id="node5" class="node"><title>Node3</title>
<polygon fill="none" stroke="#bfbfbf" points="157.5,-407 157.5,-427 276.5,-427 276.5,-407 157.5,-407"/>
<text text-anchor="middle" x="217" y="-414" font-family="FreeSans" font-size="10.00">boost/scoped_array.hpp</text>
</g>
<!-- Node1&#45;&gt;Node3 -->
<g id="edge4" class="edge"><title>Node1&#45;&gt;Node3</title>
<path fill="none" stroke="midnightblue" d="M597.749,-469.101C530.01,-460.877 404.021,-445.192 286.904,-428.248"/>
<polygon fill="midnightblue" stroke="midnightblue" points="287.087,-424.738 276.688,-426.764 286.081,-431.665 287.087,-424.738"/>
</g>
<!-- Node4 -->
<g id="node7" class="node"><title>Node4</title>
<a xlink:href="_track_file_common_8h.html" target="_top" xlink:title="../Model/TrackFileCommon.h">
<polygon fill="none" stroke="black" points="294,-407 294,-427 434,-427 434,-407 294,-407"/>
<text text-anchor="middle" x="364" y="-414" font-family="FreeSans" font-size="10.00">../Model/TrackFileCommon.h</text>
</a>
</g>
<!-- Node1&#45;&gt;Node4 -->
<g id="edge6" class="edge"><title>Node1&#45;&gt;Node4</title>
<path fill="none" stroke="midnightblue" d="M598.028,-464.963C549.382,-454.993 474.753,-439.699 422.899,-429.071"/>
<polygon fill="midnightblue" stroke="midnightblue" points="423.345,-425.59 412.846,-427.011 421.939,-432.447 423.345,-425.59"/>
</g>
<!-- Node5 -->
<g id="node9" class="node"><title>Node5</title>
<a xlink:href="_classic_record_file_8h.html" target="_top" xlink:title="../Parcel/ClassicRecordFile.h">
<polygon fill="none" stroke="black" points="527.5,-407 527.5,-427 668.5,-427 668.5,-407 527.5,-407"/>
<text text-anchor="middle" x="598" y="-414" font-family="FreeSans" font-size="10.00">../Parcel/ClassicRecordFile.h</text>
</a>
</g>
<!-- Node1&#45;&gt;Node5 -->
<g id="edge8" class="edge"><title>Node1&#45;&gt;Node5</title>
<path fill="none" stroke="midnightblue" d="M638.465,-464.897C631.524,-456.682 621.556,-444.883 613.25,-435.051"/>
<polygon fill="midnightblue" stroke="midnightblue" points="615.894,-432.758 606.767,-427.378 610.547,-437.275 615.894,-432.758"/>
</g>
<!-- Node17 -->
<g id="node34" class="node"><title>Node17</title>
<a xlink:href="_obj_stream_8h.html" target="_top" xlink:title="ObjStream.h">
<polygon fill="none" stroke="black" points="639.5,-291 639.5,-311 710.5,-311 710.5,-291 639.5,-291"/>
<text text-anchor="middle" x="675" y="-298" font-family="FreeSans" font-size="10.00">ObjStream.h</text>
</a>
</g>
<!-- Node1&#45;&gt;Node17 -->
<g id="edge46" class="edge"><title>Node1&#45;&gt;Node17</title>
<path fill="none" stroke="midnightblue" d="M656.078,-464.668C663.33,-455.679 672.931,-441.939 677,-428 687.659,-391.491 683.047,-346.529 678.904,-321.076"/>
<polygon fill="midnightblue" stroke="midnightblue" points="682.336,-320.385 677.146,-311.149 675.443,-321.606 682.336,-320.385"/>
</g>
<!-- Node18 -->
<g id="node37" class="node"><title>Node18</title>
<a xlink:href="_exception_8h.html" target="_top" xlink:title="../Exception.h">
<polygon fill="none" stroke="black" points="457,-233 457,-253 531,-253 531,-233 457,-233"/>
<text text-anchor="middle" x="494" y="-240" font-family="FreeSans" font-size="10.00">../Exception.h</text>
</a>
</g>
<!-- Node1&#45;&gt;Node18 -->
<g id="edge52" class="edge"><title>Node1&#45;&gt;Node18</title>
<path fill="none" stroke="midnightblue" d="M606.367,-464.977C573.278,-455.967 530.265,-442.028 519,-428 480.195,-379.679 485.412,-300.327 490.538,-263.261"/>
<polygon fill="midnightblue" stroke="midnightblue" points="494.025,-263.611 492.077,-253.197 487.105,-262.553 494.025,-263.611"/>
</g>
<!-- Node20 -->
<g id="node44" class="node"><title>Node20</title>
<a xlink:href="_str_8h.html" target="_top" xlink:title="../Util/Str.h">
<polygon fill="none" stroke="black" points="724,-349 724,-369 786,-369 786,-349 724,-349"/>
<text text-anchor="middle" x="755" y="-356" font-family="FreeSans" font-size="10.00">../Util/Str.h</text>
</a>
</g>
<!-- Node1&#45;&gt;Node20 -->
<g id="edge48" class="edge"><title>Node1&#45;&gt;Node20</title>
<path fill="none" stroke="midnightblue" d="M663.796,-464.825C677.28,-456.132 696.177,-442.724 710,-428 724.157,-412.921 736.681,-392.857 744.898,-378.254"/>
<polygon fill="midnightblue" stroke="midnightblue" points="748.151,-379.6 749.866,-369.145 742.005,-376.248 748.151,-379.6"/>
</g>
<!-- Node21 -->
<g id="node48" class="node"><title>Node21</title>
<a xlink:href="_level_builder_8h.html" target="_top" xlink:title="LevelBuilder.h">
<polygon fill="none" stroke="black" points="895,-407 895,-427 973,-427 973,-407 895,-407"/>
<text text-anchor="middle" x="934" y="-414" font-family="FreeSans" font-size="10.00">LevelBuilder.h</text>
</a>
</g>
<!-- Node1&#45;&gt;Node21 -->
<g id="edge54" class="edge"><title>Node1&#45;&gt;Node21</title>
<path fill="none" stroke="midnightblue" d="M696.321,-465.189C743.691,-455.744 817.26,-441.016 881,-428 882.269,-427.741 883.555,-427.478 884.852,-427.212"/>
<polygon fill="midnightblue" stroke="midnightblue" points="885.842,-430.582 894.931,-425.138 884.431,-423.725 885.842,-430.582"/>
</g>
<!-- Node37 -->
<g id="node90" class="node"><title>Node37</title>
<a xlink:href="_map_sprite_8h.html" target="_top" xlink:title="MapSprite.h">
<polygon fill="none" stroke="black" points="1109,-407 1109,-427 1177,-427 1177,-407 1109,-407"/>
<text text-anchor="middle" x="1143" y="-414" font-family="FreeSans" font-size="10.00">MapSprite.h</text>
</a>
</g>
<!-- Node1&#45;&gt;Node37 -->
<g id="edge106" class="edge"><title>Node1&#45;&gt;Node37</title>
<path fill="none" stroke="midnightblue" d="M696.266,-472.269C778.031,-467.217 946.989,-454.58 1098.85,-427.995"/>
<polygon fill="midnightblue" stroke="midnightblue" points="1099.6,-431.418 1108.83,-426.224 1098.37,-424.526 1099.6,-431.418"/>
</g>
<!-- Node39 -->
<g id="node97" class="node"><title>Node39</title>
<a xlink:href="_track_compile_exn_8h.html" target="_top" xlink:title="TrackCompileExn.h">
<polygon fill="none" stroke="black" points="372,-349 372,-369 472,-369 472,-349 372,-349"/>
<text text-anchor="middle" x="422" y="-356" font-family="FreeSans" font-size="10.00">TrackCompileExn.h</text>
</a>
</g>
<!-- Node1&#45;&gt;Node39 -->
<g id="edge116" class="edge"><title>Node1&#45;&gt;Node39</title>
<path fill="none" stroke="midnightblue" d="M597.702,-467.712C564.297,-461.13 520.183,-449.123 486,-428 464.854,-414.933 446.238,-393.027 434.613,-377.403"/>
<polygon fill="midnightblue" stroke="midnightblue" points="437.286,-375.126 428.61,-369.045 431.6,-379.209 437.286,-375.126"/>
</g>
<!-- Node40 -->
<g id="node100" class="node"><title>Node40</title>
<a xlink:href="_track_spec_parser_8h.html" target="_top" xlink:title="TrackSpecParser.h">
<polygon fill="none" stroke="black" points="991,-407 991,-427 1091,-427 1091,-407 991,-407"/>
<text text-anchor="middle" x="1041" y="-414" font-family="FreeSans" font-size="10.00">TrackSpecParser.h</text>
</a>
</g>
<!-- Node1&#45;&gt;Node40 -->
<g id="edge120" class="edge"><title>Node1&#45;&gt;Node40</title>
<path fill="none" stroke="midnightblue" d="M696.206,-468.8C759.627,-460.653 873.55,-445.492 980.792,-428.146"/>
<polygon fill="midnightblue" stroke="midnightblue" points="981.507,-431.576 990.815,-426.515 980.383,-424.667 981.507,-431.576"/>
</g>
<!-- Node41 -->
<g id="node102" class="node"><title>Node41</title>
<a xlink:href="_track_compiler_8h.html" target="_top" xlink:title="TrackCompiler.h">
<polygon fill="none" stroke="black" points="785.5,-407 785.5,-427 872.5,-427 872.5,-407 785.5,-407"/>
<text text-anchor="middle" x="829" y="-414" font-family="FreeSans" font-size="10.00">TrackCompiler.h</text>
</a>
</g>
<!-- Node1&#45;&gt;Node41 -->
<g id="edge122" class="edge"><title>Node1&#45;&gt;Node41</title>
<path fill="none" stroke="midnightblue" d="M678.702,-464.897C708.883,-455.279 754.477,-440.749 787.532,-430.215"/>
<polygon fill="midnightblue" stroke="midnightblue" points="788.891,-433.455 797.357,-427.084 786.766,-426.786 788.891,-433.455"/>
</g>
<!-- Node6 -->
<g id="node11" class="node"><title>Node6</title>
<polygon fill="none" stroke="#bfbfbf" points="530,-349 530,-369 580,-369 580,-349 530,-349"/>
<text text-anchor="middle" x="555" y="-356" font-family="FreeSans" font-size="10.00">fstream</text>
</g>
<!-- Node5&#45;&gt;Node6 -->
<g id="edge10" class="edge"><title>Node5&#45;&gt;Node6</title>
<path fill="none" stroke="midnightblue" d="M590.51,-406.897C584.541,-398.846 576.02,-387.353 568.822,-377.643"/>
<polygon fill="midnightblue" stroke="midnightblue" points="571.461,-375.326 562.694,-369.378 565.838,-379.495 571.461,-375.326"/>
</g>
<!-- Node7 -->
<g id="node13" class="node"><title>Node7</title>
<a xlink:href="_record_file_8h.html" target="_top" xlink:title="RecordFile.h">
<polygon fill="none" stroke="black" points="597.5,-349 597.5,-369 668.5,-369 668.5,-349 597.5,-349"/>
<text text-anchor="middle" x="633" y="-356" font-family="FreeSans" font-size="10.00">RecordFile.h</text>
</a>
</g>
<!-- Node5&#45;&gt;Node7 -->
<g id="edge12" class="edge"><title>Node5&#45;&gt;Node7</title>
<path fill="none" stroke="midnightblue" d="M604.097,-406.897C608.905,-398.928 615.749,-387.587 621.57,-377.941"/>
<polygon fill="midnightblue" stroke="midnightblue" points="624.568,-379.748 626.738,-369.378 618.574,-376.131 624.568,-379.748"/>
</g>
<!-- Node8 -->
<g id="node15" class="node"><title>Node8</title>
<a xlink:href="_inspectable_8h.html" target="_top" xlink:title="../Util/Inspectable.h">
<polygon fill="none" stroke="black" points="522,-291 522,-311 622,-311 622,-291 522,-291"/>
<text text-anchor="middle" x="572" y="-298" font-family="FreeSans" font-size="10.00">../Util/Inspectable.h</text>
</a>
</g>
<!-- Node7&#45;&gt;Node8 -->
<g id="edge14" class="edge"><title>Node7&#45;&gt;Node8</title>
<path fill="none" stroke="midnightblue" d="M622.375,-348.897C613.561,-340.517 600.827,-328.409 590.367,-318.464"/>
<polygon fill="midnightblue" stroke="midnightblue" points="592.573,-315.732 582.914,-311.378 587.75,-320.805 592.573,-315.732"/>
</g>
<!-- Node10 -->
<g id="node19" class="node"><title>Node10</title>
<a xlink:href="_o_s_8h.html" target="_top" xlink:title="../Util/OS.h">
<polygon fill="none" stroke="black" points="744,-233 744,-253 808,-253 808,-233 744,-233"/>
<text text-anchor="middle" x="776" y="-240" font-family="FreeSans" font-size="10.00">../Util/OS.h</text>
</a>
</g>
<!-- Node7&#45;&gt;Node10 -->
<g id="edge18" class="edge"><title>Node7&#45;&gt;Node10</title>
<path fill="none" stroke="midnightblue" d="M657.131,-348.842C675.258,-340.522 700.107,-327.601 719,-312 736.661,-297.416 752.882,-276.75 763.465,-261.842"/>
<polygon fill="midnightblue" stroke="midnightblue" points="766.487,-263.626 769.289,-253.409 760.727,-259.648 766.487,-263.626"/>
</g>
<!-- Node7&#45;&gt;Node17 -->
<g id="edge34" class="edge"><title>Node7&#45;&gt;Node17</title>
<path fill="none" stroke="midnightblue" d="M640.316,-348.897C646.146,-340.846 654.468,-329.353 661.5,-319.643"/>
<polygon fill="midnightblue" stroke="midnightblue" points="664.455,-321.53 667.485,-311.378 658.785,-317.424 664.455,-321.53"/>
</g>
<!-- Node9 -->
<g id="node17" class="node"><title>Node9</title>
<polygon fill="none" stroke="#bfbfbf" points="579.5,-175 579.5,-195 620.5,-195 620.5,-175 579.5,-175"/>
<text text-anchor="middle" x="600" y="-182" font-family="FreeSans" font-size="10.00">string</text>
</g>
<!-- Node8&#45;&gt;Node9 -->
<g id="edge16" class="edge"><title>Node8&#45;&gt;Node9</title>
<path fill="none" stroke="midnightblue" d="M574.485,-290.706C579.125,-271.482 589.18,-229.825 595.189,-204.929"/>
<polygon fill="midnightblue" stroke="midnightblue" points="598.617,-205.648 597.561,-195.106 591.812,-204.005 598.617,-205.648"/>
</g>
<!-- Node10&#45;&gt;Node9 -->
<g id="edge24" class="edge"><title>Node10&#45;&gt;Node9</title>
<path fill="none" stroke="midnightblue" d="M745.343,-232.897C713.084,-222.266 662.614,-205.634 630.438,-195.031"/>
<polygon fill="midnightblue" stroke="midnightblue" points="631.273,-191.621 620.68,-191.815 629.082,-198.269 631.273,-191.621"/>
</g>
<!-- Node11 -->
<g id="node21" class="node"><title>Node11</title>
<polygon fill="none" stroke="#bfbfbf" points="714,-175 714,-195 756,-195 756,-175 714,-175"/>
<text text-anchor="middle" x="735" y="-182" font-family="FreeSans" font-size="10.00">locale</text>
</g>
<!-- Node10&#45;&gt;Node11 -->
<g id="edge20" class="edge"><title>Node10&#45;&gt;Node11</title>
<path fill="none" stroke="midnightblue" d="M768.858,-232.897C763.167,-224.846 755.043,-213.353 748.179,-203.643"/>
<polygon fill="midnightblue" stroke="midnightblue" points="750.966,-201.523 742.336,-195.378 745.25,-205.564 750.966,-201.523"/>
</g>
<!-- Node12 -->
<g id="node23" class="node"><title>Node12</title>
<polygon fill="none" stroke="#bfbfbf" points="774,-175 774,-195 804,-195 804,-175 774,-175"/>
<text text-anchor="middle" x="789" y="-182" font-family="FreeSans" font-size="10.00">set</text>
</g>
<!-- Node10&#45;&gt;Node12 -->
<g id="edge22" class="edge"><title>Node10&#45;&gt;Node12</title>
<path fill="none" stroke="midnightblue" d="M778.264,-232.897C779.977,-225.257 782.384,-214.517 784.485,-205.143"/>
<polygon fill="midnightblue" stroke="midnightblue" points="787.902,-205.901 786.674,-195.378 781.072,-204.37 787.902,-205.901"/>
</g>
<!-- Node13 -->
<g id="node26" class="node"><title>Node13</title>
<polygon fill="none" stroke="#bfbfbf" points="1038,-175 1038,-195 1082,-195 1082,-175 1038,-175"/>
<text text-anchor="middle" x="1060" y="-182" font-family="FreeSans" font-size="10.00">vector</text>
</g>
<!-- Node10&#45;&gt;Node13 -->
<g id="edge26" class="edge"><title>Node10&#45;&gt;Node13</title>
<path fill="none" stroke="midnightblue" d="M808.026,-236.459C862.675,-225.299 973.317,-202.703 1027.97,-191.541"/>
<polygon fill="midnightblue" stroke="midnightblue" points="1028.71,-194.962 1037.81,-189.532 1027.31,-188.104 1028.71,-194.962"/>
</g>
<!-- Node14 -->
<g id="node28" class="node"><title>Node14</title>
<polygon fill="none" stroke="#bfbfbf" points="821.5,-175 821.5,-195 926.5,-195 926.5,-175 821.5,-175"/>
<text text-anchor="middle" x="874" y="-182" font-family="FreeSans" font-size="10.00">boost/filesystem.hpp</text>
</g>
<!-- Node10&#45;&gt;Node14 -->
<g id="edge28" class="edge"><title>Node10&#45;&gt;Node14</title>
<path fill="none" stroke="midnightblue" d="M793.07,-232.897C808.154,-223.97 830.389,-210.811 847.738,-200.543"/>
<polygon fill="midnightblue" stroke="midnightblue" points="849.973,-203.287 856.797,-195.182 846.408,-197.263 849.973,-203.287"/>
</g>
<!-- Node15 -->
<g id="node30" class="node"><title>Node15</title>
<a xlink:href="_m_r___types_8h.html" target="_top" xlink:title="MR_Types.h">
<polygon fill="none" stroke="black" points="1100.5,-59 1100.5,-79 1171.5,-79 1171.5,-59 1100.5,-59"/>
<text text-anchor="middle" x="1136" y="-66" font-family="FreeSans" font-size="10.00">MR_Types.h</text>
</a>
</g>
<!-- Node10&#45;&gt;Node15 -->
<g id="edge30" class="edge"><title>Node10&#45;&gt;Node15</title>
<path fill="none" stroke="midnightblue" d="M751.722,-232.884C724.644,-220.153 686.877,-197.14 705,-174 752.527,-113.317 989.23,-83.3367 1090.22,-73.1456"/>
<polygon fill="midnightblue" stroke="midnightblue" points="1090.81,-76.6044 1100.42,-72.1375 1090.12,-69.6383 1090.81,-76.6044"/>
</g>
<!-- Node16 -->
<g id="node32" class="node"><title>Node16</title>
<polygon fill="none" stroke="#bfbfbf" points="1107,-1 1107,-21 1165,-21 1165,-1 1107,-1"/>
<text text-anchor="middle" x="1136" y="-8" font-family="FreeSans" font-size="10.00">inttypes.h</text>
</g>
<!-- Node15&#45;&gt;Node16 -->
<g id="edge32" class="edge"><title>Node15&#45;&gt;Node16</title>
<path fill="none" stroke="midnightblue" d="M1136,-58.8972C1136,-51.339 1136,-40.7476 1136,-31.4458"/>
<polygon fill="midnightblue" stroke="midnightblue" points="1139.5,-31.3776 1136,-21.3776 1132.5,-31.3776 1139.5,-31.3776"/>
</g>
<!-- Node17&#45;&gt;Node9 -->
<g id="edge36" class="edge"><title>Node17&#45;&gt;Node9</title>
<path fill="none" stroke="midnightblue" d="M664.715,-290.814C655.867,-281.699 643.124,-267.698 634,-254 623.515,-238.259 614.226,-218.816 608.017,-204.586"/>
<polygon fill="midnightblue" stroke="midnightblue" points="611.195,-203.113 604.069,-195.272 604.75,-205.845 611.195,-203.113"/>
</g>
<!-- Node17&#45;&gt;Node10 -->
<g id="edge44" class="edge"><title>Node17&#45;&gt;Node10</title>
<path fill="none" stroke="midnightblue" d="M692.593,-290.897C708.283,-281.887 731.479,-268.567 749.429,-258.259"/>
<polygon fill="midnightblue" stroke="midnightblue" points="751.341,-261.197 758.27,-253.182 747.855,-255.126 751.341,-261.197"/>
</g>
<!-- Node17&#45;&gt;Node15 -->
<g id="edge42" class="edge"><title>Node17&#45;&gt;Node15</title>
<path fill="none" stroke="midnightblue" d="M674.449,-290.698C673.697,-268.056 674.412,-212.881 696,-174 714.956,-139.859 726.391,-132.03 762,-116 819.701,-90.025 1003.65,-76.473 1090.18,-71.3978"/>
<polygon fill="midnightblue" stroke="midnightblue" points="1090.45,-74.888 1100.24,-70.8206 1090.05,-67.8995 1090.45,-74.888"/>
</g>
<!-- Node17&#45;&gt;Node18 -->
<g id="edge38" class="edge"><title>Node17&#45;&gt;Node18</title>
<path fill="none" stroke="midnightblue" d="M643.472,-290.897C613.457,-281.279 568.113,-266.749 535.24,-256.215"/>
<polygon fill="midnightblue" stroke="midnightblue" points="536.061,-252.803 525.47,-253.084 533.925,-259.469 536.061,-252.803"/>
</g>
<!-- Node19 -->
<g id="node39" class="node"><title>Node19</title>
<polygon fill="none" stroke="#bfbfbf" points="465,-175 465,-195 523,-195 523,-175 465,-175"/>
<text text-anchor="middle" x="494" y="-182" font-family="FreeSans" font-size="10.00">exception</text>
</g>
<!-- Node18&#45;&gt;Node19 -->
<g id="edge40" class="edge"><title>Node18&#45;&gt;Node19</title>
<path fill="none" stroke="midnightblue" d="M494,-232.897C494,-225.339 494,-214.748 494,-205.446"/>
<polygon fill="midnightblue" stroke="midnightblue" points="497.5,-205.378 494,-195.378 490.5,-205.378 497.5,-205.378"/>
</g>
<!-- Node20&#45;&gt;Node10 -->
<g id="edge50" class="edge"><title>Node20&#45;&gt;Node10</title>
<path fill="none" stroke="midnightblue" d="M756.864,-348.706C760.328,-329.568 767.818,-288.198 772.331,-263.265"/>
<polygon fill="midnightblue" stroke="midnightblue" points="775.833,-263.569 774.171,-253.106 768.945,-262.322 775.833,-263.569"/>
</g>
<!-- Node21&#45;&gt;Node10 -->
<g id="edge102" class="edge"><title>Node21&#45;&gt;Node10</title>
<path fill="none" stroke="midnightblue" d="M958.462,-406.98C984.719,-394.688 1020.69,-372.449 1005,-348 963.73,-283.676 872.108,-258.243 818.099,-248.579"/>
<polygon fill="midnightblue" stroke="midnightblue" points="818.591,-245.113 808.149,-246.901 817.427,-252.015 818.591,-245.113"/>
</g>
<!-- Node22 -->
<g id="node50" class="node"><title>Node22</title>
<a xlink:href="_level_8h.html" target="_top" xlink:title="../Model/Level.h">
<polygon fill="none" stroke="black" points="1098.5,-349 1098.5,-369 1183.5,-369 1183.5,-349 1098.5,-349"/>
<text text-anchor="middle" x="1141" y="-356" font-family="FreeSans" font-size="10.00">../Model/Level.h</text>
</a>
</g>
<!-- Node21&#45;&gt;Node22 -->
<g id="edge56" class="edge"><title>Node21&#45;&gt;Node22</title>
<path fill="none" stroke="midnightblue" d="M970.057,-406.897C1004.83,-397.155 1057.58,-382.372 1095.29,-371.809"/>
<polygon fill="midnightblue" stroke="midnightblue" points="1096.33,-375.152 1105.01,-369.084 1094.44,-368.412 1096.33,-375.152"/>
</g>
<!-- Node36 -->
<g id="node88" class="node"><title>Node36</title>
<a xlink:href="_track_compilation_log_8h.html" target="_top" xlink:title="TrackCompilationLog.h">
<polygon fill="none" stroke="black" points="880,-349 880,-369 996,-369 996,-349 880,-349"/>
<text text-anchor="middle" x="938" y="-356" font-family="FreeSans" font-size="10.00">TrackCompilationLog.h</text>
</a>
</g>
<!-- Node21&#45;&gt;Node36 -->
<g id="edge104" class="edge"><title>Node21&#45;&gt;Node36</title>
<path fill="none" stroke="midnightblue" d="M934.697,-406.897C935.218,-399.339 935.948,-388.748 936.59,-379.446"/>
<polygon fill="midnightblue" stroke="midnightblue" points="940.088,-379.595 937.284,-369.378 933.104,-379.113 940.088,-379.595"/>
</g>
<!-- Node23 -->
<g id="node52" class="node"><title>Node23</title>
<a xlink:href="_maze_element_8h.html" target="_top" xlink:title="MazeElement.h">
<polygon fill="none" stroke="black" points="1099.5,-291 1099.5,-311 1182.5,-311 1182.5,-291 1099.5,-291"/>
<text text-anchor="middle" x="1141" y="-298" font-family="FreeSans" font-size="10.00">MazeElement.h</text>
</a>
</g>
<!-- Node22&#45;&gt;Node23 -->
<g id="edge58" class="edge"><title>Node22&#45;&gt;Node23</title>
<path fill="none" stroke="midnightblue" d="M1141,-348.897C1141,-341.339 1141,-330.748 1141,-321.446"/>
<polygon fill="midnightblue" stroke="midnightblue" points="1144.5,-321.378 1141,-311.378 1137.5,-321.378 1144.5,-321.378"/>
</g>
<!-- Node34 -->
<g id="node81" class="node"><title>Node34</title>
<a xlink:href="_shape_collisions_8h.html" target="_top" xlink:title="ShapeCollisions.h">
<polygon fill="none" stroke="black" points="984,-291 984,-311 1078,-311 1078,-291 984,-291"/>
<text text-anchor="middle" x="1031" y="-298" font-family="FreeSans" font-size="10.00">ShapeCollisions.h</text>
</a>
</g>
<!-- Node22&#45;&gt;Node34 -->
<g id="edge94" class="edge"><title>Node22&#45;&gt;Node34</title>
<path fill="none" stroke="midnightblue" d="M1121.84,-348.897C1104.59,-339.804 1079.02,-326.322 1059.4,-315.976"/>
<polygon fill="midnightblue" stroke="midnightblue" points="1060.79,-312.75 1050.31,-311.182 1057.52,-318.942 1060.79,-312.75"/>
</g>
<!-- Node35 -->
<g id="node84" class="node"><title>Node35</title>
<a xlink:href="_fast_array_8h.html" target="_top" xlink:title="../Util/FastArray.h">
<polygon fill="none" stroke="black" points="1324,-117 1324,-137 1416,-137 1416,-117 1324,-117"/>
<text text-anchor="middle" x="1370" y="-124" font-family="FreeSans" font-size="10.00">../Util/FastArray.h</text>
</a>
</g>
<!-- Node22&#45;&gt;Node35 -->
<g id="edge98" class="edge"><title>Node22&#45;&gt;Node35</title>
<path fill="none" stroke="midnightblue" d="M1167.08,-348.969C1204,-333.6 1271.6,-300.986 1313,-254 1320.57,-245.414 1348.14,-180.013 1361.97,-146.568"/>
<polygon fill="midnightblue" stroke="midnightblue" points="1365.21,-147.892 1365.79,-137.312 1358.74,-145.224 1365.21,-147.892"/>
</g>
<!-- Node24 -->
<g id="node54" class="node"><title>Node24</title>
<a xlink:href="_shapes_8h.html" target="_top" xlink:title="Shapes.h">
<polygon fill="none" stroke="black" points="981.5,-233 981.5,-253 1038.5,-253 1038.5,-233 981.5,-233"/>
<text text-anchor="middle" x="1010" y="-240" font-family="FreeSans" font-size="10.00">Shapes.h</text>
</a>
</g>
<!-- Node23&#45;&gt;Node24 -->
<g id="edge60" class="edge"><title>Node23&#45;&gt;Node24</title>
<path fill="none" stroke="midnightblue" d="M1118.18,-290.897C1097.18,-281.598 1065.8,-267.707 1042.24,-257.275"/>
<polygon fill="midnightblue" stroke="midnightblue" points="1043.56,-254.03 1033,-253.182 1040.72,-260.431 1043.56,-254.03"/>
</g>
<!-- Node26 -->
<g id="node59" class="node"><title>Node26</title>
<a xlink:href="_contact_effect_8h.html" target="_top" xlink:title="ContactEffect.h">
<polygon fill="none" stroke="black" points="1055.5,-233 1055.5,-253 1138.5,-253 1138.5,-233 1055.5,-233"/>
<text text-anchor="middle" x="1097" y="-240" font-family="FreeSans" font-size="10.00">ContactEffect.h</text>
</a>
</g>
<!-- Node23&#45;&gt;Node26 -->
<g id="edge66" class="edge"><title>Node23&#45;&gt;Node26</title>
<path fill="none" stroke="midnightblue" d="M1133.34,-290.897C1127.17,-282.764 1118.33,-271.118 1110.92,-261.347"/>
<polygon fill="midnightblue" stroke="midnightblue" points="1113.7,-259.229 1104.87,-253.378 1108.13,-263.46 1113.7,-259.229"/>
</g>
<!-- Node27 -->
<g id="node62" class="node"><title>Node27</title>
<a xlink:href="_dll_object_factory_8h.html" target="_top" xlink:title="../Util/DllObjectFactory.h">
<polygon fill="none" stroke="black" points="1421,-233 1421,-253 1543,-253 1543,-233 1421,-233"/>
<text text-anchor="middle" x="1482" y="-240" font-family="FreeSans" font-size="10.00">../Util/DllObjectFactory.h</text>
</a>
</g>
<!-- Node23&#45;&gt;Node27 -->
<g id="edge70" class="edge"><title>Node23&#45;&gt;Node27</title>
<path fill="none" stroke="midnightblue" d="M1182.81,-293.888C1240.19,-284.129 1344.06,-266.462 1413.04,-254.729"/>
<polygon fill="midnightblue" stroke="midnightblue" points="1413.68,-258.17 1422.96,-253.043 1412.51,-251.269 1413.68,-258.17"/>
</g>
<!-- Node28 -->
<g id="node65" class="node"><title>Node28</title>
<a xlink:href="_viewport3_d_8h.html" target="_top" xlink:title="../VideoServices/Viewport3D.h">
<polygon fill="none" stroke="black" points="1156,-233 1156,-253 1304,-253 1304,-233 1156,-233"/>
<text text-anchor="middle" x="1230" y="-240" font-family="FreeSans" font-size="10.00">../VideoServices/Viewport3D.h</text>
</a>
</g>
<!-- Node23&#45;&gt;Node28 -->
<g id="edge74" class="edge"><title>Node23&#45;&gt;Node28</title>
<path fill="none" stroke="midnightblue" d="M1156.5,-290.897C1170.07,-282.052 1190.02,-269.054 1205.71,-258.829"/>
<polygon fill="midnightblue" stroke="midnightblue" points="1207.91,-261.574 1214.38,-253.182 1204.09,-255.709 1207.91,-261.574"/>
</g>
<!-- Node25 -->
<g id="node56" class="node"><title>Node25</title>
<a xlink:href="_world_coordinates_8h.html" target="_top" xlink:title="../Util/WorldCoordinates.h">
<polygon fill="none" stroke="black" points="982,-117 982,-137 1108,-137 1108,-117 982,-117"/>
<text text-anchor="middle" x="1045" y="-124" font-family="FreeSans" font-size="10.00">../Util/WorldCoordinates.h</text>
</a>
</g>
<!-- Node24&#45;&gt;Node25 -->
<g id="edge62" class="edge"><title>Node24&#45;&gt;Node25</title>
<path fill="none" stroke="midnightblue" d="M1012.64,-232.657C1016.15,-219.114 1022.64,-194.664 1029,-174 1031.78,-164.963 1035.11,-155.042 1038.02,-146.653"/>
<polygon fill="midnightblue" stroke="midnightblue" points="1041.39,-147.624 1041.39,-137.029 1034.78,-145.308 1041.39,-147.624"/>
</g>
<!-- Node25&#45;&gt;Node15 -->
<g id="edge64" class="edge"><title>Node25&#45;&gt;Node15</title>
<path fill="none" stroke="midnightblue" d="M1060.85,-116.897C1074.73,-108.052 1095.12,-95.0539 1111.16,-84.829"/>
<polygon fill="midnightblue" stroke="midnightblue" points="1113.47,-87.5079 1120.03,-79.1817 1109.71,-81.605 1113.47,-87.5079"/>
</g>
<!-- Node26&#45;&gt;Node13 -->
<g id="edge68" class="edge"><title>Node26&#45;&gt;Node13</title>
<path fill="none" stroke="midnightblue" d="M1090.56,-232.897C1085.47,-224.928 1078.24,-213.587 1072.08,-203.941"/>
<polygon fill="midnightblue" stroke="midnightblue" points="1074.95,-201.926 1066.62,-195.378 1069.05,-205.691 1074.95,-201.926"/>
</g>
<!-- Node27&#45;&gt;Node15 -->
<g id="edge72" class="edge"><title>Node27&#45;&gt;Node15</title>
<path fill="none" stroke="midnightblue" d="M1482.06,-232.846C1481.6,-208.488 1476.8,-146.505 1441,-116 1402.78,-83.4349 1257.03,-73.3608 1181.69,-70.3004"/>
<polygon fill="midnightblue" stroke="midnightblue" points="1181.68,-66.7973 1171.55,-69.9136 1181.41,-73.7922 1181.68,-66.7973"/>
</g>
<!-- Node29 -->
<g id="node67" class="node"><title>Node29</title>
<a xlink:href="_viewport2_d_8h.html" target="_top" xlink:title="Viewport2D.h">
<polygon fill="none" stroke="black" points="1360,-175 1360,-195 1434,-195 1434,-175 1360,-175"/>
<text text-anchor="middle" x="1397" y="-182" font-family="FreeSans" font-size="10.00">Viewport2D.h</text>
</a>
</g>
<!-- Node28&#45;&gt;Node29 -->
<g id="edge76" class="edge"><title>Node28&#45;&gt;Node29</title>
<path fill="none" stroke="midnightblue" d="M1259.09,-232.897C1286.54,-223.362 1327.9,-208.999 1358.16,-198.488"/>
<polygon fill="midnightblue" stroke="midnightblue" points="1359.67,-201.671 1367.96,-195.084 1357.37,-195.059 1359.67,-201.671"/>
</g>
<!-- Node30 -->
<g id="node70" class="node"><title>Node30</title>
<a xlink:href="_color_palette_8h.html" target="_top" xlink:title="ColorPalette.h">
<polygon fill="none" stroke="black" points="1167.5,-175 1167.5,-195 1244.5,-195 1244.5,-175 1167.5,-175"/>
<text text-anchor="middle" x="1206" y="-182" font-family="FreeSans" font-size="10.00">ColorPalette.h</text>
</a>
</g>
<!-- Node28&#45;&gt;Node30 -->
<g id="edge80" class="edge"><title>Node28&#45;&gt;Node30</title>
<path fill="none" stroke="midnightblue" d="M1225.82,-232.897C1222.62,-225.175 1218.12,-214.286 1214.21,-204.841"/>
<polygon fill="midnightblue" stroke="midnightblue" points="1217.35,-203.28 1210.29,-195.378 1210.88,-205.956 1217.35,-203.28"/>
</g>
<!-- Node32 -->
<g id="node75" class="node"><title>Node32</title>
<a xlink:href="_bitmap_8h.html" target="_top" xlink:title="Bitmap.h">
<polygon fill="none" stroke="black" points="1251.5,-117 1251.5,-137 1306.5,-137 1306.5,-117 1251.5,-117"/>
<text text-anchor="middle" x="1279" y="-124" font-family="FreeSans" font-size="10.00">Bitmap.h</text>
</a>
</g>
<!-- Node28&#45;&gt;Node32 -->
<g id="edge86" class="edge"><title>Node28&#45;&gt;Node32</title>
<path fill="none" stroke="midnightblue" d="M1235.4,-232.678C1240.26,-223.243 1247.45,-208.843 1253,-196 1260.04,-179.705 1267.08,-160.82 1272.06,-146.931"/>
<polygon fill="midnightblue" stroke="midnightblue" points="1275.39,-148.004 1275.42,-137.409 1268.79,-145.669 1275.39,-148.004"/>
</g>
<!-- Node33 -->
<g id="node78" class="node"><title>Node33</title>
<a xlink:href="_patch_8h.html" target="_top" xlink:title="Patch.h">
<polygon fill="none" stroke="black" points="1100,-175 1100,-195 1150,-195 1150,-175 1100,-175"/>
<text text-anchor="middle" x="1125" y="-182" font-family="FreeSans" font-size="10.00">Patch.h</text>
</a>
</g>
<!-- Node28&#45;&gt;Node33 -->
<g id="edge90" class="edge"><title>Node28&#45;&gt;Node33</title>
<path fill="none" stroke="midnightblue" d="M1211.71,-232.897C1195.32,-223.846 1171.06,-210.444 1152.37,-200.117"/>
<polygon fill="midnightblue" stroke="midnightblue" points="1153.88,-196.953 1143.43,-195.182 1150.49,-203.081 1153.88,-196.953"/>
</g>
<!-- Node29&#45;&gt;Node15 -->
<g id="edge78" class="edge"><title>Node29&#45;&gt;Node15</title>
<path fill="none" stroke="midnightblue" d="M1407.37,-174.569C1420.55,-160.041 1439.91,-133.529 1425,-116 1409.42,-97.6795 1258.93,-80.7602 1181.52,-73.1828"/>
<polygon fill="midnightblue" stroke="midnightblue" points="1181.84,-69.6979 1171.55,-72.2194 1181.17,-76.6654 1181.84,-69.6979"/>
</g>
<!-- Node30&#45;&gt;Node15 -->
<g id="edge84" class="edge"><title>Node30&#45;&gt;Node15</title>
<path fill="none" stroke="midnightblue" d="M1190.91,-174.738C1179.45,-166.186 1164.15,-153.01 1155,-138 1145.83,-122.952 1140.99,-103.396 1138.49,-88.9478"/>
<polygon fill="midnightblue" stroke="midnightblue" points="1141.95,-88.4252 1137.01,-79.054 1135.03,-89.4621 1141.95,-88.4252"/>
</g>
<!-- Node31 -->
<g id="node72" class="node"><title>Node31</title>
<polygon fill="none" stroke="#bfbfbf" points="1163.5,-117 1163.5,-137 1234.5,-137 1234.5,-117 1163.5,-117"/>
<text text-anchor="middle" x="1199" y="-124" font-family="FreeSans" font-size="10.00">SDL2/SDL.h</text>
</g>
<!-- Node30&#45;&gt;Node31 -->
<g id="edge82" class="edge"><title>Node30&#45;&gt;Node31</title>
<path fill="none" stroke="midnightblue" d="M1204.78,-174.897C1203.87,-167.339 1202.59,-156.748 1201.47,-147.446"/>
<polygon fill="midnightblue" stroke="midnightblue" points="1204.93,-146.886 1200.25,-137.378 1197.98,-147.725 1204.93,-146.886"/>
</g>
<!-- Node32&#45;&gt;Node15 -->
<g id="edge88" class="edge"><title>Node32&#45;&gt;Node15</title>
<path fill="none" stroke="midnightblue" d="M1254.09,-116.897C1230.96,-107.515 1196.3,-93.4593 1170.51,-82.9979"/>
<polygon fill="midnightblue" stroke="midnightblue" points="1171.69,-79.6969 1161.1,-79.1817 1169.05,-86.1837 1171.69,-79.6969"/>
</g>
<!-- Node33&#45;&gt;Node25 -->
<g id="edge92" class="edge"><title>Node33&#45;&gt;Node25</title>
<path fill="none" stroke="midnightblue" d="M1111.07,-174.897C1098.98,-166.135 1081.27,-153.297 1067.23,-143.116"/>
<polygon fill="midnightblue" stroke="midnightblue" points="1069.19,-140.218 1059.04,-137.182 1065.09,-145.885 1069.19,-140.218"/>
</g>
<!-- Node34&#45;&gt;Node24 -->
<g id="edge96" class="edge"><title>Node34&#45;&gt;Node24</title>
<path fill="none" stroke="midnightblue" d="M1027.34,-290.897C1024.55,-283.175 1020.6,-272.286 1017.18,-262.841"/>
<polygon fill="midnightblue" stroke="midnightblue" points="1020.45,-261.589 1013.76,-253.378 1013.87,-263.972 1020.45,-261.589"/>
</g>
<!-- Node35&#45;&gt;Node15 -->
<g id="edge100" class="edge"><title>Node35&#45;&gt;Node15</title>
<path fill="none" stroke="midnightblue" d="M1329.51,-116.963C1288.33,-106.758 1224.65,-90.9728 1181.69,-80.3257"/>
<polygon fill="midnightblue" stroke="midnightblue" points="1182.33,-76.8783 1171.78,-77.8696 1180.65,-83.6727 1182.33,-76.8783"/>
</g>
<!-- Node37&#45;&gt;Node22 -->
<g id="edge108" class="edge"><title>Node37&#45;&gt;Node22</title>
<path fill="none" stroke="midnightblue" d="M1142.65,-406.897C1142.39,-399.339 1142.03,-388.748 1141.71,-379.446"/>
<polygon fill="midnightblue" stroke="midnightblue" points="1145.2,-379.251 1141.36,-369.378 1138.2,-379.492 1145.2,-379.251"/>
</g>
<!-- Node38 -->
<g id="node93" class="node"><title>Node38</title>
<a xlink:href="_sprite_8h.html" target="_top" xlink:title="../VideoServices/Sprite.h">
<polygon fill="none" stroke="black" points="1359.5,-291 1359.5,-311 1482.5,-311 1482.5,-291 1359.5,-291"/>
<text text-anchor="middle" x="1421" y="-298" font-family="FreeSans" font-size="10.00">../VideoServices/Sprite.h</text>
</a>
</g>
<!-- Node37&#45;&gt;Node38 -->
<g id="edge110" class="edge"><title>Node37&#45;&gt;Node38</title>
<path fill="none" stroke="midnightblue" d="M1167.18,-406.909C1216.89,-386.17 1330.6,-338.722 1387.41,-315.017"/>
<polygon fill="midnightblue" stroke="midnightblue" points="1388.79,-318.232 1396.67,-311.151 1386.1,-311.771 1388.79,-318.232"/>
</g>
<!-- Node38&#45;&gt;Node27 -->
<g id="edge114" class="edge"><title>Node38&#45;&gt;Node27</title>
<path fill="none" stroke="midnightblue" d="M1431.63,-290.897C1440.44,-282.517 1453.17,-270.409 1463.63,-260.464"/>
<polygon fill="midnightblue" stroke="midnightblue" points="1466.25,-262.805 1471.09,-253.378 1461.43,-257.732 1466.25,-262.805"/>
</g>
<!-- Node38&#45;&gt;Node29 -->
<g id="edge112" class="edge"><title>Node38&#45;&gt;Node29</title>
<path fill="none" stroke="midnightblue" d="M1418.87,-290.706C1414.89,-271.482 1406.27,-229.825 1401.12,-204.929"/>
<polygon fill="midnightblue" stroke="midnightblue" points="1404.54,-204.189 1399.09,-195.106 1397.69,-205.607 1404.54,-204.189"/>
</g>
<!-- Node39&#45;&gt;Node18 -->
<g id="edge118" class="edge"><title>Node39&#45;&gt;Node18</title>
<path fill="none" stroke="midnightblue" d="M428.39,-348.706C440.535,-329.137 467.11,-286.323 482.451,-261.606"/>
<polygon fill="midnightblue" stroke="midnightblue" points="485.428,-263.448 487.728,-253.106 479.48,-259.756 485.428,-263.448"/>
</g>
<!-- Node41&#45;&gt;Node10 -->
<g id="edge126" class="edge"><title>Node41&#45;&gt;Node10</title>
<path fill="none" stroke="midnightblue" d="M825.921,-406.893C817.396,-378.903 793.362,-299.999 782.041,-262.832"/>
<polygon fill="midnightblue" stroke="midnightblue" points="785.349,-261.681 779.087,-253.135 778.653,-263.721 785.349,-261.681"/>
</g>
<!-- Node41&#45;&gt;Node15 -->
<g id="edge124" class="edge"><title>Node41&#45;&gt;Node15</title>
<path fill="none" stroke="midnightblue" d="M834.612,-406.932C842.338,-393.276 856.904,-368.261 871,-348 904.972,-299.169 954,-302.486 954,-243 954,-243 954,-243 954,-185 954,-153.192 950.644,-138.627 973,-116 989.398,-99.4036 1047.93,-85.3477 1090.17,-77.0445"/>
<polygon fill="midnightblue" stroke="midnightblue" points="1091.09,-80.4318 1100.25,-75.1098 1089.77,-73.5573 1091.09,-80.4318"/>
</g>
<!-- Node41&#45;&gt;Node36 -->
<g id="edge128" class="edge"><title>Node41&#45;&gt;Node36</title>
<path fill="none" stroke="midnightblue" d="M847.986,-406.897C865.074,-397.804 890.413,-384.322 909.856,-373.976"/>
<polygon fill="midnightblue" stroke="midnightblue" points="911.682,-376.969 918.865,-369.182 908.393,-370.789 911.682,-376.969"/>
</g>
</g>
</svg>
