<?xml version="1.0" encoding="UTF-8" standalone="no"?>
<!DOCTYPE svg PUBLIC "-//W3C//DTD SVG 1.1//EN"
 "http://www.w3.org/Graphics/SVG/1.1/DTD/svg11.dtd">
<!-- Generated by graphviz version 2.26.3 (20100126.1600)
 -->
<!-- Title: TrackSelectScene.h Pages: 1 -->
<svg width="264pt" height="88pt"
 viewBox="0.00 0.00 264.00 88.00" xmlns="http://www.w3.org/2000/svg" xmlns:xlink="http://www.w3.org/1999/xlink">
<g id="graph1" class="graph" transform="scale(1 1) rotate(0) translate(4 84)">
<title>TrackSelectScene.h</title>
<!-- Node1 -->
<g id="node1" class="node"><title>Node1</title>
<polygon fill="#bfbfbf" stroke="black" points="78,-59 78,-79 182,-79 182,-59 78,-59"/>
<text text-anchor="middle" x="130" y="-66" font-family="FreeSans" font-size="10.00">TrackSelectScene.h</text>
</g>
<!-- Node2 -->
<g id="node3" class="node"><title>Node2</title>
<a xlink:href="_practice_setup_scene_8cpp.html" target="_top" xlink:title="PracticeSetupScene.cpp">
<polygon fill="none" stroke="black" points="0,-1 0,-21 124,-21 124,-1 0,-1"/>
<text text-anchor="middle" x="62" y="-8" font-family="FreeSans" font-size="10.00">PracticeSetupScene.cpp</text>
</a>
</g>
<!-- Node1&#45;&gt;Node2 -->
<g id="edge2" class="edge"><title>Node1&#45;&gt;Node2</title>
<path fill="none" stroke="midnightblue" d="M110.245,-52.1504C98.5797,-42.2003 84.1828,-29.9207 74.1668,-21.3776"/>
<polygon fill="midnightblue" stroke="midnightblue" points="108.276,-55.0706 118.155,-58.8972 112.818,-49.7447 108.276,-55.0706"/>
</g>
<!-- Node3 -->
<g id="node5" class="node"><title>Node3</title>
<a xlink:href="_track_select_scene_8cpp.html" target="_top" xlink:title="TrackSelectScene.cpp">
<polygon fill="none" stroke="black" points="141.5,-1 141.5,-21 256.5,-21 256.5,-1 141.5,-1"/>
<text text-anchor="middle" x="199" y="-8" font-family="FreeSans" font-size="10.00">TrackSelectScene.cpp</text>
</a>
</g>
<!-- Node1&#45;&gt;Node3 -->
<g id="edge4" class="edge"><title>Node1&#45;&gt;Node3</title>
<path fill="none" stroke="midnightblue" d="M149.701,-52.4396C161.598,-42.4391 176.392,-30.0036 186.654,-21.3776"/>
<polygon fill="midnightblue" stroke="midnightblue" points="147.422,-49.7834 142.019,-58.8972 151.926,-55.1418 147.422,-49.7834"/>
</g>
</g>
</svg>
