<?xml version="1.0" encoding="UTF-8" standalone="no"?>
<!DOCTYPE svg PUBLIC "-//W3C//DTD SVG 1.1//EN"
 "http://www.w3.org/Graphics/SVG/1.1/DTD/svg11.dtd">
<!-- Generated by graphviz version 2.38.0 (20140413.2041)
 -->
<!-- Title: TrackSelectScene.h Pages: 1 -->
<svg width="1087pt" height="767pt"
 viewBox="0.00 0.00 1087.00 767.00" xmlns="http://www.w3.org/2000/svg" xmlns:xlink="http://www.w3.org/1999/xlink">
<g id="graph0" class="graph" transform="scale(1 1) rotate(0) translate(4 763)">
<title>TrackSelectScene.h</title>
<!-- Node1 -->
<g id="node1" class="node"><title>Node1</title>
<polygon fill="#bfbfbf" stroke="black" points="665,-739.5 665,-758.5 770,-758.5 770,-739.5 665,-739.5"/>
<text text-anchor="middle" x="717.5" y="-746.5" font-family="Helvetica,sans-Serif" font-size="10.00">TrackSelectScene.h</text>
</g>
<!-- Node2 -->
<g id="node2" class="node"><title>Node2</title>
<g id="a_node2"><a xlink:href="_pick_list_8h.html" target="_top" xlink:title="../../engine/Display\l/PickList.h">
<polygon fill="none" stroke="black" points="223,-672.5 223,-702.5 322,-702.5 322,-672.5 223,-672.5"/>
<text text-anchor="start" x="231" y="-690.5" font-family="Helvetica,sans-Serif" font-size="10.00">../../engine/Display</text>
<text text-anchor="middle" x="272.5" y="-679.5" font-family="Helvetica,sans-Serif" font-size="10.00">/PickList.h</text>
</a>
</g>
</g>
<!-- Node1&#45;&gt;Node2 -->
<g id="edge1" class="edge"><title>Node1&#45;&gt;Node2</title>
<path fill="none" stroke="midnightblue" d="M664.705,-740.941C581.326,-729.793 419.668,-708.178 332.189,-696.481"/>
<polygon fill="midnightblue" stroke="midnightblue" points="332.532,-692.996 322.156,-695.139 331.604,-699.934 332.532,-692.996"/>
</g>
<!-- Node23 -->
<g id="node23" class="node"><title>Node23</title>
<g id="a_node23"><a xlink:href="_res_8h.html" target="_top" xlink:title="Res.h">
<polygon fill="none" stroke="black" points="89,-504.5 89,-523.5 132,-523.5 132,-504.5 89,-504.5"/>
<text text-anchor="middle" x="110.5" y="-511.5" font-family="Helvetica,sans-Serif" font-size="10.00">Res.h</text>
</a>
</g>
</g>
<!-- Node1&#45;&gt;Node23 -->
<g id="edge40" class="edge"><title>Node1&#45;&gt;Node23</title>
<path fill="none" stroke="midnightblue" d="M664.64,-746.08C542.962,-741.264 250.625,-727.287 213.5,-703 151.989,-662.76 124.083,-572.711 114.541,-533.659"/>
<polygon fill="midnightblue" stroke="midnightblue" points="117.898,-532.638 112.238,-523.682 111.077,-534.213 117.898,-532.638"/>
</g>
<!-- Node27 -->
<g id="node27" class="node"><title>Node27</title>
<g id="a_node27"><a xlink:href="_track_list_8h.html" target="_top" xlink:title="../../engine/Model\l/TrackList.h">
<polygon fill="none" stroke="black" points="826.5,-672.5 826.5,-702.5 918.5,-702.5 918.5,-672.5 826.5,-672.5"/>
<text text-anchor="start" x="834.5" y="-690.5" font-family="Helvetica,sans-Serif" font-size="10.00">../../engine/Model</text>
<text text-anchor="middle" x="872.5" y="-679.5" font-family="Helvetica,sans-Serif" font-size="10.00">/TrackList.h</text>
</a>
</g>
</g>
<!-- Node1&#45;&gt;Node27 -->
<g id="edge41" class="edge"><title>Node1&#45;&gt;Node27</title>
<path fill="none" stroke="midnightblue" d="M739.708,-739.475C762.27,-730.814 797.878,-717.145 826.543,-706.141"/>
<polygon fill="midnightblue" stroke="midnightblue" points="827.888,-709.374 835.97,-702.523 825.379,-702.839 827.888,-709.374"/>
</g>
<!-- Node37 -->
<g id="node37" class="node"><title>Node37</title>
<g id="a_node37"><a xlink:href="_game_director_8h.html" target="_top" xlink:title="GameDirector.h">
<polygon fill="none" stroke="black" points="771.5,-280.5 771.5,-299.5 857.5,-299.5 857.5,-280.5 771.5,-280.5"/>
<text text-anchor="middle" x="814.5" y="-287.5" font-family="Helvetica,sans-Serif" font-size="10.00">GameDirector.h</text>
</a>
</g>
</g>
<!-- Node1&#45;&gt;Node37 -->
<g id="edge54" class="edge"><title>Node1&#45;&gt;Node37</title>
<path fill="none" stroke="midnightblue" d="M727.615,-739.44C748.087,-721.096 792.5,-675.689 792.5,-627 792.5,-627 792.5,-627 792.5,-401 792.5,-368.328 801.947,-331.24 808.46,-309.553"/>
<polygon fill="midnightblue" stroke="midnightblue" points="811.891,-310.31 811.533,-299.721 805.209,-308.222 811.891,-310.31"/>
</g>
<!-- Node38 -->
<g id="node38" class="node"><title>Node38</title>
<g id="a_node38"><a xlink:href="_dialog_scene_8h.html" target="_top" xlink:title="DialogScene.h">
<polygon fill="none" stroke="black" points="677.5,-336.5 677.5,-355.5 757.5,-355.5 757.5,-336.5 677.5,-336.5"/>
<text text-anchor="middle" x="717.5" y="-343.5" font-family="Helvetica,sans-Serif" font-size="10.00">DialogScene.h</text>
</a>
</g>
</g>
<!-- Node1&#45;&gt;Node38 -->
<g id="edge55" class="edge"><title>Node1&#45;&gt;Node38</title>
<path fill="none" stroke="midnightblue" d="M717.5,-739.491C717.5,-719.736 717.5,-669.224 717.5,-627 717.5,-627 717.5,-627 717.5,-457 717.5,-424.948 717.5,-387.643 717.5,-365.749"/>
<polygon fill="midnightblue" stroke="midnightblue" points="721,-365.558 717.5,-355.558 714,-365.558 721,-365.558"/>
</g>
<!-- Node3 -->
<g id="node3" class="node"><title>Node3</title>
<g id="a_node3"><a xlink:href="_exception_8h.html" target="_top" xlink:title="../Exception.h">
<polygon fill="none" stroke="black" points="0,-448.5 0,-467.5 77,-467.5 77,-448.5 0,-448.5"/>
<text text-anchor="middle" x="38.5" y="-455.5" font-family="Helvetica,sans-Serif" font-size="10.00">../Exception.h</text>
</a>
</g>
</g>
<!-- Node2&#45;&gt;Node3 -->
<g id="edge2" class="edge"><title>Node2&#45;&gt;Node3</title>
<path fill="none" stroke="midnightblue" d="M239.052,-672.389C219.986,-663.477 196.236,-650.852 177.5,-636 117.863,-588.725 68.5109,-510.927 48.3156,-476.418"/>
<polygon fill="midnightblue" stroke="midnightblue" points="51.2258,-474.458 43.2055,-467.535 45.1582,-477.948 51.2258,-474.458"/>
</g>
<!-- Node5 -->
<g id="node5" class="node"><title>Node5</title>
<g id="a_node5"><a xlink:href="_base_container_8h.html" target="_top" xlink:title="BaseContainer.h">
<polygon fill="none" stroke="black" points="287,-560.5 287,-579.5 376,-579.5 376,-560.5 287,-560.5"/>
<text text-anchor="middle" x="331.5" y="-567.5" font-family="Helvetica,sans-Serif" font-size="10.00">BaseContainer.h</text>
</a>
</g>
</g>
<!-- Node2&#45;&gt;Node5 -->
<g id="edge4" class="edge"><title>Node2&#45;&gt;Node5</title>
<path fill="none" stroke="midnightblue" d="M279.735,-672.337C290.51,-651.243 310.761,-611.6 322.485,-588.648"/>
<polygon fill="midnightblue" stroke="midnightblue" points="325.639,-590.167 327.071,-579.669 319.405,-586.983 325.639,-590.167"/>
</g>
<!-- Node21 -->
<g id="node21" class="node"><title>Node21</title>
<g id="a_node21"><a xlink:href="_state_button_8h.html" target="_top" xlink:title="StateButton.h">
<polygon fill="none" stroke="black" points="187,-616.5 187,-635.5 264,-635.5 264,-616.5 187,-616.5"/>
<text text-anchor="middle" x="225.5" y="-623.5" font-family="Helvetica,sans-Serif" font-size="10.00">StateButton.h</text>
</a>
</g>
</g>
<!-- Node2&#45;&gt;Node21 -->
<g id="edge28" class="edge"><title>Node2&#45;&gt;Node21</title>
<path fill="none" stroke="midnightblue" d="M261.362,-672.399C254.532,-663.753 245.755,-652.642 238.594,-643.576"/>
<polygon fill="midnightblue" stroke="midnightblue" points="241.284,-641.335 232.339,-635.658 235.791,-645.674 241.284,-641.335"/>
</g>
<!-- Node4 -->
<g id="node4" class="node"><title>Node4</title>
<polygon fill="none" stroke="#bfbfbf" points="9,-392.5 9,-411.5 68,-411.5 68,-392.5 9,-392.5"/>
<text text-anchor="middle" x="38.5" y="-399.5" font-family="Helvetica,sans-Serif" font-size="10.00">exception</text>
</g>
<!-- Node3&#45;&gt;Node4 -->
<g id="edge3" class="edge"><title>Node3&#45;&gt;Node4</title>
<path fill="none" stroke="midnightblue" d="M38.5,-448.083C38.5,-441.006 38.5,-430.861 38.5,-421.986"/>
<polygon fill="midnightblue" stroke="midnightblue" points="42.0001,-421.751 38.5,-411.751 35.0001,-421.751 42.0001,-421.751"/>
</g>
<!-- Node6 -->
<g id="node6" class="node"><title>Node6</title>
<g id="a_node6"><a xlink:href="_ui_view_model_8h.html" target="_top" xlink:title="UiViewModel.h">
<polygon fill="none" stroke="black" points="303,-392.5 303,-411.5 386,-411.5 386,-392.5 303,-392.5"/>
<text text-anchor="middle" x="344.5" y="-399.5" font-family="Helvetica,sans-Serif" font-size="10.00">UiViewModel.h</text>
</a>
</g>
</g>
<!-- Node5&#45;&gt;Node6 -->
<g id="edge5" class="edge"><title>Node5&#45;&gt;Node6</title>
<path fill="none" stroke="midnightblue" d="M332.199,-560.075C334.245,-533.945 340.255,-457.211 343.045,-421.577"/>
<polygon fill="midnightblue" stroke="midnightblue" points="346.537,-421.811 343.829,-411.568 339.559,-421.264 346.537,-421.811"/>
</g>
<!-- Node7 -->
<g id="node7" class="node"><title>Node7</title>
<g id="a_node7"><a xlink:href="_nav_8h.html" target="_top" xlink:title="../Control/Nav.h">
<polygon fill="none" stroke="black" points="209.5,-336.5 209.5,-355.5 295.5,-355.5 295.5,-336.5 209.5,-336.5"/>
<text text-anchor="middle" x="252.5" y="-343.5" font-family="Helvetica,sans-Serif" font-size="10.00">../Control/Nav.h</text>
</a>
</g>
</g>
<!-- Node6&#45;&gt;Node7 -->
<g id="edge6" class="edge"><title>Node6&#45;&gt;Node7</title>
<path fill="none" stroke="midnightblue" d="M329.719,-392.324C315.233,-383.822 292.927,-370.729 276.007,-360.797"/>
<polygon fill="midnightblue" stroke="midnightblue" points="277.641,-357.698 267.245,-355.655 274.097,-363.735 277.641,-357.698"/>
</g>
<!-- Node8 -->
<g id="node8" class="node"><title>Node8</title>
<g id="a_node8"><a xlink:href="_m_r___types_8h.html" target="_top" xlink:title="../Util/MR_Types.h">
<polygon fill="none" stroke="black" points="494.5,-56.5 494.5,-75.5 594.5,-75.5 594.5,-56.5 494.5,-56.5"/>
<text text-anchor="middle" x="544.5" y="-63.5" font-family="Helvetica,sans-Serif" font-size="10.00">../Util/MR_Types.h</text>
</a>
</g>
</g>
<!-- Node6&#45;&gt;Node8 -->
<g id="edge7" class="edge"><title>Node6&#45;&gt;Node8</title>
<path fill="none" stroke="midnightblue" d="M386.083,-396.734C420.71,-391.559 470.066,-380.283 506.5,-356 559.177,-320.891 573.808,-303.828 594.5,-244 614.458,-186.295 576.704,-116.041 556.319,-84.1809"/>
<polygon fill="midnightblue" stroke="midnightblue" points="559.068,-81.993 550.633,-75.5822 553.229,-85.854 559.068,-81.993"/>
</g>
<!-- Node10 -->
<g id="node10" class="node"><title>Node10</title>
<g id="a_node10"><a xlink:href="_vec_8h.html" target="_top" xlink:title="../Vec.h">
<polygon fill="none" stroke="black" points="434,-168.5 434,-187.5 485,-187.5 485,-168.5 434,-168.5"/>
<text text-anchor="middle" x="459.5" y="-175.5" font-family="Helvetica,sans-Serif" font-size="10.00">../Vec.h</text>
</a>
</g>
</g>
<!-- Node6&#45;&gt;Node10 -->
<g id="edge9" class="edge"><title>Node6&#45;&gt;Node10</title>
<path fill="none" stroke="midnightblue" d="M357.314,-392.316C368.639,-384.089 384.952,-370.813 395.5,-356 431.77,-305.062 449.577,-231.372 456.257,-197.409"/>
<polygon fill="midnightblue" stroke="midnightblue" points="459.712,-197.978 458.107,-187.505 452.83,-196.693 459.712,-197.978"/>
</g>
<!-- Node11 -->
<g id="node11" class="node"><title>Node11</title>
<g id="a_node11"><a xlink:href="_ui_layout_flags_8h.html" target="_top" xlink:title="UiLayoutFlags.h">
<polygon fill="none" stroke="black" points="497.5,-224.5 497.5,-243.5 585.5,-243.5 585.5,-224.5 497.5,-224.5"/>
<text text-anchor="middle" x="541.5" y="-231.5" font-family="Helvetica,sans-Serif" font-size="10.00">UiLayoutFlags.h</text>
</a>
</g>
</g>
<!-- Node6&#45;&gt;Node11 -->
<g id="edge10" class="edge"><title>Node6&#45;&gt;Node11</title>
<path fill="none" stroke="midnightblue" d="M386.195,-396.337C416.303,-391.04 456.289,-379.792 483.5,-356 514.958,-328.495 530.807,-280.129 537.477,-253.639"/>
<polygon fill="midnightblue" stroke="midnightblue" points="540.92,-254.285 539.792,-243.751 534.105,-252.69 540.92,-254.285"/>
</g>
<!-- Node12 -->
<g id="node12" class="node"><title>Node12</title>
<g id="a_node12"><a xlink:href="_view_model_8h.html" target="_top" xlink:title="ViewModel.h">
<polygon fill="none" stroke="black" points="314,-336.5 314,-355.5 387,-355.5 387,-336.5 314,-336.5"/>
<text text-anchor="middle" x="350.5" y="-343.5" font-family="Helvetica,sans-Serif" font-size="10.00">ViewModel.h</text>
</a>
</g>
</g>
<!-- Node6&#45;&gt;Node12 -->
<g id="edge12" class="edge"><title>Node6&#45;&gt;Node12</title>
<path fill="none" stroke="midnightblue" d="M345.491,-392.083C346.286,-384.927 347.429,-374.635 348.423,-365.691"/>
<polygon fill="midnightblue" stroke="midnightblue" points="351.902,-366.076 349.528,-355.751 344.945,-365.303 351.902,-366.076"/>
</g>
<!-- Node9 -->
<g id="node9" class="node"><title>Node9</title>
<polygon fill="none" stroke="#bfbfbf" points="515,-0.5 515,-19.5 574,-19.5 574,-0.5 515,-0.5"/>
<text text-anchor="middle" x="544.5" y="-7.5" font-family="Helvetica,sans-Serif" font-size="10.00">inttypes.h</text>
</g>
<!-- Node8&#45;&gt;Node9 -->
<g id="edge8" class="edge"><title>Node8&#45;&gt;Node9</title>
<path fill="none" stroke="midnightblue" d="M544.5,-56.083C544.5,-49.0059 544.5,-38.8611 544.5,-29.9865"/>
<polygon fill="midnightblue" stroke="midnightblue" points="548,-29.751 544.5,-19.7511 541,-29.7511 548,-29.751"/>
</g>
<!-- Node11&#45;&gt;Node8 -->
<g id="edge11" class="edge"><title>Node11&#45;&gt;Node8</title>
<path fill="none" stroke="midnightblue" d="M541.661,-224.075C542.134,-197.945 543.52,-121.211 544.164,-85.577"/>
<polygon fill="midnightblue" stroke="midnightblue" points="547.664,-85.6298 544.345,-75.5681 540.665,-85.5032 547.664,-85.6298"/>
</g>
<!-- Node13 -->
<g id="node13" class="node"><title>Node13</title>
<g id="a_node13"><a xlink:href="_display_8h.html" target="_top" xlink:title="Display.h">
<polygon fill="none" stroke="black" points="351.5,-280.5 351.5,-299.5 409.5,-299.5 409.5,-280.5 351.5,-280.5"/>
<text text-anchor="middle" x="380.5" y="-287.5" font-family="Helvetica,sans-Serif" font-size="10.00">Display.h</text>
</a>
</g>
</g>
<!-- Node12&#45;&gt;Node13 -->
<g id="edge13" class="edge"><title>Node12&#45;&gt;Node13</title>
<path fill="none" stroke="midnightblue" d="M355.454,-336.083C359.604,-328.613 365.653,-317.724 370.767,-308.52"/>
<polygon fill="midnightblue" stroke="midnightblue" points="373.841,-310.192 375.638,-299.751 367.722,-306.793 373.841,-310.192"/>
</g>
<!-- Node19 -->
<g id="node19" class="node"><title>Node19</title>
<g id="a_node19"><a xlink:href="_view_attacher_8h.html" target="_top" xlink:title="ViewAttacher.h">
<polygon fill="none" stroke="black" points="210,-224.5 210,-243.5 293,-243.5 293,-224.5 210,-224.5"/>
<text text-anchor="middle" x="251.5" y="-231.5" font-family="Helvetica,sans-Serif" font-size="10.00">ViewAttacher.h</text>
</a>
</g>
</g>
<!-- Node12&#45;&gt;Node19 -->
<g id="edge27" class="edge"><title>Node12&#45;&gt;Node19</title>
<path fill="none" stroke="midnightblue" d="M318.464,-336.459C288.775,-327.819 247.829,-313.802 238.5,-300 229.062,-286.036 234.677,-266.776 241.211,-252.85"/>
<polygon fill="midnightblue" stroke="midnightblue" points="244.408,-254.289 245.929,-243.804 238.201,-251.052 244.408,-254.289"/>
</g>
<!-- Node20 -->
<g id="node20" class="node"><title>Node20</title>
<g id="a_node20"><a xlink:href="_view_8h.html" target="_top" xlink:title="View.h">
<polygon fill="none" stroke="black" points="248,-280.5 248,-299.5 295,-299.5 295,-280.5 248,-280.5"/>
<text text-anchor="middle" x="271.5" y="-287.5" font-family="Helvetica,sans-Serif" font-size="10.00">View.h</text>
</a>
</g>
</g>
<!-- Node12&#45;&gt;Node20 -->
<g id="edge26" class="edge"><title>Node12&#45;&gt;Node20</title>
<path fill="none" stroke="midnightblue" d="M337.807,-336.324C325.599,-327.979 306.922,-315.212 292.497,-305.352"/>
<polygon fill="midnightblue" stroke="midnightblue" points="294.392,-302.408 284.161,-299.655 290.442,-308.187 294.392,-302.408"/>
</g>
<!-- Node13&#45;&gt;Node10 -->
<g id="edge14" class="edge"><title>Node13&#45;&gt;Node10</title>
<path fill="none" stroke="midnightblue" d="M386.699,-280.368C399.736,-262.215 430.197,-219.802 447.298,-195.99"/>
<polygon fill="midnightblue" stroke="midnightblue" points="450.339,-197.755 453.33,-187.591 444.654,-193.672 450.339,-197.755"/>
</g>
<!-- Node13&#45;&gt;Node11 -->
<g id="edge24" class="edge"><title>Node13&#45;&gt;Node11</title>
<path fill="none" stroke="midnightblue" d="M406.011,-280.444C433.096,-271.359 476.09,-256.939 506.369,-246.783"/>
<polygon fill="midnightblue" stroke="midnightblue" points="507.74,-250.015 516.108,-243.516 505.514,-243.378 507.74,-250.015"/>
</g>
<!-- Node14 -->
<g id="node14" class="node"><title>Node14</title>
<g id="a_node14"><a xlink:href="_styles_8h.html" target="_top" xlink:title="Styles.h">
<polygon fill="none" stroke="black" points="350,-224.5 350,-243.5 403,-243.5 403,-224.5 350,-224.5"/>
<text text-anchor="middle" x="376.5" y="-231.5" font-family="Helvetica,sans-Serif" font-size="10.00">Styles.h</text>
</a>
</g>
</g>
<!-- Node13&#45;&gt;Node14 -->
<g id="edge15" class="edge"><title>Node13&#45;&gt;Node14</title>
<path fill="none" stroke="midnightblue" d="M379.839,-280.083C379.315,-273.006 378.564,-262.861 377.906,-253.986"/>
<polygon fill="midnightblue" stroke="midnightblue" points="381.377,-253.465 377.148,-243.751 374.397,-253.982 381.377,-253.465"/>
</g>
<!-- Node13&#45;&gt;Node19 -->
<g id="edge25" class="edge"><title>Node13&#45;&gt;Node19</title>
<path fill="none" stroke="midnightblue" d="M360.06,-280.444C338.83,-271.557 305.401,-257.563 281.245,-247.451"/>
<polygon fill="midnightblue" stroke="midnightblue" points="282.421,-244.149 271.845,-243.516 279.718,-250.606 282.421,-244.149"/>
</g>
<!-- Node14&#45;&gt;Node10 -->
<g id="edge16" class="edge"><title>Node14&#45;&gt;Node10</title>
<path fill="none" stroke="midnightblue" d="M389.835,-224.324C402.662,-215.979 422.285,-203.212 437.44,-193.352"/>
<polygon fill="midnightblue" stroke="midnightblue" points="439.724,-196.042 446.198,-187.655 435.907,-190.174 439.724,-196.042"/>
</g>
<!-- Node15 -->
<g id="node15" class="node"><title>Node15</title>
<g id="a_node15"><a xlink:href="_ui_font_8h.html" target="_top" xlink:title="UiFont.h">
<polygon fill="none" stroke="black" points="354.5,-168.5 354.5,-187.5 408.5,-187.5 408.5,-168.5 354.5,-168.5"/>
<text text-anchor="middle" x="381.5" y="-175.5" font-family="Helvetica,sans-Serif" font-size="10.00">UiFont.h</text>
</a>
</g>
</g>
<!-- Node14&#45;&gt;Node15 -->
<g id="edge17" class="edge"><title>Node14&#45;&gt;Node15</title>
<path fill="none" stroke="midnightblue" d="M377.326,-224.083C377.981,-217.006 378.92,-206.861 379.742,-197.986"/>
<polygon fill="midnightblue" stroke="midnightblue" points="383.253,-198.031 380.69,-187.751 376.283,-197.386 383.253,-198.031"/>
</g>
<!-- Node18 -->
<g id="node18" class="node"><title>Node18</title>
<g id="a_node18"><a xlink:href="_color_8h.html" target="_top" xlink:title="Color.h">
<polygon fill="none" stroke="black" points="287.5,-168.5 287.5,-187.5 335.5,-187.5 335.5,-168.5 287.5,-168.5"/>
<text text-anchor="middle" x="311.5" y="-175.5" font-family="Helvetica,sans-Serif" font-size="10.00">Color.h</text>
</a>
</g>
</g>
<!-- Node14&#45;&gt;Node18 -->
<g id="edge21" class="edge"><title>Node14&#45;&gt;Node18</title>
<path fill="none" stroke="midnightblue" d="M366.057,-224.324C356.354,-216.263 341.685,-204.077 330,-194.369"/>
<polygon fill="midnightblue" stroke="midnightblue" points="332.062,-191.532 322.133,-187.834 327.589,-196.916 332.062,-191.532"/>
</g>
<!-- Node16 -->
<g id="node16" class="node"><title>Node16</title>
<g id="a_node16"><a xlink:href="_hash_8h.html" target="_top" xlink:title="../Util/Hash.h">
<polygon fill="none" stroke="black" points="441,-112.5 441,-131.5 516,-131.5 516,-112.5 441,-112.5"/>
<text text-anchor="middle" x="478.5" y="-119.5" font-family="Helvetica,sans-Serif" font-size="10.00">../Util/Hash.h</text>
</a>
</g>
</g>
<!-- Node15&#45;&gt;Node16 -->
<g id="edge18" class="edge"><title>Node15&#45;&gt;Node16</title>
<path fill="none" stroke="midnightblue" d="M397.085,-168.324C412.499,-159.743 436.312,-146.486 454.21,-136.522"/>
<polygon fill="midnightblue" stroke="midnightblue" points="455.919,-139.577 462.954,-131.655 452.514,-133.461 455.919,-139.577"/>
</g>
<!-- Node17 -->
<g id="node17" class="node"><title>Node17</title>
<g id="a_node17"><a xlink:href="_sel_fmt_8h.html" target="_top" xlink:title="../Util/SelFmt.h">
<polygon fill="none" stroke="black" points="340,-112.5 340,-131.5 423,-131.5 423,-112.5 340,-112.5"/>
<text text-anchor="middle" x="381.5" y="-119.5" font-family="Helvetica,sans-Serif" font-size="10.00">../Util/SelFmt.h</text>
</a>
</g>
</g>
<!-- Node15&#45;&gt;Node17 -->
<g id="edge19" class="edge"><title>Node15&#45;&gt;Node17</title>
<path fill="none" stroke="midnightblue" d="M381.5,-168.083C381.5,-161.006 381.5,-150.861 381.5,-141.986"/>
<polygon fill="midnightblue" stroke="midnightblue" points="385,-141.751 381.5,-131.751 378,-141.751 385,-141.751"/>
</g>
<!-- Node17&#45;&gt;Node8 -->
<g id="edge20" class="edge"><title>Node17&#45;&gt;Node8</title>
<path fill="none" stroke="midnightblue" d="M407.328,-112.444C434.749,-103.359 478.277,-88.9388 508.932,-78.7831"/>
<polygon fill="midnightblue" stroke="midnightblue" points="510.401,-81.9837 518.793,-75.5164 508.2,-75.3389 510.401,-81.9837"/>
</g>
<!-- Node18&#45;&gt;Node8 -->
<g id="edge22" class="edge"><title>Node18&#45;&gt;Node8</title>
<path fill="none" stroke="midnightblue" d="M311.385,-168.41C311.694,-154.437 314.452,-126.855 330.5,-112 352.532,-91.6053 429.019,-79.2348 484.269,-72.7581"/>
<polygon fill="midnightblue" stroke="midnightblue" points="484.778,-76.2227 494.32,-71.6167 483.989,-69.2674 484.778,-76.2227"/>
</g>
<!-- Node18&#45;&gt;Node17 -->
<g id="edge23" class="edge"><title>Node18&#45;&gt;Node17</title>
<path fill="none" stroke="midnightblue" d="M322.747,-168.324C333.297,-160.185 349.301,-147.839 361.942,-138.087"/>
<polygon fill="midnightblue" stroke="midnightblue" points="364.269,-140.713 370.049,-131.834 359.993,-135.171 364.269,-140.713"/>
</g>
<!-- Node22 -->
<g id="node22" class="node"><title>Node22</title>
<g id="a_node22"><a xlink:href="_button_8h.html" target="_top" xlink:title="Button.h">
<polygon fill="none" stroke="black" points="186,-560.5 186,-579.5 239,-579.5 239,-560.5 186,-560.5"/>
<text text-anchor="middle" x="212.5" y="-567.5" font-family="Helvetica,sans-Serif" font-size="10.00">Button.h</text>
</a>
</g>
</g>
<!-- Node21&#45;&gt;Node22 -->
<g id="edge29" class="edge"><title>Node21&#45;&gt;Node22</title>
<path fill="none" stroke="midnightblue" d="M223.353,-616.083C221.631,-608.927 219.153,-598.635 217,-589.691"/>
<polygon fill="midnightblue" stroke="midnightblue" points="220.35,-588.654 214.607,-579.751 213.545,-590.293 220.35,-588.654"/>
</g>
<!-- Node22&#45;&gt;Node23 -->
<g id="edge30" class="edge"><title>Node22&#45;&gt;Node23</title>
<path fill="none" stroke="midnightblue" d="M196.112,-560.324C179.829,-551.703 154.633,-538.364 135.784,-528.386"/>
<polygon fill="midnightblue" stroke="midnightblue" points="137.323,-525.24 126.847,-523.655 134.048,-531.427 137.323,-525.24"/>
</g>
<!-- Node24 -->
<g id="node24" class="node"><title>Node24</title>
<g id="a_node24"><a xlink:href="_click_region_8h.html" target="_top" xlink:title="ClickRegion.h">
<polygon fill="none" stroke="black" points="235.5,-448.5 235.5,-467.5 313.5,-467.5 313.5,-448.5 235.5,-448.5"/>
<text text-anchor="middle" x="274.5" y="-455.5" font-family="Helvetica,sans-Serif" font-size="10.00">ClickRegion.h</text>
</a>
</g>
</g>
<!-- Node22&#45;&gt;Node24 -->
<g id="edge33" class="edge"><title>Node22&#45;&gt;Node24</title>
<path fill="none" stroke="midnightblue" d="M217.365,-560.368C227.552,-542.296 251.291,-500.176 264.745,-476.307"/>
<polygon fill="midnightblue" stroke="midnightblue" points="267.796,-478.022 269.658,-467.591 261.698,-474.584 267.796,-478.022"/>
</g>
<!-- Node25 -->
<g id="node25" class="node"><title>Node25</title>
<g id="a_node25"><a xlink:href="_fill_box_8h.html" target="_top" xlink:title="FillBox.h">
<polygon fill="none" stroke="black" points="166,-504.5 166,-523.5 221,-523.5 221,-504.5 166,-504.5"/>
<text text-anchor="middle" x="193.5" y="-511.5" font-family="Helvetica,sans-Serif" font-size="10.00">FillBox.h</text>
</a>
</g>
</g>
<!-- Node22&#45;&gt;Node25 -->
<g id="edge35" class="edge"><title>Node22&#45;&gt;Node25</title>
<path fill="none" stroke="midnightblue" d="M209.363,-560.083C206.817,-552.849 203.144,-542.409 199.973,-533.397"/>
<polygon fill="midnightblue" stroke="midnightblue" points="203.2,-532.023 196.579,-523.751 196.597,-534.346 203.2,-532.023"/>
</g>
<!-- Node23&#45;&gt;Node3 -->
<g id="edge32" class="edge"><title>Node23&#45;&gt;Node3</title>
<path fill="none" stroke="midnightblue" d="M98.932,-504.324C88.0798,-496.185 71.6193,-483.839 58.6166,-474.087"/>
<polygon fill="midnightblue" stroke="midnightblue" points="60.3786,-471.034 50.2785,-467.834 56.1785,-476.634 60.3786,-471.034"/>
</g>
<!-- Node23&#45;&gt;Node8 -->
<g id="edge31" class="edge"><title>Node23&#45;&gt;Node8</title>
<path fill="none" stroke="midnightblue" d="M109.846,-504.448C108.491,-485.954 105.5,-440.852 105.5,-403 105.5,-403 105.5,-403 105.5,-177 105.5,-99.8903 363.568,-76.3592 483.974,-69.5768"/>
<polygon fill="midnightblue" stroke="midnightblue" points="484.345,-73.0619 494.141,-69.0255 483.966,-66.0721 484.345,-73.0619"/>
</g>
<!-- Node24&#45;&gt;Node6 -->
<g id="edge34" class="edge"><title>Node24&#45;&gt;Node6</title>
<path fill="none" stroke="midnightblue" d="M285.747,-448.324C296.297,-440.185 312.301,-427.839 324.942,-418.087"/>
<polygon fill="midnightblue" stroke="midnightblue" points="327.269,-420.713 333.049,-411.834 322.993,-415.171 327.269,-420.713"/>
</g>
<!-- Node25&#45;&gt;Node18 -->
<g id="edge36" class="edge"><title>Node25&#45;&gt;Node18</title>
<path fill="none" stroke="midnightblue" d="M186.548,-504.481C172.809,-486.753 143.5,-444.116 143.5,-403 143.5,-403 143.5,-403 143.5,-289 143.5,-225.532 228.46,-196.704 277.544,-185.346"/>
<polygon fill="midnightblue" stroke="midnightblue" points="278.41,-188.739 287.43,-183.181 276.912,-181.901 278.41,-188.739"/>
</g>
<!-- Node26 -->
<g id="node26" class="node"><title>Node26</title>
<g id="a_node26"><a xlink:href="_box_8h.html" target="_top" xlink:title="Box.h">
<polygon fill="none" stroke="black" points="172.5,-448.5 172.5,-467.5 214.5,-467.5 214.5,-448.5 172.5,-448.5"/>
<text text-anchor="middle" x="193.5" y="-455.5" font-family="Helvetica,sans-Serif" font-size="10.00">Box.h</text>
</a>
</g>
</g>
<!-- Node25&#45;&gt;Node26 -->
<g id="edge37" class="edge"><title>Node25&#45;&gt;Node26</title>
<path fill="none" stroke="midnightblue" d="M193.5,-504.083C193.5,-497.006 193.5,-486.861 193.5,-477.986"/>
<polygon fill="midnightblue" stroke="midnightblue" points="197,-477.751 193.5,-467.751 190,-477.751 197,-477.751"/>
</g>
<!-- Node26&#45;&gt;Node6 -->
<g id="edge39" class="edge"><title>Node26&#45;&gt;Node6</title>
<path fill="none" stroke="midnightblue" d="M214.814,-449.378C239.867,-440.419 281.742,-425.443 311.114,-414.939"/>
<polygon fill="midnightblue" stroke="midnightblue" points="312.316,-418.227 320.553,-411.564 309.959,-411.635 312.316,-418.227"/>
</g>
<!-- Node26&#45;&gt;Node18 -->
<g id="edge38" class="edge"><title>Node26&#45;&gt;Node18</title>
<path fill="none" stroke="midnightblue" d="M191.931,-448.477C188.678,-430.038 181.5,-385.037 181.5,-347 181.5,-347 181.5,-347 181.5,-289 181.5,-258.902 180.317,-246.327 200.5,-224 220.388,-201.999 252.57,-190.545 277.173,-184.715"/>
<polygon fill="midnightblue" stroke="midnightblue" points="278.162,-188.082 287.195,-182.547 276.681,-181.241 278.162,-188.082"/>
</g>
<!-- Node28 -->
<g id="node28" class="node"><title>Node28</title>
<g id="a_node28"><a xlink:href="_track_entry_8h.html" target="_top" xlink:title="TrackEntry.h">
<polygon fill="none" stroke="black" points="849,-168.5 849,-187.5 922,-187.5 922,-168.5 849,-168.5"/>
<text text-anchor="middle" x="885.5" y="-175.5" font-family="Helvetica,sans-Serif" font-size="10.00">TrackEntry.h</text>
</a>
</g>
</g>
<!-- Node27&#45;&gt;Node28 -->
<g id="edge42" class="edge"><title>Node27&#45;&gt;Node28</title>
<path fill="none" stroke="midnightblue" d="M875.131,-672.333C878.929,-650.609 885.5,-607.725 885.5,-571 885.5,-571 885.5,-571 885.5,-289 885.5,-256.948 885.5,-219.643 885.5,-197.749"/>
<polygon fill="midnightblue" stroke="midnightblue" points="889,-197.558 885.5,-187.558 882,-197.558 889,-197.558"/>
</g>
<!-- Node28&#45;&gt;Node8 -->
<g id="edge45" class="edge"><title>Node28&#45;&gt;Node8</title>
<path fill="none" stroke="midnightblue" d="M848.929,-170.254C811.354,-162.815 751.458,-149.537 701.5,-132 681.613,-125.019 677.867,-120.318 658.5,-112 631.251,-100.297 599.882,-87.9987 576.956,-79.2221"/>
<polygon fill="midnightblue" stroke="midnightblue" points="577.964,-75.8609 567.373,-75.5705 575.472,-82.4021 577.964,-75.8609"/>
</g>
<!-- Node29 -->
<g id="node29" class="node"><title>Node29</title>
<g id="a_node29"><a xlink:href="_inspectable_8h.html" target="_top" xlink:title="../Util/Inspectable.h">
<polygon fill="none" stroke="black" points="971.5,-112.5 971.5,-131.5 1073.5,-131.5 1073.5,-112.5 971.5,-112.5"/>
<text text-anchor="middle" x="1022.5" y="-119.5" font-family="Helvetica,sans-Serif" font-size="10.00">../Util/Inspectable.h</text>
</a>
</g>
</g>
<!-- Node28&#45;&gt;Node29 -->
<g id="edge43" class="edge"><title>Node28&#45;&gt;Node29</title>
<path fill="none" stroke="midnightblue" d="M907.208,-168.444C929.855,-159.517 965.572,-145.439 991.252,-135.317"/>
<polygon fill="midnightblue" stroke="midnightblue" points="992.874,-138.44 1000.89,-131.516 990.307,-131.927 992.874,-138.44"/>
</g>
<!-- Node31 -->
<g id="node31" class="node"><title>Node31</title>
<g id="a_node31"><a xlink:href="_o_s_8h.html" target="_top" xlink:title="../Util/OS.h">
<polygon fill="none" stroke="black" points="852.5,-112.5 852.5,-131.5 918.5,-131.5 918.5,-112.5 852.5,-112.5"/>
<text text-anchor="middle" x="885.5" y="-119.5" font-family="Helvetica,sans-Serif" font-size="10.00">../Util/OS.h</text>
</a>
</g>
</g>
<!-- Node28&#45;&gt;Node31 -->
<g id="edge46" class="edge"><title>Node28&#45;&gt;Node31</title>
<path fill="none" stroke="midnightblue" d="M885.5,-168.083C885.5,-161.006 885.5,-150.861 885.5,-141.986"/>
<polygon fill="midnightblue" stroke="midnightblue" points="889,-141.751 885.5,-131.751 882,-141.751 889,-141.751"/>
</g>
<!-- Node30 -->
<g id="node30" class="node"><title>Node30</title>
<polygon fill="none" stroke="#bfbfbf" points="1038,-56.5 1038,-75.5 1079,-75.5 1079,-56.5 1038,-56.5"/>
<text text-anchor="middle" x="1058.5" y="-63.5" font-family="Helvetica,sans-Serif" font-size="10.00">string</text>
</g>
<!-- Node29&#45;&gt;Node30 -->
<g id="edge44" class="edge"><title>Node29&#45;&gt;Node30</title>
<path fill="none" stroke="midnightblue" d="M1028.44,-112.083C1033.48,-104.534 1040.84,-93.4948 1047.01,-84.2298"/>
<polygon fill="midnightblue" stroke="midnightblue" points="1050.03,-86.0131 1052.67,-75.7511 1044.21,-82.1301 1050.03,-86.0131"/>
</g>
<!-- Node31&#45;&gt;Node8 -->
<g id="edge53" class="edge"><title>Node31&#45;&gt;Node8</title>
<path fill="none" stroke="midnightblue" d="M852.066,-113.641C849.173,-113.063 846.288,-112.508 843.5,-112 840.566,-111.465 691.004,-88.9952 604.553,-76.0147"/>
<polygon fill="midnightblue" stroke="midnightblue" points="605.003,-72.5431 594.594,-74.5194 603.964,-79.4655 605.003,-72.5431"/>
</g>
<!-- Node31&#45;&gt;Node30 -->
<g id="edge50" class="edge"><title>Node31&#45;&gt;Node30</title>
<path fill="none" stroke="midnightblue" d="M912.912,-112.444C944.292,-102.649 995.544,-86.6509 1028.12,-76.4836"/>
<polygon fill="midnightblue" stroke="midnightblue" points="1029.49,-79.7233 1037.99,-73.4026 1027.4,-73.0413 1029.49,-79.7233"/>
</g>
<!-- Node32 -->
<g id="node32" class="node"><title>Node32</title>
<polygon fill="none" stroke="#bfbfbf" points="863.5,-56.5 863.5,-75.5 905.5,-75.5 905.5,-56.5 863.5,-56.5"/>
<text text-anchor="middle" x="884.5" y="-63.5" font-family="Helvetica,sans-Serif" font-size="10.00">locale</text>
</g>
<!-- Node31&#45;&gt;Node32 -->
<g id="edge47" class="edge"><title>Node31&#45;&gt;Node32</title>
<path fill="none" stroke="midnightblue" d="M885.335,-112.083C885.204,-105.006 885.016,-94.8611 884.852,-85.9865"/>
<polygon fill="midnightblue" stroke="midnightblue" points="888.347,-85.6845 884.662,-75.7511 881.348,-85.8142 888.347,-85.6845"/>
</g>
<!-- Node33 -->
<g id="node33" class="node"><title>Node33</title>
<polygon fill="none" stroke="#bfbfbf" points="923,-56.5 923,-75.5 972,-75.5 972,-56.5 923,-56.5"/>
<text text-anchor="middle" x="947.5" y="-63.5" font-family="Helvetica,sans-Serif" font-size="10.00">random</text>
</g>
<!-- Node31&#45;&gt;Node33 -->
<g id="edge48" class="edge"><title>Node31&#45;&gt;Node33</title>
<path fill="none" stroke="midnightblue" d="M895.461,-112.324C904.627,-104.341 918.437,-92.3128 929.528,-82.6529"/>
<polygon fill="midnightblue" stroke="midnightblue" points="932.115,-85.041 937.357,-75.8339 927.518,-79.7624 932.115,-85.041"/>
</g>
<!-- Node34 -->
<g id="node34" class="node"><title>Node34</title>
<polygon fill="none" stroke="#bfbfbf" points="989.5,-56.5 989.5,-75.5 1019.5,-75.5 1019.5,-56.5 989.5,-56.5"/>
<text text-anchor="middle" x="1004.5" y="-63.5" font-family="Helvetica,sans-Serif" font-size="10.00">set</text>
</g>
<!-- Node31&#45;&gt;Node34 -->
<g id="edge49" class="edge"><title>Node31&#45;&gt;Node34</title>
<path fill="none" stroke="midnightblue" d="M904.356,-112.444C924.794,-103.169 957.487,-88.3338 979.924,-78.1522"/>
<polygon fill="midnightblue" stroke="midnightblue" points="981.478,-81.2905 989.138,-73.971 978.585,-74.9161 981.478,-81.2905"/>
</g>
<!-- Node35 -->
<g id="node35" class="node"><title>Node35</title>
<polygon fill="none" stroke="#bfbfbf" points="677.5,-56.5 677.5,-75.5 721.5,-75.5 721.5,-56.5 677.5,-56.5"/>
<text text-anchor="middle" x="699.5" y="-63.5" font-family="Helvetica,sans-Serif" font-size="10.00">vector</text>
</g>
<!-- Node31&#45;&gt;Node35 -->
<g id="edge51" class="edge"><title>Node31&#45;&gt;Node35</title>
<path fill="none" stroke="midnightblue" d="M856.028,-112.444C821.998,-102.564 766.231,-86.3734 731.26,-76.2208"/>
<polygon fill="midnightblue" stroke="midnightblue" points="732.133,-72.8296 721.553,-73.4026 730.181,-79.552 732.133,-72.8296"/>
</g>
<!-- Node36 -->
<g id="node36" class="node"><title>Node36</title>
<polygon fill="none" stroke="#bfbfbf" points="739,-56.5 739,-75.5 846,-75.5 846,-56.5 739,-56.5"/>
<text text-anchor="middle" x="792.5" y="-63.5" font-family="Helvetica,sans-Serif" font-size="10.00">boost/filesystem.hpp</text>
</g>
<!-- Node31&#45;&gt;Node36 -->
<g id="edge52" class="edge"><title>Node31&#45;&gt;Node36</title>
<path fill="none" stroke="midnightblue" d="M870.558,-112.324C855.915,-103.822 833.366,-90.7288 816.262,-80.7975"/>
<polygon fill="midnightblue" stroke="midnightblue" points="817.81,-77.6491 807.405,-75.6545 814.295,-83.7027 817.81,-77.6491"/>
</g>
<!-- Node38&#45;&gt;Node18 -->
<g id="edge56" class="edge"><title>Node38&#45;&gt;Node18</title>
<path fill="none" stroke="midnightblue" d="M677.303,-345.697C590.947,-346.343 391.563,-343.006 342.5,-300 313.106,-274.235 309.736,-224.765 310.316,-197.745"/>
<polygon fill="midnightblue" stroke="midnightblue" points="313.816,-197.813 310.741,-187.674 306.822,-197.518 313.816,-197.813"/>
</g>
<!-- Node38&#45;&gt;Node37 -->
<g id="edge57" class="edge"><title>Node38&#45;&gt;Node37</title>
<path fill="none" stroke="midnightblue" d="M733.085,-336.324C748.499,-327.743 772.312,-314.486 790.21,-304.522"/>
<polygon fill="midnightblue" stroke="midnightblue" points="791.919,-307.577 798.954,-299.655 788.514,-301.461 791.919,-307.577"/>
</g>
<!-- Node39 -->
<g id="node39" class="node"><title>Node39</title>
<g id="a_node39"><a xlink:href="_form_scene_8h.html" target="_top" xlink:title="FormScene.h">
<polygon fill="none" stroke="black" points="678,-280.5 678,-299.5 753,-299.5 753,-280.5 678,-280.5"/>
<text text-anchor="middle" x="715.5" y="-287.5" font-family="Helvetica,sans-Serif" font-size="10.00">FormScene.h</text>
</a>
</g>
</g>
<!-- Node38&#45;&gt;Node39 -->
<g id="edge58" class="edge"><title>Node38&#45;&gt;Node39</title>
<path fill="none" stroke="midnightblue" d="M717.17,-336.083C716.908,-329.006 716.532,-318.861 716.203,-309.986"/>
<polygon fill="midnightblue" stroke="midnightblue" points="719.692,-309.615 715.824,-299.751 712.697,-309.874 719.692,-309.615"/>
</g>
<!-- Node39&#45;&gt;Node10 -->
<g id="edge59" class="edge"><title>Node39&#45;&gt;Node10</title>
<path fill="none" stroke="midnightblue" d="M701.368,-280.376C679.182,-267.075 634.568,-241.289 594.5,-224 561.469,-209.747 522.335,-197.149 494.729,-188.935"/>
<polygon fill="midnightblue" stroke="midnightblue" points="495.694,-185.57 485.113,-186.112 493.722,-192.287 495.694,-185.57"/>
</g>
<!-- Node40 -->
<g id="node40" class="node"><title>Node40</title>
<g id="a_node40"><a xlink:href="_ui_scene_8h.html" target="_top" xlink:title="UiScene.h">
<polygon fill="none" stroke="black" points="713.5,-224.5 713.5,-243.5 775.5,-243.5 775.5,-224.5 713.5,-224.5"/>
<text text-anchor="middle" x="744.5" y="-231.5" font-family="Helvetica,sans-Serif" font-size="10.00">UiScene.h</text>
</a>
</g>
</g>
<!-- Node39&#45;&gt;Node40 -->
<g id="edge60" class="edge"><title>Node39&#45;&gt;Node40</title>
<path fill="none" stroke="midnightblue" d="M720.289,-280.083C724.258,-272.691 730.025,-261.953 734.935,-252.811"/>
<polygon fill="midnightblue" stroke="midnightblue" points="738.153,-254.217 739.8,-243.751 731.986,-250.905 738.153,-254.217"/>
</g>
<!-- Node41 -->
<g id="node41" class="node"><title>Node41</title>
<g id="a_node41"><a xlink:href="_scene_8h.html" target="_top" xlink:title="Scene.h">
<polygon fill="none" stroke="black" points="746,-168.5 746,-187.5 799,-187.5 799,-168.5 746,-168.5"/>
<text text-anchor="middle" x="772.5" y="-175.5" font-family="Helvetica,sans-Serif" font-size="10.00">Scene.h</text>
</a>
</g>
</g>
<!-- Node40&#45;&gt;Node41 -->
<g id="edge61" class="edge"><title>Node40&#45;&gt;Node41</title>
<path fill="none" stroke="midnightblue" d="M749.124,-224.083C752.956,-216.691 758.524,-205.953 763.265,-196.811"/>
<polygon fill="midnightblue" stroke="midnightblue" points="766.466,-198.24 767.962,-187.751 760.252,-195.018 766.466,-198.24"/>
</g>
<!-- Node41&#45;&gt;Node31 -->
<g id="edge62" class="edge"><title>Node41&#45;&gt;Node31</title>
<path fill="none" stroke="midnightblue" d="M790.405,-168.444C808.754,-159.675 837.505,-145.935 858.594,-135.858"/>
<polygon fill="midnightblue" stroke="midnightblue" points="860.165,-138.986 867.679,-131.516 857.147,-132.67 860.165,-138.986"/>
</g>
<!-- Node42 -->
<g id="node42" class="node"><title>Node42</title>
<g id="a_node42"><a xlink:href="_profiler_8h.html" target="_top" xlink:title="../../engine/Util/Profiler.h">
<polygon fill="none" stroke="black" points="711,-112.5 711,-131.5 834,-131.5 834,-112.5 711,-112.5"/>
<text text-anchor="middle" x="772.5" y="-119.5" font-family="Helvetica,sans-Serif" font-size="10.00">../../engine/Util/Profiler.h</text>
</a>
</g>
</g>
<!-- Node41&#45;&gt;Node42 -->
<g id="edge63" class="edge"><title>Node41&#45;&gt;Node42</title>
<path fill="none" stroke="midnightblue" d="M772.5,-168.083C772.5,-161.006 772.5,-150.861 772.5,-141.986"/>
<polygon fill="midnightblue" stroke="midnightblue" points="776,-141.751 772.5,-131.751 769,-141.751 776,-141.751"/>
</g>
<!-- Node43 -->
<g id="node43" class="node"><title>Node43</title>
<polygon fill="none" stroke="#bfbfbf" points="613.5,-56.5 613.5,-75.5 659.5,-75.5 659.5,-56.5 613.5,-56.5"/>
<text text-anchor="middle" x="636.5" y="-63.5" font-family="Helvetica,sans-Serif" font-size="10.00">chrono</text>
</g>
<!-- Node42&#45;&gt;Node43 -->
<g id="edge64" class="edge"><title>Node42&#45;&gt;Node43</title>
<path fill="none" stroke="midnightblue" d="M750.95,-112.444C728.469,-103.517 693.012,-89.4387 667.52,-79.3168"/>
<polygon fill="midnightblue" stroke="midnightblue" points="668.535,-75.9539 657.949,-75.5164 665.951,-82.4598 668.535,-75.9539"/>
</g>
</g>
</svg>
