<?xml version="1.0" encoding="UTF-8" standalone="no"?>
<!DOCTYPE svg PUBLIC "-//W3C//DTD SVG 1.1//EN"
 "http://www.w3.org/Graphics/SVG/1.1/DTD/svg11.dtd">
<!-- Generated by graphviz version 2.38.0 (20140413.2041)
 -->
<!-- Title: TypeCase.h Pages: 1 -->
<svg width="616pt" height="140pt"
 viewBox="0.00 0.00 615.50 140.00" xmlns="http://www.w3.org/2000/svg" xmlns:xlink="http://www.w3.org/1999/xlink">
<g id="graph0" class="graph" transform="scale(1 1) rotate(0) translate(4 136)">
<title>TypeCase.h</title>
<!-- Node1 -->
<g id="node1" class="node"><title>Node1</title>
<polygon fill="#bfbfbf" stroke="black" points="225,-112.5 225,-131.5 296,-131.5 296,-112.5 225,-112.5"/>
<text text-anchor="middle" x="260.5" y="-119.5" font-family="FreeSans" font-size="10.00">TypeCase.h</text>
</g>
<!-- Node2 -->
<g id="node2" class="node"><title>Node2</title>
<g id="a_node2"><a xlink:href="_test_lab_scene_8cpp.html" target="_top" xlink:title="TestLabScene.cpp">
<polygon fill="none" stroke="black" points="0,-56.5 0,-75.5 103,-75.5 103,-56.5 0,-56.5"/>
<text text-anchor="middle" x="51.5" y="-63.5" font-family="FreeSans" font-size="10.00">TestLabScene.cpp</text>
</a>
</g>
</g>
<!-- Node1&#45;&gt;Node2 -->
<g id="edge1" class="edge"><title>Node1&#45;&gt;Node2</title>
<path fill="none" stroke="midnightblue" d="M217.516,-109.894C178.048,-99.6966 120.4,-84.802 84.4617,-75.5164"/>
<polygon fill="midnightblue" stroke="midnightblue" points="216.826,-113.331 227.383,-112.444 218.577,-106.553 216.826,-113.331"/>
</g>
<!-- Node3 -->
<g id="node3" class="node"><title>Node3</title>
<g id="a_node3"><a xlink:href="_display_8cpp.html" target="_top" xlink:title="Display.cpp">
<polygon fill="none" stroke="black" points="121.5,-56.5 121.5,-75.5 191.5,-75.5 191.5,-56.5 121.5,-56.5"/>
<text text-anchor="middle" x="156.5" y="-63.5" font-family="FreeSans" font-size="10.00">Display.cpp</text>
</a>
</g>
</g>
<!-- Node1&#45;&gt;Node3 -->
<g id="edge2" class="edge"><title>Node1&#45;&gt;Node3</title>
<path fill="none" stroke="midnightblue" d="M234.672,-107.59C215.443,-97.6052 189.755,-84.2672 173.168,-75.6545"/>
<polygon fill="midnightblue" stroke="midnightblue" points="233.303,-110.822 243.791,-112.324 236.529,-104.61 233.303,-110.822"/>
</g>
<!-- Node4 -->
<g id="node4" class="node"><title>Node4</title>
<g id="a_node4"><a xlink:href="_sdl_active_text_view_8cpp.html" target="_top" xlink:title="SdlActiveTextView.cpp">
<polygon fill="none" stroke="black" points="159,-0.5 159,-19.5 280,-19.5 280,-0.5 159,-0.5"/>
<text text-anchor="middle" x="219.5" y="-7.5" font-family="FreeSans" font-size="10.00">SdlActiveTextView.cpp</text>
</a>
</g>
</g>
<!-- Node1&#45;&gt;Node4 -->
<g id="edge3" class="edge"><title>Node1&#45;&gt;Node4</title>
<path fill="none" stroke="midnightblue" d="M250.98,-103.302C246.814,-95.1355 242.073,-85.2241 238.5,-76 230.856,-56.2662 224.568,-32.148 221.508,-19.5671"/>
<polygon fill="midnightblue" stroke="midnightblue" points="247.919,-105.001 255.659,-112.235 254.12,-101.753 247.919,-105.001"/>
</g>
<!-- Node5 -->
<g id="node5" class="node"><title>Node5</title>
<g id="a_node5"><a xlink:href="_sdl_active_text_view_8h.html" target="_top" xlink:title="SdlActiveTextView.h">
<polygon fill="none" stroke="black" points="247.5,-56.5 247.5,-75.5 357.5,-75.5 357.5,-56.5 247.5,-56.5"/>
<text text-anchor="middle" x="302.5" y="-63.5" font-family="FreeSans" font-size="10.00">SdlActiveTextView.h</text>
</a>
</g>
</g>
<!-- Node1&#45;&gt;Node5 -->
<g id="edge4" class="edge"><title>Node1&#45;&gt;Node5</title>
<path fill="none" stroke="midnightblue" d="M273.61,-104.144C280.928,-94.7357 289.741,-83.4046 295.694,-75.7511"/>
<polygon fill="midnightblue" stroke="midnightblue" points="270.812,-102.041 267.435,-112.083 276.338,-106.338 270.812,-102.041"/>
</g>
<!-- Node7 -->
<g id="node7" class="node"><title>Node7</title>
<g id="a_node7"><a xlink:href="_sdl_type_case_8h.html" target="_top" xlink:title="SdlTypeCase.h">
<polygon fill="none" stroke="black" points="375.5,-56.5 375.5,-75.5 461.5,-75.5 461.5,-56.5 375.5,-56.5"/>
<text text-anchor="middle" x="418.5" y="-63.5" font-family="FreeSans" font-size="10.00">SdlTypeCase.h</text>
</a>
</g>
</g>
<!-- Node1&#45;&gt;Node7 -->
<g id="edge7" class="edge"><title>Node1&#45;&gt;Node7</title>
<path fill="none" stroke="midnightblue" d="M295.108,-109.172C324.859,-99.0039 367.047,-84.5852 393.582,-75.5164"/>
<polygon fill="midnightblue" stroke="midnightblue" points="293.866,-105.898 285.536,-112.444 296.13,-112.521 293.866,-105.898"/>
</g>
<!-- Node9 -->
<g id="node9" class="node"><title>Node9</title>
<g id="a_node9"><a xlink:href="_sdl_symbol_icon_view_8cpp.html" target="_top" xlink:title="SdlSymbolIconView.cpp">
<polygon fill="none" stroke="black" points="479.5,-56.5 479.5,-75.5 607.5,-75.5 607.5,-56.5 479.5,-56.5"/>
<text text-anchor="middle" x="543.5" y="-63.5" font-family="FreeSans" font-size="10.00">SdlSymbolIconView.cpp</text>
</a>
</g>
</g>
<!-- Node1&#45;&gt;Node9 -->
<g id="edge10" class="edge"><title>Node1&#45;&gt;Node9</title>
<path fill="none" stroke="midnightblue" d="M306.177,-112.284C359.137,-102.179 445.876,-85.6279 498.532,-75.5805"/>
<polygon fill="midnightblue" stroke="midnightblue" points="305.222,-108.903 296.056,-114.216 306.534,-115.779 305.222,-108.903"/>
</g>
<!-- Node5&#45;&gt;Node4 -->
<g id="edge5" class="edge"><title>Node5&#45;&gt;Node4</title>
<path fill="none" stroke="midnightblue" d="M280.401,-50.6221C265.238,-40.7574 245.617,-27.9919 232.802,-19.6545"/>
<polygon fill="midnightblue" stroke="midnightblue" points="278.874,-53.8042 289.165,-56.324 282.691,-47.9367 278.874,-53.8042"/>
</g>
<!-- Node6 -->
<g id="node6" class="node"><title>Node6</title>
<g id="a_node6"><a xlink:href="_sdl_display_8cpp.html" target="_top" xlink:title="SdlDisplay.cpp">
<polygon fill="none" stroke="black" points="298,-0.5 298,-19.5 383,-19.5 383,-0.5 298,-0.5"/>
<text text-anchor="middle" x="340.5" y="-7.5" font-family="FreeSans" font-size="10.00">SdlDisplay.cpp</text>
</a>
</g>
</g>
<!-- Node5&#45;&gt;Node6 -->
<g id="edge6" class="edge"><title>Node5&#45;&gt;Node6</title>
<path fill="none" stroke="midnightblue" d="M314.565,-47.8554C321.145,-38.5048 329.011,-27.3265 334.342,-19.7511"/>
<polygon fill="midnightblue" stroke="midnightblue" points="311.668,-45.8907 308.775,-56.083 317.392,-49.9192 311.668,-45.8907"/>
</g>
<!-- Node7&#45;&gt;Node6 -->
<g id="edge8" class="edge"><title>Node7&#45;&gt;Node6</title>
<path fill="none" stroke="midnightblue" d="M397.732,-50.6221C383.483,-40.7574 365.044,-27.9919 353.001,-19.6545"/>
<polygon fill="midnightblue" stroke="midnightblue" points="395.754,-53.5095 405.968,-56.324 399.738,-47.7541 395.754,-53.5095"/>
</g>
<!-- Node8 -->
<g id="node8" class="node"><title>Node8</title>
<g id="a_node8"><a xlink:href="_sdl_type_case_8cpp.html" target="_top" xlink:title="SdlTypeCase.cpp">
<polygon fill="none" stroke="black" points="401,-0.5 401,-19.5 498,-19.5 498,-0.5 401,-0.5"/>
<text text-anchor="middle" x="449.5" y="-7.5" font-family="FreeSans" font-size="10.00">SdlTypeCase.cpp</text>
</a>
</g>
</g>
<!-- Node7&#45;&gt;Node8 -->
<g id="edge9" class="edge"><title>Node7&#45;&gt;Node8</title>
<path fill="none" stroke="midnightblue" d="M428.676,-47.2747C433.974,-38.0454 440.217,-27.1703 444.476,-19.7511"/>
<polygon fill="midnightblue" stroke="midnightblue" points="425.562,-45.6679 423.619,-56.083 431.633,-49.153 425.562,-45.6679"/>
</g>
</g>
</svg>
