<?xml version="1.0" encoding="UTF-8" standalone="no"?>
<!DOCTYPE svg PUBLIC "-//W3C//DTD SVG 1.1//EN"
 "http://www.w3.org/Graphics/SVG/1.1/DTD/svg11.dtd">
<!-- Generated by graphviz version 2.26.3 (20100126.1600)
 -->
<!-- Title: UiScene.h Pages: 1 -->
<svg width="1537pt" height="262pt"
 viewBox="0.00 0.00 1537.00 262.00" xmlns="http://www.w3.org/2000/svg" xmlns:xlink="http://www.w3.org/1999/xlink">
<g id="graph1" class="graph" transform="scale(1 1) rotate(0) translate(4 258)">
<title>UiScene.h</title>
<!-- Node1 -->
<g id="node1" class="node"><title>Node1</title>
<polygon fill="#bfbfbf" stroke="black" points="1316,-233 1316,-253 1378,-253 1378,-233 1316,-233"/>
<text text-anchor="middle" x="1347" y="-240" font-family="FreeSans" font-size="10.00">UiScene.h</text>
</g>
<!-- Node2 -->
<g id="node3" class="node"><title>Node2</title>
<a xlink:href="_form_scene_8h.html" target="_top" xlink:title="FormScene.h">
<polygon fill="none" stroke="black" points="906,-175 906,-195 980,-195 980,-175 906,-175"/>
<text text-anchor="middle" x="943" y="-182" font-family="FreeSans" font-size="10.00">FormScene.h</text>
</a>
</g>
<!-- Node1&#45;&gt;Node2 -->
<g id="edge2" class="edge"><title>Node1&#45;&gt;Node2</title>
<path fill="none" stroke="midnightblue" d="M1305.93,-237.104C1227.13,-225.792 1055.84,-201.2 980.192,-190.34"/>
<polygon fill="midnightblue" stroke="midnightblue" points="1305.57,-240.588 1315.97,-238.545 1306.57,-233.66 1305.57,-240.588"/>
</g>
<!-- Node27 -->
<g id="node62" class="node"><title>Node27</title>
<a xlink:href="_console_scene_8h.html" target="_top" xlink:title="ConsoleScene.h">
<polygon fill="none" stroke="black" points="1252.5,-175 1252.5,-195 1339.5,-195 1339.5,-175 1252.5,-175"/>
<text text-anchor="middle" x="1296" y="-182" font-family="FreeSans" font-size="10.00">ConsoleScene.h</text>
</a>
</g>
<!-- Node1&#45;&gt;Node27 -->
<g id="edge70" class="edge"><title>Node1&#45;&gt;Node27</title>
<path fill="none" stroke="midnightblue" d="M1331.41,-225.275C1322.81,-215.488 1312.42,-203.672 1305.13,-195.378"/>
<polygon fill="midnightblue" stroke="midnightblue" points="1328.88,-227.699 1338.12,-232.897 1334.14,-223.076 1328.88,-227.699"/>
</g>
<!-- Node29 -->
<g id="node67" class="node"><title>Node29</title>
<a xlink:href="_palette_scene_8h.html" target="_top" xlink:title="PaletteScene.h">
<polygon fill="none" stroke="black" points="1356.5,-175 1356.5,-195 1439.5,-195 1439.5,-175 1356.5,-175"/>
<text text-anchor="middle" x="1398" y="-182" font-family="FreeSans" font-size="10.00">PaletteScene.h</text>
</a>
</g>
<!-- Node1&#45;&gt;Node29 -->
<g id="edge76" class="edge"><title>Node1&#45;&gt;Node29</title>
<path fill="none" stroke="midnightblue" d="M1362.59,-225.275C1371.19,-215.488 1381.58,-203.672 1388.87,-195.378"/>
<polygon fill="midnightblue" stroke="midnightblue" points="1359.86,-223.076 1355.88,-232.897 1365.12,-227.699 1359.86,-223.076"/>
</g>
<!-- Node31 -->
<g id="node72" class="node"><title>Node31</title>
<a xlink:href="_ui_scene_8cpp.html" target="_top" xlink:title="UiScene.cpp">
<polygon fill="none" stroke="black" points="1457,-175 1457,-195 1529,-195 1529,-175 1457,-175"/>
<text text-anchor="middle" x="1493" y="-182" font-family="FreeSans" font-size="10.00">UiScene.cpp</text>
</a>
</g>
<!-- Node1&#45;&gt;Node31 -->
<g id="edge82" class="edge"><title>Node1&#45;&gt;Node31</title>
<path fill="none" stroke="midnightblue" d="M1382.02,-229.09C1408.3,-218.649 1443.69,-204.59 1467.37,-195.182"/>
<polygon fill="midnightblue" stroke="midnightblue" points="1380.43,-225.952 1372.43,-232.897 1383.02,-232.458 1380.43,-225.952"/>
</g>
<!-- Node3 -->
<g id="node5" class="node"><title>Node3</title>
<a xlink:href="_dialog_scene_8h.html" target="_top" xlink:title="DialogScene.h">
<polygon fill="none" stroke="black" points="433.5,-117 433.5,-137 512.5,-137 512.5,-117 433.5,-117"/>
<text text-anchor="middle" x="473" y="-124" font-family="FreeSans" font-size="10.00">DialogScene.h</text>
</a>
</g>
<!-- Node2&#45;&gt;Node3 -->
<g id="edge4" class="edge"><title>Node2&#45;&gt;Node3</title>
<path fill="none" stroke="midnightblue" d="M895.783,-179.173C803.07,-167.732 598.769,-142.52 512.586,-131.885"/>
<polygon fill="midnightblue" stroke="midnightblue" points="895.374,-182.649 905.727,-180.4 896.231,-175.702 895.374,-182.649"/>
</g>
<!-- Node16 -->
<g id="node35" class="node"><title>Node16</title>
<a xlink:href="_main_menu_scene_8h.html" target="_top" xlink:title="MainMenuScene.h">
<polygon fill="none" stroke="black" points="776.5,-117 776.5,-137 873.5,-137 873.5,-117 776.5,-117"/>
<text text-anchor="middle" x="825" y="-124" font-family="FreeSans" font-size="10.00">MainMenuScene.h</text>
</a>
</g>
<!-- Node2&#45;&gt;Node16 -->
<g id="edge38" class="edge"><title>Node2&#45;&gt;Node16</title>
<path fill="none" stroke="midnightblue" d="M913.286,-170.395C892.202,-160.031 864.433,-146.383 845.714,-137.182"/>
<polygon fill="midnightblue" stroke="midnightblue" points="911.928,-173.627 922.446,-174.897 915.015,-167.345 911.928,-173.627"/>
</g>
<!-- Node18 -->
<g id="node40" class="node"><title>Node18</title>
<a xlink:href="_message_scene_8h.html" target="_top" xlink:title="MessageScene.h">
<polygon fill="none" stroke="black" points="1018,-117 1018,-137 1110,-137 1110,-117 1018,-117"/>
<text text-anchor="middle" x="1064" y="-124" font-family="FreeSans" font-size="10.00">MessageScene.h</text>
</a>
</g>
<!-- Node2&#45;&gt;Node18 -->
<g id="edge44" class="edge"><title>Node2&#45;&gt;Node18</title>
<path fill="none" stroke="midnightblue" d="M973.178,-170.535C994.833,-160.155 1023.48,-146.424 1042.76,-137.182"/>
<polygon fill="midnightblue" stroke="midnightblue" points="971.581,-167.419 964.077,-174.897 974.607,-173.731 971.581,-167.419"/>
</g>
<!-- Node22 -->
<g id="node49" class="node"><title>Node22</title>
<a xlink:href="_test_lab_scene_8h.html" target="_top" xlink:title="TestLabScene.h">
<polygon fill="none" stroke="black" points="1166,-117 1166,-137 1254,-137 1254,-117 1166,-117"/>
<text text-anchor="middle" x="1210" y="-124" font-family="FreeSans" font-size="10.00">TestLabScene.h</text>
</a>
</g>
<!-- Node2&#45;&gt;Node22 -->
<g id="edge54" class="edge"><title>Node2&#45;&gt;Node22</title>
<path fill="none" stroke="midnightblue" d="M989.953,-174.8C1039.52,-164.032 1117.07,-147.187 1165.64,-136.637"/>
<polygon fill="midnightblue" stroke="midnightblue" points="989.154,-171.392 980.125,-176.935 990.64,-178.233 989.154,-171.392"/>
</g>
<!-- Node24 -->
<g id="node55" class="node"><title>Node24</title>
<a xlink:href="_form_scene_8cpp.html" target="_top" xlink:title="FormScene.cpp">
<polygon fill="none" stroke="black" points="331.5,-117 331.5,-137 416.5,-137 416.5,-117 331.5,-117"/>
<text text-anchor="middle" x="374" y="-124" font-family="FreeSans" font-size="10.00">FormScene.cpp</text>
</a>
</g>
<!-- Node2&#45;&gt;Node24 -->
<g id="edge62" class="edge"><title>Node2&#45;&gt;Node24</title>
<path fill="none" stroke="midnightblue" d="M895.713,-182.644C804.342,-177.664 597.337,-164.303 425,-138 422.224,-137.576 419.373,-137.094 416.505,-136.573"/>
<polygon fill="midnightblue" stroke="midnightblue" points="895.58,-186.142 905.754,-183.182 895.955,-179.152 895.58,-186.142"/>
</g>
<!-- Node25 -->
<g id="node57" class="node"><title>Node25</title>
<a xlink:href="_pause_menu_scene_8h.html" target="_top" xlink:title="PauseMenuScene.h">
<polygon fill="none" stroke="black" points="891,-117 891,-137 995,-137 995,-117 891,-117"/>
<text text-anchor="middle" x="943" y="-124" font-family="FreeSans" font-size="10.00">PauseMenuScene.h</text>
</a>
</g>
<!-- Node2&#45;&gt;Node25 -->
<g id="edge64" class="edge"><title>Node2&#45;&gt;Node25</title>
<path fill="none" stroke="midnightblue" d="M943,-164.89C943,-155.62 943,-145.008 943,-137.378"/>
<polygon fill="midnightblue" stroke="midnightblue" points="939.5,-164.897 943,-174.897 946.5,-164.897 939.5,-164.897"/>
</g>
<!-- Node4 -->
<g id="node7" class="node"><title>Node4</title>
<a xlink:href="_audio_settings_scene_8h.html" target="_top" xlink:title="AudioSettingsScene.h">
<polygon fill="none" stroke="black" points="649.5,-59 649.5,-79 762.5,-79 762.5,-59 649.5,-59"/>
<text text-anchor="middle" x="706" y="-66" font-family="FreeSans" font-size="10.00">AudioSettingsScene.h</text>
</a>
</g>
<!-- Node3&#45;&gt;Node4 -->
<g id="edge6" class="edge"><title>Node3&#45;&gt;Node4</title>
<path fill="none" stroke="midnightblue" d="M522.398,-114.704C564.985,-104.102 625.725,-88.9827 665.498,-79.0821"/>
<polygon fill="midnightblue" stroke="midnightblue" points="521.384,-111.349 512.525,-117.161 523.075,-118.142 521.384,-111.349"/>
</g>
<!-- Node7 -->
<g id="node13" class="node"><title>Node7</title>
<a xlink:href="_dialog_scene_8cpp.html" target="_top" xlink:title="DialogScene.cpp">
<polygon fill="none" stroke="black" points="-0.5,-59 -0.5,-79 88.5,-79 88.5,-59 -0.5,-59"/>
<text text-anchor="middle" x="44" y="-66" font-family="FreeSans" font-size="10.00">DialogScene.cpp</text>
</a>
</g>
<!-- Node3&#45;&gt;Node7 -->
<g id="edge12" class="edge"><title>Node3&#45;&gt;Node7</title>
<path fill="none" stroke="midnightblue" d="M423.129,-115.827C278.609,-92.072 238.596,-102.412 97,-80 94.3082,-79.5739 91.5462,-79.1033 88.7644,-78.6035"/>
<polygon fill="midnightblue" stroke="midnightblue" points="422.818,-119.323 433.259,-117.519 423.972,-112.419 422.818,-119.323"/>
</g>
<!-- Node8 -->
<g id="node15" class="node"><title>Node8</title>
<a xlink:href="_track_select_scene_8h.html" target="_top" xlink:title="TrackSelectScene.h">
<polygon fill="none" stroke="black" points="106,-59 106,-79 210,-79 210,-59 106,-59"/>
<text text-anchor="middle" x="158" y="-66" font-family="FreeSans" font-size="10.00">TrackSelectScene.h</text>
</a>
</g>
<!-- Node3&#45;&gt;Node8 -->
<g id="edge14" class="edge"><title>Node3&#45;&gt;Node8</title>
<path fill="none" stroke="midnightblue" d="M423.532,-115.769C332.216,-97.5023 307.384,-95.6918 219,-80 216.139,-79.4921 213.203,-78.969 210.24,-78.4395"/>
<polygon fill="midnightblue" stroke="midnightblue" points="422.989,-119.23 433.483,-117.772 424.37,-112.368 422.989,-119.23"/>
</g>
<!-- Node11 -->
<g id="node21" class="node"><title>Node11</title>
<a xlink:href="_game_select_scene_8h.html" target="_top" xlink:title="GameSelectScene.h">
<polygon fill="none" stroke="black" points="228,-59 228,-79 334,-79 334,-59 228,-59"/>
<text text-anchor="middle" x="281" y="-66" font-family="FreeSans" font-size="10.00">GameSelectScene.h</text>
</a>
</g>
<!-- Node3&#45;&gt;Node11 -->
<g id="edge20" class="edge"><title>Node3&#45;&gt;Node11</title>
<path fill="none" stroke="midnightblue" d="M429.636,-113.9C394.713,-103.351 346.337,-88.7374 314.382,-79.0842"/>
<polygon fill="midnightblue" stroke="midnightblue" points="428.971,-117.356 439.556,-116.897 430.996,-110.655 428.971,-117.356"/>
</g>
<!-- Node13 -->
<g id="node26" class="node"><title>Node13</title>
<a xlink:href="_practice_setup_scene_8h.html" target="_top" xlink:title="PracticeSetupScene.h">
<polygon fill="none" stroke="black" points="351.5,-59 351.5,-79 464.5,-79 464.5,-59 351.5,-59"/>
<text text-anchor="middle" x="408" y="-66" font-family="FreeSans" font-size="10.00">PracticeSetupScene.h</text>
</a>
</g>
<!-- Node3&#45;&gt;Node13 -->
<g id="edge26" class="edge"><title>Node3&#45;&gt;Node13</title>
<path fill="none" stroke="midnightblue" d="M454.117,-110.15C442.966,-100.2 429.204,-87.9207 419.63,-79.3776"/>
<polygon fill="midnightblue" stroke="midnightblue" points="451.886,-112.851 461.678,-116.897 456.547,-107.628 451.886,-112.851"/>
</g>
<!-- Node15 -->
<g id="node31" class="node"><title>Node15</title>
<a xlink:href="_settings_menu_scene_8h.html" target="_top" xlink:title="SettingsMenuScene.h">
<polygon fill="none" stroke="black" points="482,-59 482,-79 594,-79 594,-59 482,-59"/>
<text text-anchor="middle" x="538" y="-66" font-family="FreeSans" font-size="10.00">SettingsMenuScene.h</text>
</a>
</g>
<!-- Node3&#45;&gt;Node15 -->
<g id="edge32" class="edge"><title>Node3&#45;&gt;Node15</title>
<path fill="none" stroke="midnightblue" d="M491.883,-110.15C503.034,-100.2 516.796,-87.9207 526.37,-79.3776"/>
<polygon fill="midnightblue" stroke="midnightblue" points="489.453,-107.628 484.322,-116.897 494.114,-112.851 489.453,-107.628"/>
</g>
<!-- Node5 -->
<g id="node9" class="node"><title>Node5</title>
<a xlink:href="_audio_settings_scene_8cpp.html" target="_top" xlink:title="AudioSettingsScene.cpp">
<polygon fill="none" stroke="black" points="748.5,-1 748.5,-21 871.5,-21 871.5,-1 748.5,-1"/>
<text text-anchor="middle" x="810" y="-8" font-family="FreeSans" font-size="10.00">AudioSettingsScene.cpp</text>
</a>
</g>
<!-- Node4&#45;&gt;Node5 -->
<g id="edge8" class="edge"><title>Node4&#45;&gt;Node5</title>
<path fill="none" stroke="midnightblue" d="M732.945,-53.9728C751.431,-43.6634 775.468,-30.2582 791.743,-21.1817"/>
<polygon fill="midnightblue" stroke="midnightblue" points="731.144,-50.9697 724.115,-58.8972 734.554,-57.0832 731.144,-50.9697"/>
</g>
<!-- Node6 -->
<g id="node11" class="node"><title>Node6</title>
<a xlink:href="_settings_menu_scene_8cpp.html" target="_top" xlink:title="SettingsMenuScene.cpp">
<polygon fill="none" stroke="black" points="609,-1 609,-21 731,-21 731,-1 609,-1"/>
<text text-anchor="middle" x="670" y="-8" font-family="FreeSans" font-size="10.00">SettingsMenuScene.cpp</text>
</a>
</g>
<!-- Node4&#45;&gt;Node6 -->
<g id="edge10" class="edge"><title>Node4&#45;&gt;Node6</title>
<path fill="none" stroke="midnightblue" d="M694.448,-50.3891C688.486,-40.7824 681.435,-29.423 676.441,-21.3776"/>
<polygon fill="midnightblue" stroke="midnightblue" points="691.482,-52.2465 699.729,-58.8972 697.429,-48.555 691.482,-52.2465"/>
</g>
<!-- Node9 -->
<g id="node17" class="node"><title>Node9</title>
<a xlink:href="_game_select_scene_8cpp.html" target="_top" xlink:title="GameSelectScene.cpp">
<polygon fill="none" stroke="black" points="209,-1 209,-21 325,-21 325,-1 209,-1"/>
<text text-anchor="middle" x="267" y="-8" font-family="FreeSans" font-size="10.00">GameSelectScene.cpp</text>
</a>
</g>
<!-- Node8&#45;&gt;Node9 -->
<g id="edge16" class="edge"><title>Node8&#45;&gt;Node9</title>
<path fill="none" stroke="midnightblue" d="M185.976,-54.1138C205.385,-43.7859 230.73,-30.2996 247.865,-21.1817"/>
<polygon fill="midnightblue" stroke="midnightblue" points="184.17,-51.1098 176.986,-58.8972 187.459,-57.2895 184.17,-51.1098"/>
</g>
<!-- Node10 -->
<g id="node19" class="node"><title>Node10</title>
<a xlink:href="_track_select_scene_8cpp.html" target="_top" xlink:title="TrackSelectScene.cpp">
<polygon fill="none" stroke="black" points="76.5,-1 76.5,-21 191.5,-21 191.5,-1 76.5,-1"/>
<text text-anchor="middle" x="134" y="-8" font-family="FreeSans" font-size="10.00">TrackSelectScene.cpp</text>
</a>
</g>
<!-- Node8&#45;&gt;Node10 -->
<g id="edge18" class="edge"><title>Node8&#45;&gt;Node10</title>
<path fill="none" stroke="midnightblue" d="M149.928,-49.4928C146.034,-40.0829 141.52,-29.1742 138.294,-21.3776"/>
<polygon fill="midnightblue" stroke="midnightblue" points="146.762,-50.9952 153.82,-58.8972 153.23,-48.3187 146.762,-50.9952"/>
</g>
<!-- Node11&#45;&gt;Node9 -->
<g id="edge22" class="edge"><title>Node11&#45;&gt;Node9</title>
<path fill="none" stroke="midnightblue" d="M276.146,-48.8902C273.908,-39.6201 271.347,-29.0083 269.505,-21.3776"/>
<polygon fill="midnightblue" stroke="midnightblue" points="272.813,-49.9976 278.561,-58.8972 279.617,-48.3551 272.813,-49.9976"/>
</g>
<!-- Node12 -->
<g id="node24" class="node"><title>Node12</title>
<a xlink:href="_practice_setup_scene_8cpp.html" target="_top" xlink:title="PracticeSetupScene.cpp">
<polygon fill="none" stroke="black" points="343,-1 343,-21 467,-21 467,-1 343,-1"/>
<text text-anchor="middle" x="405" y="-8" font-family="FreeSans" font-size="10.00">PracticeSetupScene.cpp</text>
</a>
</g>
<!-- Node11&#45;&gt;Node12 -->
<g id="edge24" class="edge"><title>Node11&#45;&gt;Node12</title>
<path fill="none" stroke="midnightblue" d="M311.926,-54.5345C334.118,-44.1545 363.473,-30.424 383.232,-21.1817"/>
<polygon fill="midnightblue" stroke="midnightblue" points="310.174,-51.4899 302.599,-58.8972 313.14,-57.8306 310.174,-51.4899"/>
</g>
<!-- Node13&#45;&gt;Node12 -->
<g id="edge30" class="edge"><title>Node13&#45;&gt;Node12</title>
<path fill="none" stroke="midnightblue" d="M406.96,-48.8902C406.48,-39.6201 405.931,-29.0083 405.537,-21.3776"/>
<polygon fill="midnightblue" stroke="midnightblue" points="403.465,-49.0913 407.477,-58.8972 410.456,-48.7297 403.465,-49.0913"/>
</g>
<!-- Node14 -->
<g id="node28" class="node"><title>Node14</title>
<a xlink:href="_main_menu_scene_8cpp.html" target="_top" xlink:title="MainMenuScene.cpp">
<polygon fill="none" stroke="black" points="484.5,-1 484.5,-21 591.5,-21 591.5,-1 484.5,-1"/>
<text text-anchor="middle" x="538" y="-8" font-family="FreeSans" font-size="10.00">MainMenuScene.cpp</text>
</a>
</g>
<!-- Node13&#45;&gt;Node14 -->
<g id="edge28" class="edge"><title>Node13&#45;&gt;Node14</title>
<path fill="none" stroke="midnightblue" d="M439.798,-54.813C463.135,-44.4012 494.278,-30.5069 515.179,-21.1817"/>
<polygon fill="midnightblue" stroke="midnightblue" points="438.351,-51.6264 430.644,-58.8972 441.203,-58.019 438.351,-51.6264"/>
</g>
<!-- Node15&#45;&gt;Node6 -->
<g id="edge36" class="edge"><title>Node15&#45;&gt;Node6</title>
<path fill="none" stroke="midnightblue" d="M570.288,-54.813C593.984,-44.4012 625.605,-30.5069 646.828,-21.1817"/>
<polygon fill="midnightblue" stroke="midnightblue" points="568.74,-51.6701 560.993,-58.8972 571.556,-58.0787 568.74,-51.6701"/>
</g>
<!-- Node15&#45;&gt;Node14 -->
<g id="edge34" class="edge"><title>Node15&#45;&gt;Node14</title>
<path fill="none" stroke="midnightblue" d="M538,-48.8902C538,-39.6201 538,-29.0083 538,-21.3776"/>
<polygon fill="midnightblue" stroke="midnightblue" points="534.5,-48.8971 538,-58.8972 541.5,-48.8972 534.5,-48.8971"/>
</g>
<!-- Node16&#45;&gt;Node14 -->
<g id="edge42" class="edge"><title>Node16&#45;&gt;Node14</title>
<path fill="none" stroke="midnightblue" d="M766.112,-117.263C729.133,-109.873 681.035,-97.8864 641,-80 622.429,-71.7032 575.138,-38.0481 551.656,-21"/>
<polygon fill="midnightblue" stroke="midnightblue" points="765.747,-120.758 776.231,-119.227 767.081,-113.886 765.747,-120.758"/>
</g>
<!-- Node17 -->
<g id="node37" class="node"><title>Node17</title>
<a xlink:href="_client_app_8cpp.html" target="_top" xlink:title="ClientApp.cpp">
<polygon fill="none" stroke="black" points="1137.5,-59 1137.5,-79 1214.5,-79 1214.5,-59 1137.5,-59"/>
<text text-anchor="middle" x="1176" y="-66" font-family="FreeSans" font-size="10.00">ClientApp.cpp</text>
</a>
</g>
<!-- Node16&#45;&gt;Node17 -->
<g id="edge40" class="edge"><title>Node16&#45;&gt;Node17</title>
<path fill="none" stroke="midnightblue" d="M883.901,-115.737C993.128,-97.6501 1023.2,-100.054 1129,-80 1131.72,-79.485 1134.51,-78.92 1137.33,-78.3264"/>
<polygon fill="midnightblue" stroke="midnightblue" points="883.075,-112.326 873.791,-117.432 884.232,-119.23 883.075,-112.326"/>
</g>
<!-- Node18&#45;&gt;Node17 -->
<g id="edge46" class="edge"><title>Node18&#45;&gt;Node17</title>
<path fill="none" stroke="midnightblue" d="M1092.47,-112.254C1112.45,-101.909 1138.65,-88.3411 1156.34,-79.1817"/>
<polygon fill="midnightblue" stroke="midnightblue" points="1090.78,-109.191 1083.51,-116.897 1094,-115.407 1090.78,-109.191"/>
</g>
<!-- Node19 -->
<g id="node43" class="node"><title>Node19</title>
<a xlink:href="_message_scene_8cpp.html" target="_top" xlink:title="MessageScene.cpp">
<polygon fill="none" stroke="black" points="1018,-59 1018,-79 1120,-79 1120,-59 1018,-59"/>
<text text-anchor="middle" x="1069" y="-66" font-family="FreeSans" font-size="10.00">MessageScene.cpp</text>
</a>
</g>
<!-- Node18&#45;&gt;Node19 -->
<g id="edge48" class="edge"><title>Node18&#45;&gt;Node19</title>
<path fill="none" stroke="midnightblue" d="M1065.73,-106.89C1066.53,-97.6201 1067.45,-87.0083 1068.11,-79.3776"/>
<polygon fill="midnightblue" stroke="midnightblue" points="1062.24,-106.633 1064.87,-116.897 1069.22,-107.235 1062.24,-106.633"/>
</g>
<!-- Node20 -->
<g id="node45" class="node"><title>Node20</title>
<a xlink:href="_pause_menu_scene_8cpp.html" target="_top" xlink:title="PauseMenuScene.cpp">
<polygon fill="none" stroke="black" points="886,-59 886,-79 1000,-79 1000,-59 886,-59"/>
<text text-anchor="middle" x="943" y="-66" font-family="FreeSans" font-size="10.00">PauseMenuScene.cpp</text>
</a>
</g>
<!-- Node18&#45;&gt;Node20 -->
<g id="edge50" class="edge"><title>Node18&#45;&gt;Node20</title>
<path fill="none" stroke="midnightblue" d="M1033.82,-112.535C1012.17,-102.155 983.522,-88.424 964.241,-79.1817"/>
<polygon fill="midnightblue" stroke="midnightblue" points="1032.39,-115.731 1042.92,-116.897 1035.42,-109.419 1032.39,-115.731"/>
</g>
<!-- Node21 -->
<g id="node47" class="node"><title>Node21</title>
<a xlink:href="_test_lab_scene_8cpp.html" target="_top" xlink:title="TestLabScene.cpp">
<polygon fill="none" stroke="black" points="1232,-59 1232,-79 1330,-79 1330,-59 1232,-59"/>
<text text-anchor="middle" x="1281" y="-66" font-family="FreeSans" font-size="10.00">TestLabScene.cpp</text>
</a>
</g>
<!-- Node18&#45;&gt;Node21 -->
<g id="edge52" class="edge"><title>Node18&#45;&gt;Node21</title>
<path fill="none" stroke="midnightblue" d="M1111.49,-114.306C1151.07,-103.728 1206.69,-88.8616 1243.27,-79.0842"/>
<polygon fill="midnightblue" stroke="midnightblue" points="1110.56,-110.934 1101.8,-116.897 1112.36,-117.696 1110.56,-110.934"/>
</g>
<!-- Node22&#45;&gt;Node17 -->
<g id="edge56" class="edge"><title>Node22&#45;&gt;Node17</title>
<path fill="none" stroke="midnightblue" d="M1198.92,-108.091C1193.32,-98.5485 1186.75,-87.3401 1182.08,-79.3776"/>
<polygon fill="midnightblue" stroke="midnightblue" points="1196,-110.04 1204.08,-116.897 1202.04,-106.5 1196,-110.04"/>
</g>
<!-- Node22&#45;&gt;Node21 -->
<g id="edge58" class="edge"><title>Node22&#45;&gt;Node21</title>
<path fill="none" stroke="midnightblue" d="M1230.27,-110.44C1242.51,-100.439 1257.74,-88.0036 1268.3,-79.3776"/>
<polygon fill="midnightblue" stroke="midnightblue" points="1227.9,-107.86 1222.37,-116.897 1232.33,-113.281 1227.9,-107.86"/>
</g>
<!-- Node23 -->
<g id="node53" class="node"><title>Node23</title>
<a xlink:href="_debug_peer_8cpp.html" target="_top" xlink:title="DebugPeer.cpp">
<polygon fill="none" stroke="black" points="1351.5,-59 1351.5,-79 1434.5,-79 1434.5,-59 1351.5,-59"/>
<text text-anchor="middle" x="1393" y="-66" font-family="FreeSans" font-size="10.00">DebugPeer.cpp</text>
</a>
</g>
<!-- Node22&#45;&gt;Node23 -->
<g id="edge60" class="edge"><title>Node22&#45;&gt;Node23</title>
<path fill="none" stroke="midnightblue" d="M1251.76,-113.764C1285.01,-103.225 1330.86,-88.6959 1361.18,-79.0842"/>
<polygon fill="midnightblue" stroke="midnightblue" points="1250.35,-110.539 1241.88,-116.897 1252.47,-117.212 1250.35,-110.539"/>
</g>
<!-- Node25&#45;&gt;Node20 -->
<g id="edge68" class="edge"><title>Node25&#45;&gt;Node20</title>
<path fill="none" stroke="midnightblue" d="M943,-106.89C943,-97.6201 943,-87.0083 943,-79.3776"/>
<polygon fill="midnightblue" stroke="midnightblue" points="939.5,-106.897 943,-116.897 946.5,-106.897 939.5,-106.897"/>
</g>
<!-- Node26 -->
<g id="node59" class="node"><title>Node26</title>
<a xlink:href="_game_scene_8cpp.html" target="_top" xlink:title="GameScene.cpp">
<polygon fill="none" stroke="black" points="779.5,-59 779.5,-79 868.5,-79 868.5,-59 779.5,-59"/>
<text text-anchor="middle" x="824" y="-66" font-family="FreeSans" font-size="10.00">GameScene.cpp</text>
</a>
</g>
<!-- Node25&#45;&gt;Node26 -->
<g id="edge66" class="edge"><title>Node25&#45;&gt;Node26</title>
<path fill="none" stroke="midnightblue" d="M913.034,-112.395C891.771,-102.031 863.768,-88.3825 844.89,-79.1817"/>
<polygon fill="midnightblue" stroke="midnightblue" points="911.749,-115.662 922.272,-116.897 914.816,-109.37 911.749,-115.662"/>
</g>
<!-- Node27&#45;&gt;Node17 -->
<g id="edge72" class="edge"><title>Node27&#45;&gt;Node17</title>
<path fill="none" stroke="midnightblue" d="M1242.43,-173.666C1207.82,-165.134 1167.37,-152.458 1157,-138 1144.11,-120.03 1158.33,-93.691 1168.19,-79.3087"/>
<polygon fill="midnightblue" stroke="midnightblue" points="1241.94,-177.146 1252.48,-176.07 1243.56,-170.338 1241.94,-177.146"/>
</g>
<!-- Node28 -->
<g id="node65" class="node"><title>Node28</title>
<a xlink:href="_console_scene_8cpp.html" target="_top" xlink:title="ConsoleScene.cpp">
<polygon fill="none" stroke="black" points="1272,-117 1272,-137 1370,-137 1370,-117 1272,-117"/>
<text text-anchor="middle" x="1321" y="-124" font-family="FreeSans" font-size="10.00">ConsoleScene.cpp</text>
</a>
</g>
<!-- Node27&#45;&gt;Node28 -->
<g id="edge74" class="edge"><title>Node27&#45;&gt;Node28</title>
<path fill="none" stroke="midnightblue" d="M1304.41,-165.493C1308.46,-156.083 1313.17,-145.174 1316.53,-137.378"/>
<polygon fill="midnightblue" stroke="midnightblue" points="1301.1,-164.328 1300.35,-174.897 1307.53,-167.099 1301.1,-164.328"/>
</g>
<!-- Node29&#45;&gt;Node23 -->
<g id="edge80" class="edge"><title>Node29&#45;&gt;Node23</title>
<path fill="none" stroke="midnightblue" d="M1397.12,-164.487C1396.04,-139.447 1394.25,-98.0959 1393.44,-79.1055"/>
<polygon fill="midnightblue" stroke="midnightblue" points="1393.63,-164.866 1397.56,-174.706 1400.62,-164.564 1393.63,-164.866"/>
</g>
<!-- Node30 -->
<g id="node69" class="node"><title>Node30</title>
<a xlink:href="_palette_scene_8cpp.html" target="_top" xlink:title="PaletteScene.cpp">
<polygon fill="none" stroke="black" points="1425.5,-117 1425.5,-137 1518.5,-137 1518.5,-117 1425.5,-117"/>
<text text-anchor="middle" x="1472" y="-124" font-family="FreeSans" font-size="10.00">PaletteScene.cpp</text>
</a>
</g>
<!-- Node29&#45;&gt;Node30 -->
<g id="edge78" class="edge"><title>Node29&#45;&gt;Node30</title>
<path fill="none" stroke="midnightblue" d="M1418.76,-168.727C1431.58,-158.679 1447.65,-146.087 1458.76,-137.378"/>
<polygon fill="midnightblue" stroke="midnightblue" points="1416.6,-165.974 1410.89,-174.897 1420.92,-171.483 1416.6,-165.974"/>
</g>
</g>
</svg>
