<?xml version="1.0" encoding="UTF-8" standalone="no"?>
<!DOCTYPE svg PUBLIC "-//W3C//DTD SVG 1.1//EN"
 "http://www.w3.org/Graphics/SVG/1.1/DTD/svg11.dtd">
<!-- Generated by graphviz version 2.26.3 (20100126.1600)
 -->
<!-- Title: UiScene.h Pages: 1 -->
<!--zoomable 320 -->
<svg id="main" version="1.1" xmlns="http://www.w3.org/2000/svg" xmlns:xlink="http://www.w3.org/1999/xlink" xml:space="preserve" onload="init(evt)">
<style type="text/css"><![CDATA[
.edge:hover path { stroke: red; }
.edge:hover polygon { stroke: red; fill: red; }
]]></style>
<script type="text/javascript"><![CDATA[
var edges = document.getElementsByTagName('g');
if (edges && edges.length) {
  for (var i=0;i<edges.length;i++) {
    if (edges[i].id.substr(0,4)=='edge') {
      edges[i].setAttribute('class','edge');
    }
  }
}
]]></script>
        <defs>
                <circle id="rim" cx="0" cy="0" r="7"/>
                <circle id="rim2" cx="0" cy="0" r="3.5"/>
                <g id="zoomPlus">
                        <use xlink:href="#rim" fill="#404040">
                                <set attributeName="fill" to="#808080" begin="zoomplus.mouseover" end="zoomplus.mouseout"/>
                        </use>
                        <path d="M-4,0h8M0,-4v8" fill="none" stroke="white" stroke-width="1.5" pointer-events="none"/>
                </g>
                <g id="zoomMin">
                        <use xlink:href="#rim" fill="#404040">
                                <set attributeName="fill" to="#808080" begin="zoomminus.mouseover" end="zoomminus.mouseout"/>
                        </use>
                        <path d="M-4,0h8" fill="none" stroke="white" stroke-width="1.5" pointer-events="none"/>
                </g>
                <g id="dirArrow">
                        <path fill="none" stroke="white" stroke-width="1.5" d="M0,-3.0v7 M-2.5,-0.5L0,-3.0L2.5,-0.5"/>
                </g>
               <g id="resetDef">
                       <use xlink:href="#rim2" fill="#404040">
                               <set attributeName="fill" to="#808080" begin="reset.mouseover" end="reset.mouseout"/>
                       </use>
               </g>
        </defs>

<script type="text/javascript">
var viewWidth = 2634;
var viewHeight = 320;
var sectionId = 'dynsection-1';
</script>
<script xlink:href="svgpan.js"/>
<svg id="graph" class="graph">
<g id="viewport">
<title>UiScene.h</title>
<!-- Node1 -->
<g id="node1" class="node"><title>Node1</title>
<polygon fill="#bfbfbf" stroke="black" points="2218,-291 2218,-311 2280,-311 2280,-291 2218,-291"/>
<text text-anchor="middle" x="2249" y="-298" font-family="FreeSans" font-size="10.00">UiScene.h</text>
</g>
<!-- Node2 -->
<g id="node3" class="node"><title>Node2</title>
<a xlink:href="_form_scene_8h.html" target="_top" xlink:title="FormScene.h">
<polygon fill="none" stroke="black" points="1455,-233 1455,-253 1529,-253 1529,-233 1455,-233"/>
<text text-anchor="middle" x="1492" y="-240" font-family="FreeSans" font-size="10.00">FormScene.h</text>
</a>
</g>
<!-- Node1&#45;&gt;Node2 -->
<g id="edge2" class="edge"><title>Node1&#45;&gt;Node2</title>
<path fill="none" stroke="midnightblue" d="M2207.71,-297.837C2074.3,-287.615 1656.1,-255.573 1529,-245.835"/>
<polygon fill="midnightblue" stroke="midnightblue" points="2207.68,-301.344 2217.91,-298.618 2208.21,-294.364 2207.68,-301.344"/>
</g>
<!-- Node37 -->
<g id="node89" class="node"><title>Node37</title>
<a xlink:href="_console_scene_8h.html" target="_top" xlink:title="ConsoleScene.h">
<polygon fill="none" stroke="black" points="1863.5,-233 1863.5,-253 1950.5,-253 1950.5,-233 1863.5,-233"/>
<text text-anchor="middle" x="1907" y="-240" font-family="FreeSans" font-size="10.00">ConsoleScene.h</text>
</a>
</g>
<!-- Node1&#45;&gt;Node37 -->
<g id="edge104" class="edge"><title>Node1&#45;&gt;Node37</title>
<path fill="none" stroke="midnightblue" d="M2207.85,-294.022C2142.85,-282.997 2016.97,-261.65 1950.52,-250.38"/>
<polygon fill="midnightblue" stroke="midnightblue" points="2207.3,-297.478 2217.74,-295.699 2208.47,-290.576 2207.3,-297.478"/>
</g>
<!-- Node39 -->
<g id="node94" class="node"><title>Node39</title>
<a xlink:href="_game_scene_8h.html" target="_top" xlink:title="GameScene.h">
<polygon fill="none" stroke="black" points="2133,-233 2133,-253 2211,-253 2211,-233 2133,-233"/>
<text text-anchor="middle" x="2172" y="-240" font-family="FreeSans" font-size="10.00">GameScene.h</text>
</a>
</g>
<!-- Node1&#45;&gt;Node39 -->
<g id="edge110" class="edge"><title>Node1&#45;&gt;Node39</title>
<path fill="none" stroke="midnightblue" d="M2227.34,-284.687C2213.91,-274.569 2197.07,-261.885 2185.52,-253.182"/>
<polygon fill="midnightblue" stroke="midnightblue" points="2225.49,-287.676 2235.59,-290.897 2229.71,-282.085 2225.49,-287.676"/>
</g>
<!-- Node44 -->
<g id="node107" class="node"><title>Node44</title>
<a xlink:href="_status_overlay_scene_8h.html" target="_top" xlink:title="StatusOverlayScene.h">
<polygon fill="none" stroke="black" points="2269.5,-233 2269.5,-253 2382.5,-253 2382.5,-233 2269.5,-233"/>
<text text-anchor="middle" x="2326" y="-240" font-family="FreeSans" font-size="10.00">StatusOverlayScene.h</text>
</a>
</g>
<!-- Node1&#45;&gt;Node44 -->
<g id="edge126" class="edge"><title>Node1&#45;&gt;Node44</title>
<path fill="none" stroke="midnightblue" d="M2270.66,-284.687C2284.09,-274.569 2300.93,-261.885 2312.48,-253.182"/>
<polygon fill="midnightblue" stroke="midnightblue" points="2268.29,-282.085 2262.41,-290.897 2272.51,-287.676 2268.29,-282.085"/>
</g>
<!-- Node46 -->
<g id="node112" class="node"><title>Node46</title>
<a xlink:href="_palette_scene_8h.html" target="_top" xlink:title="PaletteScene.h">
<polygon fill="none" stroke="black" points="2431.5,-233 2431.5,-253 2514.5,-253 2514.5,-233 2431.5,-233"/>
<text text-anchor="middle" x="2473" y="-240" font-family="FreeSans" font-size="10.00">PaletteScene.h</text>
</a>
</g>
<!-- Node1&#45;&gt;Node46 -->
<g id="edge132" class="edge"><title>Node1&#45;&gt;Node46</title>
<path fill="none" stroke="midnightblue" d="M2289.84,-290.424C2330.95,-279.781 2393.88,-263.487 2434.23,-253.039"/>
<polygon fill="midnightblue" stroke="midnightblue" points="2288.95,-287.04 2280.15,-292.935 2290.7,-293.817 2288.95,-287.04"/>
</g>
<!-- Node48 -->
<g id="node117" class="node"><title>Node48</title>
<a xlink:href="_ui_scene_8cpp.html" target="_top" xlink:title="UiScene.cpp">
<polygon fill="none" stroke="black" points="2532,-233 2532,-253 2604,-253 2604,-233 2532,-233"/>
<text text-anchor="middle" x="2568" y="-240" font-family="FreeSans" font-size="10.00">UiScene.cpp</text>
</a>
</g>
<!-- Node1&#45;&gt;Node48 -->
<g id="edge138" class="edge"><title>Node1&#45;&gt;Node48</title>
<path fill="none" stroke="midnightblue" d="M2290.54,-294.8C2344.37,-286.554 2441.04,-271.025 2523,-254 2525.83,-253.411 2528.76,-252.77 2531.7,-252.104"/>
<polygon fill="midnightblue" stroke="midnightblue" points="2289.72,-291.384 2280.36,-296.35 2290.78,-298.304 2289.72,-291.384"/>
</g>
<!-- Node3 -->
<g id="node5" class="node"><title>Node3</title>
<a xlink:href="_dialog_scene_8h.html" target="_top" xlink:title="DialogScene.h">
<polygon fill="none" stroke="black" points="612.5,-175 612.5,-195 691.5,-195 691.5,-175 612.5,-175"/>
<text text-anchor="middle" x="652" y="-182" font-family="FreeSans" font-size="10.00">DialogScene.h</text>
</a>
</g>
<!-- Node2&#45;&gt;Node3 -->
<g id="edge4" class="edge"><title>Node2&#45;&gt;Node3</title>
<path fill="none" stroke="midnightblue" d="M1444.55,-239.724C1294.26,-229.346 830.442,-197.321 691.64,-187.737"/>
<polygon fill="midnightblue" stroke="midnightblue" points="1444.61,-243.236 1454.82,-240.433 1445.09,-236.252 1444.61,-243.236"/>
</g>
<!-- Node22 -->
<g id="node49" class="node"><title>Node22</title>
<a xlink:href="_loading_scene_8h.html" target="_top" xlink:title="LoadingScene.h">
<polygon fill="none" stroke="black" points="1394,-175 1394,-195 1480,-195 1480,-175 1394,-175"/>
<text text-anchor="middle" x="1437" y="-182" font-family="FreeSans" font-size="10.00">LoadingScene.h</text>
</a>
</g>
<!-- Node2&#45;&gt;Node22 -->
<g id="edge54" class="edge"><title>Node2&#45;&gt;Node22</title>
<path fill="none" stroke="midnightblue" d="M1475.47,-225.568C1466.14,-215.725 1454.78,-203.755 1446.84,-195.378"/>
<polygon fill="midnightblue" stroke="midnightblue" points="1473,-228.049 1482.42,-232.897 1478.08,-223.233 1473,-228.049"/>
</g>
<!-- Node27 -->
<g id="node60" class="node"><title>Node27</title>
<a xlink:href="_main_menu_scene_8h.html" target="_top" xlink:title="MainMenuScene.h">
<polygon fill="none" stroke="black" points="1497.5,-175 1497.5,-195 1594.5,-195 1594.5,-175 1497.5,-175"/>
<text text-anchor="middle" x="1546" y="-182" font-family="FreeSans" font-size="10.00">MainMenuScene.h</text>
</a>
</g>
<!-- Node2&#45;&gt;Node27 -->
<g id="edge66" class="edge"><title>Node2&#45;&gt;Node27</title>
<path fill="none" stroke="midnightblue" d="M1508.23,-225.568C1517.39,-215.725 1528.54,-203.755 1536.34,-195.378"/>
<polygon fill="midnightblue" stroke="midnightblue" points="1505.66,-223.193 1501.41,-232.897 1510.78,-227.963 1505.66,-223.193"/>
</g>
<!-- Node28 -->
<g id="node64" class="node"><title>Node28</title>
<a xlink:href="_message_scene_8h.html" target="_top" xlink:title="MessageScene.h">
<polygon fill="none" stroke="black" points="1162,-175 1162,-195 1254,-195 1254,-175 1162,-175"/>
<text text-anchor="middle" x="1208" y="-182" font-family="FreeSans" font-size="10.00">MessageScene.h</text>
</a>
</g>
<!-- Node2&#45;&gt;Node28 -->
<g id="edge72" class="edge"><title>Node2&#45;&gt;Node28</title>
<path fill="none" stroke="midnightblue" d="M1445.06,-233.414C1392.14,-222.607 1306.64,-205.146 1254.08,-194.41"/>
<polygon fill="midnightblue" stroke="midnightblue" points="1444.37,-236.846 1454.87,-235.418 1445.77,-229.987 1444.37,-236.846"/>
</g>
<!-- Node32 -->
<g id="node76" class="node"><title>Node32</title>
<a xlink:href="_test_lab_scene_8h.html" target="_top" xlink:title="TestLabScene.h">
<polygon fill="none" stroke="black" points="1714,-175 1714,-195 1802,-195 1802,-175 1714,-175"/>
<text text-anchor="middle" x="1758" y="-182" font-family="FreeSans" font-size="10.00">TestLabScene.h</text>
</a>
</g>
<!-- Node2&#45;&gt;Node32 -->
<g id="edge88" class="edge"><title>Node2&#45;&gt;Node32</title>
<path fill="none" stroke="midnightblue" d="M1539.07,-232.737C1588.5,-221.959 1665.62,-205.142 1713.91,-194.615"/>
<polygon fill="midnightblue" stroke="midnightblue" points="1538.29,-229.324 1529.27,-234.874 1539.78,-236.163 1538.29,-229.324"/>
</g>
<!-- Node34 -->
<g id="node82" class="node"><title>Node34</title>
<a xlink:href="_form_scene_8cpp.html" target="_top" xlink:title="FormScene.cpp">
<polygon fill="none" stroke="black" points="1611.5,-175 1611.5,-195 1696.5,-195 1696.5,-175 1611.5,-175"/>
<text text-anchor="middle" x="1654" y="-182" font-family="FreeSans" font-size="10.00">FormScene.cpp</text>
</a>
</g>
<!-- Node2&#45;&gt;Node34 -->
<g id="edge96" class="edge"><title>Node2&#45;&gt;Node34</title>
<path fill="none" stroke="midnightblue" d="M1529.73,-229.491C1559.1,-218.975 1599.22,-204.613 1625.83,-195.084"/>
<polygon fill="midnightblue" stroke="midnightblue" points="1528.45,-226.231 1520.22,-232.897 1530.81,-232.822 1528.45,-226.231"/>
</g>
<!-- Node35 -->
<g id="node84" class="node"><title>Node35</title>
<a xlink:href="_pause_menu_scene_8h.html" target="_top" xlink:title="PauseMenuScene.h">
<polygon fill="none" stroke="black" points="1272,-175 1272,-195 1376,-195 1376,-175 1272,-175"/>
<text text-anchor="middle" x="1324" y="-182" font-family="FreeSans" font-size="10.00">PauseMenuScene.h</text>
</a>
</g>
<!-- Node2&#45;&gt;Node35 -->
<g id="edge98" class="edge"><title>Node2&#45;&gt;Node35</title>
<path fill="none" stroke="midnightblue" d="M1453.27,-229.628C1422.77,-219.1 1380.93,-204.654 1353.21,-195.084"/>
<polygon fill="midnightblue" stroke="midnightblue" points="1452.14,-232.942 1462.74,-232.897 1454.43,-226.325 1452.14,-232.942"/>
</g>
<!-- Node4 -->
<g id="node7" class="node"><title>Node4</title>
<a xlink:href="_settings_scene_8h.html" target="_top" xlink:title="SettingsScene.h">
<polygon fill="none" stroke="black" points="266,-117 266,-137 354,-137 354,-117 266,-117"/>
<text text-anchor="middle" x="310" y="-124" font-family="FreeSans" font-size="10.00">SettingsScene.h</text>
</a>
</g>
<!-- Node3&#45;&gt;Node4 -->
<g id="edge6" class="edge"><title>Node3&#45;&gt;Node4</title>
<path fill="none" stroke="midnightblue" d="M602.308,-177.138C545.568,-168.077 449.992,-152.558 368,-138 363.56,-137.212 358.933,-136.369 354.314,-135.515"/>
<polygon fill="midnightblue" stroke="midnightblue" points="602.012,-180.635 612.438,-178.753 603.114,-173.722 602.012,-180.635"/>
</g>
<!-- Node11 -->
<g id="node22" class="node"><title>Node11</title>
<a xlink:href="_dialog_scene_8cpp.html" target="_top" xlink:title="DialogScene.cpp">
<polygon fill="none" stroke="black" points="159.5,-117 159.5,-137 248.5,-137 248.5,-117 159.5,-117"/>
<text text-anchor="middle" x="204" y="-124" font-family="FreeSans" font-size="10.00">DialogScene.cpp</text>
</a>
</g>
<!-- Node3&#45;&gt;Node11 -->
<g id="edge22" class="edge"><title>Node3&#45;&gt;Node11</title>
<path fill="none" stroke="midnightblue" d="M602.204,-180.465C527.112,-173.313 380.526,-158.129 257,-138 254.31,-137.562 251.55,-137.082 248.769,-136.575"/>
<polygon fill="midnightblue" stroke="midnightblue" points="602.031,-183.964 612.316,-181.421 602.69,-176.995 602.031,-183.964"/>
</g>
<!-- Node12 -->
<g id="node24" class="node"><title>Node12</title>
<a xlink:href="_display_select_scene_8h.html" target="_top" xlink:title="DisplaySelectScene.h">
<polygon fill="none" stroke="black" points="409.5,-117 409.5,-137 520.5,-137 520.5,-117 409.5,-117"/>
<text text-anchor="middle" x="465" y="-124" font-family="FreeSans" font-size="10.00">DisplaySelectScene.h</text>
</a>
</g>
<!-- Node3&#45;&gt;Node12 -->
<g id="edge24" class="edge"><title>Node3&#45;&gt;Node12</title>
<path fill="none" stroke="midnightblue" d="M609.765,-171.9C575.752,-161.351 528.636,-146.737 497.513,-137.084"/>
<polygon fill="midnightblue" stroke="midnightblue" points="608.839,-175.278 619.427,-174.897 610.913,-168.592 608.839,-175.278"/>
</g>
<!-- Node14 -->
<g id="node29" class="node"><title>Node14</title>
<a xlink:href="_track_select_scene_8h.html" target="_top" xlink:title="TrackSelectScene.h">
<polygon fill="none" stroke="black" points="538,-117 538,-137 642,-137 642,-117 538,-117"/>
<text text-anchor="middle" x="590" y="-124" font-family="FreeSans" font-size="10.00">TrackSelectScene.h</text>
</a>
</g>
<!-- Node3&#45;&gt;Node14 -->
<g id="edge30" class="edge"><title>Node3&#45;&gt;Node14</title>
<path fill="none" stroke="midnightblue" d="M633.678,-167.86C623.098,-157.962 610.137,-145.838 601.093,-137.378"/>
<polygon fill="midnightblue" stroke="midnightblue" points="631.507,-170.622 641.2,-174.897 636.289,-165.51 631.507,-170.622"/>
</g>
<!-- Node17 -->
<g id="node35" class="node"><title>Node17</title>
<a xlink:href="_game_select_scene_8h.html" target="_top" xlink:title="GameSelectScene.h">
<polygon fill="none" stroke="black" points="660,-117 660,-137 766,-137 766,-117 660,-117"/>
<text text-anchor="middle" x="713" y="-124" font-family="FreeSans" font-size="10.00">GameSelectScene.h</text>
</a>
</g>
<!-- Node3&#45;&gt;Node17 -->
<g id="edge36" class="edge"><title>Node3&#45;&gt;Node17</title>
<path fill="none" stroke="midnightblue" d="M670.027,-167.86C680.436,-157.962 693.188,-145.838 702.086,-137.378"/>
<polygon fill="midnightblue" stroke="midnightblue" points="667.461,-165.47 662.625,-174.897 672.284,-170.543 667.461,-165.47"/>
</g>
<!-- Node19 -->
<g id="node40" class="node"><title>Node19</title>
<a xlink:href="_practice_setup_scene_8h.html" target="_top" xlink:title="PracticeSetupScene.h">
<polygon fill="none" stroke="black" points="913.5,-117 913.5,-137 1026.5,-137 1026.5,-117 913.5,-117"/>
<text text-anchor="middle" x="970" y="-124" font-family="FreeSans" font-size="10.00">PracticeSetupScene.h</text>
</a>
</g>
<!-- Node3&#45;&gt;Node19 -->
<g id="edge42" class="edge"><title>Node3&#45;&gt;Node19</title>
<path fill="none" stroke="midnightblue" d="M701.631,-175.948C759.481,-165.397 854.804,-148.011 914.901,-137.05"/>
<polygon fill="midnightblue" stroke="midnightblue" points="700.842,-172.534 691.632,-177.772 702.098,-179.42 700.842,-172.534"/>
</g>
<!-- Node21 -->
<g id="node45" class="node"><title>Node21</title>
<a xlink:href="_settings_menu_scene_8h.html" target="_top" xlink:title="SettingsMenuScene.h">
<polygon fill="none" stroke="black" points="784,-117 784,-137 896,-137 896,-117 784,-117"/>
<text text-anchor="middle" x="840" y="-124" font-family="FreeSans" font-size="10.00">SettingsMenuScene.h</text>
</a>
</g>
<!-- Node3&#45;&gt;Node21 -->
<g id="edge48" class="edge"><title>Node3&#45;&gt;Node21</title>
<path fill="none" stroke="midnightblue" d="M694.461,-171.9C728.656,-161.351 776.024,-146.737 807.313,-137.084"/>
<polygon fill="midnightblue" stroke="midnightblue" points="693.271,-168.605 684.747,-174.897 695.335,-175.294 693.271,-168.605"/>
</g>
<!-- Node5 -->
<g id="node9" class="node"><title>Node5</title>
<a xlink:href="_audio_settings_scene_8h.html" target="_top" xlink:title="AudioSettingsScene.h">
<polygon fill="none" stroke="black" points="9.5,-59 9.5,-79 122.5,-79 122.5,-59 9.5,-59"/>
<text text-anchor="middle" x="66" y="-66" font-family="FreeSans" font-size="10.00">AudioSettingsScene.h</text>
</a>
</g>
<!-- Node4&#45;&gt;Node5 -->
<g id="edge8" class="edge"><title>Node4&#45;&gt;Node5</title>
<path fill="none" stroke="midnightblue" d="M257.98,-114.635C213.289,-104.011 149.669,-88.8885 108.114,-79.0108"/>
<polygon fill="midnightblue" stroke="midnightblue" points="257.239,-118.056 267.777,-116.963 258.858,-111.246 257.239,-118.056"/>
</g>
<!-- Node8 -->
<g id="node15" class="node"><title>Node8</title>
<a xlink:href="_video_settings_scene_8h.html" target="_top" xlink:title="VideoSettingsScene.h">
<polygon fill="none" stroke="black" points="139.5,-59 139.5,-79 252.5,-79 252.5,-59 139.5,-59"/>
<text text-anchor="middle" x="196" y="-66" font-family="FreeSans" font-size="10.00">VideoSettingsScene.h</text>
</a>
</g>
<!-- Node4&#45;&gt;Node8 -->
<g id="edge14" class="edge"><title>Node4&#45;&gt;Node8</title>
<path fill="none" stroke="midnightblue" d="M281.017,-112.254C260.682,-101.909 234.015,-88.3411 216.012,-79.1817"/>
<polygon fill="midnightblue" stroke="midnightblue" points="279.643,-115.482 290.143,-116.897 282.817,-109.243 279.643,-115.482"/>
</g>
<!-- Node10 -->
<g id="node20" class="node"><title>Node10</title>
<a xlink:href="_settings_scene_8cpp.html" target="_top" xlink:title="SettingsScene.cpp">
<polygon fill="none" stroke="black" points="270,-59 270,-79 368,-79 368,-59 270,-59"/>
<text text-anchor="middle" x="319" y="-66" font-family="FreeSans" font-size="10.00">SettingsScene.cpp</text>
</a>
</g>
<!-- Node4&#45;&gt;Node10 -->
<g id="edge20" class="edge"><title>Node4&#45;&gt;Node10</title>
<path fill="none" stroke="midnightblue" d="M313.12,-106.89C314.559,-97.6201 316.206,-87.0083 317.39,-79.3776"/>
<polygon fill="midnightblue" stroke="midnightblue" points="309.643,-106.479 311.568,-116.897 316.56,-107.552 309.643,-106.479"/>
</g>
<!-- Node6 -->
<g id="node11" class="node"><title>Node6</title>
<a xlink:href="_audio_settings_scene_8cpp.html" target="_top" xlink:title="AudioSettingsScene.cpp">
<polygon fill="none" stroke="black" points="-0.5,-1 -0.5,-21 122.5,-21 122.5,-1 -0.5,-1"/>
<text text-anchor="middle" x="61" y="-8" font-family="FreeSans" font-size="10.00">AudioSettingsScene.cpp</text>
</a>
</g>
<!-- Node5&#45;&gt;Node6 -->
<g id="edge10" class="edge"><title>Node5&#45;&gt;Node6</title>
<path fill="none" stroke="midnightblue" d="M64.2664,-48.8902C63.4673,-39.6201 62.5524,-29.0083 61.8946,-21.3776"/>
<polygon fill="midnightblue" stroke="midnightblue" points="60.783,-49.2348 65.1291,-58.8972 67.7572,-48.6335 60.783,-49.2348"/>
</g>
<!-- Node7 -->
<g id="node13" class="node"><title>Node7</title>
<a xlink:href="_settings_menu_scene_8cpp.html" target="_top" xlink:title="SettingsMenuScene.cpp">
<polygon fill="none" stroke="black" points="140,-1 140,-21 262,-21 262,-1 140,-1"/>
<text text-anchor="middle" x="201" y="-8" font-family="FreeSans" font-size="10.00">SettingsMenuScene.cpp</text>
</a>
</g>
<!-- Node5&#45;&gt;Node7 -->
<g id="edge12" class="edge"><title>Node5&#45;&gt;Node7</title>
<path fill="none" stroke="midnightblue" d="M99.0215,-54.813C123.256,-44.4012 155.596,-30.5069 177.301,-21.1817"/>
<polygon fill="midnightblue" stroke="midnightblue" points="97.3215,-51.7339 89.5152,-58.8972 100.085,-58.1655 97.3215,-51.7339"/>
</g>
<!-- Node8&#45;&gt;Node7 -->
<g id="edge16" class="edge"><title>Node8&#45;&gt;Node7</title>
<path fill="none" stroke="midnightblue" d="M197.734,-48.8902C198.533,-39.6201 199.448,-29.0083 200.105,-21.3776"/>
<polygon fill="midnightblue" stroke="midnightblue" points="194.243,-48.6335 196.871,-58.8972 201.217,-49.2348 194.243,-48.6335"/>
</g>
<!-- Node9 -->
<g id="node18" class="node"><title>Node9</title>
<a xlink:href="_video_settings_scene_8cpp.html" target="_top" xlink:title="VideoSettingsScene.cpp">
<polygon fill="none" stroke="black" points="334.5,-1 334.5,-21 457.5,-21 457.5,-1 334.5,-1"/>
<text text-anchor="middle" x="396" y="-8" font-family="FreeSans" font-size="10.00">VideoSettingsScene.cpp</text>
</a>
</g>
<!-- Node8&#45;&gt;Node9 -->
<g id="edge18" class="edge"><title>Node8&#45;&gt;Node9</title>
<path fill="none" stroke="midnightblue" d="M240.703,-56.0361C277.116,-45.4763 327.797,-30.7788 361.227,-21.0842"/>
<polygon fill="midnightblue" stroke="midnightblue" points="239.467,-52.7504 230.837,-58.8972 241.416,-59.4734 239.467,-52.7504"/>
</g>
<!-- Node12&#45;&gt;Node9 -->
<g id="edge28" class="edge"><title>Node12&#45;&gt;Node9</title>
<path fill="none" stroke="midnightblue" d="M442.403,-110.41C432.706,-102.235 422.016,-91.6378 415,-80 403.582,-61.059 398.856,-35.0992 397.037,-21.0382"/>
<polygon fill="midnightblue" stroke="midnightblue" points="440.223,-113.147 450.213,-116.675 444.603,-107.687 440.223,-113.147"/>
</g>
<!-- Node13 -->
<g id="node26" class="node"><title>Node13</title>
<a xlink:href="_display_select_scene_8cpp.html" target="_top" xlink:title="DisplaySelectScene.cpp">
<polygon fill="none" stroke="black" points="424,-59 424,-79 546,-79 546,-59 424,-59"/>
<text text-anchor="middle" x="485" y="-66" font-family="FreeSans" font-size="10.00">DisplaySelectScene.cpp</text>
</a>
</g>
<!-- Node12&#45;&gt;Node13 -->
<g id="edge26" class="edge"><title>Node12&#45;&gt;Node13</title>
<path fill="none" stroke="midnightblue" d="M471.83,-107.192C475.051,-97.8512 478.762,-87.0912 481.422,-79.3776"/>
<polygon fill="midnightblue" stroke="midnightblue" points="468.435,-106.302 468.484,-116.897 475.053,-108.584 468.435,-106.302"/>
</g>
<!-- Node15 -->
<g id="node31" class="node"><title>Node15</title>
<a xlink:href="_game_select_scene_8cpp.html" target="_top" xlink:title="GameSelectScene.cpp">
<polygon fill="none" stroke="black" points="696,-59 696,-79 812,-79 812,-59 696,-59"/>
<text text-anchor="middle" x="754" y="-66" font-family="FreeSans" font-size="10.00">GameSelectScene.cpp</text>
</a>
</g>
<!-- Node14&#45;&gt;Node15 -->
<g id="edge32" class="edge"><title>Node14&#45;&gt;Node15</title>
<path fill="none" stroke="midnightblue" d="M628.198,-113.491C657.932,-102.975 698.542,-88.6131 725.486,-79.0842"/>
<polygon fill="midnightblue" stroke="midnightblue" points="626.827,-110.263 618.567,-116.897 629.161,-116.863 626.827,-110.263"/>
</g>
<!-- Node16 -->
<g id="node33" class="node"><title>Node16</title>
<a xlink:href="_track_select_scene_8cpp.html" target="_top" xlink:title="TrackSelectScene.cpp">
<polygon fill="none" stroke="black" points="563.5,-59 563.5,-79 678.5,-79 678.5,-59 563.5,-59"/>
<text text-anchor="middle" x="621" y="-66" font-family="FreeSans" font-size="10.00">TrackSelectScene.cpp</text>
</a>
</g>
<!-- Node14&#45;&gt;Node16 -->
<g id="edge34" class="edge"><title>Node14&#45;&gt;Node16</title>
<path fill="none" stroke="midnightblue" d="M600.266,-107.793C605.331,-98.3154 611.242,-87.2571 615.453,-79.3776"/>
<polygon fill="midnightblue" stroke="midnightblue" points="597.027,-106.428 595.4,-116.897 603.2,-109.728 597.027,-106.428"/>
</g>
<!-- Node17&#45;&gt;Node15 -->
<g id="edge38" class="edge"><title>Node17&#45;&gt;Node15</title>
<path fill="none" stroke="midnightblue" d="M725.946,-108.686C732.781,-99.0169 740.918,-87.5059 746.664,-79.3776"/>
<polygon fill="midnightblue" stroke="midnightblue" points="723.056,-106.711 720.142,-116.897 728.772,-110.752 723.056,-106.711"/>
</g>
<!-- Node18 -->
<g id="node38" class="node"><title>Node18</title>
<a xlink:href="_practice_setup_scene_8cpp.html" target="_top" xlink:title="PracticeSetupScene.cpp">
<polygon fill="none" stroke="black" points="908,-59 908,-79 1032,-79 1032,-59 908,-59"/>
<text text-anchor="middle" x="970" y="-66" font-family="FreeSans" font-size="10.00">PracticeSetupScene.cpp</text>
</a>
</g>
<!-- Node17&#45;&gt;Node18 -->
<g id="edge40" class="edge"><title>Node17&#45;&gt;Node18</title>
<path fill="none" stroke="midnightblue" d="M767.496,-114.701C814.582,-104.075 881.781,-88.9093 925.642,-79.0108"/>
<polygon fill="midnightblue" stroke="midnightblue" points="766.457,-111.348 757.473,-116.963 767.998,-118.176 766.457,-111.348"/>
</g>
<!-- Node19&#45;&gt;Node18 -->
<g id="edge46" class="edge"><title>Node19&#45;&gt;Node18</title>
<path fill="none" stroke="midnightblue" d="M970,-106.89C970,-97.6201 970,-87.0083 970,-79.3776"/>
<polygon fill="midnightblue" stroke="midnightblue" points="966.5,-106.897 970,-116.897 973.5,-106.897 966.5,-106.897"/>
</g>
<!-- Node20 -->
<g id="node42" class="node"><title>Node20</title>
<a xlink:href="_main_menu_scene_8cpp.html" target="_top" xlink:title="MainMenuScene.cpp">
<polygon fill="none" stroke="black" points="1063.5,-59 1063.5,-79 1170.5,-79 1170.5,-59 1063.5,-59"/>
<text text-anchor="middle" x="1117" y="-66" font-family="FreeSans" font-size="10.00">MainMenuScene.cpp</text>
</a>
</g>
<!-- Node19&#45;&gt;Node20 -->
<g id="edge44" class="edge"><title>Node19&#45;&gt;Node20</title>
<path fill="none" stroke="midnightblue" d="M1005.26,-113.09C1031.72,-102.649 1067.35,-88.5898 1091.19,-79.1817"/>
<polygon fill="midnightblue" stroke="midnightblue" points="1003.62,-109.971 995.605,-116.897 1006.19,-116.483 1003.62,-109.971"/>
</g>
<!-- Node21&#45;&gt;Node7 -->
<g id="edge52" class="edge"><title>Node21&#45;&gt;Node7</title>
<path fill="none" stroke="midnightblue" d="M840.283,-106.511C839.301,-90.6936 835.142,-69.6091 821,-58 778.376,-23.011 380.968,-26.4172 326,-22 305.153,-20.3248 282.364,-18.3591 262.02,-16.5564"/>
<polygon fill="midnightblue" stroke="midnightblue" points="836.793,-106.975 840.533,-116.887 843.791,-106.806 836.793,-106.975"/>
</g>
<!-- Node21&#45;&gt;Node20 -->
<g id="edge50" class="edge"><title>Node21&#45;&gt;Node20</title>
<path fill="none" stroke="midnightblue" d="M897.781,-114.901C948.575,-104.266 1021.62,-88.9715 1069.19,-79.0108"/>
<polygon fill="midnightblue" stroke="midnightblue" points="897.004,-111.488 887.933,-116.963 898.439,-118.34 897.004,-111.488"/>
</g>
<!-- Node23 -->
<g id="node51" class="node"><title>Node23</title>
<a xlink:href="_client_app_8cpp.html" target="_top" xlink:title="ClientApp.cpp">
<polygon fill="none" stroke="black" points="1903.5,-117 1903.5,-137 1980.5,-137 1980.5,-117 1903.5,-117"/>
<text text-anchor="middle" x="1942" y="-124" font-family="FreeSans" font-size="10.00">ClientApp.cpp</text>
</a>
</g>
<!-- Node22&#45;&gt;Node23 -->
<g id="edge56" class="edge"><title>Node22&#45;&gt;Node23</title>
<path fill="none" stroke="midnightblue" d="M1489.96,-173.989C1653.12,-149.243 1696.9,-156.186 1857,-138 1872.08,-136.287 1888.64,-134.193 1903.1,-132.293"/>
<polygon fill="midnightblue" stroke="midnightblue" points="1489.42,-170.531 1480.06,-175.506 1490.48,-177.45 1489.42,-170.531"/>
</g>
<!-- Node24 -->
<g id="node53" class="node"><title>Node24</title>
<a xlink:href="_loading_scene_8cpp.html" target="_top" xlink:title="LoadingScene.cpp">
<polygon fill="none" stroke="black" points="1627.5,-117 1627.5,-137 1724.5,-137 1724.5,-117 1627.5,-117"/>
<text text-anchor="middle" x="1676" y="-124" font-family="FreeSans" font-size="10.00">LoadingScene.cpp</text>
</a>
</g>
<!-- Node22&#45;&gt;Node24 -->
<g id="edge58" class="edge"><title>Node22&#45;&gt;Node24</title>
<path fill="none" stroke="midnightblue" d="M1488.23,-172.567C1531.99,-161.948 1594.13,-146.868 1634.75,-137.011"/>
<polygon fill="midnightblue" stroke="midnightblue" points="1487.25,-169.204 1478.36,-174.963 1488.9,-176.006 1487.25,-169.204"/>
</g>
<!-- Node25 -->
<g id="node55" class="node"><title>Node25</title>
<a xlink:href="_session_loading_scene_8h.html" target="_top" xlink:title="SessionLoadingScene.h">
<polygon fill="none" stroke="black" points="1372,-117 1372,-137 1494,-137 1494,-117 1372,-117"/>
<text text-anchor="middle" x="1433" y="-124" font-family="FreeSans" font-size="10.00">SessionLoadingScene.h</text>
</a>
</g>
<!-- Node22&#45;&gt;Node25 -->
<g id="edge60" class="edge"><title>Node22&#45;&gt;Node25</title>
<path fill="none" stroke="midnightblue" d="M1435.61,-164.89C1434.97,-155.62 1434.24,-145.008 1433.72,-137.378"/>
<polygon fill="midnightblue" stroke="midnightblue" points="1432.12,-165.162 1436.3,-174.897 1439.11,-164.68 1432.12,-165.162"/>
</g>
<!-- Node25&#45;&gt;Node18 -->
<g id="edge62" class="edge"><title>Node25&#45;&gt;Node18</title>
<path fill="none" stroke="midnightblue" d="M1361.89,-115.887C1224.77,-97.2685 1188.58,-96.4496 1055,-80 1047.62,-79.0907 1039.87,-78.117 1032.19,-77.1387"/>
<polygon fill="midnightblue" stroke="midnightblue" points="1361.56,-119.374 1371.94,-117.259 1362.5,-112.439 1361.56,-119.374"/>
</g>
<!-- Node26 -->
<g id="node58" class="node"><title>Node26</title>
<a xlink:href="_session_loading_scene_8cpp.html" target="_top" xlink:title="SessionLoadingScene.cpp">
<polygon fill="none" stroke="black" points="1367,-59 1367,-79 1499,-79 1499,-59 1367,-59"/>
<text text-anchor="middle" x="1433" y="-66" font-family="FreeSans" font-size="10.00">SessionLoadingScene.cpp</text>
</a>
</g>
<!-- Node25&#45;&gt;Node26 -->
<g id="edge64" class="edge"><title>Node25&#45;&gt;Node26</title>
<path fill="none" stroke="midnightblue" d="M1433,-106.89C1433,-97.6201 1433,-87.0083 1433,-79.3776"/>
<polygon fill="midnightblue" stroke="midnightblue" points="1429.5,-106.897 1433,-116.897 1436.5,-106.897 1429.5,-106.897"/>
</g>
<!-- Node27&#45;&gt;Node20 -->
<g id="edge70" class="edge"><title>Node27&#45;&gt;Node20</title>
<path fill="none" stroke="midnightblue" d="M1605.04,-173.88C1728.96,-157.292 1934.07,-198.126 1857,-116 1845.25,-103.482 1339,-79.1797 1170.74,-71.434"/>
<polygon fill="midnightblue" stroke="midnightblue" points="1604.16,-170.473 1594.79,-175.419 1605.2,-177.395 1604.16,-170.473"/>
</g>
<!-- Node27&#45;&gt;Node23 -->
<g id="edge68" class="edge"><title>Node27&#45;&gt;Node23</title>
<path fill="none" stroke="midnightblue" d="M1604.88,-173.777C1731.71,-154.072 1766.44,-158.78 1890,-138 1894.37,-137.265 1898.93,-136.42 1903.45,-135.53"/>
<polygon fill="midnightblue" stroke="midnightblue" points="1604.11,-170.354 1594.78,-175.367 1605.2,-177.269 1604.11,-170.354"/>
</g>
<!-- Node28&#45;&gt;Node9 -->
<g id="edge86" class="edge"><title>Node28&#45;&gt;Node9</title>
<path fill="none" stroke="midnightblue" d="M1210.08,-164.649C1211.76,-135.96 1209.92,-84.2073 1179,-58 1151.6,-34.7752 637.447,-17.9062 457.536,-12.6933"/>
<polygon fill="midnightblue" stroke="midnightblue" points="1206.58,-164.497 1209.29,-174.741 1213.56,-165.046 1206.58,-164.497"/>
</g>
<!-- Node28&#45;&gt;Node10 -->
<g id="edge82" class="edge"><title>Node28&#45;&gt;Node10</title>
<path fill="none" stroke="midnightblue" d="M1151.8,-183.773C980.159,-179.744 470.241,-165.563 401,-138 369.02,-125.27 340.438,-94.9047 327.044,-79.0407"/>
<polygon fill="midnightblue" stroke="midnightblue" points="1151.81,-187.275 1161.89,-184.008 1151.97,-180.276 1151.81,-187.275"/>
</g>
<!-- Node28&#45;&gt;Node20 -->
<g id="edge76" class="edge"><title>Node28&#45;&gt;Node20</title>
<path fill="none" stroke="midnightblue" d="M1193.89,-166.375C1183.29,-152.434 1168.35,-132.933 1155,-116 1144.87,-103.144 1132.97,-88.5031 1125.23,-79.0269"/>
<polygon fill="midnightblue" stroke="midnightblue" points="1191.34,-168.804 1200.18,-174.651 1196.92,-164.57 1191.34,-168.804"/>
</g>
<!-- Node28&#45;&gt;Node23 -->
<g id="edge74" class="edge"><title>Node28&#45;&gt;Node23</title>
<path fill="none" stroke="midnightblue" d="M1264.37,-173.979C1527.06,-140.562 1597.04,-162.669 1857,-138 1872.11,-136.566 1888.67,-134.529 1903.13,-132.596"/>
<polygon fill="midnightblue" stroke="midnightblue" points="1263.61,-170.548 1254.14,-175.296 1264.5,-177.491 1263.61,-170.548"/>
</g>
<!-- Node29 -->
<g id="node68" class="node"><title>Node29</title>
<a xlink:href="_message_scene_8cpp.html" target="_top" xlink:title="MessageScene.cpp">
<polygon fill="none" stroke="black" points="1044,-117 1044,-137 1146,-137 1146,-117 1044,-117"/>
<text text-anchor="middle" x="1095" y="-124" font-family="FreeSans" font-size="10.00">MessageScene.cpp</text>
</a>
</g>
<!-- Node28&#45;&gt;Node29 -->
<g id="edge78" class="edge"><title>Node28&#45;&gt;Node29</title>
<path fill="none" stroke="midnightblue" d="M1179.27,-170.254C1159.12,-159.909 1132.68,-146.341 1114.84,-137.182"/>
<polygon fill="midnightblue" stroke="midnightblue" points="1177.82,-173.445 1188.32,-174.897 1181.02,-167.217 1177.82,-173.445"/>
</g>
<!-- Node30 -->
<g id="node70" class="node"><title>Node30</title>
<a xlink:href="_pause_menu_scene_8cpp.html" target="_top" xlink:title="PauseMenuScene.cpp">
<polygon fill="none" stroke="black" points="1240,-117 1240,-137 1354,-137 1354,-117 1240,-117"/>
<text text-anchor="middle" x="1297" y="-124" font-family="FreeSans" font-size="10.00">PauseMenuScene.cpp</text>
</a>
</g>
<!-- Node28&#45;&gt;Node30 -->
<g id="edge80" class="edge"><title>Node28&#45;&gt;Node30</title>
<path fill="none" stroke="midnightblue" d="M1232.15,-169.262C1247.81,-159.054 1267.77,-146.051 1281.38,-137.182"/>
<polygon fill="midnightblue" stroke="midnightblue" points="1229.97,-166.505 1223.5,-174.897 1233.79,-172.37 1229.97,-166.505"/>
</g>
<!-- Node31 -->
<g id="node73" class="node"><title>Node31</title>
<a xlink:href="_test_lab_scene_8cpp.html" target="_top" xlink:title="TestLabScene.cpp">
<polygon fill="none" stroke="black" points="1512,-117 1512,-137 1610,-137 1610,-117 1512,-117"/>
<text text-anchor="middle" x="1561" y="-124" font-family="FreeSans" font-size="10.00">TestLabScene.cpp</text>
</a>
</g>
<!-- Node28&#45;&gt;Node31 -->
<g id="edge84" class="edge"><title>Node28&#45;&gt;Node31</title>
<path fill="none" stroke="midnightblue" d="M1264.07,-173.874C1370.92,-155.439 1399.78,-155.523 1503,-138 1505.93,-137.503 1508.94,-136.977 1511.98,-136.435"/>
<polygon fill="midnightblue" stroke="midnightblue" points="1263.44,-170.432 1254.18,-175.594 1264.63,-177.329 1263.44,-170.432"/>
</g>
<!-- Node32&#45;&gt;Node23 -->
<g id="edge90" class="edge"><title>Node32&#45;&gt;Node23</title>
<path fill="none" stroke="midnightblue" d="M1799.99,-171.764C1833.42,-161.225 1879.52,-146.696 1910.01,-137.084"/>
<polygon fill="midnightblue" stroke="midnightblue" points="1798.54,-168.553 1790.05,-174.897 1800.64,-175.229 1798.54,-168.553"/>
</g>
<!-- Node32&#45;&gt;Node31 -->
<g id="edge92" class="edge"><title>Node32&#45;&gt;Node31</title>
<path fill="none" stroke="midnightblue" d="M1713.97,-172.036C1678.1,-161.476 1628.18,-146.779 1595.25,-137.084"/>
<polygon fill="midnightblue" stroke="midnightblue" points="1713.1,-175.43 1723.69,-174.897 1715.08,-168.715 1713.1,-175.43"/>
</g>
<!-- Node33 -->
<g id="node80" class="node"><title>Node33</title>
<a xlink:href="_debug_peer_8cpp.html" target="_top" xlink:title="DebugPeer.cpp">
<polygon fill="none" stroke="black" points="2045.5,-117 2045.5,-137 2128.5,-137 2128.5,-117 2045.5,-117"/>
<text text-anchor="middle" x="2087" y="-124" font-family="FreeSans" font-size="10.00">DebugPeer.cpp</text>
</a>
</g>
<!-- Node32&#45;&gt;Node33 -->
<g id="edge94" class="edge"><title>Node32&#45;&gt;Node33</title>
<path fill="none" stroke="midnightblue" d="M1812.14,-175.456C1877.52,-163.929 1986.08,-144.792 2045.31,-134.35"/>
<polygon fill="midnightblue" stroke="midnightblue" points="1811.27,-172.055 1802.03,-177.238 1812.48,-178.949 1811.27,-172.055"/>
</g>
<!-- Node35&#45;&gt;Node30 -->
<g id="edge100" class="edge"><title>Node35&#45;&gt;Node30</title>
<path fill="none" stroke="midnightblue" d="M1315.06,-165.793C1310.65,-156.315 1305.5,-145.257 1301.83,-137.378"/>
<polygon fill="midnightblue" stroke="midnightblue" points="1311.9,-167.308 1319.3,-174.897 1318.25,-164.354 1311.9,-167.308"/>
</g>
<!-- Node36 -->
<g id="node87" class="node"><title>Node36</title>
<a xlink:href="_play_game_scene_8cpp.html" target="_top" xlink:title="PlayGameScene.cpp">
<polygon fill="none" stroke="black" points="1741.5,-117 1741.5,-137 1848.5,-137 1848.5,-117 1741.5,-117"/>
<text text-anchor="middle" x="1795" y="-124" font-family="FreeSans" font-size="10.00">PlayGameScene.cpp</text>
</a>
</g>
<!-- Node35&#45;&gt;Node36 -->
<g id="edge102" class="edge"><title>Node35&#45;&gt;Node36</title>
<path fill="none" stroke="midnightblue" d="M1386.52,-173.87C1540.73,-152.492 1582.32,-159.132 1733,-138 1735.71,-137.62 1738.48,-137.21 1741.27,-136.779"/>
<polygon fill="midnightblue" stroke="midnightblue" points="1385.62,-170.463 1376.2,-175.32 1386.59,-177.395 1385.62,-170.463"/>
</g>
<!-- Node37&#45;&gt;Node23 -->
<g id="edge106" class="edge"><title>Node37&#45;&gt;Node23</title>
<path fill="none" stroke="midnightblue" d="M1879.28,-227.724C1858.88,-214.382 1836.66,-194.061 1849,-174 1860.85,-154.739 1883.3,-143.081 1903.17,-136.195"/>
<polygon fill="midnightblue" stroke="midnightblue" points="1877.46,-230.715 1887.81,-232.994 1881.14,-224.76 1877.46,-230.715"/>
</g>
<!-- Node38 -->
<g id="node92" class="node"><title>Node38</title>
<a xlink:href="_console_scene_8cpp.html" target="_top" xlink:title="ConsoleScene.cpp">
<polygon fill="none" stroke="black" points="1858,-175 1858,-195 1956,-195 1956,-175 1858,-175"/>
<text text-anchor="middle" x="1907" y="-182" font-family="FreeSans" font-size="10.00">ConsoleScene.cpp</text>
</a>
</g>
<!-- Node37&#45;&gt;Node38 -->
<g id="edge108" class="edge"><title>Node37&#45;&gt;Node38</title>
<path fill="none" stroke="midnightblue" d="M1907,-222.89C1907,-213.62 1907,-203.008 1907,-195.378"/>
<polygon fill="midnightblue" stroke="midnightblue" points="1903.5,-222.897 1907,-232.897 1910.5,-222.897 1903.5,-222.897"/>
</g>
<!-- Node40 -->
<g id="node96" class="node"><title>Node40</title>
<a xlink:href="_demo_game_scene_8h.html" target="_top" xlink:title="DemoGameScene.h">
<polygon fill="none" stroke="black" points="2194,-175 2194,-195 2298,-195 2298,-175 2194,-175"/>
<text text-anchor="middle" x="2246" y="-182" font-family="FreeSans" font-size="10.00">DemoGameScene.h</text>
</a>
</g>
<!-- Node39&#45;&gt;Node40 -->
<g id="edge112" class="edge"><title>Node39&#45;&gt;Node40</title>
<path fill="none" stroke="midnightblue" d="M2192.76,-226.727C2205.58,-216.679 2221.65,-204.087 2232.76,-195.378"/>
<polygon fill="midnightblue" stroke="midnightblue" points="2190.6,-223.974 2184.89,-232.897 2194.92,-229.483 2190.6,-223.974"/>
</g>
<!-- Node42 -->
<g id="node101" class="node"><title>Node42</title>
<a xlink:href="_play_game_scene_8h.html" target="_top" xlink:title="PlayGameScene.h">
<polygon fill="none" stroke="black" points="1973.5,-175 1973.5,-195 2070.5,-195 2070.5,-175 1973.5,-175"/>
<text text-anchor="middle" x="2022" y="-182" font-family="FreeSans" font-size="10.00">PlayGameScene.h</text>
</a>
</g>
<!-- Node39&#45;&gt;Node42 -->
<g id="edge118" class="edge"><title>Node39&#45;&gt;Node42</title>
<path fill="none" stroke="midnightblue" d="M2136.35,-229.216C2109.22,-218.726 2072.51,-204.53 2048.08,-195.084"/>
<polygon fill="midnightblue" stroke="midnightblue" points="2135.28,-232.555 2145.87,-232.897 2137.81,-226.026 2135.28,-232.555"/>
</g>
<!-- Node43 -->
<g id="node105" class="node"><title>Node43</title>
<a xlink:href="_game_scene_8cpp.html" target="_top" xlink:title="GameScene.cpp">
<polygon fill="none" stroke="black" points="2087.5,-175 2087.5,-195 2176.5,-195 2176.5,-175 2087.5,-175"/>
<text text-anchor="middle" x="2132" y="-182" font-family="FreeSans" font-size="10.00">GameScene.cpp</text>
</a>
</g>
<!-- Node39&#45;&gt;Node43 -->
<g id="edge124" class="edge"><title>Node39&#45;&gt;Node43</title>
<path fill="none" stroke="midnightblue" d="M2159.16,-224.389C2152.54,-214.782 2144.71,-203.423 2139.16,-195.378"/>
<polygon fill="midnightblue" stroke="midnightblue" points="2156.47,-226.652 2165.03,-232.897 2162.24,-222.678 2156.47,-226.652"/>
</g>
<!-- Node40&#45;&gt;Node23 -->
<g id="edge114" class="edge"><title>Node40&#45;&gt;Node23</title>
<path fill="none" stroke="midnightblue" d="M2183.85,-173.142C2122.87,-161.509 2031.8,-144.134 1980.58,-134.361"/>
<polygon fill="midnightblue" stroke="midnightblue" points="2183.26,-176.593 2193.74,-175.029 2184.57,-169.717 2183.26,-176.593"/>
</g>
<!-- Node41 -->
<g id="node99" class="node"><title>Node41</title>
<a xlink:href="_demo_game_scene_8cpp.html" target="_top" xlink:title="DemoGameScene.cpp">
<polygon fill="none" stroke="black" points="2189,-117 2189,-137 2303,-137 2303,-117 2189,-117"/>
<text text-anchor="middle" x="2246" y="-124" font-family="FreeSans" font-size="10.00">DemoGameScene.cpp</text>
</a>
</g>
<!-- Node40&#45;&gt;Node41 -->
<g id="edge116" class="edge"><title>Node40&#45;&gt;Node41</title>
<path fill="none" stroke="midnightblue" d="M2246,-164.89C2246,-155.62 2246,-145.008 2246,-137.378"/>
<polygon fill="midnightblue" stroke="midnightblue" points="2242.5,-164.897 2246,-174.897 2249.5,-164.897 2242.5,-164.897"/>
</g>
<!-- Node42&#45;&gt;Node23 -->
<g id="edge120" class="edge"><title>Node42&#45;&gt;Node23</title>
<path fill="none" stroke="midnightblue" d="M1999.9,-168.975C1985.88,-158.811 1968.16,-145.968 1956.04,-137.182"/>
<polygon fill="midnightblue" stroke="midnightblue" points="1997.91,-171.861 2008.07,-174.897 2002.02,-166.194 1997.91,-171.861"/>
</g>
<!-- Node42&#45;&gt;Node36 -->
<g id="edge122" class="edge"><title>Node42&#45;&gt;Node36</title>
<path fill="none" stroke="midnightblue" d="M1972.82,-172.433C1931.28,-161.821 1872.6,-146.826 1834.18,-137.011"/>
<polygon fill="midnightblue" stroke="midnightblue" points="1972.16,-175.879 1982.72,-174.963 1973.9,-169.097 1972.16,-175.879"/>
</g>
<!-- Node44&#45;&gt;Node23 -->
<g id="edge128" class="edge"><title>Node44&#45;&gt;Node23</title>
<path fill="none" stroke="midnightblue" d="M2326.09,-222.463C2324.98,-206.793 2320.74,-185.931 2307,-174 2303.92,-171.329 2073.97,-143.07 1980.68,-131.699"/>
<polygon fill="midnightblue" stroke="midnightblue" points="2322.6,-222.877 2326.44,-232.754 2329.6,-222.641 2322.6,-222.877"/>
</g>
<!-- Node45 -->
<g id="node110" class="node"><title>Node45</title>
<a xlink:href="_status_overlay_scene_8cpp.html" target="_top" xlink:title="StatusOverlayScene.cpp">
<polygon fill="none" stroke="black" points="2354,-175 2354,-195 2478,-195 2478,-175 2354,-175"/>
<text text-anchor="middle" x="2416" y="-182" font-family="FreeSans" font-size="10.00">StatusOverlayScene.cpp</text>
</a>
</g>
<!-- Node44&#45;&gt;Node45 -->
<g id="edge130" class="edge"><title>Node44&#45;&gt;Node45</title>
<path fill="none" stroke="midnightblue" d="M2350.42,-227.262C2366.26,-217.054 2386.44,-204.051 2400.2,-195.182"/>
<polygon fill="midnightblue" stroke="midnightblue" points="2348.19,-224.538 2341.68,-232.897 2351.98,-230.422 2348.19,-224.538"/>
</g>
<!-- Node46&#45;&gt;Node33 -->
<g id="edge136" class="edge"><title>Node46&#45;&gt;Node33</title>
<path fill="none" stroke="midnightblue" d="M2484.85,-223.63C2492.5,-208.369 2499,-187.485 2487,-174 2441.35,-122.679 2248.22,-146.034 2180,-138 2163.21,-136.022 2144.71,-133.836 2128.66,-131.937"/>
<polygon fill="midnightblue" stroke="midnightblue" points="2481.6,-222.267 2479.84,-232.713 2487.73,-225.648 2481.6,-222.267"/>
</g>
<!-- Node47 -->
<g id="node114" class="node"><title>Node47</title>
<a xlink:href="_palette_scene_8cpp.html" target="_top" xlink:title="PaletteScene.cpp">
<polygon fill="none" stroke="black" points="2533.5,-175 2533.5,-195 2626.5,-195 2626.5,-175 2533.5,-175"/>
<text text-anchor="middle" x="2580" y="-182" font-family="FreeSans" font-size="10.00">PaletteScene.cpp</text>
</a>
</g>
<!-- Node46&#45;&gt;Node47 -->
<g id="edge134" class="edge"><title>Node46&#45;&gt;Node47</title>
<path fill="none" stroke="midnightblue" d="M2500.46,-228.114C2519.52,-217.786 2544.4,-204.3 2561.22,-195.182"/>
<polygon fill="midnightblue" stroke="midnightblue" points="2498.76,-225.055 2491.64,-232.897 2502.1,-231.209 2498.76,-225.055"/>
</g>
</g>
</svg>
        <g id="navigator" transform="translate(0 0)" fill="#404254">
                <rect fill="#f2f5e9" fill-opacity="0.5" stroke="#606060" stroke-width=".5" x="0" y="0" width="60" height="60"/>
                <use id="zoomplus" xlink:href="#zoomPlus" x="17" y="9" onmousedown="handleZoom(evt,'in')"/>
                <use id="zoomminus" xlink:href="#zoomMin" x="42" y="9" onmousedown="handleZoom(evt,'out')"/>
                <use id="reset" xlink:href="#resetDef" x="30" y="36" onmousedown="handleReset()"/>
                <g id="arrowUp" xlink:href="#dirArrow" transform="translate(30 24)" onmousedown="handlePan(0,-1)">
                  <use xlink:href="#rim" fill="#404040">
                        <set attributeName="fill" to="#808080" begin="arrowUp.mouseover" end="arrowUp.mouseout"/>
                  </use>
                  <path fill="none" stroke="white" stroke-width="1.5" d="M0,-3.0v7 M-2.5,-0.5L0,-3.0L2.5,-0.5"/>
                </g>
                <g id="arrowRight" xlink:href="#dirArrow" transform="rotate(90) translate(36 -43)" onmousedown="handlePan(1,0)">
                  <use xlink:href="#rim" fill="#404040">
                        <set attributeName="fill" to="#808080" begin="arrowRight.mouseover" end="arrowRight.mouseout"/>
                  </use>
                  <path fill="none" stroke="white" stroke-width="1.5" d="M0,-3.0v7 M-2.5,-0.5L0,-3.0L2.5,-0.5"/>
                </g>
                <g id="arrowDown" xlink:href="#dirArrow" transform="rotate(180) translate(-30 -48)" onmousedown="handlePan(0,1)">
                  <use xlink:href="#rim" fill="#404040">
                        <set attributeName="fill" to="#808080" begin="arrowDown.mouseover" end="arrowDown.mouseout"/>
                  </use>
                  <path fill="none" stroke="white" stroke-width="1.5" d="M0,-3.0v7 M-2.5,-0.5L0,-3.0L2.5,-0.5"/>
                </g>
                <g id="arrowLeft" xlink:href="#dirArrow" transform="rotate(270) translate(-36 17)" onmousedown="handlePan(-1,0)">
                  <use xlink:href="#rim" fill="#404040">
                        <set attributeName="fill" to="#808080" begin="arrowLeft.mouseover" end="arrowLeft.mouseout"/>
                  </use>
                  <path fill="none" stroke="white" stroke-width="1.5" d="M0,-3.0v7 M-2.5,-0.5L0,-3.0L2.5,-0.5"/>
                </g>
        </g>
        <svg viewBox="0 0 15 15" width="100%" height="30px" preserveAspectRatio="xMaxYMin meet">
         <g id="arrow_out" transform="scale(0.3 0.3)">
          <a xlink:href="_ui_scene_8h__dep__incl_org.svg" target="_base">
           <rect id="button" ry="5" rx="5" y="6" x="6" height="38" width="38"
                fill="#f2f5e9" fill-opacity="0.5" stroke="#606060" stroke-width="1.0"/>
           <path id="arrow"
             d="M 11.500037,31.436501 C 11.940474,20.09759 22.043105,11.32322 32.158766,21.979434 L 37.068811,17.246167 C 37.068811,17.246167 37.088388,32 37.088388,32 L 22.160133,31.978069 C 22.160133,31.978069 26.997745,27.140456 26.997745,27.140456 C 18.528582,18.264221 13.291696,25.230495 11.500037,31.436501 z"
             style="fill:#404040;"/>
          </a>
         </g>
        </svg>
</svg>
