<?xml version="1.0" encoding="UTF-8" standalone="no"?>
<!DOCTYPE svg PUBLIC "-//W3C//DTD SVG 1.1//EN"
 "http://www.w3.org/Graphics/SVG/1.1/DTD/svg11.dtd">
<!-- Generated by graphviz version 2.26.3 (20100126.1600)
 -->
<!-- Title: UiScene.cpp Pages: 1 -->
<svg width="340pt" height="262pt"
 viewBox="0.00 0.00 340.00 262.00" xmlns="http://www.w3.org/2000/svg" xmlns:xlink="http://www.w3.org/1999/xlink">
<g id="graph1" class="graph" transform="scale(1 1) rotate(0) translate(4 258)">
<title>UiScene.cpp</title>
<!-- Node1 -->
<g id="node1" class="node"><title>Node1</title>
<polygon fill="#bfbfbf" stroke="black" points="54,-233 54,-253 126,-253 126,-233 54,-233"/>
<text text-anchor="middle" x="90" y="-240" font-family="FreeSans" font-size="10.00">UiScene.cpp</text>
</g>
<!-- Node2 -->
<g id="node3" class="node"><title>Node2</title>
<polygon fill="none" stroke="#bfbfbf" points="26.5,-175 26.5,-195 79.5,-195 79.5,-175 26.5,-175"/>
<text text-anchor="middle" x="53" y="-182" font-family="FreeSans" font-size="10.00">StdAfx.h</text>
</g>
<!-- Node1&#45;&gt;Node2 -->
<g id="edge2" class="edge"><title>Node1&#45;&gt;Node2</title>
<path fill="none" stroke="midnightblue" d="M83.5551,-232.897C78.4715,-224.928 71.2368,-213.587 65.0832,-203.941"/>
<polygon fill="midnightblue" stroke="midnightblue" points="67.9491,-201.926 59.6202,-195.378 62.0477,-205.691 67.9491,-201.926"/>
</g>
<!-- Node3 -->
<g id="node5" class="node"><title>Node3</title>
<a xlink:href="_ui_scene_8h.html" target="_top" xlink:title="UiScene.h">
<polygon fill="none" stroke="black" points="97,-175 97,-195 159,-195 159,-175 97,-175"/>
<text text-anchor="middle" x="128" y="-182" font-family="FreeSans" font-size="10.00">UiScene.h</text>
</a>
</g>
<!-- Node1&#45;&gt;Node3 -->
<g id="edge4" class="edge"><title>Node1&#45;&gt;Node3</title>
<path fill="none" stroke="midnightblue" d="M96.6191,-232.897C101.84,-224.928 109.27,-213.587 115.59,-203.941"/>
<polygon fill="midnightblue" stroke="midnightblue" points="118.648,-205.66 121.201,-195.378 112.793,-201.824 118.648,-205.66"/>
</g>
<!-- Node4 -->
<g id="node7" class="node"><title>Node4</title>
<a xlink:href="_scene_8h.html" target="_top" xlink:title="Scene.h">
<polygon fill="none" stroke="black" points="102,-117 102,-137 154,-137 154,-117 102,-117"/>
<text text-anchor="middle" x="128" y="-124" font-family="FreeSans" font-size="10.00">Scene.h</text>
</a>
</g>
<!-- Node3&#45;&gt;Node4 -->
<g id="edge6" class="edge"><title>Node3&#45;&gt;Node4</title>
<path fill="none" stroke="midnightblue" d="M128,-174.897C128,-167.339 128,-156.748 128,-147.446"/>
<polygon fill="midnightblue" stroke="midnightblue" points="131.5,-147.378 128,-137.378 124.5,-147.378 131.5,-147.378"/>
</g>
<!-- Node5 -->
<g id="node9" class="node"><title>Node5</title>
<a xlink:href="_o_s_8h.html" target="_top" xlink:title="../../engine/Util/OS.h">
<polygon fill="none" stroke="black" points="76.5,-59 76.5,-79 179.5,-79 179.5,-59 76.5,-59"/>
<text text-anchor="middle" x="128" y="-66" font-family="FreeSans" font-size="10.00">../../engine/Util/OS.h</text>
</a>
</g>
<!-- Node4&#45;&gt;Node5 -->
<g id="edge8" class="edge"><title>Node4&#45;&gt;Node5</title>
<path fill="none" stroke="midnightblue" d="M128,-116.897C128,-109.339 128,-98.7476 128,-89.4458"/>
<polygon fill="midnightblue" stroke="midnightblue" points="131.5,-89.3776 128,-79.3776 124.5,-89.3776 131.5,-89.3776"/>
</g>
<!-- Node6 -->
<g id="node11" class="node"><title>Node6</title>
<polygon fill="none" stroke="#bfbfbf" points="0,-1 0,-21 42,-21 42,-1 0,-1"/>
<text text-anchor="middle" x="21" y="-8" font-family="FreeSans" font-size="10.00">locale</text>
</g>
<!-- Node5&#45;&gt;Node6 -->
<g id="edge10" class="edge"><title>Node5&#45;&gt;Node6</title>
<path fill="none" stroke="midnightblue" d="M109.362,-58.8972C92.5876,-49.8045 67.7143,-36.3218 48.6276,-25.9757"/>
<polygon fill="midnightblue" stroke="midnightblue" points="50.2428,-22.8702 39.7834,-21.1817 46.907,-29.0242 50.2428,-22.8702"/>
</g>
<!-- Node7 -->
<g id="node13" class="node"><title>Node7</title>
<polygon fill="none" stroke="#bfbfbf" points="60,-1 60,-21 90,-21 90,-1 60,-1"/>
<text text-anchor="middle" x="75" y="-8" font-family="FreeSans" font-size="10.00">set</text>
</g>
<!-- Node5&#45;&gt;Node7 -->
<g id="edge12" class="edge"><title>Node5&#45;&gt;Node7</title>
<path fill="none" stroke="midnightblue" d="M118.768,-58.8972C111.261,-50.6818 100.479,-38.8827 91.4951,-29.0513"/>
<polygon fill="midnightblue" stroke="midnightblue" points="93.8125,-26.3987 84.483,-21.3776 88.645,-31.1207 93.8125,-26.3987"/>
</g>
<!-- Node8 -->
<g id="node15" class="node"><title>Node8</title>
<polygon fill="none" stroke="#bfbfbf" points="107.5,-1 107.5,-21 148.5,-21 148.5,-1 107.5,-1"/>
<text text-anchor="middle" x="128" y="-8" font-family="FreeSans" font-size="10.00">string</text>
</g>
<!-- Node5&#45;&gt;Node8 -->
<g id="edge14" class="edge"><title>Node5&#45;&gt;Node8</title>
<path fill="none" stroke="midnightblue" d="M128,-58.8972C128,-51.339 128,-40.7476 128,-31.4458"/>
<polygon fill="midnightblue" stroke="midnightblue" points="131.5,-31.3776 128,-21.3776 124.5,-31.3776 131.5,-31.3776"/>
</g>
<!-- Node9 -->
<g id="node17" class="node"><title>Node9</title>
<polygon fill="none" stroke="#bfbfbf" points="166,-1 166,-21 210,-21 210,-1 166,-1"/>
<text text-anchor="middle" x="188" y="-8" font-family="FreeSans" font-size="10.00">vector</text>
</g>
<!-- Node5&#45;&gt;Node9 -->
<g id="edge16" class="edge"><title>Node5&#45;&gt;Node9</title>
<path fill="none" stroke="midnightblue" d="M138.451,-58.8972C147.12,-50.5175 159.646,-38.4093 169.934,-28.4638"/>
<polygon fill="midnightblue" stroke="midnightblue" points="172.507,-30.8443 177.265,-21.3776 167.642,-25.8114 172.507,-30.8443"/>
</g>
<!-- Node10 -->
<g id="node19" class="node"><title>Node10</title>
<polygon fill="none" stroke="#bfbfbf" points="227.5,-1 227.5,-21 332.5,-21 332.5,-1 227.5,-1"/>
<text text-anchor="middle" x="280" y="-8" font-family="FreeSans" font-size="10.00">boost/filesystem.hpp</text>
</g>
<!-- Node5&#45;&gt;Node10 -->
<g id="edge18" class="edge"><title>Node5&#45;&gt;Node10</title>
<path fill="none" stroke="midnightblue" d="M154.476,-58.8972C179.248,-49.4449 216.452,-35.2486 243.93,-24.7635"/>
<polygon fill="midnightblue" stroke="midnightblue" points="245.477,-27.9193 253.572,-21.0842 242.982,-21.3793 245.477,-27.9193"/>
</g>
</g>
</svg>
