<?xml version="1.0" encoding="UTF-8" standalone="no"?>
<!DOCTYPE svg PUBLIC "-//W3C//DTD SVG 1.1//EN"
 "http://www.w3.org/Graphics/SVG/1.1/DTD/svg11.dtd">
<!-- Generated by graphviz version 2.26.3 (20100126.1600)
 -->
<!-- Title: UiFont.h Pages: 1 -->
<svg width="1090pt" height="146pt"
 viewBox="0.00 0.00 1090.00 146.00" xmlns="http://www.w3.org/2000/svg" xmlns:xlink="http://www.w3.org/1999/xlink">
<g id="graph1" class="graph" transform="scale(1 1) rotate(0) translate(4 142)">
<title>UiFont.h</title>
<!-- Node1 -->
<g id="node1" class="node"><title>Node1</title>
<polygon fill="#bfbfbf" stroke="black" points="839.5,-117 839.5,-137 892.5,-137 892.5,-117 839.5,-117"/>
<text text-anchor="middle" x="866" y="-124" font-family="FreeSans" font-size="10.00">UiFont.h</text>
</g>
<!-- Node2 -->
<g id="node3" class="node"><title>Node2</title>
<a xlink:href="_label_8h.html" target="_top" xlink:title="Label.h">
<polygon fill="none" stroke="black" points="605,-59 605,-79 653,-79 653,-59 605,-59"/>
<text text-anchor="middle" x="629" y="-66" font-family="FreeSans" font-size="10.00">Label.h</text>
</a>
</g>
<!-- Node1&#45;&gt;Node2 -->
<g id="edge2" class="edge"><title>Node1&#45;&gt;Node2</title>
<path fill="none" stroke="midnightblue" d="M829.4,-118.043C780.388,-106.049 694.789,-85.1003 653.139,-74.9075"/>
<polygon fill="midnightblue" stroke="midnightblue" points="828.728,-121.482 839.274,-120.459 830.392,-114.683 828.728,-121.482"/>
</g>
<!-- Node11 -->
<g id="node21" class="node"><title>Node11</title>
<a xlink:href="_button_8cpp.html" target="_top" xlink:title="Button.cpp">
<polygon fill="none" stroke="black" points="1019.5,-1 1019.5,-21 1082.5,-21 1082.5,-1 1019.5,-1"/>
<text text-anchor="middle" x="1051" y="-8" font-family="FreeSans" font-size="10.00">Button.cpp</text>
</a>
</g>
<!-- Node1&#45;&gt;Node11 -->
<g id="edge24" class="edge"><title>Node1&#45;&gt;Node11</title>
<path fill="none" stroke="midnightblue" d="M866.464,-106.494C867.906,-91.1795 872.32,-70.7715 885,-58 886.213,-56.7778 971.438,-33.0322 1019.28,-19.772"/>
<polygon fill="midnightblue" stroke="midnightblue" points="862.965,-106.373 865.863,-116.563 869.953,-106.79 862.965,-106.373"/>
</g>
<!-- Node13 -->
<g id="node26" class="node"><title>Node13</title>
<a xlink:href="_ui_font_8cpp.html" target="_top" xlink:title="UiFont.cpp">
<polygon fill="none" stroke="black" points="894,-59 894,-79 958,-79 958,-59 894,-59"/>
<text text-anchor="middle" x="926" y="-66" font-family="FreeSans" font-size="10.00">UiFont.cpp</text>
</a>
</g>
<!-- Node1&#45;&gt;Node13 -->
<g id="edge26" class="edge"><title>Node1&#45;&gt;Node13</title>
<path fill="none" stroke="midnightblue" d="M883.731,-109.86C893.97,-99.9622 906.513,-87.8377 915.265,-79.3776"/>
<polygon fill="midnightblue" stroke="midnightblue" points="881.209,-107.43 876.451,-116.897 886.074,-112.463 881.209,-107.43"/>
</g>
<!-- Node3 -->
<g id="node5" class="node"><title>Node3</title>
<a xlink:href="_client_app_8cpp.html" target="_top" xlink:title="ClientApp.cpp">
<polygon fill="none" stroke="black" points="-0.5,-1 -0.5,-21 76.5,-21 76.5,-1 -0.5,-1"/>
<text text-anchor="middle" x="38" y="-8" font-family="FreeSans" font-size="10.00">ClientApp.cpp</text>
</a>
</g>
<!-- Node2&#45;&gt;Node3 -->
<g id="edge4" class="edge"><title>Node2&#45;&gt;Node3</title>
<path fill="none" stroke="midnightblue" d="M594.755,-67.7512C508.629,-64.2405 276.221,-52.4755 85,-22 82.269,-21.5648 79.4611,-21.0589 76.6415,-20.508"/>
<polygon fill="midnightblue" stroke="midnightblue" points="594.858,-71.2579 604.989,-68.1571 595.135,-64.2634 594.858,-71.2579"/>
</g>
<!-- Node4 -->
<g id="node7" class="node"><title>Node4</title>
<a xlink:href="_main_menu_scene_8cpp.html" target="_top" xlink:title="MainMenuScene.cpp">
<polygon fill="none" stroke="black" points="93.5,-1 93.5,-21 200.5,-21 200.5,-1 93.5,-1"/>
<text text-anchor="middle" x="147" y="-8" font-family="FreeSans" font-size="10.00">MainMenuScene.cpp</text>
</a>
</g>
<!-- Node2&#45;&gt;Node4 -->
<g id="edge6" class="edge"><title>Node2&#45;&gt;Node4</title>
<path fill="none" stroke="midnightblue" d="M594.515,-65.8968C522.64,-59.2626 351.633,-42.6119 209,-22 206.295,-21.6091 203.527,-21.1897 200.734,-20.751"/>
<polygon fill="midnightblue" stroke="midnightblue" points="594.506,-69.4105 604.783,-66.8385 595.145,-62.4397 594.506,-69.4105"/>
</g>
<!-- Node5 -->
<g id="node9" class="node"><title>Node5</title>
<a xlink:href="_message_scene_8cpp.html" target="_top" xlink:title="MessageScene.cpp">
<polygon fill="none" stroke="black" points="218,-1 218,-21 320,-21 320,-1 218,-1"/>
<text text-anchor="middle" x="269" y="-8" font-family="FreeSans" font-size="10.00">MessageScene.cpp</text>
</a>
</g>
<!-- Node2&#45;&gt;Node5 -->
<g id="edge8" class="edge"><title>Node2&#45;&gt;Node5</title>
<path fill="none" stroke="midnightblue" d="M594.825,-63.9406C539.092,-55.6235 425.188,-38.3491 329,-22 326.077,-21.5031 323.075,-20.9833 320.047,-20.4516"/>
<polygon fill="midnightblue" stroke="midnightblue" points="594.449,-67.4232 604.856,-65.4345 595.48,-60.4995 594.449,-67.4232"/>
</g>
<!-- Node6 -->
<g id="node11" class="node"><title>Node6</title>
<a xlink:href="_palette_scene_8cpp.html" target="_top" xlink:title="PaletteScene.cpp">
<polygon fill="none" stroke="black" points="337.5,-1 337.5,-21 430.5,-21 430.5,-1 337.5,-1"/>
<text text-anchor="middle" x="384" y="-8" font-family="FreeSans" font-size="10.00">PaletteScene.cpp</text>
</a>
</g>
<!-- Node2&#45;&gt;Node6 -->
<g id="edge10" class="edge"><title>Node2&#45;&gt;Node6</title>
<path fill="none" stroke="midnightblue" d="M594.684,-60.8761C550.679,-50.4587 474.372,-32.3943 426.671,-21.1018"/>
<polygon fill="midnightblue" stroke="midnightblue" points="594.075,-64.3288 604.613,-63.2267 595.688,-57.5171 594.075,-64.3288"/>
</g>
<!-- Node7 -->
<g id="node13" class="node"><title>Node7</title>
<a xlink:href="_pause_menu_scene_8cpp.html" target="_top" xlink:title="PauseMenuScene.cpp">
<polygon fill="none" stroke="black" points="448,-1 448,-21 562,-21 562,-1 448,-1"/>
<text text-anchor="middle" x="505" y="-8" font-family="FreeSans" font-size="10.00">PauseMenuScene.cpp</text>
</a>
</g>
<!-- Node2&#45;&gt;Node7 -->
<g id="edge12" class="edge"><title>Node2&#45;&gt;Node7</title>
<path fill="none" stroke="midnightblue" d="M598.074,-54.5345C575.882,-44.1545 546.527,-30.424 526.768,-21.1817"/>
<polygon fill="midnightblue" stroke="midnightblue" points="596.86,-57.8306 607.401,-58.8972 599.826,-51.4899 596.86,-57.8306"/>
</g>
<!-- Node8 -->
<g id="node15" class="node"><title>Node8</title>
<a xlink:href="_test_lab_scene_8cpp.html" target="_top" xlink:title="TestLabScene.cpp">
<polygon fill="none" stroke="black" points="580,-1 580,-21 678,-21 678,-1 580,-1"/>
<text text-anchor="middle" x="629" y="-8" font-family="FreeSans" font-size="10.00">TestLabScene.cpp</text>
</a>
</g>
<!-- Node2&#45;&gt;Node8 -->
<g id="edge14" class="edge"><title>Node2&#45;&gt;Node8</title>
<path fill="none" stroke="midnightblue" d="M629,-48.8902C629,-39.6201 629,-29.0083 629,-21.3776"/>
<polygon fill="midnightblue" stroke="midnightblue" points="625.5,-48.8971 629,-58.8972 632.5,-48.8972 625.5,-48.8971"/>
</g>
<!-- Node9 -->
<g id="node17" class="node"><title>Node9</title>
<a xlink:href="_track_select_scene_8cpp.html" target="_top" xlink:title="TrackSelectScene.cpp">
<polygon fill="none" stroke="black" points="695.5,-1 695.5,-21 810.5,-21 810.5,-1 695.5,-1"/>
<text text-anchor="middle" x="753" y="-8" font-family="FreeSans" font-size="10.00">TrackSelectScene.cpp</text>
</a>
</g>
<!-- Node2&#45;&gt;Node9 -->
<g id="edge16" class="edge"><title>Node2&#45;&gt;Node9</title>
<path fill="none" stroke="midnightblue" d="M659.926,-54.5345C682.118,-44.1545 711.473,-30.424 731.232,-21.1817"/>
<polygon fill="midnightblue" stroke="midnightblue" points="658.174,-51.4899 650.599,-58.8972 661.14,-57.8306 658.174,-51.4899"/>
</g>
<!-- Node10 -->
<g id="node19" class="node"><title>Node10</title>
<a xlink:href="_console_scene_8cpp.html" target="_top" xlink:title="ConsoleScene.cpp">
<polygon fill="none" stroke="black" points="828,-1 828,-21 926,-21 926,-1 828,-1"/>
<text text-anchor="middle" x="877" y="-8" font-family="FreeSans" font-size="10.00">ConsoleScene.cpp</text>
</a>
</g>
<!-- Node2&#45;&gt;Node10 -->
<g id="edge18" class="edge"><title>Node2&#45;&gt;Node10</title>
<path fill="none" stroke="midnightblue" d="M662.991,-61.0506C707.495,-50.6422 785.539,-32.39 834.076,-21.0387"/>
<polygon fill="midnightblue" stroke="midnightblue" points="662.171,-57.6477 653.231,-63.3331 663.765,-64.4638 662.171,-57.6477"/>
</g>
<!-- Node2&#45;&gt;Node11 -->
<g id="edge20" class="edge"><title>Node2&#45;&gt;Node11</title>
<path fill="none" stroke="midnightblue" d="M663.363,-66.4641C730.6,-61.1299 884.072,-47.1214 1011,-22 1013.68,-21.4686 1016.45,-20.8526 1019.22,-20.1889"/>
<polygon fill="midnightblue" stroke="midnightblue" points="663.027,-62.9795 653.329,-67.246 663.571,-69.9583 663.027,-62.9795"/>
</g>
<!-- Node12 -->
<g id="node23" class="node"><title>Node12</title>
<a xlink:href="_label_8cpp.html" target="_top" xlink:title="Label.cpp">
<polygon fill="none" stroke="black" points="943.5,-1 943.5,-21 1002.5,-21 1002.5,-1 943.5,-1"/>
<text text-anchor="middle" x="973" y="-8" font-family="FreeSans" font-size="10.00">Label.cpp</text>
</a>
</g>
<!-- Node2&#45;&gt;Node12 -->
<g id="edge22" class="edge"><title>Node2&#45;&gt;Node12</title>
<path fill="none" stroke="midnightblue" d="M663.217,-65.2106C720.061,-58.5884 837.369,-43.5338 935,-22 937.683,-21.4083 940.455,-20.7329 943.223,-20.0145"/>
<polygon fill="midnightblue" stroke="midnightblue" points="662.536,-61.7657 653.001,-66.3853 663.335,-68.7199 662.536,-61.7657"/>
</g>
</g>
</svg>
