<?xml version="1.0" encoding="UTF-8" standalone="no"?>
<!DOCTYPE svg PUBLIC "-//W3C//DTD SVG 1.1//EN"
 "http://www.w3.org/Graphics/SVG/1.1/DTD/svg11.dtd">
<!-- Generated by graphviz version 2.26.3 (20100126.1600)
 -->
<!-- Title: UiScene.h Pages: 1 -->
<!--zoomable 320 -->
<svg id="main" version="1.1" xmlns="http://www.w3.org/2000/svg" xmlns:xlink="http://www.w3.org/1999/xlink" xml:space="preserve" onload="init(evt)">
<style type="text/css"><![CDATA[
.edge:hover path { stroke: red; }
.edge:hover polygon { stroke: red; fill: red; }
]]></style>
<script type="text/javascript"><![CDATA[
var edges = document.getElementsByTagName('g');
if (edges && edges.length) {
  for (var i=0;i<edges.length;i++) {
    if (edges[i].id.substr(0,4)=='edge') {
      edges[i].setAttribute('class','edge');
    }
  }
}
]]></script>
        <defs>
                <circle id="rim" cx="0" cy="0" r="7"/>
                <circle id="rim2" cx="0" cy="0" r="3.5"/>
                <g id="zoomPlus">
                        <use xlink:href="#rim" fill="#404040">
                                <set attributeName="fill" to="#808080" begin="zoomplus.mouseover" end="zoomplus.mouseout"/>
                        </use>
                        <path d="M-4,0h8M0,-4v8" fill="none" stroke="white" stroke-width="1.5" pointer-events="none"/>
                </g>
                <g id="zoomMin">
                        <use xlink:href="#rim" fill="#404040">
                                <set attributeName="fill" to="#808080" begin="zoomminus.mouseover" end="zoomminus.mouseout"/>
                        </use>
                        <path d="M-4,0h8" fill="none" stroke="white" stroke-width="1.5" pointer-events="none"/>
                </g>
                <g id="dirArrow">
                        <path fill="none" stroke="white" stroke-width="1.5" d="M0,-3.0v7 M-2.5,-0.5L0,-3.0L2.5,-0.5"/>
                </g>
               <g id="resetDef">
                       <use xlink:href="#rim2" fill="#404040">
                               <set attributeName="fill" to="#808080" begin="reset.mouseover" end="reset.mouseout"/>
                       </use>
               </g>
        </defs>

<script type="text/javascript">
var viewWidth = 2739;
var viewHeight = 320;
var sectionId = 'dynsection-1';
</script>
<script xlink:href="svgpan.js"/>
<svg id="graph" class="graph">
<g id="viewport">
<title>UiScene.h</title>
<!-- Node1 -->
<g id="node1" class="node"><title>Node1</title>
<polygon fill="#bfbfbf" stroke="black" points="2262,-291 2262,-311 2324,-311 2324,-291 2262,-291"/>
<text text-anchor="middle" x="2293" y="-298" font-family="FreeSans" font-size="10.00">UiScene.h</text>
</g>
<!-- Node2 -->
<g id="node3" class="node"><title>Node2</title>
<a xlink:href="_form_scene_8h.html" target="_top" xlink:title="FormScene.h">
<polygon fill="none" stroke="black" points="1556,-233 1556,-253 1630,-253 1630,-233 1556,-233"/>
<text text-anchor="middle" x="1593" y="-240" font-family="FreeSans" font-size="10.00">FormScene.h</text>
</a>
</g>
<!-- Node1&#45;&gt;Node2 -->
<g id="edge2" class="edge"><title>Node1&#45;&gt;Node2</title>
<path fill="none" stroke="midnightblue" d="M2251.56,-297.567C2125.84,-287.149 1749.99,-256.008 1630.15,-246.078"/>
<polygon fill="midnightblue" stroke="midnightblue" points="2251.31,-301.057 2261.56,-298.395 2251.89,-294.081 2251.31,-301.057"/>
</g>
<!-- Node37 -->
<g id="node90" class="node"><title>Node37</title>
<a xlink:href="_console_scene_8h.html" target="_top" xlink:title="ConsoleScene.h">
<polygon fill="none" stroke="black" points="1968.5,-233 1968.5,-253 2055.5,-253 2055.5,-233 1968.5,-233"/>
<text text-anchor="middle" x="2012" y="-240" font-family="FreeSans" font-size="10.00">ConsoleScene.h</text>
</a>
</g>
<!-- Node1&#45;&gt;Node37 -->
<g id="edge106" class="edge"><title>Node1&#45;&gt;Node37</title>
<path fill="none" stroke="midnightblue" d="M2251.9,-292.517C2199.51,-281.703 2109.31,-263.086 2055.7,-252.02"/>
<polygon fill="midnightblue" stroke="midnightblue" points="2251.35,-295.978 2261.85,-294.571 2252.77,-289.122 2251.35,-295.978"/>
</g>
<!-- Node39 -->
<g id="node95" class="node"><title>Node39</title>
<a xlink:href="_game_scene_8h.html" target="_top" xlink:title="GameScene.h">
<polygon fill="none" stroke="black" points="2198,-233 2198,-253 2276,-253 2276,-233 2198,-233"/>
<text text-anchor="middle" x="2237" y="-240" font-family="FreeSans" font-size="10.00">GameScene.h</text>
</a>
</g>
<!-- Node1&#45;&gt;Node39 -->
<g id="edge112" class="edge"><title>Node1&#45;&gt;Node39</title>
<path fill="none" stroke="midnightblue" d="M2276.17,-283.568C2266.67,-273.725 2255.11,-261.755 2247.02,-253.378"/>
<polygon fill="midnightblue" stroke="midnightblue" points="2273.78,-286.134 2283.25,-290.897 2278.82,-281.272 2273.78,-286.134"/>
</g>
<!-- Node44 -->
<g id="node108" class="node"><title>Node44</title>
<a xlink:href="_status_overlay_scene_8h.html" target="_top" xlink:title="StatusOverlayScene.h">
<polygon fill="none" stroke="black" points="2293.5,-233 2293.5,-253 2406.5,-253 2406.5,-233 2293.5,-233"/>
<text text-anchor="middle" x="2350" y="-240" font-family="FreeSans" font-size="10.00">StatusOverlayScene.h</text>
</a>
</g>
<!-- Node1&#45;&gt;Node44 -->
<g id="edge128" class="edge"><title>Node1&#45;&gt;Node44</title>
<path fill="none" stroke="midnightblue" d="M2310.13,-283.568C2319.8,-273.725 2331.57,-261.755 2339.8,-253.378"/>
<polygon fill="midnightblue" stroke="midnightblue" points="2307.44,-281.312 2302.93,-290.897 2312.43,-286.218 2307.44,-281.312"/>
</g>
<!-- Node46 -->
<g id="node113" class="node"><title>Node46</title>
<a xlink:href="_palette_scene_8h.html" target="_top" xlink:title="PaletteScene.h">
<polygon fill="none" stroke="black" points="2496.5,-233 2496.5,-253 2579.5,-253 2579.5,-233 2496.5,-233"/>
<text text-anchor="middle" x="2538" y="-240" font-family="FreeSans" font-size="10.00">PaletteScene.h</text>
</a>
</g>
<!-- Node1&#45;&gt;Node46 -->
<g id="edge134" class="edge"><title>Node1&#45;&gt;Node46</title>
<path fill="none" stroke="midnightblue" d="M2334.03,-291.286C2379.03,-280.634 2450.86,-263.629 2496.17,-252.902"/>
<polygon fill="midnightblue" stroke="midnightblue" points="2332.95,-287.945 2324.03,-293.654 2334.57,-294.756 2332.95,-287.945"/>
</g>
<!-- Node48 -->
<g id="node118" class="node"><title>Node48</title>
<a xlink:href="_ui_scene_8cpp.html" target="_top" xlink:title="UiScene.cpp">
<polygon fill="none" stroke="black" points="2597,-233 2597,-253 2669,-253 2669,-233 2597,-233"/>
<text text-anchor="middle" x="2633" y="-240" font-family="FreeSans" font-size="10.00">UiScene.cpp</text>
</a>
</g>
<!-- Node1&#45;&gt;Node48 -->
<g id="edge140" class="edge"><title>Node1&#45;&gt;Node48</title>
<path fill="none" stroke="midnightblue" d="M2334.25,-295.514C2391.46,-287.658 2498.02,-272.133 2588,-254 2590.84,-253.428 2593.77,-252.799 2596.71,-252.141"/>
<polygon fill="midnightblue" stroke="midnightblue" points="2333.59,-292.071 2324.15,-296.89 2334.54,-299.007 2333.59,-292.071"/>
</g>
<!-- Node3 -->
<g id="node5" class="node"><title>Node3</title>
<a xlink:href="_dialog_scene_8h.html" target="_top" xlink:title="DialogScene.h">
<polygon fill="none" stroke="black" points="681.5,-175 681.5,-195 760.5,-195 760.5,-175 681.5,-175"/>
<text text-anchor="middle" x="721" y="-182" font-family="FreeSans" font-size="10.00">DialogScene.h</text>
</a>
</g>
<!-- Node2&#45;&gt;Node3 -->
<g id="edge4" class="edge"><title>Node2&#45;&gt;Node3</title>
<path fill="none" stroke="midnightblue" d="M1545.7,-239.854C1391.23,-229.58 903.342,-197.128 760.597,-187.634"/>
<polygon fill="midnightblue" stroke="midnightblue" points="1545.6,-243.355 1555.81,-240.526 1546.06,-236.37 1545.6,-243.355"/>
</g>
<!-- Node22 -->
<g id="node49" class="node"><title>Node22</title>
<a xlink:href="_loading_scene_8h.html" target="_top" xlink:title="LoadingScene.h">
<polygon fill="none" stroke="black" points="1601,-175 1601,-195 1687,-195 1687,-175 1601,-175"/>
<text text-anchor="middle" x="1644" y="-182" font-family="FreeSans" font-size="10.00">LoadingScene.h</text>
</a>
</g>
<!-- Node2&#45;&gt;Node22 -->
<g id="edge54" class="edge"><title>Node2&#45;&gt;Node22</title>
<path fill="none" stroke="midnightblue" d="M1608.59,-225.275C1617.19,-215.488 1627.58,-203.672 1634.87,-195.378"/>
<polygon fill="midnightblue" stroke="midnightblue" points="1605.86,-223.076 1601.88,-232.897 1611.12,-227.699 1605.86,-223.076"/>
</g>
<!-- Node27 -->
<g id="node60" class="node"><title>Node27</title>
<a xlink:href="_main_menu_scene_8h.html" target="_top" xlink:title="MainMenuScene.h">
<polygon fill="none" stroke="black" points="1704.5,-175 1704.5,-195 1801.5,-195 1801.5,-175 1704.5,-175"/>
<text text-anchor="middle" x="1753" y="-182" font-family="FreeSans" font-size="10.00">MainMenuScene.h</text>
</a>
</g>
<!-- Node2&#45;&gt;Node27 -->
<g id="edge66" class="edge"><title>Node2&#45;&gt;Node27</title>
<path fill="none" stroke="midnightblue" d="M1630.65,-229.354C1659.62,-218.85 1699.01,-204.572 1725.18,-195.084"/>
<polygon fill="midnightblue" stroke="midnightblue" points="1629.08,-226.199 1620.87,-232.897 1631.46,-232.78 1629.08,-226.199"/>
</g>
<!-- Node28 -->
<g id="node64" class="node"><title>Node28</title>
<a xlink:href="_message_scene_8h.html" target="_top" xlink:title="MessageScene.h">
<polygon fill="none" stroke="black" points="1267,-175 1267,-195 1359,-195 1359,-175 1267,-175"/>
<text text-anchor="middle" x="1313" y="-182" font-family="FreeSans" font-size="10.00">MessageScene.h</text>
</a>
</g>
<!-- Node2&#45;&gt;Node28 -->
<g id="edge72" class="edge"><title>Node2&#45;&gt;Node28</title>
<path fill="none" stroke="midnightblue" d="M1545.85,-233.234C1493.87,-222.466 1410.79,-205.256 1359.19,-194.568"/>
<polygon fill="midnightblue" stroke="midnightblue" points="1545.32,-236.697 1555.82,-235.298 1546.74,-229.842 1545.32,-236.697"/>
</g>
<!-- Node32 -->
<g id="node77" class="node"><title>Node32</title>
<a xlink:href="_test_lab_scene_8h.html" target="_top" xlink:title="TestLabScene.h">
<polygon fill="none" stroke="black" points="1819,-175 1819,-195 1907,-195 1907,-175 1819,-175"/>
<text text-anchor="middle" x="1863" y="-182" font-family="FreeSans" font-size="10.00">TestLabScene.h</text>
</a>
</g>
<!-- Node2&#45;&gt;Node32 -->
<g id="edge90" class="edge"><title>Node2&#45;&gt;Node32</title>
<path fill="none" stroke="midnightblue" d="M1640.25,-232.851C1690.64,-222.025 1769.83,-205.014 1818.97,-194.459"/>
<polygon fill="midnightblue" stroke="midnightblue" points="1639.3,-229.474 1630.26,-234.996 1640.77,-236.318 1639.3,-229.474"/>
</g>
<!-- Node34 -->
<g id="node83" class="node"><title>Node34</title>
<a xlink:href="_form_scene_8cpp.html" target="_top" xlink:title="FormScene.cpp">
<polygon fill="none" stroke="black" points="1498.5,-175 1498.5,-195 1583.5,-195 1583.5,-175 1498.5,-175"/>
<text text-anchor="middle" x="1541" y="-182" font-family="FreeSans" font-size="10.00">FormScene.cpp</text>
</a>
</g>
<!-- Node2&#45;&gt;Node34 -->
<g id="edge98" class="edge"><title>Node2&#45;&gt;Node34</title>
<path fill="none" stroke="midnightblue" d="M1577.11,-225.275C1568.33,-215.488 1557.74,-203.672 1550.3,-195.378"/>
<polygon fill="midnightblue" stroke="midnightblue" points="1574.66,-227.788 1583.94,-232.897 1579.87,-223.115 1574.66,-227.788"/>
</g>
<!-- Node35 -->
<g id="node85" class="node"><title>Node35</title>
<a xlink:href="_pause_menu_scene_8h.html" target="_top" xlink:title="PauseMenuScene.h">
<polygon fill="none" stroke="black" points="1377,-175 1377,-195 1481,-195 1481,-175 1377,-175"/>
<text text-anchor="middle" x="1429" y="-182" font-family="FreeSans" font-size="10.00">PauseMenuScene.h</text>
</a>
</g>
<!-- Node2&#45;&gt;Node35 -->
<g id="edge100" class="edge"><title>Node2&#45;&gt;Node35</title>
<path fill="none" stroke="midnightblue" d="M1554.8,-229.491C1525.07,-218.975 1484.46,-204.613 1457.51,-195.084"/>
<polygon fill="midnightblue" stroke="midnightblue" points="1553.84,-232.863 1564.43,-232.897 1556.17,-226.263 1553.84,-232.863"/>
</g>
<!-- Node4 -->
<g id="node7" class="node"><title>Node4</title>
<a xlink:href="_settings_scene_8h.html" target="_top" xlink:title="SettingsScene.h">
<polygon fill="none" stroke="black" points="203,-117 203,-137 291,-137 291,-117 203,-117"/>
<text text-anchor="middle" x="247" y="-124" font-family="FreeSans" font-size="10.00">SettingsScene.h</text>
</a>
</g>
<!-- Node3&#45;&gt;Node4 -->
<g id="edge6" class="edge"><title>Node3&#45;&gt;Node4</title>
<path fill="none" stroke="midnightblue" d="M671.418,-178.933C578.575,-167.572 379.895,-143.261 291.266,-132.417"/>
<polygon fill="midnightblue" stroke="midnightblue" points="671.051,-182.414 681.402,-180.155 671.901,-175.466 671.051,-182.414"/>
</g>
<!-- Node11 -->
<g id="node22" class="node"><title>Node11</title>
<a xlink:href="_dialog_scene_8cpp.html" target="_top" xlink:title="DialogScene.cpp">
<polygon fill="none" stroke="black" points="735.5,-117 735.5,-137 824.5,-137 824.5,-117 735.5,-117"/>
<text text-anchor="middle" x="780" y="-124" font-family="FreeSans" font-size="10.00">DialogScene.cpp</text>
</a>
</g>
<!-- Node3&#45;&gt;Node11 -->
<g id="edge22" class="edge"><title>Node3&#45;&gt;Node11</title>
<path fill="none" stroke="midnightblue" d="M738.436,-167.86C748.504,-157.962 760.838,-145.838 769.443,-137.378"/>
<polygon fill="midnightblue" stroke="midnightblue" points="735.955,-165.391 731.277,-174.897 740.862,-170.383 735.955,-165.391"/>
</g>
<!-- Node12 -->
<g id="node24" class="node"><title>Node12</title>
<a xlink:href="_display_select_scene_8h.html" target="_top" xlink:title="DisplaySelectScene.h">
<polygon fill="none" stroke="black" points="879.5,-117 879.5,-137 990.5,-137 990.5,-117 879.5,-117"/>
<text text-anchor="middle" x="935" y="-124" font-family="FreeSans" font-size="10.00">DisplaySelectScene.h</text>
</a>
</g>
<!-- Node3&#45;&gt;Node12 -->
<g id="edge24" class="edge"><title>Node3&#45;&gt;Node12</title>
<path fill="none" stroke="midnightblue" d="M768.334,-172.171C807.331,-161.602 861.87,-146.82 897.793,-137.084"/>
<polygon fill="midnightblue" stroke="midnightblue" points="767.012,-168.903 758.276,-174.897 768.843,-175.659 767.012,-168.903"/>
</g>
<!-- Node14 -->
<g id="node29" class="node"><title>Node14</title>
<a xlink:href="_track_select_scene_8h.html" target="_top" xlink:title="TrackSelectScene.h">
<polygon fill="none" stroke="black" points="360,-117 360,-137 464,-137 464,-117 360,-117"/>
<text text-anchor="middle" x="412" y="-124" font-family="FreeSans" font-size="10.00">TrackSelectScene.h</text>
</a>
</g>
<!-- Node3&#45;&gt;Node14 -->
<g id="edge30" class="edge"><title>Node3&#45;&gt;Node14</title>
<path fill="none" stroke="midnightblue" d="M671.062,-175.627C614.274,-164.967 521.976,-147.643 464.246,-136.807"/>
<polygon fill="midnightblue" stroke="midnightblue" points="670.762,-179.131 681.236,-177.536 672.054,-172.251 670.762,-179.131"/>
</g>
<!-- Node17 -->
<g id="node35" class="node"><title>Node17</title>
<a xlink:href="_game_select_scene_8h.html" target="_top" xlink:title="GameSelectScene.h">
<polygon fill="none" stroke="black" points="482,-117 482,-137 588,-137 588,-117 482,-117"/>
<text text-anchor="middle" x="535" y="-124" font-family="FreeSans" font-size="10.00">GameSelectScene.h</text>
</a>
</g>
<!-- Node3&#45;&gt;Node17 -->
<g id="edge36" class="edge"><title>Node3&#45;&gt;Node17</title>
<path fill="none" stroke="midnightblue" d="M678.991,-171.9C645.159,-161.351 598.296,-146.737 567.339,-137.084"/>
<polygon fill="midnightblue" stroke="midnightblue" points="678.013,-175.262 688.601,-174.897 680.097,-168.579 678.013,-175.262"/>
</g>
<!-- Node19 -->
<g id="node40" class="node"><title>Node19</title>
<a xlink:href="_practice_setup_scene_8h.html" target="_top" xlink:title="PracticeSetupScene.h">
<polygon fill="none" stroke="black" points="1045.5,-117 1045.5,-137 1158.5,-137 1158.5,-117 1045.5,-117"/>
<text text-anchor="middle" x="1102" y="-124" font-family="FreeSans" font-size="10.00">PracticeSetupScene.h</text>
</a>
</g>
<!-- Node3&#45;&gt;Node19 -->
<g id="edge42" class="edge"><title>Node3&#45;&gt;Node19</title>
<path fill="none" stroke="midnightblue" d="M770.704,-177.434C841.521,-166.653 971.096,-146.928 1045.48,-135.604"/>
<polygon fill="midnightblue" stroke="midnightblue" points="770.055,-173.992 760.695,-178.957 771.108,-180.912 770.055,-173.992"/>
</g>
<!-- Node21 -->
<g id="node45" class="node"><title>Node21</title>
<a xlink:href="_settings_menu_scene_8h.html" target="_top" xlink:title="SettingsMenuScene.h">
<polygon fill="none" stroke="black" points="606,-117 606,-137 718,-137 718,-117 606,-117"/>
<text text-anchor="middle" x="662" y="-124" font-family="FreeSans" font-size="10.00">SettingsMenuScene.h</text>
</a>
</g>
<!-- Node3&#45;&gt;Node21 -->
<g id="edge48" class="edge"><title>Node3&#45;&gt;Node21</title>
<path fill="none" stroke="midnightblue" d="M703.564,-167.86C693.496,-157.962 681.162,-145.838 672.557,-137.378"/>
<polygon fill="midnightblue" stroke="midnightblue" points="701.138,-170.383 710.723,-174.897 706.045,-165.391 701.138,-170.383"/>
</g>
<!-- Node5 -->
<g id="node9" class="node"><title>Node5</title>
<a xlink:href="_audio_settings_scene_8h.html" target="_top" xlink:title="AudioSettingsScene.h">
<polygon fill="none" stroke="black" points="9.5,-59 9.5,-79 122.5,-79 122.5,-59 9.5,-59"/>
<text text-anchor="middle" x="66" y="-66" font-family="FreeSans" font-size="10.00">AudioSettingsScene.h</text>
</a>
</g>
<!-- Node4&#45;&gt;Node5 -->
<g id="edge8" class="edge"><title>Node4&#45;&gt;Node5</title>
<path fill="none" stroke="midnightblue" d="M205.696,-113.764C172.807,-103.225 127.465,-88.6959 97.4696,-79.0842"/>
<polygon fill="midnightblue" stroke="midnightblue" points="204.881,-117.179 215.472,-116.897 207.017,-110.512 204.881,-117.179"/>
</g>
<!-- Node8 -->
<g id="node15" class="node"><title>Node8</title>
<a xlink:href="_video_settings_scene_8h.html" target="_top" xlink:title="VideoSettingsScene.h">
<polygon fill="none" stroke="black" points="139.5,-59 139.5,-79 252.5,-79 252.5,-59 139.5,-59"/>
<text text-anchor="middle" x="196" y="-66" font-family="FreeSans" font-size="10.00">VideoSettingsScene.h</text>
</a>
</g>
<!-- Node4&#45;&gt;Node8 -->
<g id="edge14" class="edge"><title>Node4&#45;&gt;Node8</title>
<path fill="none" stroke="midnightblue" d="M231.414,-109.275C222.809,-99.4882 212.418,-87.6718 205.125,-79.3776"/>
<polygon fill="midnightblue" stroke="midnightblue" points="228.885,-111.699 238.116,-116.897 234.141,-107.076 228.885,-111.699"/>
</g>
<!-- Node10 -->
<g id="node20" class="node"><title>Node10</title>
<a xlink:href="_settings_scene_8cpp.html" target="_top" xlink:title="SettingsScene.cpp">
<polygon fill="none" stroke="black" points="270,-59 270,-79 368,-79 368,-59 270,-59"/>
<text text-anchor="middle" x="319" y="-66" font-family="FreeSans" font-size="10.00">SettingsScene.cpp</text>
</a>
</g>
<!-- Node4&#45;&gt;Node10 -->
<g id="edge20" class="edge"><title>Node4&#45;&gt;Node10</title>
<path fill="none" stroke="midnightblue" d="M267.558,-110.44C279.972,-100.439 295.409,-88.0036 306.117,-79.3776"/>
<polygon fill="midnightblue" stroke="midnightblue" points="265.133,-107.898 259.541,-116.897 269.525,-113.349 265.133,-107.898"/>
</g>
<!-- Node6 -->
<g id="node11" class="node"><title>Node6</title>
<a xlink:href="_audio_settings_scene_8cpp.html" target="_top" xlink:title="AudioSettingsScene.cpp">
<polygon fill="none" stroke="black" points="-0.5,-1 -0.5,-21 122.5,-21 122.5,-1 -0.5,-1"/>
<text text-anchor="middle" x="61" y="-8" font-family="FreeSans" font-size="10.00">AudioSettingsScene.cpp</text>
</a>
</g>
<!-- Node5&#45;&gt;Node6 -->
<g id="edge10" class="edge"><title>Node5&#45;&gt;Node6</title>
<path fill="none" stroke="midnightblue" d="M64.2664,-48.8902C63.4673,-39.6201 62.5524,-29.0083 61.8946,-21.3776"/>
<polygon fill="midnightblue" stroke="midnightblue" points="60.783,-49.2348 65.1291,-58.8972 67.7572,-48.6335 60.783,-49.2348"/>
</g>
<!-- Node7 -->
<g id="node13" class="node"><title>Node7</title>
<a xlink:href="_settings_menu_scene_8cpp.html" target="_top" xlink:title="SettingsMenuScene.cpp">
<polygon fill="none" stroke="black" points="140,-1 140,-21 262,-21 262,-1 140,-1"/>
<text text-anchor="middle" x="201" y="-8" font-family="FreeSans" font-size="10.00">SettingsMenuScene.cpp</text>
</a>
</g>
<!-- Node5&#45;&gt;Node7 -->
<g id="edge12" class="edge"><title>Node5&#45;&gt;Node7</title>
<path fill="none" stroke="midnightblue" d="M99.0215,-54.813C123.256,-44.4012 155.596,-30.5069 177.301,-21.1817"/>
<polygon fill="midnightblue" stroke="midnightblue" points="97.3215,-51.7339 89.5152,-58.8972 100.085,-58.1655 97.3215,-51.7339"/>
</g>
<!-- Node8&#45;&gt;Node7 -->
<g id="edge16" class="edge"><title>Node8&#45;&gt;Node7</title>
<path fill="none" stroke="midnightblue" d="M197.734,-48.8902C198.533,-39.6201 199.448,-29.0083 200.105,-21.3776"/>
<polygon fill="midnightblue" stroke="midnightblue" points="194.243,-48.6335 196.871,-58.8972 201.217,-49.2348 194.243,-48.6335"/>
</g>
<!-- Node9 -->
<g id="node18" class="node"><title>Node9</title>
<a xlink:href="_video_settings_scene_8cpp.html" target="_top" xlink:title="VideoSettingsScene.cpp">
<polygon fill="none" stroke="black" points="797.5,-1 797.5,-21 920.5,-21 920.5,-1 797.5,-1"/>
<text text-anchor="middle" x="859" y="-8" font-family="FreeSans" font-size="10.00">VideoSettingsScene.cpp</text>
</a>
</g>
<!-- Node8&#45;&gt;Node9 -->
<g id="edge18" class="edge"><title>Node8&#45;&gt;Node9</title>
<path fill="none" stroke="midnightblue" d="M262.83,-57.8553C463.763,-33.4103 690.38,-19.6801 797.266,-14.0319"/>
<polygon fill="midnightblue" stroke="midnightblue" points="262.175,-54.4094 252.677,-59.1025 263.029,-61.3572 262.175,-54.4094"/>
</g>
<!-- Node12&#45;&gt;Node9 -->
<g id="edge28" class="edge"><title>Node12&#45;&gt;Node9</title>
<path fill="none" stroke="midnightblue" d="M909.303,-111.074C898.213,-103.01 885.98,-92.3152 878,-80 865.973,-61.4397 861.485,-35.3311 859.867,-21.1442"/>
<polygon fill="midnightblue" stroke="midnightblue" points="907.627,-114.169 917.849,-116.957 911.596,-108.403 907.627,-114.169"/>
</g>
<!-- Node13 -->
<g id="node26" class="node"><title>Node13</title>
<a xlink:href="_display_select_scene_8cpp.html" target="_top" xlink:title="DisplaySelectScene.cpp">
<polygon fill="none" stroke="black" points="887,-59 887,-79 1009,-79 1009,-59 887,-59"/>
<text text-anchor="middle" x="948" y="-66" font-family="FreeSans" font-size="10.00">DisplaySelectScene.cpp</text>
</a>
</g>
<!-- Node12&#45;&gt;Node13 -->
<g id="edge26" class="edge"><title>Node12&#45;&gt;Node13</title>
<path fill="none" stroke="midnightblue" d="M939.507,-106.89C941.585,-97.6201 943.964,-87.0083 945.674,-79.3776"/>
<polygon fill="midnightblue" stroke="midnightblue" points="936.036,-106.374 937.264,-116.897 942.867,-107.905 936.036,-106.374"/>
</g>
<!-- Node15 -->
<g id="node31" class="node"><title>Node15</title>
<a xlink:href="_game_select_scene_8cpp.html" target="_top" xlink:title="GameSelectScene.cpp">
<polygon fill="none" stroke="black" points="518,-59 518,-79 634,-79 634,-59 518,-59"/>
<text text-anchor="middle" x="576" y="-66" font-family="FreeSans" font-size="10.00">GameSelectScene.cpp</text>
</a>
</g>
<!-- Node14&#45;&gt;Node15 -->
<g id="edge32" class="edge"><title>Node14&#45;&gt;Node15</title>
<path fill="none" stroke="midnightblue" d="M450.198,-113.491C479.932,-102.975 520.542,-88.6131 547.486,-79.0842"/>
<polygon fill="midnightblue" stroke="midnightblue" points="448.827,-110.263 440.567,-116.897 451.161,-116.863 448.827,-110.263"/>
</g>
<!-- Node16 -->
<g id="node33" class="node"><title>Node16</title>
<a xlink:href="_track_select_scene_8cpp.html" target="_top" xlink:title="TrackSelectScene.cpp">
<polygon fill="none" stroke="black" points="385.5,-59 385.5,-79 500.5,-79 500.5,-59 385.5,-59"/>
<text text-anchor="middle" x="443" y="-66" font-family="FreeSans" font-size="10.00">TrackSelectScene.cpp</text>
</a>
</g>
<!-- Node14&#45;&gt;Node16 -->
<g id="edge34" class="edge"><title>Node14&#45;&gt;Node16</title>
<path fill="none" stroke="midnightblue" d="M422.266,-107.793C427.331,-98.3154 433.242,-87.2571 437.453,-79.3776"/>
<polygon fill="midnightblue" stroke="midnightblue" points="419.027,-106.428 417.4,-116.897 425.2,-109.728 419.027,-106.428"/>
</g>
<!-- Node17&#45;&gt;Node15 -->
<g id="edge38" class="edge"><title>Node17&#45;&gt;Node15</title>
<path fill="none" stroke="midnightblue" d="M547.946,-108.686C554.781,-99.0169 562.918,-87.5059 568.664,-79.3776"/>
<polygon fill="midnightblue" stroke="midnightblue" points="545.056,-106.711 542.142,-116.897 550.772,-110.752 545.056,-106.711"/>
</g>
<!-- Node18 -->
<g id="node38" class="node"><title>Node18</title>
<a xlink:href="_practice_setup_scene_8cpp.html" target="_top" xlink:title="PracticeSetupScene.cpp">
<polygon fill="none" stroke="black" points="1027,-59 1027,-79 1151,-79 1151,-59 1027,-59"/>
<text text-anchor="middle" x="1089" y="-66" font-family="FreeSans" font-size="10.00">PracticeSetupScene.cpp</text>
</a>
</g>
<!-- Node17&#45;&gt;Node18 -->
<g id="edge40" class="edge"><title>Node17&#45;&gt;Node18</title>
<path fill="none" stroke="midnightblue" d="M598.208,-115.942C784.941,-91.9422 834.823,-101.995 1018,-80 1020.85,-79.658 1023.76,-79.2886 1026.7,-78.8996"/>
<polygon fill="midnightblue" stroke="midnightblue" points="597.516,-112.502 588.051,-117.263 598.419,-119.444 597.516,-112.502"/>
</g>
<!-- Node19&#45;&gt;Node18 -->
<g id="edge46" class="edge"><title>Node19&#45;&gt;Node18</title>
<path fill="none" stroke="midnightblue" d="M1097.49,-106.89C1095.41,-97.6201 1093.04,-87.0083 1091.33,-79.3776"/>
<polygon fill="midnightblue" stroke="midnightblue" points="1094.13,-107.905 1099.74,-116.897 1100.96,-106.374 1094.13,-107.905"/>
</g>
<!-- Node20 -->
<g id="node42" class="node"><title>Node20</title>
<a xlink:href="_main_menu_scene_8cpp.html" target="_top" xlink:title="MainMenuScene.cpp">
<polygon fill="none" stroke="black" points="1168.5,-59 1168.5,-79 1275.5,-79 1275.5,-59 1168.5,-59"/>
<text text-anchor="middle" x="1222" y="-66" font-family="FreeSans" font-size="10.00">MainMenuScene.cpp</text>
</a>
</g>
<!-- Node19&#45;&gt;Node20 -->
<g id="edge44" class="edge"><title>Node19&#45;&gt;Node20</title>
<path fill="none" stroke="midnightblue" d="M1131.93,-112.535C1153.4,-102.155 1181.81,-88.424 1200.93,-79.1817"/>
<polygon fill="midnightblue" stroke="midnightblue" points="1130.38,-109.394 1122.9,-116.897 1133.43,-115.697 1130.38,-109.394"/>
</g>
<!-- Node21&#45;&gt;Node7 -->
<g id="edge52" class="edge"><title>Node21&#45;&gt;Node7</title>
<path fill="none" stroke="midnightblue" d="M662.177,-106.638C661.135,-90.8924 656.947,-69.8432 643,-58 614.545,-33.8367 376.581,-19.3493 262.084,-13.7156"/>
<polygon fill="midnightblue" stroke="midnightblue" points="658.688,-107.063 662.474,-116.958 665.685,-106.862 658.688,-107.063"/>
</g>
<!-- Node21&#45;&gt;Node20 -->
<g id="edge50" class="edge"><title>Node21&#45;&gt;Node20</title>
<path fill="none" stroke="midnightblue" d="M728.464,-115.904C920.342,-92.3017 971.776,-104.468 1160,-80 1162.71,-79.6477 1165.48,-79.2593 1168.28,-78.8452"/>
<polygon fill="midnightblue" stroke="midnightblue" points="727.817,-112.457 718.327,-117.168 728.683,-119.403 727.817,-112.457"/>
</g>
<!-- Node23 -->
<g id="node51" class="node"><title>Node23</title>
<a xlink:href="_client_app_8cpp.html" target="_top" xlink:title="ClientApp.cpp">
<polygon fill="none" stroke="black" points="2035.5,-117 2035.5,-137 2112.5,-137 2112.5,-117 2035.5,-117"/>
<text text-anchor="middle" x="2074" y="-124" font-family="FreeSans" font-size="10.00">ClientApp.cpp</text>
</a>
</g>
<!-- Node22&#45;&gt;Node23 -->
<g id="edge56" class="edge"><title>Node22&#45;&gt;Node23</title>
<path fill="none" stroke="midnightblue" d="M1697.02,-173.935C1827.1,-152.491 1862.01,-154.019 1989,-138 2004.06,-136.101 2020.61,-133.968 2035.08,-132.091"/>
<polygon fill="midnightblue" stroke="midnightblue" points="1696.37,-170.496 1687.08,-175.589 1697.51,-177.402 1696.37,-170.496"/>
</g>
<!-- Node24 -->
<g id="node53" class="node"><title>Node24</title>
<a xlink:href="_loading_scene_8cpp.html" target="_top" xlink:title="LoadingScene.cpp">
<polygon fill="none" stroke="black" points="1883.5,-117 1883.5,-137 1980.5,-137 1980.5,-117 1883.5,-117"/>
<text text-anchor="middle" x="1932" y="-124" font-family="FreeSans" font-size="10.00">LoadingScene.cpp</text>
</a>
</g>
<!-- Node22&#45;&gt;Node24 -->
<g id="edge58" class="edge"><title>Node22&#45;&gt;Node24</title>
<path fill="none" stroke="midnightblue" d="M1697.04,-173.802C1767.32,-159.405 1837.55,-145.51 1883.15,-136.553"/>
<polygon fill="midnightblue" stroke="midnightblue" points="1696.21,-170.398 1687.12,-175.837 1697.62,-177.255 1696.21,-170.398"/>
</g>
<!-- Node25 -->
<g id="node55" class="node"><title>Node25</title>
<a xlink:href="_session_loading_scene_8h.html" target="_top" xlink:title="SessionLoadingScene.h">
<polygon fill="none" stroke="black" points="1504,-117 1504,-137 1626,-137 1626,-117 1504,-117"/>
<text text-anchor="middle" x="1565" y="-124" font-family="FreeSans" font-size="10.00">SessionLoadingScene.h</text>
</a>
</g>
<!-- Node22&#45;&gt;Node25 -->
<g id="edge60" class="edge"><title>Node22&#45;&gt;Node25</title>
<path fill="none" stroke="midnightblue" d="M1622.17,-168.975C1608.33,-158.811 1590.84,-145.968 1578.87,-137.182"/>
<polygon fill="midnightblue" stroke="midnightblue" points="1620.11,-171.8 1630.24,-174.897 1624.25,-166.158 1620.11,-171.8"/>
</g>
<!-- Node25&#45;&gt;Node18 -->
<g id="edge62" class="edge"><title>Node25&#45;&gt;Node18</title>
<path fill="none" stroke="midnightblue" d="M1493.96,-115.914C1344.86,-96.4937 1305.29,-99.0503 1160,-80 1157.16,-79.627 1154.25,-79.2323 1151.31,-78.8227"/>
<polygon fill="midnightblue" stroke="midnightblue" points="1493.57,-119.393 1503.94,-117.225 1494.48,-112.453 1493.57,-119.393"/>
</g>
<!-- Node26 -->
<g id="node58" class="node"><title>Node26</title>
<a xlink:href="_session_loading_scene_8cpp.html" target="_top" xlink:title="SessionLoadingScene.cpp">
<polygon fill="none" stroke="black" points="1499,-59 1499,-79 1631,-79 1631,-59 1499,-59"/>
<text text-anchor="middle" x="1565" y="-66" font-family="FreeSans" font-size="10.00">SessionLoadingScene.cpp</text>
</a>
</g>
<!-- Node25&#45;&gt;Node26 -->
<g id="edge64" class="edge"><title>Node25&#45;&gt;Node26</title>
<path fill="none" stroke="midnightblue" d="M1565,-106.89C1565,-97.6201 1565,-87.0083 1565,-79.3776"/>
<polygon fill="midnightblue" stroke="midnightblue" points="1561.5,-106.897 1565,-116.897 1568.5,-106.897 1561.5,-106.897"/>
</g>
<!-- Node27&#45;&gt;Node20 -->
<g id="edge70" class="edge"><title>Node27&#45;&gt;Node20</title>
<path fill="none" stroke="midnightblue" d="M1811.7,-173.543C1881.36,-159.912 1988.29,-138.871 1989,-138 1995.2,-130.441 1995.7,-123.122 1989,-116 1976.76,-102.987 1447.78,-78.8357 1275.57,-71.3042"/>
<polygon fill="midnightblue" stroke="midnightblue" points="1810.85,-170.142 1801.71,-175.497 1812.19,-177.012 1810.85,-170.142"/>
</g>
<!-- Node27&#45;&gt;Node23 -->
<g id="edge68" class="edge"><title>Node27&#45;&gt;Node23</title>
<path fill="none" stroke="midnightblue" d="M1811.73,-173.715C1905.71,-156.856 1931.24,-155.299 2022,-138 2026.35,-137.171 2030.9,-136.266 2035.42,-135.343"/>
<polygon fill="midnightblue" stroke="midnightblue" points="1811.02,-170.286 1801.8,-175.507 1812.27,-177.175 1811.02,-170.286"/>
</g>
<!-- Node28&#45;&gt;Node9 -->
<g id="edge88" class="edge"><title>Node28&#45;&gt;Node9</title>
<path fill="none" stroke="midnightblue" d="M1321.31,-165.405C1326.07,-151.407 1330.16,-132.252 1325,-116 1315.44,-85.9143 1311.19,-74.0349 1284,-58 1253.39,-39.9477 1030.75,-22.6034 920.512,-15.0094"/>
<polygon fill="midnightblue" stroke="midnightblue" points="1317.95,-164.38 1317.68,-174.972 1324.5,-166.862 1317.95,-164.38"/>
</g>
<!-- Node28&#45;&gt;Node10 -->
<g id="edge84" class="edge"><title>Node28&#45;&gt;Node10</title>
<path fill="none" stroke="midnightblue" d="M1256.61,-181.933C1154.1,-175.875 941.306,-160.938 871,-138 852.447,-131.947 851.633,-121.8 833,-116 638.891,-55.574 578.499,-106.98 377,-80 374.156,-79.6192 371.24,-79.19 368.302,-78.7277"/>
<polygon fill="midnightblue" stroke="midnightblue" points="1256.58,-185.437 1266.77,-182.526 1256.99,-178.449 1256.58,-185.437"/>
</g>
<!-- Node28&#45;&gt;Node13 -->
<g id="edge76" class="edge"><title>Node28&#45;&gt;Node13</title>
<path fill="none" stroke="midnightblue" d="M1256.48,-178.665C1187.53,-170.368 1075.41,-154.881 1037,-138 1004.25,-123.605 972.84,-94.531 957.593,-79.1205"/>
<polygon fill="midnightblue" stroke="midnightblue" points="1256.4,-182.179 1266.74,-179.885 1257.22,-175.228 1256.4,-182.179"/>
</g>
<!-- Node28&#45;&gt;Node20 -->
<g id="edge78" class="edge"><title>Node28&#45;&gt;Node20</title>
<path fill="none" stroke="midnightblue" d="M1257.04,-174.031C1237.16,-167.149 1216.8,-156.004 1205,-138 1192.96,-119.633 1205.88,-93.4488 1214.87,-79.198"/>
<polygon fill="midnightblue" stroke="midnightblue" points="1256.13,-177.415 1266.72,-177.079 1258.24,-170.738 1256.13,-177.415"/>
</g>
<!-- Node28&#45;&gt;Node23 -->
<g id="edge74" class="edge"><title>Node28&#45;&gt;Node23</title>
<path fill="none" stroke="midnightblue" d="M1369.41,-173.979C1643.99,-139.407 1717.1,-163.443 1989,-138 2004.11,-136.586 2020.68,-134.552 2035.13,-132.618"/>
<polygon fill="midnightblue" stroke="midnightblue" points="1368.61,-170.551 1359.14,-175.287 1369.5,-177.495 1368.61,-170.551"/>
</g>
<!-- Node29 -->
<g id="node69" class="node"><title>Node29</title>
<a xlink:href="_message_scene_8cpp.html" target="_top" xlink:title="MessageScene.cpp">
<polygon fill="none" stroke="black" points="1214,-117 1214,-137 1316,-137 1316,-117 1214,-117"/>
<text text-anchor="middle" x="1265" y="-124" font-family="FreeSans" font-size="10.00">MessageScene.cpp</text>
</a>
</g>
<!-- Node28&#45;&gt;Node29 -->
<g id="edge80" class="edge"><title>Node28&#45;&gt;Node29</title>
<path fill="none" stroke="midnightblue" d="M1298.09,-166.981C1290.04,-157.252 1280.38,-145.589 1273.59,-137.378"/>
<polygon fill="midnightblue" stroke="midnightblue" points="1295.57,-169.425 1304.64,-174.897 1300.96,-164.962 1295.57,-169.425"/>
</g>
<!-- Node30 -->
<g id="node71" class="node"><title>Node30</title>
<a xlink:href="_pause_menu_scene_8cpp.html" target="_top" xlink:title="PauseMenuScene.cpp">
<polygon fill="none" stroke="black" points="1372,-117 1372,-137 1486,-137 1486,-117 1372,-117"/>
<text text-anchor="middle" x="1429" y="-124" font-family="FreeSans" font-size="10.00">PauseMenuScene.cpp</text>
</a>
</g>
<!-- Node28&#45;&gt;Node30 -->
<g id="edge82" class="edge"><title>Node28&#45;&gt;Node30</title>
<path fill="none" stroke="midnightblue" d="M1342.21,-170.395C1362.94,-160.031 1390.23,-146.383 1408.64,-137.182"/>
<polygon fill="midnightblue" stroke="midnightblue" points="1340.58,-167.294 1333.21,-174.897 1343.72,-173.555 1340.58,-167.294"/>
</g>
<!-- Node31 -->
<g id="node74" class="node"><title>Node31</title>
<a xlink:href="_test_lab_scene_8cpp.html" target="_top" xlink:title="TestLabScene.cpp">
<polygon fill="none" stroke="black" points="1644,-117 1644,-137 1742,-137 1742,-117 1644,-117"/>
<text text-anchor="middle" x="1693" y="-124" font-family="FreeSans" font-size="10.00">TestLabScene.cpp</text>
</a>
</g>
<!-- Node28&#45;&gt;Node31 -->
<g id="edge86" class="edge"><title>Node28&#45;&gt;Node31</title>
<path fill="none" stroke="midnightblue" d="M1369.37,-173.851C1487.84,-154.391 1520.03,-156.639 1635,-138 1637.93,-137.524 1640.95,-137.015 1643.98,-136.487"/>
<polygon fill="midnightblue" stroke="midnightblue" points="1368.47,-170.454 1359.17,-175.544 1369.61,-177.359 1368.47,-170.454"/>
</g>
<!-- Node32&#45;&gt;Node23 -->
<g id="edge92" class="edge"><title>Node32&#45;&gt;Node23</title>
<path fill="none" stroke="midnightblue" d="M1909.67,-172.171C1948.12,-161.602 2001.9,-146.82 2037.31,-137.084"/>
<polygon fill="midnightblue" stroke="midnightblue" points="1908.47,-168.872 1899.75,-174.897 1910.32,-175.621 1908.47,-168.872"/>
</g>
<!-- Node32&#45;&gt;Node31 -->
<g id="edge94" class="edge"><title>Node32&#45;&gt;Node31</title>
<path fill="none" stroke="midnightblue" d="M1823.81,-171.628C1792.95,-161.1 1750.61,-146.654 1722.56,-137.084"/>
<polygon fill="midnightblue" stroke="midnightblue" points="1822.79,-174.981 1833.39,-174.897 1825.05,-168.356 1822.79,-174.981"/>
</g>
<!-- Node33 -->
<g id="node81" class="node"><title>Node33</title>
<a xlink:href="_debug_peer_8cpp.html" target="_top" xlink:title="DebugPeer.cpp">
<polygon fill="none" stroke="black" points="2516.5,-117 2516.5,-137 2599.5,-137 2599.5,-117 2516.5,-117"/>
<text text-anchor="middle" x="2558" y="-124" font-family="FreeSans" font-size="10.00">DebugPeer.cpp</text>
</a>
</g>
<!-- Node32&#45;&gt;Node33 -->
<g id="edge96" class="edge"><title>Node32&#45;&gt;Node33</title>
<path fill="none" stroke="midnightblue" d="M1917.33,-177.995C1929.39,-176.562 1942.12,-175.144 1954,-174 2176.21,-152.599 2232.64,-157.856 2455,-138 2475.24,-136.192 2497.68,-133.837 2516.44,-131.77"/>
<polygon fill="midnightblue" stroke="midnightblue" points="1916.89,-174.522 1907.39,-179.197 1917.73,-181.471 1916.89,-174.522"/>
</g>
<!-- Node35&#45;&gt;Node30 -->
<g id="edge102" class="edge"><title>Node35&#45;&gt;Node30</title>
<path fill="none" stroke="midnightblue" d="M1429,-164.89C1429,-155.62 1429,-145.008 1429,-137.378"/>
<polygon fill="midnightblue" stroke="midnightblue" points="1425.5,-164.897 1429,-174.897 1432.5,-164.897 1425.5,-164.897"/>
</g>
<!-- Node36 -->
<g id="node88" class="node"><title>Node36</title>
<a xlink:href="_play_game_scene_8cpp.html" target="_top" xlink:title="PlayGameScene.cpp">
<polygon fill="none" stroke="black" points="1759.5,-117 1759.5,-137 1866.5,-137 1866.5,-117 1759.5,-117"/>
<text text-anchor="middle" x="1813" y="-124" font-family="FreeSans" font-size="10.00">PlayGameScene.cpp</text>
</a>
</g>
<!-- Node35&#45;&gt;Node36 -->
<g id="edge104" class="edge"><title>Node35&#45;&gt;Node36</title>
<path fill="none" stroke="midnightblue" d="M1491.22,-173.855C1607.33,-155.626 1638.49,-155.733 1751,-138 1753.7,-137.574 1756.46,-137.127 1759.25,-136.666"/>
<polygon fill="midnightblue" stroke="midnightblue" points="1490.55,-170.417 1481.22,-175.437 1491.64,-177.331 1490.55,-170.417"/>
</g>
<!-- Node37&#45;&gt;Node23 -->
<g id="edge108" class="edge"><title>Node37&#45;&gt;Node23</title>
<path fill="none" stroke="midnightblue" d="M1984.17,-227.651C1963.37,-214.12 1940.65,-193.568 1954,-174 1963.58,-159.954 2004.09,-146.018 2035.42,-137.013"/>
<polygon fill="midnightblue" stroke="midnightblue" points="1982.5,-230.735 1992.85,-232.996 1986.17,-224.774 1982.5,-230.735"/>
</g>
<!-- Node38 -->
<g id="node93" class="node"><title>Node38</title>
<a xlink:href="_console_scene_8cpp.html" target="_top" xlink:title="ConsoleScene.cpp">
<polygon fill="none" stroke="black" points="1963,-175 1963,-195 2061,-195 2061,-175 1963,-175"/>
<text text-anchor="middle" x="2012" y="-182" font-family="FreeSans" font-size="10.00">ConsoleScene.cpp</text>
</a>
</g>
<!-- Node37&#45;&gt;Node38 -->
<g id="edge110" class="edge"><title>Node37&#45;&gt;Node38</title>
<path fill="none" stroke="midnightblue" d="M2012,-222.89C2012,-213.62 2012,-203.008 2012,-195.378"/>
<polygon fill="midnightblue" stroke="midnightblue" points="2008.5,-222.897 2012,-232.897 2015.5,-222.897 2008.5,-222.897"/>
</g>
<!-- Node40 -->
<g id="node97" class="node"><title>Node40</title>
<a xlink:href="_demo_game_scene_8h.html" target="_top" xlink:title="DemoGameScene.h">
<polygon fill="none" stroke="black" points="2337,-175 2337,-195 2441,-195 2441,-175 2337,-175"/>
<text text-anchor="middle" x="2389" y="-182" font-family="FreeSans" font-size="10.00">DemoGameScene.h</text>
</a>
</g>
<!-- Node39&#45;&gt;Node40 -->
<g id="edge114" class="edge"><title>Node39&#45;&gt;Node40</title>
<path fill="none" stroke="midnightblue" d="M2273.12,-229.216C2300.62,-218.726 2337.82,-204.53 2362.57,-195.084"/>
<polygon fill="midnightblue" stroke="midnightblue" points="2271.57,-226.062 2263.48,-232.897 2274.07,-232.602 2271.57,-226.062"/>
</g>
<!-- Node42 -->
<g id="node102" class="node"><title>Node42</title>
<a xlink:href="_play_game_scene_8h.html" target="_top" xlink:title="PlayGameScene.h">
<polygon fill="none" stroke="black" points="2078.5,-175 2078.5,-195 2175.5,-195 2175.5,-175 2078.5,-175"/>
<text text-anchor="middle" x="2127" y="-182" font-family="FreeSans" font-size="10.00">PlayGameScene.h</text>
</a>
</g>
<!-- Node39&#45;&gt;Node42 -->
<g id="edge120" class="edge"><title>Node39&#45;&gt;Node42</title>
<path fill="none" stroke="midnightblue" d="M2208.77,-228.114C2189.18,-217.786 2163.6,-204.3 2146.31,-195.182"/>
<polygon fill="midnightblue" stroke="midnightblue" points="2207.36,-231.329 2217.84,-232.897 2210.63,-225.137 2207.36,-231.329"/>
</g>
<!-- Node43 -->
<g id="node106" class="node"><title>Node43</title>
<a xlink:href="_game_scene_8cpp.html" target="_top" xlink:title="GameScene.cpp">
<polygon fill="none" stroke="black" points="2192.5,-175 2192.5,-195 2281.5,-195 2281.5,-175 2192.5,-175"/>
<text text-anchor="middle" x="2237" y="-182" font-family="FreeSans" font-size="10.00">GameScene.cpp</text>
</a>
</g>
<!-- Node39&#45;&gt;Node43 -->
<g id="edge126" class="edge"><title>Node39&#45;&gt;Node43</title>
<path fill="none" stroke="midnightblue" d="M2237,-222.89C2237,-213.62 2237,-203.008 2237,-195.378"/>
<polygon fill="midnightblue" stroke="midnightblue" points="2233.5,-222.897 2237,-232.897 2240.5,-222.897 2233.5,-222.897"/>
</g>
<!-- Node40&#45;&gt;Node23 -->
<g id="edge116" class="edge"><title>Node40&#45;&gt;Node23</title>
<path fill="none" stroke="midnightblue" d="M2327.06,-173.596C2263.38,-161.869 2166.17,-143.972 2112.67,-134.12"/>
<polygon fill="midnightblue" stroke="midnightblue" points="2326.52,-177.054 2336.98,-175.422 2327.78,-170.169 2326.52,-177.054"/>
</g>
<!-- Node41 -->
<g id="node100" class="node"><title>Node41</title>
<a xlink:href="_demo_game_scene_8cpp.html" target="_top" xlink:title="DemoGameScene.cpp">
<polygon fill="none" stroke="black" points="2332,-117 2332,-137 2446,-137 2446,-117 2332,-117"/>
<text text-anchor="middle" x="2389" y="-124" font-family="FreeSans" font-size="10.00">DemoGameScene.cpp</text>
</a>
</g>
<!-- Node40&#45;&gt;Node41 -->
<g id="edge118" class="edge"><title>Node40&#45;&gt;Node41</title>
<path fill="none" stroke="midnightblue" d="M2389,-164.89C2389,-155.62 2389,-145.008 2389,-137.378"/>
<polygon fill="midnightblue" stroke="midnightblue" points="2385.5,-164.897 2389,-174.897 2392.5,-164.897 2385.5,-164.897"/>
</g>
<!-- Node42&#45;&gt;Node23 -->
<g id="edge122" class="edge"><title>Node42&#45;&gt;Node23</title>
<path fill="none" stroke="midnightblue" d="M2110.8,-167.275C2101.86,-157.488 2091.06,-145.672 2083.48,-137.378"/>
<polygon fill="midnightblue" stroke="midnightblue" points="2108.44,-169.876 2117.77,-174.897 2113.61,-165.154 2108.44,-169.876"/>
</g>
<!-- Node42&#45;&gt;Node36 -->
<g id="edge124" class="edge"><title>Node42&#45;&gt;Node36</title>
<path fill="none" stroke="midnightblue" d="M2068.34,-173.699C1992.87,-159.548 1916.46,-145.653 1866.68,-136.66"/>
<polygon fill="midnightblue" stroke="midnightblue" points="2068.02,-177.201 2078.5,-175.606 2069.31,-170.321 2068.02,-177.201"/>
</g>
<!-- Node44&#45;&gt;Node23 -->
<g id="edge130" class="edge"><title>Node44&#45;&gt;Node23</title>
<path fill="none" stroke="midnightblue" d="M2338.82,-224.482C2328.24,-208.598 2310.9,-186.374 2290,-174 2260.45,-156.498 2166.62,-140.493 2112.85,-132.448"/>
<polygon fill="midnightblue" stroke="midnightblue" points="2335.91,-226.432 2344.24,-232.979 2341.81,-222.666 2335.91,-226.432"/>
</g>
<!-- Node45 -->
<g id="node111" class="node"><title>Node45</title>
<a xlink:href="_status_overlay_scene_8cpp.html" target="_top" xlink:title="StatusOverlayScene.cpp">
<polygon fill="none" stroke="black" points="2459,-175 2459,-195 2583,-195 2583,-175 2459,-175"/>
<text text-anchor="middle" x="2521" y="-182" font-family="FreeSans" font-size="10.00">StatusOverlayScene.cpp</text>
</a>
</g>
<!-- Node44&#45;&gt;Node45 -->
<g id="edge132" class="edge"><title>Node44&#45;&gt;Node45</title>
<path fill="none" stroke="midnightblue" d="M2389.42,-229.628C2420.46,-219.1 2463.05,-204.654 2491.27,-195.084"/>
<polygon fill="midnightblue" stroke="midnightblue" points="2388.13,-226.37 2379.79,-232.897 2390.38,-233 2388.13,-226.37"/>
</g>
<!-- Node46&#45;&gt;Node33 -->
<g id="edge138" class="edge"><title>Node46&#45;&gt;Node33</title>
<path fill="none" stroke="midnightblue" d="M2564.55,-227.152C2575.17,-219.257 2586.23,-208.674 2592,-196 2601.63,-174.852 2582.46,-150.576 2569.19,-137.194"/>
<polygon fill="midnightblue" stroke="midnightblue" points="2562.47,-224.33 2556.24,-232.895 2566.45,-230.089 2562.47,-224.33"/>
</g>
<!-- Node47 -->
<g id="node115" class="node"><title>Node47</title>
<a xlink:href="_palette_scene_8cpp.html" target="_top" xlink:title="PaletteScene.cpp">
<polygon fill="none" stroke="black" points="2638.5,-175 2638.5,-195 2731.5,-195 2731.5,-175 2638.5,-175"/>
<text text-anchor="middle" x="2685" y="-182" font-family="FreeSans" font-size="10.00">PaletteScene.cpp</text>
</a>
</g>
<!-- Node46&#45;&gt;Node47 -->
<g id="edge136" class="edge"><title>Node46&#45;&gt;Node47</title>
<path fill="none" stroke="midnightblue" d="M2573.26,-229.09C2599.72,-218.649 2635.35,-204.59 2659.19,-195.182"/>
<polygon fill="midnightblue" stroke="midnightblue" points="2571.62,-225.971 2563.61,-232.897 2574.19,-232.483 2571.62,-225.971"/>
</g>
</g>
</svg>
        <g id="navigator" transform="translate(0 0)" fill="#404254">
                <rect fill="#f2f5e9" fill-opacity="0.5" stroke="#606060" stroke-width=".5" x="0" y="0" width="60" height="60"/>
                <use id="zoomplus" xlink:href="#zoomPlus" x="17" y="9" onmousedown="handleZoom(evt,'in')"/>
                <use id="zoomminus" xlink:href="#zoomMin" x="42" y="9" onmousedown="handleZoom(evt,'out')"/>
                <use id="reset" xlink:href="#resetDef" x="30" y="36" onmousedown="handleReset()"/>
                <g id="arrowUp" xlink:href="#dirArrow" transform="translate(30 24)" onmousedown="handlePan(0,-1)">
                  <use xlink:href="#rim" fill="#404040">
                        <set attributeName="fill" to="#808080" begin="arrowUp.mouseover" end="arrowUp.mouseout"/>
                  </use>
                  <path fill="none" stroke="white" stroke-width="1.5" d="M0,-3.0v7 M-2.5,-0.5L0,-3.0L2.5,-0.5"/>
                </g>
                <g id="arrowRight" xlink:href="#dirArrow" transform="rotate(90) translate(36 -43)" onmousedown="handlePan(1,0)">
                  <use xlink:href="#rim" fill="#404040">
                        <set attributeName="fill" to="#808080" begin="arrowRight.mouseover" end="arrowRight.mouseout"/>
                  </use>
                  <path fill="none" stroke="white" stroke-width="1.5" d="M0,-3.0v7 M-2.5,-0.5L0,-3.0L2.5,-0.5"/>
                </g>
                <g id="arrowDown" xlink:href="#dirArrow" transform="rotate(180) translate(-30 -48)" onmousedown="handlePan(0,1)">
                  <use xlink:href="#rim" fill="#404040">
                        <set attributeName="fill" to="#808080" begin="arrowDown.mouseover" end="arrowDown.mouseout"/>
                  </use>
                  <path fill="none" stroke="white" stroke-width="1.5" d="M0,-3.0v7 M-2.5,-0.5L0,-3.0L2.5,-0.5"/>
                </g>
                <g id="arrowLeft" xlink:href="#dirArrow" transform="rotate(270) translate(-36 17)" onmousedown="handlePan(-1,0)">
                  <use xlink:href="#rim" fill="#404040">
                        <set attributeName="fill" to="#808080" begin="arrowLeft.mouseover" end="arrowLeft.mouseout"/>
                  </use>
                  <path fill="none" stroke="white" stroke-width="1.5" d="M0,-3.0v7 M-2.5,-0.5L0,-3.0L2.5,-0.5"/>
                </g>
        </g>
        <svg viewBox="0 0 15 15" width="100%" height="30px" preserveAspectRatio="xMaxYMin meet">
         <g id="arrow_out" transform="scale(0.3 0.3)">
          <a xlink:href="_ui_scene_8h__dep__incl_org.svg" target="_base">
           <rect id="button" ry="5" rx="5" y="6" x="6" height="38" width="38"
                fill="#f2f5e9" fill-opacity="0.5" stroke="#606060" stroke-width="1.0"/>
           <path id="arrow"
             d="M 11.500037,31.436501 C 11.940474,20.09759 22.043105,11.32322 32.158766,21.979434 L 37.068811,17.246167 C 37.068811,17.246167 37.088388,32 37.088388,32 L 22.160133,31.978069 C 22.160133,31.978069 26.997745,27.140456 26.997745,27.140456 C 18.528582,18.264221 13.291696,25.230495 11.500037,31.436501 z"
             style="fill:#404040;"/>
          </a>
         </g>
        </svg>
</svg>
