<?xml version="1.0" encoding="UTF-8" standalone="no"?>
<!DOCTYPE svg PUBLIC "-//W3C//DTD SVG 1.1//EN"
 "http://www.w3.org/Graphics/SVG/1.1/DTD/svg11.dtd">
<!-- Generated by graphviz version 2.26.3 (20100126.1600)
 -->
<!-- Title: VideoAudioPrefsPage.h Pages: 1 -->
<svg width="340pt" height="146pt"
 viewBox="0.00 0.00 340.00 146.00" xmlns="http://www.w3.org/2000/svg" xmlns:xlink="http://www.w3.org/1999/xlink">
<g id="graph1" class="graph" transform="scale(1 1) rotate(0) translate(4 142)">
<title>VideoAudioPrefsPage.h</title>
<!-- Node1 -->
<g id="node1" class="node"><title>Node1</title>
<polygon fill="#bfbfbf" stroke="black" points="120.5,-117 120.5,-137 239.5,-137 239.5,-117 120.5,-117"/>
<text text-anchor="middle" x="180" y="-124" font-family="FreeSans" font-size="10.00">VideoAudioPrefsPage.h</text>
</g>
<!-- Node2 -->
<g id="node3" class="node"><title>Node2</title>
<a xlink:href="_o_s_8h.html" target="_top" xlink:title="../../engine/Util/OS.h">
<polygon fill="none" stroke="black" points="76.5,-59 76.5,-79 179.5,-79 179.5,-59 76.5,-59"/>
<text text-anchor="middle" x="128" y="-66" font-family="FreeSans" font-size="10.00">../../engine/Util/OS.h</text>
</a>
</g>
<!-- Node1&#45;&gt;Node2 -->
<g id="edge2" class="edge"><title>Node1&#45;&gt;Node2</title>
<path fill="none" stroke="midnightblue" d="M170.942,-116.897C163.577,-108.682 152.998,-96.8827 144.184,-87.0513"/>
<polygon fill="midnightblue" stroke="midnightblue" points="146.586,-84.4869 137.304,-79.3776 141.374,-89.1597 146.586,-84.4869"/>
</g>
<!-- Node8 -->
<g id="node15" class="node"><title>Node8</title>
<a xlink:href="_prefs_page_8h.html" target="_top" xlink:title="PrefsPage.h">
<polygon fill="none" stroke="black" points="197,-59 197,-79 267,-79 267,-59 197,-59"/>
<text text-anchor="middle" x="232" y="-66" font-family="FreeSans" font-size="10.00">PrefsPage.h</text>
</a>
</g>
<!-- Node1&#45;&gt;Node8 -->
<g id="edge14" class="edge"><title>Node1&#45;&gt;Node8</title>
<path fill="none" stroke="midnightblue" d="M189.058,-116.897C196.423,-108.682 207.002,-96.8827 215.816,-87.0513"/>
<polygon fill="midnightblue" stroke="midnightblue" points="218.626,-89.1597 222.696,-79.3776 213.414,-84.4869 218.626,-89.1597"/>
</g>
<!-- Node3 -->
<g id="node5" class="node"><title>Node3</title>
<polygon fill="none" stroke="#bfbfbf" points="0,-1 0,-21 42,-21 42,-1 0,-1"/>
<text text-anchor="middle" x="21" y="-8" font-family="FreeSans" font-size="10.00">locale</text>
</g>
<!-- Node2&#45;&gt;Node3 -->
<g id="edge4" class="edge"><title>Node2&#45;&gt;Node3</title>
<path fill="none" stroke="midnightblue" d="M109.362,-58.8972C92.5876,-49.8045 67.7143,-36.3218 48.6276,-25.9757"/>
<polygon fill="midnightblue" stroke="midnightblue" points="50.2428,-22.8702 39.7834,-21.1817 46.907,-29.0242 50.2428,-22.8702"/>
</g>
<!-- Node4 -->
<g id="node7" class="node"><title>Node4</title>
<polygon fill="none" stroke="#bfbfbf" points="60,-1 60,-21 90,-21 90,-1 60,-1"/>
<text text-anchor="middle" x="75" y="-8" font-family="FreeSans" font-size="10.00">set</text>
</g>
<!-- Node2&#45;&gt;Node4 -->
<g id="edge6" class="edge"><title>Node2&#45;&gt;Node4</title>
<path fill="none" stroke="midnightblue" d="M118.768,-58.8972C111.261,-50.6818 100.479,-38.8827 91.4951,-29.0513"/>
<polygon fill="midnightblue" stroke="midnightblue" points="93.8125,-26.3987 84.483,-21.3776 88.645,-31.1207 93.8125,-26.3987"/>
</g>
<!-- Node5 -->
<g id="node9" class="node"><title>Node5</title>
<polygon fill="none" stroke="#bfbfbf" points="107.5,-1 107.5,-21 148.5,-21 148.5,-1 107.5,-1"/>
<text text-anchor="middle" x="128" y="-8" font-family="FreeSans" font-size="10.00">string</text>
</g>
<!-- Node2&#45;&gt;Node5 -->
<g id="edge8" class="edge"><title>Node2&#45;&gt;Node5</title>
<path fill="none" stroke="midnightblue" d="M128,-58.8972C128,-51.339 128,-40.7476 128,-31.4458"/>
<polygon fill="midnightblue" stroke="midnightblue" points="131.5,-31.3776 128,-21.3776 124.5,-31.3776 131.5,-31.3776"/>
</g>
<!-- Node6 -->
<g id="node11" class="node"><title>Node6</title>
<polygon fill="none" stroke="#bfbfbf" points="166,-1 166,-21 210,-21 210,-1 166,-1"/>
<text text-anchor="middle" x="188" y="-8" font-family="FreeSans" font-size="10.00">vector</text>
</g>
<!-- Node2&#45;&gt;Node6 -->
<g id="edge10" class="edge"><title>Node2&#45;&gt;Node6</title>
<path fill="none" stroke="midnightblue" d="M138.451,-58.8972C147.12,-50.5175 159.646,-38.4093 169.934,-28.4638"/>
<polygon fill="midnightblue" stroke="midnightblue" points="172.507,-30.8443 177.265,-21.3776 167.642,-25.8114 172.507,-30.8443"/>
</g>
<!-- Node7 -->
<g id="node13" class="node"><title>Node7</title>
<polygon fill="none" stroke="#bfbfbf" points="227.5,-1 227.5,-21 332.5,-21 332.5,-1 227.5,-1"/>
<text text-anchor="middle" x="280" y="-8" font-family="FreeSans" font-size="10.00">boost/filesystem.hpp</text>
</g>
<!-- Node2&#45;&gt;Node7 -->
<g id="edge12" class="edge"><title>Node2&#45;&gt;Node7</title>
<path fill="none" stroke="midnightblue" d="M154.476,-58.8972C179.248,-49.4449 216.452,-35.2486 243.93,-24.7635"/>
<polygon fill="midnightblue" stroke="midnightblue" points="245.477,-27.9193 253.572,-21.0842 242.982,-21.3793 245.477,-27.9193"/>
</g>
</g>
</svg>
