<?xml version="1.0" encoding="UTF-8" standalone="no"?>
<!DOCTYPE svg PUBLIC "-//W3C//DTD SVG 1.1//EN"
 "http://www.w3.org/Graphics/SVG/1.1/DTD/svg11.dtd">
<!-- Generated by graphviz version 2.26.3 (20100126.1600)
 -->
<!-- Title: VideoAudioPrefsPage.h Pages: 1 -->
<svg width="240pt" height="88pt"
 viewBox="0.00 0.00 240.00 88.00" xmlns="http://www.w3.org/2000/svg" xmlns:xlink="http://www.w3.org/1999/xlink">
<g id="graph1" class="graph" transform="scale(1 1) rotate(0) translate(4 84)">
<title>VideoAudioPrefsPage.h</title>
<!-- Node1 -->
<g id="node1" class="node"><title>Node1</title>
<polygon fill="#bfbfbf" stroke="black" points="44.5,-59 44.5,-79 163.5,-79 163.5,-59 44.5,-59"/>
<text text-anchor="middle" x="104" y="-66" font-family="FreeSans" font-size="10.00">VideoAudioPrefsPage.h</text>
</g>
<!-- Node2 -->
<g id="node3" class="node"><title>Node2</title>
<a xlink:href="_prefs_dialog_8cpp.html" target="_top" xlink:title="PrefsDialog.cpp">
<polygon fill="none" stroke="black" points="-0.5,-1 -0.5,-21 84.5,-21 84.5,-1 -0.5,-1"/>
<text text-anchor="middle" x="42" y="-8" font-family="FreeSans" font-size="10.00">PrefsDialog.cpp</text>
</a>
</g>
<!-- Node1&#45;&gt;Node2 -->
<g id="edge2" class="edge"><title>Node1&#45;&gt;Node2</title>
<path fill="none" stroke="midnightblue" d="M85.6779,-51.86C75.0976,-41.9622 62.1369,-29.8377 53.0933,-21.3776"/>
<polygon fill="midnightblue" stroke="midnightblue" points="83.5066,-54.6215 93.2004,-58.8972 88.2887,-49.5096 83.5066,-54.6215"/>
</g>
<!-- Node3 -->
<g id="node5" class="node"><title>Node3</title>
<a xlink:href="_video_audio_prefs_page_8cpp.html" target="_top" xlink:title="VideoAudioPrefsPage.cpp">
<polygon fill="none" stroke="black" points="102,-1 102,-21 232,-21 232,-1 102,-1"/>
<text text-anchor="middle" x="167" y="-8" font-family="FreeSans" font-size="10.00">VideoAudioPrefsPage.cpp</text>
</a>
</g>
<!-- Node1&#45;&gt;Node3 -->
<g id="edge4" class="edge"><title>Node1&#45;&gt;Node3</title>
<path fill="none" stroke="midnightblue" d="M122.618,-51.86C133.369,-41.9622 146.538,-29.8377 155.728,-21.3776"/>
<polygon fill="midnightblue" stroke="midnightblue" points="119.96,-49.5491 114.974,-58.8972 124.701,-54.699 119.96,-49.5491"/>
</g>
</g>
</svg>
