<?xml version="1.0" encoding="UTF-8" standalone="no"?>
<!DOCTYPE svg PUBLIC "-//W3C//DTD SVG 1.1//EN"
 "http://www.w3.org/Graphics/SVG/1.1/DTD/svg11.dtd">
<!-- Generated by graphviz version 2.38.0 (20140413.2041)
 -->
<!-- Title: Viewport3DRendering.cpp Pages: 1 -->
<svg width="398pt" height="308pt"
 viewBox="0.00 0.00 398.00 308.00" xmlns="http://www.w3.org/2000/svg" xmlns:xlink="http://www.w3.org/1999/xlink">
<g id="graph0" class="graph" transform="scale(1 1) rotate(0) translate(4 304)">
<title>Viewport3DRendering.cpp</title>
<!-- Node1 -->
<g id="node1" class="node"><title>Node1</title>
<polygon fill="#bfbfbf" stroke="black" points="123.5,-280.5 123.5,-299.5 254.5,-299.5 254.5,-280.5 123.5,-280.5"/>
<text text-anchor="middle" x="189" y="-287.5" font-family="Helvetica,sans-Serif" font-size="10.00">Viewport3DRendering.cpp</text>
</g>
<!-- Node2 -->
<g id="node2" class="node"><title>Node2</title>
<g id="a_node2"><a xlink:href="_viewport3_d_8h.html" target="_top" xlink:title="Viewport3D.h">
<polygon fill="none" stroke="black" points="151,-224.5 151,-243.5 227,-243.5 227,-224.5 151,-224.5"/>
<text text-anchor="middle" x="189" y="-231.5" font-family="Helvetica,sans-Serif" font-size="10.00">Viewport3D.h</text>
</a>
</g>
</g>
<!-- Node1&#45;&gt;Node2 -->
<g id="edge1" class="edge"><title>Node1&#45;&gt;Node2</title>
<path fill="none" stroke="midnightblue" d="M189,-280.083C189,-273.006 189,-262.861 189,-253.986"/>
<polygon fill="midnightblue" stroke="midnightblue" points="192.5,-253.751 189,-243.751 185.5,-253.751 192.5,-253.751"/>
</g>
<!-- Node3 -->
<g id="node3" class="node"><title>Node3</title>
<g id="a_node3"><a xlink:href="_viewport2_d_8h.html" target="_top" xlink:title="Viewport2D.h">
<polygon fill="none" stroke="black" points="0,-112.5 0,-131.5 76,-131.5 76,-112.5 0,-112.5"/>
<text text-anchor="middle" x="38" y="-119.5" font-family="Helvetica,sans-Serif" font-size="10.00">Viewport2D.h</text>
</a>
</g>
</g>
<!-- Node2&#45;&gt;Node3 -->
<g id="edge2" class="edge"><title>Node2&#45;&gt;Node3</title>
<path fill="none" stroke="midnightblue" d="M166.003,-224.389C146.773,-216.565 119.169,-203.837 98,-188 79.2625,-173.982 61.5739,-153.623 50.3238,-139.438"/>
<polygon fill="midnightblue" stroke="midnightblue" points="53.0845,-137.287 44.1993,-131.516 47.5464,-141.568 53.0845,-137.287"/>
</g>
<!-- Node6 -->
<g id="node6" class="node"><title>Node6</title>
<g id="a_node6"><a xlink:href="_color_palette_8h.html" target="_top" xlink:title="ColorPalette.h">
<polygon fill="none" stroke="black" points="107.5,-168.5 107.5,-187.5 186.5,-187.5 186.5,-168.5 107.5,-168.5"/>
<text text-anchor="middle" x="147" y="-175.5" font-family="Helvetica,sans-Serif" font-size="10.00">ColorPalette.h</text>
</a>
</g>
</g>
<!-- Node2&#45;&gt;Node6 -->
<g id="edge5" class="edge"><title>Node2&#45;&gt;Node6</title>
<path fill="none" stroke="midnightblue" d="M182.065,-224.083C176.071,-216.377 167.248,-205.033 159.952,-195.653"/>
<polygon fill="midnightblue" stroke="midnightblue" points="162.709,-193.496 153.806,-187.751 157.183,-197.793 162.709,-193.496"/>
</g>
<!-- Node8 -->
<g id="node8" class="node"><title>Node8</title>
<g id="a_node8"><a xlink:href="_bitmap_8h.html" target="_top" xlink:title="Bitmap.h">
<polygon fill="none" stroke="black" points="204,-168.5 204,-187.5 260,-187.5 260,-168.5 204,-168.5"/>
<text text-anchor="middle" x="232" y="-175.5" font-family="Helvetica,sans-Serif" font-size="10.00">Bitmap.h</text>
</a>
</g>
</g>
<!-- Node2&#45;&gt;Node8 -->
<g id="edge8" class="edge"><title>Node2&#45;&gt;Node8</title>
<path fill="none" stroke="midnightblue" d="M196.101,-224.083C202.237,-216.377 211.27,-205.033 218.739,-195.653"/>
<polygon fill="midnightblue" stroke="midnightblue" points="221.54,-197.754 225.032,-187.751 216.064,-193.394 221.54,-197.754"/>
</g>
<!-- Node9 -->
<g id="node9" class="node"><title>Node9</title>
<g id="a_node9"><a xlink:href="_patch_8h.html" target="_top" xlink:title="Patch.h">
<polygon fill="none" stroke="black" points="289,-168.5 289,-187.5 339,-187.5 339,-168.5 289,-168.5"/>
<text text-anchor="middle" x="314" y="-175.5" font-family="Helvetica,sans-Serif" font-size="10.00">Patch.h</text>
</a>
</g>
</g>
<!-- Node2&#45;&gt;Node9 -->
<g id="edge10" class="edge"><title>Node2&#45;&gt;Node9</title>
<path fill="none" stroke="midnightblue" d="M208.807,-224.444C229.287,-215.596 261.483,-201.687 284.865,-191.586"/>
<polygon fill="midnightblue" stroke="midnightblue" points="286.494,-194.695 294.286,-187.516 283.718,-188.269 286.494,-194.695"/>
</g>
<!-- Node4 -->
<g id="node4" class="node"><title>Node4</title>
<g id="a_node4"><a xlink:href="_m_r___types_8h.html" target="_top" xlink:title="../Util/MR_Types.h">
<polygon fill="none" stroke="black" points="118,-56.5 118,-75.5 218,-75.5 218,-56.5 118,-56.5"/>
<text text-anchor="middle" x="168" y="-63.5" font-family="Helvetica,sans-Serif" font-size="10.00">../Util/MR_Types.h</text>
</a>
</g>
</g>
<!-- Node3&#45;&gt;Node4 -->
<g id="edge3" class="edge"><title>Node3&#45;&gt;Node4</title>
<path fill="none" stroke="midnightblue" d="M58.5989,-112.444C79.9934,-103.557 113.681,-89.5632 138.024,-79.4514"/>
<polygon fill="midnightblue" stroke="midnightblue" points="139.605,-82.5848 147.497,-75.5164 136.92,-76.1203 139.605,-82.5848"/>
</g>
<!-- Node5 -->
<g id="node5" class="node"><title>Node5</title>
<polygon fill="none" stroke="#bfbfbf" points="138.5,-0.5 138.5,-19.5 197.5,-19.5 197.5,-0.5 138.5,-0.5"/>
<text text-anchor="middle" x="168" y="-7.5" font-family="Helvetica,sans-Serif" font-size="10.00">inttypes.h</text>
</g>
<!-- Node4&#45;&gt;Node5 -->
<g id="edge4" class="edge"><title>Node4&#45;&gt;Node5</title>
<path fill="none" stroke="midnightblue" d="M168,-56.083C168,-49.0059 168,-38.8611 168,-29.9865"/>
<polygon fill="midnightblue" stroke="midnightblue" points="171.5,-29.751 168,-19.7511 164.5,-29.7511 171.5,-29.751"/>
</g>
<!-- Node6&#45;&gt;Node4 -->
<g id="edge7" class="edge"><title>Node6&#45;&gt;Node4</title>
<path fill="none" stroke="midnightblue" d="M139.392,-168.084C129.61,-155.48 114.806,-131.782 123,-112 127.92,-100.121 137.667,-89.7428 146.834,-81.9557"/>
<polygon fill="midnightblue" stroke="midnightblue" points="149.253,-84.5058 154.936,-75.5641 144.917,-79.0101 149.253,-84.5058"/>
</g>
<!-- Node7 -->
<g id="node7" class="node"><title>Node7</title>
<polygon fill="none" stroke="#bfbfbf" points="132,-112.5 132,-131.5 204,-131.5 204,-112.5 132,-112.5"/>
<text text-anchor="middle" x="168" y="-119.5" font-family="Helvetica,sans-Serif" font-size="10.00">SDL2/SDL.h</text>
</g>
<!-- Node6&#45;&gt;Node7 -->
<g id="edge6" class="edge"><title>Node6&#45;&gt;Node7</title>
<path fill="none" stroke="midnightblue" d="M150.468,-168.083C153.312,-160.77 157.429,-150.181 160.96,-141.103"/>
<polygon fill="midnightblue" stroke="midnightblue" points="164.234,-142.34 164.597,-131.751 157.71,-139.803 164.234,-142.34"/>
</g>
<!-- Node8&#45;&gt;Node4 -->
<g id="edge9" class="edge"><title>Node8&#45;&gt;Node4</title>
<path fill="none" stroke="midnightblue" d="M230.889,-168.461C228.909,-155.496 223.907,-130.409 213,-112 206.36,-100.793 196.29,-90.3632 187.359,-82.3724"/>
<polygon fill="midnightblue" stroke="midnightblue" points="189.49,-79.5894 179.608,-75.7673 184.949,-84.9173 189.49,-79.5894"/>
</g>
<!-- Node10 -->
<g id="node10" class="node"><title>Node10</title>
<g id="a_node10"><a xlink:href="_world_coordinates_8h.html" target="_top" xlink:title="../Util/WorldCoordinates.h">
<polygon fill="none" stroke="black" points="260,-112.5 260,-131.5 390,-131.5 390,-112.5 260,-112.5"/>
<text text-anchor="middle" x="325" y="-119.5" font-family="Helvetica,sans-Serif" font-size="10.00">../Util/WorldCoordinates.h</text>
</a>
</g>
</g>
<!-- Node9&#45;&gt;Node10 -->
<g id="edge11" class="edge"><title>Node9&#45;&gt;Node10</title>
<path fill="none" stroke="midnightblue" d="M315.816,-168.083C317.274,-160.927 319.371,-150.635 321.193,-141.691"/>
<polygon fill="midnightblue" stroke="midnightblue" points="324.651,-142.248 323.217,-131.751 317.792,-140.851 324.651,-142.248"/>
</g>
<!-- Node10&#45;&gt;Node4 -->
<g id="edge12" class="edge"><title>Node10&#45;&gt;Node4</title>
<path fill="none" stroke="midnightblue" d="M300.123,-112.444C273.711,-103.359 231.785,-88.9388 202.258,-78.7831"/>
<polygon fill="midnightblue" stroke="midnightblue" points="203.355,-75.4593 192.761,-75.5164 201.079,-82.0787 203.355,-75.4593"/>
</g>
</g>
</svg>
