<?xml version="1.0" encoding="UTF-8" standalone="no"?>
<!DOCTYPE svg PUBLIC "-//W3C//DTD SVG 1.1//EN"
 "http://www.w3.org/Graphics/SVG/1.1/DTD/svg11.dtd">
<!-- Generated by graphviz version 2.38.0 (20140413.2041)
 -->
<!-- Title: Viewport3D.cpp Pages: 1 -->
<!--zoomable 308 -->
<svg id="main" version="1.1" xmlns="http://www.w3.org/2000/svg" xmlns:xlink="http://www.w3.org/1999/xlink" xml:space="preserve" onload="init(evt)">
<style type="text/css"><![CDATA[
.edge:hover path { stroke: red; }
.edge:hover polygon { stroke: red; fill: red; }
]]></style>
<script type="text/javascript"><![CDATA[
var edges = document.getElementsByTagName('g');
if (edges && edges.length) {
  for (var i=0;i<edges.length;i++) {
    if (edges[i].id.substr(0,4)=='edge') {
      edges[i].setAttribute('class','edge');
    }
  }
}
]]></script>
        <defs>
                <circle id="rim" cx="0" cy="0" r="7"/>
                <circle id="rim2" cx="0" cy="0" r="3.5"/>
                <g id="zoomPlus">
                        <use xlink:href="#rim" fill="#404040">
                                <set attributeName="fill" to="#808080" begin="zoomplus.mouseover" end="zoomplus.mouseout"/>
                        </use>
                        <path d="M-4,0h8M0,-4v8" fill="none" stroke="white" stroke-width="1.5" pointer-events="none"/>
                </g>
                <g id="zoomMin">
                        <use xlink:href="#rim" fill="#404040">
                                <set attributeName="fill" to="#808080" begin="zoomminus.mouseover" end="zoomminus.mouseout"/>
                        </use>
                        <path d="M-4,0h8" fill="none" stroke="white" stroke-width="1.5" pointer-events="none"/>
                </g>
                <g id="dirArrow">
                        <path fill="none" stroke="white" stroke-width="1.5" d="M0,-3.0v7 M-2.5,-0.5L0,-3.0L2.5,-0.5"/>
                </g>
               <g id="resetDef">
                       <use xlink:href="#rim2" fill="#404040">
                               <set attributeName="fill" to="#808080" begin="reset.mouseover" end="reset.mouseout"/>
                       </use>
               </g>
        </defs>

<script type="text/javascript">
var viewWidth = 807;
var viewHeight = 308;
var sectionId = 'dynsection-0';
</script>
<script xlink:href="svgpan.js"/>
<svg id="graph" class="graph">
<g id="viewport">
<title>Viewport3D.cpp</title>
<!-- Node1 -->
<g id="node1" class="node"><title>Node1</title>
<polygon fill="#bfbfbf" stroke="black" points="479,-280.5 479,-299.5 565,-299.5 565,-280.5 479,-280.5"/>
<text text-anchor="middle" x="522" y="-287.5" font-family="Helvetica,sans-Serif" font-size="10.00">Viewport3D.cpp</text>
</g>
<!-- Node2 -->
<g id="node2" class="node"><title>Node2</title>
<polygon fill="none" stroke="#bfbfbf" points="413.5,-224.5 413.5,-243.5 460.5,-243.5 460.5,-224.5 413.5,-224.5"/>
<text text-anchor="middle" x="437" y="-231.5" font-family="Helvetica,sans-Serif" font-size="10.00">math.h</text>
</g>
<!-- Node1&#45;&gt;Node2 -->
<g id="edge1" class="edge"><title>Node1&#45;&gt;Node2</title>
<path fill="none" stroke="midnightblue" d="M508.343,-280.324C495.084,-271.9 474.732,-258.971 459.154,-249.074"/>
<polygon fill="midnightblue" stroke="midnightblue" points="460.94,-246.063 450.623,-243.655 457.187,-251.971 460.94,-246.063"/>
</g>
<!-- Node3 -->
<g id="node3" class="node"><title>Node3</title>
<g id="a_node3"><a xlink:href="_video_buffer_8h.html" target="_top" xlink:title="VideoBuffer.h">
<polygon fill="none" stroke="black" points="339,-168.5 339,-187.5 415,-187.5 415,-168.5 339,-168.5"/>
<text text-anchor="middle" x="377" y="-175.5" font-family="Helvetica,sans-Serif" font-size="10.00">VideoBuffer.h</text>
</a>
</g>
</g>
<!-- Node1&#45;&gt;Node3 -->
<g id="edge2" class="edge"><title>Node1&#45;&gt;Node3</title>
<path fill="none" stroke="midnightblue" d="M516.761,-280.42C508.184,-266.947 489.986,-240.655 469,-224 451.527,-210.134 429.086,-199.051 410.742,-191.354"/>
<polygon fill="midnightblue" stroke="midnightblue" points="411.883,-188.04 401.301,-187.535 409.259,-194.529 411.883,-188.04"/>
</g>
<!-- Node15 -->
<g id="node15" class="node"><title>Node15</title>
<g id="a_node15"><a xlink:href="_viewport3_d_8h.html" target="_top" xlink:title="Viewport3D.h">
<polygon fill="none" stroke="black" points="517,-224.5 517,-243.5 593,-243.5 593,-224.5 517,-224.5"/>
<text text-anchor="middle" x="555" y="-231.5" font-family="Helvetica,sans-Serif" font-size="10.00">Viewport3D.h</text>
</a>
</g>
</g>
<!-- Node1&#45;&gt;Node15 -->
<g id="edge16" class="edge"><title>Node1&#45;&gt;Node15</title>
<path fill="none" stroke="midnightblue" d="M527.449,-280.083C532.014,-272.613 538.668,-261.724 544.293,-252.52"/>
<polygon fill="midnightblue" stroke="midnightblue" points="547.424,-254.109 549.652,-243.751 541.451,-250.459 547.424,-254.109"/>
</g>
<!-- Node20 -->
<g id="node20" class="node"><title>Node20</title>
<g id="a_node20"><a xlink:href="_fast_mem_manip_8h.html" target="_top" xlink:title="../Util/FastMemManip.h">
<polygon fill="none" stroke="black" points="679.5,-224.5 679.5,-243.5 798.5,-243.5 798.5,-224.5 679.5,-224.5"/>
<text text-anchor="middle" x="739" y="-231.5" font-family="Helvetica,sans-Serif" font-size="10.00">../Util/FastMemManip.h</text>
</a>
</g>
</g>
<!-- Node1&#45;&gt;Node20 -->
<g id="edge25" class="edge"><title>Node1&#45;&gt;Node20</title>
<path fill="none" stroke="midnightblue" d="M556.384,-280.444C593.922,-271.102 654.131,-256.119 695.067,-245.933"/>
<polygon fill="midnightblue" stroke="midnightblue" points="695.918,-249.328 704.777,-243.516 694.227,-242.535 695.918,-249.328"/>
</g>
<!-- Node4 -->
<g id="node4" class="node"><title>Node4</title>
<g id="a_node4"><a xlink:href="_m_r___types_8h.html" target="_top" xlink:title="../Util/MR_Types.h">
<polygon fill="none" stroke="black" points="511,-56.5 511,-75.5 611,-75.5 611,-56.5 511,-56.5"/>
<text text-anchor="middle" x="561" y="-63.5" font-family="Helvetica,sans-Serif" font-size="10.00">../Util/MR_Types.h</text>
</a>
</g>
</g>
<!-- Node3&#45;&gt;Node4 -->
<g id="edge3" class="edge"><title>Node3&#45;&gt;Node4</title>
<path fill="none" stroke="midnightblue" d="M374.287,-168.302C370.623,-154.668 365.944,-128.159 379,-112 387.054,-102.031 454.088,-87.2956 504.479,-77.4319"/>
<polygon fill="midnightblue" stroke="midnightblue" points="505.161,-80.8649 514.313,-75.527 503.83,-73.9927 505.161,-80.8649"/>
</g>
<!-- Node6 -->
<g id="node6" class="node"><title>Node6</title>
<g id="a_node6"><a xlink:href="_o_s_8h.html" target="_top" xlink:title="../Util/OS.h">
<polygon fill="none" stroke="black" points="192,-112.5 192,-131.5 258,-131.5 258,-112.5 192,-112.5"/>
<text text-anchor="middle" x="225" y="-119.5" font-family="Helvetica,sans-Serif" font-size="10.00">../Util/OS.h</text>
</a>
</g>
</g>
<!-- Node3&#45;&gt;Node6 -->
<g id="edge5" class="edge"><title>Node3&#45;&gt;Node6</title>
<path fill="none" stroke="midnightblue" d="M352.915,-168.444C327.455,-159.399 287.106,-145.064 258.541,-134.916"/>
<polygon fill="midnightblue" stroke="midnightblue" points="259.567,-131.566 248.972,-131.516 257.223,-138.162 259.567,-131.566"/>
</g>
<!-- Node13 -->
<g id="node13" class="node"><title>Node13</title>
<g id="a_node13"><a xlink:href="_color_palette_8h.html" target="_top" xlink:title="ColorPalette.h">
<polygon fill="none" stroke="black" points="388.5,-112.5 388.5,-131.5 467.5,-131.5 467.5,-112.5 388.5,-112.5"/>
<text text-anchor="middle" x="428" y="-119.5" font-family="Helvetica,sans-Serif" font-size="10.00">ColorPalette.h</text>
</a>
</g>
</g>
<!-- Node3&#45;&gt;Node13 -->
<g id="edge13" class="edge"><title>Node3&#45;&gt;Node13</title>
<path fill="none" stroke="midnightblue" d="M385.422,-168.083C392.848,-160.22 403.852,-148.569 412.812,-139.081"/>
<polygon fill="midnightblue" stroke="midnightblue" points="415.413,-141.424 419.735,-131.751 410.324,-136.618 415.413,-141.424"/>
</g>
<!-- Node5 -->
<g id="node5" class="node"><title>Node5</title>
<polygon fill="none" stroke="#bfbfbf" points="531.5,-0.5 531.5,-19.5 590.5,-19.5 590.5,-0.5 531.5,-0.5"/>
<text text-anchor="middle" x="561" y="-7.5" font-family="Helvetica,sans-Serif" font-size="10.00">inttypes.h</text>
</g>
<!-- Node4&#45;&gt;Node5 -->
<g id="edge4" class="edge"><title>Node4&#45;&gt;Node5</title>
<path fill="none" stroke="midnightblue" d="M561,-56.083C561,-49.0059 561,-38.8611 561,-29.9865"/>
<polygon fill="midnightblue" stroke="midnightblue" points="564.5,-29.751 561,-19.7511 557.5,-29.7511 564.5,-29.751"/>
</g>
<!-- Node6&#45;&gt;Node4 -->
<g id="edge12" class="edge"><title>Node6&#45;&gt;Node4</title>
<path fill="none" stroke="midnightblue" d="M258.137,-115.674C314.472,-106.621 429.693,-88.1029 500.65,-76.699"/>
<polygon fill="midnightblue" stroke="midnightblue" points="501.468,-80.1126 510.786,-75.0701 500.357,-73.2013 501.468,-80.1126"/>
</g>
<!-- Node7 -->
<g id="node7" class="node"><title>Node7</title>
<polygon fill="none" stroke="#bfbfbf" points="0,-56.5 0,-75.5 42,-75.5 42,-56.5 0,-56.5"/>
<text text-anchor="middle" x="21" y="-63.5" font-family="Helvetica,sans-Serif" font-size="10.00">locale</text>
</g>
<!-- Node6&#45;&gt;Node7 -->
<g id="edge6" class="edge"><title>Node6&#45;&gt;Node7</title>
<path fill="none" stroke="midnightblue" d="M191.971,-113.021C158.688,-104.868 105.636,-91.5654 51.8746,-76.449"/>
<polygon fill="midnightblue" stroke="midnightblue" points="52.7626,-73.0629 42.1873,-73.7073 50.8562,-79.7984 52.7626,-73.0629"/>
</g>
<!-- Node8 -->
<g id="node8" class="node"><title>Node8</title>
<polygon fill="none" stroke="#bfbfbf" points="59.5,-56.5 59.5,-75.5 108.5,-75.5 108.5,-56.5 59.5,-56.5"/>
<text text-anchor="middle" x="84" y="-63.5" font-family="Helvetica,sans-Serif" font-size="10.00">random</text>
</g>
<!-- Node6&#45;&gt;Node8 -->
<g id="edge7" class="edge"><title>Node6&#45;&gt;Node8</title>
<path fill="none" stroke="midnightblue" d="M202.658,-112.444C179.247,-103.478 142.264,-89.314 115.81,-79.1827"/>
<polygon fill="midnightblue" stroke="midnightblue" points="116.828,-75.8245 106.237,-75.5164 114.324,-82.3615 116.828,-75.8245"/>
</g>
<!-- Node9 -->
<g id="node9" class="node"><title>Node9</title>
<polygon fill="none" stroke="#bfbfbf" points="126,-56.5 126,-75.5 156,-75.5 156,-56.5 126,-56.5"/>
<text text-anchor="middle" x="141" y="-63.5" font-family="Helvetica,sans-Serif" font-size="10.00">set</text>
</g>
<!-- Node6&#45;&gt;Node9 -->
<g id="edge8" class="edge"><title>Node6&#45;&gt;Node9</title>
<path fill="none" stroke="midnightblue" d="M211.504,-112.324C198.4,-103.9 178.288,-90.9709 162.893,-81.0741"/>
<polygon fill="midnightblue" stroke="midnightblue" points="164.767,-78.118 154.463,-75.6545 160.982,-84.0063 164.767,-78.118"/>
</g>
<!-- Node10 -->
<g id="node10" class="node"><title>Node10</title>
<polygon fill="none" stroke="#bfbfbf" points="174.5,-56.5 174.5,-75.5 215.5,-75.5 215.5,-56.5 174.5,-56.5"/>
<text text-anchor="middle" x="195" y="-63.5" font-family="Helvetica,sans-Serif" font-size="10.00">string</text>
</g>
<!-- Node6&#45;&gt;Node10 -->
<g id="edge9" class="edge"><title>Node6&#45;&gt;Node10</title>
<path fill="none" stroke="midnightblue" d="M220.046,-112.083C215.896,-104.613 209.847,-93.7244 204.733,-84.5199"/>
<polygon fill="midnightblue" stroke="midnightblue" points="207.778,-82.7929 199.862,-75.7511 201.659,-86.1924 207.778,-82.7929"/>
</g>
<!-- Node11 -->
<g id="node11" class="node"><title>Node11</title>
<polygon fill="none" stroke="#bfbfbf" points="234,-56.5 234,-75.5 278,-75.5 278,-56.5 234,-56.5"/>
<text text-anchor="middle" x="256" y="-63.5" font-family="Helvetica,sans-Serif" font-size="10.00">vector</text>
</g>
<!-- Node6&#45;&gt;Node11 -->
<g id="edge10" class="edge"><title>Node6&#45;&gt;Node11</title>
<path fill="none" stroke="midnightblue" d="M230.119,-112.083C234.408,-104.613 240.658,-93.7244 245.942,-84.5199"/>
<polygon fill="midnightblue" stroke="midnightblue" points="249.033,-86.1662 250.976,-75.7511 242.962,-82.6811 249.033,-86.1662"/>
</g>
<!-- Node12 -->
<g id="node12" class="node"><title>Node12</title>
<polygon fill="none" stroke="#bfbfbf" points="295.5,-56.5 295.5,-75.5 402.5,-75.5 402.5,-56.5 295.5,-56.5"/>
<text text-anchor="middle" x="349" y="-63.5" font-family="Helvetica,sans-Serif" font-size="10.00">boost/filesystem.hpp</text>
</g>
<!-- Node6&#45;&gt;Node12 -->
<g id="edge11" class="edge"><title>Node6&#45;&gt;Node12</title>
<path fill="none" stroke="midnightblue" d="M244.648,-112.444C264.965,-103.596 296.903,-89.6875 320.098,-79.5865"/>
<polygon fill="midnightblue" stroke="midnightblue" points="321.673,-82.7181 329.444,-75.5164 318.878,-76.3002 321.673,-82.7181"/>
</g>
<!-- Node13&#45;&gt;Node4 -->
<g id="edge15" class="edge"><title>Node13&#45;&gt;Node4</title>
<path fill="none" stroke="midnightblue" d="M449.074,-112.444C471.06,-103.517 505.734,-89.4387 530.664,-79.3168"/>
<polygon fill="midnightblue" stroke="midnightblue" points="532.076,-82.5213 540.024,-75.5164 529.442,-76.0355 532.076,-82.5213"/>
</g>
<!-- Node14 -->
<g id="node14" class="node"><title>Node14</title>
<polygon fill="none" stroke="#bfbfbf" points="421,-56.5 421,-75.5 493,-75.5 493,-56.5 421,-56.5"/>
<text text-anchor="middle" x="457" y="-63.5" font-family="Helvetica,sans-Serif" font-size="10.00">SDL2/SDL.h</text>
</g>
<!-- Node13&#45;&gt;Node14 -->
<g id="edge14" class="edge"><title>Node13&#45;&gt;Node14</title>
<path fill="none" stroke="midnightblue" d="M432.789,-112.083C436.758,-104.691 442.525,-93.9533 447.435,-84.8111"/>
<polygon fill="midnightblue" stroke="midnightblue" points="450.653,-86.217 452.3,-75.7511 444.486,-82.9051 450.653,-86.217"/>
</g>
<!-- Node15&#45;&gt;Node13 -->
<g id="edge19" class="edge"><title>Node15&#45;&gt;Node13</title>
<path fill="none" stroke="midnightblue" d="M545.035,-224.368C523.612,-205.814 472.927,-161.913 445.823,-138.438"/>
<polygon fill="midnightblue" stroke="midnightblue" points="447.77,-135.493 437.919,-131.591 443.187,-140.784 447.77,-135.493"/>
</g>
<!-- Node16 -->
<g id="node16" class="node"><title>Node16</title>
<g id="a_node16"><a xlink:href="_viewport2_d_8h.html" target="_top" xlink:title="Viewport2D.h">
<polygon fill="none" stroke="black" points="486,-112.5 486,-131.5 562,-131.5 562,-112.5 486,-112.5"/>
<text text-anchor="middle" x="524" y="-119.5" font-family="Helvetica,sans-Serif" font-size="10.00">Viewport2D.h</text>
</a>
</g>
</g>
<!-- Node15&#45;&gt;Node16 -->
<g id="edge17" class="edge"><title>Node15&#45;&gt;Node16</title>
<path fill="none" stroke="midnightblue" d="M552.567,-224.368C547.542,-206.537 535.92,-165.295 529.149,-141.272"/>
<polygon fill="midnightblue" stroke="midnightblue" points="532.503,-140.267 526.421,-131.591 525.765,-142.166 532.503,-140.267"/>
</g>
<!-- Node17 -->
<g id="node17" class="node"><title>Node17</title>
<g id="a_node17"><a xlink:href="_bitmap_8h.html" target="_top" xlink:title="Bitmap.h">
<polygon fill="none" stroke="black" points="557,-168.5 557,-187.5 613,-187.5 613,-168.5 557,-168.5"/>
<text text-anchor="middle" x="585" y="-175.5" font-family="Helvetica,sans-Serif" font-size="10.00">Bitmap.h</text>
</a>
</g>
</g>
<!-- Node15&#45;&gt;Node17 -->
<g id="edge20" class="edge"><title>Node15&#45;&gt;Node17</title>
<path fill="none" stroke="midnightblue" d="M559.954,-224.083C564.104,-216.613 570.153,-205.724 575.267,-196.52"/>
<polygon fill="midnightblue" stroke="midnightblue" points="578.341,-198.192 580.138,-187.751 572.222,-194.793 578.341,-198.192"/>
</g>
<!-- Node18 -->
<g id="node18" class="node"><title>Node18</title>
<g id="a_node18"><a xlink:href="_patch_8h.html" target="_top" xlink:title="Patch.h">
<polygon fill="none" stroke="black" points="645,-168.5 645,-187.5 695,-187.5 695,-168.5 645,-168.5"/>
<text text-anchor="middle" x="670" y="-175.5" font-family="Helvetica,sans-Serif" font-size="10.00">Patch.h</text>
</a>
</g>
</g>
<!-- Node15&#45;&gt;Node18 -->
<g id="edge22" class="edge"><title>Node15&#45;&gt;Node18</title>
<path fill="none" stroke="midnightblue" d="M573.222,-224.444C591.896,-215.675 621.156,-201.935 642.617,-191.858"/>
<polygon fill="midnightblue" stroke="midnightblue" points="644.299,-194.935 651.863,-187.516 641.324,-188.599 644.299,-194.935"/>
</g>
<!-- Node16&#45;&gt;Node4 -->
<g id="edge18" class="edge"><title>Node16&#45;&gt;Node4</title>
<path fill="none" stroke="midnightblue" d="M530.11,-112.083C535.282,-104.534 542.846,-93.4948 549.194,-84.2298"/>
<polygon fill="midnightblue" stroke="midnightblue" points="552.239,-85.9787 555.004,-75.7511 546.464,-82.0221 552.239,-85.9787"/>
</g>
<!-- Node17&#45;&gt;Node4 -->
<g id="edge21" class="edge"><title>Node17&#45;&gt;Node4</title>
<path fill="none" stroke="midnightblue" d="M583.116,-168.165C580.445,-155.657 575.392,-132.073 571,-112 569.095,-103.293 566.955,-93.6442 565.144,-85.5217"/>
<polygon fill="midnightblue" stroke="midnightblue" points="568.529,-84.6198 562.934,-75.6231 561.698,-86.1456 568.529,-84.6198"/>
</g>
<!-- Node19 -->
<g id="node19" class="node"><title>Node19</title>
<g id="a_node19"><a xlink:href="_world_coordinates_8h.html" target="_top" xlink:title="../Util/WorldCoordinates.h">
<polygon fill="none" stroke="black" points="618,-112.5 618,-131.5 748,-131.5 748,-112.5 618,-112.5"/>
<text text-anchor="middle" x="683" y="-119.5" font-family="Helvetica,sans-Serif" font-size="10.00">../Util/WorldCoordinates.h</text>
</a>
</g>
</g>
<!-- Node18&#45;&gt;Node19 -->
<g id="edge23" class="edge"><title>Node18&#45;&gt;Node19</title>
<path fill="none" stroke="midnightblue" d="M672.147,-168.083C673.869,-160.927 676.347,-150.635 678.5,-141.691"/>
<polygon fill="midnightblue" stroke="midnightblue" points="681.955,-142.293 680.893,-131.751 675.15,-140.654 681.955,-142.293"/>
</g>
<!-- Node19&#45;&gt;Node4 -->
<g id="edge24" class="edge"><title>Node19&#45;&gt;Node4</title>
<path fill="none" stroke="midnightblue" d="M663.669,-112.444C643.68,-103.596 612.257,-89.6875 589.436,-79.5865"/>
<polygon fill="midnightblue" stroke="midnightblue" points="590.802,-76.3635 580.241,-75.5164 587.968,-82.7645 590.802,-76.3635"/>
</g>
<!-- Node20&#45;&gt;Node4 -->
<g id="edge26" class="edge"><title>Node20&#45;&gt;Node4</title>
<path fill="none" stroke="midnightblue" d="M744.267,-224.246C756.535,-202.604 783.991,-145.891 757,-112 740.228,-90.9414 672.534,-78.9241 621.357,-72.6972"/>
<polygon fill="midnightblue" stroke="midnightblue" points="621.701,-69.2136 611.362,-71.528 620.888,-76.1662 621.701,-69.2136"/>
</g>
</g>
</svg>
        <g id="navigator" transform="translate(0 0)" fill="#404254">
                <rect fill="#f2f5e9" fill-opacity="0.5" stroke="#606060" stroke-width=".5" x="0" y="0" width="60" height="60"/>
                <use id="zoomplus" xlink:href="#zoomPlus" x="17" y="9" onmousedown="handleZoom(evt,'in')"/>
                <use id="zoomminus" xlink:href="#zoomMin" x="42" y="9" onmousedown="handleZoom(evt,'out')"/>
                <use id="reset" xlink:href="#resetDef" x="30" y="36" onmousedown="handleReset()"/>
                <g id="arrowUp" xlink:href="#dirArrow" transform="translate(30 24)" onmousedown="handlePan(0,-1)">
                  <use xlink:href="#rim" fill="#404040">
                        <set attributeName="fill" to="#808080" begin="arrowUp.mouseover" end="arrowUp.mouseout"/>
                  </use>
                  <path fill="none" stroke="white" stroke-width="1.5" d="M0,-3.0v7 M-2.5,-0.5L0,-3.0L2.5,-0.5"/>
                </g>
                <g id="arrowRight" xlink:href="#dirArrow" transform="rotate(90) translate(36 -43)" onmousedown="handlePan(1,0)">
                  <use xlink:href="#rim" fill="#404040">
                        <set attributeName="fill" to="#808080" begin="arrowRight.mouseover" end="arrowRight.mouseout"/>
                  </use>
                  <path fill="none" stroke="white" stroke-width="1.5" d="M0,-3.0v7 M-2.5,-0.5L0,-3.0L2.5,-0.5"/>
                </g>
                <g id="arrowDown" xlink:href="#dirArrow" transform="rotate(180) translate(-30 -48)" onmousedown="handlePan(0,1)">
                  <use xlink:href="#rim" fill="#404040">
                        <set attributeName="fill" to="#808080" begin="arrowDown.mouseover" end="arrowDown.mouseout"/>
                  </use>
                  <path fill="none" stroke="white" stroke-width="1.5" d="M0,-3.0v7 M-2.5,-0.5L0,-3.0L2.5,-0.5"/>
                </g>
                <g id="arrowLeft" xlink:href="#dirArrow" transform="rotate(270) translate(-36 17)" onmousedown="handlePan(-1,0)">
                  <use xlink:href="#rim" fill="#404040">
                        <set attributeName="fill" to="#808080" begin="arrowLeft.mouseover" end="arrowLeft.mouseout"/>
                  </use>
                  <path fill="none" stroke="white" stroke-width="1.5" d="M0,-3.0v7 M-2.5,-0.5L0,-3.0L2.5,-0.5"/>
                </g>
        </g>
        <svg viewBox="0 0 15 15" width="100%" height="30px" preserveAspectRatio="xMaxYMin meet">
         <g id="arrow_out" transform="scale(0.3 0.3)">
          <a xlink:href="_viewport3_d_8cpp__incl_org.svg" target="_base">
           <rect id="button" ry="5" rx="5" y="6" x="6" height="38" width="38"
                fill="#f2f5e9" fill-opacity="0.5" stroke="#606060" stroke-width="1.0"/>
           <path id="arrow"
             d="M 11.500037,31.436501 C 11.940474,20.09759 22.043105,11.32322 32.158766,21.979434 L 37.068811,17.246167 C 37.068811,17.246167 37.088388,32 37.088388,32 L 22.160133,31.978069 C 22.160133,31.978069 26.997745,27.140456 26.997745,27.140456 C 18.528582,18.264221 13.291696,25.230495 11.500037,31.436501 z"
             style="fill:#404040;"/>
          </a>
         </g>
        </svg>
</svg>
