<?xml version="1.0" encoding="UTF-8" standalone="no"?>
<!DOCTYPE svg PUBLIC "-//W3C//DTD SVG 1.1//EN"
 "http://www.w3.org/Graphics/SVG/1.1/DTD/svg11.dtd">
<!-- Generated by graphviz version 2.38.0 (20140413.2041)
 -->
<!-- Title: Wallpaper.cpp Pages: 1 -->
<svg width="428pt" height="532pt"
 viewBox="0.00 0.00 428.00 532.00" xmlns="http://www.w3.org/2000/svg" xmlns:xlink="http://www.w3.org/1999/xlink">
<g id="graph0" class="graph" transform="scale(1 1) rotate(0) translate(4 528)">
<title>Wallpaper.cpp</title>
<!-- Node1 -->
<g id="node1" class="node"><title>Node1</title>
<polygon fill="#bfbfbf" stroke="black" points="246.5,-504.5 246.5,-523.5 325.5,-523.5 325.5,-504.5 246.5,-504.5"/>
<text text-anchor="middle" x="286" y="-511.5" font-family="Helvetica,sans-Serif" font-size="10.00">Wallpaper.cpp</text>
</g>
<!-- Node2 -->
<g id="node2" class="node"><title>Node2</title>
<g id="a_node2"><a xlink:href="_wallpaper_8h.html" target="_top" xlink:title="Wallpaper.h">
<polygon fill="none" stroke="black" points="252,-448.5 252,-467.5 320,-467.5 320,-448.5 252,-448.5"/>
<text text-anchor="middle" x="286" y="-455.5" font-family="Helvetica,sans-Serif" font-size="10.00">Wallpaper.h</text>
</a>
</g>
</g>
<!-- Node1&#45;&gt;Node2 -->
<g id="edge1" class="edge"><title>Node1&#45;&gt;Node2</title>
<path fill="none" stroke="midnightblue" d="M286,-504.083C286,-497.006 286,-486.861 286,-477.986"/>
<polygon fill="midnightblue" stroke="midnightblue" points="289.5,-477.751 286,-467.751 282.5,-477.751 289.5,-477.751"/>
</g>
<!-- Node3 -->
<g id="node3" class="node"><title>Node3</title>
<g id="a_node3"><a xlink:href="_color_8h.html" target="_top" xlink:title="Color.h">
<polygon fill="none" stroke="black" points="242,-168.5 242,-187.5 290,-187.5 290,-168.5 242,-168.5"/>
<text text-anchor="middle" x="266" y="-175.5" font-family="Helvetica,sans-Serif" font-size="10.00">Color.h</text>
</a>
</g>
</g>
<!-- Node2&#45;&gt;Node3 -->
<g id="edge2" class="edge"><title>Node2&#45;&gt;Node3</title>
<path fill="none" stroke="midnightblue" d="M286,-448.442C286,-429.936 286,-384.812 286,-347 286,-347 286,-347 286,-289 286,-256.438 277.412,-219.315 271.491,-197.592"/>
<polygon fill="midnightblue" stroke="midnightblue" points="274.793,-196.408 268.697,-187.742 268.058,-198.317 274.793,-196.408"/>
</g>
<!-- Node7 -->
<g id="node7" class="node"><title>Node7</title>
<g id="a_node7"><a xlink:href="_res_8h.html" target="_top" xlink:title="Res.h">
<polygon fill="none" stroke="black" points="331.5,-392.5 331.5,-411.5 374.5,-411.5 374.5,-392.5 331.5,-392.5"/>
<text text-anchor="middle" x="353" y="-399.5" font-family="Helvetica,sans-Serif" font-size="10.00">Res.h</text>
</a>
</g>
</g>
<!-- Node2&#45;&gt;Node7 -->
<g id="edge7" class="edge"><title>Node2&#45;&gt;Node7</title>
<path fill="none" stroke="midnightblue" d="M296.765,-448.324C306.766,-440.263 321.887,-428.077 333.93,-418.369"/>
<polygon fill="midnightblue" stroke="midnightblue" points="336.45,-420.834 342.039,-411.834 332.057,-415.384 336.45,-420.834"/>
</g>
<!-- Node10 -->
<g id="node10" class="node"><title>Node10</title>
<g id="a_node10"><a xlink:href="_background_8h.html" target="_top" xlink:title="Background.h">
<polygon fill="none" stroke="black" points="176.5,-392.5 176.5,-411.5 253.5,-411.5 253.5,-392.5 176.5,-392.5"/>
<text text-anchor="middle" x="215" y="-399.5" font-family="Helvetica,sans-Serif" font-size="10.00">Background.h</text>
</a>
</g>
</g>
<!-- Node2&#45;&gt;Node10 -->
<g id="edge11" class="edge"><title>Node2&#45;&gt;Node10</title>
<path fill="none" stroke="midnightblue" d="M274.593,-448.324C263.891,-440.185 247.659,-427.839 234.837,-418.087"/>
<polygon fill="midnightblue" stroke="midnightblue" points="236.693,-415.102 226.615,-411.834 232.456,-420.673 236.693,-415.102"/>
</g>
<!-- Node4 -->
<g id="node4" class="node"><title>Node4</title>
<g id="a_node4"><a xlink:href="_m_r___types_8h.html" target="_top" xlink:title="../Util/MR_Types.h">
<polygon fill="none" stroke="black" points="231,-56.5 231,-75.5 331,-75.5 331,-56.5 231,-56.5"/>
<text text-anchor="middle" x="281" y="-63.5" font-family="Helvetica,sans-Serif" font-size="10.00">../Util/MR_Types.h</text>
</a>
</g>
</g>
<!-- Node3&#45;&gt;Node4 -->
<g id="edge3" class="edge"><title>Node3&#45;&gt;Node4</title>
<path fill="none" stroke="midnightblue" d="M274.214,-168.182C281.544,-159.663 291.755,-146.019 296,-132 300.767,-116.257 295.627,-97.9746 290.106,-84.8168"/>
<polygon fill="midnightblue" stroke="midnightblue" points="293.168,-83.1015 285.778,-75.5095 286.821,-86.0529 293.168,-83.1015"/>
</g>
<!-- Node6 -->
<g id="node6" class="node"><title>Node6</title>
<g id="a_node6"><a xlink:href="_sel_fmt_8h.html" target="_top" xlink:title="../Util/SelFmt.h">
<polygon fill="none" stroke="black" points="204.5,-112.5 204.5,-131.5 287.5,-131.5 287.5,-112.5 204.5,-112.5"/>
<text text-anchor="middle" x="246" y="-119.5" font-family="Helvetica,sans-Serif" font-size="10.00">../Util/SelFmt.h</text>
</a>
</g>
</g>
<!-- Node3&#45;&gt;Node6 -->
<g id="edge5" class="edge"><title>Node3&#45;&gt;Node6</title>
<path fill="none" stroke="midnightblue" d="M262.697,-168.083C260.018,-160.849 256.151,-150.409 252.814,-141.397"/>
<polygon fill="midnightblue" stroke="midnightblue" points="255.996,-139.913 249.241,-131.751 249.432,-142.344 255.996,-139.913"/>
</g>
<!-- Node5 -->
<g id="node5" class="node"><title>Node5</title>
<polygon fill="none" stroke="#bfbfbf" points="251.5,-0.5 251.5,-19.5 310.5,-19.5 310.5,-0.5 251.5,-0.5"/>
<text text-anchor="middle" x="281" y="-7.5" font-family="Helvetica,sans-Serif" font-size="10.00">inttypes.h</text>
</g>
<!-- Node4&#45;&gt;Node5 -->
<g id="edge4" class="edge"><title>Node4&#45;&gt;Node5</title>
<path fill="none" stroke="midnightblue" d="M281,-56.083C281,-49.0059 281,-38.8611 281,-29.9865"/>
<polygon fill="midnightblue" stroke="midnightblue" points="284.5,-29.751 281,-19.7511 277.5,-29.7511 284.5,-29.751"/>
</g>
<!-- Node6&#45;&gt;Node4 -->
<g id="edge6" class="edge"><title>Node6&#45;&gt;Node4</title>
<path fill="none" stroke="midnightblue" d="M251.78,-112.083C256.672,-104.534 263.827,-93.4948 269.833,-84.2298"/>
<polygon fill="midnightblue" stroke="midnightblue" points="272.826,-86.0463 275.328,-75.7511 266.952,-82.239 272.826,-86.0463"/>
</g>
<!-- Node7&#45;&gt;Node4 -->
<g id="edge8" class="edge"><title>Node7&#45;&gt;Node4</title>
<path fill="none" stroke="midnightblue" d="M365.088,-392.312C375.712,-384.083 390.865,-370.806 400,-356 415.871,-330.277 420,-321.225 420,-291 420,-291 420,-291 420,-177 420,-125.575 360.775,-94.4164 319.643,-78.9776"/>
<polygon fill="midnightblue" stroke="midnightblue" points="320.733,-75.6505 310.139,-75.5652 318.368,-82.2387 320.733,-75.6505"/>
</g>
<!-- Node8 -->
<g id="node8" class="node"><title>Node8</title>
<g id="a_node8"><a xlink:href="_exception_8h.html" target="_top" xlink:title="../Exception.h">
<polygon fill="none" stroke="black" points="314.5,-336.5 314.5,-355.5 391.5,-355.5 391.5,-336.5 314.5,-336.5"/>
<text text-anchor="middle" x="353" y="-343.5" font-family="Helvetica,sans-Serif" font-size="10.00">../Exception.h</text>
</a>
</g>
</g>
<!-- Node7&#45;&gt;Node8 -->
<g id="edge9" class="edge"><title>Node7&#45;&gt;Node8</title>
<path fill="none" stroke="midnightblue" d="M353,-392.083C353,-385.006 353,-374.861 353,-365.986"/>
<polygon fill="midnightblue" stroke="midnightblue" points="356.5,-365.751 353,-355.751 349.5,-365.751 356.5,-365.751"/>
</g>
<!-- Node9 -->
<g id="node9" class="node"><title>Node9</title>
<polygon fill="none" stroke="#bfbfbf" points="323.5,-280.5 323.5,-299.5 382.5,-299.5 382.5,-280.5 323.5,-280.5"/>
<text text-anchor="middle" x="353" y="-287.5" font-family="Helvetica,sans-Serif" font-size="10.00">exception</text>
</g>
<!-- Node8&#45;&gt;Node9 -->
<g id="edge10" class="edge"><title>Node8&#45;&gt;Node9</title>
<path fill="none" stroke="midnightblue" d="M353,-336.083C353,-329.006 353,-318.861 353,-309.986"/>
<polygon fill="midnightblue" stroke="midnightblue" points="356.5,-309.751 353,-299.751 349.5,-309.751 356.5,-309.751"/>
</g>
<!-- Node11 -->
<g id="node11" class="node"><title>Node11</title>
<g id="a_node11"><a xlink:href="_view_model_8h.html" target="_top" xlink:title="ViewModel.h">
<polygon fill="none" stroke="black" points="170.5,-336.5 170.5,-355.5 243.5,-355.5 243.5,-336.5 170.5,-336.5"/>
<text text-anchor="middle" x="207" y="-343.5" font-family="Helvetica,sans-Serif" font-size="10.00">ViewModel.h</text>
</a>
</g>
</g>
<!-- Node10&#45;&gt;Node11 -->
<g id="edge12" class="edge"><title>Node10&#45;&gt;Node11</title>
<path fill="none" stroke="midnightblue" d="M213.679,-392.083C212.619,-384.927 211.094,-374.635 209.769,-365.691"/>
<polygon fill="midnightblue" stroke="midnightblue" points="213.224,-365.13 208.296,-355.751 206.3,-366.156 213.224,-365.13"/>
</g>
<!-- Node12 -->
<g id="node12" class="node"><title>Node12</title>
<g id="a_node12"><a xlink:href="_display_8h.html" target="_top" xlink:title="Display.h">
<polygon fill="none" stroke="black" points="69,-280.5 69,-299.5 127,-299.5 127,-280.5 69,-280.5"/>
<text text-anchor="middle" x="98" y="-287.5" font-family="Helvetica,sans-Serif" font-size="10.00">Display.h</text>
</a>
</g>
</g>
<!-- Node11&#45;&gt;Node12 -->
<g id="edge13" class="edge"><title>Node11&#45;&gt;Node12</title>
<path fill="none" stroke="midnightblue" d="M189.487,-336.324C171.928,-327.625 144.669,-314.12 124.469,-304.113"/>
<polygon fill="midnightblue" stroke="midnightblue" points="125.984,-300.958 115.469,-299.655 122.876,-307.23 125.984,-300.958"/>
</g>
<!-- Node18 -->
<g id="node18" class="node"><title>Node18</title>
<g id="a_node18"><a xlink:href="_view_attacher_8h.html" target="_top" xlink:title="ViewAttacher.h">
<polygon fill="none" stroke="black" points="174.5,-224.5 174.5,-243.5 257.5,-243.5 257.5,-224.5 174.5,-224.5"/>
<text text-anchor="middle" x="216" y="-231.5" font-family="Helvetica,sans-Serif" font-size="10.00">ViewAttacher.h</text>
</a>
</g>
</g>
<!-- Node11&#45;&gt;Node18 -->
<g id="edge25" class="edge"><title>Node11&#45;&gt;Node18</title>
<path fill="none" stroke="midnightblue" d="M207.706,-336.368C209.159,-318.617 212.509,-277.666 214.478,-253.597"/>
<polygon fill="midnightblue" stroke="midnightblue" points="217.97,-253.844 215.297,-243.591 210.993,-253.273 217.97,-253.844"/>
</g>
<!-- Node19 -->
<g id="node19" class="node"><title>Node19</title>
<g id="a_node19"><a xlink:href="_view_8h.html" target="_top" xlink:title="View.h">
<polygon fill="none" stroke="black" points="145.5,-280.5 145.5,-299.5 192.5,-299.5 192.5,-280.5 145.5,-280.5"/>
<text text-anchor="middle" x="169" y="-287.5" font-family="Helvetica,sans-Serif" font-size="10.00">View.h</text>
</a>
</g>
</g>
<!-- Node11&#45;&gt;Node19 -->
<g id="edge24" class="edge"><title>Node11&#45;&gt;Node19</title>
<path fill="none" stroke="midnightblue" d="M200.725,-336.083C195.358,-328.455 187.482,-317.264 180.921,-307.941"/>
<polygon fill="midnightblue" stroke="midnightblue" points="183.775,-305.915 175.158,-299.751 178.051,-309.943 183.775,-305.915"/>
</g>
<!-- Node13 -->
<g id="node13" class="node"><title>Node13</title>
<g id="a_node13"><a xlink:href="_vec_8h.html" target="_top" xlink:title="../Vec.h">
<polygon fill="none" stroke="black" points="65.5,-168.5 65.5,-187.5 116.5,-187.5 116.5,-168.5 65.5,-168.5"/>
<text text-anchor="middle" x="91" y="-175.5" font-family="Helvetica,sans-Serif" font-size="10.00">../Vec.h</text>
</a>
</g>
</g>
<!-- Node12&#45;&gt;Node13 -->
<g id="edge14" class="edge"><title>Node12&#45;&gt;Node13</title>
<path fill="none" stroke="midnightblue" d="M97.1242,-280.382C96.2301,-271.33 94.8556,-256.677 94,-244 92.9527,-228.483 92.1642,-210.857 91.6591,-197.878"/>
<polygon fill="midnightblue" stroke="midnightblue" points="95.1551,-197.702 91.2887,-187.838 88.1598,-197.96 95.1551,-197.702"/>
</g>
<!-- Node14 -->
<g id="node14" class="node"><title>Node14</title>
<g id="a_node14"><a xlink:href="_styles_8h.html" target="_top" xlink:title="Styles.h">
<polygon fill="none" stroke="black" points="103.5,-224.5 103.5,-243.5 156.5,-243.5 156.5,-224.5 103.5,-224.5"/>
<text text-anchor="middle" x="130" y="-231.5" font-family="Helvetica,sans-Serif" font-size="10.00">Styles.h</text>
</a>
</g>
</g>
<!-- Node12&#45;&gt;Node14 -->
<g id="edge15" class="edge"><title>Node12&#45;&gt;Node14</title>
<path fill="none" stroke="midnightblue" d="M103.284,-280.083C107.711,-272.613 114.163,-261.724 119.618,-252.52"/>
<polygon fill="midnightblue" stroke="midnightblue" points="122.727,-254.138 124.814,-243.751 116.705,-250.57 122.727,-254.138"/>
</g>
<!-- Node17 -->
<g id="node17" class="node"><title>Node17</title>
<g id="a_node17"><a xlink:href="_ui_layout_flags_8h.html" target="_top" xlink:title="UiLayoutFlags.h">
<polygon fill="none" stroke="black" points="0,-112.5 0,-131.5 88,-131.5 88,-112.5 0,-112.5"/>
<text text-anchor="middle" x="44" y="-119.5" font-family="Helvetica,sans-Serif" font-size="10.00">UiLayoutFlags.h</text>
</a>
</g>
</g>
<!-- Node12&#45;&gt;Node17 -->
<g id="edge21" class="edge"><title>Node12&#45;&gt;Node17</title>
<path fill="none" stroke="midnightblue" d="M93.6461,-280.312C85.1939,-263.111 66.4757,-223.321 56,-188 51.4573,-172.684 48.3065,-154.803 46.3772,-141.676"/>
<polygon fill="midnightblue" stroke="midnightblue" points="49.815,-140.982 44.9919,-131.549 42.8796,-141.931 49.815,-140.982"/>
</g>
<!-- Node12&#45;&gt;Node18 -->
<g id="edge23" class="edge"><title>Node12&#45;&gt;Node18</title>
<path fill="none" stroke="midnightblue" d="M116.697,-280.444C135.944,-271.636 166.152,-257.812 188.2,-247.722"/>
<polygon fill="midnightblue" stroke="midnightblue" points="189.753,-250.86 197.39,-243.516 186.84,-244.495 189.753,-250.86"/>
</g>
<!-- Node14&#45;&gt;Node3 -->
<g id="edge20" class="edge"><title>Node14&#45;&gt;Node3</title>
<path fill="none" stroke="midnightblue" d="M151.55,-224.444C174.031,-215.517 209.488,-201.439 234.98,-191.317"/>
<polygon fill="midnightblue" stroke="midnightblue" points="236.549,-194.46 244.551,-187.516 233.965,-187.954 236.549,-194.46"/>
</g>
<!-- Node14&#45;&gt;Node13 -->
<g id="edge16" class="edge"><title>Node14&#45;&gt;Node13</title>
<path fill="none" stroke="midnightblue" d="M123.56,-224.083C118.051,-216.455 109.969,-205.264 103.235,-195.941"/>
<polygon fill="midnightblue" stroke="midnightblue" points="106.013,-193.809 97.3202,-187.751 100.338,-197.907 106.013,-193.809"/>
</g>
<!-- Node15 -->
<g id="node15" class="node"><title>Node15</title>
<g id="a_node15"><a xlink:href="_ui_font_8h.html" target="_top" xlink:title="UiFont.h">
<polygon fill="none" stroke="black" points="135,-168.5 135,-187.5 189,-187.5 189,-168.5 135,-168.5"/>
<text text-anchor="middle" x="162" y="-175.5" font-family="Helvetica,sans-Serif" font-size="10.00">UiFont.h</text>
</a>
</g>
</g>
<!-- Node14&#45;&gt;Node15 -->
<g id="edge17" class="edge"><title>Node14&#45;&gt;Node15</title>
<path fill="none" stroke="midnightblue" d="M135.284,-224.083C139.711,-216.613 146.163,-205.724 151.618,-196.52"/>
<polygon fill="midnightblue" stroke="midnightblue" points="154.727,-198.138 156.814,-187.751 148.705,-194.57 154.727,-198.138"/>
</g>
<!-- Node15&#45;&gt;Node6 -->
<g id="edge19" class="edge"><title>Node15&#45;&gt;Node6</title>
<path fill="none" stroke="midnightblue" d="M175.496,-168.324C188.6,-159.9 208.712,-146.971 224.107,-137.074"/>
<polygon fill="midnightblue" stroke="midnightblue" points="226.018,-140.006 232.537,-131.655 222.233,-134.118 226.018,-140.006"/>
</g>
<!-- Node16 -->
<g id="node16" class="node"><title>Node16</title>
<g id="a_node16"><a xlink:href="_hash_8h.html" target="_top" xlink:title="../Util/Hash.h">
<polygon fill="none" stroke="black" points="111.5,-112.5 111.5,-131.5 186.5,-131.5 186.5,-112.5 111.5,-112.5"/>
<text text-anchor="middle" x="149" y="-119.5" font-family="Helvetica,sans-Serif" font-size="10.00">../Util/Hash.h</text>
</a>
</g>
</g>
<!-- Node15&#45;&gt;Node16 -->
<g id="edge18" class="edge"><title>Node15&#45;&gt;Node16</title>
<path fill="none" stroke="midnightblue" d="M159.853,-168.083C158.131,-160.927 155.653,-150.635 153.5,-141.691"/>
<polygon fill="midnightblue" stroke="midnightblue" points="156.85,-140.654 151.107,-131.751 150.045,-142.293 156.85,-140.654"/>
</g>
<!-- Node17&#45;&gt;Node4 -->
<g id="edge22" class="edge"><title>Node17&#45;&gt;Node4</title>
<path fill="none" stroke="midnightblue" d="M81.5534,-112.444C122.811,-103.043 189.144,-87.9291 233.866,-77.7393"/>
<polygon fill="midnightblue" stroke="midnightblue" points="234.65,-81.1506 243.622,-75.5164 233.095,-74.3255 234.65,-81.1506"/>
</g>
</g>
</svg>
