<?xml version="1.0" encoding="UTF-8" standalone="no"?>
<!DOCTYPE svg PUBLIC "-//W3C//DTD SVG 1.1//EN"
 "http://www.w3.org/Graphics/SVG/1.1/DTD/svg11.dtd">
<!-- Generated by graphviz version 2.26.3 (20100126.1600)
 -->
<!-- Title: Wallpaper.cpp Pages: 1 -->
<!--zoomable 494 -->
<svg id="main" version="1.1" xmlns="http://www.w3.org/2000/svg" xmlns:xlink="http://www.w3.org/1999/xlink" xml:space="preserve" onload="init(evt)">
<style type="text/css"><![CDATA[
.edge:hover path { stroke: red; }
.edge:hover polygon { stroke: red; fill: red; }
]]></style>
<script type="text/javascript"><![CDATA[
var edges = document.getElementsByTagName('g');
if (edges && edges.length) {
  for (var i=0;i<edges.length;i++) {
    if (edges[i].id.substr(0,4)=='edge') {
      edges[i].setAttribute('class','edge');
    }
  }
}
]]></script>
        <defs>
                <circle id="rim" cx="0" cy="0" r="7"/>
                <circle id="rim2" cx="0" cy="0" r="3.5"/>
                <g id="zoomPlus">
                        <use xlink:href="#rim" fill="#404040">
                                <set attributeName="fill" to="#808080" begin="zoomplus.mouseover" end="zoomplus.mouseout"/>
                        </use>
                        <path d="M-4,0h8M0,-4v8" fill="none" stroke="white" stroke-width="1.5" pointer-events="none"/>
                </g>
                <g id="zoomMin">
                        <use xlink:href="#rim" fill="#404040">
                                <set attributeName="fill" to="#808080" begin="zoomminus.mouseover" end="zoomminus.mouseout"/>
                        </use>
                        <path d="M-4,0h8" fill="none" stroke="white" stroke-width="1.5" pointer-events="none"/>
                </g>
                <g id="dirArrow">
                        <path fill="none" stroke="white" stroke-width="1.5" d="M0,-3.0v7 M-2.5,-0.5L0,-3.0L2.5,-0.5"/>
                </g>
               <g id="resetDef">
                       <use xlink:href="#rim2" fill="#404040">
                               <set attributeName="fill" to="#808080" begin="reset.mouseover" end="reset.mouseout"/>
                       </use>
               </g>
        </defs>

<script type="text/javascript">
var viewWidth = 477;
var viewHeight = 494;
var sectionId = 'dynsection-0';
</script>
<script xlink:href="svgpan.js"/>
<svg id="graph" class="graph">
<g id="viewport">
<title>Wallpaper.cpp</title>
<!-- Node1 -->
<g id="node1" class="node"><title>Node1</title>
<polygon fill="#bfbfbf" stroke="black" points="153.431,-465 153.431,-485 230.431,-485 230.431,-465 153.431,-465"/>
<text text-anchor="middle" x="191.931" y="-472" font-family="FreeSans" font-size="10.00">Wallpaper.cpp</text>
</g>
<!-- Node2 -->
<g id="node3" class="node"><title>Node2</title>
<a xlink:href="_wallpaper_8h.html" target="_top" xlink:title="Wallpaper.h">
<polygon fill="none" stroke="black" points="158.431,-407 158.431,-427 225.431,-427 225.431,-407 158.431,-407"/>
<text text-anchor="middle" x="191.931" y="-414" font-family="FreeSans" font-size="10.00">Wallpaper.h</text>
</a>
</g>
<!-- Node1&#45;&gt;Node2 -->
<g id="edge2" class="edge"><title>Node1&#45;&gt;Node2</title>
<path fill="none" stroke="midnightblue" d="M191.931,-464.897C191.931,-457.339 191.931,-446.748 191.931,-437.446"/>
<polygon fill="midnightblue" stroke="midnightblue" points="195.431,-437.378 191.931,-427.378 188.431,-437.378 195.431,-437.378"/>
</g>
<!-- Node3 -->
<g id="node5" class="node"><title>Node3</title>
<a xlink:href="_color_8h.html" target="_top" xlink:title="Color.h">
<polygon fill="none" stroke="black" points="18.4311,-175 18.4311,-195 65.4311,-195 65.4311,-175 18.4311,-175"/>
<text text-anchor="middle" x="41.9311" y="-182" font-family="FreeSans" font-size="10.00">Color.h</text>
</a>
</g>
<!-- Node2&#45;&gt;Node3 -->
<g id="edge4" class="edge"><title>Node2&#45;&gt;Node3</title>
<path fill="none" stroke="midnightblue" d="M180.196,-406.963C170.088,-397.943 155.5,-383.998 144.931,-370 102.977,-314.433 66.7211,-239.821 50.6976,-204.763"/>
<polygon fill="midnightblue" stroke="midnightblue" points="53.6937,-202.893 46.3904,-195.217 47.3132,-205.772 53.6937,-202.893"/>
</g>
<!-- Node8 -->
<g id="node16" class="node"><title>Node8</title>
<a xlink:href="_res_8h.html" target="_top" xlink:title="Res.h">
<polygon fill="none" stroke="black" points="346.431,-349 346.431,-369 387.431,-369 387.431,-349 346.431,-349"/>
<text text-anchor="middle" x="366.931" y="-356" font-family="FreeSans" font-size="10.00">Res.h</text>
</a>
</g>
<!-- Node2&#45;&gt;Node8 -->
<g id="edge16" class="edge"><title>Node2&#45;&gt;Node8</title>
<path fill="none" stroke="midnightblue" d="M222.414,-406.897C254.49,-396.266 304.672,-379.634 336.666,-369.031"/>
<polygon fill="midnightblue" stroke="midnightblue" points="337.978,-372.283 346.369,-365.815 335.775,-365.639 337.978,-372.283"/>
</g>
<!-- Node11 -->
<g id="node23" class="node"><title>Node11</title>
<a xlink:href="_background_8h.html" target="_top" xlink:title="Background.h">
<polygon fill="none" stroke="black" points="153.931,-349 153.931,-369 229.931,-369 229.931,-349 153.931,-349"/>
<text text-anchor="middle" x="191.931" y="-356" font-family="FreeSans" font-size="10.00">Background.h</text>
</a>
</g>
<!-- Node2&#45;&gt;Node11 -->
<g id="edge24" class="edge"><title>Node2&#45;&gt;Node11</title>
<path fill="none" stroke="midnightblue" d="M191.931,-406.897C191.931,-399.339 191.931,-388.748 191.931,-379.446"/>
<polygon fill="midnightblue" stroke="midnightblue" points="195.431,-379.378 191.931,-369.378 188.431,-379.378 195.431,-379.378"/>
</g>
<!-- Node4 -->
<g id="node7" class="node"><title>Node4</title>
<polygon fill="none" stroke="#bfbfbf" points="13.4311,-117 13.4311,-137 102.431,-137 102.431,-117 13.4311,-117"/>
<text text-anchor="middle" x="57.9311" y="-124" font-family="FreeSans" font-size="10.00">boost/format.hpp</text>
</g>
<!-- Node3&#45;&gt;Node4 -->
<g id="edge6" class="edge"><title>Node3&#45;&gt;Node4</title>
<path fill="none" stroke="midnightblue" d="M44.7181,-174.897C46.8258,-167.257 49.7885,-156.517 52.3745,-147.143"/>
<polygon fill="midnightblue" stroke="midnightblue" points="55.783,-147.948 55.0683,-137.378 49.035,-146.087 55.783,-147.948"/>
</g>
<!-- Node5 -->
<g id="node9" class="node"><title>Node5</title>
<a xlink:href="_m_r___types_8h.html" target="_top" xlink:title="../Util/MR_Types.h">
<polygon fill="none" stroke="black" points="161.931,-59 161.931,-79 257.931,-79 257.931,-59 161.931,-59"/>
<text text-anchor="middle" x="209.931" y="-66" font-family="FreeSans" font-size="10.00">../Util/MR_Types.h</text>
</a>
</g>
<!-- Node3&#45;&gt;Node5 -->
<g id="edge8" class="edge"><title>Node3&#45;&gt;Node5</title>
<path fill="none" stroke="midnightblue" d="M29.5209,-174.957C13.6321,-160.89 -10.1451,-134.924 4.93113,-116 22.9925,-93.3291 97.5003,-80.7009 151.493,-74.3786"/>
<polygon fill="midnightblue" stroke="midnightblue" points="152.111,-77.8313 161.656,-73.2338 151.327,-70.8753 152.111,-77.8313"/>
</g>
<!-- Node7 -->
<g id="node13" class="node"><title>Node7</title>
<a xlink:href="_sel_fmt_8h.html" target="_top" xlink:title="../Util/SelFmt.h">
<polygon fill="none" stroke="black" points="119.431,-117 119.431,-137 200.431,-137 200.431,-117 119.431,-117"/>
<text text-anchor="middle" x="159.931" y="-124" font-family="FreeSans" font-size="10.00">../Util/SelFmt.h</text>
</a>
</g>
<!-- Node3&#45;&gt;Node7 -->
<g id="edge12" class="edge"><title>Node3&#45;&gt;Node7</title>
<path fill="none" stroke="midnightblue" d="M62.4852,-174.897C81.1523,-165.722 108.914,-152.076 130.036,-141.694"/>
<polygon fill="midnightblue" stroke="midnightblue" points="131.786,-144.734 139.217,-137.182 128.698,-138.452 131.786,-144.734"/>
</g>
<!-- Node6 -->
<g id="node11" class="node"><title>Node6</title>
<polygon fill="none" stroke="#bfbfbf" points="180.931,-1 180.931,-21 238.931,-21 238.931,-1 180.931,-1"/>
<text text-anchor="middle" x="209.931" y="-8" font-family="FreeSans" font-size="10.00">inttypes.h</text>
</g>
<!-- Node5&#45;&gt;Node6 -->
<g id="edge10" class="edge"><title>Node5&#45;&gt;Node6</title>
<path fill="none" stroke="midnightblue" d="M209.931,-58.8972C209.931,-51.339 209.931,-40.7476 209.931,-31.4458"/>
<polygon fill="midnightblue" stroke="midnightblue" points="213.431,-31.3776 209.931,-21.3776 206.431,-31.3776 213.431,-31.3776"/>
</g>
<!-- Node7&#45;&gt;Node5 -->
<g id="edge14" class="edge"><title>Node7&#45;&gt;Node5</title>
<path fill="none" stroke="midnightblue" d="M168.64,-116.897C175.723,-108.682 185.894,-96.8827 194.37,-87.0513"/>
<polygon fill="midnightblue" stroke="midnightblue" points="197.106,-89.237 200.985,-79.3776 191.805,-84.6664 197.106,-89.237"/>
</g>
<!-- Node8&#45;&gt;Node5 -->
<g id="edge18" class="edge"><title>Node8&#45;&gt;Node5</title>
<path fill="none" stroke="midnightblue" d="M366.931,-348.759C366.931,-328.541 366.931,-282.069 366.931,-243 366.931,-243 366.931,-243 366.931,-185 366.931,-130.106 304.077,-98.2378 257.908,-82.234"/>
<polygon fill="midnightblue" stroke="midnightblue" points="258.931,-78.8859 248.338,-79.0571 256.726,-85.5295 258.931,-78.8859"/>
</g>
<!-- Node9 -->
<g id="node19" class="node"><title>Node9</title>
<a xlink:href="_exception_8h.html" target="_top" xlink:title="../Exception.h">
<polygon fill="none" stroke="black" points="394.931,-291 394.931,-311 468.931,-311 468.931,-291 394.931,-291"/>
<text text-anchor="middle" x="431.931" y="-298" font-family="FreeSans" font-size="10.00">../Exception.h</text>
</a>
</g>
<!-- Node8&#45;&gt;Node9 -->
<g id="edge20" class="edge"><title>Node8&#45;&gt;Node9</title>
<path fill="none" stroke="midnightblue" d="M378.253,-348.897C387.736,-340.435 401.48,-328.172 412.687,-318.172"/>
<polygon fill="midnightblue" stroke="midnightblue" points="415.17,-320.647 420.301,-311.378 410.509,-315.424 415.17,-320.647"/>
</g>
<!-- Node10 -->
<g id="node21" class="node"><title>Node10</title>
<polygon fill="none" stroke="#bfbfbf" points="402.931,-233 402.931,-253 460.931,-253 460.931,-233 402.931,-233"/>
<text text-anchor="middle" x="431.931" y="-240" font-family="FreeSans" font-size="10.00">exception</text>
</g>
<!-- Node9&#45;&gt;Node10 -->
<g id="edge22" class="edge"><title>Node9&#45;&gt;Node10</title>
<path fill="none" stroke="midnightblue" d="M431.931,-290.897C431.931,-283.339 431.931,-272.748 431.931,-263.446"/>
<polygon fill="midnightblue" stroke="midnightblue" points="435.431,-263.378 431.931,-253.378 428.431,-263.378 435.431,-263.378"/>
</g>
<!-- Node12 -->
<g id="node25" class="node"><title>Node12</title>
<a xlink:href="_view_model_8h.html" target="_top" xlink:title="ViewModel.h">
<polygon fill="none" stroke="black" points="155.931,-291 155.931,-311 227.931,-311 227.931,-291 155.931,-291"/>
<text text-anchor="middle" x="191.931" y="-298" font-family="FreeSans" font-size="10.00">ViewModel.h</text>
</a>
</g>
<!-- Node11&#45;&gt;Node12 -->
<g id="edge26" class="edge"><title>Node11&#45;&gt;Node12</title>
<path fill="none" stroke="midnightblue" d="M191.931,-348.897C191.931,-341.339 191.931,-330.748 191.931,-321.446"/>
<polygon fill="midnightblue" stroke="midnightblue" points="195.431,-321.378 191.931,-311.378 188.431,-321.378 195.431,-321.378"/>
</g>
<!-- Node13 -->
<g id="node27" class="node"><title>Node13</title>
<a xlink:href="_display_8h.html" target="_top" xlink:title="Display.h">
<polygon fill="none" stroke="black" points="163.931,-233 163.931,-253 219.931,-253 219.931,-233 163.931,-233"/>
<text text-anchor="middle" x="191.931" y="-240" font-family="FreeSans" font-size="10.00">Display.h</text>
</a>
</g>
<!-- Node12&#45;&gt;Node13 -->
<g id="edge28" class="edge"><title>Node12&#45;&gt;Node13</title>
<path fill="none" stroke="midnightblue" d="M191.931,-290.897C191.931,-283.339 191.931,-272.748 191.931,-263.446"/>
<polygon fill="midnightblue" stroke="midnightblue" points="195.431,-263.378 191.931,-253.378 188.431,-263.378 195.431,-263.378"/>
</g>
<!-- Node17 -->
<g id="node38" class="node"><title>Node17</title>
<a xlink:href="_view_attacher_8h.html" target="_top" xlink:title="ViewAttacher.h">
<polygon fill="none" stroke="black" points="256.431,-175 256.431,-195 339.431,-195 339.431,-175 256.431,-175"/>
<text text-anchor="middle" x="297.931" y="-182" font-family="FreeSans" font-size="10.00">ViewAttacher.h</text>
</a>
</g>
<!-- Node12&#45;&gt;Node17 -->
<g id="edge46" class="edge"><title>Node12&#45;&gt;Node17</title>
<path fill="none" stroke="midnightblue" d="M201.338,-290.706C219.456,-270.879 259.381,-227.187 281.816,-202.636"/>
<polygon fill="midnightblue" stroke="midnightblue" points="284.535,-204.849 288.697,-195.106 279.367,-200.127 284.535,-204.849"/>
</g>
<!-- Node18 -->
<g id="node40" class="node"><title>Node18</title>
<a xlink:href="_view_8h.html" target="_top" xlink:title="View.h">
<polygon fill="none" stroke="black" points="99.9311,-233 99.9311,-253 145.931,-253 145.931,-233 99.9311,-233"/>
<text text-anchor="middle" x="122.931" y="-240" font-family="FreeSans" font-size="10.00">View.h</text>
</a>
</g>
<!-- Node12&#45;&gt;Node18 -->
<g id="edge44" class="edge"><title>Node12&#45;&gt;Node18</title>
<path fill="none" stroke="midnightblue" d="M179.912,-290.897C169.748,-282.353 154.972,-269.933 143.014,-259.881"/>
<polygon fill="midnightblue" stroke="midnightblue" points="145.184,-257.133 135.277,-253.378 140.68,-262.491 145.184,-257.133"/>
</g>
<!-- Node13&#45;&gt;Node3 -->
<g id="edge36" class="edge"><title>Node13&#45;&gt;Node3</title>
<path fill="none" stroke="midnightblue" d="M165.803,-232.897C140.685,-223.185 102.613,-208.464 75.3098,-197.906"/>
<polygon fill="midnightblue" stroke="midnightblue" points="76.3713,-194.564 65.7819,-194.222 73.8467,-201.093 76.3713,-194.564"/>
</g>
<!-- Node14 -->
<g id="node29" class="node"><title>Node14</title>
<a xlink:href="_vec_8h.html" target="_top" xlink:title="../Vec.h">
<polygon fill="none" stroke="black" points="82.4311,-175 82.4311,-195 131.431,-195 131.431,-175 82.4311,-175"/>
<text text-anchor="middle" x="106.931" y="-182" font-family="FreeSans" font-size="10.00">../Vec.h</text>
</a>
</g>
<!-- Node13&#45;&gt;Node14 -->
<g id="edge30" class="edge"><title>Node13&#45;&gt;Node14</title>
<path fill="none" stroke="midnightblue" d="M177.125,-232.897C164.163,-224.052 145.114,-211.054 130.129,-200.829"/>
<polygon fill="midnightblue" stroke="midnightblue" points="132.086,-197.927 121.853,-195.182 128.14,-203.709 132.086,-197.927"/>
</g>
<!-- Node15 -->
<g id="node31" class="node"><title>Node15</title>
<a xlink:href="_ui_font_8h.html" target="_top" xlink:title="UiFont.h">
<polygon fill="none" stroke="black" points="148.431,-175 148.431,-195 201.431,-195 201.431,-175 148.431,-175"/>
<text text-anchor="middle" x="174.931" y="-182" font-family="FreeSans" font-size="10.00">UiFont.h</text>
</a>
</g>
<!-- Node13&#45;&gt;Node15 -->
<g id="edge32" class="edge"><title>Node13&#45;&gt;Node15</title>
<path fill="none" stroke="midnightblue" d="M188.97,-232.897C186.731,-225.257 183.583,-214.517 180.835,-205.143"/>
<polygon fill="midnightblue" stroke="midnightblue" points="184.144,-203.989 177.973,-195.378 177.427,-205.958 184.144,-203.989"/>
</g>
<!-- Node16 -->
<g id="node35" class="node"><title>Node16</title>
<a xlink:href="_ui_layout_flags_8h.html" target="_top" xlink:title="UiLayoutFlags.h">
<polygon fill="none" stroke="black" points="217.431,-117 217.431,-137 304.431,-137 304.431,-117 217.431,-117"/>
<text text-anchor="middle" x="260.931" y="-124" font-family="FreeSans" font-size="10.00">UiLayoutFlags.h</text>
</a>
</g>
<!-- Node13&#45;&gt;Node16 -->
<g id="edge38" class="edge"><title>Node13&#45;&gt;Node16</title>
<path fill="none" stroke="midnightblue" d="M198.054,-232.706C209.643,-213.223 234.937,-170.7 249.669,-145.934"/>
<polygon fill="midnightblue" stroke="midnightblue" points="252.816,-147.489 254.92,-137.106 246.8,-143.911 252.816,-147.489"/>
</g>
<!-- Node13&#45;&gt;Node17 -->
<g id="edge42" class="edge"><title>Node13&#45;&gt;Node17</title>
<path fill="none" stroke="midnightblue" d="M210.395,-232.897C226.937,-223.846 251.43,-210.444 270.304,-200.117"/>
<polygon fill="midnightblue" stroke="midnightblue" points="272.231,-203.052 279.323,-195.182 268.871,-196.911 272.231,-203.052"/>
</g>
<!-- Node15&#45;&gt;Node7 -->
<g id="edge34" class="edge"><title>Node15&#45;&gt;Node7</title>
<path fill="none" stroke="midnightblue" d="M172.318,-174.897C170.342,-167.257 167.565,-156.517 165.14,-147.143"/>
<polygon fill="midnightblue" stroke="midnightblue" points="168.507,-146.183 162.615,-137.378 161.73,-147.935 168.507,-146.183"/>
</g>
<!-- Node16&#45;&gt;Node5 -->
<g id="edge40" class="edge"><title>Node16&#45;&gt;Node5</title>
<path fill="none" stroke="midnightblue" d="M252.048,-116.897C244.824,-108.682 234.449,-96.8827 225.804,-87.0513"/>
<polygon fill="midnightblue" stroke="midnightblue" points="228.288,-84.5761 219.056,-79.3776 223.031,-89.1985 228.288,-84.5761"/>
</g>
</g>
</svg>
        <g id="navigator" transform="translate(0 0)" fill="#404254">
                <rect fill="#f2f5e9" fill-opacity="0.5" stroke="#606060" stroke-width=".5" x="0" y="0" width="60" height="60"/>
                <use id="zoomplus" xlink:href="#zoomPlus" x="17" y="9" onmousedown="handleZoom(evt,'in')"/>
                <use id="zoomminus" xlink:href="#zoomMin" x="42" y="9" onmousedown="handleZoom(evt,'out')"/>
                <use id="reset" xlink:href="#resetDef" x="30" y="36" onmousedown="handleReset()"/>
                <g id="arrowUp" xlink:href="#dirArrow" transform="translate(30 24)" onmousedown="handlePan(0,-1)">
                  <use xlink:href="#rim" fill="#404040">
                        <set attributeName="fill" to="#808080" begin="arrowUp.mouseover" end="arrowUp.mouseout"/>
                  </use>
                  <path fill="none" stroke="white" stroke-width="1.5" d="M0,-3.0v7 M-2.5,-0.5L0,-3.0L2.5,-0.5"/>
                </g>
                <g id="arrowRight" xlink:href="#dirArrow" transform="rotate(90) translate(36 -43)" onmousedown="handlePan(1,0)">
                  <use xlink:href="#rim" fill="#404040">
                        <set attributeName="fill" to="#808080" begin="arrowRight.mouseover" end="arrowRight.mouseout"/>
                  </use>
                  <path fill="none" stroke="white" stroke-width="1.5" d="M0,-3.0v7 M-2.5,-0.5L0,-3.0L2.5,-0.5"/>
                </g>
                <g id="arrowDown" xlink:href="#dirArrow" transform="rotate(180) translate(-30 -48)" onmousedown="handlePan(0,1)">
                  <use xlink:href="#rim" fill="#404040">
                        <set attributeName="fill" to="#808080" begin="arrowDown.mouseover" end="arrowDown.mouseout"/>
                  </use>
                  <path fill="none" stroke="white" stroke-width="1.5" d="M0,-3.0v7 M-2.5,-0.5L0,-3.0L2.5,-0.5"/>
                </g>
                <g id="arrowLeft" xlink:href="#dirArrow" transform="rotate(270) translate(-36 17)" onmousedown="handlePan(-1,0)">
                  <use xlink:href="#rim" fill="#404040">
                        <set attributeName="fill" to="#808080" begin="arrowLeft.mouseover" end="arrowLeft.mouseout"/>
                  </use>
                  <path fill="none" stroke="white" stroke-width="1.5" d="M0,-3.0v7 M-2.5,-0.5L0,-3.0L2.5,-0.5"/>
                </g>
        </g>
        <svg viewBox="0 0 15 15" width="100%" height="30px" preserveAspectRatio="xMaxYMin meet">
         <g id="arrow_out" transform="scale(0.3 0.3)">
          <a xlink:href="_wallpaper_8cpp__incl_org.svg" target="_base">
           <rect id="button" ry="5" rx="5" y="6" x="6" height="38" width="38"
                fill="#f2f5e9" fill-opacity="0.5" stroke="#606060" stroke-width="1.0"/>
           <path id="arrow"
             d="M 11.500037,31.436501 C 11.940474,20.09759 22.043105,11.32322 32.158766,21.979434 L 37.068811,17.246167 C 37.068811,17.246167 37.088388,32 37.088388,32 L 22.160133,31.978069 C 22.160133,31.978069 26.997745,27.140456 26.997745,27.140456 C 18.528582,18.264221 13.291696,25.230495 11.500037,31.436501 z"
             style="fill:#404040;"/>
          </a>
         </g>
        </svg>
</svg>
