<?xml version="1.0" encoding="UTF-8" standalone="no"?>
<!DOCTYPE svg PUBLIC "-//W3C//DTD SVG 1.1//EN"
 "http://www.w3.org/Graphics/SVG/1.1/DTD/svg11.dtd">
<!-- Generated by graphviz version 2.26.3 (20100126.1600)
 -->
<!-- Title: HoverRace::Display::BaseRes Pages: 1 -->
<svg width="226pt" height="182pt"
 viewBox="0.00 0.00 226.00 182.00" xmlns="http://www.w3.org/2000/svg" xmlns:xlink="http://www.w3.org/1999/xlink">
<g id="graph1" class="graph" transform="scale(1 1) rotate(0) translate(4 178)">
<title>HoverRace::Display::BaseRes</title>
<!-- Node1 -->
<g id="node1" class="node"><title>Node1</title>
<polygon fill="#bfbfbf" stroke="black" points="58.5,-141 58.5,-173 159.5,-173 159.5,-141 58.5,-141"/>
<text text-anchor="start" x="66.5" y="-160" font-family="FreeSans" font-size="10.00">HoverRace::Display</text>
<text text-anchor="middle" x="109" y="-148" font-family="FreeSans" font-size="10.00">::BaseRes</text>
</g>
<!-- Node2 -->
<g id="node3" class="node"><title>Node2</title>
<a xlink:href="class_hover_race_1_1_display_1_1_res.html" target="_top" xlink:title="Base class for loadable resources. ">
<polygon fill="none" stroke="black" points="-0.5,-71 -0.5,-103 100.5,-103 100.5,-71 -0.5,-71"/>
<text text-anchor="start" x="7.5" y="-90" font-family="FreeSans" font-size="10.00">HoverRace::Display</text>
<text text-anchor="middle" x="50" y="-78" font-family="FreeSans" font-size="10.00">::Res&lt; T &gt;</text>
</a>
</g>
<!-- Node1&#45;&gt;Node2 -->
<g id="edge2" class="edge"><title>Node1&#45;&gt;Node2</title>
<path fill="none" stroke="midnightblue" d="M88.6775,-132.889C80.3964,-123.064 71.0437,-111.967 63.6099,-103.147"/>
<polygon fill="midnightblue" stroke="midnightblue" points="86.195,-135.374 95.3159,-140.765 91.5474,-130.863 86.195,-135.374"/>
</g>
<!-- Node4 -->
<g id="node7" class="node"><title>Node4</title>
<a xlink:href="class_hover_race_1_1_display_1_1_res_3_01_texture_01_4.html" target="_top" xlink:title="Base class for loadable textures. ">
<polygon fill="none" stroke="black" points="117.5,-71 117.5,-103 218.5,-103 218.5,-71 117.5,-71"/>
<text text-anchor="start" x="125.5" y="-90" font-family="FreeSans" font-size="10.00">HoverRace::Display</text>
<text text-anchor="middle" x="168" y="-78" font-family="FreeSans" font-size="10.00">::Res&lt; Texture &gt;</text>
</a>
</g>
<!-- Node1&#45;&gt;Node4 -->
<g id="edge6" class="edge"><title>Node1&#45;&gt;Node4</title>
<path fill="none" stroke="midnightblue" d="M129.323,-132.889C137.604,-123.064 146.956,-111.967 154.39,-103.147"/>
<polygon fill="midnightblue" stroke="midnightblue" points="126.453,-130.863 122.684,-140.765 131.805,-135.374 126.453,-130.863"/>
</g>
<!-- Node3 -->
<g id="node5" class="node"><title>Node3</title>
<a xlink:href="class_hover_race_1_1_display_1_1_media_res.html" target="_top" xlink:title="Represents a file in the game&#39;s media directory. ">
<polygon fill="none" stroke="black" points="-0.5,-1 -0.5,-33 100.5,-33 100.5,-1 -0.5,-1"/>
<text text-anchor="start" x="7.5" y="-20" font-family="FreeSans" font-size="10.00">HoverRace::Display</text>
<text text-anchor="middle" x="50" y="-8" font-family="FreeSans" font-size="10.00">::MediaRes&lt; T &gt;</text>
</a>
</g>
<!-- Node2&#45;&gt;Node3 -->
<g id="edge4" class="edge"><title>Node2&#45;&gt;Node3</title>
<path fill="none" stroke="midnightblue" d="M50,-60.5079C50,-51.3027 50,-41.2615 50,-33.1473"/>
<polygon fill="midnightblue" stroke="midnightblue" points="46.5001,-60.7646 50,-70.7646 53.5001,-60.7647 46.5001,-60.7646"/>
</g>
<!-- Node5 -->
<g id="node9" class="node"><title>Node5</title>
<a xlink:href="class_hover_race_1_1_display_1_1_sprite_texture_res.html" target="_top" xlink:title="Loads a legacy 8&#45;bit sprite as a texture. ">
<polygon fill="none" stroke="black" points="117.5,-1 117.5,-33 218.5,-33 218.5,-1 117.5,-1"/>
<text text-anchor="start" x="125.5" y="-20" font-family="FreeSans" font-size="10.00">HoverRace::Display</text>
<text text-anchor="middle" x="168" y="-8" font-family="FreeSans" font-size="10.00">::SpriteTextureRes</text>
</a>
</g>
<!-- Node4&#45;&gt;Node5 -->
<g id="edge8" class="edge"><title>Node4&#45;&gt;Node5</title>
<path fill="none" stroke="midnightblue" d="M168,-60.5079C168,-51.3027 168,-41.2615 168,-33.1473"/>
<polygon fill="midnightblue" stroke="midnightblue" points="164.5,-60.7646 168,-70.7646 171.5,-60.7647 164.5,-60.7646"/>
</g>
</g>
</svg>
