<?xml version="1.0" encoding="UTF-8" standalone="no"?>
<!DOCTYPE svg PUBLIC "-//W3C//DTD SVG 1.1//EN"
 "http://www.w3.org/Graphics/SVG/1.1/DTD/svg11.dtd">
<!-- Generated by graphviz version 2.38.0 (20140413.2041)
 -->
<!-- Title: HoverRace::ObjFacTools::FreeElementBase Pages: 1 -->
<svg width="862pt" height="284pt"
 viewBox="0.00 0.00 862.00 284.00" xmlns="http://www.w3.org/2000/svg" xmlns:xlink="http://www.w3.org/1999/xlink">
<g id="graph0" class="graph" transform="scale(1 1) rotate(0) translate(4 280)">
<title>HoverRace::ObjFacTools::FreeElementBase</title>
<!-- Node1 -->
<g id="node1" class="node"><title>Node1</title>
<polygon fill="#bfbfbf" stroke="black" points="577,-122.5 577,-152.5 706,-152.5 706,-122.5 577,-122.5"/>
<text text-anchor="start" x="585" y="-140.5" font-family="FreeSans" font-size="10.00">HoverRace::ObjFacTools</text>
<text text-anchor="middle" x="641.5" y="-129.5" font-family="FreeSans" font-size="10.00">::FreeElementBase</text>
</g>
<!-- Node6 -->
<g id="node6" class="node"><title>Node6</title>
<g id="a_node6"><a xlink:href="class_hover_race_1_1_obj_fac1_1_1_ball_element.html" target="_top" xlink:title="HoverRace::ObjFac1\l::BallElement">
<polygon fill="none" stroke="black" points="742,-245.5 742,-275.5 854,-275.5 854,-245.5 742,-245.5"/>
<text text-anchor="start" x="750" y="-263.5" font-family="FreeSans" font-size="10.00">HoverRace::ObjFac1</text>
<text text-anchor="middle" x="798" y="-252.5" font-family="FreeSans" font-size="10.00">::BallElement</text>
</a>
</g>
</g>
<!-- Node1&#45;&gt;Node6 -->
<g id="edge5" class="edge"><title>Node1&#45;&gt;Node6</title>
<path fill="none" stroke="midnightblue" d="M661.141,-160.466C679.785,-182.281 710.195,-214.873 742,-236.5 746.824,-239.781 752.17,-242.774 757.578,-245.45"/>
<polygon fill="midnightblue" stroke="midnightblue" points="663.707,-158.08 654.593,-152.679 658.349,-162.585 663.707,-158.08"/>
</g>
<!-- Node7 -->
<g id="node7" class="node"><title>Node7</title>
<g id="a_node7"><a xlink:href="class_hover_race_1_1_obj_fac1_1_1_bumper_gate.html" target="_top" xlink:title="HoverRace::ObjFac1\l::BumperGate">
<polygon fill="none" stroke="black" points="742,-196.5 742,-226.5 854,-226.5 854,-196.5 742,-196.5"/>
<text text-anchor="start" x="750" y="-214.5" font-family="FreeSans" font-size="10.00">HoverRace::ObjFac1</text>
<text text-anchor="middle" x="798" y="-203.5" font-family="FreeSans" font-size="10.00">::BumperGate</text>
</a>
</g>
</g>
<!-- Node1&#45;&gt;Node7 -->
<g id="edge6" class="edge"><title>Node1&#45;&gt;Node7</title>
<path fill="none" stroke="midnightblue" d="M680.441,-157.172C698.901,-166.587 721.486,-177.879 742,-187.5 748.32,-190.464 755.099,-193.52 761.664,-196.418"/>
<polygon fill="midnightblue" stroke="midnightblue" points="681.963,-154.019 671.467,-152.577 678.773,-160.25 681.963,-154.019"/>
</g>
<!-- Node8 -->
<g id="node8" class="node"><title>Node8</title>
<g id="a_node8"><a xlink:href="class_hover_race_1_1_obj_fac1_1_1_mine.html" target="_top" xlink:title="HoverRace::ObjFac1\l::Mine">
<polygon fill="none" stroke="black" points="742,-147.5 742,-177.5 854,-177.5 854,-147.5 742,-147.5"/>
<text text-anchor="start" x="750" y="-165.5" font-family="FreeSans" font-size="10.00">HoverRace::ObjFac1</text>
<text text-anchor="middle" x="798" y="-154.5" font-family="FreeSans" font-size="10.00">::Mine</text>
</a>
</g>
</g>
<!-- Node1&#45;&gt;Node8 -->
<g id="edge7" class="edge"><title>Node1&#45;&gt;Node8</title>
<path fill="none" stroke="midnightblue" d="M716.27,-149.437C724.864,-150.827 733.515,-152.227 741.798,-153.568"/>
<polygon fill="midnightblue" stroke="midnightblue" points="716.664,-145.955 706.233,-147.813 715.546,-152.865 716.664,-145.955"/>
</g>
<!-- Node9 -->
<g id="node9" class="node"><title>Node9</title>
<g id="a_node9"><a xlink:href="class_hover_race_1_1_obj_fac1_1_1_missile.html" target="_top" xlink:title="HoverRace::ObjFac1\l::Missile">
<polygon fill="none" stroke="black" points="742,-98.5 742,-128.5 854,-128.5 854,-98.5 742,-98.5"/>
<text text-anchor="start" x="750" y="-116.5" font-family="FreeSans" font-size="10.00">HoverRace::ObjFac1</text>
<text text-anchor="middle" x="798" y="-105.5" font-family="FreeSans" font-size="10.00">::Missile</text>
</a>
</g>
</g>
<!-- Node1&#45;&gt;Node9 -->
<g id="edge8" class="edge"><title>Node1&#45;&gt;Node9</title>
<path fill="none" stroke="midnightblue" d="M716.27,-126.041C724.864,-124.706 733.515,-123.362 741.798,-122.075"/>
<polygon fill="midnightblue" stroke="midnightblue" points="715.577,-122.606 706.233,-127.6 716.652,-129.523 715.577,-122.606"/>
</g>
<!-- Node10 -->
<g id="node10" class="node"><title>Node10</title>
<g id="a_node10"><a xlink:href="class_hover_race_1_1_obj_fac1_1_1_power_up.html" target="_top" xlink:title="HoverRace::ObjFac1\l::PowerUp">
<polygon fill="none" stroke="black" points="742,-49.5 742,-79.5 854,-79.5 854,-49.5 742,-49.5"/>
<text text-anchor="start" x="750" y="-67.5" font-family="FreeSans" font-size="10.00">HoverRace::ObjFac1</text>
<text text-anchor="middle" x="798" y="-56.5" font-family="FreeSans" font-size="10.00">::PowerUp</text>
</a>
</g>
</g>
<!-- Node1&#45;&gt;Node10 -->
<g id="edge9" class="edge"><title>Node1&#45;&gt;Node10</title>
<path fill="none" stroke="midnightblue" d="M681.542,-117.755C699.81,-108.65 721.921,-97.8189 742,-88.5 748.331,-85.5615 755.116,-82.5172 761.683,-79.6237"/>
<polygon fill="midnightblue" stroke="midnightblue" points="679.748,-114.739 672.37,-122.342 682.879,-120.999 679.748,-114.739"/>
</g>
<!-- Node11 -->
<g id="node11" class="node"><title>Node11</title>
<g id="a_node11"><a xlink:href="class_hover_race_1_1_obj_fac1_1_1_test_element.html" target="_top" xlink:title="Used to test and build new FreeElements. ">
<polygon fill="none" stroke="black" points="742,-0.5 742,-30.5 854,-30.5 854,-0.5 742,-0.5"/>
<text text-anchor="start" x="750" y="-18.5" font-family="FreeSans" font-size="10.00">HoverRace::ObjFac1</text>
<text text-anchor="middle" x="798" y="-7.5" font-family="FreeSans" font-size="10.00">::TestElement</text>
</a>
</g>
</g>
<!-- Node1&#45;&gt;Node11 -->
<g id="edge10" class="edge"><title>Node1&#45;&gt;Node11</title>
<path fill="none" stroke="midnightblue" d="M661.187,-114.779C679.866,-93.194 710.3,-60.9384 742,-39.5 746.833,-36.2317 752.183,-33.2448 757.593,-30.5727"/>
<polygon fill="midnightblue" stroke="midnightblue" points="658.444,-112.601 654.626,-122.484 663.774,-117.14 658.444,-112.601"/>
</g>
<!-- Node2 -->
<g id="node2" class="node"><title>Node2</title>
<g id="a_node2"><a xlink:href="class_hover_race_1_1_model_1_1_free_element.html" target="_top" xlink:title="HoverRace::Model::FreeElement">
<polygon fill="none" stroke="black" points="372,-128 372,-147 541,-147 541,-128 372,-128"/>
<text text-anchor="middle" x="456.5" y="-135" font-family="FreeSans" font-size="10.00">HoverRace::Model::FreeElement</text>
</a>
</g>
</g>
<!-- Node2&#45;&gt;Node1 -->
<g id="edge1" class="edge"><title>Node2&#45;&gt;Node1</title>
<path fill="none" stroke="midnightblue" d="M551.343,-137.5C559.959,-137.5 568.547,-137.5 576.802,-137.5"/>
<polygon fill="midnightblue" stroke="midnightblue" points="551.234,-134 541.234,-137.5 551.234,-141 551.234,-134"/>
</g>
<!-- Node3 -->
<g id="node3" class="node"><title>Node3</title>
<g id="a_node3"><a xlink:href="class_hover_race_1_1_model_1_1_element.html" target="_top" xlink:title="Represents all objects (wall, floor, ceiling, etc.) that can be found in a maze. ">
<polygon fill="none" stroke="black" points="187,-150 187,-169 336,-169 336,-150 187,-150"/>
<text text-anchor="middle" x="261.5" y="-157" font-family="FreeSans" font-size="10.00">HoverRace::Model::Element</text>
</a>
</g>
</g>
<!-- Node3&#45;&gt;Node2 -->
<g id="edge2" class="edge"><title>Node3&#45;&gt;Node2</title>
<path fill="none" stroke="midnightblue" d="M346,-149.982C354.574,-149.005 363.287,-148.011 371.863,-147.034"/>
<polygon fill="midnightblue" stroke="midnightblue" points="345.555,-146.51 336.016,-151.12 346.348,-153.465 345.555,-146.51"/>
</g>
<!-- Node4 -->
<g id="node4" class="node"><title>Node4</title>
<g id="a_node4"><a xlink:href="class_hover_race_1_1_util_1_1_object_from_factory.html" target="_top" xlink:title="Base class for object created with a Dll Factory. ">
<polygon fill="none" stroke="black" points="0,-144.5 0,-174.5 151,-174.5 151,-144.5 0,-144.5"/>
<text text-anchor="start" x="8" y="-162.5" font-family="FreeSans" font-size="10.00">HoverRace::Util::ObjectFrom</text>
<text text-anchor="middle" x="75.5" y="-151.5" font-family="FreeSans" font-size="10.00">Factory</text>
</a>
</g>
</g>
<!-- Node4&#45;&gt;Node3 -->
<g id="edge3" class="edge"><title>Node4&#45;&gt;Node3</title>
<path fill="none" stroke="midnightblue" d="M161.348,-159.5C169.819,-159.5 178.371,-159.5 186.715,-159.5"/>
<polygon fill="midnightblue" stroke="midnightblue" points="161.075,-156 151.075,-159.5 161.075,-163 161.075,-156"/>
</g>
<!-- Node5 -->
<g id="node5" class="node"><title>Node5</title>
<polygon fill="none" stroke="#bfbfbf" points="187,-100.5 187,-130.5 336,-130.5 336,-100.5 187,-100.5"/>
<text text-anchor="start" x="195" y="-118.5" font-family="FreeSans" font-size="10.00">std::enable_shared</text>
<text text-anchor="middle" x="261.5" y="-107.5" font-family="FreeSans" font-size="10.00">_from_this&lt; FreeElement &gt;</text>
</g>
<!-- Node5&#45;&gt;Node2 -->
<g id="edge4" class="edge"><title>Node5&#45;&gt;Node2</title>
<path fill="none" stroke="midnightblue" d="M346,-125.018C354.574,-125.995 363.287,-126.989 371.863,-127.966"/>
<polygon fill="midnightblue" stroke="midnightblue" points="346.348,-121.535 336.016,-123.88 345.555,-128.49 346.348,-121.535"/>
</g>
</g>
</svg>
