<?xml version="1.0" encoding="UTF-8" standalone="no"?>
<!DOCTYPE svg PUBLIC "-//W3C//DTD SVG 1.1//EN"
 "http://www.w3.org/Graphics/SVG/1.1/DTD/svg11.dtd">
<!-- Generated by graphviz version 2.26.3 (20100126.1600)
 -->
<!-- Title: HoverRace::Client::Scene Pages: 1 -->
<svg width="752pt" height="440pt"
 viewBox="0.00 0.00 752.00 440.00" xmlns="http://www.w3.org/2000/svg" xmlns:xlink="http://www.w3.org/1999/xlink">
<g id="graph1" class="graph" transform="scale(1 1) rotate(0) translate(4 436)">
<title>HoverRace::Client::Scene</title>
<!-- Node1 -->
<g id="node1" class="node"><title>Node1</title>
<polygon fill="#bfbfbf" stroke="black" points="0.5,-200 0.5,-232 97.5,-232 97.5,-200 0.5,-200"/>
<text text-anchor="start" x="8.5" y="-219" font-family="FreeSans" font-size="10.00">HoverRace::Client:</text>
<text text-anchor="middle" x="49" y="-207" font-family="FreeSans" font-size="10.00">:Scene</text>
</g>
<!-- Node2 -->
<g id="node3" class="node"><title>Node2</title>
<a xlink:href="class_hover_race_1_1_client_1_1_game_scene.html" target="_top" xlink:title="The actual, genuine gameplay scene.">
<polygon fill="none" stroke="black" points="134.5,-225 134.5,-257 231.5,-257 231.5,-225 134.5,-225"/>
<text text-anchor="start" x="142.5" y="-244" font-family="FreeSans" font-size="10.00">HoverRace::Client:</text>
<text text-anchor="middle" x="183" y="-232" font-family="FreeSans" font-size="10.00">:GameScene</text>
</a>
</g>
<!-- Node1&#45;&gt;Node2 -->
<g id="edge2" class="edge"><title>Node1&#45;&gt;Node2</title>
<path fill="none" stroke="midnightblue" d="M107.606,-226.934C116.434,-228.581 125.459,-230.265 134.056,-231.869"/>
<polygon fill="midnightblue" stroke="midnightblue" points="108.228,-223.49 97.7561,-225.096 106.945,-230.371 108.228,-223.49"/>
</g>
<!-- Node3 -->
<g id="node5" class="node"><title>Node3</title>
<a xlink:href="class_hover_race_1_1_client_1_1_ui_scene.html" target="_top" xlink:title="Base class for UI&#45;centric scenes.">
<polygon fill="none" stroke="black" points="134.5,-175 134.5,-207 231.5,-207 231.5,-175 134.5,-175"/>
<text text-anchor="start" x="142.5" y="-194" font-family="FreeSans" font-size="10.00">HoverRace::Client:</text>
<text text-anchor="middle" x="183" y="-182" font-family="FreeSans" font-size="10.00">:UiScene</text>
</a>
</g>
<!-- Node1&#45;&gt;Node3 -->
<g id="edge4" class="edge"><title>Node1&#45;&gt;Node3</title>
<path fill="none" stroke="midnightblue" d="M107.606,-205.066C116.434,-203.419 125.459,-201.735 134.056,-200.131"/>
<polygon fill="midnightblue" stroke="midnightblue" points="106.945,-201.629 97.7561,-206.904 108.228,-208.51 106.945,-201.629"/>
</g>
<!-- Node4 -->
<g id="node7" class="node"><title>Node4</title>
<a xlink:href="class_hover_race_1_1_client_1_1_form_scene.html" target="_top" xlink:title="Base class for full&#45;scene menus and the like.">
<polygon fill="none" stroke="black" points="288.5,-225 288.5,-257 385.5,-257 385.5,-225 288.5,-225"/>
<text text-anchor="start" x="296.5" y="-244" font-family="FreeSans" font-size="10.00">HoverRace::Client:</text>
<text text-anchor="middle" x="337" y="-232" font-family="FreeSans" font-size="10.00">:FormScene</text>
</a>
</g>
<!-- Node3&#45;&gt;Node4 -->
<g id="edge6" class="edge"><title>Node3&#45;&gt;Node4</title>
<path fill="none" stroke="midnightblue" d="M241.67,-210.049C257.071,-215.049 273.512,-220.387 288.326,-225.197"/>
<polygon fill="midnightblue" stroke="midnightblue" points="242.319,-206.58 231.727,-206.82 240.157,-213.237 242.319,-206.58"/>
</g>
<!-- Node19 -->
<g id="node37" class="node"><title>Node19</title>
<a xlink:href="class_hover_race_1_1_client_1_1_hover_script_1_1_console_scene.html" target="_top" xlink:title="UI for the system console.">
<polygon fill="none" stroke="black" points="268,-175 268,-207 406,-207 406,-175 268,-175"/>
<text text-anchor="start" x="276" y="-194" font-family="FreeSans" font-size="10.00">HoverRace::Client:</text>
<text text-anchor="middle" x="337" y="-182" font-family="FreeSans" font-size="10.00">:HoverScript::ConsoleScene</text>
</a>
</g>
<!-- Node3&#45;&gt;Node19 -->
<g id="edge36" class="edge"><title>Node3&#45;&gt;Node19</title>
<path fill="none" stroke="midnightblue" d="M241.874,-191C250.344,-191 259.123,-191 267.771,-191"/>
<polygon fill="midnightblue" stroke="midnightblue" points="241.727,-187.5 231.727,-191 241.727,-194.5 241.727,-187.5"/>
</g>
<!-- Node20 -->
<g id="node39" class="node"><title>Node20</title>
<a xlink:href="class_hover_race_1_1_client_1_1_palette_scene.html" target="_top" xlink:title="Draws a color grid to debug the color palette of the legacy display.">
<polygon fill="none" stroke="black" points="288.5,-125 288.5,-157 385.5,-157 385.5,-125 288.5,-125"/>
<text text-anchor="start" x="296.5" y="-144" font-family="FreeSans" font-size="10.00">HoverRace::Client:</text>
<text text-anchor="middle" x="337" y="-132" font-family="FreeSans" font-size="10.00">:PaletteScene</text>
</a>
</g>
<!-- Node3&#45;&gt;Node20 -->
<g id="edge38" class="edge"><title>Node3&#45;&gt;Node20</title>
<path fill="none" stroke="midnightblue" d="M241.67,-171.951C257.071,-166.951 273.512,-161.613 288.326,-156.803"/>
<polygon fill="midnightblue" stroke="midnightblue" points="240.157,-168.763 231.727,-175.18 242.319,-175.42 240.157,-168.763"/>
</g>
<!-- Node5 -->
<g id="node9" class="node"><title>Node5</title>
<a xlink:href="class_hover_race_1_1_client_1_1_dialog_scene.html" target="_top" xlink:title="Base class for scenes with a title and status area.">
<polygon fill="none" stroke="black" points="461.5,-350 461.5,-382 558.5,-382 558.5,-350 461.5,-350"/>
<text text-anchor="start" x="469.5" y="-369" font-family="FreeSans" font-size="10.00">HoverRace::Client:</text>
<text text-anchor="middle" x="510" y="-357" font-family="FreeSans" font-size="10.00">:DialogScene</text>
</a>
</g>
<!-- Node4&#45;&gt;Node5 -->
<g id="edge8" class="edge"><title>Node4&#45;&gt;Node5</title>
<path fill="none" stroke="midnightblue" d="M357.003,-265.036C376.656,-287.342 408.498,-320.151 442,-341 447.98,-344.722 454.598,-348.011 461.288,-350.88"/>
<polygon fill="midnightblue" stroke="midnightblue" points="359.525,-262.603 350.333,-257.335 354.234,-267.186 359.525,-262.603"/>
</g>
<!-- Node9 -->
<g id="node17" class="node"><title>Node9</title>
<a xlink:href="class_hover_race_1_1_client_1_1_main_menu_scene.html" target="_top" xlink:title="The title scene.">
<polygon fill="none" stroke="black" points="461.5,-300 461.5,-332 558.5,-332 558.5,-300 461.5,-300"/>
<text text-anchor="start" x="469.5" y="-319" font-family="FreeSans" font-size="10.00">HoverRace::Client:</text>
<text text-anchor="middle" x="510" y="-307" font-family="FreeSans" font-size="10.00">:MainMenuScene</text>
</a>
</g>
<!-- Node4&#45;&gt;Node9 -->
<g id="edge16" class="edge"><title>Node4&#45;&gt;Node9</title>
<path fill="none" stroke="midnightblue" d="M377.916,-261.56C397.173,-270.959 420.57,-281.981 442,-291 449.188,-294.025 456.883,-297.051 464.417,-299.901"/>
<polygon fill="midnightblue" stroke="midnightblue" points="379.34,-258.36 368.821,-257.093 376.253,-264.643 379.34,-258.36"/>
</g>
<!-- Node10 -->
<g id="node19" class="node"><title>Node10</title>
<a xlink:href="class_hover_race_1_1_client_1_1_message_scene.html" target="_top" xlink:title="Displays a message to the user.">
<polygon fill="none" stroke="black" points="461.5,-250 461.5,-282 558.5,-282 558.5,-250 461.5,-250"/>
<text text-anchor="start" x="469.5" y="-269" font-family="FreeSans" font-size="10.00">HoverRace::Client:</text>
<text text-anchor="middle" x="510" y="-257" font-family="FreeSans" font-size="10.00">:MessageScene</text>
</a>
</g>
<!-- Node4&#45;&gt;Node10 -->
<g id="edge18" class="edge"><title>Node4&#45;&gt;Node10</title>
<path fill="none" stroke="midnightblue" d="M395.606,-249.469C417.014,-252.563 440.975,-256.025 461.415,-258.979"/>
<polygon fill="midnightblue" stroke="midnightblue" points="396.048,-245.997 385.651,-248.03 395.047,-252.925 396.048,-245.997"/>
</g>
<!-- Node11 -->
<g id="node21" class="node"><title>Node11</title>
<a xlink:href="class_hover_race_1_1_client_1_1_pause_menu_scene.html" target="_top" xlink:title="Menu displayed when the game is paused.">
<polygon fill="none" stroke="black" points="461,-200 461,-232 559,-232 559,-200 461,-200"/>
<text text-anchor="start" x="469" y="-219" font-family="FreeSans" font-size="10.00">HoverRace::Client:</text>
<text text-anchor="middle" x="510" y="-207" font-family="FreeSans" font-size="10.00">:PauseMenuScene</text>
</a>
</g>
<!-- Node4&#45;&gt;Node11 -->
<g id="edge20" class="edge"><title>Node4&#45;&gt;Node11</title>
<path fill="none" stroke="midnightblue" d="M395.808,-232.502C416.956,-229.446 440.572,-226.033 460.815,-223.108"/>
<polygon fill="midnightblue" stroke="midnightblue" points="395.047,-229.075 385.651,-233.97 396.048,-236.003 395.047,-229.075"/>
</g>
<!-- Node12 -->
<g id="node23" class="node"><title>Node12</title>
<a xlink:href="class_hover_race_1_1_client_1_1_test_lab_scene.html" target="_top" xlink:title="A zoo of renderable components.">
<polygon fill="none" stroke="black" points="461.5,-150 461.5,-182 558.5,-182 558.5,-150 461.5,-150"/>
<text text-anchor="start" x="469.5" y="-169" font-family="FreeSans" font-size="10.00">HoverRace::Client:</text>
<text text-anchor="middle" x="510" y="-157" font-family="FreeSans" font-size="10.00">:TestLabScene</text>
</a>
</g>
<!-- Node4&#45;&gt;Node12 -->
<g id="edge22" class="edge"><title>Node4&#45;&gt;Node12</title>
<path fill="none" stroke="midnightblue" d="M395.017,-221.243C398.78,-219.575 402.472,-217.825 406,-216 423.303,-207.051 424.718,-199.989 442,-191 448.137,-187.808 454.776,-184.833 461.418,-182.13"/>
<polygon fill="midnightblue" stroke="midnightblue" points="393.43,-218.114 385.567,-225.214 396.142,-224.567 393.43,-218.114"/>
</g>
<!-- Node13 -->
<g id="node25" class="node"><title>Node13</title>
<a xlink:href="class_hover_race_1_1_client_1_1_test_lab_scene_1_1_lab_module.html" target="_top" xlink:title="HoverRace::Client:\l:TestLabScene::LabModule">
<polygon fill="none" stroke="black" points="442.5,-100 442.5,-132 577.5,-132 577.5,-100 442.5,-100"/>
<text text-anchor="start" x="450.5" y="-119" font-family="FreeSans" font-size="10.00">HoverRace::Client:</text>
<text text-anchor="middle" x="510" y="-107" font-family="FreeSans" font-size="10.00">:TestLabScene::LabModule</text>
</a>
</g>
<!-- Node4&#45;&gt;Node13 -->
<g id="edge24" class="edge"><title>Node4&#45;&gt;Node13</title>
<path fill="none" stroke="midnightblue" d="M394.807,-224.131C398.823,-221.76 402.613,-219.064 406,-216 433.418,-191.193 414.641,-165.871 442,-141 445.723,-137.616 449.943,-134.679 454.413,-132.132"/>
<polygon fill="midnightblue" stroke="midnightblue" points="393.006,-221.122 385.727,-228.82 396.218,-227.342 393.006,-221.122"/>
</g>
<!-- Node6 -->
<g id="node11" class="node"><title>Node6</title>
<a xlink:href="class_hover_race_1_1_client_1_1_game_select_scene.html" target="_top" xlink:title="Select options for a new game (track, rules, etc.).">
<polygon fill="none" stroke="black" points="628.5,-400 628.5,-432 729.5,-432 729.5,-400 628.5,-400"/>
<text text-anchor="start" x="636.5" y="-419" font-family="FreeSans" font-size="10.00">HoverRace::Client:</text>
<text text-anchor="middle" x="679" y="-407" font-family="FreeSans" font-size="10.00">:GameSelectScene</text>
</a>
</g>
<!-- Node5&#45;&gt;Node6 -->
<g id="edge10" class="edge"><title>Node5&#45;&gt;Node6</title>
<path fill="none" stroke="midnightblue" d="M568.571,-383.329C588.076,-389.099 609.623,-395.474 628.466,-401.049"/>
<polygon fill="midnightblue" stroke="midnightblue" points="569.464,-379.943 558.882,-380.462 567.478,-386.655 569.464,-379.943"/>
</g>
<!-- Node7 -->
<g id="node13" class="node"><title>Node7</title>
<a xlink:href="class_hover_race_1_1_client_1_1_practice_setup_scene.html" target="_top" xlink:title="Launcher for practice (single&#45;player) session.">
<polygon fill="none" stroke="black" points="625,-350 625,-382 733,-382 733,-350 625,-350"/>
<text text-anchor="start" x="633" y="-369" font-family="FreeSans" font-size="10.00">HoverRace::Client:</text>
<text text-anchor="middle" x="679" y="-357" font-family="FreeSans" font-size="10.00">:PracticeSetupScene</text>
</a>
</g>
<!-- Node5&#45;&gt;Node7 -->
<g id="edge12" class="edge"><title>Node5&#45;&gt;Node7</title>
<path fill="none" stroke="midnightblue" d="M569.053,-366C587.207,-366 607.09,-366 624.895,-366"/>
<polygon fill="midnightblue" stroke="midnightblue" points="568.882,-362.5 558.882,-366 568.882,-369.5 568.882,-362.5"/>
</g>
<!-- Node8 -->
<g id="node15" class="node"><title>Node8</title>
<a xlink:href="class_hover_race_1_1_client_1_1_track_select_scene.html" target="_top" xlink:title="Select the track for a new game.">
<polygon fill="none" stroke="black" points="629.5,-300 629.5,-332 728.5,-332 728.5,-300 629.5,-300"/>
<text text-anchor="start" x="637.5" y="-319" font-family="FreeSans" font-size="10.00">HoverRace::Client:</text>
<text text-anchor="middle" x="679" y="-307" font-family="FreeSans" font-size="10.00">:TrackSelectScene</text>
</a>
</g>
<!-- Node5&#45;&gt;Node8 -->
<g id="edge14" class="edge"><title>Node5&#45;&gt;Node8</title>
<path fill="none" stroke="midnightblue" d="M568.703,-348.632C588.479,-342.781 610.34,-336.313 629.349,-330.69"/>
<polygon fill="midnightblue" stroke="midnightblue" points="567.478,-345.345 558.882,-351.538 569.464,-352.057 567.478,-345.345"/>
</g>
<!-- Node14 -->
<g id="node27" class="node"><title>Node14</title>
<a xlink:href="class_hover_race_1_1_client_1_1_module_1_1_button_module.html" target="_top" xlink:title="HoverRace::Client:\l:Module::ButtonModule">
<polygon fill="none" stroke="black" points="621.5,-200 621.5,-232 736.5,-232 736.5,-200 621.5,-200"/>
<text text-anchor="start" x="629.5" y="-219" font-family="FreeSans" font-size="10.00">HoverRace::Client:</text>
<text text-anchor="middle" x="679" y="-207" font-family="FreeSans" font-size="10.00">:Module::ButtonModule</text>
</a>
</g>
<!-- Node13&#45;&gt;Node14 -->
<g id="edge26" class="edge"><title>Node13&#45;&gt;Node14</title>
<path fill="none" stroke="midnightblue" d="M572.404,-137.122C574.338,-138.348 576.21,-139.64 578,-141 599.807,-157.562 592.317,-174.277 614,-191 618.404,-194.397 623.324,-197.38 628.432,-199.988"/>
<polygon fill="midnightblue" stroke="midnightblue" points="574.026,-134.018 563.597,-132.152 570.586,-140.114 574.026,-134.018"/>
</g>
<!-- Node15 -->
<g id="node29" class="node"><title>Node15</title>
<a xlink:href="class_hover_race_1_1_client_1_1_module_1_1_icon_module.html" target="_top" xlink:title="HoverRace::Client:\l:Module::IconModule">
<polygon fill="none" stroke="black" points="626.5,-150 626.5,-182 731.5,-182 731.5,-150 626.5,-150"/>
<text text-anchor="start" x="634.5" y="-169" font-family="FreeSans" font-size="10.00">HoverRace::Client:</text>
<text text-anchor="middle" x="679" y="-157" font-family="FreeSans" font-size="10.00">:Module::IconModule</text>
</a>
</g>
<!-- Node13&#45;&gt;Node15 -->
<g id="edge28" class="edge"><title>Node13&#45;&gt;Node15</title>
<path fill="none" stroke="midnightblue" d="M574.369,-135.044C591.568,-140.133 609.948,-145.57 626.428,-150.446"/>
<polygon fill="midnightblue" stroke="midnightblue" points="574.985,-131.576 564.403,-132.096 572.999,-138.289 574.985,-131.576"/>
</g>
<!-- Node16 -->
<g id="node31" class="node"><title>Node16</title>
<a xlink:href="class_hover_race_1_1_client_1_1_module_1_1_label_module.html" target="_top" xlink:title="HoverRace::Client:\l:Module::LabelModule">
<polygon fill="none" stroke="black" points="624,-100 624,-132 734,-132 734,-100 624,-100"/>
<text text-anchor="start" x="632" y="-119" font-family="FreeSans" font-size="10.00">HoverRace::Client:</text>
<text text-anchor="middle" x="679" y="-107" font-family="FreeSans" font-size="10.00">:Module::LabelModule</text>
</a>
</g>
<!-- Node13&#45;&gt;Node16 -->
<g id="edge30" class="edge"><title>Node13&#45;&gt;Node16</title>
<path fill="none" stroke="midnightblue" d="M587.917,-116C600.08,-116 612.426,-116 623.939,-116"/>
<polygon fill="midnightblue" stroke="midnightblue" points="587.765,-112.5 577.765,-116 587.765,-119.5 587.765,-112.5"/>
</g>
<!-- Node17 -->
<g id="node33" class="node"><title>Node17</title>
<a xlink:href="class_hover_race_1_1_client_1_1_module_1_1_layout_module.html" target="_top" xlink:title="HoverRace::Client:\l:Module::LayoutModule">
<polygon fill="none" stroke="black" points="621,-50 621,-82 737,-82 737,-50 621,-50"/>
<text text-anchor="start" x="629" y="-69" font-family="FreeSans" font-size="10.00">HoverRace::Client:</text>
<text text-anchor="middle" x="679" y="-57" font-family="FreeSans" font-size="10.00">:Module::LayoutModule</text>
</a>
</g>
<!-- Node13&#45;&gt;Node17 -->
<g id="edge32" class="edge"><title>Node13&#45;&gt;Node17</title>
<path fill="none" stroke="midnightblue" d="M574.075,-97.043C590.759,-92.1068 608.574,-86.8362 624.699,-82.0654"/>
<polygon fill="midnightblue" stroke="midnightblue" points="572.999,-93.7112 564.403,-99.9045 574.985,-100.424 572.999,-93.7112"/>
</g>
<!-- Node18 -->
<g id="node35" class="node"><title>Node18</title>
<a xlink:href="class_hover_race_1_1_client_1_1_module_1_1_transition_module.html" target="_top" xlink:title="HoverRace::Client:\l:Module::TransitionModule">
<polygon fill="none" stroke="black" points="614.5,-0 614.5,-32 743.5,-32 743.5,-0 614.5,-0"/>
<text text-anchor="start" x="622.5" y="-19" font-family="FreeSans" font-size="10.00">HoverRace::Client:</text>
<text text-anchor="middle" x="679" y="-7" font-family="FreeSans" font-size="10.00">:Module::TransitionModule</text>
</a>
</g>
<!-- Node13&#45;&gt;Node18 -->
<g id="edge34" class="edge"><title>Node13&#45;&gt;Node18</title>
<path fill="none" stroke="midnightblue" d="M537.176,-93.4081C557.443,-77.324 586.296,-55.9906 614,-41 619.955,-37.7779 626.415,-34.7691 632.874,-32.0346"/>
<polygon fill="midnightblue" stroke="midnightblue" points="534.916,-90.7345 529.314,-99.727 539.301,-96.1908 534.916,-90.7345"/>
</g>
</g>
</svg>
