<?xml version="1.0" encoding="UTF-8" standalone="no"?>
<!DOCTYPE svg PUBLIC "-//W3C//DTD SVG 1.1//EN"
 "http://www.w3.org/Graphics/SVG/1.1/DTD/svg11.dtd">
<!-- Generated by graphviz version 2.38.0 (20140413.2041)
 -->
<!-- Title: HoverRace::Player::Profile Pages: 1 -->
<svg width="238pt" height="173pt"
 viewBox="0.00 0.00 238.00 173.00" xmlns="http://www.w3.org/2000/svg" xmlns:xlink="http://www.w3.org/1999/xlink">
<g id="graph0" class="graph" transform="scale(1 1) rotate(0) translate(4 169)">
<title>HoverRace::Player::Profile</title>
<!-- Node1 -->
<g id="node1" class="node"><title>Node1</title>
<polygon fill="#bfbfbf" stroke="black" points="62,-67.5 62,-97.5 168,-97.5 168,-67.5 62,-67.5"/>
<text text-anchor="start" x="70" y="-85.5" font-family="Helvetica,sans-Serif" font-size="10.00">HoverRace::Player::</text>
<text text-anchor="middle" x="115" y="-74.5" font-family="Helvetica,sans-Serif" font-size="10.00">Profile</text>
</g>
<!-- Node4 -->
<g id="node4" class="node"><title>Node4</title>
<g id="a_node4"><a xlink:href="class_hover_race_1_1_player_1_1_demo_profile.html" target="_top" xlink:title="Profile for &quot;guest&quot; accounts that aren&#39;t persisted. ">
<polygon fill="none" stroke="black" points="0,-0.5 0,-30.5 106,-30.5 106,-0.5 0,-0.5"/>
<text text-anchor="start" x="8" y="-18.5" font-family="Helvetica,sans-Serif" font-size="10.00">HoverRace::Player::</text>
<text text-anchor="middle" x="53" y="-7.5" font-family="Helvetica,sans-Serif" font-size="10.00">DemoProfile</text>
</a>
</g>
</g>
<!-- Node1&#45;&gt;Node4 -->
<g id="edge3" class="edge"><title>Node1&#45;&gt;Node4</title>
<path fill="none" stroke="midnightblue" d="M94.5154,-60.0243C85.278,-50.3398 74.6274,-39.1739 66.4268,-30.5765"/>
<polygon fill="midnightblue" stroke="midnightblue" points="92.1121,-62.5756 101.547,-67.396 97.1774,-57.7441 92.1121,-62.5756"/>
</g>
<!-- Node5 -->
<g id="node5" class="node"><title>Node5</title>
<g id="a_node5"><a xlink:href="class_hover_race_1_1_player_1_1_local_profile.html" target="_top" xlink:title="A profile that is stored on the local filesystem. ">
<polygon fill="none" stroke="black" points="124,-0.5 124,-30.5 230,-30.5 230,-0.5 124,-0.5"/>
<text text-anchor="start" x="132" y="-18.5" font-family="Helvetica,sans-Serif" font-size="10.00">HoverRace::Player::</text>
<text text-anchor="middle" x="177" y="-7.5" font-family="Helvetica,sans-Serif" font-size="10.00">LocalProfile</text>
</a>
</g>
</g>
<!-- Node1&#45;&gt;Node5 -->
<g id="edge4" class="edge"><title>Node1&#45;&gt;Node5</title>
<path fill="none" stroke="midnightblue" d="M135.485,-60.0243C144.722,-50.3398 155.373,-39.1739 163.573,-30.5765"/>
<polygon fill="midnightblue" stroke="midnightblue" points="132.823,-57.7441 128.453,-67.396 137.888,-62.5756 132.823,-57.7441"/>
</g>
<!-- Node2 -->
<g id="node2" class="node"><title>Node2</title>
<g id="a_node2"><a xlink:href="class_hover_race_1_1_player_1_1_editable_profile.html" target="_top" xlink:title="Interface for profile editing. ">
<polygon fill="none" stroke="black" points="0,-134.5 0,-164.5 106,-164.5 106,-134.5 0,-134.5"/>
<text text-anchor="start" x="8" y="-152.5" font-family="Helvetica,sans-Serif" font-size="10.00">HoverRace::Player::</text>
<text text-anchor="middle" x="53" y="-141.5" font-family="Helvetica,sans-Serif" font-size="10.00">EditableProfile</text>
</a>
</g>
</g>
<!-- Node2&#45;&gt;Node1 -->
<g id="edge1" class="edge"><title>Node2&#45;&gt;Node1</title>
<path fill="none" stroke="darkgreen" d="M73.4846,-127.024C82.722,-117.34 93.3726,-106.174 101.573,-97.5765"/>
<polygon fill="darkgreen" stroke="darkgreen" points="70.8226,-124.744 66.4531,-134.396 75.8879,-129.576 70.8226,-124.744"/>
</g>
<!-- Node3 -->
<g id="node3" class="node"><title>Node3</title>
<g id="a_node3"><a xlink:href="class_hover_race_1_1_player_1_1_renamable_profile.html" target="_top" xlink:title="Interface for profiles than can be renamed. ">
<polygon fill="none" stroke="black" points="124,-134.5 124,-164.5 230,-164.5 230,-134.5 124,-134.5"/>
<text text-anchor="start" x="132" y="-152.5" font-family="Helvetica,sans-Serif" font-size="10.00">HoverRace::Player::</text>
<text text-anchor="middle" x="177" y="-141.5" font-family="Helvetica,sans-Serif" font-size="10.00">RenamableProfile</text>
</a>
</g>
</g>
<!-- Node3&#45;&gt;Node1 -->
<g id="edge2" class="edge"><title>Node3&#45;&gt;Node1</title>
<path fill="none" stroke="darkgreen" d="M156.515,-127.024C147.278,-117.34 136.627,-106.174 128.427,-97.5765"/>
<polygon fill="darkgreen" stroke="darkgreen" points="154.112,-129.576 163.547,-134.396 159.177,-124.744 154.112,-129.576"/>
</g>
</g>
</svg>
