<?xml version="1.0" encoding="UTF-8" standalone="no"?>
<!DOCTYPE svg PUBLIC "-//W3C//DTD SVG 1.1//EN"
 "http://www.w3.org/Graphics/SVG/1.1/DTD/svg11.dtd">
<!-- Generated by graphviz version 2.26.3 (20100126.1600)
 -->
<!-- Title: HoverRace::Display::RadioButton&lt; T &gt; Pages: 1 -->
<!--zoomable 462 -->
<svg id="main" version="1.1" xmlns="http://www.w3.org/2000/svg" xmlns:xlink="http://www.w3.org/1999/xlink" xml:space="preserve" onload="init(evt)">
<style type="text/css"><![CDATA[
.edge:hover path { stroke: red; }
.edge:hover polygon { stroke: red; fill: red; }
]]></style>
<script type="text/javascript"><![CDATA[
var edges = document.getElementsByTagName('g');
if (edges && edges.length) {
  for (var i=0;i<edges.length;i++) {
    if (edges[i].id.substr(0,4)=='edge') {
      edges[i].setAttribute('class','edge');
    }
  }
}
]]></script>
        <defs>
                <circle id="rim" cx="0" cy="0" r="7"/>
                <circle id="rim2" cx="0" cy="0" r="3.5"/>
                <g id="zoomPlus">
                        <use xlink:href="#rim" fill="#404040">
                                <set attributeName="fill" to="#808080" begin="zoomplus.mouseover" end="zoomplus.mouseout"/>
                        </use>
                        <path d="M-4,0h8M0,-4v8" fill="none" stroke="white" stroke-width="1.5" pointer-events="none"/>
                </g>
                <g id="zoomMin">
                        <use xlink:href="#rim" fill="#404040">
                                <set attributeName="fill" to="#808080" begin="zoomminus.mouseover" end="zoomminus.mouseout"/>
                        </use>
                        <path d="M-4,0h8" fill="none" stroke="white" stroke-width="1.5" pointer-events="none"/>
                </g>
                <g id="dirArrow">
                        <path fill="none" stroke="white" stroke-width="1.5" d="M0,-3.0v7 M-2.5,-0.5L0,-3.0L2.5,-0.5"/>
                </g>
               <g id="resetDef">
                       <use xlink:href="#rim2" fill="#404040">
                               <set attributeName="fill" to="#808080" begin="reset.mouseover" end="reset.mouseout"/>
                       </use>
               </g>
        </defs>

<script type="text/javascript">
var viewWidth = 108;
var viewHeight = 462;
var sectionId = 'dynsection-0';
</script>
<script xlink:href="svgpan.js"/>
<svg id="graph" class="graph">
<g id="viewport">
<title>HoverRace::Display::RadioButton&lt; T &gt;</title>
<!-- Node1 -->
<g id="node1" class="node"><title>Node1</title>
<polygon fill="#bfbfbf" stroke="black" points="-0.5,-1 -0.5,-33 100.5,-33 100.5,-1 -0.5,-1"/>
<text text-anchor="start" x="7.5" y="-20" font-family="FreeSans" font-size="10.00">HoverRace::Display</text>
<text text-anchor="middle" x="50" y="-8" font-family="FreeSans" font-size="10.00">::RadioButton&lt; T &gt;</text>
</g>
<!-- Node2 -->
<g id="node2" class="node"><title>Node2</title>
<a xlink:href="class_hover_race_1_1_display_1_1_radio_button_base.html" target="_top" xlink:title="Base class for radio buttons. ">
<polygon fill="none" stroke="black" points="-0.5,-71 -0.5,-103 100.5,-103 100.5,-71 -0.5,-71"/>
<text text-anchor="start" x="7.5" y="-90" font-family="FreeSans" font-size="10.00">HoverRace::Display</text>
<text text-anchor="middle" x="50" y="-78" font-family="FreeSans" font-size="10.00">::RadioButtonBase</text>
</a>
</g>
<!-- Node2&#45;&gt;Node1 -->
<g id="edge2" class="edge"><title>Node2&#45;&gt;Node1</title>
<path fill="none" stroke="midnightblue" d="M50,-60.5079C50,-51.3027 50,-41.2615 50,-33.1473"/>
<polygon fill="midnightblue" stroke="midnightblue" points="46.5001,-60.7646 50,-70.7646 53.5001,-60.7647 46.5001,-60.7646"/>
</g>
<!-- Node3 -->
<g id="node4" class="node"><title>Node3</title>
<a xlink:href="class_hover_race_1_1_display_1_1_state_button.html" target="_top" xlink:title="Base class for buttons with state (i.e. ">
<polygon fill="none" stroke="black" points="-0.5,-141 -0.5,-173 100.5,-173 100.5,-141 -0.5,-141"/>
<text text-anchor="start" x="7.5" y="-160" font-family="FreeSans" font-size="10.00">HoverRace::Display</text>
<text text-anchor="middle" x="50" y="-148" font-family="FreeSans" font-size="10.00">::StateButton</text>
</a>
</g>
<!-- Node3&#45;&gt;Node2 -->
<g id="edge4" class="edge"><title>Node3&#45;&gt;Node2</title>
<path fill="none" stroke="midnightblue" d="M50,-130.508C50,-121.303 50,-111.262 50,-103.147"/>
<polygon fill="midnightblue" stroke="midnightblue" points="46.5001,-130.765 50,-140.765 53.5001,-130.765 46.5001,-130.765"/>
</g>
<!-- Node4 -->
<g id="node6" class="node"><title>Node4</title>
<a xlink:href="class_hover_race_1_1_display_1_1_button.html" target="_top" xlink:title="A standard button, with a text label. ">
<polygon fill="none" stroke="black" points="-0.5,-211 -0.5,-243 100.5,-243 100.5,-211 -0.5,-211"/>
<text text-anchor="start" x="7.5" y="-230" font-family="FreeSans" font-size="10.00">HoverRace::Display</text>
<text text-anchor="middle" x="50" y="-218" font-family="FreeSans" font-size="10.00">::Button</text>
</a>
</g>
<!-- Node4&#45;&gt;Node3 -->
<g id="edge6" class="edge"><title>Node4&#45;&gt;Node3</title>
<path fill="none" stroke="midnightblue" d="M50,-200.508C50,-191.303 50,-181.262 50,-173.147"/>
<polygon fill="midnightblue" stroke="midnightblue" points="46.5001,-200.765 50,-210.765 53.5001,-200.765 46.5001,-200.765"/>
</g>
<!-- Node5 -->
<g id="node8" class="node"><title>Node5</title>
<a xlink:href="class_hover_race_1_1_display_1_1_click_region.html" target="_top" xlink:title="Base class for clickable areas. ">
<polygon fill="none" stroke="black" points="-0.5,-281 -0.5,-313 100.5,-313 100.5,-281 -0.5,-281"/>
<text text-anchor="start" x="7.5" y="-300" font-family="FreeSans" font-size="10.00">HoverRace::Display</text>
<text text-anchor="middle" x="50" y="-288" font-family="FreeSans" font-size="10.00">::ClickRegion</text>
</a>
</g>
<!-- Node5&#45;&gt;Node4 -->
<g id="edge8" class="edge"><title>Node5&#45;&gt;Node4</title>
<path fill="none" stroke="midnightblue" d="M50,-270.508C50,-261.303 50,-251.262 50,-243.147"/>
<polygon fill="midnightblue" stroke="midnightblue" points="46.5001,-270.765 50,-280.765 53.5001,-270.765 46.5001,-270.765"/>
</g>
<!-- Node6 -->
<g id="node10" class="node"><title>Node6</title>
<a xlink:href="class_hover_race_1_1_display_1_1_ui_view_model.html" target="_top" xlink:title="Base class for UI (2D) components. ">
<polygon fill="none" stroke="black" points="-0.5,-351 -0.5,-383 100.5,-383 100.5,-351 -0.5,-351"/>
<text text-anchor="start" x="7.5" y="-370" font-family="FreeSans" font-size="10.00">HoverRace::Display</text>
<text text-anchor="middle" x="50" y="-358" font-family="FreeSans" font-size="10.00">::UiViewModel</text>
</a>
</g>
<!-- Node6&#45;&gt;Node5 -->
<g id="edge10" class="edge"><title>Node6&#45;&gt;Node5</title>
<path fill="none" stroke="midnightblue" d="M50,-340.508C50,-331.303 50,-321.262 50,-313.147"/>
<polygon fill="midnightblue" stroke="midnightblue" points="46.5001,-340.765 50,-350.765 53.5001,-340.765 46.5001,-340.765"/>
</g>
<!-- Node7 -->
<g id="node12" class="node"><title>Node7</title>
<a xlink:href="class_hover_race_1_1_display_1_1_view_model.html" target="_top" xlink:title="Base class for renderable components. ">
<polygon fill="none" stroke="black" points="-0.5,-421 -0.5,-453 100.5,-453 100.5,-421 -0.5,-421"/>
<text text-anchor="start" x="7.5" y="-440" font-family="FreeSans" font-size="10.00">HoverRace::Display</text>
<text text-anchor="middle" x="50" y="-428" font-family="FreeSans" font-size="10.00">::ViewModel</text>
</a>
</g>
<!-- Node7&#45;&gt;Node6 -->
<g id="edge12" class="edge"><title>Node7&#45;&gt;Node6</title>
<path fill="none" stroke="midnightblue" d="M50,-410.508C50,-401.303 50,-391.262 50,-383.147"/>
<polygon fill="midnightblue" stroke="midnightblue" points="46.5001,-410.765 50,-420.765 53.5001,-410.765 46.5001,-410.765"/>
</g>
</g>
</svg>
        <g id="navigator" transform="translate(0 0)" fill="#404254">
                <rect fill="#f2f5e9" fill-opacity="0.5" stroke="#606060" stroke-width=".5" x="0" y="0" width="60" height="60"/>
                <use id="zoomplus" xlink:href="#zoomPlus" x="17" y="9" onmousedown="handleZoom(evt,'in')"/>
                <use id="zoomminus" xlink:href="#zoomMin" x="42" y="9" onmousedown="handleZoom(evt,'out')"/>
                <use id="reset" xlink:href="#resetDef" x="30" y="36" onmousedown="handleReset()"/>
                <g id="arrowUp" xlink:href="#dirArrow" transform="translate(30 24)" onmousedown="handlePan(0,-1)">
                  <use xlink:href="#rim" fill="#404040">
                        <set attributeName="fill" to="#808080" begin="arrowUp.mouseover" end="arrowUp.mouseout"/>
                  </use>
                  <path fill="none" stroke="white" stroke-width="1.5" d="M0,-3.0v7 M-2.5,-0.5L0,-3.0L2.5,-0.5"/>
                </g>
                <g id="arrowRight" xlink:href="#dirArrow" transform="rotate(90) translate(36 -43)" onmousedown="handlePan(1,0)">
                  <use xlink:href="#rim" fill="#404040">
                        <set attributeName="fill" to="#808080" begin="arrowRight.mouseover" end="arrowRight.mouseout"/>
                  </use>
                  <path fill="none" stroke="white" stroke-width="1.5" d="M0,-3.0v7 M-2.5,-0.5L0,-3.0L2.5,-0.5"/>
                </g>
                <g id="arrowDown" xlink:href="#dirArrow" transform="rotate(180) translate(-30 -48)" onmousedown="handlePan(0,1)">
                  <use xlink:href="#rim" fill="#404040">
                        <set attributeName="fill" to="#808080" begin="arrowDown.mouseover" end="arrowDown.mouseout"/>
                  </use>
                  <path fill="none" stroke="white" stroke-width="1.5" d="M0,-3.0v7 M-2.5,-0.5L0,-3.0L2.5,-0.5"/>
                </g>
                <g id="arrowLeft" xlink:href="#dirArrow" transform="rotate(270) translate(-36 17)" onmousedown="handlePan(-1,0)">
                  <use xlink:href="#rim" fill="#404040">
                        <set attributeName="fill" to="#808080" begin="arrowLeft.mouseover" end="arrowLeft.mouseout"/>
                  </use>
                  <path fill="none" stroke="white" stroke-width="1.5" d="M0,-3.0v7 M-2.5,-0.5L0,-3.0L2.5,-0.5"/>
                </g>
        </g>
        <svg viewBox="0 0 15 15" width="100%" height="30px" preserveAspectRatio="xMaxYMin meet">
         <g id="arrow_out" transform="scale(0.3 0.3)">
          <a xlink:href="class_hover_race_1_1_display_1_1_radio_button__inherit__graph_org.svg" target="_base">
           <rect id="button" ry="5" rx="5" y="6" x="6" height="38" width="38"
                fill="#f2f5e9" fill-opacity="0.5" stroke="#606060" stroke-width="1.0"/>
           <path id="arrow"
             d="M 11.500037,31.436501 C 11.940474,20.09759 22.043105,11.32322 32.158766,21.979434 L 37.068811,17.246167 C 37.068811,17.246167 37.088388,32 37.088388,32 L 22.160133,31.978069 C 22.160133,31.978069 26.997745,27.140456 26.997745,27.140456 C 18.528582,18.264221 13.291696,25.230495 11.500037,31.436501 z"
             style="fill:#404040;"/>
          </a>
         </g>
        </svg>
</svg>
