<?xml version="1.0" encoding="UTF-8" standalone="no"?>
<!DOCTYPE svg PUBLIC "-//W3C//DTD SVG 1.1//EN"
 "http://www.w3.org/Graphics/SVG/1.1/DTD/svg11.dtd">
<!-- Generated by graphviz version 2.38.0 (20140413.2041)
 -->
<!-- Title: HoverRace::Display::BaseRes Pages: 1 -->
<svg width="395pt" height="137pt"
 viewBox="0.00 0.00 395.00 137.00" xmlns="http://www.w3.org/2000/svg" xmlns:xlink="http://www.w3.org/1999/xlink">
<g id="graph0" class="graph" transform="scale(1 1) rotate(0) translate(4 133)">
<title>HoverRace::Display::BaseRes</title>
<!-- Node1 -->
<g id="node1" class="node"><title>Node1</title>
<polygon fill="#bfbfbf" stroke="black" points="0,-73.5 0,-103.5 105,-103.5 105,-73.5 0,-73.5"/>
<text text-anchor="start" x="8" y="-91.5" font-family="Helvetica,sans-Serif" font-size="10.00">HoverRace::Display</text>
<text text-anchor="middle" x="52.5" y="-80.5" font-family="Helvetica,sans-Serif" font-size="10.00">::BaseRes</text>
</g>
<!-- Node2 -->
<g id="node2" class="node"><title>Node2</title>
<g id="a_node2"><a xlink:href="class_hover_race_1_1_display_1_1_res.html" target="_top" xlink:title="Base class for loadable resources. ">
<polygon fill="none" stroke="black" points="141,-98.5 141,-128.5 246,-128.5 246,-98.5 141,-98.5"/>
<text text-anchor="start" x="149" y="-116.5" font-family="Helvetica,sans-Serif" font-size="10.00">HoverRace::Display</text>
<text text-anchor="middle" x="193.5" y="-105.5" font-family="Helvetica,sans-Serif" font-size="10.00">::Res&lt; T &gt;</text>
</a>
</g>
</g>
<!-- Node1&#45;&gt;Node2 -->
<g id="edge1" class="edge"><title>Node1&#45;&gt;Node2</title>
<path fill="none" stroke="midnightblue" d="M115.163,-99.5905C123.69,-101.124 132.375,-102.686 140.698,-104.183"/>
<polygon fill="midnightblue" stroke="midnightblue" points="115.72,-96.1346 105.258,-97.8091 114.481,-103.024 115.72,-96.1346"/>
</g>
<!-- Node4 -->
<g id="node4" class="node"><title>Node4</title>
<g id="a_node4"><a xlink:href="class_hover_race_1_1_display_1_1_res_3_01_texture_01_4.html" target="_top" xlink:title="Base class for loadable textures. ">
<polygon fill="none" stroke="black" points="141,-49.5 141,-79.5 246,-79.5 246,-49.5 141,-49.5"/>
<text text-anchor="start" x="149" y="-67.5" font-family="Helvetica,sans-Serif" font-size="10.00">HoverRace::Display</text>
<text text-anchor="middle" x="193.5" y="-56.5" font-family="Helvetica,sans-Serif" font-size="10.00">::Res&lt; Texture &gt;</text>
</a>
</g>
</g>
<!-- Node1&#45;&gt;Node4 -->
<g id="edge3" class="edge"><title>Node1&#45;&gt;Node4</title>
<path fill="none" stroke="midnightblue" d="M115.163,-77.8531C123.69,-76.3809 132.375,-74.8812 140.698,-73.4442"/>
<polygon fill="midnightblue" stroke="midnightblue" points="114.517,-74.4128 105.258,-79.5633 115.708,-81.3107 114.517,-74.4128"/>
</g>
<!-- Node3 -->
<g id="node3" class="node"><title>Node3</title>
<g id="a_node3"><a xlink:href="class_hover_race_1_1_display_1_1_media_res.html" target="_top" xlink:title="Represents a file in the game&#39;s media directory. ">
<polygon fill="none" stroke="black" points="282,-98.5 282,-128.5 387,-128.5 387,-98.5 282,-98.5"/>
<text text-anchor="start" x="290" y="-116.5" font-family="Helvetica,sans-Serif" font-size="10.00">HoverRace::Display</text>
<text text-anchor="middle" x="334.5" y="-105.5" font-family="Helvetica,sans-Serif" font-size="10.00">::MediaRes&lt; T &gt;</text>
</a>
</g>
</g>
<!-- Node2&#45;&gt;Node3 -->
<g id="edge2" class="edge"><title>Node2&#45;&gt;Node3</title>
<path fill="none" stroke="midnightblue" d="M256.441,-113.5C264.878,-113.5 273.466,-113.5 281.698,-113.5"/>
<polygon fill="midnightblue" stroke="midnightblue" points="256.259,-110 246.258,-113.5 256.258,-117 256.259,-110"/>
</g>
<!-- Node5 -->
<g id="node5" class="node"><title>Node5</title>
<g id="a_node5"><a xlink:href="class_hover_race_1_1_display_1_1_avatar_texture_res.html" target="_top" xlink:title="An avatar resource. ">
<polygon fill="none" stroke="black" points="282,-49.5 282,-79.5 387,-79.5 387,-49.5 282,-49.5"/>
<text text-anchor="start" x="290" y="-67.5" font-family="Helvetica,sans-Serif" font-size="10.00">HoverRace::Display</text>
<text text-anchor="middle" x="334.5" y="-56.5" font-family="Helvetica,sans-Serif" font-size="10.00">::AvatarTextureRes</text>
</a>
</g>
</g>
<!-- Node4&#45;&gt;Node5 -->
<g id="edge4" class="edge"><title>Node4&#45;&gt;Node5</title>
<path fill="none" stroke="midnightblue" d="M256.441,-64.5C264.878,-64.5 273.466,-64.5 281.698,-64.5"/>
<polygon fill="midnightblue" stroke="midnightblue" points="256.259,-61.0001 246.258,-64.5 256.258,-68.0001 256.259,-61.0001"/>
</g>
<!-- Node6 -->
<g id="node6" class="node"><title>Node6</title>
<g id="a_node6"><a xlink:href="class_hover_race_1_1_display_1_1_sprite_texture_res.html" target="_top" xlink:title="Loads a legacy 8&#45;bit sprite as a texture. ">
<polygon fill="none" stroke="black" points="282,-0.5 282,-30.5 387,-30.5 387,-0.5 282,-0.5"/>
<text text-anchor="start" x="290" y="-18.5" font-family="Helvetica,sans-Serif" font-size="10.00">HoverRace::Display</text>
<text text-anchor="middle" x="334.5" y="-7.5" font-family="Helvetica,sans-Serif" font-size="10.00">::SpriteTextureRes</text>
</a>
</g>
</g>
<!-- Node4&#45;&gt;Node6 -->
<g id="edge5" class="edge"><title>Node4&#45;&gt;Node6</title>
<path fill="none" stroke="midnightblue" d="M247.08,-45.9645C261.435,-40.9041 276.815,-35.4823 290.563,-30.6359"/>
<polygon fill="midnightblue" stroke="midnightblue" points="245.606,-42.7729 237.339,-49.3986 247.934,-49.3747 245.606,-42.7729"/>
</g>
</g>
</svg>
