<?xml version="1.0" encoding="UTF-8" standalone="no"?>
<!DOCTYPE svg PUBLIC "-//W3C//DTD SVG 1.1//EN"
 "http://www.w3.org/Graphics/SVG/1.1/DTD/svg11.dtd">
<!-- Generated by graphviz version 2.26.3 (20100126.1600)
 -->
<!-- Title: HoverRace::Display::Background Pages: 1 -->
<svg width="226pt" height="182pt"
 viewBox="0.00 0.00 226.00 182.00" xmlns="http://www.w3.org/2000/svg" xmlns:xlink="http://www.w3.org/1999/xlink">
<g id="graph1" class="graph" transform="scale(1 1) rotate(0) translate(4 178)">
<title>HoverRace::Display::Background</title>
<!-- Node1 -->
<g id="node1" class="node"><title>Node1</title>
<polygon fill="#bfbfbf" stroke="black" points="58.5,-71 58.5,-103 159.5,-103 159.5,-71 58.5,-71"/>
<text text-anchor="start" x="66.5" y="-90" font-family="FreeSans" font-size="10.00">HoverRace::Display</text>
<text text-anchor="middle" x="109" y="-78" font-family="FreeSans" font-size="10.00">::Background</text>
</g>
<!-- Node3 -->
<g id="node5" class="node"><title>Node3</title>
<a xlink:href="class_hover_race_1_1_display_1_1_screen_fade.html" target="_top" xlink:title="Paints a solid color over the whole screen with adjustable opacity. ">
<polygon fill="none" stroke="black" points="-0.5,-1 -0.5,-33 100.5,-33 100.5,-1 -0.5,-1"/>
<text text-anchor="start" x="7.5" y="-20" font-family="FreeSans" font-size="10.00">HoverRace::Display</text>
<text text-anchor="middle" x="50" y="-8" font-family="FreeSans" font-size="10.00">::ScreenFade</text>
</a>
</g>
<!-- Node1&#45;&gt;Node3 -->
<g id="edge4" class="edge"><title>Node1&#45;&gt;Node3</title>
<path fill="none" stroke="midnightblue" d="M88.6775,-62.8885C80.3964,-53.0635 71.0437,-41.9671 63.6099,-33.1473"/>
<polygon fill="midnightblue" stroke="midnightblue" points="86.195,-65.374 95.3159,-70.7646 91.5474,-60.8627 86.195,-65.374"/>
</g>
<!-- Node4 -->
<g id="node7" class="node"><title>Node4</title>
<a xlink:href="class_hover_race_1_1_display_1_1_wallpaper.html" target="_top" xlink:title="Paints a texture across the entire screen. ">
<polygon fill="none" stroke="black" points="117.5,-1 117.5,-33 218.5,-33 218.5,-1 117.5,-1"/>
<text text-anchor="start" x="125.5" y="-20" font-family="FreeSans" font-size="10.00">HoverRace::Display</text>
<text text-anchor="middle" x="168" y="-8" font-family="FreeSans" font-size="10.00">::Wallpaper</text>
</a>
</g>
<!-- Node1&#45;&gt;Node4 -->
<g id="edge6" class="edge"><title>Node1&#45;&gt;Node4</title>
<path fill="none" stroke="midnightblue" d="M129.323,-62.8885C137.604,-53.0635 146.956,-41.9671 154.39,-33.1473"/>
<polygon fill="midnightblue" stroke="midnightblue" points="126.453,-60.8627 122.684,-70.7646 131.805,-65.374 126.453,-60.8627"/>
</g>
<!-- Node2 -->
<g id="node2" class="node"><title>Node2</title>
<a xlink:href="class_hover_race_1_1_display_1_1_view_model.html" target="_top" xlink:title="Base class for renderable components. ">
<polygon fill="none" stroke="black" points="58.5,-141 58.5,-173 159.5,-173 159.5,-141 58.5,-141"/>
<text text-anchor="start" x="66.5" y="-160" font-family="FreeSans" font-size="10.00">HoverRace::Display</text>
<text text-anchor="middle" x="109" y="-148" font-family="FreeSans" font-size="10.00">::ViewModel</text>
</a>
</g>
<!-- Node2&#45;&gt;Node1 -->
<g id="edge2" class="edge"><title>Node2&#45;&gt;Node1</title>
<path fill="none" stroke="midnightblue" d="M109,-130.508C109,-121.303 109,-111.262 109,-103.147"/>
<polygon fill="midnightblue" stroke="midnightblue" points="105.5,-130.765 109,-140.765 112.5,-130.765 105.5,-130.765"/>
</g>
</g>
</svg>
