<?xml version="1.0" encoding="UTF-8" standalone="no"?>
<!DOCTYPE svg PUBLIC "-//W3C//DTD SVG 1.1//EN"
 "http://www.w3.org/Graphics/SVG/1.1/DTD/svg11.dtd">
<!-- Generated by graphviz version 2.38.0 (20140413.2041)
 -->
<!-- Title: HoverRace::Client::HoverScript::Actor::Wrapper Pages: 1 -->
<svg width="664pt" height="127pt"
 viewBox="0.00 0.00 664.00 127.00" xmlns="http://www.w3.org/2000/svg" xmlns:xlink="http://www.w3.org/1999/xlink">
<g id="graph0" class="graph" transform="scale(1 1) rotate(0) translate(4 123)">
<title>HoverRace::Client::HoverScript::Actor::Wrapper</title>
<!-- Node1 -->
<g id="node1" class="node"><title>Node1</title>
<polygon fill="#bfbfbf" stroke="black" points="552,-17 552,-58 656,-58 656,-17 552,-17"/>
<text text-anchor="start" x="560" y="-46" font-family="Helvetica,sans-Serif" font-size="10.00">HoverRace::Client::</text>
<text text-anchor="start" x="560" y="-35" font-family="Helvetica,sans-Serif" font-size="10.00">HoverScript::Actor::</text>
<text text-anchor="middle" x="604" y="-24" font-family="Helvetica,sans-Serif" font-size="10.00">Wrapper</text>
</g>
<!-- Node2 -->
<g id="node2" class="node"><title>Node2</title>
<g id="a_node2"><a xlink:href="class_hover_race_1_1_model_1_1_free_element.html" target="_top" xlink:title="HoverRace::Model::FreeElement">
<polygon fill="none" stroke="black" points="356,-50 356,-69 516,-69 516,-50 356,-50"/>
<text text-anchor="middle" x="436" y="-57" font-family="Helvetica,sans-Serif" font-size="10.00">HoverRace::Model::FreeElement</text>
</a>
</g>
</g>
<!-- Node2&#45;&gt;Node1 -->
<g id="edge1" class="edge"><title>Node2&#45;&gt;Node1</title>
<path fill="none" stroke="midnightblue" d="M519.001,-48.6324C530.092,-47.1625 541.207,-45.6895 551.553,-44.3183"/>
<polygon fill="midnightblue" stroke="midnightblue" points="518.298,-45.1949 508.845,-49.9784 519.218,-52.1342 518.298,-45.1949"/>
</g>
<!-- Node3 -->
<g id="node3" class="node"><title>Node3</title>
<g id="a_node3"><a xlink:href="class_hover_race_1_1_model_1_1_element.html" target="_top" xlink:title="Represents all objects (wall, floor, ceiling, etc.) that can be found in a maze. ">
<polygon fill="none" stroke="black" points="180,-94 180,-113 320,-113 320,-94 180,-94"/>
<text text-anchor="middle" x="250" y="-101" font-family="Helvetica,sans-Serif" font-size="10.00">HoverRace::Model::Element</text>
</a>
</g>
</g>
<!-- Node3&#45;&gt;Node2 -->
<g id="edge2" class="edge"><title>Node3&#45;&gt;Node2</title>
<path fill="none" stroke="midnightblue" d="M300.665,-91.6236C330.305,-84.5358 367.442,-75.6552 395.153,-69.0287"/>
<polygon fill="midnightblue" stroke="midnightblue" points="299.837,-88.2228 290.925,-93.9527 301.465,-95.0309 299.837,-88.2228"/>
</g>
<!-- Node4 -->
<g id="node4" class="node"><title>Node4</title>
<g id="a_node4"><a xlink:href="class_hover_race_1_1_util_1_1_object_from_factory.html" target="_top" xlink:title="Base class for object created with a Dll Factory. ">
<polygon fill="none" stroke="black" points="0,-88.5 0,-118.5 144,-118.5 144,-88.5 0,-88.5"/>
<text text-anchor="start" x="8" y="-106.5" font-family="Helvetica,sans-Serif" font-size="10.00">HoverRace::Util::ObjectFrom</text>
<text text-anchor="middle" x="72" y="-95.5" font-family="Helvetica,sans-Serif" font-size="10.00">Factory</text>
</a>
</g>
</g>
<!-- Node4&#45;&gt;Node3 -->
<g id="edge3" class="edge"><title>Node4&#45;&gt;Node3</title>
<path fill="none" stroke="midnightblue" d="M154.141,-103.5C162.764,-103.5 171.475,-103.5 179.941,-103.5"/>
<polygon fill="midnightblue" stroke="midnightblue" points="154.079,-100 144.079,-103.5 154.079,-107 154.079,-100"/>
</g>
<!-- Node5 -->
<g id="node5" class="node"><title>Node5</title>
<polygon fill="none" stroke="#bfbfbf" points="182,-44.5 182,-74.5 318,-74.5 318,-44.5 182,-44.5"/>
<text text-anchor="start" x="190" y="-62.5" font-family="Helvetica,sans-Serif" font-size="10.00">std::enable_shared</text>
<text text-anchor="middle" x="250" y="-51.5" font-family="Helvetica,sans-Serif" font-size="10.00">_from_this&lt; FreeElement &gt;</text>
</g>
<!-- Node5&#45;&gt;Node2 -->
<g id="edge4" class="edge"><title>Node5&#45;&gt;Node2</title>
<path fill="none" stroke="midnightblue" d="M328.353,-59.5C337.427,-59.5 346.697,-59.5 355.797,-59.5"/>
<polygon fill="midnightblue" stroke="midnightblue" points="328.209,-56.0001 318.209,-59.5 328.209,-63.0001 328.209,-56.0001"/>
</g>
<!-- Node6 -->
<g id="node6" class="node"><title>Node6</title>
<g id="a_node6"><a xlink:href="class_hover_race_1_1_script_1_1_wrapper.html" target="_top" xlink:title="Base class for Luabind class wrappers. ">
<polygon fill="none" stroke="black" points="384,-0.5 384,-30.5 488,-30.5 488,-0.5 384,-0.5"/>
<text text-anchor="start" x="392" y="-18.5" font-family="Helvetica,sans-Serif" font-size="10.00">HoverRace::Script::</text>
<text text-anchor="middle" x="436" y="-7.5" font-family="Helvetica,sans-Serif" font-size="10.00">Wrapper</text>
</a>
</g>
</g>
<!-- Node6&#45;&gt;Node1 -->
<g id="edge5" class="edge"><title>Node6&#45;&gt;Node1</title>
<path fill="none" stroke="midnightblue" d="M498.313,-23.6259C515.876,-25.9534 534.831,-28.4656 551.723,-30.7043"/>
<polygon fill="midnightblue" stroke="midnightblue" points="498.533,-20.1245 488.16,-22.2802 497.613,-27.0638 498.533,-20.1245"/>
</g>
<!-- Node7 -->
<g id="node7" class="node"><title>Node7</title>
<polygon fill="none" stroke="#bfbfbf" points="199.5,-6 199.5,-25 300.5,-25 300.5,-6 199.5,-6"/>
<text text-anchor="middle" x="250" y="-13" font-family="Helvetica,sans-Serif" font-size="10.00">luabind::wrap_base</text>
</g>
<!-- Node7&#45;&gt;Node6 -->
<g id="edge6" class="edge"><title>Node7&#45;&gt;Node6</title>
<path fill="none" stroke="midnightblue" d="M311.011,-15.5C334.552,-15.5 361.285,-15.5 383.885,-15.5"/>
<polygon fill="midnightblue" stroke="midnightblue" points="310.793,-12.0001 300.793,-15.5 310.793,-19.0001 310.793,-12.0001"/>
</g>
</g>
</svg>
