<?xml version="1.0" encoding="UTF-8" standalone="no"?>
<!DOCTYPE svg PUBLIC "-//W3C//DTD SVG 1.1//EN"
 "http://www.w3.org/Graphics/SVG/1.1/DTD/svg11.dtd">
<!-- Generated by graphviz version 2.26.3 (20100126.1600)
 -->
<!-- Title: HoverRace::ObjFacTools::FreeElementBaseRenderer Pages: 1 -->
<svg width="148pt" height="182pt"
 viewBox="0.00 0.00 148.00 182.00" xmlns="http://www.w3.org/2000/svg" xmlns:xlink="http://www.w3.org/1999/xlink">
<g id="graph1" class="graph" transform="scale(1 1) rotate(0) translate(4 178)">
<title>HoverRace::ObjFacTools::FreeElementBaseRenderer</title>
<!-- Node1 -->
<g id="node1" class="node"><title>Node1</title>
<polygon fill="#bfbfbf" stroke="black" points="1.5,-71 1.5,-103 138.5,-103 138.5,-71 1.5,-71"/>
<text text-anchor="start" x="9.5" y="-90" font-family="FreeSans" font-size="10.00">HoverRace::ObjFacTools</text>
<text text-anchor="middle" x="70" y="-78" font-family="FreeSans" font-size="10.00">::FreeElementBaseRenderer</text>
</g>
<!-- Node3 -->
<g id="node5" class="node"><title>Node3</title>
<a xlink:href="class_hover_race_1_1_obj_fac1_1_1_m_r___generic_renderer.html" target="_top" xlink:title="HoverRace::ObjFac1\l::MR_GenericRenderer">
<polygon fill="none" stroke="black" points="13,-1 13,-33 127,-33 127,-1 13,-1"/>
<text text-anchor="start" x="21" y="-20" font-family="FreeSans" font-size="10.00">HoverRace::ObjFac1</text>
<text text-anchor="middle" x="70" y="-8" font-family="FreeSans" font-size="10.00">::MR_GenericRenderer</text>
</a>
</g>
<!-- Node1&#45;&gt;Node3 -->
<g id="edge4" class="edge"><title>Node1&#45;&gt;Node3</title>
<path fill="none" stroke="midnightblue" d="M70,-60.5079C70,-51.3027 70,-41.2615 70,-33.1473"/>
<polygon fill="midnightblue" stroke="midnightblue" points="66.5001,-60.7646 70,-70.7646 73.5001,-60.7647 66.5001,-60.7646"/>
</g>
<!-- Node2 -->
<g id="node2" class="node"><title>Node2</title>
<a xlink:href="class_hover_race_1_1_util_1_1_object_from_factory.html" target="_top" xlink:title="HoverRace::Util::ObjectFrom\lFactory">
<polygon fill="none" stroke="black" points="0,-141 0,-173 140,-173 140,-141 0,-141"/>
<text text-anchor="start" x="8" y="-160" font-family="FreeSans" font-size="10.00">HoverRace::Util::ObjectFrom</text>
<text text-anchor="middle" x="70" y="-148" font-family="FreeSans" font-size="10.00">Factory</text>
</a>
</g>
<!-- Node2&#45;&gt;Node1 -->
<g id="edge2" class="edge"><title>Node2&#45;&gt;Node1</title>
<path fill="none" stroke="midnightblue" d="M70,-130.508C70,-121.303 70,-111.262 70,-103.147"/>
<polygon fill="midnightblue" stroke="midnightblue" points="66.5001,-130.765 70,-140.765 73.5001,-130.765 66.5001,-130.765"/>
</g>
</g>
</svg>
