<?xml version="1.0" encoding="UTF-8" standalone="no"?>
<!DOCTYPE svg PUBLIC "-//W3C//DTD SVG 1.1//EN"
 "http://www.w3.org/Graphics/SVG/1.1/DTD/svg11.dtd">
<!-- Generated by graphviz version 2.38.0 (20140413.2041)
 -->
<!-- Title: HoverRace::Client::GameScene Pages: 1 -->
<svg width="234pt" height="240pt"
 viewBox="0.00 0.00 234.00 240.00" xmlns="http://www.w3.org/2000/svg" xmlns:xlink="http://www.w3.org/1999/xlink">
<g id="graph0" class="graph" transform="scale(1 1) rotate(0) translate(4 236)">
<title>HoverRace::Client::GameScene</title>
<!-- Node1 -->
<g id="node1" class="node"><title>Node1</title>
<polygon fill="#bfbfbf" stroke="black" points="61,-67.5 61,-97.5 165,-97.5 165,-67.5 61,-67.5"/>
<text text-anchor="start" x="69" y="-85.5" font-family="Helvetica,sans-Serif" font-size="10.00">HoverRace::Client::</text>
<text text-anchor="middle" x="113" y="-74.5" font-family="Helvetica,sans-Serif" font-size="10.00">GameScene</text>
</g>
<!-- Node4 -->
<g id="node4" class="node"><title>Node4</title>
<g id="a_node4"><a xlink:href="class_hover_race_1_1_client_1_1_demo_game_scene.html" target="_top" xlink:title="Demo mode, used for the main menu background. ">
<polygon fill="none" stroke="black" points="0,-0.5 0,-30.5 104,-30.5 104,-0.5 0,-0.5"/>
<text text-anchor="start" x="8" y="-18.5" font-family="Helvetica,sans-Serif" font-size="10.00">HoverRace::Client::</text>
<text text-anchor="middle" x="52" y="-7.5" font-family="Helvetica,sans-Serif" font-size="10.00">DemoGameScene</text>
</a>
</g>
</g>
<!-- Node1&#45;&gt;Node4 -->
<g id="edge3" class="edge"><title>Node1&#45;&gt;Node4</title>
<path fill="none" stroke="midnightblue" d="M92.8458,-60.0243C83.7574,-50.3398 73.2786,-39.1739 65.2103,-30.5765"/>
<polygon fill="midnightblue" stroke="midnightblue" points="90.3686,-62.4992 99.7639,-67.396 95.4729,-57.709 90.3686,-62.4992"/>
</g>
<!-- Node5 -->
<g id="node5" class="node"><title>Node5</title>
<g id="a_node5"><a xlink:href="class_hover_race_1_1_client_1_1_play_game_scene.html" target="_top" xlink:title="The actual, genuine gameplay scene. ">
<polygon fill="none" stroke="black" points="122,-0.5 122,-30.5 226,-30.5 226,-0.5 122,-0.5"/>
<text text-anchor="start" x="130" y="-18.5" font-family="Helvetica,sans-Serif" font-size="10.00">HoverRace::Client::</text>
<text text-anchor="middle" x="174" y="-7.5" font-family="Helvetica,sans-Serif" font-size="10.00">PlayGameScene</text>
</a>
</g>
</g>
<!-- Node1&#45;&gt;Node5 -->
<g id="edge4" class="edge"><title>Node1&#45;&gt;Node5</title>
<path fill="none" stroke="midnightblue" d="M133.154,-60.0243C142.243,-50.3398 152.721,-39.1739 160.79,-30.5765"/>
<polygon fill="midnightblue" stroke="midnightblue" points="130.527,-57.709 126.236,-67.396 135.631,-62.4992 130.527,-57.709"/>
</g>
<!-- Node2 -->
<g id="node2" class="node"><title>Node2</title>
<g id="a_node2"><a xlink:href="class_hover_race_1_1_client_1_1_ui_scene.html" target="_top" xlink:title="Base class for UI&#45;centric scenes. ">
<polygon fill="none" stroke="black" points="61,-134.5 61,-164.5 165,-164.5 165,-134.5 61,-134.5"/>
<text text-anchor="start" x="69" y="-152.5" font-family="Helvetica,sans-Serif" font-size="10.00">HoverRace::Client::</text>
<text text-anchor="middle" x="113" y="-141.5" font-family="Helvetica,sans-Serif" font-size="10.00">UiScene</text>
</a>
</g>
</g>
<!-- Node2&#45;&gt;Node1 -->
<g id="edge1" class="edge"><title>Node2&#45;&gt;Node1</title>
<path fill="none" stroke="midnightblue" d="M113,-124.108C113,-115.154 113,-105.323 113,-97.5765"/>
<polygon fill="midnightblue" stroke="midnightblue" points="109.5,-124.396 113,-134.396 116.5,-124.396 109.5,-124.396"/>
</g>
<!-- Node3 -->
<g id="node3" class="node"><title>Node3</title>
<g id="a_node3"><a xlink:href="class_hover_race_1_1_client_1_1_scene.html" target="_top" xlink:title="Scenes are analogous to fullscreen windows that are layered on top of each other. ...">
<polygon fill="none" stroke="black" points="61,-201.5 61,-231.5 165,-231.5 165,-201.5 61,-201.5"/>
<text text-anchor="start" x="69" y="-219.5" font-family="Helvetica,sans-Serif" font-size="10.00">HoverRace::Client::</text>
<text text-anchor="middle" x="113" y="-208.5" font-family="Helvetica,sans-Serif" font-size="10.00">Scene</text>
</a>
</g>
</g>
<!-- Node3&#45;&gt;Node2 -->
<g id="edge2" class="edge"><title>Node3&#45;&gt;Node2</title>
<path fill="none" stroke="midnightblue" d="M113,-191.108C113,-182.154 113,-172.323 113,-164.577"/>
<polygon fill="midnightblue" stroke="midnightblue" points="109.5,-191.396 113,-201.396 116.5,-191.396 109.5,-191.396"/>
</g>
</g>
</svg>
