<?xml version="1.0" encoding="UTF-8" standalone="no"?>
<!DOCTYPE svg PUBLIC "-//W3C//DTD SVG 1.1//EN"
 "http://www.w3.org/Graphics/SVG/1.1/DTD/svg11.dtd">
<!-- Generated by graphviz version 2.38.0 (20140413.2041)
 -->
<!-- Title: HoverRace::Display::SDL::SdlScreenFadeView Pages: 1 -->
<svg width="172pt" height="173pt"
 viewBox="0.00 0.00 172.00 173.00" xmlns="http://www.w3.org/2000/svg" xmlns:xlink="http://www.w3.org/1999/xlink">
<g id="graph0" class="graph" transform="scale(1 1) rotate(0) translate(4 169)">
<title>HoverRace::Display::SDL::SdlScreenFadeView</title>
<!-- Node1 -->
<g id="node1" class="node"><title>Node1</title>
<polygon fill="#bfbfbf" stroke="black" points="11.5,-0.5 11.5,-30.5 152.5,-30.5 152.5,-0.5 11.5,-0.5"/>
<text text-anchor="start" x="19.5" y="-18.5" font-family="FreeSans" font-size="10.00">HoverRace::Display</text>
<text text-anchor="middle" x="82" y="-7.5" font-family="FreeSans" font-size="10.00">::SDL::SdlScreenFadeView</text>
</g>
<!-- Node2 -->
<g id="node2" class="node"><title>Node2</title>
<g id="a_node2"><a xlink:href="class_hover_race_1_1_display_1_1_s_d_l_1_1_sdl_view.html" target="_top" xlink:title="HoverRace::Display\l::SDL::SdlView\&lt; ScreenFade \&gt;">
<polygon fill="none" stroke="black" points="0,-67.5 0,-97.5 164,-97.5 164,-67.5 0,-67.5"/>
<text text-anchor="start" x="8" y="-85.5" font-family="FreeSans" font-size="10.00">HoverRace::Display</text>
<text text-anchor="middle" x="82" y="-74.5" font-family="FreeSans" font-size="10.00">::SDL::SdlView&lt; ScreenFade &gt;</text>
</a>
</g>
</g>
<!-- Node2&#45;&gt;Node1 -->
<g id="edge1" class="edge"><title>Node2&#45;&gt;Node1</title>
<path fill="none" stroke="midnightblue" d="M82,-57.1081C82,-48.1539 82,-38.3227 82,-30.5765"/>
<polygon fill="midnightblue" stroke="midnightblue" points="78.5001,-57.3959 82,-67.396 85.5001,-57.396 78.5001,-57.3959"/>
</g>
<!-- Node3 -->
<g id="node3" class="node"><title>Node3</title>
<g id="a_node3"><a xlink:href="class_hover_race_1_1_display_1_1_view.html" target="_top" xlink:title="Base class for views. ">
<polygon fill="none" stroke="black" points="27.5,-134.5 27.5,-164.5 136.5,-164.5 136.5,-134.5 27.5,-134.5"/>
<text text-anchor="start" x="35.5" y="-152.5" font-family="FreeSans" font-size="10.00">HoverRace::Display</text>
<text text-anchor="middle" x="82" y="-141.5" font-family="FreeSans" font-size="10.00">::View</text>
</a>
</g>
</g>
<!-- Node3&#45;&gt;Node2 -->
<g id="edge2" class="edge"><title>Node3&#45;&gt;Node2</title>
<path fill="none" stroke="midnightblue" d="M82,-124.108C82,-115.154 82,-105.323 82,-97.5765"/>
<polygon fill="midnightblue" stroke="midnightblue" points="78.5001,-124.396 82,-134.396 85.5001,-124.396 78.5001,-124.396"/>
</g>
</g>
</svg>
