<?xml version="1.0" encoding="UTF-8" standalone="no"?>
<!DOCTYPE svg PUBLIC "-//W3C//DTD SVG 1.1//EN"
 "http://www.w3.org/Graphics/SVG/1.1/DTD/svg11.dtd">
<!-- Generated by graphviz version 2.26.3 (20100126.1600)
 -->
<!-- Title: HoverRace::Display::SDL::SdlDynamicTexture Pages: 1 -->
<svg width="136pt" height="182pt"
 viewBox="0.00 0.00 136.00 182.00" xmlns="http://www.w3.org/2000/svg" xmlns:xlink="http://www.w3.org/1999/xlink">
<g id="graph1" class="graph" transform="scale(1 1) rotate(0) translate(4 178)">
<title>HoverRace::Display::SDL::SdlDynamicTexture</title>
<!-- Node1 -->
<g id="node1" class="node"><title>Node1</title>
<polygon fill="#bfbfbf" stroke="black" points="-0.5,-1 -0.5,-33 128.5,-33 128.5,-1 -0.5,-1"/>
<text text-anchor="start" x="7.5" y="-20" font-family="FreeSans" font-size="10.00">HoverRace::Display</text>
<text text-anchor="middle" x="64" y="-8" font-family="FreeSans" font-size="10.00">::SDL::SdlDynamicTexture</text>
</g>
<!-- Node2 -->
<g id="node2" class="node"><title>Node2</title>
<a xlink:href="class_hover_race_1_1_display_1_1_s_d_l_1_1_sdl_texture.html" target="_top" xlink:title="Wrapper for SDL_Texture. ">
<polygon fill="none" stroke="black" points="13.5,-71 13.5,-103 114.5,-103 114.5,-71 13.5,-71"/>
<text text-anchor="start" x="21.5" y="-90" font-family="FreeSans" font-size="10.00">HoverRace::Display</text>
<text text-anchor="middle" x="64" y="-78" font-family="FreeSans" font-size="10.00">::SDL::SdlTexture</text>
</a>
</g>
<!-- Node2&#45;&gt;Node1 -->
<g id="edge2" class="edge"><title>Node2&#45;&gt;Node1</title>
<path fill="none" stroke="midnightblue" d="M64,-60.5079C64,-51.3027 64,-41.2615 64,-33.1473"/>
<polygon fill="midnightblue" stroke="midnightblue" points="60.5001,-60.7646 64,-70.7646 67.5001,-60.7647 60.5001,-60.7646"/>
</g>
<!-- Node3 -->
<g id="node4" class="node"><title>Node3</title>
<a xlink:href="class_hover_race_1_1_display_1_1_texture.html" target="_top" xlink:title="A hardware texture. ">
<polygon fill="none" stroke="black" points="13.5,-141 13.5,-173 114.5,-173 114.5,-141 13.5,-141"/>
<text text-anchor="start" x="21.5" y="-160" font-family="FreeSans" font-size="10.00">HoverRace::Display</text>
<text text-anchor="middle" x="64" y="-148" font-family="FreeSans" font-size="10.00">::Texture</text>
</a>
</g>
<!-- Node3&#45;&gt;Node2 -->
<g id="edge4" class="edge"><title>Node3&#45;&gt;Node2</title>
<path fill="none" stroke="midnightblue" d="M64,-130.508C64,-121.303 64,-111.262 64,-103.147"/>
<polygon fill="midnightblue" stroke="midnightblue" points="60.5001,-130.765 64,-140.765 67.5001,-130.765 60.5001,-130.765"/>
</g>
</g>
</svg>
