<?xml version="1.0" encoding="UTF-8" standalone="no"?>
<!DOCTYPE svg PUBLIC "-//W3C//DTD SVG 1.1//EN"
 "http://www.w3.org/Graphics/SVG/1.1/DTD/svg11.dtd">
<!-- Generated by graphviz version 2.38.0 (20140413.2041)
 -->
<!-- Title: HoverRace::Display::StateButton Pages: 1 -->
<svg width="1026pt" height="137pt"
 viewBox="0.00 0.00 1026.00 137.00" xmlns="http://www.w3.org/2000/svg" xmlns:xlink="http://www.w3.org/1999/xlink">
<g id="graph0" class="graph" transform="scale(1 1) rotate(0) translate(4 133)">
<title>HoverRace::Display::StateButton</title>
<!-- Node1 -->
<g id="node1" class="node"><title>Node1</title>
<polygon fill="#bfbfbf" stroke="black" points="580,-49.5 580,-79.5 689,-79.5 689,-49.5 580,-49.5"/>
<text text-anchor="start" x="588" y="-67.5" font-family="FreeSans" font-size="10.00">HoverRace::Display</text>
<text text-anchor="middle" x="634.5" y="-56.5" font-family="FreeSans" font-size="10.00">::StateButton</text>
</g>
<!-- Node6 -->
<g id="node6" class="node"><title>Node6</title>
<g id="a_node6"><a xlink:href="class_hover_race_1_1_display_1_1_base_radio_button.html" target="_top" xlink:title="Base class for radio buttons. ">
<polygon fill="none" stroke="black" points="725,-98.5 725,-128.5 834,-128.5 834,-98.5 725,-98.5"/>
<text text-anchor="start" x="733" y="-116.5" font-family="FreeSans" font-size="10.00">HoverRace::Display</text>
<text text-anchor="middle" x="779.5" y="-105.5" font-family="FreeSans" font-size="10.00">::BaseRadioButton</text>
</a>
</g>
</g>
<!-- Node1&#45;&gt;Node6 -->
<g id="edge5" class="edge"><title>Node1&#45;&gt;Node6</title>
<path fill="none" stroke="midnightblue" d="M689.168,-82.8896C704.057,-87.9916 720.048,-93.4711 734.328,-98.3641"/>
<polygon fill="midnightblue" stroke="midnightblue" points="690.166,-79.532 679.572,-79.6014 687.897,-86.1541 690.166,-79.532"/>
</g>
<!-- Node8 -->
<g id="node8" class="node"><title>Node8</title>
<g id="a_node8"><a xlink:href="class_hover_race_1_1_display_1_1_checkbox.html" target="_top" xlink:title="A checkbox widget. ">
<polygon fill="none" stroke="black" points="725,-49.5 725,-79.5 834,-79.5 834,-49.5 725,-49.5"/>
<text text-anchor="start" x="733" y="-67.5" font-family="FreeSans" font-size="10.00">HoverRace::Display</text>
<text text-anchor="middle" x="779.5" y="-56.5" font-family="FreeSans" font-size="10.00">::Checkbox</text>
</a>
</g>
</g>
<!-- Node1&#45;&gt;Node8 -->
<g id="edge7" class="edge"><title>Node1&#45;&gt;Node8</title>
<path fill="none" stroke="midnightblue" d="M699.324,-64.5C707.745,-64.5 716.31,-64.5 724.545,-64.5"/>
<polygon fill="midnightblue" stroke="midnightblue" points="699.155,-61.0001 689.155,-64.5 699.155,-68.0001 699.155,-61.0001"/>
</g>
<!-- Node9 -->
<g id="node9" class="node"><title>Node9</title>
<g id="a_node9"><a xlink:href="class_hover_race_1_1_display_1_1_pick_list_item.html" target="_top" xlink:title="A single list item. ">
<polygon fill="none" stroke="black" points="725,-0.5 725,-30.5 834,-30.5 834,-0.5 725,-0.5"/>
<text text-anchor="start" x="733" y="-18.5" font-family="FreeSans" font-size="10.00">HoverRace::Display</text>
<text text-anchor="middle" x="779.5" y="-7.5" font-family="FreeSans" font-size="10.00">::PickListItem</text>
</a>
</g>
</g>
<!-- Node1&#45;&gt;Node9 -->
<g id="edge8" class="edge"><title>Node1&#45;&gt;Node9</title>
<path fill="none" stroke="midnightblue" d="M689.168,-46.1104C704.057,-41.0084 720.048,-35.5289 734.328,-30.6359"/>
<polygon fill="midnightblue" stroke="midnightblue" points="687.897,-42.8459 679.572,-49.3986 690.166,-49.468 687.897,-42.8459"/>
</g>
<!-- Node2 -->
<g id="node2" class="node"><title>Node2</title>
<g id="a_node2"><a xlink:href="class_hover_race_1_1_display_1_1_button.html" target="_top" xlink:title="A standard button, with a text label. ">
<polygon fill="none" stroke="black" points="435,-49.5 435,-79.5 544,-79.5 544,-49.5 435,-49.5"/>
<text text-anchor="start" x="443" y="-67.5" font-family="FreeSans" font-size="10.00">HoverRace::Display</text>
<text text-anchor="middle" x="489.5" y="-56.5" font-family="FreeSans" font-size="10.00">::Button</text>
</a>
</g>
</g>
<!-- Node2&#45;&gt;Node1 -->
<g id="edge1" class="edge"><title>Node2&#45;&gt;Node1</title>
<path fill="none" stroke="midnightblue" d="M554.324,-64.5C562.745,-64.5 571.31,-64.5 579.545,-64.5"/>
<polygon fill="midnightblue" stroke="midnightblue" points="554.155,-61.0001 544.155,-64.5 554.155,-68.0001 554.155,-61.0001"/>
</g>
<!-- Node3 -->
<g id="node3" class="node"><title>Node3</title>
<g id="a_node3"><a xlink:href="class_hover_race_1_1_display_1_1_click_region.html" target="_top" xlink:title="Base class for clickable areas. ">
<polygon fill="none" stroke="black" points="290,-49.5 290,-79.5 399,-79.5 399,-49.5 290,-49.5"/>
<text text-anchor="start" x="298" y="-67.5" font-family="FreeSans" font-size="10.00">HoverRace::Display</text>
<text text-anchor="middle" x="344.5" y="-56.5" font-family="FreeSans" font-size="10.00">::ClickRegion</text>
</a>
</g>
</g>
<!-- Node3&#45;&gt;Node2 -->
<g id="edge2" class="edge"><title>Node3&#45;&gt;Node2</title>
<path fill="none" stroke="midnightblue" d="M409.324,-64.5C417.745,-64.5 426.31,-64.5 434.545,-64.5"/>
<polygon fill="midnightblue" stroke="midnightblue" points="409.155,-61.0001 399.155,-64.5 409.155,-68.0001 409.155,-61.0001"/>
</g>
<!-- Node4 -->
<g id="node4" class="node"><title>Node4</title>
<g id="a_node4"><a xlink:href="class_hover_race_1_1_display_1_1_ui_view_model.html" target="_top" xlink:title="Base class for UI (2D) components. ">
<polygon fill="none" stroke="black" points="145,-49.5 145,-79.5 254,-79.5 254,-49.5 145,-49.5"/>
<text text-anchor="start" x="153" y="-67.5" font-family="FreeSans" font-size="10.00">HoverRace::Display</text>
<text text-anchor="middle" x="199.5" y="-56.5" font-family="FreeSans" font-size="10.00">::UiViewModel</text>
</a>
</g>
</g>
<!-- Node4&#45;&gt;Node3 -->
<g id="edge3" class="edge"><title>Node4&#45;&gt;Node3</title>
<path fill="none" stroke="midnightblue" d="M264.324,-64.5C272.745,-64.5 281.31,-64.5 289.545,-64.5"/>
<polygon fill="midnightblue" stroke="midnightblue" points="264.155,-61.0001 254.155,-64.5 264.155,-68.0001 264.155,-61.0001"/>
</g>
<!-- Node5 -->
<g id="node5" class="node"><title>Node5</title>
<g id="a_node5"><a xlink:href="class_hover_race_1_1_display_1_1_view_model.html" target="_top" xlink:title="Base class for renderable components. ">
<polygon fill="none" stroke="black" points="0,-49.5 0,-79.5 109,-79.5 109,-49.5 0,-49.5"/>
<text text-anchor="start" x="8" y="-67.5" font-family="FreeSans" font-size="10.00">HoverRace::Display</text>
<text text-anchor="middle" x="54.5" y="-56.5" font-family="FreeSans" font-size="10.00">::ViewModel</text>
</a>
</g>
</g>
<!-- Node5&#45;&gt;Node4 -->
<g id="edge4" class="edge"><title>Node5&#45;&gt;Node4</title>
<path fill="none" stroke="midnightblue" d="M119.324,-64.5C127.745,-64.5 136.31,-64.5 144.545,-64.5"/>
<polygon fill="midnightblue" stroke="midnightblue" points="119.155,-61.0001 109.155,-64.5 119.155,-68.0001 119.155,-61.0001"/>
</g>
<!-- Node7 -->
<g id="node7" class="node"><title>Node7</title>
<g id="a_node7"><a xlink:href="class_hover_race_1_1_display_1_1_radio_button.html" target="_top" xlink:title="A single radio button. ">
<polygon fill="none" stroke="black" points="889.5,-98.5 889.5,-128.5 998.5,-128.5 998.5,-98.5 889.5,-98.5"/>
<text text-anchor="start" x="897.5" y="-116.5" font-family="FreeSans" font-size="10.00">HoverRace::Display</text>
<text text-anchor="middle" x="944" y="-105.5" font-family="FreeSans" font-size="10.00">::RadioButton&lt; T &gt;</text>
</a>
</g>
</g>
<!-- Node6&#45;&gt;Node7 -->
<g id="edge6" class="edge"><title>Node6&#45;&gt;Node7</title>
<path fill="none" stroke="midnightblue" d="M844.327,-113.5C859.242,-113.5 874.979,-113.5 889.397,-113.5"/>
<polygon fill="midnightblue" stroke="midnightblue" points="844.159,-110 834.159,-113.5 844.159,-117 844.159,-110"/>
</g>
<!-- Node10 -->
<g id="node10" class="node"><title>Node10</title>
<g id="a_node10"><a xlink:href="class_hover_race_1_1_display_1_1_pick_list_1_1_default_item.html" target="_top" xlink:title="HoverRace::Display\l::PickList\&lt; T \&gt;::DefaultItem">
<polygon fill="none" stroke="black" points="870,-0.5 870,-30.5 1018,-30.5 1018,-0.5 870,-0.5"/>
<text text-anchor="start" x="878" y="-18.5" font-family="FreeSans" font-size="10.00">HoverRace::Display</text>
<text text-anchor="middle" x="944" y="-7.5" font-family="FreeSans" font-size="10.00">::PickList&lt; T &gt;::DefaultItem</text>
</a>
</g>
</g>
<!-- Node9&#45;&gt;Node10 -->
<g id="edge9" class="edge"><title>Node9&#45;&gt;Node10</title>
<path fill="none" stroke="midnightblue" d="M844.282,-15.5C852.71,-15.5 861.401,-15.5 869.968,-15.5"/>
<polygon fill="midnightblue" stroke="midnightblue" points="844.159,-12.0001 834.159,-15.5 844.159,-19.0001 844.159,-12.0001"/>
</g>
</g>
</svg>
