<?xml version="1.0" encoding="UTF-8" standalone="no"?>
<!DOCTYPE svg PUBLIC "-//W3C//DTD SVG 1.1//EN"
 "http://www.w3.org/Graphics/SVG/1.1/DTD/svg11.dtd">
<!-- Generated by graphviz version 2.26.3 (20100126.1600)
 -->
<!-- Title: HoverRace::Script::Peer Pages: 1 -->
<svg width="292pt" height="340pt"
 viewBox="0.00 0.00 292.00 340.00" xmlns="http://www.w3.org/2000/svg" xmlns:xlink="http://www.w3.org/1999/xlink">
<g id="graph1" class="graph" transform="scale(1 1) rotate(0) translate(4 336)">
<title>HoverRace::Script::Peer</title>
<!-- Node1 -->
<g id="node1" class="node"><title>Node1</title>
<polygon fill="#bfbfbf" stroke="black" points="0,-156 0,-176 120,-176 120,-156 0,-156"/>
<text text-anchor="middle" x="60" y="-163" font-family="FreeSans" font-size="10.00">HoverRace::Script::Peer</text>
</g>
<!-- Node2 -->
<g id="node3" class="node"><title>Node2</title>
<a xlink:href="class_hover_race_1_1_client_1_1_hover_script_1_1_config_peer.html" target="_top" xlink:title="Scripting peer for access to the game configuration. ">
<polygon fill="none" stroke="black" points="160,-300 160,-332 280,-332 280,-300 160,-300"/>
<text text-anchor="start" x="168" y="-319" font-family="FreeSans" font-size="10.00">HoverRace::Client::</text>
<text text-anchor="middle" x="220" y="-307" font-family="FreeSans" font-size="10.00">HoverScript::ConfigPeer</text>
</a>
</g>
<!-- Node1&#45;&gt;Node2 -->
<g id="edge2" class="edge"><title>Node1&#45;&gt;Node2</title>
<path fill="none" stroke="midnightblue" d="M70.1969,-185.133C85.4993,-212.184 116.832,-261.585 156,-291 160.483,-294.367 165.477,-297.34 170.644,-299.951"/>
<polygon fill="midnightblue" stroke="midnightblue" points="73.1948,-183.322 65.2996,-176.257 67.0657,-186.703 73.1948,-183.322"/>
</g>
<!-- Node3 -->
<g id="node5" class="node"><title>Node3</title>
<a xlink:href="class_hover_race_1_1_client_1_1_hover_script_1_1_debug_peer.html" target="_top" xlink:title="Provides access to debugging tools. ">
<polygon fill="none" stroke="black" points="159.5,-250 159.5,-282 280.5,-282 280.5,-250 159.5,-250"/>
<text text-anchor="start" x="167.5" y="-269" font-family="FreeSans" font-size="10.00">HoverRace::Client::</text>
<text text-anchor="middle" x="220" y="-257" font-family="FreeSans" font-size="10.00">HoverScript::DebugPeer</text>
</a>
</g>
<!-- Node1&#45;&gt;Node3 -->
<g id="edge4" class="edge"><title>Node1&#45;&gt;Node3</title>
<path fill="none" stroke="midnightblue" d="M78.4246,-183.069C96.9388,-199.55 126.836,-224.387 156,-241 161.701,-244.247 167.906,-247.253 174.136,-249.972"/>
<polygon fill="midnightblue" stroke="midnightblue" points="80.5284,-180.253 70.7626,-176.144 75.8348,-185.446 80.5284,-180.253"/>
</g>
<!-- Node4 -->
<g id="node7" class="node"><title>Node4</title>
<a xlink:href="class_hover_race_1_1_client_1_1_hover_script_1_1_game_peer.html" target="_top" xlink:title="Scripting peer for system&#45;level control of the game. ">
<polygon fill="none" stroke="black" points="160.5,-200 160.5,-232 279.5,-232 279.5,-200 160.5,-200"/>
<text text-anchor="start" x="168.5" y="-219" font-family="FreeSans" font-size="10.00">HoverRace::Client::</text>
<text text-anchor="middle" x="220" y="-207" font-family="FreeSans" font-size="10.00">HoverScript::GamePeer</text>
</a>
</g>
<!-- Node1&#45;&gt;Node4 -->
<g id="edge6" class="edge"><title>Node1&#45;&gt;Node4</title>
<path fill="none" stroke="midnightblue" d="M102.036,-179.136C122.48,-185.525 147.23,-193.259 168.77,-199.991"/>
<polygon fill="midnightblue" stroke="midnightblue" points="102.967,-175.76 92.3784,-176.118 100.879,-182.442 102.967,-175.76"/>
</g>
<!-- Node5 -->
<g id="node9" class="node"><title>Node5</title>
<a xlink:href="class_hover_race_1_1_client_1_1_hover_script_1_1_hud_peer.html" target="_top" xlink:title="Scripting peer for access to the HUD for a player. ">
<polygon fill="none" stroke="black" points="164.5,-150 164.5,-182 275.5,-182 275.5,-150 164.5,-150"/>
<text text-anchor="start" x="172.5" y="-169" font-family="FreeSans" font-size="10.00">HoverRace::Client::</text>
<text text-anchor="middle" x="220" y="-157" font-family="FreeSans" font-size="10.00">HoverScript::HudPeer</text>
</a>
</g>
<!-- Node1&#45;&gt;Node5 -->
<g id="edge8" class="edge"><title>Node1&#45;&gt;Node5</title>
<path fill="none" stroke="midnightblue" d="M130.038,-166C141.532,-166 153.305,-166 164.387,-166"/>
<polygon fill="midnightblue" stroke="midnightblue" points="130.033,-162.5 120.033,-166 130.033,-169.5 130.033,-162.5"/>
</g>
<!-- Node6 -->
<g id="node11" class="node"><title>Node6</title>
<a xlink:href="class_hover_race_1_1_client_1_1_hover_script_1_1_input_peer.html" target="_top" xlink:title="Scripting peer for input. ">
<polygon fill="none" stroke="black" points="162.5,-100 162.5,-132 277.5,-132 277.5,-100 162.5,-100"/>
<text text-anchor="start" x="170.5" y="-119" font-family="FreeSans" font-size="10.00">HoverRace::Client::</text>
<text text-anchor="middle" x="220" y="-107" font-family="FreeSans" font-size="10.00">HoverScript::InputPeer</text>
</a>
</g>
<!-- Node1&#45;&gt;Node6 -->
<g id="edge10" class="edge"><title>Node1&#45;&gt;Node6</title>
<path fill="none" stroke="midnightblue" d="M102.036,-152.864C122.48,-146.475 147.23,-138.741 168.77,-132.009"/>
<polygon fill="midnightblue" stroke="midnightblue" points="100.879,-149.558 92.3784,-155.882 102.967,-156.24 100.879,-149.558"/>
</g>
<!-- Node7 -->
<g id="node13" class="node"><title>Node7</title>
<a xlink:href="class_hover_race_1_1_client_1_1_hover_script_1_1_player_peer.html" target="_top" xlink:title="Scripting peer for players (main characters). ">
<polygon fill="none" stroke="black" points="160,-50 160,-82 280,-82 280,-50 160,-50"/>
<text text-anchor="start" x="168" y="-69" font-family="FreeSans" font-size="10.00">HoverRace::Client::</text>
<text text-anchor="middle" x="220" y="-57" font-family="FreeSans" font-size="10.00">HoverScript::PlayerPeer</text>
</a>
</g>
<!-- Node1&#45;&gt;Node7 -->
<g id="edge12" class="edge"><title>Node1&#45;&gt;Node7</title>
<path fill="none" stroke="midnightblue" d="M78.4246,-148.931C96.9388,-132.45 126.836,-107.613 156,-91 161.701,-87.7526 167.906,-84.7466 174.136,-82.0282"/>
<polygon fill="midnightblue" stroke="midnightblue" points="75.8348,-146.554 70.7626,-155.856 80.5284,-151.747 75.8348,-146.554"/>
</g>
<!-- Node8 -->
<g id="node15" class="node"><title>Node8</title>
<a xlink:href="class_hover_race_1_1_client_1_1_hover_script_1_1_session_peer.html" target="_top" xlink:title="Scripting peer for a game session. ">
<polygon fill="none" stroke="black" points="156,-0 156,-32 284,-32 284,-0 156,-0"/>
<text text-anchor="start" x="164" y="-19" font-family="FreeSans" font-size="10.00">HoverRace::Client::</text>
<text text-anchor="middle" x="220" y="-7" font-family="FreeSans" font-size="10.00">HoverScript::SessionPeer</text>
</a>
</g>
<!-- Node1&#45;&gt;Node8 -->
<g id="edge14" class="edge"><title>Node1&#45;&gt;Node8</title>
<path fill="none" stroke="midnightblue" d="M70.1969,-146.867C85.4993,-119.816 116.832,-70.4152 156,-41 160.483,-37.6332 165.477,-34.6601 170.644,-32.0494"/>
<polygon fill="midnightblue" stroke="midnightblue" points="67.0657,-145.297 65.2996,-155.743 73.1948,-148.678 67.0657,-145.297"/>
</g>
</g>
</svg>
