<?xml version="1.0" encoding="UTF-8" standalone="no"?>
<!DOCTYPE svg PUBLIC "-//W3C//DTD SVG 1.1//EN"
 "http://www.w3.org/Graphics/SVG/1.1/DTD/svg11.dtd">
<!-- Generated by graphviz version 2.26.3 (20100126.1600)
 -->
<!-- Title: HoverRace::Display::BaseRes Pages: 1 -->
<svg width="386pt" height="140pt"
 viewBox="0.00 0.00 386.00 140.00" xmlns="http://www.w3.org/2000/svg" xmlns:xlink="http://www.w3.org/1999/xlink">
<g id="graph1" class="graph" transform="scale(1 1) rotate(0) translate(4 136)">
<title>HoverRace::Display::BaseRes</title>
<!-- Node1 -->
<g id="node1" class="node"><title>Node1</title>
<polygon fill="#bfbfbf" stroke="black" points="0.5,-75 0.5,-107 101.5,-107 101.5,-75 0.5,-75"/>
<text text-anchor="start" x="8.5" y="-94" font-family="FreeSans" font-size="10.00">HoverRace::Display</text>
<text text-anchor="middle" x="51" y="-82" font-family="FreeSans" font-size="10.00">::BaseRes</text>
</g>
<!-- Node2 -->
<g id="node3" class="node"><title>Node2</title>
<a xlink:href="class_hover_race_1_1_display_1_1_res.html" target="_top" xlink:title="Base class for loadable resources. ">
<polygon fill="none" stroke="black" points="138.5,-100 138.5,-132 239.5,-132 239.5,-100 138.5,-100"/>
<text text-anchor="start" x="146.5" y="-119" font-family="FreeSans" font-size="10.00">HoverRace::Display</text>
<text text-anchor="middle" x="189" y="-107" font-family="FreeSans" font-size="10.00">::Res&lt; T &gt;</text>
</a>
</g>
<!-- Node1&#45;&gt;Node2 -->
<g id="edge2" class="edge"><title>Node1&#45;&gt;Node2</title>
<path fill="none" stroke="midnightblue" d="M111.593,-101.977C120.543,-103.598 129.685,-105.255 138.404,-106.834"/>
<polygon fill="midnightblue" stroke="midnightblue" points="112.066,-98.5058 101.603,-100.167 110.818,-105.394 112.066,-98.5058"/>
</g>
<!-- Node4 -->
<g id="node7" class="node"><title>Node4</title>
<a xlink:href="class_hover_race_1_1_display_1_1_res_3_01_texture_01_4.html" target="_top" xlink:title="Base class for loadable textures. ">
<polygon fill="none" stroke="black" points="138.5,-50 138.5,-82 239.5,-82 239.5,-50 138.5,-50"/>
<text text-anchor="start" x="146.5" y="-69" font-family="FreeSans" font-size="10.00">HoverRace::Display</text>
<text text-anchor="middle" x="189" y="-57" font-family="FreeSans" font-size="10.00">::Res&lt; Texture &gt;</text>
</a>
</g>
<!-- Node1&#45;&gt;Node4 -->
<g id="edge6" class="edge"><title>Node1&#45;&gt;Node4</title>
<path fill="none" stroke="midnightblue" d="M111.593,-80.023C120.543,-78.4016 129.685,-76.7455 138.404,-75.166"/>
<polygon fill="midnightblue" stroke="midnightblue" points="110.818,-76.6063 101.603,-81.8329 112.066,-83.4942 110.818,-76.6063"/>
</g>
<!-- Node3 -->
<g id="node5" class="node"><title>Node3</title>
<a xlink:href="class_hover_race_1_1_display_1_1_media_res.html" target="_top" xlink:title="Represents a file in the game&#39;s media directory. ">
<polygon fill="none" stroke="black" points="276.5,-100 276.5,-132 377.5,-132 377.5,-100 276.5,-100"/>
<text text-anchor="start" x="284.5" y="-119" font-family="FreeSans" font-size="10.00">HoverRace::Display</text>
<text text-anchor="middle" x="327" y="-107" font-family="FreeSans" font-size="10.00">::MediaRes&lt; T &gt;</text>
</a>
</g>
<!-- Node2&#45;&gt;Node3 -->
<g id="edge4" class="edge"><title>Node2&#45;&gt;Node3</title>
<path fill="none" stroke="midnightblue" d="M249.882,-116C258.74,-116 267.779,-116 276.404,-116"/>
<polygon fill="midnightblue" stroke="midnightblue" points="249.603,-112.5 239.603,-116 249.602,-119.5 249.603,-112.5"/>
</g>
<!-- Node5 -->
<g id="node9" class="node"><title>Node5</title>
<a xlink:href="class_hover_race_1_1_display_1_1_avatar_texture_res.html" target="_top" xlink:title="An avatar resource. ">
<polygon fill="none" stroke="black" points="276.5,-50 276.5,-82 377.5,-82 377.5,-50 276.5,-50"/>
<text text-anchor="start" x="284.5" y="-69" font-family="FreeSans" font-size="10.00">HoverRace::Display</text>
<text text-anchor="middle" x="327" y="-57" font-family="FreeSans" font-size="10.00">::AvatarTextureRes</text>
</a>
</g>
<!-- Node4&#45;&gt;Node5 -->
<g id="edge8" class="edge"><title>Node4&#45;&gt;Node5</title>
<path fill="none" stroke="midnightblue" d="M249.882,-66C258.74,-66 267.779,-66 276.404,-66"/>
<polygon fill="midnightblue" stroke="midnightblue" points="249.603,-62.5001 239.603,-66 249.602,-69.5001 249.603,-62.5001"/>
</g>
<!-- Node6 -->
<g id="node11" class="node"><title>Node6</title>
<a xlink:href="class_hover_race_1_1_display_1_1_sprite_texture_res.html" target="_top" xlink:title="Loads a legacy 8&#45;bit sprite as a texture. ">
<polygon fill="none" stroke="black" points="276.5,-0 276.5,-32 377.5,-32 377.5,-0 276.5,-0"/>
<text text-anchor="start" x="284.5" y="-19" font-family="FreeSans" font-size="10.00">HoverRace::Display</text>
<text text-anchor="middle" x="327" y="-7" font-family="FreeSans" font-size="10.00">::SpriteTextureRes</text>
</a>
</g>
<!-- Node4&#45;&gt;Node6 -->
<g id="edge10" class="edge"><title>Node4&#45;&gt;Node6</title>
<path fill="none" stroke="midnightblue" d="M242.853,-46.4881C256.031,-41.7134 269.984,-36.6578 282.66,-32.0654"/>
<polygon fill="midnightblue" stroke="midnightblue" points="241.633,-43.2072 233.424,-49.9045 244.018,-49.7886 241.633,-43.2072"/>
</g>
</g>
</svg>
