<?xml version="1.0" encoding="UTF-8" standalone="no"?>
<!DOCTYPE svg PUBLIC "-//W3C//DTD SVG 1.1//EN"
 "http://www.w3.org/Graphics/SVG/1.1/DTD/svg11.dtd">
<!-- Generated by graphviz version 2.38.0 (20140413.2041)
 -->
<!-- Title: HoverRace::Display::SymbolIcon Pages: 1 -->
<svg width="136pt" height="229pt"
 viewBox="0.00 0.00 136.00 229.00" xmlns="http://www.w3.org/2000/svg" xmlns:xlink="http://www.w3.org/1999/xlink">
<g id="graph0" class="graph" transform="scale(1 1) rotate(0) translate(4 225)">
<title>HoverRace::Display::SymbolIcon</title>
<!-- Node1 -->
<g id="node1" class="node"><title>Node1</title>
<polygon fill="#bfbfbf" stroke="black" points="11.5,-0.5 11.5,-30.5 116.5,-30.5 116.5,-0.5 11.5,-0.5"/>
<text text-anchor="start" x="19.5" y="-18.5" font-family="Helvetica,sans-Serif" font-size="10.00">HoverRace::Display</text>
<text text-anchor="middle" x="64" y="-7.5" font-family="Helvetica,sans-Serif" font-size="10.00">::SymbolIcon</text>
</g>
<!-- Node2 -->
<g id="node2" class="node"><title>Node2</title>
<g id="a_node2"><a xlink:href="class_hover_race_1_1_display_1_1_box.html" target="_top" xlink:title="Base class for low&#45;level bounded widgets. ">
<polygon fill="none" stroke="black" points="0,-67.5 0,-86.5 128,-86.5 128,-67.5 0,-67.5"/>
<text text-anchor="middle" x="64" y="-74.5" font-family="Helvetica,sans-Serif" font-size="10.00">HoverRace::Display::Box</text>
</a>
</g>
</g>
<!-- Node2&#45;&gt;Node1 -->
<g id="edge1" class="edge"><title>Node2&#45;&gt;Node1</title>
<path fill="none" stroke="midnightblue" d="M64,-57.2349C64,-48.5864 64,-38.4969 64,-30.523"/>
<polygon fill="midnightblue" stroke="midnightblue" points="60.5001,-57.4751 64,-67.4751 67.5001,-57.4751 60.5001,-57.4751"/>
</g>
<!-- Node3 -->
<g id="node3" class="node"><title>Node3</title>
<g id="a_node3"><a xlink:href="class_hover_race_1_1_display_1_1_ui_view_model.html" target="_top" xlink:title="Base class for UI (2D) components. ">
<polygon fill="none" stroke="black" points="11.5,-123.5 11.5,-153.5 116.5,-153.5 116.5,-123.5 11.5,-123.5"/>
<text text-anchor="start" x="19.5" y="-141.5" font-family="Helvetica,sans-Serif" font-size="10.00">HoverRace::Display</text>
<text text-anchor="middle" x="64" y="-130.5" font-family="Helvetica,sans-Serif" font-size="10.00">::UiViewModel</text>
</a>
</g>
</g>
<!-- Node3&#45;&gt;Node2 -->
<g id="edge2" class="edge"><title>Node3&#45;&gt;Node2</title>
<path fill="none" stroke="midnightblue" d="M64,-113.289C64,-103.857 64,-93.6548 64,-86.6578"/>
<polygon fill="midnightblue" stroke="midnightblue" points="60.5001,-113.399 64,-123.399 67.5001,-113.399 60.5001,-113.399"/>
</g>
<!-- Node4 -->
<g id="node4" class="node"><title>Node4</title>
<g id="a_node4"><a xlink:href="class_hover_race_1_1_display_1_1_view_model.html" target="_top" xlink:title="Base class for renderable components. ">
<polygon fill="none" stroke="black" points="11.5,-190.5 11.5,-220.5 116.5,-220.5 116.5,-190.5 11.5,-190.5"/>
<text text-anchor="start" x="19.5" y="-208.5" font-family="Helvetica,sans-Serif" font-size="10.00">HoverRace::Display</text>
<text text-anchor="middle" x="64" y="-197.5" font-family="Helvetica,sans-Serif" font-size="10.00">::ViewModel</text>
</a>
</g>
</g>
<!-- Node4&#45;&gt;Node3 -->
<g id="edge3" class="edge"><title>Node4&#45;&gt;Node3</title>
<path fill="none" stroke="midnightblue" d="M64,-180.108C64,-171.154 64,-161.323 64,-153.577"/>
<polygon fill="midnightblue" stroke="midnightblue" points="60.5001,-180.396 64,-190.396 67.5001,-180.396 60.5001,-180.396"/>
</g>
</g>
</svg>
