<?xml version="1.0" encoding="UTF-8" standalone="no"?>
<!DOCTYPE svg PUBLIC "-//W3C//DTD SVG 1.1//EN"
 "http://www.w3.org/Graphics/SVG/1.1/DTD/svg11.dtd">
<!-- Generated by graphviz version 2.38.0 (20140413.2041)
 -->
<!-- Title: HoverRace::Display::ClickRegion Pages: 1 -->
<!--zoomable 246 -->
<svg id="main" version="1.1" xmlns="http://www.w3.org/2000/svg" xmlns:xlink="http://www.w3.org/1999/xlink" xml:space="preserve" onload="init(evt)">
<style type="text/css"><![CDATA[
.edge:hover path { stroke: red; }
.edge:hover polygon { stroke: red; fill: red; }
]]></style>
<script type="text/javascript"><![CDATA[
var edges = document.getElementsByTagName('g');
if (edges && edges.length) {
  for (var i=0;i<edges.length;i++) {
    if (edges[i].id.substr(0,4)=='edge') {
      edges[i].setAttribute('class','edge');
    }
  }
}
]]></script>
        <defs>
                <circle id="rim" cx="0" cy="0" r="7"/>
                <circle id="rim2" cx="0" cy="0" r="3.5"/>
                <g id="zoomPlus">
                        <use xlink:href="#rim" fill="#404040">
                                <set attributeName="fill" to="#808080" begin="zoomplus.mouseover" end="zoomplus.mouseout"/>
                        </use>
                        <path d="M-4,0h8M0,-4v8" fill="none" stroke="white" stroke-width="1.5" pointer-events="none"/>
                </g>
                <g id="zoomMin">
                        <use xlink:href="#rim" fill="#404040">
                                <set attributeName="fill" to="#808080" begin="zoomminus.mouseover" end="zoomminus.mouseout"/>
                        </use>
                        <path d="M-4,0h8" fill="none" stroke="white" stroke-width="1.5" pointer-events="none"/>
                </g>
                <g id="dirArrow">
                        <path fill="none" stroke="white" stroke-width="1.5" d="M0,-3.0v7 M-2.5,-0.5L0,-3.0L2.5,-0.5"/>
                </g>
               <g id="resetDef">
                       <use xlink:href="#rim2" fill="#404040">
                               <set attributeName="fill" to="#808080" begin="reset.mouseover" end="reset.mouseout"/>
                       </use>
               </g>
        </defs>

<script type="text/javascript">
var viewWidth = 1056;
var viewHeight = 246;
var sectionId = 'dynsection-0';
</script>
<script xlink:href="svgpan.js"/>
<svg id="graph" class="graph">
<g id="viewport">
<title>HoverRace::Display::ClickRegion</title>
<!-- Node1 -->
<g id="node1" class="node"><title>Node1</title>
<polygon fill="#bfbfbf" stroke="black" points="282,-97.5 282,-127.5 387,-127.5 387,-97.5 282,-97.5"/>
<text text-anchor="start" x="290" y="-115.5" font-family="Helvetica,sans-Serif" font-size="10.00">HoverRace::Display</text>
<text text-anchor="middle" x="334.5" y="-104.5" font-family="Helvetica,sans-Serif" font-size="10.00">::ClickRegion</text>
</g>
<!-- Node4 -->
<g id="node4" class="node"><title>Node4</title>
<g id="a_node4"><a xlink:href="class_hover_race_1_1_display_1_1_button.html" target="_top" xlink:title="A standard button, with a text label. ">
<polygon fill="none" stroke="black" points="423,-122.5 423,-152.5 528,-152.5 528,-122.5 423,-122.5"/>
<text text-anchor="start" x="431" y="-140.5" font-family="Helvetica,sans-Serif" font-size="10.00">HoverRace::Display</text>
<text text-anchor="middle" x="475.5" y="-129.5" font-family="Helvetica,sans-Serif" font-size="10.00">::Button</text>
</a>
</g>
</g>
<!-- Node1&#45;&gt;Node4 -->
<g id="edge3" class="edge"><title>Node1&#45;&gt;Node4</title>
<path fill="none" stroke="midnightblue" d="M397.163,-123.591C405.69,-125.124 414.375,-126.686 422.698,-128.183"/>
<polygon fill="midnightblue" stroke="midnightblue" points="397.72,-120.135 387.258,-121.809 396.481,-127.024 397.72,-120.135"/>
</g>
<!-- Node14 -->
<g id="node14" class="node"><title>Node14</title>
<g id="a_node14"><a xlink:href="class_hover_race_1_1_display_1_1_slider.html" target="_top" xlink:title="A slider for selecting values from a range. ">
<polygon fill="none" stroke="black" points="423,-73.5 423,-103.5 528,-103.5 528,-73.5 423,-73.5"/>
<text text-anchor="start" x="431" y="-91.5" font-family="Helvetica,sans-Serif" font-size="10.00">HoverRace::Display</text>
<text text-anchor="middle" x="475.5" y="-80.5" font-family="Helvetica,sans-Serif" font-size="10.00">::Slider</text>
</a>
</g>
</g>
<!-- Node1&#45;&gt;Node14 -->
<g id="edge13" class="edge"><title>Node1&#45;&gt;Node14</title>
<path fill="none" stroke="midnightblue" d="M397.163,-101.853C405.69,-100.381 414.375,-98.8812 422.698,-97.4442"/>
<polygon fill="midnightblue" stroke="midnightblue" points="396.517,-98.4128 387.258,-103.563 397.708,-105.311 396.517,-98.4128"/>
</g>
<!-- Node2 -->
<g id="node2" class="node"><title>Node2</title>
<g id="a_node2"><a xlink:href="class_hover_race_1_1_display_1_1_ui_view_model.html" target="_top" xlink:title="Base class for UI (2D) components. ">
<polygon fill="none" stroke="black" points="141,-97.5 141,-127.5 246,-127.5 246,-97.5 141,-97.5"/>
<text text-anchor="start" x="149" y="-115.5" font-family="Helvetica,sans-Serif" font-size="10.00">HoverRace::Display</text>
<text text-anchor="middle" x="193.5" y="-104.5" font-family="Helvetica,sans-Serif" font-size="10.00">::UiViewModel</text>
</a>
</g>
</g>
<!-- Node2&#45;&gt;Node1 -->
<g id="edge1" class="edge"><title>Node2&#45;&gt;Node1</title>
<path fill="none" stroke="midnightblue" d="M256.441,-112.5C264.878,-112.5 273.466,-112.5 281.698,-112.5"/>
<polygon fill="midnightblue" stroke="midnightblue" points="256.259,-109 246.258,-112.5 256.258,-116 256.259,-109"/>
</g>
<!-- Node3 -->
<g id="node3" class="node"><title>Node3</title>
<g id="a_node3"><a xlink:href="class_hover_race_1_1_display_1_1_view_model.html" target="_top" xlink:title="Base class for renderable components. ">
<polygon fill="none" stroke="black" points="0,-97.5 0,-127.5 105,-127.5 105,-97.5 0,-97.5"/>
<text text-anchor="start" x="8" y="-115.5" font-family="Helvetica,sans-Serif" font-size="10.00">HoverRace::Display</text>
<text text-anchor="middle" x="52.5" y="-104.5" font-family="Helvetica,sans-Serif" font-size="10.00">::ViewModel</text>
</a>
</g>
</g>
<!-- Node3&#45;&gt;Node2 -->
<g id="edge2" class="edge"><title>Node3&#45;&gt;Node2</title>
<path fill="none" stroke="midnightblue" d="M115.441,-112.5C123.878,-112.5 132.466,-112.5 140.698,-112.5"/>
<polygon fill="midnightblue" stroke="midnightblue" points="115.259,-109 105.258,-112.5 115.258,-116 115.259,-109"/>
</g>
<!-- Node5 -->
<g id="node5" class="node"><title>Node5</title>
<g id="a_node5"><a xlink:href="class_hover_race_1_1_client_1_1_settings_menu_scene_1_1_menu_item_button.html" target="_top" xlink:title="HoverRace::Client::\lSettingsMenuScene::MenuItem\lButton\&lt; T \&gt;">
<polygon fill="none" stroke="black" points="571,-196 571,-237 725,-237 725,-196 571,-196"/>
<text text-anchor="start" x="579" y="-225" font-family="Helvetica,sans-Serif" font-size="10.00">HoverRace::Client::</text>
<text text-anchor="start" x="579" y="-214" font-family="Helvetica,sans-Serif" font-size="10.00">SettingsMenuScene::MenuItem</text>
<text text-anchor="middle" x="648" y="-203" font-family="Helvetica,sans-Serif" font-size="10.00">Button&lt; T &gt;</text>
</a>
</g>
</g>
<!-- Node4&#45;&gt;Node5 -->
<g id="edge4" class="edge"><title>Node4&#45;&gt;Node5</title>
<path fill="none" stroke="midnightblue" d="M508.592,-157.721C524.826,-167.46 545.059,-178.867 564,-187.5 570.389,-190.412 577.162,-193.214 583.974,-195.851"/>
<polygon fill="midnightblue" stroke="midnightblue" points="510.381,-154.713 500.018,-152.511 506.746,-160.695 510.381,-154.713"/>
</g>
<!-- Node6 -->
<g id="node6" class="node"><title>Node6</title>
<g id="a_node6"><a xlink:href="class_hover_race_1_1_client_1_1_test_lab_scene_1_1_module_button_base.html" target="_top" xlink:title="HoverRace::Client::\lTestLabScene::ModuleButtonBase">
<polygon fill="none" stroke="black" points="564,-147.5 564,-177.5 732,-177.5 732,-147.5 564,-147.5"/>
<text text-anchor="start" x="572" y="-165.5" font-family="Helvetica,sans-Serif" font-size="10.00">HoverRace::Client::</text>
<text text-anchor="middle" x="648" y="-154.5" font-family="Helvetica,sans-Serif" font-size="10.00">TestLabScene::ModuleButtonBase</text>
</a>
</g>
</g>
<!-- Node4&#45;&gt;Node6 -->
<g id="edge5" class="edge"><title>Node4&#45;&gt;Node6</title>
<path fill="none" stroke="midnightblue" d="M538.103,-146.533C546.442,-147.755 555.108,-149.026 563.747,-150.293"/>
<polygon fill="midnightblue" stroke="midnightblue" points="538.52,-143.057 528.118,-145.069 537.505,-149.982 538.52,-143.057"/>
</g>
<!-- Node7 -->
<g id="node7" class="node"><title>Node7</title>
<g id="a_node7"><a xlink:href="class_hover_race_1_1_display_1_1_action_button.html" target="_top" xlink:title="A button that&#39;s bound to a controller action. ">
<polygon fill="none" stroke="black" points="595.5,-98.5 595.5,-128.5 700.5,-128.5 700.5,-98.5 595.5,-98.5"/>
<text text-anchor="start" x="603.5" y="-116.5" font-family="Helvetica,sans-Serif" font-size="10.00">HoverRace::Display</text>
<text text-anchor="middle" x="648" y="-105.5" font-family="Helvetica,sans-Serif" font-size="10.00">::ActionButton</text>
</a>
</g>
</g>
<!-- Node4&#45;&gt;Node7 -->
<g id="edge6" class="edge"><title>Node4&#45;&gt;Node7</title>
<path fill="none" stroke="midnightblue" d="M538.047,-128.837C556.804,-126.196 577.224,-123.322 595.263,-120.783"/>
<polygon fill="midnightblue" stroke="midnightblue" points="537.533,-125.374 528.118,-130.234 538.509,-132.306 537.533,-125.374"/>
</g>
<!-- Node8 -->
<g id="node8" class="node"><title>Node8</title>
<g id="a_node8"><a xlink:href="class_hover_race_1_1_display_1_1_state_button.html" target="_top" xlink:title="Base class for buttons with state (i.e. ">
<polygon fill="none" stroke="black" points="595.5,-49.5 595.5,-79.5 700.5,-79.5 700.5,-49.5 595.5,-49.5"/>
<text text-anchor="start" x="603.5" y="-67.5" font-family="Helvetica,sans-Serif" font-size="10.00">HoverRace::Display</text>
<text text-anchor="middle" x="648" y="-56.5" font-family="Helvetica,sans-Serif" font-size="10.00">::StateButton</text>
</a>
</g>
</g>
<!-- Node4&#45;&gt;Node8 -->
<g id="edge7" class="edge"><title>Node4&#45;&gt;Node8</title>
<path fill="none" stroke="midnightblue" d="M518.467,-117.722C521.721,-116.008 524.931,-114.257 528,-112.5 544.688,-102.946 546.559,-96.599 564,-88.5 573.795,-83.9513 584.646,-80.0628 595.184,-76.823"/>
<polygon fill="midnightblue" stroke="midnightblue" points="516.578,-114.757 509.266,-122.424 519.763,-120.99 516.578,-114.757"/>
</g>
<!-- Node9 -->
<g id="node9" class="node"><title>Node9</title>
<g id="a_node9"><a xlink:href="class_hover_race_1_1_display_1_1_base_radio_button.html" target="_top" xlink:title="Base class for radio buttons. ">
<polygon fill="none" stroke="black" points="768,-98.5 768,-128.5 873,-128.5 873,-98.5 768,-98.5"/>
<text text-anchor="start" x="776" y="-116.5" font-family="Helvetica,sans-Serif" font-size="10.00">HoverRace::Display</text>
<text text-anchor="middle" x="820.5" y="-105.5" font-family="Helvetica,sans-Serif" font-size="10.00">::BaseRadioButton</text>
</a>
</g>
</g>
<!-- Node8&#45;&gt;Node9 -->
<g id="edge8" class="edge"><title>Node8&#45;&gt;Node9</title>
<path fill="none" stroke="midnightblue" d="M710.288,-82.1135C729.116,-87.5245 749.641,-93.4232 767.763,-98.6313"/>
<polygon fill="midnightblue" stroke="midnightblue" points="711.196,-78.7329 700.618,-79.3346 709.263,-85.4606 711.196,-78.7329"/>
</g>
<!-- Node11 -->
<g id="node11" class="node"><title>Node11</title>
<g id="a_node11"><a xlink:href="class_hover_race_1_1_display_1_1_checkbox.html" target="_top" xlink:title="A checkbox widget. ">
<polygon fill="none" stroke="black" points="768,-49.5 768,-79.5 873,-79.5 873,-49.5 768,-49.5"/>
<text text-anchor="start" x="776" y="-67.5" font-family="Helvetica,sans-Serif" font-size="10.00">HoverRace::Display</text>
<text text-anchor="middle" x="820.5" y="-56.5" font-family="Helvetica,sans-Serif" font-size="10.00">::Checkbox</text>
</a>
</g>
</g>
<!-- Node8&#45;&gt;Node11 -->
<g id="edge10" class="edge"><title>Node8&#45;&gt;Node11</title>
<path fill="none" stroke="midnightblue" d="M710.806,-64.5C729.492,-64.5 749.807,-64.5 767.763,-64.5"/>
<polygon fill="midnightblue" stroke="midnightblue" points="710.618,-61.0001 700.618,-64.5 710.618,-68.0001 710.618,-61.0001"/>
</g>
<!-- Node12 -->
<g id="node12" class="node"><title>Node12</title>
<g id="a_node12"><a xlink:href="class_hover_race_1_1_display_1_1_pick_list_item.html" target="_top" xlink:title="A single list item. ">
<polygon fill="none" stroke="black" points="768,-0.5 768,-30.5 873,-30.5 873,-0.5 768,-0.5"/>
<text text-anchor="start" x="776" y="-18.5" font-family="Helvetica,sans-Serif" font-size="10.00">HoverRace::Display</text>
<text text-anchor="middle" x="820.5" y="-7.5" font-family="Helvetica,sans-Serif" font-size="10.00">::PickListItem</text>
</a>
</g>
</g>
<!-- Node8&#45;&gt;Node12 -->
<g id="edge11" class="edge"><title>Node8&#45;&gt;Node12</title>
<path fill="none" stroke="midnightblue" d="M710.288,-46.8865C729.116,-41.4755 749.641,-35.5768 767.763,-30.3687"/>
<polygon fill="midnightblue" stroke="midnightblue" points="709.263,-43.5394 700.618,-49.6654 711.196,-50.2671 709.263,-43.5394"/>
</g>
<!-- Node10 -->
<g id="node10" class="node"><title>Node10</title>
<g id="a_node10"><a xlink:href="class_hover_race_1_1_display_1_1_radio_button.html" target="_top" xlink:title="A single radio button. ">
<polygon fill="none" stroke="black" points="926,-98.5 926,-128.5 1031,-128.5 1031,-98.5 926,-98.5"/>
<text text-anchor="start" x="934" y="-116.5" font-family="Helvetica,sans-Serif" font-size="10.00">HoverRace::Display</text>
<text text-anchor="middle" x="978.5" y="-105.5" font-family="Helvetica,sans-Serif" font-size="10.00">::RadioButton&lt; T &gt;</text>
</a>
</g>
</g>
<!-- Node9&#45;&gt;Node10 -->
<g id="edge9" class="edge"><title>Node9&#45;&gt;Node10</title>
<path fill="none" stroke="midnightblue" d="M883.133,-113.5C897.253,-113.5 912.122,-113.5 925.775,-113.5"/>
<polygon fill="midnightblue" stroke="midnightblue" points="883.013,-110 873.013,-113.5 883.013,-117 883.013,-110"/>
</g>
<!-- Node13 -->
<g id="node13" class="node"><title>Node13</title>
<g id="a_node13"><a xlink:href="class_hover_race_1_1_display_1_1_pick_list_1_1_default_item.html" target="_top" xlink:title="HoverRace::Display\l::PickList\&lt; T \&gt;::DefaultItem">
<polygon fill="none" stroke="black" points="909,-0.5 909,-30.5 1048,-30.5 1048,-0.5 909,-0.5"/>
<text text-anchor="start" x="917" y="-18.5" font-family="Helvetica,sans-Serif" font-size="10.00">HoverRace::Display</text>
<text text-anchor="middle" x="978.5" y="-7.5" font-family="Helvetica,sans-Serif" font-size="10.00">::PickList&lt; T &gt;::DefaultItem</text>
</a>
</g>
</g>
<!-- Node12&#45;&gt;Node13 -->
<g id="edge12" class="edge"><title>Node12&#45;&gt;Node13</title>
<path fill="none" stroke="midnightblue" d="M883.129,-15.5C891.554,-15.5 900.247,-15.5 908.788,-15.5"/>
<polygon fill="midnightblue" stroke="midnightblue" points="883.013,-12.0001 873.013,-15.5 883.013,-19.0001 883.013,-12.0001"/>
</g>
</g>
</svg>
        <g id="navigator" transform="translate(0 0)" fill="#404254">
                <rect fill="#f2f5e9" fill-opacity="0.5" stroke="#606060" stroke-width=".5" x="0" y="0" width="60" height="60"/>
                <use id="zoomplus" xlink:href="#zoomPlus" x="17" y="9" onmousedown="handleZoom(evt,'in')"/>
                <use id="zoomminus" xlink:href="#zoomMin" x="42" y="9" onmousedown="handleZoom(evt,'out')"/>
                <use id="reset" xlink:href="#resetDef" x="30" y="36" onmousedown="handleReset()"/>
                <g id="arrowUp" xlink:href="#dirArrow" transform="translate(30 24)" onmousedown="handlePan(0,-1)">
                  <use xlink:href="#rim" fill="#404040">
                        <set attributeName="fill" to="#808080" begin="arrowUp.mouseover" end="arrowUp.mouseout"/>
                  </use>
                  <path fill="none" stroke="white" stroke-width="1.5" d="M0,-3.0v7 M-2.5,-0.5L0,-3.0L2.5,-0.5"/>
                </g>
                <g id="arrowRight" xlink:href="#dirArrow" transform="rotate(90) translate(36 -43)" onmousedown="handlePan(1,0)">
                  <use xlink:href="#rim" fill="#404040">
                        <set attributeName="fill" to="#808080" begin="arrowRight.mouseover" end="arrowRight.mouseout"/>
                  </use>
                  <path fill="none" stroke="white" stroke-width="1.5" d="M0,-3.0v7 M-2.5,-0.5L0,-3.0L2.5,-0.5"/>
                </g>
                <g id="arrowDown" xlink:href="#dirArrow" transform="rotate(180) translate(-30 -48)" onmousedown="handlePan(0,1)">
                  <use xlink:href="#rim" fill="#404040">
                        <set attributeName="fill" to="#808080" begin="arrowDown.mouseover" end="arrowDown.mouseout"/>
                  </use>
                  <path fill="none" stroke="white" stroke-width="1.5" d="M0,-3.0v7 M-2.5,-0.5L0,-3.0L2.5,-0.5"/>
                </g>
                <g id="arrowLeft" xlink:href="#dirArrow" transform="rotate(270) translate(-36 17)" onmousedown="handlePan(-1,0)">
                  <use xlink:href="#rim" fill="#404040">
                        <set attributeName="fill" to="#808080" begin="arrowLeft.mouseover" end="arrowLeft.mouseout"/>
                  </use>
                  <path fill="none" stroke="white" stroke-width="1.5" d="M0,-3.0v7 M-2.5,-0.5L0,-3.0L2.5,-0.5"/>
                </g>
        </g>
        <svg viewBox="0 0 15 15" width="100%" height="30px" preserveAspectRatio="xMaxYMin meet">
         <g id="arrow_out" transform="scale(0.3 0.3)">
          <a xlink:href="class_hover_race_1_1_display_1_1_click_region__inherit__graph_org.svg" target="_base">
           <rect id="button" ry="5" rx="5" y="6" x="6" height="38" width="38"
                fill="#f2f5e9" fill-opacity="0.5" stroke="#606060" stroke-width="1.0"/>
           <path id="arrow"
             d="M 11.500037,31.436501 C 11.940474,20.09759 22.043105,11.32322 32.158766,21.979434 L 37.068811,17.246167 C 37.068811,17.246167 37.088388,32 37.088388,32 L 22.160133,31.978069 C 22.160133,31.978069 26.997745,27.140456 26.997745,27.140456 C 18.528582,18.264221 13.291696,25.230495 11.500037,31.436501 z"
             style="fill:#404040;"/>
          </a>
         </g>
        </svg>
</svg>
