<?xml version="1.0" encoding="UTF-8" standalone="no"?>
<!DOCTYPE svg PUBLIC "-//W3C//DTD SVG 1.1//EN"
 "http://www.w3.org/Graphics/SVG/1.1/DTD/svg11.dtd">
<!-- Generated by graphviz version 2.26.3 (20100126.1600)
 -->
<!-- Title: HoverRace::Display::ViewModel Pages: 1 -->
<svg width="750pt" height="446pt"
 viewBox="0.00 0.00 750.00 446.00" xmlns="http://www.w3.org/2000/svg" xmlns:xlink="http://www.w3.org/1999/xlink">
<g id="graph1" class="graph" transform="scale(1 1) rotate(0) translate(4 442)">
<title>HoverRace::Display::ViewModel</title>
<!-- Node1 -->
<g id="node1" class="node"><title>Node1</title>
<polygon fill="#bfbfbf" stroke="black" points="0.5,-225 0.5,-257 101.5,-257 101.5,-225 0.5,-225"/>
<text text-anchor="start" x="8.5" y="-244" font-family="FreeSans" font-size="10.00">HoverRace::Display</text>
<text text-anchor="middle" x="51" y="-232" font-family="FreeSans" font-size="10.00">::ViewModel</text>
</g>
<!-- Node2 -->
<g id="node3" class="node"><title>Node2</title>
<a xlink:href="class_hover_race_1_1_display_1_1_background.html" target="_top" xlink:title="Base class for views that fill the entire screen. ">
<polygon fill="none" stroke="black" points="138.5,-300 138.5,-332 239.5,-332 239.5,-300 138.5,-300"/>
<text text-anchor="start" x="146.5" y="-319" font-family="FreeSans" font-size="10.00">HoverRace::Display</text>
<text text-anchor="middle" x="189" y="-307" font-family="FreeSans" font-size="10.00">::Background</text>
</a>
</g>
<!-- Node1&#45;&gt;Node2 -->
<g id="edge2" class="edge"><title>Node1&#45;&gt;Node2</title>
<path fill="none" stroke="midnightblue" d="M89.4271,-261.884C111.575,-273.921 138.991,-288.821 159.444,-299.937"/>
<polygon fill="midnightblue" stroke="midnightblue" points="91.062,-258.789 80.6045,-257.089 87.7194,-264.94 91.062,-258.789"/>
</g>
<!-- Node5 -->
<g id="node9" class="node"><title>Node5</title>
<a xlink:href="class_hover_race_1_1_display_1_1_ui_view_model.html" target="_top" xlink:title="Base class for UI (2D) components. ">
<polygon fill="none" stroke="black" points="138.5,-150 138.5,-182 239.5,-182 239.5,-150 138.5,-150"/>
<text text-anchor="start" x="146.5" y="-169" font-family="FreeSans" font-size="10.00">HoverRace::Display</text>
<text text-anchor="middle" x="189" y="-157" font-family="FreeSans" font-size="10.00">::UiViewModel</text>
</a>
</g>
<!-- Node1&#45;&gt;Node5 -->
<g id="edge8" class="edge"><title>Node1&#45;&gt;Node5</title>
<path fill="none" stroke="midnightblue" d="M89.4271,-220.116C111.575,-208.079 138.991,-193.179 159.444,-182.063"/>
<polygon fill="midnightblue" stroke="midnightblue" points="87.7194,-217.06 80.6045,-224.911 91.062,-223.211 87.7194,-217.06"/>
</g>
<!-- Node3 -->
<g id="node5" class="node"><title>Node3</title>
<a xlink:href="class_hover_race_1_1_display_1_1_screen_fade.html" target="_top" xlink:title="Paints a solid color over the whole screen with adjustable opacity. ">
<polygon fill="none" stroke="black" points="276.5,-350 276.5,-382 377.5,-382 377.5,-350 276.5,-350"/>
<text text-anchor="start" x="284.5" y="-369" font-family="FreeSans" font-size="10.00">HoverRace::Display</text>
<text text-anchor="middle" x="327" y="-357" font-family="FreeSans" font-size="10.00">::ScreenFade</text>
</a>
</g>
<!-- Node2&#45;&gt;Node3 -->
<g id="edge4" class="edge"><title>Node2&#45;&gt;Node3</title>
<path fill="none" stroke="midnightblue" d="M242.853,-335.512C256.031,-340.287 269.984,-345.342 282.66,-349.935"/>
<polygon fill="midnightblue" stroke="midnightblue" points="244.018,-332.211 233.424,-332.096 241.633,-338.793 244.018,-332.211"/>
</g>
<!-- Node4 -->
<g id="node7" class="node"><title>Node4</title>
<a xlink:href="class_hover_race_1_1_display_1_1_wallpaper.html" target="_top" xlink:title="Paints a texture across the entire screen. ">
<polygon fill="none" stroke="black" points="276.5,-300 276.5,-332 377.5,-332 377.5,-300 276.5,-300"/>
<text text-anchor="start" x="284.5" y="-319" font-family="FreeSans" font-size="10.00">HoverRace::Display</text>
<text text-anchor="middle" x="327" y="-307" font-family="FreeSans" font-size="10.00">::Wallpaper</text>
</a>
</g>
<!-- Node2&#45;&gt;Node4 -->
<g id="edge6" class="edge"><title>Node2&#45;&gt;Node4</title>
<path fill="none" stroke="midnightblue" d="M249.882,-316C258.74,-316 267.779,-316 276.404,-316"/>
<polygon fill="midnightblue" stroke="midnightblue" points="249.603,-312.5 239.603,-316 249.602,-319.5 249.603,-312.5"/>
</g>
<!-- Node6 -->
<g id="node11" class="node"><title>Node6</title>
<a xlink:href="class_hover_race_1_1_display_1_1_click_region.html" target="_top" xlink:title="Base class for clickable areas. ">
<polygon fill="none" stroke="black" points="276.5,-250 276.5,-282 377.5,-282 377.5,-250 276.5,-250"/>
<text text-anchor="start" x="284.5" y="-269" font-family="FreeSans" font-size="10.00">HoverRace::Display</text>
<text text-anchor="middle" x="327" y="-257" font-family="FreeSans" font-size="10.00">::ClickRegion</text>
</a>
</g>
<!-- Node5&#45;&gt;Node6 -->
<g id="edge10" class="edge"><title>Node5&#45;&gt;Node6</title>
<path fill="none" stroke="midnightblue" d="M212.644,-189.325C229.426,-205.119 252.976,-225.796 276,-241 280.773,-244.152 286,-247.158 291.232,-249.924"/>
<polygon fill="midnightblue" stroke="midnightblue" points="214.632,-186.384 204.982,-182.01 209.798,-191.447 214.632,-186.384"/>
</g>
<!-- Node11 -->
<g id="node21" class="node"><title>Node11</title>
<a xlink:href="class_hover_race_1_1_display_1_1_container.html" target="_top" xlink:title="An invisible container for other UI widgets. ">
<polygon fill="none" stroke="black" points="276.5,-200 276.5,-232 377.5,-232 377.5,-200 276.5,-200"/>
<text text-anchor="start" x="284.5" y="-219" font-family="FreeSans" font-size="10.00">HoverRace::Display</text>
<text text-anchor="middle" x="327" y="-207" font-family="FreeSans" font-size="10.00">::Container</text>
</a>
</g>
<!-- Node5&#45;&gt;Node11 -->
<g id="edge20" class="edge"><title>Node5&#45;&gt;Node11</title>
<path fill="none" stroke="midnightblue" d="M242.853,-185.512C256.031,-190.287 269.984,-195.342 282.66,-199.935"/>
<polygon fill="midnightblue" stroke="midnightblue" points="244.018,-182.211 233.424,-182.096 241.633,-188.793 244.018,-182.211"/>
</g>
<!-- Node21 -->
<g id="node41" class="node"><title>Node21</title>
<a xlink:href="class_hover_race_1_1_display_1_1_fill_box.html" target="_top" xlink:title="A colored rectangle, that&#39;s all. ">
<polygon fill="none" stroke="black" points="276.5,-150 276.5,-182 377.5,-182 377.5,-150 276.5,-150"/>
<text text-anchor="start" x="284.5" y="-169" font-family="FreeSans" font-size="10.00">HoverRace::Display</text>
<text text-anchor="middle" x="327" y="-157" font-family="FreeSans" font-size="10.00">::FillBox</text>
</a>
</g>
<!-- Node5&#45;&gt;Node21 -->
<g id="edge40" class="edge"><title>Node5&#45;&gt;Node21</title>
<path fill="none" stroke="midnightblue" d="M249.882,-166C258.74,-166 267.779,-166 276.404,-166"/>
<polygon fill="midnightblue" stroke="midnightblue" points="249.603,-162.5 239.603,-166 249.602,-169.5 249.603,-162.5"/>
</g>
<!-- Node23 -->
<g id="node45" class="node"><title>Node23</title>
<a xlink:href="class_hover_race_1_1_display_1_1_label.html" target="_top" xlink:title="A static text label. ">
<polygon fill="none" stroke="black" points="276.5,-100 276.5,-132 377.5,-132 377.5,-100 276.5,-100"/>
<text text-anchor="start" x="284.5" y="-119" font-family="FreeSans" font-size="10.00">HoverRace::Display</text>
<text text-anchor="middle" x="327" y="-107" font-family="FreeSans" font-size="10.00">::Label</text>
</a>
</g>
<!-- Node5&#45;&gt;Node23 -->
<g id="edge44" class="edge"><title>Node5&#45;&gt;Node23</title>
<path fill="none" stroke="midnightblue" d="M242.853,-146.488C256.031,-141.713 269.984,-136.658 282.66,-132.065"/>
<polygon fill="midnightblue" stroke="midnightblue" points="241.633,-143.207 233.424,-149.904 244.018,-149.789 241.633,-143.207"/>
</g>
<!-- Node24 -->
<g id="node47" class="node"><title>Node24</title>
<a xlink:href="class_hover_race_1_1_display_1_1_picture.html" target="_top" xlink:title="Draws a single texture. ">
<polygon fill="none" stroke="black" points="276.5,-50 276.5,-82 377.5,-82 377.5,-50 276.5,-50"/>
<text text-anchor="start" x="284.5" y="-69" font-family="FreeSans" font-size="10.00">HoverRace::Display</text>
<text text-anchor="middle" x="327" y="-57" font-family="FreeSans" font-size="10.00">::Picture</text>
</a>
</g>
<!-- Node5&#45;&gt;Node24 -->
<g id="edge46" class="edge"><title>Node5&#45;&gt;Node24</title>
<path fill="none" stroke="midnightblue" d="M212.644,-142.675C229.426,-126.881 252.976,-106.204 276,-91 280.773,-87.8484 286,-84.8417 291.232,-82.0759"/>
<polygon fill="midnightblue" stroke="midnightblue" points="209.798,-140.553 204.982,-149.99 214.632,-145.616 209.798,-140.553"/>
</g>
<!-- Node25 -->
<g id="node49" class="node"><title>Node25</title>
<a xlink:href="class_hover_race_1_1_display_1_1_rule_line.html" target="_top" xlink:title="A horizontal or vertical line. ">
<polygon fill="none" stroke="black" points="276.5,-0 276.5,-32 377.5,-32 377.5,-0 276.5,-0"/>
<text text-anchor="start" x="284.5" y="-19" font-family="FreeSans" font-size="10.00">HoverRace::Display</text>
<text text-anchor="middle" x="327" y="-7" font-family="FreeSans" font-size="10.00">::RuleLine</text>
</a>
</g>
<!-- Node5&#45;&gt;Node25 -->
<g id="edge48" class="edge"><title>Node5&#45;&gt;Node25</title>
<path fill="none" stroke="midnightblue" d="M201.484,-140.859C216.165,-113.386 242.797,-69.497 276,-41 279.816,-37.7247 284.136,-34.7623 288.607,-32.1179"/>
<polygon fill="midnightblue" stroke="midnightblue" points="198.321,-139.355 196.799,-149.84 204.527,-142.593 198.321,-139.355"/>
</g>
<!-- Node7 -->
<g id="node13" class="node"><title>Node7</title>
<a xlink:href="class_hover_race_1_1_display_1_1_button.html" target="_top" xlink:title="A standard button, with a text label. ">
<polygon fill="none" stroke="black" points="425.5,-331 425.5,-363 526.5,-363 526.5,-331 425.5,-331"/>
<text text-anchor="start" x="433.5" y="-350" font-family="FreeSans" font-size="10.00">HoverRace::Display</text>
<text text-anchor="middle" x="476" y="-338" font-family="FreeSans" font-size="10.00">::Button</text>
</a>
</g>
<!-- Node6&#45;&gt;Node7 -->
<g id="edge12" class="edge"><title>Node6&#45;&gt;Node7</title>
<path fill="none" stroke="midnightblue" d="M369.679,-286.671C372.505,-288.117 375.299,-289.568 378,-291 402.239,-303.85 429.275,-319.393 448.801,-330.841"/>
<polygon fill="midnightblue" stroke="midnightblue" points="371.127,-283.482 360.622,-282.106 367.976,-289.732 371.127,-283.482"/>
</g>
<!-- Node8 -->
<g id="node15" class="node"><title>Node8</title>
<a xlink:href="class_hover_race_1_1_client_1_1_test_lab_scene_1_1_module_button_base.html" target="_top" xlink:title="HoverRace::Client::\lTestLabScene::ModuleButtonBase">
<polygon fill="none" stroke="black" points="574.5,-406 574.5,-438 741.5,-438 741.5,-406 574.5,-406"/>
<text text-anchor="start" x="582.5" y="-425" font-family="FreeSans" font-size="10.00">HoverRace::Client::</text>
<text text-anchor="middle" x="658" y="-413" font-family="FreeSans" font-size="10.00">TestLabScene::ModuleButtonBase</text>
</a>
</g>
<!-- Node7&#45;&gt;Node8 -->
<g id="edge14" class="edge"><title>Node7&#45;&gt;Node8</title>
<path fill="none" stroke="midnightblue" d="M513.105,-367.957C531.126,-377.607 553.311,-388.724 574,-397 581.911,-400.165 590.381,-403.141 598.786,-405.86"/>
<polygon fill="midnightblue" stroke="midnightblue" points="514.55,-364.759 504.091,-363.068 511.212,-370.912 514.55,-364.759"/>
</g>
<!-- Node9 -->
<g id="node17" class="node"><title>Node9</title>
<a xlink:href="class_hover_race_1_1_display_1_1_action_button.html" target="_top" xlink:title="A button that&#39;s bound to a controller action. ">
<polygon fill="none" stroke="black" points="607.5,-356 607.5,-388 708.5,-388 708.5,-356 607.5,-356"/>
<text text-anchor="start" x="615.5" y="-375" font-family="FreeSans" font-size="10.00">HoverRace::Display</text>
<text text-anchor="middle" x="658" y="-363" font-family="FreeSans" font-size="10.00">::ActionButton</text>
</a>
</g>
<!-- Node7&#45;&gt;Node9 -->
<g id="edge16" class="edge"><title>Node7&#45;&gt;Node9</title>
<path fill="none" stroke="midnightblue" d="M536.653,-355.331C559.556,-358.478 585.357,-362.022 607.259,-365.03"/>
<polygon fill="midnightblue" stroke="midnightblue" points="537.08,-351.857 526.697,-353.964 536.128,-358.792 537.08,-351.857"/>
</g>
<!-- Node10 -->
<g id="node19" class="node"><title>Node10</title>
<a xlink:href="class_hover_race_1_1_display_1_1_checkbox.html" target="_top" xlink:title="A checkbox widget. ">
<polygon fill="none" stroke="black" points="607.5,-306 607.5,-338 708.5,-338 708.5,-306 607.5,-306"/>
<text text-anchor="start" x="615.5" y="-325" font-family="FreeSans" font-size="10.00">HoverRace::Display</text>
<text text-anchor="middle" x="658" y="-313" font-family="FreeSans" font-size="10.00">::Checkbox</text>
</a>
</g>
<!-- Node7&#45;&gt;Node10 -->
<g id="edge18" class="edge"><title>Node7&#45;&gt;Node10</title>
<path fill="none" stroke="midnightblue" d="M536.653,-338.669C559.556,-335.522 585.357,-331.978 607.259,-328.97"/>
<polygon fill="midnightblue" stroke="midnightblue" points="536.128,-335.208 526.697,-340.036 537.08,-342.143 536.128,-335.208"/>
</g>
<!-- Node12 -->
<g id="node23" class="node"><title>Node12</title>
<a xlink:href="class_hover_race_1_1_display_1_1_flex_grid.html" target="_top" xlink:title="A container that arranges components into a grid that is automatically sized to the contents...">
<polygon fill="none" stroke="black" points="425.5,-244 425.5,-276 526.5,-276 526.5,-244 425.5,-244"/>
<text text-anchor="start" x="433.5" y="-263" font-family="FreeSans" font-size="10.00">HoverRace::Display</text>
<text text-anchor="middle" x="476" y="-251" font-family="FreeSans" font-size="10.00">::FlexGrid</text>
</a>
</g>
<!-- Node11&#45;&gt;Node12 -->
<g id="edge22" class="edge"><title>Node11&#45;&gt;Node12</title>
<path fill="none" stroke="midnightblue" d="M387.741,-233.937C400.24,-237.628 413.273,-241.477 425.369,-245.048"/>
<polygon fill="midnightblue" stroke="midnightblue" points="388.442,-230.495 377.861,-231.019 386.46,-237.208 388.442,-230.495"/>
</g>
<!-- Node13 -->
<g id="node25" class="node"><title>Node13</title>
<a xlink:href="class_hover_race_1_1_display_1_1_hud.html" target="_top" xlink:title="The container for the heads&#45;up display. ">
<polygon fill="none" stroke="black" points="414,-206 414,-226 538,-226 538,-206 414,-206"/>
<text text-anchor="middle" x="476" y="-213" font-family="FreeSans" font-size="10.00">HoverRace::Display::Hud</text>
</a>
</g>
<!-- Node11&#45;&gt;Node13 -->
<g id="edge24" class="edge"><title>Node11&#45;&gt;Node13</title>
<path fill="none" stroke="midnightblue" d="M388.058,-216C396.54,-216 405.263,-216 413.767,-216"/>
<polygon fill="midnightblue" stroke="midnightblue" points="387.861,-212.5 377.861,-216 387.861,-219.5 387.861,-212.5"/>
</g>
<!-- Node14 -->
<g id="node27" class="node"><title>Node14</title>
<a xlink:href="class_hover_race_1_1_display_1_1_hud_decor.html" target="_top" xlink:title="Base view model for elements of the heads&#45;up display. ">
<polygon fill="none" stroke="black" points="425.5,-156 425.5,-188 526.5,-188 526.5,-156 425.5,-156"/>
<text text-anchor="start" x="433.5" y="-175" font-family="FreeSans" font-size="10.00">HoverRace::Display</text>
<text text-anchor="middle" x="476" y="-163" font-family="FreeSans" font-size="10.00">::HudDecor</text>
</a>
</g>
<!-- Node11&#45;&gt;Node14 -->
<g id="edge26" class="edge"><title>Node11&#45;&gt;Node14</title>
<path fill="none" stroke="midnightblue" d="M387.741,-198.063C400.24,-194.372 413.273,-190.523 425.369,-186.952"/>
<polygon fill="midnightblue" stroke="midnightblue" points="386.46,-194.792 377.861,-200.981 388.442,-201.505 386.46,-194.792"/>
</g>
<!-- Node15 -->
<g id="node29" class="node"><title>Node15</title>
<a xlink:href="class_hover_race_1_1_display_1_1_chronometer.html" target="_top" xlink:title="Display the current game time. ">
<polygon fill="none" stroke="black" points="607.5,-256 607.5,-288 708.5,-288 708.5,-256 607.5,-256"/>
<text text-anchor="start" x="615.5" y="-275" font-family="FreeSans" font-size="10.00">HoverRace::Display</text>
<text text-anchor="middle" x="658" y="-263" font-family="FreeSans" font-size="10.00">::Chronometer</text>
</a>
</g>
<!-- Node14&#45;&gt;Node15 -->
<g id="edge28" class="edge"><title>Node14&#45;&gt;Node15</title>
<path fill="none" stroke="midnightblue" d="M532.972,-193.377C534.708,-194.531 536.39,-195.738 538,-197 559.548,-213.898 551.682,-231.134 574,-247 583.797,-253.965 595.546,-259.012 607.111,-262.661"/>
<polygon fill="midnightblue" stroke="midnightblue" points="534.309,-190.103 523.915,-188.051 530.76,-196.137 534.309,-190.103"/>
</g>
<!-- Node16 -->
<g id="node31" class="node"><title>Node16</title>
<a xlink:href="class_hover_race_1_1_display_1_1_counter.html" target="_top" xlink:title="HUD lap / score / whatever counter. ">
<polygon fill="none" stroke="black" points="607.5,-206 607.5,-238 708.5,-238 708.5,-206 607.5,-206"/>
<text text-anchor="start" x="615.5" y="-225" font-family="FreeSans" font-size="10.00">HoverRace::Display</text>
<text text-anchor="middle" x="658" y="-213" font-family="FreeSans" font-size="10.00">::Counter</text>
</a>
</g>
<!-- Node14&#45;&gt;Node16 -->
<g id="edge30" class="edge"><title>Node14&#45;&gt;Node16</title>
<path fill="none" stroke="midnightblue" d="M536.345,-188.578C559.325,-194.891 585.258,-202.016 607.259,-208.06"/>
<polygon fill="midnightblue" stroke="midnightblue" points="537.267,-185.202 526.697,-185.928 535.413,-191.952 537.267,-185.202"/>
</g>
<!-- Node17 -->
<g id="node33" class="node"><title>Node17</title>
<a xlink:href="class_hover_race_1_1_display_1_1_fuel_gauge.html" target="_top" xlink:title="HUD fuel level indicator. ">
<polygon fill="none" stroke="black" points="607.5,-156 607.5,-188 708.5,-188 708.5,-156 607.5,-156"/>
<text text-anchor="start" x="615.5" y="-175" font-family="FreeSans" font-size="10.00">HoverRace::Display</text>
<text text-anchor="middle" x="658" y="-163" font-family="FreeSans" font-size="10.00">::FuelGauge</text>
</a>
</g>
<!-- Node14&#45;&gt;Node17 -->
<g id="edge32" class="edge"><title>Node14&#45;&gt;Node17</title>
<path fill="none" stroke="midnightblue" d="M536.961,-172C559.788,-172 585.455,-172 607.259,-172"/>
<polygon fill="midnightblue" stroke="midnightblue" points="536.697,-168.5 526.697,-172 536.697,-175.5 536.697,-168.5"/>
</g>
<!-- Node18 -->
<g id="node35" class="node"><title>Node18</title>
<a xlink:href="class_hover_race_1_1_display_1_1_hud_text.html" target="_top" xlink:title="Arbitrary text on the HUD. ">
<polygon fill="none" stroke="black" points="607.5,-106 607.5,-138 708.5,-138 708.5,-106 607.5,-106"/>
<text text-anchor="start" x="615.5" y="-125" font-family="FreeSans" font-size="10.00">HoverRace::Display</text>
<text text-anchor="middle" x="658" y="-113" font-family="FreeSans" font-size="10.00">::HudText</text>
</a>
</g>
<!-- Node14&#45;&gt;Node18 -->
<g id="edge34" class="edge"><title>Node14&#45;&gt;Node18</title>
<path fill="none" stroke="midnightblue" d="M536.345,-155.422C559.325,-149.109 585.258,-141.984 607.259,-135.94"/>
<polygon fill="midnightblue" stroke="midnightblue" points="535.413,-152.048 526.697,-158.072 537.267,-158.798 535.413,-152.048"/>
</g>
<!-- Node19 -->
<g id="node37" class="node"><title>Node19</title>
<a xlink:href="class_hover_race_1_1_display_1_1_minimap.html" target="_top" xlink:title="A miniature map of the track for the HUD. ">
<polygon fill="none" stroke="black" points="607.5,-56 607.5,-88 708.5,-88 708.5,-56 607.5,-56"/>
<text text-anchor="start" x="615.5" y="-75" font-family="FreeSans" font-size="10.00">HoverRace::Display</text>
<text text-anchor="middle" x="658" y="-63" font-family="FreeSans" font-size="10.00">::Minimap</text>
</a>
</g>
<!-- Node14&#45;&gt;Node19 -->
<g id="edge36" class="edge"><title>Node14&#45;&gt;Node19</title>
<path fill="none" stroke="midnightblue" d="M532.972,-150.623C534.708,-149.469 536.39,-148.262 538,-147 559.548,-130.102 551.682,-112.866 574,-97 583.797,-90.0352 595.546,-84.9882 607.111,-81.3387"/>
<polygon fill="midnightblue" stroke="midnightblue" points="530.76,-147.863 523.915,-155.949 534.309,-153.897 530.76,-147.863"/>
</g>
<!-- Node20 -->
<g id="node39" class="node"><title>Node20</title>
<a xlink:href="class_hover_race_1_1_display_1_1_speedometer.html" target="_top" xlink:title="HUD velocity indicator. ">
<polygon fill="none" stroke="black" points="607.5,-6 607.5,-38 708.5,-38 708.5,-6 607.5,-6"/>
<text text-anchor="start" x="615.5" y="-25" font-family="FreeSans" font-size="10.00">HoverRace::Display</text>
<text text-anchor="middle" x="658" y="-13" font-family="FreeSans" font-size="10.00">::Speedometer</text>
</a>
</g>
<!-- Node14&#45;&gt;Node20 -->
<g id="edge38" class="edge"><title>Node14&#45;&gt;Node20</title>
<path fill="none" stroke="midnightblue" d="M535.094,-149.785C536.101,-148.892 537.072,-147.964 538,-147 570.765,-112.974 539.672,-79.4483 574,-47 583.178,-38.3249 595.234,-32.6471 607.338,-28.9349"/>
<polygon fill="midnightblue" stroke="midnightblue" points="532.701,-147.203 526.754,-155.971 536.871,-152.825 532.701,-147.203"/>
</g>
<!-- Node22 -->
<g id="node43" class="node"><title>Node22</title>
<a xlink:href="class_hover_race_1_1_display_1_1_symbol_icon.html" target="_top" xlink:title="One of the predefined icons from the symbol font. ">
<polygon fill="none" stroke="black" points="425.5,-106 425.5,-138 526.5,-138 526.5,-106 425.5,-106"/>
<text text-anchor="start" x="433.5" y="-125" font-family="FreeSans" font-size="10.00">HoverRace::Display</text>
<text text-anchor="middle" x="476" y="-113" font-family="FreeSans" font-size="10.00">::SymbolIcon</text>
</a>
</g>
<!-- Node21&#45;&gt;Node22 -->
<g id="edge42" class="edge"><title>Node21&#45;&gt;Node22</title>
<path fill="none" stroke="midnightblue" d="M387.741,-148.063C400.24,-144.372 413.273,-140.523 425.369,-136.952"/>
<polygon fill="midnightblue" stroke="midnightblue" points="386.46,-144.792 377.861,-150.981 388.442,-151.505 386.46,-144.792"/>
</g>
</g>
</svg>
