<?xml version="1.0" encoding="UTF-8" standalone="no"?>
<!DOCTYPE svg PUBLIC "-//W3C//DTD SVG 1.1//EN"
 "http://www.w3.org/Graphics/SVG/1.1/DTD/svg11.dtd">
<!-- Generated by graphviz version 2.26.3 (20100126.1600)
 -->
<!-- Title: HoverRace::Display::SDL::SdlSymbolIconView Pages: 1 -->
<svg width="156pt" height="182pt"
 viewBox="0.00 0.00 156.00 182.00" xmlns="http://www.w3.org/2000/svg" xmlns:xlink="http://www.w3.org/1999/xlink">
<g id="graph1" class="graph" transform="scale(1 1) rotate(0) translate(4 178)">
<title>HoverRace::Display::SDL::SdlSymbolIconView</title>
<!-- Node1 -->
<g id="node1" class="node"><title>Node1</title>
<polygon fill="#bfbfbf" stroke="black" points="8,-1 8,-33 140,-33 140,-1 8,-1"/>
<text text-anchor="start" x="16" y="-20" font-family="FreeSans" font-size="10.00">HoverRace::Display</text>
<text text-anchor="middle" x="74" y="-8" font-family="FreeSans" font-size="10.00">::SDL::SdlSymbolIconView</text>
</g>
<!-- Node2 -->
<g id="node2" class="node"><title>Node2</title>
<a xlink:href="class_hover_race_1_1_display_1_1_s_d_l_1_1_sdl_view.html" target="_top" xlink:title="HoverRace::Display\l::SDL::SdlView\&lt; SymbolIcon \&gt;">
<polygon fill="none" stroke="black" points="-0.5,-71 -0.5,-103 148.5,-103 148.5,-71 -0.5,-71"/>
<text text-anchor="start" x="7.5" y="-90" font-family="FreeSans" font-size="10.00">HoverRace::Display</text>
<text text-anchor="middle" x="74" y="-78" font-family="FreeSans" font-size="10.00">::SDL::SdlView&lt; SymbolIcon &gt;</text>
</a>
</g>
<!-- Node2&#45;&gt;Node1 -->
<g id="edge2" class="edge"><title>Node2&#45;&gt;Node1</title>
<path fill="none" stroke="midnightblue" d="M74,-60.5079C74,-51.3027 74,-41.2615 74,-33.1473"/>
<polygon fill="midnightblue" stroke="midnightblue" points="70.5001,-60.7646 74,-70.7646 77.5001,-60.7647 70.5001,-60.7646"/>
</g>
<!-- Node3 -->
<g id="node4" class="node"><title>Node3</title>
<a xlink:href="class_hover_race_1_1_display_1_1_view.html" target="_top" xlink:title="Base class for views.">
<polygon fill="none" stroke="black" points="23.5,-141 23.5,-173 124.5,-173 124.5,-141 23.5,-141"/>
<text text-anchor="start" x="31.5" y="-160" font-family="FreeSans" font-size="10.00">HoverRace::Display</text>
<text text-anchor="middle" x="74" y="-148" font-family="FreeSans" font-size="10.00">::View</text>
</a>
</g>
<!-- Node3&#45;&gt;Node2 -->
<g id="edge4" class="edge"><title>Node3&#45;&gt;Node2</title>
<path fill="none" stroke="midnightblue" d="M74,-130.508C74,-121.303 74,-111.262 74,-103.147"/>
<polygon fill="midnightblue" stroke="midnightblue" points="70.5001,-130.765 74,-140.765 77.5001,-130.765 70.5001,-130.765"/>
</g>
</g>
</svg>
