<?xml version="1.0" encoding="UTF-8" standalone="no"?>
<!DOCTYPE svg PUBLIC "-//W3C//DTD SVG 1.1//EN"
 "http://www.w3.org/Graphics/SVG/1.1/DTD/svg11.dtd">
<!-- Generated by graphviz version 2.38.0 (20140413.2041)
 -->
<!-- Title: HoverRace::Client::Module::ClickablesModule Pages: 1 -->
<svg width="148pt" height="307pt"
 viewBox="0.00 0.00 148.00 307.00" xmlns="http://www.w3.org/2000/svg" xmlns:xlink="http://www.w3.org/1999/xlink">
<g id="graph0" class="graph" transform="scale(1 1) rotate(0) translate(4 303)">
<title>HoverRace::Client::Module::ClickablesModule</title>
<!-- Node1 -->
<g id="node1" class="node"><title>Node1</title>
<polygon fill="#bfbfbf" stroke="black" points="0.5,-0.5 0.5,-30.5 139.5,-30.5 139.5,-0.5 0.5,-0.5"/>
<text text-anchor="start" x="8.5" y="-18.5" font-family="FreeSans" font-size="10.00">HoverRace::Client::</text>
<text text-anchor="middle" x="70" y="-7.5" font-family="FreeSans" font-size="10.00">Module::ClickablesModule</text>
</g>
<!-- Node2 -->
<g id="node2" class="node"><title>Node2</title>
<g id="a_node2"><a xlink:href="class_hover_race_1_1_client_1_1_test_lab_scene_1_1_lab_module.html" target="_top" xlink:title="HoverRace::Client::\lTestLabScene::LabModule">
<polygon fill="none" stroke="black" points="0,-67.5 0,-97.5 140,-97.5 140,-67.5 0,-67.5"/>
<text text-anchor="start" x="8" y="-85.5" font-family="FreeSans" font-size="10.00">HoverRace::Client::</text>
<text text-anchor="middle" x="70" y="-74.5" font-family="FreeSans" font-size="10.00">TestLabScene::LabModule</text>
</a>
</g>
</g>
<!-- Node2&#45;&gt;Node1 -->
<g id="edge1" class="edge"><title>Node2&#45;&gt;Node1</title>
<path fill="none" stroke="midnightblue" d="M70,-57.1081C70,-48.1539 70,-38.3227 70,-30.5765"/>
<polygon fill="midnightblue" stroke="midnightblue" points="66.5001,-57.3959 70,-67.396 73.5001,-57.396 66.5001,-57.3959"/>
</g>
<!-- Node3 -->
<g id="node3" class="node"><title>Node3</title>
<g id="a_node3"><a xlink:href="class_hover_race_1_1_client_1_1_form_scene.html" target="_top" xlink:title="Base class for full&#45;scene menus and the like. ">
<polygon fill="none" stroke="black" points="16.5,-134.5 16.5,-164.5 123.5,-164.5 123.5,-134.5 16.5,-134.5"/>
<text text-anchor="start" x="24.5" y="-152.5" font-family="FreeSans" font-size="10.00">HoverRace::Client::</text>
<text text-anchor="middle" x="70" y="-141.5" font-family="FreeSans" font-size="10.00">FormScene</text>
</a>
</g>
</g>
<!-- Node3&#45;&gt;Node2 -->
<g id="edge2" class="edge"><title>Node3&#45;&gt;Node2</title>
<path fill="none" stroke="midnightblue" d="M70,-124.108C70,-115.154 70,-105.323 70,-97.5765"/>
<polygon fill="midnightblue" stroke="midnightblue" points="66.5001,-124.396 70,-134.396 73.5001,-124.396 66.5001,-124.396"/>
</g>
<!-- Node4 -->
<g id="node4" class="node"><title>Node4</title>
<g id="a_node4"><a xlink:href="class_hover_race_1_1_client_1_1_ui_scene.html" target="_top" xlink:title="Base class for UI&#45;centric scenes. ">
<polygon fill="none" stroke="black" points="16.5,-201.5 16.5,-231.5 123.5,-231.5 123.5,-201.5 16.5,-201.5"/>
<text text-anchor="start" x="24.5" y="-219.5" font-family="FreeSans" font-size="10.00">HoverRace::Client::</text>
<text text-anchor="middle" x="70" y="-208.5" font-family="FreeSans" font-size="10.00">UiScene</text>
</a>
</g>
</g>
<!-- Node4&#45;&gt;Node3 -->
<g id="edge3" class="edge"><title>Node4&#45;&gt;Node3</title>
<path fill="none" stroke="midnightblue" d="M70,-191.108C70,-182.154 70,-172.323 70,-164.577"/>
<polygon fill="midnightblue" stroke="midnightblue" points="66.5001,-191.396 70,-201.396 73.5001,-191.396 66.5001,-191.396"/>
</g>
<!-- Node5 -->
<g id="node5" class="node"><title>Node5</title>
<g id="a_node5"><a xlink:href="class_hover_race_1_1_client_1_1_scene.html" target="_top" xlink:title="Scenes are analogous to fullscreen windows that are layered on top of each other. ...">
<polygon fill="none" stroke="black" points="16.5,-268.5 16.5,-298.5 123.5,-298.5 123.5,-268.5 16.5,-268.5"/>
<text text-anchor="start" x="24.5" y="-286.5" font-family="FreeSans" font-size="10.00">HoverRace::Client::</text>
<text text-anchor="middle" x="70" y="-275.5" font-family="FreeSans" font-size="10.00">Scene</text>
</a>
</g>
</g>
<!-- Node5&#45;&gt;Node4 -->
<g id="edge4" class="edge"><title>Node5&#45;&gt;Node4</title>
<path fill="none" stroke="midnightblue" d="M70,-258.108C70,-249.154 70,-239.323 70,-231.577"/>
<polygon fill="midnightblue" stroke="midnightblue" points="66.5001,-258.396 70,-268.396 73.5001,-258.396 66.5001,-258.396"/>
</g>
</g>
</svg>
