<?xml version="1.0" encoding="UTF-8" standalone="no"?>
<!DOCTYPE svg PUBLIC "-//W3C//DTD SVG 1.1//EN"
 "http://www.w3.org/Graphics/SVG/1.1/DTD/svg11.dtd">
<!-- Generated by graphviz version 2.26.3 (20100126.1600)
 -->
<!-- Title: ObjFac1 Pages: 1 -->
<svg width="252pt" height="296pt"
 viewBox="0.00 0.00 251.99 296.00" xmlns="http://www.w3.org/2000/svg" xmlns:xlink="http://www.w3.org/1999/xlink">
<g id="graph1" class="graph" transform="scale(1 1) rotate(0) translate(4 292)">
<title>ObjFac1</title>
<g id="graph2" class="cluster"><title>clusterdir_996f45160da62e1a3d7f6046fad68f51</title>
<a xlink:href="dir_996f45160da62e1a3d7f6046fad68f51.html" target="_top" xlink:title="engine">
<polygon fill="#ddddee" stroke="black" points="91.0969,-208 91.0969,-280 161.097,-280 161.097,-208 91.0969,-208"/>
<text text-anchor="middle" x="126.097" y="-267" font-family="FreeSans" font-size="10.00">engine</text>
</a>
</g>
<!-- dir_11ef1ec48ce85ffc975edfd5f1c95b97 -->
<g id="node2" class="node"><title>dir_11ef1ec48ce85ffc975edfd5f1c95b97</title>
<a xlink:href="dir_11ef1ec48ce85ffc975edfd5f1c95b97.html" target="_top" xlink:title="ObjFac1">
<polygon fill="#eeeeff" stroke="black" points="153.097,-252 99.0969,-252 99.0969,-216 153.097,-216 153.097,-252"/>
<text text-anchor="middle" x="126.097" y="-231" font-family="FreeSans" font-size="10.00">ObjFac1</text>
</a>
</g>
<!-- dir_0934fd95ceeb46aa22ccb2d1831dae0f -->
<g id="node3" class="node"><title>dir_0934fd95ceeb46aa22ccb2d1831dae0f</title>
<a xlink:href="dir_0934fd95ceeb46aa22ccb2d1831dae0f.html" target="_top" xlink:title="Util">
<polygon fill="none" stroke="red" points="153.097,-36 99.0969,-36 99.0969,-1.06581e-14 153.097,-0 153.097,-36"/>
<text text-anchor="middle" x="126.097" y="-15" font-family="FreeSans" font-size="10.00">Util</text>
</a>
</g>
<!-- dir_11ef1ec48ce85ffc975edfd5f1c95b97&#45;&gt;dir_0934fd95ceeb46aa22ccb2d1831dae0f -->
<g id="edge11" class="edge"><title>dir_11ef1ec48ce85ffc975edfd5f1c95b97&#45;&gt;dir_0934fd95ceeb46aa22ccb2d1831dae0f</title>
<path fill="none" stroke="black" d="M99.0311,-230.012C71.0675,-224.292 28.8105,-210.811 9.09686,-180 -24.1027,-128.112 45.0342,-70.2704 90.5212,-39.6946"/>
<polygon fill="black" stroke="black" points="92.5523,-42.548 98.9875,-34.1315 88.7082,-36.6979 92.5523,-42.548"/>
<a xlink:href="dir_000005_000008.html" target="_top" xlink:title="2">
<text text-anchor="middle" x="91.1073" y="-43.8948" font-family="FreeSans" font-size="10.00">2</text>
</a>
</g>
<!-- dir_c8f5c77583f5a8c611b28ad2fa22d3d0 -->
<g id="node4" class="node"><title>dir_c8f5c77583f5a8c611b28ad2fa22d3d0</title>
<a xlink:href="dir_c8f5c77583f5a8c611b28ad2fa22d3d0.html" target="_top" xlink:title="MainCharacter">
<polygon fill="none" stroke="black" points="98.0969,-180 18.0969,-180 18.0969,-144 98.0969,-144 98.0969,-180"/>
<text text-anchor="middle" x="58.0969" y="-159" font-family="FreeSans" font-size="10.00">MainCharacter</text>
</a>
</g>
<!-- dir_11ef1ec48ce85ffc975edfd5f1c95b97&#45;&gt;dir_c8f5c77583f5a8c611b28ad2fa22d3d0 -->
<g id="edge13" class="edge"><title>dir_11ef1ec48ce85ffc975edfd5f1c95b97&#45;&gt;dir_c8f5c77583f5a8c611b28ad2fa22d3d0</title>
<path fill="none" stroke="black" d="M108.938,-215.831C100.946,-207.369 91.293,-197.149 82.5552,-187.897"/>
<polygon fill="black" stroke="black" points="84.898,-185.28 75.4872,-180.413 79.8089,-190.087 84.898,-185.28"/>
<a xlink:href="dir_000005_000017.html" target="_top" xlink:title="1">
<text text-anchor="middle" x="89.4303" y="-182.944" font-family="FreeSans" font-size="10.00">1</text>
</a>
</g>
<!-- dir_8a4097456790b4234ac847b719729965 -->
<g id="node5" class="node"><title>dir_8a4097456790b4234ac847b719729965</title>
<a xlink:href="dir_8a4097456790b4234ac847b719729965.html" target="_top" xlink:title="Model">
<polygon fill="none" stroke="black" points="153.097,-108 99.0969,-108 99.0969,-72 153.097,-72 153.097,-108"/>
<text text-anchor="middle" x="126.097" y="-87" font-family="FreeSans" font-size="10.00">Model</text>
</a>
</g>
<!-- dir_11ef1ec48ce85ffc975edfd5f1c95b97&#45;&gt;dir_8a4097456790b4234ac847b719729965 -->
<g id="edge15" class="edge"><title>dir_11ef1ec48ce85ffc975edfd5f1c95b97&#45;&gt;dir_8a4097456790b4234ac847b719729965</title>
<path fill="none" stroke="black" d="M126.097,-215.762C126.097,-191.201 126.097,-147.247 126.097,-118.354"/>
<polygon fill="black" stroke="black" points="129.597,-118.09 126.097,-108.09 122.597,-118.09 129.597,-118.09"/>
<a xlink:href="dir_000005_000014.html" target="_top" xlink:title="24">
<text text-anchor="middle" x="132.436" y="-118.684" font-family="FreeSans" font-size="10.00">24</text>
</a>
</g>
<!-- dir_15d76760591361bf74d67120242b4d0d -->
<g id="node6" class="node"><title>dir_15d76760591361bf74d67120242b4d0d</title>
<a xlink:href="dir_15d76760591361bf74d67120242b4d0d.html" target="_top" xlink:title="ObjFacTools">
<polygon fill="none" stroke="black" points="226.097,-180 154.097,-180 154.097,-144 226.097,-144 226.097,-180"/>
<text text-anchor="middle" x="190.097" y="-159" font-family="FreeSans" font-size="10.00">ObjFacTools</text>
</a>
</g>
<!-- dir_11ef1ec48ce85ffc975edfd5f1c95b97&#45;&gt;dir_15d76760591361bf74d67120242b4d0d -->
<g id="edge17" class="edge"><title>dir_11ef1ec48ce85ffc975edfd5f1c95b97&#45;&gt;dir_15d76760591361bf74d67120242b4d0d</title>
<path fill="none" stroke="black" d="M142.247,-215.831C149.769,-207.369 158.853,-197.149 167.077,-187.897"/>
<polygon fill="black" stroke="black" points="169.702,-190.213 173.73,-180.413 164.47,-185.562 169.702,-190.213"/>
<a xlink:href="dir_000005_000007.html" target="_top" xlink:title="11">
<text text-anchor="middle" x="169.436" y="-191.786" font-family="FreeSans" font-size="10.00">11</text>
</a>
</g>
<!-- dir_0934fd95ceeb46aa22ccb2d1831dae0f&#45;&gt;dir_11ef1ec48ce85ffc975edfd5f1c95b97 -->
<g id="edge3" class="edge"><title>dir_0934fd95ceeb46aa22ccb2d1831dae0f&#45;&gt;dir_11ef1ec48ce85ffc975edfd5f1c95b97</title>
<path fill="none" stroke="black" d="M153.207,-35.4594C195.347,-64.8538 268.433,-126.282 235.097,-180 219.535,-205.076 188.482,-218.866 163.489,-226.22"/>
<polygon fill="black" stroke="black" points="162.298,-222.916 153.559,-228.905 164.126,-229.673 162.298,-222.916"/>
<a xlink:href="dir_000008_000005.html" target="_top" xlink:title="1">
<text text-anchor="middle" x="165.027" y="-216.237" font-family="FreeSans" font-size="10.00">1</text>
</a>
</g>
<!-- dir_c8f5c77583f5a8c611b28ad2fa22d3d0&#45;&gt;dir_0934fd95ceeb46aa22ccb2d1831dae0f -->
<g id="edge5" class="edge"><title>dir_c8f5c77583f5a8c611b28ad2fa22d3d0&#45;&gt;dir_0934fd95ceeb46aa22ccb2d1831dae0f</title>
<path fill="none" stroke="black" d="M63.1021,-143.877C68.5577,-125.31 78.1289,-95.8665 90.0969,-72 94.745,-62.7306 100.704,-53.147 106.43,-44.6731"/>
<polygon fill="black" stroke="black" points="109.414,-46.5123 112.249,-36.3037 103.667,-42.5165 109.414,-46.5123"/>
<a xlink:href="dir_000017_000008.html" target="_top" xlink:title="5">
<text text-anchor="middle" x="109.693" y="-48.0845" font-family="FreeSans" font-size="10.00">5</text>
</a>
</g>
<!-- dir_c8f5c77583f5a8c611b28ad2fa22d3d0&#45;&gt;dir_8a4097456790b4234ac847b719729965 -->
<g id="edge7" class="edge"><title>dir_c8f5c77583f5a8c611b28ad2fa22d3d0&#45;&gt;dir_8a4097456790b4234ac847b719729965</title>
<path fill="none" stroke="black" d="M75.2561,-143.831C83.248,-135.369 92.9007,-125.149 101.638,-115.897"/>
<polygon fill="black" stroke="black" points="104.385,-118.087 108.707,-108.413 99.2957,-113.28 104.385,-118.087"/>
<a xlink:href="dir_000017_000014.html" target="_top" xlink:title="4">
<text text-anchor="middle" x="103.981" y="-119.649" font-family="FreeSans" font-size="10.00">4</text>
</a>
</g>
<!-- dir_8a4097456790b4234ac847b719729965&#45;&gt;dir_0934fd95ceeb46aa22ccb2d1831dae0f -->
<g id="edge9" class="edge"><title>dir_8a4097456790b4234ac847b719729965&#45;&gt;dir_0934fd95ceeb46aa22ccb2d1831dae0f</title>
<path fill="none" stroke="black" d="M126.097,-71.8314C126.097,-64.131 126.097,-54.9743 126.097,-46.4166"/>
<polygon fill="black" stroke="black" points="129.597,-46.4132 126.097,-36.4133 122.597,-46.4133 129.597,-46.4132"/>
<a xlink:href="dir_000014_000008.html" target="_top" xlink:title="13">
<text text-anchor="middle" x="132.436" y="-47.0079" font-family="FreeSans" font-size="10.00">13</text>
</a>
</g>
<!-- dir_15d76760591361bf74d67120242b4d0d&#45;&gt;dir_0934fd95ceeb46aa22ccb2d1831dae0f -->
<g id="edge19" class="edge"><title>dir_15d76760591361bf74d67120242b4d0d&#45;&gt;dir_0934fd95ceeb46aa22ccb2d1831dae0f</title>
<path fill="none" stroke="black" d="M186.074,-143.842C181.585,-125.248 173.433,-95.7819 162.097,-72 157.635,-62.6396 151.729,-53.0304 145.993,-44.561"/>
<polygon fill="black" stroke="black" points="148.747,-42.3917 140.145,-36.2058 143.012,-46.4055 148.747,-42.3917"/>
<a xlink:href="dir_000007_000008.html" target="_top" xlink:title="3">
<text text-anchor="middle" x="153.134" y="-40.7086" font-family="FreeSans" font-size="10.00">3</text>
</a>
</g>
<!-- dir_15d76760591361bf74d67120242b4d0d&#45;&gt;dir_8a4097456790b4234ac847b719729965 -->
<g id="edge21" class="edge"><title>dir_15d76760591361bf74d67120242b4d0d&#45;&gt;dir_8a4097456790b4234ac847b719729965</title>
<path fill="none" stroke="black" d="M173.947,-143.831C166.425,-135.369 157.34,-125.149 149.116,-115.897"/>
<polygon fill="black" stroke="black" points="151.724,-113.562 142.464,-108.413 146.492,-118.213 151.724,-113.562"/>
<a xlink:href="dir_000007_000014.html" target="_top" xlink:title="3">
<text text-anchor="middle" x="156.234" y="-111.362" font-family="FreeSans" font-size="10.00">3</text>
</a>
</g>
</g>
</svg>
