<?xml version="1.0" encoding="UTF-8" standalone="no"?>
<!DOCTYPE svg PUBLIC "-//W3C//DTD SVG 1.1//EN"
 "http://www.w3.org/Graphics/SVG/1.1/DTD/svg11.dtd">
<!-- Generated by graphviz version 2.38.0 (20140413.2041)
 -->
<!-- Title: ObjFacTools Pages: 1 -->
<svg width="174pt" height="295pt"
 viewBox="0.00 0.00 173.71 295.00" xmlns="http://www.w3.org/2000/svg" xmlns:xlink="http://www.w3.org/1999/xlink">
<g id="graph0" class="graph" transform="scale(1 1) rotate(0) translate(4 291)">
<title>ObjFacTools</title>
<g id="clust1" class="cluster"><title>clusterdir_996f45160da62e1a3d7f6046fad68f51</title>
<g id="a_clust1"><a xlink:href="dir_996f45160da62e1a3d7f6046fad68f51.html" target="_top" xlink:title="engine">
<polygon fill="#ddddee" stroke="black" points="8,-208 8,-279 96,-279 96,-208 8,-208"/>
<text text-anchor="middle" x="52" y="-267" font-family="FreeSans" font-size="10.00">engine</text>
</a>
</g>
</g>
<!-- dir_15d76760591361bf74d67120242b4d0d -->
<g id="node1" class="node"><title>dir_15d76760591361bf74d67120242b4d0d</title>
<g id="a_node1"><a xlink:href="dir_15d76760591361bf74d67120242b4d0d.html" target="_top" xlink:title="ObjFacTools">
<polygon fill="#eeeeff" stroke="black" points="87.5,-252 16.5,-252 16.5,-216 87.5,-216 87.5,-252"/>
<text text-anchor="middle" x="52" y="-231.5" font-family="FreeSans" font-size="10.00">ObjFacTools</text>
</a>
</g>
</g>
<!-- dir_0934fd95ceeb46aa22ccb2d1831dae0f -->
<g id="node2" class="node"><title>dir_0934fd95ceeb46aa22ccb2d1831dae0f</title>
<g id="a_node2"><a xlink:href="dir_0934fd95ceeb46aa22ccb2d1831dae0f.html" target="_top" xlink:title="Util">
<polygon fill="none" stroke="red" points="160,-252 106,-252 106,-216 160,-216 160,-252"/>
<text text-anchor="middle" x="133" y="-231.5" font-family="FreeSans" font-size="10.00">Util</text>
</a>
</g>
</g>
<!-- dir_15d76760591361bf74d67120242b4d0d&#45;&gt;dir_0934fd95ceeb46aa22ccb2d1831dae0f -->
<g id="edge10" class="edge"><title>dir_15d76760591361bf74d67120242b4d0d&#45;&gt;dir_0934fd95ceeb46aa22ccb2d1831dae0f</title>
<path fill="none" stroke="black" d="M87.7539,-234C90.383,-234 93.012,-234 95.641,-234"/>
<polygon fill="black" stroke="black" points="95.7817,-237.5 105.782,-234 95.7816,-230.5 95.7817,-237.5"/>
<g id="a_edge10&#45;headlabel"><a xlink:href="dir_000007_000008.html" target="_top" xlink:title="3">
<text text-anchor="middle" x="92.187" y="-237.839" font-family="FreeSans" font-size="10.00">3</text>
</a>
</g>
</g>
<!-- dir_6c0c9a026e8202e772c067025956487c -->
<g id="node3" class="node"><title>dir_6c0c9a026e8202e772c067025956487c</title>
<g id="a_node3"><a xlink:href="dir_6c0c9a026e8202e772c067025956487c.html" target="_top" xlink:title="VideoServices">
<polygon fill="none" stroke="black" points="121,-36 37,-36 37,-0 121,-0 121,-36"/>
<text text-anchor="middle" x="79" y="-15.5" font-family="FreeSans" font-size="10.00">VideoServices</text>
</a>
</g>
</g>
<!-- dir_15d76760591361bf74d67120242b4d0d&#45;&gt;dir_6c0c9a026e8202e772c067025956487c -->
<g id="edge11" class="edge"><title>dir_15d76760591361bf74d67120242b4d0d&#45;&gt;dir_6c0c9a026e8202e772c067025956487c</title>
<path fill="none" stroke="black" d="M51.9484,-215.902C52.1526,-186.301 53.881,-123.714 64,-72 65.6972,-63.3264 68.124,-54.0076 70.5324,-45.64"/>
<polygon fill="black" stroke="black" points="73.8996,-46.596 73.4107,-36.0125 67.1929,-44.5909 73.8996,-46.596"/>
<g id="a_edge11&#45;headlabel"><a xlink:href="dir_000007_000006.html" target="_top" xlink:title="5">
<text text-anchor="middle" x="75.5903" y="-48.3533" font-family="FreeSans" font-size="10.00">5</text>
</a>
</g>
</g>
<!-- dir_8a4097456790b4234ac847b719729965 -->
<g id="node4" class="node"><title>dir_8a4097456790b4234ac847b719729965</title>
<g id="a_node4"><a xlink:href="dir_8a4097456790b4234ac847b719729965.html" target="_top" xlink:title="Model">
<polygon fill="none" stroke="black" points="134,-108 80,-108 80,-72 134,-72 134,-108"/>
<text text-anchor="middle" x="107" y="-87.5" font-family="FreeSans" font-size="10.00">Model</text>
</a>
</g>
</g>
<!-- dir_15d76760591361bf74d67120242b4d0d&#45;&gt;dir_8a4097456790b4234ac847b719729965 -->
<g id="edge12" class="edge"><title>dir_15d76760591361bf74d67120242b4d0d&#45;&gt;dir_8a4097456790b4234ac847b719729965</title>
<path fill="none" stroke="black" d="M53.6972,-215.674C55.9505,-197.29 60.8884,-167.685 71,-144 75.0842,-134.433 80.9884,-124.784 86.8379,-116.388"/>
<polygon fill="black" stroke="black" points="89.7797,-118.294 92.8353,-108.149 84.1203,-114.174 89.7797,-118.294"/>
<g id="a_edge12&#45;headlabel"><a xlink:href="dir_000007_000014.html" target="_top" xlink:title="3">
<text text-anchor="middle" x="89.9597" y="-120.371" font-family="FreeSans" font-size="10.00">3</text>
</a>
</g>
</g>
<!-- dir_54f9da0a70d763287d8f71c22d40778c -->
<g id="node5" class="node"><title>dir_54f9da0a70d763287d8f71c22d40778c</title>
<g id="a_node5"><a xlink:href="dir_54f9da0a70d763287d8f71c22d40778c.html" target="_top" xlink:title="Parcel">
<polygon fill="none" stroke="black" points="134,-180 80,-180 80,-144 134,-144 134,-180"/>
<text text-anchor="middle" x="107" y="-159.5" font-family="FreeSans" font-size="10.00">Parcel</text>
</a>
</g>
</g>
<!-- dir_15d76760591361bf74d67120242b4d0d&#45;&gt;dir_54f9da0a70d763287d8f71c22d40778c -->
<g id="edge13" class="edge"><title>dir_15d76760591361bf74d67120242b4d0d&#45;&gt;dir_54f9da0a70d763287d8f71c22d40778c</title>
<path fill="none" stroke="black" d="M59.6798,-215.697C65.4079,-207.305 73.257,-197.07 80.9744,-187.861"/>
<polygon fill="black" stroke="black" points="83.7842,-189.962 87.6658,-180.104 78.4838,-185.39 83.7842,-189.962"/>
<g id="a_edge13&#45;headlabel"><a xlink:href="dir_000007_000009.html" target="_top" xlink:title="5">
<text text-anchor="middle" x="83.5861" y="-192.039" font-family="FreeSans" font-size="10.00">5</text>
</a>
</g>
</g>
<!-- dir_0934fd95ceeb46aa22ccb2d1831dae0f&#45;&gt;dir_54f9da0a70d763287d8f71c22d40778c -->
<g id="edge1" class="edge"><title>dir_0934fd95ceeb46aa22ccb2d1831dae0f&#45;&gt;dir_54f9da0a70d763287d8f71c22d40778c</title>
<path fill="none" stroke="black" d="M120.657,-215.697C116.956,-207.898 113.246,-198.509 110.381,-189.829"/>
<polygon fill="black" stroke="black" points="113.689,-188.673 107.458,-180.104 106.985,-190.689 113.689,-188.673"/>
<g id="a_edge1&#45;headlabel"><a xlink:href="dir_000008_000009.html" target="_top" xlink:title="6">
<text text-anchor="middle" x="117.443" y="-188.799" font-family="FreeSans" font-size="10.00">6</text>
</a>
</g>
</g>
<!-- dir_6c0c9a026e8202e772c067025956487c&#45;&gt;dir_0934fd95ceeb46aa22ccb2d1831dae0f -->
<g id="edge2" class="edge"><title>dir_6c0c9a026e8202e772c067025956487c&#45;&gt;dir_0934fd95ceeb46aa22ccb2d1831dae0f</title>
<path fill="none" stroke="black" d="M107.326,-36.1722C120.068,-45.2927 134.193,-57.6006 143,-72 168.317,-113.396 169.97,-132.732 159,-180 156.902,-189.041 153.034,-198.319 148.912,-206.533"/>
<polygon fill="black" stroke="black" points="145.686,-205.143 144.046,-215.611 151.855,-208.45 145.686,-205.143"/>
<g id="a_edge2&#45;headlabel"><a xlink:href="dir_000006_000008.html" target="_top" xlink:title="13">
<text text-anchor="middle" x="144.881" y="-198.134" font-family="FreeSans" font-size="10.00">13</text>
</a>
</g>
</g>
<!-- dir_6c0c9a026e8202e772c067025956487c&#45;&gt;dir_54f9da0a70d763287d8f71c22d40778c -->
<g id="edge3" class="edge"><title>dir_6c0c9a026e8202e772c067025956487c&#45;&gt;dir_54f9da0a70d763287d8f71c22d40778c</title>
<path fill="none" stroke="black" d="M73.657,-36.1334C68.8431,-54.3572 63.5674,-83.8297 71,-108 74.0089,-117.785 79.507,-127.384 85.3157,-135.666"/>
<polygon fill="black" stroke="black" points="82.5928,-137.869 91.3901,-143.774 88.1948,-133.672 82.5928,-137.869"/>
<g id="a_edge3&#45;headlabel"><a xlink:href="dir_000006_000009.html" target="_top" xlink:title="1">
<text text-anchor="middle" x="78.1652" y="-134.195" font-family="FreeSans" font-size="10.00">1</text>
</a>
</g>
</g>
<!-- dir_8a4097456790b4234ac847b719729965&#45;&gt;dir_0934fd95ceeb46aa22ccb2d1831dae0f -->
<g id="edge4" class="edge"><title>dir_8a4097456790b4234ac847b719729965&#45;&gt;dir_0934fd95ceeb46aa22ccb2d1831dae0f</title>
<path fill="none" stroke="black" d="M122.61,-108.226C130.373,-117.97 138.946,-130.816 143,-144 149.227,-164.25 145.992,-188.157 141.604,-206.092"/>
<polygon fill="black" stroke="black" points="138.187,-205.321 138.95,-215.888 144.943,-207.151 138.187,-205.321"/>
<g id="a_edge4&#45;headlabel"><a xlink:href="dir_000014_000008.html" target="_top" xlink:title="15">
<text text-anchor="middle" x="136.386" y="-198.609" font-family="FreeSans" font-size="10.00">15</text>
</a>
</g>
</g>
<!-- dir_8a4097456790b4234ac847b719729965&#45;&gt;dir_6c0c9a026e8202e772c067025956487c -->
<g id="edge5" class="edge"><title>dir_8a4097456790b4234ac847b719729965&#45;&gt;dir_6c0c9a026e8202e772c067025956487c</title>
<path fill="none" stroke="black" d="M100.079,-71.6966C96.9253,-63.8132 93.1217,-54.3042 89.6186,-45.5464"/>
<polygon fill="black" stroke="black" points="92.8054,-44.0892 85.8417,-36.1043 86.306,-46.689 92.8054,-44.0892"/>
<g id="a_edge5&#45;headlabel"><a xlink:href="dir_000014_000006.html" target="_top" xlink:title="1">
<text text-anchor="middle" x="96.7765" y="-43.8723" font-family="FreeSans" font-size="10.00">1</text>
</a>
</g>
</g>
<!-- dir_8a4097456790b4234ac847b719729965&#45;&gt;dir_54f9da0a70d763287d8f71c22d40778c -->
<g id="edge6" class="edge"><title>dir_8a4097456790b4234ac847b719729965&#45;&gt;dir_54f9da0a70d763287d8f71c22d40778c</title>
<path fill="none" stroke="black" d="M112.895,-108.104C113.701,-115.791 113.937,-125.054 113.604,-133.665"/>
<polygon fill="black" stroke="black" points="110.109,-133.48 112.916,-143.697 117.092,-133.96 110.109,-133.48"/>
<g id="a_edge6&#45;headlabel"><a xlink:href="dir_000014_000009.html" target="_top" xlink:title="7">
<text text-anchor="middle" x="107.522" y="-127.2" font-family="FreeSans" font-size="10.00">7</text>
</a>
</g>
</g>
<!-- dir_54f9da0a70d763287d8f71c22d40778c&#45;&gt;dir_15d76760591361bf74d67120242b4d0d -->
<g id="edge9" class="edge"><title>dir_54f9da0a70d763287d8f71c22d40778c&#45;&gt;dir_15d76760591361bf74d67120242b4d0d</title>
<path fill="none" stroke="black" d="M99.4559,-180.104C93.7615,-188.467 85.9284,-198.694 78.209,-207.92"/>
<polygon fill="black" stroke="black" points="75.385,-205.835 71.5112,-215.697 80.6891,-210.403 75.385,-205.835"/>
<g id="a_edge9&#45;headlabel"><a xlink:href="dir_000009_000007.html" target="_top" xlink:title="1">
<text text-anchor="middle" x="75.5793" y="-198.759" font-family="FreeSans" font-size="10.00">1</text>
</a>
</g>
</g>
<!-- dir_54f9da0a70d763287d8f71c22d40778c&#45;&gt;dir_0934fd95ceeb46aa22ccb2d1831dae0f -->
<g id="edge7" class="edge"><title>dir_54f9da0a70d763287d8f71c22d40778c&#45;&gt;dir_0934fd95ceeb46aa22ccb2d1831dae0f</title>
<path fill="none" stroke="black" d="M119.248,-180.104C122.949,-187.876 126.666,-197.257 129.545,-205.949"/>
<polygon fill="black" stroke="black" points="126.247,-207.135 132.489,-215.697 132.949,-205.112 126.247,-207.135"/>
<g id="a_edge7&#45;headlabel"><a xlink:href="dir_000009_000008.html" target="_top" xlink:title="15">
<text text-anchor="middle" x="122.49" y="-202.015" font-family="FreeSans" font-size="10.00">15</text>
</a>
</g>
</g>
<!-- dir_54f9da0a70d763287d8f71c22d40778c&#45;&gt;dir_8a4097456790b4234ac847b719729965 -->
<g id="edge8" class="edge"><title>dir_54f9da0a70d763287d8f71c22d40778c&#45;&gt;dir_8a4097456790b4234ac847b719729965</title>
<path fill="none" stroke="black" d="M101.084,-143.697C100.289,-135.983 100.062,-126.712 100.405,-118.112"/>
<polygon fill="black" stroke="black" points="103.898,-118.324 101.105,-108.104 96.9154,-117.836 103.898,-118.324"/>
<g id="a_edge8&#45;headlabel"><a xlink:href="dir_000009_000014.html" target="_top" xlink:title="2">
<text text-anchor="middle" x="106.48" y="-119.608" font-family="FreeSans" font-size="10.00">2</text>
</a>
</g>
</g>
</g>
</svg>
