<?xml version="1.0" encoding="UTF-8" standalone="no"?>
<!DOCTYPE svg PUBLIC "-//W3C//DTD SVG 1.1//EN"
 "http://www.w3.org/Graphics/SVG/1.1/DTD/svg11.dtd">
<!-- Generated by graphviz version 2.38.0 (20140413.2041)
 -->
<!-- Title: MazeCompiler Pages: 1 -->
<svg width="145pt" height="367pt"
 viewBox="0.00 0.00 145.44 367.00" xmlns="http://www.w3.org/2000/svg" xmlns:xlink="http://www.w3.org/1999/xlink">
<g id="graph0" class="graph" transform="scale(1 1) rotate(0) translate(4 363)">
<title>MazeCompiler</title>
<g id="clust1" class="cluster"><title>clusterdir_996f45160da62e1a3d7f6046fad68f51</title>
<g id="a_clust1"><a xlink:href="dir_996f45160da62e1a3d7f6046fad68f51.html" target="_top" xlink:title="engine">
<polygon fill="#ddddee" stroke="black" points="18.1068,-280 18.1068,-351 114.107,-351 114.107,-280 18.1068,-280"/>
<text text-anchor="middle" x="66.1068" y="-339" font-family="Helvetica,sans-Serif" font-size="10.00">engine</text>
</a>
</g>
</g>
<!-- dir_d746cbd3279d9beb10f2c4393449bb6e -->
<g id="node1" class="node"><title>dir_d746cbd3279d9beb10f2c4393449bb6e</title>
<g id="a_node1"><a xlink:href="dir_d746cbd3279d9beb10f2c4393449bb6e.html" target="_top" xlink:title="MazeCompiler">
<polygon fill="#eeeeff" stroke="black" points="106.107,-324 26.1068,-324 26.1068,-288 106.107,-288 106.107,-324"/>
<text text-anchor="middle" x="66.1068" y="-303.5" font-family="Helvetica,sans-Serif" font-size="10.00">MazeCompiler</text>
</a>
</g>
</g>
<!-- dir_0934fd95ceeb46aa22ccb2d1831dae0f -->
<g id="node2" class="node"><title>dir_0934fd95ceeb46aa22ccb2d1831dae0f</title>
<g id="a_node2"><a xlink:href="dir_0934fd95ceeb46aa22ccb2d1831dae0f.html" target="_top" xlink:title="Util">
<polygon fill="none" stroke="red" points="121.107,-252 67.1068,-252 67.1068,-216 121.107,-216 121.107,-252"/>
<text text-anchor="middle" x="94.1068" y="-231.5" font-family="Helvetica,sans-Serif" font-size="10.00">Util</text>
</a>
</g>
</g>
<!-- dir_d746cbd3279d9beb10f2c4393449bb6e&#45;&gt;dir_0934fd95ceeb46aa22ccb2d1831dae0f -->
<g id="edge7" class="edge"><title>dir_d746cbd3279d9beb10f2c4393449bb6e&#45;&gt;dir_0934fd95ceeb46aa22ccb2d1831dae0f</title>
<path fill="none" stroke="black" d="M73.0282,-287.697C76.1816,-279.813 79.9851,-270.304 83.4883,-261.546"/>
<polygon fill="black" stroke="black" points="86.8008,-262.689 87.2651,-252.104 80.3015,-260.089 86.8008,-262.689"/>
<g id="a_edge7&#45;headlabel"><a xlink:href="dir_000018_000010.html" target="_top" xlink:title="4">
<text text-anchor="middle" x="88.1021" y="-264.581" font-family="Helvetica,sans-Serif" font-size="10.00">4</text>
</a>
</g>
</g>
<!-- dir_6c0c9a026e8202e772c067025956487c -->
<g id="node3" class="node"><title>dir_6c0c9a026e8202e772c067025956487c</title>
<g id="a_node3"><a xlink:href="dir_6c0c9a026e8202e772c067025956487c.html" target="_top" xlink:title="VideoServices">
<polygon fill="none" stroke="black" points="89.1068,-36 9.10683,-36 9.10683,-0 89.1068,-0 89.1068,-36"/>
<text text-anchor="middle" x="49.1068" y="-15.5" font-family="Helvetica,sans-Serif" font-size="10.00">VideoServices</text>
</a>
</g>
</g>
<!-- dir_d746cbd3279d9beb10f2c4393449bb6e&#45;&gt;dir_6c0c9a026e8202e772c067025956487c -->
<g id="edge8" class="edge"><title>dir_d746cbd3279d9beb10f2c4393449bb6e&#45;&gt;dir_6c0c9a026e8202e772c067025956487c</title>
<path fill="none" stroke="black" d="M54.1312,-287.803C38.7718,-264.595 12.9439,-221.375 3.10683,-180 -8.28838,-132.072 15.5618,-77.0446 32.9871,-45.3209"/>
<polygon fill="black" stroke="black" points="36.2405,-46.6802 38.1426,-36.2574 30.156,-43.2191 36.2405,-46.6802"/>
<g id="a_edge8&#45;headlabel"><a xlink:href="dir_000018_000008.html" target="_top" xlink:title="1">
<text text-anchor="middle" x="36.9313" y="-48.7084" font-family="Helvetica,sans-Serif" font-size="10.00">1</text>
</a>
</g>
</g>
<!-- dir_8a4097456790b4234ac847b719729965 -->
<g id="node4" class="node"><title>dir_8a4097456790b4234ac847b719729965</title>
<g id="a_node4"><a xlink:href="dir_8a4097456790b4234ac847b719729965.html" target="_top" xlink:title="Model">
<polygon fill="none" stroke="black" points="104.107,-108 50.1068,-108 50.1068,-72 104.107,-72 104.107,-108"/>
<text text-anchor="middle" x="77.1068" y="-87.5" font-family="Helvetica,sans-Serif" font-size="10.00">Model</text>
</a>
</g>
</g>
<!-- dir_d746cbd3279d9beb10f2c4393449bb6e&#45;&gt;dir_8a4097456790b4234ac847b719729965 -->
<g id="edge9" class="edge"><title>dir_d746cbd3279d9beb10f2c4393449bb6e&#45;&gt;dir_8a4097456790b4234ac847b719729965</title>
<path fill="none" stroke="black" d="M96.8759,-287.907C109.651,-279.021 123.108,-266.883 130.107,-252 151.626,-206.239 120.374,-149.367 97.5004,-116.921"/>
<polygon fill="black" stroke="black" points="100.041,-114.466 91.322,-108.447 94.3851,-118.59 100.041,-114.466"/>
<g id="a_edge9&#45;headlabel"><a xlink:href="dir_000018_000016.html" target="_top" xlink:title="4">
<text text-anchor="middle" x="104.453" y="-113.197" font-family="Helvetica,sans-Serif" font-size="10.00">4</text>
</a>
</g>
</g>
<!-- dir_54f9da0a70d763287d8f71c22d40778c -->
<g id="node5" class="node"><title>dir_54f9da0a70d763287d8f71c22d40778c</title>
<g id="a_node5"><a xlink:href="dir_54f9da0a70d763287d8f71c22d40778c.html" target="_top" xlink:title="Parcel">
<polygon fill="none" stroke="black" points="66.1068,-180 12.1068,-180 12.1068,-144 66.1068,-144 66.1068,-180"/>
<text text-anchor="middle" x="39.1068" y="-159.5" font-family="Helvetica,sans-Serif" font-size="10.00">Parcel</text>
</a>
</g>
</g>
<!-- dir_d746cbd3279d9beb10f2c4393449bb6e&#45;&gt;dir_54f9da0a70d763287d8f71c22d40778c -->
<g id="edge10" class="edge"><title>dir_d746cbd3279d9beb10f2c4393449bb6e&#45;&gt;dir_54f9da0a70d763287d8f71c22d40778c</title>
<path fill="none" stroke="black" d="M62.85,-287.871C58.2484,-263.67 49.7948,-219.211 44.3154,-190.393"/>
<polygon fill="black" stroke="black" points="47.6816,-189.359 42.3752,-180.189 40.8048,-190.667 47.6816,-189.359"/>
<g id="a_edge10&#45;headlabel"><a xlink:href="dir_000018_000011.html" target="_top" xlink:title="2">
<text text-anchor="middle" x="51.1423" y="-189.86" font-family="Helvetica,sans-Serif" font-size="10.00">2</text>
</a>
</g>
</g>
<!-- dir_0934fd95ceeb46aa22ccb2d1831dae0f&#45;&gt;dir_54f9da0a70d763287d8f71c22d40778c -->
<g id="edge1" class="edge"><title>dir_0934fd95ceeb46aa22ccb2d1831dae0f&#45;&gt;dir_54f9da0a70d763287d8f71c22d40778c</title>
<path fill="none" stroke="black" d="M74.5956,-215.697C67.2869,-207.474 59.2355,-197.483 52.5602,-188.421"/>
<polygon fill="black" stroke="black" points="55.2963,-186.229 46.6509,-180.104 49.5901,-190.283 55.2963,-186.229"/>
<g id="a_edge1&#45;headlabel"><a xlink:href="dir_000010_000011.html" target="_top" xlink:title="6">
<text text-anchor="middle" x="59.6928" y="-185.014" font-family="Helvetica,sans-Serif" font-size="10.00">6</text>
</a>
</g>
</g>
<!-- dir_6c0c9a026e8202e772c067025956487c&#45;&gt;dir_0934fd95ceeb46aa22ccb2d1831dae0f -->
<g id="edge2" class="edge"><title>dir_6c0c9a026e8202e772c067025956487c&#45;&gt;dir_0934fd95ceeb46aa22ccb2d1831dae0f</title>
<path fill="none" stroke="black" d="M79.8759,-36.0931C92.6513,-44.9794 106.108,-57.1173 113.107,-72 133.622,-115.625 118.179,-172.946 105.712,-206.107"/>
<polygon fill="black" stroke="black" points="102.389,-204.993 101.982,-215.58 108.902,-207.558 102.389,-204.993"/>
<g id="a_edge2&#45;headlabel"><a xlink:href="dir_000008_000010.html" target="_top" xlink:title="13">
<text text-anchor="middle" x="101.064" y="-198.108" font-family="Helvetica,sans-Serif" font-size="10.00">13</text>
</a>
</g>
</g>
<!-- dir_6c0c9a026e8202e772c067025956487c&#45;&gt;dir_54f9da0a70d763287d8f71c22d40778c -->
<g id="edge3" class="edge"><title>dir_6c0c9a026e8202e772c067025956487c&#45;&gt;dir_54f9da0a70d763287d8f71c22d40778c</title>
<path fill="none" stroke="black" d="M45.957,-36.1199C44.1943,-46.4686 42.1476,-59.9475 41.1068,-72 39.323,-92.6574 38.8595,-116.106 38.8225,-133.746"/>
<polygon fill="black" stroke="black" points="35.3227,-133.911 38.8465,-143.903 42.3227,-133.895 35.3227,-133.911"/>
<g id="a_edge3&#45;headlabel"><a xlink:href="dir_000008_000011.html" target="_top" xlink:title="1">
<text text-anchor="middle" x="32.4751" y="-127.824" font-family="Helvetica,sans-Serif" font-size="10.00">1</text>
</a>
</g>
</g>
<!-- dir_8a4097456790b4234ac847b719729965&#45;&gt;dir_0934fd95ceeb46aa22ccb2d1831dae0f -->
<g id="edge4" class="edge"><title>dir_8a4097456790b4234ac847b719729965&#45;&gt;dir_0934fd95ceeb46aa22ccb2d1831dae0f</title>
<path fill="none" stroke="black" d="M79.1647,-108.189C82.0661,-132.424 87.3892,-176.888 90.836,-205.679"/>
<polygon fill="black" stroke="black" points="87.3923,-206.358 92.0562,-215.871 94.3426,-205.526 87.3923,-206.358"/>
<g id="a_edge4&#45;headlabel"><a xlink:href="dir_000016_000010.html" target="_top" xlink:title="15">
<text text-anchor="middle" x="84.1459" y="-200.627" font-family="Helvetica,sans-Serif" font-size="10.00">15</text>
</a>
</g>
</g>
<!-- dir_8a4097456790b4234ac847b719729965&#45;&gt;dir_6c0c9a026e8202e772c067025956487c -->
<g id="edge5" class="edge"><title>dir_8a4097456790b4234ac847b719729965&#45;&gt;dir_6c0c9a026e8202e772c067025956487c</title>
<path fill="none" stroke="black" d="M70.1855,-71.6966C67.0321,-63.8132 63.2285,-54.3042 59.7254,-45.5464"/>
<polygon fill="black" stroke="black" points="62.9122,-44.0892 55.9486,-36.1043 56.4129,-46.689 62.9122,-44.0892"/>
<g id="a_edge5&#45;headlabel"><a xlink:href="dir_000016_000008.html" target="_top" xlink:title="1">
<text text-anchor="middle" x="66.8833" y="-43.8723" font-family="Helvetica,sans-Serif" font-size="10.00">1</text>
</a>
</g>
</g>
<!-- dir_8a4097456790b4234ac847b719729965&#45;&gt;dir_54f9da0a70d763287d8f71c22d40778c -->
<g id="edge6" class="edge"><title>dir_8a4097456790b4234ac847b719729965&#45;&gt;dir_54f9da0a70d763287d8f71c22d40778c</title>
<path fill="none" stroke="black" d="M73.7167,-108.104C70.1642,-116.214 65.0265,-126.076 59.7226,-135.078"/>
<polygon fill="black" stroke="black" points="56.6788,-133.346 54.4158,-143.697 62.6395,-137.017 56.6788,-133.346"/>
<g id="a_edge6&#45;headlabel"><a xlink:href="dir_000016_000011.html" target="_top" xlink:title="7">
<text text-anchor="middle" x="56.1458" y="-126.297" font-family="Helvetica,sans-Serif" font-size="10.00">7</text>
</a>
</g>
</g>
<!-- dir_54f9da0a70d763287d8f71c22d40778c&#45;&gt;dir_0934fd95ceeb46aa22ccb2d1831dae0f -->
<g id="edge11" class="edge"><title>dir_54f9da0a70d763287d8f71c22d40778c&#45;&gt;dir_0934fd95ceeb46aa22ccb2d1831dae0f</title>
<path fill="none" stroke="black" d="M58.441,-180.104C65.7376,-188.298 73.7939,-198.282 80.4914,-207.359"/>
<polygon fill="black" stroke="black" points="77.776,-209.58 86.427,-215.697 83.4785,-205.52 77.776,-209.58"/>
<g id="a_edge11&#45;headlabel"><a xlink:href="dir_000011_000010.html" target="_top" xlink:title="15">
<text text-anchor="middle" x="73.3783" y="-205.799" font-family="Helvetica,sans-Serif" font-size="10.00">15</text>
</a>
</g>
</g>
<!-- dir_54f9da0a70d763287d8f71c22d40778c&#45;&gt;dir_8a4097456790b4234ac847b719729965 -->
<g id="edge12" class="edge"><title>dir_54f9da0a70d763287d8f71c22d40778c&#45;&gt;dir_8a4097456790b4234ac847b719729965</title>
<path fill="none" stroke="black" d="M42.5844,-143.697C46.1626,-135.559 51.3145,-125.689 56.6211,-116.701"/>
<polygon fill="black" stroke="black" points="59.6532,-118.452 61.9266,-108.104 53.6963,-114.776 59.6532,-118.452"/>
<g id="a_edge12&#45;headlabel"><a xlink:href="dir_000011_000016.html" target="_top" xlink:title="2">
<text text-anchor="middle" x="60.1816" y="-120.502" font-family="Helvetica,sans-Serif" font-size="10.00">2</text>
</a>
</g>
</g>
</g>
</svg>
