<?xml version="1.0" encoding="UTF-8" standalone="no"?>
<!DOCTYPE svg PUBLIC "-//W3C//DTD SVG 1.1//EN"
 "http://www.w3.org/Graphics/SVG/1.1/DTD/svg11.dtd">
<!-- Generated by graphviz version 2.26.3 (20100126.1600)
 -->
<!-- Title: Graphical Class Hierarchy Pages: 1 -->
<svg width="392pt" height="390pt"
 viewBox="0.00 0.00 392.00 390.00" xmlns="http://www.w3.org/2000/svg" xmlns:xlink="http://www.w3.org/1999/xlink">
<g id="graph1" class="graph" transform="scale(1 1) rotate(0) translate(4 386)">
<title>Graphical Class Hierarchy</title>
<!-- Node1 -->
<g id="node1" class="node"><title>Node1</title>
<a xlink:href="class_hover_race_1_1_control_1_1_control_action.html" target="_top" xlink:title="HoverRace::Control\l::ControlAction\&lt; int \&gt;">
<polygon fill="none" stroke="black" points="0.5,-200 0.5,-232 107.5,-232 107.5,-200 0.5,-200"/>
<text text-anchor="start" x="8.5" y="-219" font-family="FreeSans" font-size="10.00">HoverRace::Control</text>
<text text-anchor="middle" x="54" y="-207" font-family="FreeSans" font-size="10.00">::ControlAction&lt; int &gt;</text>
</a>
</g>
<!-- Node2 -->
<g id="node3" class="node"><title>Node2</title>
<a xlink:href="class_hover_race_1_1_control_1_1_blank_action.html" target="_top" xlink:title="An action performer that does absolutely nothing. ">
<polygon fill="none" stroke="black" points="144.5,-225 144.5,-257 245.5,-257 245.5,-225 144.5,-225"/>
<text text-anchor="start" x="152.5" y="-244" font-family="FreeSans" font-size="10.00">HoverRace::Control</text>
<text text-anchor="middle" x="195" y="-232" font-family="FreeSans" font-size="10.00">::BlankAction</text>
</a>
</g>
<!-- Node1&#45;&gt;Node2 -->
<g id="edge2" class="edge"><title>Node1&#45;&gt;Node2</title>
<path fill="none" stroke="midnightblue" d="M117.663,-227.288C126.563,-228.866 135.609,-230.47 144.228,-231.998"/>
<polygon fill="midnightblue" stroke="midnightblue" points="118.166,-223.822 107.708,-225.523 116.944,-230.715 118.166,-223.822"/>
</g>
<!-- Node3 -->
<g id="node5" class="node"><title>Node3</title>
<a xlink:href="class_hover_race_1_1_control_1_1_player_effect_action.html" target="_top" xlink:title="HoverRace::Control\l::PlayerEffectAction">
<polygon fill="none" stroke="black" points="144.5,-175 144.5,-207 245.5,-207 245.5,-175 144.5,-175"/>
<text text-anchor="start" x="152.5" y="-194" font-family="FreeSans" font-size="10.00">HoverRace::Control</text>
<text text-anchor="middle" x="195" y="-182" font-family="FreeSans" font-size="10.00">::PlayerEffectAction</text>
</a>
</g>
<!-- Node1&#45;&gt;Node3 -->
<g id="edge4" class="edge"><title>Node1&#45;&gt;Node3</title>
<path fill="none" stroke="midnightblue" d="M117.663,-204.712C126.563,-203.134 135.609,-201.53 144.228,-200.002"/>
<polygon fill="midnightblue" stroke="midnightblue" points="116.944,-201.285 107.708,-206.477 118.166,-208.178 116.944,-201.285"/>
</g>
<!-- Node4 -->
<g id="node7" class="node"><title>Node4</title>
<a xlink:href="class_hover_race_1_1_control_1_1_brake_action.html" target="_top" xlink:title="HoverRace::Control\l::BrakeAction">
<polygon fill="none" stroke="black" points="282.5,-350 282.5,-382 383.5,-382 383.5,-350 282.5,-350"/>
<text text-anchor="start" x="290.5" y="-369" font-family="FreeSans" font-size="10.00">HoverRace::Control</text>
<text text-anchor="middle" x="333" y="-357" font-family="FreeSans" font-size="10.00">::BrakeAction</text>
</a>
</g>
<!-- Node3&#45;&gt;Node4 -->
<g id="edge6" class="edge"><title>Node3&#45;&gt;Node4</title>
<path fill="none" stroke="midnightblue" d="M244.095,-213.876C244.754,-214.565 245.39,-215.273 246,-216 283.144,-260.303 244.856,-296.697 282,-341 284.788,-344.325 288.123,-347.245 291.737,-349.802"/>
<polygon fill="midnightblue" stroke="midnightblue" points="246.143,-211.023 236.263,-207.198 241.602,-216.35 246.143,-211.023"/>
</g>
<!-- Node5 -->
<g id="node9" class="node"><title>Node5</title>
<a xlink:href="class_hover_race_1_1_control_1_1_change_item_action.html" target="_top" xlink:title="HoverRace::Control\l::ChangeItemAction">
<polygon fill="none" stroke="black" points="282.5,-300 282.5,-332 383.5,-332 383.5,-300 282.5,-300"/>
<text text-anchor="start" x="290.5" y="-319" font-family="FreeSans" font-size="10.00">HoverRace::Control</text>
<text text-anchor="middle" x="333" y="-307" font-family="FreeSans" font-size="10.00">::ChangeItemAction</text>
</a>
</g>
<!-- Node3&#45;&gt;Node5 -->
<g id="edge8" class="edge"><title>Node3&#45;&gt;Node5</title>
<path fill="none" stroke="midnightblue" d="M243.066,-213.254C244.082,-214.14 245.063,-215.055 246,-216 272.037,-242.253 255.963,-264.747 282,-291 285.333,-294.361 289.209,-297.34 293.307,-299.963"/>
<polygon fill="midnightblue" stroke="midnightblue" points="244.808,-210.188 234.693,-207.037 240.635,-215.809 244.808,-210.188"/>
</g>
<!-- Node6 -->
<g id="node11" class="node"><title>Node6</title>
<a xlink:href="class_hover_race_1_1_control_1_1_engine_action.html" target="_top" xlink:title="HoverRace::Control\l::EngineAction">
<polygon fill="none" stroke="black" points="282.5,-250 282.5,-282 383.5,-282 383.5,-250 282.5,-250"/>
<text text-anchor="start" x="290.5" y="-269" font-family="FreeSans" font-size="10.00">HoverRace::Control</text>
<text text-anchor="middle" x="333" y="-257" font-family="FreeSans" font-size="10.00">::EngineAction</text>
</a>
</g>
<!-- Node3&#45;&gt;Node6 -->
<g id="edge10" class="edge"><title>Node3&#45;&gt;Node6</title>
<path fill="none" stroke="midnightblue" d="M238.736,-211.892C241.213,-213.245 243.65,-214.619 246,-216 262.794,-225.871 265.206,-231.129 282,-241 287.186,-244.048 292.796,-247.063 298.333,-249.887"/>
<polygon fill="midnightblue" stroke="midnightblue" points="240.145,-208.678 229.667,-207.113 236.882,-214.871 240.145,-208.678"/>
</g>
<!-- Node7 -->
<g id="node13" class="node"><title>Node7</title>
<a xlink:href="class_hover_race_1_1_control_1_1_jump_action.html" target="_top" xlink:title="HoverRace::Control\l::JumpAction">
<polygon fill="none" stroke="black" points="282.5,-200 282.5,-232 383.5,-232 383.5,-200 282.5,-200"/>
<text text-anchor="start" x="290.5" y="-219" font-family="FreeSans" font-size="10.00">HoverRace::Control</text>
<text text-anchor="middle" x="333" y="-207" font-family="FreeSans" font-size="10.00">::JumpAction</text>
</a>
</g>
<!-- Node3&#45;&gt;Node7 -->
<g id="edge12" class="edge"><title>Node3&#45;&gt;Node7</title>
<path fill="none" stroke="midnightblue" d="M255.593,-201.977C264.543,-203.598 273.685,-205.255 282.404,-206.834"/>
<polygon fill="midnightblue" stroke="midnightblue" points="256.066,-198.506 245.603,-200.167 254.818,-205.394 256.066,-198.506"/>
</g>
<!-- Node8 -->
<g id="node15" class="node"><title>Node8</title>
<a xlink:href="class_hover_race_1_1_control_1_1_look_back_action.html" target="_top" xlink:title="HoverRace::Control\l::LookBackAction">
<polygon fill="none" stroke="black" points="282.5,-150 282.5,-182 383.5,-182 383.5,-150 282.5,-150"/>
<text text-anchor="start" x="290.5" y="-169" font-family="FreeSans" font-size="10.00">HoverRace::Control</text>
<text text-anchor="middle" x="333" y="-157" font-family="FreeSans" font-size="10.00">::LookBackAction</text>
</a>
</g>
<!-- Node3&#45;&gt;Node8 -->
<g id="edge14" class="edge"><title>Node3&#45;&gt;Node8</title>
<path fill="none" stroke="midnightblue" d="M255.593,-180.023C264.543,-178.402 273.685,-176.745 282.404,-175.166"/>
<polygon fill="midnightblue" stroke="midnightblue" points="254.818,-176.606 245.603,-181.833 256.066,-183.494 254.818,-176.606"/>
</g>
<!-- Node9 -->
<g id="node17" class="node"><title>Node9</title>
<a xlink:href="class_hover_race_1_1_control_1_1_powerup_action.html" target="_top" xlink:title="HoverRace::Control\l::PowerupAction">
<polygon fill="none" stroke="black" points="282.5,-100 282.5,-132 383.5,-132 383.5,-100 282.5,-100"/>
<text text-anchor="start" x="290.5" y="-119" font-family="FreeSans" font-size="10.00">HoverRace::Control</text>
<text text-anchor="middle" x="333" y="-107" font-family="FreeSans" font-size="10.00">::PowerupAction</text>
</a>
</g>
<!-- Node3&#45;&gt;Node9 -->
<g id="edge16" class="edge"><title>Node3&#45;&gt;Node9</title>
<path fill="none" stroke="midnightblue" d="M230.607,-169.83C246.242,-160.719 264.899,-150.093 282,-141 287.572,-138.037 293.546,-134.993 299.372,-132.094"/>
<polygon fill="midnightblue" stroke="midnightblue" points="228.645,-166.923 221.784,-174.997 232.182,-172.964 228.645,-166.923"/>
</g>
<!-- Node10 -->
<g id="node19" class="node"><title>Node10</title>
<a xlink:href="class_hover_race_1_1_control_1_1_turn_left_action.html" target="_top" xlink:title="HoverRace::Control\l::TurnLeftAction">
<polygon fill="none" stroke="black" points="282.5,-50 282.5,-82 383.5,-82 383.5,-50 282.5,-50"/>
<text text-anchor="start" x="290.5" y="-69" font-family="FreeSans" font-size="10.00">HoverRace::Control</text>
<text text-anchor="middle" x="333" y="-57" font-family="FreeSans" font-size="10.00">::TurnLeftAction</text>
</a>
</g>
<!-- Node3&#45;&gt;Node10 -->
<g id="edge18" class="edge"><title>Node3&#45;&gt;Node10</title>
<path fill="none" stroke="midnightblue" d="M211.893,-166.52C227.961,-144.6 253.812,-112.665 282,-91 286.222,-87.7551 290.932,-84.7668 295.736,-82.0712"/>
<polygon fill="midnightblue" stroke="midnightblue" points="209.027,-164.51 206.028,-174.672 214.709,-168.598 209.027,-164.51"/>
</g>
<!-- Node11 -->
<g id="node21" class="node"><title>Node11</title>
<a xlink:href="class_hover_race_1_1_control_1_1_turn_right_action.html" target="_top" xlink:title="HoverRace::Control\l::TurnRightAction">
<polygon fill="none" stroke="black" points="282.5,-0 282.5,-32 383.5,-32 383.5,-0 282.5,-0"/>
<text text-anchor="start" x="290.5" y="-19" font-family="FreeSans" font-size="10.00">HoverRace::Control</text>
<text text-anchor="middle" x="333" y="-7" font-family="FreeSans" font-size="10.00">::TurnRightAction</text>
</a>
</g>
<!-- Node3&#45;&gt;Node11 -->
<g id="edge20" class="edge"><title>Node3&#45;&gt;Node11</title>
<path fill="none" stroke="midnightblue" d="M204.437,-165.264C217.494,-132.696 243.855,-76.5709 282,-41 285.534,-37.7047 289.583,-34.755 293.821,-32.1393"/>
<polygon fill="midnightblue" stroke="midnightblue" points="201.031,-164.365 200.668,-174.954 207.555,-166.903 201.031,-164.365"/>
</g>
</g>
</svg>
