<?xml version="1.0" encoding="UTF-8" standalone="no"?>
<!DOCTYPE svg PUBLIC "-//W3C//DTD SVG 1.1//EN"
 "http://www.w3.org/Graphics/SVG/1.1/DTD/svg11.dtd">
<!-- Generated by graphviz version 2.26.3 (20100126.1600)
 -->
<!-- Title: Graphical Class Hierarchy Pages: 1 -->
<svg width="224pt" height="114pt"
 viewBox="0.00 0.00 224.00 114.00" xmlns="http://www.w3.org/2000/svg" xmlns:xlink="http://www.w3.org/1999/xlink">
<g id="graph1" class="graph" transform="scale(1 1) rotate(0) translate(4 110)">
<title>Graphical Class Hierarchy</title>
<!-- Node1 -->
<g id="node1" class="node"><title>Node1</title>
<polygon fill="none" stroke="#bfbfbf" points="0,-43 0,-63 54,-63 54,-43 0,-43"/>
<text text-anchor="middle" x="27" y="-50" font-family="FreeSans" font-size="10.00">stringbuf</text>
</g>
<!-- Node2 -->
<g id="node3" class="node"><title>Node2</title>
<a xlink:href="class_hover_race_1_1_client_1_1_hover_script_1_1_console_1_1_log_stream_buf.html" target="_top" xlink:title="HoverRace::Client::\lHoverScript::Console\l::LogStreamBuf">
<polygon fill="none" stroke="black" points="99,-62 99,-106 207,-106 207,-62 99,-62"/>
<text text-anchor="start" x="107" y="-93" font-family="FreeSans" font-size="10.00">HoverRace::Client::</text>
<text text-anchor="start" x="107" y="-81" font-family="FreeSans" font-size="10.00">HoverScript::Console</text>
<text text-anchor="middle" x="153" y="-69" font-family="FreeSans" font-size="10.00">::LogStreamBuf</text>
</a>
</g>
<!-- Node1&#45;&gt;Node2 -->
<g id="edge2" class="edge"><title>Node1&#45;&gt;Node2</title>
<path fill="none" stroke="midnightblue" d="M64.0331,-62.1113C74.9243,-64.7909 87.0704,-67.7792 98.8013,-70.6654"/>
<polygon fill="midnightblue" stroke="midnightblue" points="64.5768,-58.6408 54.0302,-59.6503 62.9044,-65.4381 64.5768,-58.6408"/>
</g>
<!-- Node3 -->
<g id="node5" class="node"><title>Node3</title>
<a xlink:href="class_hover_race_1_1_client_1_1_hover_script_1_1_runtime_env_1_1_log_stream_buf.html" target="_top" xlink:title="HoverRace::Client::\lHoverScript::RuntimeEnv\l::LogStreamBuf">
<polygon fill="none" stroke="black" points="90.5,-0 90.5,-44 215.5,-44 215.5,-0 90.5,-0"/>
<text text-anchor="start" x="98.5" y="-31" font-family="FreeSans" font-size="10.00">HoverRace::Client::</text>
<text text-anchor="start" x="98.5" y="-19" font-family="FreeSans" font-size="10.00">HoverScript::RuntimeEnv</text>
<text text-anchor="middle" x="153" y="-7" font-family="FreeSans" font-size="10.00">::LogStreamBuf</text>
</a>
</g>
<!-- Node1&#45;&gt;Node3 -->
<g id="edge4" class="edge"><title>Node1&#45;&gt;Node3</title>
<path fill="none" stroke="midnightblue" d="M63.7821,-43.9504C72.1219,-41.8986 81.2076,-39.6632 90.2855,-37.4298"/>
<polygon fill="midnightblue" stroke="midnightblue" points="62.9044,-40.5619 54.0302,-46.3497 64.5768,-47.3592 62.9044,-40.5619"/>
</g>
</g>
</svg>
