<?xml version="1.0" encoding="UTF-8" standalone="no"?>
<!DOCTYPE svg PUBLIC "-//W3C//DTD SVG 1.1//EN"
 "http://www.w3.org/Graphics/SVG/1.1/DTD/svg11.dtd">
<!-- Generated by graphviz version 2.26.3 (20100126.1600)
 -->
<!-- Title: Graphical Class Hierarchy Pages: 1 -->
<svg width="264pt" height="140pt"
 viewBox="0.00 0.00 264.00 140.00" xmlns="http://www.w3.org/2000/svg" xmlns:xlink="http://www.w3.org/1999/xlink">
<g id="graph1" class="graph" transform="scale(1 1) rotate(0) translate(4 136)">
<title>Graphical Class Hierarchy</title>
<!-- Node1 -->
<g id="node1" class="node"><title>Node1</title>
<a xlink:href="class_hover_race_1_1_util_1_1yaml_1_1_node.html" target="_top" xlink:title="Base class for LibYAML document nodes. ">
<polygon fill="none" stroke="black" points="0,-50 0,-82 110,-82 110,-50 0,-50"/>
<text text-anchor="start" x="8" y="-69" font-family="FreeSans" font-size="10.00">HoverRace::Util::yaml</text>
<text text-anchor="middle" x="55" y="-57" font-family="FreeSans" font-size="10.00">::Node</text>
</a>
</g>
<!-- Node2 -->
<g id="node3" class="node"><title>Node2</title>
<a xlink:href="class_hover_race_1_1_util_1_1yaml_1_1_map_node.html" target="_top" xlink:title="HoverRace::Util::yaml\l::MapNode">
<polygon fill="none" stroke="black" points="146,-100 146,-132 256,-132 256,-100 146,-100"/>
<text text-anchor="start" x="154" y="-119" font-family="FreeSans" font-size="10.00">HoverRace::Util::yaml</text>
<text text-anchor="middle" x="201" y="-107" font-family="FreeSans" font-size="10.00">::MapNode</text>
</a>
</g>
<!-- Node1&#45;&gt;Node2 -->
<g id="edge2" class="edge"><title>Node1&#45;&gt;Node2</title>
<path fill="none" stroke="midnightblue" d="M111.569,-85.373C125.63,-90.1884 140.549,-95.2976 154.089,-99.9346"/>
<polygon fill="midnightblue" stroke="midnightblue" points="112.594,-82.0243 101.999,-82.0955 110.326,-88.6467 112.594,-82.0243"/>
</g>
<!-- Node3 -->
<g id="node5" class="node"><title>Node3</title>
<a xlink:href="class_hover_race_1_1_util_1_1yaml_1_1_scalar_node.html" target="_top" xlink:title="Wrapper for LibYAML scalar nodes. ">
<polygon fill="none" stroke="black" points="146,-50 146,-82 256,-82 256,-50 146,-50"/>
<text text-anchor="start" x="154" y="-69" font-family="FreeSans" font-size="10.00">HoverRace::Util::yaml</text>
<text text-anchor="middle" x="201" y="-57" font-family="FreeSans" font-size="10.00">::ScalarNode</text>
</a>
</g>
<!-- Node1&#45;&gt;Node3 -->
<g id="edge4" class="edge"><title>Node1&#45;&gt;Node3</title>
<path fill="none" stroke="midnightblue" d="M120.41,-66C128.865,-66 137.457,-66 145.726,-66"/>
<polygon fill="midnightblue" stroke="midnightblue" points="120.196,-62.5001 110.196,-66 120.196,-69.5001 120.196,-62.5001"/>
</g>
<!-- Node4 -->
<g id="node7" class="node"><title>Node4</title>
<a xlink:href="class_hover_race_1_1_util_1_1yaml_1_1_seq_node.html" target="_top" xlink:title="HoverRace::Util::yaml\l::SeqNode">
<polygon fill="none" stroke="black" points="146,-0 146,-32 256,-32 256,-0 146,-0"/>
<text text-anchor="start" x="154" y="-19" font-family="FreeSans" font-size="10.00">HoverRace::Util::yaml</text>
<text text-anchor="middle" x="201" y="-7" font-family="FreeSans" font-size="10.00">::SeqNode</text>
</a>
</g>
<!-- Node1&#45;&gt;Node4 -->
<g id="edge6" class="edge"><title>Node1&#45;&gt;Node4</title>
<path fill="none" stroke="midnightblue" d="M111.569,-46.627C125.63,-41.8116 140.549,-36.7024 154.089,-32.0654"/>
<polygon fill="midnightblue" stroke="midnightblue" points="110.326,-43.3533 101.999,-49.9045 112.594,-49.9757 110.326,-43.3533"/>
</g>
</g>
</svg>
