<?xml version="1.0" encoding="UTF-8" standalone="no"?>
<!DOCTYPE svg PUBLIC "-//W3C//DTD SVG 1.1//EN"
 "http://www.w3.org/Graphics/SVG/1.1/DTD/svg11.dtd">
<!-- Generated by graphviz version 2.38.0 (20140413.2041)
 -->
<!-- Title: Graphical Class Hierarchy Pages: 1 -->
<svg width="298pt" height="382pt"
 viewBox="0.00 0.00 298.00 382.00" xmlns="http://www.w3.org/2000/svg" xmlns:xlink="http://www.w3.org/1999/xlink">
<g id="graph0" class="graph" transform="scale(1 1) rotate(0) translate(4 378)">
<title>Graphical Class Hierarchy</title>
<!-- Node1 -->
<g id="node1" class="node"><title>Node1</title>
<g id="a_node1"><a xlink:href="class_hover_race_1_1_script_1_1_peer.html" target="_top" xlink:title="Base class for script peers. ">
<polygon fill="none" stroke="black" points="0,-177 0,-196 124,-196 124,-177 0,-177"/>
<text text-anchor="middle" x="62" y="-184" font-family="Helvetica,sans-Serif" font-size="10.00">HoverRace::Script::Peer</text>
</a>
</g>
</g>
<!-- Node2 -->
<g id="node2" class="node"><title>Node2</title>
<g id="a_node2"><a xlink:href="class_hover_race_1_1_client_1_1_hover_script_1_1_config_peer.html" target="_top" xlink:title="Scripting peer for access to the game configuration. ">
<polygon fill="none" stroke="black" points="163.5,-343.5 163.5,-373.5 286.5,-373.5 286.5,-343.5 163.5,-343.5"/>
<text text-anchor="start" x="171.5" y="-361.5" font-family="Helvetica,sans-Serif" font-size="10.00">HoverRace::Client::</text>
<text text-anchor="middle" x="225" y="-350.5" font-family="Helvetica,sans-Serif" font-size="10.00">HoverScript::ConfigPeer</text>
</a>
</g>
</g>
<!-- Node1&#45;&gt;Node2 -->
<g id="edge1" class="edge"><title>Node1&#45;&gt;Node2</title>
<path fill="none" stroke="midnightblue" d="M70.7876,-205.651C84.3998,-236.867 115.384,-298.81 160,-334.5 164.263,-337.91 169.06,-340.869 174.062,-343.43"/>
<polygon fill="midnightblue" stroke="midnightblue" points="73.962,-204.171 66.8427,-196.325 67.5151,-206.898 73.962,-204.171"/>
</g>
<!-- Node3 -->
<g id="node3" class="node"><title>Node3</title>
<g id="a_node3"><a xlink:href="class_hover_race_1_1_client_1_1_hover_script_1_1_debug_peer.html" target="_top" xlink:title="Provides access to debugging tools. ">
<polygon fill="none" stroke="black" points="163.5,-294.5 163.5,-324.5 286.5,-324.5 286.5,-294.5 163.5,-294.5"/>
<text text-anchor="start" x="171.5" y="-312.5" font-family="Helvetica,sans-Serif" font-size="10.00">HoverRace::Client::</text>
<text text-anchor="middle" x="225" y="-301.5" font-family="Helvetica,sans-Serif" font-size="10.00">HoverScript::DebugPeer</text>
</a>
</g>
</g>
<!-- Node1&#45;&gt;Node3 -->
<g id="edge2" class="edge"><title>Node1&#45;&gt;Node3</title>
<path fill="none" stroke="midnightblue" d="M76.1952,-204.086C93.3536,-225.875 125.264,-262.881 160,-285.5 165.171,-288.867 170.882,-291.857 176.7,-294.483"/>
<polygon fill="midnightblue" stroke="midnightblue" points="78.8544,-201.803 69.9744,-196.025 73.3125,-206.08 78.8544,-201.803"/>
</g>
<!-- Node4 -->
<g id="node4" class="node"><title>Node4</title>
<g id="a_node4"><a xlink:href="class_hover_race_1_1_client_1_1_hover_script_1_1_game_peer.html" target="_top" xlink:title="Scripting peer for system&#45;level control of the game. ">
<polygon fill="none" stroke="black" points="164.5,-245.5 164.5,-275.5 285.5,-275.5 285.5,-245.5 164.5,-245.5"/>
<text text-anchor="start" x="172.5" y="-263.5" font-family="Helvetica,sans-Serif" font-size="10.00">HoverRace::Client::</text>
<text text-anchor="middle" x="225" y="-252.5" font-family="Helvetica,sans-Serif" font-size="10.00">HoverScript::GamePeer</text>
</a>
</g>
</g>
<!-- Node1&#45;&gt;Node4 -->
<g id="edge3" class="edge"><title>Node1&#45;&gt;Node4</title>
<path fill="none" stroke="midnightblue" d="M89.0265,-200.972C108.329,-211.444 135.441,-225.611 160,-236.5 166.943,-239.578 174.414,-242.618 181.716,-245.445"/>
<polygon fill="midnightblue" stroke="midnightblue" points="90.6766,-197.886 80.2235,-196.159 87.3182,-204.027 90.6766,-197.886"/>
</g>
<!-- Node5 -->
<g id="node5" class="node"><title>Node5</title>
<g id="a_node5"><a xlink:href="class_hover_race_1_1_client_1_1_hover_script_1_1_hud_peer.html" target="_top" xlink:title="Scripting peer for access to the HUD for a player. ">
<polygon fill="none" stroke="black" points="168.5,-196.5 168.5,-226.5 281.5,-226.5 281.5,-196.5 168.5,-196.5"/>
<text text-anchor="start" x="176.5" y="-214.5" font-family="Helvetica,sans-Serif" font-size="10.00">HoverRace::Client::</text>
<text text-anchor="middle" x="225" y="-203.5" font-family="Helvetica,sans-Serif" font-size="10.00">HoverScript::HudPeer</text>
</a>
</g>
</g>
<!-- Node1&#45;&gt;Node5 -->
<g id="edge4" class="edge"><title>Node1&#45;&gt;Node5</title>
<path fill="none" stroke="midnightblue" d="M134.284,-197.569C145.714,-199.344 157.396,-201.158 168.391,-202.865"/>
<polygon fill="midnightblue" stroke="midnightblue" points="134.745,-194.099 124.326,-196.023 133.671,-201.016 134.745,-194.099"/>
</g>
<!-- Node6 -->
<g id="node6" class="node"><title>Node6</title>
<g id="a_node6"><a xlink:href="class_hover_race_1_1_client_1_1_hover_script_1_1_input_peer.html" target="_top" xlink:title="Scripting peer for input. ">
<polygon fill="none" stroke="black" points="167,-147.5 167,-177.5 283,-177.5 283,-147.5 167,-147.5"/>
<text text-anchor="start" x="175" y="-165.5" font-family="Helvetica,sans-Serif" font-size="10.00">HoverRace::Client::</text>
<text text-anchor="middle" x="225" y="-154.5" font-family="Helvetica,sans-Serif" font-size="10.00">HoverScript::InputPeer</text>
</a>
</g>
</g>
<!-- Node1&#45;&gt;Node6 -->
<g id="edge5" class="edge"><title>Node1&#45;&gt;Node6</title>
<path fill="none" stroke="midnightblue" d="M134.247,-175.879C145.146,-174.255 156.273,-172.596 166.817,-171.024"/>
<polygon fill="midnightblue" stroke="midnightblue" points="133.701,-172.422 124.326,-177.358 134.733,-179.345 133.701,-172.422"/>
</g>
<!-- Node7 -->
<g id="node7" class="node"><title>Node7</title>
<g id="a_node7"><a xlink:href="class_hover_race_1_1_client_1_1_hover_script_1_1_player_peer.html" target="_top" xlink:title="Scripting peer for players (main characters). ">
<polygon fill="none" stroke="black" points="164,-98.5 164,-128.5 286,-128.5 286,-98.5 164,-98.5"/>
<text text-anchor="start" x="172" y="-116.5" font-family="Helvetica,sans-Serif" font-size="10.00">HoverRace::Client::</text>
<text text-anchor="middle" x="225" y="-105.5" font-family="Helvetica,sans-Serif" font-size="10.00">HoverScript::PlayerPeer</text>
</a>
</g>
</g>
<!-- Node1&#45;&gt;Node7 -->
<g id="edge6" class="edge"><title>Node1&#45;&gt;Node7</title>
<path fill="none" stroke="midnightblue" d="M90.1097,-172.293C109.397,-162.381 136.034,-149.087 160,-138.5 167.638,-135.126 175.884,-131.728 183.835,-128.571"/>
<polygon fill="midnightblue" stroke="midnightblue" points="88.2865,-169.296 81.0115,-176.998 91.5018,-175.514 88.2865,-169.296"/>
</g>
<!-- Node8 -->
<g id="node8" class="node"><title>Node8</title>
<g id="a_node8"><a xlink:href="class_hover_race_1_1_client_1_1_hover_script_1_1_session_peer.html" target="_top" xlink:title="Scripting peer for a game session. ">
<polygon fill="none" stroke="black" points="160,-49.5 160,-79.5 290,-79.5 290,-49.5 160,-49.5"/>
<text text-anchor="start" x="168" y="-67.5" font-family="Helvetica,sans-Serif" font-size="10.00">HoverRace::Client::</text>
<text text-anchor="middle" x="225" y="-56.5" font-family="Helvetica,sans-Serif" font-size="10.00">HoverScript::SessionPeer</text>
</a>
</g>
</g>
<!-- Node1&#45;&gt;Node8 -->
<g id="edge7" class="edge"><title>Node1&#45;&gt;Node8</title>
<path fill="none" stroke="midnightblue" d="M76.5877,-169.033C93.9388,-147.737 125.833,-111.831 160,-89.5 165.692,-85.78 172.021,-82.4772 178.423,-79.5902"/>
<polygon fill="midnightblue" stroke="midnightblue" points="73.7857,-166.933 70.2762,-176.93 79.2537,-171.304 73.7857,-166.933"/>
</g>
<!-- Node9 -->
<g id="node9" class="node"><title>Node9</title>
<g id="a_node9"><a xlink:href="class_hover_race_1_1_client_1_1_hover_script_1_1_track_peer.html" target="_top" xlink:title="Scripting peer for the currently&#45;played track. ">
<polygon fill="none" stroke="black" points="165.5,-0.5 165.5,-30.5 284.5,-30.5 284.5,-0.5 165.5,-0.5"/>
<text text-anchor="start" x="173.5" y="-18.5" font-family="Helvetica,sans-Serif" font-size="10.00">HoverRace::Client::</text>
<text text-anchor="middle" x="225" y="-7.5" font-family="Helvetica,sans-Serif" font-size="10.00">HoverScript::TrackPeer</text>
</a>
</g>
</g>
<!-- Node1&#45;&gt;Node9 -->
<g id="edge8" class="edge"><title>Node1&#45;&gt;Node9</title>
<path fill="none" stroke="midnightblue" d="M70.9114,-167.677C84.7015,-136.982 115.936,-76.0158 160,-40.5 164.737,-36.6823 170.126,-33.3935 175.72,-30.5744"/>
<polygon fill="midnightblue" stroke="midnightblue" points="67.7022,-166.28 66.9102,-176.846 74.1179,-169.08 67.7022,-166.28"/>
</g>
</g>
</svg>
