<?xml version="1.0" encoding="UTF-8" standalone="no"?>
<!DOCTYPE svg PUBLIC "-//W3C//DTD SVG 1.1//EN"
 "http://www.w3.org/Graphics/SVG/1.1/DTD/svg11.dtd">
<!-- Generated by graphviz version 2.26.3 (20100126.1600)
 -->
<!-- Title: Graphical Class Hierarchy Pages: 1 -->
<svg width="468pt" height="166pt"
 viewBox="0.00 0.00 468.00 166.00" xmlns="http://www.w3.org/2000/svg" xmlns:xlink="http://www.w3.org/1999/xlink">
<g id="graph1" class="graph" transform="scale(1 1) rotate(0) translate(4 162)">
<title>Graphical Class Hierarchy</title>
<!-- Node1 -->
<g id="node1" class="node"><title>Node1</title>
<a xlink:href="class_hover_race_1_1_util_1_1_inspectable.html" target="_top" xlink:title="HoverRace::Util::Inspectable">
<polygon fill="none" stroke="black" points="0,-78 0,-98 140,-98 140,-78 0,-78"/>
<text text-anchor="middle" x="70" y="-85" font-family="FreeSans" font-size="10.00">HoverRace::Util::Inspectable</text>
</a>
</g>
<!-- Node2 -->
<g id="node3" class="node"><title>Node2</title>
<a xlink:href="class_hover_race_1_1_model_1_1_track.html" target="_top" xlink:title="A track level.">
<polygon fill="none" stroke="black" points="187.5,-138 187.5,-158 312.5,-158 312.5,-138 187.5,-138"/>
<text text-anchor="middle" x="250" y="-145" font-family="FreeSans" font-size="10.00">HoverRace::Model::Track</text>
</a>
</g>
<!-- Node1&#45;&gt;Node2 -->
<g id="edge2" class="edge"><title>Node1&#45;&gt;Node2</title>
<path fill="none" stroke="midnightblue" d="M103.02,-101.928C123.756,-110.384 151.182,-121.045 176,-129 186.105,-132.239 197.121,-135.309 207.491,-138"/>
<polygon fill="midnightblue" stroke="midnightblue" points="104.288,-98.6647 93.7088,-98.0953 101.624,-105.138 104.288,-98.6647"/>
</g>
<!-- Node3 -->
<g id="node5" class="node"><title>Node3</title>
<a xlink:href="class_hover_race_1_1_model_1_1_track_entry.html" target="_top" xlink:title="The metadata for a track.">
<polygon fill="none" stroke="black" points="176.5,-100 176.5,-120 323.5,-120 323.5,-100 176.5,-100"/>
<text text-anchor="middle" x="250" y="-107" font-family="FreeSans" font-size="10.00">HoverRace::Model::TrackEntry</text>
</a>
</g>
<!-- Node1&#45;&gt;Node3 -->
<g id="edge4" class="edge"><title>Node1&#45;&gt;Node3</title>
<path fill="none" stroke="midnightblue" d="M150.198,-97.802C158.858,-98.8604 167.64,-99.9338 176.219,-100.982"/>
<polygon fill="midnightblue" stroke="midnightblue" points="150.459,-94.3079 140.108,-96.5688 149.61,-101.256 150.459,-94.3079"/>
</g>
<!-- Node4 -->
<g id="node7" class="node"><title>Node4</title>
<a xlink:href="class_hover_race_1_1_parcel_1_1_classic_record_file_header.html" target="_top" xlink:title="HoverRace::Parcel:\l:ClassicRecordFileHeader">
<polygon fill="none" stroke="black" points="185.5,-50 185.5,-82 314.5,-82 314.5,-50 185.5,-50"/>
<text text-anchor="start" x="193.5" y="-69" font-family="FreeSans" font-size="10.00">HoverRace::Parcel:</text>
<text text-anchor="middle" x="250" y="-57" font-family="FreeSans" font-size="10.00">:ClassicRecordFileHeader</text>
</a>
</g>
<!-- Node1&#45;&gt;Node4 -->
<g id="edge6" class="edge"><title>Node1&#45;&gt;Node4</title>
<path fill="none" stroke="midnightblue" d="M150.337,-78.181C162.065,-76.7476 174.014,-75.2872 185.375,-73.8986"/>
<polygon fill="midnightblue" stroke="midnightblue" points="149.61,-74.7438 140.108,-79.4312 150.459,-81.6921 149.61,-74.7438"/>
</g>
<!-- Node5 -->
<g id="node9" class="node"><title>Node5</title>
<a xlink:href="class_hover_race_1_1_parcel_1_1_record_file.html" target="_top" xlink:title="Base class for parcel implementations.">
<polygon fill="none" stroke="black" points="200,-0 200,-32 300,-32 300,-0 200,-0"/>
<text text-anchor="start" x="208" y="-19" font-family="FreeSans" font-size="10.00">HoverRace::Parcel:</text>
<text text-anchor="middle" x="250" y="-7" font-family="FreeSans" font-size="10.00">:RecordFile</text>
</a>
</g>
<!-- Node1&#45;&gt;Node5 -->
<g id="edge8" class="edge"><title>Node1&#45;&gt;Node5</title>
<path fill="none" stroke="midnightblue" d="M100.357,-73.6526C121.384,-63.9343 150.137,-51.078 176,-41 183.834,-37.9474 192.214,-34.907 200.415,-32.052"/>
<polygon fill="midnightblue" stroke="midnightblue" points="98.8684,-70.4847 91.2773,-77.8757 101.821,-76.8318 98.8684,-70.4847"/>
</g>
<!-- Node6 -->
<g id="node11" class="node"><title>Node6</title>
<a xlink:href="class_hover_race_1_1_parcel_1_1_classic_record_file.html" target="_top" xlink:title="Standard HoverRace 1.x parcel format.">
<polygon fill="none" stroke="black" points="360,-0 360,-32 460,-32 460,-0 360,-0"/>
<text text-anchor="start" x="368" y="-19" font-family="FreeSans" font-size="10.00">HoverRace::Parcel:</text>
<text text-anchor="middle" x="410" y="-7" font-family="FreeSans" font-size="10.00">:ClassicRecordFile</text>
</a>
</g>
<!-- Node5&#45;&gt;Node6 -->
<g id="edge10" class="edge"><title>Node5&#45;&gt;Node6</title>
<path fill="none" stroke="midnightblue" d="M310.222,-16C326.629,-16 344.22,-16 359.992,-16"/>
<polygon fill="midnightblue" stroke="midnightblue" points="310.186,-12.5001 300.186,-16 310.186,-19.5001 310.186,-12.5001"/>
</g>
</g>
</svg>
