<?xml version="1.0" encoding="UTF-8" standalone="no"?>
<!DOCTYPE svg PUBLIC "-//W3C//DTD SVG 1.1//EN"
 "http://www.w3.org/Graphics/SVG/1.1/DTD/svg11.dtd">
<!-- Generated by graphviz version 2.26.3 (20100126.1600)
 -->
<!-- Title: Graphical Class Hierarchy Pages: 1 -->
<svg width="310pt" height="90pt"
 viewBox="0.00 0.00 310.00 90.00" xmlns="http://www.w3.org/2000/svg" xmlns:xlink="http://www.w3.org/1999/xlink">
<g id="graph1" class="graph" transform="scale(1 1) rotate(0) translate(4 86)">
<title>Graphical Class Hierarchy</title>
<!-- Node1 -->
<g id="node1" class="node"><title>Node1</title>
<a xlink:href="class_hover_race_1_1_video_services_1_1_sprite.html" target="_top" xlink:title="HoverRace::VideoServices\l::Sprite">
<polygon fill="none" stroke="black" points="0.5,-25 0.5,-57 133.5,-57 133.5,-25 0.5,-25"/>
<text text-anchor="start" x="8.5" y="-44" font-family="FreeSans" font-size="10.00">HoverRace::VideoServices</text>
<text text-anchor="middle" x="67" y="-32" font-family="FreeSans" font-size="10.00">::Sprite</text>
</a>
</g>
<!-- Node2 -->
<g id="node3" class="node"><title>Node2</title>
<a xlink:href="class_hover_race_1_1_maze_compiler_1_1_map_sprite.html" target="_top" xlink:title="HoverRace::MazeCompiler\l::MapSprite">
<polygon fill="none" stroke="black" points="170.5,-50 170.5,-82 301.5,-82 301.5,-50 170.5,-50"/>
<text text-anchor="start" x="178.5" y="-69" font-family="FreeSans" font-size="10.00">HoverRace::MazeCompiler</text>
<text text-anchor="middle" x="236" y="-57" font-family="FreeSans" font-size="10.00">::MapSprite</text>
</a>
</g>
<!-- Node1&#45;&gt;Node2 -->
<g id="edge2" class="edge"><title>Node1&#45;&gt;Node2</title>
<path fill="none" stroke="midnightblue" d="M143.723,-52.3496C152.58,-53.6597 161.551,-54.9869 170.244,-56.2728"/>
<polygon fill="midnightblue" stroke="midnightblue" points="144.198,-48.8818 133.793,-50.8807 143.173,-55.8064 144.198,-48.8818"/>
</g>
<!-- Node3 -->
<g id="node5" class="node"><title>Node3</title>
<a xlink:href="class_hover_race_1_1_obj_fac_tools_1_1_res_sprite.html" target="_top" xlink:title="HoverRace::ObjFacTools\l::ResSprite">
<polygon fill="none" stroke="black" points="173.5,-0 173.5,-32 298.5,-32 298.5,-0 173.5,-0"/>
<text text-anchor="start" x="181.5" y="-19" font-family="FreeSans" font-size="10.00">HoverRace::ObjFacTools</text>
<text text-anchor="middle" x="236" y="-7" font-family="FreeSans" font-size="10.00">::ResSprite</text>
</a>
</g>
<!-- Node1&#45;&gt;Node3 -->
<g id="edge4" class="edge"><title>Node1&#45;&gt;Node3</title>
<path fill="none" stroke="midnightblue" d="M143.949,-29.617C153.764,-28.165 163.716,-26.6929 173.27,-25.2797"/>
<polygon fill="midnightblue" stroke="midnightblue" points="143.173,-26.1936 133.793,-31.1193 144.198,-33.1182 143.173,-26.1936"/>
</g>
</g>
</svg>
