<?xml version="1.0" encoding="UTF-8" standalone="no"?>
<!DOCTYPE svg PUBLIC "-//W3C//DTD SVG 1.1//EN"
 "http://www.w3.org/Graphics/SVG/1.1/DTD/svg11.dtd">
<!-- Generated by graphviz version 2.26.3 (20100126.1600)
 -->
<!-- Title: main.cpp Pages: 1 -->
<svg width="1550pt" height="704pt"
 viewBox="0.00 0.00 1550.46 704.00" xmlns="http://www.w3.org/2000/svg" xmlns:xlink="http://www.w3.org/1999/xlink">
<g id="graph1" class="graph" transform="scale(1 1) rotate(0) translate(4 700)">
<title>main.cpp</title>
<!-- Node1 -->
<g id="node1" class="node"><title>Node1</title>
<polygon fill="#bfbfbf" stroke="black" points="381,-675 381,-695 437,-695 437,-675 381,-675"/>
<text text-anchor="middle" x="409" y="-682" font-family="FreeSans" font-size="10.00">main.cpp</text>
</g>
<!-- Node2 -->
<g id="node3" class="node"><title>Node2</title>
<polygon fill="none" stroke="#bfbfbf" points="0,-617 0,-637 54,-637 54,-617 0,-617"/>
<text text-anchor="middle" x="27" y="-624" font-family="FreeSans" font-size="10.00">iostream</text>
</g>
<!-- Node1&#45;&gt;Node2 -->
<g id="edge2" class="edge"><title>Node1&#45;&gt;Node2</title>
<path fill="none" stroke="midnightblue" d="M380.925,-682.736C323.227,-677.753 187.085,-664.304 63.9742,-637.934"/>
<polygon fill="midnightblue" stroke="midnightblue" points="64.5183,-634.47 54.0026,-635.763 63.0292,-641.31 64.5183,-634.47"/>
</g>
<!-- Node3 -->
<g id="node5" class="node"><title>Node3</title>
<polygon fill="none" stroke="#bfbfbf" points="71.5,-617 71.5,-637 130.5,-637 130.5,-617 71.5,-617"/>
<text text-anchor="middle" x="101" y="-624" font-family="FreeSans" font-size="10.00">curl/curl.h</text>
</g>
<!-- Node1&#45;&gt;Node3 -->
<g id="edge4" class="edge"><title>Node1&#45;&gt;Node3</title>
<path fill="none" stroke="midnightblue" d="M380.626,-680.683C331.982,-673.123 229.63,-656.519 144,-638 142.908,-637.764 141.802,-637.519 140.686,-637.268"/>
<polygon fill="midnightblue" stroke="midnightblue" points="141.076,-633.763 130.539,-634.867 139.464,-640.575 141.076,-633.763"/>
</g>
<!-- Node4 -->
<g id="node7" class="node"><title>Node4</title>
<a xlink:href="_exception_8h.html" target="_top" xlink:title="../../engine/Exception.h">
<polygon fill="none" stroke="black" points="665.5,-117 665.5,-137 778.5,-137 778.5,-117 665.5,-117"/>
<text text-anchor="middle" x="722" y="-124" font-family="FreeSans" font-size="10.00">../../engine/Exception.h</text>
</a>
</g>
<!-- Node1&#45;&gt;Node4 -->
<g id="edge6" class="edge"><title>Node1&#45;&gt;Node4</title>
<path fill="none" stroke="midnightblue" d="M437.25,-683.16C530.106,-676.349 820,-648.702 820,-569 820,-569 820,-569 820,-441 820,-404.023 822.797,-389.87 801,-360 782.669,-334.879 757.605,-350.294 741,-324 705.918,-268.447 712.644,-185.972 718.295,-147.788"/>
<polygon fill="midnightblue" stroke="midnightblue" points="721.827,-147.869 719.966,-137.439 714.917,-146.753 721.827,-147.869"/>
</g>
<!-- Node6 -->
<g id="node11" class="node"><title>Node6</title>
<a xlink:href="_config_8h.html" target="_top" xlink:title="../../engine/Util/Config.h">
<polygon fill="none" stroke="black" points="308,-617 308,-637 424,-637 424,-617 308,-617"/>
<text text-anchor="middle" x="366" y="-624" font-family="FreeSans" font-size="10.00">../../engine/Util/Config.h</text>
</a>
</g>
<!-- Node1&#45;&gt;Node6 -->
<g id="edge10" class="edge"><title>Node1&#45;&gt;Node6</title>
<path fill="none" stroke="midnightblue" d="M401.51,-674.897C395.541,-666.846 387.02,-655.353 379.822,-645.643"/>
<polygon fill="midnightblue" stroke="midnightblue" points="382.461,-643.326 373.694,-637.378 376.838,-647.495 382.461,-643.326"/>
</g>
<!-- Node8 -->
<g id="node15" class="node"><title>Node8</title>
<a xlink:href="_o_s_8h.html" target="_top" xlink:title="OS.h">
<polygon fill="none" stroke="black" points="400,-117 400,-137 438,-137 438,-117 400,-117"/>
<text text-anchor="middle" x="419" y="-124" font-family="FreeSans" font-size="10.00">OS.h</text>
</a>
</g>
<!-- Node1&#45;&gt;Node8 -->
<g id="edge40" class="edge"><title>Node1&#45;&gt;Node8</title>
<path fill="none" stroke="midnightblue" d="M416.052,-674.736C421.893,-665.571 429.743,-651.54 433,-638 441.316,-603.431 438.794,-593.08 433,-558 419.298,-475.048 378,-461.076 378,-377 378,-377 378,-377 378,-249 378,-210.874 396.213,-169.375 408.361,-145.935"/>
<polygon fill="midnightblue" stroke="midnightblue" points="411.481,-147.524 413.126,-137.058 405.313,-144.214 411.481,-147.524"/>
</g>
<!-- Node16 -->
<g id="node31" class="node"><title>Node16</title>
<a xlink:href="_locale_8h.html" target="_top" xlink:title="../../engine/Util/Locale.h">
<polygon fill="none" stroke="black" points="194,-175 194,-195 312,-195 312,-175 194,-175"/>
<text text-anchor="middle" x="253" y="-182" font-family="FreeSans" font-size="10.00">../../engine/Util/Locale.h</text>
</a>
</g>
<!-- Node1&#45;&gt;Node16 -->
<g id="edge30" class="edge"><title>Node1&#45;&gt;Node16</title>
<path fill="none" stroke="midnightblue" d="M380.749,-682.923C325.569,-678.3 206.291,-665.341 177,-638 153.748,-616.295 158,-600.808 158,-569 158,-569 158,-569 158,-313 158,-264.847 201.888,-223.019 230.003,-201.164"/>
<polygon fill="midnightblue" stroke="midnightblue" points="232.264,-203.843 238.156,-195.037 228.059,-198.247 232.264,-203.843"/>
</g>
<!-- Node17 -->
<g id="node35" class="node"><title>Node17</title>
<a xlink:href="_log_8h.html" target="_top" xlink:title="../../engine/Util/Log.h">
<polygon fill="none" stroke="black" points="185.5,-617 185.5,-637 290.5,-637 290.5,-617 185.5,-617"/>
<text text-anchor="middle" x="238" y="-624" font-family="FreeSans" font-size="10.00">../../engine/Util/Log.h</text>
</a>
</g>
<!-- Node1&#45;&gt;Node17 -->
<g id="edge36" class="edge"><title>Node1&#45;&gt;Node17</title>
<path fill="none" stroke="midnightblue" d="M380.763,-675.422C352.601,-665.871 309.101,-651.116 277.517,-640.403"/>
<polygon fill="midnightblue" stroke="midnightblue" points="278.31,-636.977 267.716,-637.079 276.062,-643.606 278.31,-636.977"/>
</g>
<!-- Node19 -->
<g id="node40" class="node"><title>Node19</title>
<a xlink:href="_str_8h.html" target="_top" xlink:title="../../engine/Util/Str.h">
<polygon fill="none" stroke="black" points="405.5,-431 405.5,-451 506.5,-451 506.5,-431 405.5,-431"/>
<text text-anchor="middle" x="456" y="-438" font-family="FreeSans" font-size="10.00">../../engine/Util/Str.h</text>
</a>
</g>
<!-- Node1&#45;&gt;Node19 -->
<g id="edge42" class="edge"><title>Node1&#45;&gt;Node19</title>
<path fill="none" stroke="midnightblue" d="M428.504,-674.97C441.779,-666.954 458.287,-654.357 466,-638 494.05,-578.516 474.388,-497.416 462.813,-460.606"/>
<polygon fill="midnightblue" stroke="midnightblue" points="466.124,-459.469 459.675,-451.063 459.474,-461.656 466.124,-459.469"/>
</g>
<!-- Node20 -->
<g id="node43" class="node"><title>Node20</title>
<a xlink:href="_client_app_8h.html" target="_top" xlink:title="ClientApp.h">
<polygon fill="none" stroke="black" points="545,-617 545,-637 611,-637 611,-617 545,-617"/>
<text text-anchor="middle" x="578" y="-624" font-family="FreeSans" font-size="10.00">ClientApp.h</text>
</a>
</g>
<!-- Node1&#45;&gt;Node20 -->
<g id="edge46" class="edge"><title>Node1&#45;&gt;Node20</title>
<path fill="none" stroke="midnightblue" d="M437.287,-675.292C465.182,-665.718 508.036,-651.011 539.124,-640.342"/>
<polygon fill="midnightblue" stroke="midnightblue" points="540.447,-643.588 548.77,-637.032 538.175,-636.967 540.447,-643.588"/>
</g>
<!-- Node51 -->
<g id="node131" class="node"><title>Node51</title>
<polygon fill="none" stroke="#bfbfbf" points="847.5,-617 847.5,-637 960.5,-637 960.5,-617 847.5,-617"/>
<text text-anchor="middle" x="904" y="-624" font-family="FreeSans" font-size="10.00">hoverrace/hr&#45;version.h</text>
</g>
<!-- Node1&#45;&gt;Node51 -->
<g id="edge160" class="edge"><title>Node1&#45;&gt;Node51</title>
<path fill="none" stroke="midnightblue" d="M437.152,-682.336C505.356,-675.784 684.819,-657.96 834,-638 835.097,-637.853 836.204,-637.703 837.318,-637.55"/>
<polygon fill="midnightblue" stroke="midnightblue" points="838.08,-640.977 847.489,-636.107 837.096,-634.047 838.08,-640.977"/>
</g>
<!-- Node5 -->
<g id="node9" class="node"><title>Node5</title>
<polygon fill="none" stroke="#bfbfbf" points="693,-59 693,-79 751,-79 751,-59 693,-59"/>
<text text-anchor="middle" x="722" y="-66" font-family="FreeSans" font-size="10.00">exception</text>
</g>
<!-- Node4&#45;&gt;Node5 -->
<g id="edge8" class="edge"><title>Node4&#45;&gt;Node5</title>
<path fill="none" stroke="midnightblue" d="M722,-116.897C722,-109.339 722,-98.7476 722,-89.4458"/>
<polygon fill="midnightblue" stroke="midnightblue" points="725.5,-89.3776 722,-79.3776 718.5,-89.3776 725.5,-89.3776"/>
</g>
<!-- Node7 -->
<g id="node13" class="node"><title>Node7</title>
<polygon fill="none" stroke="#bfbfbf" points="368,-559 368,-579 424,-579 424,-559 368,-559"/>
<text text-anchor="middle" x="396" y="-566" font-family="FreeSans" font-size="10.00">basedir.h</text>
</g>
<!-- Node6&#45;&gt;Node7 -->
<g id="edge12" class="edge"><title>Node6&#45;&gt;Node7</title>
<path fill="none" stroke="midnightblue" d="M371.226,-616.897C375.262,-609.093 380.972,-598.054 385.893,-588.54"/>
<polygon fill="midnightblue" stroke="midnightblue" points="389.147,-589.868 390.632,-579.378 382.929,-586.652 389.147,-589.868"/>
</g>
<!-- Node6&#45;&gt;Node8 -->
<g id="edge14" class="edge"><title>Node6&#45;&gt;Node8</title>
<path fill="none" stroke="midnightblue" d="M362.275,-616.714C355.086,-595.911 340,-547.23 340,-505 340,-505 340,-505 340,-249 340,-214.002 344.625,-203.146 364,-174 372.01,-161.95 383.949,-151.227 394.659,-143.077"/>
<polygon fill="midnightblue" stroke="midnightblue" points="396.841,-145.818 402.886,-137.117 392.734,-140.15 396.841,-145.818"/>
</g>
<!-- Node9 -->
<g id="node17" class="node"><title>Node9</title>
<polygon fill="none" stroke="#bfbfbf" points="264,-59 264,-79 306,-79 306,-59 264,-59"/>
<text text-anchor="middle" x="285" y="-66" font-family="FreeSans" font-size="10.00">locale</text>
</g>
<!-- Node8&#45;&gt;Node9 -->
<g id="edge16" class="edge"><title>Node8&#45;&gt;Node9</title>
<path fill="none" stroke="midnightblue" d="M399.801,-118.69C377.855,-109.191 341.632,-93.5123 315.743,-82.3068"/>
<polygon fill="midnightblue" stroke="midnightblue" points="316.946,-79.0137 306.379,-78.2534 314.165,-85.4377 316.946,-79.0137"/>
</g>
<!-- Node10 -->
<g id="node19" class="node"><title>Node10</title>
<polygon fill="none" stroke="#bfbfbf" points="459,-59 459,-79 489,-79 489,-59 459,-59"/>
<text text-anchor="middle" x="474" y="-66" font-family="FreeSans" font-size="10.00">set</text>
</g>
<!-- Node8&#45;&gt;Node10 -->
<g id="edge18" class="edge"><title>Node8&#45;&gt;Node10</title>
<path fill="none" stroke="midnightblue" d="M428.58,-116.897C436.449,-108.6 447.784,-96.6463 457.162,-86.7569"/>
<polygon fill="midnightblue" stroke="midnightblue" points="459.818,-89.0422 464.159,-79.3776 454.739,-84.2255 459.818,-89.0422"/>
</g>
<!-- Node11 -->
<g id="node21" class="node"><title>Node11</title>
<polygon fill="none" stroke="#bfbfbf" points="512.5,-59 512.5,-79 553.5,-79 553.5,-59 512.5,-59"/>
<text text-anchor="middle" x="533" y="-66" font-family="FreeSans" font-size="10.00">string</text>
</g>
<!-- Node8&#45;&gt;Node11 -->
<g id="edge20" class="edge"><title>Node8&#45;&gt;Node11</title>
<path fill="none" stroke="midnightblue" d="M438.081,-117.292C456.11,-108.119 483.402,-94.2341 504.1,-83.7033"/>
<polygon fill="midnightblue" stroke="midnightblue" points="505.764,-86.7839 513.09,-79.1298 502.59,-80.5449 505.764,-86.7839"/>
</g>
<!-- Node12 -->
<g id="node23" class="node"><title>Node12</title>
<polygon fill="none" stroke="#bfbfbf" points="601,-59 601,-79 645,-79 645,-59 601,-59"/>
<text text-anchor="middle" x="623" y="-66" font-family="FreeSans" font-size="10.00">vector</text>
</g>
<!-- Node8&#45;&gt;Node12 -->
<g id="edge22" class="edge"><title>Node8&#45;&gt;Node12</title>
<path fill="none" stroke="midnightblue" d="M438.175,-119.136C441.111,-118.028 444.122,-116.946 447,-116 496.631,-99.6825 555.495,-84.8533 591.01,-76.3863"/>
<polygon fill="midnightblue" stroke="midnightblue" points="591.887,-79.7756 600.814,-74.0695 590.277,-72.9633 591.887,-79.7756"/>
</g>
<!-- Node13 -->
<g id="node25" class="node"><title>Node13</title>
<polygon fill="none" stroke="#bfbfbf" points="336.5,-59 336.5,-79 441.5,-79 441.5,-59 336.5,-59"/>
<text text-anchor="middle" x="389" y="-66" font-family="FreeSans" font-size="10.00">boost/filesystem.hpp</text>
</g>
<!-- Node8&#45;&gt;Node13 -->
<g id="edge24" class="edge"><title>Node8&#45;&gt;Node13</title>
<path fill="none" stroke="midnightblue" d="M413.774,-116.897C409.738,-109.093 404.028,-98.0536 399.107,-88.5401"/>
<polygon fill="midnightblue" stroke="midnightblue" points="402.071,-86.6518 394.368,-79.3776 395.853,-89.8678 402.071,-86.6518"/>
</g>
<!-- Node14 -->
<g id="node27" class="node"><title>Node14</title>
<a xlink:href="_m_r___types_8h.html" target="_top" xlink:title="MR_Types.h">
<polygon fill="none" stroke="black" points="960.5,-59 960.5,-79 1031.5,-79 1031.5,-59 960.5,-59"/>
<text text-anchor="middle" x="996" y="-66" font-family="FreeSans" font-size="10.00">MR_Types.h</text>
</a>
</g>
<!-- Node8&#45;&gt;Node14 -->
<g id="edge26" class="edge"><title>Node8&#45;&gt;Node14</title>
<path fill="none" stroke="midnightblue" d="M438.046,-118.677C441,-117.632 444.05,-116.69 447,-116 542.293,-93.7011 835.973,-77.0228 950.036,-71.2256"/>
<polygon fill="midnightblue" stroke="midnightblue" points="950.371,-74.7133 960.182,-70.7146 950.019,-67.7221 950.371,-74.7133"/>
</g>
<!-- Node15 -->
<g id="node29" class="node"><title>Node15</title>
<polygon fill="none" stroke="#bfbfbf" points="967,-1 967,-21 1025,-21 1025,-1 967,-1"/>
<text text-anchor="middle" x="996" y="-8" font-family="FreeSans" font-size="10.00">inttypes.h</text>
</g>
<!-- Node14&#45;&gt;Node15 -->
<g id="edge28" class="edge"><title>Node14&#45;&gt;Node15</title>
<path fill="none" stroke="midnightblue" d="M996,-58.8972C996,-51.339 996,-40.7476 996,-31.4458"/>
<polygon fill="midnightblue" stroke="midnightblue" points="999.5,-31.3776 996,-21.3776 992.5,-31.3776 999.5,-31.3776"/>
</g>
<!-- Node16&#45;&gt;Node8 -->
<g id="edge34" class="edge"><title>Node16&#45;&gt;Node8</title>
<path fill="none" stroke="midnightblue" d="M281.915,-174.897C312.293,-164.283 359.792,-147.687 390.147,-137.081"/>
<polygon fill="midnightblue" stroke="midnightblue" points="391.449,-140.334 399.735,-133.731 389.14,-133.726 391.449,-140.334"/>
</g>
<!-- Node16&#45;&gt;Node9 -->
<g id="edge32" class="edge"><title>Node16&#45;&gt;Node9</title>
<path fill="none" stroke="midnightblue" d="M255.84,-174.706C261.143,-155.482 272.635,-113.825 279.502,-88.9294"/>
<polygon fill="midnightblue" stroke="midnightblue" points="282.927,-89.6762 282.212,-79.1055 276.179,-87.8147 282.927,-89.6762"/>
</g>
<!-- Node18 -->
<g id="node37" class="node"><title>Node18</title>
<polygon fill="none" stroke="#bfbfbf" points="187.5,-559 187.5,-579 288.5,-579 288.5,-559 187.5,-559"/>
<text text-anchor="middle" x="238" y="-566" font-family="FreeSans" font-size="10.00">boost/log/trivial.hpp</text>
</g>
<!-- Node17&#45;&gt;Node18 -->
<g id="edge38" class="edge"><title>Node17&#45;&gt;Node18</title>
<path fill="none" stroke="midnightblue" d="M238,-616.897C238,-609.339 238,-598.748 238,-589.446"/>
<polygon fill="midnightblue" stroke="midnightblue" points="241.5,-589.378 238,-579.378 234.5,-589.378 241.5,-589.378"/>
</g>
<!-- Node19&#45;&gt;Node8 -->
<g id="edge44" class="edge"><title>Node19&#45;&gt;Node8</title>
<path fill="none" stroke="midnightblue" d="M453.438,-430.79C448.251,-409.199 437,-357.257 437,-313 437,-313 437,-313 437,-249 437,-212.774 429.137,-171.139 423.804,-147.07"/>
<polygon fill="midnightblue" stroke="midnightblue" points="427.152,-146.011 421.503,-137.048 420.33,-147.578 427.152,-146.011"/>
</g>
<!-- Node20&#45;&gt;Node8 -->
<g id="edge48" class="edge"><title>Node20&#45;&gt;Node8</title>
<path fill="none" stroke="midnightblue" d="M571.045,-616.672C565.211,-607.466 557.181,-593.412 553,-580 517.443,-465.951 522,-432.464 522,-313 522,-313 522,-313 522,-249 522,-201.569 475.984,-163.04 445.467,-142.702"/>
<polygon fill="midnightblue" stroke="midnightblue" points="447.245,-139.685 436.941,-137.22 443.459,-145.573 447.245,-139.685"/>
</g>
<!-- Node21 -->
<g id="node46" class="node"><title>Node21</title>
<a xlink:href="_observer_8h.html" target="_top" xlink:title="Observer.h">
<polygon fill="none" stroke="black" points="701,-559 701,-579 765,-579 765,-559 701,-559"/>
<text text-anchor="middle" x="733" y="-566" font-family="FreeSans" font-size="10.00">Observer.h</text>
</a>
</g>
<!-- Node20&#45;&gt;Node21 -->
<g id="edge50" class="edge"><title>Node20&#45;&gt;Node21</title>
<path fill="none" stroke="midnightblue" d="M604.999,-616.897C630.37,-607.403 668.531,-593.124 696.586,-582.626"/>
<polygon fill="midnightblue" stroke="midnightblue" points="697.912,-585.867 706.051,-579.084 695.458,-579.311 697.912,-585.867"/>
</g>
<!-- Node50 -->
<g id="node129" class="node"><title>Node50</title>
<a xlink:href="_game_director_8h.html" target="_top" xlink:title="GameDirector.h">
<polygon fill="none" stroke="black" points="562,-559 562,-579 646,-579 646,-559 562,-559"/>
<text text-anchor="middle" x="604" y="-566" font-family="FreeSans" font-size="10.00">GameDirector.h</text>
</a>
</g>
<!-- Node20&#45;&gt;Node50 -->
<g id="edge158" class="edge"><title>Node20&#45;&gt;Node50</title>
<path fill="none" stroke="midnightblue" d="M582.529,-616.897C586.027,-609.093 590.976,-598.054 595.241,-588.54"/>
<polygon fill="midnightblue" stroke="midnightblue" points="598.451,-589.934 599.348,-579.378 592.064,-587.071 598.451,-589.934"/>
</g>
<!-- Node22 -->
<g id="node48" class="node"><title>Node22</title>
<a xlink:href="_hud_cell_8h.html" target="_top" xlink:title="../../engine/Display\l/HudCell.h">
<polygon fill="none" stroke="black" points="561.5,-489 561.5,-521 656.5,-521 656.5,-489 561.5,-489"/>
<text text-anchor="start" x="569.5" y="-508" font-family="FreeSans" font-size="10.00">../../engine/Display</text>
<text text-anchor="middle" x="609" y="-496" font-family="FreeSans" font-size="10.00">/HudCell.h</text>
</a>
</g>
<!-- Node21&#45;&gt;Node22 -->
<g id="edge52" class="edge"><title>Node21&#45;&gt;Node22</title>
<path fill="none" stroke="midnightblue" d="M713.352,-558.859C696.143,-549.977 670.595,-536.791 649.085,-525.689"/>
<polygon fill="midnightblue" stroke="midnightblue" points="650.642,-522.554 640.15,-521.078 647.431,-528.774 650.642,-522.554"/>
</g>
<!-- Node23 -->
<g id="node50" class="node"><title>Node23</title>
<a xlink:href="_viewport3_d_8h.html" target="_top" xlink:title="../../engine/VideoServices\l/Viewport3D.h">
<polygon fill="none" stroke="black" points="1118,-233 1118,-265 1244,-265 1244,-233 1118,-233"/>
<text text-anchor="start" x="1126" y="-252" font-family="FreeSans" font-size="10.00">../../engine/VideoServices</text>
<text text-anchor="middle" x="1181" y="-240" font-family="FreeSans" font-size="10.00">/Viewport3D.h</text>
</a>
</g>
<!-- Node21&#45;&gt;Node23 -->
<g id="edge54" class="edge"><title>Node21&#45;&gt;Node23</title>
<path fill="none" stroke="midnightblue" d="M765.441,-566.99C909.953,-557.613 1488,-515.45 1488,-441 1488,-441 1488,-441 1488,-377 1488,-342.614 1494.3,-325.286 1469,-302 1399.69,-238.218 1351.59,-282.148 1254.07,-265.986"/>
<polygon fill="midnightblue" stroke="midnightblue" points="1254.63,-262.53 1244.16,-264.165 1253.37,-269.415 1254.63,-262.53"/>
</g>
<!-- Node30 -->
<g id="node68" class="node"><title>Node30</title>
<a xlink:href="_main_character_8h.html" target="_top" xlink:title="../../engine/MainCharacter\l/MainCharacter.h">
<polygon fill="none" stroke="black" points="1188,-361 1188,-393 1314,-393 1314,-361 1188,-361"/>
<text text-anchor="start" x="1196" y="-380" font-family="FreeSans" font-size="10.00">../../engine/MainCharacter</text>
<text text-anchor="middle" x="1251" y="-368" font-family="FreeSans" font-size="10.00">/MainCharacter.h</text>
</a>
</g>
<!-- Node21&#45;&gt;Node30 -->
<g id="edge76" class="edge"><title>Node21&#45;&gt;Node30</title>
<path fill="none" stroke="midnightblue" d="M760.121,-558.948C842.161,-528.539 1088.75,-437.14 1197.95,-396.661"/>
<polygon fill="midnightblue" stroke="midnightblue" points="1199.3,-399.896 1207.46,-393.139 1196.87,-393.332 1199.3,-399.896"/>
</g>
<!-- Node41 -->
<g id="node103" class="node"><title>Node41</title>
<a xlink:href="_sprite_handle_8h.html" target="_top" xlink:title="../../engine/ObjFacTools\l/SpriteHandle.h">
<polygon fill="none" stroke="black" points="673.5,-489 673.5,-521 792.5,-521 792.5,-489 673.5,-489"/>
<text text-anchor="start" x="681.5" y="-508" font-family="FreeSans" font-size="10.00">../../engine/ObjFacTools</text>
<text text-anchor="middle" x="733" y="-496" font-family="FreeSans" font-size="10.00">/SpriteHandle.h</text>
</a>
</g>
<!-- Node21&#45;&gt;Node41 -->
<g id="edge124" class="edge"><title>Node21&#45;&gt;Node41</title>
<path fill="none" stroke="midnightblue" d="M733,-558.717C733,-551.244 733,-540.779 733,-531.068"/>
<polygon fill="midnightblue" stroke="midnightblue" points="736.5,-531.005 733,-521.005 729.5,-531.005 736.5,-531.005"/>
</g>
<!-- Node24 -->
<g id="node52" class="node"><title>Node24</title>
<a xlink:href="_viewport2_d_8h.html" target="_top" xlink:title="Viewport2D.h">
<polygon fill="none" stroke="black" points="952,-175 952,-195 1026,-195 1026,-175 952,-175"/>
<text text-anchor="middle" x="989" y="-182" font-family="FreeSans" font-size="10.00">Viewport2D.h</text>
</a>
</g>
<!-- Node23&#45;&gt;Node24 -->
<g id="edge56" class="edge"><title>Node23&#45;&gt;Node24</title>
<path fill="none" stroke="midnightblue" d="M1132.55,-232.85C1100.51,-222.171 1059.02,-208.34 1028.89,-198.297"/>
<polygon fill="midnightblue" stroke="midnightblue" points="1029.73,-194.888 1019.14,-195.046 1027.52,-201.529 1029.73,-194.888"/>
</g>
<!-- Node25 -->
<g id="node55" class="node"><title>Node25</title>
<a xlink:href="_color_palette_8h.html" target="_top" xlink:title="ColorPalette.h">
<polygon fill="none" stroke="black" points="1221.5,-175 1221.5,-195 1298.5,-195 1298.5,-175 1221.5,-175"/>
<text text-anchor="middle" x="1260" y="-182" font-family="FreeSans" font-size="10.00">ColorPalette.h</text>
</a>
</g>
<!-- Node23&#45;&gt;Node25 -->
<g id="edge60" class="edge"><title>Node23&#45;&gt;Node25</title>
<path fill="none" stroke="midnightblue" d="M1200.94,-232.85C1212.71,-223.315 1227.58,-211.268 1239.45,-201.647"/>
<polygon fill="midnightblue" stroke="midnightblue" points="1241.92,-204.155 1247.48,-195.141 1237.51,-198.716 1241.92,-204.155"/>
</g>
<!-- Node27 -->
<g id="node60" class="node"><title>Node27</title>
<a xlink:href="_bitmap_8h.html" target="_top" xlink:title="Bitmap.h">
<polygon fill="none" stroke="black" points="1043.5,-175 1043.5,-195 1098.5,-195 1098.5,-175 1043.5,-175"/>
<text text-anchor="middle" x="1071" y="-182" font-family="FreeSans" font-size="10.00">Bitmap.h</text>
</a>
</g>
<!-- Node23&#45;&gt;Node27 -->
<g id="edge66" class="edge"><title>Node23&#45;&gt;Node27</title>
<path fill="none" stroke="midnightblue" d="M1153.24,-232.85C1136.06,-222.852 1114.13,-210.092 1097.23,-200.264"/>
<polygon fill="midnightblue" stroke="midnightblue" points="1098.83,-197.145 1088.43,-195.141 1095.31,-203.195 1098.83,-197.145"/>
</g>
<!-- Node28 -->
<g id="node63" class="node"><title>Node28</title>
<a xlink:href="_patch_8h.html" target="_top" xlink:title="Patch.h">
<polygon fill="none" stroke="black" points="1116,-175 1116,-195 1166,-195 1166,-175 1116,-175"/>
<text text-anchor="middle" x="1141" y="-182" font-family="FreeSans" font-size="10.00">Patch.h</text>
</a>
</g>
<!-- Node23&#45;&gt;Node28 -->
<g id="edge70" class="edge"><title>Node23&#45;&gt;Node28</title>
<path fill="none" stroke="midnightblue" d="M1170.91,-232.85C1165.35,-223.963 1158.43,-212.893 1152.65,-203.64"/>
<polygon fill="midnightblue" stroke="midnightblue" points="1155.61,-201.766 1147.34,-195.141 1149.67,-205.476 1155.61,-201.766"/>
</g>
<!-- Node24&#45;&gt;Node14 -->
<g id="edge58" class="edge"><title>Node24&#45;&gt;Node14</title>
<path fill="none" stroke="midnightblue" d="M986.375,-174.678C983.298,-161.157 978.978,-136.732 982,-116 983.33,-106.877 986.039,-97.0633 988.724,-88.775"/>
<polygon fill="midnightblue" stroke="midnightblue" points="992.054,-89.8539 992.004,-79.2591 985.436,-87.5723 992.054,-89.8539"/>
</g>
<!-- Node25&#45;&gt;Node14 -->
<g id="edge64" class="edge"><title>Node25&#45;&gt;Node14</title>
<path fill="none" stroke="midnightblue" d="M1261.3,-174.967C1262.65,-159.939 1262.7,-131.679 1247,-116 1218.77,-87.805 1106.17,-76.0239 1041.79,-71.5133"/>
<polygon fill="midnightblue" stroke="midnightblue" points="1041.72,-68.0008 1031.51,-70.826 1041.25,-74.9852 1041.72,-68.0008"/>
</g>
<!-- Node26 -->
<g id="node57" class="node"><title>Node26</title>
<polygon fill="none" stroke="#bfbfbf" points="1167.5,-117 1167.5,-137 1238.5,-137 1238.5,-117 1167.5,-117"/>
<text text-anchor="middle" x="1203" y="-124" font-family="FreeSans" font-size="10.00">SDL2/SDL.h</text>
</g>
<!-- Node25&#45;&gt;Node26 -->
<g id="edge62" class="edge"><title>Node25&#45;&gt;Node26</title>
<path fill="none" stroke="midnightblue" d="M1250.07,-174.897C1241.92,-166.6 1230.17,-154.646 1220.45,-144.757"/>
<polygon fill="midnightblue" stroke="midnightblue" points="1222.7,-142.057 1213.2,-137.378 1217.71,-146.963 1222.7,-142.057"/>
</g>
<!-- Node27&#45;&gt;Node14 -->
<g id="edge68" class="edge"><title>Node27&#45;&gt;Node14</title>
<path fill="none" stroke="midnightblue" d="M1054.15,-174.89C1041.59,-166.51 1024.94,-153.488 1015,-138 1005.48,-123.168 1000.68,-103.589 998.286,-89.0771"/>
<polygon fill="midnightblue" stroke="midnightblue" points="1001.75,-88.5461 996.89,-79.1297 994.814,-89.5192 1001.75,-88.5461"/>
</g>
<!-- Node29 -->
<g id="node65" class="node"><title>Node29</title>
<a xlink:href="_world_coordinates_8h.html" target="_top" xlink:title="../Util/WorldCoordinates.h">
<polygon fill="none" stroke="black" points="1024,-117 1024,-137 1150,-137 1150,-117 1024,-117"/>
<text text-anchor="middle" x="1087" y="-124" font-family="FreeSans" font-size="10.00">../Util/WorldCoordinates.h</text>
</a>
</g>
<!-- Node28&#45;&gt;Node29 -->
<g id="edge72" class="edge"><title>Node28&#45;&gt;Node29</title>
<path fill="none" stroke="midnightblue" d="M1131.59,-174.897C1123.87,-166.6 1112.74,-154.646 1103.53,-144.757"/>
<polygon fill="midnightblue" stroke="midnightblue" points="1106.04,-142.312 1096.66,-137.378 1100.91,-147.082 1106.04,-142.312"/>
</g>
<!-- Node29&#45;&gt;Node14 -->
<g id="edge74" class="edge"><title>Node29&#45;&gt;Node14</title>
<path fill="none" stroke="midnightblue" d="M1071.15,-116.897C1057.27,-108.052 1036.88,-95.0539 1020.84,-84.829"/>
<polygon fill="midnightblue" stroke="midnightblue" points="1022.29,-81.605 1011.97,-79.1817 1018.53,-87.5079 1022.29,-81.605"/>
</g>
<!-- Node31 -->
<g id="node70" class="node"><title>Node31</title>
<a xlink:href="_color_8h.html" target="_top" xlink:title="../Display/Color.h">
<polygon fill="none" stroke="black" points="1340.5,-175 1340.5,-195 1429.5,-195 1429.5,-175 1340.5,-175"/>
<text text-anchor="middle" x="1385" y="-182" font-family="FreeSans" font-size="10.00">../Display/Color.h</text>
</a>
</g>
<!-- Node30&#45;&gt;Node31 -->
<g id="edge78" class="edge"><title>Node30&#45;&gt;Node31</title>
<path fill="none" stroke="midnightblue" d="M1281.92,-360.969C1297.14,-351.821 1314.78,-339.152 1327,-324 1356.41,-287.52 1373.07,-233.997 1380.41,-205.17"/>
<polygon fill="midnightblue" stroke="midnightblue" points="1383.9,-205.636 1382.86,-195.093 1377.1,-203.988 1383.9,-205.636"/>
</g>
<!-- Node34 -->
<g id="node78" class="node"><title>Node34</title>
<a xlink:href="_maze_element_8h.html" target="_top" xlink:title="../Model/MazeElement.h">
<polygon fill="none" stroke="black" points="1047.5,-303 1047.5,-323 1166.5,-323 1166.5,-303 1047.5,-303"/>
<text text-anchor="middle" x="1107" y="-310" font-family="FreeSans" font-size="10.00">../Model/MazeElement.h</text>
</a>
</g>
<!-- Node30&#45;&gt;Node34 -->
<g id="edge88" class="edge"><title>Node30&#45;&gt;Node34</title>
<path fill="none" stroke="midnightblue" d="M1214.66,-360.85C1191.44,-350.528 1161.59,-337.262 1139.21,-327.317"/>
<polygon fill="midnightblue" stroke="midnightblue" points="1140.38,-324.004 1129.82,-323.141 1137.53,-330.401 1140.38,-324.004"/>
</g>
<!-- Node39 -->
<g id="node96" class="node"><title>Node39</title>
<a xlink:href="_physical_collision_8h.html" target="_top" xlink:title="../Model/PhysicalCollision.h">
<polygon fill="none" stroke="black" points="1184,-303 1184,-323 1318,-323 1318,-303 1184,-303"/>
<text text-anchor="middle" x="1251" y="-310" font-family="FreeSans" font-size="10.00">../Model/PhysicalCollision.h</text>
</a>
</g>
<!-- Node30&#45;&gt;Node39 -->
<g id="edge114" class="edge"><title>Node30&#45;&gt;Node39</title>
<path fill="none" stroke="midnightblue" d="M1251,-360.85C1251,-352.518 1251,-342.269 1251,-333.396"/>
<polygon fill="midnightblue" stroke="midnightblue" points="1254.5,-333.141 1251,-323.141 1247.5,-333.141 1254.5,-333.141"/>
</g>
<!-- Node40 -->
<g id="node100" class="node"><title>Node40</title>
<a xlink:href="_fast_fifo_8h.html" target="_top" xlink:title="../Util/FastFifo.h">
<polygon fill="none" stroke="black" points="1374,-303 1374,-323 1460,-323 1460,-303 1374,-303"/>
<text text-anchor="middle" x="1417" y="-310" font-family="FreeSans" font-size="10.00">../Util/FastFifo.h</text>
</a>
</g>
<!-- Node30&#45;&gt;Node40 -->
<g id="edge120" class="edge"><title>Node30&#45;&gt;Node40</title>
<path fill="none" stroke="midnightblue" d="M1292.89,-360.85C1320.14,-350.343 1355.31,-336.785 1381.24,-326.786"/>
<polygon fill="midnightblue" stroke="midnightblue" points="1382.63,-330.004 1390.7,-323.141 1380.11,-323.473 1382.63,-330.004"/>
</g>
<!-- Node31&#45;&gt;Node14 -->
<g id="edge82" class="edge"><title>Node31&#45;&gt;Node14</title>
<path fill="none" stroke="midnightblue" d="M1390.07,-174.646C1396.57,-159.721 1405.37,-132.183 1391,-116 1368.11,-90.2222 1140.6,-76.0627 1041.61,-71.0804"/>
<polygon fill="midnightblue" stroke="midnightblue" points="1041.76,-67.5835 1031.6,-70.5858 1041.42,-74.575 1041.76,-67.5835"/>
</g>
<!-- Node32 -->
<g id="node72" class="node"><title>Node32</title>
<polygon fill="none" stroke="#bfbfbf" points="1293.5,-117 1293.5,-137 1382.5,-137 1382.5,-117 1293.5,-117"/>
<text text-anchor="middle" x="1338" y="-124" font-family="FreeSans" font-size="10.00">boost/format.hpp</text>
</g>
<!-- Node31&#45;&gt;Node32 -->
<g id="edge80" class="edge"><title>Node31&#45;&gt;Node32</title>
<path fill="none" stroke="midnightblue" d="M1376.81,-174.897C1370.22,-166.764 1360.79,-155.118 1352.87,-145.347"/>
<polygon fill="midnightblue" stroke="midnightblue" points="1355.42,-142.943 1346.41,-137.378 1349.99,-147.351 1355.42,-142.943"/>
</g>
<!-- Node33 -->
<g id="node75" class="node"><title>Node33</title>
<a xlink:href="_sel_fmt_8h.html" target="_top" xlink:title="../Util/SelFmt.h">
<polygon fill="none" stroke="black" points="1437.5,-117 1437.5,-137 1518.5,-137 1518.5,-117 1437.5,-117"/>
<text text-anchor="middle" x="1478" y="-124" font-family="FreeSans" font-size="10.00">../Util/SelFmt.h</text>
</a>
</g>
<!-- Node31&#45;&gt;Node33 -->
<g id="edge84" class="edge"><title>Node31&#45;&gt;Node33</title>
<path fill="none" stroke="midnightblue" d="M1401.2,-174.897C1415.51,-165.97 1436.61,-152.811 1453.08,-142.543"/>
<polygon fill="midnightblue" stroke="midnightblue" points="1455.04,-145.443 1461.67,-137.182 1451.34,-139.504 1455.04,-145.443"/>
</g>
<!-- Node33&#45;&gt;Node14 -->
<g id="edge86" class="edge"><title>Node33&#45;&gt;Node14</title>
<path fill="none" stroke="midnightblue" d="M1437.38,-118.311C1432.88,-117.471 1428.35,-116.68 1424,-116 1285.47,-94.3302 1120.16,-79.1827 1041.69,-72.6337"/>
<polygon fill="midnightblue" stroke="midnightblue" points="1041.91,-69.1401 1031.66,-71.8037 1041.33,-76.1162 1041.91,-69.1401"/>
</g>
<!-- Node34&#45;&gt;Node23 -->
<g id="edge104" class="edge"><title>Node34&#45;&gt;Node23</title>
<path fill="none" stroke="midnightblue" d="M1118.89,-302.717C1128.54,-294.369 1142.51,-282.288 1154.76,-271.696"/>
<polygon fill="midnightblue" stroke="midnightblue" points="1157.22,-274.194 1162.49,-265.005 1152.64,-268.9 1157.22,-274.194"/>
</g>
<!-- Node35 -->
<g id="node80" class="node"><title>Node35</title>
<a xlink:href="_dll_object_factory_8h.html" target="_top" xlink:title="../Util/DllObjectFactory.h">
<polygon fill="none" stroke="black" points="750,-239 750,-259 872,-259 872,-239 750,-239"/>
<text text-anchor="middle" x="811" y="-246" font-family="FreeSans" font-size="10.00">../Util/DllObjectFactory.h</text>
</a>
</g>
<!-- Node34&#45;&gt;Node35 -->
<g id="edge90" class="edge"><title>Node34&#45;&gt;Node35</title>
<path fill="none" stroke="midnightblue" d="M1060.42,-302.93C1008.16,-291.629 923.381,-273.299 867.406,-261.196"/>
<polygon fill="midnightblue" stroke="midnightblue" points="867.818,-257.704 857.304,-259.012 866.338,-264.546 867.818,-257.704"/>
</g>
<!-- Node37 -->
<g id="node90" class="node"><title>Node37</title>
<a xlink:href="_contact_effect_8h.html" target="_top" xlink:title="ContactEffect.h">
<polygon fill="none" stroke="black" points="1017.5,-239 1017.5,-259 1100.5,-259 1100.5,-239 1017.5,-239"/>
<text text-anchor="middle" x="1059" y="-246" font-family="FreeSans" font-size="10.00">ContactEffect.h</text>
</a>
</g>
<!-- Node34&#45;&gt;Node37 -->
<g id="edge106" class="edge"><title>Node34&#45;&gt;Node37</title>
<path fill="none" stroke="midnightblue" d="M1099.29,-302.717C1092.11,-293.144 1081.25,-278.66 1072.61,-267.144"/>
<polygon fill="midnightblue" stroke="midnightblue" points="1075.33,-264.946 1066.53,-259.046 1069.73,-269.146 1075.33,-264.946"/>
</g>
<!-- Node38 -->
<g id="node93" class="node"><title>Node38</title>
<a xlink:href="_shapes_8h.html" target="_top" xlink:title="Shapes.h">
<polygon fill="none" stroke="black" points="1261.5,-239 1261.5,-259 1318.5,-259 1318.5,-239 1261.5,-239"/>
<text text-anchor="middle" x="1290" y="-246" font-family="FreeSans" font-size="10.00">Shapes.h</text>
</a>
</g>
<!-- Node34&#45;&gt;Node38 -->
<g id="edge110" class="edge"><title>Node34&#45;&gt;Node38</title>
<path fill="none" stroke="midnightblue" d="M1142.22,-302.948C1172.05,-294.13 1215.78,-280.483 1253,-266 1255.22,-265.135 1257.5,-264.202 1259.79,-263.235"/>
<polygon fill="midnightblue" stroke="midnightblue" points="1261.32,-266.386 1269.05,-259.149 1258.49,-259.981 1261.32,-266.386"/>
</g>
<!-- Node35&#45;&gt;Node14 -->
<g id="edge102" class="edge"><title>Node35&#45;&gt;Node14</title>
<path fill="none" stroke="midnightblue" d="M821.795,-238.902C833.117,-228.284 851.398,-211.061 867,-196 907.195,-157.2 953.768,-111.049 978.481,-86.4638"/>
<polygon fill="midnightblue" stroke="midnightblue" points="981.083,-88.8118 985.701,-79.276 976.145,-83.8511 981.083,-88.8118"/>
</g>
<!-- Node36 -->
<g id="node82" class="node"><title>Node36</title>
<a xlink:href="_obj_stream_8h.html" target="_top" xlink:title="../Parcel/ObjStream.h">
<polygon fill="none" stroke="black" points="749.5,-175 749.5,-195 858.5,-195 858.5,-175 749.5,-175"/>
<text text-anchor="middle" x="804" y="-182" font-family="FreeSans" font-size="10.00">../Parcel/ObjStream.h</text>
</a>
</g>
<!-- Node35&#45;&gt;Node36 -->
<g id="edge92" class="edge"><title>Node35&#45;&gt;Node36</title>
<path fill="none" stroke="midnightblue" d="M809.875,-238.717C808.89,-229.707 807.429,-216.347 806.21,-205.205"/>
<polygon fill="midnightblue" stroke="midnightblue" points="809.665,-204.606 805.099,-195.046 802.707,-205.367 809.665,-204.606"/>
</g>
<!-- Node36&#45;&gt;Node4 -->
<g id="edge96" class="edge"><title>Node36&#45;&gt;Node4</title>
<path fill="none" stroke="midnightblue" d="M789.717,-174.897C777.329,-166.135 759.178,-153.297 744.785,-143.116"/>
<polygon fill="midnightblue" stroke="midnightblue" points="746.58,-140.099 736.395,-137.182 742.538,-145.814 746.58,-140.099"/>
</g>
<!-- Node36&#45;&gt;Node8 -->
<g id="edge100" class="edge"><title>Node36&#45;&gt;Node8</title>
<path fill="none" stroke="midnightblue" d="M749.425,-179.459C668.059,-170.932 517.855,-154.108 447.811,-137.631"/>
<polygon fill="midnightblue" stroke="midnightblue" points="448.625,-134.227 438.076,-135.203 446.932,-141.019 448.625,-134.227"/>
</g>
<!-- Node36&#45;&gt;Node11 -->
<g id="edge94" class="edge"><title>Node36&#45;&gt;Node11</title>
<path fill="none" stroke="midnightblue" d="M804.655,-174.898C805.038,-159.779 803.339,-131.402 787,-116 722.871,-55.5472 678.653,-96.0765 592,-80 582.77,-78.2876 572.729,-76.4181 563.592,-74.7142"/>
<polygon fill="midnightblue" stroke="midnightblue" points="564.222,-71.2715 553.75,-72.8779 562.938,-78.1527 564.222,-71.2715"/>
</g>
<!-- Node36&#45;&gt;Node14 -->
<g id="edge98" class="edge"><title>Node36&#45;&gt;Node14</title>
<path fill="none" stroke="midnightblue" d="M817.862,-174.883C837.184,-160.953 873.504,-135.391 906,-116 925.413,-104.415 947.963,-92.6422 965.635,-83.7767"/>
<polygon fill="midnightblue" stroke="midnightblue" points="967.504,-86.7563 974.9,-79.1702 964.387,-80.4883 967.504,-86.7563"/>
</g>
<!-- Node37&#45;&gt;Node12 -->
<g id="edge108" class="edge"><title>Node37&#45;&gt;Node12</title>
<path fill="none" stroke="midnightblue" d="M1035.11,-238.943C1011.41,-228.768 974.224,-212.261 943,-196 880.803,-163.608 871.836,-142.72 807,-116 755.951,-94.9618 692.95,-81.3355 655.481,-74.427"/>
<polygon fill="midnightblue" stroke="midnightblue" points="655.628,-70.8976 645.167,-72.5768 654.392,-77.7876 655.628,-70.8976"/>
</g>
<!-- Node38&#45;&gt;Node29 -->
<g id="edge112" class="edge"><title>Node38&#45;&gt;Node29</title>
<path fill="none" stroke="midnightblue" d="M1275.38,-238.871C1253.78,-224.05 1211.93,-195.846 1175,-174 1155.76,-162.615 1133.54,-150.761 1116.25,-141.805"/>
<polygon fill="midnightblue" stroke="midnightblue" points="1117.69,-138.611 1107.2,-137.15 1114.49,-144.836 1117.69,-138.611"/>
</g>
<!-- Node39&#45;&gt;Node37 -->
<g id="edge116" class="edge"><title>Node39&#45;&gt;Node37</title>
<path fill="none" stroke="midnightblue" d="M1220.51,-302.986C1191.74,-293.519 1147.41,-278.885 1109,-266 1105.44,-264.807 1101.75,-263.561 1098.05,-262.31"/>
<polygon fill="midnightblue" stroke="midnightblue" points="1098.93,-258.913 1088.33,-259.018 1096.68,-265.543 1098.93,-258.913"/>
</g>
<!-- Node39&#45;&gt;Node38 -->
<g id="edge118" class="edge"><title>Node39&#45;&gt;Node38</title>
<path fill="none" stroke="midnightblue" d="M1257.27,-302.717C1262.99,-293.332 1271.58,-279.226 1278.53,-267.825"/>
<polygon fill="midnightblue" stroke="midnightblue" points="1281.66,-269.407 1283.88,-259.046 1275.69,-265.764 1281.66,-269.407"/>
</g>
<!-- Node40&#45;&gt;Node14 -->
<g id="edge122" class="edge"><title>Node40&#45;&gt;Node14</title>
<path fill="none" stroke="midnightblue" d="M1430.6,-302.97C1470.84,-272.157 1583.07,-177.255 1527,-116 1494.55,-80.5539 1165.23,-71.6868 1042.11,-69.6026"/>
<polygon fill="midnightblue" stroke="midnightblue" points="1041.94,-66.0994 1031.89,-69.4371 1041.83,-73.0985 1041.94,-66.0994"/>
</g>
<!-- Node41&#45;&gt;Node4 -->
<g id="edge126" class="edge"><title>Node41&#45;&gt;Node4</title>
<path fill="none" stroke="midnightblue" d="M700.612,-488.886C686.639,-480.072 671.746,-467.717 664,-452 611.395,-345.262 682.266,-197.89 710.932,-145.999"/>
<polygon fill="midnightblue" stroke="midnightblue" points="714.035,-147.621 715.904,-137.192 707.94,-144.18 714.035,-147.621"/>
</g>
<!-- Node42 -->
<g id="node106" class="node"><title>Node42</title>
<a xlink:href="_resource_lib_8h.html" target="_top" xlink:title="ResourceLib.h">
<polygon fill="none" stroke="black" points="672.5,-431 672.5,-451 751.5,-451 751.5,-431 672.5,-431"/>
<text text-anchor="middle" x="712" y="-438" font-family="FreeSans" font-size="10.00">ResourceLib.h</text>
</a>
</g>
<!-- Node41&#45;&gt;Node42 -->
<g id="edge128" class="edge"><title>Node41&#45;&gt;Node42</title>
<path fill="none" stroke="midnightblue" d="M727.701,-488.85C724.906,-480.333 721.454,-469.812 718.499,-460.806"/>
<polygon fill="midnightblue" stroke="midnightblue" points="721.771,-459.551 715.328,-451.141 715.12,-461.734 721.771,-459.551"/>
</g>
<!-- Node42&#45;&gt;Node8 -->
<g id="edge132" class="edge"><title>Node42&#45;&gt;Node8</title>
<path fill="none" stroke="midnightblue" d="M681.606,-430.975C637.248,-414.205 560,-375.961 560,-313 560,-313 560,-313 560,-249 560,-214.002 559.837,-199.626 536,-174 535.194,-173.134 482.089,-151.991 447.709,-138.361"/>
<polygon fill="midnightblue" stroke="midnightblue" points="448.73,-135.001 438.144,-134.571 446.151,-141.509 448.73,-135.001"/>
</g>
<!-- Node43 -->
<g id="node108" class="node"><title>Node43</title>
<polygon fill="none" stroke="#bfbfbf" points="673.5,-367 673.5,-387 708.5,-387 708.5,-367 673.5,-367"/>
<text text-anchor="middle" x="691" y="-374" font-family="FreeSans" font-size="10.00">map</text>
</g>
<!-- Node42&#45;&gt;Node43 -->
<g id="edge130" class="edge"><title>Node42&#45;&gt;Node43</title>
<path fill="none" stroke="midnightblue" d="M708.626,-430.717C705.639,-421.613 701.194,-408.068 697.516,-396.858"/>
<polygon fill="midnightblue" stroke="midnightblue" points="700.74,-395.457 694.296,-387.046 694.089,-397.639 700.74,-395.457"/>
</g>
<!-- Node44 -->
<g id="node111" class="node"><title>Node44</title>
<a xlink:href="_res_actor_8h.html" target="_top" xlink:title="ResActor.h">
<polygon fill="none" stroke="black" points="931.5,-303 931.5,-323 996.5,-323 996.5,-303 931.5,-303"/>
<text text-anchor="middle" x="964" y="-310" font-family="FreeSans" font-size="10.00">ResActor.h</text>
</a>
</g>
<!-- Node42&#45;&gt;Node44 -->
<g id="edge134" class="edge"><title>Node42&#45;&gt;Node44</title>
<path fill="none" stroke="midnightblue" d="M731.774,-430.956C776.012,-408.486 883.141,-354.071 934.964,-327.748"/>
<polygon fill="midnightblue" stroke="midnightblue" points="936.638,-330.824 943.969,-323.174 933.468,-324.583 936.638,-330.824"/>
</g>
<!-- Node46 -->
<g id="node117" class="node"><title>Node46</title>
<a xlink:href="_res_sprite_8h.html" target="_top" xlink:title="ResSprite.h">
<polygon fill="none" stroke="black" points="725.5,-367 725.5,-387 792.5,-387 792.5,-367 725.5,-367"/>
<text text-anchor="middle" x="759" y="-374" font-family="FreeSans" font-size="10.00">ResSprite.h</text>
</a>
</g>
<!-- Node42&#45;&gt;Node46 -->
<g id="edge142" class="edge"><title>Node42&#45;&gt;Node46</title>
<path fill="none" stroke="midnightblue" d="M719.551,-430.717C726.582,-421.144 737.218,-406.66 745.676,-395.144"/>
<polygon fill="midnightblue" stroke="midnightblue" points="748.524,-397.178 751.622,-387.046 742.882,-393.035 748.524,-397.178"/>
</g>
<!-- Node48 -->
<g id="node123" class="node"><title>Node48</title>
<a xlink:href="_res_sound_8h.html" target="_top" xlink:title="ResSound.h">
<polygon fill="none" stroke="black" points="587.5,-175 587.5,-195 656.5,-195 656.5,-175 587.5,-175"/>
<text text-anchor="middle" x="622" y="-182" font-family="FreeSans" font-size="10.00">ResSound.h</text>
</a>
</g>
<!-- Node42&#45;&gt;Node48 -->
<g id="edge150" class="edge"><title>Node42&#45;&gt;Node48</title>
<path fill="none" stroke="midnightblue" d="M698.288,-430.991C687.543,-422.395 673.1,-409.035 665,-394 631.098,-331.072 623.873,-244.272 622.371,-205.335"/>
<polygon fill="midnightblue" stroke="midnightblue" points="625.868,-205.165 622.073,-195.273 618.871,-205.372 625.868,-205.165"/>
</g>
<!-- Node44&#45;&gt;Node23 -->
<g id="edge140" class="edge"><title>Node44&#45;&gt;Node23</title>
<path fill="none" stroke="midnightblue" d="M996.958,-303.28C1028.66,-293.931 1077.43,-279.546 1116.8,-267.933"/>
<polygon fill="midnightblue" stroke="midnightblue" points="1117.99,-271.231 1126.6,-265.045 1116.01,-264.517 1117.99,-271.231"/>
</g>
<!-- Node45 -->
<g id="node113" class="node"><title>Node45</title>
<a xlink:href="_res_bitmap_8h.html" target="_top" xlink:title="ResBitmap.h">
<polygon fill="none" stroke="black" points="928,-239 928,-259 1000,-259 1000,-239 928,-239"/>
<text text-anchor="middle" x="964" y="-246" font-family="FreeSans" font-size="10.00">ResBitmap.h</text>
</a>
</g>
<!-- Node44&#45;&gt;Node45 -->
<g id="edge136" class="edge"><title>Node44&#45;&gt;Node45</title>
<path fill="none" stroke="midnightblue" d="M964,-302.717C964,-293.707 964,-280.347 964,-269.205"/>
<polygon fill="midnightblue" stroke="midnightblue" points="967.5,-269.046 964,-259.046 960.5,-269.046 967.5,-269.046"/>
</g>
<!-- Node45&#45;&gt;Node27 -->
<g id="edge138" class="edge"><title>Node45&#45;&gt;Node27</title>
<path fill="none" stroke="midnightblue" d="M981.191,-238.717C998.531,-228.346 1025.5,-212.212 1045.37,-200.331"/>
<polygon fill="midnightblue" stroke="midnightblue" points="1047.42,-203.183 1054.2,-195.046 1043.83,-197.176 1047.42,-203.183"/>
</g>
<!-- Node47 -->
<g id="node119" class="node"><title>Node47</title>
<a xlink:href="_sprite_8h.html" target="_top" xlink:title="../VideoServices/Sprite.h">
<polygon fill="none" stroke="black" points="749.5,-303 749.5,-323 872.5,-323 872.5,-303 749.5,-303"/>
<text text-anchor="middle" x="811" y="-310" font-family="FreeSans" font-size="10.00">../VideoServices/Sprite.h</text>
</a>
</g>
<!-- Node46&#45;&gt;Node47 -->
<g id="edge144" class="edge"><title>Node46&#45;&gt;Node47</title>
<path fill="none" stroke="midnightblue" d="M767.355,-366.717C775.133,-357.144 786.901,-342.66 796.258,-331.144"/>
<polygon fill="midnightblue" stroke="midnightblue" points="799.248,-333.014 802.837,-323.046 793.815,-328.6 799.248,-333.014"/>
</g>
<!-- Node47&#45;&gt;Node24 -->
<g id="edge146" class="edge"><title>Node47&#45;&gt;Node24</title>
<path fill="none" stroke="midnightblue" d="M827.288,-302.971C841.766,-293.846 863.315,-279.742 881,-266 898.895,-252.095 901.105,-245.905 919,-232 933.369,-220.835 950.289,-209.43 963.894,-200.652"/>
<polygon fill="midnightblue" stroke="midnightblue" points="966.162,-203.357 972.712,-195.029 962.398,-197.455 966.162,-203.357"/>
</g>
<!-- Node47&#45;&gt;Node35 -->
<g id="edge148" class="edge"><title>Node47&#45;&gt;Node35</title>
<path fill="none" stroke="midnightblue" d="M811,-302.717C811,-293.707 811,-280.347 811,-269.205"/>
<polygon fill="midnightblue" stroke="midnightblue" points="814.5,-269.046 811,-259.046 807.5,-269.046 814.5,-269.046"/>
</g>
<!-- Node48&#45;&gt;Node14 -->
<g id="edge156" class="edge"><title>Node48&#45;&gt;Node14</title>
<path fill="none" stroke="midnightblue" d="M624.033,-174.85C627.702,-159.4 636.988,-130.274 657,-116 703.063,-83.1452 868.209,-73.1624 949.763,-70.2042"/>
<polygon fill="midnightblue" stroke="midnightblue" points="950.349,-73.6863 960.224,-69.8468 950.11,-66.6904 950.349,-73.6863"/>
</g>
<!-- Node49 -->
<g id="node125" class="node"><title>Node49</title>
<a xlink:href="_sound_server_8h.html" target="_top" xlink:title="../VideoServices/SoundServer.h">
<polygon fill="none" stroke="black" points="456,-117 456,-137 610,-137 610,-117 456,-117"/>
<text text-anchor="middle" x="533" y="-124" font-family="FreeSans" font-size="10.00">../VideoServices/SoundServer.h</text>
</a>
</g>
<!-- Node48&#45;&gt;Node49 -->
<g id="edge152" class="edge"><title>Node48&#45;&gt;Node49</title>
<path fill="none" stroke="midnightblue" d="M606.497,-174.897C592.925,-166.052 572.979,-153.054 557.289,-142.829"/>
<polygon fill="midnightblue" stroke="midnightblue" points="558.913,-139.709 548.624,-137.182 555.091,-145.574 558.913,-139.709"/>
</g>
<!-- Node49&#45;&gt;Node11 -->
<g id="edge154" class="edge"><title>Node49&#45;&gt;Node11</title>
<path fill="none" stroke="midnightblue" d="M533,-116.897C533,-109.339 533,-98.7476 533,-89.4458"/>
<polygon fill="midnightblue" stroke="midnightblue" points="536.5,-89.3776 533,-79.3776 529.5,-89.3776 536.5,-89.3776"/>
</g>
</g>
</svg>
