<?xml version="1.0" encoding="UTF-8" standalone="no"?>
<!DOCTYPE svg PUBLIC "-//W3C//DTD SVG 1.1//EN"
 "http://www.w3.org/Graphics/SVG/1.1/DTD/svg11.dtd">
<!-- Generated by graphviz version 2.38.0 (20140413.2041)
 -->
<!-- Title: main.cpp Pages: 1 -->
<svg width="1709pt" height="677pt"
 viewBox="0.00 0.00 1708.50 677.00" xmlns="http://www.w3.org/2000/svg" xmlns:xlink="http://www.w3.org/1999/xlink">
<g id="graph0" class="graph" transform="scale(1 1) rotate(0) translate(4 673)">
<title>main.cpp</title>
<!-- Node1 -->
<g id="node1" class="node"><title>Node1</title>
<polygon fill="#bfbfbf" stroke="black" points="1149,-649.5 1149,-668.5 1205,-668.5 1205,-649.5 1149,-649.5"/>
<text text-anchor="middle" x="1177" y="-656.5" font-family="Helvetica,sans-Serif" font-size="10.00">main.cpp</text>
</g>
<!-- Node2 -->
<g id="node2" class="node"><title>Node2</title>
<polygon fill="none" stroke="#bfbfbf" points="29,-593.5 29,-612.5 83,-612.5 83,-593.5 29,-593.5"/>
<text text-anchor="middle" x="56" y="-600.5" font-family="Helvetica,sans-Serif" font-size="10.00">iostream</text>
</g>
<!-- Node1&#45;&gt;Node2 -->
<g id="edge1" class="edge"><title>Node1&#45;&gt;Node2</title>
<path fill="none" stroke="midnightblue" d="M1148.68,-657.489C1000.08,-654.709 309.162,-640.492 97,-613 95.7398,-612.837 94.461,-612.654 93.1721,-612.455"/>
<polygon fill="midnightblue" stroke="midnightblue" points="93.6915,-608.992 83.2306,-610.672 92.4555,-615.882 93.6915,-608.992"/>
</g>
<!-- Node3 -->
<g id="node3" class="node"><title>Node3</title>
<g id="a_node3"><a xlink:href="_exception_8h.html" target="_top" xlink:title="../../engine/Exception.h">
<polygon fill="none" stroke="black" points="0,-112.5 0,-131.5 118,-131.5 118,-112.5 0,-112.5"/>
<text text-anchor="middle" x="59" y="-119.5" font-family="Helvetica,sans-Serif" font-size="10.00">../../engine/Exception.h</text>
</a>
</g>
</g>
<!-- Node1&#45;&gt;Node3 -->
<g id="edge2" class="edge"><title>Node1&#45;&gt;Node3</title>
<path fill="none" stroke="midnightblue" d="M1148.76,-658.131C979.903,-658.553 111,-655.503 111,-548 111,-548 111,-548 111,-238.5 111,-200.594 87.4239,-161.369 72.0212,-139.787"/>
<polygon fill="midnightblue" stroke="midnightblue" points="74.7768,-137.627 66.013,-131.674 69.1512,-141.793 74.7768,-137.627"/>
</g>
<!-- Node5 -->
<g id="node5" class="node"><title>Node5</title>
<g id="a_node5"><a xlink:href="_config_8h.html" target="_top" xlink:title="../../engine/Util/Config.h">
<polygon fill="none" stroke="black" points="1161.5,-593.5 1161.5,-612.5 1282.5,-612.5 1282.5,-593.5 1161.5,-593.5"/>
<text text-anchor="middle" x="1222" y="-600.5" font-family="Helvetica,sans-Serif" font-size="10.00">../../engine/Util/Config.h</text>
</a>
</g>
</g>
<!-- Node1&#45;&gt;Node5 -->
<g id="edge4" class="edge"><title>Node1&#45;&gt;Node5</title>
<path fill="none" stroke="midnightblue" d="M1184.43,-649.083C1190.85,-641.377 1200.31,-630.033 1208.12,-620.653"/>
<polygon fill="midnightblue" stroke="midnightblue" points="1210.99,-622.674 1214.71,-612.751 1205.62,-618.193 1210.99,-622.674"/>
</g>
<!-- Node7 -->
<g id="node7" class="node"><title>Node7</title>
<g id="a_node7"><a xlink:href="_o_s_8h.html" target="_top" xlink:title="OS.h">
<polygon fill="none" stroke="black" points="1056.5,-112.5 1056.5,-131.5 1095.5,-131.5 1095.5,-112.5 1056.5,-112.5"/>
<text text-anchor="middle" x="1076" y="-119.5" font-family="Helvetica,sans-Serif" font-size="10.00">OS.h</text>
</a>
</g>
</g>
<!-- Node1&#45;&gt;Node7 -->
<g id="edge20" class="edge"><title>Node1&#45;&gt;Node7</title>
<path fill="none" stroke="midnightblue" d="M1170.88,-649.349C1158.79,-631.377 1133,-588.314 1133,-548 1133,-548 1133,-548 1133,-238.5 1133,-199.783 1106.93,-160.604 1090.05,-139.298"/>
<polygon fill="midnightblue" stroke="midnightblue" points="1092.74,-137.062 1083.69,-131.557 1087.33,-141.506 1092.74,-137.062"/>
</g>
<!-- Node16 -->
<g id="node16" class="node"><title>Node16</title>
<g id="a_node16"><a xlink:href="_locale_8h.html" target="_top" xlink:title="../../engine/Util/Locale.h">
<polygon fill="none" stroke="black" points="1250.5,-168.5 1250.5,-187.5 1371.5,-187.5 1371.5,-168.5 1250.5,-168.5"/>
<text text-anchor="middle" x="1311" y="-175.5" font-family="Helvetica,sans-Serif" font-size="10.00">../../engine/Util/Locale.h</text>
</a>
</g>
</g>
<!-- Node1&#45;&gt;Node16 -->
<g id="edge15" class="edge"><title>Node1&#45;&gt;Node16</title>
<path fill="none" stroke="midnightblue" d="M1205.1,-654.157C1231.17,-649.131 1269.28,-637.832 1292,-613 1312.32,-590.796 1311,-578.098 1311,-548 1311,-548 1311,-548 1311,-300 1311,-263.714 1311,-221.307 1311,-197.559"/>
<polygon fill="midnightblue" stroke="midnightblue" points="1314.5,-197.509 1311,-187.509 1307.5,-197.509 1314.5,-197.509"/>
</g>
<!-- Node17 -->
<g id="node17" class="node"><title>Node17</title>
<g id="a_node17"><a xlink:href="_log_8h.html" target="_top" xlink:title="../../engine/Util/Log.h">
<polygon fill="none" stroke="black" points="1339,-593.5 1339,-612.5 1447,-612.5 1447,-593.5 1339,-593.5"/>
<text text-anchor="middle" x="1393" y="-600.5" font-family="Helvetica,sans-Serif" font-size="10.00">../../engine/Util/Log.h</text>
</a>
</g>
</g>
<!-- Node1&#45;&gt;Node17 -->
<g id="edge18" class="edge"><title>Node1&#45;&gt;Node17</title>
<path fill="none" stroke="midnightblue" d="M1205.24,-650.94C1241.76,-641.809 1305.78,-625.804 1348.78,-615.054"/>
<polygon fill="midnightblue" stroke="midnightblue" points="1349.84,-618.397 1358.7,-612.576 1348.15,-611.606 1349.84,-618.397"/>
</g>
<!-- Node19 -->
<g id="node19" class="node"><title>Node19</title>
<g id="a_node19"><a xlink:href="_str_8h.html" target="_top" xlink:title="../../engine/Util/Str.h">
<polygon fill="none" stroke="black" points="931.5,-414.5 931.5,-433.5 1036.5,-433.5 1036.5,-414.5 931.5,-414.5"/>
<text text-anchor="middle" x="984" y="-421.5" font-family="Helvetica,sans-Serif" font-size="10.00">../../engine/Util/Str.h</text>
</a>
</g>
</g>
<!-- Node1&#45;&gt;Node19 -->
<g id="edge21" class="edge"><title>Node1&#45;&gt;Node19</title>
<path fill="none" stroke="midnightblue" d="M1148.87,-657.095C1112.28,-654.584 1047.97,-645.471 1005,-613 981.951,-595.584 979.601,-584.871 972,-557 961.241,-517.549 971.201,-469.264 978.3,-443.419"/>
<polygon fill="midnightblue" stroke="midnightblue" points="981.747,-444.101 981.187,-433.521 975.027,-442.14 981.747,-444.101"/>
</g>
<!-- Node20 -->
<g id="node20" class="node"><title>Node20</title>
<g id="a_node20"><a xlink:href="_engine_8h.html" target="_top" xlink:title="../../engine/Engine.h">
<polygon fill="none" stroke="black" points="1465,-593.5 1465,-612.5 1569,-612.5 1569,-593.5 1465,-593.5"/>
<text text-anchor="middle" x="1517" y="-600.5" font-family="Helvetica,sans-Serif" font-size="10.00">../../engine/Engine.h</text>
</a>
</g>
</g>
<!-- Node1&#45;&gt;Node20 -->
<g id="edge23" class="edge"><title>Node1&#45;&gt;Node20</title>
<path fill="none" stroke="midnightblue" d="M1205.11,-653.535C1259.51,-644.895 1380.35,-625.704 1454.62,-613.907"/>
<polygon fill="midnightblue" stroke="midnightblue" points="1455.46,-617.318 1464.78,-612.293 1454.36,-610.405 1455.46,-617.318"/>
</g>
<!-- Node21 -->
<g id="node21" class="node"><title>Node21</title>
<g id="a_node21"><a xlink:href="_client_app_8h.html" target="_top" xlink:title="ClientApp.h">
<polygon fill="none" stroke="black" points="1014,-593.5 1014,-612.5 1082,-612.5 1082,-593.5 1014,-593.5"/>
<text text-anchor="middle" x="1048" y="-600.5" font-family="Helvetica,sans-Serif" font-size="10.00">ClientApp.h</text>
</a>
</g>
</g>
<!-- Node1&#45;&gt;Node21 -->
<g id="edge24" class="edge"><title>Node1&#45;&gt;Node21</title>
<path fill="none" stroke="midnightblue" d="M1156.56,-649.444C1135.33,-640.557 1101.9,-626.563 1077.75,-616.451"/>
<polygon fill="midnightblue" stroke="midnightblue" points="1078.92,-613.149 1068.34,-612.516 1076.22,-619.606 1078.92,-613.149"/>
</g>
<!-- Node51 -->
<g id="node51" class="node"><title>Node51</title>
<polygon fill="none" stroke="#bfbfbf" points="1587.5,-593.5 1587.5,-612.5 1700.5,-612.5 1700.5,-593.5 1587.5,-593.5"/>
<text text-anchor="middle" x="1644" y="-600.5" font-family="Helvetica,sans-Serif" font-size="10.00">hoverrace/hr&#45;version.h</text>
</g>
<!-- Node1&#45;&gt;Node51 -->
<g id="edge80" class="edge"><title>Node1&#45;&gt;Node51</title>
<path fill="none" stroke="midnightblue" d="M1205.22,-655.066C1269.28,-648.357 1430.79,-631.161 1577.4,-613.046"/>
<polygon fill="midnightblue" stroke="midnightblue" points="1577.99,-616.5 1587.49,-611.796 1577.13,-609.554 1577.99,-616.5"/>
</g>
<!-- Node4 -->
<g id="node4" class="node"><title>Node4</title>
<polygon fill="none" stroke="#bfbfbf" points="29.5,-56.5 29.5,-75.5 88.5,-75.5 88.5,-56.5 29.5,-56.5"/>
<text text-anchor="middle" x="59" y="-63.5" font-family="Helvetica,sans-Serif" font-size="10.00">exception</text>
</g>
<!-- Node3&#45;&gt;Node4 -->
<g id="edge3" class="edge"><title>Node3&#45;&gt;Node4</title>
<path fill="none" stroke="midnightblue" d="M59,-112.083C59,-105.006 59,-94.8611 59,-85.9865"/>
<polygon fill="midnightblue" stroke="midnightblue" points="62.5001,-85.751 59,-75.7511 55.5001,-85.7511 62.5001,-85.751"/>
</g>
<!-- Node6 -->
<g id="node6" class="node"><title>Node6</title>
<polygon fill="none" stroke="#bfbfbf" points="1161,-537.5 1161,-556.5 1217,-556.5 1217,-537.5 1161,-537.5"/>
<text text-anchor="middle" x="1189" y="-544.5" font-family="Helvetica,sans-Serif" font-size="10.00">basedir.h</text>
</g>
<!-- Node5&#45;&gt;Node6 -->
<g id="edge5" class="edge"><title>Node5&#45;&gt;Node6</title>
<path fill="none" stroke="midnightblue" d="M1216.55,-593.083C1211.99,-585.613 1205.33,-574.724 1199.71,-565.52"/>
<polygon fill="midnightblue" stroke="midnightblue" points="1202.55,-563.459 1194.35,-556.751 1196.58,-567.109 1202.55,-563.459"/>
</g>
<!-- Node5&#45;&gt;Node7 -->
<g id="edge6" class="edge"><title>Node5&#45;&gt;Node7</title>
<path fill="none" stroke="midnightblue" d="M1223.01,-593.33C1228.12,-545.589 1247.08,-311.683 1147,-168 1136.67,-153.167 1119.71,-142.153 1104.96,-134.734"/>
<polygon fill="midnightblue" stroke="midnightblue" points="1106.22,-131.458 1095.68,-130.375 1103.24,-137.794 1106.22,-131.458"/>
</g>
<!-- Node8 -->
<g id="node8" class="node"><title>Node8</title>
<polygon fill="none" stroke="#bfbfbf" points="1284,-56.5 1284,-75.5 1326,-75.5 1326,-56.5 1284,-56.5"/>
<text text-anchor="middle" x="1305" y="-63.5" font-family="Helvetica,sans-Serif" font-size="10.00">locale</text>
</g>
<!-- Node7&#45;&gt;Node8 -->
<g id="edge7" class="edge"><title>Node7&#45;&gt;Node8</title>
<path fill="none" stroke="midnightblue" d="M1095.65,-116.849C1131.18,-109.27 1208.41,-92.4504 1273,-76 1273.33,-75.9172 1273.65,-75.8335 1273.98,-75.7491"/>
<polygon fill="midnightblue" stroke="midnightblue" points="1274.94,-79.1156 1283.7,-73.1507 1273.13,-72.3533 1274.94,-79.1156"/>
</g>
<!-- Node9 -->
<g id="node9" class="node"><title>Node9</title>
<polygon fill="none" stroke="#bfbfbf" points="1214.5,-56.5 1214.5,-75.5 1263.5,-75.5 1263.5,-56.5 1214.5,-56.5"/>
<text text-anchor="middle" x="1239" y="-63.5" font-family="Helvetica,sans-Serif" font-size="10.00">random</text>
</g>
<!-- Node7&#45;&gt;Node9 -->
<g id="edge8" class="edge"><title>Node7&#45;&gt;Node9</title>
<path fill="none" stroke="midnightblue" d="M1095.66,-114.486C1122.67,-105.538 1171.67,-89.3065 1204.77,-78.341"/>
<polygon fill="midnightblue" stroke="midnightblue" points="1206.1,-81.5882 1214.49,-75.1209 1203.89,-74.9433 1206.1,-81.5882"/>
</g>
<!-- Node10 -->
<g id="node10" class="node"><title>Node10</title>
<polygon fill="none" stroke="#bfbfbf" points="1042,-56.5 1042,-75.5 1072,-75.5 1072,-56.5 1042,-56.5"/>
<text text-anchor="middle" x="1057" y="-63.5" font-family="Helvetica,sans-Serif" font-size="10.00">set</text>
</g>
<!-- Node7&#45;&gt;Node10 -->
<g id="edge9" class="edge"><title>Node7&#45;&gt;Node10</title>
<path fill="none" stroke="midnightblue" d="M1072.86,-112.083C1070.32,-104.849 1066.64,-94.4087 1063.47,-85.3968"/>
<polygon fill="midnightblue" stroke="midnightblue" points="1066.7,-84.0225 1060.08,-75.7511 1060.1,-86.3459 1066.7,-84.0225"/>
</g>
<!-- Node11 -->
<g id="node11" class="node"><title>Node11</title>
<polygon fill="none" stroke="#bfbfbf" points="299.5,-56.5 299.5,-75.5 340.5,-75.5 340.5,-56.5 299.5,-56.5"/>
<text text-anchor="middle" x="320" y="-63.5" font-family="Helvetica,sans-Serif" font-size="10.00">string</text>
</g>
<!-- Node7&#45;&gt;Node11 -->
<g id="edge10" class="edge"><title>Node7&#45;&gt;Node11</title>
<path fill="none" stroke="midnightblue" d="M1056.17,-119.583C952.942,-112.21 477.048,-78.2177 350.81,-69.2007"/>
<polygon fill="midnightblue" stroke="midnightblue" points="350.905,-65.6987 340.681,-68.4772 350.406,-72.6809 350.905,-65.6987"/>
</g>
<!-- Node12 -->
<g id="node12" class="node"><title>Node12</title>
<polygon fill="none" stroke="#bfbfbf" points="980,-56.5 980,-75.5 1024,-75.5 1024,-56.5 980,-56.5"/>
<text text-anchor="middle" x="1002" y="-63.5" font-family="Helvetica,sans-Serif" font-size="10.00">vector</text>
</g>
<!-- Node7&#45;&gt;Node12 -->
<g id="edge11" class="edge"><title>Node7&#45;&gt;Node12</title>
<path fill="none" stroke="midnightblue" d="M1064.11,-112.324C1052.85,-104.107 1035.71,-91.6017 1022.29,-81.8069"/>
<polygon fill="midnightblue" stroke="midnightblue" points="1024.25,-78.9014 1014.11,-75.8339 1020.12,-84.5559 1024.25,-78.9014"/>
</g>
<!-- Node13 -->
<g id="node13" class="node"><title>Node13</title>
<polygon fill="none" stroke="#bfbfbf" points="1089.5,-56.5 1089.5,-75.5 1196.5,-75.5 1196.5,-56.5 1089.5,-56.5"/>
<text text-anchor="middle" x="1143" y="-63.5" font-family="Helvetica,sans-Serif" font-size="10.00">boost/filesystem.hpp</text>
</g>
<!-- Node7&#45;&gt;Node13 -->
<g id="edge12" class="edge"><title>Node7&#45;&gt;Node13</title>
<path fill="none" stroke="midnightblue" d="M1086.76,-112.324C1096.77,-104.263 1111.89,-92.0765 1123.93,-82.3695"/>
<polygon fill="midnightblue" stroke="midnightblue" points="1126.45,-84.8343 1132.04,-75.8339 1122.06,-79.3841 1126.45,-84.8343"/>
</g>
<!-- Node14 -->
<g id="node14" class="node"><title>Node14</title>
<g id="a_node14"><a xlink:href="_m_r___types_8h.html" target="_top" xlink:title="MR_Types.h">
<polygon fill="none" stroke="black" points="601.5,-56.5 601.5,-75.5 674.5,-75.5 674.5,-56.5 601.5,-56.5"/>
<text text-anchor="middle" x="638" y="-63.5" font-family="Helvetica,sans-Serif" font-size="10.00">MR_Types.h</text>
</a>
</g>
</g>
<!-- Node7&#45;&gt;Node14 -->
<g id="edge13" class="edge"><title>Node7&#45;&gt;Node14</title>
<path fill="none" stroke="midnightblue" d="M1056.33,-118.575C990.948,-110.514 779.691,-84.4688 684.85,-72.7761"/>
<polygon fill="midnightblue" stroke="midnightblue" points="685.042,-69.2733 674.689,-71.5233 684.185,-76.2207 685.042,-69.2733"/>
</g>
<!-- Node15 -->
<g id="node15" class="node"><title>Node15</title>
<polygon fill="none" stroke="#bfbfbf" points="608.5,-0.5 608.5,-19.5 667.5,-19.5 667.5,-0.5 608.5,-0.5"/>
<text text-anchor="middle" x="638" y="-7.5" font-family="Helvetica,sans-Serif" font-size="10.00">inttypes.h</text>
</g>
<!-- Node14&#45;&gt;Node15 -->
<g id="edge14" class="edge"><title>Node14&#45;&gt;Node15</title>
<path fill="none" stroke="midnightblue" d="M638,-56.083C638,-49.0059 638,-38.8611 638,-29.9865"/>
<polygon fill="midnightblue" stroke="midnightblue" points="641.5,-29.751 638,-19.7511 634.5,-29.7511 641.5,-29.751"/>
</g>
<!-- Node16&#45;&gt;Node7 -->
<g id="edge17" class="edge"><title>Node16&#45;&gt;Node7</title>
<path fill="none" stroke="midnightblue" d="M1273.76,-168.444C1227.13,-157.729 1148.2,-139.591 1105.52,-129.783"/>
<polygon fill="midnightblue" stroke="midnightblue" points="1106.27,-126.364 1095.74,-127.535 1104.7,-133.186 1106.27,-126.364"/>
</g>
<!-- Node16&#45;&gt;Node8 -->
<g id="edge16" class="edge"><title>Node16&#45;&gt;Node8</title>
<path fill="none" stroke="midnightblue" d="M1310.53,-168.368C1309.56,-150.617 1307.33,-109.666 1306.01,-85.5974"/>
<polygon fill="midnightblue" stroke="midnightblue" points="1309.51,-85.3859 1305.47,-75.5914 1302.52,-85.7672 1309.51,-85.3859"/>
</g>
<!-- Node18 -->
<g id="node18" class="node"><title>Node18</title>
<polygon fill="none" stroke="#bfbfbf" points="1342.5,-537.5 1342.5,-556.5 1443.5,-556.5 1443.5,-537.5 1342.5,-537.5"/>
<text text-anchor="middle" x="1393" y="-544.5" font-family="Helvetica,sans-Serif" font-size="10.00">boost/log/trivial.hpp</text>
</g>
<!-- Node17&#45;&gt;Node18 -->
<g id="edge19" class="edge"><title>Node17&#45;&gt;Node18</title>
<path fill="none" stroke="midnightblue" d="M1393,-593.083C1393,-586.006 1393,-575.861 1393,-566.986"/>
<polygon fill="midnightblue" stroke="midnightblue" points="1396.5,-566.751 1393,-556.751 1389.5,-566.751 1396.5,-566.751"/>
</g>
<!-- Node19&#45;&gt;Node7 -->
<g id="edge22" class="edge"><title>Node19&#45;&gt;Node7</title>
<path fill="none" stroke="midnightblue" d="M996.589,-414.407C1007.66,-406.241 1023.45,-393.005 1033,-378 1052.02,-348.119 1057,-337.422 1057,-302 1057,-302 1057,-302 1057,-238.5 1057,-203.905 1065.4,-164.245 1071.03,-141.555"/>
<polygon fill="midnightblue" stroke="midnightblue" points="1074.49,-142.171 1073.59,-131.614 1067.71,-140.424 1074.49,-142.171"/>
</g>
<!-- Node21&#45;&gt;Node7 -->
<g id="edge25" class="edge"><title>Node21&#45;&gt;Node7</title>
<path fill="none" stroke="midnightblue" d="M1054.38,-593.458C1060.66,-584.705 1070.13,-570.503 1076,-557 1088.93,-527.237 1095,-518.951 1095,-486.5 1095,-486.5 1095,-486.5 1095,-238.5 1095,-203.905 1086.6,-164.245 1080.97,-141.555"/>
<polygon fill="midnightblue" stroke="midnightblue" points="1084.29,-140.424 1078.41,-131.614 1077.51,-142.171 1084.29,-140.424"/>
</g>
<!-- Node22 -->
<g id="node22" class="node"><title>Node22</title>
<g id="a_node22"><a xlink:href="_observer_8h.html" target="_top" xlink:title="Observer.h">
<polygon fill="none" stroke="black" points="615.5,-537.5 615.5,-556.5 680.5,-556.5 680.5,-537.5 615.5,-537.5"/>
<text text-anchor="middle" x="648" y="-544.5" font-family="Helvetica,sans-Serif" font-size="10.00">Observer.h</text>
</a>
</g>
</g>
<!-- Node21&#45;&gt;Node22 -->
<g id="edge26" class="edge"><title>Node21&#45;&gt;Node22</title>
<path fill="none" stroke="midnightblue" d="M1013.9,-597.396C941.12,-587.571 770.74,-564.57 690.816,-553.78"/>
<polygon fill="midnightblue" stroke="midnightblue" points="690.993,-550.272 680.614,-552.403 690.056,-557.209 690.993,-550.272"/>
</g>
<!-- Node50 -->
<g id="node50" class="node"><title>Node50</title>
<g id="a_node50"><a xlink:href="_game_director_8h.html" target="_top" xlink:title="GameDirector.h">
<polygon fill="none" stroke="black" points="981,-537.5 981,-556.5 1067,-556.5 1067,-537.5 981,-537.5"/>
<text text-anchor="middle" x="1024" y="-544.5" font-family="Helvetica,sans-Serif" font-size="10.00">GameDirector.h</text>
</a>
</g>
</g>
<!-- Node21&#45;&gt;Node50 -->
<g id="edge79" class="edge"><title>Node21&#45;&gt;Node50</title>
<path fill="none" stroke="midnightblue" d="M1044.04,-593.083C1040.79,-585.77 1036.08,-575.181 1032.05,-566.103"/>
<polygon fill="midnightblue" stroke="midnightblue" points="1035.15,-564.468 1027.89,-556.751 1028.75,-567.311 1035.15,-564.468"/>
</g>
<!-- Node23 -->
<g id="node23" class="node"><title>Node23</title>
<g id="a_node23"><a xlink:href="_hud_cell_8h.html" target="_top" xlink:title="../../engine/Display\l/HudCell.h">
<polygon fill="none" stroke="black" points="676.5,-470.5 676.5,-500.5 775.5,-500.5 775.5,-470.5 676.5,-470.5"/>
<text text-anchor="start" x="684.5" y="-488.5" font-family="Helvetica,sans-Serif" font-size="10.00">../../engine/Display</text>
<text text-anchor="middle" x="726" y="-477.5" font-family="Helvetica,sans-Serif" font-size="10.00">/HudCell.h</text>
</a>
</g>
</g>
<!-- Node22&#45;&gt;Node23 -->
<g id="edge27" class="edge"><title>Node22&#45;&gt;Node23</title>
<path fill="none" stroke="midnightblue" d="M659.175,-537.475C669.641,-529.492 685.684,-517.254 699.427,-506.77"/>
<polygon fill="midnightblue" stroke="midnightblue" points="701.789,-509.371 707.617,-500.523 697.543,-503.805 701.789,-509.371"/>
</g>
<!-- Node24 -->
<g id="node24" class="node"><title>Node24</title>
<g id="a_node24"><a xlink:href="_viewport3_d_8h.html" target="_top" xlink:title="../../engine/VideoServices\l/Viewport3D.h">
<polygon fill="none" stroke="black" points="533.5,-224.5 533.5,-254.5 662.5,-254.5 662.5,-224.5 533.5,-224.5"/>
<text text-anchor="start" x="541.5" y="-242.5" font-family="Helvetica,sans-Serif" font-size="10.00">../../engine/VideoServices</text>
<text text-anchor="middle" x="598" y="-231.5" font-family="Helvetica,sans-Serif" font-size="10.00">/Viewport3D.h</text>
</a>
</g>
</g>
<!-- Node22&#45;&gt;Node24 -->
<g id="edge28" class="edge"><title>Node22&#45;&gt;Node24</title>
<path fill="none" stroke="midnightblue" d="M630.969,-537.272C600.312,-520.205 539,-479.285 539,-425 539,-425 539,-425 539,-361.5 539,-329.049 543.403,-319.983 558,-291 563.056,-280.961 570.307,-271.021 577.25,-262.65"/>
<polygon fill="midnightblue" stroke="midnightblue" points="580.099,-264.707 583.999,-254.856 574.807,-260.125 580.099,-264.707"/>
</g>
<!-- Node31 -->
<g id="node31" class="node"><title>Node31</title>
<g id="a_node31"><a xlink:href="_main_character_8h.html" target="_top" xlink:title="../../engine/MainCharacter\l/MainCharacter.h">
<polygon fill="none" stroke="black" points="654,-347.5 654,-377.5 784,-377.5 784,-347.5 654,-347.5"/>
<text text-anchor="start" x="662" y="-365.5" font-family="Helvetica,sans-Serif" font-size="10.00">../../engine/MainCharacter</text>
<text text-anchor="middle" x="719" y="-354.5" font-family="Helvetica,sans-Serif" font-size="10.00">/MainCharacter.h</text>
</a>
</g>
</g>
<!-- Node22&#45;&gt;Node31 -->
<g id="edge39" class="edge"><title>Node22&#45;&gt;Node31</title>
<path fill="none" stroke="midnightblue" d="M649.541,-537.391C652.232,-523.117 658.335,-493.767 667,-470 677.879,-440.16 694.544,-407.585 706.062,-386.422"/>
<polygon fill="midnightblue" stroke="midnightblue" points="709.189,-388 710.953,-377.553 703.06,-384.62 709.189,-388"/>
</g>
<!-- Node41 -->
<g id="node41" class="node"><title>Node41</title>
<g id="a_node41"><a xlink:href="_sprite_handle_8h.html" target="_top" xlink:title="../../engine/ObjFacTools\l/SpriteHandle.h">
<polygon fill="none" stroke="black" points="316,-470.5 316,-500.5 438,-500.5 438,-470.5 316,-470.5"/>
<text text-anchor="start" x="324" y="-488.5" font-family="Helvetica,sans-Serif" font-size="10.00">../../engine/ObjFacTools</text>
<text text-anchor="middle" x="377" y="-477.5" font-family="Helvetica,sans-Serif" font-size="10.00">/SpriteHandle.h</text>
</a>
</g>
</g>
<!-- Node22&#45;&gt;Node41 -->
<g id="edge62" class="edge"><title>Node22&#45;&gt;Node41</title>
<path fill="none" stroke="midnightblue" d="M615.311,-538.823C574.095,-529.774 502.091,-513.965 447.987,-502.086"/>
<polygon fill="midnightblue" stroke="midnightblue" points="448.622,-498.642 438.104,-499.916 447.121,-505.479 448.622,-498.642"/>
</g>
<!-- Node25 -->
<g id="node25" class="node"><title>Node25</title>
<g id="a_node25"><a xlink:href="_viewport2_d_8h.html" target="_top" xlink:title="Viewport2D.h">
<polygon fill="none" stroke="black" points="434,-168.5 434,-187.5 510,-187.5 510,-168.5 434,-168.5"/>
<text text-anchor="middle" x="472" y="-175.5" font-family="Helvetica,sans-Serif" font-size="10.00">Viewport2D.h</text>
</a>
</g>
</g>
<!-- Node24&#45;&gt;Node25 -->
<g id="edge29" class="edge"><title>Node24&#45;&gt;Node25</title>
<path fill="none" stroke="midnightblue" d="M568.14,-224.399C547.377,-214.595 519.9,-201.619 499.639,-192.052"/>
<polygon fill="midnightblue" stroke="midnightblue" points="500.871,-188.763 490.334,-187.658 497.882,-195.093 500.871,-188.763"/>
</g>
<!-- Node26 -->
<g id="node26" class="node"><title>Node26</title>
<g id="a_node26"><a xlink:href="_color_palette_8h.html" target="_top" xlink:title="ColorPalette.h">
<polygon fill="none" stroke="black" points="601.5,-168.5 601.5,-187.5 680.5,-187.5 680.5,-168.5 601.5,-168.5"/>
<text text-anchor="middle" x="641" y="-175.5" font-family="Helvetica,sans-Serif" font-size="10.00">ColorPalette.h</text>
</a>
</g>
</g>
<!-- Node24&#45;&gt;Node26 -->
<g id="edge31" class="edge"><title>Node24&#45;&gt;Node26</title>
<path fill="none" stroke="midnightblue" d="M608.19,-224.399C614.374,-215.842 622.303,-204.871 628.818,-195.857"/>
<polygon fill="midnightblue" stroke="midnightblue" points="631.722,-197.813 634.743,-187.658 626.049,-193.713 631.722,-197.813"/>
</g>
<!-- Node28 -->
<g id="node28" class="node"><title>Node28</title>
<g id="a_node28"><a xlink:href="_bitmap_8h.html" target="_top" xlink:title="Bitmap.h">
<polygon fill="none" stroke="black" points="528,-168.5 528,-187.5 584,-187.5 584,-168.5 528,-168.5"/>
<text text-anchor="middle" x="556" y="-175.5" font-family="Helvetica,sans-Serif" font-size="10.00">Bitmap.h</text>
</a>
</g>
</g>
<!-- Node24&#45;&gt;Node28 -->
<g id="edge34" class="edge"><title>Node24&#45;&gt;Node28</title>
<path fill="none" stroke="midnightblue" d="M588.047,-224.399C582.006,-215.842 574.262,-204.871 567.899,-195.857"/>
<polygon fill="midnightblue" stroke="midnightblue" points="570.738,-193.809 562.111,-187.658 565.019,-197.846 570.738,-193.809"/>
</g>
<!-- Node29 -->
<g id="node29" class="node"><title>Node29</title>
<g id="a_node29"><a xlink:href="_patch_8h.html" target="_top" xlink:title="Patch.h">
<polygon fill="none" stroke="black" points="699,-168.5 699,-187.5 749,-187.5 749,-168.5 699,-168.5"/>
<text text-anchor="middle" x="724" y="-175.5" font-family="Helvetica,sans-Serif" font-size="10.00">Patch.h</text>
</a>
</g>
</g>
<!-- Node24&#45;&gt;Node29 -->
<g id="edge36" class="edge"><title>Node24&#45;&gt;Node29</title>
<path fill="none" stroke="midnightblue" d="M627.86,-224.399C648.623,-214.595 676.1,-201.619 696.361,-192.052"/>
<polygon fill="midnightblue" stroke="midnightblue" points="698.118,-195.093 705.666,-187.658 695.129,-188.763 698.118,-195.093"/>
</g>
<!-- Node25&#45;&gt;Node14 -->
<g id="edge30" class="edge"><title>Node25&#45;&gt;Node14</title>
<path fill="none" stroke="midnightblue" d="M476.521,-168.182C484.007,-154.384 500.237,-127.654 521,-112 541.814,-96.3077 568.764,-85.4487 591.551,-78.3353"/>
<polygon fill="midnightblue" stroke="midnightblue" points="592.772,-81.6239 601.36,-75.42 590.777,-74.9139 592.772,-81.6239"/>
</g>
<!-- Node26&#45;&gt;Node14 -->
<g id="edge33" class="edge"><title>Node26&#45;&gt;Node14</title>
<path fill="none" stroke="midnightblue" d="M640.765,-168.368C640.28,-150.617 639.164,-109.666 638.507,-85.5974"/>
<polygon fill="midnightblue" stroke="midnightblue" points="642.006,-85.4922 638.234,-75.5914 635.008,-85.6832 642.006,-85.4922"/>
</g>
<!-- Node27 -->
<g id="node27" class="node"><title>Node27</title>
<polygon fill="none" stroke="#bfbfbf" points="538,-112.5 538,-131.5 610,-131.5 610,-112.5 538,-112.5"/>
<text text-anchor="middle" x="574" y="-119.5" font-family="Helvetica,sans-Serif" font-size="10.00">SDL2/SDL.h</text>
</g>
<!-- Node26&#45;&gt;Node27 -->
<g id="edge32" class="edge"><title>Node26&#45;&gt;Node27</title>
<path fill="none" stroke="midnightblue" d="M630.235,-168.324C620.234,-160.263 605.113,-148.077 593.07,-138.369"/>
<polygon fill="midnightblue" stroke="midnightblue" points="594.943,-135.384 584.961,-131.834 590.55,-140.834 594.943,-135.384"/>
</g>
<!-- Node28&#45;&gt;Node14 -->
<g id="edge35" class="edge"><title>Node28&#45;&gt;Node14</title>
<path fill="none" stroke="midnightblue" d="M547.436,-168.48C535.497,-155.539 516.634,-130.484 529,-112 542.982,-91.1003 568.639,-79.8967 591.548,-73.8959"/>
<polygon fill="midnightblue" stroke="midnightblue" points="592.558,-77.2542 601.492,-71.5592 590.956,-70.4398 592.558,-77.2542"/>
</g>
<!-- Node30 -->
<g id="node30" class="node"><title>Node30</title>
<g id="a_node30"><a xlink:href="_world_coordinates_8h.html" target="_top" xlink:title="../Util/WorldCoordinates.h">
<polygon fill="none" stroke="black" points="666,-112.5 666,-131.5 796,-131.5 796,-112.5 666,-112.5"/>
<text text-anchor="middle" x="731" y="-119.5" font-family="Helvetica,sans-Serif" font-size="10.00">../Util/WorldCoordinates.h</text>
</a>
</g>
</g>
<!-- Node29&#45;&gt;Node30 -->
<g id="edge37" class="edge"><title>Node29&#45;&gt;Node30</title>
<path fill="none" stroke="midnightblue" d="M725.156,-168.083C726.084,-160.927 727.418,-150.635 728.577,-141.691"/>
<polygon fill="midnightblue" stroke="midnightblue" points="732.051,-142.118 729.866,-131.751 725.109,-141.218 732.051,-142.118"/>
</g>
<!-- Node30&#45;&gt;Node14 -->
<g id="edge38" class="edge"><title>Node30&#45;&gt;Node14</title>
<path fill="none" stroke="midnightblue" d="M716.058,-112.324C701.415,-103.822 678.866,-90.7288 661.762,-80.7975"/>
<polygon fill="midnightblue" stroke="midnightblue" points="663.31,-77.6491 652.905,-75.6545 659.795,-83.7027 663.31,-77.6491"/>
</g>
<!-- Node32 -->
<g id="node32" class="node"><title>Node32</title>
<g id="a_node32"><a xlink:href="_color_8h.html" target="_top" xlink:title="../Display/Color.h">
<polygon fill="none" stroke="black" points="805.5,-168.5 805.5,-187.5 898.5,-187.5 898.5,-168.5 805.5,-168.5"/>
<text text-anchor="middle" x="852" y="-175.5" font-family="Helvetica,sans-Serif" font-size="10.00">../Display/Color.h</text>
</a>
</g>
</g>
<!-- Node31&#45;&gt;Node32 -->
<g id="edge40" class="edge"><title>Node31&#45;&gt;Node32</title>
<path fill="none" stroke="midnightblue" d="M721.247,-347.471C723.934,-332.86 729.208,-309.558 738,-291 753.684,-257.896 759.799,-249.599 786,-224 798.293,-211.99 814.15,-201.063 827.24,-192.984"/>
<polygon fill="midnightblue" stroke="midnightblue" points="829.406,-195.767 836.192,-187.631 825.813,-189.759 829.406,-195.767"/>
</g>
<!-- Node34 -->
<g id="node34" class="node"><title>Node34</title>
<g id="a_node34"><a xlink:href="_maze_element_8h.html" target="_top" xlink:title="../Model/MazeElement.h">
<polygon fill="none" stroke="black" points="567.5,-291.5 567.5,-310.5 690.5,-310.5 690.5,-291.5 567.5,-291.5"/>
<text text-anchor="middle" x="629" y="-298.5" font-family="Helvetica,sans-Serif" font-size="10.00">../Model/MazeElement.h</text>
</a>
</g>
</g>
<!-- Node31&#45;&gt;Node34 -->
<g id="edge44" class="edge"><title>Node31&#45;&gt;Node34</title>
<path fill="none" stroke="midnightblue" d="M697.671,-347.399C683.515,-338.04 664.989,-325.792 650.747,-316.377"/>
<polygon fill="midnightblue" stroke="midnightblue" points="652.368,-313.253 642.096,-310.658 648.507,-319.092 652.368,-313.253"/>
</g>
<!-- Node39 -->
<g id="node39" class="node"><title>Node39</title>
<g id="a_node39"><a xlink:href="_physical_collision_8h.html" target="_top" xlink:title="../Model/PhysicalCollision.h">
<polygon fill="none" stroke="black" points="747,-291.5 747,-310.5 885,-310.5 885,-291.5 747,-291.5"/>
<text text-anchor="middle" x="816" y="-298.5" font-family="Helvetica,sans-Serif" font-size="10.00">../Model/PhysicalCollision.h</text>
</a>
</g>
</g>
<!-- Node31&#45;&gt;Node39 -->
<g id="edge57" class="edge"><title>Node31&#45;&gt;Node39</title>
<path fill="none" stroke="midnightblue" d="M741.988,-347.399C757.391,-337.951 777.593,-325.559 792.999,-316.109"/>
<polygon fill="midnightblue" stroke="midnightblue" points="795.192,-318.87 801.886,-310.658 791.531,-312.903 795.192,-318.87"/>
</g>
<!-- Node40 -->
<g id="node40" class="node"><title>Node40</title>
<g id="a_node40"><a xlink:href="_fast_fifo_8h.html" target="_top" xlink:title="../Util/FastFifo.h">
<polygon fill="none" stroke="black" points="903,-291.5 903,-310.5 991,-310.5 991,-291.5 903,-291.5"/>
<text text-anchor="middle" x="947" y="-298.5" font-family="Helvetica,sans-Serif" font-size="10.00">../Util/FastFifo.h</text>
</a>
</g>
</g>
<!-- Node31&#45;&gt;Node40 -->
<g id="edge60" class="edge"><title>Node31&#45;&gt;Node40</title>
<path fill="none" stroke="midnightblue" d="M772.744,-347.475C812.938,-336.986 867.155,-322.837 904.381,-313.122"/>
<polygon fill="midnightblue" stroke="midnightblue" points="905.612,-316.418 914.404,-310.506 903.844,-309.645 905.612,-316.418"/>
</g>
<!-- Node32&#45;&gt;Node14 -->
<g id="edge41" class="edge"><title>Node32&#45;&gt;Node14</title>
<path fill="none" stroke="midnightblue" d="M868.321,-168.337C889.803,-155.839 922.962,-132.048 906,-112 878.21,-79.1548 753.985,-70.2694 684.841,-67.8752"/>
<polygon fill="midnightblue" stroke="midnightblue" points="684.754,-64.3708 674.649,-67.5554 684.534,-71.3674 684.754,-64.3708"/>
</g>
<!-- Node33 -->
<g id="node33" class="node"><title>Node33</title>
<g id="a_node33"><a xlink:href="_sel_fmt_8h.html" target="_top" xlink:title="../Util/SelFmt.h">
<polygon fill="none" stroke="black" points="814.5,-112.5 814.5,-131.5 897.5,-131.5 897.5,-112.5 814.5,-112.5"/>
<text text-anchor="middle" x="856" y="-119.5" font-family="Helvetica,sans-Serif" font-size="10.00">../Util/SelFmt.h</text>
</a>
</g>
</g>
<!-- Node32&#45;&gt;Node33 -->
<g id="edge42" class="edge"><title>Node32&#45;&gt;Node33</title>
<path fill="none" stroke="midnightblue" d="M852.661,-168.083C853.185,-161.006 853.936,-150.861 854.594,-141.986"/>
<polygon fill="midnightblue" stroke="midnightblue" points="858.103,-141.982 855.352,-131.751 851.123,-141.465 858.103,-141.982"/>
</g>
<!-- Node33&#45;&gt;Node14 -->
<g id="edge43" class="edge"><title>Node33&#45;&gt;Node14</title>
<path fill="none" stroke="midnightblue" d="M821.457,-112.444C783.747,-103.102 723.26,-88.1194 682.135,-77.9326"/>
<polygon fill="midnightblue" stroke="midnightblue" points="682.929,-74.5236 672.381,-75.5164 681.246,-81.3182 682.929,-74.5236"/>
</g>
<!-- Node34&#45;&gt;Node24 -->
<g id="edge52" class="edge"><title>Node34&#45;&gt;Node24</title>
<path fill="none" stroke="midnightblue" d="M624.558,-291.475C620.752,-284.17 615.09,-273.302 609.97,-263.475"/>
<polygon fill="midnightblue" stroke="midnightblue" points="613.031,-261.774 605.306,-254.523 606.823,-265.009 613.031,-261.774"/>
</g>
<!-- Node35 -->
<g id="node35" class="node"><title>Node35</title>
<g id="a_node35"><a xlink:href="_dll_object_factory_8h.html" target="_top" xlink:title="../Util/DllObjectFactory.h">
<polygon fill="none" stroke="black" points="259.5,-230 259.5,-249 384.5,-249 384.5,-230 259.5,-230"/>
<text text-anchor="middle" x="322" y="-237" font-family="Helvetica,sans-Serif" font-size="10.00">../Util/DllObjectFactory.h</text>
</a>
</g>
</g>
<!-- Node34&#45;&gt;Node35 -->
<g id="edge45" class="edge"><title>Node34&#45;&gt;Node35</title>
<path fill="none" stroke="midnightblue" d="M585.014,-291.475C529.845,-280.783 435.295,-262.458 375.853,-250.937"/>
<polygon fill="midnightblue" stroke="midnightblue" points="376.387,-247.476 365.904,-249.009 375.055,-254.348 376.387,-247.476"/>
</g>
<!-- Node37 -->
<g id="node37" class="node"><title>Node37</title>
<g id="a_node37"><a xlink:href="_contact_effect_8h.html" target="_top" xlink:title="ContactEffect.h">
<polygon fill="none" stroke="black" points="795,-230 795,-249 881,-249 881,-230 795,-230"/>
<text text-anchor="middle" x="838" y="-237" font-family="Helvetica,sans-Serif" font-size="10.00">ContactEffect.h</text>
</a>
</g>
</g>
<!-- Node34&#45;&gt;Node37 -->
<g id="edge53" class="edge"><title>Node34&#45;&gt;Node37</title>
<path fill="none" stroke="midnightblue" d="M658.945,-291.475C695.572,-281.048 757.695,-263.362 798.284,-251.807"/>
<polygon fill="midnightblue" stroke="midnightblue" points="799.451,-255.113 808.111,-249.009 797.535,-248.381 799.451,-255.113"/>
</g>
<!-- Node38 -->
<g id="node38" class="node"><title>Node38</title>
<g id="a_node38"><a xlink:href="_shapes_8h.html" target="_top" xlink:title="Shapes.h">
<polygon fill="none" stroke="black" points="681,-230 681,-249 739,-249 739,-230 681,-230"/>
<text text-anchor="middle" x="710" y="-237" font-family="Helvetica,sans-Serif" font-size="10.00">Shapes.h</text>
</a>
</g>
</g>
<!-- Node34&#45;&gt;Node38 -->
<g id="edge55" class="edge"><title>Node34&#45;&gt;Node38</title>
<path fill="none" stroke="midnightblue" d="M640.605,-291.475C653.477,-282.02 674.474,-266.596 690.006,-255.187"/>
<polygon fill="midnightblue" stroke="midnightblue" points="692.429,-257.75 698.416,-249.009 688.285,-252.108 692.429,-257.75"/>
</g>
<!-- Node35&#45;&gt;Node14 -->
<g id="edge51" class="edge"><title>Node35&#45;&gt;Node14</title>
<path fill="none" stroke="midnightblue" d="M333.117,-229.805C365.975,-204.221 462.554,-129.876 498,-112 527.743,-97.0001 563.535,-85.6008 591.483,-78.0283"/>
<polygon fill="midnightblue" stroke="midnightblue" points="592.624,-81.3473 601.4,-75.412 590.838,-74.5789 592.624,-81.3473"/>
</g>
<!-- Node36 -->
<g id="node36" class="node"><title>Node36</title>
<g id="a_node36"><a xlink:href="_obj_stream_8h.html" target="_top" xlink:title="../Parcel/ObjStream.h">
<polygon fill="none" stroke="black" points="266.5,-168.5 266.5,-187.5 377.5,-187.5 377.5,-168.5 266.5,-168.5"/>
<text text-anchor="middle" x="322" y="-175.5" font-family="Helvetica,sans-Serif" font-size="10.00">../Parcel/ObjStream.h</text>
</a>
</g>
</g>
<!-- Node35&#45;&gt;Node36 -->
<g id="edge46" class="edge"><title>Node35&#45;&gt;Node36</title>
<path fill="none" stroke="midnightblue" d="M322,-229.975C322,-221.58 322,-208.481 322,-197.663"/>
<polygon fill="midnightblue" stroke="midnightblue" points="325.5,-197.509 322,-187.509 318.5,-197.509 325.5,-197.509"/>
</g>
<!-- Node36&#45;&gt;Node3 -->
<g id="edge48" class="edge"><title>Node36&#45;&gt;Node3</title>
<path fill="none" stroke="midnightblue" d="M280.327,-168.444C234.255,-158.984 160.004,-143.738 110.369,-133.547"/>
<polygon fill="midnightblue" stroke="midnightblue" points="110.978,-130.099 100.478,-131.516 109.57,-136.956 110.978,-130.099"/>
</g>
<!-- Node36&#45;&gt;Node7 -->
<g id="edge50" class="edge"><title>Node36&#45;&gt;Node7</title>
<path fill="none" stroke="midnightblue" d="M377.578,-171.958C392.936,-170.615 409.61,-169.204 425,-168 664.559,-149.256 954.037,-130.681 1046.27,-124.862"/>
<polygon fill="midnightblue" stroke="midnightblue" points="1046.52,-128.353 1056.28,-124.232 1046.08,-121.367 1046.52,-128.353"/>
</g>
<!-- Node36&#45;&gt;Node11 -->
<g id="edge47" class="edge"><title>Node36&#45;&gt;Node11</title>
<path fill="none" stroke="midnightblue" d="M321.843,-168.368C321.52,-150.617 320.776,-109.666 320.338,-85.5974"/>
<polygon fill="midnightblue" stroke="midnightblue" points="323.838,-85.5261 320.156,-75.5914 316.839,-85.6534 323.838,-85.5261"/>
</g>
<!-- Node36&#45;&gt;Node14 -->
<g id="edge49" class="edge"><title>Node36&#45;&gt;Node14</title>
<path fill="none" stroke="midnightblue" d="M332.112,-168.353C349.095,-154.297 384.944,-126.599 420,-112 476.265,-88.5686 545.945,-76.9285 591.155,-71.4444"/>
<polygon fill="midnightblue" stroke="midnightblue" points="591.726,-74.9017 601.256,-70.2723 590.919,-67.9483 591.726,-74.9017"/>
</g>
<!-- Node37&#45;&gt;Node12 -->
<g id="edge54" class="edge"><title>Node37&#45;&gt;Node12</title>
<path fill="none" stroke="midnightblue" d="M852.084,-229.835C866.672,-220.498 889.71,-204.715 907,-188 941.412,-154.732 974.2,-108.745 990.774,-84.1497"/>
<polygon fill="midnightblue" stroke="midnightblue" points="993.859,-85.8307 996.483,-75.5658 988.03,-81.9542 993.859,-85.8307"/>
</g>
<!-- Node38&#45;&gt;Node30 -->
<g id="edge56" class="edge"><title>Node38&#45;&gt;Node30</title>
<path fill="none" stroke="midnightblue" d="M722.6,-229.767C734.288,-220.825 750.911,-205.748 758,-188 764.555,-171.588 755.087,-152.975 745.607,-139.885"/>
<polygon fill="midnightblue" stroke="midnightblue" points="748.176,-137.49 739.239,-131.8 742.677,-141.822 748.176,-137.49"/>
</g>
<!-- Node39&#45;&gt;Node37 -->
<g id="edge58" class="edge"><title>Node39&#45;&gt;Node37</title>
<path fill="none" stroke="midnightblue" d="M819.152,-291.475C822.321,-282.904 827.304,-269.427 831.351,-258.483"/>
<polygon fill="midnightblue" stroke="midnightblue" points="834.668,-259.602 834.854,-249.009 828.103,-257.175 834.668,-259.602"/>
</g>
<!-- Node39&#45;&gt;Node38 -->
<g id="edge59" class="edge"><title>Node39&#45;&gt;Node38</title>
<path fill="none" stroke="midnightblue" d="M800.813,-291.475C783.338,-281.666 754.421,-265.435 733.917,-253.925"/>
<polygon fill="midnightblue" stroke="midnightblue" points="735.592,-250.852 725.159,-249.009 732.166,-256.956 735.592,-250.852"/>
</g>
<!-- Node40&#45;&gt;Node14 -->
<g id="edge61" class="edge"><title>Node40&#45;&gt;Node14</title>
<path fill="none" stroke="midnightblue" d="M949.051,-291.4C955.556,-261.776 972.506,-162.995 923,-112 890.824,-78.8568 757.089,-70.1124 684.827,-67.8136"/>
<polygon fill="midnightblue" stroke="midnightblue" points="684.728,-64.3093 674.631,-67.519 684.526,-71.3064 684.728,-64.3093"/>
</g>
<!-- Node41&#45;&gt;Node3 -->
<g id="edge63" class="edge"><title>Node41&#45;&gt;Node3</title>
<path fill="none" stroke="midnightblue" d="M315.9,-478.314C248.364,-467.707 149,-439.233 149,-363.5 149,-363.5 149,-363.5 149,-238.5 149,-205.401 145.038,-194.345 125,-168 114.904,-154.727 99.7306,-143.994 86.4769,-136.344"/>
<polygon fill="midnightblue" stroke="midnightblue" points="88.1481,-133.269 77.6941,-131.547 84.7927,-139.412 88.1481,-133.269"/>
</g>
<!-- Node42 -->
<g id="node42" class="node"><title>Node42</title>
<g id="a_node42"><a xlink:href="_resource_lib_8h.html" target="_top" xlink:title="ResourceLib.h">
<polygon fill="none" stroke="black" points="337,-414.5 337,-433.5 417,-433.5 417,-414.5 337,-414.5"/>
<text text-anchor="middle" x="377" y="-421.5" font-family="Helvetica,sans-Serif" font-size="10.00">ResourceLib.h</text>
</a>
</g>
</g>
<!-- Node41&#45;&gt;Node42 -->
<g id="edge64" class="edge"><title>Node41&#45;&gt;Node42</title>
<path fill="none" stroke="midnightblue" d="M377,-470.399C377,-462.466 377,-452.458 377,-443.858"/>
<polygon fill="midnightblue" stroke="midnightblue" points="380.5,-443.658 377,-433.658 373.5,-443.658 380.5,-443.658"/>
</g>
<!-- Node42&#45;&gt;Node7 -->
<g id="edge66" class="edge"><title>Node42&#45;&gt;Node7</title>
<path fill="none" stroke="midnightblue" d="M417.008,-421.402C491.663,-417.821 656.955,-407.053 793,-378 896.635,-355.869 1019,-407.972 1019,-302 1019,-302 1019,-302 1019,-238.5 1019,-199.783 1045.07,-160.604 1061.95,-139.298"/>
<polygon fill="midnightblue" stroke="midnightblue" points="1064.67,-141.506 1068.31,-131.557 1059.26,-137.062 1064.67,-141.506"/>
</g>
<!-- Node43 -->
<g id="node43" class="node"><title>Node43</title>
<polygon fill="none" stroke="#bfbfbf" points="289.5,-353 289.5,-372 324.5,-372 324.5,-353 289.5,-353"/>
<text text-anchor="middle" x="307" y="-360" font-family="Helvetica,sans-Serif" font-size="10.00">map</text>
</g>
<!-- Node42&#45;&gt;Node43 -->
<g id="edge65" class="edge"><title>Node42&#45;&gt;Node43</title>
<path fill="none" stroke="midnightblue" d="M366.971,-414.475C355.951,-405.108 338.04,-389.884 324.657,-378.508"/>
<polygon fill="midnightblue" stroke="midnightblue" points="326.897,-375.819 317.011,-372.009 322.363,-381.152 326.897,-375.819"/>
</g>
<!-- Node44 -->
<g id="node44" class="node"><title>Node44</title>
<g id="a_node44"><a xlink:href="_res_actor_8h.html" target="_top" xlink:title="ResActor.h">
<polygon fill="none" stroke="black" points="445,-291.5 445,-310.5 511,-310.5 511,-291.5 445,-291.5"/>
<text text-anchor="middle" x="478" y="-298.5" font-family="Helvetica,sans-Serif" font-size="10.00">ResActor.h</text>
</a>
</g>
</g>
<!-- Node42&#45;&gt;Node44 -->
<g id="edge67" class="edge"><title>Node42&#45;&gt;Node44</title>
<path fill="none" stroke="midnightblue" d="M385.866,-414.306C394.778,-405.435 408.766,-391.142 420,-378 436.768,-358.383 454.563,-334.56 465.952,-318.876"/>
<polygon fill="midnightblue" stroke="midnightblue" points="468.855,-320.835 471.861,-310.676 463.175,-316.743 468.855,-320.835"/>
</g>
<!-- Node46 -->
<g id="node46" class="node"><title>Node46</title>
<g id="a_node46"><a xlink:href="_res_sprite_8h.html" target="_top" xlink:title="ResSprite.h">
<polygon fill="none" stroke="black" points="343,-353 343,-372 411,-372 411,-353 343,-353"/>
<text text-anchor="middle" x="377" y="-360" font-family="Helvetica,sans-Serif" font-size="10.00">ResSprite.h</text>
</a>
</g>
</g>
<!-- Node42&#45;&gt;Node46 -->
<g id="edge71" class="edge"><title>Node42&#45;&gt;Node46</title>
<path fill="none" stroke="midnightblue" d="M377,-414.475C377,-406.08 377,-392.981 377,-382.163"/>
<polygon fill="midnightblue" stroke="midnightblue" points="380.5,-382.009 377,-372.009 373.5,-382.009 380.5,-382.009"/>
</g>
<!-- Node48 -->
<g id="node48" class="node"><title>Node48</title>
<g id="a_node48"><a xlink:href="_res_sound_8h.html" target="_top" xlink:title="ResSound.h">
<polygon fill="none" stroke="black" points="177.5,-168.5 177.5,-187.5 248.5,-187.5 248.5,-168.5 177.5,-168.5"/>
<text text-anchor="middle" x="213" y="-175.5" font-family="Helvetica,sans-Serif" font-size="10.00">ResSound.h</text>
</a>
</g>
</g>
<!-- Node42&#45;&gt;Node48 -->
<g id="edge75" class="edge"><title>Node42&#45;&gt;Node48</title>
<path fill="none" stroke="midnightblue" d="M342.282,-414.4C321.631,-407.644 296.352,-396.251 280,-378 232.381,-324.853 218.412,-236.631 214.474,-198.048"/>
<polygon fill="midnightblue" stroke="midnightblue" points="217.93,-197.408 213.548,-187.762 210.958,-198.035 217.93,-197.408"/>
</g>
<!-- Node44&#45;&gt;Node24 -->
<g id="edge70" class="edge"><title>Node44&#45;&gt;Node24</title>
<path fill="none" stroke="midnightblue" d="M495.193,-291.475C512.205,-283.04 538.796,-269.855 560.673,-259.008"/>
<polygon fill="midnightblue" stroke="midnightblue" points="562.314,-262.101 569.718,-254.523 559.204,-255.83 562.314,-262.101"/>
</g>
<!-- Node45 -->
<g id="node45" class="node"><title>Node45</title>
<g id="a_node45"><a xlink:href="_res_bitmap_8h.html" target="_top" xlink:title="ResBitmap.h">
<polygon fill="none" stroke="black" points="441,-230 441,-249 515,-249 515,-230 441,-230"/>
<text text-anchor="middle" x="478" y="-237" font-family="Helvetica,sans-Serif" font-size="10.00">ResBitmap.h</text>
</a>
</g>
</g>
<!-- Node44&#45;&gt;Node45 -->
<g id="edge68" class="edge"><title>Node44&#45;&gt;Node45</title>
<path fill="none" stroke="midnightblue" d="M478,-291.475C478,-283.08 478,-269.981 478,-259.163"/>
<polygon fill="midnightblue" stroke="midnightblue" points="481.5,-259.009 478,-249.009 474.5,-259.009 481.5,-259.009"/>
</g>
<!-- Node45&#45;&gt;Node28 -->
<g id="edge69" class="edge"><title>Node45&#45;&gt;Node28</title>
<path fill="none" stroke="midnightblue" d="M489.175,-229.975C501.571,-220.52 521.79,-205.096 536.746,-193.687"/>
<polygon fill="midnightblue" stroke="midnightblue" points="539.017,-196.357 544.845,-187.509 534.772,-190.791 539.017,-196.357"/>
</g>
<!-- Node47 -->
<g id="node47" class="node"><title>Node47</title>
<g id="a_node47"><a xlink:href="_sprite_8h.html" target="_top" xlink:title="../VideoServices/Sprite.h">
<polygon fill="none" stroke="black" points="301.5,-291.5 301.5,-310.5 426.5,-310.5 426.5,-291.5 301.5,-291.5"/>
<text text-anchor="middle" x="364" y="-298.5" font-family="Helvetica,sans-Serif" font-size="10.00">../VideoServices/Sprite.h</text>
</a>
</g>
</g>
<!-- Node46&#45;&gt;Node47 -->
<g id="edge72" class="edge"><title>Node46&#45;&gt;Node47</title>
<path fill="none" stroke="midnightblue" d="M375.137,-352.975C373.284,-344.492 370.381,-331.204 368.003,-320.322"/>
<polygon fill="midnightblue" stroke="midnightblue" points="371.413,-319.532 365.859,-310.509 364.574,-321.026 371.413,-319.532"/>
</g>
<!-- Node47&#45;&gt;Node25 -->
<g id="edge73" class="edge"><title>Node47&#45;&gt;Node25</title>
<path fill="none" stroke="midnightblue" d="M371.767,-291.298C389.748,-271.153 434.462,-221.056 457.608,-195.125"/>
<polygon fill="midnightblue" stroke="midnightblue" points="460.255,-197.414 464.303,-187.623 455.033,-192.753 460.255,-197.414"/>
</g>
<!-- Node47&#45;&gt;Node35 -->
<g id="edge74" class="edge"><title>Node47&#45;&gt;Node35</title>
<path fill="none" stroke="midnightblue" d="M357.982,-291.475C351.745,-282.638 341.827,-268.589 333.982,-257.475"/>
<polygon fill="midnightblue" stroke="midnightblue" points="336.633,-255.16 328.006,-249.009 330.914,-259.197 336.633,-255.16"/>
</g>
<!-- Node48&#45;&gt;Node14 -->
<g id="edge78" class="edge"><title>Node48&#45;&gt;Node14</title>
<path fill="none" stroke="midnightblue" d="M231.499,-168.332C261.722,-154.497 323.857,-127.417 379,-112 451.935,-91.6086 539.138,-78.7454 591.468,-72.2185"/>
<polygon fill="midnightblue" stroke="midnightblue" points="591.954,-75.6853 601.455,-70.9972 591.104,-68.737 591.954,-75.6853"/>
</g>
<!-- Node49 -->
<g id="node49" class="node"><title>Node49</title>
<g id="a_node49"><a xlink:href="_sound_server_8h.html" target="_top" xlink:title="../VideoServices/SoundServer.h">
<polygon fill="none" stroke="black" points="136,-112.5 136,-131.5 292,-131.5 292,-112.5 136,-112.5"/>
<text text-anchor="middle" x="214" y="-119.5" font-family="Helvetica,sans-Serif" font-size="10.00">../VideoServices/SoundServer.h</text>
</a>
</g>
</g>
<!-- Node48&#45;&gt;Node49 -->
<g id="edge76" class="edge"><title>Node48&#45;&gt;Node49</title>
<path fill="none" stroke="midnightblue" d="M213.165,-168.083C213.296,-161.006 213.484,-150.861 213.648,-141.986"/>
<polygon fill="midnightblue" stroke="midnightblue" points="217.152,-141.814 213.838,-131.751 210.153,-141.685 217.152,-141.814"/>
</g>
<!-- Node49&#45;&gt;Node11 -->
<g id="edge77" class="edge"><title>Node49&#45;&gt;Node11</title>
<path fill="none" stroke="midnightblue" d="M231.031,-112.324C248.03,-103.664 274.376,-90.2424 293.993,-80.249"/>
<polygon fill="midnightblue" stroke="midnightblue" points="295.69,-83.3125 303.012,-75.6545 292.512,-77.0752 295.69,-83.3125"/>
</g>
</g>
</svg>
